<?xml version="1.0" encoding="utf-8" standalone="no"?>
<!DOCTYPE svg PUBLIC "-//W3C//DTD SVG 1.1//EN"
  "http://www.w3.org/Graphics/SVG/1.1/DTD/svg11.dtd">
<svg xmlns:xlink="http://www.w3.org/1999/xlink" width="389.140979pt" height="268.200625pt" viewBox="0 0 389.140979 268.200625" xmlns="http://www.w3.org/2000/svg" version="1.1">
 <metadata>
  <rdf:RDF xmlns:dc="http://purl.org/dc/elements/1.1/" xmlns:cc="http://creativecommons.org/ns#" xmlns:rdf="http://www.w3.org/1999/02/22-rdf-syntax-ns#">
   <cc:Work>
    <dc:type rdf:resource="http://purl.org/dc/dcmitype/StillImage"/>
    <dc:date>2025-06-18T14:01:45.300435</dc:date>
    <dc:format>image/svg+xml</dc:format>
    <dc:creator>
     <cc:Agent>
      <dc:title>Matplotlib v3.10.1, https://matplotlib.org/</dc:title>
     </cc:Agent>
    </dc:creator>
   </cc:Work>
  </rdf:RDF>
 </metadata>
 <defs>
  <style type="text/css">*{stroke-linejoin: round; stroke-linecap: butt}</style>
 </defs>
 <g id="figure_1">
  <g id="patch_1">
   <path d="M 0 268.200625 
L 389.140979 268.200625 
L 389.140979 0 
L 0 0 
z
" style="fill: #ffffff"/>
  </g>
  <g id="axes_1">
   <g id="patch_2">
    <path d="M 46.965625 228.96 
L 381.765625 228.96 
L 381.765625 7.2 
L 46.965625 7.2 
z
" style="fill: #ffffff"/>
   </g>
   <g id="matplotlib.axis_1">
    <g id="xtick_1">
     <g id="line2d_1">
      <defs>
       <path id="mcec060c018" d="M 0 0 
L 0 3.5 
" style="stroke: #000000; stroke-width: 0.8"/>
      </defs>
      <g>
       <use xlink:href="#mcec060c018" x="62.448692" y="228.96" style="stroke: #000000; stroke-width: 0.8"/>
      </g>
     </g>
     <g id="text_1">
      <!-- 5.25 -->
      <g transform="translate(51.31588 243.558437) scale(0.1 -0.1)">
       <defs>
        <path id="DejaVuSans-35" d="M 691 4666 
L 3169 4666 
L 3169 4134 
L 1269 4134 
L 1269 2991 
Q 1406 3038 1543 3061 
Q 1681 3084 1819 3084 
Q 2600 3084 3056 2656 
Q 3513 2228 3513 1497 
Q 3513 744 3044 326 
Q 2575 -91 1722 -91 
Q 1428 -91 1123 -41 
Q 819 9 494 109 
L 494 744 
Q 775 591 1075 516 
Q 1375 441 1709 441 
Q 2250 441 2565 725 
Q 2881 1009 2881 1497 
Q 2881 1984 2565 2268 
Q 2250 2553 1709 2553 
Q 1456 2553 1204 2497 
Q 953 2441 691 2322 
L 691 4666 
z
" transform="scale(0.015625)"/>
        <path id="DejaVuSans-2e" d="M 684 794 
L 1344 794 
L 1344 0 
L 684 0 
L 684 794 
z
" transform="scale(0.015625)"/>
        <path id="DejaVuSans-32" d="M 1228 531 
L 3431 531 
L 3431 0 
L 469 0 
L 469 531 
Q 828 903 1448 1529 
Q 2069 2156 2228 2338 
Q 2531 2678 2651 2914 
Q 2772 3150 2772 3378 
Q 2772 3750 2511 3984 
Q 2250 4219 1831 4219 
Q 1534 4219 1204 4116 
Q 875 4013 500 3803 
L 500 4441 
Q 881 4594 1212 4672 
Q 1544 4750 1819 4750 
Q 2544 4750 2975 4387 
Q 3406 4025 3406 3419 
Q 3406 3131 3298 2873 
Q 3191 2616 2906 2266 
Q 2828 2175 2409 1742 
Q 1991 1309 1228 531 
z
" transform="scale(0.015625)"/>
       </defs>
       <use xlink:href="#DejaVuSans-35"/>
       <use xlink:href="#DejaVuSans-2e" transform="translate(63.623047 0)"/>
       <use xlink:href="#DejaVuSans-32" transform="translate(95.410156 0)"/>
       <use xlink:href="#DejaVuSans-35" transform="translate(159.033203 0)"/>
      </g>
     </g>
    </g>
    <g id="xtick_2">
     <g id="line2d_2">
      <g>
       <use xlink:href="#mcec060c018" x="106.500046" y="228.96" style="stroke: #000000; stroke-width: 0.8"/>
      </g>
     </g>
     <g id="text_2">
      <!-- 5.50 -->
      <g transform="translate(95.367233 243.558437) scale(0.1 -0.1)">
       <defs>
        <path id="DejaVuSans-30" d="M 2034 4250 
Q 1547 4250 1301 3770 
Q 1056 3291 1056 2328 
Q 1056 1369 1301 889 
Q 1547 409 2034 409 
Q 2525 409 2770 889 
Q 3016 1369 3016 2328 
Q 3016 3291 2770 3770 
Q 2525 4250 2034 4250 
z
M 2034 4750 
Q 2819 4750 3233 4129 
Q 3647 3509 3647 2328 
Q 3647 1150 3233 529 
Q 2819 -91 2034 -91 
Q 1250 -91 836 529 
Q 422 1150 422 2328 
Q 422 3509 836 4129 
Q 1250 4750 2034 4750 
z
" transform="scale(0.015625)"/>
       </defs>
       <use xlink:href="#DejaVuSans-35"/>
       <use xlink:href="#DejaVuSans-2e" transform="translate(63.623047 0)"/>
       <use xlink:href="#DejaVuSans-35" transform="translate(95.410156 0)"/>
       <use xlink:href="#DejaVuSans-30" transform="translate(159.033203 0)"/>
      </g>
     </g>
    </g>
    <g id="xtick_3">
     <g id="line2d_3">
      <g>
       <use xlink:href="#mcec060c018" x="150.551399" y="228.96" style="stroke: #000000; stroke-width: 0.8"/>
      </g>
     </g>
     <g id="text_3">
      <!-- 5.75 -->
      <g transform="translate(139.418587 243.558437) scale(0.1 -0.1)">
       <defs>
        <path id="DejaVuSans-37" d="M 525 4666 
L 3525 4666 
L 3525 4397 
L 1831 0 
L 1172 0 
L 2766 4134 
L 525 4134 
L 525 4666 
z
" transform="scale(0.015625)"/>
       </defs>
       <use xlink:href="#DejaVuSans-35"/>
       <use xlink:href="#DejaVuSans-2e" transform="translate(63.623047 0)"/>
       <use xlink:href="#DejaVuSans-37" transform="translate(95.410156 0)"/>
       <use xlink:href="#DejaVuSans-35" transform="translate(159.033203 0)"/>
      </g>
     </g>
    </g>
    <g id="xtick_4">
     <g id="line2d_4">
      <g>
       <use xlink:href="#mcec060c018" x="194.602753" y="228.96" style="stroke: #000000; stroke-width: 0.8"/>
      </g>
     </g>
     <g id="text_4">
      <!-- 6.00 -->
      <g transform="translate(183.46994 243.558437) scale(0.1 -0.1)">
       <defs>
        <path id="DejaVuSans-36" d="M 2113 2584 
Q 1688 2584 1439 2293 
Q 1191 2003 1191 1497 
Q 1191 994 1439 701 
Q 1688 409 2113 409 
Q 2538 409 2786 701 
Q 3034 994 3034 1497 
Q 3034 2003 2786 2293 
Q 2538 2584 2113 2584 
z
M 3366 4563 
L 3366 3988 
Q 3128 4100 2886 4159 
Q 2644 4219 2406 4219 
Q 1781 4219 1451 3797 
Q 1122 3375 1075 2522 
Q 1259 2794 1537 2939 
Q 1816 3084 2150 3084 
Q 2853 3084 3261 2657 
Q 3669 2231 3669 1497 
Q 3669 778 3244 343 
Q 2819 -91 2113 -91 
Q 1303 -91 875 529 
Q 447 1150 447 2328 
Q 447 3434 972 4092 
Q 1497 4750 2381 4750 
Q 2619 4750 2861 4703 
Q 3103 4656 3366 4563 
z
" transform="scale(0.015625)"/>
       </defs>
       <use xlink:href="#DejaVuSans-36"/>
       <use xlink:href="#DejaVuSans-2e" transform="translate(63.623047 0)"/>
       <use xlink:href="#DejaVuSans-30" transform="translate(95.410156 0)"/>
       <use xlink:href="#DejaVuSans-30" transform="translate(159.033203 0)"/>
      </g>
     </g>
    </g>
    <g id="xtick_5">
     <g id="line2d_5">
      <g>
       <use xlink:href="#mcec060c018" x="238.654106" y="228.96" style="stroke: #000000; stroke-width: 0.8"/>
      </g>
     </g>
     <g id="text_5">
      <!-- 6.25 -->
      <g transform="translate(227.521294 243.558437) scale(0.1 -0.1)">
       <use xlink:href="#DejaVuSans-36"/>
       <use xlink:href="#DejaVuSans-2e" transform="translate(63.623047 0)"/>
       <use xlink:href="#DejaVuSans-32" transform="translate(95.410156 0)"/>
       <use xlink:href="#DejaVuSans-35" transform="translate(159.033203 0)"/>
      </g>
     </g>
    </g>
    <g id="xtick_6">
     <g id="line2d_6">
      <g>
       <use xlink:href="#mcec060c018" x="282.70546" y="228.96" style="stroke: #000000; stroke-width: 0.8"/>
      </g>
     </g>
     <g id="text_6">
      <!-- 6.50 -->
      <g transform="translate(271.572647 243.558437) scale(0.1 -0.1)">
       <use xlink:href="#DejaVuSans-36"/>
       <use xlink:href="#DejaVuSans-2e" transform="translate(63.623047 0)"/>
       <use xlink:href="#DejaVuSans-35" transform="translate(95.410156 0)"/>
       <use xlink:href="#DejaVuSans-30" transform="translate(159.033203 0)"/>
      </g>
     </g>
    </g>
    <g id="xtick_7">
     <g id="line2d_7">
      <g>
       <use xlink:href="#mcec060c018" x="326.756813" y="228.96" style="stroke: #000000; stroke-width: 0.8"/>
      </g>
     </g>
     <g id="text_7">
      <!-- 6.75 -->
      <g transform="translate(315.624001 243.558437) scale(0.1 -0.1)">
       <use xlink:href="#DejaVuSans-36"/>
       <use xlink:href="#DejaVuSans-2e" transform="translate(63.623047 0)"/>
       <use xlink:href="#DejaVuSans-37" transform="translate(95.410156 0)"/>
       <use xlink:href="#DejaVuSans-35" transform="translate(159.033203 0)"/>
      </g>
     </g>
    </g>
    <g id="xtick_8">
     <g id="line2d_8">
      <g>
       <use xlink:href="#mcec060c018" x="370.808166" y="228.96" style="stroke: #000000; stroke-width: 0.8"/>
      </g>
     </g>
     <g id="text_8">
      <!-- 7.00 -->
      <g transform="translate(359.675354 243.558437) scale(0.1 -0.1)">
       <use xlink:href="#DejaVuSans-37"/>
       <use xlink:href="#DejaVuSans-2e" transform="translate(63.623047 0)"/>
       <use xlink:href="#DejaVuSans-30" transform="translate(95.410156 0)"/>
       <use xlink:href="#DejaVuSans-30" transform="translate(159.033203 0)"/>
      </g>
     </g>
    </g>
    <g id="text_9">
     <!-- wavelength [Å] -->
     <g transform="translate(176.328125 258.920937) scale(0.1 -0.1)">
      <defs>
       <path id="DejaVuSans-77" d="M 269 3500 
L 844 3500 
L 1563 769 
L 2278 3500 
L 2956 3500 
L 3675 769 
L 4391 3500 
L 4966 3500 
L 4050 0 
L 3372 0 
L 2619 2869 
L 1863 0 
L 1184 0 
L 269 3500 
z
" transform="scale(0.015625)"/>
       <path id="DejaVuSans-61" d="M 2194 1759 
Q 1497 1759 1228 1600 
Q 959 1441 959 1056 
Q 959 750 1161 570 
Q 1363 391 1709 391 
Q 2188 391 2477 730 
Q 2766 1069 2766 1631 
L 2766 1759 
L 2194 1759 
z
M 3341 1997 
L 3341 0 
L 2766 0 
L 2766 531 
Q 2569 213 2275 61 
Q 1981 -91 1556 -91 
Q 1019 -91 701 211 
Q 384 513 384 1019 
Q 384 1609 779 1909 
Q 1175 2209 1959 2209 
L 2766 2209 
L 2766 2266 
Q 2766 2663 2505 2880 
Q 2244 3097 1772 3097 
Q 1472 3097 1187 3025 
Q 903 2953 641 2809 
L 641 3341 
Q 956 3463 1253 3523 
Q 1550 3584 1831 3584 
Q 2591 3584 2966 3190 
Q 3341 2797 3341 1997 
z
" transform="scale(0.015625)"/>
       <path id="DejaVuSans-76" d="M 191 3500 
L 800 3500 
L 1894 563 
L 2988 3500 
L 3597 3500 
L 2284 0 
L 1503 0 
L 191 3500 
z
" transform="scale(0.015625)"/>
       <path id="DejaVuSans-65" d="M 3597 1894 
L 3597 1613 
L 953 1613 
Q 991 1019 1311 708 
Q 1631 397 2203 397 
Q 2534 397 2845 478 
Q 3156 559 3463 722 
L 3463 178 
Q 3153 47 2828 -22 
Q 2503 -91 2169 -91 
Q 1331 -91 842 396 
Q 353 884 353 1716 
Q 353 2575 817 3079 
Q 1281 3584 2069 3584 
Q 2775 3584 3186 3129 
Q 3597 2675 3597 1894 
z
M 3022 2063 
Q 3016 2534 2758 2815 
Q 2500 3097 2075 3097 
Q 1594 3097 1305 2825 
Q 1016 2553 972 2059 
L 3022 2063 
z
" transform="scale(0.015625)"/>
       <path id="DejaVuSans-6c" d="M 603 4863 
L 1178 4863 
L 1178 0 
L 603 0 
L 603 4863 
z
" transform="scale(0.015625)"/>
       <path id="DejaVuSans-6e" d="M 3513 2113 
L 3513 0 
L 2938 0 
L 2938 2094 
Q 2938 2591 2744 2837 
Q 2550 3084 2163 3084 
Q 1697 3084 1428 2787 
Q 1159 2491 1159 1978 
L 1159 0 
L 581 0 
L 581 3500 
L 1159 3500 
L 1159 2956 
Q 1366 3272 1645 3428 
Q 1925 3584 2291 3584 
Q 2894 3584 3203 3211 
Q 3513 2838 3513 2113 
z
" transform="scale(0.015625)"/>
       <path id="DejaVuSans-67" d="M 2906 1791 
Q 2906 2416 2648 2759 
Q 2391 3103 1925 3103 
Q 1463 3103 1205 2759 
Q 947 2416 947 1791 
Q 947 1169 1205 825 
Q 1463 481 1925 481 
Q 2391 481 2648 825 
Q 2906 1169 2906 1791 
z
M 3481 434 
Q 3481 -459 3084 -895 
Q 2688 -1331 1869 -1331 
Q 1566 -1331 1297 -1286 
Q 1028 -1241 775 -1147 
L 775 -588 
Q 1028 -725 1275 -790 
Q 1522 -856 1778 -856 
Q 2344 -856 2625 -561 
Q 2906 -266 2906 331 
L 2906 616 
Q 2728 306 2450 153 
Q 2172 0 1784 0 
Q 1141 0 747 490 
Q 353 981 353 1791 
Q 353 2603 747 3093 
Q 1141 3584 1784 3584 
Q 2172 3584 2450 3431 
Q 2728 3278 2906 2969 
L 2906 3500 
L 3481 3500 
L 3481 434 
z
" transform="scale(0.015625)"/>
       <path id="DejaVuSans-74" d="M 1172 4494 
L 1172 3500 
L 2356 3500 
L 2356 3053 
L 1172 3053 
L 1172 1153 
Q 1172 725 1289 603 
Q 1406 481 1766 481 
L 2356 481 
L 2356 0 
L 1766 0 
Q 1100 0 847 248 
Q 594 497 594 1153 
L 594 3053 
L 172 3053 
L 172 3500 
L 594 3500 
L 594 4494 
L 1172 4494 
z
" transform="scale(0.015625)"/>
       <path id="DejaVuSans-68" d="M 3513 2113 
L 3513 0 
L 2938 0 
L 2938 2094 
Q 2938 2591 2744 2837 
Q 2550 3084 2163 3084 
Q 1697 3084 1428 2787 
Q 1159 2491 1159 1978 
L 1159 0 
L 581 0 
L 581 4863 
L 1159 4863 
L 1159 2956 
Q 1366 3272 1645 3428 
Q 1925 3584 2291 3584 
Q 2894 3584 3203 3211 
Q 3513 2838 3513 2113 
z
" transform="scale(0.015625)"/>
       <path id="DejaVuSans-20" transform="scale(0.015625)"/>
       <path id="DejaVuSans-5b" d="M 550 4863 
L 1875 4863 
L 1875 4416 
L 1125 4416 
L 1125 -397 
L 1875 -397 
L 1875 -844 
L 550 -844 
L 550 4863 
z
" transform="scale(0.015625)"/>
       <path id="DejaVuSans-c5" d="M 2663 5081 
Q 2663 5278 2523 5417 
Q 2384 5556 2188 5556 
Q 1988 5556 1852 5420 
Q 1716 5284 1716 5081 
Q 1716 4884 1853 4746 
Q 1991 4609 2188 4609 
Q 2384 4609 2523 4746 
Q 2663 4884 2663 5081 
z
M 2188 4044 
L 1338 1722 
L 3041 1722 
L 2188 4044 
z
M 1716 4366 
Q 1525 4494 1428 4673 
Q 1331 4853 1331 5081 
Q 1331 5441 1579 5691 
Q 1828 5941 2188 5941 
Q 2544 5941 2795 5689 
Q 3047 5438 3047 5081 
Q 3047 4863 2948 4678 
Q 2850 4494 2663 4366 
L 4325 0 
L 3669 0 
L 3244 1197 
L 1141 1197 
L 716 0 
L 50 0 
L 1716 4366 
z
" transform="scale(0.015625)"/>
       <path id="DejaVuSans-5d" d="M 1947 4863 
L 1947 -844 
L 622 -844 
L 622 -397 
L 1369 -397 
L 1369 4416 
L 622 4416 
L 622 4863 
L 1947 4863 
z
" transform="scale(0.015625)"/>
      </defs>
      <use xlink:href="#DejaVuSans-77"/>
      <use xlink:href="#DejaVuSans-61" transform="translate(81.787109 0)"/>
      <use xlink:href="#DejaVuSans-76" transform="translate(143.066406 0)"/>
      <use xlink:href="#DejaVuSans-65" transform="translate(202.246094 0)"/>
      <use xlink:href="#DejaVuSans-6c" transform="translate(263.769531 0)"/>
      <use xlink:href="#DejaVuSans-65" transform="translate(291.552734 0)"/>
      <use xlink:href="#DejaVuSans-6e" transform="translate(353.076172 0)"/>
      <use xlink:href="#DejaVuSans-67" transform="translate(416.455078 0)"/>
      <use xlink:href="#DejaVuSans-74" transform="translate(479.931641 0)"/>
      <use xlink:href="#DejaVuSans-68" transform="translate(519.140625 0)"/>
      <use xlink:href="#DejaVuSans-20" transform="translate(582.519531 0)"/>
      <use xlink:href="#DejaVuSans-5b" transform="translate(614.306641 0)"/>
      <use xlink:href="#DejaVuSans-c5" transform="translate(653.320312 0)"/>
      <use xlink:href="#DejaVuSans-5d" transform="translate(721.728516 0)"/>
     </g>
    </g>
   </g>
   <g id="matplotlib.axis_2">
    <g id="ytick_1">
     <g id="line2d_9">
      <defs>
       <path id="m3af99ca05c" d="M 0 0 
L -3.5 0 
" style="stroke: #000000; stroke-width: 0.8"/>
      </defs>
      <g>
       <use xlink:href="#m3af99ca05c" x="46.965625" y="218.880001" style="stroke: #000000; stroke-width: 0.8"/>
      </g>
     </g>
     <g id="text_10">
      <!-- 0 -->
      <g transform="translate(33.603125 222.679219) scale(0.1 -0.1)">
       <use xlink:href="#DejaVuSans-30"/>
      </g>
     </g>
    </g>
    <g id="ytick_2">
     <g id="line2d_10">
      <g>
       <use xlink:href="#m3af99ca05c" x="46.965625" y="185.651744" style="stroke: #000000; stroke-width: 0.8"/>
      </g>
     </g>
     <g id="text_11">
      <!-- 100 -->
      <g transform="translate(20.878125 189.450962) scale(0.1 -0.1)">
       <defs>
        <path id="DejaVuSans-31" d="M 794 531 
L 1825 531 
L 1825 4091 
L 703 3866 
L 703 4441 
L 1819 4666 
L 2450 4666 
L 2450 531 
L 3481 531 
L 3481 0 
L 794 0 
L 794 531 
z
" transform="scale(0.015625)"/>
       </defs>
       <use xlink:href="#DejaVuSans-31"/>
       <use xlink:href="#DejaVuSans-30" transform="translate(63.623047 0)"/>
       <use xlink:href="#DejaVuSans-30" transform="translate(127.246094 0)"/>
      </g>
     </g>
    </g>
    <g id="ytick_3">
     <g id="line2d_11">
      <g>
       <use xlink:href="#m3af99ca05c" x="46.965625" y="152.423486" style="stroke: #000000; stroke-width: 0.8"/>
      </g>
     </g>
     <g id="text_12">
      <!-- 200 -->
      <g transform="translate(20.878125 156.222705) scale(0.1 -0.1)">
       <use xlink:href="#DejaVuSans-32"/>
       <use xlink:href="#DejaVuSans-30" transform="translate(63.623047 0)"/>
       <use xlink:href="#DejaVuSans-30" transform="translate(127.246094 0)"/>
      </g>
     </g>
    </g>
    <g id="ytick_4">
     <g id="line2d_12">
      <g>
       <use xlink:href="#m3af99ca05c" x="46.965625" y="119.195229" style="stroke: #000000; stroke-width: 0.8"/>
      </g>
     </g>
     <g id="text_13">
      <!-- 300 -->
      <g transform="translate(20.878125 122.994448) scale(0.1 -0.1)">
       <defs>
        <path id="DejaVuSans-33" d="M 2597 2516 
Q 3050 2419 3304 2112 
Q 3559 1806 3559 1356 
Q 3559 666 3084 287 
Q 2609 -91 1734 -91 
Q 1441 -91 1130 -33 
Q 819 25 488 141 
L 488 750 
Q 750 597 1062 519 
Q 1375 441 1716 441 
Q 2309 441 2620 675 
Q 2931 909 2931 1356 
Q 2931 1769 2642 2001 
Q 2353 2234 1838 2234 
L 1294 2234 
L 1294 2753 
L 1863 2753 
Q 2328 2753 2575 2939 
Q 2822 3125 2822 3475 
Q 2822 3834 2567 4026 
Q 2313 4219 1838 4219 
Q 1578 4219 1281 4162 
Q 984 4106 628 3988 
L 628 4550 
Q 988 4650 1302 4700 
Q 1616 4750 1894 4750 
Q 2613 4750 3031 4423 
Q 3450 4097 3450 3541 
Q 3450 3153 3228 2886 
Q 3006 2619 2597 2516 
z
" transform="scale(0.015625)"/>
       </defs>
       <use xlink:href="#DejaVuSans-33"/>
       <use xlink:href="#DejaVuSans-30" transform="translate(63.623047 0)"/>
       <use xlink:href="#DejaVuSans-30" transform="translate(127.246094 0)"/>
      </g>
     </g>
    </g>
    <g id="ytick_5">
     <g id="line2d_13">
      <g>
       <use xlink:href="#m3af99ca05c" x="46.965625" y="85.966972" style="stroke: #000000; stroke-width: 0.8"/>
      </g>
     </g>
     <g id="text_14">
      <!-- 400 -->
      <g transform="translate(20.878125 89.766191) scale(0.1 -0.1)">
       <defs>
        <path id="DejaVuSans-34" d="M 2419 4116 
L 825 1625 
L 2419 1625 
L 2419 4116 
z
M 2253 4666 
L 3047 4666 
L 3047 1625 
L 3713 1625 
L 3713 1100 
L 3047 1100 
L 3047 0 
L 2419 0 
L 2419 1100 
L 313 1100 
L 313 1709 
L 2253 4666 
z
" transform="scale(0.015625)"/>
       </defs>
       <use xlink:href="#DejaVuSans-34"/>
       <use xlink:href="#DejaVuSans-30" transform="translate(63.623047 0)"/>
       <use xlink:href="#DejaVuSans-30" transform="translate(127.246094 0)"/>
      </g>
     </g>
    </g>
    <g id="ytick_6">
     <g id="line2d_14">
      <g>
       <use xlink:href="#m3af99ca05c" x="46.965625" y="52.738715" style="stroke: #000000; stroke-width: 0.8"/>
      </g>
     </g>
     <g id="text_15">
      <!-- 500 -->
      <g transform="translate(20.878125 56.537934) scale(0.1 -0.1)">
       <use xlink:href="#DejaVuSans-35"/>
       <use xlink:href="#DejaVuSans-30" transform="translate(63.623047 0)"/>
       <use xlink:href="#DejaVuSans-30" transform="translate(127.246094 0)"/>
      </g>
     </g>
    </g>
    <g id="ytick_7">
     <g id="line2d_15">
      <g>
       <use xlink:href="#m3af99ca05c" x="46.965625" y="19.510458" style="stroke: #000000; stroke-width: 0.8"/>
      </g>
     </g>
     <g id="text_16">
      <!-- 600 -->
      <g transform="translate(20.878125 23.309677) scale(0.1 -0.1)">
       <use xlink:href="#DejaVuSans-36"/>
       <use xlink:href="#DejaVuSans-30" transform="translate(63.623047 0)"/>
       <use xlink:href="#DejaVuSans-30" transform="translate(127.246094 0)"/>
      </g>
     </g>
    </g>
    <g id="text_17">
     <!-- [counts] -->
     <g transform="translate(14.798438 138.6925) rotate(-90) scale(0.1 -0.1)">
      <defs>
       <path id="DejaVuSans-63" d="M 3122 3366 
L 3122 2828 
Q 2878 2963 2633 3030 
Q 2388 3097 2138 3097 
Q 1578 3097 1268 2742 
Q 959 2388 959 1747 
Q 959 1106 1268 751 
Q 1578 397 2138 397 
Q 2388 397 2633 464 
Q 2878 531 3122 666 
L 3122 134 
Q 2881 22 2623 -34 
Q 2366 -91 2075 -91 
Q 1284 -91 818 406 
Q 353 903 353 1747 
Q 353 2603 823 3093 
Q 1294 3584 2113 3584 
Q 2378 3584 2631 3529 
Q 2884 3475 3122 3366 
z
" transform="scale(0.015625)"/>
       <path id="DejaVuSans-6f" d="M 1959 3097 
Q 1497 3097 1228 2736 
Q 959 2375 959 1747 
Q 959 1119 1226 758 
Q 1494 397 1959 397 
Q 2419 397 2687 759 
Q 2956 1122 2956 1747 
Q 2956 2369 2687 2733 
Q 2419 3097 1959 3097 
z
M 1959 3584 
Q 2709 3584 3137 3096 
Q 3566 2609 3566 1747 
Q 3566 888 3137 398 
Q 2709 -91 1959 -91 
Q 1206 -91 779 398 
Q 353 888 353 1747 
Q 353 2609 779 3096 
Q 1206 3584 1959 3584 
z
" transform="scale(0.015625)"/>
       <path id="DejaVuSans-75" d="M 544 1381 
L 544 3500 
L 1119 3500 
L 1119 1403 
Q 1119 906 1312 657 
Q 1506 409 1894 409 
Q 2359 409 2629 706 
Q 2900 1003 2900 1516 
L 2900 3500 
L 3475 3500 
L 3475 0 
L 2900 0 
L 2900 538 
Q 2691 219 2414 64 
Q 2138 -91 1772 -91 
Q 1169 -91 856 284 
Q 544 659 544 1381 
z
M 1991 3584 
L 1991 3584 
z
" transform="scale(0.015625)"/>
       <path id="DejaVuSans-73" d="M 2834 3397 
L 2834 2853 
Q 2591 2978 2328 3040 
Q 2066 3103 1784 3103 
Q 1356 3103 1142 2972 
Q 928 2841 928 2578 
Q 928 2378 1081 2264 
Q 1234 2150 1697 2047 
L 1894 2003 
Q 2506 1872 2764 1633 
Q 3022 1394 3022 966 
Q 3022 478 2636 193 
Q 2250 -91 1575 -91 
Q 1294 -91 989 -36 
Q 684 19 347 128 
L 347 722 
Q 666 556 975 473 
Q 1284 391 1588 391 
Q 1994 391 2212 530 
Q 2431 669 2431 922 
Q 2431 1156 2273 1281 
Q 2116 1406 1581 1522 
L 1381 1569 
Q 847 1681 609 1914 
Q 372 2147 372 2553 
Q 372 3047 722 3315 
Q 1072 3584 1716 3584 
Q 2034 3584 2315 3537 
Q 2597 3491 2834 3397 
z
" transform="scale(0.015625)"/>
      </defs>
      <use xlink:href="#DejaVuSans-5b"/>
      <use xlink:href="#DejaVuSans-63" transform="translate(39.013672 0)"/>
      <use xlink:href="#DejaVuSans-6f" transform="translate(93.994141 0)"/>
      <use xlink:href="#DejaVuSans-75" transform="translate(155.175781 0)"/>
      <use xlink:href="#DejaVuSans-6e" transform="translate(218.554688 0)"/>
      <use xlink:href="#DejaVuSans-74" transform="translate(281.933594 0)"/>
      <use xlink:href="#DejaVuSans-73" transform="translate(321.142578 0)"/>
      <use xlink:href="#DejaVuSans-5d" transform="translate(373.242188 0)"/>
     </g>
    </g>
   </g>
   <g id="patch_3">
    <path d="M 46.965625 228.96 
L 46.965625 7.2 
" style="fill: none; stroke: #000000; stroke-width: 0.8; stroke-linejoin: miter; stroke-linecap: square"/>
   </g>
   <g id="patch_4">
    <path d="M 381.765625 228.96 
L 381.765625 7.2 
" style="fill: none; stroke: #000000; stroke-width: 0.8; stroke-linejoin: miter; stroke-linecap: square"/>
   </g>
   <g id="patch_5">
    <path d="M 46.965625 228.96 
L 381.765625 228.96 
" style="fill: none; stroke: #000000; stroke-width: 0.8; stroke-linejoin: miter; stroke-linecap: square"/>
   </g>
   <g id="patch_6">
    <path d="M 46.965625 7.2 
L 381.765625 7.2 
" style="fill: none; stroke: #000000; stroke-width: 0.8; stroke-linejoin: miter; stroke-linecap: square"/>
   </g>
   <g id="line2d_16">
    <path d="M 62.183807 217.641444 
L 63.705625 217.641444 
L 63.705625 203.51218 
L 65.227443 203.51218 
L 65.227443 188.081349 
L 66.749261 188.081349 
L 66.749261 168.04921 
L 68.27108 168.04921 
L 68.27108 142.928324 
L 69.792898 142.928324 
L 69.792898 113.613788 
L 71.314716 113.613788 
L 71.314716 107.430082 
L 72.836534 107.430082 
L 72.836534 82.1972 
L 74.358352 82.1972 
L 74.358352 69.726807 
L 75.88017 69.726807 
L 75.88017 64.44727 
L 77.401989 64.44727 
L 77.401989 52.88284 
L 78.923807 52.88284 
L 78.923807 42.932169 
L 80.445625 42.932169 
L 80.445625 26.857996 
L 81.967443 26.857996 
L 81.967443 50.851218 
L 83.489261 50.851218 
L 83.489261 51.483463 
L 85.01108 51.483463 
L 85.01108 44.73303 
L 86.532898 44.73303 
L 86.532898 36.381201 
L 88.054716 36.381201 
L 88.054716 45.14425 
L 89.576534 45.14425 
L 89.576534 40.758563 
L 91.098352 40.758563 
L 91.098352 45.304349 
L 92.62017 45.304349 
L 92.62017 57.732014 
L 94.141989 57.732014 
L 94.141989 58.69965 
L 95.663807 58.69965 
L 95.663807 43.507573 
L 97.185625 43.507573 
L 97.185625 53.096608 
L 98.707443 53.096608 
L 98.707443 60.782975 
L 100.229261 60.782975 
L 100.229261 57.518121 
L 101.75108 57.518121 
L 101.75108 35.945163 
L 103.272898 35.945163 
L 103.272898 42.796203 
L 104.794716 42.796203 
L 104.794716 56.788445 
L 106.316534 56.788445 
L 106.316534 61.061513 
L 107.838352 61.061513 
L 107.838352 55.196469 
L 109.36017 55.196469 
L 109.36017 68.140182 
L 110.881989 68.140182 
L 110.881989 48.045661 
L 112.403807 48.045661 
L 112.403807 52.237387 
L 113.925625 52.237387 
L 113.925625 69.175016 
L 115.447443 69.175016 
L 115.447443 56.926561 
L 116.969261 56.926561 
L 116.969261 45.978288 
L 118.49108 45.978288 
L 118.49108 61.909814 
L 120.012898 61.909814 
L 120.012898 57.552898 
L 121.534716 57.552898 
L 121.534716 68.1845 
L 123.056534 68.1845 
L 123.056534 68.420482 
L 124.578352 68.420482 
L 124.578352 64.190918 
L 126.10017 64.190918 
L 126.10017 61.026899 
L 127.621989 61.026899 
L 127.621989 74.355815 
L 129.143807 74.355815 
L 129.143807 56.250729 
L 130.665625 56.250729 
L 130.665625 69.840417 
L 132.187443 69.840417 
L 132.187443 53.893031 
L 133.709261 53.893031 
L 133.709261 62.366163 
L 135.23108 62.366163 
L 135.23108 71.837374 
L 136.752898 71.837374 
L 136.752898 63.461224 
L 138.274716 63.461224 
L 138.274716 77.494996 
L 139.796534 77.494996 
L 139.796534 61.578547 
L 141.318352 61.578547 
L 141.318352 65.710669 
L 142.84017 65.710669 
L 142.84017 69.492177 
L 144.361989 69.492177 
L 144.361989 62.481283 
L 145.883807 62.481283 
L 145.883807 65.586359 
L 147.405625 65.586359 
L 147.405625 74.849053 
L 148.927443 74.849053 
L 148.927443 76.104463 
L 150.449261 76.104463 
L 150.449261 64.903463 
L 151.97108 64.903463 
L 151.97108 69.991351 
L 153.492898 69.991351 
L 153.492898 75.843859 
L 155.014716 75.843859 
L 155.014716 62.935536 
L 156.536534 62.935536 
L 156.536534 79.974551 
L 158.058352 79.974551 
L 158.058352 80.117068 
L 159.58017 80.117068 
L 159.58017 62.80853 
L 161.101989 62.80853 
L 161.101989 78.716989 
L 162.623807 78.716989 
L 162.623807 87.856121 
L 164.145625 87.856121 
L 164.145625 72.127032 
L 165.667443 72.127032 
L 165.667443 73.184068 
L 167.189261 73.184068 
L 167.189261 67.672409 
L 168.71108 67.672409 
L 168.71108 83.530405 
L 170.232898 83.530405 
L 170.232898 88.540537 
L 171.754716 88.540537 
L 171.754716 93.188376 
L 173.276534 93.188376 
L 173.276534 96.683276 
L 174.798352 96.683276 
L 174.798352 62.691561 
L 176.32017 62.691561 
L 176.32017 68.290783 
L 177.841989 68.290783 
L 177.841989 79.737593 
L 179.363807 79.737593 
L 179.363807 80.414925 
L 180.885625 80.414925 
L 180.885625 80.625193 
L 182.407443 80.625193 
L 182.407443 94.103057 
L 183.929261 94.103057 
L 183.929261 70.307772 
L 185.45108 70.307772 
L 185.45108 81.322166 
L 186.972898 81.322166 
L 186.972898 77.95954 
L 188.494716 77.95954 
L 188.494716 77.708017 
L 190.016534 77.708017 
L 190.016534 91.56341 
L 191.538352 91.56341 
L 191.538352 79.516526 
L 193.06017 79.516526 
L 193.06017 84.143233 
L 194.581989 84.143233 
L 194.581989 97.391944 
L 196.103807 97.391944 
L 196.103807 74.330334 
L 197.625625 74.330334 
L 197.625625 76.34197 
L 199.147443 76.34197 
L 199.147443 74.658747 
L 200.669261 74.658747 
L 200.669261 86.38918 
L 202.19108 86.38918 
L 202.19108 96.860156 
L 203.712898 96.860156 
L 203.712898 81.817446 
L 205.234716 81.817446 
L 205.234716 82.904364 
L 206.756534 82.904364 
L 206.756534 82.302573 
L 208.278352 82.302573 
L 208.278352 89.359306 
L 209.80017 89.359306 
L 209.80017 91.869959 
L 211.321989 91.869959 
L 211.321989 81.491356 
L 212.843807 81.491356 
L 212.843807 89.611231 
L 214.365625 89.611231 
L 214.365625 87.765941 
L 215.887443 87.765941 
L 215.887443 88.736505 
L 217.409261 88.736505 
L 217.409261 81.568275 
L 218.93108 81.568275 
L 218.93108 93.227588 
L 220.452898 93.227588 
L 220.452898 96.891092 
L 221.974716 96.891092 
L 221.974716 85.304421 
L 223.496534 85.304421 
L 223.496534 91.093387 
L 225.018352 91.093387 
L 225.018352 106.259235 
L 226.54017 106.259235 
L 226.54017 95.171607 
L 228.061989 95.171607 
L 228.061989 100.326582 
L 229.583807 100.326582 
L 229.583807 94.40443 
L 231.105625 94.40443 
L 231.105625 91.100348 
L 232.627443 91.100348 
L 232.627443 109.308589 
L 234.149261 109.308589 
L 234.149261 100.96778 
L 235.67108 100.96778 
L 235.67108 99.097621 
L 238.714716 99.041091 
L 238.714716 99.565827 
L 240.236534 99.565827 
L 240.236534 109.534592 
L 241.758352 109.534592 
L 241.758352 100.129605 
L 243.28017 100.129605 
L 243.28017 103.71006 
L 244.801989 103.71006 
L 244.801989 98.469551 
L 246.323807 98.469551 
L 246.323807 94.926504 
L 247.845625 94.926504 
L 247.845625 99.336017 
L 249.367443 99.336017 
L 249.367443 110.693409 
L 250.889261 110.693409 
L 250.889261 99.745428 
L 252.41108 99.745428 
L 252.41108 96.690398 
L 253.932898 96.690398 
L 253.932898 110.656881 
L 255.454716 110.656881 
L 255.454716 91.380006 
L 256.976534 91.380006 
L 256.976534 93.388262 
L 258.498352 93.388262 
L 258.498352 107.29641 
L 260.02017 107.29641 
L 260.02017 106.901526 
L 261.541989 106.901526 
L 261.541989 96.61737 
L 263.063807 96.61737 
L 263.063807 102.882852 
L 264.585625 102.882852 
L 264.585625 107.88063 
L 266.107443 107.88063 
L 266.107443 105.90501 
L 267.629261 105.90501 
L 267.629261 110.108904 
L 269.15108 110.108904 
L 269.15108 118.343097 
L 270.672898 118.343097 
L 270.672898 101.03167 
L 272.194716 101.03167 
L 272.194716 104.764661 
L 273.716534 104.764661 
L 273.716534 114.878671 
L 275.238352 114.878671 
L 275.238352 115.519978 
L 276.76017 115.519978 
L 276.76017 116.764936 
L 278.281989 116.764936 
L 278.281989 114.219177 
L 281.325625 114.306776 
L 281.325625 111.630133 
L 282.847443 111.630133 
L 282.847443 98.270602 
L 284.369261 98.270602 
L 284.369261 109.518373 
L 285.89108 109.518373 
L 285.89108 111.456644 
L 287.412898 111.456644 
L 287.412898 107.197932 
L 288.934716 107.197932 
L 288.934716 113.315514 
L 290.456534 113.315514 
L 290.456534 114.192706 
L 291.978352 114.192706 
L 291.978352 103.459697 
L 293.50017 103.459697 
L 293.50017 115.037124 
L 295.021989 115.037124 
L 295.021989 122.541657 
L 296.543807 122.541657 
L 296.543807 114.057736 
L 298.065625 114.057736 
L 298.065625 117.343997 
L 299.587443 117.343997 
L 299.587443 115.916932 
L 301.109261 115.916932 
L 301.109261 114.826634 
L 302.63108 114.826634 
L 302.63108 105.70494 
L 304.152898 105.70494 
L 304.152898 116.540148 
L 305.674716 116.540148 
L 305.674716 117.188932 
L 307.196534 117.188932 
L 307.196534 112.963198 
L 308.718352 112.963198 
L 308.718352 116.082602 
L 310.24017 116.082602 
L 310.24017 119.879554 
L 311.761989 119.879554 
L 311.761989 117.461834 
L 313.283807 117.461834 
L 313.283807 120.992612 
L 314.805625 120.992612 
L 314.805625 117.90555 
L 316.327443 117.90555 
L 316.327443 116.314543 
L 317.849261 116.314543 
L 317.849261 124.363365 
L 319.37108 124.363365 
L 319.37108 121.100194 
L 320.892898 121.100194 
L 320.892898 127.113372 
L 322.414716 127.113372 
L 322.414716 115.261263 
L 323.936534 115.261263 
L 323.936534 119.902825 
L 325.458352 119.902825 
L 325.458352 117.626255 
L 326.98017 117.626255 
L 326.98017 131.245059 
L 328.501989 131.245059 
L 328.501989 127.138754 
L 330.023807 127.138754 
L 330.023807 146.14707 
L 331.545625 146.14707 
L 331.545625 153.855018 
L 333.067443 153.855018 
L 333.067443 161.353078 
L 334.589261 161.353078 
L 334.589261 173.791476 
L 336.11108 173.791476 
L 336.11108 188.065238 
L 337.632898 188.065238 
L 337.632898 203.302303 
L 339.154716 203.302303 
L 339.154716 210.242527 
L 340.676534 210.242527 
L 340.676534 214.76953 
L 342.198352 214.76953 
L 342.198352 217.837639 
L 343.72017 217.837639 
L 343.72017 218.383856 
L 345.241989 218.383856 
L 345.241989 218.662097 
L 346.763807 218.662097 
L 346.763807 218.805379 
L 366.547443 218.879998 
L 366.547443 218.879998 
" clip-path="url(#p52325906d7)" style="fill: none; stroke: #1f77b4; stroke-width: 1.5; stroke-linecap: square"/>
   </g>
   <g id="LineCollection_1">
    <path d="M 62.944716 218.204446 
L 62.944716 217.078442 
" clip-path="url(#p52325906d7)" style="fill: none; stroke: #1f77b4; stroke-width: 1.5"/>
    <path d="M 64.466534 205.846052 
L 64.466534 201.178308 
" clip-path="url(#p52325906d7)" style="fill: none; stroke: #1f77b4; stroke-width: 1.5"/>
    <path d="M 65.988352 191.442612 
L 65.988352 184.720085 
" clip-path="url(#p52325906d7)" style="fill: none; stroke: #1f77b4; stroke-width: 1.5"/>
    <path d="M 67.51017 172.6765 
L 67.51017 163.42192 
" clip-path="url(#p52325906d7)" style="fill: none; stroke: #1f77b4; stroke-width: 1.5"/>
    <path d="M 69.031989 148.894039 
L 69.031989 136.962608 
" clip-path="url(#p52325906d7)" style="fill: none; stroke: #1f77b4; stroke-width: 1.5"/>
    <path d="M 70.553807 121.135966 
L 70.553807 106.09161 
" clip-path="url(#p52325906d7)" style="fill: none; stroke: #1f77b4; stroke-width: 1.5"/>
    <path d="M 72.075625 114.543599 
L 72.075625 100.316565 
" clip-path="url(#p52325906d7)" style="fill: none; stroke: #1f77b4; stroke-width: 1.5"/>
    <path d="M 73.597443 90.185514 
L 73.597443 74.208885 
" clip-path="url(#p52325906d7)" style="fill: none; stroke: #1f77b4; stroke-width: 1.5"/>
    <path d="M 75.119261 78.443994 
L 75.119261 61.00962 
" clip-path="url(#p52325906d7)" style="fill: none; stroke: #1f77b4; stroke-width: 1.5"/>
    <path d="M 76.64108 72.858325 
L 76.64108 56.036216 
" clip-path="url(#p52325906d7)" style="fill: none; stroke: #1f77b4; stroke-width: 1.5"/>
    <path d="M 78.162898 61.607878 
L 78.162898 44.157803 
" clip-path="url(#p52325906d7)" style="fill: none; stroke: #1f77b4; stroke-width: 1.5"/>
    <path d="M 79.684716 51.90461 
L 79.684716 33.959729 
" clip-path="url(#p52325906d7)" style="fill: none; stroke: #1f77b4; stroke-width: 1.5"/>
    <path d="M 81.206534 36.435993 
L 81.206534 17.28 
" clip-path="url(#p52325906d7)" style="fill: none; stroke: #1f77b4; stroke-width: 1.5"/>
    <path d="M 82.728352 59.522293 
L 82.728352 42.180143 
" clip-path="url(#p52325906d7)" style="fill: none; stroke: #1f77b4; stroke-width: 1.5"/>
    <path d="M 84.25017 60.204594 
L 84.25017 42.762332 
" clip-path="url(#p52325906d7)" style="fill: none; stroke: #1f77b4; stroke-width: 1.5"/>
    <path d="M 85.771989 53.875715 
L 85.771989 35.590344 
" clip-path="url(#p52325906d7)" style="fill: none; stroke: #1f77b4; stroke-width: 1.5"/>
    <path d="M 87.293807 45.453797 
L 87.293807 27.308604 
" clip-path="url(#p52325906d7)" style="fill: none; stroke: #1f77b4; stroke-width: 1.5"/>
    <path d="M 88.815625 54.214331 
L 88.815625 36.074169 
" clip-path="url(#p52325906d7)" style="fill: none; stroke: #1f77b4; stroke-width: 1.5"/>
    <path d="M 90.337443 49.887161 
L 90.337443 31.629966 
" clip-path="url(#p52325906d7)" style="fill: none; stroke: #1f77b4; stroke-width: 1.5"/>
    <path d="M 91.859261 54.443332 
L 91.859261 36.165366 
" clip-path="url(#p52325906d7)" style="fill: none; stroke: #1f77b4; stroke-width: 1.5"/>
    <path d="M 93.38108 66.378194 
L 93.38108 49.085833 
" clip-path="url(#p52325906d7)" style="fill: none; stroke: #1f77b4; stroke-width: 1.5"/>
    <path d="M 94.902898 67.050749 
L 94.902898 50.348551 
" clip-path="url(#p52325906d7)" style="fill: none; stroke: #1f77b4; stroke-width: 1.5"/>
    <path d="M 96.424716 52.413017 
L 96.424716 34.602129 
" clip-path="url(#p52325906d7)" style="fill: none; stroke: #1f77b4; stroke-width: 1.5"/>
    <path d="M 97.946534 61.683428 
L 97.946534 44.509787 
" clip-path="url(#p52325906d7)" style="fill: none; stroke: #1f77b4; stroke-width: 1.5"/>
    <path d="M 99.468352 69.15188 
L 99.468352 52.414069 
" clip-path="url(#p52325906d7)" style="fill: none; stroke: #1f77b4; stroke-width: 1.5"/>
    <path d="M 100.99017 66.035841 
L 100.99017 49.000401 
" clip-path="url(#p52325906d7)" style="fill: none; stroke: #1f77b4; stroke-width: 1.5"/>
    <path d="M 102.511989 45.147865 
L 102.511989 26.742461 
" clip-path="url(#p52325906d7)" style="fill: none; stroke: #1f77b4; stroke-width: 1.5"/>
    <path d="M 104.033807 51.728668 
L 104.033807 33.863738 
" clip-path="url(#p52325906d7)" style="fill: none; stroke: #1f77b4; stroke-width: 1.5"/>
    <path d="M 105.555625 65.271614 
L 105.555625 48.305277 
" clip-path="url(#p52325906d7)" style="fill: none; stroke: #1f77b4; stroke-width: 1.5"/>
    <path d="M 107.077443 69.473983 
L 107.077443 52.649044 
" clip-path="url(#p52325906d7)" style="fill: none; stroke: #1f77b4; stroke-width: 1.5"/>
    <path d="M 108.599261 63.747457 
L 108.599261 46.645481 
" clip-path="url(#p52325906d7)" style="fill: none; stroke: #1f77b4; stroke-width: 1.5"/>
    <path d="M 110.12108 76.036112 
L 110.12108 60.244252 
" clip-path="url(#p52325906d7)" style="fill: none; stroke: #1f77b4; stroke-width: 1.5"/>
    <path d="M 111.642898 56.674848 
L 111.642898 39.416474 
" clip-path="url(#p52325906d7)" style="fill: none; stroke: #1f77b4; stroke-width: 1.5"/>
    <path d="M 113.164716 60.658802 
L 113.164716 43.815971 
" clip-path="url(#p52325906d7)" style="fill: none; stroke: #1f77b4; stroke-width: 1.5"/>
    <path d="M 114.686534 77.123385 
L 114.686534 61.226647 
" clip-path="url(#p52325906d7)" style="fill: none; stroke: #1f77b4; stroke-width: 1.5"/>
    <path d="M 116.208352 65.36009 
L 116.208352 48.493033 
" clip-path="url(#p52325906d7)" style="fill: none; stroke: #1f77b4; stroke-width: 1.5"/>
    <path d="M 117.73017 54.639897 
L 117.73017 37.316678 
" clip-path="url(#p52325906d7)" style="fill: none; stroke: #1f77b4; stroke-width: 1.5"/>
    <path d="M 119.251989 69.977856 
L 119.251989 53.841773 
" clip-path="url(#p52325906d7)" style="fill: none; stroke: #1f77b4; stroke-width: 1.5"/>
    <path d="M 120.773807 65.882005 
L 120.773807 49.223792 
" clip-path="url(#p52325906d7)" style="fill: none; stroke: #1f77b4; stroke-width: 1.5"/>
    <path d="M 122.295625 76.041377 
L 122.295625 60.327624 
" clip-path="url(#p52325906d7)" style="fill: none; stroke: #1f77b4; stroke-width: 1.5"/>
    <path d="M 123.817443 76.383957 
L 123.817443 60.457007 
" clip-path="url(#p52325906d7)" style="fill: none; stroke: #1f77b4; stroke-width: 1.5"/>
    <path d="M 125.339261 72.116456 
L 125.339261 56.26538 
" clip-path="url(#p52325906d7)" style="fill: none; stroke: #1f77b4; stroke-width: 1.5"/>
    <path d="M 126.86108 69.158783 
L 126.86108 52.895016 
" clip-path="url(#p52325906d7)" style="fill: none; stroke: #1f77b4; stroke-width: 1.5"/>
    <path d="M 128.382898 82.163989 
L 128.382898 66.547642 
" clip-path="url(#p52325906d7)" style="fill: none; stroke: #1f77b4; stroke-width: 1.5"/>
    <path d="M 129.904716 64.531444 
L 129.904716 47.970013 
" clip-path="url(#p52325906d7)" style="fill: none; stroke: #1f77b4; stroke-width: 1.5"/>
    <path d="M 131.426534 77.816439 
L 131.426534 61.864395 
" clip-path="url(#p52325906d7)" style="fill: none; stroke: #1f77b4; stroke-width: 1.5"/>
    <path d="M 132.948352 62.371606 
L 132.948352 45.414456 
" clip-path="url(#p52325906d7)" style="fill: none; stroke: #1f77b4; stroke-width: 1.5"/>
    <path d="M 134.47017 70.525637 
L 134.47017 54.206689 
" clip-path="url(#p52325906d7)" style="fill: none; stroke: #1f77b4; stroke-width: 1.5"/>
    <path d="M 135.991989 79.551651 
L 135.991989 64.123097 
" clip-path="url(#p52325906d7)" style="fill: none; stroke: #1f77b4; stroke-width: 1.5"/>
    <path d="M 137.513807 71.464579 
L 137.513807 55.45787 
" clip-path="url(#p52325906d7)" style="fill: none; stroke: #1f77b4; stroke-width: 1.5"/>
    <path d="M 139.035625 84.943385 
L 139.035625 70.046608 
" clip-path="url(#p52325906d7)" style="fill: none; stroke: #1f77b4; stroke-width: 1.5"/>
    <path d="M 140.557443 69.628844 
L 140.557443 53.52825 
" clip-path="url(#p52325906d7)" style="fill: none; stroke: #1f77b4; stroke-width: 1.5"/>
    <path d="M 142.079261 73.783641 
L 142.079261 57.637697 
" clip-path="url(#p52325906d7)" style="fill: none; stroke: #1f77b4; stroke-width: 1.5"/>
    <path d="M 143.60108 77.223684 
L 143.60108 61.760671 
" clip-path="url(#p52325906d7)" style="fill: none; stroke: #1f77b4; stroke-width: 1.5"/>
    <path d="M 145.122898 70.612063 
L 145.122898 54.350502 
" clip-path="url(#p52325906d7)" style="fill: none; stroke: #1f77b4; stroke-width: 1.5"/>
    <path d="M 146.644716 73.461674 
L 146.644716 57.711043 
" clip-path="url(#p52325906d7)" style="fill: none; stroke: #1f77b4; stroke-width: 1.5"/>
    <path d="M 148.166534 82.537501 
L 148.166534 67.160605 
" clip-path="url(#p52325906d7)" style="fill: none; stroke: #1f77b4; stroke-width: 1.5"/>
    <path d="M 149.688352 83.742118 
L 149.688352 68.466808 
" clip-path="url(#p52325906d7)" style="fill: none; stroke: #1f77b4; stroke-width: 1.5"/>
    <path d="M 151.21017 72.775408 
L 151.21017 57.031518 
" clip-path="url(#p52325906d7)" style="fill: none; stroke: #1f77b4; stroke-width: 1.5"/>
    <path d="M 152.731989 77.734391 
L 152.731989 62.248311 
" clip-path="url(#p52325906d7)" style="fill: none; stroke: #1f77b4; stroke-width: 1.5"/>
    <path d="M 154.253807 83.389149 
L 154.253807 68.298569 
" clip-path="url(#p52325906d7)" style="fill: none; stroke: #1f77b4; stroke-width: 1.5"/>
    <path d="M 155.775625 70.921853 
L 155.775625 54.94922 
" clip-path="url(#p52325906d7)" style="fill: none; stroke: #1f77b4; stroke-width: 1.5"/>
    <path d="M 157.297443 87.319868 
L 157.297443 72.629233 
" clip-path="url(#p52325906d7)" style="fill: none; stroke: #1f77b4; stroke-width: 1.5"/>
    <path d="M 158.819261 87.575748 
L 158.819261 72.658389 
" clip-path="url(#p52325906d7)" style="fill: none; stroke: #1f77b4; stroke-width: 1.5"/>
    <path d="M 160.34108 70.851084 
L 160.34108 54.765976 
" clip-path="url(#p52325906d7)" style="fill: none; stroke: #1f77b4; stroke-width: 1.5"/>
    <path d="M 161.862898 86.130689 
L 161.862898 71.303289 
" clip-path="url(#p52325906d7)" style="fill: none; stroke: #1f77b4; stroke-width: 1.5"/>
    <path d="M 163.384716 95.136964 
L 163.384716 80.575278 
" clip-path="url(#p52325906d7)" style="fill: none; stroke: #1f77b4; stroke-width: 1.5"/>
    <path d="M 164.906534 79.828856 
L 164.906534 64.425207 
" clip-path="url(#p52325906d7)" style="fill: none; stroke: #1f77b4; stroke-width: 1.5"/>
    <path d="M 166.428352 80.942034 
L 166.428352 65.426103 
" clip-path="url(#p52325906d7)" style="fill: none; stroke: #1f77b4; stroke-width: 1.5"/>
    <path d="M 167.95017 75.492256 
L 167.95017 59.852562 
" clip-path="url(#p52325906d7)" style="fill: none; stroke: #1f77b4; stroke-width: 1.5"/>
    <path d="M 169.471989 90.652805 
L 169.471989 76.408005 
" clip-path="url(#p52325906d7)" style="fill: none; stroke: #1f77b4; stroke-width: 1.5"/>
    <path d="M 170.993807 95.677805 
L 170.993807 81.403269 
" clip-path="url(#p52325906d7)" style="fill: none; stroke: #1f77b4; stroke-width: 1.5"/>
    <path d="M 172.515625 100.036037 
L 172.515625 86.340716 
" clip-path="url(#p52325906d7)" style="fill: none; stroke: #1f77b4; stroke-width: 1.5"/>
    <path d="M 174.037443 103.375813 
L 174.037443 89.990739 
" clip-path="url(#p52325906d7)" style="fill: none; stroke: #1f77b4; stroke-width: 1.5"/>
    <path d="M 175.559261 70.614812 
L 175.559261 54.768311 
" clip-path="url(#p52325906d7)" style="fill: none; stroke: #1f77b4; stroke-width: 1.5"/>
    <path d="M 177.08108 76.013303 
L 177.08108 60.568263 
" clip-path="url(#p52325906d7)" style="fill: none; stroke: #1f77b4; stroke-width: 1.5"/>
    <path d="M 178.602898 86.945175 
L 178.602898 72.530011 
" clip-path="url(#p52325906d7)" style="fill: none; stroke: #1f77b4; stroke-width: 1.5"/>
    <path d="M 180.124716 87.641027 
L 180.124716 73.188823 
" clip-path="url(#p52325906d7)" style="fill: none; stroke: #1f77b4; stroke-width: 1.5"/>
    <path d="M 181.646534 87.937728 
L 181.646534 73.312657 
" clip-path="url(#p52325906d7)" style="fill: none; stroke: #1f77b4; stroke-width: 1.5"/>
    <path d="M 183.168352 100.812952 
L 183.168352 87.393163 
" clip-path="url(#p52325906d7)" style="fill: none; stroke: #1f77b4; stroke-width: 1.5"/>
    <path d="M 184.69017 77.77441 
L 184.69017 62.841135 
" clip-path="url(#p52325906d7)" style="fill: none; stroke: #1f77b4; stroke-width: 1.5"/>
    <path d="M 186.211989 88.592141 
L 186.211989 74.05219 
" clip-path="url(#p52325906d7)" style="fill: none; stroke: #1f77b4; stroke-width: 1.5"/>
    <path d="M 187.733807 85.195031 
L 187.733807 70.724048 
" clip-path="url(#p52325906d7)" style="fill: none; stroke: #1f77b4; stroke-width: 1.5"/>
    <path d="M 189.255625 85.038414 
L 189.255625 70.37762 
" clip-path="url(#p52325906d7)" style="fill: none; stroke: #1f77b4; stroke-width: 1.5"/>
    <path d="M 190.777443 98.425028 
L 190.777443 84.701792 
" clip-path="url(#p52325906d7)" style="fill: none; stroke: #1f77b4; stroke-width: 1.5"/>
    <path d="M 192.299261 86.815005 
L 192.299261 72.218047 
" clip-path="url(#p52325906d7)" style="fill: none; stroke: #1f77b4; stroke-width: 1.5"/>
    <path d="M 193.82108 91.256704 
L 193.82108 77.029762 
" clip-path="url(#p52325906d7)" style="fill: none; stroke: #1f77b4; stroke-width: 1.5"/>
    <path d="M 195.342898 103.838838 
L 195.342898 90.94505 
" clip-path="url(#p52325906d7)" style="fill: none; stroke: #1f77b4; stroke-width: 1.5"/>
    <path d="M 196.864716 81.64022 
L 196.864716 67.020449 
" clip-path="url(#p52325906d7)" style="fill: none; stroke: #1f77b4; stroke-width: 1.5"/>
    <path d="M 198.386534 83.588947 
L 198.386534 69.094993 
" clip-path="url(#p52325906d7)" style="fill: none; stroke: #1f77b4; stroke-width: 1.5"/>
    <path d="M 199.908352 81.976057 
L 199.908352 67.341437 
" clip-path="url(#p52325906d7)" style="fill: none; stroke: #1f77b4; stroke-width: 1.5"/>
    <path d="M 201.43017 93.218959 
L 201.43017 79.5594 
" clip-path="url(#p52325906d7)" style="fill: none; stroke: #1f77b4; stroke-width: 1.5"/>
    <path d="M 202.951989 103.400225 
L 202.951989 90.320088 
" clip-path="url(#p52325906d7)" style="fill: none; stroke: #1f77b4; stroke-width: 1.5"/>
    <path d="M 204.473807 89.042033 
L 204.473807 74.59286 
" clip-path="url(#p52325906d7)" style="fill: none; stroke: #1f77b4; stroke-width: 1.5"/>
    <path d="M 205.995625 89.865951 
L 205.995625 75.942778 
" clip-path="url(#p52325906d7)" style="fill: none; stroke: #1f77b4; stroke-width: 1.5"/>
    <path d="M 207.517443 89.356483 
L 207.517443 75.248663 
" clip-path="url(#p52325906d7)" style="fill: none; stroke: #1f77b4; stroke-width: 1.5"/>
    <path d="M 209.039261 96.206778 
L 209.039261 82.511834 
" clip-path="url(#p52325906d7)" style="fill: none; stroke: #1f77b4; stroke-width: 1.5"/>
    <path d="M 210.56108 98.408677 
L 210.56108 85.331241 
" clip-path="url(#p52325906d7)" style="fill: none; stroke: #1f77b4; stroke-width: 1.5"/>
    <path d="M 212.082898 88.570282 
L 212.082898 74.412429 
" clip-path="url(#p52325906d7)" style="fill: none; stroke: #1f77b4; stroke-width: 1.5"/>
    <path d="M 213.604716 96.353587 
L 213.604716 82.868876 
" clip-path="url(#p52325906d7)" style="fill: none; stroke: #1f77b4; stroke-width: 1.5"/>
    <path d="M 215.126534 94.527041 
L 215.126534 81.004842 
" clip-path="url(#p52325906d7)" style="fill: none; stroke: #1f77b4; stroke-width: 1.5"/>
    <path d="M 216.648352 95.437102 
L 216.648352 82.035909 
" clip-path="url(#p52325906d7)" style="fill: none; stroke: #1f77b4; stroke-width: 1.5"/>
    <path d="M 218.17017 88.553777 
L 218.17017 74.582773 
" clip-path="url(#p52325906d7)" style="fill: none; stroke: #1f77b4; stroke-width: 1.5"/>
    <path d="M 219.691989 99.931287 
L 219.691989 86.523889 
" clip-path="url(#p52325906d7)" style="fill: none; stroke: #1f77b4; stroke-width: 1.5"/>
    <path d="M 221.213807 103.458371 
L 221.213807 90.323814 
" clip-path="url(#p52325906d7)" style="fill: none; stroke: #1f77b4; stroke-width: 1.5"/>
    <path d="M 222.735625 92.127466 
L 222.735625 78.481376 
" clip-path="url(#p52325906d7)" style="fill: none; stroke: #1f77b4; stroke-width: 1.5"/>
    <path d="M 224.257443 97.763192 
L 224.257443 84.423583 
" clip-path="url(#p52325906d7)" style="fill: none; stroke: #1f77b4; stroke-width: 1.5"/>
    <path d="M 225.779261 112.301485 
L 225.779261 100.216985 
" clip-path="url(#p52325906d7)" style="fill: none; stroke: #1f77b4; stroke-width: 1.5"/>
    <path d="M 227.30108 101.737171 
L 227.30108 88.606043 
" clip-path="url(#p52325906d7)" style="fill: none; stroke: #1f77b4; stroke-width: 1.5"/>
    <path d="M 228.822898 106.531069 
L 228.822898 94.122095 
" clip-path="url(#p52325906d7)" style="fill: none; stroke: #1f77b4; stroke-width: 1.5"/>
    <path d="M 230.344716 100.98922 
L 230.344716 87.81964 
" clip-path="url(#p52325906d7)" style="fill: none; stroke: #1f77b4; stroke-width: 1.5"/>
    <path d="M 231.866534 97.908977 
L 231.866534 84.291718 
" clip-path="url(#p52325906d7)" style="fill: none; stroke: #1f77b4; stroke-width: 1.5"/>
    <path d="M 233.388352 115.392892 
L 233.388352 103.224286 
" clip-path="url(#p52325906d7)" style="fill: none; stroke: #1f77b4; stroke-width: 1.5"/>
    <path d="M 234.91017 107.293636 
L 234.91017 94.641924 
" clip-path="url(#p52325906d7)" style="fill: none; stroke: #1f77b4; stroke-width: 1.5"/>
    <path d="M 236.431989 105.277621 
L 236.431989 92.917622 
" clip-path="url(#p52325906d7)" style="fill: none; stroke: #1f77b4; stroke-width: 1.5"/>
    <path d="M 237.953807 105.311619 
L 237.953807 92.770562 
" clip-path="url(#p52325906d7)" style="fill: none; stroke: #1f77b4; stroke-width: 1.5"/>
    <path d="M 239.475625 105.958346 
L 239.475625 93.173308 
" clip-path="url(#p52325906d7)" style="fill: none; stroke: #1f77b4; stroke-width: 1.5"/>
    <path d="M 240.997443 115.513546 
L 240.997443 103.555637 
" clip-path="url(#p52325906d7)" style="fill: none; stroke: #1f77b4; stroke-width: 1.5"/>
    <path d="M 242.519261 106.520858 
L 242.519261 93.738352 
" clip-path="url(#p52325906d7)" style="fill: none; stroke: #1f77b4; stroke-width: 1.5"/>
    <path d="M 244.04108 109.852118 
L 244.04108 97.568001 
" clip-path="url(#p52325906d7)" style="fill: none; stroke: #1f77b4; stroke-width: 1.5"/>
    <path d="M 245.562898 104.801309 
L 245.562898 92.137792 
" clip-path="url(#p52325906d7)" style="fill: none; stroke: #1f77b4; stroke-width: 1.5"/>
    <path d="M 247.084716 101.381286 
L 247.084716 88.471722 
" clip-path="url(#p52325906d7)" style="fill: none; stroke: #1f77b4; stroke-width: 1.5"/>
    <path d="M 248.606534 105.685577 
L 248.606534 92.986458 
" clip-path="url(#p52325906d7)" style="fill: none; stroke: #1f77b4; stroke-width: 1.5"/>
    <path d="M 250.128352 116.500346 
L 250.128352 104.886472 
" clip-path="url(#p52325906d7)" style="fill: none; stroke: #1f77b4; stroke-width: 1.5"/>
    <path d="M 251.65017 105.970413 
L 251.65017 93.520443 
" clip-path="url(#p52325906d7)" style="fill: none; stroke: #1f77b4; stroke-width: 1.5"/>
    <path d="M 253.171989 103.010725 
L 253.171989 90.370072 
" clip-path="url(#p52325906d7)" style="fill: none; stroke: #1f77b4; stroke-width: 1.5"/>
    <path d="M 254.693807 116.52445 
L 254.693807 104.789312 
" clip-path="url(#p52325906d7)" style="fill: none; stroke: #1f77b4; stroke-width: 1.5"/>
    <path d="M 256.215625 97.879308 
L 256.215625 84.880704 
" clip-path="url(#p52325906d7)" style="fill: none; stroke: #1f77b4; stroke-width: 1.5"/>
    <path d="M 257.737443 99.815211 
L 257.737443 86.961312 
" clip-path="url(#p52325906d7)" style="fill: none; stroke: #1f77b4; stroke-width: 1.5"/>
    <path d="M 259.259261 113.306931 
L 259.259261 101.28589 
" clip-path="url(#p52325906d7)" style="fill: none; stroke: #1f77b4; stroke-width: 1.5"/>
    <path d="M 260.78108 112.810822 
L 260.78108 100.99223 
" clip-path="url(#p52325906d7)" style="fill: none; stroke: #1f77b4; stroke-width: 1.5"/>
    <path d="M 262.302898 102.998592 
L 262.302898 90.236149 
" clip-path="url(#p52325906d7)" style="fill: none; stroke: #1f77b4; stroke-width: 1.5"/>
    <path d="M 263.824716 109.016012 
L 263.824716 96.749693 
" clip-path="url(#p52325906d7)" style="fill: none; stroke: #1f77b4; stroke-width: 1.5"/>
    <path d="M 265.346534 113.677432 
L 265.346534 102.083827 
" clip-path="url(#p52325906d7)" style="fill: none; stroke: #1f77b4; stroke-width: 1.5"/>
    <path d="M 266.868352 111.968724 
L 266.868352 99.841296 
" clip-path="url(#p52325906d7)" style="fill: none; stroke: #1f77b4; stroke-width: 1.5"/>
    <path d="M 268.39017 115.904901 
L 268.39017 104.312907 
" clip-path="url(#p52325906d7)" style="fill: none; stroke: #1f77b4; stroke-width: 1.5"/>
    <path d="M 269.911989 123.753651 
L 269.911989 112.932544 
" clip-path="url(#p52325906d7)" style="fill: none; stroke: #1f77b4; stroke-width: 1.5"/>
    <path d="M 271.433807 107.267988 
L 271.433807 94.795352 
" clip-path="url(#p52325906d7)" style="fill: none; stroke: #1f77b4; stroke-width: 1.5"/>
    <path d="M 272.955625 110.845452 
L 272.955625 98.68387 
" clip-path="url(#p52325906d7)" style="fill: none; stroke: #1f77b4; stroke-width: 1.5"/>
    <path d="M 274.477443 120.610244 
L 274.477443 109.147099 
" clip-path="url(#p52325906d7)" style="fill: none; stroke: #1f77b4; stroke-width: 1.5"/>
    <path d="M 275.999261 121.181321 
L 275.999261 109.858636 
" clip-path="url(#p52325906d7)" style="fill: none; stroke: #1f77b4; stroke-width: 1.5"/>
    <path d="M 277.52108 122.257523 
L 277.52108 111.272348 
" clip-path="url(#p52325906d7)" style="fill: none; stroke: #1f77b4; stroke-width: 1.5"/>
    <path d="M 279.042898 119.888528 
L 279.042898 108.549826 
" clip-path="url(#p52325906d7)" style="fill: none; stroke: #1f77b4; stroke-width: 1.5"/>
    <path d="M 280.564716 119.959174 
L 280.564716 108.654378 
" clip-path="url(#p52325906d7)" style="fill: none; stroke: #1f77b4; stroke-width: 1.5"/>
    <path d="M 282.086534 117.386082 
L 282.086534 105.874183 
" clip-path="url(#p52325906d7)" style="fill: none; stroke: #1f77b4; stroke-width: 1.5"/>
    <path d="M 283.608352 104.547301 
L 283.608352 91.993902 
" clip-path="url(#p52325906d7)" style="fill: none; stroke: #1f77b4; stroke-width: 1.5"/>
    <path d="M 285.13017 115.27686 
L 285.13017 103.759887 
" clip-path="url(#p52325906d7)" style="fill: none; stroke: #1f77b4; stroke-width: 1.5"/>
    <path d="M 286.651989 117.211728 
L 286.651989 105.70156 
" clip-path="url(#p52325906d7)" style="fill: none; stroke: #1f77b4; stroke-width: 1.5"/>
    <path d="M 288.173807 113.114366 
L 288.173807 101.281498 
" clip-path="url(#p52325906d7)" style="fill: none; stroke: #1f77b4; stroke-width: 1.5"/>
    <path d="M 289.695625 118.849628 
L 289.695625 107.7814 
" clip-path="url(#p52325906d7)" style="fill: none; stroke: #1f77b4; stroke-width: 1.5"/>
    <path d="M 291.217443 119.724316 
L 291.217443 108.661096 
" clip-path="url(#p52325906d7)" style="fill: none; stroke: #1f77b4; stroke-width: 1.5"/>
    <path d="M 292.739261 109.608419 
L 292.739261 97.310975 
" clip-path="url(#p52325906d7)" style="fill: none; stroke: #1f77b4; stroke-width: 1.5"/>
    <path d="M 294.26108 120.653182 
L 294.26108 109.421067 
" clip-path="url(#p52325906d7)" style="fill: none; stroke: #1f77b4; stroke-width: 1.5"/>
    <path d="M 295.782898 127.750009 
L 295.782898 117.333306 
" clip-path="url(#p52325906d7)" style="fill: none; stroke: #1f77b4; stroke-width: 1.5"/>
    <path d="M 297.304716 119.586403 
L 297.304716 108.52907 
" clip-path="url(#p52325906d7)" style="fill: none; stroke: #1f77b4; stroke-width: 1.5"/>
    <path d="M 298.826534 122.799809 
L 298.826534 111.888185 
" clip-path="url(#p52325906d7)" style="fill: none; stroke: #1f77b4; stroke-width: 1.5"/>
    <path d="M 300.348352 121.336952 
L 300.348352 110.496911 
" clip-path="url(#p52325906d7)" style="fill: none; stroke: #1f77b4; stroke-width: 1.5"/>
    <path d="M 301.87017 120.235582 
L 301.87017 109.417685 
" clip-path="url(#p52325906d7)" style="fill: none; stroke: #1f77b4; stroke-width: 1.5"/>
    <path d="M 303.391989 111.520402 
L 303.391989 99.889478 
" clip-path="url(#p52325906d7)" style="fill: none; stroke: #1f77b4; stroke-width: 1.5"/>
    <path d="M 304.913807 121.957705 
L 304.913807 111.122591 
" clip-path="url(#p52325906d7)" style="fill: none; stroke: #1f77b4; stroke-width: 1.5"/>
    <path d="M 306.435625 122.591687 
L 306.435625 111.786176 
" clip-path="url(#p52325906d7)" style="fill: none; stroke: #1f77b4; stroke-width: 1.5"/>
    <path d="M 307.957443 118.62101 
L 307.957443 107.305387 
" clip-path="url(#p52325906d7)" style="fill: none; stroke: #1f77b4; stroke-width: 1.5"/>
    <path d="M 309.479261 121.362693 
L 309.479261 110.80251 
" clip-path="url(#p52325906d7)" style="fill: none; stroke: #1f77b4; stroke-width: 1.5"/>
    <path d="M 311.00108 125.126112 
L 311.00108 114.632996 
" clip-path="url(#p52325906d7)" style="fill: none; stroke: #1f77b4; stroke-width: 1.5"/>
    <path d="M 312.522898 122.865336 
L 312.522898 112.058331 
" clip-path="url(#p52325906d7)" style="fill: none; stroke: #1f77b4; stroke-width: 1.5"/>
    <path d="M 314.044716 126.309356 
L 314.044716 115.675868 
" clip-path="url(#p52325906d7)" style="fill: none; stroke: #1f77b4; stroke-width: 1.5"/>
    <path d="M 315.566534 123.349839 
L 315.566534 112.461261 
" clip-path="url(#p52325906d7)" style="fill: none; stroke: #1f77b4; stroke-width: 1.5"/>
    <path d="M 317.088352 121.770124 
L 317.088352 110.858962 
" clip-path="url(#p52325906d7)" style="fill: none; stroke: #1f77b4; stroke-width: 1.5"/>
    <path d="M 318.61017 129.497939 
L 318.61017 119.228791 
" clip-path="url(#p52325906d7)" style="fill: none; stroke: #1f77b4; stroke-width: 1.5"/>
    <path d="M 320.131989 126.205794 
L 320.131989 115.994594 
" clip-path="url(#p52325906d7)" style="fill: none; stroke: #1f77b4; stroke-width: 1.5"/>
    <path d="M 321.653807 132.24996 
L 321.653807 121.976785 
" clip-path="url(#p52325906d7)" style="fill: none; stroke: #1f77b4; stroke-width: 1.5"/>
    <path d="M 323.175625 120.659131 
L 323.175625 109.863396 
" clip-path="url(#p52325906d7)" style="fill: none; stroke: #1f77b4; stroke-width: 1.5"/>
    <path d="M 324.697443 125.181169 
L 324.697443 114.624481 
" clip-path="url(#p52325906d7)" style="fill: none; stroke: #1f77b4; stroke-width: 1.5"/>
    <path d="M 326.219261 123.029825 
L 326.219261 112.222685 
" clip-path="url(#p52325906d7)" style="fill: none; stroke: #1f77b4; stroke-width: 1.5"/>
    <path d="M 327.74108 136.312664 
L 327.74108 126.177454 
" clip-path="url(#p52325906d7)" style="fill: none; stroke: #1f77b4; stroke-width: 1.5"/>
    <path d="M 329.262898 132.301188 
L 329.262898 121.976321 
" clip-path="url(#p52325906d7)" style="fill: none; stroke: #1f77b4; stroke-width: 1.5"/>
    <path d="M 330.784716 150.623281 
L 330.784716 141.670858 
" clip-path="url(#p52325906d7)" style="fill: none; stroke: #1f77b4; stroke-width: 1.5"/>
    <path d="M 332.306534 158.171011 
L 332.306534 149.539025 
" clip-path="url(#p52325906d7)" style="fill: none; stroke: #1f77b4; stroke-width: 1.5"/>
    <path d="M 333.828352 165.370766 
L 333.828352 157.335389 
" clip-path="url(#p52325906d7)" style="fill: none; stroke: #1f77b4; stroke-width: 1.5"/>
    <path d="M 335.35017 177.282099 
L 335.35017 170.300852 
" clip-path="url(#p52325906d7)" style="fill: none; stroke: #1f77b4; stroke-width: 1.5"/>
    <path d="M 336.871989 190.808073 
L 336.871989 185.322403 
" clip-path="url(#p52325906d7)" style="fill: none; stroke: #1f77b4; stroke-width: 1.5"/>
    <path d="M 338.393807 205.114585 
L 338.393807 201.490021 
" clip-path="url(#p52325906d7)" style="fill: none; stroke: #1f77b4; stroke-width: 1.5"/>
    <path d="M 339.915625 211.178222 
L 339.915625 209.306832 
" clip-path="url(#p52325906d7)" style="fill: none; stroke: #1f77b4; stroke-width: 1.5"/>
    <path d="M 341.437443 215.215977 
L 341.437443 214.323084 
" clip-path="url(#p52325906d7)" style="fill: none; stroke: #1f77b4; stroke-width: 1.5"/>
    <path d="M 342.959261 217.958542 
L 342.959261 217.716735 
" clip-path="url(#p52325906d7)" style="fill: none; stroke: #1f77b4; stroke-width: 1.5"/>
    <path d="M 344.48108 218.440572 
L 344.48108 218.327141 
" clip-path="url(#p52325906d7)" style="fill: none; stroke: #1f77b4; stroke-width: 1.5"/>
    <path d="M 346.002898 218.688754 
L 346.002898 218.635441 
" clip-path="url(#p52325906d7)" style="fill: none; stroke: #1f77b4; stroke-width: 1.5"/>
    <path d="M 347.524716 218.814902 
L 347.524716 218.795855 
" clip-path="url(#p52325906d7)" style="fill: none; stroke: #1f77b4; stroke-width: 1.5"/>
    <path d="M 349.046534 218.850699 
L 349.046534 218.842291 
" clip-path="url(#p52325906d7)" style="fill: none; stroke: #1f77b4; stroke-width: 1.5"/>
    <path d="M 350.568352 218.869125 
L 350.568352 218.865494 
" clip-path="url(#p52325906d7)" style="fill: none; stroke: #1f77b4; stroke-width: 1.5"/>
    <path d="M 352.09017 218.875165 
L 352.09017 218.872489 
" clip-path="url(#p52325906d7)" style="fill: none; stroke: #1f77b4; stroke-width: 1.5"/>
    <path d="M 353.611989 218.878423 
L 353.611989 218.877941 
" clip-path="url(#p52325906d7)" style="fill: none; stroke: #1f77b4; stroke-width: 1.5"/>
    <path d="M 355.133807 218.879026 
L 355.133807 218.878541 
" clip-path="url(#p52325906d7)" style="fill: none; stroke: #1f77b4; stroke-width: 1.5"/>
    <path d="M 356.655625 218.879708 
L 356.655625 218.879555 
" clip-path="url(#p52325906d7)" style="fill: none; stroke: #1f77b4; stroke-width: 1.5"/>
    <path d="M 358.177443 218.879819 
L 358.177443 218.879674 
" clip-path="url(#p52325906d7)" style="fill: none; stroke: #1f77b4; stroke-width: 1.5"/>
    <path d="M 359.699261 218.879931 
L 359.699261 218.879853 
" clip-path="url(#p52325906d7)" style="fill: none; stroke: #1f77b4; stroke-width: 1.5"/>
    <path d="M 361.22108 218.879976 
L 361.22108 218.879957 
" clip-path="url(#p52325906d7)" style="fill: none; stroke: #1f77b4; stroke-width: 1.5"/>
    <path d="M 362.742898 218.879998 
L 362.742898 218.879995 
" clip-path="url(#p52325906d7)" style="fill: none; stroke: #1f77b4; stroke-width: 1.5"/>
    <path d="M 364.264716 218.879999 
L 364.264716 218.879995 
" clip-path="url(#p52325906d7)" style="fill: none; stroke: #1f77b4; stroke-width: 1.5"/>
    <path d="M 365.786534 218.88 
L 365.786534 218.879996 
" clip-path="url(#p52325906d7)" style="fill: none; stroke: #1f77b4; stroke-width: 1.5"/>
   </g>
  </g>
 </g>
 <defs>
  <clipPath id="p52325906d7">
   <rect x="46.965625" y="7.2" width="334.8" height="221.76"/>
  </clipPath>
 </defs>
</svg>