<?xml version="1.0" encoding="utf-8" standalone="no"?>
<!DOCTYPE svg PUBLIC "-//W3C//DTD SVG 1.1//EN"
  "http://www.w3.org/Graphics/SVG/1.1/DTD/svg11.dtd">
<svg xmlns:xlink="http://www.w3.org/1999/xlink" width="408.053125pt" height="268.200625pt" viewBox="0 0 408.053125 268.200625" xmlns="http://www.w3.org/2000/svg" version="1.1">
 <metadata>
  <rdf:RDF xmlns:dc="http://purl.org/dc/elements/1.1/" xmlns:cc="http://creativecommons.org/ns#" xmlns:rdf="http://www.w3.org/1999/02/22-rdf-syntax-ns#">
   <cc:Work>
    <dc:type rdf:resource="http://purl.org/dc/dcmitype/StillImage"/>
    <dc:date>2025-07-05T14:27:12.575820</dc:date>
    <dc:format>image/svg+xml</dc:format>
    <dc:creator>
     <cc:Agent>
      <dc:title>Matplotlib v3.10.1, https://matplotlib.org/</dc:title>
     </cc:Agent>
    </dc:creator>
   </cc:Work>
  </rdf:RDF>
 </metadata>
 <defs>
  <style type="text/css">*{stroke-linejoin: round; stroke-linecap: butt}</style>
 </defs>
 <g id="figure_1">
  <g id="patch_1">
   <path d="M 0 268.200625 
L 408.053125 268.200625 
L 408.053125 0 
L 0 0 
z
" style="fill: #ffffff"/>
  </g>
  <g id="axes_1">
   <g id="patch_2">
    <path d="M 66.053125 228.96 
L 400.853125 228.96 
L 400.853125 7.2 
L 66.053125 7.2 
z
" style="fill: #ffffff"/>
   </g>
   <g id="matplotlib.axis_1">
    <g id="xtick_1">
     <g id="line2d_1">
      <defs>
       <path id="maa91a1d16f" d="M 0 0 
L 0 3.5 
" style="stroke: #000000; stroke-width: 0.8"/>
      </defs>
      <g>
       <use xlink:href="#maa91a1d16f" x="81.271307" y="228.96" style="stroke: #000000; stroke-width: 0.8"/>
      </g>
     </g>
     <g id="text_1">
      <!-- 0.50 -->
      <g transform="translate(70.138494 243.558437) scale(0.1 -0.1)">
       <defs>
        <path id="DejaVuSans-30" d="M 2034 4250 
Q 1547 4250 1301 3770 
Q 1056 3291 1056 2328 
Q 1056 1369 1301 889 
Q 1547 409 2034 409 
Q 2525 409 2770 889 
Q 3016 1369 3016 2328 
Q 3016 3291 2770 3770 
Q 2525 4250 2034 4250 
z
M 2034 4750 
Q 2819 4750 3233 4129 
Q 3647 3509 3647 2328 
Q 3647 1150 3233 529 
Q 2819 -91 2034 -91 
Q 1250 -91 836 529 
Q 422 1150 422 2328 
Q 422 3509 836 4129 
Q 1250 4750 2034 4750 
z
" transform="scale(0.015625)"/>
        <path id="DejaVuSans-2e" d="M 684 794 
L 1344 794 
L 1344 0 
L 684 0 
L 684 794 
z
" transform="scale(0.015625)"/>
        <path id="DejaVuSans-35" d="M 691 4666 
L 3169 4666 
L 3169 4134 
L 1269 4134 
L 1269 2991 
Q 1406 3038 1543 3061 
Q 1681 3084 1819 3084 
Q 2600 3084 3056 2656 
Q 3513 2228 3513 1497 
Q 3513 744 3044 326 
Q 2575 -91 1722 -91 
Q 1428 -91 1123 -41 
Q 819 9 494 109 
L 494 744 
Q 775 591 1075 516 
Q 1375 441 1709 441 
Q 2250 441 2565 725 
Q 2881 1009 2881 1497 
Q 2881 1984 2565 2268 
Q 2250 2553 1709 2553 
Q 1456 2553 1204 2497 
Q 953 2441 691 2322 
L 691 4666 
z
" transform="scale(0.015625)"/>
       </defs>
       <use xlink:href="#DejaVuSans-30"/>
       <use xlink:href="#DejaVuSans-2e" transform="translate(63.623047 0)"/>
       <use xlink:href="#DejaVuSans-35" transform="translate(95.410156 0)"/>
       <use xlink:href="#DejaVuSans-30" transform="translate(159.033203 0)"/>
      </g>
     </g>
    </g>
    <g id="xtick_2">
     <g id="line2d_2">
      <g>
       <use xlink:href="#maa91a1d16f" x="119.316761" y="228.96" style="stroke: #000000; stroke-width: 0.8"/>
      </g>
     </g>
     <g id="text_2">
      <!-- 0.75 -->
      <g transform="translate(108.183949 243.558437) scale(0.1 -0.1)">
       <defs>
        <path id="DejaVuSans-37" d="M 525 4666 
L 3525 4666 
L 3525 4397 
L 1831 0 
L 1172 0 
L 2766 4134 
L 525 4134 
L 525 4666 
z
" transform="scale(0.015625)"/>
       </defs>
       <use xlink:href="#DejaVuSans-30"/>
       <use xlink:href="#DejaVuSans-2e" transform="translate(63.623047 0)"/>
       <use xlink:href="#DejaVuSans-37" transform="translate(95.410156 0)"/>
       <use xlink:href="#DejaVuSans-35" transform="translate(159.033203 0)"/>
      </g>
     </g>
    </g>
    <g id="xtick_3">
     <g id="line2d_3">
      <g>
       <use xlink:href="#maa91a1d16f" x="157.362216" y="228.96" style="stroke: #000000; stroke-width: 0.8"/>
      </g>
     </g>
     <g id="text_3">
      <!-- 1.00 -->
      <g transform="translate(146.229403 243.558437) scale(0.1 -0.1)">
       <defs>
        <path id="DejaVuSans-31" d="M 794 531 
L 1825 531 
L 1825 4091 
L 703 3866 
L 703 4441 
L 1819 4666 
L 2450 4666 
L 2450 531 
L 3481 531 
L 3481 0 
L 794 0 
L 794 531 
z
" transform="scale(0.015625)"/>
       </defs>
       <use xlink:href="#DejaVuSans-31"/>
       <use xlink:href="#DejaVuSans-2e" transform="translate(63.623047 0)"/>
       <use xlink:href="#DejaVuSans-30" transform="translate(95.410156 0)"/>
       <use xlink:href="#DejaVuSans-30" transform="translate(159.033203 0)"/>
      </g>
     </g>
    </g>
    <g id="xtick_4">
     <g id="line2d_4">
      <g>
       <use xlink:href="#maa91a1d16f" x="195.40767" y="228.96" style="stroke: #000000; stroke-width: 0.8"/>
      </g>
     </g>
     <g id="text_4">
      <!-- 1.25 -->
      <g transform="translate(184.274858 243.558437) scale(0.1 -0.1)">
       <defs>
        <path id="DejaVuSans-32" d="M 1228 531 
L 3431 531 
L 3431 0 
L 469 0 
L 469 531 
Q 828 903 1448 1529 
Q 2069 2156 2228 2338 
Q 2531 2678 2651 2914 
Q 2772 3150 2772 3378 
Q 2772 3750 2511 3984 
Q 2250 4219 1831 4219 
Q 1534 4219 1204 4116 
Q 875 4013 500 3803 
L 500 4441 
Q 881 4594 1212 4672 
Q 1544 4750 1819 4750 
Q 2544 4750 2975 4387 
Q 3406 4025 3406 3419 
Q 3406 3131 3298 2873 
Q 3191 2616 2906 2266 
Q 2828 2175 2409 1742 
Q 1991 1309 1228 531 
z
" transform="scale(0.015625)"/>
       </defs>
       <use xlink:href="#DejaVuSans-31"/>
       <use xlink:href="#DejaVuSans-2e" transform="translate(63.623047 0)"/>
       <use xlink:href="#DejaVuSans-32" transform="translate(95.410156 0)"/>
       <use xlink:href="#DejaVuSans-35" transform="translate(159.033203 0)"/>
      </g>
     </g>
    </g>
    <g id="xtick_5">
     <g id="line2d_5">
      <g>
       <use xlink:href="#maa91a1d16f" x="233.453125" y="228.96" style="stroke: #000000; stroke-width: 0.8"/>
      </g>
     </g>
     <g id="text_5">
      <!-- 1.50 -->
      <g transform="translate(222.320312 243.558437) scale(0.1 -0.1)">
       <use xlink:href="#DejaVuSans-31"/>
       <use xlink:href="#DejaVuSans-2e" transform="translate(63.623047 0)"/>
       <use xlink:href="#DejaVuSans-35" transform="translate(95.410156 0)"/>
       <use xlink:href="#DejaVuSans-30" transform="translate(159.033203 0)"/>
      </g>
     </g>
    </g>
    <g id="xtick_6">
     <g id="line2d_6">
      <g>
       <use xlink:href="#maa91a1d16f" x="271.49858" y="228.96" style="stroke: #000000; stroke-width: 0.8"/>
      </g>
     </g>
     <g id="text_6">
      <!-- 1.75 -->
      <g transform="translate(260.365767 243.558437) scale(0.1 -0.1)">
       <use xlink:href="#DejaVuSans-31"/>
       <use xlink:href="#DejaVuSans-2e" transform="translate(63.623047 0)"/>
       <use xlink:href="#DejaVuSans-37" transform="translate(95.410156 0)"/>
       <use xlink:href="#DejaVuSans-35" transform="translate(159.033203 0)"/>
      </g>
     </g>
    </g>
    <g id="xtick_7">
     <g id="line2d_7">
      <g>
       <use xlink:href="#maa91a1d16f" x="309.544034" y="228.96" style="stroke: #000000; stroke-width: 0.8"/>
      </g>
     </g>
     <g id="text_7">
      <!-- 2.00 -->
      <g transform="translate(298.411222 243.558437) scale(0.1 -0.1)">
       <use xlink:href="#DejaVuSans-32"/>
       <use xlink:href="#DejaVuSans-2e" transform="translate(63.623047 0)"/>
       <use xlink:href="#DejaVuSans-30" transform="translate(95.410156 0)"/>
       <use xlink:href="#DejaVuSans-30" transform="translate(159.033203 0)"/>
      </g>
     </g>
    </g>
    <g id="xtick_8">
     <g id="line2d_8">
      <g>
       <use xlink:href="#maa91a1d16f" x="347.589489" y="228.96" style="stroke: #000000; stroke-width: 0.8"/>
      </g>
     </g>
     <g id="text_8">
      <!-- 2.25 -->
      <g transform="translate(336.456676 243.558437) scale(0.1 -0.1)">
       <use xlink:href="#DejaVuSans-32"/>
       <use xlink:href="#DejaVuSans-2e" transform="translate(63.623047 0)"/>
       <use xlink:href="#DejaVuSans-32" transform="translate(95.410156 0)"/>
       <use xlink:href="#DejaVuSans-35" transform="translate(159.033203 0)"/>
      </g>
     </g>
    </g>
    <g id="xtick_9">
     <g id="line2d_9">
      <g>
       <use xlink:href="#maa91a1d16f" x="385.634943" y="228.96" style="stroke: #000000; stroke-width: 0.8"/>
      </g>
     </g>
     <g id="text_9">
      <!-- 2.50 -->
      <g transform="translate(374.502131 243.558437) scale(0.1 -0.1)">
       <use xlink:href="#DejaVuSans-32"/>
       <use xlink:href="#DejaVuSans-2e" transform="translate(63.623047 0)"/>
       <use xlink:href="#DejaVuSans-35" transform="translate(95.410156 0)"/>
       <use xlink:href="#DejaVuSans-30" transform="translate(159.033203 0)"/>
      </g>
     </g>
    </g>
    <g id="text_10">
     <!-- dspacing [Å] -->
     <g transform="translate(202.04375 258.920937) scale(0.1 -0.1)">
      <defs>
       <path id="DejaVuSans-64" d="M 2906 2969 
L 2906 4863 
L 3481 4863 
L 3481 0 
L 2906 0 
L 2906 525 
Q 2725 213 2448 61 
Q 2172 -91 1784 -91 
Q 1150 -91 751 415 
Q 353 922 353 1747 
Q 353 2572 751 3078 
Q 1150 3584 1784 3584 
Q 2172 3584 2448 3432 
Q 2725 3281 2906 2969 
z
M 947 1747 
Q 947 1113 1208 752 
Q 1469 391 1925 391 
Q 2381 391 2643 752 
Q 2906 1113 2906 1747 
Q 2906 2381 2643 2742 
Q 2381 3103 1925 3103 
Q 1469 3103 1208 2742 
Q 947 2381 947 1747 
z
" transform="scale(0.015625)"/>
       <path id="DejaVuSans-73" d="M 2834 3397 
L 2834 2853 
Q 2591 2978 2328 3040 
Q 2066 3103 1784 3103 
Q 1356 3103 1142 2972 
Q 928 2841 928 2578 
Q 928 2378 1081 2264 
Q 1234 2150 1697 2047 
L 1894 2003 
Q 2506 1872 2764 1633 
Q 3022 1394 3022 966 
Q 3022 478 2636 193 
Q 2250 -91 1575 -91 
Q 1294 -91 989 -36 
Q 684 19 347 128 
L 347 722 
Q 666 556 975 473 
Q 1284 391 1588 391 
Q 1994 391 2212 530 
Q 2431 669 2431 922 
Q 2431 1156 2273 1281 
Q 2116 1406 1581 1522 
L 1381 1569 
Q 847 1681 609 1914 
Q 372 2147 372 2553 
Q 372 3047 722 3315 
Q 1072 3584 1716 3584 
Q 2034 3584 2315 3537 
Q 2597 3491 2834 3397 
z
" transform="scale(0.015625)"/>
       <path id="DejaVuSans-70" d="M 1159 525 
L 1159 -1331 
L 581 -1331 
L 581 3500 
L 1159 3500 
L 1159 2969 
Q 1341 3281 1617 3432 
Q 1894 3584 2278 3584 
Q 2916 3584 3314 3078 
Q 3713 2572 3713 1747 
Q 3713 922 3314 415 
Q 2916 -91 2278 -91 
Q 1894 -91 1617 61 
Q 1341 213 1159 525 
z
M 3116 1747 
Q 3116 2381 2855 2742 
Q 2594 3103 2138 3103 
Q 1681 3103 1420 2742 
Q 1159 2381 1159 1747 
Q 1159 1113 1420 752 
Q 1681 391 2138 391 
Q 2594 391 2855 752 
Q 3116 1113 3116 1747 
z
" transform="scale(0.015625)"/>
       <path id="DejaVuSans-61" d="M 2194 1759 
Q 1497 1759 1228 1600 
Q 959 1441 959 1056 
Q 959 750 1161 570 
Q 1363 391 1709 391 
Q 2188 391 2477 730 
Q 2766 1069 2766 1631 
L 2766 1759 
L 2194 1759 
z
M 3341 1997 
L 3341 0 
L 2766 0 
L 2766 531 
Q 2569 213 2275 61 
Q 1981 -91 1556 -91 
Q 1019 -91 701 211 
Q 384 513 384 1019 
Q 384 1609 779 1909 
Q 1175 2209 1959 2209 
L 2766 2209 
L 2766 2266 
Q 2766 2663 2505 2880 
Q 2244 3097 1772 3097 
Q 1472 3097 1187 3025 
Q 903 2953 641 2809 
L 641 3341 
Q 956 3463 1253 3523 
Q 1550 3584 1831 3584 
Q 2591 3584 2966 3190 
Q 3341 2797 3341 1997 
z
" transform="scale(0.015625)"/>
       <path id="DejaVuSans-63" d="M 3122 3366 
L 3122 2828 
Q 2878 2963 2633 3030 
Q 2388 3097 2138 3097 
Q 1578 3097 1268 2742 
Q 959 2388 959 1747 
Q 959 1106 1268 751 
Q 1578 397 2138 397 
Q 2388 397 2633 464 
Q 2878 531 3122 666 
L 3122 134 
Q 2881 22 2623 -34 
Q 2366 -91 2075 -91 
Q 1284 -91 818 406 
Q 353 903 353 1747 
Q 353 2603 823 3093 
Q 1294 3584 2113 3584 
Q 2378 3584 2631 3529 
Q 2884 3475 3122 3366 
z
" transform="scale(0.015625)"/>
       <path id="DejaVuSans-69" d="M 603 3500 
L 1178 3500 
L 1178 0 
L 603 0 
L 603 3500 
z
M 603 4863 
L 1178 4863 
L 1178 4134 
L 603 4134 
L 603 4863 
z
" transform="scale(0.015625)"/>
       <path id="DejaVuSans-6e" d="M 3513 2113 
L 3513 0 
L 2938 0 
L 2938 2094 
Q 2938 2591 2744 2837 
Q 2550 3084 2163 3084 
Q 1697 3084 1428 2787 
Q 1159 2491 1159 1978 
L 1159 0 
L 581 0 
L 581 3500 
L 1159 3500 
L 1159 2956 
Q 1366 3272 1645 3428 
Q 1925 3584 2291 3584 
Q 2894 3584 3203 3211 
Q 3513 2838 3513 2113 
z
" transform="scale(0.015625)"/>
       <path id="DejaVuSans-67" d="M 2906 1791 
Q 2906 2416 2648 2759 
Q 2391 3103 1925 3103 
Q 1463 3103 1205 2759 
Q 947 2416 947 1791 
Q 947 1169 1205 825 
Q 1463 481 1925 481 
Q 2391 481 2648 825 
Q 2906 1169 2906 1791 
z
M 3481 434 
Q 3481 -459 3084 -895 
Q 2688 -1331 1869 -1331 
Q 1566 -1331 1297 -1286 
Q 1028 -1241 775 -1147 
L 775 -588 
Q 1028 -725 1275 -790 
Q 1522 -856 1778 -856 
Q 2344 -856 2625 -561 
Q 2906 -266 2906 331 
L 2906 616 
Q 2728 306 2450 153 
Q 2172 0 1784 0 
Q 1141 0 747 490 
Q 353 981 353 1791 
Q 353 2603 747 3093 
Q 1141 3584 1784 3584 
Q 2172 3584 2450 3431 
Q 2728 3278 2906 2969 
L 2906 3500 
L 3481 3500 
L 3481 434 
z
" transform="scale(0.015625)"/>
       <path id="DejaVuSans-20" transform="scale(0.015625)"/>
       <path id="DejaVuSans-5b" d="M 550 4863 
L 1875 4863 
L 1875 4416 
L 1125 4416 
L 1125 -397 
L 1875 -397 
L 1875 -844 
L 550 -844 
L 550 4863 
z
" transform="scale(0.015625)"/>
       <path id="DejaVuSans-c5" d="M 2663 5081 
Q 2663 5278 2523 5417 
Q 2384 5556 2188 5556 
Q 1988 5556 1852 5420 
Q 1716 5284 1716 5081 
Q 1716 4884 1853 4746 
Q 1991 4609 2188 4609 
Q 2384 4609 2523 4746 
Q 2663 4884 2663 5081 
z
M 2188 4044 
L 1338 1722 
L 3041 1722 
L 2188 4044 
z
M 1716 4366 
Q 1525 4494 1428 4673 
Q 1331 4853 1331 5081 
Q 1331 5441 1579 5691 
Q 1828 5941 2188 5941 
Q 2544 5941 2795 5689 
Q 3047 5438 3047 5081 
Q 3047 4863 2948 4678 
Q 2850 4494 2663 4366 
L 4325 0 
L 3669 0 
L 3244 1197 
L 1141 1197 
L 716 0 
L 50 0 
L 1716 4366 
z
" transform="scale(0.015625)"/>
       <path id="DejaVuSans-5d" d="M 1947 4863 
L 1947 -844 
L 622 -844 
L 622 -397 
L 1369 -397 
L 1369 4416 
L 622 4416 
L 622 4863 
L 1947 4863 
z
" transform="scale(0.015625)"/>
      </defs>
      <use xlink:href="#DejaVuSans-64"/>
      <use xlink:href="#DejaVuSans-73" transform="translate(63.476562 0)"/>
      <use xlink:href="#DejaVuSans-70" transform="translate(115.576172 0)"/>
      <use xlink:href="#DejaVuSans-61" transform="translate(179.052734 0)"/>
      <use xlink:href="#DejaVuSans-63" transform="translate(240.332031 0)"/>
      <use xlink:href="#DejaVuSans-69" transform="translate(295.3125 0)"/>
      <use xlink:href="#DejaVuSans-6e" transform="translate(323.095703 0)"/>
      <use xlink:href="#DejaVuSans-67" transform="translate(386.474609 0)"/>
      <use xlink:href="#DejaVuSans-20" transform="translate(449.951172 0)"/>
      <use xlink:href="#DejaVuSans-5b" transform="translate(481.738281 0)"/>
      <use xlink:href="#DejaVuSans-c5" transform="translate(520.751953 0)"/>
      <use xlink:href="#DejaVuSans-5d" transform="translate(589.160156 0)"/>
     </g>
    </g>
   </g>
   <g id="matplotlib.axis_2">
    <g id="ytick_1">
     <g id="line2d_10">
      <defs>
       <path id="m6f0d302af1" d="M 0 0 
L -3.5 0 
" style="stroke: #000000; stroke-width: 0.8"/>
      </defs>
      <g>
       <use xlink:href="#m6f0d302af1" x="66.053125" y="218.892218" style="stroke: #000000; stroke-width: 0.8"/>
      </g>
     </g>
     <g id="text_11">
      <!-- 0 -->
      <g transform="translate(52.690625 222.691436) scale(0.1 -0.1)">
       <use xlink:href="#DejaVuSans-30"/>
      </g>
     </g>
    </g>
    <g id="ytick_2">
     <g id="line2d_11">
      <g>
       <use xlink:href="#m6f0d302af1" x="66.053125" y="187.651861" style="stroke: #000000; stroke-width: 0.8"/>
      </g>
     </g>
     <g id="text_12">
      <!-- 100000 -->
      <g transform="translate(20.878125 191.45108) scale(0.1 -0.1)">
       <use xlink:href="#DejaVuSans-31"/>
       <use xlink:href="#DejaVuSans-30" transform="translate(63.623047 0)"/>
       <use xlink:href="#DejaVuSans-30" transform="translate(127.246094 0)"/>
       <use xlink:href="#DejaVuSans-30" transform="translate(190.869141 0)"/>
       <use xlink:href="#DejaVuSans-30" transform="translate(254.492188 0)"/>
       <use xlink:href="#DejaVuSans-30" transform="translate(318.115234 0)"/>
      </g>
     </g>
    </g>
    <g id="ytick_3">
     <g id="line2d_12">
      <g>
       <use xlink:href="#m6f0d302af1" x="66.053125" y="156.411504" style="stroke: #000000; stroke-width: 0.8"/>
      </g>
     </g>
     <g id="text_13">
      <!-- 200000 -->
      <g transform="translate(20.878125 160.210723) scale(0.1 -0.1)">
       <use xlink:href="#DejaVuSans-32"/>
       <use xlink:href="#DejaVuSans-30" transform="translate(63.623047 0)"/>
       <use xlink:href="#DejaVuSans-30" transform="translate(127.246094 0)"/>
       <use xlink:href="#DejaVuSans-30" transform="translate(190.869141 0)"/>
       <use xlink:href="#DejaVuSans-30" transform="translate(254.492188 0)"/>
       <use xlink:href="#DejaVuSans-30" transform="translate(318.115234 0)"/>
      </g>
     </g>
    </g>
    <g id="ytick_4">
     <g id="line2d_13">
      <g>
       <use xlink:href="#m6f0d302af1" x="66.053125" y="125.171147" style="stroke: #000000; stroke-width: 0.8"/>
      </g>
     </g>
     <g id="text_14">
      <!-- 300000 -->
      <g transform="translate(20.878125 128.970366) scale(0.1 -0.1)">
       <defs>
        <path id="DejaVuSans-33" d="M 2597 2516 
Q 3050 2419 3304 2112 
Q 3559 1806 3559 1356 
Q 3559 666 3084 287 
Q 2609 -91 1734 -91 
Q 1441 -91 1130 -33 
Q 819 25 488 141 
L 488 750 
Q 750 597 1062 519 
Q 1375 441 1716 441 
Q 2309 441 2620 675 
Q 2931 909 2931 1356 
Q 2931 1769 2642 2001 
Q 2353 2234 1838 2234 
L 1294 2234 
L 1294 2753 
L 1863 2753 
Q 2328 2753 2575 2939 
Q 2822 3125 2822 3475 
Q 2822 3834 2567 4026 
Q 2313 4219 1838 4219 
Q 1578 4219 1281 4162 
Q 984 4106 628 3988 
L 628 4550 
Q 988 4650 1302 4700 
Q 1616 4750 1894 4750 
Q 2613 4750 3031 4423 
Q 3450 4097 3450 3541 
Q 3450 3153 3228 2886 
Q 3006 2619 2597 2516 
z
" transform="scale(0.015625)"/>
       </defs>
       <use xlink:href="#DejaVuSans-33"/>
       <use xlink:href="#DejaVuSans-30" transform="translate(63.623047 0)"/>
       <use xlink:href="#DejaVuSans-30" transform="translate(127.246094 0)"/>
       <use xlink:href="#DejaVuSans-30" transform="translate(190.869141 0)"/>
       <use xlink:href="#DejaVuSans-30" transform="translate(254.492188 0)"/>
       <use xlink:href="#DejaVuSans-30" transform="translate(318.115234 0)"/>
      </g>
     </g>
    </g>
    <g id="ytick_5">
     <g id="line2d_14">
      <g>
       <use xlink:href="#m6f0d302af1" x="66.053125" y="93.93079" style="stroke: #000000; stroke-width: 0.8"/>
      </g>
     </g>
     <g id="text_15">
      <!-- 400000 -->
      <g transform="translate(20.878125 97.730009) scale(0.1 -0.1)">
       <defs>
        <path id="DejaVuSans-34" d="M 2419 4116 
L 825 1625 
L 2419 1625 
L 2419 4116 
z
M 2253 4666 
L 3047 4666 
L 3047 1625 
L 3713 1625 
L 3713 1100 
L 3047 1100 
L 3047 0 
L 2419 0 
L 2419 1100 
L 313 1100 
L 313 1709 
L 2253 4666 
z
" transform="scale(0.015625)"/>
       </defs>
       <use xlink:href="#DejaVuSans-34"/>
       <use xlink:href="#DejaVuSans-30" transform="translate(63.623047 0)"/>
       <use xlink:href="#DejaVuSans-30" transform="translate(127.246094 0)"/>
       <use xlink:href="#DejaVuSans-30" transform="translate(190.869141 0)"/>
       <use xlink:href="#DejaVuSans-30" transform="translate(254.492188 0)"/>
       <use xlink:href="#DejaVuSans-30" transform="translate(318.115234 0)"/>
      </g>
     </g>
    </g>
    <g id="ytick_6">
     <g id="line2d_15">
      <g>
       <use xlink:href="#m6f0d302af1" x="66.053125" y="62.690433" style="stroke: #000000; stroke-width: 0.8"/>
      </g>
     </g>
     <g id="text_16">
      <!-- 500000 -->
      <g transform="translate(20.878125 66.489652) scale(0.1 -0.1)">
       <use xlink:href="#DejaVuSans-35"/>
       <use xlink:href="#DejaVuSans-30" transform="translate(63.623047 0)"/>
       <use xlink:href="#DejaVuSans-30" transform="translate(127.246094 0)"/>
       <use xlink:href="#DejaVuSans-30" transform="translate(190.869141 0)"/>
       <use xlink:href="#DejaVuSans-30" transform="translate(254.492188 0)"/>
       <use xlink:href="#DejaVuSans-30" transform="translate(318.115234 0)"/>
      </g>
     </g>
    </g>
    <g id="ytick_7">
     <g id="line2d_16">
      <g>
       <use xlink:href="#m6f0d302af1" x="66.053125" y="31.450077" style="stroke: #000000; stroke-width: 0.8"/>
      </g>
     </g>
     <g id="text_17">
      <!-- 600000 -->
      <g transform="translate(20.878125 35.249295) scale(0.1 -0.1)">
       <defs>
        <path id="DejaVuSans-36" d="M 2113 2584 
Q 1688 2584 1439 2293 
Q 1191 2003 1191 1497 
Q 1191 994 1439 701 
Q 1688 409 2113 409 
Q 2538 409 2786 701 
Q 3034 994 3034 1497 
Q 3034 2003 2786 2293 
Q 2538 2584 2113 2584 
z
M 3366 4563 
L 3366 3988 
Q 3128 4100 2886 4159 
Q 2644 4219 2406 4219 
Q 1781 4219 1451 3797 
Q 1122 3375 1075 2522 
Q 1259 2794 1537 2939 
Q 1816 3084 2150 3084 
Q 2853 3084 3261 2657 
Q 3669 2231 3669 1497 
Q 3669 778 3244 343 
Q 2819 -91 2113 -91 
Q 1303 -91 875 529 
Q 447 1150 447 2328 
Q 447 3434 972 4092 
Q 1497 4750 2381 4750 
Q 2619 4750 2861 4703 
Q 3103 4656 3366 4563 
z
" transform="scale(0.015625)"/>
       </defs>
       <use xlink:href="#DejaVuSans-36"/>
       <use xlink:href="#DejaVuSans-30" transform="translate(63.623047 0)"/>
       <use xlink:href="#DejaVuSans-30" transform="translate(127.246094 0)"/>
       <use xlink:href="#DejaVuSans-30" transform="translate(190.869141 0)"/>
       <use xlink:href="#DejaVuSans-30" transform="translate(254.492188 0)"/>
       <use xlink:href="#DejaVuSans-30" transform="translate(318.115234 0)"/>
      </g>
     </g>
    </g>
    <g id="text_18">
     <!-- [counts] -->
     <g transform="translate(14.798438 138.6925) rotate(-90) scale(0.1 -0.1)">
      <defs>
       <path id="DejaVuSans-6f" d="M 1959 3097 
Q 1497 3097 1228 2736 
Q 959 2375 959 1747 
Q 959 1119 1226 758 
Q 1494 397 1959 397 
Q 2419 397 2687 759 
Q 2956 1122 2956 1747 
Q 2956 2369 2687 2733 
Q 2419 3097 1959 3097 
z
M 1959 3584 
Q 2709 3584 3137 3096 
Q 3566 2609 3566 1747 
Q 3566 888 3137 398 
Q 2709 -91 1959 -91 
Q 1206 -91 779 398 
Q 353 888 353 1747 
Q 353 2609 779 3096 
Q 1206 3584 1959 3584 
z
" transform="scale(0.015625)"/>
       <path id="DejaVuSans-75" d="M 544 1381 
L 544 3500 
L 1119 3500 
L 1119 1403 
Q 1119 906 1312 657 
Q 1506 409 1894 409 
Q 2359 409 2629 706 
Q 2900 1003 2900 1516 
L 2900 3500 
L 3475 3500 
L 3475 0 
L 2900 0 
L 2900 538 
Q 2691 219 2414 64 
Q 2138 -91 1772 -91 
Q 1169 -91 856 284 
Q 544 659 544 1381 
z
M 1991 3584 
L 1991 3584 
z
" transform="scale(0.015625)"/>
       <path id="DejaVuSans-74" d="M 1172 4494 
L 1172 3500 
L 2356 3500 
L 2356 3053 
L 1172 3053 
L 1172 1153 
Q 1172 725 1289 603 
Q 1406 481 1766 481 
L 2356 481 
L 2356 0 
L 1766 0 
Q 1100 0 847 248 
Q 594 497 594 1153 
L 594 3053 
L 172 3053 
L 172 3500 
L 594 3500 
L 594 4494 
L 1172 4494 
z
" transform="scale(0.015625)"/>
      </defs>
      <use xlink:href="#DejaVuSans-5b"/>
      <use xlink:href="#DejaVuSans-63" transform="translate(39.013672 0)"/>
      <use xlink:href="#DejaVuSans-6f" transform="translate(93.994141 0)"/>
      <use xlink:href="#DejaVuSans-75" transform="translate(155.175781 0)"/>
      <use xlink:href="#DejaVuSans-6e" transform="translate(218.554688 0)"/>
      <use xlink:href="#DejaVuSans-74" transform="translate(281.933594 0)"/>
      <use xlink:href="#DejaVuSans-73" transform="translate(321.142578 0)"/>
      <use xlink:href="#DejaVuSans-5d" transform="translate(373.242188 0)"/>
     </g>
    </g>
   </g>
   <g id="patch_3">
    <path d="M 66.053125 228.96 
L 66.053125 7.2 
" style="fill: none; stroke: #000000; stroke-width: 0.8; stroke-linejoin: miter; stroke-linecap: square"/>
   </g>
   <g id="patch_4">
    <path d="M 400.853125 228.96 
L 400.853125 7.2 
" style="fill: none; stroke: #000000; stroke-width: 0.8; stroke-linejoin: miter; stroke-linecap: square"/>
   </g>
   <g id="patch_5">
    <path d="M 66.053125 228.96 
L 400.853125 228.96 
" style="fill: none; stroke: #000000; stroke-width: 0.8; stroke-linejoin: miter; stroke-linecap: square"/>
   </g>
   <g id="patch_6">
    <path d="M 66.053125 7.2 
L 400.853125 7.2 
" style="fill: none; stroke: #000000; stroke-width: 0.8; stroke-linejoin: miter; stroke-linecap: square"/>
   </g>
   <g id="line2d_17">
    <path d="M 81.271307 218.878719 
L 91.924034 218.825921 
L 91.924034 218.59496 
L 93.445852 218.59496 
L 93.445852 218.70886 
L 98.011307 218.782402 
L 98.011307 218.597556 
L 101.054943 218.64114 
L 101.054943 218.37047 
L 104.09858 218.341187 
L 104.09858 218.628762 
L 105.620398 218.628762 
L 105.620398 218.202916 
L 107.142216 218.202916 
L 107.142216 217.82795 
L 110.185852 217.852957 
L 110.185852 218.639553 
L 111.70767 218.639553 
L 111.70767 218.044049 
L 113.229489 218.044049 
L 113.229489 218.278479 
L 114.751307 218.278479 
L 114.751307 218.609601 
L 116.273125 218.609601 
L 116.273125 218.819984 
L 117.794943 218.819984 
L 117.794943 214.228124 
L 119.316761 214.228124 
L 119.316761 216.616108 
L 120.83858 216.616108 
L 120.83858 209.915722 
L 122.360398 209.915722 
L 122.360398 217.31558 
L 123.882216 217.31558 
L 123.882216 218.614348 
L 125.404034 218.614348 
L 125.404034 212.595477 
L 126.925852 212.595477 
L 126.925852 216.341736 
L 128.44767 216.341736 
L 128.44767 216.503196 
L 129.969489 216.503196 
L 129.969489 216.797997 
L 131.491307 216.797997 
L 131.491307 218.432004 
L 133.013125 218.432004 
L 133.013125 218.611543 
L 134.534943 218.611543 
L 134.534943 217.199173 
L 136.056761 217.199173 
L 136.056761 212.369997 
L 137.57858 212.369997 
L 137.57858 217.362642 
L 139.100398 217.362642 
L 139.100398 213.844893 
L 140.622216 213.844893 
L 140.622216 203.159114 
L 142.144034 203.159114 
L 142.144034 214.764282 
L 143.665852 214.764282 
L 143.665852 217.720398 
L 145.18767 217.720398 
L 145.18767 218.443569 
L 146.709489 218.443569 
L 146.709489 218.605335 
L 148.231307 218.605335 
L 148.231307 205.621798 
L 149.753125 205.621798 
L 149.753125 198.776215 
L 151.274943 198.776215 
L 151.274943 212.960637 
L 152.796761 212.960637 
L 152.796761 217.320473 
L 154.31858 217.320473 
L 154.31858 211.403339 
L 155.840398 211.403339 
L 155.840398 204.309066 
L 157.362216 204.309066 
L 157.362216 214.030085 
L 158.884034 214.030085 
L 158.884034 217.279689 
L 160.405852 217.279689 
L 160.405852 218.10043 
L 161.92767 218.10043 
L 161.92767 218.295297 
L 163.449489 218.295297 
L 163.449489 218.434193 
L 166.493125 218.491764 
L 166.493125 210.941759 
L 168.014943 210.941759 
L 168.014943 185.086012 
L 169.536761 185.086012 
L 169.536761 204.758659 
L 171.05858 204.758659 
L 171.05858 213.445279 
L 172.580398 213.445279 
L 172.580398 216.640783 
L 174.102216 216.640783 
L 174.102216 217.797278 
L 175.624034 217.797278 
L 175.624034 208.875947 
L 177.145852 208.875947 
L 177.145852 149.394669 
L 178.66767 149.394669 
L 178.66767 183.573112 
L 180.189489 183.573112 
L 180.189489 204.546263 
L 181.711307 204.546263 
L 181.711307 212.976404 
L 183.233125 212.976404 
L 183.233125 216.523741 
L 184.754943 216.523741 
L 184.754943 217.677923 
L 186.276761 217.677923 
L 186.276761 217.989909 
L 187.79858 217.989909 
L 187.79858 218.21047 
L 192.364034 218.314453 
L 192.364034 218.328869 
L 195.40767 218.27304 
L 195.40767 215.782672 
L 196.929489 215.782672 
L 196.929489 153.432579 
L 198.451307 153.432579 
L 198.451307 168.990087 
L 199.973125 168.990087 
L 199.973125 200.926389 
L 201.494943 200.926389 
L 201.494943 209.245629 
L 203.016761 209.245629 
L 203.016761 213.802468 
L 204.53858 213.802468 
L 204.53858 216.11366 
L 206.060398 216.11366 
L 206.060398 217.273965 
L 207.582216 217.273965 
L 207.582216 217.81664 
L 209.104034 217.81664 
L 209.104034 218.057062 
L 212.14767 218.100485 
L 212.14767 212.441403 
L 213.669489 212.441403 
L 213.669489 153.367471 
L 215.191307 153.367471 
L 215.191307 185.494093 
L 216.713125 185.494093 
L 216.713125 204.954759 
L 218.234943 204.954759 
L 218.234943 211.431078 
L 219.756761 211.431078 
L 219.756761 214.311076 
L 221.27858 214.311076 
L 221.27858 216.282061 
L 222.800398 216.282061 
L 222.800398 217.236137 
L 224.322216 217.236137 
L 224.322216 217.618626 
L 225.844034 217.618626 
L 225.844034 217.874456 
L 227.365852 217.874456 
L 227.365852 217.749133 
L 228.88767 217.749133 
L 228.88767 218.098286 
L 231.931307 218.052988 
L 231.931307 217.961026 
L 233.453125 217.961026 
L 233.453125 218.168556 
L 236.496761 218.183938 
L 236.496761 217.955104 
L 241.062216 218.039358 
L 241.062216 217.828662 
L 242.584034 217.828662 
L 242.584034 217.953941 
L 247.149489 217.980794 
L 247.149489 218.156062 
L 253.236761 218.135462 
L 253.236761 199.36691 
L 254.75858 199.36691 
L 254.75858 18.239966 
L 256.280398 18.239966 
L 256.280398 90.547533 
L 257.802216 90.547533 
L 257.802216 144.025532 
L 259.324034 144.025532 
L 259.324034 174.111385 
L 260.845852 174.111385 
L 260.845852 193.793219 
L 262.36767 193.793219 
L 262.36767 203.654268 
L 263.889489 203.654268 
L 263.889489 209.197631 
L 265.411307 209.197631 
L 265.411307 213.015671 
L 266.933125 213.015671 
L 266.933125 215.033814 
L 268.454943 215.033814 
L 268.454943 216.439979 
L 269.976761 216.439979 
L 269.976761 217.261488 
L 271.49858 217.261488 
L 271.49858 217.710944 
L 273.020398 217.710944 
L 273.020398 218.000183 
L 274.542216 218.000183 
L 274.542216 218.266196 
L 285.194943 218.285088 
L 285.194943 218.387326 
L 294.325852 218.447434 
L 294.325852 216.73273 
L 295.84767 216.73273 
L 295.84767 161.366019 
L 297.369489 161.366019 
L 297.369489 107.324218 
L 298.891307 107.324218 
L 298.891307 101.986018 
L 300.413125 101.986018 
L 300.413125 126.88664 
L 301.934943 126.88664 
L 301.934943 150.735226 
L 303.456761 150.735226 
L 303.456761 171.674589 
L 304.97858 171.674589 
L 304.97858 187.647099 
L 306.500398 187.647099 
L 306.500398 198.545089 
L 308.022216 198.545089 
L 308.022216 206.127124 
L 309.544034 206.127124 
L 309.544034 210.007947 
L 311.065852 210.007947 
L 311.065852 212.678196 
L 312.58767 212.678196 
L 312.58767 214.659895 
L 314.109489 214.659895 
L 314.109489 216.26585 
L 315.631307 216.26585 
L 315.631307 217.082884 
L 317.153125 217.082884 
L 317.153125 217.638514 
L 318.674943 217.638514 
L 318.674943 217.993065 
L 320.196761 217.993065 
L 320.196761 218.288233 
L 323.240398 218.345508 
L 323.240398 218.458767 
L 330.849489 218.565192 
L 330.849489 218.57214 
L 361.285852 218.568823 
L 361.285852 218.683752 
L 385.634943 218.670296 
L 385.634943 218.670296 
" clip-path="url(#pc6be5ce235)" style="fill: none; stroke: #1f77b4; stroke-width: 1.5; stroke-linecap: square"/>
   </g>
   <g id="LineCollection_1">
    <path d="M 82.032216 218.88 
L 82.032216 218.877438 
" clip-path="url(#pc6be5ce235)" style="fill: none; stroke: #1f77b4; stroke-width: 1.5"/>
    <path d="M 83.554034 218.865007 
L 83.554034 218.860325 
" clip-path="url(#pc6be5ce235)" style="fill: none; stroke: #1f77b4; stroke-width: 1.5"/>
    <path d="M 85.075852 218.863132 
L 85.075852 218.859203 
" clip-path="url(#pc6be5ce235)" style="fill: none; stroke: #1f77b4; stroke-width: 1.5"/>
    <path d="M 86.59767 218.853441 
L 86.59767 218.844099 
" clip-path="url(#pc6be5ce235)" style="fill: none; stroke: #1f77b4; stroke-width: 1.5"/>
    <path d="M 88.119489 218.840354 
L 88.119489 218.830043 
" clip-path="url(#pc6be5ce235)" style="fill: none; stroke: #1f77b4; stroke-width: 1.5"/>
    <path d="M 89.641307 218.865799 
L 89.641307 218.860004 
" clip-path="url(#pc6be5ce235)" style="fill: none; stroke: #1f77b4; stroke-width: 1.5"/>
    <path d="M 91.163125 218.832407 
L 91.163125 218.819436 
" clip-path="url(#pc6be5ce235)" style="fill: none; stroke: #1f77b4; stroke-width: 1.5"/>
    <path d="M 92.684943 218.613019 
L 92.684943 218.576901 
" clip-path="url(#pc6be5ce235)" style="fill: none; stroke: #1f77b4; stroke-width: 1.5"/>
    <path d="M 94.206761 218.718722 
L 94.206761 218.698999 
" clip-path="url(#pc6be5ce235)" style="fill: none; stroke: #1f77b4; stroke-width: 1.5"/>
    <path d="M 95.72858 218.685036 
L 95.72858 218.659007 
" clip-path="url(#pc6be5ce235)" style="fill: none; stroke: #1f77b4; stroke-width: 1.5"/>
    <path d="M 97.250398 218.793925 
L 97.250398 218.770879 
" clip-path="url(#pc6be5ce235)" style="fill: none; stroke: #1f77b4; stroke-width: 1.5"/>
    <path d="M 98.772216 218.617753 
L 98.772216 218.57736 
" clip-path="url(#pc6be5ce235)" style="fill: none; stroke: #1f77b4; stroke-width: 1.5"/>
    <path d="M 100.294034 218.657058 
L 100.294034 218.625223 
" clip-path="url(#pc6be5ce235)" style="fill: none; stroke: #1f77b4; stroke-width: 1.5"/>
    <path d="M 101.815852 218.400146 
L 101.815852 218.340793 
" clip-path="url(#pc6be5ce235)" style="fill: none; stroke: #1f77b4; stroke-width: 1.5"/>
    <path d="M 103.33767 218.372809 
L 103.33767 218.309564 
" clip-path="url(#pc6be5ce235)" style="fill: none; stroke: #1f77b4; stroke-width: 1.5"/>
    <path d="M 104.859489 218.648874 
L 104.859489 218.608651 
" clip-path="url(#pc6be5ce235)" style="fill: none; stroke: #1f77b4; stroke-width: 1.5"/>
    <path d="M 106.381307 218.242895 
L 106.381307 218.162937 
" clip-path="url(#pc6be5ce235)" style="fill: none; stroke: #1f77b4; stroke-width: 1.5"/>
    <path d="M 107.903125 217.879313 
L 107.903125 217.776587 
" clip-path="url(#pc6be5ce235)" style="fill: none; stroke: #1f77b4; stroke-width: 1.5"/>
    <path d="M 109.424943 217.892927 
L 109.424943 217.812987 
" clip-path="url(#pc6be5ce235)" style="fill: none; stroke: #1f77b4; stroke-width: 1.5"/>
    <path d="M 110.946761 218.663697 
L 110.946761 218.615409 
" clip-path="url(#pc6be5ce235)" style="fill: none; stroke: #1f77b4; stroke-width: 1.5"/>
    <path d="M 112.46858 218.08801 
L 112.46858 218.000088 
" clip-path="url(#pc6be5ce235)" style="fill: none; stroke: #1f77b4; stroke-width: 1.5"/>
    <path d="M 113.990398 218.310573 
L 113.990398 218.246385 
" clip-path="url(#pc6be5ce235)" style="fill: none; stroke: #1f77b4; stroke-width: 1.5"/>
    <path d="M 115.512216 218.631518 
L 115.512216 218.587685 
" clip-path="url(#pc6be5ce235)" style="fill: none; stroke: #1f77b4; stroke-width: 1.5"/>
    <path d="M 117.034034 218.831988 
L 117.034034 218.80798 
" clip-path="url(#pc6be5ce235)" style="fill: none; stroke: #1f77b4; stroke-width: 1.5"/>
    <path d="M 118.555852 214.363767 
L 118.555852 214.092481 
" clip-path="url(#pc6be5ce235)" style="fill: none; stroke: #1f77b4; stroke-width: 1.5"/>
    <path d="M 120.07767 216.748101 
L 120.07767 216.484115 
" clip-path="url(#pc6be5ce235)" style="fill: none; stroke: #1f77b4; stroke-width: 1.5"/>
    <path d="M 121.599489 210.20716 
L 121.599489 209.624284 
" clip-path="url(#pc6be5ce235)" style="fill: none; stroke: #1f77b4; stroke-width: 1.5"/>
    <path d="M 123.121307 217.403922 
L 123.121307 217.227239 
" clip-path="url(#pc6be5ce235)" style="fill: none; stroke: #1f77b4; stroke-width: 1.5"/>
    <path d="M 124.643125 218.638949 
L 124.643125 218.589746 
" clip-path="url(#pc6be5ce235)" style="fill: none; stroke: #1f77b4; stroke-width: 1.5"/>
    <path d="M 126.164943 212.734289 
L 126.164943 212.456665 
" clip-path="url(#pc6be5ce235)" style="fill: none; stroke: #1f77b4; stroke-width: 1.5"/>
    <path d="M 127.686761 216.416393 
L 127.686761 216.26708 
" clip-path="url(#pc6be5ce235)" style="fill: none; stroke: #1f77b4; stroke-width: 1.5"/>
    <path d="M 129.20858 216.58016 
L 129.20858 216.426232 
" clip-path="url(#pc6be5ce235)" style="fill: none; stroke: #1f77b4; stroke-width: 1.5"/>
    <path d="M 130.730398 216.858677 
L 130.730398 216.737317 
" clip-path="url(#pc6be5ce235)" style="fill: none; stroke: #1f77b4; stroke-width: 1.5"/>
    <path d="M 132.252216 218.464539 
L 132.252216 218.399469 
" clip-path="url(#pc6be5ce235)" style="fill: none; stroke: #1f77b4; stroke-width: 1.5"/>
    <path d="M 133.774034 218.645312 
L 133.774034 218.577774 
" clip-path="url(#pc6be5ce235)" style="fill: none; stroke: #1f77b4; stroke-width: 1.5"/>
    <path d="M 135.295852 217.268224 
L 135.295852 217.130123 
" clip-path="url(#pc6be5ce235)" style="fill: none; stroke: #1f77b4; stroke-width: 1.5"/>
    <path d="M 136.81767 212.505265 
L 136.81767 212.234729 
" clip-path="url(#pc6be5ce235)" style="fill: none; stroke: #1f77b4; stroke-width: 1.5"/>
    <path d="M 138.339489 217.424074 
L 138.339489 217.301209 
" clip-path="url(#pc6be5ce235)" style="fill: none; stroke: #1f77b4; stroke-width: 1.5"/>
    <path d="M 139.861307 214.002451 
L 139.861307 213.687336 
" clip-path="url(#pc6be5ce235)" style="fill: none; stroke: #1f77b4; stroke-width: 1.5"/>
    <path d="M 141.383125 203.442693 
L 141.383125 202.875535 
" clip-path="url(#pc6be5ce235)" style="fill: none; stroke: #1f77b4; stroke-width: 1.5"/>
    <path d="M 142.904943 214.909087 
L 142.904943 214.619477 
" clip-path="url(#pc6be5ce235)" style="fill: none; stroke: #1f77b4; stroke-width: 1.5"/>
    <path d="M 144.426761 217.783867 
L 144.426761 217.656928 
" clip-path="url(#pc6be5ce235)" style="fill: none; stroke: #1f77b4; stroke-width: 1.5"/>
    <path d="M 145.94858 218.478683 
L 145.94858 218.408456 
" clip-path="url(#pc6be5ce235)" style="fill: none; stroke: #1f77b4; stroke-width: 1.5"/>
    <path d="M 147.470398 218.63646 
L 147.470398 218.57421 
" clip-path="url(#pc6be5ce235)" style="fill: none; stroke: #1f77b4; stroke-width: 1.5"/>
    <path d="M 148.992216 205.86922 
L 148.992216 205.374376 
" clip-path="url(#pc6be5ce235)" style="fill: none; stroke: #1f77b4; stroke-width: 1.5"/>
    <path d="M 150.514034 199.084599 
L 150.514034 198.467832 
" clip-path="url(#pc6be5ce235)" style="fill: none; stroke: #1f77b4; stroke-width: 1.5"/>
    <path d="M 152.035852 213.144682 
L 152.035852 212.776592 
" clip-path="url(#pc6be5ce235)" style="fill: none; stroke: #1f77b4; stroke-width: 1.5"/>
    <path d="M 153.55767 217.401834 
L 153.55767 217.239112 
" clip-path="url(#pc6be5ce235)" style="fill: none; stroke: #1f77b4; stroke-width: 1.5"/>
    <path d="M 155.079489 211.534825 
L 155.079489 211.271853 
" clip-path="url(#pc6be5ce235)" style="fill: none; stroke: #1f77b4; stroke-width: 1.5"/>
    <path d="M 156.601307 204.494949 
L 156.601307 204.123183 
" clip-path="url(#pc6be5ce235)" style="fill: none; stroke: #1f77b4; stroke-width: 1.5"/>
    <path d="M 158.123125 214.150165 
L 158.123125 213.910006 
" clip-path="url(#pc6be5ce235)" style="fill: none; stroke: #1f77b4; stroke-width: 1.5"/>
    <path d="M 159.644943 217.348256 
L 159.644943 217.211121 
" clip-path="url(#pc6be5ce235)" style="fill: none; stroke: #1f77b4; stroke-width: 1.5"/>
    <path d="M 161.166761 218.150475 
L 161.166761 218.050384 
" clip-path="url(#pc6be5ce235)" style="fill: none; stroke: #1f77b4; stroke-width: 1.5"/>
    <path d="M 162.68858 218.341885 
L 162.68858 218.248709 
" clip-path="url(#pc6be5ce235)" style="fill: none; stroke: #1f77b4; stroke-width: 1.5"/>
    <path d="M 164.210398 218.474457 
L 164.210398 218.393928 
" clip-path="url(#pc6be5ce235)" style="fill: none; stroke: #1f77b4; stroke-width: 1.5"/>
    <path d="M 165.732216 218.530424 
L 165.732216 218.453104 
" clip-path="url(#pc6be5ce235)" style="fill: none; stroke: #1f77b4; stroke-width: 1.5"/>
    <path d="M 167.254034 211.057161 
L 167.254034 210.826357 
" clip-path="url(#pc6be5ce235)" style="fill: none; stroke: #1f77b4; stroke-width: 1.5"/>
    <path d="M 168.775852 185.353771 
L 168.775852 184.818253 
" clip-path="url(#pc6be5ce235)" style="fill: none; stroke: #1f77b4; stroke-width: 1.5"/>
    <path d="M 170.29767 204.938534 
L 170.29767 204.578783 
" clip-path="url(#pc6be5ce235)" style="fill: none; stroke: #1f77b4; stroke-width: 1.5"/>
    <path d="M 171.819489 213.567999 
L 171.819489 213.32256 
" clip-path="url(#pc6be5ce235)" style="fill: none; stroke: #1f77b4; stroke-width: 1.5"/>
    <path d="M 173.341307 216.726338 
L 173.341307 216.555228 
" clip-path="url(#pc6be5ce235)" style="fill: none; stroke: #1f77b4; stroke-width: 1.5"/>
    <path d="M 174.863125 217.853016 
L 174.863125 217.741539 
" clip-path="url(#pc6be5ce235)" style="fill: none; stroke: #1f77b4; stroke-width: 1.5"/>
    <path d="M 176.384943 209.043806 
L 176.384943 208.708088 
" clip-path="url(#pc6be5ce235)" style="fill: none; stroke: #1f77b4; stroke-width: 1.5"/>
    <path d="M 177.906761 149.992229 
L 177.906761 148.797109 
" clip-path="url(#pc6be5ce235)" style="fill: none; stroke: #1f77b4; stroke-width: 1.5"/>
    <path d="M 179.42858 184.020816 
L 179.42858 183.125408 
" clip-path="url(#pc6be5ce235)" style="fill: none; stroke: #1f77b4; stroke-width: 1.5"/>
    <path d="M 180.950398 204.839107 
L 180.950398 204.253418 
" clip-path="url(#pc6be5ce235)" style="fill: none; stroke: #1f77b4; stroke-width: 1.5"/>
    <path d="M 182.472216 213.17495 
L 182.472216 212.777858 
" clip-path="url(#pc6be5ce235)" style="fill: none; stroke: #1f77b4; stroke-width: 1.5"/>
    <path d="M 183.994034 216.635833 
L 183.994034 216.411649 
" clip-path="url(#pc6be5ce235)" style="fill: none; stroke: #1f77b4; stroke-width: 1.5"/>
    <path d="M 185.515852 217.74651 
L 185.515852 217.609336 
" clip-path="url(#pc6be5ce235)" style="fill: none; stroke: #1f77b4; stroke-width: 1.5"/>
    <path d="M 187.03767 218.050683 
L 187.03767 217.929136 
" clip-path="url(#pc6be5ce235)" style="fill: none; stroke: #1f77b4; stroke-width: 1.5"/>
    <path d="M 188.559489 218.263503 
L 188.559489 218.157436 
" clip-path="url(#pc6be5ce235)" style="fill: none; stroke: #1f77b4; stroke-width: 1.5"/>
    <path d="M 190.081307 218.30079 
L 190.081307 218.196239 
" clip-path="url(#pc6be5ce235)" style="fill: none; stroke: #1f77b4; stroke-width: 1.5"/>
    <path d="M 191.603125 218.364744 
L 191.603125 218.264162 
" clip-path="url(#pc6be5ce235)" style="fill: none; stroke: #1f77b4; stroke-width: 1.5"/>
    <path d="M 193.124943 218.378184 
L 193.124943 218.279554 
" clip-path="url(#pc6be5ce235)" style="fill: none; stroke: #1f77b4; stroke-width: 1.5"/>
    <path d="M 194.646761 218.328963 
L 194.646761 218.217117 
" clip-path="url(#pc6be5ce235)" style="fill: none; stroke: #1f77b4; stroke-width: 1.5"/>
    <path d="M 196.16858 215.85746 
L 196.16858 215.707884 
" clip-path="url(#pc6be5ce235)" style="fill: none; stroke: #1f77b4; stroke-width: 1.5"/>
    <path d="M 197.690398 153.972436 
L 197.690398 152.892722 
" clip-path="url(#pc6be5ce235)" style="fill: none; stroke: #1f77b4; stroke-width: 1.5"/>
    <path d="M 199.212216 169.460116 
L 199.212216 168.520057 
" clip-path="url(#pc6be5ce235)" style="fill: none; stroke: #1f77b4; stroke-width: 1.5"/>
    <path d="M 200.734034 201.170148 
L 200.734034 200.682631 
" clip-path="url(#pc6be5ce235)" style="fill: none; stroke: #1f77b4; stroke-width: 1.5"/>
    <path d="M 202.255852 209.432329 
L 202.255852 209.058929 
" clip-path="url(#pc6be5ce235)" style="fill: none; stroke: #1f77b4; stroke-width: 1.5"/>
    <path d="M 203.77767 213.948014 
L 203.77767 213.656921 
" clip-path="url(#pc6be5ce235)" style="fill: none; stroke: #1f77b4; stroke-width: 1.5"/>
    <path d="M 205.299489 216.225615 
L 205.299489 216.001705 
" clip-path="url(#pc6be5ce235)" style="fill: none; stroke: #1f77b4; stroke-width: 1.5"/>
    <path d="M 206.821307 217.364549 
L 206.821307 217.183382 
" clip-path="url(#pc6be5ce235)" style="fill: none; stroke: #1f77b4; stroke-width: 1.5"/>
    <path d="M 208.343125 217.896793 
L 208.343125 217.736487 
" clip-path="url(#pc6be5ce235)" style="fill: none; stroke: #1f77b4; stroke-width: 1.5"/>
    <path d="M 209.864943 218.123474 
L 209.864943 217.990651 
" clip-path="url(#pc6be5ce235)" style="fill: none; stroke: #1f77b4; stroke-width: 1.5"/>
    <path d="M 211.386761 218.168133 
L 211.386761 218.032836 
" clip-path="url(#pc6be5ce235)" style="fill: none; stroke: #1f77b4; stroke-width: 1.5"/>
    <path d="M 212.90858 212.545184 
L 212.90858 212.337621 
" clip-path="url(#pc6be5ce235)" style="fill: none; stroke: #1f77b4; stroke-width: 1.5"/>
    <path d="M 214.430398 153.81194 
L 214.430398 152.923002 
" clip-path="url(#pc6be5ce235)" style="fill: none; stroke: #1f77b4; stroke-width: 1.5"/>
    <path d="M 215.952216 185.806549 
L 215.952216 185.181636 
" clip-path="url(#pc6be5ce235)" style="fill: none; stroke: #1f77b4; stroke-width: 1.5"/>
    <path d="M 217.474034 205.13505 
L 217.474034 204.774469 
" clip-path="url(#pc6be5ce235)" style="fill: none; stroke: #1f77b4; stroke-width: 1.5"/>
    <path d="M 218.995852 211.556528 
L 218.995852 211.305628 
" clip-path="url(#pc6be5ce235)" style="fill: none; stroke: #1f77b4; stroke-width: 1.5"/>
    <path d="M 220.51767 214.420611 
L 220.51767 214.20154 
" clip-path="url(#pc6be5ce235)" style="fill: none; stroke: #1f77b4; stroke-width: 1.5"/>
    <path d="M 222.039489 216.372032 
L 222.039489 216.19209 
" clip-path="url(#pc6be5ce235)" style="fill: none; stroke: #1f77b4; stroke-width: 1.5"/>
    <path d="M 223.561307 217.313604 
L 223.561307 217.158669 
" clip-path="url(#pc6be5ce235)" style="fill: none; stroke: #1f77b4; stroke-width: 1.5"/>
    <path d="M 225.083125 217.696429 
L 225.083125 217.540822 
" clip-path="url(#pc6be5ce235)" style="fill: none; stroke: #1f77b4; stroke-width: 1.5"/>
    <path d="M 226.604943 217.943546 
L 226.604943 217.805366 
" clip-path="url(#pc6be5ce235)" style="fill: none; stroke: #1f77b4; stroke-width: 1.5"/>
    <path d="M 228.126761 217.834256 
L 228.126761 217.664009 
" clip-path="url(#pc6be5ce235)" style="fill: none; stroke: #1f77b4; stroke-width: 1.5"/>
    <path d="M 229.64858 218.160008 
L 229.64858 218.036564 
" clip-path="url(#pc6be5ce235)" style="fill: none; stroke: #1f77b4; stroke-width: 1.5"/>
    <path d="M 231.170398 218.119732 
L 231.170398 217.986243 
" clip-path="url(#pc6be5ce235)" style="fill: none; stroke: #1f77b4; stroke-width: 1.5"/>
    <path d="M 232.692216 218.031605 
L 232.692216 217.890446 
" clip-path="url(#pc6be5ce235)" style="fill: none; stroke: #1f77b4; stroke-width: 1.5"/>
    <path d="M 234.214034 218.229035 
L 234.214034 218.108078 
" clip-path="url(#pc6be5ce235)" style="fill: none; stroke: #1f77b4; stroke-width: 1.5"/>
    <path d="M 235.735852 218.24233 
L 235.735852 218.125545 
" clip-path="url(#pc6be5ce235)" style="fill: none; stroke: #1f77b4; stroke-width: 1.5"/>
    <path d="M 237.25767 218.023672 
L 237.25767 217.886537 
" clip-path="url(#pc6be5ce235)" style="fill: none; stroke: #1f77b4; stroke-width: 1.5"/>
    <path d="M 238.779489 218.11241 
L 238.779489 217.983101 
" clip-path="url(#pc6be5ce235)" style="fill: none; stroke: #1f77b4; stroke-width: 1.5"/>
    <path d="M 240.301307 218.10404 
L 240.301307 217.974675 
" clip-path="url(#pc6be5ce235)" style="fill: none; stroke: #1f77b4; stroke-width: 1.5"/>
    <path d="M 241.823125 217.901708 
L 241.823125 217.755616 
" clip-path="url(#pc6be5ce235)" style="fill: none; stroke: #1f77b4; stroke-width: 1.5"/>
    <path d="M 243.344943 218.021077 
L 243.344943 217.886804 
" clip-path="url(#pc6be5ce235)" style="fill: none; stroke: #1f77b4; stroke-width: 1.5"/>
    <path d="M 244.866761 218.096873 
L 244.866761 217.966156 
" clip-path="url(#pc6be5ce235)" style="fill: none; stroke: #1f77b4; stroke-width: 1.5"/>
    <path d="M 246.38858 218.048715 
L 246.38858 217.912873 
" clip-path="url(#pc6be5ce235)" style="fill: none; stroke: #1f77b4; stroke-width: 1.5"/>
    <path d="M 247.910398 218.214853 
L 247.910398 218.09727 
" clip-path="url(#pc6be5ce235)" style="fill: none; stroke: #1f77b4; stroke-width: 1.5"/>
    <path d="M 249.432216 218.129523 
L 249.432216 217.997269 
" clip-path="url(#pc6be5ce235)" style="fill: none; stroke: #1f77b4; stroke-width: 1.5"/>
    <path d="M 250.954034 218.154197 
L 250.954034 218.024161 
" clip-path="url(#pc6be5ce235)" style="fill: none; stroke: #1f77b4; stroke-width: 1.5"/>
    <path d="M 252.475852 218.194099 
L 252.475852 218.076825 
" clip-path="url(#pc6be5ce235)" style="fill: none; stroke: #1f77b4; stroke-width: 1.5"/>
    <path d="M 253.99767 199.58659 
L 253.99767 199.147231 
" clip-path="url(#pc6be5ce235)" style="fill: none; stroke: #1f77b4; stroke-width: 1.5"/>
    <path d="M 255.519489 19.199933 
L 255.519489 17.28 
" clip-path="url(#pc6be5ce235)" style="fill: none; stroke: #1f77b4; stroke-width: 1.5"/>
    <path d="M 257.041307 91.423833 
L 257.041307 89.671232 
" clip-path="url(#pc6be5ce235)" style="fill: none; stroke: #1f77b4; stroke-width: 1.5"/>
    <path d="M 258.563125 144.721003 
L 258.563125 143.330061 
" clip-path="url(#pc6be5ce235)" style="fill: none; stroke: #1f77b4; stroke-width: 1.5"/>
    <path d="M 260.084943 174.642878 
L 260.084943 173.579891 
" clip-path="url(#pc6be5ce235)" style="fill: none; stroke: #1f77b4; stroke-width: 1.5"/>
    <path d="M 261.606761 194.148218 
L 261.606761 193.438219 
" clip-path="url(#pc6be5ce235)" style="fill: none; stroke: #1f77b4; stroke-width: 1.5"/>
    <path d="M 263.12858 203.912449 
L 263.12858 203.396087 
" clip-path="url(#pc6be5ce235)" style="fill: none; stroke: #1f77b4; stroke-width: 1.5"/>
    <path d="M 264.650398 209.403295 
L 264.650398 208.991968 
" clip-path="url(#pc6be5ce235)" style="fill: none; stroke: #1f77b4; stroke-width: 1.5"/>
    <path d="M 266.172216 213.178719 
L 266.172216 212.852623 
" clip-path="url(#pc6be5ce235)" style="fill: none; stroke: #1f77b4; stroke-width: 1.5"/>
    <path d="M 267.694034 215.167894 
L 267.694034 214.899733 
" clip-path="url(#pc6be5ce235)" style="fill: none; stroke: #1f77b4; stroke-width: 1.5"/>
    <path d="M 269.215852 216.545701 
L 269.215852 216.334256 
" clip-path="url(#pc6be5ce235)" style="fill: none; stroke: #1f77b4; stroke-width: 1.5"/>
    <path d="M 270.73767 217.345162 
L 270.73767 217.177813 
" clip-path="url(#pc6be5ce235)" style="fill: none; stroke: #1f77b4; stroke-width: 1.5"/>
    <path d="M 272.259489 217.777539 
L 272.259489 217.644349 
" clip-path="url(#pc6be5ce235)" style="fill: none; stroke: #1f77b4; stroke-width: 1.5"/>
    <path d="M 273.781307 218.059163 
L 273.781307 217.941203 
" clip-path="url(#pc6be5ce235)" style="fill: none; stroke: #1f77b4; stroke-width: 1.5"/>
    <path d="M 275.303125 218.315539 
L 275.303125 218.216854 
" clip-path="url(#pc6be5ce235)" style="fill: none; stroke: #1f77b4; stroke-width: 1.5"/>
    <path d="M 276.824943 218.270994 
L 276.824943 218.158838 
" clip-path="url(#pc6be5ce235)" style="fill: none; stroke: #1f77b4; stroke-width: 1.5"/>
    <path d="M 278.346761 218.327813 
L 278.346761 218.227555 
" clip-path="url(#pc6be5ce235)" style="fill: none; stroke: #1f77b4; stroke-width: 1.5"/>
    <path d="M 279.86858 218.309009 
L 279.86858 218.197913 
" clip-path="url(#pc6be5ce235)" style="fill: none; stroke: #1f77b4; stroke-width: 1.5"/>
    <path d="M 281.390398 218.407212 
L 281.390398 218.308727 
" clip-path="url(#pc6be5ce235)" style="fill: none; stroke: #1f77b4; stroke-width: 1.5"/>
    <path d="M 282.912216 218.397428 
L 282.912216 218.298731 
" clip-path="url(#pc6be5ce235)" style="fill: none; stroke: #1f77b4; stroke-width: 1.5"/>
    <path d="M 284.434034 218.339164 
L 284.434034 218.231011 
" clip-path="url(#pc6be5ce235)" style="fill: none; stroke: #1f77b4; stroke-width: 1.5"/>
    <path d="M 285.955852 218.436299 
L 285.955852 218.338353 
" clip-path="url(#pc6be5ce235)" style="fill: none; stroke: #1f77b4; stroke-width: 1.5"/>
    <path d="M 287.47767 218.50367 
L 287.47767 218.412341 
" clip-path="url(#pc6be5ce235)" style="fill: none; stroke: #1f77b4; stroke-width: 1.5"/>
    <path d="M 288.999489 218.393466 
L 288.999489 218.300476 
" clip-path="url(#pc6be5ce235)" style="fill: none; stroke: #1f77b4; stroke-width: 1.5"/>
    <path d="M 290.521307 218.424979 
L 290.521307 218.323531 
" clip-path="url(#pc6be5ce235)" style="fill: none; stroke: #1f77b4; stroke-width: 1.5"/>
    <path d="M 292.043125 218.435649 
L 292.043125 218.340564 
" clip-path="url(#pc6be5ce235)" style="fill: none; stroke: #1f77b4; stroke-width: 1.5"/>
    <path d="M 293.564943 218.493136 
L 293.564943 218.401733 
" clip-path="url(#pc6be5ce235)" style="fill: none; stroke: #1f77b4; stroke-width: 1.5"/>
    <path d="M 295.086761 216.807145 
L 295.086761 216.658314 
" clip-path="url(#pc6be5ce235)" style="fill: none; stroke: #1f77b4; stroke-width: 1.5"/>
    <path d="M 296.60858 161.83271 
L 296.60858 160.899327 
" clip-path="url(#pc6be5ce235)" style="fill: none; stroke: #1f77b4; stroke-width: 1.5"/>
    <path d="M 298.130398 108.089587 
L 298.130398 106.558849 
" clip-path="url(#pc6be5ce235)" style="fill: none; stroke: #1f77b4; stroke-width: 1.5"/>
    <path d="M 299.652216 102.833352 
L 299.652216 101.138684 
" clip-path="url(#pc6be5ce235)" style="fill: none; stroke: #1f77b4; stroke-width: 1.5"/>
    <path d="M 301.174034 127.674371 
L 301.174034 126.09891 
" clip-path="url(#pc6be5ce235)" style="fill: none; stroke: #1f77b4; stroke-width: 1.5"/>
    <path d="M 302.695852 151.438658 
L 302.695852 150.031793 
" clip-path="url(#pc6be5ce235)" style="fill: none; stroke: #1f77b4; stroke-width: 1.5"/>
    <path d="M 304.21767 172.264561 
L 304.21767 171.084618 
" clip-path="url(#pc6be5ce235)" style="fill: none; stroke: #1f77b4; stroke-width: 1.5"/>
    <path d="M 305.739489 188.105043 
L 305.739489 187.189155 
" clip-path="url(#pc6be5ce235)" style="fill: none; stroke: #1f77b4; stroke-width: 1.5"/>
    <path d="M 307.261307 198.884375 
L 307.261307 198.205803 
" clip-path="url(#pc6be5ce235)" style="fill: none; stroke: #1f77b4; stroke-width: 1.5"/>
    <path d="M 308.783125 206.382878 
L 308.783125 205.87137 
" clip-path="url(#pc6be5ce235)" style="fill: none; stroke: #1f77b4; stroke-width: 1.5"/>
    <path d="M 310.304943 210.222344 
L 310.304943 209.79355 
" clip-path="url(#pc6be5ce235)" style="fill: none; stroke: #1f77b4; stroke-width: 1.5"/>
    <path d="M 311.826761 212.858694 
L 311.826761 212.497697 
" clip-path="url(#pc6be5ce235)" style="fill: none; stroke: #1f77b4; stroke-width: 1.5"/>
    <path d="M 313.34858 214.808951 
L 313.34858 214.510838 
" clip-path="url(#pc6be5ce235)" style="fill: none; stroke: #1f77b4; stroke-width: 1.5"/>
    <path d="M 314.870398 216.383714 
L 314.870398 216.147985 
" clip-path="url(#pc6be5ce235)" style="fill: none; stroke: #1f77b4; stroke-width: 1.5"/>
    <path d="M 316.392216 217.180521 
L 316.392216 216.985247 
" clip-path="url(#pc6be5ce235)" style="fill: none; stroke: #1f77b4; stroke-width: 1.5"/>
    <path d="M 317.914034 217.715057 
L 317.914034 217.561972 
" clip-path="url(#pc6be5ce235)" style="fill: none; stroke: #1f77b4; stroke-width: 1.5"/>
    <path d="M 319.435852 218.055509 
L 319.435852 217.930622 
" clip-path="url(#pc6be5ce235)" style="fill: none; stroke: #1f77b4; stroke-width: 1.5"/>
    <path d="M 320.95767 218.337291 
L 320.95767 218.239175 
" clip-path="url(#pc6be5ce235)" style="fill: none; stroke: #1f77b4; stroke-width: 1.5"/>
    <path d="M 322.479489 218.390366 
L 322.479489 218.300651 
" clip-path="url(#pc6be5ce235)" style="fill: none; stroke: #1f77b4; stroke-width: 1.5"/>
    <path d="M 324.001307 218.505356 
L 324.001307 218.412178 
" clip-path="url(#pc6be5ce235)" style="fill: none; stroke: #1f77b4; stroke-width: 1.5"/>
    <path d="M 325.523125 218.494086 
L 325.523125 218.40533 
" clip-path="url(#pc6be5ce235)" style="fill: none; stroke: #1f77b4; stroke-width: 1.5"/>
    <path d="M 327.044943 218.569684 
L 327.044943 218.492558 
" clip-path="url(#pc6be5ce235)" style="fill: none; stroke: #1f77b4; stroke-width: 1.5"/>
    <path d="M 328.566761 218.579788 
L 328.566761 218.501508 
" clip-path="url(#pc6be5ce235)" style="fill: none; stroke: #1f77b4; stroke-width: 1.5"/>
    <path d="M 330.08858 218.602475 
L 330.08858 218.527909 
" clip-path="url(#pc6be5ce235)" style="fill: none; stroke: #1f77b4; stroke-width: 1.5"/>
    <path d="M 331.610398 218.613834 
L 331.610398 218.530446 
" clip-path="url(#pc6be5ce235)" style="fill: none; stroke: #1f77b4; stroke-width: 1.5"/>
    <path d="M 333.132216 218.608805 
L 333.132216 218.531154 
" clip-path="url(#pc6be5ce235)" style="fill: none; stroke: #1f77b4; stroke-width: 1.5"/>
    <path d="M 334.654034 218.622702 
L 334.654034 218.552373 
" clip-path="url(#pc6be5ce235)" style="fill: none; stroke: #1f77b4; stroke-width: 1.5"/>
    <path d="M 336.175852 218.623274 
L 336.175852 218.537074 
" clip-path="url(#pc6be5ce235)" style="fill: none; stroke: #1f77b4; stroke-width: 1.5"/>
    <path d="M 337.69767 218.645295 
L 337.69767 218.573946 
" clip-path="url(#pc6be5ce235)" style="fill: none; stroke: #1f77b4; stroke-width: 1.5"/>
    <path d="M 339.219489 218.603531 
L 339.219489 218.52385 
" clip-path="url(#pc6be5ce235)" style="fill: none; stroke: #1f77b4; stroke-width: 1.5"/>
    <path d="M 340.741307 218.653928 
L 340.741307 218.590553 
" clip-path="url(#pc6be5ce235)" style="fill: none; stroke: #1f77b4; stroke-width: 1.5"/>
    <path d="M 342.263125 218.586433 
L 342.263125 218.504576 
" clip-path="url(#pc6be5ce235)" style="fill: none; stroke: #1f77b4; stroke-width: 1.5"/>
    <path d="M 343.784943 218.620287 
L 343.784943 218.540368 
" clip-path="url(#pc6be5ce235)" style="fill: none; stroke: #1f77b4; stroke-width: 1.5"/>
    <path d="M 345.306761 218.615033 
L 345.306761 218.530236 
" clip-path="url(#pc6be5ce235)" style="fill: none; stroke: #1f77b4; stroke-width: 1.5"/>
    <path d="M 346.82858 218.632956 
L 346.82858 218.550329 
" clip-path="url(#pc6be5ce235)" style="fill: none; stroke: #1f77b4; stroke-width: 1.5"/>
    <path d="M 348.350398 218.667511 
L 348.350398 218.598897 
" clip-path="url(#pc6be5ce235)" style="fill: none; stroke: #1f77b4; stroke-width: 1.5"/>
    <path d="M 349.872216 218.623023 
L 349.872216 218.555442 
" clip-path="url(#pc6be5ce235)" style="fill: none; stroke: #1f77b4; stroke-width: 1.5"/>
    <path d="M 351.394034 218.69493 
L 351.394034 218.634353 
" clip-path="url(#pc6be5ce235)" style="fill: none; stroke: #1f77b4; stroke-width: 1.5"/>
    <path d="M 352.915852 218.664907 
L 352.915852 218.592883 
" clip-path="url(#pc6be5ce235)" style="fill: none; stroke: #1f77b4; stroke-width: 1.5"/>
    <path d="M 354.43767 218.712272 
L 354.43767 218.65193 
" clip-path="url(#pc6be5ce235)" style="fill: none; stroke: #1f77b4; stroke-width: 1.5"/>
    <path d="M 355.959489 218.677054 
L 355.959489 218.612968 
" clip-path="url(#pc6be5ce235)" style="fill: none; stroke: #1f77b4; stroke-width: 1.5"/>
    <path d="M 357.481307 218.637608 
L 357.481307 218.565242 
" clip-path="url(#pc6be5ce235)" style="fill: none; stroke: #1f77b4; stroke-width: 1.5"/>
    <path d="M 359.003125 218.630766 
L 359.003125 218.556901 
" clip-path="url(#pc6be5ce235)" style="fill: none; stroke: #1f77b4; stroke-width: 1.5"/>
    <path d="M 360.524943 218.609224 
L 360.524943 218.528423 
" clip-path="url(#pc6be5ce235)" style="fill: none; stroke: #1f77b4; stroke-width: 1.5"/>
    <path d="M 362.046761 218.711886 
L 362.046761 218.655619 
" clip-path="url(#pc6be5ce235)" style="fill: none; stroke: #1f77b4; stroke-width: 1.5"/>
    <path d="M 363.56858 218.636835 
L 363.56858 218.561058 
" clip-path="url(#pc6be5ce235)" style="fill: none; stroke: #1f77b4; stroke-width: 1.5"/>
    <path d="M 365.090398 218.651623 
L 365.090398 218.571252 
" clip-path="url(#pc6be5ce235)" style="fill: none; stroke: #1f77b4; stroke-width: 1.5"/>
    <path d="M 366.612216 218.695142 
L 366.612216 218.633609 
" clip-path="url(#pc6be5ce235)" style="fill: none; stroke: #1f77b4; stroke-width: 1.5"/>
    <path d="M 368.134034 218.641811 
L 368.134034 218.567738 
" clip-path="url(#pc6be5ce235)" style="fill: none; stroke: #1f77b4; stroke-width: 1.5"/>
    <path d="M 369.655852 218.686706 
L 369.655852 218.623655 
" clip-path="url(#pc6be5ce235)" style="fill: none; stroke: #1f77b4; stroke-width: 1.5"/>
    <path d="M 371.17767 218.695825 
L 371.17767 218.634381 
" clip-path="url(#pc6be5ce235)" style="fill: none; stroke: #1f77b4; stroke-width: 1.5"/>
    <path d="M 372.699489 218.730919 
L 372.699489 218.666623 
" clip-path="url(#pc6be5ce235)" style="fill: none; stroke: #1f77b4; stroke-width: 1.5"/>
    <path d="M 374.221307 218.696391 
L 374.221307 218.633542 
" clip-path="url(#pc6be5ce235)" style="fill: none; stroke: #1f77b4; stroke-width: 1.5"/>
    <path d="M 375.743125 218.682016 
L 375.743125 218.607361 
" clip-path="url(#pc6be5ce235)" style="fill: none; stroke: #1f77b4; stroke-width: 1.5"/>
    <path d="M 377.264943 218.721609 
L 377.264943 218.662383 
" clip-path="url(#pc6be5ce235)" style="fill: none; stroke: #1f77b4; stroke-width: 1.5"/>
    <path d="M 378.786761 218.696124 
L 378.786761 218.636977 
" clip-path="url(#pc6be5ce235)" style="fill: none; stroke: #1f77b4; stroke-width: 1.5"/>
    <path d="M 380.30858 218.730162 
L 380.30858 218.667986 
" clip-path="url(#pc6be5ce235)" style="fill: none; stroke: #1f77b4; stroke-width: 1.5"/>
    <path d="M 381.830398 218.693522 
L 381.830398 218.629562 
" clip-path="url(#pc6be5ce235)" style="fill: none; stroke: #1f77b4; stroke-width: 1.5"/>
    <path d="M 383.352216 218.691108 
L 383.352216 218.617336 
" clip-path="url(#pc6be5ce235)" style="fill: none; stroke: #1f77b4; stroke-width: 1.5"/>
    <path d="M 384.874034 218.702026 
L 384.874034 218.638565 
" clip-path="url(#pc6be5ce235)" style="fill: none; stroke: #1f77b4; stroke-width: 1.5"/>
   </g>
  </g>
 </g>
 <defs>
  <clipPath id="pc6be5ce235">
   <rect x="66.053125" y="7.2" width="334.8" height="221.76"/>
  </clipPath>
 </defs>
</svg>