<?xml version="1.0" encoding="utf-8" standalone="no"?>
<!DOCTYPE svg PUBLIC "-//W3C//DTD SVG 1.1//EN"
  "http://www.w3.org/Graphics/SVG/1.1/DTD/svg11.dtd">
<svg xmlns:xlink="http://www.w3.org/1999/xlink" width="390.035361pt" height="266.51625pt" viewBox="0 0 390.035361 266.51625" xmlns="http://www.w3.org/2000/svg" version="1.1">
 <metadata>
  <rdf:RDF xmlns:dc="http://purl.org/dc/elements/1.1/" xmlns:cc="http://creativecommons.org/ns#" xmlns:rdf="http://www.w3.org/1999/02/22-rdf-syntax-ns#">
   <cc:Work>
    <dc:type rdf:resource="http://purl.org/dc/dcmitype/StillImage"/>
    <dc:date>2025-08-03T20:59:58.207523</dc:date>
    <dc:format>image/svg+xml</dc:format>
    <dc:creator>
     <cc:Agent>
      <dc:title>Matplotlib v3.10.1, https://matplotlib.org/</dc:title>
     </cc:Agent>
    </dc:creator>
   </cc:Work>
  </rdf:RDF>
 </metadata>
 <defs>
  <style type="text/css">*{stroke-linejoin: round; stroke-linecap: butt}</style>
 </defs>
 <g id="figure_1">
  <g id="patch_1">
   <path d="M 0 266.51625 
L 390.035361 266.51625 
L 390.035361 0 
L 0 0 
z
" style="fill: #ffffff"/>
  </g>
  <g id="axes_1">
   <g id="patch_2">
    <path d="M 46.965625 228.96 
L 381.765625 228.96 
L 381.765625 7.2 
L 46.965625 7.2 
z
" style="fill: #ffffff"/>
   </g>
   <g id="matplotlib.axis_1">
    <g id="xtick_1">
     <g id="line2d_1">
      <defs>
       <path id="me8c9839772" d="M 0 0 
L 0 3.5 
" style="stroke: #000000; stroke-width: 0.8"/>
      </defs>
      <g>
       <use xlink:href="#me8c9839772" x="94.165229" y="228.96" style="stroke: #000000; stroke-width: 0.8"/>
      </g>
     </g>
     <g id="text_1">
      <!-- 246.8 -->
      <g transform="translate(79.851166 243.558437) scale(0.1 -0.1)">
       <defs>
        <path id="DejaVuSans-32" d="M 1228 531 
L 3431 531 
L 3431 0 
L 469 0 
L 469 531 
Q 828 903 1448 1529 
Q 2069 2156 2228 2338 
Q 2531 2678 2651 2914 
Q 2772 3150 2772 3378 
Q 2772 3750 2511 3984 
Q 2250 4219 1831 4219 
Q 1534 4219 1204 4116 
Q 875 4013 500 3803 
L 500 4441 
Q 881 4594 1212 4672 
Q 1544 4750 1819 4750 
Q 2544 4750 2975 4387 
Q 3406 4025 3406 3419 
Q 3406 3131 3298 2873 
Q 3191 2616 2906 2266 
Q 2828 2175 2409 1742 
Q 1991 1309 1228 531 
z
" transform="scale(0.015625)"/>
        <path id="DejaVuSans-34" d="M 2419 4116 
L 825 1625 
L 2419 1625 
L 2419 4116 
z
M 2253 4666 
L 3047 4666 
L 3047 1625 
L 3713 1625 
L 3713 1100 
L 3047 1100 
L 3047 0 
L 2419 0 
L 2419 1100 
L 313 1100 
L 313 1709 
L 2253 4666 
z
" transform="scale(0.015625)"/>
        <path id="DejaVuSans-36" d="M 2113 2584 
Q 1688 2584 1439 2293 
Q 1191 2003 1191 1497 
Q 1191 994 1439 701 
Q 1688 409 2113 409 
Q 2538 409 2786 701 
Q 3034 994 3034 1497 
Q 3034 2003 2786 2293 
Q 2538 2584 2113 2584 
z
M 3366 4563 
L 3366 3988 
Q 3128 4100 2886 4159 
Q 2644 4219 2406 4219 
Q 1781 4219 1451 3797 
Q 1122 3375 1075 2522 
Q 1259 2794 1537 2939 
Q 1816 3084 2150 3084 
Q 2853 3084 3261 2657 
Q 3669 2231 3669 1497 
Q 3669 778 3244 343 
Q 2819 -91 2113 -91 
Q 1303 -91 875 529 
Q 447 1150 447 2328 
Q 447 3434 972 4092 
Q 1497 4750 2381 4750 
Q 2619 4750 2861 4703 
Q 3103 4656 3366 4563 
z
" transform="scale(0.015625)"/>
        <path id="DejaVuSans-2e" d="M 684 794 
L 1344 794 
L 1344 0 
L 684 0 
L 684 794 
z
" transform="scale(0.015625)"/>
        <path id="DejaVuSans-38" d="M 2034 2216 
Q 1584 2216 1326 1975 
Q 1069 1734 1069 1313 
Q 1069 891 1326 650 
Q 1584 409 2034 409 
Q 2484 409 2743 651 
Q 3003 894 3003 1313 
Q 3003 1734 2745 1975 
Q 2488 2216 2034 2216 
z
M 1403 2484 
Q 997 2584 770 2862 
Q 544 3141 544 3541 
Q 544 4100 942 4425 
Q 1341 4750 2034 4750 
Q 2731 4750 3128 4425 
Q 3525 4100 3525 3541 
Q 3525 3141 3298 2862 
Q 3072 2584 2669 2484 
Q 3125 2378 3379 2068 
Q 3634 1759 3634 1313 
Q 3634 634 3220 271 
Q 2806 -91 2034 -91 
Q 1263 -91 848 271 
Q 434 634 434 1313 
Q 434 1759 690 2068 
Q 947 2378 1403 2484 
z
M 1172 3481 
Q 1172 3119 1398 2916 
Q 1625 2713 2034 2713 
Q 2441 2713 2670 2916 
Q 2900 3119 2900 3481 
Q 2900 3844 2670 4047 
Q 2441 4250 2034 4250 
Q 1625 4250 1398 4047 
Q 1172 3844 1172 3481 
z
" transform="scale(0.015625)"/>
       </defs>
       <use xlink:href="#DejaVuSans-32"/>
       <use xlink:href="#DejaVuSans-34" transform="translate(63.623047 0)"/>
       <use xlink:href="#DejaVuSans-36" transform="translate(127.246094 0)"/>
       <use xlink:href="#DejaVuSans-2e" transform="translate(190.869141 0)"/>
       <use xlink:href="#DejaVuSans-38" transform="translate(222.65625 0)"/>
      </g>
     </g>
    </g>
    <g id="xtick_2">
     <g id="line2d_2">
      <g>
       <use xlink:href="#me8c9839772" x="149.036443" y="228.96" style="stroke: #000000; stroke-width: 0.8"/>
      </g>
     </g>
     <g id="text_2">
      <!-- 247.0 -->
      <g transform="translate(134.72238 243.558437) scale(0.1 -0.1)">
       <defs>
        <path id="DejaVuSans-37" d="M 525 4666 
L 3525 4666 
L 3525 4397 
L 1831 0 
L 1172 0 
L 2766 4134 
L 525 4134 
L 525 4666 
z
" transform="scale(0.015625)"/>
        <path id="DejaVuSans-30" d="M 2034 4250 
Q 1547 4250 1301 3770 
Q 1056 3291 1056 2328 
Q 1056 1369 1301 889 
Q 1547 409 2034 409 
Q 2525 409 2770 889 
Q 3016 1369 3016 2328 
Q 3016 3291 2770 3770 
Q 2525 4250 2034 4250 
z
M 2034 4750 
Q 2819 4750 3233 4129 
Q 3647 3509 3647 2328 
Q 3647 1150 3233 529 
Q 2819 -91 2034 -91 
Q 1250 -91 836 529 
Q 422 1150 422 2328 
Q 422 3509 836 4129 
Q 1250 4750 2034 4750 
z
" transform="scale(0.015625)"/>
       </defs>
       <use xlink:href="#DejaVuSans-32"/>
       <use xlink:href="#DejaVuSans-34" transform="translate(63.623047 0)"/>
       <use xlink:href="#DejaVuSans-37" transform="translate(127.246094 0)"/>
       <use xlink:href="#DejaVuSans-2e" transform="translate(190.869141 0)"/>
       <use xlink:href="#DejaVuSans-30" transform="translate(222.65625 0)"/>
      </g>
     </g>
    </g>
    <g id="xtick_3">
     <g id="line2d_3">
      <g>
       <use xlink:href="#me8c9839772" x="203.907657" y="228.96" style="stroke: #000000; stroke-width: 0.8"/>
      </g>
     </g>
     <g id="text_3">
      <!-- 247.2 -->
      <g transform="translate(189.593594 243.558437) scale(0.1 -0.1)">
       <use xlink:href="#DejaVuSans-32"/>
       <use xlink:href="#DejaVuSans-34" transform="translate(63.623047 0)"/>
       <use xlink:href="#DejaVuSans-37" transform="translate(127.246094 0)"/>
       <use xlink:href="#DejaVuSans-2e" transform="translate(190.869141 0)"/>
       <use xlink:href="#DejaVuSans-32" transform="translate(222.65625 0)"/>
      </g>
     </g>
    </g>
    <g id="xtick_4">
     <g id="line2d_4">
      <g>
       <use xlink:href="#me8c9839772" x="258.778871" y="228.96" style="stroke: #000000; stroke-width: 0.8"/>
      </g>
     </g>
     <g id="text_4">
      <!-- 247.4 -->
      <g transform="translate(244.464808 243.558437) scale(0.1 -0.1)">
       <use xlink:href="#DejaVuSans-32"/>
       <use xlink:href="#DejaVuSans-34" transform="translate(63.623047 0)"/>
       <use xlink:href="#DejaVuSans-37" transform="translate(127.246094 0)"/>
       <use xlink:href="#DejaVuSans-2e" transform="translate(190.869141 0)"/>
       <use xlink:href="#DejaVuSans-34" transform="translate(222.65625 0)"/>
      </g>
     </g>
    </g>
    <g id="xtick_5">
     <g id="line2d_5">
      <g>
       <use xlink:href="#me8c9839772" x="313.650085" y="228.96" style="stroke: #000000; stroke-width: 0.8"/>
      </g>
     </g>
     <g id="text_5">
      <!-- 247.6 -->
      <g transform="translate(299.336022 243.558437) scale(0.1 -0.1)">
       <use xlink:href="#DejaVuSans-32"/>
       <use xlink:href="#DejaVuSans-34" transform="translate(63.623047 0)"/>
       <use xlink:href="#DejaVuSans-37" transform="translate(127.246094 0)"/>
       <use xlink:href="#DejaVuSans-2e" transform="translate(190.869141 0)"/>
       <use xlink:href="#DejaVuSans-36" transform="translate(222.65625 0)"/>
      </g>
     </g>
    </g>
    <g id="xtick_6">
     <g id="line2d_6">
      <g>
       <use xlink:href="#me8c9839772" x="368.521299" y="228.96" style="stroke: #000000; stroke-width: 0.8"/>
      </g>
     </g>
     <g id="text_6">
      <!-- 247.8 -->
      <g transform="translate(354.207236 243.558437) scale(0.1 -0.1)">
       <use xlink:href="#DejaVuSans-32"/>
       <use xlink:href="#DejaVuSans-34" transform="translate(63.623047 0)"/>
       <use xlink:href="#DejaVuSans-37" transform="translate(127.246094 0)"/>
       <use xlink:href="#DejaVuSans-2e" transform="translate(190.869141 0)"/>
       <use xlink:href="#DejaVuSans-38" transform="translate(222.65625 0)"/>
      </g>
     </g>
    </g>
    <g id="text_7">
     <!-- tof [ms] -->
     <g transform="translate(194.620313 257.236562) scale(0.1 -0.1)">
      <defs>
       <path id="DejaVuSans-74" d="M 1172 4494 
L 1172 3500 
L 2356 3500 
L 2356 3053 
L 1172 3053 
L 1172 1153 
Q 1172 725 1289 603 
Q 1406 481 1766 481 
L 2356 481 
L 2356 0 
L 1766 0 
Q 1100 0 847 248 
Q 594 497 594 1153 
L 594 3053 
L 172 3053 
L 172 3500 
L 594 3500 
L 594 4494 
L 1172 4494 
z
" transform="scale(0.015625)"/>
       <path id="DejaVuSans-6f" d="M 1959 3097 
Q 1497 3097 1228 2736 
Q 959 2375 959 1747 
Q 959 1119 1226 758 
Q 1494 397 1959 397 
Q 2419 397 2687 759 
Q 2956 1122 2956 1747 
Q 2956 2369 2687 2733 
Q 2419 3097 1959 3097 
z
M 1959 3584 
Q 2709 3584 3137 3096 
Q 3566 2609 3566 1747 
Q 3566 888 3137 398 
Q 2709 -91 1959 -91 
Q 1206 -91 779 398 
Q 353 888 353 1747 
Q 353 2609 779 3096 
Q 1206 3584 1959 3584 
z
" transform="scale(0.015625)"/>
       <path id="DejaVuSans-66" d="M 2375 4863 
L 2375 4384 
L 1825 4384 
Q 1516 4384 1395 4259 
Q 1275 4134 1275 3809 
L 1275 3500 
L 2222 3500 
L 2222 3053 
L 1275 3053 
L 1275 0 
L 697 0 
L 697 3053 
L 147 3053 
L 147 3500 
L 697 3500 
L 697 3744 
Q 697 4328 969 4595 
Q 1241 4863 1831 4863 
L 2375 4863 
z
" transform="scale(0.015625)"/>
       <path id="DejaVuSans-20" transform="scale(0.015625)"/>
       <path id="DejaVuSans-5b" d="M 550 4863 
L 1875 4863 
L 1875 4416 
L 1125 4416 
L 1125 -397 
L 1875 -397 
L 1875 -844 
L 550 -844 
L 550 4863 
z
" transform="scale(0.015625)"/>
       <path id="DejaVuSans-6d" d="M 3328 2828 
Q 3544 3216 3844 3400 
Q 4144 3584 4550 3584 
Q 5097 3584 5394 3201 
Q 5691 2819 5691 2113 
L 5691 0 
L 5113 0 
L 5113 2094 
Q 5113 2597 4934 2840 
Q 4756 3084 4391 3084 
Q 3944 3084 3684 2787 
Q 3425 2491 3425 1978 
L 3425 0 
L 2847 0 
L 2847 2094 
Q 2847 2600 2669 2842 
Q 2491 3084 2119 3084 
Q 1678 3084 1418 2786 
Q 1159 2488 1159 1978 
L 1159 0 
L 581 0 
L 581 3500 
L 1159 3500 
L 1159 2956 
Q 1356 3278 1631 3431 
Q 1906 3584 2284 3584 
Q 2666 3584 2933 3390 
Q 3200 3197 3328 2828 
z
" transform="scale(0.015625)"/>
       <path id="DejaVuSans-73" d="M 2834 3397 
L 2834 2853 
Q 2591 2978 2328 3040 
Q 2066 3103 1784 3103 
Q 1356 3103 1142 2972 
Q 928 2841 928 2578 
Q 928 2378 1081 2264 
Q 1234 2150 1697 2047 
L 1894 2003 
Q 2506 1872 2764 1633 
Q 3022 1394 3022 966 
Q 3022 478 2636 193 
Q 2250 -91 1575 -91 
Q 1294 -91 989 -36 
Q 684 19 347 128 
L 347 722 
Q 666 556 975 473 
Q 1284 391 1588 391 
Q 1994 391 2212 530 
Q 2431 669 2431 922 
Q 2431 1156 2273 1281 
Q 2116 1406 1581 1522 
L 1381 1569 
Q 847 1681 609 1914 
Q 372 2147 372 2553 
Q 372 3047 722 3315 
Q 1072 3584 1716 3584 
Q 2034 3584 2315 3537 
Q 2597 3491 2834 3397 
z
" transform="scale(0.015625)"/>
       <path id="DejaVuSans-5d" d="M 1947 4863 
L 1947 -844 
L 622 -844 
L 622 -397 
L 1369 -397 
L 1369 4416 
L 622 4416 
L 622 4863 
L 1947 4863 
z
" transform="scale(0.015625)"/>
      </defs>
      <use xlink:href="#DejaVuSans-74"/>
      <use xlink:href="#DejaVuSans-6f" transform="translate(39.208984 0)"/>
      <use xlink:href="#DejaVuSans-66" transform="translate(100.390625 0)"/>
      <use xlink:href="#DejaVuSans-20" transform="translate(135.595703 0)"/>
      <use xlink:href="#DejaVuSans-5b" transform="translate(167.382812 0)"/>
      <use xlink:href="#DejaVuSans-6d" transform="translate(206.396484 0)"/>
      <use xlink:href="#DejaVuSans-73" transform="translate(303.808594 0)"/>
      <use xlink:href="#DejaVuSans-5d" transform="translate(355.908203 0)"/>
     </g>
    </g>
   </g>
   <g id="matplotlib.axis_2">
    <g id="ytick_1">
     <g id="line2d_7">
      <defs>
       <path id="mff076a7bce" d="M 0 0 
L -3.5 0 
" style="stroke: #000000; stroke-width: 0.8"/>
      </defs>
      <g>
       <use xlink:href="#mff076a7bce" x="46.965625" y="218.88" style="stroke: #000000; stroke-width: 0.8"/>
      </g>
     </g>
     <g id="text_8">
      <!-- 0 -->
      <g transform="translate(33.603125 222.679219) scale(0.1 -0.1)">
       <use xlink:href="#DejaVuSans-30"/>
      </g>
     </g>
    </g>
    <g id="ytick_2">
     <g id="line2d_8">
      <g>
       <use xlink:href="#mff076a7bce" x="46.965625" y="180.517495" style="stroke: #000000; stroke-width: 0.8"/>
      </g>
     </g>
     <g id="text_9">
      <!-- 50 -->
      <g transform="translate(27.240625 184.316714) scale(0.1 -0.1)">
       <defs>
        <path id="DejaVuSans-35" d="M 691 4666 
L 3169 4666 
L 3169 4134 
L 1269 4134 
L 1269 2991 
Q 1406 3038 1543 3061 
Q 1681 3084 1819 3084 
Q 2600 3084 3056 2656 
Q 3513 2228 3513 1497 
Q 3513 744 3044 326 
Q 2575 -91 1722 -91 
Q 1428 -91 1123 -41 
Q 819 9 494 109 
L 494 744 
Q 775 591 1075 516 
Q 1375 441 1709 441 
Q 2250 441 2565 725 
Q 2881 1009 2881 1497 
Q 2881 1984 2565 2268 
Q 2250 2553 1709 2553 
Q 1456 2553 1204 2497 
Q 953 2441 691 2322 
L 691 4666 
z
" transform="scale(0.015625)"/>
       </defs>
       <use xlink:href="#DejaVuSans-35"/>
       <use xlink:href="#DejaVuSans-30" transform="translate(63.623047 0)"/>
      </g>
     </g>
    </g>
    <g id="ytick_3">
     <g id="line2d_9">
      <g>
       <use xlink:href="#mff076a7bce" x="46.965625" y="142.154991" style="stroke: #000000; stroke-width: 0.8"/>
      </g>
     </g>
     <g id="text_10">
      <!-- 100 -->
      <g transform="translate(20.878125 145.95421) scale(0.1 -0.1)">
       <defs>
        <path id="DejaVuSans-31" d="M 794 531 
L 1825 531 
L 1825 4091 
L 703 3866 
L 703 4441 
L 1819 4666 
L 2450 4666 
L 2450 531 
L 3481 531 
L 3481 0 
L 794 0 
L 794 531 
z
" transform="scale(0.015625)"/>
       </defs>
       <use xlink:href="#DejaVuSans-31"/>
       <use xlink:href="#DejaVuSans-30" transform="translate(63.623047 0)"/>
       <use xlink:href="#DejaVuSans-30" transform="translate(127.246094 0)"/>
      </g>
     </g>
    </g>
    <g id="ytick_4">
     <g id="line2d_10">
      <g>
       <use xlink:href="#mff076a7bce" x="46.965625" y="103.792486" style="stroke: #000000; stroke-width: 0.8"/>
      </g>
     </g>
     <g id="text_11">
      <!-- 150 -->
      <g transform="translate(20.878125 107.591705) scale(0.1 -0.1)">
       <use xlink:href="#DejaVuSans-31"/>
       <use xlink:href="#DejaVuSans-35" transform="translate(63.623047 0)"/>
       <use xlink:href="#DejaVuSans-30" transform="translate(127.246094 0)"/>
      </g>
     </g>
    </g>
    <g id="ytick_5">
     <g id="line2d_11">
      <g>
       <use xlink:href="#mff076a7bce" x="46.965625" y="65.429982" style="stroke: #000000; stroke-width: 0.8"/>
      </g>
     </g>
     <g id="text_12">
      <!-- 200 -->
      <g transform="translate(20.878125 69.2292) scale(0.1 -0.1)">
       <use xlink:href="#DejaVuSans-32"/>
       <use xlink:href="#DejaVuSans-30" transform="translate(63.623047 0)"/>
       <use xlink:href="#DejaVuSans-30" transform="translate(127.246094 0)"/>
      </g>
     </g>
    </g>
    <g id="ytick_6">
     <g id="line2d_12">
      <g>
       <use xlink:href="#mff076a7bce" x="46.965625" y="27.067477" style="stroke: #000000; stroke-width: 0.8"/>
      </g>
     </g>
     <g id="text_13">
      <!-- 250 -->
      <g transform="translate(20.878125 30.866696) scale(0.1 -0.1)">
       <use xlink:href="#DejaVuSans-32"/>
       <use xlink:href="#DejaVuSans-35" transform="translate(63.623047 0)"/>
       <use xlink:href="#DejaVuSans-30" transform="translate(127.246094 0)"/>
      </g>
     </g>
    </g>
    <g id="text_14">
     <!-- [counts] -->
     <g transform="translate(14.798438 138.6925) rotate(-90) scale(0.1 -0.1)">
      <defs>
       <path id="DejaVuSans-63" d="M 3122 3366 
L 3122 2828 
Q 2878 2963 2633 3030 
Q 2388 3097 2138 3097 
Q 1578 3097 1268 2742 
Q 959 2388 959 1747 
Q 959 1106 1268 751 
Q 1578 397 2138 397 
Q 2388 397 2633 464 
Q 2878 531 3122 666 
L 3122 134 
Q 2881 22 2623 -34 
Q 2366 -91 2075 -91 
Q 1284 -91 818 406 
Q 353 903 353 1747 
Q 353 2603 823 3093 
Q 1294 3584 2113 3584 
Q 2378 3584 2631 3529 
Q 2884 3475 3122 3366 
z
" transform="scale(0.015625)"/>
       <path id="DejaVuSans-75" d="M 544 1381 
L 544 3500 
L 1119 3500 
L 1119 1403 
Q 1119 906 1312 657 
Q 1506 409 1894 409 
Q 2359 409 2629 706 
Q 2900 1003 2900 1516 
L 2900 3500 
L 3475 3500 
L 3475 0 
L 2900 0 
L 2900 538 
Q 2691 219 2414 64 
Q 2138 -91 1772 -91 
Q 1169 -91 856 284 
Q 544 659 544 1381 
z
M 1991 3584 
L 1991 3584 
z
" transform="scale(0.015625)"/>
       <path id="DejaVuSans-6e" d="M 3513 2113 
L 3513 0 
L 2938 0 
L 2938 2094 
Q 2938 2591 2744 2837 
Q 2550 3084 2163 3084 
Q 1697 3084 1428 2787 
Q 1159 2491 1159 1978 
L 1159 0 
L 581 0 
L 581 3500 
L 1159 3500 
L 1159 2956 
Q 1366 3272 1645 3428 
Q 1925 3584 2291 3584 
Q 2894 3584 3203 3211 
Q 3513 2838 3513 2113 
z
" transform="scale(0.015625)"/>
      </defs>
      <use xlink:href="#DejaVuSans-5b"/>
      <use xlink:href="#DejaVuSans-63" transform="translate(39.013672 0)"/>
      <use xlink:href="#DejaVuSans-6f" transform="translate(93.994141 0)"/>
      <use xlink:href="#DejaVuSans-75" transform="translate(155.175781 0)"/>
      <use xlink:href="#DejaVuSans-6e" transform="translate(218.554688 0)"/>
      <use xlink:href="#DejaVuSans-74" transform="translate(281.933594 0)"/>
      <use xlink:href="#DejaVuSans-73" transform="translate(321.142578 0)"/>
      <use xlink:href="#DejaVuSans-5d" transform="translate(373.242188 0)"/>
     </g>
    </g>
   </g>
   <g id="patch_3">
    <path d="M 46.965625 228.96 
L 46.965625 7.2 
" style="fill: none; stroke: #000000; stroke-width: 0.8; stroke-linejoin: miter; stroke-linecap: square"/>
   </g>
   <g id="patch_4">
    <path d="M 381.765625 228.96 
L 381.765625 7.2 
" style="fill: none; stroke: #000000; stroke-width: 0.8; stroke-linejoin: miter; stroke-linecap: square"/>
   </g>
   <g id="patch_5">
    <path d="M 46.965625 228.96 
L 381.765625 228.96 
" style="fill: none; stroke: #000000; stroke-width: 0.8; stroke-linejoin: miter; stroke-linecap: square"/>
   </g>
   <g id="patch_6">
    <path d="M 46.965625 7.2 
L 381.765625 7.2 
" style="fill: none; stroke: #000000; stroke-width: 0.8; stroke-linejoin: miter; stroke-linecap: square"/>
   </g>
   <g id="line2d_13">
    <path d="M 62.183807 218.858763 
L 65.227443 218.858763 
L 65.227443 218.68344 
L 68.27108 218.68344 
L 68.27108 218.255109 
L 71.314716 218.255109 
L 71.314716 217.542745 
L 74.358352 217.542745 
L 74.358352 215.404624 
L 77.401989 215.404624 
L 77.401989 211.749736 
L 80.445625 211.749736 
L 80.445625 207.418119 
L 83.489261 207.418119 
L 83.489261 201.359547 
L 86.532898 201.359547 
L 86.532898 191.598955 
L 89.576534 191.598955 
L 89.576534 180.587407 
L 92.62017 180.587407 
L 92.62017 165.012935 
L 95.663807 165.012935 
L 95.663807 149.613328 
L 98.707443 149.613328 
L 98.707443 130.748977 
L 101.75108 130.748977 
L 101.75108 111.699228 
L 104.794716 111.699228 
L 104.794716 96.592373 
L 107.838352 96.592373 
L 107.838352 78.193555 
L 110.881989 78.193555 
L 110.881989 65.810296 
L 113.925625 65.810296 
L 113.925625 50.819897 
L 116.969261 50.819897 
L 116.969261 42.565204 
L 120.012898 42.565204 
L 120.012898 31.458277 
L 123.056534 31.458277 
L 123.056534 27.365806 
L 126.10017 27.365806 
L 126.10017 24.34672 
L 129.143807 24.34672 
L 129.143807 19.533839 
L 132.187443 19.533839 
L 132.187443 21.214551 
L 135.23108 21.214551 
L 135.23108 21.005768 
L 138.274716 21.005768 
L 138.274716 18.887111 
L 141.318352 18.887111 
L 141.318352 20.325744 
L 144.361989 20.325744 
L 144.361989 25.137288 
L 147.405625 25.137288 
L 147.405625 31.658908 
L 150.449261 31.658908 
L 150.449261 39.291365 
L 153.492898 39.291365 
L 153.492898 48.546121 
L 156.536534 48.546121 
L 156.536534 63.322225 
L 159.58017 63.322225 
L 159.58017 79.116324 
L 162.623807 79.116324 
L 162.623807 96.193795 
L 165.667443 96.193795 
L 165.667443 112.583132 
L 168.71108 112.583132 
L 168.71108 131.768728 
L 171.754716 131.768728 
L 171.754716 148.388871 
L 174.798352 148.388871 
L 174.798352 164.438163 
L 177.841989 164.438163 
L 177.841989 175.87813 
L 180.885625 175.87813 
L 180.885625 184.709738 
L 183.929261 184.709738 
L 183.929261 190.825322 
L 186.972898 190.825322 
L 186.972898 195.651512 
L 190.016534 195.651512 
L 190.016534 197.794937 
L 193.06017 197.794937 
L 193.06017 198.566626 
L 196.103807 198.566626 
L 196.103807 197.6161 
L 199.147443 197.6161 
L 199.147443 197.992621 
L 202.19108 197.992621 
L 202.19108 196.796006 
L 208.278352 196.816804 
L 208.278352 197.56126 
L 211.321989 197.56126 
L 211.321989 196.493586 
L 214.365625 196.493586 
L 214.365625 197.973495 
L 217.409261 197.973495 
L 217.409261 197.189068 
L 220.452898 197.189068 
L 220.452898 197.046079 
L 223.496534 197.046079 
L 223.496534 196.524735 
L 226.54017 196.524735 
L 226.54017 196.363795 
L 229.583807 196.363795 
L 229.583807 195.8816 
L 232.627443 195.8816 
L 232.627443 197.416611 
L 235.67108 197.416611 
L 235.67108 197.745688 
L 238.714716 197.745688 
L 238.714716 198.614436 
L 241.758352 198.614436 
L 241.758352 201.144608 
L 244.801989 201.144608 
L 244.801989 201.798471 
L 247.845625 201.798471 
L 247.845625 203.536195 
L 250.889261 203.536195 
L 250.889261 206.045217 
L 253.932898 206.045217 
L 253.932898 208.637134 
L 256.976534 208.637134 
L 256.976534 210.86906 
L 260.02017 210.86906 
L 260.02017 213.245639 
L 263.063807 213.245639 
L 263.063807 214.918687 
L 266.107443 214.918687 
L 266.107443 216.312733 
L 269.15108 216.312733 
L 269.15108 217.346199 
L 272.194716 217.346199 
L 272.194716 218.069447 
L 275.238352 218.069447 
L 275.238352 218.360781 
L 281.325625 218.410865 
L 281.325625 218.54363 
L 287.412898 218.567824 
L 287.412898 218.698506 
L 296.543807 218.796191 
L 296.543807 218.874369 
L 366.547443 218.88 
L 366.547443 218.88 
" clip-path="url(#pb723e4c220)" style="fill: none; stroke: #1f77b4; stroke-width: 1.5; stroke-linecap: square"/>
   </g>
   <g id="LineCollection_1">
    <path d="M 63.705625 218.874046 
L 63.705625 218.84348 
" clip-path="url(#pb723e4c220)" style="fill: none; stroke: #1f77b4; stroke-width: 1.5"/>
    <path d="M 66.749261 218.736977 
L 66.749261 218.629903 
" clip-path="url(#pb723e4c220)" style="fill: none; stroke: #1f77b4; stroke-width: 1.5"/>
    <path d="M 69.792898 218.347222 
L 69.792898 218.162997 
" clip-path="url(#pb723e4c220)" style="fill: none; stroke: #1f77b4; stroke-width: 1.5"/>
    <path d="M 72.836534 217.675983 
L 72.836534 217.409506 
" clip-path="url(#pb723e4c220)" style="fill: none; stroke: #1f77b4; stroke-width: 1.5"/>
    <path d="M 75.88017 215.62238 
L 75.88017 215.186868 
" clip-path="url(#pb723e4c220)" style="fill: none; stroke: #1f77b4; stroke-width: 1.5"/>
    <path d="M 78.923807 212.066322 
L 78.923807 211.433151 
" clip-path="url(#pb723e4c220)" style="fill: none; stroke: #1f77b4; stroke-width: 1.5"/>
    <path d="M 81.967443 207.813475 
L 81.967443 207.022762 
" clip-path="url(#pb723e4c220)" style="fill: none; stroke: #1f77b4; stroke-width: 1.5"/>
    <path d="M 85.01108 201.848515 
L 85.01108 200.870579 
" clip-path="url(#pb723e4c220)" style="fill: none; stroke: #1f77b4; stroke-width: 1.5"/>
    <path d="M 88.054716 192.213979 
L 88.054716 190.983931 
" clip-path="url(#pb723e4c220)" style="fill: none; stroke: #1f77b4; stroke-width: 1.5"/>
    <path d="M 91.098352 181.316083 
L 91.098352 179.85873 
" clip-path="url(#pb723e4c220)" style="fill: none; stroke: #1f77b4; stroke-width: 1.5"/>
    <path d="M 94.141989 165.877492 
L 94.141989 164.148378 
" clip-path="url(#pb723e4c220)" style="fill: none; stroke: #1f77b4; stroke-width: 1.5"/>
    <path d="M 97.185625 150.591503 
L 97.185625 148.635154 
" clip-path="url(#pb723e4c220)" style="fill: none; stroke: #1f77b4; stroke-width: 1.5"/>
    <path d="M 100.229261 131.850341 
L 100.229261 129.647613 
" clip-path="url(#pb723e4c220)" style="fill: none; stroke: #1f77b4; stroke-width: 1.5"/>
    <path d="M 103.272898 112.910661 
L 103.272898 110.487794 
" clip-path="url(#pb723e4c220)" style="fill: none; stroke: #1f77b4; stroke-width: 1.5"/>
    <path d="M 106.316534 97.881968 
L 106.316534 95.302777 
" clip-path="url(#pb723e4c220)" style="fill: none; stroke: #1f77b4; stroke-width: 1.5"/>
    <path d="M 109.36017 79.572842 
L 109.36017 76.814268 
" clip-path="url(#pb723e4c220)" style="fill: none; stroke: #1f77b4; stroke-width: 1.5"/>
    <path d="M 112.403807 67.242616 
L 112.403807 64.377977 
" clip-path="url(#pb723e4c220)" style="fill: none; stroke: #1f77b4; stroke-width: 1.5"/>
    <path d="M 115.447443 52.314375 
L 115.447443 49.325418 
" clip-path="url(#pb723e4c220)" style="fill: none; stroke: #1f77b4; stroke-width: 1.5"/>
    <path d="M 118.49108 44.092577 
L 118.49108 41.037831 
" clip-path="url(#pb723e4c220)" style="fill: none; stroke: #1f77b4; stroke-width: 1.5"/>
    <path d="M 121.534716 33.031338 
L 121.534716 29.885215 
" clip-path="url(#pb723e4c220)" style="fill: none; stroke: #1f77b4; stroke-width: 1.5"/>
    <path d="M 124.578352 28.945024 
L 124.578352 25.786588 
" clip-path="url(#pb723e4c220)" style="fill: none; stroke: #1f77b4; stroke-width: 1.5"/>
    <path d="M 127.621989 25.936193 
L 127.621989 22.757247 
" clip-path="url(#pb723e4c220)" style="fill: none; stroke: #1f77b4; stroke-width: 1.5"/>
    <path d="M 130.665625 21.140934 
L 130.665625 17.926744 
" clip-path="url(#pb723e4c220)" style="fill: none; stroke: #1f77b4; stroke-width: 1.5"/>
    <path d="M 133.709261 22.815994 
L 133.709261 19.613107 
" clip-path="url(#pb723e4c220)" style="fill: none; stroke: #1f77b4; stroke-width: 1.5"/>
    <path d="M 136.752898 22.600861 
L 136.752898 19.410676 
" clip-path="url(#pb723e4c220)" style="fill: none; stroke: #1f77b4; stroke-width: 1.5"/>
    <path d="M 139.796534 20.494223 
L 139.796534 17.28 
" clip-path="url(#pb723e4c220)" style="fill: none; stroke: #1f77b4; stroke-width: 1.5"/>
    <path d="M 142.84017 21.923178 
L 142.84017 18.72831 
" clip-path="url(#pb723e4c220)" style="fill: none; stroke: #1f77b4; stroke-width: 1.5"/>
    <path d="M 145.883807 26.714423 
L 145.883807 23.560153 
" clip-path="url(#pb723e4c220)" style="fill: none; stroke: #1f77b4; stroke-width: 1.5"/>
    <path d="M 148.927443 33.208474 
L 148.927443 30.109342 
" clip-path="url(#pb723e4c220)" style="fill: none; stroke: #1f77b4; stroke-width: 1.5"/>
    <path d="M 151.97108 40.802286 
L 151.97108 37.780444 
" clip-path="url(#pb723e4c220)" style="fill: none; stroke: #1f77b4; stroke-width: 1.5"/>
    <path d="M 155.014716 50.014955 
L 155.014716 47.077288 
" clip-path="url(#pb723e4c220)" style="fill: none; stroke: #1f77b4; stroke-width: 1.5"/>
    <path d="M 158.058352 64.720608 
L 158.058352 61.923842 
" clip-path="url(#pb723e4c220)" style="fill: none; stroke: #1f77b4; stroke-width: 1.5"/>
    <path d="M 161.101989 80.432407 
L 161.101989 77.800241 
" clip-path="url(#pb723e4c220)" style="fill: none; stroke: #1f77b4; stroke-width: 1.5"/>
    <path d="M 164.145625 97.416499 
L 164.145625 94.971092 
" clip-path="url(#pb723e4c220)" style="fill: none; stroke: #1f77b4; stroke-width: 1.5"/>
    <path d="M 167.189261 113.713027 
L 167.189261 111.453236 
" clip-path="url(#pb723e4c220)" style="fill: none; stroke: #1f77b4; stroke-width: 1.5"/>
    <path d="M 170.232898 132.780883 
L 170.232898 130.756574 
" clip-path="url(#pb723e4c220)" style="fill: none; stroke: #1f77b4; stroke-width: 1.5"/>
    <path d="M 173.276534 149.285822 
L 173.276534 147.491919 
" clip-path="url(#pb723e4c220)" style="fill: none; stroke: #1f77b4; stroke-width: 1.5"/>
    <path d="M 176.32017 165.214619 
L 176.32017 163.661707 
" clip-path="url(#pb723e4c220)" style="fill: none; stroke: #1f77b4; stroke-width: 1.5"/>
    <path d="M 179.363807 176.558838 
L 179.363807 175.197421 
" clip-path="url(#pb723e4c220)" style="fill: none; stroke: #1f77b4; stroke-width: 1.5"/>
    <path d="M 182.407443 185.313348 
L 182.407443 184.106128 
" clip-path="url(#pb723e4c220)" style="fill: none; stroke: #1f77b4; stroke-width: 1.5"/>
    <path d="M 185.45108 191.374282 
L 185.45108 190.276361 
" clip-path="url(#pb723e4c220)" style="fill: none; stroke: #1f77b4; stroke-width: 1.5"/>
    <path d="M 188.494716 196.15762 
L 188.494716 195.145404 
" clip-path="url(#pb723e4c220)" style="fill: none; stroke: #1f77b4; stroke-width: 1.5"/>
    <path d="M 191.538352 198.293143 
L 191.538352 197.296731 
" clip-path="url(#pb723e4c220)" style="fill: none; stroke: #1f77b4; stroke-width: 1.5"/>
    <path d="M 194.581989 199.065192 
L 194.581989 198.06806 
" clip-path="url(#pb723e4c220)" style="fill: none; stroke: #1f77b4; stroke-width: 1.5"/>
    <path d="M 197.625625 198.134479 
L 197.625625 197.09772 
" clip-path="url(#pb723e4c220)" style="fill: none; stroke: #1f77b4; stroke-width: 1.5"/>
    <path d="M 200.669261 198.508905 
L 200.669261 197.476337 
" clip-path="url(#pb723e4c220)" style="fill: none; stroke: #1f77b4; stroke-width: 1.5"/>
    <path d="M 203.712898 197.325433 
L 203.712898 196.266578 
" clip-path="url(#pb723e4c220)" style="fill: none; stroke: #1f77b4; stroke-width: 1.5"/>
    <path d="M 206.756534 197.347842 
L 206.756534 196.285765 
" clip-path="url(#pb723e4c220)" style="fill: none; stroke: #1f77b4; stroke-width: 1.5"/>
    <path d="M 209.80017 198.080921 
L 209.80017 197.041598 
" clip-path="url(#pb723e4c220)" style="fill: none; stroke: #1f77b4; stroke-width: 1.5"/>
    <path d="M 212.843807 197.028553 
L 212.843807 195.958619 
" clip-path="url(#pb723e4c220)" style="fill: none; stroke: #1f77b4; stroke-width: 1.5"/>
    <path d="M 215.887443 198.491062 
L 215.887443 197.455928 
" clip-path="url(#pb723e4c220)" style="fill: none; stroke: #1f77b4; stroke-width: 1.5"/>
    <path d="M 218.93108 197.71461 
L 218.93108 196.663526 
" clip-path="url(#pb723e4c220)" style="fill: none; stroke: #1f77b4; stroke-width: 1.5"/>
    <path d="M 221.974716 197.576237 
L 221.974716 196.515921 
" clip-path="url(#pb723e4c220)" style="fill: none; stroke: #1f77b4; stroke-width: 1.5"/>
    <path d="M 225.018352 197.061981 
L 225.018352 195.987489 
" clip-path="url(#pb723e4c220)" style="fill: none; stroke: #1f77b4; stroke-width: 1.5"/>
    <path d="M 228.061989 196.900351 
L 228.061989 195.827239 
" clip-path="url(#pb723e4c220)" style="fill: none; stroke: #1f77b4; stroke-width: 1.5"/>
    <path d="M 231.105625 196.42563 
L 231.105625 195.33757 
" clip-path="url(#pb723e4c220)" style="fill: none; stroke: #1f77b4; stroke-width: 1.5"/>
    <path d="M 234.149261 197.941436 
L 234.149261 196.891786 
" clip-path="url(#pb723e4c220)" style="fill: none; stroke: #1f77b4; stroke-width: 1.5"/>
    <path d="M 237.192898 198.265255 
L 237.192898 197.226122 
" clip-path="url(#pb723e4c220)" style="fill: none; stroke: #1f77b4; stroke-width: 1.5"/>
    <path d="M 240.236534 199.118794 
L 240.236534 198.110078 
" clip-path="url(#pb723e4c220)" style="fill: none; stroke: #1f77b4; stroke-width: 1.5"/>
    <path d="M 243.28017 201.613378 
L 243.28017 200.675837 
" clip-path="url(#pb723e4c220)" style="fill: none; stroke: #1f77b4; stroke-width: 1.5"/>
    <path d="M 246.323807 202.260769 
L 246.323807 201.336174 
" clip-path="url(#pb723e4c220)" style="fill: none; stroke: #1f77b4; stroke-width: 1.5"/>
    <path d="M 249.367443 203.966656 
L 249.367443 203.105734 
" clip-path="url(#pb723e4c220)" style="fill: none; stroke: #1f77b4; stroke-width: 1.5"/>
    <path d="M 252.41108 206.436679 
L 252.41108 205.653755 
" clip-path="url(#pb723e4c220)" style="fill: none; stroke: #1f77b4; stroke-width: 1.5"/>
    <path d="M 255.454716 208.979781 
L 255.454716 208.294488 
" clip-path="url(#pb723e4c220)" style="fill: none; stroke: #1f77b4; stroke-width: 1.5"/>
    <path d="M 258.498352 211.165704 
L 258.498352 210.572417 
" clip-path="url(#pb723e4c220)" style="fill: none; stroke: #1f77b4; stroke-width: 1.5"/>
    <path d="M 261.541989 213.487283 
L 261.541989 213.003995 
" clip-path="url(#pb723e4c220)" style="fill: none; stroke: #1f77b4; stroke-width: 1.5"/>
    <path d="M 264.585625 215.113919 
L 264.585625 214.723454 
" clip-path="url(#pb723e4c220)" style="fill: none; stroke: #1f77b4; stroke-width: 1.5"/>
    <path d="M 267.629261 216.458517 
L 267.629261 216.166949 
" clip-path="url(#pb723e4c220)" style="fill: none; stroke: #1f77b4; stroke-width: 1.5"/>
    <path d="M 270.672898 217.456095 
L 270.672898 217.236304 
" clip-path="url(#pb723e4c220)" style="fill: none; stroke: #1f77b4; stroke-width: 1.5"/>
    <path d="M 273.716534 218.146249 
L 273.716534 217.992644 
" clip-path="url(#pb723e4c220)" style="fill: none; stroke: #1f77b4; stroke-width: 1.5"/>
    <path d="M 276.76017 218.421487 
L 276.76017 218.300075 
" clip-path="url(#pb723e4c220)" style="fill: none; stroke: #1f77b4; stroke-width: 1.5"/>
    <path d="M 279.803807 218.468661 
L 279.803807 218.353069 
" clip-path="url(#pb723e4c220)" style="fill: none; stroke: #1f77b4; stroke-width: 1.5"/>
    <path d="M 282.847443 218.592116 
L 282.847443 218.495143 
" clip-path="url(#pb723e4c220)" style="fill: none; stroke: #1f77b4; stroke-width: 1.5"/>
    <path d="M 285.89108 218.614955 
L 285.89108 218.520693 
" clip-path="url(#pb723e4c220)" style="fill: none; stroke: #1f77b4; stroke-width: 1.5"/>
    <path d="M 288.934716 218.734 
L 288.934716 218.663013 
" clip-path="url(#pb723e4c220)" style="fill: none; stroke: #1f77b4; stroke-width: 1.5"/>
    <path d="M 291.978352 218.814867 
L 291.978352 218.767254 
" clip-path="url(#pb723e4c220)" style="fill: none; stroke: #1f77b4; stroke-width: 1.5"/>
    <path d="M 295.021989 218.819207 
L 295.021989 218.773174 
" clip-path="url(#pb723e4c220)" style="fill: none; stroke: #1f77b4; stroke-width: 1.5"/>
    <path d="M 298.065625 218.879992 
L 298.065625 218.868746 
" clip-path="url(#pb723e4c220)" style="fill: none; stroke: #1f77b4; stroke-width: 1.5"/>
    <path d="M 301.109261 218.879994 
L 301.109261 218.879905 
" clip-path="url(#pb723e4c220)" style="fill: none; stroke: #1f77b4; stroke-width: 1.5"/>
    <path d="M 304.152898 218.88 
L 304.152898 218.88 
" clip-path="url(#pb723e4c220)" style="fill: none; stroke: #1f77b4; stroke-width: 1.5"/>
    <path d="M 307.196534 218.88 
L 307.196534 218.88 
" clip-path="url(#pb723e4c220)" style="fill: none; stroke: #1f77b4; stroke-width: 1.5"/>
    <path d="M 310.24017 218.88 
L 310.24017 218.879998 
" clip-path="url(#pb723e4c220)" style="fill: none; stroke: #1f77b4; stroke-width: 1.5"/>
    <path d="M 313.283807 218.88 
L 313.283807 218.88 
" clip-path="url(#pb723e4c220)" style="fill: none; stroke: #1f77b4; stroke-width: 1.5"/>
    <path d="M 316.327443 218.88 
L 316.327443 218.88 
" clip-path="url(#pb723e4c220)" style="fill: none; stroke: #1f77b4; stroke-width: 1.5"/>
    <path d="M 319.37108 218.88 
L 319.37108 218.879998 
" clip-path="url(#pb723e4c220)" style="fill: none; stroke: #1f77b4; stroke-width: 1.5"/>
    <path d="M 322.414716 218.88 
L 322.414716 218.88 
" clip-path="url(#pb723e4c220)" style="fill: none; stroke: #1f77b4; stroke-width: 1.5"/>
    <path d="M 325.458352 218.88 
L 325.458352 218.88 
" clip-path="url(#pb723e4c220)" style="fill: none; stroke: #1f77b4; stroke-width: 1.5"/>
    <path d="M 328.501989 218.88 
L 328.501989 218.88 
" clip-path="url(#pb723e4c220)" style="fill: none; stroke: #1f77b4; stroke-width: 1.5"/>
    <path d="M 331.545625 218.88 
L 331.545625 218.88 
" clip-path="url(#pb723e4c220)" style="fill: none; stroke: #1f77b4; stroke-width: 1.5"/>
    <path d="M 334.589261 218.88 
L 334.589261 218.88 
" clip-path="url(#pb723e4c220)" style="fill: none; stroke: #1f77b4; stroke-width: 1.5"/>
    <path d="M 337.632898 218.88 
L 337.632898 218.88 
" clip-path="url(#pb723e4c220)" style="fill: none; stroke: #1f77b4; stroke-width: 1.5"/>
    <path d="M 340.676534 218.88 
L 340.676534 218.88 
" clip-path="url(#pb723e4c220)" style="fill: none; stroke: #1f77b4; stroke-width: 1.5"/>
    <path d="M 343.72017 218.88 
L 343.72017 218.88 
" clip-path="url(#pb723e4c220)" style="fill: none; stroke: #1f77b4; stroke-width: 1.5"/>
    <path d="M 346.763807 218.88 
L 346.763807 218.88 
" clip-path="url(#pb723e4c220)" style="fill: none; stroke: #1f77b4; stroke-width: 1.5"/>
    <path d="M 349.807443 218.88 
L 349.807443 218.88 
" clip-path="url(#pb723e4c220)" style="fill: none; stroke: #1f77b4; stroke-width: 1.5"/>
    <path d="M 352.85108 218.88 
L 352.85108 218.88 
" clip-path="url(#pb723e4c220)" style="fill: none; stroke: #1f77b4; stroke-width: 1.5"/>
    <path d="M 355.894716 218.88 
L 355.894716 218.88 
" clip-path="url(#pb723e4c220)" style="fill: none; stroke: #1f77b4; stroke-width: 1.5"/>
    <path d="M 358.938352 218.88 
L 358.938352 218.88 
" clip-path="url(#pb723e4c220)" style="fill: none; stroke: #1f77b4; stroke-width: 1.5"/>
    <path d="M 361.981989 218.88 
L 361.981989 218.88 
" clip-path="url(#pb723e4c220)" style="fill: none; stroke: #1f77b4; stroke-width: 1.5"/>
    <path d="M 365.025625 218.88 
L 365.025625 218.88 
" clip-path="url(#pb723e4c220)" style="fill: none; stroke: #1f77b4; stroke-width: 1.5"/>
   </g>
  </g>
 </g>
 <defs>
  <clipPath id="pb723e4c220">
   <rect x="46.965625" y="7.2" width="334.8" height="221.76"/>
  </clipPath>
 </defs>
</svg>