<?xml version="1.0" encoding="utf-8" standalone="no"?>
<!DOCTYPE svg PUBLIC "-//W3C//DTD SVG 1.1//EN"
  "http://www.w3.org/Graphics/SVG/1.1/DTD/svg11.dtd">
<svg xmlns:xlink="http://www.w3.org/1999/xlink" width="389.925239pt" height="266.51625pt" viewBox="0 0 389.925239 266.51625" xmlns="http://www.w3.org/2000/svg" version="1.1">
 <metadata>
  <rdf:RDF xmlns:dc="http://purl.org/dc/elements/1.1/" xmlns:cc="http://creativecommons.org/ns#" xmlns:rdf="http://www.w3.org/1999/02/22-rdf-syntax-ns#">
   <cc:Work>
    <dc:type rdf:resource="http://purl.org/dc/dcmitype/StillImage"/>
    <dc:date>2025-08-22T20:09:33.055073</dc:date>
    <dc:format>image/svg+xml</dc:format>
    <dc:creator>
     <cc:Agent>
      <dc:title>Matplotlib v3.10.5, https://matplotlib.org/</dc:title>
     </cc:Agent>
    </dc:creator>
   </cc:Work>
  </rdf:RDF>
 </metadata>
 <defs>
  <style type="text/css">*{stroke-linejoin: round; stroke-linecap: butt}</style>
 </defs>
 <g id="figure_1">
  <g id="patch_1">
   <path d="M 0 266.51625 
L 389.925239 266.51625 
L 389.925239 0 
L 0 0 
z
" style="fill: #ffffff"/>
  </g>
  <g id="axes_1">
   <g id="patch_2">
    <path d="M 45.478125 228.96 
L 380.278125 228.96 
L 380.278125 7.2 
L 45.478125 7.2 
z
" style="fill: #ffffff"/>
   </g>
   <g id="matplotlib.axis_1">
    <g id="xtick_1">
     <g id="line2d_1">
      <defs>
       <path id="mcde898e4fe" d="M 0 0 
L 0 3.5 
" style="stroke: #000000; stroke-width: 0.8"/>
      </defs>
      <g>
       <use xlink:href="#mcde898e4fe" x="50.982574" y="228.96" style="stroke: #000000; stroke-width: 0.8"/>
      </g>
     </g>
     <g id="text_1">
      <!-- 0.0 -->
      <g transform="translate(43.031011 243.558437) scale(0.1 -0.1)">
       <defs>
        <path id="DejaVuSans-30" d="M 2034 4250 
Q 1547 4250 1301 3770 
Q 1056 3291 1056 2328 
Q 1056 1369 1301 889 
Q 1547 409 2034 409 
Q 2525 409 2770 889 
Q 3016 1369 3016 2328 
Q 3016 3291 2770 3770 
Q 2525 4250 2034 4250 
z
M 2034 4750 
Q 2819 4750 3233 4129 
Q 3647 3509 3647 2328 
Q 3647 1150 3233 529 
Q 2819 -91 2034 -91 
Q 1250 -91 836 529 
Q 422 1150 422 2328 
Q 422 3509 836 4129 
Q 1250 4750 2034 4750 
z
" transform="scale(0.015625)"/>
        <path id="DejaVuSans-2e" d="M 684 794 
L 1344 794 
L 1344 0 
L 684 0 
L 684 794 
z
" transform="scale(0.015625)"/>
       </defs>
       <use xlink:href="#DejaVuSans-30"/>
       <use xlink:href="#DejaVuSans-2e" transform="translate(63.623047 0)"/>
       <use xlink:href="#DejaVuSans-30" transform="translate(95.410156 0)"/>
      </g>
     </g>
    </g>
    <g id="xtick_2">
     <g id="line2d_2">
      <g>
       <use xlink:href="#mcde898e4fe" x="115.740794" y="228.96" style="stroke: #000000; stroke-width: 0.8"/>
      </g>
     </g>
     <g id="text_2">
      <!-- 0.1 -->
      <g transform="translate(107.789232 243.558437) scale(0.1 -0.1)">
       <defs>
        <path id="DejaVuSans-31" d="M 794 531 
L 1825 531 
L 1825 4091 
L 703 3866 
L 703 4441 
L 1819 4666 
L 2450 4666 
L 2450 531 
L 3481 531 
L 3481 0 
L 794 0 
L 794 531 
z
" transform="scale(0.015625)"/>
       </defs>
       <use xlink:href="#DejaVuSans-30"/>
       <use xlink:href="#DejaVuSans-2e" transform="translate(63.623047 0)"/>
       <use xlink:href="#DejaVuSans-31" transform="translate(95.410156 0)"/>
      </g>
     </g>
    </g>
    <g id="xtick_3">
     <g id="line2d_3">
      <g>
       <use xlink:href="#mcde898e4fe" x="180.499015" y="228.96" style="stroke: #000000; stroke-width: 0.8"/>
      </g>
     </g>
     <g id="text_3">
      <!-- 0.2 -->
      <g transform="translate(172.547452 243.558437) scale(0.1 -0.1)">
       <defs>
        <path id="DejaVuSans-32" d="M 1228 531 
L 3431 531 
L 3431 0 
L 469 0 
L 469 531 
Q 828 903 1448 1529 
Q 2069 2156 2228 2338 
Q 2531 2678 2651 2914 
Q 2772 3150 2772 3378 
Q 2772 3750 2511 3984 
Q 2250 4219 1831 4219 
Q 1534 4219 1204 4116 
Q 875 4013 500 3803 
L 500 4441 
Q 881 4594 1212 4672 
Q 1544 4750 1819 4750 
Q 2544 4750 2975 4387 
Q 3406 4025 3406 3419 
Q 3406 3131 3298 2873 
Q 3191 2616 2906 2266 
Q 2828 2175 2409 1742 
Q 1991 1309 1228 531 
z
" transform="scale(0.015625)"/>
       </defs>
       <use xlink:href="#DejaVuSans-30"/>
       <use xlink:href="#DejaVuSans-2e" transform="translate(63.623047 0)"/>
       <use xlink:href="#DejaVuSans-32" transform="translate(95.410156 0)"/>
      </g>
     </g>
    </g>
    <g id="xtick_4">
     <g id="line2d_4">
      <g>
       <use xlink:href="#mcde898e4fe" x="245.257235" y="228.96" style="stroke: #000000; stroke-width: 0.8"/>
      </g>
     </g>
     <g id="text_4">
      <!-- 0.3 -->
      <g transform="translate(237.305673 243.558437) scale(0.1 -0.1)">
       <defs>
        <path id="DejaVuSans-33" d="M 2597 2516 
Q 3050 2419 3304 2112 
Q 3559 1806 3559 1356 
Q 3559 666 3084 287 
Q 2609 -91 1734 -91 
Q 1441 -91 1130 -33 
Q 819 25 488 141 
L 488 750 
Q 750 597 1062 519 
Q 1375 441 1716 441 
Q 2309 441 2620 675 
Q 2931 909 2931 1356 
Q 2931 1769 2642 2001 
Q 2353 2234 1838 2234 
L 1294 2234 
L 1294 2753 
L 1863 2753 
Q 2328 2753 2575 2939 
Q 2822 3125 2822 3475 
Q 2822 3834 2567 4026 
Q 2313 4219 1838 4219 
Q 1578 4219 1281 4162 
Q 984 4106 628 3988 
L 628 4550 
Q 988 4650 1302 4700 
Q 1616 4750 1894 4750 
Q 2613 4750 3031 4423 
Q 3450 4097 3450 3541 
Q 3450 3153 3228 2886 
Q 3006 2619 2597 2516 
z
" transform="scale(0.015625)"/>
       </defs>
       <use xlink:href="#DejaVuSans-30"/>
       <use xlink:href="#DejaVuSans-2e" transform="translate(63.623047 0)"/>
       <use xlink:href="#DejaVuSans-33" transform="translate(95.410156 0)"/>
      </g>
     </g>
    </g>
    <g id="xtick_5">
     <g id="line2d_5">
      <g>
       <use xlink:href="#mcde898e4fe" x="310.015456" y="228.96" style="stroke: #000000; stroke-width: 0.8"/>
      </g>
     </g>
     <g id="text_5">
      <!-- 0.4 -->
      <g transform="translate(302.063893 243.558437) scale(0.1 -0.1)">
       <defs>
        <path id="DejaVuSans-34" d="M 2419 4116 
L 825 1625 
L 2419 1625 
L 2419 4116 
z
M 2253 4666 
L 3047 4666 
L 3047 1625 
L 3713 1625 
L 3713 1100 
L 3047 1100 
L 3047 0 
L 2419 0 
L 2419 1100 
L 313 1100 
L 313 1709 
L 2253 4666 
z
" transform="scale(0.015625)"/>
       </defs>
       <use xlink:href="#DejaVuSans-30"/>
       <use xlink:href="#DejaVuSans-2e" transform="translate(63.623047 0)"/>
       <use xlink:href="#DejaVuSans-34" transform="translate(95.410156 0)"/>
      </g>
     </g>
    </g>
    <g id="xtick_6">
     <g id="line2d_6">
      <g>
       <use xlink:href="#mcde898e4fe" x="374.773676" y="228.96" style="stroke: #000000; stroke-width: 0.8"/>
      </g>
     </g>
     <g id="text_6">
      <!-- 0.5 -->
      <g transform="translate(366.822114 243.558437) scale(0.1 -0.1)">
       <defs>
        <path id="DejaVuSans-35" d="M 691 4666 
L 3169 4666 
L 3169 4134 
L 1269 4134 
L 1269 2991 
Q 1406 3038 1543 3061 
Q 1681 3084 1819 3084 
Q 2600 3084 3056 2656 
Q 3513 2228 3513 1497 
Q 3513 744 3044 326 
Q 2575 -91 1722 -91 
Q 1428 -91 1123 -41 
Q 819 9 494 109 
L 494 744 
Q 775 591 1075 516 
Q 1375 441 1709 441 
Q 2250 441 2565 725 
Q 2881 1009 2881 1497 
Q 2881 1984 2565 2268 
Q 2250 2553 1709 2553 
Q 1456 2553 1204 2497 
Q 953 2441 691 2322 
L 691 4666 
z
" transform="scale(0.015625)"/>
       </defs>
       <use xlink:href="#DejaVuSans-30"/>
       <use xlink:href="#DejaVuSans-2e" transform="translate(63.623047 0)"/>
       <use xlink:href="#DejaVuSans-35" transform="translate(95.410156 0)"/>
      </g>
     </g>
    </g>
    <g id="text_7">
     <!-- y [m] -->
     <g transform="translate(199.557813 257.236562) scale(0.1 -0.1)">
      <defs>
       <path id="DejaVuSans-79" d="M 2059 -325 
Q 1816 -950 1584 -1140 
Q 1353 -1331 966 -1331 
L 506 -1331 
L 506 -850 
L 844 -850 
Q 1081 -850 1212 -737 
Q 1344 -625 1503 -206 
L 1606 56 
L 191 3500 
L 800 3500 
L 1894 763 
L 2988 3500 
L 3597 3500 
L 2059 -325 
z
" transform="scale(0.015625)"/>
       <path id="DejaVuSans-20" transform="scale(0.015625)"/>
       <path id="DejaVuSans-5b" d="M 550 4863 
L 1875 4863 
L 1875 4416 
L 1125 4416 
L 1125 -397 
L 1875 -397 
L 1875 -844 
L 550 -844 
L 550 4863 
z
" transform="scale(0.015625)"/>
       <path id="DejaVuSans-6d" d="M 3328 2828 
Q 3544 3216 3844 3400 
Q 4144 3584 4550 3584 
Q 5097 3584 5394 3201 
Q 5691 2819 5691 2113 
L 5691 0 
L 5113 0 
L 5113 2094 
Q 5113 2597 4934 2840 
Q 4756 3084 4391 3084 
Q 3944 3084 3684 2787 
Q 3425 2491 3425 1978 
L 3425 0 
L 2847 0 
L 2847 2094 
Q 2847 2600 2669 2842 
Q 2491 3084 2119 3084 
Q 1678 3084 1418 2786 
Q 1159 2488 1159 1978 
L 1159 0 
L 581 0 
L 581 3500 
L 1159 3500 
L 1159 2956 
Q 1356 3278 1631 3431 
Q 1906 3584 2284 3584 
Q 2666 3584 2933 3390 
Q 3200 3197 3328 2828 
z
" transform="scale(0.015625)"/>
       <path id="DejaVuSans-5d" d="M 1947 4863 
L 1947 -844 
L 622 -844 
L 622 -397 
L 1369 -397 
L 1369 4416 
L 622 4416 
L 622 4863 
L 1947 4863 
z
" transform="scale(0.015625)"/>
      </defs>
      <use xlink:href="#DejaVuSans-79"/>
      <use xlink:href="#DejaVuSans-20" transform="translate(59.179688 0)"/>
      <use xlink:href="#DejaVuSans-5b" transform="translate(90.966797 0)"/>
      <use xlink:href="#DejaVuSans-6d" transform="translate(129.980469 0)"/>
      <use xlink:href="#DejaVuSans-5d" transform="translate(227.392578 0)"/>
     </g>
    </g>
   </g>
   <g id="matplotlib.axis_2">
    <g id="ytick_1">
     <g id="line2d_7">
      <defs>
       <path id="md44a1ecf1b" d="M 0 0 
L -3.5 0 
" style="stroke: #000000; stroke-width: 0.8"/>
      </defs>
      <g>
       <use xlink:href="#md44a1ecf1b" x="45.478125" y="216.830753" style="stroke: #000000; stroke-width: 0.8"/>
      </g>
     </g>
     <g id="text_8">
      <!-- $\mathdefault{10^{1}}$ -->
      <g transform="translate(20.878125 220.629972) scale(0.1 -0.1)">
       <use xlink:href="#DejaVuSans-31" transform="translate(0 0.684375)"/>
       <use xlink:href="#DejaVuSans-30" transform="translate(63.623047 0.684375)"/>
       <use xlink:href="#DejaVuSans-31" transform="translate(128.203125 38.965625) scale(0.7)"/>
      </g>
     </g>
    </g>
    <g id="ytick_2">
     <g id="line2d_8">
      <g>
       <use xlink:href="#md44a1ecf1b" x="45.478125" y="139.657659" style="stroke: #000000; stroke-width: 0.8"/>
      </g>
     </g>
     <g id="text_9">
      <!-- $\mathdefault{10^{2}}$ -->
      <g transform="translate(20.878125 143.456878) scale(0.1 -0.1)">
       <use xlink:href="#DejaVuSans-31" transform="translate(0 0.765625)"/>
       <use xlink:href="#DejaVuSans-30" transform="translate(63.623047 0.765625)"/>
       <use xlink:href="#DejaVuSans-32" transform="translate(128.203125 39.046875) scale(0.7)"/>
      </g>
     </g>
    </g>
    <g id="ytick_3">
     <g id="line2d_9">
      <g>
       <use xlink:href="#md44a1ecf1b" x="45.478125" y="62.484566" style="stroke: #000000; stroke-width: 0.8"/>
      </g>
     </g>
     <g id="text_10">
      <!-- $\mathdefault{10^{3}}$ -->
      <g transform="translate(20.878125 66.283785) scale(0.1 -0.1)">
       <use xlink:href="#DejaVuSans-31" transform="translate(0 0.765625)"/>
       <use xlink:href="#DejaVuSans-30" transform="translate(63.623047 0.765625)"/>
       <use xlink:href="#DejaVuSans-33" transform="translate(128.203125 39.046875) scale(0.7)"/>
      </g>
     </g>
    </g>
    <g id="ytick_4">
     <g id="line2d_10">
      <defs>
       <path id="m54d58173c5" d="M 0 0 
L -2 0 
" style="stroke: #000000; stroke-width: 0.6"/>
      </defs>
      <g>
       <use xlink:href="#m54d58173c5" x="45.478125" y="228.785016" style="stroke: #000000; stroke-width: 0.6"/>
      </g>
     </g>
    </g>
    <g id="ytick_5">
     <g id="line2d_11">
      <g>
       <use xlink:href="#m54d58173c5" x="45.478125" y="224.309598" style="stroke: #000000; stroke-width: 0.6"/>
      </g>
     </g>
    </g>
    <g id="ytick_6">
     <g id="line2d_12">
      <g>
       <use xlink:href="#m54d58173c5" x="45.478125" y="220.362" style="stroke: #000000; stroke-width: 0.6"/>
      </g>
     </g>
    </g>
    <g id="ytick_7">
     <g id="line2d_13">
      <g>
       <use xlink:href="#m54d58173c5" x="45.478125" y="193.599337" style="stroke: #000000; stroke-width: 0.6"/>
      </g>
     </g>
    </g>
    <g id="ytick_8">
     <g id="line2d_14">
      <g>
       <use xlink:href="#m54d58173c5" x="45.478125" y="180.00983" style="stroke: #000000; stroke-width: 0.6"/>
      </g>
     </g>
    </g>
    <g id="ytick_9">
     <g id="line2d_15">
      <g>
       <use xlink:href="#m54d58173c5" x="45.478125" y="170.367921" style="stroke: #000000; stroke-width: 0.6"/>
      </g>
     </g>
    </g>
    <g id="ytick_10">
     <g id="line2d_16">
      <g>
       <use xlink:href="#m54d58173c5" x="45.478125" y="162.889075" style="stroke: #000000; stroke-width: 0.6"/>
      </g>
     </g>
    </g>
    <g id="ytick_11">
     <g id="line2d_17">
      <g>
       <use xlink:href="#m54d58173c5" x="45.478125" y="156.778414" style="stroke: #000000; stroke-width: 0.6"/>
      </g>
     </g>
    </g>
    <g id="ytick_12">
     <g id="line2d_18">
      <g>
       <use xlink:href="#m54d58173c5" x="45.478125" y="151.611923" style="stroke: #000000; stroke-width: 0.6"/>
      </g>
     </g>
    </g>
    <g id="ytick_13">
     <g id="line2d_19">
      <g>
       <use xlink:href="#m54d58173c5" x="45.478125" y="147.136505" style="stroke: #000000; stroke-width: 0.6"/>
      </g>
     </g>
    </g>
    <g id="ytick_14">
     <g id="line2d_20">
      <g>
       <use xlink:href="#m54d58173c5" x="45.478125" y="143.188907" style="stroke: #000000; stroke-width: 0.6"/>
      </g>
     </g>
    </g>
    <g id="ytick_15">
     <g id="line2d_21">
      <g>
       <use xlink:href="#m54d58173c5" x="45.478125" y="116.426243" style="stroke: #000000; stroke-width: 0.6"/>
      </g>
     </g>
    </g>
    <g id="ytick_16">
     <g id="line2d_22">
      <g>
       <use xlink:href="#m54d58173c5" x="45.478125" y="102.836736" style="stroke: #000000; stroke-width: 0.6"/>
      </g>
     </g>
    </g>
    <g id="ytick_17">
     <g id="line2d_23">
      <g>
       <use xlink:href="#m54d58173c5" x="45.478125" y="93.194827" style="stroke: #000000; stroke-width: 0.6"/>
      </g>
     </g>
    </g>
    <g id="ytick_18">
     <g id="line2d_24">
      <g>
       <use xlink:href="#m54d58173c5" x="45.478125" y="85.715982" style="stroke: #000000; stroke-width: 0.6"/>
      </g>
     </g>
    </g>
    <g id="ytick_19">
     <g id="line2d_25">
      <g>
       <use xlink:href="#m54d58173c5" x="45.478125" y="79.60532" style="stroke: #000000; stroke-width: 0.6"/>
      </g>
     </g>
    </g>
    <g id="ytick_20">
     <g id="line2d_26">
      <g>
       <use xlink:href="#m54d58173c5" x="45.478125" y="74.438829" style="stroke: #000000; stroke-width: 0.6"/>
      </g>
     </g>
    </g>
    <g id="ytick_21">
     <g id="line2d_27">
      <g>
       <use xlink:href="#m54d58173c5" x="45.478125" y="69.963411" style="stroke: #000000; stroke-width: 0.6"/>
      </g>
     </g>
    </g>
    <g id="ytick_22">
     <g id="line2d_28">
      <g>
       <use xlink:href="#m54d58173c5" x="45.478125" y="66.015813" style="stroke: #000000; stroke-width: 0.6"/>
      </g>
     </g>
    </g>
    <g id="ytick_23">
     <g id="line2d_29">
      <g>
       <use xlink:href="#m54d58173c5" x="45.478125" y="39.25315" style="stroke: #000000; stroke-width: 0.6"/>
      </g>
     </g>
    </g>
    <g id="ytick_24">
     <g id="line2d_30">
      <g>
       <use xlink:href="#m54d58173c5" x="45.478125" y="25.663643" style="stroke: #000000; stroke-width: 0.6"/>
      </g>
     </g>
    </g>
    <g id="ytick_25">
     <g id="line2d_31">
      <g>
       <use xlink:href="#m54d58173c5" x="45.478125" y="16.021734" style="stroke: #000000; stroke-width: 0.6"/>
      </g>
     </g>
    </g>
    <g id="ytick_26">
     <g id="line2d_32">
      <g>
       <use xlink:href="#m54d58173c5" x="45.478125" y="8.542888" style="stroke: #000000; stroke-width: 0.6"/>
      </g>
     </g>
    </g>
    <g id="text_11">
     <!-- [counts] -->
     <g transform="translate(14.798438 138.6925) rotate(-90) scale(0.1 -0.1)">
      <defs>
       <path id="DejaVuSans-63" d="M 3122 3366 
L 3122 2828 
Q 2878 2963 2633 3030 
Q 2388 3097 2138 3097 
Q 1578 3097 1268 2742 
Q 959 2388 959 1747 
Q 959 1106 1268 751 
Q 1578 397 2138 397 
Q 2388 397 2633 464 
Q 2878 531 3122 666 
L 3122 134 
Q 2881 22 2623 -34 
Q 2366 -91 2075 -91 
Q 1284 -91 818 406 
Q 353 903 353 1747 
Q 353 2603 823 3093 
Q 1294 3584 2113 3584 
Q 2378 3584 2631 3529 
Q 2884 3475 3122 3366 
z
" transform="scale(0.015625)"/>
       <path id="DejaVuSans-6f" d="M 1959 3097 
Q 1497 3097 1228 2736 
Q 959 2375 959 1747 
Q 959 1119 1226 758 
Q 1494 397 1959 397 
Q 2419 397 2687 759 
Q 2956 1122 2956 1747 
Q 2956 2369 2687 2733 
Q 2419 3097 1959 3097 
z
M 1959 3584 
Q 2709 3584 3137 3096 
Q 3566 2609 3566 1747 
Q 3566 888 3137 398 
Q 2709 -91 1959 -91 
Q 1206 -91 779 398 
Q 353 888 353 1747 
Q 353 2609 779 3096 
Q 1206 3584 1959 3584 
z
" transform="scale(0.015625)"/>
       <path id="DejaVuSans-75" d="M 544 1381 
L 544 3500 
L 1119 3500 
L 1119 1403 
Q 1119 906 1312 657 
Q 1506 409 1894 409 
Q 2359 409 2629 706 
Q 2900 1003 2900 1516 
L 2900 3500 
L 3475 3500 
L 3475 0 
L 2900 0 
L 2900 538 
Q 2691 219 2414 64 
Q 2138 -91 1772 -91 
Q 1169 -91 856 284 
Q 544 659 544 1381 
z
M 1991 3584 
L 1991 3584 
z
" transform="scale(0.015625)"/>
       <path id="DejaVuSans-6e" d="M 3513 2113 
L 3513 0 
L 2938 0 
L 2938 2094 
Q 2938 2591 2744 2837 
Q 2550 3084 2163 3084 
Q 1697 3084 1428 2787 
Q 1159 2491 1159 1978 
L 1159 0 
L 581 0 
L 581 3500 
L 1159 3500 
L 1159 2956 
Q 1366 3272 1645 3428 
Q 1925 3584 2291 3584 
Q 2894 3584 3203 3211 
Q 3513 2838 3513 2113 
z
" transform="scale(0.015625)"/>
       <path id="DejaVuSans-74" d="M 1172 4494 
L 1172 3500 
L 2356 3500 
L 2356 3053 
L 1172 3053 
L 1172 1153 
Q 1172 725 1289 603 
Q 1406 481 1766 481 
L 2356 481 
L 2356 0 
L 1766 0 
Q 1100 0 847 248 
Q 594 497 594 1153 
L 594 3053 
L 172 3053 
L 172 3500 
L 594 3500 
L 594 4494 
L 1172 4494 
z
" transform="scale(0.015625)"/>
       <path id="DejaVuSans-73" d="M 2834 3397 
L 2834 2853 
Q 2591 2978 2328 3040 
Q 2066 3103 1784 3103 
Q 1356 3103 1142 2972 
Q 928 2841 928 2578 
Q 928 2378 1081 2264 
Q 1234 2150 1697 2047 
L 1894 2003 
Q 2506 1872 2764 1633 
Q 3022 1394 3022 966 
Q 3022 478 2636 193 
Q 2250 -91 1575 -91 
Q 1294 -91 989 -36 
Q 684 19 347 128 
L 347 722 
Q 666 556 975 473 
Q 1284 391 1588 391 
Q 1994 391 2212 530 
Q 2431 669 2431 922 
Q 2431 1156 2273 1281 
Q 2116 1406 1581 1522 
L 1381 1569 
Q 847 1681 609 1914 
Q 372 2147 372 2553 
Q 372 3047 722 3315 
Q 1072 3584 1716 3584 
Q 2034 3584 2315 3537 
Q 2597 3491 2834 3397 
z
" transform="scale(0.015625)"/>
      </defs>
      <use xlink:href="#DejaVuSans-5b"/>
      <use xlink:href="#DejaVuSans-63" transform="translate(39.013672 0)"/>
      <use xlink:href="#DejaVuSans-6f" transform="translate(93.994141 0)"/>
      <use xlink:href="#DejaVuSans-75" transform="translate(155.175781 0)"/>
      <use xlink:href="#DejaVuSans-6e" transform="translate(218.554688 0)"/>
      <use xlink:href="#DejaVuSans-74" transform="translate(281.933594 0)"/>
      <use xlink:href="#DejaVuSans-73" transform="translate(321.142578 0)"/>
      <use xlink:href="#DejaVuSans-5d" transform="translate(373.242188 0)"/>
     </g>
    </g>
   </g>
   <g id="line2d_33">
    <path d="M 60.696307 17.660036 
L 62.218125 17.660036 
L 62.218125 19.639838 
L 63.739943 19.639838 
L 63.739943 19.941843 
L 65.261761 19.941843 
L 65.261761 20.773465 
L 66.78358 20.773465 
L 66.78358 22.27465 
L 68.305398 22.27465 
L 68.305398 23.026419 
L 69.827216 23.026419 
L 69.827216 22.782881 
L 71.349034 22.782881 
L 71.349034 24.606947 
L 72.870852 24.606947 
L 72.870852 25.968567 
L 74.39267 25.968567 
L 74.39267 27.307922 
L 75.914489 27.307922 
L 75.914489 28.132515 
L 77.436307 28.132515 
L 77.436307 30.229656 
L 78.958125 30.229656 
L 78.958125 30.778627 
L 80.479943 30.778627 
L 80.479943 32.965984 
L 82.001761 32.965984 
L 82.001761 33.176021 
L 83.52358 33.176021 
L 83.52358 37.212232 
L 85.045398 37.212232 
L 85.045398 38.760176 
L 86.567216 38.760176 
L 86.567216 39.32868 
L 88.089034 39.32868 
L 88.089034 42.500573 
L 89.610852 42.500573 
L 89.610852 42.92787 
L 91.13267 42.92787 
L 91.13267 47.809372 
L 92.654489 47.809372 
L 92.654489 48.768373 
L 94.176307 48.768373 
L 94.176307 54.928759 
L 95.698125 54.928759 
L 95.698125 57.989743 
L 97.219943 57.989743 
L 97.219943 65.638386 
L 98.741761 65.638386 
L 98.741761 76.085877 
L 100.26358 76.085877 
L 100.26358 83.324491 
L 101.785398 83.324491 
L 101.785398 98.728435 
L 103.307216 98.728435 
L 103.307216 113.369883 
L 104.829034 113.369883 
L 104.829034 139.603991 
L 106.350852 139.603991 
L 106.350852 147.529775 
L 107.87267 147.529775 
L 107.87267 142.804136 
L 109.394489 142.804136 
L 109.394489 138.355888 
L 110.916307 138.355888 
L 110.916307 119.019057 
L 112.438125 119.019057 
L 112.438125 107.402219 
L 113.959943 107.402219 
L 113.959943 109.620191 
L 115.481761 109.620191 
L 115.481761 108.607235 
L 117.00358 108.607235 
L 117.00358 106.195045 
L 118.525398 106.195045 
L 118.525398 107.249208 
L 120.047216 107.249208 
L 120.047216 114.615105 
L 121.569034 114.615105 
L 121.569034 121.89792 
L 123.090852 121.89792 
L 123.090852 121.292603 
L 124.61267 121.292603 
L 124.61267 129.384757 
L 126.134489 129.384757 
L 126.134489 139.145316 
L 127.656307 139.145316 
L 127.656307 144.251951 
L 129.178125 144.251951 
L 129.178125 154.870628 
L 130.699943 154.870628 
L 130.699943 156.357429 
L 132.221761 156.357429 
L 132.221761 158.404459 
L 133.74358 158.404459 
L 133.74358 165.003593 
L 135.265398 165.003593 
L 135.265398 170.598088 
L 136.787216 170.598088 
L 136.787216 176.611612 
L 138.309034 176.611612 
L 138.309034 183.280795 
L 139.830852 183.280795 
L 139.830852 187.116108 
L 141.35267 187.116108 
L 141.35267 184.627473 
L 142.874489 184.627473 
L 142.874489 189.34843 
L 144.396307 189.34843 
L 144.396307 189.894452 
L 145.918125 189.894452 
L 145.918125 186.756015 
L 147.439943 186.756015 
L 147.439943 188.598294 
L 148.961761 188.598294 
L 148.961761 182.694717 
L 150.48358 182.694717 
L 150.48358 178.300798 
L 152.005398 178.300798 
L 152.005398 178.716625 
L 153.527216 178.716625 
L 153.527216 180.109576 
L 155.049034 180.109576 
L 155.049034 176.861038 
L 156.570852 176.861038 
L 156.570852 174.049406 
L 158.09267 174.049406 
L 158.09267 172.187642 
L 159.614489 172.187642 
L 159.614489 170.378345 
L 161.136307 170.378345 
L 161.136307 175.43079 
L 162.658125 175.43079 
L 162.658125 172.389443 
L 164.179943 172.389443 
L 164.179943 169.224104 
L 165.701761 169.224104 
L 165.701761 176.908982 
L 167.22358 176.908982 
L 167.22358 170.922041 
L 168.745398 170.922041 
L 168.745398 169.697724 
L 170.267216 169.697724 
L 170.267216 176.016 
L 171.789034 176.016 
L 171.789034 174.798134 
L 173.310852 174.798134 
L 173.310852 174.38514 
L 174.83267 174.38514 
L 174.83267 170.587678 
L 176.354489 170.587678 
L 176.354489 175.910158 
L 177.876307 175.910158 
L 177.876307 176.167557 
L 179.398125 176.167557 
L 179.398125 175.828935 
L 180.919943 175.828935 
L 180.919943 180.472042 
L 182.441761 180.472042 
L 182.441761 179.062369 
L 183.96358 179.062369 
L 183.96358 178.824336 
L 185.485398 178.824336 
L 185.485398 187.920007 
L 187.007216 187.920007 
L 187.007216 188.209329 
L 188.529034 188.209329 
L 188.529034 194.286062 
L 190.050852 194.286062 
L 190.050852 185.842184 
L 191.57267 185.842184 
L 191.57267 189.047959 
L 193.094489 189.047959 
L 193.094489 194.42884 
L 194.616307 194.42884 
L 194.616307 190.402918 
L 196.138125 190.402918 
L 196.138125 196.185119 
L 197.659943 196.185119 
L 197.659943 197.71595 
L 199.181761 197.71595 
L 199.181761 198.698786 
L 200.70358 198.698786 
L 200.70358 194.95688 
L 202.225398 194.95688 
L 202.225398 200.735814 
L 203.747216 200.735814 
L 203.747216 202.405665 
L 205.269034 202.405665 
L 205.269034 206.477878 
L 206.790852 206.477878 
L 206.790852 199.488458 
L 208.31267 199.488458 
L 208.31267 199.628071 
L 209.834489 199.628071 
L 209.834489 196.628711 
L 211.356307 196.628711 
L 211.356307 197.906746 
L 212.878125 197.906746 
L 212.878125 205.523801 
L 214.399943 205.523801 
L 214.399943 202.711929 
L 215.921761 202.711929 
L 215.921761 200.187298 
L 217.44358 200.187298 
L 217.44358 198.499471 
L 218.965398 198.499471 
L 218.965398 202.019294 
L 220.487216 202.019294 
L 220.487216 199.027654 
L 222.009034 199.027654 
L 222.009034 195.507424 
L 223.530852 195.507424 
L 223.530852 200.636612 
L 225.05267 200.636612 
L 225.05267 194.682503 
L 226.574489 194.682503 
L 226.574489 196.019154 
L 228.096307 196.019154 
L 228.096307 195.896974 
L 229.618125 195.896974 
L 229.618125 206.751474 
L 231.139943 206.751474 
L 231.139943 198.002324 
L 232.661761 198.002324 
L 232.661761 200.858818 
L 234.18358 200.858818 
L 234.18358 194.189304 
L 235.705398 194.189304 
L 235.705398 195.356396 
L 237.227216 195.356396 
L 237.227216 198.72877 
L 238.749034 198.72877 
L 238.749034 205.110828 
L 240.270852 205.110828 
L 240.270852 194.849202 
L 241.79267 194.849202 
L 241.79267 201.16202 
L 243.314489 201.16202 
L 243.314489 200.925942 
L 244.836307 200.925942 
L 244.836307 194.167887 
L 246.358125 194.167887 
L 246.358125 198.323662 
L 247.879943 198.323662 
L 247.879943 195.978959 
L 249.401761 195.978959 
L 249.401761 204.213679 
L 250.92358 204.213679 
L 250.92358 199.607079 
L 252.445398 199.607079 
L 252.445398 202.646629 
L 253.967216 202.646629 
L 253.967216 206.342634 
L 255.489034 206.342634 
L 255.489034 198.377863 
L 257.010852 198.377863 
L 257.010852 199.260683 
L 258.53267 199.260683 
L 258.53267 205.580107 
L 260.054489 205.580107 
L 260.054489 204.016269 
L 261.576307 204.016269 
L 261.576307 201.735966 
L 263.098125 201.735966 
L 263.098125 201.61948 
L 264.619943 201.61948 
L 264.619943 205.001361 
L 266.141761 205.001361 
L 266.141761 202.551154 
L 267.66358 202.551154 
L 267.66358 203.402 
L 269.185398 203.402 
L 269.185398 204.410552 
L 270.707216 204.410552 
L 270.707216 204.632319 
L 272.229034 204.632319 
L 272.229034 205.380203 
L 273.750852 205.380203 
L 273.750852 210.805715 
L 275.27267 210.805715 
L 275.27267 203.812212 
L 276.794489 203.812212 
L 276.794489 205.993969 
L 278.316307 205.993969 
L 278.316307 202.645132 
L 279.838125 202.645132 
L 279.838125 200.209056 
L 281.359943 200.209056 
L 281.359943 199.599882 
L 282.881761 199.599882 
L 282.881761 211.253674 
L 284.40358 211.253674 
L 284.40358 202.022101 
L 287.447216 202.128219 
L 287.447216 199.984348 
L 288.969034 199.984348 
L 288.969034 210.777661 
L 290.490852 210.777661 
L 290.490852 203.002561 
L 292.01267 203.002561 
L 292.01267 203.585316 
L 293.534489 203.585316 
L 293.534489 205.076244 
L 295.056307 205.076244 
L 295.056307 207.286907 
L 296.578125 207.286907 
L 296.578125 205.519226 
L 298.099943 205.519226 
L 298.099943 214.735623 
L 299.621761 214.735623 
L 299.621761 206.991378 
L 301.14358 206.991378 
L 301.14358 205.096498 
L 302.665398 205.096498 
L 302.665398 210.147464 
L 304.187216 210.147464 
L 304.187216 204.568495 
L 305.709034 204.568495 
L 305.709034 207.79751 
L 307.230852 207.79751 
L 307.230852 197.411103 
L 308.75267 197.411103 
L 308.75267 205.050066 
L 310.274489 205.050066 
L 310.274489 203.861789 
L 311.796307 203.861789 
L 311.796307 203.010703 
L 313.318125 203.010703 
L 313.318125 200.34299 
L 314.839943 200.34299 
L 314.839943 206.950817 
L 316.361761 206.950817 
L 316.361761 210.2862 
L 317.88358 210.2862 
L 317.88358 204.845901 
L 319.405398 204.845901 
L 319.405398 209.594829 
L 320.927216 209.594829 
L 320.927216 206.289778 
L 322.449034 206.289778 
L 322.449034 206.121672 
L 323.970852 206.121672 
L 323.970852 209.408137 
L 325.49267 209.408137 
L 325.49267 202.616418 
L 327.014489 202.616418 
L 327.014489 209.765195 
L 328.536307 209.765195 
L 328.536307 206.551001 
L 330.058125 206.551001 
L 330.058125 210.112005 
L 331.579943 210.112005 
L 331.579943 206.02098 
L 333.101761 206.02098 
L 333.101761 209.864498 
L 334.62358 209.864498 
L 334.62358 206.082991 
L 336.145398 206.082991 
L 336.145398 203.280588 
L 337.667216 203.280588 
L 337.667216 205.555778 
L 339.189034 205.555778 
L 339.189034 199.29342 
L 340.710852 199.29342 
L 340.710852 202.732289 
L 342.23267 202.732289 
L 342.23267 212.004624 
L 343.754489 212.004624 
L 343.754489 200.155739 
L 345.276307 200.155739 
L 345.276307 204.122955 
L 346.798125 204.122955 
L 346.798125 210.404574 
L 348.319943 210.404574 
L 348.319943 210.651173 
L 349.841761 210.651173 
L 349.841761 204.030728 
L 351.36358 204.030728 
L 351.36358 211.753358 
L 352.885398 211.753358 
L 352.885398 213.675575 
L 354.407216 213.675575 
L 354.407216 200.219578 
L 355.929034 200.219578 
L 355.929034 207.348548 
L 357.450852 207.348548 
L 357.450852 207.484976 
L 358.97267 207.484976 
L 358.97267 206.764826 
L 360.494489 206.764826 
L 360.494489 205.108488 
L 362.016307 205.108488 
L 362.016307 198.934913 
L 363.538125 198.934913 
L 363.538125 210.779472 
L 365.059943 210.779472 
L 365.059943 210.779472 
" clip-path="url(#p4d46035c5b)" style="fill: none; stroke: #1f77b4; stroke-width: 1.5; stroke-linecap: square"/>
   </g>
   <g id="LineCollection_1">
    <path d="M 61.457216 18.044432 
L 61.457216 17.28 
" clip-path="url(#p4d46035c5b)" style="fill: none; stroke: #1f77b4; stroke-width: 1.5"/>
    <path d="M 62.979034 20.065502 
L 62.979034 19.219512 
" clip-path="url(#p4d46035c5b)" style="fill: none; stroke: #1f77b4; stroke-width: 1.5"/>
    <path d="M 64.500852 20.392952 
L 64.500852 19.496726 
" clip-path="url(#p4d46035c5b)" style="fill: none; stroke: #1f77b4; stroke-width: 1.5"/>
    <path d="M 66.02267 21.264801 
L 66.02267 20.289228 
" clip-path="url(#p4d46035c5b)" style="fill: none; stroke: #1f77b4; stroke-width: 1.5"/>
    <path d="M 67.544489 22.794022 
L 67.544489 21.763202 
" clip-path="url(#p4d46035c5b)" style="fill: none; stroke: #1f77b4; stroke-width: 1.5"/>
    <path d="M 69.066307 23.59005 
L 69.066307 22.47211 
" clip-path="url(#p4d46035c5b)" style="fill: none; stroke: #1f77b4; stroke-width: 1.5"/>
    <path d="M 70.588125 23.369318 
L 70.588125 22.206528 
" clip-path="url(#p4d46035c5b)" style="fill: none; stroke: #1f77b4; stroke-width: 1.5"/>
    <path d="M 72.109943 25.231072 
L 72.109943 23.994232 
" clip-path="url(#p4d46035c5b)" style="fill: none; stroke: #1f77b4; stroke-width: 1.5"/>
    <path d="M 73.631761 26.632741 
L 73.631761 25.317298 
" clip-path="url(#p4d46035c5b)" style="fill: none; stroke: #1f77b4; stroke-width: 1.5"/>
    <path d="M 75.15358 28.01459 
L 75.15358 26.615847 
" clip-path="url(#p4d46035c5b)" style="fill: none; stroke: #1f77b4; stroke-width: 1.5"/>
    <path d="M 76.675398 28.866207 
L 76.675398 27.414541 
" clip-path="url(#p4d46035c5b)" style="fill: none; stroke: #1f77b4; stroke-width: 1.5"/>
    <path d="M 78.197216 31.00203 
L 78.197216 29.474681 
" clip-path="url(#p4d46035c5b)" style="fill: none; stroke: #1f77b4; stroke-width: 1.5"/>
    <path d="M 79.719034 31.582871 
L 79.719034 29.993231 
" clip-path="url(#p4d46035c5b)" style="fill: none; stroke: #1f77b4; stroke-width: 1.5"/>
    <path d="M 81.240852 33.81652 
L 81.240852 32.136499 
" clip-path="url(#p4d46035c5b)" style="fill: none; stroke: #1f77b4; stroke-width: 1.5"/>
    <path d="M 82.76267 34.04614 
L 82.76267 32.32792 
" clip-path="url(#p4d46035c5b)" style="fill: none; stroke: #1f77b4; stroke-width: 1.5"/>
    <path d="M 84.284489 38.149556 
L 84.284489 36.300409 
" clip-path="url(#p4d46035c5b)" style="fill: none; stroke: #1f77b4; stroke-width: 1.5"/>
    <path d="M 85.806307 39.73611 
L 85.806307 37.811857 
" clip-path="url(#p4d46035c5b)" style="fill: none; stroke: #1f77b4; stroke-width: 1.5"/>
    <path d="M 87.328125 40.327456 
L 87.328125 38.358808 
" clip-path="url(#p4d46035c5b)" style="fill: none; stroke: #1f77b4; stroke-width: 1.5"/>
    <path d="M 88.849943 43.550753 
L 88.849943 41.482303 
" clip-path="url(#p4d46035c5b)" style="fill: none; stroke: #1f77b4; stroke-width: 1.5"/>
    <path d="M 90.371761 43.987264 
L 90.371761 41.90094 
" clip-path="url(#p4d46035c5b)" style="fill: none; stroke: #1f77b4; stroke-width: 1.5"/>
    <path d="M 91.89358 48.951853 
L 91.89358 46.704555 
" clip-path="url(#p4d46035c5b)" style="fill: none; stroke: #1f77b4; stroke-width: 1.5"/>
    <path d="M 93.415398 49.922226 
L 93.415398 47.652926 
" clip-path="url(#p4d46035c5b)" style="fill: none; stroke: #1f77b4; stroke-width: 1.5"/>
    <path d="M 94.937216 56.194419 
L 94.937216 53.70916 
" clip-path="url(#p4d46035c5b)" style="fill: none; stroke: #1f77b4; stroke-width: 1.5"/>
    <path d="M 96.459034 59.300465 
L 96.459034 56.728358 
" clip-path="url(#p4d46035c5b)" style="fill: none; stroke: #1f77b4; stroke-width: 1.5"/>
    <path d="M 97.980852 67.109997 
L 97.980852 64.228682 
" clip-path="url(#p4d46035c5b)" style="fill: none; stroke: #1f77b4; stroke-width: 1.5"/>
    <path d="M 99.50267 77.762537 
L 99.50267 74.489113 
" clip-path="url(#p4d46035c5b)" style="fill: none; stroke: #1f77b4; stroke-width: 1.5"/>
    <path d="M 101.024489 85.178733 
L 101.024489 81.567478 
" clip-path="url(#p4d46035c5b)" style="fill: none; stroke: #1f77b4; stroke-width: 1.5"/>
    <path d="M 102.546307 101.069233 
L 102.546307 96.540504 
" clip-path="url(#p4d46035c5b)" style="fill: none; stroke: #1f77b4; stroke-width: 1.5"/>
    <path d="M 104.068125 116.256041 
L 104.068125 110.712676 
" clip-path="url(#p4d46035c5b)" style="fill: none; stroke: #1f77b4; stroke-width: 1.5"/>
    <path d="M 105.589943 143.716432 
L 105.589943 135.941452 
" clip-path="url(#p4d46035c5b)" style="fill: none; stroke: #1f77b4; stroke-width: 1.5"/>
    <path d="M 107.111761 152.235761 
L 107.111761 143.403936 
" clip-path="url(#p4d46035c5b)" style="fill: none; stroke: #1f77b4; stroke-width: 1.5"/>
    <path d="M 108.63358 146.969641 
L 108.63358 139.099578 
" clip-path="url(#p4d46035c5b)" style="fill: none; stroke: #1f77b4; stroke-width: 1.5"/>
    <path d="M 110.155398 142.199663 
L 110.155398 134.907931 
" clip-path="url(#p4d46035c5b)" style="fill: none; stroke: #1f77b4; stroke-width: 1.5"/>
    <path d="M 111.677216 121.756474 
L 111.677216 116.488436 
" clip-path="url(#p4d46035c5b)" style="fill: none; stroke: #1f77b4; stroke-width: 1.5"/>
    <path d="M 113.199034 109.627744 
L 113.199034 105.315317 
" clip-path="url(#p4d46035c5b)" style="fill: none; stroke: #1f77b4; stroke-width: 1.5"/>
    <path d="M 114.720852 111.814979 
L 114.720852 107.560337 
" clip-path="url(#p4d46035c5b)" style="fill: none; stroke: #1f77b4; stroke-width: 1.5"/>
    <path d="M 116.24267 110.685904 
L 116.24267 106.649993 
" clip-path="url(#p4d46035c5b)" style="fill: none; stroke: #1f77b4; stroke-width: 1.5"/>
    <path d="M 117.764489 108.144363 
L 117.764489 104.352896 
" clip-path="url(#p4d46035c5b)" style="fill: none; stroke: #1f77b4; stroke-width: 1.5"/>
    <path d="M 119.286307 109.130981 
L 119.286307 105.467496 
" clip-path="url(#p4d46035c5b)" style="fill: none; stroke: #1f77b4; stroke-width: 1.5"/>
    <path d="M 120.808125 116.601669 
L 120.808125 112.739729 
" clip-path="url(#p4d46035c5b)" style="fill: none; stroke: #1f77b4; stroke-width: 1.5"/>
    <path d="M 122.329943 124.015287 
L 122.329943 119.906406 
" clip-path="url(#p4d46035c5b)" style="fill: none; stroke: #1f77b4; stroke-width: 1.5"/>
    <path d="M 123.851761 123.330928 
L 123.851761 119.371167 
" clip-path="url(#p4d46035c5b)" style="fill: none; stroke: #1f77b4; stroke-width: 1.5"/>
    <path d="M 125.37358 131.577734 
L 125.37358 127.3265 
" clip-path="url(#p4d46035c5b)" style="fill: none; stroke: #1f77b4; stroke-width: 1.5"/>
    <path d="M 126.895398 141.384349 
L 126.895398 137.046541 
" clip-path="url(#p4d46035c5b)" style="fill: none; stroke: #1f77b4; stroke-width: 1.5"/>
    <path d="M 128.417216 146.636556 
L 128.417216 142.025797 
" clip-path="url(#p4d46035c5b)" style="fill: none; stroke: #1f77b4; stroke-width: 1.5"/>
    <path d="M 129.939034 157.368297 
L 129.939034 152.546251 
" clip-path="url(#p4d46035c5b)" style="fill: none; stroke: #1f77b4; stroke-width: 1.5"/>
    <path d="M 131.460852 158.734302 
L 131.460852 154.138013 
" clip-path="url(#p4d46035c5b)" style="fill: none; stroke: #1f77b4; stroke-width: 1.5"/>
    <path d="M 132.98267 160.761009 
L 132.98267 156.202772 
" clip-path="url(#p4d46035c5b)" style="fill: none; stroke: #1f77b4; stroke-width: 1.5"/>
    <path d="M 134.504489 167.421864 
L 134.504489 162.748127 
" clip-path="url(#p4d46035c5b)" style="fill: none; stroke: #1f77b4; stroke-width: 1.5"/>
    <path d="M 136.026307 173.025625 
L 136.026307 168.334564 
" clip-path="url(#p4d46035c5b)" style="fill: none; stroke: #1f77b4; stroke-width: 1.5"/>
    <path d="M 137.548125 178.951729 
L 137.548125 174.424275 
" clip-path="url(#p4d46035c5b)" style="fill: none; stroke: #1f77b4; stroke-width: 1.5"/>
    <path d="M 139.069943 185.650611 
L 139.069943 181.067534 
" clip-path="url(#p4d46035c5b)" style="fill: none; stroke: #1f77b4; stroke-width: 1.5"/>
    <path d="M 140.591761 189.403736 
L 140.591761 184.974695 
" clip-path="url(#p4d46035c5b)" style="fill: none; stroke: #1f77b4; stroke-width: 1.5"/>
    <path d="M 142.11358 186.989839 
L 142.11358 182.42071 
" clip-path="url(#p4d46035c5b)" style="fill: none; stroke: #1f77b4; stroke-width: 1.5"/>
    <path d="M 143.635398 191.482386 
L 143.635398 187.342249 
" clip-path="url(#p4d46035c5b)" style="fill: none; stroke: #1f77b4; stroke-width: 1.5"/>
    <path d="M 145.157216 192.297868 
L 145.157216 187.651912 
" clip-path="url(#p4d46035c5b)" style="fill: none; stroke: #1f77b4; stroke-width: 1.5"/>
    <path d="M 146.679034 189.267973 
L 146.679034 184.419268 
" clip-path="url(#p4d46035c5b)" style="fill: none; stroke: #1f77b4; stroke-width: 1.5"/>
    <path d="M 148.200852 191.385831 
L 148.200852 186.024902 
" clip-path="url(#p4d46035c5b)" style="fill: none; stroke: #1f77b4; stroke-width: 1.5"/>
    <path d="M 149.72267 185.411919 
L 149.72267 180.18138 
" clip-path="url(#p4d46035c5b)" style="fill: none; stroke: #1f77b4; stroke-width: 1.5"/>
    <path d="M 151.244489 180.96832 
L 151.244489 175.83002 
" clip-path="url(#p4d46035c5b)" style="fill: none; stroke: #1f77b4; stroke-width: 1.5"/>
    <path d="M 152.766307 181.486604 
L 152.766307 176.158202 
" clip-path="url(#p4d46035c5b)" style="fill: none; stroke: #1f77b4; stroke-width: 1.5"/>
    <path d="M 154.288125 182.906288 
L 154.288125 177.528366 
" clip-path="url(#p4d46035c5b)" style="fill: none; stroke: #1f77b4; stroke-width: 1.5"/>
    <path d="M 155.809943 179.784855 
L 155.809943 174.171945 
" clip-path="url(#p4d46035c5b)" style="fill: none; stroke: #1f77b4; stroke-width: 1.5"/>
    <path d="M 157.331761 176.802108 
L 157.331761 171.505729 
" clip-path="url(#p4d46035c5b)" style="fill: none; stroke: #1f77b4; stroke-width: 1.5"/>
    <path d="M 158.85358 174.928542 
L 158.85358 169.654044 
" clip-path="url(#p4d46035c5b)" style="fill: none; stroke: #1f77b4; stroke-width: 1.5"/>
    <path d="M 160.375398 173.178588 
L 160.375398 167.794128 
" clip-path="url(#p4d46035c5b)" style="fill: none; stroke: #1f77b4; stroke-width: 1.5"/>
    <path d="M 161.897216 178.289748 
L 161.897216 172.796653 
" clip-path="url(#p4d46035c5b)" style="fill: none; stroke: #1f77b4; stroke-width: 1.5"/>
    <path d="M 163.419034 175.19487 
L 163.419034 169.800813 
" clip-path="url(#p4d46035c5b)" style="fill: none; stroke: #1f77b4; stroke-width: 1.5"/>
    <path d="M 164.940852 171.901603 
L 164.940852 166.74477 
" clip-path="url(#p4d46035c5b)" style="fill: none; stroke: #1f77b4; stroke-width: 1.5"/>
    <path d="M 166.46267 179.866954 
L 166.46267 174.191029 
" clip-path="url(#p4d46035c5b)" style="fill: none; stroke: #1f77b4; stroke-width: 1.5"/>
    <path d="M 167.984489 173.742569 
L 167.984489 168.320561 
" clip-path="url(#p4d46035c5b)" style="fill: none; stroke: #1f77b4; stroke-width: 1.5"/>
    <path d="M 169.506307 172.428519 
L 169.506307 167.172763 
" clip-path="url(#p4d46035c5b)" style="fill: none; stroke: #1f77b4; stroke-width: 1.5"/>
    <path d="M 171.028125 179.039725 
L 171.028125 173.242637 
" clip-path="url(#p4d46035c5b)" style="fill: none; stroke: #1f77b4; stroke-width: 1.5"/>
    <path d="M 172.549943 177.684325 
L 172.549943 172.140898 
" clip-path="url(#p4d46035c5b)" style="fill: none; stroke: #1f77b4; stroke-width: 1.5"/>
    <path d="M 174.071761 177.28992 
L 174.071761 171.712158 
" clip-path="url(#p4d46035c5b)" style="fill: none; stroke: #1f77b4; stroke-width: 1.5"/>
    <path d="M 175.59358 173.403451 
L 175.59358 167.990242 
" clip-path="url(#p4d46035c5b)" style="fill: none; stroke: #1f77b4; stroke-width: 1.5"/>
    <path d="M 177.115398 178.838128 
L 177.115398 173.217553 
" clip-path="url(#p4d46035c5b)" style="fill: none; stroke: #1f77b4; stroke-width: 1.5"/>
    <path d="M 178.637216 179.015924 
L 178.637216 173.542414 
" clip-path="url(#p4d46035c5b)" style="fill: none; stroke: #1f77b4; stroke-width: 1.5"/>
    <path d="M 180.159034 178.729931 
L 180.159034 173.159158 
" clip-path="url(#p4d46035c5b)" style="fill: none; stroke: #1f77b4; stroke-width: 1.5"/>
    <path d="M 181.680852 183.489716 
L 181.680852 177.703771 
" clip-path="url(#p4d46035c5b)" style="fill: none; stroke: #1f77b4; stroke-width: 1.5"/>
    <path d="M 183.20267 181.921219 
L 183.20267 176.428324 
" clip-path="url(#p4d46035c5b)" style="fill: none; stroke: #1f77b4; stroke-width: 1.5"/>
    <path d="M 184.724489 181.718621 
L 184.724489 176.160242 
" clip-path="url(#p4d46035c5b)" style="fill: none; stroke: #1f77b4; stroke-width: 1.5"/>
    <path d="M 186.246307 190.958792 
L 186.246307 185.133981 
" clip-path="url(#p4d46035c5b)" style="fill: none; stroke: #1f77b4; stroke-width: 1.5"/>
    <path d="M 187.768125 191.282938 
L 187.768125 185.394063 
" clip-path="url(#p4d46035c5b)" style="fill: none; stroke: #1f77b4; stroke-width: 1.5"/>
    <path d="M 189.289943 197.474839 
L 189.289943 191.37449 
" clip-path="url(#p4d46035c5b)" style="fill: none; stroke: #1f77b4; stroke-width: 1.5"/>
    <path d="M 190.811761 188.731862 
L 190.811761 183.181994 
" clip-path="url(#p4d46035c5b)" style="fill: none; stroke: #1f77b4; stroke-width: 1.5"/>
    <path d="M 192.33358 191.880278 
L 192.33358 186.436451 
" clip-path="url(#p4d46035c5b)" style="fill: none; stroke: #1f77b4; stroke-width: 1.5"/>
    <path d="M 193.855398 197.433881 
L 193.855398 191.671203 
" clip-path="url(#p4d46035c5b)" style="fill: none; stroke: #1f77b4; stroke-width: 1.5"/>
    <path d="M 195.377216 193.140694 
L 195.377216 187.87199 
" clip-path="url(#p4d46035c5b)" style="fill: none; stroke: #1f77b4; stroke-width: 1.5"/>
    <path d="M 196.899034 199.155238 
L 196.899034 193.456915 
" clip-path="url(#p4d46035c5b)" style="fill: none; stroke: #1f77b4; stroke-width: 1.5"/>
    <path d="M 198.420852 200.658126 
L 198.420852 195.011337 
" clip-path="url(#p4d46035c5b)" style="fill: none; stroke: #1f77b4; stroke-width: 1.5"/>
    <path d="M 199.94267 201.725066 
L 199.94267 195.923274 
" clip-path="url(#p4d46035c5b)" style="fill: none; stroke: #1f77b4; stroke-width: 1.5"/>
    <path d="M 201.464489 197.538805 
L 201.464489 192.559708 
" clip-path="url(#p4d46035c5b)" style="fill: none; stroke: #1f77b4; stroke-width: 1.5"/>
    <path d="M 202.986307 203.653726 
L 202.986307 198.051717 
" clip-path="url(#p4d46035c5b)" style="fill: none; stroke: #1f77b4; stroke-width: 1.5"/>
    <path d="M 204.508125 205.385919 
L 204.508125 199.668912 
" clip-path="url(#p4d46035c5b)" style="fill: none; stroke: #1f77b4; stroke-width: 1.5"/>
    <path d="M 206.029943 209.285379 
L 206.029943 203.887482 
" clip-path="url(#p4d46035c5b)" style="fill: none; stroke: #1f77b4; stroke-width: 1.5"/>
    <path d="M 207.551761 202.490711 
L 207.551761 196.733166 
" clip-path="url(#p4d46035c5b)" style="fill: none; stroke: #1f77b4; stroke-width: 1.5"/>
    <path d="M 209.07358 202.69684 
L 209.07358 196.816865 
" clip-path="url(#p4d46035c5b)" style="fill: none; stroke: #1f77b4; stroke-width: 1.5"/>
    <path d="M 210.595398 199.611807 
L 210.595398 193.889562 
" clip-path="url(#p4d46035c5b)" style="fill: none; stroke: #1f77b4; stroke-width: 1.5"/>
    <path d="M 212.117216 200.88037 
L 212.117216 195.175584 
" clip-path="url(#p4d46035c5b)" style="fill: none; stroke: #1f77b4; stroke-width: 1.5"/>
    <path d="M 213.639034 208.628238 
L 213.639034 202.682696 
" clip-path="url(#p4d46035c5b)" style="fill: none; stroke: #1f77b4; stroke-width: 1.5"/>
    <path d="M 215.160852 205.889316 
L 215.160852 199.809855 
" clip-path="url(#p4d46035c5b)" style="fill: none; stroke: #1f77b4; stroke-width: 1.5"/>
    <path d="M 216.68267 203.564424 
L 216.68267 197.119525 
" clip-path="url(#p4d46035c5b)" style="fill: none; stroke: #1f77b4; stroke-width: 1.5"/>
    <path d="M 218.204489 201.882885 
L 218.204489 195.426511 
" clip-path="url(#p4d46035c5b)" style="fill: none; stroke: #1f77b4; stroke-width: 1.5"/>
    <path d="M 219.726307 205.391911 
L 219.726307 198.955243 
" clip-path="url(#p4d46035c5b)" style="fill: none; stroke: #1f77b4; stroke-width: 1.5"/>
    <path d="M 221.248125 202.390736 
L 221.248125 195.971472 
" clip-path="url(#p4d46035c5b)" style="fill: none; stroke: #1f77b4; stroke-width: 1.5"/>
    <path d="M 222.769943 198.808983 
L 222.769943 192.502128 
" clip-path="url(#p4d46035c5b)" style="fill: none; stroke: #1f77b4; stroke-width: 1.5"/>
    <path d="M 224.291761 204.122864 
L 224.291761 197.479069 
" clip-path="url(#p4d46035c5b)" style="fill: none; stroke: #1f77b4; stroke-width: 1.5"/>
    <path d="M 225.81358 197.973514 
L 225.81358 191.685947 
" clip-path="url(#p4d46035c5b)" style="fill: none; stroke: #1f77b4; stroke-width: 1.5"/>
    <path d="M 227.335398 199.446438 
L 227.335398 192.910054 
" clip-path="url(#p4d46035c5b)" style="fill: none; stroke: #1f77b4; stroke-width: 1.5"/>
    <path d="M 228.857216 199.363233 
L 228.857216 192.755838 
" clip-path="url(#p4d46035c5b)" style="fill: none; stroke: #1f77b4; stroke-width: 1.5"/>
    <path d="M 230.379034 210.387024 
L 230.379034 203.471975 
" clip-path="url(#p4d46035c5b)" style="fill: none; stroke: #1f77b4; stroke-width: 1.5"/>
    <path d="M 231.900852 201.362225 
L 231.900852 194.94877 
" clip-path="url(#p4d46035c5b)" style="fill: none; stroke: #1f77b4; stroke-width: 1.5"/>
    <path d="M 233.42267 204.259493 
L 233.42267 197.771628 
" clip-path="url(#p4d46035c5b)" style="fill: none; stroke: #1f77b4; stroke-width: 1.5"/>
    <path d="M 234.944489 197.473993 
L 234.944489 191.19799 
" clip-path="url(#p4d46035c5b)" style="fill: none; stroke: #1f77b4; stroke-width: 1.5"/>
    <path d="M 236.466307 198.701054 
L 236.466307 192.315436 
" clip-path="url(#p4d46035c5b)" style="fill: none; stroke: #1f77b4; stroke-width: 1.5"/>
    <path d="M 237.988125 202.194156 
L 237.988125 195.588351 
" clip-path="url(#p4d46035c5b)" style="fill: none; stroke: #1f77b4; stroke-width: 1.5"/>
    <path d="M 239.509943 208.765226 
L 239.509943 201.816003 
" clip-path="url(#p4d46035c5b)" style="fill: none; stroke: #1f77b4; stroke-width: 1.5"/>
    <path d="M 241.031761 198.253359 
L 241.031761 191.759143 
" clip-path="url(#p4d46035c5b)" style="fill: none; stroke: #1f77b4; stroke-width: 1.5"/>
    <path d="M 242.55358 204.729935 
L 242.55358 197.937647 
" clip-path="url(#p4d46035c5b)" style="fill: none; stroke: #1f77b4; stroke-width: 1.5"/>
    <path d="M 244.075398 204.488454 
L 244.075398 197.705981 
" clip-path="url(#p4d46035c5b)" style="fill: none; stroke: #1f77b4; stroke-width: 1.5"/>
    <path d="M 245.597216 197.418972 
L 245.597216 191.204463 
" clip-path="url(#p4d46035c5b)" style="fill: none; stroke: #1f77b4; stroke-width: 1.5"/>
    <path d="M 247.119034 201.922703 
L 247.119034 195.073894 
" clip-path="url(#p4d46035c5b)" style="fill: none; stroke: #1f77b4; stroke-width: 1.5"/>
    <path d="M 248.640852 199.387094 
L 248.640852 192.885623 
" clip-path="url(#p4d46035c5b)" style="fill: none; stroke: #1f77b4; stroke-width: 1.5"/>
    <path d="M 250.16267 207.680911 
L 250.16267 201.071744 
" clip-path="url(#p4d46035c5b)" style="fill: none; stroke: #1f77b4; stroke-width: 1.5"/>
    <path d="M 251.684489 203.185752 
L 251.684489 196.373925 
" clip-path="url(#p4d46035c5b)" style="fill: none; stroke: #1f77b4; stroke-width: 1.5"/>
    <path d="M 253.206307 206.075752 
L 253.206307 199.536016 
" clip-path="url(#p4d46035c5b)" style="fill: none; stroke: #1f77b4; stroke-width: 1.5"/>
    <path d="M 254.728125 209.813528 
L 254.728125 203.197694 
" clip-path="url(#p4d46035c5b)" style="fill: none; stroke: #1f77b4; stroke-width: 1.5"/>
    <path d="M 256.249943 201.77467 
L 256.249943 195.293861 
" clip-path="url(#p4d46035c5b)" style="fill: none; stroke: #1f77b4; stroke-width: 1.5"/>
    <path d="M 257.771761 202.789807 
L 257.771761 196.068018 
" clip-path="url(#p4d46035c5b)" style="fill: none; stroke: #1f77b4; stroke-width: 1.5"/>
    <path d="M 259.29358 209.161046 
L 259.29358 202.345104 
" clip-path="url(#p4d46035c5b)" style="fill: none; stroke: #1f77b4; stroke-width: 1.5"/>
    <path d="M 260.815398 207.674724 
L 260.815398 200.718147 
" clip-path="url(#p4d46035c5b)" style="fill: none; stroke: #1f77b4; stroke-width: 1.5"/>
    <path d="M 262.337216 205.434796 
L 262.337216 198.405072 
" clip-path="url(#p4d46035c5b)" style="fill: none; stroke: #1f77b4; stroke-width: 1.5"/>
    <path d="M 263.859034 205.490128 
L 263.859034 198.149921 
" clip-path="url(#p4d46035c5b)" style="fill: none; stroke: #1f77b4; stroke-width: 1.5"/>
    <path d="M 265.380852 208.516418 
L 265.380852 201.820212 
" clip-path="url(#p4d46035c5b)" style="fill: none; stroke: #1f77b4; stroke-width: 1.5"/>
    <path d="M 266.90267 206.471612 
L 266.90267 199.041634 
" clip-path="url(#p4d46035c5b)" style="fill: none; stroke: #1f77b4; stroke-width: 1.5"/>
    <path d="M 268.424489 206.944524 
L 268.424489 200.198376 
" clip-path="url(#p4d46035c5b)" style="fill: none; stroke: #1f77b4; stroke-width: 1.5"/>
    <path d="M 269.946307 207.980795 
L 269.946307 201.184279 
" clip-path="url(#p4d46035c5b)" style="fill: none; stroke: #1f77b4; stroke-width: 1.5"/>
    <path d="M 271.468125 208.473808 
L 271.468125 201.186202 
" clip-path="url(#p4d46035c5b)" style="fill: none; stroke: #1f77b4; stroke-width: 1.5"/>
    <path d="M 272.989943 209.025685 
L 272.989943 202.092626 
" clip-path="url(#p4d46035c5b)" style="fill: none; stroke: #1f77b4; stroke-width: 1.5"/>
    <path d="M 274.511761 214.510442 
L 274.511761 207.470039 
" clip-path="url(#p4d46035c5b)" style="fill: none; stroke: #1f77b4; stroke-width: 1.5"/>
    <path d="M 276.03358 207.677237 
L 276.03358 200.34717 
" clip-path="url(#p4d46035c5b)" style="fill: none; stroke: #1f77b4; stroke-width: 1.5"/>
    <path d="M 277.555398 210.124727 
L 277.555398 202.316912 
" clip-path="url(#p4d46035c5b)" style="fill: none; stroke: #1f77b4; stroke-width: 1.5"/>
    <path d="M 279.077216 206.517413 
L 279.077216 199.174261 
" clip-path="url(#p4d46035c5b)" style="fill: none; stroke: #1f77b4; stroke-width: 1.5"/>
    <path d="M 280.599034 204.122725 
L 280.599034 196.704976 
" clip-path="url(#p4d46035c5b)" style="fill: none; stroke: #1f77b4; stroke-width: 1.5"/>
    <path d="M 282.120852 203.442987 
L 282.120852 196.152464 
" clip-path="url(#p4d46035c5b)" style="fill: none; stroke: #1f77b4; stroke-width: 1.5"/>
    <path d="M 283.64267 214.795591 
L 283.64267 208.050546 
" clip-path="url(#p4d46035c5b)" style="fill: none; stroke: #1f77b4; stroke-width: 1.5"/>
    <path d="M 285.164489 206.215257 
L 285.164489 198.295696 
" clip-path="url(#p4d46035c5b)" style="fill: none; stroke: #1f77b4; stroke-width: 1.5"/>
    <path d="M 286.686307 206.169144 
L 286.686307 198.522498 
" clip-path="url(#p4d46035c5b)" style="fill: none; stroke: #1f77b4; stroke-width: 1.5"/>
    <path d="M 288.208125 204.02781 
L 288.208125 196.376606 
" clip-path="url(#p4d46035c5b)" style="fill: none; stroke: #1f77b4; stroke-width: 1.5"/>
    <path d="M 289.729943 214.787637 
L 289.729943 207.196595 
" clip-path="url(#p4d46035c5b)" style="fill: none; stroke: #1f77b4; stroke-width: 1.5"/>
    <path d="M 291.251761 207.359685 
L 291.251761 199.147259 
" clip-path="url(#p4d46035c5b)" style="fill: none; stroke: #1f77b4; stroke-width: 1.5"/>
    <path d="M 292.77358 207.752776 
L 292.77358 199.879212 
" clip-path="url(#p4d46035c5b)" style="fill: none; stroke: #1f77b4; stroke-width: 1.5"/>
    <path d="M 294.295398 209.37008 
L 294.295398 201.270559 
" clip-path="url(#p4d46035c5b)" style="fill: none; stroke: #1f77b4; stroke-width: 1.5"/>
    <path d="M 295.817216 211.521056 
L 295.817216 203.52817 
" clip-path="url(#p4d46035c5b)" style="fill: none; stroke: #1f77b4; stroke-width: 1.5"/>
    <path d="M 297.339034 209.666389 
L 297.339034 201.829179 
" clip-path="url(#p4d46035c5b)" style="fill: none; stroke: #1f77b4; stroke-width: 1.5"/>
    <path d="M 298.860852 218.88 
L 298.860852 211.047781 
" clip-path="url(#p4d46035c5b)" style="fill: none; stroke: #1f77b4; stroke-width: 1.5"/>
    <path d="M 300.38267 211.384711 
L 300.38267 203.107762 
" clip-path="url(#p4d46035c5b)" style="fill: none; stroke: #1f77b4; stroke-width: 1.5"/>
    <path d="M 301.904489 208.89209 
L 301.904489 201.687355 
" clip-path="url(#p4d46035c5b)" style="fill: none; stroke: #1f77b4; stroke-width: 1.5"/>
    <path d="M 303.426307 214.754778 
L 303.426307 206.097638 
" clip-path="url(#p4d46035c5b)" style="fill: none; stroke: #1f77b4; stroke-width: 1.5"/>
    <path d="M 304.948125 209.004087 
L 304.948125 200.651905 
" clip-path="url(#p4d46035c5b)" style="fill: none; stroke: #1f77b4; stroke-width: 1.5"/>
    <path d="M 306.469943 211.748846 
L 306.469943 204.263273 
" clip-path="url(#p4d46035c5b)" style="fill: none; stroke: #1f77b4; stroke-width: 1.5"/>
    <path d="M 307.991761 201.432527 
L 307.991761 193.820913 
" clip-path="url(#p4d46035c5b)" style="fill: none; stroke: #1f77b4; stroke-width: 1.5"/>
    <path d="M 309.51358 209.566359 
L 309.51358 201.070709 
" clip-path="url(#p4d46035c5b)" style="fill: none; stroke: #1f77b4; stroke-width: 1.5"/>
    <path d="M 311.035398 208.037015 
L 311.035398 200.149547 
" clip-path="url(#p4d46035c5b)" style="fill: none; stroke: #1f77b4; stroke-width: 1.5"/>
    <path d="M 312.557216 207.356284 
L 312.557216 199.164438 
" clip-path="url(#p4d46035c5b)" style="fill: none; stroke: #1f77b4; stroke-width: 1.5"/>
    <path d="M 314.079034 204.762229 
L 314.079034 196.439152 
" clip-path="url(#p4d46035c5b)" style="fill: none; stroke: #1f77b4; stroke-width: 1.5"/>
    <path d="M 315.600852 211.494603 
L 315.600852 202.950139 
" clip-path="url(#p4d46035c5b)" style="fill: none; stroke: #1f77b4; stroke-width: 1.5"/>
    <path d="M 317.12267 214.661265 
L 317.12267 206.416862 
" clip-path="url(#p4d46035c5b)" style="fill: none; stroke: #1f77b4; stroke-width: 1.5"/>
    <path d="M 318.644489 209.23804 
L 318.644489 200.963218 
" clip-path="url(#p4d46035c5b)" style="fill: none; stroke: #1f77b4; stroke-width: 1.5"/>
    <path d="M 320.166307 213.966486 
L 320.166307 205.728156 
" clip-path="url(#p4d46035c5b)" style="fill: none; stroke: #1f77b4; stroke-width: 1.5"/>
    <path d="M 321.688125 211.048765 
L 321.688125 202.123273 
" clip-path="url(#p4d46035c5b)" style="fill: none; stroke: #1f77b4; stroke-width: 1.5"/>
    <path d="M 323.209943 210.559182 
L 323.209943 202.203586 
" clip-path="url(#p4d46035c5b)" style="fill: none; stroke: #1f77b4; stroke-width: 1.5"/>
    <path d="M 324.731761 214.160576 
L 324.731761 205.24665 
" clip-path="url(#p4d46035c5b)" style="fill: none; stroke: #1f77b4; stroke-width: 1.5"/>
    <path d="M 326.25358 206.985556 
L 326.25358 198.751716 
" clip-path="url(#p4d46035c5b)" style="fill: none; stroke: #1f77b4; stroke-width: 1.5"/>
    <path d="M 327.775398 214.225614 
L 327.775398 205.829267 
" clip-path="url(#p4d46035c5b)" style="fill: none; stroke: #1f77b4; stroke-width: 1.5"/>
    <path d="M 329.297216 211.181886 
L 329.297216 202.48298 
" clip-path="url(#p4d46035c5b)" style="fill: none; stroke: #1f77b4; stroke-width: 1.5"/>
    <path d="M 330.819034 214.314723 
L 330.819034 206.378051 
" clip-path="url(#p4d46035c5b)" style="fill: none; stroke: #1f77b4; stroke-width: 1.5"/>
    <path d="M 332.340852 210.71713 
L 332.340852 201.9027 
" clip-path="url(#p4d46035c5b)" style="fill: none; stroke: #1f77b4; stroke-width: 1.5"/>
    <path d="M 333.86267 214.007112 
L 333.86267 206.178052 
" clip-path="url(#p4d46035c5b)" style="fill: none; stroke: #1f77b4; stroke-width: 1.5"/>
    <path d="M 335.384489 210.428883 
L 335.384489 202.236482 
" clip-path="url(#p4d46035c5b)" style="fill: none; stroke: #1f77b4; stroke-width: 1.5"/>
    <path d="M 336.906307 208.078968 
L 336.906307 199.083931 
" clip-path="url(#p4d46035c5b)" style="fill: none; stroke: #1f77b4; stroke-width: 1.5"/>
    <path d="M 338.428125 210.30932 
L 338.428125 201.393446 
" clip-path="url(#p4d46035c5b)" style="fill: none; stroke: #1f77b4; stroke-width: 1.5"/>
    <path d="M 339.949943 203.955177 
L 339.949943 195.201604 
" clip-path="url(#p4d46035c5b)" style="fill: none; stroke: #1f77b4; stroke-width: 1.5"/>
    <path d="M 341.471761 207.670285 
L 341.471761 198.429271 
" clip-path="url(#p4d46035c5b)" style="fill: none; stroke: #1f77b4; stroke-width: 1.5"/>
    <path d="M 342.99358 216.601203 
L 342.99358 207.963091 
" clip-path="url(#p4d46035c5b)" style="fill: none; stroke: #1f77b4; stroke-width: 1.5"/>
    <path d="M 344.515398 205.171698 
L 344.515398 195.793665 
" clip-path="url(#p4d46035c5b)" style="fill: none; stroke: #1f77b4; stroke-width: 1.5"/>
    <path d="M 346.037216 209.049727 
L 346.037216 199.828458 
" clip-path="url(#p4d46035c5b)" style="fill: none; stroke: #1f77b4; stroke-width: 1.5"/>
    <path d="M 347.559034 215.150397 
L 347.559034 206.24816 
" clip-path="url(#p4d46035c5b)" style="fill: none; stroke: #1f77b4; stroke-width: 1.5"/>
    <path d="M 349.080852 215.767468 
L 349.080852 206.213452 
" clip-path="url(#p4d46035c5b)" style="fill: none; stroke: #1f77b4; stroke-width: 1.5"/>
    <path d="M 350.60267 208.866249 
L 350.60267 199.805699 
" clip-path="url(#p4d46035c5b)" style="fill: none; stroke: #1f77b4; stroke-width: 1.5"/>
    <path d="M 352.124489 216.722204 
L 352.124489 207.426943 
" clip-path="url(#p4d46035c5b)" style="fill: none; stroke: #1f77b4; stroke-width: 1.5"/>
    <path d="M 353.646307 218.368107 
L 353.646307 209.560078 
" clip-path="url(#p4d46035c5b)" style="fill: none; stroke: #1f77b4; stroke-width: 1.5"/>
    <path d="M 355.168125 204.841679 
L 355.168125 196.158336 
" clip-path="url(#p4d46035c5b)" style="fill: none; stroke: #1f77b4; stroke-width: 1.5"/>
    <path d="M 356.689943 211.994639 
L 356.689943 203.268802 
" clip-path="url(#p4d46035c5b)" style="fill: none; stroke: #1f77b4; stroke-width: 1.5"/>
    <path d="M 358.211761 212.801564 
L 358.211761 202.897425 
" clip-path="url(#p4d46035c5b)" style="fill: none; stroke: #1f77b4; stroke-width: 1.5"/>
    <path d="M 359.73358 211.74994 
L 359.73358 202.426087 
" clip-path="url(#p4d46035c5b)" style="fill: none; stroke: #1f77b4; stroke-width: 1.5"/>
    <path d="M 361.255398 209.712714 
L 361.255398 201.061047 
" clip-path="url(#p4d46035c5b)" style="fill: none; stroke: #1f77b4; stroke-width: 1.5"/>
    <path d="M 362.777216 204.021835 
L 362.777216 194.519296 
" clip-path="url(#p4d46035c5b)" style="fill: none; stroke: #1f77b4; stroke-width: 1.5"/>
    <path d="M 364.299034 216.084768 
L 364.299034 206.200326 
" clip-path="url(#p4d46035c5b)" style="fill: none; stroke: #1f77b4; stroke-width: 1.5"/>
   </g>
   <g id="patch_3">
    <path d="M 45.478125 228.96 
L 45.478125 7.2 
" style="fill: none; stroke: #000000; stroke-width: 0.8; stroke-linejoin: miter; stroke-linecap: square"/>
   </g>
   <g id="patch_4">
    <path d="M 380.278125 228.96 
L 380.278125 7.2 
" style="fill: none; stroke: #000000; stroke-width: 0.8; stroke-linejoin: miter; stroke-linecap: square"/>
   </g>
   <g id="patch_5">
    <path d="M 45.478125 228.96 
L 380.278125 228.96 
" style="fill: none; stroke: #000000; stroke-width: 0.8; stroke-linejoin: miter; stroke-linecap: square"/>
   </g>
   <g id="patch_6">
    <path d="M 45.478125 7.2 
L 380.278125 7.2 
" style="fill: none; stroke: #000000; stroke-width: 0.8; stroke-linejoin: miter; stroke-linecap: square"/>
   </g>
  </g>
 </g>
 <defs>
  <clipPath id="p4d46035c5b">
   <rect x="45.478125" y="7.2" width="334.8" height="221.76"/>
  </clipPath>
 </defs>
</svg>