<?xml version="1.0" encoding="utf-8" standalone="no"?>
<!DOCTYPE svg PUBLIC "-//W3C//DTD SVG 1.1//EN"
  "http://www.w3.org/Graphics/SVG/1.1/DTD/svg11.dtd">
<svg xmlns:xlink="http://www.w3.org/1999/xlink" width="393.378125pt" height="271.238906pt" viewBox="0 0 393.378125 271.238906" xmlns="http://www.w3.org/2000/svg" version="1.1">
 <metadata>
  <rdf:RDF xmlns:dc="http://purl.org/dc/elements/1.1/" xmlns:cc="http://creativecommons.org/ns#" xmlns:rdf="http://www.w3.org/1999/02/22-rdf-syntax-ns#">
   <cc:Work>
    <dc:type rdf:resource="http://purl.org/dc/dcmitype/StillImage"/>
    <dc:date>2025-04-22T15:34:07.025049</dc:date>
    <dc:format>image/svg+xml</dc:format>
    <dc:creator>
     <cc:Agent>
      <dc:title>Matplotlib v3.10.1, https://matplotlib.org/</dc:title>
     </cc:Agent>
    </dc:creator>
   </cc:Work>
  </rdf:RDF>
 </metadata>
 <defs>
  <style type="text/css">*{stroke-linejoin: round; stroke-linecap: butt}</style>
 </defs>
 <g id="figure_1">
  <g id="patch_1">
   <path d="M 0 271.238906 
L 393.378125 271.238906 
L 393.378125 0 
L 0 0 
z
" style="fill: #ffffff"/>
  </g>
  <g id="axes_1">
   <g id="patch_2">
    <path d="M 51.378125 232.759219 
L 386.178125 232.759219 
L 386.178125 10.999219 
L 51.378125 10.999219 
z
" style="fill: #ffffff"/>
   </g>
   <g id="matplotlib.axis_1">
    <g id="xtick_1">
     <g id="line2d_1">
      <defs>
       <path id="mb7b17a280d" d="M 0 0 
L 0 3.5 
" style="stroke: #000000; stroke-width: 0.8"/>
      </defs>
      <g>
       <use xlink:href="#mb7b17a280d" x="58.792111" y="232.759219" style="stroke: #000000; stroke-width: 0.8"/>
      </g>
     </g>
     <g id="text_1">
      <!-- 0.000 -->
      <g transform="translate(44.478049 247.357656) scale(0.1 -0.1)">
       <defs>
        <path id="DejaVuSans-30" d="M 2034 4250 
Q 1547 4250 1301 3770 
Q 1056 3291 1056 2328 
Q 1056 1369 1301 889 
Q 1547 409 2034 409 
Q 2525 409 2770 889 
Q 3016 1369 3016 2328 
Q 3016 3291 2770 3770 
Q 2525 4250 2034 4250 
z
M 2034 4750 
Q 2819 4750 3233 4129 
Q 3647 3509 3647 2328 
Q 3647 1150 3233 529 
Q 2819 -91 2034 -91 
Q 1250 -91 836 529 
Q 422 1150 422 2328 
Q 422 3509 836 4129 
Q 1250 4750 2034 4750 
z
" transform="scale(0.015625)"/>
        <path id="DejaVuSans-2e" d="M 684 794 
L 1344 794 
L 1344 0 
L 684 0 
L 684 794 
z
" transform="scale(0.015625)"/>
       </defs>
       <use xlink:href="#DejaVuSans-30"/>
       <use xlink:href="#DejaVuSans-2e" transform="translate(63.623047 0)"/>
       <use xlink:href="#DejaVuSans-30" transform="translate(95.410156 0)"/>
       <use xlink:href="#DejaVuSans-30" transform="translate(159.033203 0)"/>
       <use xlink:href="#DejaVuSans-30" transform="translate(222.65625 0)"/>
      </g>
     </g>
    </g>
    <g id="xtick_2">
     <g id="line2d_2">
      <g>
       <use xlink:href="#mb7b17a280d" x="97.81309" y="232.759219" style="stroke: #000000; stroke-width: 0.8"/>
      </g>
     </g>
     <g id="text_2">
      <!-- 0.025 -->
      <g transform="translate(83.499028 247.357656) scale(0.1 -0.1)">
       <defs>
        <path id="DejaVuSans-32" d="M 1228 531 
L 3431 531 
L 3431 0 
L 469 0 
L 469 531 
Q 828 903 1448 1529 
Q 2069 2156 2228 2338 
Q 2531 2678 2651 2914 
Q 2772 3150 2772 3378 
Q 2772 3750 2511 3984 
Q 2250 4219 1831 4219 
Q 1534 4219 1204 4116 
Q 875 4013 500 3803 
L 500 4441 
Q 881 4594 1212 4672 
Q 1544 4750 1819 4750 
Q 2544 4750 2975 4387 
Q 3406 4025 3406 3419 
Q 3406 3131 3298 2873 
Q 3191 2616 2906 2266 
Q 2828 2175 2409 1742 
Q 1991 1309 1228 531 
z
" transform="scale(0.015625)"/>
        <path id="DejaVuSans-35" d="M 691 4666 
L 3169 4666 
L 3169 4134 
L 1269 4134 
L 1269 2991 
Q 1406 3038 1543 3061 
Q 1681 3084 1819 3084 
Q 2600 3084 3056 2656 
Q 3513 2228 3513 1497 
Q 3513 744 3044 326 
Q 2575 -91 1722 -91 
Q 1428 -91 1123 -41 
Q 819 9 494 109 
L 494 744 
Q 775 591 1075 516 
Q 1375 441 1709 441 
Q 2250 441 2565 725 
Q 2881 1009 2881 1497 
Q 2881 1984 2565 2268 
Q 2250 2553 1709 2553 
Q 1456 2553 1204 2497 
Q 953 2441 691 2322 
L 691 4666 
z
" transform="scale(0.015625)"/>
       </defs>
       <use xlink:href="#DejaVuSans-30"/>
       <use xlink:href="#DejaVuSans-2e" transform="translate(63.623047 0)"/>
       <use xlink:href="#DejaVuSans-30" transform="translate(95.410156 0)"/>
       <use xlink:href="#DejaVuSans-32" transform="translate(159.033203 0)"/>
       <use xlink:href="#DejaVuSans-35" transform="translate(222.65625 0)"/>
      </g>
     </g>
    </g>
    <g id="xtick_3">
     <g id="line2d_3">
      <g>
       <use xlink:href="#mb7b17a280d" x="136.834069" y="232.759219" style="stroke: #000000; stroke-width: 0.8"/>
      </g>
     </g>
     <g id="text_3">
      <!-- 0.050 -->
      <g transform="translate(122.520007 247.357656) scale(0.1 -0.1)">
       <use xlink:href="#DejaVuSans-30"/>
       <use xlink:href="#DejaVuSans-2e" transform="translate(63.623047 0)"/>
       <use xlink:href="#DejaVuSans-30" transform="translate(95.410156 0)"/>
       <use xlink:href="#DejaVuSans-35" transform="translate(159.033203 0)"/>
       <use xlink:href="#DejaVuSans-30" transform="translate(222.65625 0)"/>
      </g>
     </g>
    </g>
    <g id="xtick_4">
     <g id="line2d_4">
      <g>
       <use xlink:href="#mb7b17a280d" x="175.855048" y="232.759219" style="stroke: #000000; stroke-width: 0.8"/>
      </g>
     </g>
     <g id="text_4">
      <!-- 0.075 -->
      <g transform="translate(161.540986 247.357656) scale(0.1 -0.1)">
       <defs>
        <path id="DejaVuSans-37" d="M 525 4666 
L 3525 4666 
L 3525 4397 
L 1831 0 
L 1172 0 
L 2766 4134 
L 525 4134 
L 525 4666 
z
" transform="scale(0.015625)"/>
       </defs>
       <use xlink:href="#DejaVuSans-30"/>
       <use xlink:href="#DejaVuSans-2e" transform="translate(63.623047 0)"/>
       <use xlink:href="#DejaVuSans-30" transform="translate(95.410156 0)"/>
       <use xlink:href="#DejaVuSans-37" transform="translate(159.033203 0)"/>
       <use xlink:href="#DejaVuSans-35" transform="translate(222.65625 0)"/>
      </g>
     </g>
    </g>
    <g id="xtick_5">
     <g id="line2d_5">
      <g>
       <use xlink:href="#mb7b17a280d" x="214.876027" y="232.759219" style="stroke: #000000; stroke-width: 0.8"/>
      </g>
     </g>
     <g id="text_5">
      <!-- 0.100 -->
      <g transform="translate(200.561965 247.357656) scale(0.1 -0.1)">
       <defs>
        <path id="DejaVuSans-31" d="M 794 531 
L 1825 531 
L 1825 4091 
L 703 3866 
L 703 4441 
L 1819 4666 
L 2450 4666 
L 2450 531 
L 3481 531 
L 3481 0 
L 794 0 
L 794 531 
z
" transform="scale(0.015625)"/>
       </defs>
       <use xlink:href="#DejaVuSans-30"/>
       <use xlink:href="#DejaVuSans-2e" transform="translate(63.623047 0)"/>
       <use xlink:href="#DejaVuSans-31" transform="translate(95.410156 0)"/>
       <use xlink:href="#DejaVuSans-30" transform="translate(159.033203 0)"/>
       <use xlink:href="#DejaVuSans-30" transform="translate(222.65625 0)"/>
      </g>
     </g>
    </g>
    <g id="xtick_6">
     <g id="line2d_6">
      <g>
       <use xlink:href="#mb7b17a280d" x="253.897006" y="232.759219" style="stroke: #000000; stroke-width: 0.8"/>
      </g>
     </g>
     <g id="text_6">
      <!-- 0.125 -->
      <g transform="translate(239.582944 247.357656) scale(0.1 -0.1)">
       <use xlink:href="#DejaVuSans-30"/>
       <use xlink:href="#DejaVuSans-2e" transform="translate(63.623047 0)"/>
       <use xlink:href="#DejaVuSans-31" transform="translate(95.410156 0)"/>
       <use xlink:href="#DejaVuSans-32" transform="translate(159.033203 0)"/>
       <use xlink:href="#DejaVuSans-35" transform="translate(222.65625 0)"/>
      </g>
     </g>
    </g>
    <g id="xtick_7">
     <g id="line2d_7">
      <g>
       <use xlink:href="#mb7b17a280d" x="292.917985" y="232.759219" style="stroke: #000000; stroke-width: 0.8"/>
      </g>
     </g>
     <g id="text_7">
      <!-- 0.150 -->
      <g transform="translate(278.603923 247.357656) scale(0.1 -0.1)">
       <use xlink:href="#DejaVuSans-30"/>
       <use xlink:href="#DejaVuSans-2e" transform="translate(63.623047 0)"/>
       <use xlink:href="#DejaVuSans-31" transform="translate(95.410156 0)"/>
       <use xlink:href="#DejaVuSans-35" transform="translate(159.033203 0)"/>
       <use xlink:href="#DejaVuSans-30" transform="translate(222.65625 0)"/>
      </g>
     </g>
    </g>
    <g id="xtick_8">
     <g id="line2d_8">
      <g>
       <use xlink:href="#mb7b17a280d" x="331.938964" y="232.759219" style="stroke: #000000; stroke-width: 0.8"/>
      </g>
     </g>
     <g id="text_8">
      <!-- 0.175 -->
      <g transform="translate(317.624902 247.357656) scale(0.1 -0.1)">
       <use xlink:href="#DejaVuSans-30"/>
       <use xlink:href="#DejaVuSans-2e" transform="translate(63.623047 0)"/>
       <use xlink:href="#DejaVuSans-31" transform="translate(95.410156 0)"/>
       <use xlink:href="#DejaVuSans-37" transform="translate(159.033203 0)"/>
       <use xlink:href="#DejaVuSans-35" transform="translate(222.65625 0)"/>
      </g>
     </g>
    </g>
    <g id="xtick_9">
     <g id="line2d_9">
      <g>
       <use xlink:href="#mb7b17a280d" x="370.959943" y="232.759219" style="stroke: #000000; stroke-width: 0.8"/>
      </g>
     </g>
     <g id="text_9">
      <!-- 0.200 -->
      <g transform="translate(356.645881 247.357656) scale(0.1 -0.1)">
       <use xlink:href="#DejaVuSans-30"/>
       <use xlink:href="#DejaVuSans-2e" transform="translate(63.623047 0)"/>
       <use xlink:href="#DejaVuSans-32" transform="translate(95.410156 0)"/>
       <use xlink:href="#DejaVuSans-30" transform="translate(159.033203 0)"/>
       <use xlink:href="#DejaVuSans-30" transform="translate(222.65625 0)"/>
      </g>
     </g>
    </g>
    <g id="text_10">
     <!-- Q [1/Å] -->
     <g transform="translate(201.065625 261.959219) scale(0.1 -0.1)">
      <defs>
       <path id="DejaVuSans-51" d="M 2522 4238 
Q 1834 4238 1429 3725 
Q 1025 3213 1025 2328 
Q 1025 1447 1429 934 
Q 1834 422 2522 422 
Q 3209 422 3611 934 
Q 4013 1447 4013 2328 
Q 4013 3213 3611 3725 
Q 3209 4238 2522 4238 
z
M 3406 84 
L 4238 -825 
L 3475 -825 
L 2784 -78 
Q 2681 -84 2626 -87 
Q 2572 -91 2522 -91 
Q 1538 -91 948 567 
Q 359 1225 359 2328 
Q 359 3434 948 4092 
Q 1538 4750 2522 4750 
Q 3503 4750 4090 4092 
Q 4678 3434 4678 2328 
Q 4678 1516 4351 937 
Q 4025 359 3406 84 
z
" transform="scale(0.015625)"/>
       <path id="DejaVuSans-20" transform="scale(0.015625)"/>
       <path id="DejaVuSans-5b" d="M 550 4863 
L 1875 4863 
L 1875 4416 
L 1125 4416 
L 1125 -397 
L 1875 -397 
L 1875 -844 
L 550 -844 
L 550 4863 
z
" transform="scale(0.015625)"/>
       <path id="DejaVuSans-2f" d="M 1625 4666 
L 2156 4666 
L 531 -594 
L 0 -594 
L 1625 4666 
z
" transform="scale(0.015625)"/>
       <path id="DejaVuSans-c5" d="M 2663 5081 
Q 2663 5278 2523 5417 
Q 2384 5556 2188 5556 
Q 1988 5556 1852 5420 
Q 1716 5284 1716 5081 
Q 1716 4884 1853 4746 
Q 1991 4609 2188 4609 
Q 2384 4609 2523 4746 
Q 2663 4884 2663 5081 
z
M 2188 4044 
L 1338 1722 
L 3041 1722 
L 2188 4044 
z
M 1716 4366 
Q 1525 4494 1428 4673 
Q 1331 4853 1331 5081 
Q 1331 5441 1579 5691 
Q 1828 5941 2188 5941 
Q 2544 5941 2795 5689 
Q 3047 5438 3047 5081 
Q 3047 4863 2948 4678 
Q 2850 4494 2663 4366 
L 4325 0 
L 3669 0 
L 3244 1197 
L 1141 1197 
L 716 0 
L 50 0 
L 1716 4366 
z
" transform="scale(0.015625)"/>
       <path id="DejaVuSans-5d" d="M 1947 4863 
L 1947 -844 
L 622 -844 
L 622 -397 
L 1369 -397 
L 1369 4416 
L 622 4416 
L 622 4863 
L 1947 4863 
z
" transform="scale(0.015625)"/>
      </defs>
      <use xlink:href="#DejaVuSans-51"/>
      <use xlink:href="#DejaVuSans-20" transform="translate(78.710938 0)"/>
      <use xlink:href="#DejaVuSans-5b" transform="translate(110.498047 0)"/>
      <use xlink:href="#DejaVuSans-31" transform="translate(149.511719 0)"/>
      <use xlink:href="#DejaVuSans-2f" transform="translate(213.134766 0)"/>
      <use xlink:href="#DejaVuSans-c5" transform="translate(246.826172 0)"/>
      <use xlink:href="#DejaVuSans-5d" transform="translate(315.234375 0)"/>
     </g>
    </g>
   </g>
   <g id="matplotlib.axis_2">
    <g id="ytick_1">
     <g id="line2d_10">
      <defs>
       <path id="m65b3ecbe01" d="M 0 0 
L -3.5 0 
" style="stroke: #000000; stroke-width: 0.8"/>
      </defs>
      <g>
       <use xlink:href="#m65b3ecbe01" x="51.378125" y="232.759219" style="stroke: #000000; stroke-width: 0.8"/>
      </g>
     </g>
     <g id="text_11">
      <!-- $\mathdefault{10^{-3}}$ -->
      <g transform="translate(20.878125 236.558437) scale(0.1 -0.1)">
       <defs>
        <path id="DejaVuSans-2212" d="M 678 2272 
L 4684 2272 
L 4684 1741 
L 678 1741 
L 678 2272 
z
" transform="scale(0.015625)"/>
        <path id="DejaVuSans-33" d="M 2597 2516 
Q 3050 2419 3304 2112 
Q 3559 1806 3559 1356 
Q 3559 666 3084 287 
Q 2609 -91 1734 -91 
Q 1441 -91 1130 -33 
Q 819 25 488 141 
L 488 750 
Q 750 597 1062 519 
Q 1375 441 1716 441 
Q 2309 441 2620 675 
Q 2931 909 2931 1356 
Q 2931 1769 2642 2001 
Q 2353 2234 1838 2234 
L 1294 2234 
L 1294 2753 
L 1863 2753 
Q 2328 2753 2575 2939 
Q 2822 3125 2822 3475 
Q 2822 3834 2567 4026 
Q 2313 4219 1838 4219 
Q 1578 4219 1281 4162 
Q 984 4106 628 3988 
L 628 4550 
Q 988 4650 1302 4700 
Q 1616 4750 1894 4750 
Q 2613 4750 3031 4423 
Q 3450 4097 3450 3541 
Q 3450 3153 3228 2886 
Q 3006 2619 2597 2516 
z
" transform="scale(0.015625)"/>
       </defs>
       <use xlink:href="#DejaVuSans-31" transform="translate(0 0.765625)"/>
       <use xlink:href="#DejaVuSans-30" transform="translate(63.623047 0.765625)"/>
       <use xlink:href="#DejaVuSans-2212" transform="translate(128.203125 39.046875) scale(0.7)"/>
       <use xlink:href="#DejaVuSans-33" transform="translate(186.855469 39.046875) scale(0.7)"/>
      </g>
     </g>
    </g>
    <g id="ytick_2">
     <g id="line2d_11">
      <g>
       <use xlink:href="#m65b3ecbe01" x="51.378125" y="177.319219" style="stroke: #000000; stroke-width: 0.8"/>
      </g>
     </g>
     <g id="text_12">
      <!-- $\mathdefault{10^{-2}}$ -->
      <g transform="translate(20.878125 181.118437) scale(0.1 -0.1)">
       <use xlink:href="#DejaVuSans-31" transform="translate(0 0.765625)"/>
       <use xlink:href="#DejaVuSans-30" transform="translate(63.623047 0.765625)"/>
       <use xlink:href="#DejaVuSans-2212" transform="translate(128.203125 39.046875) scale(0.7)"/>
       <use xlink:href="#DejaVuSans-32" transform="translate(186.855469 39.046875) scale(0.7)"/>
      </g>
     </g>
    </g>
    <g id="ytick_3">
     <g id="line2d_12">
      <g>
       <use xlink:href="#m65b3ecbe01" x="51.378125" y="121.879219" style="stroke: #000000; stroke-width: 0.8"/>
      </g>
     </g>
     <g id="text_13">
      <!-- $\mathdefault{10^{-1}}$ -->
      <g transform="translate(20.878125 125.678438) scale(0.1 -0.1)">
       <use xlink:href="#DejaVuSans-31" transform="translate(0 0.684375)"/>
       <use xlink:href="#DejaVuSans-30" transform="translate(63.623047 0.684375)"/>
       <use xlink:href="#DejaVuSans-2212" transform="translate(128.203125 38.965625) scale(0.7)"/>
       <use xlink:href="#DejaVuSans-31" transform="translate(186.855469 38.965625) scale(0.7)"/>
      </g>
     </g>
    </g>
    <g id="ytick_4">
     <g id="line2d_13">
      <g>
       <use xlink:href="#m65b3ecbe01" x="51.378125" y="66.439219" style="stroke: #000000; stroke-width: 0.8"/>
      </g>
     </g>
     <g id="text_14">
      <!-- $\mathdefault{10^{0}}$ -->
      <g transform="translate(26.778125 70.238438) scale(0.1 -0.1)">
       <use xlink:href="#DejaVuSans-31" transform="translate(0 0.765625)"/>
       <use xlink:href="#DejaVuSans-30" transform="translate(63.623047 0.765625)"/>
       <use xlink:href="#DejaVuSans-30" transform="translate(128.203125 39.046875) scale(0.7)"/>
      </g>
     </g>
    </g>
    <g id="ytick_5">
     <g id="line2d_14">
      <g>
       <use xlink:href="#m65b3ecbe01" x="51.378125" y="10.999219" style="stroke: #000000; stroke-width: 0.8"/>
      </g>
     </g>
     <g id="text_15">
      <!-- $\mathdefault{10^{1}}$ -->
      <g transform="translate(26.778125 14.798438) scale(0.1 -0.1)">
       <use xlink:href="#DejaVuSans-31" transform="translate(0 0.684375)"/>
       <use xlink:href="#DejaVuSans-30" transform="translate(63.623047 0.684375)"/>
       <use xlink:href="#DejaVuSans-31" transform="translate(128.203125 38.965625) scale(0.7)"/>
      </g>
     </g>
    </g>
    <g id="ytick_6">
     <g id="line2d_15">
      <defs>
       <path id="mc29f20f043" d="M 0 0 
L -2 0 
" style="stroke: #000000; stroke-width: 0.6"/>
      </defs>
      <g>
       <use xlink:href="#mc29f20f043" x="51.378125" y="216.070116" style="stroke: #000000; stroke-width: 0.6"/>
      </g>
     </g>
    </g>
    <g id="ytick_7">
     <g id="line2d_16">
      <g>
       <use xlink:href="#mc29f20f043" x="51.378125" y="206.307616" style="stroke: #000000; stroke-width: 0.6"/>
      </g>
     </g>
    </g>
    <g id="ytick_8">
     <g id="line2d_17">
      <g>
       <use xlink:href="#mc29f20f043" x="51.378125" y="199.381013" style="stroke: #000000; stroke-width: 0.6"/>
      </g>
     </g>
    </g>
    <g id="ytick_9">
     <g id="line2d_18">
      <g>
       <use xlink:href="#mc29f20f043" x="51.378125" y="194.008322" style="stroke: #000000; stroke-width: 0.6"/>
      </g>
     </g>
    </g>
    <g id="ytick_10">
     <g id="line2d_19">
      <g>
       <use xlink:href="#mc29f20f043" x="51.378125" y="189.618513" style="stroke: #000000; stroke-width: 0.6"/>
      </g>
     </g>
    </g>
    <g id="ytick_11">
     <g id="line2d_20">
      <g>
       <use xlink:href="#mc29f20f043" x="51.378125" y="185.906983" style="stroke: #000000; stroke-width: 0.6"/>
      </g>
     </g>
    </g>
    <g id="ytick_12">
     <g id="line2d_21">
      <g>
       <use xlink:href="#mc29f20f043" x="51.378125" y="182.69191" style="stroke: #000000; stroke-width: 0.6"/>
      </g>
     </g>
    </g>
    <g id="ytick_13">
     <g id="line2d_22">
      <g>
       <use xlink:href="#mc29f20f043" x="51.378125" y="179.856014" style="stroke: #000000; stroke-width: 0.6"/>
      </g>
     </g>
    </g>
    <g id="ytick_14">
     <g id="line2d_23">
      <g>
       <use xlink:href="#mc29f20f043" x="51.378125" y="160.630116" style="stroke: #000000; stroke-width: 0.6"/>
      </g>
     </g>
    </g>
    <g id="ytick_15">
     <g id="line2d_24">
      <g>
       <use xlink:href="#mc29f20f043" x="51.378125" y="150.867616" style="stroke: #000000; stroke-width: 0.6"/>
      </g>
     </g>
    </g>
    <g id="ytick_16">
     <g id="line2d_25">
      <g>
       <use xlink:href="#mc29f20f043" x="51.378125" y="143.941013" style="stroke: #000000; stroke-width: 0.6"/>
      </g>
     </g>
    </g>
    <g id="ytick_17">
     <g id="line2d_26">
      <g>
       <use xlink:href="#mc29f20f043" x="51.378125" y="138.568322" style="stroke: #000000; stroke-width: 0.6"/>
      </g>
     </g>
    </g>
    <g id="ytick_18">
     <g id="line2d_27">
      <g>
       <use xlink:href="#mc29f20f043" x="51.378125" y="134.178513" style="stroke: #000000; stroke-width: 0.6"/>
      </g>
     </g>
    </g>
    <g id="ytick_19">
     <g id="line2d_28">
      <g>
       <use xlink:href="#mc29f20f043" x="51.378125" y="130.466983" style="stroke: #000000; stroke-width: 0.6"/>
      </g>
     </g>
    </g>
    <g id="ytick_20">
     <g id="line2d_29">
      <g>
       <use xlink:href="#mc29f20f043" x="51.378125" y="127.25191" style="stroke: #000000; stroke-width: 0.6"/>
      </g>
     </g>
    </g>
    <g id="ytick_21">
     <g id="line2d_30">
      <g>
       <use xlink:href="#mc29f20f043" x="51.378125" y="124.416014" style="stroke: #000000; stroke-width: 0.6"/>
      </g>
     </g>
    </g>
    <g id="ytick_22">
     <g id="line2d_31">
      <g>
       <use xlink:href="#mc29f20f043" x="51.378125" y="105.190116" style="stroke: #000000; stroke-width: 0.6"/>
      </g>
     </g>
    </g>
    <g id="ytick_23">
     <g id="line2d_32">
      <g>
       <use xlink:href="#mc29f20f043" x="51.378125" y="95.427616" style="stroke: #000000; stroke-width: 0.6"/>
      </g>
     </g>
    </g>
    <g id="ytick_24">
     <g id="line2d_33">
      <g>
       <use xlink:href="#mc29f20f043" x="51.378125" y="88.501013" style="stroke: #000000; stroke-width: 0.6"/>
      </g>
     </g>
    </g>
    <g id="ytick_25">
     <g id="line2d_34">
      <g>
       <use xlink:href="#mc29f20f043" x="51.378125" y="83.128322" style="stroke: #000000; stroke-width: 0.6"/>
      </g>
     </g>
    </g>
    <g id="ytick_26">
     <g id="line2d_35">
      <g>
       <use xlink:href="#mc29f20f043" x="51.378125" y="78.738513" style="stroke: #000000; stroke-width: 0.6"/>
      </g>
     </g>
    </g>
    <g id="ytick_27">
     <g id="line2d_36">
      <g>
       <use xlink:href="#mc29f20f043" x="51.378125" y="75.026983" style="stroke: #000000; stroke-width: 0.6"/>
      </g>
     </g>
    </g>
    <g id="ytick_28">
     <g id="line2d_37">
      <g>
       <use xlink:href="#mc29f20f043" x="51.378125" y="71.81191" style="stroke: #000000; stroke-width: 0.6"/>
      </g>
     </g>
    </g>
    <g id="ytick_29">
     <g id="line2d_38">
      <g>
       <use xlink:href="#mc29f20f043" x="51.378125" y="68.976014" style="stroke: #000000; stroke-width: 0.6"/>
      </g>
     </g>
    </g>
    <g id="ytick_30">
     <g id="line2d_39">
      <g>
       <use xlink:href="#mc29f20f043" x="51.378125" y="49.750116" style="stroke: #000000; stroke-width: 0.6"/>
      </g>
     </g>
    </g>
    <g id="ytick_31">
     <g id="line2d_40">
      <g>
       <use xlink:href="#mc29f20f043" x="51.378125" y="39.987616" style="stroke: #000000; stroke-width: 0.6"/>
      </g>
     </g>
    </g>
    <g id="ytick_32">
     <g id="line2d_41">
      <g>
       <use xlink:href="#mc29f20f043" x="51.378125" y="33.061013" style="stroke: #000000; stroke-width: 0.6"/>
      </g>
     </g>
    </g>
    <g id="ytick_33">
     <g id="line2d_42">
      <g>
       <use xlink:href="#mc29f20f043" x="51.378125" y="27.688322" style="stroke: #000000; stroke-width: 0.6"/>
      </g>
     </g>
    </g>
    <g id="ytick_34">
     <g id="line2d_43">
      <g>
       <use xlink:href="#mc29f20f043" x="51.378125" y="23.298513" style="stroke: #000000; stroke-width: 0.6"/>
      </g>
     </g>
    </g>
    <g id="ytick_35">
     <g id="line2d_44">
      <g>
       <use xlink:href="#mc29f20f043" x="51.378125" y="19.586983" style="stroke: #000000; stroke-width: 0.6"/>
      </g>
     </g>
    </g>
    <g id="ytick_36">
     <g id="line2d_45">
      <g>
       <use xlink:href="#mc29f20f043" x="51.378125" y="16.37191" style="stroke: #000000; stroke-width: 0.6"/>
      </g>
     </g>
    </g>
    <g id="ytick_37">
     <g id="line2d_46">
      <g>
       <use xlink:href="#mc29f20f043" x="51.378125" y="13.536014" style="stroke: #000000; stroke-width: 0.6"/>
      </g>
     </g>
    </g>
    <g id="text_16">
     <!-- [dimensionless] -->
     <g transform="translate(14.798438 161.356562) rotate(-90) scale(0.1 -0.1)">
      <defs>
       <path id="DejaVuSans-64" d="M 2906 2969 
L 2906 4863 
L 3481 4863 
L 3481 0 
L 2906 0 
L 2906 525 
Q 2725 213 2448 61 
Q 2172 -91 1784 -91 
Q 1150 -91 751 415 
Q 353 922 353 1747 
Q 353 2572 751 3078 
Q 1150 3584 1784 3584 
Q 2172 3584 2448 3432 
Q 2725 3281 2906 2969 
z
M 947 1747 
Q 947 1113 1208 752 
Q 1469 391 1925 391 
Q 2381 391 2643 752 
Q 2906 1113 2906 1747 
Q 2906 2381 2643 2742 
Q 2381 3103 1925 3103 
Q 1469 3103 1208 2742 
Q 947 2381 947 1747 
z
" transform="scale(0.015625)"/>
       <path id="DejaVuSans-69" d="M 603 3500 
L 1178 3500 
L 1178 0 
L 603 0 
L 603 3500 
z
M 603 4863 
L 1178 4863 
L 1178 4134 
L 603 4134 
L 603 4863 
z
" transform="scale(0.015625)"/>
       <path id="DejaVuSans-6d" d="M 3328 2828 
Q 3544 3216 3844 3400 
Q 4144 3584 4550 3584 
Q 5097 3584 5394 3201 
Q 5691 2819 5691 2113 
L 5691 0 
L 5113 0 
L 5113 2094 
Q 5113 2597 4934 2840 
Q 4756 3084 4391 3084 
Q 3944 3084 3684 2787 
Q 3425 2491 3425 1978 
L 3425 0 
L 2847 0 
L 2847 2094 
Q 2847 2600 2669 2842 
Q 2491 3084 2119 3084 
Q 1678 3084 1418 2786 
Q 1159 2488 1159 1978 
L 1159 0 
L 581 0 
L 581 3500 
L 1159 3500 
L 1159 2956 
Q 1356 3278 1631 3431 
Q 1906 3584 2284 3584 
Q 2666 3584 2933 3390 
Q 3200 3197 3328 2828 
z
" transform="scale(0.015625)"/>
       <path id="DejaVuSans-65" d="M 3597 1894 
L 3597 1613 
L 953 1613 
Q 991 1019 1311 708 
Q 1631 397 2203 397 
Q 2534 397 2845 478 
Q 3156 559 3463 722 
L 3463 178 
Q 3153 47 2828 -22 
Q 2503 -91 2169 -91 
Q 1331 -91 842 396 
Q 353 884 353 1716 
Q 353 2575 817 3079 
Q 1281 3584 2069 3584 
Q 2775 3584 3186 3129 
Q 3597 2675 3597 1894 
z
M 3022 2063 
Q 3016 2534 2758 2815 
Q 2500 3097 2075 3097 
Q 1594 3097 1305 2825 
Q 1016 2553 972 2059 
L 3022 2063 
z
" transform="scale(0.015625)"/>
       <path id="DejaVuSans-6e" d="M 3513 2113 
L 3513 0 
L 2938 0 
L 2938 2094 
Q 2938 2591 2744 2837 
Q 2550 3084 2163 3084 
Q 1697 3084 1428 2787 
Q 1159 2491 1159 1978 
L 1159 0 
L 581 0 
L 581 3500 
L 1159 3500 
L 1159 2956 
Q 1366 3272 1645 3428 
Q 1925 3584 2291 3584 
Q 2894 3584 3203 3211 
Q 3513 2838 3513 2113 
z
" transform="scale(0.015625)"/>
       <path id="DejaVuSans-73" d="M 2834 3397 
L 2834 2853 
Q 2591 2978 2328 3040 
Q 2066 3103 1784 3103 
Q 1356 3103 1142 2972 
Q 928 2841 928 2578 
Q 928 2378 1081 2264 
Q 1234 2150 1697 2047 
L 1894 2003 
Q 2506 1872 2764 1633 
Q 3022 1394 3022 966 
Q 3022 478 2636 193 
Q 2250 -91 1575 -91 
Q 1294 -91 989 -36 
Q 684 19 347 128 
L 347 722 
Q 666 556 975 473 
Q 1284 391 1588 391 
Q 1994 391 2212 530 
Q 2431 669 2431 922 
Q 2431 1156 2273 1281 
Q 2116 1406 1581 1522 
L 1381 1569 
Q 847 1681 609 1914 
Q 372 2147 372 2553 
Q 372 3047 722 3315 
Q 1072 3584 1716 3584 
Q 2034 3584 2315 3537 
Q 2597 3491 2834 3397 
z
" transform="scale(0.015625)"/>
       <path id="DejaVuSans-6f" d="M 1959 3097 
Q 1497 3097 1228 2736 
Q 959 2375 959 1747 
Q 959 1119 1226 758 
Q 1494 397 1959 397 
Q 2419 397 2687 759 
Q 2956 1122 2956 1747 
Q 2956 2369 2687 2733 
Q 2419 3097 1959 3097 
z
M 1959 3584 
Q 2709 3584 3137 3096 
Q 3566 2609 3566 1747 
Q 3566 888 3137 398 
Q 2709 -91 1959 -91 
Q 1206 -91 779 398 
Q 353 888 353 1747 
Q 353 2609 779 3096 
Q 1206 3584 1959 3584 
z
" transform="scale(0.015625)"/>
       <path id="DejaVuSans-6c" d="M 603 4863 
L 1178 4863 
L 1178 0 
L 603 0 
L 603 4863 
z
" transform="scale(0.015625)"/>
      </defs>
      <use xlink:href="#DejaVuSans-5b"/>
      <use xlink:href="#DejaVuSans-64" transform="translate(39.013672 0)"/>
      <use xlink:href="#DejaVuSans-69" transform="translate(102.490234 0)"/>
      <use xlink:href="#DejaVuSans-6d" transform="translate(130.273438 0)"/>
      <use xlink:href="#DejaVuSans-65" transform="translate(227.685547 0)"/>
      <use xlink:href="#DejaVuSans-6e" transform="translate(289.208984 0)"/>
      <use xlink:href="#DejaVuSans-73" transform="translate(352.587891 0)"/>
      <use xlink:href="#DejaVuSans-69" transform="translate(404.6875 0)"/>
      <use xlink:href="#DejaVuSans-6f" transform="translate(432.470703 0)"/>
      <use xlink:href="#DejaVuSans-6e" transform="translate(493.652344 0)"/>
      <use xlink:href="#DejaVuSans-6c" transform="translate(557.03125 0)"/>
      <use xlink:href="#DejaVuSans-65" transform="translate(584.814453 0)"/>
      <use xlink:href="#DejaVuSans-73" transform="translate(646.337891 0)"/>
      <use xlink:href="#DejaVuSans-73" transform="translate(698.4375 0)"/>
      <use xlink:href="#DejaVuSans-5d" transform="translate(750.537109 0)"/>
     </g>
    </g>
   </g>
   <g id="patch_3">
    <path d="M 51.378125 232.759219 
L 51.378125 10.999219 
" style="fill: none; stroke: #000000; stroke-width: 0.8; stroke-linejoin: miter; stroke-linecap: square"/>
   </g>
   <g id="patch_4">
    <path d="M 386.178125 232.759219 
L 386.178125 10.999219 
" style="fill: none; stroke: #000000; stroke-width: 0.8; stroke-linejoin: miter; stroke-linecap: square"/>
   </g>
   <g id="patch_5">
    <path d="M 51.378125 232.759219 
L 386.178125 232.759219 
" style="fill: none; stroke: #000000; stroke-width: 0.8; stroke-linejoin: miter; stroke-linecap: square"/>
   </g>
   <g id="patch_6">
    <path d="M 51.378125 10.999219 
L 386.178125 10.999219 
" style="fill: none; stroke: #000000; stroke-width: 0.8; stroke-linejoin: miter; stroke-linecap: square"/>
   </g>
   <g id="line2d_47">
    <path d="M 66.596307 27.827085 
L 68.118125 27.827085 
L 68.118125 27.425901 
L 69.639943 27.425901 
L 69.639943 29.373314 
L 71.161761 29.373314 
L 71.161761 29.742306 
L 72.68358 29.742306 
L 72.68358 29.936995 
L 74.205398 29.936995 
L 74.205398 30.067827 
L 75.727216 30.067827 
L 75.727216 31.559258 
L 77.249034 31.559258 
L 77.249034 31.277152 
L 78.770852 31.277152 
L 78.770852 32.43435 
L 80.29267 32.43435 
L 80.29267 32.175595 
L 81.814489 32.175595 
L 81.814489 35.696579 
L 84.858125 35.788963 
L 84.858125 38.170722 
L 86.379943 38.170722 
L 86.379943 39.055695 
L 87.901761 39.055695 
L 87.901761 40.329786 
L 89.42358 40.329786 
L 89.42358 41.148931 
L 90.945398 41.148931 
L 90.945398 44.221328 
L 92.467216 44.221328 
L 92.467216 46.52777 
L 93.989034 46.52777 
L 93.989034 48.12854 
L 95.510852 48.12854 
L 95.510852 50.045701 
L 97.03267 50.045701 
L 97.03267 50.730514 
L 98.554489 50.730514 
L 98.554489 54.907019 
L 100.076307 54.907019 
L 100.076307 56.815145 
L 101.598125 56.815145 
L 101.598125 61.753772 
L 103.119943 61.753772 
L 103.119943 63.987412 
L 104.641761 63.987412 
L 104.641761 62.203852 
L 106.16358 62.203852 
L 106.16358 69.462819 
L 107.685398 69.462819 
L 107.685398 71.82731 
L 109.207216 71.82731 
L 109.207216 74.669212 
L 110.729034 74.669212 
L 110.729034 79.543491 
L 112.250852 79.543491 
L 112.250852 83.181119 
L 113.77267 83.181119 
L 113.77267 86.864487 
L 115.294489 86.864487 
L 115.294489 88.215331 
L 116.816307 88.215331 
L 116.816307 94.188558 
L 118.338125 94.188558 
L 118.338125 103.044308 
L 119.859943 103.044308 
L 119.859943 105.680228 
L 121.381761 105.680228 
L 121.381761 109.040284 
L 122.90358 109.040284 
L 122.90358 117.615577 
L 124.425398 117.615577 
L 124.425398 120.853453 
L 125.947216 120.853453 
L 125.947216 126.648206 
L 127.469034 126.648206 
L 127.469034 135.802101 
L 128.990852 135.802101 
L 128.990852 141.773889 
L 130.51267 141.773889 
L 130.51267 146.930113 
L 132.034489 146.930113 
L 132.034489 151.232496 
L 133.556307 151.232496 
L 133.556307 156.961051 
L 135.078125 156.961051 
L 135.078125 157.185528 
L 136.599943 157.185528 
L 136.599943 155.516187 
L 138.121761 155.516187 
L 138.121761 154.569893 
L 139.64358 154.569893 
L 139.64358 150.736708 
L 142.687216 150.73756 
L 142.687216 144.7447 
L 144.209034 144.7447 
L 144.209034 143.850179 
L 145.730852 143.850179 
L 145.730852 141.077529 
L 147.25267 141.077529 
L 147.25267 137.096347 
L 148.774489 137.096347 
L 148.774489 139.501425 
L 150.296307 139.501425 
L 150.296307 137.505141 
L 151.818125 137.505141 
L 151.818125 135.282673 
L 153.339943 135.282673 
L 153.339943 134.252894 
L 154.861761 134.252894 
L 154.861761 130.846065 
L 156.38358 130.846065 
L 156.38358 135.593187 
L 157.905398 135.593187 
L 157.905398 132.706883 
L 159.427216 132.706883 
L 159.427216 133.945648 
L 160.949034 133.945648 
L 160.949034 133.316329 
L 162.470852 133.316329 
L 162.470852 138.292842 
L 163.99267 138.292842 
L 163.99267 137.401473 
L 165.514489 137.401473 
L 165.514489 139.932855 
L 167.036307 139.932855 
L 167.036307 138.646959 
L 168.558125 138.646959 
L 168.558125 137.235001 
L 170.079943 137.235001 
L 170.079943 143.183958 
L 171.601761 143.183958 
L 171.601761 143.511944 
L 173.12358 143.511944 
L 173.12358 146.102588 
L 174.645398 146.102588 
L 174.645398 144.586487 
L 176.167216 144.586487 
L 176.167216 154.551576 
L 177.689034 154.551576 
L 177.689034 149.921881 
L 179.210852 149.921881 
L 179.210852 152.580663 
L 180.73267 152.580663 
L 180.73267 156.525241 
L 182.254489 156.525241 
L 182.254489 160.903331 
L 183.776307 160.903331 
L 183.776307 157.480756 
L 185.298125 157.480756 
L 185.298125 158.724901 
L 186.819943 158.724901 
L 186.819943 159.261757 
L 188.341761 159.261757 
L 188.341761 160.859727 
L 189.86358 160.859727 
L 189.86358 158.232123 
L 191.385398 158.232123 
L 191.385398 160.087269 
L 192.907216 160.087269 
L 192.907216 158.188448 
L 194.429034 158.188448 
L 194.429034 160.671642 
L 195.950852 160.671642 
L 195.950852 157.818787 
L 197.47267 157.818787 
L 197.47267 158.618775 
L 198.994489 158.618775 
L 198.994489 161.649674 
L 200.516307 161.649674 
L 200.516307 156.158283 
L 202.038125 156.158283 
L 202.038125 156.853362 
L 203.559943 156.853362 
L 203.559943 158.934657 
L 205.081761 158.934657 
L 205.081761 154.034531 
L 206.60358 154.034531 
L 206.60358 153.158117 
L 208.125398 153.158117 
L 208.125398 149.342514 
L 209.647216 149.342514 
L 209.647216 156.484932 
L 212.690852 156.48337 
L 212.690852 153.998254 
L 214.21267 153.998254 
L 214.21267 154.346684 
L 215.734489 154.346684 
L 215.734489 150.814496 
L 217.256307 150.814496 
L 217.256307 156.86417 
L 218.778125 156.86417 
L 218.778125 155.44069 
L 220.299943 155.44069 
L 220.299943 152.613362 
L 221.821761 152.613362 
L 221.821761 153.174756 
L 223.34358 153.174756 
L 223.34358 155.721733 
L 224.865398 155.721733 
L 224.865398 157.555447 
L 226.387216 157.555447 
L 226.387216 151.593473 
L 227.909034 151.593473 
L 227.909034 159.199724 
L 229.430852 159.199724 
L 229.430852 157.522681 
L 230.95267 157.522681 
L 230.95267 159.101514 
L 232.474489 159.101514 
L 232.474489 157.49801 
L 233.996307 157.49801 
L 233.996307 158.493149 
L 235.518125 158.493149 
L 235.518125 162.123265 
L 237.039943 162.123265 
L 237.039943 158.243854 
L 238.561761 158.243854 
L 238.561761 161.487443 
L 240.08358 161.487443 
L 240.08358 159.482138 
L 241.605398 159.482138 
L 241.605398 160.224345 
L 243.127216 160.224345 
L 243.127216 158.489057 
L 244.649034 158.489057 
L 244.649034 161.626713 
L 246.170852 161.626713 
L 246.170852 162.786538 
L 247.69267 162.786538 
L 247.69267 160.208625 
L 249.214489 160.208625 
L 249.214489 164.214873 
L 250.736307 164.214873 
L 250.736307 159.567617 
L 252.258125 159.567617 
L 252.258125 162.69581 
L 253.779943 162.69581 
L 253.779943 157.650703 
L 255.301761 157.650703 
L 255.301761 159.282399 
L 256.82358 159.282399 
L 256.82358 161.225097 
L 258.345398 161.225097 
L 258.345398 159.00199 
L 259.867216 159.00199 
L 259.867216 161.843582 
L 261.389034 161.843582 
L 261.389034 157.014572 
L 262.910852 157.014572 
L 262.910852 158.872922 
L 264.43267 158.872922 
L 264.43267 157.288938 
L 265.954489 157.288938 
L 265.954489 153.99296 
L 267.476307 153.99296 
L 267.476307 155.941726 
L 268.998125 155.941726 
L 268.998125 161.026289 
L 270.519943 161.026289 
L 270.519943 159.090464 
L 272.041761 159.090464 
L 272.041761 161.7508 
L 273.56358 161.7508 
L 273.56358 162.779137 
L 275.085398 162.779137 
L 275.085398 163.653794 
L 276.607216 163.653794 
L 276.607216 159.946722 
L 278.129034 159.946722 
L 278.129034 159.806534 
L 279.650852 159.806534 
L 279.650852 165.235572 
L 281.17267 165.235572 
L 281.17267 159.363982 
L 282.694489 159.363982 
L 282.694489 154.961101 
L 284.216307 154.961101 
L 284.216307 163.892825 
L 285.738125 163.892825 
L 285.738125 157.056779 
L 287.259943 157.056779 
L 287.259943 159.948298 
L 288.781761 159.948298 
L 288.781761 161.709214 
L 290.30358 161.709214 
L 290.30358 157.461528 
L 291.825398 157.461528 
L 291.825398 155.17556 
L 293.347216 155.17556 
L 293.347216 159.346014 
L 294.869034 159.346014 
L 294.869034 157.072118 
L 296.390852 157.072118 
L 296.390852 160.514849 
L 297.91267 160.514849 
L 297.91267 161.604086 
L 299.434489 161.604086 
L 299.434489 159.237682 
L 302.478125 159.288026 
L 302.478125 160.094584 
L 303.999943 160.094584 
L 303.999943 161.639055 
L 305.521761 161.639055 
L 305.521761 162.459154 
L 307.04358 162.459154 
L 307.04358 159.974777 
L 308.565398 159.974777 
L 308.565398 160.491005 
L 310.087216 160.491005 
L 310.087216 157.678014 
L 311.609034 157.678014 
L 311.609034 169.445339 
L 313.130852 169.445339 
L 313.130852 161.122076 
L 314.65267 161.122076 
L 314.65267 165.333752 
L 316.174489 165.333752 
L 316.174489 169.124627 
L 317.696307 169.124627 
L 317.696307 151.436627 
L 319.218125 151.436627 
L 319.218125 158.542236 
L 320.739943 158.542236 
L 320.739943 164.572265 
L 322.261761 164.572265 
L 322.261761 164.732155 
L 323.78358 164.732155 
L 323.78358 159.250868 
L 325.305398 159.250868 
L 325.305398 165.514653 
L 326.827216 165.514653 
L 326.827216 166.421508 
L 328.349034 166.421508 
L 328.349034 145.869747 
L 329.870852 145.869747 
L 329.870852 161.003638 
L 331.39267 161.003638 
L 331.39267 155.943765 
L 332.914489 155.943765 
L 332.914489 147.7118 
L 334.436307 147.7118 
L 334.436307 150.917071 
L 335.958125 150.917071 
L 335.958125 158.042329 
L 337.479943 158.042329 
L 337.479943 158.960811 
L 339.001761 158.960811 
L 339.001761 153.737076 
L 340.52358 153.737076 
L 340.52358 166.010579 
L 342.045398 166.010579 
L 342.045398 177.713601 
L 343.567216 177.713601 
L 343.567216 145.299459 
L 345.089034 145.299459 
L 345.089034 163.323083 
L 346.610852 163.323083 
L 346.610852 157.420439 
L 348.13267 157.420439 
L 348.13267 174.257711 
L 349.654489 174.257711 
L 349.654489 138.708566 
L 351.176307 138.708566 
L 351.176307 142.599948 
L 352.698125 142.599948 
L 352.698125 182.223007 
L 354.219943 182.223007 
L 354.219943 177.539972 
L 355.741761 177.539972 
L 355.741761 198.93628 
L 357.26358 198.93628 
L 357.26358 175.760396 
L 358.785398 175.760396 
L 358.785398 212.185427 
L 360.307216 212.185427 
L 360.307216 224.964697 
L 361.829034 224.964697 
L 361.829034 188.505375 
L 363.350852 188.505375 
L 363.350852 194.350182 
L 364.87267 194.350182 
L 364.87267 168.650291 
L 366.394489 168.650291 
L 366.394489 174.595947 
L 367.916307 174.595947 
L 367.916307 132.195342 
L 369.438125 132.195342 
L 369.438125 174.937136 
L 370.959943 174.937136 
L 370.959943 174.937136 
" clip-path="url(#p624682e884)" style="fill: none; stroke: #1f77b4; stroke-width: 1.5; stroke-linecap: square"/>
   </g>
   <g id="LineCollection_1">
    <path d="M 67.357216 28.467024 
L 67.357216 27.203716 
" clip-path="url(#p624682e884)" style="fill: none; stroke: #1f77b4; stroke-width: 1.5"/>
    <path d="M 68.879034 27.958406 
L 68.879034 26.904918 
" clip-path="url(#p624682e884)" style="fill: none; stroke: #1f77b4; stroke-width: 1.5"/>
    <path d="M 70.400852 29.893478 
L 70.400852 28.864149 
" clip-path="url(#p624682e884)" style="fill: none; stroke: #1f77b4; stroke-width: 1.5"/>
    <path d="M 71.92267 30.266795 
L 71.92267 29.229 
" clip-path="url(#p624682e884)" style="fill: none; stroke: #1f77b4; stroke-width: 1.5"/>
    <path d="M 73.444489 30.462631 
L 73.444489 29.42259 
" clip-path="url(#p624682e884)" style="fill: none; stroke: #1f77b4; stroke-width: 1.5"/>
    <path d="M 74.966307 30.608926 
L 74.966307 29.538622 
" clip-path="url(#p624682e884)" style="fill: none; stroke: #1f77b4; stroke-width: 1.5"/>
    <path d="M 76.488125 32.088825 
L 76.488125 31.04109 
" clip-path="url(#p624682e884)" style="fill: none; stroke: #1f77b4; stroke-width: 1.5"/>
    <path d="M 78.009943 31.82551 
L 78.009943 30.741005 
" clip-path="url(#p624682e884)" style="fill: none; stroke: #1f77b4; stroke-width: 1.5"/>
    <path d="M 79.531761 32.988269 
L 79.531761 31.892887 
" clip-path="url(#p624682e884)" style="fill: none; stroke: #1f77b4; stroke-width: 1.5"/>
    <path d="M 81.05358 32.727496 
L 81.05358 31.636061 
" clip-path="url(#p624682e884)" style="fill: none; stroke: #1f77b4; stroke-width: 1.5"/>
    <path d="M 82.575398 36.236365 
L 82.575398 35.16863 
" clip-path="url(#p624682e884)" style="fill: none; stroke: #1f77b4; stroke-width: 1.5"/>
    <path d="M 84.097216 36.343633 
L 84.097216 35.246783 
" clip-path="url(#p624682e884)" style="fill: none; stroke: #1f77b4; stroke-width: 1.5"/>
    <path d="M 85.619034 38.730924 
L 85.619034 37.623259 
" clip-path="url(#p624682e884)" style="fill: none; stroke: #1f77b4; stroke-width: 1.5"/>
    <path d="M 87.140852 39.614747 
L 87.140852 38.50933 
" clip-path="url(#p624682e884)" style="fill: none; stroke: #1f77b4; stroke-width: 1.5"/>
    <path d="M 88.66267 40.90927 
L 88.66267 39.763921 
" clip-path="url(#p624682e884)" style="fill: none; stroke: #1f77b4; stroke-width: 1.5"/>
    <path d="M 90.184489 41.724336 
L 90.184489 40.586957 
" clip-path="url(#p624682e884)" style="fill: none; stroke: #1f77b4; stroke-width: 1.5"/>
    <path d="M 91.706307 44.802869 
L 91.706307 43.653503 
" clip-path="url(#p624682e884)" style="fill: none; stroke: #1f77b4; stroke-width: 1.5"/>
    <path d="M 93.228125 47.124086 
L 93.228125 45.945867 
" clip-path="url(#p624682e884)" style="fill: none; stroke: #1f77b4; stroke-width: 1.5"/>
    <path d="M 94.749943 48.752659 
L 94.749943 47.52019 
" clip-path="url(#p624682e884)" style="fill: none; stroke: #1f77b4; stroke-width: 1.5"/>
    <path d="M 96.271761 50.684233 
L 96.271761 49.423666 
" clip-path="url(#p624682e884)" style="fill: none; stroke: #1f77b4; stroke-width: 1.5"/>
    <path d="M 97.79358 51.433448 
L 97.79358 50.04752 
" clip-path="url(#p624682e884)" style="fill: none; stroke: #1f77b4; stroke-width: 1.5"/>
    <path d="M 99.315398 55.691635 
L 99.315398 54.147167 
" clip-path="url(#p624682e884)" style="fill: none; stroke: #1f77b4; stroke-width: 1.5"/>
    <path d="M 100.837216 57.634693 
L 100.837216 56.022577 
" clip-path="url(#p624682e884)" style="fill: none; stroke: #1f77b4; stroke-width: 1.5"/>
    <path d="M 102.359034 62.747016 
L 102.359034 60.799884 
" clip-path="url(#p624682e884)" style="fill: none; stroke: #1f77b4; stroke-width: 1.5"/>
    <path d="M 103.880852 65.142676 
L 103.880852 62.88505 
" clip-path="url(#p624682e884)" style="fill: none; stroke: #1f77b4; stroke-width: 1.5"/>
    <path d="M 105.40267 63.42914 
L 105.40267 61.037911 
" clip-path="url(#p624682e884)" style="fill: none; stroke: #1f77b4; stroke-width: 1.5"/>
    <path d="M 106.924489 70.770159 
L 106.924489 68.222823 
" clip-path="url(#p624682e884)" style="fill: none; stroke: #1f77b4; stroke-width: 1.5"/>
    <path d="M 108.446307 73.141848 
L 108.446307 70.580842 
" clip-path="url(#p624682e884)" style="fill: none; stroke: #1f77b4; stroke-width: 1.5"/>
    <path d="M 109.968125 75.901239 
L 109.968125 73.49717 
" clip-path="url(#p624682e884)" style="fill: none; stroke: #1f77b4; stroke-width: 1.5"/>
    <path d="M 111.489943 80.662322 
L 111.489943 78.47435 
" clip-path="url(#p624682e884)" style="fill: none; stroke: #1f77b4; stroke-width: 1.5"/>
    <path d="M 113.011761 84.274544 
L 113.011761 82.1352 
" clip-path="url(#p624682e884)" style="fill: none; stroke: #1f77b4; stroke-width: 1.5"/>
    <path d="M 114.53358 87.945941 
L 114.53358 85.829525 
" clip-path="url(#p624682e884)" style="fill: none; stroke: #1f77b4; stroke-width: 1.5"/>
    <path d="M 116.055398 89.265953 
L 116.055398 87.208642 
" clip-path="url(#p624682e884)" style="fill: none; stroke: #1f77b4; stroke-width: 1.5"/>
    <path d="M 117.577216 95.306357 
L 117.577216 93.120359 
" clip-path="url(#p624682e884)" style="fill: none; stroke: #1f77b4; stroke-width: 1.5"/>
    <path d="M 119.099034 104.252795 
L 119.099034 101.89359 
" clip-path="url(#p624682e884)" style="fill: none; stroke: #1f77b4; stroke-width: 1.5"/>
    <path d="M 120.620852 106.943696 
L 120.620852 104.479769 
" clip-path="url(#p624682e884)" style="fill: none; stroke: #1f77b4; stroke-width: 1.5"/>
    <path d="M 122.14267 110.357107 
L 122.14267 107.79176 
" clip-path="url(#p624682e884)" style="fill: none; stroke: #1f77b4; stroke-width: 1.5"/>
    <path d="M 123.664489 119.151802 
L 123.664489 116.171518 
" clip-path="url(#p624682e884)" style="fill: none; stroke: #1f77b4; stroke-width: 1.5"/>
    <path d="M 125.186307 122.480541 
L 125.186307 119.329394 
" clip-path="url(#p624682e884)" style="fill: none; stroke: #1f77b4; stroke-width: 1.5"/>
    <path d="M 126.708125 128.525851 
L 126.708125 124.906455 
" clip-path="url(#p624682e884)" style="fill: none; stroke: #1f77b4; stroke-width: 1.5"/>
    <path d="M 128.229943 138.01227 
L 128.229943 133.777866 
" clip-path="url(#p624682e884)" style="fill: none; stroke: #1f77b4; stroke-width: 1.5"/>
    <path d="M 129.751761 144.334329 
L 129.751761 139.459751 
" clip-path="url(#p624682e884)" style="fill: none; stroke: #1f77b4; stroke-width: 1.5"/>
    <path d="M 131.27358 149.723212 
L 131.27358 144.42761 
" clip-path="url(#p624682e884)" style="fill: none; stroke: #1f77b4; stroke-width: 1.5"/>
    <path d="M 132.795398 154.311204 
L 132.795398 148.5032 
" clip-path="url(#p624682e884)" style="fill: none; stroke: #1f77b4; stroke-width: 1.5"/>
    <path d="M 134.317216 160.403995 
L 134.317216 153.949401 
" clip-path="url(#p624682e884)" style="fill: none; stroke: #1f77b4; stroke-width: 1.5"/>
    <path d="M 135.839034 160.652443 
L 135.839034 154.155561 
" clip-path="url(#p624682e884)" style="fill: none; stroke: #1f77b4; stroke-width: 1.5"/>
    <path d="M 137.360852 158.850888 
L 137.360852 152.587657 
" clip-path="url(#p624682e884)" style="fill: none; stroke: #1f77b4; stroke-width: 1.5"/>
    <path d="M 138.88267 157.836385 
L 138.88267 151.694081 
" clip-path="url(#p624682e884)" style="fill: none; stroke: #1f77b4; stroke-width: 1.5"/>
    <path d="M 140.404489 153.753484 
L 140.404489 148.05618 
" clip-path="url(#p624682e884)" style="fill: none; stroke: #1f77b4; stroke-width: 1.5"/>
    <path d="M 141.926307 153.767535 
L 141.926307 148.046619 
" clip-path="url(#p624682e884)" style="fill: none; stroke: #1f77b4; stroke-width: 1.5"/>
    <path d="M 143.448125 147.398196 
L 143.448125 142.354825 
" clip-path="url(#p624682e884)" style="fill: none; stroke: #1f77b4; stroke-width: 1.5"/>
    <path d="M 144.969943 146.447048 
L 144.969943 141.506328 
" clip-path="url(#p624682e884)" style="fill: none; stroke: #1f77b4; stroke-width: 1.5"/>
    <path d="M 146.491761 143.541531 
L 146.491761 138.842441 
" clip-path="url(#p624682e884)" style="fill: none; stroke: #1f77b4; stroke-width: 1.5"/>
    <path d="M 148.01358 139.360277 
L 148.01358 135.027112 
" clip-path="url(#p624682e884)" style="fill: none; stroke: #1f77b4; stroke-width: 1.5"/>
    <path d="M 149.535398 141.840971 
L 149.535398 137.369212 
" clip-path="url(#p624682e884)" style="fill: none; stroke: #1f77b4; stroke-width: 1.5"/>
    <path d="M 151.057216 139.804625 
L 151.057216 135.40625 
" clip-path="url(#p624682e884)" style="fill: none; stroke: #1f77b4; stroke-width: 1.5"/>
    <path d="M 152.579034 137.444984 
L 152.579034 133.29865 
" clip-path="url(#p624682e884)" style="fill: none; stroke: #1f77b4; stroke-width: 1.5"/>
    <path d="M 154.100852 136.360674 
L 154.100852 132.314873 
" clip-path="url(#p624682e884)" style="fill: none; stroke: #1f77b4; stroke-width: 1.5"/>
    <path d="M 155.62267 132.834885 
L 155.62267 129.009064 
" clip-path="url(#p624682e884)" style="fill: none; stroke: #1f77b4; stroke-width: 1.5"/>
    <path d="M 157.144489 137.785931 
L 157.144489 133.583577 
" clip-path="url(#p624682e884)" style="fill: none; stroke: #1f77b4; stroke-width: 1.5"/>
    <path d="M 158.666307 134.773688 
L 158.666307 130.803553 
" clip-path="url(#p624682e884)" style="fill: none; stroke: #1f77b4; stroke-width: 1.5"/>
    <path d="M 160.188125 136.074615 
L 160.188125 131.98973 
" clip-path="url(#p624682e884)" style="fill: none; stroke: #1f77b4; stroke-width: 1.5"/>
    <path d="M 161.709943 135.479889 
L 161.709943 131.331255 
" clip-path="url(#p624682e884)" style="fill: none; stroke: #1f77b4; stroke-width: 1.5"/>
    <path d="M 163.231761 140.613658 
L 163.231761 136.176195 
" clip-path="url(#p624682e884)" style="fill: none; stroke: #1f77b4; stroke-width: 1.5"/>
    <path d="M 164.75358 139.669796 
L 164.75358 135.328569 
" clip-path="url(#p624682e884)" style="fill: none; stroke: #1f77b4; stroke-width: 1.5"/>
    <path d="M 166.275398 142.310903 
L 166.275398 137.768712 
" clip-path="url(#p624682e884)" style="fill: none; stroke: #1f77b4; stroke-width: 1.5"/>
    <path d="M 167.797216 140.918147 
L 167.797216 136.571665 
" clip-path="url(#p624682e884)" style="fill: none; stroke: #1f77b4; stroke-width: 1.5"/>
    <path d="M 169.319034 139.545942 
L 169.319034 135.12657 
" clip-path="url(#p624682e884)" style="fill: none; stroke: #1f77b4; stroke-width: 1.5"/>
    <path d="M 170.840852 145.692668 
L 170.840852 140.912151 
" clip-path="url(#p624682e884)" style="fill: none; stroke: #1f77b4; stroke-width: 1.5"/>
    <path d="M 172.36267 146.155386 
L 172.36267 141.130227 
" clip-path="url(#p624682e884)" style="fill: none; stroke: #1f77b4; stroke-width: 1.5"/>
    <path d="M 173.884489 148.789897 
L 173.884489 143.685327 
" clip-path="url(#p624682e884)" style="fill: none; stroke: #1f77b4; stroke-width: 1.5"/>
    <path d="M 175.406307 147.337267 
L 175.406307 142.118002 
" clip-path="url(#p624682e884)" style="fill: none; stroke: #1f77b4; stroke-width: 1.5"/>
    <path d="M 176.928125 157.834372 
L 176.928125 151.66314 
" clip-path="url(#p624682e884)" style="fill: none; stroke: #1f77b4; stroke-width: 1.5"/>
    <path d="M 178.449943 152.918872 
L 178.449943 147.256981 
" clip-path="url(#p624682e884)" style="fill: none; stroke: #1f77b4; stroke-width: 1.5"/>
    <path d="M 179.971761 155.722588 
L 179.971761 149.801814 
" clip-path="url(#p624682e884)" style="fill: none; stroke: #1f77b4; stroke-width: 1.5"/>
    <path d="M 181.49358 159.884236 
L 181.49358 153.577999 
" clip-path="url(#p624682e884)" style="fill: none; stroke: #1f77b4; stroke-width: 1.5"/>
    <path d="M 183.015398 164.63206 
L 183.015398 157.675366 
" clip-path="url(#p624682e884)" style="fill: none; stroke: #1f77b4; stroke-width: 1.5"/>
    <path d="M 184.537216 160.948869 
L 184.537216 154.449875 
" clip-path="url(#p624682e884)" style="fill: none; stroke: #1f77b4; stroke-width: 1.5"/>
    <path d="M 186.059034 162.307121 
L 186.059034 155.607268 
" clip-path="url(#p624682e884)" style="fill: none; stroke: #1f77b4; stroke-width: 1.5"/>
    <path d="M 187.580852 162.87158 
L 187.580852 156.123246 
" clip-path="url(#p624682e884)" style="fill: none; stroke: #1f77b4; stroke-width: 1.5"/>
    <path d="M 189.10267 164.738386 
L 189.10267 157.520064 
" clip-path="url(#p624682e884)" style="fill: none; stroke: #1f77b4; stroke-width: 1.5"/>
    <path d="M 190.624489 161.762858 
L 190.624489 155.153543 
" clip-path="url(#p624682e884)" style="fill: none; stroke: #1f77b4; stroke-width: 1.5"/>
    <path d="M 192.146307 163.766677 
L 192.146307 156.896315 
" clip-path="url(#p624682e884)" style="fill: none; stroke: #1f77b4; stroke-width: 1.5"/>
    <path d="M 193.668125 161.697532 
L 193.668125 155.126333 
" clip-path="url(#p624682e884)" style="fill: none; stroke: #1f77b4; stroke-width: 1.5"/>
    <path d="M 195.189943 164.381887 
L 195.189943 157.457532 
" clip-path="url(#p624682e884)" style="fill: none; stroke: #1f77b4; stroke-width: 1.5"/>
    <path d="M 196.711761 161.3522 
L 196.711761 154.738171 
" clip-path="url(#p624682e884)" style="fill: none; stroke: #1f77b4; stroke-width: 1.5"/>
    <path d="M 198.23358 162.181889 
L 198.23358 155.515617 
" clip-path="url(#p624682e884)" style="fill: none; stroke: #1f77b4; stroke-width: 1.5"/>
    <path d="M 199.755398 165.472463 
L 199.755398 158.351492 
" clip-path="url(#p624682e884)" style="fill: none; stroke: #1f77b4; stroke-width: 1.5"/>
    <path d="M 201.277216 159.589522 
L 201.277216 153.15559 
" clip-path="url(#p624682e884)" style="fill: none; stroke: #1f77b4; stroke-width: 1.5"/>
    <path d="M 202.799034 160.344225 
L 202.799034 153.805126 
" clip-path="url(#p624682e884)" style="fill: none; stroke: #1f77b4; stroke-width: 1.5"/>
    <path d="M 204.320852 162.567129 
L 204.320852 155.779048 
" clip-path="url(#p624682e884)" style="fill: none; stroke: #1f77b4; stroke-width: 1.5"/>
    <path d="M 205.84267 157.338936 
L 205.84267 151.129383 
" clip-path="url(#p624682e884)" style="fill: none; stroke: #1f77b4; stroke-width: 1.5"/>
    <path d="M 207.364489 156.367883 
L 207.364489 150.326351 
" clip-path="url(#p624682e884)" style="fill: none; stroke: #1f77b4; stroke-width: 1.5"/>
    <path d="M 208.886307 152.225729 
L 208.886307 146.767929 
" clip-path="url(#p624682e884)" style="fill: none; stroke: #1f77b4; stroke-width: 1.5"/>
    <path d="M 210.408125 159.860113 
L 210.408125 153.525241 
" clip-path="url(#p624682e884)" style="fill: none; stroke: #1f77b4; stroke-width: 1.5"/>
    <path d="M 211.929943 159.889936 
L 211.929943 153.499581 
" clip-path="url(#p624682e884)" style="fill: none; stroke: #1f77b4; stroke-width: 1.5"/>
    <path d="M 213.451761 157.316429 
L 213.451761 151.082473 
" clip-path="url(#p624682e884)" style="fill: none; stroke: #1f77b4; stroke-width: 1.5"/>
    <path d="M 214.97358 157.542436 
L 214.97358 151.525827 
" clip-path="url(#p624682e884)" style="fill: none; stroke: #1f77b4; stroke-width: 1.5"/>
    <path d="M 216.495398 153.850762 
L 216.495398 148.118597 
" clip-path="url(#p624682e884)" style="fill: none; stroke: #1f77b4; stroke-width: 1.5"/>
    <path d="M 218.017216 160.256963 
L 218.017216 153.89095 
" clip-path="url(#p624682e884)" style="fill: none; stroke: #1f77b4; stroke-width: 1.5"/>
    <path d="M 219.539034 158.709028 
L 219.539034 152.563448 
" clip-path="url(#p624682e884)" style="fill: none; stroke: #1f77b4; stroke-width: 1.5"/>
    <path d="M 221.060852 155.771327 
L 221.060852 149.821977 
" clip-path="url(#p624682e884)" style="fill: none; stroke: #1f77b4; stroke-width: 1.5"/>
    <path d="M 222.58267 156.409437 
L 222.58267 150.323621 
" clip-path="url(#p624682e884)" style="fill: none; stroke: #1f77b4; stroke-width: 1.5"/>
    <path d="M 224.104489 159.046217 
L 224.104489 152.801082 
" clip-path="url(#p624682e884)" style="fill: none; stroke: #1f77b4; stroke-width: 1.5"/>
    <path d="M 225.626307 161.03669 
L 225.626307 154.514545 
" clip-path="url(#p624682e884)" style="fill: none; stroke: #1f77b4; stroke-width: 1.5"/>
    <path d="M 227.148125 154.728259 
L 227.148125 148.82021 
" clip-path="url(#p624682e884)" style="fill: none; stroke: #1f77b4; stroke-width: 1.5"/>
    <path d="M 228.669943 162.727996 
L 228.669943 156.123015 
" clip-path="url(#p624682e884)" style="fill: none; stroke: #1f77b4; stroke-width: 1.5"/>
    <path d="M 230.191761 161.10256 
L 230.191761 154.40682 
" clip-path="url(#p624682e884)" style="fill: none; stroke: #1f77b4; stroke-width: 1.5"/>
    <path d="M 231.71358 162.719628 
L 231.71358 155.956741 
" clip-path="url(#p624682e884)" style="fill: none; stroke: #1f77b4; stroke-width: 1.5"/>
    <path d="M 233.235398 161.016517 
L 233.235398 154.428726 
" clip-path="url(#p624682e884)" style="fill: none; stroke: #1f77b4; stroke-width: 1.5"/>
    <path d="M 234.757216 162.080372 
L 234.757216 155.371728 
" clip-path="url(#p624682e884)" style="fill: none; stroke: #1f77b4; stroke-width: 1.5"/>
    <path d="M 236.279034 166.037515 
L 236.279034 158.757264 
" clip-path="url(#p624682e884)" style="fill: none; stroke: #1f77b4; stroke-width: 1.5"/>
    <path d="M 237.800852 161.747421 
L 237.800852 155.18594 
" clip-path="url(#p624682e884)" style="fill: none; stroke: #1f77b4; stroke-width: 1.5"/>
    <path d="M 239.32267 165.300941 
L 239.32267 158.196176 
" clip-path="url(#p624682e884)" style="fill: none; stroke: #1f77b4; stroke-width: 1.5"/>
    <path d="M 240.844489 163.161951 
L 240.844489 156.29088 
" clip-path="url(#p624682e884)" style="fill: none; stroke: #1f77b4; stroke-width: 1.5"/>
    <path d="M 242.366307 163.970216 
L 242.366307 156.983548 
" clip-path="url(#p624682e884)" style="fill: none; stroke: #1f77b4; stroke-width: 1.5"/>
    <path d="M 243.888125 162.162704 
L 243.888125 155.302435 
" clip-path="url(#p624682e884)" style="fill: none; stroke: #1f77b4; stroke-width: 1.5"/>
    <path d="M 245.409943 165.424867 
L 245.409943 158.346876 
" clip-path="url(#p624682e884)" style="fill: none; stroke: #1f77b4; stroke-width: 1.5"/>
    <path d="M 246.931761 166.764616 
L 246.931761 159.373473 
" clip-path="url(#p624682e884)" style="fill: none; stroke: #1f77b4; stroke-width: 1.5"/>
    <path d="M 248.45358 163.890231 
L 248.45358 157.016018 
" clip-path="url(#p624682e884)" style="fill: none; stroke: #1f77b4; stroke-width: 1.5"/>
    <path d="M 249.975398 168.212259 
L 249.975398 160.787612 
" clip-path="url(#p624682e884)" style="fill: none; stroke: #1f77b4; stroke-width: 1.5"/>
    <path d="M 251.497216 163.149535 
L 251.497216 156.450213 
" clip-path="url(#p624682e884)" style="fill: none; stroke: #1f77b4; stroke-width: 1.5"/>
    <path d="M 253.019034 166.536038 
L 253.019034 159.384663 
" clip-path="url(#p624682e884)" style="fill: none; stroke: #1f77b4; stroke-width: 1.5"/>
    <path d="M 254.540852 161.27461 
L 254.540852 154.501557 
" clip-path="url(#p624682e884)" style="fill: none; stroke: #1f77b4; stroke-width: 1.5"/>
    <path d="M 256.06267 162.943635 
L 256.06267 156.105114 
" clip-path="url(#p624682e884)" style="fill: none; stroke: #1f77b4; stroke-width: 1.5"/>
    <path d="M 257.584489 165.002671 
L 257.584489 157.960609 
" clip-path="url(#p624682e884)" style="fill: none; stroke: #1f77b4; stroke-width: 1.5"/>
    <path d="M 259.106307 162.650716 
L 259.106307 155.834127 
" clip-path="url(#p624682e884)" style="fill: none; stroke: #1f77b4; stroke-width: 1.5"/>
    <path d="M 260.628125 165.758296 
L 260.628125 158.477238 
" clip-path="url(#p624682e884)" style="fill: none; stroke: #1f77b4; stroke-width: 1.5"/>
    <path d="M 262.149943 160.475462 
L 262.149943 153.989206 
" clip-path="url(#p624682e884)" style="fill: none; stroke: #1f77b4; stroke-width: 1.5"/>
    <path d="M 263.671761 162.458867 
L 263.671761 155.75247 
" clip-path="url(#p624682e884)" style="fill: none; stroke: #1f77b4; stroke-width: 1.5"/>
    <path d="M 265.19358 160.798557 
L 265.19358 154.226416 
" clip-path="url(#p624682e884)" style="fill: none; stroke: #1f77b4; stroke-width: 1.5"/>
    <path d="M 266.715398 157.263814 
L 266.715398 151.113768 
" clip-path="url(#p624682e884)" style="fill: none; stroke: #1f77b4; stroke-width: 1.5"/>
    <path d="M 268.237216 159.415617 
L 268.237216 152.906434 
" clip-path="url(#p624682e884)" style="fill: none; stroke: #1f77b4; stroke-width: 1.5"/>
    <path d="M 269.759034 164.749426 
L 269.759034 157.802513 
" clip-path="url(#p624682e884)" style="fill: none; stroke: #1f77b4; stroke-width: 1.5"/>
    <path d="M 271.280852 162.72778 
L 271.280852 155.931202 
" clip-path="url(#p624682e884)" style="fill: none; stroke: #1f77b4; stroke-width: 1.5"/>
    <path d="M 272.80267 165.579915 
L 272.80267 158.447912 
" clip-path="url(#p624682e884)" style="fill: none; stroke: #1f77b4; stroke-width: 1.5"/>
    <path d="M 274.324489 166.769118 
L 274.324489 159.357318 
" clip-path="url(#p624682e884)" style="fill: none; stroke: #1f77b4; stroke-width: 1.5"/>
    <path d="M 275.846307 167.442798 
L 275.846307 160.380778 
" clip-path="url(#p624682e884)" style="fill: none; stroke: #1f77b4; stroke-width: 1.5"/>
    <path d="M 277.368125 163.594683 
L 277.368125 156.779436 
" clip-path="url(#p624682e884)" style="fill: none; stroke: #1f77b4; stroke-width: 1.5"/>
    <path d="M 278.889943 163.37027 
L 278.889943 156.702904 
" clip-path="url(#p624682e884)" style="fill: none; stroke: #1f77b4; stroke-width: 1.5"/>
    <path d="M 280.411761 169.416437 
L 280.411761 161.674405 
" clip-path="url(#p624682e884)" style="fill: none; stroke: #1f77b4; stroke-width: 1.5"/>
    <path d="M 281.93358 163.083006 
L 281.93358 156.14329 
" clip-path="url(#p624682e884)" style="fill: none; stroke: #1f77b4; stroke-width: 1.5"/>
    <path d="M 283.455398 158.277497 
L 283.455398 152.046694 
" clip-path="url(#p624682e884)" style="fill: none; stroke: #1f77b4; stroke-width: 1.5"/>
    <path d="M 284.977216 167.95113 
L 284.977216 160.42091 
" clip-path="url(#p624682e884)" style="fill: none; stroke: #1f77b4; stroke-width: 1.5"/>
    <path d="M 286.499034 160.560164 
L 286.499034 153.999004 
" clip-path="url(#p624682e884)" style="fill: none; stroke: #1f77b4; stroke-width: 1.5"/>
    <path d="M 288.020852 163.679867 
L 288.020852 156.718207 
" clip-path="url(#p624682e884)" style="fill: none; stroke: #1f77b4; stroke-width: 1.5"/>
    <path d="M 289.54267 165.606949 
L 289.54267 158.355427 
" clip-path="url(#p624682e884)" style="fill: none; stroke: #1f77b4; stroke-width: 1.5"/>
    <path d="M 291.064489 160.971086 
L 291.064489 154.399053 
" clip-path="url(#p624682e884)" style="fill: none; stroke: #1f77b4; stroke-width: 1.5"/>
    <path d="M 292.586307 158.548583 
L 292.586307 152.217527 
" clip-path="url(#p624682e884)" style="fill: none; stroke: #1f77b4; stroke-width: 1.5"/>
    <path d="M 294.108125 163.084033 
L 294.108125 156.111092 
" clip-path="url(#p624682e884)" style="fill: none; stroke: #1f77b4; stroke-width: 1.5"/>
    <path d="M 295.629943 160.740697 
L 295.629943 153.889308 
" clip-path="url(#p624682e884)" style="fill: none; stroke: #1f77b4; stroke-width: 1.5"/>
    <path d="M 297.151761 164.372306 
L 297.151761 157.190907 
" clip-path="url(#p624682e884)" style="fill: none; stroke: #1f77b4; stroke-width: 1.5"/>
    <path d="M 298.67358 165.631849 
L 298.67358 158.154534 
" clip-path="url(#p624682e884)" style="fill: none; stroke: #1f77b4; stroke-width: 1.5"/>
    <path d="M 300.195398 163.199948 
L 300.195398 155.836255 
" clip-path="url(#p624682e884)" style="fill: none; stroke: #1f77b4; stroke-width: 1.5"/>
    <path d="M 301.717216 163.37542 
L 301.717216 155.794855 
" clip-path="url(#p624682e884)" style="fill: none; stroke: #1f77b4; stroke-width: 1.5"/>
    <path d="M 303.239034 164.393259 
L 303.239034 156.44836 
" clip-path="url(#p624682e884)" style="fill: none; stroke: #1f77b4; stroke-width: 1.5"/>
    <path d="M 304.760852 165.939351 
L 304.760852 157.991667 
" clip-path="url(#p624682e884)" style="fill: none; stroke: #1f77b4; stroke-width: 1.5"/>
    <path d="M 306.28267 167.166568 
L 306.28267 158.523301 
" clip-path="url(#p624682e884)" style="fill: none; stroke: #1f77b4; stroke-width: 1.5"/>
    <path d="M 307.804489 164.236436 
L 307.804489 156.355202 
" clip-path="url(#p624682e884)" style="fill: none; stroke: #1f77b4; stroke-width: 1.5"/>
    <path d="M 309.326307 164.994212 
L 309.326307 156.698801 
" clip-path="url(#p624682e884)" style="fill: none; stroke: #1f77b4; stroke-width: 1.5"/>
    <path d="M 310.848125 161.865791 
L 310.848125 154.111837 
" clip-path="url(#p624682e884)" style="fill: none; stroke: #1f77b4; stroke-width: 1.5"/>
    <path d="M 312.369943 175.080702 
L 312.369943 164.881995 
" clip-path="url(#p624682e884)" style="fill: none; stroke: #1f77b4; stroke-width: 1.5"/>
    <path d="M 313.891761 165.815742 
L 313.891761 157.195828 
" clip-path="url(#p624682e884)" style="fill: none; stroke: #1f77b4; stroke-width: 1.5"/>
    <path d="M 315.41358 170.518383 
L 315.41358 161.070138 
" clip-path="url(#p624682e884)" style="fill: none; stroke: #1f77b4; stroke-width: 1.5"/>
    <path d="M 316.935398 174.967956 
L 316.935398 164.426094 
" clip-path="url(#p624682e884)" style="fill: none; stroke: #1f77b4; stroke-width: 1.5"/>
    <path d="M 318.457216 155.600585 
L 318.457216 147.887725 
" clip-path="url(#p624682e884)" style="fill: none; stroke: #1f77b4; stroke-width: 1.5"/>
    <path d="M 319.979034 163.463457 
L 319.979034 154.458181 
" clip-path="url(#p624682e884)" style="fill: none; stroke: #1f77b4; stroke-width: 1.5"/>
    <path d="M 321.500852 170.323177 
L 321.500852 159.93357 
" clip-path="url(#p624682e884)" style="fill: none; stroke: #1f77b4; stroke-width: 1.5"/>
    <path d="M 323.02267 170.59855 
L 323.02267 160.018747 
" clip-path="url(#p624682e884)" style="fill: none; stroke: #1f77b4; stroke-width: 1.5"/>
    <path d="M 324.544489 164.644304 
L 324.544489 154.847241 
" clip-path="url(#p624682e884)" style="fill: none; stroke: #1f77b4; stroke-width: 1.5"/>
    <path d="M 326.066307 171.785007 
L 326.066307 160.544473 
" clip-path="url(#p624682e884)" style="fill: none; stroke: #1f77b4; stroke-width: 1.5"/>
    <path d="M 327.588125 173.101107 
L 327.588125 161.198246 
" clip-path="url(#p624682e884)" style="fill: none; stroke: #1f77b4; stroke-width: 1.5"/>
    <path d="M 329.109943 150.233787 
L 329.109943 142.176639 
" clip-path="url(#p624682e884)" style="fill: none; stroke: #1f77b4; stroke-width: 1.5"/>
    <path d="M 330.631761 167.405951 
L 330.631761 155.95109 
" clip-path="url(#p624682e884)" style="fill: none; stroke: #1f77b4; stroke-width: 1.5"/>
    <path d="M 332.15358 161.932123 
L 332.15358 151.152088 
" clip-path="url(#p624682e884)" style="fill: none; stroke: #1f77b4; stroke-width: 1.5"/>
    <path d="M 333.675398 153.030016 
L 333.675398 143.358377 
" clip-path="url(#p624682e884)" style="fill: none; stroke: #1f77b4; stroke-width: 1.5"/>
    <path d="M 335.197216 156.42559 
L 335.197216 146.437135 
" clip-path="url(#p624682e884)" style="fill: none; stroke: #1f77b4; stroke-width: 1.5"/>
    <path d="M 336.719034 165.173955 
L 336.719034 152.547458 
" clip-path="url(#p624682e884)" style="fill: none; stroke: #1f77b4; stroke-width: 1.5"/>
    <path d="M 338.240852 166.527737 
L 338.240852 153.211944 
" clip-path="url(#p624682e884)" style="fill: none; stroke: #1f77b4; stroke-width: 1.5"/>
    <path d="M 339.76267 160.323443 
L 339.76267 148.570858 
" clip-path="url(#p624682e884)" style="fill: none; stroke: #1f77b4; stroke-width: 1.5"/>
    <path d="M 341.284489 176.082833 
L 341.284489 158.93058 
" clip-path="url(#p624682e884)" style="fill: none; stroke: #1f77b4; stroke-width: 1.5"/>
    <path d="M 342.806307 192.203255 
L 342.806307 168.731286 
" clip-path="url(#p624682e884)" style="fill: none; stroke: #1f77b4; stroke-width: 1.5"/>
    <path d="M 344.328125 152.72459 
L 344.328125 139.632532 
" clip-path="url(#p624682e884)" style="fill: none; stroke: #1f77b4; stroke-width: 1.5"/>
    <path d="M 345.849943 175.655799 
L 345.849943 155.207436 
" clip-path="url(#p624682e884)" style="fill: none; stroke: #1f77b4; stroke-width: 1.5"/>
    <path d="M 347.371761 167.667359 
L 347.371761 150.255232 
" clip-path="url(#p624682e884)" style="fill: none; stroke: #1f77b4; stroke-width: 1.5"/>
    <path d="M 348.89358 197.919355 
L 348.89358 162.557411 
" clip-path="url(#p624682e884)" style="fill: none; stroke: #1f77b4; stroke-width: 1.5"/>
    <path d="M 350.415398 147.906279 
L 350.415398 132.069402 
" clip-path="url(#p624682e884)" style="fill: none; stroke: #1f77b4; stroke-width: 1.5"/>
    <path d="M 351.937216 155.567022 
L 351.937216 134.217993 
" clip-path="url(#p624682e884)" style="fill: none; stroke: #1f77b4; stroke-width: 1.5"/>
    <path d="M 353.459034 272.238906 
L 353.459034 163.109814 
" clip-path="url(#p624682e884)" style="fill: none; stroke: #1f77b4; stroke-width: 1.5"/>
    <path d="M 354.980852 272.238906 
L 354.980852 149.249195 
" clip-path="url(#p624682e884)" style="fill: none; stroke: #1f77b4; stroke-width: 1.5"/>
    <path d="M 356.50267 272.238906 
L 356.50267 143.397042 
" clip-path="url(#p624682e884)" style="fill: none; stroke: #1f77b4; stroke-width: 1.5"/>
    <path d="M 358.024489 272.238906 
L 358.024489 43.661907 
" clip-path="url(#p624682e884)" style="fill: none; stroke: #1f77b4; stroke-width: 1.5"/>
    <path d="M 359.546307 272.238906 
L 359.546307 65.872277 
" clip-path="url(#p624682e884)" style="fill: none; stroke: #1f77b4; stroke-width: 1.5"/>
    <path d="M 361.068125 272.238906 
L 361.068125 83.581685 
" clip-path="url(#p624682e884)" style="fill: none; stroke: #1f77b4; stroke-width: 1.5"/>
    <path d="M 362.589943 272.238906 
L 362.589943 61.982022 
" clip-path="url(#p624682e884)" style="fill: none; stroke: #1f77b4; stroke-width: 1.5"/>
    <path d="M 364.111761 272.238906 
L 364.111761 54.254344 
" clip-path="url(#p624682e884)" style="fill: none; stroke: #1f77b4; stroke-width: 1.5"/>
    <path d="M 365.63358 272.238906 
L 365.63358 32.723214 
" clip-path="url(#p624682e884)" style="fill: none; stroke: #1f77b4; stroke-width: 1.5"/>
    <path d="M 367.155398 272.238906 
L 367.155398 40.311718 
" clip-path="url(#p624682e884)" style="fill: none; stroke: #1f77b4; stroke-width: 1.5"/>
    <path d="M 368.677216 272.238906 
L 368.677216 17.36227 
" clip-path="url(#p624682e884)" style="fill: none; stroke: #1f77b4; stroke-width: 1.5"/>
    <path d="M 370.199034 272.238906 
L 370.199034 30.772769 
" clip-path="url(#p624682e884)" style="fill: none; stroke: #1f77b4; stroke-width: 1.5"/>
   </g>
  </g>
 </g>
 <defs>
  <clipPath id="p624682e884">
   <rect x="51.378125" y="10.999219" width="334.8" height="221.76"/>
  </clipPath>
 </defs>
</svg>