<?xml version="1.0" encoding="utf-8" standalone="no"?>
<!DOCTYPE svg PUBLIC "-//W3C//DTD SVG 1.1//EN"
  "http://www.w3.org/Graphics/SVG/1.1/DTD/svg11.dtd">
<svg xmlns:xlink="http://www.w3.org/1999/xlink" width="424.600188pt" height="280.132187pt" viewBox="0 0 424.600188 280.132187" xmlns="http://www.w3.org/2000/svg" version="1.1">
 <metadata>
  <rdf:RDF xmlns:dc="http://purl.org/dc/elements/1.1/" xmlns:cc="http://creativecommons.org/ns#" xmlns:rdf="http://www.w3.org/1999/02/22-rdf-syntax-ns#">
   <cc:Work>
    <dc:type rdf:resource="http://purl.org/dc/dcmitype/StillImage"/>
    <dc:date>2024-09-10T09:04:20.774597</dc:date>
    <dc:format>image/svg+xml</dc:format>
    <dc:creator>
     <cc:Agent>
      <dc:title>Matplotlib v3.9.2, https://matplotlib.org/</dc:title>
     </cc:Agent>
    </dc:creator>
   </cc:Work>
  </rdf:RDF>
 </metadata>
 <defs>
  <style type="text/css">*{stroke-linejoin: round; stroke-linecap: butt}</style>
 </defs>
 <g id="figure_1">
  <g id="patch_1">
   <path d="M 0 280.132187 
L 424.600188 280.132187 
L 424.600188 0 
L 0 0 
z
" style="fill: #ffffff"/>
  </g>
  <g id="axes_1">
   <g id="patch_2">
    <path d="M 46.965625 241.6525 
L 403.648453 241.6525 
L 403.648453 7.2 
L 46.965625 7.2 
z
" style="fill: #ffffff"/>
   </g>
   <g id="matplotlib.axis_1">
    <g id="xtick_1">
     <g id="line2d_1">
      <defs>
       <path id="m72b0e93e69" d="M 0 0 
L 0 3.5 
" style="stroke: #000000; stroke-width: 0.8"/>
      </defs>
      <g>
       <use xlink:href="#m72b0e93e69" x="55.27351" y="241.6525" style="stroke: #000000; stroke-width: 0.8"/>
      </g>
     </g>
     <g id="text_1">
      <!-- 0.000 -->
      <g transform="translate(40.959447 256.250937) scale(0.1 -0.1)">
       <defs>
        <path id="DejaVuSans-30" d="M 2034 4250 
Q 1547 4250 1301 3770 
Q 1056 3291 1056 2328 
Q 1056 1369 1301 889 
Q 1547 409 2034 409 
Q 2525 409 2770 889 
Q 3016 1369 3016 2328 
Q 3016 3291 2770 3770 
Q 2525 4250 2034 4250 
z
M 2034 4750 
Q 2819 4750 3233 4129 
Q 3647 3509 3647 2328 
Q 3647 1150 3233 529 
Q 2819 -91 2034 -91 
Q 1250 -91 836 529 
Q 422 1150 422 2328 
Q 422 3509 836 4129 
Q 1250 4750 2034 4750 
z
" transform="scale(0.015625)"/>
        <path id="DejaVuSans-2e" d="M 684 794 
L 1344 794 
L 1344 0 
L 684 0 
L 684 794 
z
" transform="scale(0.015625)"/>
       </defs>
       <use xlink:href="#DejaVuSans-30"/>
       <use xlink:href="#DejaVuSans-2e" x="63.623047"/>
       <use xlink:href="#DejaVuSans-30" x="95.410156"/>
       <use xlink:href="#DejaVuSans-30" x="159.033203"/>
       <use xlink:href="#DejaVuSans-30" x="222.65625"/>
      </g>
     </g>
    </g>
    <g id="xtick_2">
     <g id="line2d_2">
      <g>
       <use xlink:href="#m72b0e93e69" x="98.750087" y="241.6525" style="stroke: #000000; stroke-width: 0.8"/>
      </g>
     </g>
     <g id="text_2">
      <!-- 0.025 -->
      <g transform="translate(84.436024 256.250937) scale(0.1 -0.1)">
       <defs>
        <path id="DejaVuSans-32" d="M 1228 531 
L 3431 531 
L 3431 0 
L 469 0 
L 469 531 
Q 828 903 1448 1529 
Q 2069 2156 2228 2338 
Q 2531 2678 2651 2914 
Q 2772 3150 2772 3378 
Q 2772 3750 2511 3984 
Q 2250 4219 1831 4219 
Q 1534 4219 1204 4116 
Q 875 4013 500 3803 
L 500 4441 
Q 881 4594 1212 4672 
Q 1544 4750 1819 4750 
Q 2544 4750 2975 4387 
Q 3406 4025 3406 3419 
Q 3406 3131 3298 2873 
Q 3191 2616 2906 2266 
Q 2828 2175 2409 1742 
Q 1991 1309 1228 531 
z
" transform="scale(0.015625)"/>
        <path id="DejaVuSans-35" d="M 691 4666 
L 3169 4666 
L 3169 4134 
L 1269 4134 
L 1269 2991 
Q 1406 3038 1543 3061 
Q 1681 3084 1819 3084 
Q 2600 3084 3056 2656 
Q 3513 2228 3513 1497 
Q 3513 744 3044 326 
Q 2575 -91 1722 -91 
Q 1428 -91 1123 -41 
Q 819 9 494 109 
L 494 744 
Q 775 591 1075 516 
Q 1375 441 1709 441 
Q 2250 441 2565 725 
Q 2881 1009 2881 1497 
Q 2881 1984 2565 2268 
Q 2250 2553 1709 2553 
Q 1456 2553 1204 2497 
Q 953 2441 691 2322 
L 691 4666 
z
" transform="scale(0.015625)"/>
       </defs>
       <use xlink:href="#DejaVuSans-30"/>
       <use xlink:href="#DejaVuSans-2e" x="63.623047"/>
       <use xlink:href="#DejaVuSans-30" x="95.410156"/>
       <use xlink:href="#DejaVuSans-32" x="159.033203"/>
       <use xlink:href="#DejaVuSans-35" x="222.65625"/>
      </g>
     </g>
    </g>
    <g id="xtick_3">
     <g id="line2d_3">
      <g>
       <use xlink:href="#m72b0e93e69" x="142.226664" y="241.6525" style="stroke: #000000; stroke-width: 0.8"/>
      </g>
     </g>
     <g id="text_3">
      <!-- 0.050 -->
      <g transform="translate(127.912601 256.250937) scale(0.1 -0.1)">
       <use xlink:href="#DejaVuSans-30"/>
       <use xlink:href="#DejaVuSans-2e" x="63.623047"/>
       <use xlink:href="#DejaVuSans-30" x="95.410156"/>
       <use xlink:href="#DejaVuSans-35" x="159.033203"/>
       <use xlink:href="#DejaVuSans-30" x="222.65625"/>
      </g>
     </g>
    </g>
    <g id="xtick_4">
     <g id="line2d_4">
      <g>
       <use xlink:href="#m72b0e93e69" x="185.703241" y="241.6525" style="stroke: #000000; stroke-width: 0.8"/>
      </g>
     </g>
     <g id="text_4">
      <!-- 0.075 -->
      <g transform="translate(171.389178 256.250937) scale(0.1 -0.1)">
       <defs>
        <path id="DejaVuSans-37" d="M 525 4666 
L 3525 4666 
L 3525 4397 
L 1831 0 
L 1172 0 
L 2766 4134 
L 525 4134 
L 525 4666 
z
" transform="scale(0.015625)"/>
       </defs>
       <use xlink:href="#DejaVuSans-30"/>
       <use xlink:href="#DejaVuSans-2e" x="63.623047"/>
       <use xlink:href="#DejaVuSans-30" x="95.410156"/>
       <use xlink:href="#DejaVuSans-37" x="159.033203"/>
       <use xlink:href="#DejaVuSans-35" x="222.65625"/>
      </g>
     </g>
    </g>
    <g id="xtick_5">
     <g id="line2d_5">
      <g>
       <use xlink:href="#m72b0e93e69" x="229.179818" y="241.6525" style="stroke: #000000; stroke-width: 0.8"/>
      </g>
     </g>
     <g id="text_5">
      <!-- 0.100 -->
      <g transform="translate(214.865755 256.250937) scale(0.1 -0.1)">
       <defs>
        <path id="DejaVuSans-31" d="M 794 531 
L 1825 531 
L 1825 4091 
L 703 3866 
L 703 4441 
L 1819 4666 
L 2450 4666 
L 2450 531 
L 3481 531 
L 3481 0 
L 794 0 
L 794 531 
z
" transform="scale(0.015625)"/>
       </defs>
       <use xlink:href="#DejaVuSans-30"/>
       <use xlink:href="#DejaVuSans-2e" x="63.623047"/>
       <use xlink:href="#DejaVuSans-31" x="95.410156"/>
       <use xlink:href="#DejaVuSans-30" x="159.033203"/>
       <use xlink:href="#DejaVuSans-30" x="222.65625"/>
      </g>
     </g>
    </g>
    <g id="xtick_6">
     <g id="line2d_6">
      <g>
       <use xlink:href="#m72b0e93e69" x="272.656395" y="241.6525" style="stroke: #000000; stroke-width: 0.8"/>
      </g>
     </g>
     <g id="text_6">
      <!-- 0.125 -->
      <g transform="translate(258.342332 256.250937) scale(0.1 -0.1)">
       <use xlink:href="#DejaVuSans-30"/>
       <use xlink:href="#DejaVuSans-2e" x="63.623047"/>
       <use xlink:href="#DejaVuSans-31" x="95.410156"/>
       <use xlink:href="#DejaVuSans-32" x="159.033203"/>
       <use xlink:href="#DejaVuSans-35" x="222.65625"/>
      </g>
     </g>
    </g>
    <g id="xtick_7">
     <g id="line2d_7">
      <g>
       <use xlink:href="#m72b0e93e69" x="316.132972" y="241.6525" style="stroke: #000000; stroke-width: 0.8"/>
      </g>
     </g>
     <g id="text_7">
      <!-- 0.150 -->
      <g transform="translate(301.818909 256.250937) scale(0.1 -0.1)">
       <use xlink:href="#DejaVuSans-30"/>
       <use xlink:href="#DejaVuSans-2e" x="63.623047"/>
       <use xlink:href="#DejaVuSans-31" x="95.410156"/>
       <use xlink:href="#DejaVuSans-35" x="159.033203"/>
       <use xlink:href="#DejaVuSans-30" x="222.65625"/>
      </g>
     </g>
    </g>
    <g id="xtick_8">
     <g id="line2d_8">
      <g>
       <use xlink:href="#m72b0e93e69" x="359.609549" y="241.6525" style="stroke: #000000; stroke-width: 0.8"/>
      </g>
     </g>
     <g id="text_8">
      <!-- 0.175 -->
      <g transform="translate(345.295486 256.250937) scale(0.1 -0.1)">
       <use xlink:href="#DejaVuSans-30"/>
       <use xlink:href="#DejaVuSans-2e" x="63.623047"/>
       <use xlink:href="#DejaVuSans-31" x="95.410156"/>
       <use xlink:href="#DejaVuSans-37" x="159.033203"/>
       <use xlink:href="#DejaVuSans-35" x="222.65625"/>
      </g>
     </g>
    </g>
    <g id="xtick_9">
     <g id="line2d_9">
      <g>
       <use xlink:href="#m72b0e93e69" x="403.086126" y="241.6525" style="stroke: #000000; stroke-width: 0.8"/>
      </g>
     </g>
     <g id="text_9">
      <!-- 0.200 -->
      <g transform="translate(388.772063 256.250937) scale(0.1 -0.1)">
       <use xlink:href="#DejaVuSans-30"/>
       <use xlink:href="#DejaVuSans-2e" x="63.623047"/>
       <use xlink:href="#DejaVuSans-32" x="95.410156"/>
       <use xlink:href="#DejaVuSans-30" x="159.033203"/>
       <use xlink:href="#DejaVuSans-30" x="222.65625"/>
      </g>
     </g>
    </g>
    <g id="text_10">
     <!-- Q [1/Å] -->
     <g transform="translate(207.594539 270.8525) scale(0.1 -0.1)">
      <defs>
       <path id="DejaVuSans-51" d="M 2522 4238 
Q 1834 4238 1429 3725 
Q 1025 3213 1025 2328 
Q 1025 1447 1429 934 
Q 1834 422 2522 422 
Q 3209 422 3611 934 
Q 4013 1447 4013 2328 
Q 4013 3213 3611 3725 
Q 3209 4238 2522 4238 
z
M 3406 84 
L 4238 -825 
L 3475 -825 
L 2784 -78 
Q 2681 -84 2626 -87 
Q 2572 -91 2522 -91 
Q 1538 -91 948 567 
Q 359 1225 359 2328 
Q 359 3434 948 4092 
Q 1538 4750 2522 4750 
Q 3503 4750 4090 4092 
Q 4678 3434 4678 2328 
Q 4678 1516 4351 937 
Q 4025 359 3406 84 
z
" transform="scale(0.015625)"/>
       <path id="DejaVuSans-20" transform="scale(0.015625)"/>
       <path id="DejaVuSans-5b" d="M 550 4863 
L 1875 4863 
L 1875 4416 
L 1125 4416 
L 1125 -397 
L 1875 -397 
L 1875 -844 
L 550 -844 
L 550 4863 
z
" transform="scale(0.015625)"/>
       <path id="DejaVuSans-2f" d="M 1625 4666 
L 2156 4666 
L 531 -594 
L 0 -594 
L 1625 4666 
z
" transform="scale(0.015625)"/>
       <path id="DejaVuSans-c5" d="M 2663 5081 
Q 2663 5278 2523 5417 
Q 2384 5556 2188 5556 
Q 1988 5556 1852 5420 
Q 1716 5284 1716 5081 
Q 1716 4884 1853 4746 
Q 1991 4609 2188 4609 
Q 2384 4609 2523 4746 
Q 2663 4884 2663 5081 
z
M 2188 4044 
L 1338 1722 
L 3041 1722 
L 2188 4044 
z
M 1716 4366 
Q 1525 4494 1428 4673 
Q 1331 4853 1331 5081 
Q 1331 5441 1579 5691 
Q 1828 5941 2188 5941 
Q 2544 5941 2795 5689 
Q 3047 5438 3047 5081 
Q 3047 4863 2948 4678 
Q 2850 4494 2663 4366 
L 4325 0 
L 3669 0 
L 3244 1197 
L 1141 1197 
L 716 0 
L 50 0 
L 1716 4366 
z
" transform="scale(0.015625)"/>
       <path id="DejaVuSans-5d" d="M 1947 4863 
L 1947 -844 
L 622 -844 
L 622 -397 
L 1369 -397 
L 1369 4416 
L 622 4416 
L 622 4863 
L 1947 4863 
z
" transform="scale(0.015625)"/>
      </defs>
      <use xlink:href="#DejaVuSans-51"/>
      <use xlink:href="#DejaVuSans-20" x="78.710938"/>
      <use xlink:href="#DejaVuSans-5b" x="110.498047"/>
      <use xlink:href="#DejaVuSans-31" x="149.511719"/>
      <use xlink:href="#DejaVuSans-2f" x="213.134766"/>
      <use xlink:href="#DejaVuSans-c5" x="246.826172"/>
      <use xlink:href="#DejaVuSans-5d" x="315.234375"/>
     </g>
    </g>
   </g>
   <g id="matplotlib.axis_2">
    <g id="ytick_1">
     <g id="line2d_10">
      <defs>
       <path id="mbb331c4592" d="M 0 0 
L -3.5 0 
" style="stroke: #000000; stroke-width: 0.8"/>
      </defs>
      <g>
       <use xlink:href="#mbb331c4592" x="46.965625" y="230.990394" style="stroke: #000000; stroke-width: 0.8"/>
      </g>
     </g>
     <g id="text_11">
      <!-- 0 -->
      <g transform="translate(33.603125 234.789613) scale(0.1 -0.1)">
       <use xlink:href="#DejaVuSans-30"/>
      </g>
     </g>
    </g>
    <g id="ytick_2">
     <g id="line2d_11">
      <g>
       <use xlink:href="#mbb331c4592" x="46.965625" y="184.558727" style="stroke: #000000; stroke-width: 0.8"/>
      </g>
     </g>
     <g id="text_12">
      <!-- 200 -->
      <g transform="translate(20.878125 188.357946) scale(0.1 -0.1)">
       <use xlink:href="#DejaVuSans-32"/>
       <use xlink:href="#DejaVuSans-30" x="63.623047"/>
       <use xlink:href="#DejaVuSans-30" x="127.246094"/>
      </g>
     </g>
    </g>
    <g id="ytick_3">
     <g id="line2d_12">
      <g>
       <use xlink:href="#mbb331c4592" x="46.965625" y="138.12706" style="stroke: #000000; stroke-width: 0.8"/>
      </g>
     </g>
     <g id="text_13">
      <!-- 400 -->
      <g transform="translate(20.878125 141.926279) scale(0.1 -0.1)">
       <defs>
        <path id="DejaVuSans-34" d="M 2419 4116 
L 825 1625 
L 2419 1625 
L 2419 4116 
z
M 2253 4666 
L 3047 4666 
L 3047 1625 
L 3713 1625 
L 3713 1100 
L 3047 1100 
L 3047 0 
L 2419 0 
L 2419 1100 
L 313 1100 
L 313 1709 
L 2253 4666 
z
" transform="scale(0.015625)"/>
       </defs>
       <use xlink:href="#DejaVuSans-34"/>
       <use xlink:href="#DejaVuSans-30" x="63.623047"/>
       <use xlink:href="#DejaVuSans-30" x="127.246094"/>
      </g>
     </g>
    </g>
    <g id="ytick_4">
     <g id="line2d_13">
      <g>
       <use xlink:href="#mbb331c4592" x="46.965625" y="91.695394" style="stroke: #000000; stroke-width: 0.8"/>
      </g>
     </g>
     <g id="text_14">
      <!-- 600 -->
      <g transform="translate(20.878125 95.494612) scale(0.1 -0.1)">
       <defs>
        <path id="DejaVuSans-36" d="M 2113 2584 
Q 1688 2584 1439 2293 
Q 1191 2003 1191 1497 
Q 1191 994 1439 701 
Q 1688 409 2113 409 
Q 2538 409 2786 701 
Q 3034 994 3034 1497 
Q 3034 2003 2786 2293 
Q 2538 2584 2113 2584 
z
M 3366 4563 
L 3366 3988 
Q 3128 4100 2886 4159 
Q 2644 4219 2406 4219 
Q 1781 4219 1451 3797 
Q 1122 3375 1075 2522 
Q 1259 2794 1537 2939 
Q 1816 3084 2150 3084 
Q 2853 3084 3261 2657 
Q 3669 2231 3669 1497 
Q 3669 778 3244 343 
Q 2819 -91 2113 -91 
Q 1303 -91 875 529 
Q 447 1150 447 2328 
Q 447 3434 972 4092 
Q 1497 4750 2381 4750 
Q 2619 4750 2861 4703 
Q 3103 4656 3366 4563 
z
" transform="scale(0.015625)"/>
       </defs>
       <use xlink:href="#DejaVuSans-36"/>
       <use xlink:href="#DejaVuSans-30" x="63.623047"/>
       <use xlink:href="#DejaVuSans-30" x="127.246094"/>
      </g>
     </g>
    </g>
    <g id="ytick_5">
     <g id="line2d_14">
      <g>
       <use xlink:href="#mbb331c4592" x="46.965625" y="45.263727" style="stroke: #000000; stroke-width: 0.8"/>
      </g>
     </g>
     <g id="text_15">
      <!-- 800 -->
      <g transform="translate(20.878125 49.062946) scale(0.1 -0.1)">
       <defs>
        <path id="DejaVuSans-38" d="M 2034 2216 
Q 1584 2216 1326 1975 
Q 1069 1734 1069 1313 
Q 1069 891 1326 650 
Q 1584 409 2034 409 
Q 2484 409 2743 651 
Q 3003 894 3003 1313 
Q 3003 1734 2745 1975 
Q 2488 2216 2034 2216 
z
M 1403 2484 
Q 997 2584 770 2862 
Q 544 3141 544 3541 
Q 544 4100 942 4425 
Q 1341 4750 2034 4750 
Q 2731 4750 3128 4425 
Q 3525 4100 3525 3541 
Q 3525 3141 3298 2862 
Q 3072 2584 2669 2484 
Q 3125 2378 3379 2068 
Q 3634 1759 3634 1313 
Q 3634 634 3220 271 
Q 2806 -91 2034 -91 
Q 1263 -91 848 271 
Q 434 634 434 1313 
Q 434 1759 690 2068 
Q 947 2378 1403 2484 
z
M 1172 3481 
Q 1172 3119 1398 2916 
Q 1625 2713 2034 2713 
Q 2441 2713 2670 2916 
Q 2900 3119 2900 3481 
Q 2900 3844 2670 4047 
Q 2441 4250 2034 4250 
Q 1625 4250 1398 4047 
Q 1172 3844 1172 3481 
z
" transform="scale(0.015625)"/>
       </defs>
       <use xlink:href="#DejaVuSans-38"/>
       <use xlink:href="#DejaVuSans-30" x="63.623047"/>
       <use xlink:href="#DejaVuSans-30" x="127.246094"/>
      </g>
     </g>
    </g>
    <g id="text_16">
     <!-- [counts] -->
     <g transform="translate(14.798437 145.03875) rotate(-90) scale(0.1 -0.1)">
      <defs>
       <path id="DejaVuSans-63" d="M 3122 3366 
L 3122 2828 
Q 2878 2963 2633 3030 
Q 2388 3097 2138 3097 
Q 1578 3097 1268 2742 
Q 959 2388 959 1747 
Q 959 1106 1268 751 
Q 1578 397 2138 397 
Q 2388 397 2633 464 
Q 2878 531 3122 666 
L 3122 134 
Q 2881 22 2623 -34 
Q 2366 -91 2075 -91 
Q 1284 -91 818 406 
Q 353 903 353 1747 
Q 353 2603 823 3093 
Q 1294 3584 2113 3584 
Q 2378 3584 2631 3529 
Q 2884 3475 3122 3366 
z
" transform="scale(0.015625)"/>
       <path id="DejaVuSans-6f" d="M 1959 3097 
Q 1497 3097 1228 2736 
Q 959 2375 959 1747 
Q 959 1119 1226 758 
Q 1494 397 1959 397 
Q 2419 397 2687 759 
Q 2956 1122 2956 1747 
Q 2956 2369 2687 2733 
Q 2419 3097 1959 3097 
z
M 1959 3584 
Q 2709 3584 3137 3096 
Q 3566 2609 3566 1747 
Q 3566 888 3137 398 
Q 2709 -91 1959 -91 
Q 1206 -91 779 398 
Q 353 888 353 1747 
Q 353 2609 779 3096 
Q 1206 3584 1959 3584 
z
" transform="scale(0.015625)"/>
       <path id="DejaVuSans-75" d="M 544 1381 
L 544 3500 
L 1119 3500 
L 1119 1403 
Q 1119 906 1312 657 
Q 1506 409 1894 409 
Q 2359 409 2629 706 
Q 2900 1003 2900 1516 
L 2900 3500 
L 3475 3500 
L 3475 0 
L 2900 0 
L 2900 538 
Q 2691 219 2414 64 
Q 2138 -91 1772 -91 
Q 1169 -91 856 284 
Q 544 659 544 1381 
z
M 1991 3584 
L 1991 3584 
z
" transform="scale(0.015625)"/>
       <path id="DejaVuSans-6e" d="M 3513 2113 
L 3513 0 
L 2938 0 
L 2938 2094 
Q 2938 2591 2744 2837 
Q 2550 3084 2163 3084 
Q 1697 3084 1428 2787 
Q 1159 2491 1159 1978 
L 1159 0 
L 581 0 
L 581 3500 
L 1159 3500 
L 1159 2956 
Q 1366 3272 1645 3428 
Q 1925 3584 2291 3584 
Q 2894 3584 3203 3211 
Q 3513 2838 3513 2113 
z
" transform="scale(0.015625)"/>
       <path id="DejaVuSans-74" d="M 1172 4494 
L 1172 3500 
L 2356 3500 
L 2356 3053 
L 1172 3053 
L 1172 1153 
Q 1172 725 1289 603 
Q 1406 481 1766 481 
L 2356 481 
L 2356 0 
L 1766 0 
Q 1100 0 847 248 
Q 594 497 594 1153 
L 594 3053 
L 172 3053 
L 172 3500 
L 594 3500 
L 594 4494 
L 1172 4494 
z
" transform="scale(0.015625)"/>
       <path id="DejaVuSans-73" d="M 2834 3397 
L 2834 2853 
Q 2591 2978 2328 3040 
Q 2066 3103 1784 3103 
Q 1356 3103 1142 2972 
Q 928 2841 928 2578 
Q 928 2378 1081 2264 
Q 1234 2150 1697 2047 
L 1894 2003 
Q 2506 1872 2764 1633 
Q 3022 1394 3022 966 
Q 3022 478 2636 193 
Q 2250 -91 1575 -91 
Q 1294 -91 989 -36 
Q 684 19 347 128 
L 347 722 
Q 666 556 975 473 
Q 1284 391 1588 391 
Q 1994 391 2212 530 
Q 2431 669 2431 922 
Q 2431 1156 2273 1281 
Q 2116 1406 1581 1522 
L 1381 1569 
Q 847 1681 609 1914 
Q 372 2147 372 2553 
Q 372 3047 722 3315 
Q 1072 3584 1716 3584 
Q 2034 3584 2315 3537 
Q 2597 3491 2834 3397 
z
" transform="scale(0.015625)"/>
      </defs>
      <use xlink:href="#DejaVuSans-5b"/>
      <use xlink:href="#DejaVuSans-63" x="39.013672"/>
      <use xlink:href="#DejaVuSans-6f" x="93.994141"/>
      <use xlink:href="#DejaVuSans-75" x="155.175781"/>
      <use xlink:href="#DejaVuSans-6e" x="218.554688"/>
      <use xlink:href="#DejaVuSans-74" x="281.933594"/>
      <use xlink:href="#DejaVuSans-73" x="321.142578"/>
      <use xlink:href="#DejaVuSans-5d" x="373.242188"/>
     </g>
    </g>
   </g>
   <g id="patch_3">
    <path d="M 46.965625 241.6525 
L 46.965625 7.2 
" style="fill: none; stroke: #000000; stroke-width: 0.8; stroke-linejoin: miter; stroke-linecap: square"/>
   </g>
   <g id="patch_4">
    <path d="M 403.648453 241.6525 
L 403.648453 7.2 
" style="fill: none; stroke: #000000; stroke-width: 0.8; stroke-linejoin: miter; stroke-linecap: square"/>
   </g>
   <g id="patch_5">
    <path d="M 46.965625 241.6525 
L 403.648453 241.6525 
" style="fill: none; stroke: #000000; stroke-width: 0.8; stroke-linejoin: miter; stroke-linecap: square"/>
   </g>
   <g id="patch_6">
    <path d="M 46.965625 7.2 
L 403.648453 7.2 
" style="fill: none; stroke: #000000; stroke-width: 0.8; stroke-linejoin: miter; stroke-linecap: square"/>
   </g>
   <g id="line2d_15">
    <path d="M 63.178481 169.770285 
L 64.799766 169.770285 
L 64.799766 49.63344 
L 66.421052 49.63344 
L 66.421052 34.070419 
L 68.042338 34.070419 
L 68.042338 31.729304 
L 69.663623 31.729304 
L 69.663623 47.997761 
L 71.284909 47.997761 
L 71.284909 55.222082 
L 72.906194 55.222082 
L 72.906194 47.732266 
L 74.52748 47.732266 
L 74.52748 50.036731 
L 76.148765 50.036731 
L 76.148765 49.332412 
L 77.770051 49.332412 
L 77.770051 46.954175 
L 79.391337 46.954175 
L 79.391337 37.832623 
L 81.012622 37.832623 
L 81.012622 30.812829 
L 82.633908 30.812829 
L 82.633908 28.682646 
L 84.255193 28.682646 
L 84.255193 55.268045 
L 85.876479 55.268045 
L 85.876479 28.664612 
L 87.497765 28.664612 
L 87.497765 36.356281 
L 89.11905 36.356281 
L 89.11905 45.800962 
L 90.740336 45.800962 
L 90.740336 51.016487 
L 92.361621 51.016487 
L 92.361621 42.509117 
L 93.982907 42.509117 
L 93.982907 72.98248 
L 95.604192 72.98248 
L 95.604192 84.47451 
L 97.225478 84.47451 
L 97.225478 101.411122 
L 98.846764 101.411122 
L 98.846764 99.918276 
L 100.468049 99.918276 
L 100.468049 128.686917 
L 102.089335 128.686917 
L 102.089335 140.636859 
L 103.71062 140.636859 
L 103.71062 157.982991 
L 105.331906 157.982991 
L 105.331906 178.190058 
L 106.953192 178.190058 
L 106.953192 172.66187 
L 108.574477 172.66187 
L 108.574477 169.460857 
L 110.195763 169.460857 
L 110.195763 164.329225 
L 111.817048 164.329225 
L 111.817048 142.456717 
L 113.438334 142.456717 
L 113.438334 140.177842 
L 115.059619 140.177842 
L 115.059619 118.478198 
L 116.680905 118.478198 
L 116.680905 111.050158 
L 118.302191 111.050158 
L 118.302191 86.01916 
L 119.923476 86.01916 
L 119.923476 71.650607 
L 121.544762 71.650607 
L 121.544762 78.881 
L 123.166047 78.881 
L 123.166047 47.129435 
L 124.787333 47.129435 
L 124.787333 54.357816 
L 126.408618 54.357816 
L 126.408618 37.415043 
L 128.029904 37.415043 
L 128.029904 50.228583 
L 129.65119 50.228583 
L 129.65119 47.481302 
L 131.272475 47.481302 
L 131.272475 58.816369 
L 132.893761 58.816369 
L 132.893761 52.445576 
L 134.515046 52.445576 
L 134.515046 40.756023 
L 136.136332 40.756023 
L 136.136332 48.73226 
L 137.757618 48.73226 
L 137.757618 47.137844 
L 139.378903 47.137844 
L 139.378903 24.776063 
L 141.000189 24.776063 
L 141.000189 39.750157 
L 142.621474 39.750157 
L 142.621474 38.903032 
L 144.24276 38.903032 
L 144.24276 53.661548 
L 145.864045 53.661548 
L 145.864045 48.205609 
L 147.485331 48.205609 
L 147.485331 47.549702 
L 149.106617 47.549702 
L 149.106617 52.058548 
L 150.727902 52.058548 
L 150.727902 47.155552 
L 152.349188 47.155552 
L 152.349188 44.384878 
L 153.970473 44.384878 
L 153.970473 48.138927 
L 155.591759 48.138927 
L 155.591759 51.673145 
L 157.213045 51.673145 
L 157.213045 47.838528 
L 158.83433 47.838528 
L 158.83433 59.459796 
L 160.455616 59.459796 
L 160.455616 28.213826 
L 162.076901 28.213826 
L 162.076901 54.390113 
L 163.698187 54.390113 
L 163.698187 61.99148 
L 165.319472 61.99148 
L 165.319472 41.691211 
L 166.940758 41.691211 
L 166.940758 51.158663 
L 168.562044 51.158663 
L 168.562044 45.424889 
L 170.183329 45.424889 
L 170.183329 52.524324 
L 171.804615 52.524324 
L 171.804615 34.168672 
L 173.4259 34.168672 
L 173.4259 41.85612 
L 175.047186 41.85612 
L 175.047186 55.17274 
L 176.668471 55.17274 
L 176.668471 43.092522 
L 178.289757 43.092522 
L 178.289757 34.932593 
L 179.911043 34.932593 
L 179.911043 51.125862 
L 181.532328 51.125862 
L 181.532328 57.640394 
L 183.153614 57.640394 
L 183.153614 45.673444 
L 184.774899 45.673444 
L 184.774899 43.692755 
L 186.396185 43.692755 
L 186.396185 36.473952 
L 188.017471 36.473952 
L 188.017471 50.706551 
L 189.638756 50.706551 
L 189.638756 58.11834 
L 191.260042 58.11834 
L 191.260042 52.032676 
L 192.881327 52.032676 
L 192.881327 49.9438 
L 194.502613 49.9438 
L 194.502613 36.59464 
L 196.123898 36.59464 
L 196.123898 43.938717 
L 197.745184 43.938717 
L 197.745184 36.190905 
L 199.36647 36.190905 
L 199.36647 43.971259 
L 200.987755 43.971259 
L 200.987755 42.176605 
L 202.609041 42.176605 
L 202.609041 48.205349 
L 204.230326 48.205349 
L 204.230326 38.096473 
L 205.851612 38.096473 
L 205.851612 55.084821 
L 207.472898 55.084821 
L 207.472898 58.986178 
L 209.094183 58.986178 
L 209.094183 42.496488 
L 210.715469 42.496488 
L 210.715469 44.945482 
L 212.336754 44.945482 
L 212.336754 52.481739 
L 213.95804 52.481739 
L 213.95804 38.245268 
L 215.579325 38.245268 
L 215.579325 40.018851 
L 217.200611 40.018851 
L 217.200611 49.413874 
L 218.821897 49.413874 
L 218.821897 46.879607 
L 220.443182 46.879607 
L 220.443182 43.607123 
L 222.064468 43.607123 
L 222.064468 45.420205 
L 223.685753 45.420205 
L 223.685753 55.007228 
L 225.307039 55.007228 
L 225.307039 66.149225 
L 226.928325 66.149225 
L 226.928325 39.401226 
L 228.54961 39.401226 
L 228.54961 40.492323 
L 230.170896 40.492323 
L 230.170896 59.509181 
L 231.792181 59.509181 
L 231.792181 54.418005 
L 233.413467 54.418005 
L 233.413467 42.952038 
L 235.034752 42.952038 
L 235.034752 59.220496 
L 236.656038 59.220496 
L 236.656038 44.704127 
L 238.277324 44.704127 
L 238.277324 38.764024 
L 239.898609 38.764024 
L 239.898609 55.841424 
L 241.519895 55.841424 
L 241.519895 52.188425 
L 243.14118 52.188425 
L 243.14118 27.084191 
L 244.762466 27.084191 
L 244.762466 61.186091 
L 246.383751 61.186091 
L 246.383751 57.681471 
L 248.005037 57.681471 
L 248.005037 40.378186 
L 249.626323 40.378186 
L 249.626323 37.772141 
L 251.247608 37.772141 
L 251.247608 57.201561 
L 252.868894 57.201561 
L 252.868894 42.046608 
L 254.490179 42.046608 
L 254.490179 48.824137 
L 256.111465 48.824137 
L 256.111465 40.248242 
L 257.732751 40.248242 
L 257.732751 28.012848 
L 259.354036 28.012848 
L 259.354036 62.564229 
L 260.975322 62.564229 
L 260.975322 47.416524 
L 262.596607 47.416524 
L 262.596607 34.539631 
L 264.217893 34.539631 
L 264.217893 58.395643 
L 265.839178 58.395643 
L 265.839178 43.216148 
L 267.460464 43.216148 
L 267.460464 47.486384 
L 269.08175 47.486384 
L 269.08175 57.468984 
L 270.703035 57.468984 
L 270.703035 52.717911 
L 272.324321 52.717911 
L 272.324321 61.337017 
L 273.945606 61.337017 
L 273.945606 42.61906 
L 275.566892 42.61906 
L 275.566892 59.518865 
L 277.188178 59.518865 
L 277.188178 39.916511 
L 278.809463 39.916511 
L 278.809463 50.280044 
L 280.430749 50.280044 
L 280.430749 49.728906 
L 282.052034 49.728906 
L 282.052034 62.112738 
L 283.67332 62.112738 
L 283.67332 55.168044 
L 285.294605 55.168044 
L 285.294605 49.391219 
L 286.915891 49.391219 
L 286.915891 34.224404 
L 288.537177 34.224404 
L 288.537177 56.75016 
L 290.158462 56.75016 
L 290.158462 53.602877 
L 291.779748 53.602877 
L 291.779748 51.880836 
L 293.401033 51.880836 
L 293.401033 57.079901 
L 295.022319 57.079901 
L 295.022319 33.525766 
L 296.643605 33.525766 
L 296.643605 35.144358 
L 298.26489 35.144358 
L 298.26489 47.580719 
L 299.886176 47.580719 
L 299.886176 34.726043 
L 301.507461 34.726043 
L 301.507461 42.175577 
L 303.128747 42.175577 
L 303.128747 55.8695 
L 304.750032 55.8695 
L 304.750032 48.352062 
L 306.371318 48.352062 
L 306.371318 43.007355 
L 307.992604 43.007355 
L 307.992604 42.589541 
L 309.613889 42.589541 
L 309.613889 48.62199 
L 311.235175 48.62199 
L 311.235175 49.161523 
L 312.85646 49.161523 
L 312.85646 45.317098 
L 314.477746 45.317098 
L 314.477746 31.056623 
L 316.099031 31.056623 
L 316.099031 59.076099 
L 319.341603 59.185735 
L 319.341603 71.711825 
L 320.962888 71.711825 
L 320.962888 58.604146 
L 322.584174 58.604146 
L 322.584174 79.490397 
L 324.205459 79.490397 
L 324.205459 80.284824 
L 325.826745 80.284824 
L 325.826745 68.578487 
L 327.448031 68.578487 
L 327.448031 94.150156 
L 329.069316 94.150156 
L 329.069316 69.293097 
L 330.690602 69.293097 
L 330.690602 88.655683 
L 332.311887 88.655683 
L 332.311887 96.928419 
L 333.933173 96.928419 
L 333.933173 95.966684 
L 335.554458 95.966684 
L 335.554458 97.209864 
L 337.175744 97.209864 
L 337.175744 108.454809 
L 338.79703 108.454809 
L 338.79703 122.704642 
L 340.418315 122.704642 
L 340.418315 122.081401 
L 342.039601 122.081401 
L 342.039601 121.254464 
L 343.660886 121.254464 
L 343.660886 110.876607 
L 345.282172 110.876607 
L 345.282172 130.698156 
L 346.903458 130.698156 
L 346.903458 128.025826 
L 348.524743 128.025826 
L 348.524743 140.037698 
L 350.146029 140.037698 
L 350.146029 138.916399 
L 351.767314 138.916399 
L 351.767314 145.13216 
L 353.3886 145.13216 
L 353.3886 149.448889 
L 355.009885 149.448889 
L 355.009885 159.725848 
L 356.631171 159.725848 
L 356.631171 158.559693 
L 358.252457 158.559693 
L 358.252457 159.177468 
L 359.873742 159.177468 
L 359.873742 157.595905 
L 361.495028 157.595905 
L 361.495028 175.477823 
L 363.116313 175.477823 
L 363.116313 173.60411 
L 364.737599 173.60411 
L 364.737599 178.13915 
L 366.358884 178.13915 
L 366.358884 186.703536 
L 367.98017 186.703536 
L 367.98017 185.54925 
L 369.601456 185.54925 
L 369.601456 194.666971 
L 371.222741 194.666971 
L 371.222741 191.217949 
L 372.844027 191.217949 
L 372.844027 204.43555 
L 374.465312 204.43555 
L 374.465312 199.067648 
L 376.086598 199.067648 
L 376.086598 207.968953 
L 377.707884 207.968953 
L 377.707884 209.696668 
L 379.329169 209.696668 
L 379.329169 216.007085 
L 380.950455 216.007085 
L 380.950455 223.284691 
L 382.57174 223.284691 
L 382.57174 227.311068 
L 384.193026 227.311068 
L 384.193026 228.640967 
L 385.814311 228.640967 
L 385.814311 230.990273 
L 387.435597 230.990273 
L 387.435597 230.990273 
" clip-path="url(#p5302e3b57c)" style="fill: none; stroke: #1f77b4; stroke-width: 1.5; stroke-linecap: square"/>
   </g>
   <g id="LineCollection_1">
    <path d="M 63.989124 173.540266 
L 63.989124 166.000304 
" clip-path="url(#p5302e3b57c)" style="fill: none; stroke: #1f77b4; stroke-width: 1.5"/>
    <path d="M 65.610409 56.122163 
L 65.610409 43.144717 
" clip-path="url(#p5302e3b57c)" style="fill: none; stroke: #1f77b4; stroke-width: 1.5"/>
    <path d="M 67.231695 40.831826 
L 67.231695 27.309013 
" clip-path="url(#p5302e3b57c)" style="fill: none; stroke: #1f77b4; stroke-width: 1.5"/>
    <path d="M 68.85298 38.530784 
L 68.85298 24.927825 
" clip-path="url(#p5302e3b57c)" style="fill: none; stroke: #1f77b4; stroke-width: 1.5"/>
    <path d="M 70.474266 54.51568 
L 70.474266 41.479842 
" clip-path="url(#p5302e3b57c)" style="fill: none; stroke: #1f77b4; stroke-width: 1.5"/>
    <path d="M 72.095552 61.610046 
L 72.095552 48.834119 
" clip-path="url(#p5302e3b57c)" style="fill: none; stroke: #1f77b4; stroke-width: 1.5"/>
    <path d="M 73.716837 54.254912 
L 73.716837 41.209621 
" clip-path="url(#p5302e3b57c)" style="fill: none; stroke: #1f77b4; stroke-width: 1.5"/>
    <path d="M 75.338123 56.518235 
L 75.338123 43.555226 
" clip-path="url(#p5302e3b57c)" style="fill: none; stroke: #1f77b4; stroke-width: 1.5"/>
    <path d="M 76.959408 55.826518 
L 76.959408 42.838306 
" clip-path="url(#p5302e3b57c)" style="fill: none; stroke: #1f77b4; stroke-width: 1.5"/>
    <path d="M 78.580694 53.490653 
L 78.580694 40.417697 
" clip-path="url(#p5302e3b57c)" style="fill: none; stroke: #1f77b4; stroke-width: 1.5"/>
    <path d="M 80.201979 44.529128 
L 80.201979 31.136117 
" clip-path="url(#p5302e3b57c)" style="fill: none; stroke: #1f77b4; stroke-width: 1.5"/>
    <path d="M 81.823265 37.629932 
L 81.823265 23.995727 
" clip-path="url(#p5302e3b57c)" style="fill: none; stroke: #1f77b4; stroke-width: 1.5"/>
    <path d="M 83.444551 35.535925 
L 83.444551 21.829367 
" clip-path="url(#p5302e3b57c)" style="fill: none; stroke: #1f77b4; stroke-width: 1.5"/>
    <path d="M 85.065836 61.655174 
L 85.065836 48.880917 
" clip-path="url(#p5302e3b57c)" style="fill: none; stroke: #1f77b4; stroke-width: 1.5"/>
    <path d="M 86.687122 35.518197 
L 86.687122 21.811028 
" clip-path="url(#p5302e3b57c)" style="fill: none; stroke: #1f77b4; stroke-width: 1.5"/>
    <path d="M 88.308407 43.078329 
L 88.308407 29.634233 
" clip-path="url(#p5302e3b57c)" style="fill: none; stroke: #1f77b4; stroke-width: 1.5"/>
    <path d="M 89.929693 52.357887 
L 89.929693 39.244037 
" clip-path="url(#p5302e3b57c)" style="fill: none; stroke: #1f77b4; stroke-width: 1.5"/>
    <path d="M 91.550978 57.480421 
L 91.550978 44.552553 
" clip-path="url(#p5302e3b57c)" style="fill: none; stroke: #1f77b4; stroke-width: 1.5"/>
    <path d="M 93.172264 49.124063 
L 93.172264 35.894172 
" clip-path="url(#p5302e3b57c)" style="fill: none; stroke: #1f77b4; stroke-width: 1.5"/>
    <path d="M 94.79355 79.039118 
L 94.79355 66.925843 
" clip-path="url(#p5302e3b57c)" style="fill: none; stroke: #1f77b4; stroke-width: 1.5"/>
    <path d="M 96.414835 90.306738 
L 96.414835 78.642282 
" clip-path="url(#p5302e3b57c)" style="fill: none; stroke: #1f77b4; stroke-width: 1.5"/>
    <path d="M 98.036121 106.895911 
L 98.036121 95.926333 
" clip-path="url(#p5302e3b57c)" style="fill: none; stroke: #1f77b4; stroke-width: 1.5"/>
    <path d="M 99.657406 105.434568 
L 99.657406 94.401983 
" clip-path="url(#p5302e3b57c)" style="fill: none; stroke: #1f77b4; stroke-width: 1.5"/>
    <path d="M 101.278692 133.560376 
L 101.278692 123.813458 
" clip-path="url(#p5302e3b57c)" style="fill: none; stroke: #1f77b4; stroke-width: 1.5"/>
    <path d="M 102.899978 145.216851 
L 102.899978 136.056867 
" clip-path="url(#p5302e3b57c)" style="fill: none; stroke: #1f77b4; stroke-width: 1.5"/>
    <path d="M 104.521263 162.099941 
L 104.521263 153.866041 
" clip-path="url(#p5302e3b57c)" style="fill: none; stroke: #1f77b4; stroke-width: 1.5"/>
    <path d="M 106.142549 181.691206 
L 106.142549 174.68891 
" clip-path="url(#p5302e3b57c)" style="fill: none; stroke: #1f77b4; stroke-width: 1.5"/>
    <path d="M 107.763834 176.341741 
L 107.763834 168.981998 
" clip-path="url(#p5302e3b57c)" style="fill: none; stroke: #1f77b4; stroke-width: 1.5"/>
    <path d="M 109.38512 173.240354 
L 109.38512 165.68136 
" clip-path="url(#p5302e3b57c)" style="fill: none; stroke: #1f77b4; stroke-width: 1.5"/>
    <path d="M 111.006405 168.263173 
L 111.006405 160.395277 
" clip-path="url(#p5302e3b57c)" style="fill: none; stroke: #1f77b4; stroke-width: 1.5"/>
    <path d="M 112.627691 146.99035 
L 112.627691 137.923083 
" clip-path="url(#p5302e3b57c)" style="fill: none; stroke: #1f77b4; stroke-width: 1.5"/>
    <path d="M 114.248977 144.769453 
L 114.248977 135.586231 
" clip-path="url(#p5302e3b57c)" style="fill: none; stroke: #1f77b4; stroke-width: 1.5"/>
    <path d="M 115.870262 123.589034 
L 115.870262 113.367362 
" clip-path="url(#p5302e3b57c)" style="fill: none; stroke: #1f77b4; stroke-width: 1.5"/>
    <path d="M 117.491548 116.327006 
L 117.491548 105.773309 
" clip-path="url(#p5302e3b57c)" style="fill: none; stroke: #1f77b4; stroke-width: 1.5"/>
    <path d="M 119.112833 91.820563 
L 119.112833 80.217757 
" clip-path="url(#p5302e3b57c)" style="fill: none; stroke: #1f77b4; stroke-width: 1.5"/>
    <path d="M 120.734119 77.732717 
L 120.734119 65.568497 
" clip-path="url(#p5302e3b57c)" style="fill: none; stroke: #1f77b4; stroke-width: 1.5"/>
    <path d="M 122.355405 84.823513 
L 122.355405 72.938486 
" clip-path="url(#p5302e3b57c)" style="fill: none; stroke: #1f77b4; stroke-width: 1.5"/>
    <path d="M 123.97669 53.662799 
L 123.97669 40.59607 
" clip-path="url(#p5302e3b57c)" style="fill: none; stroke: #1f77b4; stroke-width: 1.5"/>
    <path d="M 125.597976 60.761465 
L 125.597976 47.954167 
" clip-path="url(#p5302e3b57c)" style="fill: none; stroke: #1f77b4; stroke-width: 1.5"/>
    <path d="M 127.219261 44.118783 
L 127.219261 30.711303 
" clip-path="url(#p5302e3b57c)" style="fill: none; stroke: #1f77b4; stroke-width: 1.5"/>
    <path d="M 128.840547 56.706651 
L 128.840547 43.750515 
" clip-path="url(#p5302e3b57c)" style="fill: none; stroke: #1f77b4; stroke-width: 1.5"/>
    <path d="M 130.461832 54.008412 
L 130.461832 40.954192 
" clip-path="url(#p5302e3b57c)" style="fill: none; stroke: #1f77b4; stroke-width: 1.5"/>
    <path d="M 132.083118 65.138682 
L 132.083118 52.494057 
" clip-path="url(#p5302e3b57c)" style="fill: none; stroke: #1f77b4; stroke-width: 1.5"/>
    <path d="M 133.704404 58.883795 
L 133.704404 46.007356 
" clip-path="url(#p5302e3b57c)" style="fill: none; stroke: #1f77b4; stroke-width: 1.5"/>
    <path d="M 135.325689 47.40166 
L 135.325689 34.110385 
" clip-path="url(#p5302e3b57c)" style="fill: none; stroke: #1f77b4; stroke-width: 1.5"/>
    <path d="M 136.946975 55.237084 
L 136.946975 42.227435 
" clip-path="url(#p5302e3b57c)" style="fill: none; stroke: #1f77b4; stroke-width: 1.5"/>
    <path d="M 138.56826 53.671059 
L 138.56826 40.604629 
" clip-path="url(#p5302e3b57c)" style="fill: none; stroke: #1f77b4; stroke-width: 1.5"/>
    <path d="M 140.189546 31.695194 
L 140.189546 17.856932 
" clip-path="url(#p5302e3b57c)" style="fill: none; stroke: #1f77b4; stroke-width: 1.5"/>
    <path d="M 141.810832 46.413341 
L 141.810832 33.086974 
" clip-path="url(#p5302e3b57c)" style="fill: none; stroke: #1f77b4; stroke-width: 1.5"/>
    <path d="M 143.432117 45.580957 
L 143.432117 32.225107 
" clip-path="url(#p5302e3b57c)" style="fill: none; stroke: #1f77b4; stroke-width: 1.5"/>
    <path d="M 145.053403 60.077806 
L 145.053403 47.245289 
" clip-path="url(#p5302e3b57c)" style="fill: none; stroke: #1f77b4; stroke-width: 1.5"/>
    <path d="M 146.674688 54.719825 
L 146.674688 41.691393 
" clip-path="url(#p5302e3b57c)" style="fill: none; stroke: #1f77b4; stroke-width: 1.5"/>
    <path d="M 148.295974 54.075596 
L 148.295974 41.023809 
" clip-path="url(#p5302e3b57c)" style="fill: none; stroke: #1f77b4; stroke-width: 1.5"/>
    <path d="M 149.917259 58.503741 
L 149.917259 45.613354 
" clip-path="url(#p5302e3b57c)" style="fill: none; stroke: #1f77b4; stroke-width: 1.5"/>
    <path d="M 151.538545 53.688453 
L 151.538545 40.622652 
" clip-path="url(#p5302e3b57c)" style="fill: none; stroke: #1f77b4; stroke-width: 1.5"/>
    <path d="M 153.159831 50.966825 
L 153.159831 37.802931 
" clip-path="url(#p5302e3b57c)" style="fill: none; stroke: #1f77b4; stroke-width: 1.5"/>
    <path d="M 154.781116 54.654331 
L 154.781116 41.623523 
" clip-path="url(#p5302e3b57c)" style="fill: none; stroke: #1f77b4; stroke-width: 1.5"/>
    <path d="M 156.402402 58.125276 
L 156.402402 45.221014 
" clip-path="url(#p5302e3b57c)" style="fill: none; stroke: #1f77b4; stroke-width: 1.5"/>
    <path d="M 158.023687 54.359282 
L 158.023687 41.317774 
" clip-path="url(#p5302e3b57c)" style="fill: none; stroke: #1f77b4; stroke-width: 1.5"/>
    <path d="M 159.644973 65.770284 
L 159.644973 53.149308 
" clip-path="url(#p5302e3b57c)" style="fill: none; stroke: #1f77b4; stroke-width: 1.5"/>
    <path d="M 161.266258 35.075041 
L 161.266258 21.352611 
" clip-path="url(#p5302e3b57c)" style="fill: none; stroke: #1f77b4; stroke-width: 1.5"/>
    <path d="M 162.887544 60.793177 
L 162.887544 47.987049 
" clip-path="url(#p5302e3b57c)" style="fill: none; stroke: #1f77b4; stroke-width: 1.5"/>
    <path d="M 164.50883 68.255225 
L 164.50883 55.727734 
" clip-path="url(#p5302e3b57c)" style="fill: none; stroke: #1f77b4; stroke-width: 1.5"/>
    <path d="M 166.130115 48.320493 
L 166.130115 35.061929 
" clip-path="url(#p5302e3b57c)" style="fill: none; stroke: #1f77b4; stroke-width: 1.5"/>
    <path d="M 167.751401 57.620044 
L 167.751401 44.697283 
" clip-path="url(#p5302e3b57c)" style="fill: none; stroke: #1f77b4; stroke-width: 1.5"/>
    <path d="M 169.372686 51.988468 
L 169.372686 38.861309 
" clip-path="url(#p5302e3b57c)" style="fill: none; stroke: #1f77b4; stroke-width: 1.5"/>
    <path d="M 170.993972 58.961123 
L 170.993972 46.087525 
" clip-path="url(#p5302e3b57c)" style="fill: none; stroke: #1f77b4; stroke-width: 1.5"/>
    <path d="M 172.615258 40.928391 
L 172.615258 27.408953 
" clip-path="url(#p5302e3b57c)" style="fill: none; stroke: #1f77b4; stroke-width: 1.5"/>
    <path d="M 174.236543 48.482514 
L 174.236543 35.229726 
" clip-path="url(#p5302e3b57c)" style="fill: none; stroke: #1f77b4; stroke-width: 1.5"/>
    <path d="M 175.857829 61.5616 
L 175.857829 48.78388 
" clip-path="url(#p5302e3b57c)" style="fill: none; stroke: #1f77b4; stroke-width: 1.5"/>
    <path d="M 177.479114 49.697221 
L 177.479114 36.487822 
" clip-path="url(#p5302e3b57c)" style="fill: none; stroke: #1f77b4; stroke-width: 1.5"/>
    <path d="M 179.1004 41.679182 
L 179.1004 28.186005 
" clip-path="url(#p5302e3b57c)" style="fill: none; stroke: #1f77b4; stroke-width: 1.5"/>
    <path d="M 180.721685 57.587831 
L 180.721685 44.663892 
" clip-path="url(#p5302e3b57c)" style="fill: none; stroke: #1f77b4; stroke-width: 1.5"/>
    <path d="M 182.342971 63.984261 
L 182.342971 51.296527 
" clip-path="url(#p5302e3b57c)" style="fill: none; stroke: #1f77b4; stroke-width: 1.5"/>
    <path d="M 183.964257 52.232626 
L 183.964257 39.114261 
" clip-path="url(#p5302e3b57c)" style="fill: none; stroke: #1f77b4; stroke-width: 1.5"/>
    <path d="M 185.585542 50.286897 
L 185.585542 37.098613 
" clip-path="url(#p5302e3b57c)" style="fill: none; stroke: #1f77b4; stroke-width: 1.5"/>
    <path d="M 187.206828 43.193967 
L 187.206828 29.753936 
" clip-path="url(#p5302e3b57c)" style="fill: none; stroke: #1f77b4; stroke-width: 1.5"/>
    <path d="M 188.828113 57.176048 
L 188.828113 44.237054 
" clip-path="url(#p5302e3b57c)" style="fill: none; stroke: #1f77b4; stroke-width: 1.5"/>
    <path d="M 190.449399 64.453455 
L 190.449399 51.783224 
" clip-path="url(#p5302e3b57c)" style="fill: none; stroke: #1f77b4; stroke-width: 1.5"/>
    <path d="M 192.070685 58.478335 
L 192.070685 45.587016 
" clip-path="url(#p5302e3b57c)" style="fill: none; stroke: #1f77b4; stroke-width: 1.5"/>
    <path d="M 193.69197 56.426969 
L 193.69197 43.460631 
" clip-path="url(#p5302e3b57c)" style="fill: none; stroke: #1f77b4; stroke-width: 1.5"/>
    <path d="M 195.313256 43.312571 
L 195.313256 29.876709 
" clip-path="url(#p5302e3b57c)" style="fill: none; stroke: #1f77b4; stroke-width: 1.5"/>
    <path d="M 196.934541 50.528528 
L 196.934541 37.348907 
" clip-path="url(#p5302e3b57c)" style="fill: none; stroke: #1f77b4; stroke-width: 1.5"/>
    <path d="M 198.555827 42.915808 
L 198.555827 29.466002 
" clip-path="url(#p5302e3b57c)" style="fill: none; stroke: #1f77b4; stroke-width: 1.5"/>
    <path d="M 200.177112 50.560496 
L 200.177112 37.382021 
" clip-path="url(#p5302e3b57c)" style="fill: none; stroke: #1f77b4; stroke-width: 1.5"/>
    <path d="M 201.798398 48.797383 
L 201.798398 35.555828 
" clip-path="url(#p5302e3b57c)" style="fill: none; stroke: #1f77b4; stroke-width: 1.5"/>
    <path d="M 203.419684 54.71957 
L 203.419684 41.691129 
" clip-path="url(#p5302e3b57c)" style="fill: none; stroke: #1f77b4; stroke-width: 1.5"/>
    <path d="M 205.040969 44.788403 
L 205.040969 31.404543 
" clip-path="url(#p5302e3b57c)" style="fill: none; stroke: #1f77b4; stroke-width: 1.5"/>
    <path d="M 206.662255 61.475278 
L 206.662255 48.694364 
" clip-path="url(#p5302e3b57c)" style="fill: none; stroke: #1f77b4; stroke-width: 1.5"/>
    <path d="M 208.28354 65.305372 
L 208.28354 52.666984 
" clip-path="url(#p5302e3b57c)" style="fill: none; stroke: #1f77b4; stroke-width: 1.5"/>
    <path d="M 209.904826 49.111655 
L 209.904826 35.881321 
" clip-path="url(#p5302e3b57c)" style="fill: none; stroke: #1f77b4; stroke-width: 1.5"/>
    <path d="M 211.526111 51.517534 
L 211.526111 38.373429 
" clip-path="url(#p5302e3b57c)" style="fill: none; stroke: #1f77b4; stroke-width: 1.5"/>
    <path d="M 213.147397 58.919307 
L 213.147397 46.044172 
" clip-path="url(#p5302e3b57c)" style="fill: none; stroke: #1f77b4; stroke-width: 1.5"/>
    <path d="M 214.768683 44.934617 
L 214.768683 31.555919 
" clip-path="url(#p5302e3b57c)" style="fill: none; stroke: #1f77b4; stroke-width: 1.5"/>
    <path d="M 216.389968 46.677352 
L 216.389968 33.36035 
" clip-path="url(#p5302e3b57c)" style="fill: none; stroke: #1f77b4; stroke-width: 1.5"/>
    <path d="M 218.011254 55.906524 
L 218.011254 42.921224 
" clip-path="url(#p5302e3b57c)" style="fill: none; stroke: #1f77b4; stroke-width: 1.5"/>
    <path d="M 219.632539 53.417409 
L 219.632539 40.341805 
" clip-path="url(#p5302e3b57c)" style="fill: none; stroke: #1f77b4; stroke-width: 1.5"/>
    <path d="M 221.253825 50.202772 
L 221.253825 37.011474 
" clip-path="url(#p5302e3b57c)" style="fill: none; stroke: #1f77b4; stroke-width: 1.5"/>
    <path d="M 222.875111 51.983868 
L 222.875111 38.856543 
" clip-path="url(#p5302e3b57c)" style="fill: none; stroke: #1f77b4; stroke-width: 1.5"/>
    <path d="M 224.496396 61.399094 
L 224.496396 48.615361 
" clip-path="url(#p5302e3b57c)" style="fill: none; stroke: #1f77b4; stroke-width: 1.5"/>
    <path d="M 226.117682 72.33544 
L 226.117682 59.96301 
" clip-path="url(#p5302e3b57c)" style="fill: none; stroke: #1f77b4; stroke-width: 1.5"/>
    <path d="M 227.738967 46.070486 
L 227.738967 32.731967 
" clip-path="url(#p5302e3b57c)" style="fill: none; stroke: #1f77b4; stroke-width: 1.5"/>
    <path d="M 229.360253 47.142565 
L 229.360253 33.842082 
" clip-path="url(#p5302e3b57c)" style="fill: none; stroke: #1f77b4; stroke-width: 1.5"/>
    <path d="M 230.981538 65.818761 
L 230.981538 53.199602 
" clip-path="url(#p5302e3b57c)" style="fill: none; stroke: #1f77b4; stroke-width: 1.5"/>
    <path d="M 232.602824 60.820563 
L 232.602824 48.015446 
" clip-path="url(#p5302e3b57c)" style="fill: none; stroke: #1f77b4; stroke-width: 1.5"/>
    <path d="M 234.22411 49.559206 
L 234.22411 36.34487 
" clip-path="url(#p5302e3b57c)" style="fill: none; stroke: #1f77b4; stroke-width: 1.5"/>
    <path d="M 235.845395 65.535385 
L 235.845395 52.905608 
" clip-path="url(#p5302e3b57c)" style="fill: none; stroke: #1f77b4; stroke-width: 1.5"/>
    <path d="M 237.466681 51.280441 
L 237.466681 38.127813 
" clip-path="url(#p5302e3b57c)" style="fill: none; stroke: #1f77b4; stroke-width: 1.5"/>
    <path d="M 239.087966 45.444365 
L 239.087966 32.083683 
" clip-path="url(#p5302e3b57c)" style="fill: none; stroke: #1f77b4; stroke-width: 1.5"/>
    <path d="M 240.709252 62.218123 
L 240.709252 49.464725 
" clip-path="url(#p5302e3b57c)" style="fill: none; stroke: #1f77b4; stroke-width: 1.5"/>
    <path d="M 242.330538 58.631279 
L 242.330538 45.745571 
" clip-path="url(#p5302e3b57c)" style="fill: none; stroke: #1f77b4; stroke-width: 1.5"/>
    <path d="M 243.951823 33.964491 
L 243.951823 20.203891 
" clip-path="url(#p5302e3b57c)" style="fill: none; stroke: #1f77b4; stroke-width: 1.5"/>
    <path d="M 245.573109 67.464744 
L 245.573109 54.907438 
" clip-path="url(#p5302e3b57c)" style="fill: none; stroke: #1f77b4; stroke-width: 1.5"/>
    <path d="M 247.194394 64.024586 
L 247.194394 51.338355 
" clip-path="url(#p5302e3b57c)" style="fill: none; stroke: #1f77b4; stroke-width: 1.5"/>
    <path d="M 248.81568 47.03042 
L 248.81568 33.725953 
" clip-path="url(#p5302e3b57c)" style="fill: none; stroke: #1f77b4; stroke-width: 1.5"/>
    <path d="M 250.436965 44.469695 
L 250.436965 31.074587 
" clip-path="url(#p5302e3b57c)" style="fill: none; stroke: #1f77b4; stroke-width: 1.5"/>
    <path d="M 252.058251 63.553453 
L 252.058251 50.84967 
" clip-path="url(#p5302e3b57c)" style="fill: none; stroke: #1f77b4; stroke-width: 1.5"/>
    <path d="M 253.679537 48.669664 
L 253.679537 35.423551 
" clip-path="url(#p5302e3b57c)" style="fill: none; stroke: #1f77b4; stroke-width: 1.5"/>
    <path d="M 255.300822 55.327322 
L 255.300822 42.320952 
" clip-path="url(#p5302e3b57c)" style="fill: none; stroke: #1f77b4; stroke-width: 1.5"/>
    <path d="M 256.922108 46.902743 
L 256.922108 33.593741 
" clip-path="url(#p5302e3b57c)" style="fill: none; stroke: #1f77b4; stroke-width: 1.5"/>
    <path d="M 258.543393 34.877462 
L 258.543393 21.148234 
" clip-path="url(#p5302e3b57c)" style="fill: none; stroke: #1f77b4; stroke-width: 1.5"/>
    <path d="M 260.164679 68.817351 
L 260.164679 56.311107 
" clip-path="url(#p5302e3b57c)" style="fill: none; stroke: #1f77b4; stroke-width: 1.5"/>
    <path d="M 261.785965 53.944786 
L 261.785965 40.888262 
" clip-path="url(#p5302e3b57c)" style="fill: none; stroke: #1f77b4; stroke-width: 1.5"/>
    <path d="M 263.40725 41.292977 
L 263.40725 27.786285 
" clip-path="url(#p5302e3b57c)" style="fill: none; stroke: #1f77b4; stroke-width: 1.5"/>
    <path d="M 265.028536 64.725675 
L 265.028536 52.06561 
" clip-path="url(#p5302e3b57c)" style="fill: none; stroke: #1f77b4; stroke-width: 1.5"/>
    <path d="M 266.649821 49.818674 
L 266.649821 36.613621 
" clip-path="url(#p5302e3b57c)" style="fill: none; stroke: #1f77b4; stroke-width: 1.5"/>
    <path d="M 268.271107 54.013404 
L 268.271107 40.959365 
" clip-path="url(#p5302e3b57c)" style="fill: none; stroke: #1f77b4; stroke-width: 1.5"/>
    <path d="M 269.892392 63.815987 
L 269.892392 51.121982 
" clip-path="url(#p5302e3b57c)" style="fill: none; stroke: #1f77b4; stroke-width: 1.5"/>
    <path d="M 271.513678 59.151219 
L 271.513678 46.284604 
" clip-path="url(#p5302e3b57c)" style="fill: none; stroke: #1f77b4; stroke-width: 1.5"/>
    <path d="M 273.134964 67.612879 
L 273.134964 55.061155 
" clip-path="url(#p5302e3b57c)" style="fill: none; stroke: #1f77b4; stroke-width: 1.5"/>
    <path d="M 274.756249 49.232075 
L 274.756249 36.006044 
" clip-path="url(#p5302e3b57c)" style="fill: none; stroke: #1f77b4; stroke-width: 1.5"/>
    <path d="M 276.377535 65.828266 
L 276.377535 53.209463 
" clip-path="url(#p5302e3b57c)" style="fill: none; stroke: #1f77b4; stroke-width: 1.5"/>
    <path d="M 277.99882 46.576796 
L 277.99882 33.256227 
" clip-path="url(#p5302e3b57c)" style="fill: none; stroke: #1f77b4; stroke-width: 1.5"/>
    <path d="M 279.620106 56.757189 
L 279.620106 43.802898 
" clip-path="url(#p5302e3b57c)" style="fill: none; stroke: #1f77b4; stroke-width: 1.5"/>
    <path d="M 281.241391 56.215921 
L 281.241391 43.241891 
" clip-path="url(#p5302e3b57c)" style="fill: none; stroke: #1f77b4; stroke-width: 1.5"/>
    <path d="M 282.862677 68.374236 
L 282.862677 55.85124 
" clip-path="url(#p5302e3b57c)" style="fill: none; stroke: #1f77b4; stroke-width: 1.5"/>
    <path d="M 284.483963 61.556989 
L 284.483963 48.779098 
" clip-path="url(#p5302e3b57c)" style="fill: none; stroke: #1f77b4; stroke-width: 1.5"/>
    <path d="M 286.105248 55.884274 
L 286.105248 42.898165 
" clip-path="url(#p5302e3b57c)" style="fill: none; stroke: #1f77b4; stroke-width: 1.5"/>
    <path d="M 287.726534 40.983166 
L 287.726534 27.465642 
" clip-path="url(#p5302e3b57c)" style="fill: none; stroke: #1f77b4; stroke-width: 1.5"/>
    <path d="M 289.347819 63.110295 
L 289.347819 50.390025 
" clip-path="url(#p5302e3b57c)" style="fill: none; stroke: #1f77b4; stroke-width: 1.5"/>
    <path d="M 290.969105 60.020197 
L 290.969105 47.185558 
" clip-path="url(#p5302e3b57c)" style="fill: none; stroke: #1f77b4; stroke-width: 1.5"/>
    <path d="M 292.590391 58.329229 
L 292.590391 45.432443 
" clip-path="url(#p5302e3b57c)" style="fill: none; stroke: #1f77b4; stroke-width: 1.5"/>
    <path d="M 294.211676 63.434016 
L 294.211676 50.725787 
" clip-path="url(#p5302e3b57c)" style="fill: none; stroke: #1f77b4; stroke-width: 1.5"/>
    <path d="M 295.832962 40.296517 
L 295.832962 26.755016 
" clip-path="url(#p5302e3b57c)" style="fill: none; stroke: #1f77b4; stroke-width: 1.5"/>
    <path d="M 297.454247 41.887302 
L 297.454247 28.401415 
" clip-path="url(#p5302e3b57c)" style="fill: none; stroke: #1f77b4; stroke-width: 1.5"/>
    <path d="M 299.075533 54.10606 
L 299.075533 41.055377 
" clip-path="url(#p5302e3b57c)" style="fill: none; stroke: #1f77b4; stroke-width: 1.5"/>
    <path d="M 300.696818 41.476184 
L 300.696818 27.975902 
" clip-path="url(#p5302e3b57c)" style="fill: none; stroke: #1f77b4; stroke-width: 1.5"/>
    <path d="M 302.318104 48.796373 
L 302.318104 35.554782 
" clip-path="url(#p5302e3b57c)" style="fill: none; stroke: #1f77b4; stroke-width: 1.5"/>
    <path d="M 303.93939 62.245688 
L 303.93939 49.493312 
" clip-path="url(#p5302e3b57c)" style="fill: none; stroke: #1f77b4; stroke-width: 1.5"/>
    <path d="M 305.560675 54.863667 
L 305.560675 41.840456 
" clip-path="url(#p5302e3b57c)" style="fill: none; stroke: #1f77b4; stroke-width: 1.5"/>
    <path d="M 307.181961 49.613551 
L 307.181961 36.401159 
" clip-path="url(#p5302e3b57c)" style="fill: none; stroke: #1f77b4; stroke-width: 1.5"/>
    <path d="M 308.803246 49.203075 
L 308.803246 35.976008 
" clip-path="url(#p5302e3b57c)" style="fill: none; stroke: #1f77b4; stroke-width: 1.5"/>
    <path d="M 310.424532 55.128782 
L 310.424532 42.115198 
" clip-path="url(#p5302e3b57c)" style="fill: none; stroke: #1f77b4; stroke-width: 1.5"/>
    <path d="M 312.045818 55.658683 
L 312.045818 42.664363 
" clip-path="url(#p5302e3b57c)" style="fill: none; stroke: #1f77b4; stroke-width: 1.5"/>
    <path d="M 313.667103 51.882584 
L 313.667103 38.751612 
" clip-path="url(#p5302e3b57c)" style="fill: none; stroke: #1f77b4; stroke-width: 1.5"/>
    <path d="M 315.288389 37.869573 
L 315.288389 24.243672 
" clip-path="url(#p5302e3b57c)" style="fill: none; stroke: #1f77b4; stroke-width: 1.5"/>
    <path d="M 316.909674 65.393641 
L 316.909674 52.758557 
" clip-path="url(#p5302e3b57c)" style="fill: none; stroke: #1f77b4; stroke-width: 1.5"/>
    <path d="M 318.53096 65.501262 
L 318.53096 52.870208 
" clip-path="url(#p5302e3b57c)" style="fill: none; stroke: #1f77b4; stroke-width: 1.5"/>
    <path d="M 320.152245 77.792766 
L 320.152245 65.630884 
" clip-path="url(#p5302e3b57c)" style="fill: none; stroke: #1f77b4; stroke-width: 1.5"/>
    <path d="M 321.773531 64.930354 
L 321.773531 52.277938 
" clip-path="url(#p5302e3b57c)" style="fill: none; stroke: #1f77b4; stroke-width: 1.5"/>
    <path d="M 323.394817 85.420994 
L 323.394817 73.559799 
" clip-path="url(#p5302e3b57c)" style="fill: none; stroke: #1f77b4; stroke-width: 1.5"/>
    <path d="M 325.016102 86.199852 
L 325.016102 74.369797 
" clip-path="url(#p5302e3b57c)" style="fill: none; stroke: #1f77b4; stroke-width: 1.5"/>
    <path d="M 326.637388 74.71895 
L 326.637388 62.438025 
" clip-path="url(#p5302e3b57c)" style="fill: none; stroke: #1f77b4; stroke-width: 1.5"/>
    <path d="M 328.258673 99.78652 
L 328.258673 88.513792 
" clip-path="url(#p5302e3b57c)" style="fill: none; stroke: #1f77b4; stroke-width: 1.5"/>
    <path d="M 329.879959 75.420035 
L 329.879959 63.166158 
" clip-path="url(#p5302e3b57c)" style="fill: none; stroke: #1f77b4; stroke-width: 1.5"/>
    <path d="M 331.501245 94.404091 
L 331.501245 82.907276 
" clip-path="url(#p5302e3b57c)" style="fill: none; stroke: #1f77b4; stroke-width: 1.5"/>
    <path d="M 333.12253 102.507272 
L 333.12253 91.349566 
" clip-path="url(#p5302e3b57c)" style="fill: none; stroke: #1f77b4; stroke-width: 1.5"/>
    <path d="M 334.743816 101.565512 
L 334.743816 90.367856 
" clip-path="url(#p5302e3b57c)" style="fill: none; stroke: #1f77b4; stroke-width: 1.5"/>
    <path d="M 336.365101 102.782858 
L 336.365101 91.63687 
" clip-path="url(#p5302e3b57c)" style="fill: none; stroke: #1f77b4; stroke-width: 1.5"/>
    <path d="M 337.986387 113.788444 
L 337.986387 103.121175 
" clip-path="url(#p5302e3b57c)" style="fill: none; stroke: #1f77b4; stroke-width: 1.5"/>
    <path d="M 339.607672 127.718567 
L 339.607672 117.690718 
" clip-path="url(#p5302e3b57c)" style="fill: none; stroke: #1f77b4; stroke-width: 1.5"/>
    <path d="M 341.228958 127.109733 
L 341.228958 117.053068 
" clip-path="url(#p5302e3b57c)" style="fill: none; stroke: #1f77b4; stroke-width: 1.5"/>
    <path d="M 342.850244 126.301851 
L 342.850244 116.207078 
" clip-path="url(#p5302e3b57c)" style="fill: none; stroke: #1f77b4; stroke-width: 1.5"/>
    <path d="M 344.471529 116.157271 
L 344.471529 105.595942 
" clip-path="url(#p5302e3b57c)" style="fill: none; stroke: #1f77b4; stroke-width: 1.5"/>
    <path d="M 346.092815 135.523473 
L 346.092815 125.87284 
" clip-path="url(#p5302e3b57c)" style="fill: none; stroke: #1f77b4; stroke-width: 1.5"/>
    <path d="M 347.7141 132.915006 
L 347.7141 123.136645 
" clip-path="url(#p5302e3b57c)" style="fill: none; stroke: #1f77b4; stroke-width: 1.5"/>
    <path d="M 349.335386 144.63285 
L 349.335386 135.442545 
" clip-path="url(#p5302e3b57c)" style="fill: none; stroke: #1f77b4; stroke-width: 1.5"/>
    <path d="M 350.956671 143.53979 
L 350.956671 134.293008 
" clip-path="url(#p5302e3b57c)" style="fill: none; stroke: #1f77b4; stroke-width: 1.5"/>
    <path d="M 352.577957 149.596766 
L 352.577957 140.667554 
" clip-path="url(#p5302e3b57c)" style="fill: none; stroke: #1f77b4; stroke-width: 1.5"/>
    <path d="M 354.199243 153.799813 
L 354.199243 145.097965 
" clip-path="url(#p5302e3b57c)" style="fill: none; stroke: #1f77b4; stroke-width: 1.5"/>
    <path d="M 355.820528 163.79336 
L 355.820528 155.658335 
" clip-path="url(#p5302e3b57c)" style="fill: none; stroke: #1f77b4; stroke-width: 1.5"/>
    <path d="M 357.441814 162.66035 
L 357.441814 154.459036 
" clip-path="url(#p5302e3b57c)" style="fill: none; stroke: #1f77b4; stroke-width: 1.5"/>
    <path d="M 359.063099 163.2606 
L 359.063099 155.094336 
" clip-path="url(#p5302e3b57c)" style="fill: none; stroke: #1f77b4; stroke-width: 1.5"/>
    <path d="M 360.684385 161.723754 
L 360.684385 153.468055 
" clip-path="url(#p5302e3b57c)" style="fill: none; stroke: #1f77b4; stroke-width: 1.5"/>
    <path d="M 362.305671 179.067768 
L 362.305671 171.887878 
" clip-path="url(#p5302e3b57c)" style="fill: none; stroke: #1f77b4; stroke-width: 1.5"/>
    <path d="M 363.926956 177.254138 
L 363.926956 169.954082 
" clip-path="url(#p5302e3b57c)" style="fill: none; stroke: #1f77b4; stroke-width: 1.5"/>
    <path d="M 365.548242 181.641986 
L 365.548242 174.636315 
" clip-path="url(#p5302e3b57c)" style="fill: none; stroke: #1f77b4; stroke-width: 1.5"/>
    <path d="M 367.169527 189.910023 
L 367.169527 183.497048 
" clip-path="url(#p5302e3b57c)" style="fill: none; stroke: #1f77b4; stroke-width: 1.5"/>
    <path d="M 368.790813 188.797256 
L 368.790813 182.301245 
" clip-path="url(#p5302e3b57c)" style="fill: none; stroke: #1f77b4; stroke-width: 1.5"/>
    <path d="M 370.412098 197.570897 
L 370.412098 191.763045 
" clip-path="url(#p5302e3b57c)" style="fill: none; stroke: #1f77b4; stroke-width: 1.5"/>
    <path d="M 372.033384 194.256617 
L 372.033384 188.179281 
" clip-path="url(#p5302e3b57c)" style="fill: none; stroke: #1f77b4; stroke-width: 1.5"/>
    <path d="M 373.65467 206.918477 
L 373.65467 201.952623 
" clip-path="url(#p5302e3b57c)" style="fill: none; stroke: #1f77b4; stroke-width: 1.5"/>
    <path d="M 375.275955 201.789988 
L 375.275955 196.345309 
" clip-path="url(#p5302e3b57c)" style="fill: none; stroke: #1f77b4; stroke-width: 1.5"/>
    <path d="M 376.897241 210.280796 
L 376.897241 205.65711 
" clip-path="url(#p5302e3b57c)" style="fill: none; stroke: #1f77b4; stroke-width: 1.5"/>
    <path d="M 378.518526 211.92007 
L 378.518526 207.473266 
" clip-path="url(#p5302e3b57c)" style="fill: none; stroke: #1f77b4; stroke-width: 1.5"/>
    <path d="M 380.139812 217.872159 
L 380.139812 214.142011 
" clip-path="url(#p5302e3b57c)" style="fill: none; stroke: #1f77b4; stroke-width: 1.5"/>
    <path d="M 381.761098 224.622205 
L 381.761098 221.947178 
" clip-path="url(#p5302e3b57c)" style="fill: none; stroke: #1f77b4; stroke-width: 1.5"/>
    <path d="M 383.382383 228.23529 
L 383.382383 226.386846 
" clip-path="url(#p5302e3b57c)" style="fill: none; stroke: #1f77b4; stroke-width: 1.5"/>
    <path d="M 385.003669 229.379506 
L 385.003669 227.902429 
" clip-path="url(#p5302e3b57c)" style="fill: none; stroke: #1f77b4; stroke-width: 1.5"/>
    <path d="M 386.624954 230.995568 
L 386.624954 230.984978 
" clip-path="url(#p5302e3b57c)" style="fill: none; stroke: #1f77b4; stroke-width: 1.5"/>
   </g>
  </g>
 </g>
 <defs>
  <clipPath id="p5302e3b57c">
   <rect x="46.965625" y="7.2" width="356.682828" height="234.4525"/>
  </clipPath>
 </defs>
</svg>