<?xml version="1.0" encoding="utf-8" standalone="no"?>
<!DOCTYPE svg PUBLIC "-//W3C//DTD SVG 1.1//EN"
  "http://www.w3.org/Graphics/SVG/1.1/DTD/svg11.dtd">
<svg xmlns:xlink="http://www.w3.org/1999/xlink" width="424.495625pt" height="280.274375pt" viewBox="0 0 424.495625 280.274375" xmlns="http://www.w3.org/2000/svg" version="1.1">
 <metadata>
  <rdf:RDF xmlns:dc="http://purl.org/dc/elements/1.1/" xmlns:cc="http://creativecommons.org/ns#" xmlns:rdf="http://www.w3.org/1999/02/22-rdf-syntax-ns#">
   <cc:Work>
    <dc:type rdf:resource="http://purl.org/dc/dcmitype/StillImage"/>
    <dc:date>2024-06-05T11:39:38.655803</dc:date>
    <dc:format>image/svg+xml</dc:format>
    <dc:creator>
     <cc:Agent>
      <dc:title>Matplotlib v3.9.0, https://matplotlib.org/</dc:title>
     </cc:Agent>
    </dc:creator>
   </cc:Work>
  </rdf:RDF>
 </metadata>
 <defs>
  <style type="text/css">*{stroke-linejoin: round; stroke-linecap: butt}</style>
 </defs>
 <g id="figure_1">
  <g id="patch_1">
   <path d="M 0 280.274375 
L 424.495625 280.274375 
L 424.495625 0 
L 0 0 
z
" style="fill: #ffffff"/>
  </g>
  <g id="axes_1">
   <g id="patch_2">
    <path d="M 46.965625 241.03375 
L 417.295625 241.03375 
L 417.295625 7.2 
L 46.965625 7.2 
z
" style="fill: #ffffff"/>
   </g>
   <g id="matplotlib.axis_1">
    <g id="xtick_1">
     <g id="line2d_1">
      <defs>
       <path id="m04ec339ff9" d="M 0 0 
L 0 3.5 
" style="stroke: #000000; stroke-width: 0.8"/>
      </defs>
      <g>
       <use xlink:href="#m04ec339ff9" x="64.059776" y="241.03375" style="stroke: #000000; stroke-width: 0.8"/>
      </g>
     </g>
     <g id="text_1">
      <!-- 5.25 -->
      <g transform="translate(52.926964 255.632187) scale(0.1 -0.1)">
       <defs>
        <path id="DejaVuSans-35" d="M 691 4666 
L 3169 4666 
L 3169 4134 
L 1269 4134 
L 1269 2991 
Q 1406 3038 1543 3061 
Q 1681 3084 1819 3084 
Q 2600 3084 3056 2656 
Q 3513 2228 3513 1497 
Q 3513 744 3044 326 
Q 2575 -91 1722 -91 
Q 1428 -91 1123 -41 
Q 819 9 494 109 
L 494 744 
Q 775 591 1075 516 
Q 1375 441 1709 441 
Q 2250 441 2565 725 
Q 2881 1009 2881 1497 
Q 2881 1984 2565 2268 
Q 2250 2553 1709 2553 
Q 1456 2553 1204 2497 
Q 953 2441 691 2322 
L 691 4666 
z
" transform="scale(0.015625)"/>
        <path id="DejaVuSans-2e" d="M 684 794 
L 1344 794 
L 1344 0 
L 684 0 
L 684 794 
z
" transform="scale(0.015625)"/>
        <path id="DejaVuSans-32" d="M 1228 531 
L 3431 531 
L 3431 0 
L 469 0 
L 469 531 
Q 828 903 1448 1529 
Q 2069 2156 2228 2338 
Q 2531 2678 2651 2914 
Q 2772 3150 2772 3378 
Q 2772 3750 2511 3984 
Q 2250 4219 1831 4219 
Q 1534 4219 1204 4116 
Q 875 4013 500 3803 
L 500 4441 
Q 881 4594 1212 4672 
Q 1544 4750 1819 4750 
Q 2544 4750 2975 4387 
Q 3406 4025 3406 3419 
Q 3406 3131 3298 2873 
Q 3191 2616 2906 2266 
Q 2828 2175 2409 1742 
Q 1991 1309 1228 531 
z
" transform="scale(0.015625)"/>
       </defs>
       <use xlink:href="#DejaVuSans-35"/>
       <use xlink:href="#DejaVuSans-2e" x="63.623047"/>
       <use xlink:href="#DejaVuSans-32" x="95.410156"/>
       <use xlink:href="#DejaVuSans-35" x="159.033203"/>
      </g>
     </g>
    </g>
    <g id="xtick_2">
     <g id="line2d_2">
      <g>
       <use xlink:href="#m04ec339ff9" x="112.634256" y="241.03375" style="stroke: #000000; stroke-width: 0.8"/>
      </g>
     </g>
     <g id="text_2">
      <!-- 5.50 -->
      <g transform="translate(101.501443 255.632187) scale(0.1 -0.1)">
       <defs>
        <path id="DejaVuSans-30" d="M 2034 4250 
Q 1547 4250 1301 3770 
Q 1056 3291 1056 2328 
Q 1056 1369 1301 889 
Q 1547 409 2034 409 
Q 2525 409 2770 889 
Q 3016 1369 3016 2328 
Q 3016 3291 2770 3770 
Q 2525 4250 2034 4250 
z
M 2034 4750 
Q 2819 4750 3233 4129 
Q 3647 3509 3647 2328 
Q 3647 1150 3233 529 
Q 2819 -91 2034 -91 
Q 1250 -91 836 529 
Q 422 1150 422 2328 
Q 422 3509 836 4129 
Q 1250 4750 2034 4750 
z
" transform="scale(0.015625)"/>
       </defs>
       <use xlink:href="#DejaVuSans-35"/>
       <use xlink:href="#DejaVuSans-2e" x="63.623047"/>
       <use xlink:href="#DejaVuSans-35" x="95.410156"/>
       <use xlink:href="#DejaVuSans-30" x="159.033203"/>
      </g>
     </g>
    </g>
    <g id="xtick_3">
     <g id="line2d_3">
      <g>
       <use xlink:href="#m04ec339ff9" x="161.208736" y="241.03375" style="stroke: #000000; stroke-width: 0.8"/>
      </g>
     </g>
     <g id="text_3">
      <!-- 5.75 -->
      <g transform="translate(150.075923 255.632187) scale(0.1 -0.1)">
       <defs>
        <path id="DejaVuSans-37" d="M 525 4666 
L 3525 4666 
L 3525 4397 
L 1831 0 
L 1172 0 
L 2766 4134 
L 525 4134 
L 525 4666 
z
" transform="scale(0.015625)"/>
       </defs>
       <use xlink:href="#DejaVuSans-35"/>
       <use xlink:href="#DejaVuSans-2e" x="63.623047"/>
       <use xlink:href="#DejaVuSans-37" x="95.410156"/>
       <use xlink:href="#DejaVuSans-35" x="159.033203"/>
      </g>
     </g>
    </g>
    <g id="xtick_4">
     <g id="line2d_4">
      <g>
       <use xlink:href="#m04ec339ff9" x="209.783216" y="241.03375" style="stroke: #000000; stroke-width: 0.8"/>
      </g>
     </g>
     <g id="text_4">
      <!-- 6.00 -->
      <g transform="translate(198.650403 255.632187) scale(0.1 -0.1)">
       <defs>
        <path id="DejaVuSans-36" d="M 2113 2584 
Q 1688 2584 1439 2293 
Q 1191 2003 1191 1497 
Q 1191 994 1439 701 
Q 1688 409 2113 409 
Q 2538 409 2786 701 
Q 3034 994 3034 1497 
Q 3034 2003 2786 2293 
Q 2538 2584 2113 2584 
z
M 3366 4563 
L 3366 3988 
Q 3128 4100 2886 4159 
Q 2644 4219 2406 4219 
Q 1781 4219 1451 3797 
Q 1122 3375 1075 2522 
Q 1259 2794 1537 2939 
Q 1816 3084 2150 3084 
Q 2853 3084 3261 2657 
Q 3669 2231 3669 1497 
Q 3669 778 3244 343 
Q 2819 -91 2113 -91 
Q 1303 -91 875 529 
Q 447 1150 447 2328 
Q 447 3434 972 4092 
Q 1497 4750 2381 4750 
Q 2619 4750 2861 4703 
Q 3103 4656 3366 4563 
z
" transform="scale(0.015625)"/>
       </defs>
       <use xlink:href="#DejaVuSans-36"/>
       <use xlink:href="#DejaVuSans-2e" x="63.623047"/>
       <use xlink:href="#DejaVuSans-30" x="95.410156"/>
       <use xlink:href="#DejaVuSans-30" x="159.033203"/>
      </g>
     </g>
    </g>
    <g id="xtick_5">
     <g id="line2d_5">
      <g>
       <use xlink:href="#m04ec339ff9" x="258.357696" y="241.03375" style="stroke: #000000; stroke-width: 0.8"/>
      </g>
     </g>
     <g id="text_5">
      <!-- 6.25 -->
      <g transform="translate(247.224883 255.632187) scale(0.1 -0.1)">
       <use xlink:href="#DejaVuSans-36"/>
       <use xlink:href="#DejaVuSans-2e" x="63.623047"/>
       <use xlink:href="#DejaVuSans-32" x="95.410156"/>
       <use xlink:href="#DejaVuSans-35" x="159.033203"/>
      </g>
     </g>
    </g>
    <g id="xtick_6">
     <g id="line2d_6">
      <g>
       <use xlink:href="#m04ec339ff9" x="306.932176" y="241.03375" style="stroke: #000000; stroke-width: 0.8"/>
      </g>
     </g>
     <g id="text_6">
      <!-- 6.50 -->
      <g transform="translate(295.799363 255.632187) scale(0.1 -0.1)">
       <use xlink:href="#DejaVuSans-36"/>
       <use xlink:href="#DejaVuSans-2e" x="63.623047"/>
       <use xlink:href="#DejaVuSans-35" x="95.410156"/>
       <use xlink:href="#DejaVuSans-30" x="159.033203"/>
      </g>
     </g>
    </g>
    <g id="xtick_7">
     <g id="line2d_7">
      <g>
       <use xlink:href="#m04ec339ff9" x="355.506656" y="241.03375" style="stroke: #000000; stroke-width: 0.8"/>
      </g>
     </g>
     <g id="text_7">
      <!-- 6.75 -->
      <g transform="translate(344.373843 255.632187) scale(0.1 -0.1)">
       <use xlink:href="#DejaVuSans-36"/>
       <use xlink:href="#DejaVuSans-2e" x="63.623047"/>
       <use xlink:href="#DejaVuSans-37" x="95.410156"/>
       <use xlink:href="#DejaVuSans-35" x="159.033203"/>
      </g>
     </g>
    </g>
    <g id="xtick_8">
     <g id="line2d_8">
      <g>
       <use xlink:href="#m04ec339ff9" x="404.081135" y="241.03375" style="stroke: #000000; stroke-width: 0.8"/>
      </g>
     </g>
     <g id="text_8">
      <!-- 7.00 -->
      <g transform="translate(392.948323 255.632187) scale(0.1 -0.1)">
       <use xlink:href="#DejaVuSans-37"/>
       <use xlink:href="#DejaVuSans-2e" x="63.623047"/>
       <use xlink:href="#DejaVuSans-30" x="95.410156"/>
       <use xlink:href="#DejaVuSans-30" x="159.033203"/>
      </g>
     </g>
    </g>
    <g id="text_9">
     <!-- wavelength [Å] -->
     <g transform="translate(194.093125 270.994687) scale(0.1 -0.1)">
      <defs>
       <path id="DejaVuSans-77" d="M 269 3500 
L 844 3500 
L 1563 769 
L 2278 3500 
L 2956 3500 
L 3675 769 
L 4391 3500 
L 4966 3500 
L 4050 0 
L 3372 0 
L 2619 2869 
L 1863 0 
L 1184 0 
L 269 3500 
z
" transform="scale(0.015625)"/>
       <path id="DejaVuSans-61" d="M 2194 1759 
Q 1497 1759 1228 1600 
Q 959 1441 959 1056 
Q 959 750 1161 570 
Q 1363 391 1709 391 
Q 2188 391 2477 730 
Q 2766 1069 2766 1631 
L 2766 1759 
L 2194 1759 
z
M 3341 1997 
L 3341 0 
L 2766 0 
L 2766 531 
Q 2569 213 2275 61 
Q 1981 -91 1556 -91 
Q 1019 -91 701 211 
Q 384 513 384 1019 
Q 384 1609 779 1909 
Q 1175 2209 1959 2209 
L 2766 2209 
L 2766 2266 
Q 2766 2663 2505 2880 
Q 2244 3097 1772 3097 
Q 1472 3097 1187 3025 
Q 903 2953 641 2809 
L 641 3341 
Q 956 3463 1253 3523 
Q 1550 3584 1831 3584 
Q 2591 3584 2966 3190 
Q 3341 2797 3341 1997 
z
" transform="scale(0.015625)"/>
       <path id="DejaVuSans-76" d="M 191 3500 
L 800 3500 
L 1894 563 
L 2988 3500 
L 3597 3500 
L 2284 0 
L 1503 0 
L 191 3500 
z
" transform="scale(0.015625)"/>
       <path id="DejaVuSans-65" d="M 3597 1894 
L 3597 1613 
L 953 1613 
Q 991 1019 1311 708 
Q 1631 397 2203 397 
Q 2534 397 2845 478 
Q 3156 559 3463 722 
L 3463 178 
Q 3153 47 2828 -22 
Q 2503 -91 2169 -91 
Q 1331 -91 842 396 
Q 353 884 353 1716 
Q 353 2575 817 3079 
Q 1281 3584 2069 3584 
Q 2775 3584 3186 3129 
Q 3597 2675 3597 1894 
z
M 3022 2063 
Q 3016 2534 2758 2815 
Q 2500 3097 2075 3097 
Q 1594 3097 1305 2825 
Q 1016 2553 972 2059 
L 3022 2063 
z
" transform="scale(0.015625)"/>
       <path id="DejaVuSans-6c" d="M 603 4863 
L 1178 4863 
L 1178 0 
L 603 0 
L 603 4863 
z
" transform="scale(0.015625)"/>
       <path id="DejaVuSans-6e" d="M 3513 2113 
L 3513 0 
L 2938 0 
L 2938 2094 
Q 2938 2591 2744 2837 
Q 2550 3084 2163 3084 
Q 1697 3084 1428 2787 
Q 1159 2491 1159 1978 
L 1159 0 
L 581 0 
L 581 3500 
L 1159 3500 
L 1159 2956 
Q 1366 3272 1645 3428 
Q 1925 3584 2291 3584 
Q 2894 3584 3203 3211 
Q 3513 2838 3513 2113 
z
" transform="scale(0.015625)"/>
       <path id="DejaVuSans-67" d="M 2906 1791 
Q 2906 2416 2648 2759 
Q 2391 3103 1925 3103 
Q 1463 3103 1205 2759 
Q 947 2416 947 1791 
Q 947 1169 1205 825 
Q 1463 481 1925 481 
Q 2391 481 2648 825 
Q 2906 1169 2906 1791 
z
M 3481 434 
Q 3481 -459 3084 -895 
Q 2688 -1331 1869 -1331 
Q 1566 -1331 1297 -1286 
Q 1028 -1241 775 -1147 
L 775 -588 
Q 1028 -725 1275 -790 
Q 1522 -856 1778 -856 
Q 2344 -856 2625 -561 
Q 2906 -266 2906 331 
L 2906 616 
Q 2728 306 2450 153 
Q 2172 0 1784 0 
Q 1141 0 747 490 
Q 353 981 353 1791 
Q 353 2603 747 3093 
Q 1141 3584 1784 3584 
Q 2172 3584 2450 3431 
Q 2728 3278 2906 2969 
L 2906 3500 
L 3481 3500 
L 3481 434 
z
" transform="scale(0.015625)"/>
       <path id="DejaVuSans-74" d="M 1172 4494 
L 1172 3500 
L 2356 3500 
L 2356 3053 
L 1172 3053 
L 1172 1153 
Q 1172 725 1289 603 
Q 1406 481 1766 481 
L 2356 481 
L 2356 0 
L 1766 0 
Q 1100 0 847 248 
Q 594 497 594 1153 
L 594 3053 
L 172 3053 
L 172 3500 
L 594 3500 
L 594 4494 
L 1172 4494 
z
" transform="scale(0.015625)"/>
       <path id="DejaVuSans-68" d="M 3513 2113 
L 3513 0 
L 2938 0 
L 2938 2094 
Q 2938 2591 2744 2837 
Q 2550 3084 2163 3084 
Q 1697 3084 1428 2787 
Q 1159 2491 1159 1978 
L 1159 0 
L 581 0 
L 581 4863 
L 1159 4863 
L 1159 2956 
Q 1366 3272 1645 3428 
Q 1925 3584 2291 3584 
Q 2894 3584 3203 3211 
Q 3513 2838 3513 2113 
z
" transform="scale(0.015625)"/>
       <path id="DejaVuSans-20" transform="scale(0.015625)"/>
       <path id="DejaVuSans-5b" d="M 550 4863 
L 1875 4863 
L 1875 4416 
L 1125 4416 
L 1125 -397 
L 1875 -397 
L 1875 -844 
L 550 -844 
L 550 4863 
z
" transform="scale(0.015625)"/>
       <path id="DejaVuSans-c5" d="M 2663 5081 
Q 2663 5278 2523 5417 
Q 2384 5556 2188 5556 
Q 1988 5556 1852 5420 
Q 1716 5284 1716 5081 
Q 1716 4884 1853 4746 
Q 1991 4609 2188 4609 
Q 2384 4609 2523 4746 
Q 2663 4884 2663 5081 
z
M 2188 4044 
L 1338 1722 
L 3041 1722 
L 2188 4044 
z
M 1716 4366 
Q 1525 4494 1428 4673 
Q 1331 4853 1331 5081 
Q 1331 5441 1579 5691 
Q 1828 5941 2188 5941 
Q 2544 5941 2795 5689 
Q 3047 5438 3047 5081 
Q 3047 4863 2948 4678 
Q 2850 4494 2663 4366 
L 4325 0 
L 3669 0 
L 3244 1197 
L 1141 1197 
L 716 0 
L 50 0 
L 1716 4366 
z
" transform="scale(0.015625)"/>
       <path id="DejaVuSans-5d" d="M 1947 4863 
L 1947 -844 
L 622 -844 
L 622 -397 
L 1369 -397 
L 1369 4416 
L 622 4416 
L 622 4863 
L 1947 4863 
z
" transform="scale(0.015625)"/>
      </defs>
      <use xlink:href="#DejaVuSans-77"/>
      <use xlink:href="#DejaVuSans-61" x="81.787109"/>
      <use xlink:href="#DejaVuSans-76" x="143.066406"/>
      <use xlink:href="#DejaVuSans-65" x="202.246094"/>
      <use xlink:href="#DejaVuSans-6c" x="263.769531"/>
      <use xlink:href="#DejaVuSans-65" x="291.552734"/>
      <use xlink:href="#DejaVuSans-6e" x="353.076172"/>
      <use xlink:href="#DejaVuSans-67" x="416.455078"/>
      <use xlink:href="#DejaVuSans-74" x="479.931641"/>
      <use xlink:href="#DejaVuSans-68" x="519.140625"/>
      <use xlink:href="#DejaVuSans-20" x="582.519531"/>
      <use xlink:href="#DejaVuSans-5b" x="614.306641"/>
      <use xlink:href="#DejaVuSans-c5" x="653.320312"/>
      <use xlink:href="#DejaVuSans-5d" x="721.728516"/>
     </g>
    </g>
   </g>
   <g id="matplotlib.axis_2">
    <g id="ytick_1">
     <g id="line2d_9">
      <defs>
       <path id="mf6f85a729d" d="M 0 0 
L -3.5 0 
" style="stroke: #000000; stroke-width: 0.8"/>
      </defs>
      <g>
       <use xlink:href="#mf6f85a729d" x="46.965625" y="230.404943" style="stroke: #000000; stroke-width: 0.8"/>
      </g>
     </g>
     <g id="text_10">
      <!-- 0 -->
      <g transform="translate(33.603125 234.204162) scale(0.1 -0.1)">
       <use xlink:href="#DejaVuSans-30"/>
      </g>
     </g>
    </g>
    <g id="ytick_2">
     <g id="line2d_10">
      <g>
       <use xlink:href="#mf6f85a729d" x="46.965625" y="194.116404" style="stroke: #000000; stroke-width: 0.8"/>
      </g>
     </g>
     <g id="text_11">
      <!-- 100 -->
      <g transform="translate(20.878125 197.915623) scale(0.1 -0.1)">
       <defs>
        <path id="DejaVuSans-31" d="M 794 531 
L 1825 531 
L 1825 4091 
L 703 3866 
L 703 4441 
L 1819 4666 
L 2450 4666 
L 2450 531 
L 3481 531 
L 3481 0 
L 794 0 
L 794 531 
z
" transform="scale(0.015625)"/>
       </defs>
       <use xlink:href="#DejaVuSans-31"/>
       <use xlink:href="#DejaVuSans-30" x="63.623047"/>
       <use xlink:href="#DejaVuSans-30" x="127.246094"/>
      </g>
     </g>
    </g>
    <g id="ytick_3">
     <g id="line2d_11">
      <g>
       <use xlink:href="#mf6f85a729d" x="46.965625" y="157.827866" style="stroke: #000000; stroke-width: 0.8"/>
      </g>
     </g>
     <g id="text_12">
      <!-- 200 -->
      <g transform="translate(20.878125 161.627084) scale(0.1 -0.1)">
       <use xlink:href="#DejaVuSans-32"/>
       <use xlink:href="#DejaVuSans-30" x="63.623047"/>
       <use xlink:href="#DejaVuSans-30" x="127.246094"/>
      </g>
     </g>
    </g>
    <g id="ytick_4">
     <g id="line2d_12">
      <g>
       <use xlink:href="#mf6f85a729d" x="46.965625" y="121.539327" style="stroke: #000000; stroke-width: 0.8"/>
      </g>
     </g>
     <g id="text_13">
      <!-- 300 -->
      <g transform="translate(20.878125 125.338545) scale(0.1 -0.1)">
       <defs>
        <path id="DejaVuSans-33" d="M 2597 2516 
Q 3050 2419 3304 2112 
Q 3559 1806 3559 1356 
Q 3559 666 3084 287 
Q 2609 -91 1734 -91 
Q 1441 -91 1130 -33 
Q 819 25 488 141 
L 488 750 
Q 750 597 1062 519 
Q 1375 441 1716 441 
Q 2309 441 2620 675 
Q 2931 909 2931 1356 
Q 2931 1769 2642 2001 
Q 2353 2234 1838 2234 
L 1294 2234 
L 1294 2753 
L 1863 2753 
Q 2328 2753 2575 2939 
Q 2822 3125 2822 3475 
Q 2822 3834 2567 4026 
Q 2313 4219 1838 4219 
Q 1578 4219 1281 4162 
Q 984 4106 628 3988 
L 628 4550 
Q 988 4650 1302 4700 
Q 1616 4750 1894 4750 
Q 2613 4750 3031 4423 
Q 3450 4097 3450 3541 
Q 3450 3153 3228 2886 
Q 3006 2619 2597 2516 
z
" transform="scale(0.015625)"/>
       </defs>
       <use xlink:href="#DejaVuSans-33"/>
       <use xlink:href="#DejaVuSans-30" x="63.623047"/>
       <use xlink:href="#DejaVuSans-30" x="127.246094"/>
      </g>
     </g>
    </g>
    <g id="ytick_5">
     <g id="line2d_13">
      <g>
       <use xlink:href="#mf6f85a729d" x="46.965625" y="85.250788" style="stroke: #000000; stroke-width: 0.8"/>
      </g>
     </g>
     <g id="text_14">
      <!-- 400 -->
      <g transform="translate(20.878125 89.050007) scale(0.1 -0.1)">
       <defs>
        <path id="DejaVuSans-34" d="M 2419 4116 
L 825 1625 
L 2419 1625 
L 2419 4116 
z
M 2253 4666 
L 3047 4666 
L 3047 1625 
L 3713 1625 
L 3713 1100 
L 3047 1100 
L 3047 0 
L 2419 0 
L 2419 1100 
L 313 1100 
L 313 1709 
L 2253 4666 
z
" transform="scale(0.015625)"/>
       </defs>
       <use xlink:href="#DejaVuSans-34"/>
       <use xlink:href="#DejaVuSans-30" x="63.623047"/>
       <use xlink:href="#DejaVuSans-30" x="127.246094"/>
      </g>
     </g>
    </g>
    <g id="ytick_6">
     <g id="line2d_14">
      <g>
       <use xlink:href="#mf6f85a729d" x="46.965625" y="48.962249" style="stroke: #000000; stroke-width: 0.8"/>
      </g>
     </g>
     <g id="text_15">
      <!-- 500 -->
      <g transform="translate(20.878125 52.761468) scale(0.1 -0.1)">
       <use xlink:href="#DejaVuSans-35"/>
       <use xlink:href="#DejaVuSans-30" x="63.623047"/>
       <use xlink:href="#DejaVuSans-30" x="127.246094"/>
      </g>
     </g>
    </g>
    <g id="ytick_7">
     <g id="line2d_15">
      <g>
       <use xlink:href="#mf6f85a729d" x="46.965625" y="12.67371" style="stroke: #000000; stroke-width: 0.8"/>
      </g>
     </g>
     <g id="text_16">
      <!-- 600 -->
      <g transform="translate(20.878125 16.472929) scale(0.1 -0.1)">
       <use xlink:href="#DejaVuSans-36"/>
       <use xlink:href="#DejaVuSans-30" x="63.623047"/>
       <use xlink:href="#DejaVuSans-30" x="127.246094"/>
      </g>
     </g>
    </g>
    <g id="text_17">
     <!-- [counts] -->
     <g transform="translate(14.798437 144.729375) rotate(-90) scale(0.1 -0.1)">
      <defs>
       <path id="DejaVuSans-63" d="M 3122 3366 
L 3122 2828 
Q 2878 2963 2633 3030 
Q 2388 3097 2138 3097 
Q 1578 3097 1268 2742 
Q 959 2388 959 1747 
Q 959 1106 1268 751 
Q 1578 397 2138 397 
Q 2388 397 2633 464 
Q 2878 531 3122 666 
L 3122 134 
Q 2881 22 2623 -34 
Q 2366 -91 2075 -91 
Q 1284 -91 818 406 
Q 353 903 353 1747 
Q 353 2603 823 3093 
Q 1294 3584 2113 3584 
Q 2378 3584 2631 3529 
Q 2884 3475 3122 3366 
z
" transform="scale(0.015625)"/>
       <path id="DejaVuSans-6f" d="M 1959 3097 
Q 1497 3097 1228 2736 
Q 959 2375 959 1747 
Q 959 1119 1226 758 
Q 1494 397 1959 397 
Q 2419 397 2687 759 
Q 2956 1122 2956 1747 
Q 2956 2369 2687 2733 
Q 2419 3097 1959 3097 
z
M 1959 3584 
Q 2709 3584 3137 3096 
Q 3566 2609 3566 1747 
Q 3566 888 3137 398 
Q 2709 -91 1959 -91 
Q 1206 -91 779 398 
Q 353 888 353 1747 
Q 353 2609 779 3096 
Q 1206 3584 1959 3584 
z
" transform="scale(0.015625)"/>
       <path id="DejaVuSans-75" d="M 544 1381 
L 544 3500 
L 1119 3500 
L 1119 1403 
Q 1119 906 1312 657 
Q 1506 409 1894 409 
Q 2359 409 2629 706 
Q 2900 1003 2900 1516 
L 2900 3500 
L 3475 3500 
L 3475 0 
L 2900 0 
L 2900 538 
Q 2691 219 2414 64 
Q 2138 -91 1772 -91 
Q 1169 -91 856 284 
Q 544 659 544 1381 
z
M 1991 3584 
L 1991 3584 
z
" transform="scale(0.015625)"/>
       <path id="DejaVuSans-73" d="M 2834 3397 
L 2834 2853 
Q 2591 2978 2328 3040 
Q 2066 3103 1784 3103 
Q 1356 3103 1142 2972 
Q 928 2841 928 2578 
Q 928 2378 1081 2264 
Q 1234 2150 1697 2047 
L 1894 2003 
Q 2506 1872 2764 1633 
Q 3022 1394 3022 966 
Q 3022 478 2636 193 
Q 2250 -91 1575 -91 
Q 1294 -91 989 -36 
Q 684 19 347 128 
L 347 722 
Q 666 556 975 473 
Q 1284 391 1588 391 
Q 1994 391 2212 530 
Q 2431 669 2431 922 
Q 2431 1156 2273 1281 
Q 2116 1406 1581 1522 
L 1381 1569 
Q 847 1681 609 1914 
Q 372 2147 372 2553 
Q 372 3047 722 3315 
Q 1072 3584 1716 3584 
Q 2034 3584 2315 3537 
Q 2597 3491 2834 3397 
z
" transform="scale(0.015625)"/>
      </defs>
      <use xlink:href="#DejaVuSans-5b"/>
      <use xlink:href="#DejaVuSans-63" x="39.013672"/>
      <use xlink:href="#DejaVuSans-6f" x="93.994141"/>
      <use xlink:href="#DejaVuSans-75" x="155.175781"/>
      <use xlink:href="#DejaVuSans-6e" x="218.554688"/>
      <use xlink:href="#DejaVuSans-74" x="281.933594"/>
      <use xlink:href="#DejaVuSans-73" x="321.142578"/>
      <use xlink:href="#DejaVuSans-5d" x="373.242188"/>
     </g>
    </g>
   </g>
   <g id="patch_3">
    <path d="M 46.965625 241.03375 
L 46.965625 7.2 
" style="fill: none; stroke: #000000; stroke-width: 0.8; stroke-linejoin: miter; stroke-linecap: square"/>
   </g>
   <g id="patch_4">
    <path d="M 417.295625 241.03375 
L 417.295625 7.2 
" style="fill: none; stroke: #000000; stroke-width: 0.8; stroke-linejoin: miter; stroke-linecap: square"/>
   </g>
   <g id="patch_5">
    <path d="M 46.965625 241.03375 
L 417.295625 241.03375 
" style="fill: none; stroke: #000000; stroke-width: 0.8; stroke-linejoin: miter; stroke-linecap: square"/>
   </g>
   <g id="patch_6">
    <path d="M 46.965625 7.2 
L 417.295625 7.2 
" style="fill: none; stroke: #000000; stroke-width: 0.8; stroke-linejoin: miter; stroke-linecap: square"/>
   </g>
   <g id="line2d_16">
    <path d="M 63.798807 227.209724 
L 65.482125 227.209724 
L 65.482125 216.862756 
L 67.165443 216.862756 
L 67.165443 182.44545 
L 68.848761 182.44545 
L 68.848761 182.746131 
L 70.53208 182.746131 
L 70.53208 136.683351 
L 72.215398 136.683351 
L 72.215398 119.282858 
L 73.898716 119.282858 
L 73.898716 100.698577 
L 75.582034 100.698577 
L 75.582034 102.360779 
L 77.265352 102.360779 
L 77.265352 73.98697 
L 78.94867 73.98697 
L 78.94867 58.051799 
L 80.631989 58.051799 
L 80.631989 57.074796 
L 82.315307 57.074796 
L 82.315307 40.759621 
L 83.998625 40.759621 
L 83.998625 38.693489 
L 85.681943 38.693489 
L 85.681943 62.696842 
L 87.365261 62.696842 
L 87.365261 59.831811 
L 89.04858 59.831811 
L 89.04858 41.075129 
L 90.731898 41.075129 
L 90.731898 67.830902 
L 92.415216 67.830902 
L 92.415216 21.373307 
L 94.098534 21.373307 
L 94.098534 65.987863 
L 95.781852 65.987863 
L 95.781852 57.866184 
L 97.46517 57.866184 
L 97.46517 24.963099 
L 99.148489 24.963099 
L 99.148489 46.543415 
L 100.831807 46.543415 
L 100.831807 68.78483 
L 102.515125 68.78483 
L 102.515125 40.763996 
L 104.198443 40.763996 
L 104.198443 59.390146 
L 105.881761 59.390146 
L 105.881761 42.530379 
L 107.56508 42.530379 
L 107.56508 54.949385 
L 109.248398 54.949385 
L 109.248398 68.772407 
L 110.931716 68.772407 
L 110.931716 52.298282 
L 112.615034 52.298282 
L 112.615034 17.828807 
L 114.298352 17.828807 
L 114.298352 72.906798 
L 115.98167 72.906798 
L 115.98167 73.209083 
L 117.664989 73.209083 
L 117.664989 81.974769 
L 119.348307 81.974769 
L 119.348307 50.359231 
L 121.031625 50.359231 
L 121.031625 21.347148 
L 122.714943 21.347148 
L 122.714943 49.078007 
L 124.398261 49.078007 
L 124.398261 41.47007 
L 126.08158 41.47007 
L 126.08158 63.457507 
L 127.764898 63.457507 
L 127.764898 71.625456 
L 129.448216 71.625456 
L 129.448216 65.767287 
L 131.131534 65.767287 
L 131.131534 45.480216 
L 132.814852 45.480216 
L 132.814852 60.810452 
L 134.49817 60.810452 
L 134.49817 45.007008 
L 136.181489 45.007008 
L 136.181489 54.29123 
L 137.864807 54.29123 
L 137.864807 50.338458 
L 139.548125 50.338458 
L 139.548125 46.600555 
L 141.231443 46.600555 
L 141.231443 79.042156 
L 142.914761 79.042156 
L 142.914761 86.997736 
L 144.59808 86.997736 
L 144.59808 48.743815 
L 146.281398 48.743815 
L 146.281398 60.133959 
L 147.964716 60.133959 
L 147.964716 52.600267 
L 149.648034 52.600267 
L 149.648034 60.128481 
L 151.331352 60.128481 
L 151.331352 50.171886 
L 153.01467 50.171886 
L 153.01467 72.937971 
L 154.697989 72.937971 
L 154.697989 57.489924 
L 156.381307 57.489924 
L 156.381307 86.524879 
L 158.064625 86.524879 
L 158.064625 50.610835 
L 159.747943 50.610835 
L 159.747943 56.387065 
L 161.431261 56.387065 
L 161.431261 28.198957 
L 163.11458 28.198957 
L 163.11458 75.799082 
L 164.797898 75.799082 
L 164.797898 84.676015 
L 166.481216 84.676015 
L 166.481216 84.305329 
L 168.164534 84.305329 
L 168.164534 56.219116 
L 169.847852 56.219116 
L 169.847852 89.895281 
L 171.53117 89.895281 
L 171.53117 76.926041 
L 173.214489 76.926041 
L 173.214489 77.986293 
L 174.897807 77.986293 
L 174.897807 61.998648 
L 176.581125 61.998648 
L 176.581125 30.168411 
L 178.264443 30.168411 
L 178.264443 65.163812 
L 179.947761 65.163812 
L 179.947761 59.169162 
L 181.63108 59.169162 
L 181.63108 63.515139 
L 183.314398 63.515139 
L 183.314398 83.733042 
L 184.997716 83.733042 
L 184.997716 91.569019 
L 186.681034 91.569019 
L 186.681034 62.783749 
L 188.364352 62.783749 
L 188.364352 90.176529 
L 190.04767 90.176529 
L 190.04767 79.137607 
L 191.730989 79.137607 
L 191.730989 85.544585 
L 193.414307 85.544585 
L 193.414307 92.00441 
L 195.097625 92.00441 
L 195.097625 85.971511 
L 196.780943 85.971511 
L 196.780943 71.619967 
L 198.464261 71.619967 
L 198.464261 68.698045 
L 200.14758 68.698045 
L 200.14758 91.678693 
L 201.830898 91.678693 
L 201.830898 96.642035 
L 203.514216 96.642035 
L 203.514216 73.455003 
L 205.197534 73.455003 
L 205.197534 74.386333 
L 206.880852 74.386333 
L 206.880852 79.124488 
L 208.56417 79.124488 
L 208.56417 96.338981 
L 210.247489 96.338981 
L 210.247489 84.370038 
L 211.930807 84.370038 
L 211.930807 102.245947 
L 213.614125 102.245947 
L 213.614125 100.299621 
L 215.297443 100.299621 
L 215.297443 69.735503 
L 216.980761 69.735503 
L 216.980761 54.809225 
L 218.66408 54.809225 
L 218.66408 101.185852 
L 220.347398 101.185852 
L 220.347398 97.772192 
L 222.030716 97.772192 
L 222.030716 88.368959 
L 223.714034 88.368959 
L 223.714034 69.12785 
L 225.397352 69.12785 
L 225.397352 91.53282 
L 227.08067 91.53282 
L 227.08067 76.143411 
L 228.763989 76.143411 
L 228.763989 72.520113 
L 230.447307 72.520113 
L 230.447307 98.019303 
L 232.130625 98.019303 
L 232.130625 82.335471 
L 233.813943 82.335471 
L 233.813943 90.743446 
L 235.497261 90.743446 
L 235.497261 77.145806 
L 237.18058 77.145806 
L 237.18058 106.543442 
L 238.863898 106.543442 
L 238.863898 77.441953 
L 240.547216 77.441953 
L 240.547216 99.223664 
L 242.230534 99.223664 
L 242.230534 84.57267 
L 243.913852 84.57267 
L 243.913852 94.850719 
L 245.59717 94.850719 
L 245.59717 95.16188 
L 247.280489 95.16188 
L 247.280489 97.551878 
L 248.963807 97.551878 
L 248.963807 98.372207 
L 250.647125 98.372207 
L 250.647125 111.063099 
L 252.330443 111.063099 
L 252.330443 99.823383 
L 254.013761 99.823383 
L 254.013761 101.394522 
L 255.69708 101.394522 
L 255.69708 108.967838 
L 257.380398 108.967838 
L 257.380398 116.52628 
L 259.063716 116.52628 
L 259.063716 119.743682 
L 260.747034 119.743682 
L 260.747034 107.763433 
L 262.430352 107.763433 
L 262.430352 90.531361 
L 264.11367 90.531361 
L 264.11367 96.856934 
L 265.796989 96.856934 
L 265.796989 87.968222 
L 267.480307 87.968222 
L 267.480307 113.961423 
L 269.163625 113.961423 
L 269.163625 100.266059 
L 270.846943 100.266059 
L 270.846943 89.631369 
L 272.530261 89.631369 
L 272.530261 126.103245 
L 274.21358 126.103245 
L 274.21358 92.013755 
L 275.896898 92.013755 
L 275.896898 103.531236 
L 277.580216 103.531236 
L 277.580216 82.604994 
L 279.263534 82.604994 
L 279.263534 108.143616 
L 280.946852 108.143616 
L 280.946852 107.23115 
L 282.63017 107.23115 
L 282.63017 101.658255 
L 284.313489 101.658255 
L 284.313489 95.292194 
L 285.996807 95.292194 
L 285.996807 101.103392 
L 287.680125 101.103392 
L 287.680125 114.008236 
L 289.363443 114.008236 
L 289.363443 94.587048 
L 291.046761 94.587048 
L 291.046761 93.213152 
L 292.73008 93.213152 
L 292.73008 112.123783 
L 294.413398 112.123783 
L 294.413398 118.007246 
L 296.096716 118.007246 
L 296.096716 109.614327 
L 297.780034 109.614327 
L 297.780034 124.403932 
L 299.463352 124.403932 
L 299.463352 113.530333 
L 301.14667 113.530333 
L 301.14667 118.957256 
L 302.829989 118.957256 
L 302.829989 94.189023 
L 304.513307 94.189023 
L 304.513307 93.983493 
L 306.196625 93.983493 
L 306.196625 115.389752 
L 307.879943 115.389752 
L 307.879943 97.098499 
L 309.563261 97.098499 
L 309.563261 115.711388 
L 311.24658 115.711388 
L 311.24658 113.738417 
L 312.929898 113.738417 
L 312.929898 117.289514 
L 314.613216 117.289514 
L 314.613216 131.376522 
L 316.296534 131.376522 
L 316.296534 91.560253 
L 317.979852 91.560253 
L 317.979852 106.41937 
L 319.66317 106.41937 
L 319.66317 135.775207 
L 321.346489 135.775207 
L 321.346489 103.335871 
L 323.029807 103.335871 
L 323.029807 101.260913 
L 326.396443 101.275646 
L 326.396443 105.473567 
L 328.079761 105.473567 
L 328.079761 135.057931 
L 329.76308 135.057931 
L 329.76308 107.624564 
L 331.446398 107.624564 
L 331.446398 108.963183 
L 333.129716 108.963183 
L 333.129716 109.542328 
L 334.813034 109.542328 
L 334.813034 122.932378 
L 336.496352 122.932378 
L 336.496352 116.979742 
L 338.17967 116.979742 
L 338.17967 121.661253 
L 339.862989 121.661253 
L 339.862989 118.882864 
L 341.546307 118.882864 
L 341.546307 108.047739 
L 343.229625 108.047739 
L 343.229625 114.776425 
L 344.912943 114.776425 
L 344.912943 120.295337 
L 346.596261 120.295337 
L 346.596261 134.677349 
L 348.27958 134.677349 
L 348.27958 128.944068 
L 349.962898 128.944068 
L 349.962898 135.435493 
L 351.646216 135.435493 
L 351.646216 125.481113 
L 353.329534 125.481113 
L 353.329534 125.121329 
L 355.012852 125.121329 
L 355.012852 127.481266 
L 356.69617 127.481266 
L 356.69617 127.029036 
L 358.379489 127.029036 
L 358.379489 146.391684 
L 360.062807 146.391684 
L 360.062807 154.823796 
L 361.746125 154.823796 
L 361.746125 174.880806 
L 363.429443 174.880806 
L 363.429443 160.595776 
L 365.112761 160.595776 
L 365.112761 189.206127 
L 366.79608 189.206127 
L 366.79608 198.8374 
L 368.479398 198.8374 
L 368.479398 218.001892 
L 370.162716 218.001892 
L 370.162716 224.252651 
L 371.846034 224.252651 
L 371.846034 228.202294 
L 373.529352 228.202294 
L 373.529352 229.557615 
L 375.21267 229.557615 
L 375.21267 230.160331 
L 378.579307 230.266805 
L 378.579307 230.373267 
L 400.462443 230.404943 
L 400.462443 230.404943 
" clip-path="url(#pea95ff1d38)" style="fill: none; stroke: #1f77b4; stroke-width: 1.5; stroke-linecap: square"/>
   </g>
  </g>
 </g>
 <defs>
  <clipPath id="pea95ff1d38">
   <rect x="46.965625" y="7.2" width="370.33" height="233.83375"/>
  </clipPath>
 </defs>
</svg>