<?xml version="1.0" encoding="utf-8" standalone="no"?>
<!DOCTYPE svg PUBLIC "-//W3C//DTD SVG 1.1//EN"
  "http://www.w3.org/Graphics/SVG/1.1/DTD/svg11.dtd">
<svg xmlns:xlink="http://www.w3.org/1999/xlink" width="376.240625pt" height="268.200625pt" viewBox="0 0 376.240625 268.200625" xmlns="http://www.w3.org/2000/svg" version="1.1">
 <metadata>
  <rdf:RDF xmlns:dc="http://purl.org/dc/elements/1.1/" xmlns:cc="http://creativecommons.org/ns#" xmlns:rdf="http://www.w3.org/1999/02/22-rdf-syntax-ns#">
   <cc:Work>
    <dc:type rdf:resource="http://purl.org/dc/dcmitype/StillImage"/>
    <dc:date>2025-07-05T14:27:15.194589</dc:date>
    <dc:format>image/svg+xml</dc:format>
    <dc:creator>
     <cc:Agent>
      <dc:title>Matplotlib v3.10.1, https://matplotlib.org/</dc:title>
     </cc:Agent>
    </dc:creator>
   </cc:Work>
  </rdf:RDF>
 </metadata>
 <defs>
  <style type="text/css">*{stroke-linejoin: round; stroke-linecap: butt}</style>
 </defs>
 <g id="figure_1">
  <g id="patch_1">
   <path d="M 0 268.200625 
L 376.240625 268.200625 
L 376.240625 0 
L 0 0 
z
" style="fill: #ffffff"/>
  </g>
  <g id="axes_1">
   <g id="patch_2">
    <path d="M 34.240625 228.96 
L 369.040625 228.96 
L 369.040625 7.2 
L 34.240625 7.2 
z
" style="fill: #ffffff"/>
   </g>
   <g id="matplotlib.axis_1">
    <g id="xtick_1">
     <g id="line2d_1">
      <defs>
       <path id="mdfe1e20f41" d="M 0 0 
L 0 3.5 
" style="stroke: #000000; stroke-width: 0.8"/>
      </defs>
      <g>
       <use xlink:href="#mdfe1e20f41" x="49.458807" y="228.96" style="stroke: #000000; stroke-width: 0.8"/>
      </g>
     </g>
     <g id="text_1">
      <!-- 0.50 -->
      <g transform="translate(38.325994 243.558437) scale(0.1 -0.1)">
       <defs>
        <path id="DejaVuSans-30" d="M 2034 4250 
Q 1547 4250 1301 3770 
Q 1056 3291 1056 2328 
Q 1056 1369 1301 889 
Q 1547 409 2034 409 
Q 2525 409 2770 889 
Q 3016 1369 3016 2328 
Q 3016 3291 2770 3770 
Q 2525 4250 2034 4250 
z
M 2034 4750 
Q 2819 4750 3233 4129 
Q 3647 3509 3647 2328 
Q 3647 1150 3233 529 
Q 2819 -91 2034 -91 
Q 1250 -91 836 529 
Q 422 1150 422 2328 
Q 422 3509 836 4129 
Q 1250 4750 2034 4750 
z
" transform="scale(0.015625)"/>
        <path id="DejaVuSans-2e" d="M 684 794 
L 1344 794 
L 1344 0 
L 684 0 
L 684 794 
z
" transform="scale(0.015625)"/>
        <path id="DejaVuSans-35" d="M 691 4666 
L 3169 4666 
L 3169 4134 
L 1269 4134 
L 1269 2991 
Q 1406 3038 1543 3061 
Q 1681 3084 1819 3084 
Q 2600 3084 3056 2656 
Q 3513 2228 3513 1497 
Q 3513 744 3044 326 
Q 2575 -91 1722 -91 
Q 1428 -91 1123 -41 
Q 819 9 494 109 
L 494 744 
Q 775 591 1075 516 
Q 1375 441 1709 441 
Q 2250 441 2565 725 
Q 2881 1009 2881 1497 
Q 2881 1984 2565 2268 
Q 2250 2553 1709 2553 
Q 1456 2553 1204 2497 
Q 953 2441 691 2322 
L 691 4666 
z
" transform="scale(0.015625)"/>
       </defs>
       <use xlink:href="#DejaVuSans-30"/>
       <use xlink:href="#DejaVuSans-2e" transform="translate(63.623047 0)"/>
       <use xlink:href="#DejaVuSans-35" transform="translate(95.410156 0)"/>
       <use xlink:href="#DejaVuSans-30" transform="translate(159.033203 0)"/>
      </g>
     </g>
    </g>
    <g id="xtick_2">
     <g id="line2d_2">
      <g>
       <use xlink:href="#mdfe1e20f41" x="87.504261" y="228.96" style="stroke: #000000; stroke-width: 0.8"/>
      </g>
     </g>
     <g id="text_2">
      <!-- 0.75 -->
      <g transform="translate(76.371449 243.558437) scale(0.1 -0.1)">
       <defs>
        <path id="DejaVuSans-37" d="M 525 4666 
L 3525 4666 
L 3525 4397 
L 1831 0 
L 1172 0 
L 2766 4134 
L 525 4134 
L 525 4666 
z
" transform="scale(0.015625)"/>
       </defs>
       <use xlink:href="#DejaVuSans-30"/>
       <use xlink:href="#DejaVuSans-2e" transform="translate(63.623047 0)"/>
       <use xlink:href="#DejaVuSans-37" transform="translate(95.410156 0)"/>
       <use xlink:href="#DejaVuSans-35" transform="translate(159.033203 0)"/>
      </g>
     </g>
    </g>
    <g id="xtick_3">
     <g id="line2d_3">
      <g>
       <use xlink:href="#mdfe1e20f41" x="125.549716" y="228.96" style="stroke: #000000; stroke-width: 0.8"/>
      </g>
     </g>
     <g id="text_3">
      <!-- 1.00 -->
      <g transform="translate(114.416903 243.558437) scale(0.1 -0.1)">
       <defs>
        <path id="DejaVuSans-31" d="M 794 531 
L 1825 531 
L 1825 4091 
L 703 3866 
L 703 4441 
L 1819 4666 
L 2450 4666 
L 2450 531 
L 3481 531 
L 3481 0 
L 794 0 
L 794 531 
z
" transform="scale(0.015625)"/>
       </defs>
       <use xlink:href="#DejaVuSans-31"/>
       <use xlink:href="#DejaVuSans-2e" transform="translate(63.623047 0)"/>
       <use xlink:href="#DejaVuSans-30" transform="translate(95.410156 0)"/>
       <use xlink:href="#DejaVuSans-30" transform="translate(159.033203 0)"/>
      </g>
     </g>
    </g>
    <g id="xtick_4">
     <g id="line2d_4">
      <g>
       <use xlink:href="#mdfe1e20f41" x="163.59517" y="228.96" style="stroke: #000000; stroke-width: 0.8"/>
      </g>
     </g>
     <g id="text_4">
      <!-- 1.25 -->
      <g transform="translate(152.462358 243.558437) scale(0.1 -0.1)">
       <defs>
        <path id="DejaVuSans-32" d="M 1228 531 
L 3431 531 
L 3431 0 
L 469 0 
L 469 531 
Q 828 903 1448 1529 
Q 2069 2156 2228 2338 
Q 2531 2678 2651 2914 
Q 2772 3150 2772 3378 
Q 2772 3750 2511 3984 
Q 2250 4219 1831 4219 
Q 1534 4219 1204 4116 
Q 875 4013 500 3803 
L 500 4441 
Q 881 4594 1212 4672 
Q 1544 4750 1819 4750 
Q 2544 4750 2975 4387 
Q 3406 4025 3406 3419 
Q 3406 3131 3298 2873 
Q 3191 2616 2906 2266 
Q 2828 2175 2409 1742 
Q 1991 1309 1228 531 
z
" transform="scale(0.015625)"/>
       </defs>
       <use xlink:href="#DejaVuSans-31"/>
       <use xlink:href="#DejaVuSans-2e" transform="translate(63.623047 0)"/>
       <use xlink:href="#DejaVuSans-32" transform="translate(95.410156 0)"/>
       <use xlink:href="#DejaVuSans-35" transform="translate(159.033203 0)"/>
      </g>
     </g>
    </g>
    <g id="xtick_5">
     <g id="line2d_5">
      <g>
       <use xlink:href="#mdfe1e20f41" x="201.640625" y="228.96" style="stroke: #000000; stroke-width: 0.8"/>
      </g>
     </g>
     <g id="text_5">
      <!-- 1.50 -->
      <g transform="translate(190.507812 243.558437) scale(0.1 -0.1)">
       <use xlink:href="#DejaVuSans-31"/>
       <use xlink:href="#DejaVuSans-2e" transform="translate(63.623047 0)"/>
       <use xlink:href="#DejaVuSans-35" transform="translate(95.410156 0)"/>
       <use xlink:href="#DejaVuSans-30" transform="translate(159.033203 0)"/>
      </g>
     </g>
    </g>
    <g id="xtick_6">
     <g id="line2d_6">
      <g>
       <use xlink:href="#mdfe1e20f41" x="239.68608" y="228.96" style="stroke: #000000; stroke-width: 0.8"/>
      </g>
     </g>
     <g id="text_6">
      <!-- 1.75 -->
      <g transform="translate(228.553267 243.558437) scale(0.1 -0.1)">
       <use xlink:href="#DejaVuSans-31"/>
       <use xlink:href="#DejaVuSans-2e" transform="translate(63.623047 0)"/>
       <use xlink:href="#DejaVuSans-37" transform="translate(95.410156 0)"/>
       <use xlink:href="#DejaVuSans-35" transform="translate(159.033203 0)"/>
      </g>
     </g>
    </g>
    <g id="xtick_7">
     <g id="line2d_7">
      <g>
       <use xlink:href="#mdfe1e20f41" x="277.731534" y="228.96" style="stroke: #000000; stroke-width: 0.8"/>
      </g>
     </g>
     <g id="text_7">
      <!-- 2.00 -->
      <g transform="translate(266.598722 243.558437) scale(0.1 -0.1)">
       <use xlink:href="#DejaVuSans-32"/>
       <use xlink:href="#DejaVuSans-2e" transform="translate(63.623047 0)"/>
       <use xlink:href="#DejaVuSans-30" transform="translate(95.410156 0)"/>
       <use xlink:href="#DejaVuSans-30" transform="translate(159.033203 0)"/>
      </g>
     </g>
    </g>
    <g id="xtick_8">
     <g id="line2d_8">
      <g>
       <use xlink:href="#mdfe1e20f41" x="315.776989" y="228.96" style="stroke: #000000; stroke-width: 0.8"/>
      </g>
     </g>
     <g id="text_8">
      <!-- 2.25 -->
      <g transform="translate(304.644176 243.558437) scale(0.1 -0.1)">
       <use xlink:href="#DejaVuSans-32"/>
       <use xlink:href="#DejaVuSans-2e" transform="translate(63.623047 0)"/>
       <use xlink:href="#DejaVuSans-32" transform="translate(95.410156 0)"/>
       <use xlink:href="#DejaVuSans-35" transform="translate(159.033203 0)"/>
      </g>
     </g>
    </g>
    <g id="xtick_9">
     <g id="line2d_9">
      <g>
       <use xlink:href="#mdfe1e20f41" x="353.822443" y="228.96" style="stroke: #000000; stroke-width: 0.8"/>
      </g>
     </g>
     <g id="text_9">
      <!-- 2.50 -->
      <g transform="translate(342.689631 243.558437) scale(0.1 -0.1)">
       <use xlink:href="#DejaVuSans-32"/>
       <use xlink:href="#DejaVuSans-2e" transform="translate(63.623047 0)"/>
       <use xlink:href="#DejaVuSans-35" transform="translate(95.410156 0)"/>
       <use xlink:href="#DejaVuSans-30" transform="translate(159.033203 0)"/>
      </g>
     </g>
    </g>
    <g id="text_10">
     <!-- dspacing [Å] -->
     <g transform="translate(170.23125 258.920937) scale(0.1 -0.1)">
      <defs>
       <path id="DejaVuSans-64" d="M 2906 2969 
L 2906 4863 
L 3481 4863 
L 3481 0 
L 2906 0 
L 2906 525 
Q 2725 213 2448 61 
Q 2172 -91 1784 -91 
Q 1150 -91 751 415 
Q 353 922 353 1747 
Q 353 2572 751 3078 
Q 1150 3584 1784 3584 
Q 2172 3584 2448 3432 
Q 2725 3281 2906 2969 
z
M 947 1747 
Q 947 1113 1208 752 
Q 1469 391 1925 391 
Q 2381 391 2643 752 
Q 2906 1113 2906 1747 
Q 2906 2381 2643 2742 
Q 2381 3103 1925 3103 
Q 1469 3103 1208 2742 
Q 947 2381 947 1747 
z
" transform="scale(0.015625)"/>
       <path id="DejaVuSans-73" d="M 2834 3397 
L 2834 2853 
Q 2591 2978 2328 3040 
Q 2066 3103 1784 3103 
Q 1356 3103 1142 2972 
Q 928 2841 928 2578 
Q 928 2378 1081 2264 
Q 1234 2150 1697 2047 
L 1894 2003 
Q 2506 1872 2764 1633 
Q 3022 1394 3022 966 
Q 3022 478 2636 193 
Q 2250 -91 1575 -91 
Q 1294 -91 989 -36 
Q 684 19 347 128 
L 347 722 
Q 666 556 975 473 
Q 1284 391 1588 391 
Q 1994 391 2212 530 
Q 2431 669 2431 922 
Q 2431 1156 2273 1281 
Q 2116 1406 1581 1522 
L 1381 1569 
Q 847 1681 609 1914 
Q 372 2147 372 2553 
Q 372 3047 722 3315 
Q 1072 3584 1716 3584 
Q 2034 3584 2315 3537 
Q 2597 3491 2834 3397 
z
" transform="scale(0.015625)"/>
       <path id="DejaVuSans-70" d="M 1159 525 
L 1159 -1331 
L 581 -1331 
L 581 3500 
L 1159 3500 
L 1159 2969 
Q 1341 3281 1617 3432 
Q 1894 3584 2278 3584 
Q 2916 3584 3314 3078 
Q 3713 2572 3713 1747 
Q 3713 922 3314 415 
Q 2916 -91 2278 -91 
Q 1894 -91 1617 61 
Q 1341 213 1159 525 
z
M 3116 1747 
Q 3116 2381 2855 2742 
Q 2594 3103 2138 3103 
Q 1681 3103 1420 2742 
Q 1159 2381 1159 1747 
Q 1159 1113 1420 752 
Q 1681 391 2138 391 
Q 2594 391 2855 752 
Q 3116 1113 3116 1747 
z
" transform="scale(0.015625)"/>
       <path id="DejaVuSans-61" d="M 2194 1759 
Q 1497 1759 1228 1600 
Q 959 1441 959 1056 
Q 959 750 1161 570 
Q 1363 391 1709 391 
Q 2188 391 2477 730 
Q 2766 1069 2766 1631 
L 2766 1759 
L 2194 1759 
z
M 3341 1997 
L 3341 0 
L 2766 0 
L 2766 531 
Q 2569 213 2275 61 
Q 1981 -91 1556 -91 
Q 1019 -91 701 211 
Q 384 513 384 1019 
Q 384 1609 779 1909 
Q 1175 2209 1959 2209 
L 2766 2209 
L 2766 2266 
Q 2766 2663 2505 2880 
Q 2244 3097 1772 3097 
Q 1472 3097 1187 3025 
Q 903 2953 641 2809 
L 641 3341 
Q 956 3463 1253 3523 
Q 1550 3584 1831 3584 
Q 2591 3584 2966 3190 
Q 3341 2797 3341 1997 
z
" transform="scale(0.015625)"/>
       <path id="DejaVuSans-63" d="M 3122 3366 
L 3122 2828 
Q 2878 2963 2633 3030 
Q 2388 3097 2138 3097 
Q 1578 3097 1268 2742 
Q 959 2388 959 1747 
Q 959 1106 1268 751 
Q 1578 397 2138 397 
Q 2388 397 2633 464 
Q 2878 531 3122 666 
L 3122 134 
Q 2881 22 2623 -34 
Q 2366 -91 2075 -91 
Q 1284 -91 818 406 
Q 353 903 353 1747 
Q 353 2603 823 3093 
Q 1294 3584 2113 3584 
Q 2378 3584 2631 3529 
Q 2884 3475 3122 3366 
z
" transform="scale(0.015625)"/>
       <path id="DejaVuSans-69" d="M 603 3500 
L 1178 3500 
L 1178 0 
L 603 0 
L 603 3500 
z
M 603 4863 
L 1178 4863 
L 1178 4134 
L 603 4134 
L 603 4863 
z
" transform="scale(0.015625)"/>
       <path id="DejaVuSans-6e" d="M 3513 2113 
L 3513 0 
L 2938 0 
L 2938 2094 
Q 2938 2591 2744 2837 
Q 2550 3084 2163 3084 
Q 1697 3084 1428 2787 
Q 1159 2491 1159 1978 
L 1159 0 
L 581 0 
L 581 3500 
L 1159 3500 
L 1159 2956 
Q 1366 3272 1645 3428 
Q 1925 3584 2291 3584 
Q 2894 3584 3203 3211 
Q 3513 2838 3513 2113 
z
" transform="scale(0.015625)"/>
       <path id="DejaVuSans-67" d="M 2906 1791 
Q 2906 2416 2648 2759 
Q 2391 3103 1925 3103 
Q 1463 3103 1205 2759 
Q 947 2416 947 1791 
Q 947 1169 1205 825 
Q 1463 481 1925 481 
Q 2391 481 2648 825 
Q 2906 1169 2906 1791 
z
M 3481 434 
Q 3481 -459 3084 -895 
Q 2688 -1331 1869 -1331 
Q 1566 -1331 1297 -1286 
Q 1028 -1241 775 -1147 
L 775 -588 
Q 1028 -725 1275 -790 
Q 1522 -856 1778 -856 
Q 2344 -856 2625 -561 
Q 2906 -266 2906 331 
L 2906 616 
Q 2728 306 2450 153 
Q 2172 0 1784 0 
Q 1141 0 747 490 
Q 353 981 353 1791 
Q 353 2603 747 3093 
Q 1141 3584 1784 3584 
Q 2172 3584 2450 3431 
Q 2728 3278 2906 2969 
L 2906 3500 
L 3481 3500 
L 3481 434 
z
" transform="scale(0.015625)"/>
       <path id="DejaVuSans-20" transform="scale(0.015625)"/>
       <path id="DejaVuSans-5b" d="M 550 4863 
L 1875 4863 
L 1875 4416 
L 1125 4416 
L 1125 -397 
L 1875 -397 
L 1875 -844 
L 550 -844 
L 550 4863 
z
" transform="scale(0.015625)"/>
       <path id="DejaVuSans-c5" d="M 2663 5081 
Q 2663 5278 2523 5417 
Q 2384 5556 2188 5556 
Q 1988 5556 1852 5420 
Q 1716 5284 1716 5081 
Q 1716 4884 1853 4746 
Q 1991 4609 2188 4609 
Q 2384 4609 2523 4746 
Q 2663 4884 2663 5081 
z
M 2188 4044 
L 1338 1722 
L 3041 1722 
L 2188 4044 
z
M 1716 4366 
Q 1525 4494 1428 4673 
Q 1331 4853 1331 5081 
Q 1331 5441 1579 5691 
Q 1828 5941 2188 5941 
Q 2544 5941 2795 5689 
Q 3047 5438 3047 5081 
Q 3047 4863 2948 4678 
Q 2850 4494 2663 4366 
L 4325 0 
L 3669 0 
L 3244 1197 
L 1141 1197 
L 716 0 
L 50 0 
L 1716 4366 
z
" transform="scale(0.015625)"/>
       <path id="DejaVuSans-5d" d="M 1947 4863 
L 1947 -844 
L 622 -844 
L 622 -397 
L 1369 -397 
L 1369 4416 
L 622 4416 
L 622 4863 
L 1947 4863 
z
" transform="scale(0.015625)"/>
      </defs>
      <use xlink:href="#DejaVuSans-64"/>
      <use xlink:href="#DejaVuSans-73" transform="translate(63.476562 0)"/>
      <use xlink:href="#DejaVuSans-70" transform="translate(115.576172 0)"/>
      <use xlink:href="#DejaVuSans-61" transform="translate(179.052734 0)"/>
      <use xlink:href="#DejaVuSans-63" transform="translate(240.332031 0)"/>
      <use xlink:href="#DejaVuSans-69" transform="translate(295.3125 0)"/>
      <use xlink:href="#DejaVuSans-6e" transform="translate(323.095703 0)"/>
      <use xlink:href="#DejaVuSans-67" transform="translate(386.474609 0)"/>
      <use xlink:href="#DejaVuSans-20" transform="translate(449.951172 0)"/>
      <use xlink:href="#DejaVuSans-5b" transform="translate(481.738281 0)"/>
      <use xlink:href="#DejaVuSans-c5" transform="translate(520.751953 0)"/>
      <use xlink:href="#DejaVuSans-5d" transform="translate(589.160156 0)"/>
     </g>
    </g>
   </g>
   <g id="matplotlib.axis_2">
    <g id="ytick_1">
     <g id="line2d_10">
      <defs>
       <path id="m2a93f6147e" d="M 0 0 
L -3.5 0 
" style="stroke: #000000; stroke-width: 0.8"/>
      </defs>
      <g>
       <use xlink:href="#m2a93f6147e" x="34.240625" y="219.226833" style="stroke: #000000; stroke-width: 0.8"/>
      </g>
     </g>
     <g id="text_11">
      <!-- 0 -->
      <g transform="translate(20.878125 223.026052) scale(0.1 -0.1)">
       <use xlink:href="#DejaVuSans-30"/>
      </g>
     </g>
    </g>
    <g id="ytick_2">
     <g id="line2d_11">
      <g>
       <use xlink:href="#m2a93f6147e" x="34.240625" y="193.399538" style="stroke: #000000; stroke-width: 0.8"/>
      </g>
     </g>
     <g id="text_12">
      <!-- 1 -->
      <g transform="translate(20.878125 197.198757) scale(0.1 -0.1)">
       <use xlink:href="#DejaVuSans-31"/>
      </g>
     </g>
    </g>
    <g id="ytick_3">
     <g id="line2d_12">
      <g>
       <use xlink:href="#m2a93f6147e" x="34.240625" y="167.572243" style="stroke: #000000; stroke-width: 0.8"/>
      </g>
     </g>
     <g id="text_13">
      <!-- 2 -->
      <g transform="translate(20.878125 171.371462) scale(0.1 -0.1)">
       <use xlink:href="#DejaVuSans-32"/>
      </g>
     </g>
    </g>
    <g id="ytick_4">
     <g id="line2d_13">
      <g>
       <use xlink:href="#m2a93f6147e" x="34.240625" y="141.744948" style="stroke: #000000; stroke-width: 0.8"/>
      </g>
     </g>
     <g id="text_14">
      <!-- 3 -->
      <g transform="translate(20.878125 145.544166) scale(0.1 -0.1)">
       <defs>
        <path id="DejaVuSans-33" d="M 2597 2516 
Q 3050 2419 3304 2112 
Q 3559 1806 3559 1356 
Q 3559 666 3084 287 
Q 2609 -91 1734 -91 
Q 1441 -91 1130 -33 
Q 819 25 488 141 
L 488 750 
Q 750 597 1062 519 
Q 1375 441 1716 441 
Q 2309 441 2620 675 
Q 2931 909 2931 1356 
Q 2931 1769 2642 2001 
Q 2353 2234 1838 2234 
L 1294 2234 
L 1294 2753 
L 1863 2753 
Q 2328 2753 2575 2939 
Q 2822 3125 2822 3475 
Q 2822 3834 2567 4026 
Q 2313 4219 1838 4219 
Q 1578 4219 1281 4162 
Q 984 4106 628 3988 
L 628 4550 
Q 988 4650 1302 4700 
Q 1616 4750 1894 4750 
Q 2613 4750 3031 4423 
Q 3450 4097 3450 3541 
Q 3450 3153 3228 2886 
Q 3006 2619 2597 2516 
z
" transform="scale(0.015625)"/>
       </defs>
       <use xlink:href="#DejaVuSans-33"/>
      </g>
     </g>
    </g>
    <g id="ytick_5">
     <g id="line2d_14">
      <g>
       <use xlink:href="#m2a93f6147e" x="34.240625" y="115.917652" style="stroke: #000000; stroke-width: 0.8"/>
      </g>
     </g>
     <g id="text_15">
      <!-- 4 -->
      <g transform="translate(20.878125 119.716871) scale(0.1 -0.1)">
       <defs>
        <path id="DejaVuSans-34" d="M 2419 4116 
L 825 1625 
L 2419 1625 
L 2419 4116 
z
M 2253 4666 
L 3047 4666 
L 3047 1625 
L 3713 1625 
L 3713 1100 
L 3047 1100 
L 3047 0 
L 2419 0 
L 2419 1100 
L 313 1100 
L 313 1709 
L 2253 4666 
z
" transform="scale(0.015625)"/>
       </defs>
       <use xlink:href="#DejaVuSans-34"/>
      </g>
     </g>
    </g>
    <g id="ytick_6">
     <g id="line2d_15">
      <g>
       <use xlink:href="#m2a93f6147e" x="34.240625" y="90.090357" style="stroke: #000000; stroke-width: 0.8"/>
      </g>
     </g>
     <g id="text_16">
      <!-- 5 -->
      <g transform="translate(20.878125 93.889576) scale(0.1 -0.1)">
       <use xlink:href="#DejaVuSans-35"/>
      </g>
     </g>
    </g>
    <g id="ytick_7">
     <g id="line2d_16">
      <g>
       <use xlink:href="#m2a93f6147e" x="34.240625" y="64.263062" style="stroke: #000000; stroke-width: 0.8"/>
      </g>
     </g>
     <g id="text_17">
      <!-- 6 -->
      <g transform="translate(20.878125 68.062281) scale(0.1 -0.1)">
       <defs>
        <path id="DejaVuSans-36" d="M 2113 2584 
Q 1688 2584 1439 2293 
Q 1191 2003 1191 1497 
Q 1191 994 1439 701 
Q 1688 409 2113 409 
Q 2538 409 2786 701 
Q 3034 994 3034 1497 
Q 3034 2003 2786 2293 
Q 2538 2584 2113 2584 
z
M 3366 4563 
L 3366 3988 
Q 3128 4100 2886 4159 
Q 2644 4219 2406 4219 
Q 1781 4219 1451 3797 
Q 1122 3375 1075 2522 
Q 1259 2794 1537 2939 
Q 1816 3084 2150 3084 
Q 2853 3084 3261 2657 
Q 3669 2231 3669 1497 
Q 3669 778 3244 343 
Q 2819 -91 2113 -91 
Q 1303 -91 875 529 
Q 447 1150 447 2328 
Q 447 3434 972 4092 
Q 1497 4750 2381 4750 
Q 2619 4750 2861 4703 
Q 3103 4656 3366 4563 
z
" transform="scale(0.015625)"/>
       </defs>
       <use xlink:href="#DejaVuSans-36"/>
      </g>
     </g>
    </g>
    <g id="ytick_8">
     <g id="line2d_17">
      <g>
       <use xlink:href="#m2a93f6147e" x="34.240625" y="38.435767" style="stroke: #000000; stroke-width: 0.8"/>
      </g>
     </g>
     <g id="text_18">
      <!-- 7 -->
      <g transform="translate(20.878125 42.234986) scale(0.1 -0.1)">
       <use xlink:href="#DejaVuSans-37"/>
      </g>
     </g>
    </g>
    <g id="ytick_9">
     <g id="line2d_18">
      <g>
       <use xlink:href="#m2a93f6147e" x="34.240625" y="12.608472" style="stroke: #000000; stroke-width: 0.8"/>
      </g>
     </g>
     <g id="text_19">
      <!-- 8 -->
      <g transform="translate(20.878125 16.40769) scale(0.1 -0.1)">
       <defs>
        <path id="DejaVuSans-38" d="M 2034 2216 
Q 1584 2216 1326 1975 
Q 1069 1734 1069 1313 
Q 1069 891 1326 650 
Q 1584 409 2034 409 
Q 2484 409 2743 651 
Q 3003 894 3003 1313 
Q 3003 1734 2745 1975 
Q 2488 2216 2034 2216 
z
M 1403 2484 
Q 997 2584 770 2862 
Q 544 3141 544 3541 
Q 544 4100 942 4425 
Q 1341 4750 2034 4750 
Q 2731 4750 3128 4425 
Q 3525 4100 3525 3541 
Q 3525 3141 3298 2862 
Q 3072 2584 2669 2484 
Q 3125 2378 3379 2068 
Q 3634 1759 3634 1313 
Q 3634 634 3220 271 
Q 2806 -91 2034 -91 
Q 1263 -91 848 271 
Q 434 634 434 1313 
Q 434 1759 690 2068 
Q 947 2378 1403 2484 
z
M 1172 3481 
Q 1172 3119 1398 2916 
Q 1625 2713 2034 2713 
Q 2441 2713 2670 2916 
Q 2900 3119 2900 3481 
Q 2900 3844 2670 4047 
Q 2441 4250 2034 4250 
Q 1625 4250 1398 4047 
Q 1172 3844 1172 3481 
z
" transform="scale(0.015625)"/>
       </defs>
       <use xlink:href="#DejaVuSans-38"/>
      </g>
     </g>
    </g>
    <g id="text_20">
     <!-- [dimensionless] -->
     <g transform="translate(14.798437 157.557344) rotate(-90) scale(0.1 -0.1)">
      <defs>
       <path id="DejaVuSans-6d" d="M 3328 2828 
Q 3544 3216 3844 3400 
Q 4144 3584 4550 3584 
Q 5097 3584 5394 3201 
Q 5691 2819 5691 2113 
L 5691 0 
L 5113 0 
L 5113 2094 
Q 5113 2597 4934 2840 
Q 4756 3084 4391 3084 
Q 3944 3084 3684 2787 
Q 3425 2491 3425 1978 
L 3425 0 
L 2847 0 
L 2847 2094 
Q 2847 2600 2669 2842 
Q 2491 3084 2119 3084 
Q 1678 3084 1418 2786 
Q 1159 2488 1159 1978 
L 1159 0 
L 581 0 
L 581 3500 
L 1159 3500 
L 1159 2956 
Q 1356 3278 1631 3431 
Q 1906 3584 2284 3584 
Q 2666 3584 2933 3390 
Q 3200 3197 3328 2828 
z
" transform="scale(0.015625)"/>
       <path id="DejaVuSans-65" d="M 3597 1894 
L 3597 1613 
L 953 1613 
Q 991 1019 1311 708 
Q 1631 397 2203 397 
Q 2534 397 2845 478 
Q 3156 559 3463 722 
L 3463 178 
Q 3153 47 2828 -22 
Q 2503 -91 2169 -91 
Q 1331 -91 842 396 
Q 353 884 353 1716 
Q 353 2575 817 3079 
Q 1281 3584 2069 3584 
Q 2775 3584 3186 3129 
Q 3597 2675 3597 1894 
z
M 3022 2063 
Q 3016 2534 2758 2815 
Q 2500 3097 2075 3097 
Q 1594 3097 1305 2825 
Q 1016 2553 972 2059 
L 3022 2063 
z
" transform="scale(0.015625)"/>
       <path id="DejaVuSans-6f" d="M 1959 3097 
Q 1497 3097 1228 2736 
Q 959 2375 959 1747 
Q 959 1119 1226 758 
Q 1494 397 1959 397 
Q 2419 397 2687 759 
Q 2956 1122 2956 1747 
Q 2956 2369 2687 2733 
Q 2419 3097 1959 3097 
z
M 1959 3584 
Q 2709 3584 3137 3096 
Q 3566 2609 3566 1747 
Q 3566 888 3137 398 
Q 2709 -91 1959 -91 
Q 1206 -91 779 398 
Q 353 888 353 1747 
Q 353 2609 779 3096 
Q 1206 3584 1959 3584 
z
" transform="scale(0.015625)"/>
       <path id="DejaVuSans-6c" d="M 603 4863 
L 1178 4863 
L 1178 0 
L 603 0 
L 603 4863 
z
" transform="scale(0.015625)"/>
      </defs>
      <use xlink:href="#DejaVuSans-5b"/>
      <use xlink:href="#DejaVuSans-64" transform="translate(39.013672 0)"/>
      <use xlink:href="#DejaVuSans-69" transform="translate(102.490234 0)"/>
      <use xlink:href="#DejaVuSans-6d" transform="translate(130.273438 0)"/>
      <use xlink:href="#DejaVuSans-65" transform="translate(227.685547 0)"/>
      <use xlink:href="#DejaVuSans-6e" transform="translate(289.208984 0)"/>
      <use xlink:href="#DejaVuSans-73" transform="translate(352.587891 0)"/>
      <use xlink:href="#DejaVuSans-69" transform="translate(404.6875 0)"/>
      <use xlink:href="#DejaVuSans-6f" transform="translate(432.470703 0)"/>
      <use xlink:href="#DejaVuSans-6e" transform="translate(493.652344 0)"/>
      <use xlink:href="#DejaVuSans-6c" transform="translate(557.03125 0)"/>
      <use xlink:href="#DejaVuSans-65" transform="translate(584.814453 0)"/>
      <use xlink:href="#DejaVuSans-73" transform="translate(646.337891 0)"/>
      <use xlink:href="#DejaVuSans-73" transform="translate(698.4375 0)"/>
      <use xlink:href="#DejaVuSans-5d" transform="translate(750.537109 0)"/>
     </g>
    </g>
   </g>
   <g id="patch_3">
    <path d="M 34.240625 228.96 
L 34.240625 7.2 
" style="fill: none; stroke: #000000; stroke-width: 0.8; stroke-linejoin: miter; stroke-linecap: square"/>
   </g>
   <g id="patch_4">
    <path d="M 369.040625 228.96 
L 369.040625 7.2 
" style="fill: none; stroke: #000000; stroke-width: 0.8; stroke-linejoin: miter; stroke-linecap: square"/>
   </g>
   <g id="patch_5">
    <path d="M 34.240625 228.96 
L 369.040625 228.96 
" style="fill: none; stroke: #000000; stroke-width: 0.8; stroke-linejoin: miter; stroke-linecap: square"/>
   </g>
   <g id="patch_6">
    <path d="M 34.240625 7.2 
L 369.040625 7.2 
" style="fill: none; stroke: #000000; stroke-width: 0.8; stroke-linejoin: miter; stroke-linecap: square"/>
   </g>
   <g id="line2d_19">
    <path d="M 49.458807 214.637617 
L 52.502443 214.639498 
L 52.502443 195.206883 
L 54.024261 195.206883 
L 54.024261 211.536067 
L 55.54608 211.536067 
L 55.54608 204.232819 
L 57.067898 204.232819 
L 57.067898 214.461684 
L 58.589716 214.461684 
L 58.589716 209.651178 
L 60.111534 209.651178 
L 60.111534 207.958375 
L 61.633352 207.958375 
L 61.633352 216.608052 
L 63.15517 216.608052 
L 63.15517 203.56487 
L 64.676989 203.56487 
L 64.676989 207.763155 
L 66.198807 207.763155 
L 66.198807 217.880321 
L 67.720625 217.880321 
L 67.720625 204.437571 
L 69.242443 204.437571 
L 69.242443 198.145426 
L 70.764261 198.145426 
L 70.764261 217.216166 
L 72.28608 217.216166 
L 72.28608 213.223001 
L 73.807898 213.223001 
L 73.807898 215.029852 
L 75.329716 215.029852 
L 75.329716 213.653287 
L 76.851534 213.653287 
L 76.851534 218.665008 
L 78.373352 218.665008 
L 78.373352 217.138959 
L 79.89517 217.138959 
L 79.89517 188.621701 
L 81.416989 188.621701 
L 81.416989 209.790812 
L 82.938807 209.790812 
L 82.938807 173.022734 
L 84.460625 173.022734 
L 84.460625 218.153427 
L 85.982443 218.153427 
L 85.982443 218.77163 
L 87.504261 218.77163 
L 87.504261 191.164361 
L 89.02608 191.164361 
L 89.02608 213.811553 
L 92.069716 213.836091 
L 92.069716 211.241201 
L 93.591534 211.241201 
L 93.591534 218.805943 
L 96.63517 218.707297 
L 96.63517 217.784086 
L 98.156989 217.784086 
L 98.156989 198.089951 
L 99.678807 198.089951 
L 99.678807 216.663039 
L 101.200625 216.663039 
L 101.200625 217.055883 
L 102.722443 217.055883 
L 102.722443 173.542191 
L 104.244261 173.542191 
L 104.244261 210.321084 
L 105.76608 210.321084 
L 105.76608 218.725307 
L 110.331534 218.827729 
L 110.331534 214.402971 
L 111.853352 214.402971 
L 111.853352 164.434232 
L 113.37517 164.434232 
L 113.37517 204.643071 
L 114.896989 204.643071 
L 114.896989 218.59449 
L 116.418807 218.59449 
L 116.418807 217.731047 
L 117.940625 217.731047 
L 117.940625 193.323628 
L 119.462443 193.323628 
L 119.462443 200.779859 
L 120.984261 200.779859 
L 120.984261 218.502435 
L 122.50608 218.502435 
L 122.50608 218.709705 
L 124.027898 218.709705 
L 124.027898 218.531359 
L 128.593352 218.575737 
L 128.593352 218.32924 
L 130.11517 218.32924 
L 130.11517 204.958224 
L 131.636989 204.958224 
L 131.636989 162.686952 
L 133.158807 162.686952 
L 133.158807 205.28863 
L 134.680625 205.28863 
L 134.680625 218.658114 
L 137.724261 218.565206 
L 137.724261 218.247404 
L 139.24608 218.247404 
L 139.24608 209.309245 
L 140.767898 209.309245 
L 140.767898 142.287322 
L 142.289716 142.287322 
L 142.289716 146.094315 
L 143.811534 146.094315 
L 143.811534 217.609779 
L 145.333352 217.609779 
L 145.333352 218.597124 
L 146.85517 218.597124 
L 146.85517 218.723821 
L 148.376989 218.723821 
L 148.376989 218.595266 
L 159.029716 218.667729 
L 159.029716 217.279684 
L 160.551534 217.279684 
L 160.551534 205.579969 
L 162.073352 205.579969 
L 162.073352 146.130165 
L 163.59517 146.130165 
L 163.59517 174.431785 
L 165.116989 174.431785 
L 165.116989 217.73126 
L 166.638807 217.73126 
L 166.638807 218.59458 
L 175.769716 218.518684 
L 175.769716 217.91251 
L 177.291534 217.91251 
L 177.291534 213.075964 
L 178.813352 213.075964 
L 178.813352 179.593266 
L 180.33517 179.593266 
L 180.33517 171.330952 
L 181.856989 171.330952 
L 181.856989 215.230587 
L 183.378807 215.230587 
L 183.378807 218.595504 
L 200.118807 218.624437 
L 200.118807 218.732745 
L 203.162443 218.630574 
L 203.162443 218.578211 
L 207.727898 218.533676 
L 207.727898 218.459818 
L 212.293352 218.562443 
L 212.293352 218.583286 
L 215.336989 218.598475 
L 215.336989 218.355967 
L 216.858807 218.355967 
L 216.858807 217.16745 
L 218.380625 217.16745 
L 218.380625 211.057271 
L 219.902443 211.057271 
L 219.902443 183.388851 
L 221.424261 183.388851 
L 221.424261 70.362735 
L 222.94608 70.362735 
L 222.94608 38.822911 
L 224.467898 38.822911 
L 224.467898 170.913145 
L 225.989716 170.913145 
L 225.989716 213.817075 
L 227.511534 213.817075 
L 227.511534 218.457251 
L 229.033352 218.457251 
L 229.033352 218.651637 
L 256.42608 218.543111 
L 256.42608 218.252878 
L 257.947898 218.252878 
L 257.947898 216.347089 
L 259.469716 216.347089 
L 259.469716 210.70865 
L 260.991534 210.70865 
L 260.991534 191.016712 
L 262.513352 191.016712 
L 262.513352 124.134295 
L 264.03517 124.134295 
L 264.03517 25.840119 
L 265.556989 25.840119 
L 265.556989 19.685707 
L 267.078807 19.685707 
L 267.078807 27.570197 
L 268.600625 27.570197 
L 268.600625 129.772408 
L 270.122443 129.772408 
L 270.122443 199.789954 
L 271.644261 199.789954 
L 271.644261 216.968416 
L 273.16608 216.968416 
L 273.16608 218.431996 
L 277.731534 218.525249 
L 277.731534 218.616403 
L 282.296989 218.652361 
L 282.296989 218.461698 
L 283.818807 218.461698 
L 283.818807 218.623078 
L 285.340625 218.623078 
L 285.340625 218.496226 
L 288.384261 218.550588 
L 288.384261 218.663877 
L 289.90608 218.663877 
L 289.90608 218.5361 
L 300.558807 218.560316 
L 300.558807 218.666509 
L 309.689716 218.588019 
L 309.689716 218.388191 
L 312.733352 218.412468 
L 312.733352 218.673292 
L 324.907898 218.683269 
L 324.907898 218.423564 
L 327.951534 218.529545 
L 327.951534 218.655138 
L 329.473352 218.655138 
L 329.473352 218.452102 
L 330.99517 218.452102 
L 330.99517 218.753832 
L 332.516989 218.753832 
L 332.516989 218.58077 
L 337.082443 218.525404 
L 337.082443 218.466445 
L 338.604261 218.466445 
L 338.604261 218.795434 
L 340.12608 218.795434 
L 340.12608 218.539504 
L 341.647898 218.539504 
L 341.647898 218.651763 
L 352.300625 218.549649 
L 352.300625 218.464662 
L 353.822443 218.464662 
L 353.822443 218.464662 
" clip-path="url(#pbc1752c981)" style="fill: none; stroke: #1f77b4; stroke-width: 1.5; stroke-linecap: square"/>
   </g>
   <g id="LineCollection_1">
    <path d="M 50.219716 215.153754 
L 50.219716 214.12148 
" clip-path="url(#pbc1752c981)" style="fill: none; stroke: #1f77b4; stroke-width: 1.5"/>
    <path d="M 51.741534 215.195875 
L 51.741534 214.08312 
" clip-path="url(#pbc1752c981)" style="fill: none; stroke: #1f77b4; stroke-width: 1.5"/>
    <path d="M 53.263352 196.849928 
L 53.263352 193.563838 
" clip-path="url(#pbc1752c981)" style="fill: none; stroke: #1f77b4; stroke-width: 1.5"/>
    <path d="M 54.78517 212.118773 
L 54.78517 210.95336 
" clip-path="url(#pbc1752c981)" style="fill: none; stroke: #1f77b4; stroke-width: 1.5"/>
    <path d="M 56.306989 205.142822 
L 56.306989 203.322817 
" clip-path="url(#pbc1752c981)" style="fill: none; stroke: #1f77b4; stroke-width: 1.5"/>
    <path d="M 57.828807 214.894142 
L 57.828807 214.029226 
" clip-path="url(#pbc1752c981)" style="fill: none; stroke: #1f77b4; stroke-width: 1.5"/>
    <path d="M 59.350625 210.357659 
L 59.350625 208.944696 
" clip-path="url(#pbc1752c981)" style="fill: none; stroke: #1f77b4; stroke-width: 1.5"/>
    <path d="M 60.872443 208.744785 
L 60.872443 207.171964 
" clip-path="url(#pbc1752c981)" style="fill: none; stroke: #1f77b4; stroke-width: 1.5"/>
    <path d="M 62.394261 216.929705 
L 62.394261 216.286399 
" clip-path="url(#pbc1752c981)" style="fill: none; stroke: #1f77b4; stroke-width: 1.5"/>
    <path d="M 63.91608 204.404587 
L 63.91608 202.725152 
" clip-path="url(#pbc1752c981)" style="fill: none; stroke: #1f77b4; stroke-width: 1.5"/>
    <path d="M 65.437898 208.531121 
L 65.437898 206.995189 
" clip-path="url(#pbc1752c981)" style="fill: none; stroke: #1f77b4; stroke-width: 1.5"/>
    <path d="M 66.959716 218.0922 
L 66.959716 217.668443 
" clip-path="url(#pbc1752c981)" style="fill: none; stroke: #1f77b4; stroke-width: 1.5"/>
    <path d="M 68.481534 205.207756 
L 68.481534 203.667386 
" clip-path="url(#pbc1752c981)" style="fill: none; stroke: #1f77b4; stroke-width: 1.5"/>
    <path d="M 70.003352 199.081313 
L 70.003352 197.209538 
" clip-path="url(#pbc1752c981)" style="fill: none; stroke: #1f77b4; stroke-width: 1.5"/>
    <path d="M 71.52517 217.409321 
L 71.52517 217.023011 
" clip-path="url(#pbc1752c981)" style="fill: none; stroke: #1f77b4; stroke-width: 1.5"/>
    <path d="M 73.046989 213.602123 
L 73.046989 212.843879 
" clip-path="url(#pbc1752c981)" style="fill: none; stroke: #1f77b4; stroke-width: 1.5"/>
    <path d="M 74.568807 215.369795 
L 74.568807 214.689909 
" clip-path="url(#pbc1752c981)" style="fill: none; stroke: #1f77b4; stroke-width: 1.5"/>
    <path d="M 76.090625 213.917453 
L 76.090625 213.38912 
" clip-path="url(#pbc1752c981)" style="fill: none; stroke: #1f77b4; stroke-width: 1.5"/>
    <path d="M 77.612443 218.784526 
L 77.612443 218.54549 
" clip-path="url(#pbc1752c981)" style="fill: none; stroke: #1f77b4; stroke-width: 1.5"/>
    <path d="M 79.134261 217.338359 
L 79.134261 216.939559 
" clip-path="url(#pbc1752c981)" style="fill: none; stroke: #1f77b4; stroke-width: 1.5"/>
    <path d="M 80.65608 189.635011 
L 80.65608 187.608391 
" clip-path="url(#pbc1752c981)" style="fill: none; stroke: #1f77b4; stroke-width: 1.5"/>
    <path d="M 82.177898 210.498807 
L 82.177898 209.082817 
" clip-path="url(#pbc1752c981)" style="fill: none; stroke: #1f77b4; stroke-width: 1.5"/>
    <path d="M 83.699716 174.704192 
L 83.699716 171.341276 
" clip-path="url(#pbc1752c981)" style="fill: none; stroke: #1f77b4; stroke-width: 1.5"/>
    <path d="M 85.221534 218.297728 
L 85.221534 218.009126 
" clip-path="url(#pbc1752c981)" style="fill: none; stroke: #1f77b4; stroke-width: 1.5"/>
    <path d="M 86.743352 218.837696 
L 86.743352 218.705564 
" clip-path="url(#pbc1752c981)" style="fill: none; stroke: #1f77b4; stroke-width: 1.5"/>
    <path d="M 88.26517 191.908846 
L 88.26517 190.419876 
" clip-path="url(#pbc1752c981)" style="fill: none; stroke: #1f77b4; stroke-width: 1.5"/>
    <path d="M 89.786989 214.024755 
L 89.786989 213.59835 
" clip-path="url(#pbc1752c981)" style="fill: none; stroke: #1f77b4; stroke-width: 1.5"/>
    <path d="M 91.308807 214.064081 
L 91.308807 213.608101 
" clip-path="url(#pbc1752c981)" style="fill: none; stroke: #1f77b4; stroke-width: 1.5"/>
    <path d="M 92.830625 211.486182 
L 92.830625 210.996221 
" clip-path="url(#pbc1752c981)" style="fill: none; stroke: #1f77b4; stroke-width: 1.5"/>
    <path d="M 94.352443 218.877911 
L 94.352443 218.733975 
" clip-path="url(#pbc1752c981)" style="fill: none; stroke: #1f77b4; stroke-width: 1.5"/>
    <path d="M 95.874261 218.784742 
L 95.874261 218.629851 
" clip-path="url(#pbc1752c981)" style="fill: none; stroke: #1f77b4; stroke-width: 1.5"/>
    <path d="M 97.39608 217.904144 
L 97.39608 217.664028 
" clip-path="url(#pbc1752c981)" style="fill: none; stroke: #1f77b4; stroke-width: 1.5"/>
    <path d="M 98.917898 198.578687 
L 98.917898 197.601215 
" clip-path="url(#pbc1752c981)" style="fill: none; stroke: #1f77b4; stroke-width: 1.5"/>
    <path d="M 100.439716 216.759728 
L 100.439716 216.56635 
" clip-path="url(#pbc1752c981)" style="fill: none; stroke: #1f77b4; stroke-width: 1.5"/>
    <path d="M 101.961534 217.227027 
L 101.961534 216.884739 
" clip-path="url(#pbc1752c981)" style="fill: none; stroke: #1f77b4; stroke-width: 1.5"/>
    <path d="M 103.483352 174.49867 
L 103.483352 172.585712 
" clip-path="url(#pbc1752c981)" style="fill: none; stroke: #1f77b4; stroke-width: 1.5"/>
    <path d="M 105.00517 210.565204 
L 105.00517 210.076964 
" clip-path="url(#pbc1752c981)" style="fill: none; stroke: #1f77b4; stroke-width: 1.5"/>
    <path d="M 106.526989 218.786392 
L 106.526989 218.664222 
" clip-path="url(#pbc1752c981)" style="fill: none; stroke: #1f77b4; stroke-width: 1.5"/>
    <path d="M 108.048807 218.750142 
L 108.048807 218.619409 
" clip-path="url(#pbc1752c981)" style="fill: none; stroke: #1f77b4; stroke-width: 1.5"/>
    <path d="M 109.570625 218.88 
L 109.570625 218.775459 
" clip-path="url(#pbc1752c981)" style="fill: none; stroke: #1f77b4; stroke-width: 1.5"/>
    <path d="M 111.092443 214.6475 
L 111.092443 214.158442 
" clip-path="url(#pbc1752c981)" style="fill: none; stroke: #1f77b4; stroke-width: 1.5"/>
    <path d="M 112.614261 165.368532 
L 112.614261 163.499932 
" clip-path="url(#pbc1752c981)" style="fill: none; stroke: #1f77b4; stroke-width: 1.5"/>
    <path d="M 114.13608 204.9647 
L 114.13608 204.321443 
" clip-path="url(#pbc1752c981)" style="fill: none; stroke: #1f77b4; stroke-width: 1.5"/>
    <path d="M 115.657898 218.663344 
L 115.657898 218.525636 
" clip-path="url(#pbc1752c981)" style="fill: none; stroke: #1f77b4; stroke-width: 1.5"/>
    <path d="M 117.179716 217.826878 
L 117.179716 217.635215 
" clip-path="url(#pbc1752c981)" style="fill: none; stroke: #1f77b4; stroke-width: 1.5"/>
    <path d="M 118.701534 193.750534 
L 118.701534 192.896722 
" clip-path="url(#pbc1752c981)" style="fill: none; stroke: #1f77b4; stroke-width: 1.5"/>
    <path d="M 120.223352 201.088465 
L 120.223352 200.471252 
" clip-path="url(#pbc1752c981)" style="fill: none; stroke: #1f77b4; stroke-width: 1.5"/>
    <path d="M 121.74517 218.568068 
L 121.74517 218.436803 
" clip-path="url(#pbc1752c981)" style="fill: none; stroke: #1f77b4; stroke-width: 1.5"/>
    <path d="M 123.266989 218.764792 
L 123.266989 218.654617 
" clip-path="url(#pbc1752c981)" style="fill: none; stroke: #1f77b4; stroke-width: 1.5"/>
    <path d="M 124.788807 218.594796 
L 124.788807 218.467923 
" clip-path="url(#pbc1752c981)" style="fill: none; stroke: #1f77b4; stroke-width: 1.5"/>
    <path d="M 126.310625 218.68498 
L 126.310625 218.561508 
" clip-path="url(#pbc1752c981)" style="fill: none; stroke: #1f77b4; stroke-width: 1.5"/>
    <path d="M 127.832443 218.640507 
L 127.832443 218.510966 
" clip-path="url(#pbc1752c981)" style="fill: none; stroke: #1f77b4; stroke-width: 1.5"/>
    <path d="M 129.354261 218.398795 
L 129.354261 218.259685 
" clip-path="url(#pbc1752c981)" style="fill: none; stroke: #1f77b4; stroke-width: 1.5"/>
    <path d="M 130.87608 205.207158 
L 130.87608 204.709289 
" clip-path="url(#pbc1752c981)" style="fill: none; stroke: #1f77b4; stroke-width: 1.5"/>
    <path d="M 132.397898 163.323844 
L 132.397898 162.050059 
" clip-path="url(#pbc1752c981)" style="fill: none; stroke: #1f77b4; stroke-width: 1.5"/>
    <path d="M 133.919716 205.525211 
L 133.919716 205.052049 
" clip-path="url(#pbc1752c981)" style="fill: none; stroke: #1f77b4; stroke-width: 1.5"/>
    <path d="M 135.441534 218.710622 
L 135.441534 218.605606 
" clip-path="url(#pbc1752c981)" style="fill: none; stroke: #1f77b4; stroke-width: 1.5"/>
    <path d="M 136.963352 218.62072 
L 136.963352 218.509693 
" clip-path="url(#pbc1752c981)" style="fill: none; stroke: #1f77b4; stroke-width: 1.5"/>
    <path d="M 138.48517 218.324353 
L 138.48517 218.170455 
" clip-path="url(#pbc1752c981)" style="fill: none; stroke: #1f77b4; stroke-width: 1.5"/>
    <path d="M 140.006989 209.594336 
L 140.006989 209.024154 
" clip-path="url(#pbc1752c981)" style="fill: none; stroke: #1f77b4; stroke-width: 1.5"/>
    <path d="M 141.528807 143.197131 
L 141.528807 141.377512 
" clip-path="url(#pbc1752c981)" style="fill: none; stroke: #1f77b4; stroke-width: 1.5"/>
    <path d="M 143.050625 147.030527 
L 143.050625 145.158103 
" clip-path="url(#pbc1752c981)" style="fill: none; stroke: #1f77b4; stroke-width: 1.5"/>
    <path d="M 144.572443 217.689825 
L 144.572443 217.529732 
" clip-path="url(#pbc1752c981)" style="fill: none; stroke: #1f77b4; stroke-width: 1.5"/>
    <path d="M 146.094261 218.64963 
L 146.094261 218.544618 
" clip-path="url(#pbc1752c981)" style="fill: none; stroke: #1f77b4; stroke-width: 1.5"/>
    <path d="M 147.61608 218.77124 
L 147.61608 218.676402 
" clip-path="url(#pbc1752c981)" style="fill: none; stroke: #1f77b4; stroke-width: 1.5"/>
    <path d="M 149.137898 218.649725 
L 149.137898 218.540807 
" clip-path="url(#pbc1752c981)" style="fill: none; stroke: #1f77b4; stroke-width: 1.5"/>
    <path d="M 150.659716 218.673412 
L 150.659716 218.568454 
" clip-path="url(#pbc1752c981)" style="fill: none; stroke: #1f77b4; stroke-width: 1.5"/>
    <path d="M 152.181534 218.697463 
L 152.181534 218.595783 
" clip-path="url(#pbc1752c981)" style="fill: none; stroke: #1f77b4; stroke-width: 1.5"/>
    <path d="M 153.703352 218.711625 
L 153.703352 218.614327 
" clip-path="url(#pbc1752c981)" style="fill: none; stroke: #1f77b4; stroke-width: 1.5"/>
    <path d="M 155.22517 218.690875 
L 155.22517 218.586994 
" clip-path="url(#pbc1752c981)" style="fill: none; stroke: #1f77b4; stroke-width: 1.5"/>
    <path d="M 156.746989 218.735402 
L 156.746989 218.633647 
" clip-path="url(#pbc1752c981)" style="fill: none; stroke: #1f77b4; stroke-width: 1.5"/>
    <path d="M 158.268807 218.714014 
L 158.268807 218.621443 
" clip-path="url(#pbc1752c981)" style="fill: none; stroke: #1f77b4; stroke-width: 1.5"/>
    <path d="M 159.790625 217.370854 
L 159.790625 217.188513 
" clip-path="url(#pbc1752c981)" style="fill: none; stroke: #1f77b4; stroke-width: 1.5"/>
    <path d="M 161.312443 205.794382 
L 161.312443 205.365557 
" clip-path="url(#pbc1752c981)" style="fill: none; stroke: #1f77b4; stroke-width: 1.5"/>
    <path d="M 162.834261 146.901006 
L 162.834261 145.359324 
" clip-path="url(#pbc1752c981)" style="fill: none; stroke: #1f77b4; stroke-width: 1.5"/>
    <path d="M 164.35608 175.006912 
L 164.35608 173.856658 
" clip-path="url(#pbc1752c981)" style="fill: none; stroke: #1f77b4; stroke-width: 1.5"/>
    <path d="M 165.877898 217.800098 
L 165.877898 217.662422 
" clip-path="url(#pbc1752c981)" style="fill: none; stroke: #1f77b4; stroke-width: 1.5"/>
    <path d="M 167.399716 218.650301 
L 167.399716 218.538858 
" clip-path="url(#pbc1752c981)" style="fill: none; stroke: #1f77b4; stroke-width: 1.5"/>
    <path d="M 168.921534 218.593812 
L 168.921534 218.468854 
" clip-path="url(#pbc1752c981)" style="fill: none; stroke: #1f77b4; stroke-width: 1.5"/>
    <path d="M 170.443352 218.736562 
L 170.443352 218.639843 
" clip-path="url(#pbc1752c981)" style="fill: none; stroke: #1f77b4; stroke-width: 1.5"/>
    <path d="M 171.96517 218.630356 
L 171.96517 218.511015 
" clip-path="url(#pbc1752c981)" style="fill: none; stroke: #1f77b4; stroke-width: 1.5"/>
    <path d="M 173.486989 218.703252 
L 173.486989 218.589306 
" clip-path="url(#pbc1752c981)" style="fill: none; stroke: #1f77b4; stroke-width: 1.5"/>
    <path d="M 175.008807 218.580402 
L 175.008807 218.456966 
" clip-path="url(#pbc1752c981)" style="fill: none; stroke: #1f77b4; stroke-width: 1.5"/>
    <path d="M 176.530625 217.972547 
L 176.530625 217.852473 
" clip-path="url(#pbc1752c981)" style="fill: none; stroke: #1f77b4; stroke-width: 1.5"/>
    <path d="M 178.052443 213.180794 
L 178.052443 212.971134 
" clip-path="url(#pbc1752c981)" style="fill: none; stroke: #1f77b4; stroke-width: 1.5"/>
    <path d="M 179.574261 180.001273 
L 179.574261 179.185259 
" clip-path="url(#pbc1752c981)" style="fill: none; stroke: #1f77b4; stroke-width: 1.5"/>
    <path d="M 181.09608 171.837195 
L 181.09608 170.824709 
" clip-path="url(#pbc1752c981)" style="fill: none; stroke: #1f77b4; stroke-width: 1.5"/>
    <path d="M 182.617898 215.326357 
L 182.617898 215.134818 
" clip-path="url(#pbc1752c981)" style="fill: none; stroke: #1f77b4; stroke-width: 1.5"/>
    <path d="M 184.139716 218.645361 
L 184.139716 218.545648 
" clip-path="url(#pbc1752c981)" style="fill: none; stroke: #1f77b4; stroke-width: 1.5"/>
    <path d="M 185.661534 218.683337 
L 185.661534 218.58174 
" clip-path="url(#pbc1752c981)" style="fill: none; stroke: #1f77b4; stroke-width: 1.5"/>
    <path d="M 187.183352 218.65519 
L 187.183352 218.554022 
" clip-path="url(#pbc1752c981)" style="fill: none; stroke: #1f77b4; stroke-width: 1.5"/>
    <path d="M 188.70517 218.67659 
L 188.70517 218.577915 
" clip-path="url(#pbc1752c981)" style="fill: none; stroke: #1f77b4; stroke-width: 1.5"/>
    <path d="M 190.226989 218.708128 
L 190.226989 218.607377 
" clip-path="url(#pbc1752c981)" style="fill: none; stroke: #1f77b4; stroke-width: 1.5"/>
    <path d="M 191.748807 218.677115 
L 191.748807 218.574571 
" clip-path="url(#pbc1752c981)" style="fill: none; stroke: #1f77b4; stroke-width: 1.5"/>
    <path d="M 193.270625 218.596204 
L 193.270625 218.482547 
" clip-path="url(#pbc1752c981)" style="fill: none; stroke: #1f77b4; stroke-width: 1.5"/>
    <path d="M 194.792443 218.622861 
L 194.792443 218.517371 
" clip-path="url(#pbc1752c981)" style="fill: none; stroke: #1f77b4; stroke-width: 1.5"/>
    <path d="M 196.314261 218.738574 
L 196.314261 218.648741 
" clip-path="url(#pbc1752c981)" style="fill: none; stroke: #1f77b4; stroke-width: 1.5"/>
    <path d="M 197.83608 218.705716 
L 197.83608 218.613288 
" clip-path="url(#pbc1752c981)" style="fill: none; stroke: #1f77b4; stroke-width: 1.5"/>
    <path d="M 199.357898 218.672008 
L 199.357898 218.576867 
" clip-path="url(#pbc1752c981)" style="fill: none; stroke: #1f77b4; stroke-width: 1.5"/>
    <path d="M 200.879716 218.774109 
L 200.879716 218.691381 
" clip-path="url(#pbc1752c981)" style="fill: none; stroke: #1f77b4; stroke-width: 1.5"/>
    <path d="M 202.401534 218.679302 
L 202.401534 218.581846 
" clip-path="url(#pbc1752c981)" style="fill: none; stroke: #1f77b4; stroke-width: 1.5"/>
    <path d="M 203.923352 218.628324 
L 203.923352 218.528098 
" clip-path="url(#pbc1752c981)" style="fill: none; stroke: #1f77b4; stroke-width: 1.5"/>
    <path d="M 205.44517 218.662652 
L 205.44517 218.567655 
" clip-path="url(#pbc1752c981)" style="fill: none; stroke: #1f77b4; stroke-width: 1.5"/>
    <path d="M 206.966989 218.584937 
L 206.966989 218.482415 
" clip-path="url(#pbc1752c981)" style="fill: none; stroke: #1f77b4; stroke-width: 1.5"/>
    <path d="M 208.488807 218.513057 
L 208.488807 218.40658 
" clip-path="url(#pbc1752c981)" style="fill: none; stroke: #1f77b4; stroke-width: 1.5"/>
    <path d="M 210.010625 218.588435 
L 210.010625 218.490239 
" clip-path="url(#pbc1752c981)" style="fill: none; stroke: #1f77b4; stroke-width: 1.5"/>
    <path d="M 211.532443 218.614007 
L 211.532443 218.510879 
" clip-path="url(#pbc1752c981)" style="fill: none; stroke: #1f77b4; stroke-width: 1.5"/>
    <path d="M 213.054261 218.633174 
L 213.054261 218.533397 
" clip-path="url(#pbc1752c981)" style="fill: none; stroke: #1f77b4; stroke-width: 1.5"/>
    <path d="M 214.57608 218.649177 
L 214.57608 218.547774 
" clip-path="url(#pbc1752c981)" style="fill: none; stroke: #1f77b4; stroke-width: 1.5"/>
    <path d="M 216.097898 218.416081 
L 216.097898 218.295853 
" clip-path="url(#pbc1752c981)" style="fill: none; stroke: #1f77b4; stroke-width: 1.5"/>
    <path d="M 217.619716 217.256091 
L 217.619716 217.078808 
" clip-path="url(#pbc1752c981)" style="fill: none; stroke: #1f77b4; stroke-width: 1.5"/>
    <path d="M 219.141534 211.219578 
L 219.141534 210.894964 
" clip-path="url(#pbc1752c981)" style="fill: none; stroke: #1f77b4; stroke-width: 1.5"/>
    <path d="M 220.663352 183.829692 
L 220.663352 182.94801 
" clip-path="url(#pbc1752c981)" style="fill: none; stroke: #1f77b4; stroke-width: 1.5"/>
    <path d="M 222.18517 71.748136 
L 222.18517 68.977334 
" clip-path="url(#pbc1752c981)" style="fill: none; stroke: #1f77b4; stroke-width: 1.5"/>
    <path d="M 223.706989 40.469745 
L 223.706989 37.176077 
" clip-path="url(#pbc1752c981)" style="fill: none; stroke: #1f77b4; stroke-width: 1.5"/>
    <path d="M 225.228807 171.547197 
L 225.228807 170.279093 
" clip-path="url(#pbc1752c981)" style="fill: none; stroke: #1f77b4; stroke-width: 1.5"/>
    <path d="M 226.750625 213.968313 
L 226.750625 213.665838 
" clip-path="url(#pbc1752c981)" style="fill: none; stroke: #1f77b4; stroke-width: 1.5"/>
    <path d="M 228.272443 218.509059 
L 228.272443 218.405444 
" clip-path="url(#pbc1752c981)" style="fill: none; stroke: #1f77b4; stroke-width: 1.5"/>
    <path d="M 229.794261 218.698834 
L 229.794261 218.604441 
" clip-path="url(#pbc1752c981)" style="fill: none; stroke: #1f77b4; stroke-width: 1.5"/>
    <path d="M 231.31608 218.739829 
L 231.31608 218.647382 
" clip-path="url(#pbc1752c981)" style="fill: none; stroke: #1f77b4; stroke-width: 1.5"/>
    <path d="M 232.837898 218.600833 
L 232.837898 218.497185 
" clip-path="url(#pbc1752c981)" style="fill: none; stroke: #1f77b4; stroke-width: 1.5"/>
    <path d="M 234.359716 218.693218 
L 234.359716 218.598684 
" clip-path="url(#pbc1752c981)" style="fill: none; stroke: #1f77b4; stroke-width: 1.5"/>
    <path d="M 235.881534 218.704676 
L 235.881534 218.607832 
" clip-path="url(#pbc1752c981)" style="fill: none; stroke: #1f77b4; stroke-width: 1.5"/>
    <path d="M 237.403352 218.714153 
L 237.403352 218.616453 
" clip-path="url(#pbc1752c981)" style="fill: none; stroke: #1f77b4; stroke-width: 1.5"/>
    <path d="M 238.92517 218.677653 
L 238.92517 218.573796 
" clip-path="url(#pbc1752c981)" style="fill: none; stroke: #1f77b4; stroke-width: 1.5"/>
    <path d="M 240.446989 218.682289 
L 240.446989 218.575535 
" clip-path="url(#pbc1752c981)" style="fill: none; stroke: #1f77b4; stroke-width: 1.5"/>
    <path d="M 241.968807 218.713277 
L 241.968807 218.614133 
" clip-path="url(#pbc1752c981)" style="fill: none; stroke: #1f77b4; stroke-width: 1.5"/>
    <path d="M 243.490625 218.64972 
L 243.490625 218.530625 
" clip-path="url(#pbc1752c981)" style="fill: none; stroke: #1f77b4; stroke-width: 1.5"/>
    <path d="M 245.012443 218.631854 
L 245.012443 218.518198 
" clip-path="url(#pbc1752c981)" style="fill: none; stroke: #1f77b4; stroke-width: 1.5"/>
    <path d="M 246.534261 218.652712 
L 246.534261 218.540636 
" clip-path="url(#pbc1752c981)" style="fill: none; stroke: #1f77b4; stroke-width: 1.5"/>
    <path d="M 248.05608 218.629188 
L 248.05608 218.51382 
" clip-path="url(#pbc1752c981)" style="fill: none; stroke: #1f77b4; stroke-width: 1.5"/>
    <path d="M 249.577898 218.682071 
L 249.577898 218.574497 
" clip-path="url(#pbc1752c981)" style="fill: none; stroke: #1f77b4; stroke-width: 1.5"/>
    <path d="M 251.099716 218.716569 
L 251.099716 218.602271 
" clip-path="url(#pbc1752c981)" style="fill: none; stroke: #1f77b4; stroke-width: 1.5"/>
    <path d="M 252.621534 218.612087 
L 252.621534 218.491773 
" clip-path="url(#pbc1752c981)" style="fill: none; stroke: #1f77b4; stroke-width: 1.5"/>
    <path d="M 254.143352 218.715777 
L 254.143352 218.611658 
" clip-path="url(#pbc1752c981)" style="fill: none; stroke: #1f77b4; stroke-width: 1.5"/>
    <path d="M 255.66517 218.607685 
L 255.66517 218.478538 
" clip-path="url(#pbc1752c981)" style="fill: none; stroke: #1f77b4; stroke-width: 1.5"/>
    <path d="M 257.186989 218.333589 
L 257.186989 218.172167 
" clip-path="url(#pbc1752c981)" style="fill: none; stroke: #1f77b4; stroke-width: 1.5"/>
    <path d="M 258.708807 216.493225 
L 258.708807 216.200953 
" clip-path="url(#pbc1752c981)" style="fill: none; stroke: #1f77b4; stroke-width: 1.5"/>
    <path d="M 260.230625 210.945932 
L 260.230625 210.471367 
" clip-path="url(#pbc1752c981)" style="fill: none; stroke: #1f77b4; stroke-width: 1.5"/>
    <path d="M 261.752443 191.490324 
L 261.752443 190.5431 
" clip-path="url(#pbc1752c981)" style="fill: none; stroke: #1f77b4; stroke-width: 1.5"/>
    <path d="M 263.274261 125.404416 
L 263.274261 122.864173 
" clip-path="url(#pbc1752c981)" style="fill: none; stroke: #1f77b4; stroke-width: 1.5"/>
    <path d="M 264.79608 28.155204 
L 264.79608 23.525035 
" clip-path="url(#pbc1752c981)" style="fill: none; stroke: #1f77b4; stroke-width: 1.5"/>
    <path d="M 266.317898 22.091415 
L 266.317898 17.28 
" clip-path="url(#pbc1752c981)" style="fill: none; stroke: #1f77b4; stroke-width: 1.5"/>
    <path d="M 267.839716 29.89829 
L 267.839716 25.242105 
" clip-path="url(#pbc1752c981)" style="fill: none; stroke: #1f77b4; stroke-width: 1.5"/>
    <path d="M 269.361534 131.114414 
L 269.361534 128.430401 
" clip-path="url(#pbc1752c981)" style="fill: none; stroke: #1f77b4; stroke-width: 1.5"/>
    <path d="M 270.883352 200.265849 
L 270.883352 199.314058 
" clip-path="url(#pbc1752c981)" style="fill: none; stroke: #1f77b4; stroke-width: 1.5"/>
    <path d="M 272.40517 217.083999 
L 272.40517 216.852832 
" clip-path="url(#pbc1752c981)" style="fill: none; stroke: #1f77b4; stroke-width: 1.5"/>
    <path d="M 273.926989 218.498402 
L 273.926989 218.36559 
" clip-path="url(#pbc1752c981)" style="fill: none; stroke: #1f77b4; stroke-width: 1.5"/>
    <path d="M 275.448807 218.59863 
L 275.448807 218.452755 
" clip-path="url(#pbc1752c981)" style="fill: none; stroke: #1f77b4; stroke-width: 1.5"/>
    <path d="M 276.970625 218.599082 
L 276.970625 218.451415 
" clip-path="url(#pbc1752c981)" style="fill: none; stroke: #1f77b4; stroke-width: 1.5"/>
    <path d="M 278.492443 218.682232 
L 278.492443 218.550573 
" clip-path="url(#pbc1752c981)" style="fill: none; stroke: #1f77b4; stroke-width: 1.5"/>
    <path d="M 280.014261 218.702639 
L 280.014261 218.559488 
" clip-path="url(#pbc1752c981)" style="fill: none; stroke: #1f77b4; stroke-width: 1.5"/>
    <path d="M 281.53608 218.71665 
L 281.53608 218.588071 
" clip-path="url(#pbc1752c981)" style="fill: none; stroke: #1f77b4; stroke-width: 1.5"/>
    <path d="M 283.057898 218.545898 
L 283.057898 218.377498 
" clip-path="url(#pbc1752c981)" style="fill: none; stroke: #1f77b4; stroke-width: 1.5"/>
    <path d="M 284.579716 218.68688 
L 284.579716 218.559275 
" clip-path="url(#pbc1752c981)" style="fill: none; stroke: #1f77b4; stroke-width: 1.5"/>
    <path d="M 286.101534 218.57853 
L 286.101534 218.413922 
" clip-path="url(#pbc1752c981)" style="fill: none; stroke: #1f77b4; stroke-width: 1.5"/>
    <path d="M 287.623352 218.627464 
L 287.623352 218.473711 
" clip-path="url(#pbc1752c981)" style="fill: none; stroke: #1f77b4; stroke-width: 1.5"/>
    <path d="M 289.14517 218.731856 
L 289.14517 218.595897 
" clip-path="url(#pbc1752c981)" style="fill: none; stroke: #1f77b4; stroke-width: 1.5"/>
    <path d="M 290.666989 218.615792 
L 290.666989 218.456407 
" clip-path="url(#pbc1752c981)" style="fill: none; stroke: #1f77b4; stroke-width: 1.5"/>
    <path d="M 292.188807 218.7134 
L 292.188807 218.575577 
" clip-path="url(#pbc1752c981)" style="fill: none; stroke: #1f77b4; stroke-width: 1.5"/>
    <path d="M 293.710625 218.598706 
L 293.710625 218.437124 
" clip-path="url(#pbc1752c981)" style="fill: none; stroke: #1f77b4; stroke-width: 1.5"/>
    <path d="M 295.232443 218.650498 
L 295.232443 218.50474 
" clip-path="url(#pbc1752c981)" style="fill: none; stroke: #1f77b4; stroke-width: 1.5"/>
    <path d="M 296.754261 218.600199 
L 296.754261 218.429207 
" clip-path="url(#pbc1752c981)" style="fill: none; stroke: #1f77b4; stroke-width: 1.5"/>
    <path d="M 298.27608 218.652321 
L 298.27608 218.496612 
" clip-path="url(#pbc1752c981)" style="fill: none; stroke: #1f77b4; stroke-width: 1.5"/>
    <path d="M 299.797898 218.645416 
L 299.797898 218.475216 
" clip-path="url(#pbc1752c981)" style="fill: none; stroke: #1f77b4; stroke-width: 1.5"/>
    <path d="M 301.319716 218.732306 
L 301.319716 218.600713 
" clip-path="url(#pbc1752c981)" style="fill: none; stroke: #1f77b4; stroke-width: 1.5"/>
    <path d="M 302.841534 218.774122 
L 302.841534 218.642915 
" clip-path="url(#pbc1752c981)" style="fill: none; stroke: #1f77b4; stroke-width: 1.5"/>
    <path d="M 304.363352 218.697056 
L 304.363352 218.543216 
" clip-path="url(#pbc1752c981)" style="fill: none; stroke: #1f77b4; stroke-width: 1.5"/>
    <path d="M 305.88517 218.653346 
L 305.88517 218.485037 
" clip-path="url(#pbc1752c981)" style="fill: none; stroke: #1f77b4; stroke-width: 1.5"/>
    <path d="M 307.406989 218.79522 
L 307.406989 218.641579 
" clip-path="url(#pbc1752c981)" style="fill: none; stroke: #1f77b4; stroke-width: 1.5"/>
    <path d="M 308.928807 218.666929 
L 308.928807 218.50911 
" clip-path="url(#pbc1752c981)" style="fill: none; stroke: #1f77b4; stroke-width: 1.5"/>
    <path d="M 310.450625 218.487814 
L 310.450625 218.288567 
" clip-path="url(#pbc1752c981)" style="fill: none; stroke: #1f77b4; stroke-width: 1.5"/>
    <path d="M 311.972443 218.508543 
L 311.972443 218.316394 
" clip-path="url(#pbc1752c981)" style="fill: none; stroke: #1f77b4; stroke-width: 1.5"/>
    <path d="M 313.494261 218.745248 
L 313.494261 218.601335 
" clip-path="url(#pbc1752c981)" style="fill: none; stroke: #1f77b4; stroke-width: 1.5"/>
    <path d="M 315.01608 218.755551 
L 315.01608 218.603987 
" clip-path="url(#pbc1752c981)" style="fill: none; stroke: #1f77b4; stroke-width: 1.5"/>
    <path d="M 316.537898 218.659216 
L 316.537898 218.489799 
" clip-path="url(#pbc1752c981)" style="fill: none; stroke: #1f77b4; stroke-width: 1.5"/>
    <path d="M 318.059716 218.719652 
L 318.059716 218.575631 
" clip-path="url(#pbc1752c981)" style="fill: none; stroke: #1f77b4; stroke-width: 1.5"/>
    <path d="M 319.581534 218.719021 
L 319.581534 218.561155 
" clip-path="url(#pbc1752c981)" style="fill: none; stroke: #1f77b4; stroke-width: 1.5"/>
    <path d="M 321.103352 218.710333 
L 321.103352 218.562048 
" clip-path="url(#pbc1752c981)" style="fill: none; stroke: #1f77b4; stroke-width: 1.5"/>
    <path d="M 322.62517 218.67405 
L 322.62517 218.494215 
" clip-path="url(#pbc1752c981)" style="fill: none; stroke: #1f77b4; stroke-width: 1.5"/>
    <path d="M 324.146989 218.761629 
L 324.146989 218.604909 
" clip-path="url(#pbc1752c981)" style="fill: none; stroke: #1f77b4; stroke-width: 1.5"/>
    <path d="M 325.668807 218.51988 
L 325.668807 218.327248 
" clip-path="url(#pbc1752c981)" style="fill: none; stroke: #1f77b4; stroke-width: 1.5"/>
    <path d="M 327.190625 218.61969 
L 327.190625 218.4394 
" clip-path="url(#pbc1752c981)" style="fill: none; stroke: #1f77b4; stroke-width: 1.5"/>
    <path d="M 328.712443 218.733811 
L 328.712443 218.576465 
" clip-path="url(#pbc1752c981)" style="fill: none; stroke: #1f77b4; stroke-width: 1.5"/>
    <path d="M 330.234261 218.551322 
L 330.234261 218.352883 
" clip-path="url(#pbc1752c981)" style="fill: none; stroke: #1f77b4; stroke-width: 1.5"/>
    <path d="M 331.75608 218.825164 
L 331.75608 218.682501 
" clip-path="url(#pbc1752c981)" style="fill: none; stroke: #1f77b4; stroke-width: 1.5"/>
    <path d="M 333.277898 218.665591 
L 333.277898 218.49595 
" clip-path="url(#pbc1752c981)" style="fill: none; stroke: #1f77b4; stroke-width: 1.5"/>
    <path d="M 334.799716 218.607293 
L 334.799716 218.422816 
" clip-path="url(#pbc1752c981)" style="fill: none; stroke: #1f77b4; stroke-width: 1.5"/>
    <path d="M 336.321534 218.618859 
L 336.321534 218.431949 
" clip-path="url(#pbc1752c981)" style="fill: none; stroke: #1f77b4; stroke-width: 1.5"/>
    <path d="M 337.843352 218.570943 
L 337.843352 218.361947 
" clip-path="url(#pbc1752c981)" style="fill: none; stroke: #1f77b4; stroke-width: 1.5"/>
    <path d="M 339.36517 218.865577 
L 339.36517 218.725291 
" clip-path="url(#pbc1752c981)" style="fill: none; stroke: #1f77b4; stroke-width: 1.5"/>
    <path d="M 340.886989 218.638546 
L 340.886989 218.440462 
" clip-path="url(#pbc1752c981)" style="fill: none; stroke: #1f77b4; stroke-width: 1.5"/>
    <path d="M 342.408807 218.72952 
L 342.408807 218.574006 
" clip-path="url(#pbc1752c981)" style="fill: none; stroke: #1f77b4; stroke-width: 1.5"/>
    <path d="M 343.930625 218.673773 
L 343.930625 218.485695 
" clip-path="url(#pbc1752c981)" style="fill: none; stroke: #1f77b4; stroke-width: 1.5"/>
    <path d="M 345.452443 218.681825 
L 345.452443 218.499104 
" clip-path="url(#pbc1752c981)" style="fill: none; stroke: #1f77b4; stroke-width: 1.5"/>
    <path d="M 346.974261 218.740281 
L 346.974261 218.558334 
" clip-path="url(#pbc1752c981)" style="fill: none; stroke: #1f77b4; stroke-width: 1.5"/>
    <path d="M 348.49608 218.667444 
L 348.49608 218.467124 
" clip-path="url(#pbc1752c981)" style="fill: none; stroke: #1f77b4; stroke-width: 1.5"/>
    <path d="M 350.017898 218.747527 
L 350.017898 218.603883 
" clip-path="url(#pbc1752c981)" style="fill: none; stroke: #1f77b4; stroke-width: 1.5"/>
    <path d="M 351.539716 218.641589 
L 351.539716 218.457709 
" clip-path="url(#pbc1752c981)" style="fill: none; stroke: #1f77b4; stroke-width: 1.5"/>
    <path d="M 353.061534 218.573769 
L 353.061534 218.355556 
" clip-path="url(#pbc1752c981)" style="fill: none; stroke: #1f77b4; stroke-width: 1.5"/>
   </g>
  </g>
 </g>
 <defs>
  <clipPath id="pbc1752c981">
   <rect x="34.240625" y="7.2" width="334.8" height="221.76"/>
  </clipPath>
 </defs>
</svg>