<?xml version="1.0" encoding="utf-8" standalone="no"?>
<!DOCTYPE svg PUBLIC "-//W3C//DTD SVG 1.1//EN"
  "http://www.w3.org/Graphics/SVG/1.1/DTD/svg11.dtd">
<svg xmlns:xlink="http://www.w3.org/1999/xlink" width="389.925239pt" height="266.51625pt" viewBox="0 0 389.925239 266.51625" xmlns="http://www.w3.org/2000/svg" version="1.1">
 <metadata>
  <rdf:RDF xmlns:dc="http://purl.org/dc/elements/1.1/" xmlns:cc="http://creativecommons.org/ns#" xmlns:rdf="http://www.w3.org/1999/02/22-rdf-syntax-ns#">
   <cc:Work>
    <dc:type rdf:resource="http://purl.org/dc/dcmitype/StillImage"/>
    <dc:date>2025-04-22T15:34:00.734180</dc:date>
    <dc:format>image/svg+xml</dc:format>
    <dc:creator>
     <cc:Agent>
      <dc:title>Matplotlib v3.10.1, https://matplotlib.org/</dc:title>
     </cc:Agent>
    </dc:creator>
   </cc:Work>
  </rdf:RDF>
 </metadata>
 <defs>
  <style type="text/css">*{stroke-linejoin: round; stroke-linecap: butt}</style>
 </defs>
 <g id="figure_1">
  <g id="patch_1">
   <path d="M 0 266.51625 
L 389.925239 266.51625 
L 389.925239 0 
L 0 0 
z
" style="fill: #ffffff"/>
  </g>
  <g id="axes_1">
   <g id="patch_2">
    <path d="M 45.478125 228.96 
L 380.278125 228.96 
L 380.278125 7.2 
L 45.478125 7.2 
z
" style="fill: #ffffff"/>
   </g>
   <g id="matplotlib.axis_1">
    <g id="xtick_1">
     <g id="line2d_1">
      <defs>
       <path id="m278867d8ff" d="M 0 0 
L 0 3.5 
" style="stroke: #000000; stroke-width: 0.8"/>
      </defs>
      <g>
       <use xlink:href="#m278867d8ff" x="50.982574" y="228.96" style="stroke: #000000; stroke-width: 0.8"/>
      </g>
     </g>
     <g id="text_1">
      <!-- 0.0 -->
      <g transform="translate(43.031011 243.558437) scale(0.1 -0.1)">
       <defs>
        <path id="DejaVuSans-30" d="M 2034 4250 
Q 1547 4250 1301 3770 
Q 1056 3291 1056 2328 
Q 1056 1369 1301 889 
Q 1547 409 2034 409 
Q 2525 409 2770 889 
Q 3016 1369 3016 2328 
Q 3016 3291 2770 3770 
Q 2525 4250 2034 4250 
z
M 2034 4750 
Q 2819 4750 3233 4129 
Q 3647 3509 3647 2328 
Q 3647 1150 3233 529 
Q 2819 -91 2034 -91 
Q 1250 -91 836 529 
Q 422 1150 422 2328 
Q 422 3509 836 4129 
Q 1250 4750 2034 4750 
z
" transform="scale(0.015625)"/>
        <path id="DejaVuSans-2e" d="M 684 794 
L 1344 794 
L 1344 0 
L 684 0 
L 684 794 
z
" transform="scale(0.015625)"/>
       </defs>
       <use xlink:href="#DejaVuSans-30"/>
       <use xlink:href="#DejaVuSans-2e" transform="translate(63.623047 0)"/>
       <use xlink:href="#DejaVuSans-30" transform="translate(95.410156 0)"/>
      </g>
     </g>
    </g>
    <g id="xtick_2">
     <g id="line2d_2">
      <g>
       <use xlink:href="#m278867d8ff" x="115.740794" y="228.96" style="stroke: #000000; stroke-width: 0.8"/>
      </g>
     </g>
     <g id="text_2">
      <!-- 0.1 -->
      <g transform="translate(107.789232 243.558437) scale(0.1 -0.1)">
       <defs>
        <path id="DejaVuSans-31" d="M 794 531 
L 1825 531 
L 1825 4091 
L 703 3866 
L 703 4441 
L 1819 4666 
L 2450 4666 
L 2450 531 
L 3481 531 
L 3481 0 
L 794 0 
L 794 531 
z
" transform="scale(0.015625)"/>
       </defs>
       <use xlink:href="#DejaVuSans-30"/>
       <use xlink:href="#DejaVuSans-2e" transform="translate(63.623047 0)"/>
       <use xlink:href="#DejaVuSans-31" transform="translate(95.410156 0)"/>
      </g>
     </g>
    </g>
    <g id="xtick_3">
     <g id="line2d_3">
      <g>
       <use xlink:href="#m278867d8ff" x="180.499015" y="228.96" style="stroke: #000000; stroke-width: 0.8"/>
      </g>
     </g>
     <g id="text_3">
      <!-- 0.2 -->
      <g transform="translate(172.547452 243.558437) scale(0.1 -0.1)">
       <defs>
        <path id="DejaVuSans-32" d="M 1228 531 
L 3431 531 
L 3431 0 
L 469 0 
L 469 531 
Q 828 903 1448 1529 
Q 2069 2156 2228 2338 
Q 2531 2678 2651 2914 
Q 2772 3150 2772 3378 
Q 2772 3750 2511 3984 
Q 2250 4219 1831 4219 
Q 1534 4219 1204 4116 
Q 875 4013 500 3803 
L 500 4441 
Q 881 4594 1212 4672 
Q 1544 4750 1819 4750 
Q 2544 4750 2975 4387 
Q 3406 4025 3406 3419 
Q 3406 3131 3298 2873 
Q 3191 2616 2906 2266 
Q 2828 2175 2409 1742 
Q 1991 1309 1228 531 
z
" transform="scale(0.015625)"/>
       </defs>
       <use xlink:href="#DejaVuSans-30"/>
       <use xlink:href="#DejaVuSans-2e" transform="translate(63.623047 0)"/>
       <use xlink:href="#DejaVuSans-32" transform="translate(95.410156 0)"/>
      </g>
     </g>
    </g>
    <g id="xtick_4">
     <g id="line2d_4">
      <g>
       <use xlink:href="#m278867d8ff" x="245.257235" y="228.96" style="stroke: #000000; stroke-width: 0.8"/>
      </g>
     </g>
     <g id="text_4">
      <!-- 0.3 -->
      <g transform="translate(237.305673 243.558437) scale(0.1 -0.1)">
       <defs>
        <path id="DejaVuSans-33" d="M 2597 2516 
Q 3050 2419 3304 2112 
Q 3559 1806 3559 1356 
Q 3559 666 3084 287 
Q 2609 -91 1734 -91 
Q 1441 -91 1130 -33 
Q 819 25 488 141 
L 488 750 
Q 750 597 1062 519 
Q 1375 441 1716 441 
Q 2309 441 2620 675 
Q 2931 909 2931 1356 
Q 2931 1769 2642 2001 
Q 2353 2234 1838 2234 
L 1294 2234 
L 1294 2753 
L 1863 2753 
Q 2328 2753 2575 2939 
Q 2822 3125 2822 3475 
Q 2822 3834 2567 4026 
Q 2313 4219 1838 4219 
Q 1578 4219 1281 4162 
Q 984 4106 628 3988 
L 628 4550 
Q 988 4650 1302 4700 
Q 1616 4750 1894 4750 
Q 2613 4750 3031 4423 
Q 3450 4097 3450 3541 
Q 3450 3153 3228 2886 
Q 3006 2619 2597 2516 
z
" transform="scale(0.015625)"/>
       </defs>
       <use xlink:href="#DejaVuSans-30"/>
       <use xlink:href="#DejaVuSans-2e" transform="translate(63.623047 0)"/>
       <use xlink:href="#DejaVuSans-33" transform="translate(95.410156 0)"/>
      </g>
     </g>
    </g>
    <g id="xtick_5">
     <g id="line2d_5">
      <g>
       <use xlink:href="#m278867d8ff" x="310.015456" y="228.96" style="stroke: #000000; stroke-width: 0.8"/>
      </g>
     </g>
     <g id="text_5">
      <!-- 0.4 -->
      <g transform="translate(302.063893 243.558437) scale(0.1 -0.1)">
       <defs>
        <path id="DejaVuSans-34" d="M 2419 4116 
L 825 1625 
L 2419 1625 
L 2419 4116 
z
M 2253 4666 
L 3047 4666 
L 3047 1625 
L 3713 1625 
L 3713 1100 
L 3047 1100 
L 3047 0 
L 2419 0 
L 2419 1100 
L 313 1100 
L 313 1709 
L 2253 4666 
z
" transform="scale(0.015625)"/>
       </defs>
       <use xlink:href="#DejaVuSans-30"/>
       <use xlink:href="#DejaVuSans-2e" transform="translate(63.623047 0)"/>
       <use xlink:href="#DejaVuSans-34" transform="translate(95.410156 0)"/>
      </g>
     </g>
    </g>
    <g id="xtick_6">
     <g id="line2d_6">
      <g>
       <use xlink:href="#m278867d8ff" x="374.773676" y="228.96" style="stroke: #000000; stroke-width: 0.8"/>
      </g>
     </g>
     <g id="text_6">
      <!-- 0.5 -->
      <g transform="translate(366.822114 243.558437) scale(0.1 -0.1)">
       <defs>
        <path id="DejaVuSans-35" d="M 691 4666 
L 3169 4666 
L 3169 4134 
L 1269 4134 
L 1269 2991 
Q 1406 3038 1543 3061 
Q 1681 3084 1819 3084 
Q 2600 3084 3056 2656 
Q 3513 2228 3513 1497 
Q 3513 744 3044 326 
Q 2575 -91 1722 -91 
Q 1428 -91 1123 -41 
Q 819 9 494 109 
L 494 744 
Q 775 591 1075 516 
Q 1375 441 1709 441 
Q 2250 441 2565 725 
Q 2881 1009 2881 1497 
Q 2881 1984 2565 2268 
Q 2250 2553 1709 2553 
Q 1456 2553 1204 2497 
Q 953 2441 691 2322 
L 691 4666 
z
" transform="scale(0.015625)"/>
       </defs>
       <use xlink:href="#DejaVuSans-30"/>
       <use xlink:href="#DejaVuSans-2e" transform="translate(63.623047 0)"/>
       <use xlink:href="#DejaVuSans-35" transform="translate(95.410156 0)"/>
      </g>
     </g>
    </g>
    <g id="text_7">
     <!-- y [m] -->
     <g transform="translate(199.557813 257.236562) scale(0.1 -0.1)">
      <defs>
       <path id="DejaVuSans-79" d="M 2059 -325 
Q 1816 -950 1584 -1140 
Q 1353 -1331 966 -1331 
L 506 -1331 
L 506 -850 
L 844 -850 
Q 1081 -850 1212 -737 
Q 1344 -625 1503 -206 
L 1606 56 
L 191 3500 
L 800 3500 
L 1894 763 
L 2988 3500 
L 3597 3500 
L 2059 -325 
z
" transform="scale(0.015625)"/>
       <path id="DejaVuSans-20" transform="scale(0.015625)"/>
       <path id="DejaVuSans-5b" d="M 550 4863 
L 1875 4863 
L 1875 4416 
L 1125 4416 
L 1125 -397 
L 1875 -397 
L 1875 -844 
L 550 -844 
L 550 4863 
z
" transform="scale(0.015625)"/>
       <path id="DejaVuSans-6d" d="M 3328 2828 
Q 3544 3216 3844 3400 
Q 4144 3584 4550 3584 
Q 5097 3584 5394 3201 
Q 5691 2819 5691 2113 
L 5691 0 
L 5113 0 
L 5113 2094 
Q 5113 2597 4934 2840 
Q 4756 3084 4391 3084 
Q 3944 3084 3684 2787 
Q 3425 2491 3425 1978 
L 3425 0 
L 2847 0 
L 2847 2094 
Q 2847 2600 2669 2842 
Q 2491 3084 2119 3084 
Q 1678 3084 1418 2786 
Q 1159 2488 1159 1978 
L 1159 0 
L 581 0 
L 581 3500 
L 1159 3500 
L 1159 2956 
Q 1356 3278 1631 3431 
Q 1906 3584 2284 3584 
Q 2666 3584 2933 3390 
Q 3200 3197 3328 2828 
z
" transform="scale(0.015625)"/>
       <path id="DejaVuSans-5d" d="M 1947 4863 
L 1947 -844 
L 622 -844 
L 622 -397 
L 1369 -397 
L 1369 4416 
L 622 4416 
L 622 4863 
L 1947 4863 
z
" transform="scale(0.015625)"/>
      </defs>
      <use xlink:href="#DejaVuSans-79"/>
      <use xlink:href="#DejaVuSans-20" transform="translate(59.179688 0)"/>
      <use xlink:href="#DejaVuSans-5b" transform="translate(90.966797 0)"/>
      <use xlink:href="#DejaVuSans-6d" transform="translate(129.980469 0)"/>
      <use xlink:href="#DejaVuSans-5d" transform="translate(227.392578 0)"/>
     </g>
    </g>
   </g>
   <g id="matplotlib.axis_2">
    <g id="ytick_1">
     <g id="line2d_7">
      <defs>
       <path id="me55469991c" d="M 0 0 
L -3.5 0 
" style="stroke: #000000; stroke-width: 0.8"/>
      </defs>
      <g>
       <use xlink:href="#me55469991c" x="45.478125" y="211.085564" style="stroke: #000000; stroke-width: 0.8"/>
      </g>
     </g>
     <g id="text_8">
      <!-- $\mathdefault{10^{1}}$ -->
      <g transform="translate(20.878125 214.884783) scale(0.1 -0.1)">
       <use xlink:href="#DejaVuSans-31" transform="translate(0 0.684375)"/>
       <use xlink:href="#DejaVuSans-30" transform="translate(63.623047 0.684375)"/>
       <use xlink:href="#DejaVuSans-31" transform="translate(128.203125 38.965625) scale(0.7)"/>
      </g>
     </g>
    </g>
    <g id="ytick_2">
     <g id="line2d_8">
      <g>
       <use xlink:href="#me55469991c" x="45.478125" y="136.048763" style="stroke: #000000; stroke-width: 0.8"/>
      </g>
     </g>
     <g id="text_9">
      <!-- $\mathdefault{10^{2}}$ -->
      <g transform="translate(20.878125 139.847981) scale(0.1 -0.1)">
       <use xlink:href="#DejaVuSans-31" transform="translate(0 0.765625)"/>
       <use xlink:href="#DejaVuSans-30" transform="translate(63.623047 0.765625)"/>
       <use xlink:href="#DejaVuSans-32" transform="translate(128.203125 39.046875) scale(0.7)"/>
      </g>
     </g>
    </g>
    <g id="ytick_3">
     <g id="line2d_9">
      <g>
       <use xlink:href="#me55469991c" x="45.478125" y="61.011961" style="stroke: #000000; stroke-width: 0.8"/>
      </g>
     </g>
     <g id="text_10">
      <!-- $\mathdefault{10^{3}}$ -->
      <g transform="translate(20.878125 64.81118) scale(0.1 -0.1)">
       <use xlink:href="#DejaVuSans-31" transform="translate(0 0.765625)"/>
       <use xlink:href="#DejaVuSans-30" transform="translate(63.623047 0.765625)"/>
       <use xlink:href="#DejaVuSans-33" transform="translate(128.203125 39.046875) scale(0.7)"/>
      </g>
     </g>
    </g>
    <g id="ytick_4">
     <g id="line2d_10">
      <defs>
       <path id="m214c753403" d="M 0 0 
L -2 0 
" style="stroke: #000000; stroke-width: 0.6"/>
      </defs>
      <g>
       <use xlink:href="#m214c753403" x="45.478125" y="227.732385" style="stroke: #000000; stroke-width: 0.6"/>
      </g>
     </g>
    </g>
    <g id="ytick_5">
     <g id="line2d_11">
      <g>
       <use xlink:href="#m214c753403" x="45.478125" y="222.708912" style="stroke: #000000; stroke-width: 0.6"/>
      </g>
     </g>
    </g>
    <g id="ytick_6">
     <g id="line2d_12">
      <g>
       <use xlink:href="#m214c753403" x="45.478125" y="218.357382" style="stroke: #000000; stroke-width: 0.6"/>
      </g>
     </g>
    </g>
    <g id="ytick_7">
     <g id="line2d_13">
      <g>
       <use xlink:href="#m214c753403" x="45.478125" y="214.51906" style="stroke: #000000; stroke-width: 0.6"/>
      </g>
     </g>
    </g>
    <g id="ytick_8">
     <g id="line2d_14">
      <g>
       <use xlink:href="#m214c753403" x="45.478125" y="188.497236" style="stroke: #000000; stroke-width: 0.6"/>
      </g>
     </g>
    </g>
    <g id="ytick_9">
     <g id="line2d_15">
      <g>
       <use xlink:href="#m214c753403" x="45.478125" y="175.283911" style="stroke: #000000; stroke-width: 0.6"/>
      </g>
     </g>
    </g>
    <g id="ytick_10">
     <g id="line2d_16">
      <g>
       <use xlink:href="#m214c753403" x="45.478125" y="165.908908" style="stroke: #000000; stroke-width: 0.6"/>
      </g>
     </g>
    </g>
    <g id="ytick_11">
     <g id="line2d_17">
      <g>
       <use xlink:href="#m214c753403" x="45.478125" y="158.637091" style="stroke: #000000; stroke-width: 0.6"/>
      </g>
     </g>
    </g>
    <g id="ytick_12">
     <g id="line2d_18">
      <g>
       <use xlink:href="#m214c753403" x="45.478125" y="152.695583" style="stroke: #000000; stroke-width: 0.6"/>
      </g>
     </g>
    </g>
    <g id="ytick_13">
     <g id="line2d_19">
      <g>
       <use xlink:href="#m214c753403" x="45.478125" y="147.67211" style="stroke: #000000; stroke-width: 0.6"/>
      </g>
     </g>
    </g>
    <g id="ytick_14">
     <g id="line2d_20">
      <g>
       <use xlink:href="#m214c753403" x="45.478125" y="143.32058" style="stroke: #000000; stroke-width: 0.6"/>
      </g>
     </g>
    </g>
    <g id="ytick_15">
     <g id="line2d_21">
      <g>
       <use xlink:href="#m214c753403" x="45.478125" y="139.482258" style="stroke: #000000; stroke-width: 0.6"/>
      </g>
     </g>
    </g>
    <g id="ytick_16">
     <g id="line2d_22">
      <g>
       <use xlink:href="#m214c753403" x="45.478125" y="113.460435" style="stroke: #000000; stroke-width: 0.6"/>
      </g>
     </g>
    </g>
    <g id="ytick_17">
     <g id="line2d_23">
      <g>
       <use xlink:href="#m214c753403" x="45.478125" y="100.24711" style="stroke: #000000; stroke-width: 0.6"/>
      </g>
     </g>
    </g>
    <g id="ytick_18">
     <g id="line2d_24">
      <g>
       <use xlink:href="#m214c753403" x="45.478125" y="90.872106" style="stroke: #000000; stroke-width: 0.6"/>
      </g>
     </g>
    </g>
    <g id="ytick_19">
     <g id="line2d_25">
      <g>
       <use xlink:href="#m214c753403" x="45.478125" y="83.600289" style="stroke: #000000; stroke-width: 0.6"/>
      </g>
     </g>
    </g>
    <g id="ytick_20">
     <g id="line2d_26">
      <g>
       <use xlink:href="#m214c753403" x="45.478125" y="77.658782" style="stroke: #000000; stroke-width: 0.6"/>
      </g>
     </g>
    </g>
    <g id="ytick_21">
     <g id="line2d_27">
      <g>
       <use xlink:href="#m214c753403" x="45.478125" y="72.635309" style="stroke: #000000; stroke-width: 0.6"/>
      </g>
     </g>
    </g>
    <g id="ytick_22">
     <g id="line2d_28">
      <g>
       <use xlink:href="#m214c753403" x="45.478125" y="68.283778" style="stroke: #000000; stroke-width: 0.6"/>
      </g>
     </g>
    </g>
    <g id="ytick_23">
     <g id="line2d_29">
      <g>
       <use xlink:href="#m214c753403" x="45.478125" y="64.445457" style="stroke: #000000; stroke-width: 0.6"/>
      </g>
     </g>
    </g>
    <g id="ytick_24">
     <g id="line2d_30">
      <g>
       <use xlink:href="#m214c753403" x="45.478125" y="38.423633" style="stroke: #000000; stroke-width: 0.6"/>
      </g>
     </g>
    </g>
    <g id="ytick_25">
     <g id="line2d_31">
      <g>
       <use xlink:href="#m214c753403" x="45.478125" y="25.210308" style="stroke: #000000; stroke-width: 0.6"/>
      </g>
     </g>
    </g>
    <g id="ytick_26">
     <g id="line2d_32">
      <g>
       <use xlink:href="#m214c753403" x="45.478125" y="15.835305" style="stroke: #000000; stroke-width: 0.6"/>
      </g>
     </g>
    </g>
    <g id="ytick_27">
     <g id="line2d_33">
      <g>
       <use xlink:href="#m214c753403" x="45.478125" y="8.563487" style="stroke: #000000; stroke-width: 0.6"/>
      </g>
     </g>
    </g>
    <g id="text_11">
     <!-- [counts] -->
     <g transform="translate(14.798438 138.6925) rotate(-90) scale(0.1 -0.1)">
      <defs>
       <path id="DejaVuSans-63" d="M 3122 3366 
L 3122 2828 
Q 2878 2963 2633 3030 
Q 2388 3097 2138 3097 
Q 1578 3097 1268 2742 
Q 959 2388 959 1747 
Q 959 1106 1268 751 
Q 1578 397 2138 397 
Q 2388 397 2633 464 
Q 2878 531 3122 666 
L 3122 134 
Q 2881 22 2623 -34 
Q 2366 -91 2075 -91 
Q 1284 -91 818 406 
Q 353 903 353 1747 
Q 353 2603 823 3093 
Q 1294 3584 2113 3584 
Q 2378 3584 2631 3529 
Q 2884 3475 3122 3366 
z
" transform="scale(0.015625)"/>
       <path id="DejaVuSans-6f" d="M 1959 3097 
Q 1497 3097 1228 2736 
Q 959 2375 959 1747 
Q 959 1119 1226 758 
Q 1494 397 1959 397 
Q 2419 397 2687 759 
Q 2956 1122 2956 1747 
Q 2956 2369 2687 2733 
Q 2419 3097 1959 3097 
z
M 1959 3584 
Q 2709 3584 3137 3096 
Q 3566 2609 3566 1747 
Q 3566 888 3137 398 
Q 2709 -91 1959 -91 
Q 1206 -91 779 398 
Q 353 888 353 1747 
Q 353 2609 779 3096 
Q 1206 3584 1959 3584 
z
" transform="scale(0.015625)"/>
       <path id="DejaVuSans-75" d="M 544 1381 
L 544 3500 
L 1119 3500 
L 1119 1403 
Q 1119 906 1312 657 
Q 1506 409 1894 409 
Q 2359 409 2629 706 
Q 2900 1003 2900 1516 
L 2900 3500 
L 3475 3500 
L 3475 0 
L 2900 0 
L 2900 538 
Q 2691 219 2414 64 
Q 2138 -91 1772 -91 
Q 1169 -91 856 284 
Q 544 659 544 1381 
z
M 1991 3584 
L 1991 3584 
z
" transform="scale(0.015625)"/>
       <path id="DejaVuSans-6e" d="M 3513 2113 
L 3513 0 
L 2938 0 
L 2938 2094 
Q 2938 2591 2744 2837 
Q 2550 3084 2163 3084 
Q 1697 3084 1428 2787 
Q 1159 2491 1159 1978 
L 1159 0 
L 581 0 
L 581 3500 
L 1159 3500 
L 1159 2956 
Q 1366 3272 1645 3428 
Q 1925 3584 2291 3584 
Q 2894 3584 3203 3211 
Q 3513 2838 3513 2113 
z
" transform="scale(0.015625)"/>
       <path id="DejaVuSans-74" d="M 1172 4494 
L 1172 3500 
L 2356 3500 
L 2356 3053 
L 1172 3053 
L 1172 1153 
Q 1172 725 1289 603 
Q 1406 481 1766 481 
L 2356 481 
L 2356 0 
L 1766 0 
Q 1100 0 847 248 
Q 594 497 594 1153 
L 594 3053 
L 172 3053 
L 172 3500 
L 594 3500 
L 594 4494 
L 1172 4494 
z
" transform="scale(0.015625)"/>
       <path id="DejaVuSans-73" d="M 2834 3397 
L 2834 2853 
Q 2591 2978 2328 3040 
Q 2066 3103 1784 3103 
Q 1356 3103 1142 2972 
Q 928 2841 928 2578 
Q 928 2378 1081 2264 
Q 1234 2150 1697 2047 
L 1894 2003 
Q 2506 1872 2764 1633 
Q 3022 1394 3022 966 
Q 3022 478 2636 193 
Q 2250 -91 1575 -91 
Q 1294 -91 989 -36 
Q 684 19 347 128 
L 347 722 
Q 666 556 975 473 
Q 1284 391 1588 391 
Q 1994 391 2212 530 
Q 2431 669 2431 922 
Q 2431 1156 2273 1281 
Q 2116 1406 1581 1522 
L 1381 1569 
Q 847 1681 609 1914 
Q 372 2147 372 2553 
Q 372 3047 722 3315 
Q 1072 3584 1716 3584 
Q 2034 3584 2315 3537 
Q 2597 3491 2834 3397 
z
" transform="scale(0.015625)"/>
      </defs>
      <use xlink:href="#DejaVuSans-5b"/>
      <use xlink:href="#DejaVuSans-63" transform="translate(39.013672 0)"/>
      <use xlink:href="#DejaVuSans-6f" transform="translate(93.994141 0)"/>
      <use xlink:href="#DejaVuSans-75" transform="translate(155.175781 0)"/>
      <use xlink:href="#DejaVuSans-6e" transform="translate(218.554688 0)"/>
      <use xlink:href="#DejaVuSans-74" transform="translate(281.933594 0)"/>
      <use xlink:href="#DejaVuSans-73" transform="translate(321.142578 0)"/>
      <use xlink:href="#DejaVuSans-5d" transform="translate(373.242188 0)"/>
     </g>
    </g>
   </g>
   <g id="patch_3">
    <path d="M 45.478125 228.96 
L 45.478125 7.2 
" style="fill: none; stroke: #000000; stroke-width: 0.8; stroke-linejoin: miter; stroke-linecap: square"/>
   </g>
   <g id="patch_4">
    <path d="M 380.278125 228.96 
L 380.278125 7.2 
" style="fill: none; stroke: #000000; stroke-width: 0.8; stroke-linejoin: miter; stroke-linecap: square"/>
   </g>
   <g id="patch_5">
    <path d="M 45.478125 228.96 
L 380.278125 228.96 
" style="fill: none; stroke: #000000; stroke-width: 0.8; stroke-linejoin: miter; stroke-linecap: square"/>
   </g>
   <g id="patch_6">
    <path d="M 45.478125 7.2 
L 380.278125 7.2 
" style="fill: none; stroke: #000000; stroke-width: 0.8; stroke-linejoin: miter; stroke-linecap: square"/>
   </g>
   <g id="line2d_34">
    <path d="M 60.696307 17.28 
L 62.218125 17.28 
L 62.218125 18.779641 
L 65.261761 18.785661 
L 65.261761 19.820421 
L 66.78358 19.820421 
L 66.78358 21.182334 
L 68.305398 21.182334 
L 68.305398 23.150735 
L 69.827216 23.150735 
L 69.827216 23.570078 
L 71.349034 23.570078 
L 71.349034 24.694929 
L 72.870852 24.694929 
L 72.870852 23.33051 
L 74.39267 23.33051 
L 74.39267 25.498272 
L 75.914489 25.498272 
L 75.914489 27.775064 
L 77.436307 27.775064 
L 77.436307 28.150514 
L 78.958125 28.150514 
L 78.958125 28.486074 
L 80.479943 28.486074 
L 80.479943 32.193525 
L 82.001761 32.193525 
L 82.001761 34.528508 
L 83.52358 34.528508 
L 83.52358 36.753349 
L 85.045398 36.753349 
L 85.045398 40.188356 
L 86.567216 40.188356 
L 86.567216 39.020286 
L 88.089034 39.020286 
L 88.089034 40.738358 
L 89.610852 40.738358 
L 89.610852 42.677587 
L 91.13267 42.677587 
L 91.13267 45.279236 
L 92.654489 45.279236 
L 92.654489 47.992895 
L 94.176307 47.992895 
L 94.176307 52.120787 
L 95.698125 52.120787 
L 95.698125 56.84767 
L 97.219943 56.84767 
L 97.219943 64.57704 
L 98.741761 64.57704 
L 98.741761 71.032418 
L 100.26358 71.032418 
L 100.26358 79.859929 
L 101.785398 79.859929 
L 101.785398 96.905465 
L 103.307216 96.905465 
L 103.307216 108.029812 
L 104.829034 108.029812 
L 104.829034 130.16709 
L 106.350852 130.16709 
L 106.350852 153.950152 
L 107.87267 153.950152 
L 107.87267 143.122368 
L 109.394489 143.122368 
L 109.394489 124.921343 
L 110.916307 124.921343 
L 110.916307 108.419385 
L 112.438125 108.419385 
L 112.438125 113.333391 
L 113.959943 113.333391 
L 113.959943 102.657779 
L 115.481761 102.657779 
L 115.481761 107.855333 
L 117.00358 107.855333 
L 117.00358 104.85767 
L 118.525398 104.85767 
L 118.525398 103.307635 
L 120.047216 103.307635 
L 120.047216 107.34504 
L 121.569034 107.34504 
L 121.569034 117.91209 
L 123.090852 117.91209 
L 123.090852 128.940157 
L 124.61267 128.940157 
L 124.61267 125.642254 
L 126.134489 125.642254 
L 126.134489 137.418729 
L 127.656307 137.418729 
L 127.656307 138.405551 
L 129.178125 138.405551 
L 129.178125 145.146589 
L 130.699943 145.146589 
L 130.699943 157.583489 
L 132.221761 157.583489 
L 132.221761 145.745533 
L 133.74358 145.745533 
L 133.74358 160.41798 
L 135.265398 160.41798 
L 135.265398 164.272947 
L 136.787216 164.272947 
L 136.787216 170.303969 
L 138.309034 170.303969 
L 138.309034 176.761353 
L 139.830852 176.761353 
L 139.830852 187.653949 
L 141.35267 187.653949 
L 141.35267 180.652616 
L 142.874489 180.652616 
L 142.874489 181.693105 
L 144.396307 181.693105 
L 144.396307 187.169703 
L 145.918125 187.169703 
L 145.918125 177.70151 
L 147.439943 177.70151 
L 147.439943 187.662967 
L 148.961761 187.662967 
L 148.961761 174.217816 
L 150.48358 174.217816 
L 150.48358 175.895716 
L 152.005398 175.895716 
L 152.005398 175.112759 
L 153.527216 175.112759 
L 153.527216 171.975243 
L 155.049034 171.975243 
L 155.049034 165.457151 
L 156.570852 165.457151 
L 156.570852 175.118599 
L 158.09267 175.118599 
L 158.09267 172.957553 
L 159.614489 172.957553 
L 159.614489 177.602122 
L 161.136307 177.602122 
L 161.136307 167.531426 
L 162.658125 167.531426 
L 162.658125 167.125195 
L 164.179943 167.125195 
L 164.179943 165.015138 
L 165.701761 165.015138 
L 165.701761 170.571019 
L 167.22358 170.571019 
L 167.22358 168.014624 
L 168.745398 168.014624 
L 168.745398 167.901429 
L 170.267216 167.901429 
L 170.267216 157.942789 
L 171.789034 157.942789 
L 171.789034 168.383656 
L 173.310852 168.383656 
L 173.310852 171.002291 
L 174.83267 171.002291 
L 174.83267 176.51417 
L 176.354489 176.51417 
L 176.354489 174.195657 
L 177.876307 174.195657 
L 177.876307 167.544701 
L 179.398125 167.544701 
L 179.398125 175.581105 
L 180.919943 175.581105 
L 180.919943 178.421008 
L 182.441761 178.421008 
L 182.441761 174.372723 
L 183.96358 174.372723 
L 183.96358 178.074756 
L 185.485398 178.074756 
L 185.485398 181.216026 
L 187.007216 181.216026 
L 187.007216 180.899913 
L 188.529034 180.899913 
L 188.529034 174.200234 
L 190.050852 174.200234 
L 190.050852 190.724321 
L 191.57267 190.724321 
L 191.57267 186.552836 
L 193.094489 186.552836 
L 193.094489 188.15783 
L 194.616307 188.15783 
L 194.616307 186.827931 
L 196.138125 186.827931 
L 196.138125 184.880474 
L 197.659943 184.880474 
L 197.659943 188.093824 
L 199.181761 188.093824 
L 199.181761 194.158487 
L 200.70358 194.158487 
L 200.70358 191.938673 
L 202.225398 191.938673 
L 202.225398 195.97354 
L 203.747216 195.97354 
L 203.747216 200.935728 
L 205.269034 200.935728 
L 205.269034 195.2436 
L 206.790852 195.2436 
L 206.790852 195.972087 
L 208.31267 195.972087 
L 208.31267 193.516322 
L 211.356307 193.42991 
L 211.356307 198.315814 
L 212.878125 198.315814 
L 212.878125 199.777863 
L 214.399943 199.777863 
L 214.399943 205.725575 
L 215.921761 205.725575 
L 215.921761 193.486874 
L 217.44358 193.486874 
L 217.44358 191.875765 
L 218.965398 191.875765 
L 218.965398 193.339717 
L 220.487216 193.339717 
L 220.487216 201.692029 
L 222.009034 201.692029 
L 222.009034 203.786928 
L 223.530852 203.786928 
L 223.530852 199.689052 
L 225.05267 199.689052 
L 225.05267 196.27315 
L 226.574489 196.27315 
L 226.574489 190.63856 
L 228.096307 190.63856 
L 228.096307 187.259292 
L 229.618125 187.259292 
L 229.618125 190.724156 
L 231.139943 190.724156 
L 231.139943 198.120024 
L 232.661761 198.120024 
L 232.661761 193.867693 
L 234.18358 193.867693 
L 234.18358 183.327294 
L 235.705398 183.327294 
L 235.705398 188.871727 
L 237.227216 188.871727 
L 237.227216 193.581882 
L 240.270852 193.516366 
L 240.270852 206.342997 
L 241.79267 206.342997 
L 241.79267 192.466085 
L 243.314489 192.466085 
L 243.314489 185.729164 
L 244.836307 185.729164 
L 244.836307 190.43864 
L 246.358125 190.43864 
L 246.358125 185.402329 
L 247.879943 185.402329 
L 247.879943 189.080413 
L 249.401761 189.080413 
L 249.401761 190.24221 
L 250.92358 190.24221 
L 250.92358 197.059549 
L 252.445398 197.059549 
L 252.445398 185.666935 
L 253.967216 185.666935 
L 253.967216 190.152714 
L 255.489034 190.152714 
L 255.489034 207.120759 
L 257.010852 207.120759 
L 257.010852 192.613345 
L 258.53267 192.613345 
L 258.53267 210.836233 
L 260.054489 210.836233 
L 260.054489 202.002864 
L 261.576307 202.002864 
L 261.576307 199.141407 
L 263.098125 199.141407 
L 263.098125 202.833385 
L 264.619943 202.833385 
L 264.619943 209.997091 
L 266.141761 209.997091 
L 266.141761 204.322247 
L 267.66358 204.322247 
L 267.66358 198.665287 
L 269.185398 198.665287 
L 269.185398 193.414931 
L 270.707216 193.414931 
L 270.707216 192.235338 
L 272.229034 192.235338 
L 272.229034 209.601306 
L 273.750852 209.601306 
L 273.750852 201.806084 
L 275.27267 201.806084 
L 275.27267 193.979583 
L 276.794489 193.979583 
L 276.794489 205.909633 
L 278.316307 205.909633 
L 278.316307 209.08406 
L 279.838125 209.08406 
L 279.838125 199.675989 
L 281.359943 199.675989 
L 281.359943 193.841446 
L 282.881761 193.841446 
L 282.881761 195.101273 
L 284.40358 195.101273 
L 284.40358 204.731342 
L 285.925398 204.731342 
L 285.925398 195.939721 
L 287.447216 195.939721 
L 287.447216 197.629754 
L 288.969034 197.629754 
L 288.969034 190.274438 
L 290.490852 190.274438 
L 290.490852 193.551292 
L 292.01267 193.551292 
L 292.01267 200.076914 
L 293.534489 200.076914 
L 293.534489 197.252922 
L 295.056307 197.252922 
L 295.056307 207.422301 
L 296.578125 207.422301 
L 296.578125 198.608171 
L 298.099943 198.608171 
L 298.099943 209.801059 
L 299.621761 209.801059 
L 299.621761 198.6779 
L 301.14358 198.6779 
L 301.14358 203.262522 
L 302.665398 203.262522 
L 302.665398 200.207872 
L 304.187216 200.207872 
L 304.187216 199.851348 
L 305.709034 199.851348 
L 305.709034 194.021846 
L 307.230852 194.021846 
L 307.230852 204.304844 
L 308.75267 204.304844 
L 308.75267 211.672603 
L 310.274489 211.672603 
L 310.274489 199.314292 
L 311.796307 199.314292 
L 311.796307 201.601976 
L 313.318125 201.601976 
L 313.318125 195.329892 
L 314.839943 195.329892 
L 314.839943 202.840925 
L 316.361761 202.840925 
L 316.361761 203.130396 
L 317.88358 203.130396 
L 317.88358 197.482057 
L 319.405398 197.482057 
L 319.405398 197.274124 
L 320.927216 197.274124 
L 320.927216 214.696758 
L 322.449034 214.696758 
L 322.449034 211.706893 
L 323.970852 211.706893 
L 323.970852 194.411541 
L 325.49267 194.411541 
L 325.49267 200.61364 
L 327.014489 200.61364 
L 327.014489 206.142809 
L 328.536307 206.142809 
L 328.536307 204.584527 
L 330.058125 204.584527 
L 330.058125 200.866198 
L 331.579943 200.866198 
L 331.579943 194.667109 
L 333.101761 194.667109 
L 333.101761 200.174699 
L 334.62358 200.174699 
L 334.62358 197.553467 
L 336.145398 197.553467 
L 336.145398 218.88 
L 337.667216 218.88 
L 337.667216 204.419114 
L 339.189034 204.419114 
L 339.189034 197.774883 
L 340.710852 197.774883 
L 340.710852 208.436594 
L 342.23267 208.436594 
L 342.23267 203.026178 
L 343.754489 203.026178 
L 343.754489 210.169111 
L 345.276307 210.169111 
L 345.276307 194.941604 
L 346.798125 194.941604 
L 346.798125 197.518861 
L 348.319943 197.518861 
L 348.319943 197.071928 
L 349.841761 197.071928 
L 349.841761 214.525742 
L 351.36358 214.525742 
L 351.36358 204.46193 
L 352.885398 204.46193 
L 352.885398 214.931241 
L 354.407216 214.931241 
L 354.407216 201.167047 
L 355.929034 201.167047 
L 355.929034 214.451044 
L 357.450852 214.451044 
L 357.450852 197.985996 
L 358.97267 197.985996 
L 358.97267 210.590011 
L 360.494489 210.590011 
L 360.494489 194.486107 
L 362.016307 194.486107 
L 362.016307 202.412827 
L 363.538125 202.412827 
L 363.538125 203.335792 
L 365.059943 203.335792 
L 365.059943 203.335792 
" clip-path="url(#pbe87158d83)" style="fill: none; stroke: #1f77b4; stroke-width: 1.5; stroke-linecap: square"/>
   </g>
  </g>
 </g>
 <defs>
  <clipPath id="pbe87158d83">
   <rect x="45.478125" y="7.2" width="334.8" height="221.76"/>
  </clipPath>
 </defs>
</svg>