<?xml version="1.0" encoding="utf-8" standalone="no"?>
<!DOCTYPE svg PUBLIC "-//W3C//DTD SVG 1.1//EN"
  "http://www.w3.org/Graphics/SVG/1.1/DTD/svg11.dtd">
<svg xmlns:xlink="http://www.w3.org/1999/xlink" width="423.8785pt" height="280.132187pt" viewBox="0 0 423.8785 280.132187" xmlns="http://www.w3.org/2000/svg" version="1.1">
 <metadata>
  <rdf:RDF xmlns:dc="http://purl.org/dc/elements/1.1/" xmlns:cc="http://creativecommons.org/ns#" xmlns:rdf="http://www.w3.org/1999/02/22-rdf-syntax-ns#">
   <cc:Work>
    <dc:type rdf:resource="http://purl.org/dc/dcmitype/StillImage"/>
    <dc:date>2024-08-01T15:38:52.597905</dc:date>
    <dc:format>image/svg+xml</dc:format>
    <dc:creator>
     <cc:Agent>
      <dc:title>Matplotlib v3.9.1, https://matplotlib.org/</dc:title>
     </cc:Agent>
    </dc:creator>
   </cc:Work>
  </rdf:RDF>
 </metadata>
 <defs>
  <style type="text/css">*{stroke-linejoin: round; stroke-linecap: butt}</style>
 </defs>
 <g id="figure_1">
  <g id="patch_1">
   <path d="M 0 280.132187 
L 423.8785 280.132187 
L 423.8785 0 
L 0 0 
z
" style="fill: #ffffff"/>
  </g>
  <g id="axes_1">
   <g id="patch_2">
    <path d="M 45.478125 241.6525 
L 403.085725 241.6525 
L 403.085725 7.2 
L 45.478125 7.2 
z
" style="fill: #ffffff"/>
   </g>
   <g id="matplotlib.axis_1">
    <g id="xtick_1">
     <g id="line2d_1">
      <defs>
       <path id="m1783ff0546" d="M 0 0 
L 0 3.5 
" style="stroke: #000000; stroke-width: 0.8"/>
      </defs>
      <g>
       <use xlink:href="#m1783ff0546" x="53.85888" y="241.6525" style="stroke: #000000; stroke-width: 0.8"/>
      </g>
     </g>
     <g id="text_1">
      <!-- 0.000 -->
      <g transform="translate(39.544818 256.250937) scale(0.1 -0.1)">
       <defs>
        <path id="DejaVuSans-30" d="M 2034 4250 
Q 1547 4250 1301 3770 
Q 1056 3291 1056 2328 
Q 1056 1369 1301 889 
Q 1547 409 2034 409 
Q 2525 409 2770 889 
Q 3016 1369 3016 2328 
Q 3016 3291 2770 3770 
Q 2525 4250 2034 4250 
z
M 2034 4750 
Q 2819 4750 3233 4129 
Q 3647 3509 3647 2328 
Q 3647 1150 3233 529 
Q 2819 -91 2034 -91 
Q 1250 -91 836 529 
Q 422 1150 422 2328 
Q 422 3509 836 4129 
Q 1250 4750 2034 4750 
z
" transform="scale(0.015625)"/>
        <path id="DejaVuSans-2e" d="M 684 794 
L 1344 794 
L 1344 0 
L 684 0 
L 684 794 
z
" transform="scale(0.015625)"/>
       </defs>
       <use xlink:href="#DejaVuSans-30"/>
       <use xlink:href="#DejaVuSans-2e" x="63.623047"/>
       <use xlink:href="#DejaVuSans-30" x="95.410156"/>
       <use xlink:href="#DejaVuSans-30" x="159.033203"/>
       <use xlink:href="#DejaVuSans-30" x="222.65625"/>
      </g>
     </g>
    </g>
    <g id="xtick_2">
     <g id="line2d_2">
      <g>
       <use xlink:href="#m1783ff0546" x="97.422075" y="241.6525" style="stroke: #000000; stroke-width: 0.8"/>
      </g>
     </g>
     <g id="text_2">
      <!-- 0.025 -->
      <g transform="translate(83.108013 256.250937) scale(0.1 -0.1)">
       <defs>
        <path id="DejaVuSans-32" d="M 1228 531 
L 3431 531 
L 3431 0 
L 469 0 
L 469 531 
Q 828 903 1448 1529 
Q 2069 2156 2228 2338 
Q 2531 2678 2651 2914 
Q 2772 3150 2772 3378 
Q 2772 3750 2511 3984 
Q 2250 4219 1831 4219 
Q 1534 4219 1204 4116 
Q 875 4013 500 3803 
L 500 4441 
Q 881 4594 1212 4672 
Q 1544 4750 1819 4750 
Q 2544 4750 2975 4387 
Q 3406 4025 3406 3419 
Q 3406 3131 3298 2873 
Q 3191 2616 2906 2266 
Q 2828 2175 2409 1742 
Q 1991 1309 1228 531 
z
" transform="scale(0.015625)"/>
        <path id="DejaVuSans-35" d="M 691 4666 
L 3169 4666 
L 3169 4134 
L 1269 4134 
L 1269 2991 
Q 1406 3038 1543 3061 
Q 1681 3084 1819 3084 
Q 2600 3084 3056 2656 
Q 3513 2228 3513 1497 
Q 3513 744 3044 326 
Q 2575 -91 1722 -91 
Q 1428 -91 1123 -41 
Q 819 9 494 109 
L 494 744 
Q 775 591 1075 516 
Q 1375 441 1709 441 
Q 2250 441 2565 725 
Q 2881 1009 2881 1497 
Q 2881 1984 2565 2268 
Q 2250 2553 1709 2553 
Q 1456 2553 1204 2497 
Q 953 2441 691 2322 
L 691 4666 
z
" transform="scale(0.015625)"/>
       </defs>
       <use xlink:href="#DejaVuSans-30"/>
       <use xlink:href="#DejaVuSans-2e" x="63.623047"/>
       <use xlink:href="#DejaVuSans-30" x="95.410156"/>
       <use xlink:href="#DejaVuSans-32" x="159.033203"/>
       <use xlink:href="#DejaVuSans-35" x="222.65625"/>
      </g>
     </g>
    </g>
    <g id="xtick_3">
     <g id="line2d_3">
      <g>
       <use xlink:href="#m1783ff0546" x="140.98527" y="241.6525" style="stroke: #000000; stroke-width: 0.8"/>
      </g>
     </g>
     <g id="text_3">
      <!-- 0.050 -->
      <g transform="translate(126.671207 256.250937) scale(0.1 -0.1)">
       <use xlink:href="#DejaVuSans-30"/>
       <use xlink:href="#DejaVuSans-2e" x="63.623047"/>
       <use xlink:href="#DejaVuSans-30" x="95.410156"/>
       <use xlink:href="#DejaVuSans-35" x="159.033203"/>
       <use xlink:href="#DejaVuSans-30" x="222.65625"/>
      </g>
     </g>
    </g>
    <g id="xtick_4">
     <g id="line2d_4">
      <g>
       <use xlink:href="#m1783ff0546" x="184.548464" y="241.6525" style="stroke: #000000; stroke-width: 0.8"/>
      </g>
     </g>
     <g id="text_4">
      <!-- 0.075 -->
      <g transform="translate(170.234402 256.250937) scale(0.1 -0.1)">
       <defs>
        <path id="DejaVuSans-37" d="M 525 4666 
L 3525 4666 
L 3525 4397 
L 1831 0 
L 1172 0 
L 2766 4134 
L 525 4134 
L 525 4666 
z
" transform="scale(0.015625)"/>
       </defs>
       <use xlink:href="#DejaVuSans-30"/>
       <use xlink:href="#DejaVuSans-2e" x="63.623047"/>
       <use xlink:href="#DejaVuSans-30" x="95.410156"/>
       <use xlink:href="#DejaVuSans-37" x="159.033203"/>
       <use xlink:href="#DejaVuSans-35" x="222.65625"/>
      </g>
     </g>
    </g>
    <g id="xtick_5">
     <g id="line2d_5">
      <g>
       <use xlink:href="#m1783ff0546" x="228.111659" y="241.6525" style="stroke: #000000; stroke-width: 0.8"/>
      </g>
     </g>
     <g id="text_5">
      <!-- 0.100 -->
      <g transform="translate(213.797597 256.250937) scale(0.1 -0.1)">
       <defs>
        <path id="DejaVuSans-31" d="M 794 531 
L 1825 531 
L 1825 4091 
L 703 3866 
L 703 4441 
L 1819 4666 
L 2450 4666 
L 2450 531 
L 3481 531 
L 3481 0 
L 794 0 
L 794 531 
z
" transform="scale(0.015625)"/>
       </defs>
       <use xlink:href="#DejaVuSans-30"/>
       <use xlink:href="#DejaVuSans-2e" x="63.623047"/>
       <use xlink:href="#DejaVuSans-31" x="95.410156"/>
       <use xlink:href="#DejaVuSans-30" x="159.033203"/>
       <use xlink:href="#DejaVuSans-30" x="222.65625"/>
      </g>
     </g>
    </g>
    <g id="xtick_6">
     <g id="line2d_6">
      <g>
       <use xlink:href="#m1783ff0546" x="271.674854" y="241.6525" style="stroke: #000000; stroke-width: 0.8"/>
      </g>
     </g>
     <g id="text_6">
      <!-- 0.125 -->
      <g transform="translate(257.360791 256.250937) scale(0.1 -0.1)">
       <use xlink:href="#DejaVuSans-30"/>
       <use xlink:href="#DejaVuSans-2e" x="63.623047"/>
       <use xlink:href="#DejaVuSans-31" x="95.410156"/>
       <use xlink:href="#DejaVuSans-32" x="159.033203"/>
       <use xlink:href="#DejaVuSans-35" x="222.65625"/>
      </g>
     </g>
    </g>
    <g id="xtick_7">
     <g id="line2d_7">
      <g>
       <use xlink:href="#m1783ff0546" x="315.238048" y="241.6525" style="stroke: #000000; stroke-width: 0.8"/>
      </g>
     </g>
     <g id="text_7">
      <!-- 0.150 -->
      <g transform="translate(300.923986 256.250937) scale(0.1 -0.1)">
       <use xlink:href="#DejaVuSans-30"/>
       <use xlink:href="#DejaVuSans-2e" x="63.623047"/>
       <use xlink:href="#DejaVuSans-31" x="95.410156"/>
       <use xlink:href="#DejaVuSans-35" x="159.033203"/>
       <use xlink:href="#DejaVuSans-30" x="222.65625"/>
      </g>
     </g>
    </g>
    <g id="xtick_8">
     <g id="line2d_8">
      <g>
       <use xlink:href="#m1783ff0546" x="358.801243" y="241.6525" style="stroke: #000000; stroke-width: 0.8"/>
      </g>
     </g>
     <g id="text_8">
      <!-- 0.175 -->
      <g transform="translate(344.487181 256.250937) scale(0.1 -0.1)">
       <use xlink:href="#DejaVuSans-30"/>
       <use xlink:href="#DejaVuSans-2e" x="63.623047"/>
       <use xlink:href="#DejaVuSans-31" x="95.410156"/>
       <use xlink:href="#DejaVuSans-37" x="159.033203"/>
       <use xlink:href="#DejaVuSans-35" x="222.65625"/>
      </g>
     </g>
    </g>
    <g id="xtick_9">
     <g id="line2d_9">
      <g>
       <use xlink:href="#m1783ff0546" x="402.364438" y="241.6525" style="stroke: #000000; stroke-width: 0.8"/>
      </g>
     </g>
     <g id="text_9">
      <!-- 0.200 -->
      <g transform="translate(388.050375 256.250937) scale(0.1 -0.1)">
       <use xlink:href="#DejaVuSans-30"/>
       <use xlink:href="#DejaVuSans-2e" x="63.623047"/>
       <use xlink:href="#DejaVuSans-32" x="95.410156"/>
       <use xlink:href="#DejaVuSans-30" x="159.033203"/>
       <use xlink:href="#DejaVuSans-30" x="222.65625"/>
      </g>
     </g>
    </g>
    <g id="text_10">
     <!-- Q [1/Å] -->
     <g transform="translate(206.569425 270.8525) scale(0.1 -0.1)">
      <defs>
       <path id="DejaVuSans-51" d="M 2522 4238 
Q 1834 4238 1429 3725 
Q 1025 3213 1025 2328 
Q 1025 1447 1429 934 
Q 1834 422 2522 422 
Q 3209 422 3611 934 
Q 4013 1447 4013 2328 
Q 4013 3213 3611 3725 
Q 3209 4238 2522 4238 
z
M 3406 84 
L 4238 -825 
L 3475 -825 
L 2784 -78 
Q 2681 -84 2626 -87 
Q 2572 -91 2522 -91 
Q 1538 -91 948 567 
Q 359 1225 359 2328 
Q 359 3434 948 4092 
Q 1538 4750 2522 4750 
Q 3503 4750 4090 4092 
Q 4678 3434 4678 2328 
Q 4678 1516 4351 937 
Q 4025 359 3406 84 
z
" transform="scale(0.015625)"/>
       <path id="DejaVuSans-20" transform="scale(0.015625)"/>
       <path id="DejaVuSans-5b" d="M 550 4863 
L 1875 4863 
L 1875 4416 
L 1125 4416 
L 1125 -397 
L 1875 -397 
L 1875 -844 
L 550 -844 
L 550 4863 
z
" transform="scale(0.015625)"/>
       <path id="DejaVuSans-2f" d="M 1625 4666 
L 2156 4666 
L 531 -594 
L 0 -594 
L 1625 4666 
z
" transform="scale(0.015625)"/>
       <path id="DejaVuSans-c5" d="M 2663 5081 
Q 2663 5278 2523 5417 
Q 2384 5556 2188 5556 
Q 1988 5556 1852 5420 
Q 1716 5284 1716 5081 
Q 1716 4884 1853 4746 
Q 1991 4609 2188 4609 
Q 2384 4609 2523 4746 
Q 2663 4884 2663 5081 
z
M 2188 4044 
L 1338 1722 
L 3041 1722 
L 2188 4044 
z
M 1716 4366 
Q 1525 4494 1428 4673 
Q 1331 4853 1331 5081 
Q 1331 5441 1579 5691 
Q 1828 5941 2188 5941 
Q 2544 5941 2795 5689 
Q 3047 5438 3047 5081 
Q 3047 4863 2948 4678 
Q 2850 4494 2663 4366 
L 4325 0 
L 3669 0 
L 3244 1197 
L 1141 1197 
L 716 0 
L 50 0 
L 1716 4366 
z
" transform="scale(0.015625)"/>
       <path id="DejaVuSans-5d" d="M 1947 4863 
L 1947 -844 
L 622 -844 
L 622 -397 
L 1369 -397 
L 1369 4416 
L 622 4416 
L 622 4863 
L 1947 4863 
z
" transform="scale(0.015625)"/>
      </defs>
      <use xlink:href="#DejaVuSans-51"/>
      <use xlink:href="#DejaVuSans-20" x="78.710938"/>
      <use xlink:href="#DejaVuSans-5b" x="110.498047"/>
      <use xlink:href="#DejaVuSans-31" x="149.511719"/>
      <use xlink:href="#DejaVuSans-2f" x="213.134766"/>
      <use xlink:href="#DejaVuSans-c5" x="246.826172"/>
      <use xlink:href="#DejaVuSans-5d" x="315.234375"/>
     </g>
    </g>
   </g>
   <g id="matplotlib.axis_2">
    <g id="ytick_1">
     <g id="line2d_10">
      <defs>
       <path id="m6092bcc675" d="M 0 0 
L -3.5 0 
" style="stroke: #000000; stroke-width: 0.8"/>
      </defs>
      <g>
       <use xlink:href="#m6092bcc675" x="45.478125" y="241.6525" style="stroke: #000000; stroke-width: 0.8"/>
      </g>
     </g>
     <g id="text_11">
      <!-- $\mathdefault{10^{0}}$ -->
      <g transform="translate(20.878125 245.451719) scale(0.1 -0.1)">
       <use xlink:href="#DejaVuSans-31" transform="translate(0 0.765625)"/>
       <use xlink:href="#DejaVuSans-30" transform="translate(63.623047 0.765625)"/>
       <use xlink:href="#DejaVuSans-30" transform="translate(128.203125 39.046875) scale(0.7)"/>
      </g>
     </g>
    </g>
    <g id="ytick_2">
     <g id="line2d_11">
      <g>
       <use xlink:href="#m6092bcc675" x="45.478125" y="181.084198" style="stroke: #000000; stroke-width: 0.8"/>
      </g>
     </g>
     <g id="text_12">
      <!-- $\mathdefault{10^{1}}$ -->
      <g transform="translate(20.878125 184.883417) scale(0.1 -0.1)">
       <use xlink:href="#DejaVuSans-31" transform="translate(0 0.684375)"/>
       <use xlink:href="#DejaVuSans-30" transform="translate(63.623047 0.684375)"/>
       <use xlink:href="#DejaVuSans-31" transform="translate(128.203125 38.965625) scale(0.7)"/>
      </g>
     </g>
    </g>
    <g id="ytick_3">
     <g id="line2d_12">
      <g>
       <use xlink:href="#m6092bcc675" x="45.478125" y="120.515897" style="stroke: #000000; stroke-width: 0.8"/>
      </g>
     </g>
     <g id="text_13">
      <!-- $\mathdefault{10^{2}}$ -->
      <g transform="translate(20.878125 124.315115) scale(0.1 -0.1)">
       <use xlink:href="#DejaVuSans-31" transform="translate(0 0.765625)"/>
       <use xlink:href="#DejaVuSans-30" transform="translate(63.623047 0.765625)"/>
       <use xlink:href="#DejaVuSans-32" transform="translate(128.203125 39.046875) scale(0.7)"/>
      </g>
     </g>
    </g>
    <g id="ytick_4">
     <g id="line2d_13">
      <g>
       <use xlink:href="#m6092bcc675" x="45.478125" y="59.947595" style="stroke: #000000; stroke-width: 0.8"/>
      </g>
     </g>
     <g id="text_14">
      <!-- $\mathdefault{10^{3}}$ -->
      <g transform="translate(20.878125 63.746814) scale(0.1 -0.1)">
       <defs>
        <path id="DejaVuSans-33" d="M 2597 2516 
Q 3050 2419 3304 2112 
Q 3559 1806 3559 1356 
Q 3559 666 3084 287 
Q 2609 -91 1734 -91 
Q 1441 -91 1130 -33 
Q 819 25 488 141 
L 488 750 
Q 750 597 1062 519 
Q 1375 441 1716 441 
Q 2309 441 2620 675 
Q 2931 909 2931 1356 
Q 2931 1769 2642 2001 
Q 2353 2234 1838 2234 
L 1294 2234 
L 1294 2753 
L 1863 2753 
Q 2328 2753 2575 2939 
Q 2822 3125 2822 3475 
Q 2822 3834 2567 4026 
Q 2313 4219 1838 4219 
Q 1578 4219 1281 4162 
Q 984 4106 628 3988 
L 628 4550 
Q 988 4650 1302 4700 
Q 1616 4750 1894 4750 
Q 2613 4750 3031 4423 
Q 3450 4097 3450 3541 
Q 3450 3153 3228 2886 
Q 3006 2619 2597 2516 
z
" transform="scale(0.015625)"/>
       </defs>
       <use xlink:href="#DejaVuSans-31" transform="translate(0 0.765625)"/>
       <use xlink:href="#DejaVuSans-30" transform="translate(63.623047 0.765625)"/>
       <use xlink:href="#DejaVuSans-33" transform="translate(128.203125 39.046875) scale(0.7)"/>
      </g>
     </g>
    </g>
    <g id="ytick_5">
     <g id="line2d_14">
      <defs>
       <path id="ma645eae39d" d="M 0 0 
L -2 0 
" style="stroke: #000000; stroke-width: 0.6"/>
      </defs>
      <g>
       <use xlink:href="#ma645eae39d" x="45.478125" y="223.419624" style="stroke: #000000; stroke-width: 0.6"/>
      </g>
     </g>
    </g>
    <g id="ytick_6">
     <g id="line2d_15">
      <g>
       <use xlink:href="#ma645eae39d" x="45.478125" y="212.754076" style="stroke: #000000; stroke-width: 0.6"/>
      </g>
     </g>
    </g>
    <g id="ytick_7">
     <g id="line2d_16">
      <g>
       <use xlink:href="#ma645eae39d" x="45.478125" y="205.186749" style="stroke: #000000; stroke-width: 0.6"/>
      </g>
     </g>
    </g>
    <g id="ytick_8">
     <g id="line2d_17">
      <g>
       <use xlink:href="#ma645eae39d" x="45.478125" y="199.317074" style="stroke: #000000; stroke-width: 0.6"/>
      </g>
     </g>
    </g>
    <g id="ytick_9">
     <g id="line2d_18">
      <g>
       <use xlink:href="#ma645eae39d" x="45.478125" y="194.5212" style="stroke: #000000; stroke-width: 0.6"/>
      </g>
     </g>
    </g>
    <g id="ytick_10">
     <g id="line2d_19">
      <g>
       <use xlink:href="#ma645eae39d" x="45.478125" y="190.466347" style="stroke: #000000; stroke-width: 0.6"/>
      </g>
     </g>
    </g>
    <g id="ytick_11">
     <g id="line2d_20">
      <g>
       <use xlink:href="#ma645eae39d" x="45.478125" y="186.953873" style="stroke: #000000; stroke-width: 0.6"/>
      </g>
     </g>
    </g>
    <g id="ytick_12">
     <g id="line2d_21">
      <g>
       <use xlink:href="#ma645eae39d" x="45.478125" y="183.855652" style="stroke: #000000; stroke-width: 0.6"/>
      </g>
     </g>
    </g>
    <g id="ytick_13">
     <g id="line2d_22">
      <g>
       <use xlink:href="#ma645eae39d" x="45.478125" y="162.851323" style="stroke: #000000; stroke-width: 0.6"/>
      </g>
     </g>
    </g>
    <g id="ytick_14">
     <g id="line2d_23">
      <g>
       <use xlink:href="#ma645eae39d" x="45.478125" y="152.185774" style="stroke: #000000; stroke-width: 0.6"/>
      </g>
     </g>
    </g>
    <g id="ytick_15">
     <g id="line2d_24">
      <g>
       <use xlink:href="#ma645eae39d" x="45.478125" y="144.618447" style="stroke: #000000; stroke-width: 0.6"/>
      </g>
     </g>
    </g>
    <g id="ytick_16">
     <g id="line2d_25">
      <g>
       <use xlink:href="#ma645eae39d" x="45.478125" y="138.748772" style="stroke: #000000; stroke-width: 0.6"/>
      </g>
     </g>
    </g>
    <g id="ytick_17">
     <g id="line2d_26">
      <g>
       <use xlink:href="#ma645eae39d" x="45.478125" y="133.952899" style="stroke: #000000; stroke-width: 0.6"/>
      </g>
     </g>
    </g>
    <g id="ytick_18">
     <g id="line2d_27">
      <g>
       <use xlink:href="#ma645eae39d" x="45.478125" y="129.898045" style="stroke: #000000; stroke-width: 0.6"/>
      </g>
     </g>
    </g>
    <g id="ytick_19">
     <g id="line2d_28">
      <g>
       <use xlink:href="#ma645eae39d" x="45.478125" y="126.385572" style="stroke: #000000; stroke-width: 0.6"/>
      </g>
     </g>
    </g>
    <g id="ytick_20">
     <g id="line2d_29">
      <g>
       <use xlink:href="#ma645eae39d" x="45.478125" y="123.28735" style="stroke: #000000; stroke-width: 0.6"/>
      </g>
     </g>
    </g>
    <g id="ytick_21">
     <g id="line2d_30">
      <g>
       <use xlink:href="#ma645eae39d" x="45.478125" y="102.283021" style="stroke: #000000; stroke-width: 0.6"/>
      </g>
     </g>
    </g>
    <g id="ytick_22">
     <g id="line2d_31">
      <g>
       <use xlink:href="#ma645eae39d" x="45.478125" y="91.617473" style="stroke: #000000; stroke-width: 0.6"/>
      </g>
     </g>
    </g>
    <g id="ytick_23">
     <g id="line2d_32">
      <g>
       <use xlink:href="#ma645eae39d" x="45.478125" y="84.050145" style="stroke: #000000; stroke-width: 0.6"/>
      </g>
     </g>
    </g>
    <g id="ytick_24">
     <g id="line2d_33">
      <g>
       <use xlink:href="#ma645eae39d" x="45.478125" y="78.180471" style="stroke: #000000; stroke-width: 0.6"/>
      </g>
     </g>
    </g>
    <g id="ytick_25">
     <g id="line2d_34">
      <g>
       <use xlink:href="#ma645eae39d" x="45.478125" y="73.384597" style="stroke: #000000; stroke-width: 0.6"/>
      </g>
     </g>
    </g>
    <g id="ytick_26">
     <g id="line2d_35">
      <g>
       <use xlink:href="#ma645eae39d" x="45.478125" y="69.329744" style="stroke: #000000; stroke-width: 0.6"/>
      </g>
     </g>
    </g>
    <g id="ytick_27">
     <g id="line2d_36">
      <g>
       <use xlink:href="#ma645eae39d" x="45.478125" y="65.81727" style="stroke: #000000; stroke-width: 0.6"/>
      </g>
     </g>
    </g>
    <g id="ytick_28">
     <g id="line2d_37">
      <g>
       <use xlink:href="#ma645eae39d" x="45.478125" y="62.719048" style="stroke: #000000; stroke-width: 0.6"/>
      </g>
     </g>
    </g>
    <g id="ytick_29">
     <g id="line2d_38">
      <g>
       <use xlink:href="#ma645eae39d" x="45.478125" y="41.714719" style="stroke: #000000; stroke-width: 0.6"/>
      </g>
     </g>
    </g>
    <g id="ytick_30">
     <g id="line2d_39">
      <g>
       <use xlink:href="#ma645eae39d" x="45.478125" y="31.049171" style="stroke: #000000; stroke-width: 0.6"/>
      </g>
     </g>
    </g>
    <g id="ytick_31">
     <g id="line2d_40">
      <g>
       <use xlink:href="#ma645eae39d" x="45.478125" y="23.481844" style="stroke: #000000; stroke-width: 0.6"/>
      </g>
     </g>
    </g>
    <g id="ytick_32">
     <g id="line2d_41">
      <g>
       <use xlink:href="#ma645eae39d" x="45.478125" y="17.612169" style="stroke: #000000; stroke-width: 0.6"/>
      </g>
     </g>
    </g>
    <g id="ytick_33">
     <g id="line2d_42">
      <g>
       <use xlink:href="#ma645eae39d" x="45.478125" y="12.816295" style="stroke: #000000; stroke-width: 0.6"/>
      </g>
     </g>
    </g>
    <g id="ytick_34">
     <g id="line2d_43">
      <g>
       <use xlink:href="#ma645eae39d" x="45.478125" y="8.761442" style="stroke: #000000; stroke-width: 0.6"/>
      </g>
     </g>
    </g>
    <g id="text_15">
     <!-- [counts] -->
     <g transform="translate(14.798438 145.03875) rotate(-90) scale(0.1 -0.1)">
      <defs>
       <path id="DejaVuSans-63" d="M 3122 3366 
L 3122 2828 
Q 2878 2963 2633 3030 
Q 2388 3097 2138 3097 
Q 1578 3097 1268 2742 
Q 959 2388 959 1747 
Q 959 1106 1268 751 
Q 1578 397 2138 397 
Q 2388 397 2633 464 
Q 2878 531 3122 666 
L 3122 134 
Q 2881 22 2623 -34 
Q 2366 -91 2075 -91 
Q 1284 -91 818 406 
Q 353 903 353 1747 
Q 353 2603 823 3093 
Q 1294 3584 2113 3584 
Q 2378 3584 2631 3529 
Q 2884 3475 3122 3366 
z
" transform="scale(0.015625)"/>
       <path id="DejaVuSans-6f" d="M 1959 3097 
Q 1497 3097 1228 2736 
Q 959 2375 959 1747 
Q 959 1119 1226 758 
Q 1494 397 1959 397 
Q 2419 397 2687 759 
Q 2956 1122 2956 1747 
Q 2956 2369 2687 2733 
Q 2419 3097 1959 3097 
z
M 1959 3584 
Q 2709 3584 3137 3096 
Q 3566 2609 3566 1747 
Q 3566 888 3137 398 
Q 2709 -91 1959 -91 
Q 1206 -91 779 398 
Q 353 888 353 1747 
Q 353 2609 779 3096 
Q 1206 3584 1959 3584 
z
" transform="scale(0.015625)"/>
       <path id="DejaVuSans-75" d="M 544 1381 
L 544 3500 
L 1119 3500 
L 1119 1403 
Q 1119 906 1312 657 
Q 1506 409 1894 409 
Q 2359 409 2629 706 
Q 2900 1003 2900 1516 
L 2900 3500 
L 3475 3500 
L 3475 0 
L 2900 0 
L 2900 538 
Q 2691 219 2414 64 
Q 2138 -91 1772 -91 
Q 1169 -91 856 284 
Q 544 659 544 1381 
z
M 1991 3584 
L 1991 3584 
z
" transform="scale(0.015625)"/>
       <path id="DejaVuSans-6e" d="M 3513 2113 
L 3513 0 
L 2938 0 
L 2938 2094 
Q 2938 2591 2744 2837 
Q 2550 3084 2163 3084 
Q 1697 3084 1428 2787 
Q 1159 2491 1159 1978 
L 1159 0 
L 581 0 
L 581 3500 
L 1159 3500 
L 1159 2956 
Q 1366 3272 1645 3428 
Q 1925 3584 2291 3584 
Q 2894 3584 3203 3211 
Q 3513 2838 3513 2113 
z
" transform="scale(0.015625)"/>
       <path id="DejaVuSans-74" d="M 1172 4494 
L 1172 3500 
L 2356 3500 
L 2356 3053 
L 1172 3053 
L 1172 1153 
Q 1172 725 1289 603 
Q 1406 481 1766 481 
L 2356 481 
L 2356 0 
L 1766 0 
Q 1100 0 847 248 
Q 594 497 594 1153 
L 594 3053 
L 172 3053 
L 172 3500 
L 594 3500 
L 594 4494 
L 1172 4494 
z
" transform="scale(0.015625)"/>
       <path id="DejaVuSans-73" d="M 2834 3397 
L 2834 2853 
Q 2591 2978 2328 3040 
Q 2066 3103 1784 3103 
Q 1356 3103 1142 2972 
Q 928 2841 928 2578 
Q 928 2378 1081 2264 
Q 1234 2150 1697 2047 
L 1894 2003 
Q 2506 1872 2764 1633 
Q 3022 1394 3022 966 
Q 3022 478 2636 193 
Q 2250 -91 1575 -91 
Q 1294 -91 989 -36 
Q 684 19 347 128 
L 347 722 
Q 666 556 975 473 
Q 1284 391 1588 391 
Q 1994 391 2212 530 
Q 2431 669 2431 922 
Q 2431 1156 2273 1281 
Q 2116 1406 1581 1522 
L 1381 1569 
Q 847 1681 609 1914 
Q 372 2147 372 2553 
Q 372 3047 722 3315 
Q 1072 3584 1716 3584 
Q 2034 3584 2315 3537 
Q 2597 3491 2834 3397 
z
" transform="scale(0.015625)"/>
      </defs>
      <use xlink:href="#DejaVuSans-5b"/>
      <use xlink:href="#DejaVuSans-63" x="39.013672"/>
      <use xlink:href="#DejaVuSans-6f" x="93.994141"/>
      <use xlink:href="#DejaVuSans-75" x="155.175781"/>
      <use xlink:href="#DejaVuSans-6e" x="218.554688"/>
      <use xlink:href="#DejaVuSans-74" x="281.933594"/>
      <use xlink:href="#DejaVuSans-73" x="321.142578"/>
      <use xlink:href="#DejaVuSans-5d" x="373.242188"/>
     </g>
    </g>
   </g>
   <g id="patch_3">
    <path d="M 45.478125 241.6525 
L 45.478125 7.2 
" style="fill: none; stroke: #000000; stroke-width: 0.8; stroke-linejoin: miter; stroke-linecap: square"/>
   </g>
   <g id="patch_4">
    <path d="M 403.085725 241.6525 
L 403.085725 7.2 
" style="fill: none; stroke: #000000; stroke-width: 0.8; stroke-linejoin: miter; stroke-linecap: square"/>
   </g>
   <g id="patch_5">
    <path d="M 45.478125 241.6525 
L 403.085725 241.6525 
" style="fill: none; stroke: #000000; stroke-width: 0.8; stroke-linejoin: miter; stroke-linecap: square"/>
   </g>
   <g id="patch_6">
    <path d="M 45.478125 7.2 
L 403.085725 7.2 
" style="fill: none; stroke: #000000; stroke-width: 0.8; stroke-linejoin: miter; stroke-linecap: square"/>
   </g>
   <g id="line2d_44">
    <path d="M 61.733016 54.003116 
L 63.358505 54.003116 
L 63.358505 25.392848 
L 64.983994 25.392848 
L 64.983994 23.619424 
L 66.609483 23.619424 
L 66.609483 24.231436 
L 68.234972 24.231436 
L 68.234972 24.728781 
L 69.860461 24.728781 
L 69.860461 24.866128 
L 71.48595 24.866128 
L 71.48595 26.673347 
L 73.11144 26.673347 
L 73.11144 25.688665 
L 74.736929 25.688665 
L 74.736929 28.684071 
L 76.362418 28.684071 
L 76.362418 28.966907 
L 77.987907 28.966907 
L 77.987907 31.214469 
L 79.613396 31.214469 
L 79.613396 32.325665 
L 82.864374 32.368983 
L 82.864374 33.965198 
L 84.489863 33.965198 
L 84.489863 34.978402 
L 86.115352 34.978402 
L 86.115352 38.440674 
L 87.740841 38.440674 
L 87.740841 37.393606 
L 89.36633 37.393606 
L 89.36633 42.916762 
L 92.617309 42.978792 
L 92.617309 44.388201 
L 94.242798 44.388201 
L 94.242798 49.212913 
L 95.868287 49.212913 
L 95.868287 56.533529 
L 97.493776 56.533529 
L 97.493776 60.877702 
L 99.119265 60.877702 
L 99.119265 68.596945 
L 100.744754 68.596945 
L 100.744754 79.323694 
L 102.370243 79.323694 
L 102.370243 87.855688 
L 103.995732 87.855688 
L 103.995732 90.196913 
L 105.621221 90.196913 
L 105.621221 91.272072 
L 107.246711 91.272072 
L 107.246711 102.876828 
L 108.8722 102.876828 
L 108.8722 99.527 
L 110.497689 99.527 
L 110.497689 102.423422 
L 112.123178 102.423422 
L 112.123178 92.604652 
L 113.748667 92.604652 
L 113.748667 96.182355 
L 115.374156 96.182355 
L 115.374156 96.477033 
L 116.999645 96.477033 
L 116.999645 97.543582 
L 118.625134 97.543582 
L 118.625134 104.393528 
L 120.250623 104.393528 
L 120.250623 106.936759 
L 121.876112 106.936759 
L 121.876112 110.503777 
L 123.501601 110.503777 
L 123.501601 113.9528 
L 125.127091 113.9528 
L 125.127091 120.295768 
L 126.75258 120.295768 
L 126.75258 123.667211 
L 128.378069 123.667211 
L 128.378069 133.861833 
L 130.003558 133.861833 
L 130.003558 138.315702 
L 131.629047 138.315702 
L 131.629047 147.043328 
L 133.254536 147.043328 
L 133.254536 146.864824 
L 134.880025 146.864824 
L 134.880025 161.365155 
L 136.505514 161.365155 
L 136.505514 161.226632 
L 138.131003 161.226632 
L 138.131003 164.810659 
L 139.756492 164.810659 
L 139.756492 166.128176 
L 141.381981 166.128176 
L 141.381981 164.203306 
L 143.007471 164.203306 
L 143.007471 160.017997 
L 144.63296 160.017997 
L 144.63296 160.912904 
L 146.258449 160.912904 
L 146.258449 156.752498 
L 147.883938 156.752498 
L 147.883938 155.916638 
L 149.509427 155.916638 
L 149.509427 150.249445 
L 151.134916 150.249445 
L 151.134916 146.753657 
L 152.760405 146.753657 
L 152.760405 142.410023 
L 154.385894 142.410023 
L 154.385894 147.161591 
L 156.011383 147.161591 
L 156.011383 138.550348 
L 157.636872 138.550348 
L 157.636872 141.005848 
L 159.262361 141.005848 
L 159.262361 142.089029 
L 160.887851 142.089029 
L 160.887851 133.150247 
L 162.51334 133.150247 
L 162.51334 137.566274 
L 164.138829 137.566274 
L 164.138829 136.201276 
L 165.764318 136.201276 
L 165.764318 140.527432 
L 167.389807 140.527432 
L 167.389807 142.125095 
L 169.015296 142.125095 
L 169.015296 136.643201 
L 170.640785 136.643201 
L 170.640785 139.880518 
L 172.266274 139.880518 
L 172.266274 143.691195 
L 173.891763 143.691195 
L 173.891763 148.905746 
L 175.517252 148.905746 
L 175.517252 146.90923 
L 177.142741 146.90923 
L 177.142741 148.261397 
L 178.768231 148.261397 
L 178.768231 145.925767 
L 180.39372 145.925767 
L 180.39372 154.174511 
L 182.019209 154.174511 
L 182.019209 146.856746 
L 183.644698 146.856746 
L 183.644698 151.449737 
L 185.270187 151.449737 
L 185.270187 158.193912 
L 186.895676 158.193912 
L 186.895676 156.708051 
L 188.521165 156.708051 
L 188.521165 165.67308 
L 190.146654 165.67308 
L 190.146654 160.780806 
L 191.772143 160.780806 
L 191.772143 158.755807 
L 193.397632 158.755807 
L 193.397632 170.530547 
L 195.023121 170.530547 
L 195.023121 166.98079 
L 196.648611 166.98079 
L 196.648611 172.630665 
L 198.2741 172.630665 
L 198.2741 169.82498 
L 199.899589 169.82498 
L 199.899589 172.195963 
L 201.525078 172.195963 
L 201.525078 165.852847 
L 203.150567 165.852847 
L 203.150567 170.517972 
L 204.776056 170.517972 
L 204.776056 163.459044 
L 206.401545 163.459044 
L 206.401545 171.139276 
L 208.027034 171.139276 
L 208.027034 165.543734 
L 209.652523 165.543734 
L 209.652523 167.296043 
L 211.278012 167.296043 
L 211.278012 158.788946 
L 212.903502 158.788946 
L 212.903502 165.981529 
L 214.528991 165.981529 
L 214.528991 163.331819 
L 217.779969 163.302609 
L 217.779969 159.523048 
L 219.405458 159.523048 
L 219.405458 169.344981 
L 221.030947 169.344981 
L 221.030947 166.266428 
L 222.656436 166.266428 
L 222.656436 154.41962 
L 224.281925 154.41962 
L 224.281925 165.413081 
L 225.907414 165.413081 
L 225.907414 163.391962 
L 227.532903 163.391962 
L 227.532903 162.601351 
L 229.158392 162.601351 
L 229.158392 157.83427 
L 230.783882 157.83427 
L 230.783882 173.364588 
L 232.409371 173.364588 
L 232.409371 159.696392 
L 234.03486 159.696392 
L 234.03486 161.246715 
L 235.660349 161.246715 
L 235.660349 159.38016 
L 237.285838 159.38016 
L 237.285838 158.634024 
L 238.911327 158.634024 
L 238.911327 161.488779 
L 240.536816 161.488779 
L 240.536816 154.860999 
L 242.162305 154.860999 
L 242.162305 165.254935 
L 243.787794 165.254935 
L 243.787794 162.3016 
L 245.413283 162.3016 
L 245.413283 167.360911 
L 247.038772 167.360911 
L 247.038772 164.000301 
L 248.664262 164.000301 
L 248.664262 161.989927 
L 250.289751 161.989927 
L 250.289751 161.027565 
L 251.91524 161.027565 
L 251.91524 167.167284 
L 253.540729 167.167284 
L 253.540729 170.516937 
L 255.166218 170.516937 
L 255.166218 162.604074 
L 256.791707 162.604074 
L 256.791707 171.50723 
L 258.417196 171.50723 
L 258.417196 166.166125 
L 260.042685 166.166125 
L 260.042685 174.353792 
L 261.668174 174.353792 
L 261.668174 170.072628 
L 263.293663 170.072628 
L 263.293663 174.23262 
L 264.919152 174.23262 
L 264.919152 169.86994 
L 266.544642 169.86994 
L 266.544642 161.747068 
L 268.170131 161.747068 
L 268.170131 174.844442 
L 269.79562 174.844442 
L 269.79562 166.919801 
L 271.421109 166.919801 
L 271.421109 173.438421 
L 273.046598 173.438421 
L 273.046598 162.970784 
L 274.672087 162.970784 
L 274.672087 168.68425 
L 276.297576 168.68425 
L 276.297576 175.218099 
L 277.923065 175.218099 
L 277.923065 157.844557 
L 279.548554 157.844557 
L 279.548554 173.634329 
L 281.174043 173.634329 
L 281.174043 166.071839 
L 282.799532 166.071839 
L 282.799532 161.602175 
L 284.425022 161.602175 
L 284.425022 165.914754 
L 286.050511 165.914754 
L 286.050511 163.515733 
L 287.676 163.515733 
L 287.676 165.877642 
L 289.301489 165.877642 
L 289.301489 162.646257 
L 290.926978 162.646257 
L 290.926978 167.630091 
L 292.552467 167.630091 
L 292.552467 168.484922 
L 294.177956 168.484922 
L 294.177956 167.55472 
L 295.803445 167.55472 
L 295.803445 171.856897 
L 297.428934 171.856897 
L 297.428934 174.951821 
L 299.054423 174.951821 
L 299.054423 164.0895 
L 300.679912 164.0895 
L 300.679912 160.043104 
L 302.305402 160.043104 
L 302.305402 165.693916 
L 303.930891 165.693916 
L 303.930891 168.788685 
L 305.55638 168.788685 
L 305.55638 164.98525 
L 307.181869 164.98525 
L 307.181869 175.148997 
L 308.807358 175.148997 
L 308.807358 172.976405 
L 310.432847 172.976405 
L 310.432847 168.126082 
L 312.058336 168.126082 
L 312.058336 169.250958 
L 313.683825 169.250958 
L 313.683825 172.33165 
L 315.309314 172.33165 
L 315.309314 163.786794 
L 316.934803 163.786794 
L 316.934803 176.982647 
L 318.560293 176.982647 
L 318.560293 176.599277 
L 320.185782 176.599277 
L 320.185782 166.505359 
L 321.811271 166.505359 
L 321.811271 168.941052 
L 323.43676 168.941052 
L 323.43676 167.865254 
L 325.062249 167.865254 
L 325.062249 176.078941 
L 326.687738 176.078941 
L 326.687738 173.041156 
L 328.313227 173.041156 
L 328.313227 179.381936 
L 329.938716 179.381936 
L 329.938716 195.666331 
L 331.564205 195.666331 
L 331.564205 182.732348 
L 333.189694 182.732348 
L 333.189694 177.794514 
L 334.815183 177.794514 
L 334.815183 170.752688 
L 336.440673 170.752688 
L 336.440673 184.49539 
L 338.066162 184.49539 
L 338.066162 173.422245 
L 339.691651 173.422245 
L 339.691651 197.491539 
L 341.31714 197.491539 
L 341.31714 185.930457 
L 342.942629 185.930457 
L 342.942629 186.563707 
L 344.568118 186.563707 
L 344.568118 200.517638 
L 346.193607 200.517638 
L 346.193607 179.398764 
L 347.819096 179.398764 
L 347.819096 179.152783 
L 349.444585 179.152783 
L 349.444585 198.816544 
L 352.695563 198.883256 
L 352.695563 177.933595 
L 354.321053 177.933595 
L 354.321053 180.758913 
L 357.572031 180.762943 
L 357.572031 184.15586 
L 359.19752 184.15586 
L 359.19752 197.593717 
L 360.823009 197.593717 
L 360.823009 194.721403 
L 362.448498 194.721403 
L 362.448498 203.469016 
L 364.073987 203.469016 
L 364.073987 219.990389 
L 365.699476 219.990389 
L 365.699476 231.888945 
L 367.324965 231.888945 
L 367.324965 218.803556 
L 368.950454 218.803556 
L 368.950454 221.728345 
L 370.575943 221.728345 
L 370.575943 227.950305 
L 372.201433 227.950305 
L 372.201433 232.193692 
L 373.826922 232.193692 
L 373.826922 237.777386 
L 375.452411 237.777386 
L 375.452411 240.58282 
L 377.0779 240.58282 
L 377.0779 222.451736 
L 380.328878 222.355153 
L 380.328878 273.810133 
L 381.954367 273.810133 
L 381.954367 264.970427 
L 383.579856 264.970427 
L 383.579856 281.132187 
L 383.579856 281.132187 
" clip-path="url(#pdd0970d296)" style="fill: none; stroke: #1f77b4; stroke-width: 1.5; stroke-linecap: square"/>
   </g>
   <g id="LineCollection_1">
    <path d="M 62.54576 54.756756 
L 62.54576 53.270468 
" clip-path="url(#pdd0970d296)" style="fill: none; stroke: #1f77b4; stroke-width: 1.5"/>
    <path d="M 64.17125 25.827719 
L 64.17125 24.96505 
" clip-path="url(#pdd0970d296)" style="fill: none; stroke: #1f77b4; stroke-width: 1.5"/>
    <path d="M 65.796739 24.039764 
L 65.796739 23.205695 
" clip-path="url(#pdd0970d296)" style="fill: none; stroke: #1f77b4; stroke-width: 1.5"/>
    <path d="M 67.422228 24.656735 
L 67.422228 23.812905 
" clip-path="url(#pdd0970d296)" style="fill: none; stroke: #1f77b4; stroke-width: 1.5"/>
    <path d="M 69.047717 25.158153 
L 69.047717 24.306306 
" clip-path="url(#pdd0970d296)" style="fill: none; stroke: #1f77b4; stroke-width: 1.5"/>
    <path d="M 70.673206 25.296631 
L 70.673206 24.442558 
" clip-path="url(#pdd0970d296)" style="fill: none; stroke: #1f77b4; stroke-width: 1.5"/>
    <path d="M 72.298695 27.119024 
L 72.298695 26.235096 
" clip-path="url(#pdd0970d296)" style="fill: none; stroke: #1f77b4; stroke-width: 1.5"/>
    <path d="M 73.924184 26.126009 
L 73.924184 25.258475 
" clip-path="url(#pdd0970d296)" style="fill: none; stroke: #1f77b4; stroke-width: 1.5"/>
    <path d="M 75.549673 29.147265 
L 75.549673 28.228892 
" clip-path="url(#pdd0970d296)" style="fill: none; stroke: #1f77b4; stroke-width: 1.5"/>
    <path d="M 77.175162 29.43262 
L 77.175162 28.509296 
" clip-path="url(#pdd0970d296)" style="fill: none; stroke: #1f77b4; stroke-width: 1.5"/>
    <path d="M 78.800651 31.700699 
L 78.800651 30.737064 
" clip-path="url(#pdd0970d296)" style="fill: none; stroke: #1f77b4; stroke-width: 1.5"/>
    <path d="M 80.42614 32.822373 
L 80.42614 31.838164 
" clip-path="url(#pdd0970d296)" style="fill: none; stroke: #1f77b4; stroke-width: 1.5"/>
    <path d="M 82.05163 32.866104 
L 82.05163 31.881084 
" clip-path="url(#pdd0970d296)" style="fill: none; stroke: #1f77b4; stroke-width: 1.5"/>
    <path d="M 83.677119 34.477783 
L 83.677119 33.462411 
" clip-path="url(#pdd0970d296)" style="fill: none; stroke: #1f77b4; stroke-width: 1.5"/>
    <path d="M 85.302608 35.501055 
L 85.302608 34.465933 
" clip-path="url(#pdd0970d296)" style="fill: none; stroke: #1f77b4; stroke-width: 1.5"/>
    <path d="M 86.928097 38.99926 
L 86.928097 37.893703 
" clip-path="url(#pdd0970d296)" style="fill: none; stroke: #1f77b4; stroke-width: 1.5"/>
    <path d="M 88.553586 37.941069 
L 88.553586 36.857305 
" clip-path="url(#pdd0970d296)" style="fill: none; stroke: #1f77b4; stroke-width: 1.5"/>
    <path d="M 90.179075 43.525533 
L 90.179075 42.321763 
" clip-path="url(#pdd0970d296)" style="fill: none; stroke: #1f77b4; stroke-width: 1.5"/>
    <path d="M 91.804564 43.588289 
L 91.804564 42.383098 
" clip-path="url(#pdd0970d296)" style="fill: none; stroke: #1f77b4; stroke-width: 1.5"/>
    <path d="M 93.430053 45.014446 
L 93.430053 43.776519 
" clip-path="url(#pdd0970d296)" style="fill: none; stroke: #1f77b4; stroke-width: 1.5"/>
    <path d="M 95.055542 49.900099 
L 95.055542 48.543224 
" clip-path="url(#pdd0970d296)" style="fill: none; stroke: #1f77b4; stroke-width: 1.5"/>
    <path d="M 96.681031 57.324868 
L 96.681031 55.765303 
" clip-path="url(#pdd0970d296)" style="fill: none; stroke: #1f77b4; stroke-width: 1.5"/>
    <path d="M 98.30652 61.738285 
L 98.30652 60.044385 
" clip-path="url(#pdd0970d296)" style="fill: none; stroke: #1f77b4; stroke-width: 1.5"/>
    <path d="M 99.93201 69.596148 
L 99.93201 67.634313 
" clip-path="url(#pdd0970d296)" style="fill: none; stroke: #1f77b4; stroke-width: 1.5"/>
    <path d="M 101.557499 80.554249 
L 101.557499 78.148143 
" clip-path="url(#pdd0970d296)" style="fill: none; stroke: #1f77b4; stroke-width: 1.5"/>
    <path d="M 103.182988 89.308994 
L 103.182988 86.47849 
" clip-path="url(#pdd0970d296)" style="fill: none; stroke: #1f77b4; stroke-width: 1.5"/>
    <path d="M 104.808477 91.718304 
L 104.808477 88.758725 
" clip-path="url(#pdd0970d296)" style="fill: none; stroke: #1f77b4; stroke-width: 1.5"/>
    <path d="M 106.433966 92.825821 
L 106.433966 89.805003 
" clip-path="url(#pdd0970d296)" style="fill: none; stroke: #1f77b4; stroke-width: 1.5"/>
    <path d="M 108.059455 104.828601 
L 108.059455 101.059926 
" clip-path="url(#pdd0970d296)" style="fill: none; stroke: #1f77b4; stroke-width: 1.5"/>
    <path d="M 109.684944 101.354086 
L 109.684944 97.818622 
" clip-path="url(#pdd0970d296)" style="fill: none; stroke: #1f77b4; stroke-width: 1.5"/>
    <path d="M 111.310433 104.357815 
L 111.310433 100.62159 
" clip-path="url(#pdd0970d296)" style="fill: none; stroke: #1f77b4; stroke-width: 1.5"/>
    <path d="M 112.935922 94.199494 
L 112.935922 91.101003 
" clip-path="url(#pdd0970d296)" style="fill: none; stroke: #1f77b4; stroke-width: 1.5"/>
    <path d="M 114.561411 97.893155 
L 114.561411 94.57606 
" clip-path="url(#pdd0970d296)" style="fill: none; stroke: #1f77b4; stroke-width: 1.5"/>
    <path d="M 116.186901 98.197764 
L 116.186901 94.861988 
" clip-path="url(#pdd0970d296)" style="fill: none; stroke: #1f77b4; stroke-width: 1.5"/>
    <path d="M 117.81239 99.300756 
L 117.81239 95.896474 
" clip-path="url(#pdd0970d296)" style="fill: none; stroke: #1f77b4; stroke-width: 1.5"/>
    <path d="M 119.437879 106.404627 
L 119.437879 102.525327 
" clip-path="url(#pdd0970d296)" style="fill: none; stroke: #1f77b4; stroke-width: 1.5"/>
    <path d="M 121.063368 109.051578 
L 121.063368 104.979387 
" clip-path="url(#pdd0970d296)" style="fill: none; stroke: #1f77b4; stroke-width: 1.5"/>
    <path d="M 122.688857 112.773541 
L 122.688857 108.414404 
" clip-path="url(#pdd0970d296)" style="fill: none; stroke: #1f77b4; stroke-width: 1.5"/>
    <path d="M 124.314346 116.383677 
L 124.314346 111.727686 
" clip-path="url(#pdd0970d296)" style="fill: none; stroke: #1f77b4; stroke-width: 1.5"/>
    <path d="M 125.939835 123.055021 
L 125.939835 117.798671 
" clip-path="url(#pdd0970d296)" style="fill: none; stroke: #1f77b4; stroke-width: 1.5"/>
    <path d="M 127.565324 126.619709 
L 127.565324 121.01292 
" clip-path="url(#pdd0970d296)" style="fill: none; stroke: #1f77b4; stroke-width: 1.5"/>
    <path d="M 129.190813 137.491092 
L 129.190813 130.673136 
" clip-path="url(#pdd0970d296)" style="fill: none; stroke: #1f77b4; stroke-width: 1.5"/>
    <path d="M 130.816302 142.291034 
L 130.816302 134.863028 
" clip-path="url(#pdd0970d296)" style="fill: none; stroke: #1f77b4; stroke-width: 1.5"/>
    <path d="M 132.441791 151.804681 
L 132.441791 143.01316 
" clip-path="url(#pdd0970d296)" style="fill: none; stroke: #1f77b4; stroke-width: 1.5"/>
    <path d="M 134.067281 151.608503 
L 134.067281 142.847316 
" clip-path="url(#pdd0970d296)" style="fill: none; stroke: #1f77b4; stroke-width: 1.5"/>
    <path d="M 135.69277 167.812541 
L 135.69277 156.191071 
" clip-path="url(#pdd0970d296)" style="fill: none; stroke: #1f77b4; stroke-width: 1.5"/>
    <path d="M 137.318259 167.654813 
L 137.318259 156.064903 
" clip-path="url(#pdd0970d296)" style="fill: none; stroke: #1f77b4; stroke-width: 1.5"/>
    <path d="M 138.943748 171.757276 
L 138.943748 159.320564 
" clip-path="url(#pdd0970d296)" style="fill: none; stroke: #1f77b4; stroke-width: 1.5"/>
    <path d="M 140.569237 173.277187 
L 140.569237 160.512723 
" clip-path="url(#pdd0970d296)" style="fill: none; stroke: #1f77b4; stroke-width: 1.5"/>
    <path d="M 142.194726 171.058826 
L 142.194726 158.770148 
" clip-path="url(#pdd0970d296)" style="fill: none; stroke: #1f77b4; stroke-width: 1.5"/>
    <path d="M 143.820215 166.281312 
L 143.820215 154.962931 
" clip-path="url(#pdd0970d296)" style="fill: none; stroke: #1f77b4; stroke-width: 1.5"/>
    <path d="M 145.445704 167.297826 
L 145.445704 155.779055 
" clip-path="url(#pdd0970d296)" style="fill: none; stroke: #1f77b4; stroke-width: 1.5"/>
    <path d="M 147.071193 162.593607 
L 147.071193 151.975686 
" clip-path="url(#pdd0970d296)" style="fill: none; stroke: #1f77b4; stroke-width: 1.5"/>
    <path d="M 148.696682 161.654854 
L 148.696682 151.20877 
" clip-path="url(#pdd0970d296)" style="fill: none; stroke: #1f77b4; stroke-width: 1.5"/>
    <path d="M 150.322171 155.340842 
L 150.322171 145.985519 
" clip-path="url(#pdd0970d296)" style="fill: none; stroke: #1f77b4; stroke-width: 1.5"/>
    <path d="M 151.947661 151.486365 
L 151.947661 142.744014 
" clip-path="url(#pdd0970d296)" style="fill: none; stroke: #1f77b4; stroke-width: 1.5"/>
    <path d="M 153.57315 146.734992 
L 153.57315 138.696767 
" clip-path="url(#pdd0970d296)" style="fill: none; stroke: #1f77b4; stroke-width: 1.5"/>
    <path d="M 155.198639 151.934692 
L 155.198639 143.123015 
" clip-path="url(#pdd0970d296)" style="fill: none; stroke: #1f77b4; stroke-width: 1.5"/>
    <path d="M 156.824128 142.544871 
L 156.824128 135.083214 
" clip-path="url(#pdd0970d296)" style="fill: none; stroke: #1f77b4; stroke-width: 1.5"/>
    <path d="M 158.449617 145.207298 
L 158.449617 137.38396 
" clip-path="url(#pdd0970d296)" style="fill: none; stroke: #1f77b4; stroke-width: 1.5"/>
    <path d="M 160.075106 146.385419 
L 160.075106 138.396847 
" clip-path="url(#pdd0970d296)" style="fill: none; stroke: #1f77b4; stroke-width: 1.5"/>
    <path d="M 161.700595 136.727275 
L 161.700595 130.001926 
" clip-path="url(#pdd0970d296)" style="fill: none; stroke: #1f77b4; stroke-width: 1.5"/>
    <path d="M 163.326084 141.480976 
L 163.326084 134.159406 
" clip-path="url(#pdd0970d296)" style="fill: none; stroke: #1f77b4; stroke-width: 1.5"/>
    <path d="M 164.951573 140.00809 
L 164.951573 132.876379 
" clip-path="url(#pdd0970d296)" style="fill: none; stroke: #1f77b4; stroke-width: 1.5"/>
    <path d="M 166.577062 144.687675 
L 166.577062 136.936193 
" clip-path="url(#pdd0970d296)" style="fill: none; stroke: #1f77b4; stroke-width: 1.5"/>
    <path d="M 168.202551 146.424685 
L 168.202551 138.430551 
" clip-path="url(#pdd0970d296)" style="fill: none; stroke: #1f77b4; stroke-width: 1.5"/>
    <path d="M 169.828041 140.484589 
L 169.828041 133.29197 
" clip-path="url(#pdd0970d296)" style="fill: none; stroke: #1f77b4; stroke-width: 1.5"/>
    <path d="M 171.45353 143.985733 
L 171.45353 136.330336 
" clip-path="url(#pdd0970d296)" style="fill: none; stroke: #1f77b4; stroke-width: 1.5"/>
    <path d="M 173.079019 148.132303 
L 173.079019 139.892707 
" clip-path="url(#pdd0970d296)" style="fill: none; stroke: #1f77b4; stroke-width: 1.5"/>
    <path d="M 174.704508 153.855861 
L 174.704508 144.741272 
" clip-path="url(#pdd0970d296)" style="fill: none; stroke: #1f77b4; stroke-width: 1.5"/>
    <path d="M 176.329997 151.657299 
L 176.329997 142.888576 
" clip-path="url(#pdd0970d296)" style="fill: none; stroke: #1f77b4; stroke-width: 1.5"/>
    <path d="M 177.955486 153.145294 
L 177.955486 144.143851 
" clip-path="url(#pdd0970d296)" style="fill: none; stroke: #1f77b4; stroke-width: 1.5"/>
    <path d="M 179.580975 150.577641 
L 179.580975 141.974255 
" clip-path="url(#pdd0970d296)" style="fill: none; stroke: #1f77b4; stroke-width: 1.5"/>
    <path d="M 181.206464 159.704691 
L 181.206464 149.607426 
" clip-path="url(#pdd0970d296)" style="fill: none; stroke: #1f77b4; stroke-width: 1.5"/>
    <path d="M 182.831953 151.599627 
L 182.831953 142.83981 
" clip-path="url(#pdd0970d296)" style="fill: none; stroke: #1f77b4; stroke-width: 1.5"/>
    <path d="M 184.457442 156.671092 
L 184.457442 147.095127 
" clip-path="url(#pdd0970d296)" style="fill: none; stroke: #1f77b4; stroke-width: 1.5"/>
    <path d="M 186.082931 164.217328 
L 186.082931 153.296041 
" clip-path="url(#pdd0970d296)" style="fill: none; stroke: #1f77b4; stroke-width: 1.5"/>
    <path d="M 187.708421 162.543638 
L 187.708421 151.934928 
" clip-path="url(#pdd0970d296)" style="fill: none; stroke: #1f77b4; stroke-width: 1.5"/>
    <path d="M 189.33391 172.75143 
L 189.33391 160.101216 
" clip-path="url(#pdd0970d296)" style="fill: none; stroke: #1f77b4; stroke-width: 1.5"/>
    <path d="M 190.959399 167.147611 
L 190.959399 155.658656 
" clip-path="url(#pdd0970d296)" style="fill: none; stroke: #1f77b4; stroke-width: 1.5"/>
    <path d="M 192.584888 164.852006 
L 192.584888 153.809994 
" clip-path="url(#pdd0970d296)" style="fill: none; stroke: #1f77b4; stroke-width: 1.5"/>
    <path d="M 194.210377 178.406516 
L 194.210377 164.47741 
" clip-path="url(#pdd0970d296)" style="fill: none; stroke: #1f77b4; stroke-width: 1.5"/>
    <path d="M 195.835866 174.264363 
L 195.835866 161.282849 
" clip-path="url(#pdd0970d296)" style="fill: none; stroke: #1f77b4; stroke-width: 1.5"/>
    <path d="M 197.461355 180.883276 
L 197.461355 166.358228 
" clip-path="url(#pdd0970d296)" style="fill: none; stroke: #1f77b4; stroke-width: 1.5"/>
    <path d="M 199.086844 177.578909 
L 199.086844 163.843977 
" clip-path="url(#pdd0970d296)" style="fill: none; stroke: #1f77b4; stroke-width: 1.5"/>
    <path d="M 200.712333 180.368925 
L 200.712333 165.969489 
" clip-path="url(#pdd0970d296)" style="fill: none; stroke: #1f77b4; stroke-width: 1.5"/>
    <path d="M 202.337822 172.959012 
L 202.337822 160.2638 
" clip-path="url(#pdd0970d296)" style="fill: none; stroke: #1f77b4; stroke-width: 1.5"/>
    <path d="M 203.963311 178.391747 
L 203.963311 164.466128 
" clip-path="url(#pdd0970d296)" style="fill: none; stroke: #1f77b4; stroke-width: 1.5"/>
    <path d="M 205.588801 170.204776 
L 205.588801 158.094933 
" clip-path="url(#pdd0970d296)" style="fill: none; stroke: #1f77b4; stroke-width: 1.5"/>
    <path d="M 207.21429 179.122324 
L 207.21429 165.023286 
" clip-path="url(#pdd0970d296)" style="fill: none; stroke: #1f77b4; stroke-width: 1.5"/>
    <path d="M 208.839779 172.602145 
L 208.839779 159.984202 
" clip-path="url(#pdd0970d296)" style="fill: none; stroke: #1f77b4; stroke-width: 1.5"/>
    <path d="M 210.465268 174.630103 
L 210.465268 161.567328 
" clip-path="url(#pdd0970d296)" style="fill: none; stroke: #1f77b4; stroke-width: 1.5"/>
    <path d="M 212.090757 164.889469 
L 212.090757 153.840292 
" clip-path="url(#pdd0970d296)" style="fill: none; stroke: #1f77b4; stroke-width: 1.5"/>
    <path d="M 213.716246 173.107682 
L 213.716246 160.380154 
" clip-path="url(#pdd0970d296)" style="fill: none; stroke: #1f77b4; stroke-width: 1.5"/>
    <path d="M 215.341735 170.058985 
L 215.341735 157.979431 
" clip-path="url(#pdd0970d296)" style="fill: none; stroke: #1f77b4; stroke-width: 1.5"/>
    <path d="M 216.967224 170.02552 
L 216.967224 157.95291 
" clip-path="url(#pdd0970d296)" style="fill: none; stroke: #1f77b4; stroke-width: 1.5"/>
    <path d="M 218.592713 165.720227 
L 218.592713 154.511083 
" clip-path="url(#pdd0970d296)" style="fill: none; stroke: #1f77b4; stroke-width: 1.5"/>
    <path d="M 220.218202 177.017134 
L 220.218202 163.412611 
" clip-path="url(#pdd0970d296)" style="fill: none; stroke: #1f77b4; stroke-width: 1.5"/>
    <path d="M 221.843692 173.437063 
L 221.843692 160.637672 
" clip-path="url(#pdd0970d296)" style="fill: none; stroke: #1f77b4; stroke-width: 1.5"/>
    <path d="M 223.469181 159.978557 
L 223.469181 149.832963 
" clip-path="url(#pdd0970d296)" style="fill: none; stroke: #1f77b4; stroke-width: 1.5"/>
    <path d="M 225.09467 172.451418 
L 225.09467 159.865982 
" clip-path="url(#pdd0970d296)" style="fill: none; stroke: #1f77b4; stroke-width: 1.5"/>
    <path d="M 226.720159 170.127897 
L 226.720159 158.034035 
" clip-path="url(#pdd0970d296)" style="fill: none; stroke: #1f77b4; stroke-width: 1.5"/>
    <path d="M 228.345648 169.223027 
L 228.345648 157.315827 
" clip-path="url(#pdd0970d296)" style="fill: none; stroke: #1f77b4; stroke-width: 1.5"/>
    <path d="M 229.971137 163.811611 
L 229.971137 152.966863 
" clip-path="url(#pdd0970d296)" style="fill: none; stroke: #1f77b4; stroke-width: 1.5"/>
    <path d="M 231.596626 181.753735 
L 231.596626 167.013869 
" clip-path="url(#pdd0970d296)" style="fill: none; stroke: #1f77b4; stroke-width: 1.5"/>
    <path d="M 233.222115 165.916644 
L 233.222115 154.66937 
" clip-path="url(#pdd0970d296)" style="fill: none; stroke: #1f77b4; stroke-width: 1.5"/>
    <path d="M 234.847604 167.677676 
L 234.847604 156.083196 
" clip-path="url(#pdd0970d296)" style="fill: none; stroke: #1f77b4; stroke-width: 1.5"/>
    <path d="M 236.473093 165.558391 
L 236.473093 154.380575 
" clip-path="url(#pdd0970d296)" style="fill: none; stroke: #1f77b4; stroke-width: 1.5"/>
    <path d="M 238.098582 164.714365 
L 238.098582 153.698638 
" clip-path="url(#pdd0970d296)" style="fill: none; stroke: #1f77b4; stroke-width: 1.5"/>
    <path d="M 239.724072 167.95336 
L 239.724072 156.303647 
" clip-path="url(#pdd0970d296)" style="fill: none; stroke: #1f77b4; stroke-width: 1.5"/>
    <path d="M 241.349561 160.472139 
L 241.349561 150.238905 
" clip-path="url(#pdd0970d296)" style="fill: none; stroke: #1f77b4; stroke-width: 1.5"/>
    <path d="M 242.97505 172.269062 
L 242.97505 159.722852 
" clip-path="url(#pdd0970d296)" style="fill: none; stroke: #1f77b4; stroke-width: 1.5"/>
    <path d="M 244.600539 168.880531 
L 244.600539 157.043295 
" clip-path="url(#pdd0970d296)" style="fill: none; stroke: #1f77b4; stroke-width: 1.5"/>
    <path d="M 246.226028 174.705409 
L 246.226028 161.625846 
" clip-path="url(#pdd0970d296)" style="fill: none; stroke: #1f77b4; stroke-width: 1.5"/>
    <path d="M 247.851517 170.825675 
L 247.851517 158.586055 
" clip-path="url(#pdd0970d296)" style="fill: none; stroke: #1f77b4; stroke-width: 1.5"/>
    <path d="M 249.477006 168.524743 
L 249.477006 156.75979 
" clip-path="url(#pdd0970d296)" style="fill: none; stroke: #1f77b4; stroke-width: 1.5"/>
    <path d="M 251.102495 167.428259 
L 251.102495 155.883542 
" clip-path="url(#pdd0970d296)" style="fill: none; stroke: #1f77b4; stroke-width: 1.5"/>
    <path d="M 252.727984 174.480675 
L 252.727984 161.451156 
" clip-path="url(#pdd0970d296)" style="fill: none; stroke: #1f77b4; stroke-width: 1.5"/>
    <path d="M 254.353473 178.390532 
L 254.353473 164.465199 
" clip-path="url(#pdd0970d296)" style="fill: none; stroke: #1f77b4; stroke-width: 1.5"/>
    <path d="M 255.978962 169.22614 
L 255.978962 157.318302 
" clip-path="url(#pdd0970d296)" style="fill: none; stroke: #1f77b4; stroke-width: 1.5"/>
    <path d="M 257.604452 179.555822 
L 257.604452 165.352967 
" clip-path="url(#pdd0970d296)" style="fill: none; stroke: #1f77b4; stroke-width: 1.5"/>
    <path d="M 259.229941 173.321064 
L 259.229941 160.547022 
" clip-path="url(#pdd0970d296)" style="fill: none; stroke: #1f77b4; stroke-width: 1.5"/>
    <path d="M 260.85543 182.931166 
L 260.85543 167.896197 
" clip-path="url(#pdd0970d296)" style="fill: none; stroke: #1f77b4; stroke-width: 1.5"/>
    <path d="M 262.480919 177.869141 
L 262.480919 164.066394 
" clip-path="url(#pdd0970d296)" style="fill: none; stroke: #1f77b4; stroke-width: 1.5"/>
    <path d="M 264.106408 182.786673 
L 264.106408 167.788201 
" clip-path="url(#pdd0970d296)" style="fill: none; stroke: #1f77b4; stroke-width: 1.5"/>
    <path d="M 265.731897 177.63158 
L 265.731897 163.884363 
" clip-path="url(#pdd0970d296)" style="fill: none; stroke: #1f77b4; stroke-width: 1.5"/>
    <path d="M 267.357386 168.247741 
L 267.357386 156.538785 
" clip-path="url(#pdd0970d296)" style="fill: none; stroke: #1f77b4; stroke-width: 1.5"/>
    <path d="M 268.982875 183.517009 
L 268.982875 168.333249 
" clip-path="url(#pdd0970d296)" style="fill: none; stroke: #1f77b4; stroke-width: 1.5"/>
    <path d="M 270.608364 174.193653 
L 270.608364 161.227796 
" clip-path="url(#pdd0970d296)" style="fill: none; stroke: #1f77b4; stroke-width: 1.5"/>
    <path d="M 272.233853 181.84145 
L 272.233853 167.07978 
" clip-path="url(#pdd0970d296)" style="fill: none; stroke: #1f77b4; stroke-width: 1.5"/>
    <path d="M 273.859342 169.645575 
L 273.859342 157.651538 
" clip-path="url(#pdd0970d296)" style="fill: none; stroke: #1f77b4; stroke-width: 1.5"/>
    <path d="M 275.484832 176.245455 
L 275.484832 162.818248 
" clip-path="url(#pdd0970d296)" style="fill: none; stroke: #1f77b4; stroke-width: 1.5"/>
    <path d="M 277.110321 183.963994 
L 277.110321 168.665825 
" clip-path="url(#pdd0970d296)" style="fill: none; stroke: #1f77b4; stroke-width: 1.5"/>
    <path d="M 278.73581 163.82321 
L 278.73581 152.976281 
" clip-path="url(#pdd0970d296)" style="fill: none; stroke: #1f77b4; stroke-width: 1.5"/>
    <path d="M 280.361299 182.07432 
L 280.361299 167.254623 
" clip-path="url(#pdd0970d296)" style="fill: none; stroke: #1f77b4; stroke-width: 1.5"/>
    <path d="M 281.986788 173.212058 
L 281.986788 160.461798 
" clip-path="url(#pdd0970d296)" style="fill: none; stroke: #1f77b4; stroke-width: 1.5"/>
    <path d="M 283.612277 168.082573 
L 283.612277 156.40689 
" clip-path="url(#pdd0970d296)" style="fill: none; stroke: #1f77b4; stroke-width: 1.5"/>
    <path d="M 285.237766 173.030527 
L 285.237766 160.31978 
" clip-path="url(#pdd0970d296)" style="fill: none; stroke: #1f77b4; stroke-width: 1.5"/>
    <path d="M 286.863255 170.269757 
L 286.863255 158.14639 
" clip-path="url(#pdd0970d296)" style="fill: none; stroke: #1f77b4; stroke-width: 1.5"/>
    <path d="M 288.488744 172.987654 
L 288.488744 160.286222 
" clip-path="url(#pdd0970d296)" style="fill: none; stroke: #1f77b4; stroke-width: 1.5"/>
    <path d="M 290.114233 169.274364 
L 290.114233 157.356645 
" clip-path="url(#pdd0970d296)" style="fill: none; stroke: #1f77b4; stroke-width: 1.5"/>
    <path d="M 291.739722 175.018085 
L 291.739722 161.868606 
" clip-path="url(#pdd0970d296)" style="fill: none; stroke: #1f77b4; stroke-width: 1.5"/>
    <path d="M 293.365212 176.01302 
L 293.365212 162.638812 
" clip-path="url(#pdd0970d296)" style="fill: none; stroke: #1f77b4; stroke-width: 1.5"/>
    <path d="M 294.990701 174.930506 
L 294.990701 161.800643 
" clip-path="url(#pdd0970d296)" style="fill: none; stroke: #1f77b4; stroke-width: 1.5"/>
    <path d="M 296.61619 179.968354 
L 296.61619 165.666066 
" clip-path="url(#pdd0970d296)" style="fill: none; stroke: #1f77b4; stroke-width: 1.5"/>
    <path d="M 298.241679 183.645386 
L 298.241679 168.428845 
" clip-path="url(#pdd0970d296)" style="fill: none; stroke: #1f77b4; stroke-width: 1.5"/>
    <path d="M 299.867168 170.928102 
L 299.867168 158.666952 
" clip-path="url(#pdd0970d296)" style="fill: none; stroke: #1f77b4; stroke-width: 1.5"/>
    <path d="M 301.492657 166.309796 
L 301.492657 154.985843 
" clip-path="url(#pdd0970d296)" style="fill: none; stroke: #1f77b4; stroke-width: 1.5"/>
    <path d="M 303.118146 172.775482 
L 303.118146 160.120062 
" clip-path="url(#pdd0970d296)" style="fill: none; stroke: #1f77b4; stroke-width: 1.5"/>
    <path d="M 304.743635 176.367303 
L 304.743635 162.912238 
" clip-path="url(#pdd0970d296)" style="fill: none; stroke: #1f77b4; stroke-width: 1.5"/>
    <path d="M 306.369124 171.958308 
L 306.369124 159.478689 
" clip-path="url(#pdd0970d296)" style="fill: none; stroke: #1f77b4; stroke-width: 1.5"/>
    <path d="M 307.994613 183.881276 
L 307.994613 168.604337 
" clip-path="url(#pdd0970d296)" style="fill: none; stroke: #1f77b4; stroke-width: 1.5"/>
    <path d="M 309.620102 181.293011 
L 309.620102 166.667198 
" clip-path="url(#pdd0970d296)" style="fill: none; stroke: #1f77b4; stroke-width: 1.5"/>
    <path d="M 311.245592 175.594999 
L 311.245592 162.31563 
" clip-path="url(#pdd0970d296)" style="fill: none; stroke: #1f77b4; stroke-width: 1.5"/>
    <path d="M 312.871081 176.907208 
L 312.871081 163.328073 
" clip-path="url(#pdd0970d296)" style="fill: none; stroke: #1f77b4; stroke-width: 1.5"/>
    <path d="M 314.49657 180.529378 
L 314.49657 166.090862 
" clip-path="url(#pdd0970d296)" style="fill: none; stroke: #1f77b4; stroke-width: 1.5"/>
    <path d="M 316.122059 170.580625 
L 316.122059 158.392374 
" clip-path="url(#pdd0970d296)" style="fill: none; stroke: #1f77b4; stroke-width: 1.5"/>
    <path d="M 317.747548 186.084843 
L 317.747548 170.233279 
" clip-path="url(#pdd0970d296)" style="fill: none; stroke: #1f77b4; stroke-width: 1.5"/>
    <path d="M 319.373037 185.622627 
L 319.373037 169.893167 
" clip-path="url(#pdd0970d296)" style="fill: none; stroke: #1f77b4; stroke-width: 1.5"/>
    <path d="M 320.998526 173.713543 
L 320.998526 160.853547 
" clip-path="url(#pdd0970d296)" style="fill: none; stroke: #1f77b4; stroke-width: 1.5"/>
    <path d="M 322.624015 176.545157 
L 322.624015 163.049334 
" clip-path="url(#pdd0970d296)" style="fill: none; stroke: #1f77b4; stroke-width: 1.5"/>
    <path d="M 324.249504 175.29149 
L 324.249504 162.080598 
" clip-path="url(#pdd0970d296)" style="fill: none; stroke: #1f77b4; stroke-width: 1.5"/>
    <path d="M 325.874993 184.996563 
L 325.874993 169.431155 
" clip-path="url(#pdd0970d296)" style="fill: none; stroke: #1f77b4; stroke-width: 1.5"/>
    <path d="M 327.500483 181.369811 
L 327.500483 166.725041 
" clip-path="url(#pdd0970d296)" style="fill: none; stroke: #1f77b4; stroke-width: 1.5"/>
    <path d="M 329.125972 188.996565 
L 329.125972 172.356245 
" clip-path="url(#pdd0970d296)" style="fill: none; stroke: #1f77b4; stroke-width: 1.5"/>
    <path d="M 330.751461 209.869858 
L 330.751461 186.49381 
" clip-path="url(#pdd0970d296)" style="fill: none; stroke: #1f77b4; stroke-width: 1.5"/>
    <path d="M 332.37695 193.121505 
L 332.37695 175.304314 
" clip-path="url(#pdd0970d296)" style="fill: none; stroke: #1f77b4; stroke-width: 1.5"/>
    <path d="M 334.002439 187.06639 
L 334.002439 170.952729 
" clip-path="url(#pdd0970d296)" style="fill: none; stroke: #1f77b4; stroke-width: 1.5"/>
    <path d="M 335.627928 178.667539 
L 335.627928 164.676681 
" clip-path="url(#pdd0970d296)" style="fill: none; stroke: #1f77b4; stroke-width: 1.5"/>
    <path d="M 337.253417 195.322344 
L 337.253417 176.84773 
" clip-path="url(#pdd0970d296)" style="fill: none; stroke: #1f77b4; stroke-width: 1.5"/>
    <path d="M 338.878906 181.82223 
L 338.878906 167.06534 
" clip-path="url(#pdd0970d296)" style="fill: none; stroke: #1f77b4; stroke-width: 1.5"/>
    <path d="M 340.504395 212.368455 
L 340.504395 188.047044 
" clip-path="url(#pdd0970d296)" style="fill: none; stroke: #1f77b4; stroke-width: 1.5"/>
    <path d="M 342.129884 197.130464 
L 342.129884 178.099919 
" clip-path="url(#pdd0970d296)" style="fill: none; stroke: #1f77b4; stroke-width: 1.5"/>
    <path d="M 343.755373 197.933337 
L 343.755373 178.651283 
" clip-path="url(#pdd0970d296)" style="fill: none; stroke: #1f77b4; stroke-width: 1.5"/>
    <path d="M 345.380863 216.606368 
L 345.380863 190.607485 
" clip-path="url(#pdd0970d296)" style="fill: none; stroke: #1f77b4; stroke-width: 1.5"/>
    <path d="M 347.006352 189.017107 
L 347.006352 172.3711 
" clip-path="url(#pdd0970d296)" style="fill: none; stroke: #1f77b4; stroke-width: 1.5"/>
    <path d="M 348.631841 188.717013 
L 348.631841 172.153903 
" clip-path="url(#pdd0970d296)" style="fill: none; stroke: #1f77b4; stroke-width: 1.5"/>
    <path d="M 350.25733 214.208668 
L 350.25733 189.170437 
" clip-path="url(#pdd0970d296)" style="fill: none; stroke: #1f77b4; stroke-width: 1.5"/>
    <path d="M 351.882819 214.301937 
L 351.882819 189.226905 
" clip-path="url(#pdd0970d296)" style="fill: none; stroke: #1f77b4; stroke-width: 1.5"/>
    <path d="M 353.508308 187.234913 
L 353.508308 171.075867 
" clip-path="url(#pdd0970d296)" style="fill: none; stroke: #1f77b4; stroke-width: 1.5"/>
    <path d="M 355.133797 190.683166 
L 355.133797 173.570218 
" clip-path="url(#pdd0970d296)" style="fill: none; stroke: #1f77b4; stroke-width: 1.5"/>
    <path d="M 356.759286 190.68812 
L 356.759286 173.573766 
" clip-path="url(#pdd0970d296)" style="fill: none; stroke: #1f77b4; stroke-width: 1.5"/>
    <path d="M 358.384775 194.896783 
L 358.384775 176.550927 
" clip-path="url(#pdd0970d296)" style="fill: none; stroke: #1f77b4; stroke-width: 1.5"/>
    <path d="M 360.010264 212.509551 
L 360.010264 188.1338 
" clip-path="url(#pdd0970d296)" style="fill: none; stroke: #1f77b4; stroke-width: 1.5"/>
    <path d="M 361.635753 208.591808 
L 361.635753 185.687096 
" clip-path="url(#pdd0970d296)" style="fill: none; stroke: #1f77b4; stroke-width: 1.5"/>
    <path d="M 363.261243 220.870183 
L 363.261243 193.086652 
" clip-path="url(#pdd0970d296)" style="fill: none; stroke: #1f77b4; stroke-width: 1.5"/>
    <path d="M 364.886732 248.560891 
L 364.886732 206.619465 
" clip-path="url(#pdd0970d296)" style="fill: none; stroke: #1f77b4; stroke-width: 1.5"/>
    <path d="M 366.512221 278.594884 
L 366.512221 215.983871 
" clip-path="url(#pdd0970d296)" style="fill: none; stroke: #1f77b4; stroke-width: 1.5"/>
    <path d="M 368.13771 246.246822 
L 368.13771 205.667501 
" clip-path="url(#pdd0970d296)" style="fill: none; stroke: #1f77b4; stroke-width: 1.5"/>
    <path d="M 369.763199 252.092797 
L 369.763199 208.007693 
" clip-path="url(#pdd0970d296)" style="fill: none; stroke: #1f77b4; stroke-width: 1.5"/>
    <path d="M 371.388688 266.689761 
L 371.388688 212.920557 
" clip-path="url(#pdd0970d296)" style="fill: none; stroke: #1f77b4; stroke-width: 1.5"/>
    <path d="M 373.014177 279.659884 
L 373.014177 216.219371 
" clip-path="url(#pdd0970d296)" style="fill: none; stroke: #1f77b4; stroke-width: 1.5"/>
    <path d="M 374.639666 281.132187 
L 374.639666 220.495453 
" clip-path="url(#pdd0970d296)" style="fill: none; stroke: #1f77b4; stroke-width: 1.5"/>
    <path d="M 376.265155 281.132187 
L 376.265155 222.616005 
" clip-path="url(#pdd0970d296)" style="fill: none; stroke: #1f77b4; stroke-width: 1.5"/>
    <path d="M 377.890644 253.619335 
L 377.890644 208.583478 
" clip-path="url(#pdd0970d296)" style="fill: none; stroke: #1f77b4; stroke-width: 1.5"/>
    <path d="M 379.516133 253.413443 
L 379.516133 208.506672 
" clip-path="url(#pdd0970d296)" style="fill: none; stroke: #1f77b4; stroke-width: 1.5"/>
    <path d="M 381.141623 281.132187 
L 381.141623 246.327974 
" clip-path="url(#pdd0970d296)" style="fill: none; stroke: #1f77b4; stroke-width: 1.5"/>
    <path d="M 382.767112 281.132187 
L 382.767112 240.267337 
" clip-path="url(#pdd0970d296)" style="fill: none; stroke: #1f77b4; stroke-width: 1.5"/>
    <path d="M 384.392601 281.132187 
L 384.392601 268.979387 
" clip-path="url(#pdd0970d296)" style="fill: none; stroke: #1f77b4; stroke-width: 1.5"/>
    <path d="M 386.01809 281.132187 
L 386.01809 276.696531 
" clip-path="url(#pdd0970d296)" style="fill: none; stroke: #1f77b4; stroke-width: 1.5"/>
   </g>
  </g>
 </g>
 <defs>
  <clipPath id="pdd0970d296">
   <rect x="45.478125" y="7.2" width="357.6076" height="234.4525"/>
  </clipPath>
 </defs>
</svg>