<?xml version="1.0" encoding="utf-8" standalone="no"?>
<!DOCTYPE svg PUBLIC "-//W3C//DTD SVG 1.1//EN"
  "http://www.w3.org/Graphics/SVG/1.1/DTD/svg11.dtd">
<svg xmlns:xlink="http://www.w3.org/1999/xlink" width="424.070586pt" height="280.173125pt" viewBox="0 0 424.070586 280.173125" xmlns="http://www.w3.org/2000/svg" version="1.1">
 <metadata>
  <rdf:RDF xmlns:dc="http://purl.org/dc/elements/1.1/" xmlns:cc="http://creativecommons.org/ns#" xmlns:rdf="http://www.w3.org/1999/02/22-rdf-syntax-ns#">
   <cc:Work>
    <dc:type rdf:resource="http://purl.org/dc/dcmitype/StillImage"/>
    <dc:date>2024-09-10T09:04:15.921947</dc:date>
    <dc:format>image/svg+xml</dc:format>
    <dc:creator>
     <cc:Agent>
      <dc:title>Matplotlib v3.9.2, https://matplotlib.org/</dc:title>
     </cc:Agent>
    </dc:creator>
   </cc:Work>
  </rdf:RDF>
 </metadata>
 <defs>
  <style type="text/css">*{stroke-linejoin: round; stroke-linecap: butt}</style>
 </defs>
 <g id="figure_1">
  <g id="patch_1">
   <path d="M 0 280.173125 
L 424.070586 280.173125 
L 424.070586 0 
L 0 0 
z
" style="fill: #ffffff"/>
  </g>
  <g id="axes_1">
   <g id="patch_2">
    <path d="M 56.50625 242.33875 
L 414.622606 242.33875 
L 414.622606 7.2 
L 56.50625 7.2 
z
" style="fill: #ffffff"/>
   </g>
   <g id="matplotlib.axis_1">
    <g id="xtick_1">
     <g id="line2d_1">
      <defs>
       <path id="m30e85ce661" d="M 0 0 
L 0 3.5 
" style="stroke: #000000; stroke-width: 0.8"/>
      </defs>
      <g>
       <use xlink:href="#m30e85ce661" x="105.825653" y="242.33875" style="stroke: #000000; stroke-width: 0.8"/>
      </g>
     </g>
     <g id="text_1">
      <!-- −0.05 -->
      <g transform="translate(90.502996 256.937187) scale(0.1 -0.1)">
       <defs>
        <path id="DejaVuSans-2212" d="M 678 2272 
L 4684 2272 
L 4684 1741 
L 678 1741 
L 678 2272 
z
" transform="scale(0.015625)"/>
        <path id="DejaVuSans-30" d="M 2034 4250 
Q 1547 4250 1301 3770 
Q 1056 3291 1056 2328 
Q 1056 1369 1301 889 
Q 1547 409 2034 409 
Q 2525 409 2770 889 
Q 3016 1369 3016 2328 
Q 3016 3291 2770 3770 
Q 2525 4250 2034 4250 
z
M 2034 4750 
Q 2819 4750 3233 4129 
Q 3647 3509 3647 2328 
Q 3647 1150 3233 529 
Q 2819 -91 2034 -91 
Q 1250 -91 836 529 
Q 422 1150 422 2328 
Q 422 3509 836 4129 
Q 1250 4750 2034 4750 
z
" transform="scale(0.015625)"/>
        <path id="DejaVuSans-2e" d="M 684 794 
L 1344 794 
L 1344 0 
L 684 0 
L 684 794 
z
" transform="scale(0.015625)"/>
        <path id="DejaVuSans-35" d="M 691 4666 
L 3169 4666 
L 3169 4134 
L 1269 4134 
L 1269 2991 
Q 1406 3038 1543 3061 
Q 1681 3084 1819 3084 
Q 2600 3084 3056 2656 
Q 3513 2228 3513 1497 
Q 3513 744 3044 326 
Q 2575 -91 1722 -91 
Q 1428 -91 1123 -41 
Q 819 9 494 109 
L 494 744 
Q 775 591 1075 516 
Q 1375 441 1709 441 
Q 2250 441 2565 725 
Q 2881 1009 2881 1497 
Q 2881 1984 2565 2268 
Q 2250 2553 1709 2553 
Q 1456 2553 1204 2497 
Q 953 2441 691 2322 
L 691 4666 
z
" transform="scale(0.015625)"/>
       </defs>
       <use xlink:href="#DejaVuSans-2212"/>
       <use xlink:href="#DejaVuSans-30" x="83.789062"/>
       <use xlink:href="#DejaVuSans-2e" x="147.412109"/>
       <use xlink:href="#DejaVuSans-30" x="179.199219"/>
       <use xlink:href="#DejaVuSans-35" x="242.822266"/>
      </g>
     </g>
    </g>
    <g id="xtick_2">
     <g id="line2d_2">
      <g>
       <use xlink:href="#m30e85ce661" x="180.803683" y="242.33875" style="stroke: #000000; stroke-width: 0.8"/>
      </g>
     </g>
     <g id="text_2">
      <!-- 0.00 -->
      <g transform="translate(169.67087 256.937187) scale(0.1 -0.1)">
       <use xlink:href="#DejaVuSans-30"/>
       <use xlink:href="#DejaVuSans-2e" x="63.623047"/>
       <use xlink:href="#DejaVuSans-30" x="95.410156"/>
       <use xlink:href="#DejaVuSans-30" x="159.033203"/>
      </g>
     </g>
    </g>
    <g id="xtick_3">
     <g id="line2d_3">
      <g>
       <use xlink:href="#m30e85ce661" x="255.781713" y="242.33875" style="stroke: #000000; stroke-width: 0.8"/>
      </g>
     </g>
     <g id="text_3">
      <!-- 0.05 -->
      <g transform="translate(244.648901 256.937187) scale(0.1 -0.1)">
       <use xlink:href="#DejaVuSans-30"/>
       <use xlink:href="#DejaVuSans-2e" x="63.623047"/>
       <use xlink:href="#DejaVuSans-30" x="95.410156"/>
       <use xlink:href="#DejaVuSans-35" x="159.033203"/>
      </g>
     </g>
    </g>
    <g id="xtick_4">
     <g id="line2d_4">
      <g>
       <use xlink:href="#m30e85ce661" x="330.759743" y="242.33875" style="stroke: #000000; stroke-width: 0.8"/>
      </g>
     </g>
     <g id="text_4">
      <!-- 0.10 -->
      <g transform="translate(319.626931 256.937187) scale(0.1 -0.1)">
       <defs>
        <path id="DejaVuSans-31" d="M 794 531 
L 1825 531 
L 1825 4091 
L 703 3866 
L 703 4441 
L 1819 4666 
L 2450 4666 
L 2450 531 
L 3481 531 
L 3481 0 
L 794 0 
L 794 531 
z
" transform="scale(0.015625)"/>
       </defs>
       <use xlink:href="#DejaVuSans-30"/>
       <use xlink:href="#DejaVuSans-2e" x="63.623047"/>
       <use xlink:href="#DejaVuSans-31" x="95.410156"/>
       <use xlink:href="#DejaVuSans-30" x="159.033203"/>
      </g>
     </g>
    </g>
    <g id="xtick_5">
     <g id="line2d_5">
      <g>
       <use xlink:href="#m30e85ce661" x="405.737773" y="242.33875" style="stroke: #000000; stroke-width: 0.8"/>
      </g>
     </g>
     <g id="text_5">
      <!-- 0.15 -->
      <g transform="translate(394.604961 256.937187) scale(0.1 -0.1)">
       <use xlink:href="#DejaVuSans-30"/>
       <use xlink:href="#DejaVuSans-2e" x="63.623047"/>
       <use xlink:href="#DejaVuSans-31" x="95.410156"/>
       <use xlink:href="#DejaVuSans-35" x="159.033203"/>
      </g>
     </g>
    </g>
    <g id="text_6">
     <!-- energy_transfer [meV] -->
     <g transform="translate(179.037866 270.615312) scale(0.1 -0.1)">
      <defs>
       <path id="DejaVuSans-65" d="M 3597 1894 
L 3597 1613 
L 953 1613 
Q 991 1019 1311 708 
Q 1631 397 2203 397 
Q 2534 397 2845 478 
Q 3156 559 3463 722 
L 3463 178 
Q 3153 47 2828 -22 
Q 2503 -91 2169 -91 
Q 1331 -91 842 396 
Q 353 884 353 1716 
Q 353 2575 817 3079 
Q 1281 3584 2069 3584 
Q 2775 3584 3186 3129 
Q 3597 2675 3597 1894 
z
M 3022 2063 
Q 3016 2534 2758 2815 
Q 2500 3097 2075 3097 
Q 1594 3097 1305 2825 
Q 1016 2553 972 2059 
L 3022 2063 
z
" transform="scale(0.015625)"/>
       <path id="DejaVuSans-6e" d="M 3513 2113 
L 3513 0 
L 2938 0 
L 2938 2094 
Q 2938 2591 2744 2837 
Q 2550 3084 2163 3084 
Q 1697 3084 1428 2787 
Q 1159 2491 1159 1978 
L 1159 0 
L 581 0 
L 581 3500 
L 1159 3500 
L 1159 2956 
Q 1366 3272 1645 3428 
Q 1925 3584 2291 3584 
Q 2894 3584 3203 3211 
Q 3513 2838 3513 2113 
z
" transform="scale(0.015625)"/>
       <path id="DejaVuSans-72" d="M 2631 2963 
Q 2534 3019 2420 3045 
Q 2306 3072 2169 3072 
Q 1681 3072 1420 2755 
Q 1159 2438 1159 1844 
L 1159 0 
L 581 0 
L 581 3500 
L 1159 3500 
L 1159 2956 
Q 1341 3275 1631 3429 
Q 1922 3584 2338 3584 
Q 2397 3584 2469 3576 
Q 2541 3569 2628 3553 
L 2631 2963 
z
" transform="scale(0.015625)"/>
       <path id="DejaVuSans-67" d="M 2906 1791 
Q 2906 2416 2648 2759 
Q 2391 3103 1925 3103 
Q 1463 3103 1205 2759 
Q 947 2416 947 1791 
Q 947 1169 1205 825 
Q 1463 481 1925 481 
Q 2391 481 2648 825 
Q 2906 1169 2906 1791 
z
M 3481 434 
Q 3481 -459 3084 -895 
Q 2688 -1331 1869 -1331 
Q 1566 -1331 1297 -1286 
Q 1028 -1241 775 -1147 
L 775 -588 
Q 1028 -725 1275 -790 
Q 1522 -856 1778 -856 
Q 2344 -856 2625 -561 
Q 2906 -266 2906 331 
L 2906 616 
Q 2728 306 2450 153 
Q 2172 0 1784 0 
Q 1141 0 747 490 
Q 353 981 353 1791 
Q 353 2603 747 3093 
Q 1141 3584 1784 3584 
Q 2172 3584 2450 3431 
Q 2728 3278 2906 2969 
L 2906 3500 
L 3481 3500 
L 3481 434 
z
" transform="scale(0.015625)"/>
       <path id="DejaVuSans-79" d="M 2059 -325 
Q 1816 -950 1584 -1140 
Q 1353 -1331 966 -1331 
L 506 -1331 
L 506 -850 
L 844 -850 
Q 1081 -850 1212 -737 
Q 1344 -625 1503 -206 
L 1606 56 
L 191 3500 
L 800 3500 
L 1894 763 
L 2988 3500 
L 3597 3500 
L 2059 -325 
z
" transform="scale(0.015625)"/>
       <path id="DejaVuSans-5f" d="M 3263 -1063 
L 3263 -1509 
L -63 -1509 
L -63 -1063 
L 3263 -1063 
z
" transform="scale(0.015625)"/>
       <path id="DejaVuSans-74" d="M 1172 4494 
L 1172 3500 
L 2356 3500 
L 2356 3053 
L 1172 3053 
L 1172 1153 
Q 1172 725 1289 603 
Q 1406 481 1766 481 
L 2356 481 
L 2356 0 
L 1766 0 
Q 1100 0 847 248 
Q 594 497 594 1153 
L 594 3053 
L 172 3053 
L 172 3500 
L 594 3500 
L 594 4494 
L 1172 4494 
z
" transform="scale(0.015625)"/>
       <path id="DejaVuSans-61" d="M 2194 1759 
Q 1497 1759 1228 1600 
Q 959 1441 959 1056 
Q 959 750 1161 570 
Q 1363 391 1709 391 
Q 2188 391 2477 730 
Q 2766 1069 2766 1631 
L 2766 1759 
L 2194 1759 
z
M 3341 1997 
L 3341 0 
L 2766 0 
L 2766 531 
Q 2569 213 2275 61 
Q 1981 -91 1556 -91 
Q 1019 -91 701 211 
Q 384 513 384 1019 
Q 384 1609 779 1909 
Q 1175 2209 1959 2209 
L 2766 2209 
L 2766 2266 
Q 2766 2663 2505 2880 
Q 2244 3097 1772 3097 
Q 1472 3097 1187 3025 
Q 903 2953 641 2809 
L 641 3341 
Q 956 3463 1253 3523 
Q 1550 3584 1831 3584 
Q 2591 3584 2966 3190 
Q 3341 2797 3341 1997 
z
" transform="scale(0.015625)"/>
       <path id="DejaVuSans-73" d="M 2834 3397 
L 2834 2853 
Q 2591 2978 2328 3040 
Q 2066 3103 1784 3103 
Q 1356 3103 1142 2972 
Q 928 2841 928 2578 
Q 928 2378 1081 2264 
Q 1234 2150 1697 2047 
L 1894 2003 
Q 2506 1872 2764 1633 
Q 3022 1394 3022 966 
Q 3022 478 2636 193 
Q 2250 -91 1575 -91 
Q 1294 -91 989 -36 
Q 684 19 347 128 
L 347 722 
Q 666 556 975 473 
Q 1284 391 1588 391 
Q 1994 391 2212 530 
Q 2431 669 2431 922 
Q 2431 1156 2273 1281 
Q 2116 1406 1581 1522 
L 1381 1569 
Q 847 1681 609 1914 
Q 372 2147 372 2553 
Q 372 3047 722 3315 
Q 1072 3584 1716 3584 
Q 2034 3584 2315 3537 
Q 2597 3491 2834 3397 
z
" transform="scale(0.015625)"/>
       <path id="DejaVuSans-66" d="M 2375 4863 
L 2375 4384 
L 1825 4384 
Q 1516 4384 1395 4259 
Q 1275 4134 1275 3809 
L 1275 3500 
L 2222 3500 
L 2222 3053 
L 1275 3053 
L 1275 0 
L 697 0 
L 697 3053 
L 147 3053 
L 147 3500 
L 697 3500 
L 697 3744 
Q 697 4328 969 4595 
Q 1241 4863 1831 4863 
L 2375 4863 
z
" transform="scale(0.015625)"/>
       <path id="DejaVuSans-20" transform="scale(0.015625)"/>
       <path id="DejaVuSans-5b" d="M 550 4863 
L 1875 4863 
L 1875 4416 
L 1125 4416 
L 1125 -397 
L 1875 -397 
L 1875 -844 
L 550 -844 
L 550 4863 
z
" transform="scale(0.015625)"/>
       <path id="DejaVuSans-6d" d="M 3328 2828 
Q 3544 3216 3844 3400 
Q 4144 3584 4550 3584 
Q 5097 3584 5394 3201 
Q 5691 2819 5691 2113 
L 5691 0 
L 5113 0 
L 5113 2094 
Q 5113 2597 4934 2840 
Q 4756 3084 4391 3084 
Q 3944 3084 3684 2787 
Q 3425 2491 3425 1978 
L 3425 0 
L 2847 0 
L 2847 2094 
Q 2847 2600 2669 2842 
Q 2491 3084 2119 3084 
Q 1678 3084 1418 2786 
Q 1159 2488 1159 1978 
L 1159 0 
L 581 0 
L 581 3500 
L 1159 3500 
L 1159 2956 
Q 1356 3278 1631 3431 
Q 1906 3584 2284 3584 
Q 2666 3584 2933 3390 
Q 3200 3197 3328 2828 
z
" transform="scale(0.015625)"/>
       <path id="DejaVuSans-56" d="M 1831 0 
L 50 4666 
L 709 4666 
L 2188 738 
L 3669 4666 
L 4325 4666 
L 2547 0 
L 1831 0 
z
" transform="scale(0.015625)"/>
       <path id="DejaVuSans-5d" d="M 1947 4863 
L 1947 -844 
L 622 -844 
L 622 -397 
L 1369 -397 
L 1369 4416 
L 622 4416 
L 622 4863 
L 1947 4863 
z
" transform="scale(0.015625)"/>
      </defs>
      <use xlink:href="#DejaVuSans-65"/>
      <use xlink:href="#DejaVuSans-6e" x="61.523438"/>
      <use xlink:href="#DejaVuSans-65" x="124.902344"/>
      <use xlink:href="#DejaVuSans-72" x="186.425781"/>
      <use xlink:href="#DejaVuSans-67" x="225.789062"/>
      <use xlink:href="#DejaVuSans-79" x="289.265625"/>
      <use xlink:href="#DejaVuSans-5f" x="348.445312"/>
      <use xlink:href="#DejaVuSans-74" x="398.445312"/>
      <use xlink:href="#DejaVuSans-72" x="437.654297"/>
      <use xlink:href="#DejaVuSans-61" x="478.767578"/>
      <use xlink:href="#DejaVuSans-6e" x="540.046875"/>
      <use xlink:href="#DejaVuSans-73" x="603.425781"/>
      <use xlink:href="#DejaVuSans-66" x="655.525391"/>
      <use xlink:href="#DejaVuSans-65" x="690.730469"/>
      <use xlink:href="#DejaVuSans-72" x="752.253906"/>
      <use xlink:href="#DejaVuSans-20" x="793.367188"/>
      <use xlink:href="#DejaVuSans-5b" x="825.154297"/>
      <use xlink:href="#DejaVuSans-6d" x="864.167969"/>
      <use xlink:href="#DejaVuSans-65" x="961.580078"/>
      <use xlink:href="#DejaVuSans-56" x="1023.103516"/>
      <use xlink:href="#DejaVuSans-5d" x="1091.511719"/>
     </g>
    </g>
   </g>
   <g id="matplotlib.axis_2">
    <g id="ytick_1">
     <g id="line2d_6">
      <defs>
       <path id="ma439191ccb" d="M 0 0 
L -3.5 0 
" style="stroke: #000000; stroke-width: 0.8"/>
      </defs>
      <g>
       <use xlink:href="#ma439191ccb" x="56.50625" y="231.600676" style="stroke: #000000; stroke-width: 0.8"/>
      </g>
     </g>
     <g id="text_7">
      <!-- 0.000 -->
      <g transform="translate(20.878125 235.399895) scale(0.1 -0.1)">
       <use xlink:href="#DejaVuSans-30"/>
       <use xlink:href="#DejaVuSans-2e" x="63.623047"/>
       <use xlink:href="#DejaVuSans-30" x="95.410156"/>
       <use xlink:href="#DejaVuSans-30" x="159.033203"/>
       <use xlink:href="#DejaVuSans-30" x="222.65625"/>
      </g>
     </g>
    </g>
    <g id="ytick_2">
     <g id="line2d_7">
      <g>
       <use xlink:href="#ma439191ccb" x="56.50625" y="200.815856" style="stroke: #000000; stroke-width: 0.8"/>
      </g>
     </g>
     <g id="text_8">
      <!-- 0.005 -->
      <g transform="translate(20.878125 204.615074) scale(0.1 -0.1)">
       <use xlink:href="#DejaVuSans-30"/>
       <use xlink:href="#DejaVuSans-2e" x="63.623047"/>
       <use xlink:href="#DejaVuSans-30" x="95.410156"/>
       <use xlink:href="#DejaVuSans-30" x="159.033203"/>
       <use xlink:href="#DejaVuSans-35" x="222.65625"/>
      </g>
     </g>
    </g>
    <g id="ytick_3">
     <g id="line2d_8">
      <g>
       <use xlink:href="#ma439191ccb" x="56.50625" y="170.031035" style="stroke: #000000; stroke-width: 0.8"/>
      </g>
     </g>
     <g id="text_9">
      <!-- 0.010 -->
      <g transform="translate(20.878125 173.830254) scale(0.1 -0.1)">
       <use xlink:href="#DejaVuSans-30"/>
       <use xlink:href="#DejaVuSans-2e" x="63.623047"/>
       <use xlink:href="#DejaVuSans-30" x="95.410156"/>
       <use xlink:href="#DejaVuSans-31" x="159.033203"/>
       <use xlink:href="#DejaVuSans-30" x="222.65625"/>
      </g>
     </g>
    </g>
    <g id="ytick_4">
     <g id="line2d_9">
      <g>
       <use xlink:href="#ma439191ccb" x="56.50625" y="139.246214" style="stroke: #000000; stroke-width: 0.8"/>
      </g>
     </g>
     <g id="text_10">
      <!-- 0.015 -->
      <g transform="translate(20.878125 143.045433) scale(0.1 -0.1)">
       <use xlink:href="#DejaVuSans-30"/>
       <use xlink:href="#DejaVuSans-2e" x="63.623047"/>
       <use xlink:href="#DejaVuSans-30" x="95.410156"/>
       <use xlink:href="#DejaVuSans-31" x="159.033203"/>
       <use xlink:href="#DejaVuSans-35" x="222.65625"/>
      </g>
     </g>
    </g>
    <g id="ytick_5">
     <g id="line2d_10">
      <g>
       <use xlink:href="#ma439191ccb" x="56.50625" y="108.461393" style="stroke: #000000; stroke-width: 0.8"/>
      </g>
     </g>
     <g id="text_11">
      <!-- 0.020 -->
      <g transform="translate(20.878125 112.260612) scale(0.1 -0.1)">
       <defs>
        <path id="DejaVuSans-32" d="M 1228 531 
L 3431 531 
L 3431 0 
L 469 0 
L 469 531 
Q 828 903 1448 1529 
Q 2069 2156 2228 2338 
Q 2531 2678 2651 2914 
Q 2772 3150 2772 3378 
Q 2772 3750 2511 3984 
Q 2250 4219 1831 4219 
Q 1534 4219 1204 4116 
Q 875 4013 500 3803 
L 500 4441 
Q 881 4594 1212 4672 
Q 1544 4750 1819 4750 
Q 2544 4750 2975 4387 
Q 3406 4025 3406 3419 
Q 3406 3131 3298 2873 
Q 3191 2616 2906 2266 
Q 2828 2175 2409 1742 
Q 1991 1309 1228 531 
z
" transform="scale(0.015625)"/>
       </defs>
       <use xlink:href="#DejaVuSans-30"/>
       <use xlink:href="#DejaVuSans-2e" x="63.623047"/>
       <use xlink:href="#DejaVuSans-30" x="95.410156"/>
       <use xlink:href="#DejaVuSans-32" x="159.033203"/>
       <use xlink:href="#DejaVuSans-30" x="222.65625"/>
      </g>
     </g>
    </g>
    <g id="ytick_6">
     <g id="line2d_11">
      <g>
       <use xlink:href="#ma439191ccb" x="56.50625" y="77.676572" style="stroke: #000000; stroke-width: 0.8"/>
      </g>
     </g>
     <g id="text_12">
      <!-- 0.025 -->
      <g transform="translate(20.878125 81.475791) scale(0.1 -0.1)">
       <use xlink:href="#DejaVuSans-30"/>
       <use xlink:href="#DejaVuSans-2e" x="63.623047"/>
       <use xlink:href="#DejaVuSans-30" x="95.410156"/>
       <use xlink:href="#DejaVuSans-32" x="159.033203"/>
       <use xlink:href="#DejaVuSans-35" x="222.65625"/>
      </g>
     </g>
    </g>
    <g id="ytick_7">
     <g id="line2d_12">
      <g>
       <use xlink:href="#ma439191ccb" x="56.50625" y="46.891751" style="stroke: #000000; stroke-width: 0.8"/>
      </g>
     </g>
     <g id="text_13">
      <!-- 0.030 -->
      <g transform="translate(20.878125 50.69097) scale(0.1 -0.1)">
       <defs>
        <path id="DejaVuSans-33" d="M 2597 2516 
Q 3050 2419 3304 2112 
Q 3559 1806 3559 1356 
Q 3559 666 3084 287 
Q 2609 -91 1734 -91 
Q 1441 -91 1130 -33 
Q 819 25 488 141 
L 488 750 
Q 750 597 1062 519 
Q 1375 441 1716 441 
Q 2309 441 2620 675 
Q 2931 909 2931 1356 
Q 2931 1769 2642 2001 
Q 2353 2234 1838 2234 
L 1294 2234 
L 1294 2753 
L 1863 2753 
Q 2328 2753 2575 2939 
Q 2822 3125 2822 3475 
Q 2822 3834 2567 4026 
Q 2313 4219 1838 4219 
Q 1578 4219 1281 4162 
Q 984 4106 628 3988 
L 628 4550 
Q 988 4650 1302 4700 
Q 1616 4750 1894 4750 
Q 2613 4750 3031 4423 
Q 3450 4097 3450 3541 
Q 3450 3153 3228 2886 
Q 3006 2619 2597 2516 
z
" transform="scale(0.015625)"/>
       </defs>
       <use xlink:href="#DejaVuSans-30"/>
       <use xlink:href="#DejaVuSans-2e" x="63.623047"/>
       <use xlink:href="#DejaVuSans-30" x="95.410156"/>
       <use xlink:href="#DejaVuSans-33" x="159.033203"/>
       <use xlink:href="#DejaVuSans-30" x="222.65625"/>
      </g>
     </g>
    </g>
    <g id="ytick_8">
     <g id="line2d_13">
      <g>
       <use xlink:href="#ma439191ccb" x="56.50625" y="16.106931" style="stroke: #000000; stroke-width: 0.8"/>
      </g>
     </g>
     <g id="text_14">
      <!-- 0.035 -->
      <g transform="translate(20.878125 19.906149) scale(0.1 -0.1)">
       <use xlink:href="#DejaVuSans-30"/>
       <use xlink:href="#DejaVuSans-2e" x="63.623047"/>
       <use xlink:href="#DejaVuSans-30" x="95.410156"/>
       <use xlink:href="#DejaVuSans-33" x="159.033203"/>
       <use xlink:href="#DejaVuSans-35" x="222.65625"/>
      </g>
     </g>
    </g>
    <g id="text_15">
     <!-- [dimensionless] -->
     <g transform="translate(14.798438 164.246719) rotate(-90) scale(0.1 -0.1)">
      <defs>
       <path id="DejaVuSans-64" d="M 2906 2969 
L 2906 4863 
L 3481 4863 
L 3481 0 
L 2906 0 
L 2906 525 
Q 2725 213 2448 61 
Q 2172 -91 1784 -91 
Q 1150 -91 751 415 
Q 353 922 353 1747 
Q 353 2572 751 3078 
Q 1150 3584 1784 3584 
Q 2172 3584 2448 3432 
Q 2725 3281 2906 2969 
z
M 947 1747 
Q 947 1113 1208 752 
Q 1469 391 1925 391 
Q 2381 391 2643 752 
Q 2906 1113 2906 1747 
Q 2906 2381 2643 2742 
Q 2381 3103 1925 3103 
Q 1469 3103 1208 2742 
Q 947 2381 947 1747 
z
" transform="scale(0.015625)"/>
       <path id="DejaVuSans-69" d="M 603 3500 
L 1178 3500 
L 1178 0 
L 603 0 
L 603 3500 
z
M 603 4863 
L 1178 4863 
L 1178 4134 
L 603 4134 
L 603 4863 
z
" transform="scale(0.015625)"/>
       <path id="DejaVuSans-6f" d="M 1959 3097 
Q 1497 3097 1228 2736 
Q 959 2375 959 1747 
Q 959 1119 1226 758 
Q 1494 397 1959 397 
Q 2419 397 2687 759 
Q 2956 1122 2956 1747 
Q 2956 2369 2687 2733 
Q 2419 3097 1959 3097 
z
M 1959 3584 
Q 2709 3584 3137 3096 
Q 3566 2609 3566 1747 
Q 3566 888 3137 398 
Q 2709 -91 1959 -91 
Q 1206 -91 779 398 
Q 353 888 353 1747 
Q 353 2609 779 3096 
Q 1206 3584 1959 3584 
z
" transform="scale(0.015625)"/>
       <path id="DejaVuSans-6c" d="M 603 4863 
L 1178 4863 
L 1178 0 
L 603 0 
L 603 4863 
z
" transform="scale(0.015625)"/>
      </defs>
      <use xlink:href="#DejaVuSans-5b"/>
      <use xlink:href="#DejaVuSans-64" x="39.013672"/>
      <use xlink:href="#DejaVuSans-69" x="102.490234"/>
      <use xlink:href="#DejaVuSans-6d" x="130.273438"/>
      <use xlink:href="#DejaVuSans-65" x="227.685547"/>
      <use xlink:href="#DejaVuSans-6e" x="289.208984"/>
      <use xlink:href="#DejaVuSans-73" x="352.587891"/>
      <use xlink:href="#DejaVuSans-69" x="404.6875"/>
      <use xlink:href="#DejaVuSans-6f" x="432.470703"/>
      <use xlink:href="#DejaVuSans-6e" x="493.652344"/>
      <use xlink:href="#DejaVuSans-6c" x="557.03125"/>
      <use xlink:href="#DejaVuSans-65" x="584.814453"/>
      <use xlink:href="#DejaVuSans-73" x="646.337891"/>
      <use xlink:href="#DejaVuSans-73" x="698.4375"/>
      <use xlink:href="#DejaVuSans-5d" x="750.537109"/>
     </g>
    </g>
   </g>
   <g id="patch_3">
    <path d="M 56.50625 242.33875 
L 56.50625 7.2 
" style="fill: none; stroke: #000000; stroke-width: 0.8; stroke-linejoin: miter; stroke-linecap: square"/>
   </g>
   <g id="patch_4">
    <path d="M 414.622606 242.33875 
L 414.622606 7.2 
" style="fill: none; stroke: #000000; stroke-width: 0.8; stroke-linejoin: miter; stroke-linecap: square"/>
   </g>
   <g id="patch_5">
    <path d="M 56.50625 242.33875 
L 414.622606 242.33875 
" style="fill: none; stroke: #000000; stroke-width: 0.8; stroke-linejoin: miter; stroke-linecap: square"/>
   </g>
   <g id="patch_6">
    <path d="M 56.50625 7.2 
L 414.622606 7.2 
" style="fill: none; stroke: #000000; stroke-width: 0.8; stroke-linejoin: miter; stroke-linecap: square"/>
   </g>
   <g id="legend_1">
    <g id="patch_7">
     <path d="M 230.403856 45.1125 
L 407.622606 45.1125 
Q 409.622606 45.1125 409.622606 43.1125 
L 409.622606 14.2 
Q 409.622606 12.2 407.622606 12.2 
L 230.403856 12.2 
Q 228.403856 12.2 228.403856 14.2 
L 228.403856 43.1125 
Q 228.403856 45.1125 230.403856 45.1125 
z
" style="fill: #ffffff; opacity: 0.8; stroke: #cccccc; stroke-linejoin: miter"/>
    </g>
    <g id="line2d_14">
     <path d="M 232.403856 20.298437 
L 232.403856 20.298437 
L 242.403856 20.298437 
L 242.403856 20.298437 
L 252.403856 20.298437 
" style="fill: none; stroke: #1f77b4; stroke-width: 1.5; stroke-linecap: square"/>
    </g>
    <g id="text_16">
     <!-- known_quasi_elastic_1_pulse -->
     <g transform="translate(260.403856 23.798437) scale(0.1 -0.1)">
      <defs>
       <path id="DejaVuSans-6b" d="M 581 4863 
L 1159 4863 
L 1159 1991 
L 2875 3500 
L 3609 3500 
L 1753 1863 
L 3688 0 
L 2938 0 
L 1159 1709 
L 1159 0 
L 581 0 
L 581 4863 
z
" transform="scale(0.015625)"/>
       <path id="DejaVuSans-77" d="M 269 3500 
L 844 3500 
L 1563 769 
L 2278 3500 
L 2956 3500 
L 3675 769 
L 4391 3500 
L 4966 3500 
L 4050 0 
L 3372 0 
L 2619 2869 
L 1863 0 
L 1184 0 
L 269 3500 
z
" transform="scale(0.015625)"/>
       <path id="DejaVuSans-71" d="M 947 1747 
Q 947 1113 1208 752 
Q 1469 391 1925 391 
Q 2381 391 2643 752 
Q 2906 1113 2906 1747 
Q 2906 2381 2643 2742 
Q 2381 3103 1925 3103 
Q 1469 3103 1208 2742 
Q 947 2381 947 1747 
z
M 2906 525 
Q 2725 213 2448 61 
Q 2172 -91 1784 -91 
Q 1150 -91 751 415 
Q 353 922 353 1747 
Q 353 2572 751 3078 
Q 1150 3584 1784 3584 
Q 2172 3584 2448 3432 
Q 2725 3281 2906 2969 
L 2906 3500 
L 3481 3500 
L 3481 -1331 
L 2906 -1331 
L 2906 525 
z
" transform="scale(0.015625)"/>
       <path id="DejaVuSans-75" d="M 544 1381 
L 544 3500 
L 1119 3500 
L 1119 1403 
Q 1119 906 1312 657 
Q 1506 409 1894 409 
Q 2359 409 2629 706 
Q 2900 1003 2900 1516 
L 2900 3500 
L 3475 3500 
L 3475 0 
L 2900 0 
L 2900 538 
Q 2691 219 2414 64 
Q 2138 -91 1772 -91 
Q 1169 -91 856 284 
Q 544 659 544 1381 
z
M 1991 3584 
L 1991 3584 
z
" transform="scale(0.015625)"/>
       <path id="DejaVuSans-63" d="M 3122 3366 
L 3122 2828 
Q 2878 2963 2633 3030 
Q 2388 3097 2138 3097 
Q 1578 3097 1268 2742 
Q 959 2388 959 1747 
Q 959 1106 1268 751 
Q 1578 397 2138 397 
Q 2388 397 2633 464 
Q 2878 531 3122 666 
L 3122 134 
Q 2881 22 2623 -34 
Q 2366 -91 2075 -91 
Q 1284 -91 818 406 
Q 353 903 353 1747 
Q 353 2603 823 3093 
Q 1294 3584 2113 3584 
Q 2378 3584 2631 3529 
Q 2884 3475 3122 3366 
z
" transform="scale(0.015625)"/>
       <path id="DejaVuSans-70" d="M 1159 525 
L 1159 -1331 
L 581 -1331 
L 581 3500 
L 1159 3500 
L 1159 2969 
Q 1341 3281 1617 3432 
Q 1894 3584 2278 3584 
Q 2916 3584 3314 3078 
Q 3713 2572 3713 1747 
Q 3713 922 3314 415 
Q 2916 -91 2278 -91 
Q 1894 -91 1617 61 
Q 1341 213 1159 525 
z
M 3116 1747 
Q 3116 2381 2855 2742 
Q 2594 3103 2138 3103 
Q 1681 3103 1420 2742 
Q 1159 2381 1159 1747 
Q 1159 1113 1420 752 
Q 1681 391 2138 391 
Q 2594 391 2855 752 
Q 3116 1113 3116 1747 
z
" transform="scale(0.015625)"/>
      </defs>
      <use xlink:href="#DejaVuSans-6b"/>
      <use xlink:href="#DejaVuSans-6e" x="57.910156"/>
      <use xlink:href="#DejaVuSans-6f" x="121.289062"/>
      <use xlink:href="#DejaVuSans-77" x="182.470703"/>
      <use xlink:href="#DejaVuSans-6e" x="264.257812"/>
      <use xlink:href="#DejaVuSans-5f" x="327.636719"/>
      <use xlink:href="#DejaVuSans-71" x="377.636719"/>
      <use xlink:href="#DejaVuSans-75" x="441.113281"/>
      <use xlink:href="#DejaVuSans-61" x="504.492188"/>
      <use xlink:href="#DejaVuSans-73" x="565.771484"/>
      <use xlink:href="#DejaVuSans-69" x="617.871094"/>
      <use xlink:href="#DejaVuSans-5f" x="645.654297"/>
      <use xlink:href="#DejaVuSans-65" x="695.654297"/>
      <use xlink:href="#DejaVuSans-6c" x="757.177734"/>
      <use xlink:href="#DejaVuSans-61" x="784.960938"/>
      <use xlink:href="#DejaVuSans-73" x="846.240234"/>
      <use xlink:href="#DejaVuSans-74" x="898.339844"/>
      <use xlink:href="#DejaVuSans-69" x="937.548828"/>
      <use xlink:href="#DejaVuSans-63" x="965.332031"/>
      <use xlink:href="#DejaVuSans-5f" x="1020.3125"/>
      <use xlink:href="#DejaVuSans-31" x="1070.3125"/>
      <use xlink:href="#DejaVuSans-5f" x="1133.935547"/>
      <use xlink:href="#DejaVuSans-70" x="1183.935547"/>
      <use xlink:href="#DejaVuSans-75" x="1247.412109"/>
      <use xlink:href="#DejaVuSans-6c" x="1310.791016"/>
      <use xlink:href="#DejaVuSans-73" x="1338.574219"/>
      <use xlink:href="#DejaVuSans-65" x="1390.673828"/>
     </g>
    </g>
    <g id="line2d_15">
     <path d="M 232.403856 35.254687 
L 232.403856 35.254687 
L 242.403856 35.254687 
L 242.403856 35.254687 
L 252.403856 35.254687 
" style="fill: none; stroke: #ff7f0e; stroke-width: 1.5; stroke-linecap: square"/>
    </g>
    <g id="text_17">
     <!-- known_quasi_elastic_3_pulse -->
     <g transform="translate(260.403856 38.754687) scale(0.1 -0.1)">
      <use xlink:href="#DejaVuSans-6b"/>
      <use xlink:href="#DejaVuSans-6e" x="57.910156"/>
      <use xlink:href="#DejaVuSans-6f" x="121.289062"/>
      <use xlink:href="#DejaVuSans-77" x="182.470703"/>
      <use xlink:href="#DejaVuSans-6e" x="264.257812"/>
      <use xlink:href="#DejaVuSans-5f" x="327.636719"/>
      <use xlink:href="#DejaVuSans-71" x="377.636719"/>
      <use xlink:href="#DejaVuSans-75" x="441.113281"/>
      <use xlink:href="#DejaVuSans-61" x="504.492188"/>
      <use xlink:href="#DejaVuSans-73" x="565.771484"/>
      <use xlink:href="#DejaVuSans-69" x="617.871094"/>
      <use xlink:href="#DejaVuSans-5f" x="645.654297"/>
      <use xlink:href="#DejaVuSans-65" x="695.654297"/>
      <use xlink:href="#DejaVuSans-6c" x="757.177734"/>
      <use xlink:href="#DejaVuSans-61" x="784.960938"/>
      <use xlink:href="#DejaVuSans-73" x="846.240234"/>
      <use xlink:href="#DejaVuSans-74" x="898.339844"/>
      <use xlink:href="#DejaVuSans-69" x="937.548828"/>
      <use xlink:href="#DejaVuSans-63" x="965.332031"/>
      <use xlink:href="#DejaVuSans-5f" x="1020.3125"/>
      <use xlink:href="#DejaVuSans-33" x="1070.3125"/>
      <use xlink:href="#DejaVuSans-5f" x="1133.935547"/>
      <use xlink:href="#DejaVuSans-70" x="1183.935547"/>
      <use xlink:href="#DejaVuSans-75" x="1247.412109"/>
      <use xlink:href="#DejaVuSans-6c" x="1310.791016"/>
      <use xlink:href="#DejaVuSans-73" x="1338.574219"/>
      <use xlink:href="#DejaVuSans-65" x="1390.673828"/>
     </g>
    </g>
   </g>
   <g id="line2d_16">
    <path d="M 67.752955 231.600676 
L 75.250758 231.600673 
L 75.250758 229.433516 
L 76.750318 229.433516 
L 76.750318 227.110018 
L 78.249879 227.110018 
L 78.249879 223.520947 
L 79.749439 223.520947 
L 79.749439 228.14399 
L 81.249 228.14399 
L 81.249 224.698257 
L 82.748561 224.698257 
L 82.748561 222.180444 
L 84.248121 222.180444 
L 84.248121 224.85299 
L 85.747682 224.85299 
L 85.747682 223.351536 
L 87.247242 223.351536 
L 87.247242 223.522746 
L 88.746803 223.522746 
L 88.746803 222.655063 
L 90.246364 222.655063 
L 90.246364 219.881925 
L 91.745924 219.881925 
L 91.745924 227.958398 
L 93.245485 227.958398 
L 93.245485 226.068372 
L 94.745045 226.068372 
L 94.745045 222.401708 
L 96.244606 222.401708 
L 96.244606 226.354135 
L 97.744167 226.354135 
L 97.744167 227.773792 
L 99.243727 227.773792 
L 99.243727 222.56289 
L 100.743288 222.56289 
L 100.743288 224.840766 
L 102.242848 224.840766 
L 102.242848 218.233198 
L 103.742409 218.233198 
L 103.742409 217.143603 
L 105.24197 217.143603 
L 105.24197 218.793693 
L 106.74153 218.793693 
L 106.74153 223.34544 
L 108.241091 223.34544 
L 108.241091 220.953484 
L 109.740651 220.953484 
L 109.740651 226.573311 
L 111.240212 226.573311 
L 111.240212 226.793224 
L 112.739773 226.793224 
L 112.739773 225.685285 
L 114.239333 225.685285 
L 114.239333 216.950876 
L 115.738894 216.950876 
L 115.738894 216.57352 
L 117.238454 216.57352 
L 117.238454 219.860821 
L 118.738015 219.860821 
L 118.738015 214.330188 
L 120.237576 214.330188 
L 120.237576 221.31776 
L 121.737136 221.31776 
L 121.737136 217.093055 
L 123.236697 217.093055 
L 123.236697 216.840356 
L 124.736257 216.840356 
L 124.736257 207.064783 
L 126.235818 207.064783 
L 126.235818 208.130461 
L 127.735379 208.130461 
L 127.735379 219.569172 
L 129.234939 219.569172 
L 129.234939 218.674734 
L 130.7345 218.674734 
L 130.7345 212.232784 
L 132.23406 212.232784 
L 132.23406 217.951516 
L 133.733621 217.951516 
L 133.733621 214.800384 
L 135.233182 214.800384 
L 135.233182 220.861193 
L 136.732742 220.861193 
L 136.732742 202.093139 
L 138.232303 202.093139 
L 138.232303 211.705922 
L 139.731864 211.705922 
L 139.731864 208.997695 
L 141.231424 208.997695 
L 141.231424 215.941676 
L 142.730985 215.941676 
L 142.730985 193.568421 
L 144.230545 193.568421 
L 144.230545 212.811676 
L 145.730106 212.811676 
L 145.730106 195.444322 
L 147.229667 195.444322 
L 147.229667 192.306207 
L 148.729227 192.306207 
L 148.729227 193.085569 
L 150.228788 193.085569 
L 150.228788 198.214242 
L 151.728348 198.214242 
L 151.728348 188.506698 
L 153.227909 188.506698 
L 153.227909 192.748001 
L 154.72747 192.748001 
L 154.72747 174.24929 
L 156.22703 174.24929 
L 156.22703 178.946534 
L 157.726591 178.946534 
L 157.726591 152.567945 
L 159.226151 152.567945 
L 159.226151 140.75313 
L 160.725712 140.75313 
L 160.725712 152.714155 
L 162.225273 152.714155 
L 162.225273 142.684768 
L 163.724833 142.684768 
L 163.724833 152.87183 
L 165.224394 152.87183 
L 165.224394 149.366465 
L 166.723954 149.366465 
L 166.723954 120.495376 
L 168.223515 120.495376 
L 168.223515 125.403268 
L 169.723076 125.403268 
L 169.723076 105.518996 
L 171.222636 105.518996 
L 171.222636 99.916117 
L 172.722197 99.916117 
L 172.722197 63.135672 
L 174.221757 63.135672 
L 174.221757 72.830892 
L 175.721318 72.830892 
L 175.721318 65.612576 
L 177.220879 65.612576 
L 177.220879 61.391942 
L 178.720439 61.391942 
L 178.720439 64.510737 
L 180.22 64.510737 
L 180.22 55.340381 
L 181.71956 55.340381 
L 181.71956 73.446794 
L 183.219121 73.446794 
L 183.219121 42.239049 
L 184.718682 42.239049 
L 184.718682 79.548 
L 186.218242 79.548 
L 186.218242 55.238057 
L 187.717803 55.238057 
L 187.717803 48.855465 
L 189.217363 48.855465 
L 189.217363 65.257752 
L 190.716924 65.257752 
L 190.716924 63.671926 
L 192.216485 63.671926 
L 192.216485 72.346671 
L 193.716045 72.346671 
L 193.716045 110.862611 
L 195.215606 110.862611 
L 195.215606 134.500212 
L 196.715166 134.500212 
L 196.715166 107.76199 
L 198.214727 107.76199 
L 198.214727 128.487304 
L 199.714288 128.487304 
L 199.714288 150.298321 
L 201.213848 150.298321 
L 201.213848 143.734869 
L 202.713409 143.734869 
L 202.713409 164.071729 
L 204.212969 164.071729 
L 204.212969 160.083744 
L 205.71253 160.083744 
L 205.71253 166.165181 
L 207.212091 166.165181 
L 207.212091 177.30865 
L 208.711651 177.30865 
L 208.711651 160.298959 
L 210.211212 160.298959 
L 210.211212 176.185279 
L 211.710772 176.185279 
L 211.710772 162.017362 
L 213.210333 162.017362 
L 213.210333 163.875194 
L 214.709894 163.875194 
L 214.709894 173.608867 
L 216.209454 173.608867 
L 216.209454 203.566572 
L 217.709015 203.566572 
L 217.709015 209.021432 
L 219.208576 209.021432 
L 219.208576 195.126168 
L 220.708136 195.126168 
L 220.708136 199.589555 
L 222.207697 199.589555 
L 222.207697 209.063237 
L 223.707257 209.063237 
L 223.707257 198.061515 
L 225.206818 198.061515 
L 225.206818 213.562563 
L 226.706379 213.562563 
L 226.706379 205.16235 
L 228.205939 205.16235 
L 228.205939 209.755371 
L 229.7055 209.755371 
L 229.7055 204.923103 
L 231.20506 204.923103 
L 231.20506 210.837844 
L 232.704621 210.837844 
L 232.704621 211.935438 
L 235.703742 211.868344 
L 235.703742 208.991853 
L 237.203303 208.991853 
L 237.203303 211.890448 
L 238.702863 211.890448 
L 238.702863 228.27726 
L 240.202424 228.27726 
L 240.202424 210.985131 
L 241.701985 210.985131 
L 241.701985 209.417332 
L 243.201545 209.417332 
L 243.201545 206.409073 
L 244.701106 206.409073 
L 244.701106 216.132834 
L 246.200666 216.132834 
L 246.200666 222.115149 
L 247.700227 222.115149 
L 247.700227 228.112094 
L 249.199788 228.112094 
L 249.199788 221.795397 
L 250.699348 221.795397 
L 250.699348 220.656288 
L 252.198909 220.656288 
L 252.198909 225.614644 
L 253.698469 225.614644 
L 253.698469 222.727973 
L 255.19803 222.727973 
L 255.19803 218.700162 
L 256.697591 218.700162 
L 256.697591 230.177895 
L 258.197151 230.177895 
L 258.197151 215.633551 
L 259.696712 215.633551 
L 259.696712 217.233567 
L 261.196272 217.233567 
L 261.196272 218.081009 
L 262.695833 218.081009 
L 262.695833 218.700708 
L 264.195394 218.700708 
L 264.195394 231.031742 
L 265.694954 231.031742 
L 265.694954 223.52831 
L 267.194515 223.52831 
L 267.194515 222.387826 
L 268.694075 222.387826 
L 268.694075 225.426426 
L 270.193636 225.426426 
L 270.193636 230.81759 
L 271.693197 230.81759 
L 271.693197 222.52466 
L 273.192757 222.52466 
L 273.192757 226.731915 
L 274.692318 226.731915 
L 274.692318 209.855608 
L 276.191878 209.855608 
L 276.191878 222.18744 
L 277.691439 222.18744 
L 277.691439 218.641097 
L 279.191 218.641097 
L 279.191 224.599776 
L 280.69056 224.599776 
L 280.69056 217.469873 
L 282.190121 217.469873 
L 282.190121 226.346371 
L 283.689681 226.346371 
L 283.689681 231.223139 
L 285.189242 231.223139 
L 285.189242 224.423373 
L 286.688803 224.423373 
L 286.688803 225.153125 
L 288.188363 225.153125 
L 288.188363 222.976157 
L 289.687924 222.976157 
L 289.687924 228.943601 
L 291.187484 228.943601 
L 291.187484 226.058075 
L 292.687045 226.058075 
L 292.687045 226.058075 
" clip-path="url(#p8d9b55fe2f)" style="fill: none; stroke: #1f77b4; stroke-width: 1.5; stroke-linecap: square"/>
   </g>
   <g id="LineCollection_1">
    <path d="M 68.502735 231.600676 
L 68.502735 231.600676 
" clip-path="url(#p8d9b55fe2f)" style="fill: none; stroke: #1f77b4; stroke-width: 1.5"/>
    <path d="M 70.002295 231.600679 
L 70.002295 231.600674 
" clip-path="url(#p8d9b55fe2f)" style="fill: none; stroke: #1f77b4; stroke-width: 1.5"/>
    <path d="M 71.501856 231.601526 
L 71.501856 231.599826 
" clip-path="url(#p8d9b55fe2f)" style="fill: none; stroke: #1f77b4; stroke-width: 1.5"/>
    <path d="M 73.001417 231.600916 
L 73.001417 231.600437 
" clip-path="url(#p8d9b55fe2f)" style="fill: none; stroke: #1f77b4; stroke-width: 1.5"/>
    <path d="M 74.500977 231.602792 
L 74.500977 231.598554 
" clip-path="url(#p8d9b55fe2f)" style="fill: none; stroke: #1f77b4; stroke-width: 1.5"/>
    <path d="M 76.000538 231.099615 
L 76.000538 227.767417 
" clip-path="url(#p8d9b55fe2f)" style="fill: none; stroke: #1f77b4; stroke-width: 1.5"/>
    <path d="M 77.500098 229.508355 
L 77.500098 224.711681 
" clip-path="url(#p8d9b55fe2f)" style="fill: none; stroke: #1f77b4; stroke-width: 1.5"/>
    <path d="M 78.999659 226.737966 
L 78.999659 220.303928 
" clip-path="url(#p8d9b55fe2f)" style="fill: none; stroke: #1f77b4; stroke-width: 1.5"/>
    <path d="M 80.49922 230.248182 
L 80.49922 226.039799 
" clip-path="url(#p8d9b55fe2f)" style="fill: none; stroke: #1f77b4; stroke-width: 1.5"/>
    <path d="M 81.99878 227.671674 
L 81.99878 221.724839 
" clip-path="url(#p8d9b55fe2f)" style="fill: none; stroke: #1f77b4; stroke-width: 1.5"/>
    <path d="M 83.498341 225.654094 
L 83.498341 218.706794 
" clip-path="url(#p8d9b55fe2f)" style="fill: none; stroke: #1f77b4; stroke-width: 1.5"/>
    <path d="M 84.997901 227.792891 
L 84.997901 221.913089 
" clip-path="url(#p8d9b55fe2f)" style="fill: none; stroke: #1f77b4; stroke-width: 1.5"/>
    <path d="M 86.497462 226.602107 
L 86.497462 220.100966 
" clip-path="url(#p8d9b55fe2f)" style="fill: none; stroke: #1f77b4; stroke-width: 1.5"/>
    <path d="M 87.997023 226.739407 
L 87.997023 220.306085 
" clip-path="url(#p8d9b55fe2f)" style="fill: none; stroke: #1f77b4; stroke-width: 1.5"/>
    <path d="M 89.496583 226.040076 
L 89.496583 219.27005 
" clip-path="url(#p8d9b55fe2f)" style="fill: none; stroke: #1f77b4; stroke-width: 1.5"/>
    <path d="M 90.996144 223.756249 
L 90.996144 216.007601 
" clip-path="url(#p8d9b55fe2f)" style="fill: none; stroke: #1f77b4; stroke-width: 1.5"/>
    <path d="M 92.495704 230.118339 
L 92.495704 225.798457 
" clip-path="url(#p8d9b55fe2f)" style="fill: none; stroke: #1f77b4; stroke-width: 1.5"/>
    <path d="M 93.995265 228.730373 
L 93.995265 223.40637 
" clip-path="url(#p8d9b55fe2f)" style="fill: none; stroke: #1f77b4; stroke-width: 1.5"/>
    <path d="M 95.494826 225.834321 
L 95.494826 218.969096 
" clip-path="url(#p8d9b55fe2f)" style="fill: none; stroke: #1f77b4; stroke-width: 1.5"/>
    <path d="M 96.994386 228.946474 
L 96.994386 223.761796 
" clip-path="url(#p8d9b55fe2f)" style="fill: none; stroke: #1f77b4; stroke-width: 1.5"/>
    <path d="M 98.493947 229.987794 
L 98.493947 225.559791 
" clip-path="url(#p8d9b55fe2f)" style="fill: none; stroke: #1f77b4; stroke-width: 1.5"/>
    <path d="M 99.993508 225.965297 
L 99.993508 219.160483 
" clip-path="url(#p8d9b55fe2f)" style="fill: none; stroke: #1f77b4; stroke-width: 1.5"/>
    <path d="M 101.493068 227.783329 
L 101.493068 221.898204 
" clip-path="url(#p8d9b55fe2f)" style="fill: none; stroke: #1f77b4; stroke-width: 1.5"/>
    <path d="M 102.992629 222.371098 
L 102.992629 214.095298 
" clip-path="url(#p8d9b55fe2f)" style="fill: none; stroke: #1f77b4; stroke-width: 1.5"/>
    <path d="M 104.492189 221.446841 
L 104.492189 212.840364 
" clip-path="url(#p8d9b55fe2f)" style="fill: none; stroke: #1f77b4; stroke-width: 1.5"/>
    <path d="M 105.99175 222.843914 
L 105.99175 214.743473 
" clip-path="url(#p8d9b55fe2f)" style="fill: none; stroke: #1f77b4; stroke-width: 1.5"/>
    <path d="M 107.491311 226.597211 
L 107.491311 220.093668 
" clip-path="url(#p8d9b55fe2f)" style="fill: none; stroke: #1f77b4; stroke-width: 1.5"/>
    <path d="M 108.990871 224.646428 
L 108.990871 217.260539 
" clip-path="url(#p8d9b55fe2f)" style="fill: none; stroke: #1f77b4; stroke-width: 1.5"/>
    <path d="M 110.490432 229.110924 
L 110.490432 224.035698 
" clip-path="url(#p8d9b55fe2f)" style="fill: none; stroke: #1f77b4; stroke-width: 1.5"/>
    <path d="M 111.989992 229.274715 
L 111.989992 224.311732 
" clip-path="url(#p8d9b55fe2f)" style="fill: none; stroke: #1f77b4; stroke-width: 1.5"/>
    <path d="M 113.489553 228.437909 
L 113.489553 222.93266 
" clip-path="url(#p8d9b55fe2f)" style="fill: none; stroke: #1f77b4; stroke-width: 1.5"/>
    <path d="M 114.989114 221.282703 
L 114.989114 212.619049 
" clip-path="url(#p8d9b55fe2f)" style="fill: none; stroke: #1f77b4; stroke-width: 1.5"/>
    <path d="M 116.488674 220.960783 
L 116.488674 212.186257 
" clip-path="url(#p8d9b55fe2f)" style="fill: none; stroke: #1f77b4; stroke-width: 1.5"/>
    <path d="M 117.988235 223.738631 
L 117.988235 215.98301 
" clip-path="url(#p8d9b55fe2f)" style="fill: none; stroke: #1f77b4; stroke-width: 1.5"/>
    <path d="M 119.487795 219.03354 
L 119.487795 209.626835 
" clip-path="url(#p8d9b55fe2f)" style="fill: none; stroke: #1f77b4; stroke-width: 1.5"/>
    <path d="M 120.987356 224.946981 
L 120.987356 217.688539 
" clip-path="url(#p8d9b55fe2f)" style="fill: none; stroke: #1f77b4; stroke-width: 1.5"/>
    <path d="M 122.486917 221.40381 
L 122.486917 212.7823 
" clip-path="url(#p8d9b55fe2f)" style="fill: none; stroke: #1f77b4; stroke-width: 1.5"/>
    <path d="M 123.986477 221.188492 
L 123.986477 212.49222 
" clip-path="url(#p8d9b55fe2f)" style="fill: none; stroke: #1f77b4; stroke-width: 1.5"/>
    <path d="M 125.486038 212.670822 
L 125.486038 201.458743 
" clip-path="url(#p8d9b55fe2f)" style="fill: none; stroke: #1f77b4; stroke-width: 1.5"/>
    <path d="M 126.985598 213.613405 
L 126.985598 202.647518 
" clip-path="url(#p8d9b55fe2f)" style="fill: none; stroke: #1f77b4; stroke-width: 1.5"/>
    <path d="M 128.485159 223.494855 
L 128.485159 215.643489 
" clip-path="url(#p8d9b55fe2f)" style="fill: none; stroke: #1f77b4; stroke-width: 1.5"/>
    <path d="M 129.98472 222.743721 
L 129.98472 214.605746 
" clip-path="url(#p8d9b55fe2f)" style="fill: none; stroke: #1f77b4; stroke-width: 1.5"/>
    <path d="M 131.48428 217.213553 
L 131.48428 207.252014 
" clip-path="url(#p8d9b55fe2f)" style="fill: none; stroke: #1f77b4; stroke-width: 1.5"/>
    <path d="M 132.983841 222.132786 
L 132.983841 213.770246 
" clip-path="url(#p8d9b55fe2f)" style="fill: none; stroke: #1f77b4; stroke-width: 1.5"/>
    <path d="M 134.483401 219.43927 
L 134.483401 210.161498 
" clip-path="url(#p8d9b55fe2f)" style="fill: none; stroke: #1f77b4; stroke-width: 1.5"/>
    <path d="M 135.982962 224.570109 
L 135.982962 217.152278 
" clip-path="url(#p8d9b55fe2f)" style="fill: none; stroke: #1f77b4; stroke-width: 1.5"/>
    <path d="M 137.482523 208.240967 
L 137.482523 195.945311 
" clip-path="url(#p8d9b55fe2f)" style="fill: none; stroke: #1f77b4; stroke-width: 1.5"/>
    <path d="M 138.982083 216.753982 
L 138.982083 206.657862 
" clip-path="url(#p8d9b55fe2f)" style="fill: none; stroke: #1f77b4; stroke-width: 1.5"/>
    <path d="M 140.481644 214.378386 
L 140.481644 203.617003 
" clip-path="url(#p8d9b55fe2f)" style="fill: none; stroke: #1f77b4; stroke-width: 1.5"/>
    <path d="M 141.981204 220.420224 
L 141.981204 211.463127 
" clip-path="url(#p8d9b55fe2f)" style="fill: none; stroke: #1f77b4; stroke-width: 1.5"/>
    <path d="M 143.480765 200.548033 
L 143.480765 186.588809 
" clip-path="url(#p8d9b55fe2f)" style="fill: none; stroke: #1f77b4; stroke-width: 1.5"/>
    <path d="M 144.980326 217.717445 
L 144.980326 207.905907 
" clip-path="url(#p8d9b55fe2f)" style="fill: none; stroke: #1f77b4; stroke-width: 1.5"/>
    <path d="M 146.479886 202.249627 
L 146.479886 188.639018 
" clip-path="url(#p8d9b55fe2f)" style="fill: none; stroke: #1f77b4; stroke-width: 1.5"/>
    <path d="M 147.979447 199.400694 
L 147.979447 185.211721 
" clip-path="url(#p8d9b55fe2f)" style="fill: none; stroke: #1f77b4; stroke-width: 1.5"/>
    <path d="M 149.479007 200.109348 
L 149.479007 186.061791 
" clip-path="url(#p8d9b55fe2f)" style="fill: none; stroke: #1f77b4; stroke-width: 1.5"/>
    <path d="M 150.978568 204.753678 
L 150.978568 191.674807 
" clip-path="url(#p8d9b55fe2f)" style="fill: none; stroke: #1f77b4; stroke-width: 1.5"/>
    <path d="M 152.478129 195.936266 
L 152.478129 181.07713 
" clip-path="url(#p8d9b55fe2f)" style="fill: none; stroke: #1f77b4; stroke-width: 1.5"/>
    <path d="M 153.977689 199.802493 
L 153.977689 185.69351 
" clip-path="url(#p8d9b55fe2f)" style="fill: none; stroke: #1f77b4; stroke-width: 1.5"/>
    <path d="M 155.47725 182.820205 
L 155.47725 165.678374 
" clip-path="url(#p8d9b55fe2f)" style="fill: none; stroke: #1f77b4; stroke-width: 1.5"/>
    <path d="M 156.97681 187.15896 
L 156.97681 170.734107 
" clip-path="url(#p8d9b55fe2f)" style="fill: none; stroke: #1f77b4; stroke-width: 1.5"/>
    <path d="M 158.476371 162.629353 
L 158.476371 142.506538 
" clip-path="url(#p8d9b55fe2f)" style="fill: none; stroke: #1f77b4; stroke-width: 1.5"/>
    <path d="M 159.975932 151.540408 
L 159.975932 129.965853 
" clip-path="url(#p8d9b55fe2f)" style="fill: none; stroke: #1f77b4; stroke-width: 1.5"/>
    <path d="M 161.475492 162.766252 
L 161.475492 142.662059 
" clip-path="url(#p8d9b55fe2f)" style="fill: none; stroke: #1f77b4; stroke-width: 1.5"/>
    <path d="M 162.975053 153.356747 
L 162.975053 132.012789 
" clip-path="url(#p8d9b55fe2f)" style="fill: none; stroke: #1f77b4; stroke-width: 1.5"/>
    <path d="M 164.474613 162.913875 
L 164.474613 142.829784 
" clip-path="url(#p8d9b55fe2f)" style="fill: none; stroke: #1f77b4; stroke-width: 1.5"/>
    <path d="M 165.974174 159.629634 
L 165.974174 139.103295 
" clip-path="url(#p8d9b55fe2f)" style="fill: none; stroke: #1f77b4; stroke-width: 1.5"/>
    <path d="M 167.473735 132.424887 
L 167.473735 108.565865 
" clip-path="url(#p8d9b55fe2f)" style="fill: none; stroke: #1f77b4; stroke-width: 1.5"/>
    <path d="M 168.973295 137.06632 
L 168.973295 113.740217 
" clip-path="url(#p8d9b55fe2f)" style="fill: none; stroke: #1f77b4; stroke-width: 1.5"/>
    <path d="M 170.472856 118.227114 
L 170.472856 92.810878 
" clip-path="url(#p8d9b55fe2f)" style="fill: none; stroke: #1f77b4; stroke-width: 1.5"/>
    <path d="M 171.972416 112.903531 
L 171.972416 86.928704 
" clip-path="url(#p8d9b55fe2f)" style="fill: none; stroke: #1f77b4; stroke-width: 1.5"/>
    <path d="M 173.471977 77.825276 
L 173.471977 48.446068 
" clip-path="url(#p8d9b55fe2f)" style="fill: none; stroke: #1f77b4; stroke-width: 1.5"/>
    <path d="M 174.971538 87.091537 
L 174.971538 58.570247 
" clip-path="url(#p8d9b55fe2f)" style="fill: none; stroke: #1f77b4; stroke-width: 1.5"/>
    <path d="M 176.471098 80.193791 
L 176.471098 51.03136 
" clip-path="url(#p8d9b55fe2f)" style="fill: none; stroke: #1f77b4; stroke-width: 1.5"/>
    <path d="M 177.970659 76.157374 
L 177.970659 46.62651 
" clip-path="url(#p8d9b55fe2f)" style="fill: none; stroke: #1f77b4; stroke-width: 1.5"/>
    <path d="M 179.47022 79.140268 
L 179.47022 49.881206 
" clip-path="url(#p8d9b55fe2f)" style="fill: none; stroke: #1f77b4; stroke-width: 1.5"/>
    <path d="M 180.96978 70.366004 
L 180.96978 40.314758 
" clip-path="url(#p8d9b55fe2f)" style="fill: none; stroke: #1f77b4; stroke-width: 1.5"/>
    <path d="M 182.469341 87.679752 
L 182.469341 59.213836 
" clip-path="url(#p8d9b55fe2f)" style="fill: none; stroke: #1f77b4; stroke-width: 1.5"/>
    <path d="M 183.968901 57.813087 
L 183.968901 26.665011 
" clip-path="url(#p8d9b55fe2f)" style="fill: none; stroke: #1f77b4; stroke-width: 1.5"/>
    <path d="M 185.468462 93.503721 
L 185.468462 65.592279 
" clip-path="url(#p8d9b55fe2f)" style="fill: none; stroke: #1f77b4; stroke-width: 1.5"/>
    <path d="M 186.968023 70.268041 
L 186.968023 40.208073 
" clip-path="url(#p8d9b55fe2f)" style="fill: none; stroke: #1f77b4; stroke-width: 1.5"/>
    <path d="M 188.467583 64.155001 
L 188.467583 33.55593 
" clip-path="url(#p8d9b55fe2f)" style="fill: none; stroke: #1f77b4; stroke-width: 1.5"/>
    <path d="M 189.967144 79.854544 
L 189.967144 50.660961 
" clip-path="url(#p8d9b55fe2f)" style="fill: none; stroke: #1f77b4; stroke-width: 1.5"/>
    <path d="M 191.466704 78.338132 
L 191.466704 49.00572 
" clip-path="url(#p8d9b55fe2f)" style="fill: none; stroke: #1f77b4; stroke-width: 1.5"/>
    <path d="M 192.966265 86.629046 
L 192.966265 58.064296 
" clip-path="url(#p8d9b55fe2f)" style="fill: none; stroke: #1f77b4; stroke-width: 1.5"/>
    <path d="M 194.465826 123.298515 
L 194.465826 98.426708 
" clip-path="url(#p8d9b55fe2f)" style="fill: none; stroke: #1f77b4; stroke-width: 1.5"/>
    <path d="M 195.965386 145.652549 
L 195.965386 123.347874 
" clip-path="url(#p8d9b55fe2f)" style="fill: none; stroke: #1f77b4; stroke-width: 1.5"/>
    <path d="M 197.464947 120.356562 
L 197.464947 95.167418 
" clip-path="url(#p8d9b55fe2f)" style="fill: none; stroke: #1f77b4; stroke-width: 1.5"/>
    <path d="M 198.964507 139.979757 
L 198.964507 116.994851 
" clip-path="url(#p8d9b55fe2f)" style="fill: none; stroke: #1f77b4; stroke-width: 1.5"/>
    <path d="M 200.464068 160.503175 
L 200.464068 140.093467 
" clip-path="url(#p8d9b55fe2f)" style="fill: none; stroke: #1f77b4; stroke-width: 1.5"/>
    <path d="M 201.963629 154.343642 
L 201.963629 133.126095 
" clip-path="url(#p8d9b55fe2f)" style="fill: none; stroke: #1f77b4; stroke-width: 1.5"/>
    <path d="M 203.463189 173.372099 
L 203.463189 154.771359 
" clip-path="url(#p8d9b55fe2f)" style="fill: none; stroke: #1f77b4; stroke-width: 1.5"/>
    <path d="M 204.96275 169.654796 
L 204.96275 150.512692 
" clip-path="url(#p8d9b55fe2f)" style="fill: none; stroke: #1f77b4; stroke-width: 1.5"/>
    <path d="M 206.46231 175.320257 
L 206.46231 157.010105 
" clip-path="url(#p8d9b55fe2f)" style="fill: none; stroke: #1f77b4; stroke-width: 1.5"/>
    <path d="M 207.961871 185.647829 
L 207.961871 168.969472 
" clip-path="url(#p8d9b55fe2f)" style="fill: none; stroke: #1f77b4; stroke-width: 1.5"/>
    <path d="M 209.461432 169.855599 
L 209.461432 150.742319 
" clip-path="url(#p8d9b55fe2f)" style="fill: none; stroke: #1f77b4; stroke-width: 1.5"/>
    <path d="M 210.960992 184.61029 
L 210.960992 167.760269 
" clip-path="url(#p8d9b55fe2f)" style="fill: none; stroke: #1f77b4; stroke-width: 1.5"/>
    <path d="M 212.460553 171.45814 
L 212.460553 152.576584 
" clip-path="url(#p8d9b55fe2f)" style="fill: none; stroke: #1f77b4; stroke-width: 1.5"/>
    <path d="M 213.960113 173.189088 
L 213.960113 154.5613 
" clip-path="url(#p8d9b55fe2f)" style="fill: none; stroke: #1f77b4; stroke-width: 1.5"/>
    <path d="M 215.459674 182.227504 
L 215.459674 164.990231 
" clip-path="url(#p8d9b55fe2f)" style="fill: none; stroke: #1f77b4; stroke-width: 1.5"/>
    <path d="M 216.959235 209.558941 
L 216.959235 197.574202 
" clip-path="url(#p8d9b55fe2f)" style="fill: none; stroke: #1f77b4; stroke-width: 1.5"/>
    <path d="M 218.458795 214.399298 
L 218.458795 203.643567 
" clip-path="url(#p8d9b55fe2f)" style="fill: none; stroke: #1f77b4; stroke-width: 1.5"/>
    <path d="M 219.958356 201.961348 
L 219.958356 188.290988 
" clip-path="url(#p8d9b55fe2f)" style="fill: none; stroke: #1f77b4; stroke-width: 1.5"/>
    <path d="M 221.457916 205.992882 
L 221.457916 193.186228 
" clip-path="url(#p8d9b55fe2f)" style="fill: none; stroke: #1f77b4; stroke-width: 1.5"/>
    <path d="M 222.957477 214.436122 
L 222.957477 203.690352 
" clip-path="url(#p8d9b55fe2f)" style="fill: none; stroke: #1f77b4; stroke-width: 1.5"/>
    <path d="M 224.457038 204.615891 
L 224.457038 191.507139 
" clip-path="url(#p8d9b55fe2f)" style="fill: none; stroke: #1f77b4; stroke-width: 1.5"/>
    <path d="M 225.956598 218.369305 
L 225.956598 208.755821 
" clip-path="url(#p8d9b55fe2f)" style="fill: none; stroke: #1f77b4; stroke-width: 1.5"/>
    <path d="M 227.456159 210.98167 
L 227.456159 199.343031 
" clip-path="url(#p8d9b55fe2f)" style="fill: none; stroke: #1f77b4; stroke-width: 1.5"/>
    <path d="M 228.955719 215.045111 
L 228.955719 204.465631 
" clip-path="url(#p8d9b55fe2f)" style="fill: none; stroke: #1f77b4; stroke-width: 1.5"/>
    <path d="M 230.45528 210.768694 
L 230.45528 199.077512 
" clip-path="url(#p8d9b55fe2f)" style="fill: none; stroke: #1f77b4; stroke-width: 1.5"/>
    <path d="M 231.954841 215.994861 
L 231.954841 205.680827 
" clip-path="url(#p8d9b55fe2f)" style="fill: none; stroke: #1f77b4; stroke-width: 1.5"/>
    <path d="M 233.454401 216.954295 
L 233.454401 206.916581 
" clip-path="url(#p8d9b55fe2f)" style="fill: none; stroke: #1f77b4; stroke-width: 1.5"/>
    <path d="M 234.953962 216.895755 
L 234.953962 206.840932 
" clip-path="url(#p8d9b55fe2f)" style="fill: none; stroke: #1f77b4; stroke-width: 1.5"/>
    <path d="M 236.453522 214.37324 
L 236.453522 203.610466 
" clip-path="url(#p8d9b55fe2f)" style="fill: none; stroke: #1f77b4; stroke-width: 1.5"/>
    <path d="M 237.953083 216.915043 
L 237.953083 206.865853 
" clip-path="url(#p8d9b55fe2f)" style="fill: none; stroke: #1f77b4; stroke-width: 1.5"/>
    <path d="M 239.452644 230.34049 
L 239.452644 226.21403 
" clip-path="url(#p8d9b55fe2f)" style="fill: none; stroke: #1f77b4; stroke-width: 1.5"/>
    <path d="M 240.952204 216.123824 
L 240.952204 205.846438 
" clip-path="url(#p8d9b55fe2f)" style="fill: none; stroke: #1f77b4; stroke-width: 1.5"/>
    <path d="M 242.451765 214.747842 
L 242.451765 204.086823 
" clip-path="url(#p8d9b55fe2f)" style="fill: none; stroke: #1f77b4; stroke-width: 1.5"/>
    <path d="M 243.951325 212.089528 
L 243.951325 200.728617 
" clip-path="url(#p8d9b55fe2f)" style="fill: none; stroke: #1f77b4; stroke-width: 1.5"/>
    <path d="M 245.450886 220.583962 
L 245.450886 211.681706 
" clip-path="url(#p8d9b55fe2f)" style="fill: none; stroke: #1f77b4; stroke-width: 1.5"/>
    <path d="M 246.950447 225.600817 
L 246.950447 218.629482 
" clip-path="url(#p8d9b55fe2f)" style="fill: none; stroke: #1f77b4; stroke-width: 1.5"/>
    <path d="M 248.450007 230.225971 
L 248.450007 225.998218 
" clip-path="url(#p8d9b55fe2f)" style="fill: none; stroke: #1f77b4; stroke-width: 1.5"/>
    <path d="M 249.949568 225.339328 
L 249.949568 218.251467 
" clip-path="url(#p8d9b55fe2f)" style="fill: none; stroke: #1f77b4; stroke-width: 1.5"/>
    <path d="M 251.449128 224.400418 
L 251.449128 216.912157 
" clip-path="url(#p8d9b55fe2f)" style="fill: none; stroke: #1f77b4; stroke-width: 1.5"/>
    <path d="M 252.948689 228.383656 
L 252.948689 222.845633 
" clip-path="url(#p8d9b55fe2f)" style="fill: none; stroke: #1f77b4; stroke-width: 1.5"/>
    <path d="M 254.44825 226.099163 
L 254.44825 219.356783 
" clip-path="url(#p8d9b55fe2f)" style="fill: none; stroke: #1f77b4; stroke-width: 1.5"/>
    <path d="M 255.94781 222.765145 
L 255.94781 214.635179 
" clip-path="url(#p8d9b55fe2f)" style="fill: none; stroke: #1f77b4; stroke-width: 1.5"/>
    <path d="M 257.447371 231.527866 
L 257.447371 228.827925 
" clip-path="url(#p8d9b55fe2f)" style="fill: none; stroke: #1f77b4; stroke-width: 1.5"/>
    <path d="M 258.946932 220.155947 
L 258.946932 211.111155 
" clip-path="url(#p8d9b55fe2f)" style="fill: none; stroke: #1f77b4; stroke-width: 1.5"/>
    <path d="M 260.446492 221.523396 
L 260.446492 212.943738 
" clip-path="url(#p8d9b55fe2f)" style="fill: none; stroke: #1f77b4; stroke-width: 1.5"/>
    <path d="M 261.946053 222.242397 
L 261.946053 213.91962 
" clip-path="url(#p8d9b55fe2f)" style="fill: none; stroke: #1f77b4; stroke-width: 1.5"/>
    <path d="M 263.445613 222.765605 
L 263.445613 214.635811 
" clip-path="url(#p8d9b55fe2f)" style="fill: none; stroke: #1f77b4; stroke-width: 1.5"/>
    <path d="M 264.945174 231.885405 
L 264.945174 230.178079 
" clip-path="url(#p8d9b55fe2f)" style="fill: none; stroke: #1f77b4; stroke-width: 1.5"/>
    <path d="M 266.444735 226.743863 
L 266.444735 220.312757 
" clip-path="url(#p8d9b55fe2f)" style="fill: none; stroke: #1f77b4; stroke-width: 1.5"/>
    <path d="M 267.944295 225.823028 
L 267.944295 218.952624 
" clip-path="url(#p8d9b55fe2f)" style="fill: none; stroke: #1f77b4; stroke-width: 1.5"/>
    <path d="M 269.443856 228.238634 
L 269.443856 222.614219 
" clip-path="url(#p8d9b55fe2f)" style="fill: none; stroke: #1f77b4; stroke-width: 1.5"/>
    <path d="M 270.943416 231.819111 
L 270.943416 229.816069 
" clip-path="url(#p8d9b55fe2f)" style="fill: none; stroke: #1f77b4; stroke-width: 1.5"/>
    <path d="M 272.442977 225.934255 
L 272.442977 219.115064 
" clip-path="url(#p8d9b55fe2f)" style="fill: none; stroke: #1f77b4; stroke-width: 1.5"/>
    <path d="M 273.942538 229.229179 
L 273.942538 224.23465 
" clip-path="url(#p8d9b55fe2f)" style="fill: none; stroke: #1f77b4; stroke-width: 1.5"/>
    <path d="M 275.442098 215.133198 
L 275.442098 204.578018 
" clip-path="url(#p8d9b55fe2f)" style="fill: none; stroke: #1f77b4; stroke-width: 1.5"/>
    <path d="M 276.941659 225.6598 
L 276.941659 218.71508 
" clip-path="url(#p8d9b55fe2f)" style="fill: none; stroke: #1f77b4; stroke-width: 1.5"/>
    <path d="M 278.441219 222.715375 
L 278.441219 214.566819 
" clip-path="url(#p8d9b55fe2f)" style="fill: none; stroke: #1f77b4; stroke-width: 1.5"/>
    <path d="M 279.94078 227.59433 
L 279.94078 221.605222 
" clip-path="url(#p8d9b55fe2f)" style="fill: none; stroke: #1f77b4; stroke-width: 1.5"/>
    <path d="M 281.440341 221.724276 
L 281.440341 213.215469 
" clip-path="url(#p8d9b55fe2f)" style="fill: none; stroke: #1f77b4; stroke-width: 1.5"/>
    <path d="M 282.939901 228.940627 
L 282.939901 223.752115 
" clip-path="url(#p8d9b55fe2f)" style="fill: none; stroke: #1f77b4; stroke-width: 1.5"/>
    <path d="M 284.439462 231.91854 
L 284.439462 230.527739 
" clip-path="url(#p8d9b55fe2f)" style="fill: none; stroke: #1f77b4; stroke-width: 1.5"/>
    <path d="M 285.939022 227.45542 
L 285.939022 221.391326 
" clip-path="url(#p8d9b55fe2f)" style="fill: none; stroke: #1f77b4; stroke-width: 1.5"/>
    <path d="M 287.438583 228.026899 
L 287.438583 222.27935 
" clip-path="url(#p8d9b55fe2f)" style="fill: none; stroke: #1f77b4; stroke-width: 1.5"/>
    <path d="M 288.938144 226.299863 
L 288.938144 219.65245 
" clip-path="url(#p8d9b55fe2f)" style="fill: none; stroke: #1f77b4; stroke-width: 1.5"/>
    <path d="M 290.437704 230.788434 
L 290.437704 227.098767 
" clip-path="url(#p8d9b55fe2f)" style="fill: none; stroke: #1f77b4; stroke-width: 1.5"/>
    <path d="M 291.937265 228.722552 
L 291.937265 223.393597 
" clip-path="url(#p8d9b55fe2f)" style="fill: none; stroke: #1f77b4; stroke-width: 1.5"/>
   </g>
   <g id="line2d_17">
    <path d="M 72.947723 229.988157 
L 74.447283 229.988157 
L 74.447283 228.139289 
L 75.946844 228.139289 
L 75.946844 227.221526 
L 77.446405 227.221526 
L 77.446405 227.835379 
L 78.945965 227.835379 
L 78.945965 225.657835 
L 80.445526 225.657835 
L 80.445526 224.453891 
L 81.945087 224.453891 
L 81.945087 226.846216 
L 83.444647 226.846216 
L 83.444647 227.808085 
L 84.944208 227.808085 
L 84.944208 225.137275 
L 86.443768 225.137275 
L 86.443768 227.28855 
L 87.943329 227.28855 
L 87.943329 223.363619 
L 89.44289 223.363619 
L 89.44289 227.599635 
L 90.94245 227.599635 
L 90.94245 227.994925 
L 92.442011 227.994925 
L 92.442011 222.434081 
L 93.941571 222.434081 
L 93.941571 223.27622 
L 95.441132 223.27622 
L 95.441132 226.509759 
L 96.940693 226.509759 
L 96.940693 224.191486 
L 98.440253 224.191486 
L 98.440253 225.114167 
L 99.939814 225.114167 
L 99.939814 224.09475 
L 101.439374 224.09475 
L 101.439374 222.840341 
L 102.938935 222.840341 
L 102.938935 224.902023 
L 105.938056 224.893684 
L 105.938056 222.072216 
L 107.437617 222.072216 
L 107.437617 223.644825 
L 108.937177 223.644825 
L 108.937177 224.867666 
L 110.436738 224.867666 
L 110.436738 219.822149 
L 111.936299 219.822149 
L 111.936299 220.583396 
L 113.435859 220.583396 
L 113.435859 221.707863 
L 114.93542 221.707863 
L 114.93542 224.78768 
L 116.43498 224.78768 
L 116.43498 221.174572 
L 117.934541 221.174572 
L 117.934541 222.194431 
L 119.434102 222.194431 
L 119.434102 220.462096 
L 120.933662 220.462096 
L 120.933662 222.473178 
L 122.433223 222.473178 
L 122.433223 213.617327 
L 123.932783 213.617327 
L 123.932783 212.227322 
L 125.432344 212.227322 
L 125.432344 217.843141 
L 126.931905 217.843141 
L 126.931905 219.210759 
L 128.431465 219.210759 
L 128.431465 209.5342 
L 129.931026 209.5342 
L 129.931026 218.284255 
L 131.430586 218.284255 
L 131.430586 212.813002 
L 132.930147 212.813002 
L 132.930147 220.677768 
L 134.429708 220.677768 
L 134.429708 211.714997 
L 135.929268 211.714997 
L 135.929268 211.994918 
L 137.428829 211.994918 
L 137.428829 202.464156 
L 138.928389 202.464156 
L 138.928389 200.378142 
L 140.42795 200.378142 
L 140.42795 207.806624 
L 141.927511 207.806624 
L 141.927511 210.804688 
L 143.427071 210.804688 
L 143.427071 207.526353 
L 144.926632 207.526353 
L 144.926632 198.384825 
L 146.426192 198.384825 
L 146.426192 195.992877 
L 147.925753 195.992877 
L 147.925753 200.016205 
L 149.425314 200.016205 
L 149.425314 194.248774 
L 150.924874 194.248774 
L 150.924874 187.622507 
L 152.424435 187.622507 
L 152.424435 181.17539 
L 153.923995 181.17539 
L 153.923995 179.915045 
L 155.423556 179.915045 
L 155.423556 182.373917 
L 156.923117 182.373917 
L 156.923117 173.011051 
L 159.922238 173.058171 
L 159.922238 174.163166 
L 161.421799 174.163166 
L 161.421799 151.216829 
L 162.921359 151.216829 
L 162.921359 158.549327 
L 164.42092 158.549327 
L 164.42092 149.889753 
L 165.92048 149.889753 
L 165.92048 142.361236 
L 167.420041 142.361236 
L 167.420041 134.418019 
L 168.919602 134.418019 
L 168.919602 108.086477 
L 170.419162 108.086477 
L 170.419162 105.808037 
L 171.918723 105.808037 
L 171.918723 98.152118 
L 173.418283 98.152118 
L 173.418283 94.480068 
L 174.917844 94.480068 
L 174.917844 56.014718 
L 176.417405 56.014718 
L 176.417405 50.164971 
L 177.916965 50.164971 
L 177.916965 61.001279 
L 179.416526 61.001279 
L 179.416526 41.484684 
L 180.916086 41.484684 
L 180.916086 39.560524 
L 182.415647 39.560524 
L 182.415647 27.309637 
L 183.915208 27.309637 
L 183.915208 31.531013 
L 185.414768 31.531013 
L 185.414768 30.228652 
L 186.914329 30.228652 
L 186.914329 41.839451 
L 188.413889 41.839451 
L 188.413889 66.91818 
L 189.91345 66.91818 
L 189.91345 69.423966 
L 191.413011 69.423966 
L 191.413011 71.980537 
L 192.912571 71.980537 
L 192.912571 81.825625 
L 194.412132 81.825625 
L 194.412132 99.208717 
L 195.911692 99.208717 
L 195.911692 111.413373 
L 197.411253 111.413373 
L 197.411253 116.319261 
L 198.910814 116.319261 
L 198.910814 132.582008 
L 200.410374 132.582008 
L 200.410374 140.339364 
L 201.909935 140.339364 
L 201.909935 151.127356 
L 203.409495 151.127356 
L 203.409495 153.36171 
L 204.909056 153.36171 
L 204.909056 160.393171 
L 206.408617 160.393171 
L 206.408617 166.27914 
L 207.908177 166.27914 
L 207.908177 173.612644 
L 209.407738 173.612644 
L 209.407738 181.422051 
L 210.907298 181.422051 
L 210.907298 183.060496 
L 212.406859 183.060496 
L 212.406859 185.200351 
L 213.90642 185.200351 
L 213.90642 188.413864 
L 215.40598 188.413864 
L 215.40598 192.557708 
L 216.905541 192.557708 
L 216.905541 192.811168 
L 218.405101 192.811168 
L 218.405101 199.425729 
L 219.904662 199.425729 
L 219.904662 198.880584 
L 221.404223 198.880584 
L 221.404223 198.404132 
L 222.903783 198.404132 
L 222.903783 210.090954 
L 224.403344 210.090954 
L 224.403344 198.098996 
L 225.902904 198.098996 
L 225.902904 209.715915 
L 227.402465 209.715915 
L 227.402465 205.577779 
L 228.902026 205.577779 
L 228.902026 206.134518 
L 230.401586 206.134518 
L 230.401586 206.59915 
L 231.901147 206.59915 
L 231.901147 211.07815 
L 233.400707 211.07815 
L 233.400707 212.799099 
L 234.900268 212.799099 
L 234.900268 208.840064 
L 236.399829 208.840064 
L 236.399829 216.296368 
L 237.899389 216.296368 
L 237.899389 212.459036 
L 239.39895 212.459036 
L 239.39895 211.975794 
L 240.898511 211.975794 
L 240.898511 213.759412 
L 242.398071 213.759412 
L 242.398071 217.093311 
L 243.897632 217.093311 
L 243.897632 217.975152 
L 245.397192 217.975152 
L 245.397192 220.478075 
L 246.896753 220.478075 
L 246.896753 217.90589 
L 248.396314 217.90589 
L 248.396314 215.070201 
L 249.895874 215.070201 
L 249.895874 220.272196 
L 251.395435 220.272196 
L 251.395435 217.618291 
L 252.894995 217.618291 
L 252.894995 218.81592 
L 254.394556 218.81592 
L 254.394556 222.765995 
L 255.894117 222.765995 
L 255.894117 223.150066 
L 257.393677 223.150066 
L 257.393677 220.793416 
L 258.893238 220.793416 
L 258.893238 224.161199 
L 260.392798 224.161199 
L 260.392798 220.674691 
L 261.892359 220.674691 
L 261.892359 223.987926 
L 263.39192 223.987926 
L 263.39192 223.522133 
L 264.89148 223.522133 
L 264.89148 222.205318 
L 266.391041 222.205318 
L 266.391041 225.657473 
L 267.890601 225.657473 
L 267.890601 223.097042 
L 269.390162 223.097042 
L 269.390162 227.870567 
L 270.889723 227.870567 
L 270.889723 226.240979 
L 272.389283 226.240979 
L 272.389283 225.521941 
L 273.888844 225.521941 
L 273.888844 220.20635 
L 275.388404 220.20635 
L 275.388404 225.702934 
L 276.887965 225.702934 
L 276.887965 226.486907 
L 278.387526 226.486907 
L 278.387526 225.986015 
L 279.887086 225.986015 
L 279.887086 224.25747 
L 281.386647 224.25747 
L 281.386647 225.199014 
L 282.886207 225.199014 
L 282.886207 223.549066 
L 284.385768 223.549066 
L 284.385768 227.78137 
L 287.384889 227.699402 
L 287.384889 229.740614 
L 288.88445 229.740614 
L 288.88445 228.586425 
L 290.38401 228.586425 
L 290.38401 229.481366 
L 291.883571 229.481366 
L 291.883571 230.383824 
L 293.383132 230.383824 
L 293.383132 231.600676 
L 396.852813 231.600676 
L 396.852813 231.273702 
L 398.352374 231.273702 
L 398.352374 231.273702 
" clip-path="url(#p8d9b55fe2f)" style="fill: none; stroke: #ff7f0e; stroke-width: 1.5; stroke-linecap: square"/>
   </g>
   <g id="LineCollection_2">
    <path d="M 73.697503 230.825201 
L 73.697503 229.151112 
" clip-path="url(#p8d9b55fe2f)" style="fill: none; stroke: #ff7f0e; stroke-width: 1.5"/>
    <path d="M 75.197064 229.365658 
L 75.197064 226.912921 
" clip-path="url(#p8d9b55fe2f)" style="fill: none; stroke: #ff7f0e; stroke-width: 1.5"/>
    <path d="M 76.696624 228.600928 
L 76.696624 225.842124 
" clip-path="url(#p8d9b55fe2f)" style="fill: none; stroke: #ff7f0e; stroke-width: 1.5"/>
    <path d="M 78.196185 229.114453 
L 78.196185 226.556306 
" clip-path="url(#p8d9b55fe2f)" style="fill: none; stroke: #ff7f0e; stroke-width: 1.5"/>
    <path d="M 79.695746 227.264751 
L 79.695746 224.05092 
" clip-path="url(#p8d9b55fe2f)" style="fill: none; stroke: #ff7f0e; stroke-width: 1.5"/>
    <path d="M 81.195306 226.216075 
L 81.195306 222.691706 
" clip-path="url(#p8d9b55fe2f)" style="fill: none; stroke: #ff7f0e; stroke-width: 1.5"/>
    <path d="M 82.694867 228.283513 
L 82.694867 225.408919 
" clip-path="url(#p8d9b55fe2f)" style="fill: none; stroke: #ff7f0e; stroke-width: 1.5"/>
    <path d="M 84.194427 229.091787 
L 84.194427 226.524384 
" clip-path="url(#p8d9b55fe2f)" style="fill: none; stroke: #ff7f0e; stroke-width: 1.5"/>
    <path d="M 85.693988 226.813092 
L 85.693988 223.461459 
" clip-path="url(#p8d9b55fe2f)" style="fill: none; stroke: #ff7f0e; stroke-width: 1.5"/>
    <path d="M 87.193549 228.657355 
L 87.193549 225.919744 
" clip-path="url(#p8d9b55fe2f)" style="fill: none; stroke: #ff7f0e; stroke-width: 1.5"/>
    <path d="M 88.693109 225.255449 
L 88.693109 221.47179 
" clip-path="url(#p8d9b55fe2f)" style="fill: none; stroke: #ff7f0e; stroke-width: 1.5"/>
    <path d="M 90.19267 228.918142 
L 90.19267 226.281127 
" clip-path="url(#p8d9b55fe2f)" style="fill: none; stroke: #ff7f0e; stroke-width: 1.5"/>
    <path d="M 91.69223 229.246607 
L 91.69223 226.743244 
" clip-path="url(#p8d9b55fe2f)" style="fill: none; stroke: #ff7f0e; stroke-width: 1.5"/>
    <path d="M 93.191791 224.429803 
L 93.191791 220.43836 
" clip-path="url(#p8d9b55fe2f)" style="fill: none; stroke: #ff7f0e; stroke-width: 1.5"/>
    <path d="M 94.691352 225.17806 
L 94.691352 221.374381 
" clip-path="url(#p8d9b55fe2f)" style="fill: none; stroke: #ff7f0e; stroke-width: 1.5"/>
    <path d="M 96.190912 227.997043 
L 96.190912 225.022475 
" clip-path="url(#p8d9b55fe2f)" style="fill: none; stroke: #ff7f0e; stroke-width: 1.5"/>
    <path d="M 97.690473 225.985729 
L 97.690473 222.397243 
" clip-path="url(#p8d9b55fe2f)" style="fill: none; stroke: #ff7f0e; stroke-width: 1.5"/>
    <path d="M 99.190033 226.792976 
L 99.190033 223.435357 
" clip-path="url(#p8d9b55fe2f)" style="fill: none; stroke: #ff7f0e; stroke-width: 1.5"/>
    <path d="M 100.689594 225.900669 
L 100.689594 222.288832 
" clip-path="url(#p8d9b55fe2f)" style="fill: none; stroke: #ff7f0e; stroke-width: 1.5"/>
    <path d="M 102.189155 224.791337 
L 102.189155 220.889346 
" clip-path="url(#p8d9b55fe2f)" style="fill: none; stroke: #ff7f0e; stroke-width: 1.5"/>
    <path d="M 103.688715 226.608065 
L 103.688715 223.195981 
" clip-path="url(#p8d9b55fe2f)" style="fill: none; stroke: #ff7f0e; stroke-width: 1.5"/>
    <path d="M 105.188276 226.600787 
L 105.188276 223.18658 
" clip-path="url(#p8d9b55fe2f)" style="fill: none; stroke: #ff7f0e; stroke-width: 1.5"/>
    <path d="M 106.687836 224.106948 
L 106.687836 220.037484 
" clip-path="url(#p8d9b55fe2f)" style="fill: none; stroke: #ff7f0e; stroke-width: 1.5"/>
    <path d="M 108.187397 225.504082 
L 108.187397 221.785569 
" clip-path="url(#p8d9b55fe2f)" style="fill: none; stroke: #ff7f0e; stroke-width: 1.5"/>
    <path d="M 109.686958 226.578078 
L 109.686958 223.157255 
" clip-path="url(#p8d9b55fe2f)" style="fill: none; stroke: #ff7f0e; stroke-width: 1.5"/>
    <path d="M 111.186518 222.084403 
L 111.186518 217.559895 
" clip-path="url(#p8d9b55fe2f)" style="fill: none; stroke: #ff7f0e; stroke-width: 1.5"/>
    <path d="M 112.686079 222.771324 
L 112.686079 218.395467 
" clip-path="url(#p8d9b55fe2f)" style="fill: none; stroke: #ff7f0e; stroke-width: 1.5"/>
    <path d="M 114.185639 223.781133 
L 114.185639 219.634593 
" clip-path="url(#p8d9b55fe2f)" style="fill: none; stroke: #ff7f0e; stroke-width: 1.5"/>
    <path d="M 115.6852 226.508221 
L 115.6852 223.067139 
" clip-path="url(#p8d9b55fe2f)" style="fill: none; stroke: #ff7f0e; stroke-width: 1.5"/>
    <path d="M 117.184761 223.30299 
L 117.184761 219.046154 
" clip-path="url(#p8d9b55fe2f)" style="fill: none; stroke: #ff7f0e; stroke-width: 1.5"/>
    <path d="M 118.684321 224.216072 
L 118.684321 220.172789 
" clip-path="url(#p8d9b55fe2f)" style="fill: none; stroke: #ff7f0e; stroke-width: 1.5"/>
    <path d="M 120.183882 222.662036 
L 120.183882 218.262155 
" clip-path="url(#p8d9b55fe2f)" style="fill: none; stroke: #ff7f0e; stroke-width: 1.5"/>
    <path d="M 121.683443 224.464639 
L 121.683443 220.481716 
" clip-path="url(#p8d9b55fe2f)" style="fill: none; stroke: #ff7f0e; stroke-width: 1.5"/>
    <path d="M 123.183003 216.412645 
L 123.183003 210.822009 
" clip-path="url(#p8d9b55fe2f)" style="fill: none; stroke: #ff7f0e; stroke-width: 1.5"/>
    <path d="M 124.682564 215.12866 
L 124.682564 209.325984 
" clip-path="url(#p8d9b55fe2f)" style="fill: none; stroke: #ff7f0e; stroke-width: 1.5"/>
    <path d="M 126.182124 220.28807 
L 126.182124 215.398212 
" clip-path="url(#p8d9b55fe2f)" style="fill: none; stroke: #ff7f0e; stroke-width: 1.5"/>
    <path d="M 127.681685 221.530984 
L 127.681685 216.890533 
" clip-path="url(#p8d9b55fe2f)" style="fill: none; stroke: #ff7f0e; stroke-width: 1.5"/>
    <path d="M 129.181246 212.630638 
L 129.181246 206.437761 
" clip-path="url(#p8d9b55fe2f)" style="fill: none; stroke: #ff7f0e; stroke-width: 1.5"/>
    <path d="M 130.680806 220.689669 
L 130.680806 215.878842 
" clip-path="url(#p8d9b55fe2f)" style="fill: none; stroke: #ff7f0e; stroke-width: 1.5"/>
    <path d="M 132.180367 215.670148 
L 132.180367 209.955856 
" clip-path="url(#p8d9b55fe2f)" style="fill: none; stroke: #ff7f0e; stroke-width: 1.5"/>
    <path d="M 133.679927 222.856306 
L 133.679927 218.49923 
" clip-path="url(#p8d9b55fe2f)" style="fill: none; stroke: #ff7f0e; stroke-width: 1.5"/>
    <path d="M 135.179488 214.654448 
L 135.179488 208.775547 
" clip-path="url(#p8d9b55fe2f)" style="fill: none; stroke: #ff7f0e; stroke-width: 1.5"/>
    <path d="M 136.679049 214.913606 
L 136.679049 209.076229 
" clip-path="url(#p8d9b55fe2f)" style="fill: none; stroke: #ff7f0e; stroke-width: 1.5"/>
    <path d="M 138.178609 206.022228 
L 138.178609 198.906083 
" clip-path="url(#p8d9b55fe2f)" style="fill: none; stroke: #ff7f0e; stroke-width: 1.5"/>
    <path d="M 139.67817 204.061382 
L 139.67817 196.694902 
" clip-path="url(#p8d9b55fe2f)" style="fill: none; stroke: #ff7f0e; stroke-width: 1.5"/>
    <path d="M 141.17773 211.021988 
L 141.17773 204.59126 
" clip-path="url(#p8d9b55fe2f)" style="fill: none; stroke: #ff7f0e; stroke-width: 1.5"/>
    <path d="M 142.677291 213.810666 
L 142.677291 207.798711 
" clip-path="url(#p8d9b55fe2f)" style="fill: none; stroke: #ff7f0e; stroke-width: 1.5"/>
    <path d="M 144.176852 210.760599 
L 144.176852 204.292108 
" clip-path="url(#p8d9b55fe2f)" style="fill: none; stroke: #ff7f0e; stroke-width: 1.5"/>
    <path d="M 145.676412 202.183819 
L 145.676412 194.585831 
" clip-path="url(#p8d9b55fe2f)" style="fill: none; stroke: #ff7f0e; stroke-width: 1.5"/>
    <path d="M 147.175973 199.92628 
L 147.175973 192.059473 
" clip-path="url(#p8d9b55fe2f)" style="fill: none; stroke: #ff7f0e; stroke-width: 1.5"/>
    <path d="M 148.675533 203.720732 
L 148.675533 196.311678 
" clip-path="url(#p8d9b55fe2f)" style="fill: none; stroke: #ff7f0e; stroke-width: 1.5"/>
    <path d="M 150.175094 198.277357 
L 150.175094 190.220191 
" clip-path="url(#p8d9b55fe2f)" style="fill: none; stroke: #ff7f0e; stroke-width: 1.5"/>
    <path d="M 151.674655 191.993846 
L 151.674655 183.251167 
" clip-path="url(#p8d9b55fe2f)" style="fill: none; stroke: #ff7f0e; stroke-width: 1.5"/>
    <path d="M 153.174215 185.856191 
L 153.174215 176.49459 
" clip-path="url(#p8d9b55fe2f)" style="fill: none; stroke: #ff7f0e; stroke-width: 1.5"/>
    <path d="M 154.673776 184.653981 
L 154.673776 175.176109 
" clip-path="url(#p8d9b55fe2f)" style="fill: none; stroke: #ff7f0e; stroke-width: 1.5"/>
    <path d="M 156.173336 186.998755 
L 156.173336 177.749079 
" clip-path="url(#p8d9b55fe2f)" style="fill: none; stroke: #ff7f0e; stroke-width: 1.5"/>
    <path d="M 157.672897 178.056575 
L 157.672897 167.965527 
" clip-path="url(#p8d9b55fe2f)" style="fill: none; stroke: #ff7f0e; stroke-width: 1.5"/>
    <path d="M 159.172458 178.101666 
L 159.172458 168.014677 
" clip-path="url(#p8d9b55fe2f)" style="fill: none; stroke: #ff7f0e; stroke-width: 1.5"/>
    <path d="M 160.672018 179.158836 
L 160.672018 169.167496 
" clip-path="url(#p8d9b55fe2f)" style="fill: none; stroke: #ff7f0e; stroke-width: 1.5"/>
    <path d="M 162.171579 157.126732 
L 162.171579 145.306926 
" clip-path="url(#p8d9b55fe2f)" style="fill: none; stroke: #ff7f0e; stroke-width: 1.5"/>
    <path d="M 163.671139 164.183239 
L 163.671139 152.915415 
" clip-path="url(#p8d9b55fe2f)" style="fill: none; stroke: #ff7f0e; stroke-width: 1.5"/>
    <path d="M 165.1707 155.84824 
L 165.1707 143.931266 
" clip-path="url(#p8d9b55fe2f)" style="fill: none; stroke: #ff7f0e; stroke-width: 1.5"/>
    <path d="M 166.670261 148.588171 
L 166.670261 136.134301 
" clip-path="url(#p8d9b55fe2f)" style="fill: none; stroke: #ff7f0e; stroke-width: 1.5"/>
    <path d="M 168.169821 140.916178 
L 168.169821 127.919861 
" clip-path="url(#p8d9b55fe2f)" style="fill: none; stroke: #ff7f0e; stroke-width: 1.5"/>
    <path d="M 169.669382 115.412266 
L 169.669382 100.760689 
" clip-path="url(#p8d9b55fe2f)" style="fill: none; stroke: #ff7f0e; stroke-width: 1.5"/>
    <path d="M 171.168942 113.201086 
L 171.168942 98.414989 
" clip-path="url(#p8d9b55fe2f)" style="fill: none; stroke: #ff7f0e; stroke-width: 1.5"/>
    <path d="M 172.668503 105.766819 
L 172.668503 90.537417 
" clip-path="url(#p8d9b55fe2f)" style="fill: none; stroke: #ff7f0e; stroke-width: 1.5"/>
    <path d="M 174.168064 102.198824 
L 174.168064 86.761312 
" clip-path="url(#p8d9b55fe2f)" style="fill: none; stroke: #ff7f0e; stroke-width: 1.5"/>
    <path d="M 175.667624 64.749274 
L 175.667624 47.280162 
" clip-path="url(#p8d9b55fe2f)" style="fill: none; stroke: #ff7f0e; stroke-width: 1.5"/>
    <path d="M 177.167185 59.043834 
L 177.167185 41.286109 
" clip-path="url(#p8d9b55fe2f)" style="fill: none; stroke: #ff7f0e; stroke-width: 1.5"/>
    <path d="M 178.666745 69.610913 
L 178.666745 52.391645 
" clip-path="url(#p8d9b55fe2f)" style="fill: none; stroke: #ff7f0e; stroke-width: 1.5"/>
    <path d="M 180.166306 50.573457 
L 180.166306 32.395911 
" clip-path="url(#p8d9b55fe2f)" style="fill: none; stroke: #ff7f0e; stroke-width: 1.5"/>
    <path d="M 181.665867 48.695175 
L 181.665867 30.425873 
" clip-path="url(#p8d9b55fe2f)" style="fill: none; stroke: #ff7f0e; stroke-width: 1.5"/>
    <path d="M 183.165427 36.731148 
L 183.165427 17.888125 
" clip-path="url(#p8d9b55fe2f)" style="fill: none; stroke: #ff7f0e; stroke-width: 1.5"/>
    <path d="M 184.664988 40.854675 
L 184.664988 22.20735 
" clip-path="url(#p8d9b55fe2f)" style="fill: none; stroke: #ff7f0e; stroke-width: 1.5"/>
    <path d="M 186.164548 39.582611 
L 186.164548 20.874692 
" clip-path="url(#p8d9b55fe2f)" style="fill: none; stroke: #ff7f0e; stroke-width: 1.5"/>
    <path d="M 187.664109 50.91974 
L 187.664109 32.759162 
" clip-path="url(#p8d9b55fe2f)" style="fill: none; stroke: #ff7f0e; stroke-width: 1.5"/>
    <path d="M 189.16367 75.377193 
L 189.16367 58.459168 
" clip-path="url(#p8d9b55fe2f)" style="fill: none; stroke: #ff7f0e; stroke-width: 1.5"/>
    <path d="M 190.66323 77.818376 
L 190.66323 61.029556 
" clip-path="url(#p8d9b55fe2f)" style="fill: none; stroke: #ff7f0e; stroke-width: 1.5"/>
    <path d="M 192.162791 80.308519 
L 192.162791 63.652555 
" clip-path="url(#p8d9b55fe2f)" style="fill: none; stroke: #ff7f0e; stroke-width: 1.5"/>
    <path d="M 193.662351 89.892693 
L 193.662351 73.758558 
" clip-path="url(#p8d9b55fe2f)" style="fill: none; stroke: #ff7f0e; stroke-width: 1.5"/>
    <path d="M 195.161912 106.793213 
L 195.161912 91.62422 
" clip-path="url(#p8d9b55fe2f)" style="fill: none; stroke: #ff7f0e; stroke-width: 1.5"/>
    <path d="M 196.661473 118.639826 
L 196.661473 104.186919 
" clip-path="url(#p8d9b55fe2f)" style="fill: none; stroke: #ff7f0e; stroke-width: 1.5"/>
    <path d="M 198.161033 123.396691 
L 198.161033 109.241831 
" clip-path="url(#p8d9b55fe2f)" style="fill: none; stroke: #ff7f0e; stroke-width: 1.5"/>
    <path d="M 199.660594 139.141262 
L 199.660594 126.022753 
" clip-path="url(#p8d9b55fe2f)" style="fill: none; stroke: #ff7f0e; stroke-width: 1.5"/>
    <path d="M 201.160155 146.636445 
L 201.160155 134.042283 
" clip-path="url(#p8d9b55fe2f)" style="fill: none; stroke: #ff7f0e; stroke-width: 1.5"/>
    <path d="M 202.659715 157.040547 
L 202.659715 145.214165 
" clip-path="url(#p8d9b55fe2f)" style="fill: none; stroke: #ff7f0e; stroke-width: 1.5"/>
    <path d="M 204.159276 159.192233 
L 204.159276 147.531188 
" clip-path="url(#p8d9b55fe2f)" style="fill: none; stroke: #ff7f0e; stroke-width: 1.5"/>
    <path d="M 205.658836 165.955528 
L 205.658836 154.830815 
" clip-path="url(#p8d9b55fe2f)" style="fill: none; stroke: #ff7f0e; stroke-width: 1.5"/>
    <path d="M 207.158397 171.606649 
L 207.158397 160.951632 
" clip-path="url(#p8d9b55fe2f)" style="fill: none; stroke: #ff7f0e; stroke-width: 1.5"/>
    <path d="M 208.657958 178.632198 
L 208.657958 168.59309 
" clip-path="url(#p8d9b55fe2f)" style="fill: none; stroke: #ff7f0e; stroke-width: 1.5"/>
    <path d="M 210.157518 186.091389 
L 210.157518 176.752713 
" clip-path="url(#p8d9b55fe2f)" style="fill: none; stroke: #ff7f0e; stroke-width: 1.5"/>
    <path d="M 211.657079 187.652969 
L 211.657079 178.468023 
" clip-path="url(#p8d9b55fe2f)" style="fill: none; stroke: #ff7f0e; stroke-width: 1.5"/>
    <path d="M 213.156639 189.690455 
L 213.156639 180.710246 
" clip-path="url(#p8d9b55fe2f)" style="fill: none; stroke: #ff7f0e; stroke-width: 1.5"/>
    <path d="M 214.6562 192.745695 
L 214.6562 184.082033 
" clip-path="url(#p8d9b55fe2f)" style="fill: none; stroke: #ff7f0e; stroke-width: 1.5"/>
    <path d="M 216.155761 196.676476 
L 216.155761 188.43894 
" clip-path="url(#p8d9b55fe2f)" style="fill: none; stroke: #ff7f0e; stroke-width: 1.5"/>
    <path d="M 217.655321 196.916546 
L 217.655321 188.705791 
" clip-path="url(#p8d9b55fe2f)" style="fill: none; stroke: #ff7f0e; stroke-width: 1.5"/>
    <path d="M 219.154882 203.164723 
L 219.154882 195.686734 
" clip-path="url(#p8d9b55fe2f)" style="fill: none; stroke: #ff7f0e; stroke-width: 1.5"/>
    <path d="M 220.654442 202.651121 
L 220.654442 195.110047 
" clip-path="url(#p8d9b55fe2f)" style="fill: none; stroke: #ff7f0e; stroke-width: 1.5"/>
    <path d="M 222.154003 202.202022 
L 222.154003 194.606242 
" clip-path="url(#p8d9b55fe2f)" style="fill: none; stroke: #ff7f0e; stroke-width: 1.5"/>
    <path d="M 223.653564 213.14808 
L 223.653564 207.033828 
" clip-path="url(#p8d9b55fe2f)" style="fill: none; stroke: #ff7f0e; stroke-width: 1.5"/>
    <path d="M 225.153124 201.914301 
L 225.153124 194.283691 
" clip-path="url(#p8d9b55fe2f)" style="fill: none; stroke: #ff7f0e; stroke-width: 1.5"/>
    <path d="M 226.652685 212.799577 
L 226.652685 206.632252 
" clip-path="url(#p8d9b55fe2f)" style="fill: none; stroke: #ff7f0e; stroke-width: 1.5"/>
    <path d="M 228.152245 208.940368 
L 228.152245 202.21519 
" clip-path="url(#p8d9b55fe2f)" style="fill: none; stroke: #ff7f0e; stroke-width: 1.5"/>
    <path d="M 229.651806 209.460942 
L 229.651806 202.808094 
" clip-path="url(#p8d9b55fe2f)" style="fill: none; stroke: #ff7f0e; stroke-width: 1.5"/>
    <path d="M 231.151367 209.89509 
L 231.151367 203.303211 
" clip-path="url(#p8d9b55fe2f)" style="fill: none; stroke: #ff7f0e; stroke-width: 1.5"/>
    <path d="M 232.650927 214.064298 
L 232.650927 208.092002 
" clip-path="url(#p8d9b55fe2f)" style="fill: none; stroke: #ff7f0e; stroke-width: 1.5"/>
    <path d="M 234.150488 215.657302 
L 234.150488 209.940896 
" clip-path="url(#p8d9b55fe2f)" style="fill: none; stroke: #ff7f0e; stroke-width: 1.5"/>
    <path d="M 235.650048 211.984827 
L 235.650048 205.695301 
" clip-path="url(#p8d9b55fe2f)" style="fill: none; stroke: #ff7f0e; stroke-width: 1.5"/>
    <path d="M 237.149609 218.87508 
L 237.149609 213.717656 
" clip-path="url(#p8d9b55fe2f)" style="fill: none; stroke: #ff7f0e; stroke-width: 1.5"/>
    <path d="M 238.64917 215.342972 
L 238.64917 209.575101 
" clip-path="url(#p8d9b55fe2f)" style="fill: none; stroke: #ff7f0e; stroke-width: 1.5"/>
    <path d="M 240.14873 214.895906 
L 240.14873 209.055682 
" clip-path="url(#p8d9b55fe2f)" style="fill: none; stroke: #ff7f0e; stroke-width: 1.5"/>
    <path d="M 241.648291 216.543665 
L 241.648291 210.975159 
" clip-path="url(#p8d9b55fe2f)" style="fill: none; stroke: #ff7f0e; stroke-width: 1.5"/>
    <path d="M 243.147851 219.603984 
L 243.147851 214.582637 
" clip-path="url(#p8d9b55fe2f)" style="fill: none; stroke: #ff7f0e; stroke-width: 1.5"/>
    <path d="M 244.647412 220.408322 
L 244.647412 215.541981 
" clip-path="url(#p8d9b55fe2f)" style="fill: none; stroke: #ff7f0e; stroke-width: 1.5"/>
    <path d="M 246.146973 222.676437 
L 246.146973 218.279714 
" clip-path="url(#p8d9b55fe2f)" style="fill: none; stroke: #ff7f0e; stroke-width: 1.5"/>
    <path d="M 247.646533 220.345237 
L 247.646533 215.466544 
" clip-path="url(#p8d9b55fe2f)" style="fill: none; stroke: #ff7f0e; stroke-width: 1.5"/>
    <path d="M 249.146094 217.750225 
L 249.146094 212.390178 
" clip-path="url(#p8d9b55fe2f)" style="fill: none; stroke: #ff7f0e; stroke-width: 1.5"/>
    <path d="M 250.645654 222.49081 
L 250.645654 218.053582 
" clip-path="url(#p8d9b55fe2f)" style="fill: none; stroke: #ff7f0e; stroke-width: 1.5"/>
    <path d="M 252.145215 220.083118 
L 252.145215 215.153463 
" clip-path="url(#p8d9b55fe2f)" style="fill: none; stroke: #ff7f0e; stroke-width: 1.5"/>
    <path d="M 253.644776 221.172826 
L 253.644776 216.459015 
" clip-path="url(#p8d9b55fe2f)" style="fill: none; stroke: #ff7f0e; stroke-width: 1.5"/>
    <path d="M 255.144336 224.725252 
L 255.144336 220.806739 
" clip-path="url(#p8d9b55fe2f)" style="fill: none; stroke: #ff7f0e; stroke-width: 1.5"/>
    <path d="M 256.643897 225.066262 
L 256.643897 221.23387 
" clip-path="url(#p8d9b55fe2f)" style="fill: none; stroke: #ff7f0e; stroke-width: 1.5"/>
    <path d="M 258.143457 222.96039 
L 258.143457 218.626441 
" clip-path="url(#p8d9b55fe2f)" style="fill: none; stroke: #ff7f0e; stroke-width: 1.5"/>
    <path d="M 259.643018 225.959106 
L 259.643018 222.363292 
" clip-path="url(#p8d9b55fe2f)" style="fill: none; stroke: #ff7f0e; stroke-width: 1.5"/>
    <path d="M 261.142579 222.853536 
L 261.142579 218.495847 
" clip-path="url(#p8d9b55fe2f)" style="fill: none; stroke: #ff7f0e; stroke-width: 1.5"/>
    <path d="M 262.642139 225.80665 
L 262.642139 222.169203 
" clip-path="url(#p8d9b55fe2f)" style="fill: none; stroke: #ff7f0e; stroke-width: 1.5"/>
    <path d="M 264.1417 225.395671 
L 264.1417 221.648595 
" clip-path="url(#p8d9b55fe2f)" style="fill: none; stroke: #ff7f0e; stroke-width: 1.5"/>
    <path d="M 265.64126 224.225789 
L 265.64126 220.184847 
" clip-path="url(#p8d9b55fe2f)" style="fill: none; stroke: #ff7f0e; stroke-width: 1.5"/>
    <path d="M 267.140821 227.264438 
L 267.140821 224.050509 
" clip-path="url(#p8d9b55fe2f)" style="fill: none; stroke: #ff7f0e; stroke-width: 1.5"/>
    <path d="M 268.640382 225.019241 
L 268.640382 221.174844 
" clip-path="url(#p8d9b55fe2f)" style="fill: none; stroke: #ff7f0e; stroke-width: 1.5"/>
    <path d="M 270.139942 229.14365 
L 270.139942 226.597484 
" clip-path="url(#p8d9b55fe2f)" style="fill: none; stroke: #ff7f0e; stroke-width: 1.5"/>
    <path d="M 271.639503 227.76702 
L 271.639503 224.714938 
" clip-path="url(#p8d9b55fe2f)" style="fill: none; stroke: #ff7f0e; stroke-width: 1.5"/>
    <path d="M 273.139063 227.147125 
L 273.139063 223.896757 
" clip-path="url(#p8d9b55fe2f)" style="fill: none; stroke: #ff7f0e; stroke-width: 1.5"/>
    <path d="M 274.638624 222.431402 
L 274.638624 217.981297 
" clip-path="url(#p8d9b55fe2f)" style="fill: none; stroke: #ff7f0e; stroke-width: 1.5"/>
    <path d="M 276.138185 227.303741 
L 276.138185 224.102128 
" clip-path="url(#p8d9b55fe2f)" style="fill: none; stroke: #ff7f0e; stroke-width: 1.5"/>
    <path d="M 277.637745 227.977526 
L 277.637745 224.996289 
" clip-path="url(#p8d9b55fe2f)" style="fill: none; stroke: #ff7f0e; stroke-width: 1.5"/>
    <path d="M 279.137306 227.547931 
L 279.137306 224.424099 
" clip-path="url(#p8d9b55fe2f)" style="fill: none; stroke: #ff7f0e; stroke-width: 1.5"/>
    <path d="M 280.636867 226.043706 
L 280.636867 222.471234 
" clip-path="url(#p8d9b55fe2f)" style="fill: none; stroke: #ff7f0e; stroke-width: 1.5"/>
    <path d="M 282.136427 226.866808 
L 282.136427 223.53122 
" clip-path="url(#p8d9b55fe2f)" style="fill: none; stroke: #ff7f0e; stroke-width: 1.5"/>
    <path d="M 283.635988 225.419478 
L 283.635988 221.678654 
" clip-path="url(#p8d9b55fe2f)" style="fill: none; stroke: #ff7f0e; stroke-width: 1.5"/>
    <path d="M 285.135548 229.069585 
L 285.135548 226.493156 
" clip-path="url(#p8d9b55fe2f)" style="fill: none; stroke: #ff7f0e; stroke-width: 1.5"/>
    <path d="M 286.635109 229.001366 
L 286.635109 226.397437 
" clip-path="url(#p8d9b55fe2f)" style="fill: none; stroke: #ff7f0e; stroke-width: 1.5"/>
    <path d="M 288.13467 230.639614 
L 288.13467 228.841614 
" clip-path="url(#p8d9b55fe2f)" style="fill: none; stroke: #ff7f0e; stroke-width: 1.5"/>
    <path d="M 289.63423 229.730846 
L 289.63423 227.442005 
" clip-path="url(#p8d9b55fe2f)" style="fill: none; stroke: #ff7f0e; stroke-width: 1.5"/>
    <path d="M 291.133791 230.440972 
L 291.133791 228.521759 
" clip-path="url(#p8d9b55fe2f)" style="fill: none; stroke: #ff7f0e; stroke-width: 1.5"/>
    <path d="M 292.633351 231.110959 
L 292.633351 229.65669 
" clip-path="url(#p8d9b55fe2f)" style="fill: none; stroke: #ff7f0e; stroke-width: 1.5"/>
    <path d="M 294.132912 231.601048 
L 294.132912 231.600304 
" clip-path="url(#p8d9b55fe2f)" style="fill: none; stroke: #ff7f0e; stroke-width: 1.5"/>
    <path d="M 295.632473 231.600676 
L 295.632473 231.600676 
" clip-path="url(#p8d9b55fe2f)" style="fill: none; stroke: #ff7f0e; stroke-width: 1.5"/>
    <path d="M 297.132033 231.600676 
L 297.132033 231.600676 
" clip-path="url(#p8d9b55fe2f)" style="fill: none; stroke: #ff7f0e; stroke-width: 1.5"/>
    <path d="M 298.631594 231.600676 
L 298.631594 231.600676 
" clip-path="url(#p8d9b55fe2f)" style="fill: none; stroke: #ff7f0e; stroke-width: 1.5"/>
    <path d="M 300.131154 231.600676 
L 300.131154 231.600676 
" clip-path="url(#p8d9b55fe2f)" style="fill: none; stroke: #ff7f0e; stroke-width: 1.5"/>
    <path d="M 301.630715 231.600676 
L 301.630715 231.600676 
" clip-path="url(#p8d9b55fe2f)" style="fill: none; stroke: #ff7f0e; stroke-width: 1.5"/>
    <path d="M 303.130276 231.600676 
L 303.130276 231.600676 
" clip-path="url(#p8d9b55fe2f)" style="fill: none; stroke: #ff7f0e; stroke-width: 1.5"/>
    <path d="M 304.629836 231.600676 
L 304.629836 231.600676 
" clip-path="url(#p8d9b55fe2f)" style="fill: none; stroke: #ff7f0e; stroke-width: 1.5"/>
    <path d="M 306.129397 231.600676 
L 306.129397 231.600676 
" clip-path="url(#p8d9b55fe2f)" style="fill: none; stroke: #ff7f0e; stroke-width: 1.5"/>
    <path d="M 307.628957 231.600759 
L 307.628957 231.600594 
" clip-path="url(#p8d9b55fe2f)" style="fill: none; stroke: #ff7f0e; stroke-width: 1.5"/>
    <path d="M 309.128518 231.600676 
L 309.128518 231.600676 
" clip-path="url(#p8d9b55fe2f)" style="fill: none; stroke: #ff7f0e; stroke-width: 1.5"/>
    <path d="M 310.628079 231.600676 
L 310.628079 231.600676 
" clip-path="url(#p8d9b55fe2f)" style="fill: none; stroke: #ff7f0e; stroke-width: 1.5"/>
    <path d="M 312.127639 231.600676 
L 312.127639 231.600676 
" clip-path="url(#p8d9b55fe2f)" style="fill: none; stroke: #ff7f0e; stroke-width: 1.5"/>
    <path d="M 313.6272 231.600676 
L 313.6272 231.600676 
" clip-path="url(#p8d9b55fe2f)" style="fill: none; stroke: #ff7f0e; stroke-width: 1.5"/>
    <path d="M 315.12676 231.600676 
L 315.12676 231.600676 
" clip-path="url(#p8d9b55fe2f)" style="fill: none; stroke: #ff7f0e; stroke-width: 1.5"/>
    <path d="M 316.626321 231.600676 
L 316.626321 231.600676 
" clip-path="url(#p8d9b55fe2f)" style="fill: none; stroke: #ff7f0e; stroke-width: 1.5"/>
    <path d="M 318.125882 231.600676 
L 318.125882 231.600676 
" clip-path="url(#p8d9b55fe2f)" style="fill: none; stroke: #ff7f0e; stroke-width: 1.5"/>
    <path d="M 319.625442 231.600676 
L 319.625442 231.600676 
" clip-path="url(#p8d9b55fe2f)" style="fill: none; stroke: #ff7f0e; stroke-width: 1.5"/>
    <path d="M 321.125003 231.600676 
L 321.125003 231.600676 
" clip-path="url(#p8d9b55fe2f)" style="fill: none; stroke: #ff7f0e; stroke-width: 1.5"/>
    <path d="M 322.624563 231.600676 
L 322.624563 231.600676 
" clip-path="url(#p8d9b55fe2f)" style="fill: none; stroke: #ff7f0e; stroke-width: 1.5"/>
    <path d="M 324.124124 231.600676 
L 324.124124 231.600676 
" clip-path="url(#p8d9b55fe2f)" style="fill: none; stroke: #ff7f0e; stroke-width: 1.5"/>
    <path d="M 325.623685 231.600676 
L 325.623685 231.600676 
" clip-path="url(#p8d9b55fe2f)" style="fill: none; stroke: #ff7f0e; stroke-width: 1.5"/>
    <path d="M 327.123245 231.600676 
L 327.123245 231.600676 
" clip-path="url(#p8d9b55fe2f)" style="fill: none; stroke: #ff7f0e; stroke-width: 1.5"/>
    <path d="M 328.622806 231.600676 
L 328.622806 231.600676 
" clip-path="url(#p8d9b55fe2f)" style="fill: none; stroke: #ff7f0e; stroke-width: 1.5"/>
    <path d="M 330.122366 231.600676 
L 330.122366 231.600676 
" clip-path="url(#p8d9b55fe2f)" style="fill: none; stroke: #ff7f0e; stroke-width: 1.5"/>
    <path d="M 331.621927 231.600676 
L 331.621927 231.600676 
" clip-path="url(#p8d9b55fe2f)" style="fill: none; stroke: #ff7f0e; stroke-width: 1.5"/>
    <path d="M 333.121488 231.600676 
L 333.121488 231.600676 
" clip-path="url(#p8d9b55fe2f)" style="fill: none; stroke: #ff7f0e; stroke-width: 1.5"/>
    <path d="M 334.621048 231.600676 
L 334.621048 231.600676 
" clip-path="url(#p8d9b55fe2f)" style="fill: none; stroke: #ff7f0e; stroke-width: 1.5"/>
    <path d="M 336.120609 231.600676 
L 336.120609 231.600676 
" clip-path="url(#p8d9b55fe2f)" style="fill: none; stroke: #ff7f0e; stroke-width: 1.5"/>
    <path d="M 337.620169 231.600676 
L 337.620169 231.600676 
" clip-path="url(#p8d9b55fe2f)" style="fill: none; stroke: #ff7f0e; stroke-width: 1.5"/>
    <path d="M 339.11973 231.600676 
L 339.11973 231.600676 
" clip-path="url(#p8d9b55fe2f)" style="fill: none; stroke: #ff7f0e; stroke-width: 1.5"/>
    <path d="M 340.619291 231.600676 
L 340.619291 231.600676 
" clip-path="url(#p8d9b55fe2f)" style="fill: none; stroke: #ff7f0e; stroke-width: 1.5"/>
    <path d="M 342.118851 231.600676 
L 342.118851 231.600676 
" clip-path="url(#p8d9b55fe2f)" style="fill: none; stroke: #ff7f0e; stroke-width: 1.5"/>
    <path d="M 343.618412 231.600676 
L 343.618412 231.600676 
" clip-path="url(#p8d9b55fe2f)" style="fill: none; stroke: #ff7f0e; stroke-width: 1.5"/>
    <path d="M 345.117972 231.600676 
L 345.117972 231.600676 
" clip-path="url(#p8d9b55fe2f)" style="fill: none; stroke: #ff7f0e; stroke-width: 1.5"/>
    <path d="M 346.617533 231.600676 
L 346.617533 231.600676 
" clip-path="url(#p8d9b55fe2f)" style="fill: none; stroke: #ff7f0e; stroke-width: 1.5"/>
    <path d="M 348.117094 231.600676 
L 348.117094 231.600676 
" clip-path="url(#p8d9b55fe2f)" style="fill: none; stroke: #ff7f0e; stroke-width: 1.5"/>
    <path d="M 349.616654 231.600676 
L 349.616654 231.600676 
" clip-path="url(#p8d9b55fe2f)" style="fill: none; stroke: #ff7f0e; stroke-width: 1.5"/>
    <path d="M 351.116215 231.600676 
L 351.116215 231.600676 
" clip-path="url(#p8d9b55fe2f)" style="fill: none; stroke: #ff7f0e; stroke-width: 1.5"/>
    <path d="M 352.615775 231.600676 
L 352.615775 231.600676 
" clip-path="url(#p8d9b55fe2f)" style="fill: none; stroke: #ff7f0e; stroke-width: 1.5"/>
    <path d="M 354.115336 231.600676 
L 354.115336 231.600676 
" clip-path="url(#p8d9b55fe2f)" style="fill: none; stroke: #ff7f0e; stroke-width: 1.5"/>
    <path d="M 355.614897 231.600676 
L 355.614897 231.600676 
" clip-path="url(#p8d9b55fe2f)" style="fill: none; stroke: #ff7f0e; stroke-width: 1.5"/>
    <path d="M 357.114457 231.600676 
L 357.114457 231.600676 
" clip-path="url(#p8d9b55fe2f)" style="fill: none; stroke: #ff7f0e; stroke-width: 1.5"/>
    <path d="M 358.614018 231.600676 
L 358.614018 231.600676 
" clip-path="url(#p8d9b55fe2f)" style="fill: none; stroke: #ff7f0e; stroke-width: 1.5"/>
    <path d="M 360.113579 231.600676 
L 360.113579 231.600676 
" clip-path="url(#p8d9b55fe2f)" style="fill: none; stroke: #ff7f0e; stroke-width: 1.5"/>
    <path d="M 361.613139 231.600676 
L 361.613139 231.600676 
" clip-path="url(#p8d9b55fe2f)" style="fill: none; stroke: #ff7f0e; stroke-width: 1.5"/>
    <path d="M 363.1127 231.600676 
L 363.1127 231.600676 
" clip-path="url(#p8d9b55fe2f)" style="fill: none; stroke: #ff7f0e; stroke-width: 1.5"/>
    <path d="M 364.61226 231.600676 
L 364.61226 231.600676 
" clip-path="url(#p8d9b55fe2f)" style="fill: none; stroke: #ff7f0e; stroke-width: 1.5"/>
    <path d="M 366.111821 231.600676 
L 366.111821 231.600676 
" clip-path="url(#p8d9b55fe2f)" style="fill: none; stroke: #ff7f0e; stroke-width: 1.5"/>
    <path d="M 367.611382 231.600676 
L 367.611382 231.600676 
" clip-path="url(#p8d9b55fe2f)" style="fill: none; stroke: #ff7f0e; stroke-width: 1.5"/>
    <path d="M 369.110942 231.600676 
L 369.110942 231.600676 
" clip-path="url(#p8d9b55fe2f)" style="fill: none; stroke: #ff7f0e; stroke-width: 1.5"/>
    <path d="M 370.610503 231.600676 
L 370.610503 231.600676 
" clip-path="url(#p8d9b55fe2f)" style="fill: none; stroke: #ff7f0e; stroke-width: 1.5"/>
    <path d="M 372.110063 231.600676 
L 372.110063 231.600676 
" clip-path="url(#p8d9b55fe2f)" style="fill: none; stroke: #ff7f0e; stroke-width: 1.5"/>
    <path d="M 373.609624 231.600676 
L 373.609624 231.600676 
" clip-path="url(#p8d9b55fe2f)" style="fill: none; stroke: #ff7f0e; stroke-width: 1.5"/>
    <path d="M 375.109185 231.600676 
L 375.109185 231.600676 
" clip-path="url(#p8d9b55fe2f)" style="fill: none; stroke: #ff7f0e; stroke-width: 1.5"/>
    <path d="M 376.608745 231.600676 
L 376.608745 231.600676 
" clip-path="url(#p8d9b55fe2f)" style="fill: none; stroke: #ff7f0e; stroke-width: 1.5"/>
    <path d="M 378.108306 231.600676 
L 378.108306 231.600676 
" clip-path="url(#p8d9b55fe2f)" style="fill: none; stroke: #ff7f0e; stroke-width: 1.5"/>
    <path d="M 379.607866 231.600676 
L 379.607866 231.600676 
" clip-path="url(#p8d9b55fe2f)" style="fill: none; stroke: #ff7f0e; stroke-width: 1.5"/>
    <path d="M 381.107427 231.600676 
L 381.107427 231.600676 
" clip-path="url(#p8d9b55fe2f)" style="fill: none; stroke: #ff7f0e; stroke-width: 1.5"/>
    <path d="M 382.606988 231.600676 
L 382.606988 231.600676 
" clip-path="url(#p8d9b55fe2f)" style="fill: none; stroke: #ff7f0e; stroke-width: 1.5"/>
    <path d="M 384.106548 231.600676 
L 384.106548 231.600676 
" clip-path="url(#p8d9b55fe2f)" style="fill: none; stroke: #ff7f0e; stroke-width: 1.5"/>
    <path d="M 385.606109 231.600676 
L 385.606109 231.600676 
" clip-path="url(#p8d9b55fe2f)" style="fill: none; stroke: #ff7f0e; stroke-width: 1.5"/>
    <path d="M 387.105669 231.600676 
L 387.105669 231.600676 
" clip-path="url(#p8d9b55fe2f)" style="fill: none; stroke: #ff7f0e; stroke-width: 1.5"/>
    <path d="M 388.60523 231.600676 
L 388.60523 231.600676 
" clip-path="url(#p8d9b55fe2f)" style="fill: none; stroke: #ff7f0e; stroke-width: 1.5"/>
    <path d="M 390.104791 231.600676 
L 390.104791 231.600676 
" clip-path="url(#p8d9b55fe2f)" style="fill: none; stroke: #ff7f0e; stroke-width: 1.5"/>
    <path d="M 391.604351 231.600676 
L 391.604351 231.600676 
" clip-path="url(#p8d9b55fe2f)" style="fill: none; stroke: #ff7f0e; stroke-width: 1.5"/>
    <path d="M 393.103912 231.600676 
L 393.103912 231.600676 
" clip-path="url(#p8d9b55fe2f)" style="fill: none; stroke: #ff7f0e; stroke-width: 1.5"/>
    <path d="M 394.603472 231.600676 
L 394.603472 231.600676 
" clip-path="url(#p8d9b55fe2f)" style="fill: none; stroke: #ff7f0e; stroke-width: 1.5"/>
    <path d="M 396.103033 231.600676 
L 396.103033 231.600676 
" clip-path="url(#p8d9b55fe2f)" style="fill: none; stroke: #ff7f0e; stroke-width: 1.5"/>
    <path d="M 397.602594 231.650625 
L 397.602594 230.896778 
" clip-path="url(#p8d9b55fe2f)" style="fill: none; stroke: #ff7f0e; stroke-width: 1.5"/>
   </g>
  </g>
 </g>
 <defs>
  <clipPath id="p8d9b55fe2f">
   <rect x="56.50625" y="7.2" width="358.116356" height="235.13875"/>
  </clipPath>
 </defs>
</svg>