<?xml version="1.0" encoding="utf-8" standalone="no"?>
<!DOCTYPE svg PUBLIC "-//W3C//DTD SVG 1.1//EN"
  "http://www.w3.org/Graphics/SVG/1.1/DTD/svg11.dtd">
<svg xmlns:xlink="http://www.w3.org/1999/xlink" width="389.163088pt" height="268.200625pt" viewBox="0 0 389.163088 268.200625" xmlns="http://www.w3.org/2000/svg" version="1.1">
 <metadata>
  <rdf:RDF xmlns:dc="http://purl.org/dc/elements/1.1/" xmlns:cc="http://creativecommons.org/ns#" xmlns:rdf="http://www.w3.org/1999/02/22-rdf-syntax-ns#">
   <cc:Work>
    <dc:type rdf:resource="http://purl.org/dc/dcmitype/StillImage"/>
    <dc:date>2025-08-03T21:00:05.126290</dc:date>
    <dc:format>image/svg+xml</dc:format>
    <dc:creator>
     <cc:Agent>
      <dc:title>Matplotlib v3.10.1, https://matplotlib.org/</dc:title>
     </cc:Agent>
    </dc:creator>
   </cc:Work>
  </rdf:RDF>
 </metadata>
 <defs>
  <style type="text/css">*{stroke-linejoin: round; stroke-linecap: butt}</style>
 </defs>
 <g id="figure_1">
  <g id="patch_1">
   <path d="M 0 268.200625 
L 389.163088 268.200625 
L 389.163088 0 
L 0 0 
z
" style="fill: #ffffff"/>
  </g>
  <g id="axes_1">
   <g id="patch_2">
    <path d="M 46.965625 228.96 
L 381.765625 228.96 
L 381.765625 7.2 
L 46.965625 7.2 
z
" style="fill: #ffffff"/>
   </g>
   <g id="matplotlib.axis_1">
    <g id="xtick_1">
     <g id="line2d_1">
      <defs>
       <path id="mcc3a48e57b" d="M 0 0 
L 0 3.5 
" style="stroke: #000000; stroke-width: 0.8"/>
      </defs>
      <g>
       <use xlink:href="#mcc3a48e57b" x="62.364024" y="228.96" style="stroke: #000000; stroke-width: 0.8"/>
      </g>
     </g>
     <g id="text_1">
      <!-- 5.25 -->
      <g transform="translate(51.231212 243.558437) scale(0.1 -0.1)">
       <defs>
        <path id="DejaVuSans-35" d="M 691 4666 
L 3169 4666 
L 3169 4134 
L 1269 4134 
L 1269 2991 
Q 1406 3038 1543 3061 
Q 1681 3084 1819 3084 
Q 2600 3084 3056 2656 
Q 3513 2228 3513 1497 
Q 3513 744 3044 326 
Q 2575 -91 1722 -91 
Q 1428 -91 1123 -41 
Q 819 9 494 109 
L 494 744 
Q 775 591 1075 516 
Q 1375 441 1709 441 
Q 2250 441 2565 725 
Q 2881 1009 2881 1497 
Q 2881 1984 2565 2268 
Q 2250 2553 1709 2553 
Q 1456 2553 1204 2497 
Q 953 2441 691 2322 
L 691 4666 
z
" transform="scale(0.015625)"/>
        <path id="DejaVuSans-2e" d="M 684 794 
L 1344 794 
L 1344 0 
L 684 0 
L 684 794 
z
" transform="scale(0.015625)"/>
        <path id="DejaVuSans-32" d="M 1228 531 
L 3431 531 
L 3431 0 
L 469 0 
L 469 531 
Q 828 903 1448 1529 
Q 2069 2156 2228 2338 
Q 2531 2678 2651 2914 
Q 2772 3150 2772 3378 
Q 2772 3750 2511 3984 
Q 2250 4219 1831 4219 
Q 1534 4219 1204 4116 
Q 875 4013 500 3803 
L 500 4441 
Q 881 4594 1212 4672 
Q 1544 4750 1819 4750 
Q 2544 4750 2975 4387 
Q 3406 4025 3406 3419 
Q 3406 3131 3298 2873 
Q 3191 2616 2906 2266 
Q 2828 2175 2409 1742 
Q 1991 1309 1228 531 
z
" transform="scale(0.015625)"/>
       </defs>
       <use xlink:href="#DejaVuSans-35"/>
       <use xlink:href="#DejaVuSans-2e" transform="translate(63.623047 0)"/>
       <use xlink:href="#DejaVuSans-32" transform="translate(95.410156 0)"/>
       <use xlink:href="#DejaVuSans-35" transform="translate(159.033203 0)"/>
      </g>
     </g>
    </g>
    <g id="xtick_2">
     <g id="line2d_2">
      <g>
       <use xlink:href="#mcc3a48e57b" x="106.430632" y="228.96" style="stroke: #000000; stroke-width: 0.8"/>
      </g>
     </g>
     <g id="text_2">
      <!-- 5.50 -->
      <g transform="translate(95.297819 243.558437) scale(0.1 -0.1)">
       <defs>
        <path id="DejaVuSans-30" d="M 2034 4250 
Q 1547 4250 1301 3770 
Q 1056 3291 1056 2328 
Q 1056 1369 1301 889 
Q 1547 409 2034 409 
Q 2525 409 2770 889 
Q 3016 1369 3016 2328 
Q 3016 3291 2770 3770 
Q 2525 4250 2034 4250 
z
M 2034 4750 
Q 2819 4750 3233 4129 
Q 3647 3509 3647 2328 
Q 3647 1150 3233 529 
Q 2819 -91 2034 -91 
Q 1250 -91 836 529 
Q 422 1150 422 2328 
Q 422 3509 836 4129 
Q 1250 4750 2034 4750 
z
" transform="scale(0.015625)"/>
       </defs>
       <use xlink:href="#DejaVuSans-35"/>
       <use xlink:href="#DejaVuSans-2e" transform="translate(63.623047 0)"/>
       <use xlink:href="#DejaVuSans-35" transform="translate(95.410156 0)"/>
       <use xlink:href="#DejaVuSans-30" transform="translate(159.033203 0)"/>
      </g>
     </g>
    </g>
    <g id="xtick_3">
     <g id="line2d_3">
      <g>
       <use xlink:href="#mcc3a48e57b" x="150.497239" y="228.96" style="stroke: #000000; stroke-width: 0.8"/>
      </g>
     </g>
     <g id="text_3">
      <!-- 5.75 -->
      <g transform="translate(139.364427 243.558437) scale(0.1 -0.1)">
       <defs>
        <path id="DejaVuSans-37" d="M 525 4666 
L 3525 4666 
L 3525 4397 
L 1831 0 
L 1172 0 
L 2766 4134 
L 525 4134 
L 525 4666 
z
" transform="scale(0.015625)"/>
       </defs>
       <use xlink:href="#DejaVuSans-35"/>
       <use xlink:href="#DejaVuSans-2e" transform="translate(63.623047 0)"/>
       <use xlink:href="#DejaVuSans-37" transform="translate(95.410156 0)"/>
       <use xlink:href="#DejaVuSans-35" transform="translate(159.033203 0)"/>
      </g>
     </g>
    </g>
    <g id="xtick_4">
     <g id="line2d_4">
      <g>
       <use xlink:href="#mcc3a48e57b" x="194.563846" y="228.96" style="stroke: #000000; stroke-width: 0.8"/>
      </g>
     </g>
     <g id="text_4">
      <!-- 6.00 -->
      <g transform="translate(183.431034 243.558437) scale(0.1 -0.1)">
       <defs>
        <path id="DejaVuSans-36" d="M 2113 2584 
Q 1688 2584 1439 2293 
Q 1191 2003 1191 1497 
Q 1191 994 1439 701 
Q 1688 409 2113 409 
Q 2538 409 2786 701 
Q 3034 994 3034 1497 
Q 3034 2003 2786 2293 
Q 2538 2584 2113 2584 
z
M 3366 4563 
L 3366 3988 
Q 3128 4100 2886 4159 
Q 2644 4219 2406 4219 
Q 1781 4219 1451 3797 
Q 1122 3375 1075 2522 
Q 1259 2794 1537 2939 
Q 1816 3084 2150 3084 
Q 2853 3084 3261 2657 
Q 3669 2231 3669 1497 
Q 3669 778 3244 343 
Q 2819 -91 2113 -91 
Q 1303 -91 875 529 
Q 447 1150 447 2328 
Q 447 3434 972 4092 
Q 1497 4750 2381 4750 
Q 2619 4750 2861 4703 
Q 3103 4656 3366 4563 
z
" transform="scale(0.015625)"/>
       </defs>
       <use xlink:href="#DejaVuSans-36"/>
       <use xlink:href="#DejaVuSans-2e" transform="translate(63.623047 0)"/>
       <use xlink:href="#DejaVuSans-30" transform="translate(95.410156 0)"/>
       <use xlink:href="#DejaVuSans-30" transform="translate(159.033203 0)"/>
      </g>
     </g>
    </g>
    <g id="xtick_5">
     <g id="line2d_5">
      <g>
       <use xlink:href="#mcc3a48e57b" x="238.630454" y="228.96" style="stroke: #000000; stroke-width: 0.8"/>
      </g>
     </g>
     <g id="text_5">
      <!-- 6.25 -->
      <g transform="translate(227.497641 243.558437) scale(0.1 -0.1)">
       <use xlink:href="#DejaVuSans-36"/>
       <use xlink:href="#DejaVuSans-2e" transform="translate(63.623047 0)"/>
       <use xlink:href="#DejaVuSans-32" transform="translate(95.410156 0)"/>
       <use xlink:href="#DejaVuSans-35" transform="translate(159.033203 0)"/>
      </g>
     </g>
    </g>
    <g id="xtick_6">
     <g id="line2d_6">
      <g>
       <use xlink:href="#mcc3a48e57b" x="282.697061" y="228.96" style="stroke: #000000; stroke-width: 0.8"/>
      </g>
     </g>
     <g id="text_6">
      <!-- 6.50 -->
      <g transform="translate(271.564249 243.558437) scale(0.1 -0.1)">
       <use xlink:href="#DejaVuSans-36"/>
       <use xlink:href="#DejaVuSans-2e" transform="translate(63.623047 0)"/>
       <use xlink:href="#DejaVuSans-35" transform="translate(95.410156 0)"/>
       <use xlink:href="#DejaVuSans-30" transform="translate(159.033203 0)"/>
      </g>
     </g>
    </g>
    <g id="xtick_7">
     <g id="line2d_7">
      <g>
       <use xlink:href="#mcc3a48e57b" x="326.763668" y="228.96" style="stroke: #000000; stroke-width: 0.8"/>
      </g>
     </g>
     <g id="text_7">
      <!-- 6.75 -->
      <g transform="translate(315.630856 243.558437) scale(0.1 -0.1)">
       <use xlink:href="#DejaVuSans-36"/>
       <use xlink:href="#DejaVuSans-2e" transform="translate(63.623047 0)"/>
       <use xlink:href="#DejaVuSans-37" transform="translate(95.410156 0)"/>
       <use xlink:href="#DejaVuSans-35" transform="translate(159.033203 0)"/>
      </g>
     </g>
    </g>
    <g id="xtick_8">
     <g id="line2d_8">
      <g>
       <use xlink:href="#mcc3a48e57b" x="370.830276" y="228.96" style="stroke: #000000; stroke-width: 0.8"/>
      </g>
     </g>
     <g id="text_8">
      <!-- 7.00 -->
      <g transform="translate(359.697463 243.558437) scale(0.1 -0.1)">
       <use xlink:href="#DejaVuSans-37"/>
       <use xlink:href="#DejaVuSans-2e" transform="translate(63.623047 0)"/>
       <use xlink:href="#DejaVuSans-30" transform="translate(95.410156 0)"/>
       <use xlink:href="#DejaVuSans-30" transform="translate(159.033203 0)"/>
      </g>
     </g>
    </g>
    <g id="text_9">
     <!-- wavelength [Å] -->
     <g transform="translate(176.328125 258.920937) scale(0.1 -0.1)">
      <defs>
       <path id="DejaVuSans-77" d="M 269 3500 
L 844 3500 
L 1563 769 
L 2278 3500 
L 2956 3500 
L 3675 769 
L 4391 3500 
L 4966 3500 
L 4050 0 
L 3372 0 
L 2619 2869 
L 1863 0 
L 1184 0 
L 269 3500 
z
" transform="scale(0.015625)"/>
       <path id="DejaVuSans-61" d="M 2194 1759 
Q 1497 1759 1228 1600 
Q 959 1441 959 1056 
Q 959 750 1161 570 
Q 1363 391 1709 391 
Q 2188 391 2477 730 
Q 2766 1069 2766 1631 
L 2766 1759 
L 2194 1759 
z
M 3341 1997 
L 3341 0 
L 2766 0 
L 2766 531 
Q 2569 213 2275 61 
Q 1981 -91 1556 -91 
Q 1019 -91 701 211 
Q 384 513 384 1019 
Q 384 1609 779 1909 
Q 1175 2209 1959 2209 
L 2766 2209 
L 2766 2266 
Q 2766 2663 2505 2880 
Q 2244 3097 1772 3097 
Q 1472 3097 1187 3025 
Q 903 2953 641 2809 
L 641 3341 
Q 956 3463 1253 3523 
Q 1550 3584 1831 3584 
Q 2591 3584 2966 3190 
Q 3341 2797 3341 1997 
z
" transform="scale(0.015625)"/>
       <path id="DejaVuSans-76" d="M 191 3500 
L 800 3500 
L 1894 563 
L 2988 3500 
L 3597 3500 
L 2284 0 
L 1503 0 
L 191 3500 
z
" transform="scale(0.015625)"/>
       <path id="DejaVuSans-65" d="M 3597 1894 
L 3597 1613 
L 953 1613 
Q 991 1019 1311 708 
Q 1631 397 2203 397 
Q 2534 397 2845 478 
Q 3156 559 3463 722 
L 3463 178 
Q 3153 47 2828 -22 
Q 2503 -91 2169 -91 
Q 1331 -91 842 396 
Q 353 884 353 1716 
Q 353 2575 817 3079 
Q 1281 3584 2069 3584 
Q 2775 3584 3186 3129 
Q 3597 2675 3597 1894 
z
M 3022 2063 
Q 3016 2534 2758 2815 
Q 2500 3097 2075 3097 
Q 1594 3097 1305 2825 
Q 1016 2553 972 2059 
L 3022 2063 
z
" transform="scale(0.015625)"/>
       <path id="DejaVuSans-6c" d="M 603 4863 
L 1178 4863 
L 1178 0 
L 603 0 
L 603 4863 
z
" transform="scale(0.015625)"/>
       <path id="DejaVuSans-6e" d="M 3513 2113 
L 3513 0 
L 2938 0 
L 2938 2094 
Q 2938 2591 2744 2837 
Q 2550 3084 2163 3084 
Q 1697 3084 1428 2787 
Q 1159 2491 1159 1978 
L 1159 0 
L 581 0 
L 581 3500 
L 1159 3500 
L 1159 2956 
Q 1366 3272 1645 3428 
Q 1925 3584 2291 3584 
Q 2894 3584 3203 3211 
Q 3513 2838 3513 2113 
z
" transform="scale(0.015625)"/>
       <path id="DejaVuSans-67" d="M 2906 1791 
Q 2906 2416 2648 2759 
Q 2391 3103 1925 3103 
Q 1463 3103 1205 2759 
Q 947 2416 947 1791 
Q 947 1169 1205 825 
Q 1463 481 1925 481 
Q 2391 481 2648 825 
Q 2906 1169 2906 1791 
z
M 3481 434 
Q 3481 -459 3084 -895 
Q 2688 -1331 1869 -1331 
Q 1566 -1331 1297 -1286 
Q 1028 -1241 775 -1147 
L 775 -588 
Q 1028 -725 1275 -790 
Q 1522 -856 1778 -856 
Q 2344 -856 2625 -561 
Q 2906 -266 2906 331 
L 2906 616 
Q 2728 306 2450 153 
Q 2172 0 1784 0 
Q 1141 0 747 490 
Q 353 981 353 1791 
Q 353 2603 747 3093 
Q 1141 3584 1784 3584 
Q 2172 3584 2450 3431 
Q 2728 3278 2906 2969 
L 2906 3500 
L 3481 3500 
L 3481 434 
z
" transform="scale(0.015625)"/>
       <path id="DejaVuSans-74" d="M 1172 4494 
L 1172 3500 
L 2356 3500 
L 2356 3053 
L 1172 3053 
L 1172 1153 
Q 1172 725 1289 603 
Q 1406 481 1766 481 
L 2356 481 
L 2356 0 
L 1766 0 
Q 1100 0 847 248 
Q 594 497 594 1153 
L 594 3053 
L 172 3053 
L 172 3500 
L 594 3500 
L 594 4494 
L 1172 4494 
z
" transform="scale(0.015625)"/>
       <path id="DejaVuSans-68" d="M 3513 2113 
L 3513 0 
L 2938 0 
L 2938 2094 
Q 2938 2591 2744 2837 
Q 2550 3084 2163 3084 
Q 1697 3084 1428 2787 
Q 1159 2491 1159 1978 
L 1159 0 
L 581 0 
L 581 4863 
L 1159 4863 
L 1159 2956 
Q 1366 3272 1645 3428 
Q 1925 3584 2291 3584 
Q 2894 3584 3203 3211 
Q 3513 2838 3513 2113 
z
" transform="scale(0.015625)"/>
       <path id="DejaVuSans-20" transform="scale(0.015625)"/>
       <path id="DejaVuSans-5b" d="M 550 4863 
L 1875 4863 
L 1875 4416 
L 1125 4416 
L 1125 -397 
L 1875 -397 
L 1875 -844 
L 550 -844 
L 550 4863 
z
" transform="scale(0.015625)"/>
       <path id="DejaVuSans-c5" d="M 2663 5081 
Q 2663 5278 2523 5417 
Q 2384 5556 2188 5556 
Q 1988 5556 1852 5420 
Q 1716 5284 1716 5081 
Q 1716 4884 1853 4746 
Q 1991 4609 2188 4609 
Q 2384 4609 2523 4746 
Q 2663 4884 2663 5081 
z
M 2188 4044 
L 1338 1722 
L 3041 1722 
L 2188 4044 
z
M 1716 4366 
Q 1525 4494 1428 4673 
Q 1331 4853 1331 5081 
Q 1331 5441 1579 5691 
Q 1828 5941 2188 5941 
Q 2544 5941 2795 5689 
Q 3047 5438 3047 5081 
Q 3047 4863 2948 4678 
Q 2850 4494 2663 4366 
L 4325 0 
L 3669 0 
L 3244 1197 
L 1141 1197 
L 716 0 
L 50 0 
L 1716 4366 
z
" transform="scale(0.015625)"/>
       <path id="DejaVuSans-5d" d="M 1947 4863 
L 1947 -844 
L 622 -844 
L 622 -397 
L 1369 -397 
L 1369 4416 
L 622 4416 
L 622 4863 
L 1947 4863 
z
" transform="scale(0.015625)"/>
      </defs>
      <use xlink:href="#DejaVuSans-77"/>
      <use xlink:href="#DejaVuSans-61" transform="translate(81.787109 0)"/>
      <use xlink:href="#DejaVuSans-76" transform="translate(143.066406 0)"/>
      <use xlink:href="#DejaVuSans-65" transform="translate(202.246094 0)"/>
      <use xlink:href="#DejaVuSans-6c" transform="translate(263.769531 0)"/>
      <use xlink:href="#DejaVuSans-65" transform="translate(291.552734 0)"/>
      <use xlink:href="#DejaVuSans-6e" transform="translate(353.076172 0)"/>
      <use xlink:href="#DejaVuSans-67" transform="translate(416.455078 0)"/>
      <use xlink:href="#DejaVuSans-74" transform="translate(479.931641 0)"/>
      <use xlink:href="#DejaVuSans-68" transform="translate(519.140625 0)"/>
      <use xlink:href="#DejaVuSans-20" transform="translate(582.519531 0)"/>
      <use xlink:href="#DejaVuSans-5b" transform="translate(614.306641 0)"/>
      <use xlink:href="#DejaVuSans-c5" transform="translate(653.320312 0)"/>
      <use xlink:href="#DejaVuSans-5d" transform="translate(721.728516 0)"/>
     </g>
    </g>
   </g>
   <g id="matplotlib.axis_2">
    <g id="ytick_1">
     <g id="line2d_9">
      <defs>
       <path id="m1ef1303b9c" d="M 0 0 
L -3.5 0 
" style="stroke: #000000; stroke-width: 0.8"/>
      </defs>
      <g>
       <use xlink:href="#m1ef1303b9c" x="46.965625" y="218.88" style="stroke: #000000; stroke-width: 0.8"/>
      </g>
     </g>
     <g id="text_10">
      <!-- 0 -->
      <g transform="translate(33.603125 222.679219) scale(0.1 -0.1)">
       <use xlink:href="#DejaVuSans-30"/>
      </g>
     </g>
    </g>
    <g id="ytick_2">
     <g id="line2d_10">
      <g>
       <use xlink:href="#m1ef1303b9c" x="46.965625" y="184.31279" style="stroke: #000000; stroke-width: 0.8"/>
      </g>
     </g>
     <g id="text_11">
      <!-- 100 -->
      <g transform="translate(20.878125 188.112009) scale(0.1 -0.1)">
       <defs>
        <path id="DejaVuSans-31" d="M 794 531 
L 1825 531 
L 1825 4091 
L 703 3866 
L 703 4441 
L 1819 4666 
L 2450 4666 
L 2450 531 
L 3481 531 
L 3481 0 
L 794 0 
L 794 531 
z
" transform="scale(0.015625)"/>
       </defs>
       <use xlink:href="#DejaVuSans-31"/>
       <use xlink:href="#DejaVuSans-30" transform="translate(63.623047 0)"/>
       <use xlink:href="#DejaVuSans-30" transform="translate(127.246094 0)"/>
      </g>
     </g>
    </g>
    <g id="ytick_3">
     <g id="line2d_11">
      <g>
       <use xlink:href="#m1ef1303b9c" x="46.965625" y="149.745579" style="stroke: #000000; stroke-width: 0.8"/>
      </g>
     </g>
     <g id="text_12">
      <!-- 200 -->
      <g transform="translate(20.878125 153.544798) scale(0.1 -0.1)">
       <use xlink:href="#DejaVuSans-32"/>
       <use xlink:href="#DejaVuSans-30" transform="translate(63.623047 0)"/>
       <use xlink:href="#DejaVuSans-30" transform="translate(127.246094 0)"/>
      </g>
     </g>
    </g>
    <g id="ytick_4">
     <g id="line2d_12">
      <g>
       <use xlink:href="#m1ef1303b9c" x="46.965625" y="115.178369" style="stroke: #000000; stroke-width: 0.8"/>
      </g>
     </g>
     <g id="text_13">
      <!-- 300 -->
      <g transform="translate(20.878125 118.977588) scale(0.1 -0.1)">
       <defs>
        <path id="DejaVuSans-33" d="M 2597 2516 
Q 3050 2419 3304 2112 
Q 3559 1806 3559 1356 
Q 3559 666 3084 287 
Q 2609 -91 1734 -91 
Q 1441 -91 1130 -33 
Q 819 25 488 141 
L 488 750 
Q 750 597 1062 519 
Q 1375 441 1716 441 
Q 2309 441 2620 675 
Q 2931 909 2931 1356 
Q 2931 1769 2642 2001 
Q 2353 2234 1838 2234 
L 1294 2234 
L 1294 2753 
L 1863 2753 
Q 2328 2753 2575 2939 
Q 2822 3125 2822 3475 
Q 2822 3834 2567 4026 
Q 2313 4219 1838 4219 
Q 1578 4219 1281 4162 
Q 984 4106 628 3988 
L 628 4550 
Q 988 4650 1302 4700 
Q 1616 4750 1894 4750 
Q 2613 4750 3031 4423 
Q 3450 4097 3450 3541 
Q 3450 3153 3228 2886 
Q 3006 2619 2597 2516 
z
" transform="scale(0.015625)"/>
       </defs>
       <use xlink:href="#DejaVuSans-33"/>
       <use xlink:href="#DejaVuSans-30" transform="translate(63.623047 0)"/>
       <use xlink:href="#DejaVuSans-30" transform="translate(127.246094 0)"/>
      </g>
     </g>
    </g>
    <g id="ytick_5">
     <g id="line2d_13">
      <g>
       <use xlink:href="#m1ef1303b9c" x="46.965625" y="80.611159" style="stroke: #000000; stroke-width: 0.8"/>
      </g>
     </g>
     <g id="text_14">
      <!-- 400 -->
      <g transform="translate(20.878125 84.410378) scale(0.1 -0.1)">
       <defs>
        <path id="DejaVuSans-34" d="M 2419 4116 
L 825 1625 
L 2419 1625 
L 2419 4116 
z
M 2253 4666 
L 3047 4666 
L 3047 1625 
L 3713 1625 
L 3713 1100 
L 3047 1100 
L 3047 0 
L 2419 0 
L 2419 1100 
L 313 1100 
L 313 1709 
L 2253 4666 
z
" transform="scale(0.015625)"/>
       </defs>
       <use xlink:href="#DejaVuSans-34"/>
       <use xlink:href="#DejaVuSans-30" transform="translate(63.623047 0)"/>
       <use xlink:href="#DejaVuSans-30" transform="translate(127.246094 0)"/>
      </g>
     </g>
    </g>
    <g id="ytick_6">
     <g id="line2d_14">
      <g>
       <use xlink:href="#m1ef1303b9c" x="46.965625" y="46.043948" style="stroke: #000000; stroke-width: 0.8"/>
      </g>
     </g>
     <g id="text_15">
      <!-- 500 -->
      <g transform="translate(20.878125 49.843167) scale(0.1 -0.1)">
       <use xlink:href="#DejaVuSans-35"/>
       <use xlink:href="#DejaVuSans-30" transform="translate(63.623047 0)"/>
       <use xlink:href="#DejaVuSans-30" transform="translate(127.246094 0)"/>
      </g>
     </g>
    </g>
    <g id="ytick_7">
     <g id="line2d_15">
      <g>
       <use xlink:href="#m1ef1303b9c" x="46.965625" y="11.476738" style="stroke: #000000; stroke-width: 0.8"/>
      </g>
     </g>
     <g id="text_16">
      <!-- 600 -->
      <g transform="translate(20.878125 15.275957) scale(0.1 -0.1)">
       <use xlink:href="#DejaVuSans-36"/>
       <use xlink:href="#DejaVuSans-30" transform="translate(63.623047 0)"/>
       <use xlink:href="#DejaVuSans-30" transform="translate(127.246094 0)"/>
      </g>
     </g>
    </g>
    <g id="text_17">
     <!-- [counts] -->
     <g transform="translate(14.798438 138.6925) rotate(-90) scale(0.1 -0.1)">
      <defs>
       <path id="DejaVuSans-63" d="M 3122 3366 
L 3122 2828 
Q 2878 2963 2633 3030 
Q 2388 3097 2138 3097 
Q 1578 3097 1268 2742 
Q 959 2388 959 1747 
Q 959 1106 1268 751 
Q 1578 397 2138 397 
Q 2388 397 2633 464 
Q 2878 531 3122 666 
L 3122 134 
Q 2881 22 2623 -34 
Q 2366 -91 2075 -91 
Q 1284 -91 818 406 
Q 353 903 353 1747 
Q 353 2603 823 3093 
Q 1294 3584 2113 3584 
Q 2378 3584 2631 3529 
Q 2884 3475 3122 3366 
z
" transform="scale(0.015625)"/>
       <path id="DejaVuSans-6f" d="M 1959 3097 
Q 1497 3097 1228 2736 
Q 959 2375 959 1747 
Q 959 1119 1226 758 
Q 1494 397 1959 397 
Q 2419 397 2687 759 
Q 2956 1122 2956 1747 
Q 2956 2369 2687 2733 
Q 2419 3097 1959 3097 
z
M 1959 3584 
Q 2709 3584 3137 3096 
Q 3566 2609 3566 1747 
Q 3566 888 3137 398 
Q 2709 -91 1959 -91 
Q 1206 -91 779 398 
Q 353 888 353 1747 
Q 353 2609 779 3096 
Q 1206 3584 1959 3584 
z
" transform="scale(0.015625)"/>
       <path id="DejaVuSans-75" d="M 544 1381 
L 544 3500 
L 1119 3500 
L 1119 1403 
Q 1119 906 1312 657 
Q 1506 409 1894 409 
Q 2359 409 2629 706 
Q 2900 1003 2900 1516 
L 2900 3500 
L 3475 3500 
L 3475 0 
L 2900 0 
L 2900 538 
Q 2691 219 2414 64 
Q 2138 -91 1772 -91 
Q 1169 -91 856 284 
Q 544 659 544 1381 
z
M 1991 3584 
L 1991 3584 
z
" transform="scale(0.015625)"/>
       <path id="DejaVuSans-73" d="M 2834 3397 
L 2834 2853 
Q 2591 2978 2328 3040 
Q 2066 3103 1784 3103 
Q 1356 3103 1142 2972 
Q 928 2841 928 2578 
Q 928 2378 1081 2264 
Q 1234 2150 1697 2047 
L 1894 2003 
Q 2506 1872 2764 1633 
Q 3022 1394 3022 966 
Q 3022 478 2636 193 
Q 2250 -91 1575 -91 
Q 1294 -91 989 -36 
Q 684 19 347 128 
L 347 722 
Q 666 556 975 473 
Q 1284 391 1588 391 
Q 1994 391 2212 530 
Q 2431 669 2431 922 
Q 2431 1156 2273 1281 
Q 2116 1406 1581 1522 
L 1381 1569 
Q 847 1681 609 1914 
Q 372 2147 372 2553 
Q 372 3047 722 3315 
Q 1072 3584 1716 3584 
Q 2034 3584 2315 3537 
Q 2597 3491 2834 3397 
z
" transform="scale(0.015625)"/>
      </defs>
      <use xlink:href="#DejaVuSans-5b"/>
      <use xlink:href="#DejaVuSans-63" transform="translate(39.013672 0)"/>
      <use xlink:href="#DejaVuSans-6f" transform="translate(93.994141 0)"/>
      <use xlink:href="#DejaVuSans-75" transform="translate(155.175781 0)"/>
      <use xlink:href="#DejaVuSans-6e" transform="translate(218.554688 0)"/>
      <use xlink:href="#DejaVuSans-74" transform="translate(281.933594 0)"/>
      <use xlink:href="#DejaVuSans-73" transform="translate(321.142578 0)"/>
      <use xlink:href="#DejaVuSans-5d" transform="translate(373.242188 0)"/>
     </g>
    </g>
   </g>
   <g id="patch_3">
    <path d="M 46.965625 228.96 
L 46.965625 7.2 
" style="fill: none; stroke: #000000; stroke-width: 0.8; stroke-linejoin: miter; stroke-linecap: square"/>
   </g>
   <g id="patch_4">
    <path d="M 381.765625 228.96 
L 381.765625 7.2 
" style="fill: none; stroke: #000000; stroke-width: 0.8; stroke-linejoin: miter; stroke-linecap: square"/>
   </g>
   <g id="patch_5">
    <path d="M 46.965625 228.96 
L 381.765625 228.96 
" style="fill: none; stroke: #000000; stroke-width: 0.8; stroke-linejoin: miter; stroke-linecap: square"/>
   </g>
   <g id="patch_6">
    <path d="M 46.965625 7.2 
L 381.765625 7.2 
" style="fill: none; stroke: #000000; stroke-width: 0.8; stroke-linejoin: miter; stroke-linecap: square"/>
   </g>
   <g id="line2d_16">
    <path d="M 62.183807 215.517192 
L 63.705625 215.517192 
L 63.705625 200.652828 
L 65.227443 200.652828 
L 65.227443 187.29936 
L 66.749261 187.29936 
L 66.749261 158.359998 
L 68.27108 158.359998 
L 68.27108 135.603509 
L 69.792898 135.603509 
L 69.792898 112.620343 
L 71.314716 112.620343 
L 71.314716 101.187939 
L 72.836534 101.187939 
L 72.836534 84.205376 
L 74.358352 84.205376 
L 74.358352 67.079974 
L 75.88017 67.079974 
L 75.88017 45.087947 
L 77.401989 45.087947 
L 77.401989 27.83808 
L 78.923807 27.83808 
L 78.923807 27.103929 
L 80.445625 27.103929 
L 80.445625 49.296973 
L 81.967443 49.296973 
L 81.967443 38.029765 
L 83.489261 38.029765 
L 83.489261 38.543908 
L 85.01108 38.543908 
L 85.01108 33.524931 
L 86.532898 33.524931 
L 86.532898 29.529036 
L 88.054716 29.529036 
L 88.054716 31.684531 
L 89.576534 31.684531 
L 89.576534 33.447908 
L 91.098352 33.447908 
L 91.098352 37.800339 
L 92.62017 37.800339 
L 92.62017 35.278017 
L 94.141989 35.278017 
L 94.141989 34.937096 
L 95.663807 34.937096 
L 95.663807 36.019131 
L 97.185625 36.019131 
L 97.185625 54.213376 
L 98.707443 54.213376 
L 98.707443 44.208584 
L 100.229261 44.208584 
L 100.229261 47.748444 
L 101.75108 47.748444 
L 101.75108 43.901525 
L 103.272898 43.901525 
L 103.272898 38.329334 
L 104.794716 38.329334 
L 104.794716 48.795363 
L 106.316534 48.795363 
L 106.316534 71.387164 
L 107.838352 71.387164 
L 107.838352 60.861758 
L 109.36017 60.861758 
L 109.36017 46.106676 
L 110.881989 46.106676 
L 110.881989 46.934027 
L 112.403807 46.934027 
L 112.403807 61.902873 
L 113.925625 61.902873 
L 113.925625 59.959741 
L 115.447443 59.959741 
L 115.447443 33.685611 
L 116.969261 33.685611 
L 116.969261 56.206321 
L 118.49108 56.206321 
L 118.49108 43.584473 
L 120.012898 43.584473 
L 120.012898 65.425747 
L 121.534716 65.425747 
L 121.534716 48.839412 
L 123.056534 48.839412 
L 123.056534 50.063482 
L 124.578352 50.063482 
L 124.578352 56.509352 
L 126.10017 56.509352 
L 126.10017 63.483209 
L 127.621989 63.483209 
L 127.621989 59.105518 
L 129.143807 59.105518 
L 129.143807 54.825292 
L 130.665625 54.825292 
L 130.665625 57.916931 
L 132.187443 57.916931 
L 132.187443 56.3424 
L 133.709261 56.3424 
L 133.709261 44.158377 
L 135.23108 44.158377 
L 135.23108 60.659918 
L 136.752898 60.659918 
L 136.752898 68.390584 
L 138.274716 68.390584 
L 138.274716 61.521103 
L 139.796534 61.521103 
L 139.796534 64.772265 
L 141.318352 64.772265 
L 141.318352 65.287642 
L 142.84017 65.287642 
L 142.84017 62.600267 
L 144.361989 62.600267 
L 144.361989 59.207403 
L 145.883807 59.207403 
L 145.883807 59.479668 
L 147.405625 59.479668 
L 147.405625 71.283603 
L 148.927443 71.283603 
L 148.927443 67.070503 
L 150.449261 67.070503 
L 150.449261 51.50399 
L 151.97108 51.50399 
L 151.97108 63.897326 
L 153.492898 63.897326 
L 153.492898 71.982283 
L 155.014716 71.982283 
L 155.014716 74.147677 
L 156.536534 74.147677 
L 156.536534 75.923808 
L 158.058352 75.923808 
L 158.058352 71.190685 
L 159.58017 71.190685 
L 159.58017 62.752385 
L 161.101989 62.752385 
L 161.101989 51.67288 
L 162.623807 51.67288 
L 162.623807 77.892085 
L 164.145625 77.892085 
L 164.145625 68.436607 
L 165.667443 68.436607 
L 165.667443 84.569352 
L 167.189261 84.569352 
L 167.189261 77.753049 
L 168.71108 77.753049 
L 168.71108 60.04193 
L 170.232898 60.04193 
L 170.232898 71.216605 
L 173.276534 71.28457 
L 173.276534 89.974702 
L 174.798352 89.974702 
L 174.798352 77.859747 
L 176.32017 77.859747 
L 176.32017 79.040195 
L 177.841989 79.040195 
L 177.841989 86.336959 
L 179.363807 86.336959 
L 179.363807 74.743546 
L 180.885625 74.743546 
L 180.885625 66.679756 
L 182.407443 66.679756 
L 182.407443 76.5922 
L 183.929261 76.5922 
L 183.929261 70.069073 
L 185.45108 70.069073 
L 185.45108 72.113819 
L 186.972898 72.113819 
L 186.972898 70.179091 
L 188.494716 70.179091 
L 188.494716 82.759785 
L 190.016534 82.759785 
L 190.016534 88.408785 
L 191.538352 88.408785 
L 191.538352 80.46107 
L 193.06017 80.46107 
L 193.06017 85.432004 
L 194.581989 85.432004 
L 194.581989 73.923294 
L 196.103807 73.923294 
L 196.103807 86.001549 
L 197.625625 86.001549 
L 197.625625 76.422824 
L 199.147443 76.422824 
L 199.147443 76.788307 
L 200.669261 76.788307 
L 200.669261 83.189931 
L 202.19108 83.189931 
L 202.19108 95.576817 
L 203.712898 95.576817 
L 203.712898 86.877263 
L 205.234716 86.877263 
L 205.234716 82.009379 
L 206.756534 82.009379 
L 206.756534 86.582203 
L 208.278352 86.582203 
L 208.278352 94.698316 
L 209.80017 94.698316 
L 209.80017 96.411958 
L 211.321989 96.411958 
L 211.321989 88.231725 
L 212.843807 88.231725 
L 212.843807 82.744688 
L 214.365625 82.744688 
L 214.365625 85.22274 
L 215.887443 85.22274 
L 215.887443 85.693907 
L 217.409261 85.693907 
L 217.409261 97.094177 
L 218.93108 97.094177 
L 218.93108 82.505926 
L 220.452898 82.505926 
L 220.452898 84.944403 
L 221.974716 84.944403 
L 221.974716 90.167529 
L 223.496534 90.167529 
L 223.496534 96.070324 
L 225.018352 96.070324 
L 225.018352 89.174277 
L 226.54017 89.174277 
L 226.54017 88.490789 
L 228.061989 88.490789 
L 228.061989 82.620002 
L 229.583807 82.620002 
L 229.583807 91.046102 
L 231.105625 91.046102 
L 231.105625 106.365803 
L 232.627443 106.365803 
L 232.627443 110.337697 
L 234.149261 110.337697 
L 234.149261 80.823739 
L 235.67108 80.823739 
L 235.67108 89.501226 
L 237.192898 89.501226 
L 237.192898 98.402206 
L 238.714716 98.402206 
L 238.714716 107.224482 
L 240.236534 107.224482 
L 240.236534 96.427033 
L 241.758352 96.427033 
L 241.758352 91.970513 
L 243.28017 91.970513 
L 243.28017 101.677978 
L 244.801989 101.677978 
L 244.801989 85.304079 
L 246.323807 85.304079 
L 246.323807 92.252578 
L 247.845625 92.252578 
L 247.845625 88.804033 
L 249.367443 88.804033 
L 249.367443 97.533347 
L 250.889261 97.533347 
L 250.889261 107.697979 
L 252.41108 107.697979 
L 252.41108 106.939562 
L 253.932898 106.939562 
L 253.932898 103.583971 
L 255.454716 103.583971 
L 255.454716 93.874447 
L 256.976534 93.874447 
L 256.976534 89.387465 
L 258.498352 89.387465 
L 258.498352 103.972667 
L 260.02017 103.972667 
L 260.02017 97.92886 
L 261.541989 97.92886 
L 261.541989 108.300409 
L 263.063807 108.300409 
L 263.063807 99.218737 
L 264.585625 99.218737 
L 264.585625 109.731811 
L 266.107443 109.731811 
L 266.107443 101.162892 
L 267.629261 101.162892 
L 267.629261 112.007526 
L 269.15108 112.007526 
L 269.15108 101.395483 
L 270.672898 101.395483 
L 270.672898 99.570348 
L 272.194716 99.570348 
L 272.194716 104.2412 
L 273.716534 104.2412 
L 273.716534 94.804087 
L 275.238352 94.804087 
L 275.238352 108.153152 
L 276.76017 108.153152 
L 276.76017 105.019358 
L 278.281989 105.019358 
L 278.281989 98.799529 
L 279.803807 98.799529 
L 279.803807 106.399302 
L 281.325625 106.399302 
L 281.325625 105.19957 
L 282.847443 105.19957 
L 282.847443 104.90341 
L 284.369261 104.90341 
L 284.369261 107.014071 
L 285.89108 107.014071 
L 285.89108 112.181692 
L 287.412898 112.181692 
L 287.412898 112.937706 
L 288.934716 112.937706 
L 288.934716 112.235346 
L 290.456534 112.235346 
L 290.456534 107.415716 
L 291.978352 107.415716 
L 291.978352 103.700555 
L 293.50017 103.700555 
L 293.50017 119.869706 
L 295.021989 119.869706 
L 295.021989 96.705032 
L 296.543807 96.705032 
L 296.543807 101.490296 
L 298.065625 101.490296 
L 298.065625 113.445225 
L 299.587443 113.445225 
L 299.587443 105.083758 
L 301.109261 105.083758 
L 301.109261 111.866654 
L 302.63108 111.866654 
L 302.63108 105.899635 
L 304.152898 105.899635 
L 304.152898 117.32828 
L 305.674716 117.32828 
L 305.674716 107.240559 
L 307.196534 107.240559 
L 307.196534 110.530429 
L 308.718352 110.530429 
L 308.718352 116.146003 
L 310.24017 116.146003 
L 310.24017 111.374868 
L 311.761989 111.374868 
L 311.761989 113.613288 
L 313.283807 113.613288 
L 313.283807 105.692701 
L 314.805625 105.692701 
L 314.805625 119.221411 
L 316.327443 119.221411 
L 316.327443 112.87916 
L 317.849261 112.87916 
L 317.849261 114.966271 
L 319.37108 114.966271 
L 319.37108 114.376475 
L 320.892898 114.376475 
L 320.892898 111.635743 
L 322.414716 111.635743 
L 322.414716 122.283965 
L 323.936534 122.283965 
L 323.936534 120.596019 
L 325.458352 120.596019 
L 325.458352 119.168071 
L 326.98017 119.168071 
L 326.98017 122.341157 
L 328.501989 122.341157 
L 328.501989 138.042774 
L 330.023807 138.042774 
L 330.023807 141.201365 
L 331.545625 141.201365 
L 331.545625 149.988573 
L 333.067443 149.988573 
L 333.067443 161.814961 
L 334.589261 161.814961 
L 334.589261 176.225584 
L 336.11108 176.225584 
L 336.11108 186.008249 
L 337.632898 186.008249 
L 337.632898 197.420652 
L 339.154716 197.420652 
L 339.154716 207.867137 
L 340.676534 207.867137 
L 340.676534 215.423676 
L 342.198352 215.423676 
L 342.198352 217.489565 
L 343.72017 217.489565 
L 343.72017 218.316552 
L 345.241989 218.316552 
L 345.241989 218.681851 
L 346.763807 218.681851 
L 346.763807 218.795785 
L 366.547443 218.88 
L 366.547443 218.88 
" clip-path="url(#p0e65e6f133)" style="fill: none; stroke: #1f77b4; stroke-width: 1.5; stroke-linecap: square"/>
   </g>
   <g id="LineCollection_1">
    <path d="M 62.944716 216.318513 
L 62.944716 214.715871 
" clip-path="url(#p0e65e6f133)" style="fill: none; stroke: #1f77b4; stroke-width: 1.5"/>
    <path d="M 64.466534 203.15473 
L 64.466534 198.150926 
" clip-path="url(#p0e65e6f133)" style="fill: none; stroke: #1f77b4; stroke-width: 1.5"/>
    <path d="M 65.988352 191.018264 
L 65.988352 183.580457 
" clip-path="url(#p0e65e6f133)" style="fill: none; stroke: #1f77b4; stroke-width: 1.5"/>
    <path d="M 67.51017 163.615577 
L 67.51017 153.104419 
" clip-path="url(#p0e65e6f133)" style="fill: none; stroke: #1f77b4; stroke-width: 1.5"/>
    <path d="M 69.031989 142.088379 
L 69.031989 129.118639 
" clip-path="url(#p0e65e6f133)" style="fill: none; stroke: #1f77b4; stroke-width: 1.5"/>
    <path d="M 70.553807 119.846233 
L 70.553807 105.394452 
" clip-path="url(#p0e65e6f133)" style="fill: none; stroke: #1f77b4; stroke-width: 1.5"/>
    <path d="M 72.075625 108.979467 
L 72.075625 93.39641 
" clip-path="url(#p0e65e6f133)" style="fill: none; stroke: #1f77b4; stroke-width: 1.5"/>
    <path d="M 73.597443 92.543454 
L 73.597443 75.867298 
" clip-path="url(#p0e65e6f133)" style="fill: none; stroke: #1f77b4; stroke-width: 1.5"/>
    <path d="M 75.119261 75.972969 
L 75.119261 58.186979 
" clip-path="url(#p0e65e6f133)" style="fill: none; stroke: #1f77b4; stroke-width: 1.5"/>
    <path d="M 76.64108 54.498606 
L 76.64108 35.677288 
" clip-path="url(#p0e65e6f133)" style="fill: none; stroke: #1f77b4; stroke-width: 1.5"/>
    <path d="M 78.162898 37.628184 
L 78.162898 18.047977 
" clip-path="url(#p0e65e6f133)" style="fill: none; stroke: #1f77b4; stroke-width: 1.5"/>
    <path d="M 79.684716 36.927858 
L 79.684716 17.28 
" clip-path="url(#p0e65e6f133)" style="fill: none; stroke: #1f77b4; stroke-width: 1.5"/>
    <path d="M 81.206534 58.136092 
L 81.206534 40.457855 
" clip-path="url(#p0e65e6f133)" style="fill: none; stroke: #1f77b4; stroke-width: 1.5"/>
    <path d="M 82.728352 47.115557 
L 82.728352 28.943972 
" clip-path="url(#p0e65e6f133)" style="fill: none; stroke: #1f77b4; stroke-width: 1.5"/>
    <path d="M 84.25017 47.759141 
L 84.25017 29.328674 
" clip-path="url(#p0e65e6f133)" style="fill: none; stroke: #1f77b4; stroke-width: 1.5"/>
    <path d="M 85.771989 43.036596 
L 85.771989 24.013266 
" clip-path="url(#p0e65e6f133)" style="fill: none; stroke: #1f77b4; stroke-width: 1.5"/>
    <path d="M 87.293807 39.162646 
L 87.293807 19.895426 
" clip-path="url(#p0e65e6f133)" style="fill: none; stroke: #1f77b4; stroke-width: 1.5"/>
    <path d="M 88.815625 41.302879 
L 88.815625 22.066183 
" clip-path="url(#p0e65e6f133)" style="fill: none; stroke: #1f77b4; stroke-width: 1.5"/>
    <path d="M 90.337443 42.774447 
L 90.337443 24.121368 
" clip-path="url(#p0e65e6f133)" style="fill: none; stroke: #1f77b4; stroke-width: 1.5"/>
    <path d="M 91.859261 47.360784 
L 91.859261 28.239894 
" clip-path="url(#p0e65e6f133)" style="fill: none; stroke: #1f77b4; stroke-width: 1.5"/>
    <path d="M 93.38108 44.683278 
L 93.38108 25.872757 
" clip-path="url(#p0e65e6f133)" style="fill: none; stroke: #1f77b4; stroke-width: 1.5"/>
    <path d="M 94.902898 44.350753 
L 94.902898 25.523439 
" clip-path="url(#p0e65e6f133)" style="fill: none; stroke: #1f77b4; stroke-width: 1.5"/>
    <path d="M 96.424716 45.397323 
L 96.424716 26.640939 
" clip-path="url(#p0e65e6f133)" style="fill: none; stroke: #1f77b4; stroke-width: 1.5"/>
    <path d="M 97.946534 62.916728 
L 97.946534 45.510023 
" clip-path="url(#p0e65e6f133)" style="fill: none; stroke: #1f77b4; stroke-width: 1.5"/>
    <path d="M 99.468352 53.399687 
L 99.468352 35.017481 
" clip-path="url(#p0e65e6f133)" style="fill: none; stroke: #1f77b4; stroke-width: 1.5"/>
    <path d="M 100.99017 56.72779 
L 100.99017 38.769097 
" clip-path="url(#p0e65e6f133)" style="fill: none; stroke: #1f77b4; stroke-width: 1.5"/>
    <path d="M 102.511989 53.025637 
L 102.511989 34.777413 
" clip-path="url(#p0e65e6f133)" style="fill: none; stroke: #1f77b4; stroke-width: 1.5"/>
    <path d="M 104.033807 47.630811 
L 104.033807 29.027857 
" clip-path="url(#p0e65e6f133)" style="fill: none; stroke: #1f77b4; stroke-width: 1.5"/>
    <path d="M 105.555625 57.74031 
L 105.555625 39.850415 
" clip-path="url(#p0e65e6f133)" style="fill: none; stroke: #1f77b4; stroke-width: 1.5"/>
    <path d="M 107.077443 79.513678 
L 107.077443 63.26065 
" clip-path="url(#p0e65e6f133)" style="fill: none; stroke: #1f77b4; stroke-width: 1.5"/>
    <path d="M 108.599261 69.267071 
L 108.599261 52.456445 
" clip-path="url(#p0e65e6f133)" style="fill: none; stroke: #1f77b4; stroke-width: 1.5"/>
    <path d="M 110.12108 54.992686 
L 110.12108 37.220667 
" clip-path="url(#p0e65e6f133)" style="fill: none; stroke: #1f77b4; stroke-width: 1.5"/>
    <path d="M 111.642898 55.914935 
L 111.642898 37.953119 
" clip-path="url(#p0e65e6f133)" style="fill: none; stroke: #1f77b4; stroke-width: 1.5"/>
    <path d="M 113.164716 70.435627 
L 113.164716 53.370119 
" clip-path="url(#p0e65e6f133)" style="fill: none; stroke: #1f77b4; stroke-width: 1.5"/>
    <path d="M 114.686534 68.302389 
L 114.686534 51.617092 
" clip-path="url(#p0e65e6f133)" style="fill: none; stroke: #1f77b4; stroke-width: 1.5"/>
    <path d="M 116.208352 42.818021 
L 116.208352 24.553201 
" clip-path="url(#p0e65e6f133)" style="fill: none; stroke: #1f77b4; stroke-width: 1.5"/>
    <path d="M 117.73017 64.769643 
L 117.73017 47.642999 
" clip-path="url(#p0e65e6f133)" style="fill: none; stroke: #1f77b4; stroke-width: 1.5"/>
    <path d="M 119.251989 52.458699 
L 119.251989 34.710246 
" clip-path="url(#p0e65e6f133)" style="fill: none; stroke: #1f77b4; stroke-width: 1.5"/>
    <path d="M 120.773807 73.76966 
L 120.773807 57.081834 
" clip-path="url(#p0e65e6f133)" style="fill: none; stroke: #1f77b4; stroke-width: 1.5"/>
    <path d="M 122.295625 57.450212 
L 122.295625 40.228612 
" clip-path="url(#p0e65e6f133)" style="fill: none; stroke: #1f77b4; stroke-width: 1.5"/>
    <path d="M 123.817443 58.826959 
L 123.817443 41.300005 
" clip-path="url(#p0e65e6f133)" style="fill: none; stroke: #1f77b4; stroke-width: 1.5"/>
    <path d="M 125.339261 65.131805 
L 125.339261 47.8869 
" clip-path="url(#p0e65e6f133)" style="fill: none; stroke: #1f77b4; stroke-width: 1.5"/>
    <path d="M 126.86108 71.606018 
L 126.86108 55.3604 
" clip-path="url(#p0e65e6f133)" style="fill: none; stroke: #1f77b4; stroke-width: 1.5"/>
    <path d="M 128.382898 67.485386 
L 128.382898 50.72565 
" clip-path="url(#p0e65e6f133)" style="fill: none; stroke: #1f77b4; stroke-width: 1.5"/>
    <path d="M 129.904716 63.405094 
L 129.904716 46.245489 
" clip-path="url(#p0e65e6f133)" style="fill: none; stroke: #1f77b4; stroke-width: 1.5"/>
    <path d="M 131.426534 66.476561 
L 131.426534 49.3573 
" clip-path="url(#p0e65e6f133)" style="fill: none; stroke: #1f77b4; stroke-width: 1.5"/>
    <path d="M 132.948352 64.794689 
L 132.948352 47.890112 
" clip-path="url(#p0e65e6f133)" style="fill: none; stroke: #1f77b4; stroke-width: 1.5"/>
    <path d="M 134.47017 53.031592 
L 134.47017 35.285161 
" clip-path="url(#p0e65e6f133)" style="fill: none; stroke: #1f77b4; stroke-width: 1.5"/>
    <path d="M 135.991989 68.681255 
L 135.991989 52.638582 
" clip-path="url(#p0e65e6f133)" style="fill: none; stroke: #1f77b4; stroke-width: 1.5"/>
    <path d="M 137.513807 76.514516 
L 137.513807 60.266653 
" clip-path="url(#p0e65e6f133)" style="fill: none; stroke: #1f77b4; stroke-width: 1.5"/>
    <path d="M 139.035625 69.761002 
L 139.035625 53.281203 
" clip-path="url(#p0e65e6f133)" style="fill: none; stroke: #1f77b4; stroke-width: 1.5"/>
    <path d="M 140.557443 72.984526 
L 140.557443 56.560003 
" clip-path="url(#p0e65e6f133)" style="fill: none; stroke: #1f77b4; stroke-width: 1.5"/>
    <path d="M 142.079261 73.480638 
L 142.079261 57.094646 
" clip-path="url(#p0e65e6f133)" style="fill: none; stroke: #1f77b4; stroke-width: 1.5"/>
    <path d="M 143.60108 70.817472 
L 143.60108 54.383062 
" clip-path="url(#p0e65e6f133)" style="fill: none; stroke: #1f77b4; stroke-width: 1.5"/>
    <path d="M 145.122898 67.536215 
L 145.122898 50.878592 
" clip-path="url(#p0e65e6f133)" style="fill: none; stroke: #1f77b4; stroke-width: 1.5"/>
    <path d="M 146.644716 67.608517 
L 146.644716 51.350819 
" clip-path="url(#p0e65e6f133)" style="fill: none; stroke: #1f77b4; stroke-width: 1.5"/>
    <path d="M 148.166534 78.971129 
L 148.166534 63.596076 
" clip-path="url(#p0e65e6f133)" style="fill: none; stroke: #1f77b4; stroke-width: 1.5"/>
    <path d="M 149.688352 75.11808 
L 149.688352 59.022926 
" clip-path="url(#p0e65e6f133)" style="fill: none; stroke: #1f77b4; stroke-width: 1.5"/>
    <path d="M 151.21017 60.079865 
L 151.21017 42.928116 
" clip-path="url(#p0e65e6f133)" style="fill: none; stroke: #1f77b4; stroke-width: 1.5"/>
    <path d="M 152.731989 72.035225 
L 152.731989 55.759427 
" clip-path="url(#p0e65e6f133)" style="fill: none; stroke: #1f77b4; stroke-width: 1.5"/>
    <path d="M 154.253807 79.583386 
L 154.253807 64.381179 
" clip-path="url(#p0e65e6f133)" style="fill: none; stroke: #1f77b4; stroke-width: 1.5"/>
    <path d="M 155.775625 81.827395 
L 155.775625 66.467958 
" clip-path="url(#p0e65e6f133)" style="fill: none; stroke: #1f77b4; stroke-width: 1.5"/>
    <path d="M 157.297443 83.542014 
L 157.297443 68.305601 
" clip-path="url(#p0e65e6f133)" style="fill: none; stroke: #1f77b4; stroke-width: 1.5"/>
    <path d="M 158.819261 78.886808 
L 158.819261 63.494563 
" clip-path="url(#p0e65e6f133)" style="fill: none; stroke: #1f77b4; stroke-width: 1.5"/>
    <path d="M 160.34108 70.776936 
L 160.34108 54.727835 
" clip-path="url(#p0e65e6f133)" style="fill: none; stroke: #1f77b4; stroke-width: 1.5"/>
    <path d="M 161.862898 60.085787 
L 161.862898 43.259972 
" clip-path="url(#p0e65e6f133)" style="fill: none; stroke: #1f77b4; stroke-width: 1.5"/>
    <path d="M 163.384716 85.321679 
L 163.384716 70.462491 
" clip-path="url(#p0e65e6f133)" style="fill: none; stroke: #1f77b4; stroke-width: 1.5"/>
    <path d="M 164.906534 76.415083 
L 164.906534 60.458132 
" clip-path="url(#p0e65e6f133)" style="fill: none; stroke: #1f77b4; stroke-width: 1.5"/>
    <path d="M 166.428352 91.9288 
L 166.428352 77.209904 
" clip-path="url(#p0e65e6f133)" style="fill: none; stroke: #1f77b4; stroke-width: 1.5"/>
    <path d="M 167.95017 85.209632 
L 167.95017 70.296466 
" clip-path="url(#p0e65e6f133)" style="fill: none; stroke: #1f77b4; stroke-width: 1.5"/>
    <path d="M 169.471989 68.060647 
L 169.471989 52.023214 
" clip-path="url(#p0e65e6f133)" style="fill: none; stroke: #1f77b4; stroke-width: 1.5"/>
    <path d="M 170.993807 78.688905 
L 170.993807 63.744304 
" clip-path="url(#p0e65e6f133)" style="fill: none; stroke: #1f77b4; stroke-width: 1.5"/>
    <path d="M 172.515625 78.984479 
L 172.515625 63.584662 
" clip-path="url(#p0e65e6f133)" style="fill: none; stroke: #1f77b4; stroke-width: 1.5"/>
    <path d="M 174.037443 96.847547 
L 174.037443 83.101857 
" clip-path="url(#p0e65e6f133)" style="fill: none; stroke: #1f77b4; stroke-width: 1.5"/>
    <path d="M 175.559261 85.390212 
L 175.559261 70.329281 
" clip-path="url(#p0e65e6f133)" style="fill: none; stroke: #1f77b4; stroke-width: 1.5"/>
    <path d="M 177.08108 86.283686 
L 177.08108 71.796704 
" clip-path="url(#p0e65e6f133)" style="fill: none; stroke: #1f77b4; stroke-width: 1.5"/>
    <path d="M 178.602898 93.59984 
L 178.602898 79.074079 
" clip-path="url(#p0e65e6f133)" style="fill: none; stroke: #1f77b4; stroke-width: 1.5"/>
    <path d="M 180.124716 82.249034 
L 180.124716 67.238058 
" clip-path="url(#p0e65e6f133)" style="fill: none; stroke: #1f77b4; stroke-width: 1.5"/>
    <path d="M 181.646534 74.485886 
L 181.646534 58.873627 
" clip-path="url(#p0e65e6f133)" style="fill: none; stroke: #1f77b4; stroke-width: 1.5"/>
    <path d="M 183.168352 84.130534 
L 183.168352 69.053865 
" clip-path="url(#p0e65e6f133)" style="fill: none; stroke: #1f77b4; stroke-width: 1.5"/>
    <path d="M 184.69017 77.597584 
L 184.69017 62.540562 
" clip-path="url(#p0e65e6f133)" style="fill: none; stroke: #1f77b4; stroke-width: 1.5"/>
    <path d="M 186.211989 79.70465 
L 186.211989 64.522989 
" clip-path="url(#p0e65e6f133)" style="fill: none; stroke: #1f77b4; stroke-width: 1.5"/>
    <path d="M 187.733807 77.980348 
L 187.733807 62.377833 
" clip-path="url(#p0e65e6f133)" style="fill: none; stroke: #1f77b4; stroke-width: 1.5"/>
    <path d="M 189.255625 89.986353 
L 189.255625 75.533217 
" clip-path="url(#p0e65e6f133)" style="fill: none; stroke: #1f77b4; stroke-width: 1.5"/>
    <path d="M 190.777443 95.313607 
L 190.777443 81.503963 
" clip-path="url(#p0e65e6f133)" style="fill: none; stroke: #1f77b4; stroke-width: 1.5"/>
    <path d="M 192.299261 87.666635 
L 192.299261 73.255505 
" clip-path="url(#p0e65e6f133)" style="fill: none; stroke: #1f77b4; stroke-width: 1.5"/>
    <path d="M 193.82108 92.485462 
L 193.82108 78.378547 
" clip-path="url(#p0e65e6f133)" style="fill: none; stroke: #1f77b4; stroke-width: 1.5"/>
    <path d="M 195.342898 81.425992 
L 195.342898 66.420596 
" clip-path="url(#p0e65e6f133)" style="fill: none; stroke: #1f77b4; stroke-width: 1.5"/>
    <path d="M 196.864716 93.100813 
L 196.864716 78.902285 
" clip-path="url(#p0e65e6f133)" style="fill: none; stroke: #1f77b4; stroke-width: 1.5"/>
    <path d="M 198.386534 83.790426 
L 198.386534 69.055222 
" clip-path="url(#p0e65e6f133)" style="fill: none; stroke: #1f77b4; stroke-width: 1.5"/>
    <path d="M 199.908352 84.192001 
L 199.908352 69.384613 
" clip-path="url(#p0e65e6f133)" style="fill: none; stroke: #1f77b4; stroke-width: 1.5"/>
    <path d="M 201.43017 90.501232 
L 201.43017 75.878631 
" clip-path="url(#p0e65e6f133)" style="fill: none; stroke: #1f77b4; stroke-width: 1.5"/>
    <path d="M 202.951989 102.173604 
L 202.951989 88.98003 
" clip-path="url(#p0e65e6f133)" style="fill: none; stroke: #1f77b4; stroke-width: 1.5"/>
    <path d="M 204.473807 93.871719 
L 204.473807 79.882807 
" clip-path="url(#p0e65e6f133)" style="fill: none; stroke: #1f77b4; stroke-width: 1.5"/>
    <path d="M 205.995625 89.268572 
L 205.995625 74.750186 
" clip-path="url(#p0e65e6f133)" style="fill: none; stroke: #1f77b4; stroke-width: 1.5"/>
    <path d="M 207.517443 93.599935 
L 207.517443 79.564471 
" clip-path="url(#p0e65e6f133)" style="fill: none; stroke: #1f77b4; stroke-width: 1.5"/>
    <path d="M 209.039261 101.383258 
L 209.039261 88.013373 
" clip-path="url(#p0e65e6f133)" style="fill: none; stroke: #1f77b4; stroke-width: 1.5"/>
    <path d="M 210.56108 103.046492 
L 210.56108 89.777425 
" clip-path="url(#p0e65e6f133)" style="fill: none; stroke: #1f77b4; stroke-width: 1.5"/>
    <path d="M 212.082898 95.150687 
L 212.082898 81.312763 
" clip-path="url(#p0e65e6f133)" style="fill: none; stroke: #1f77b4; stroke-width: 1.5"/>
    <path d="M 213.604716 89.860161 
L 213.604716 75.629215 
" clip-path="url(#p0e65e6f133)" style="fill: none; stroke: #1f77b4; stroke-width: 1.5"/>
    <path d="M 215.126534 92.147036 
L 215.126534 78.298443 
" clip-path="url(#p0e65e6f133)" style="fill: none; stroke: #1f77b4; stroke-width: 1.5"/>
    <path d="M 216.648352 92.795485 
L 216.648352 78.59233 
" clip-path="url(#p0e65e6f133)" style="fill: none; stroke: #1f77b4; stroke-width: 1.5"/>
    <path d="M 218.17017 103.768955 
L 218.17017 90.4194 
" clip-path="url(#p0e65e6f133)" style="fill: none; stroke: #1f77b4; stroke-width: 1.5"/>
    <path d="M 219.691989 89.560375 
L 219.691989 75.451477 
" clip-path="url(#p0e65e6f133)" style="fill: none; stroke: #1f77b4; stroke-width: 1.5"/>
    <path d="M 221.213807 91.832459 
L 221.213807 78.056348 
" clip-path="url(#p0e65e6f133)" style="fill: none; stroke: #1f77b4; stroke-width: 1.5"/>
    <path d="M 222.735625 96.965084 
L 222.735625 83.369974 
" clip-path="url(#p0e65e6f133)" style="fill: none; stroke: #1f77b4; stroke-width: 1.5"/>
    <path d="M 224.257443 102.689656 
L 224.257443 89.450991 
" clip-path="url(#p0e65e6f133)" style="fill: none; stroke: #1f77b4; stroke-width: 1.5"/>
    <path d="M 225.779261 95.981 
L 225.779261 82.367553 
" clip-path="url(#p0e65e6f133)" style="fill: none; stroke: #1f77b4; stroke-width: 1.5"/>
    <path d="M 227.30108 95.417522 
L 227.30108 81.564056 
" clip-path="url(#p0e65e6f133)" style="fill: none; stroke: #1f77b4; stroke-width: 1.5"/>
    <path d="M 228.822898 89.692527 
L 228.822898 75.547476 
" clip-path="url(#p0e65e6f133)" style="fill: none; stroke: #1f77b4; stroke-width: 1.5"/>
    <path d="M 230.344716 97.486726 
L 230.344716 84.605477 
" clip-path="url(#p0e65e6f133)" style="fill: none; stroke: #1f77b4; stroke-width: 1.5"/>
    <path d="M 231.866534 112.552131 
L 231.866534 100.179475 
" clip-path="url(#p0e65e6f133)" style="fill: none; stroke: #1f77b4; stroke-width: 1.5"/>
    <path d="M 233.388352 116.408762 
L 233.388352 104.266631 
" clip-path="url(#p0e65e6f133)" style="fill: none; stroke: #1f77b4; stroke-width: 1.5"/>
    <path d="M 234.91017 87.860837 
L 234.91017 73.786641 
" clip-path="url(#p0e65e6f133)" style="fill: none; stroke: #1f77b4; stroke-width: 1.5"/>
    <path d="M 236.431989 96.375391 
L 236.431989 82.62706 
" clip-path="url(#p0e65e6f133)" style="fill: none; stroke: #1f77b4; stroke-width: 1.5"/>
    <path d="M 237.953807 104.773883 
L 237.953807 92.030529 
" clip-path="url(#p0e65e6f133)" style="fill: none; stroke: #1f77b4; stroke-width: 1.5"/>
    <path d="M 239.475625 113.298194 
L 239.475625 101.150769 
" clip-path="url(#p0e65e6f133)" style="fill: none; stroke: #1f77b4; stroke-width: 1.5"/>
    <path d="M 240.997443 102.889168 
L 240.997443 89.964898 
" clip-path="url(#p0e65e6f133)" style="fill: none; stroke: #1f77b4; stroke-width: 1.5"/>
    <path d="M 242.519261 98.541293 
L 242.519261 85.399732 
" clip-path="url(#p0e65e6f133)" style="fill: none; stroke: #1f77b4; stroke-width: 1.5"/>
    <path d="M 244.04108 107.958534 
L 244.04108 95.397423 
" clip-path="url(#p0e65e6f133)" style="fill: none; stroke: #1f77b4; stroke-width: 1.5"/>
    <path d="M 245.562898 92.436765 
L 245.562898 78.171394 
" clip-path="url(#p0e65e6f133)" style="fill: none; stroke: #1f77b4; stroke-width: 1.5"/>
    <path d="M 247.084716 98.913695 
L 247.084716 85.59146 
" clip-path="url(#p0e65e6f133)" style="fill: none; stroke: #1f77b4; stroke-width: 1.5"/>
    <path d="M 248.606534 95.400648 
L 248.606534 82.207417 
" clip-path="url(#p0e65e6f133)" style="fill: none; stroke: #1f77b4; stroke-width: 1.5"/>
    <path d="M 250.128352 103.909735 
L 250.128352 91.156958 
" clip-path="url(#p0e65e6f133)" style="fill: none; stroke: #1f77b4; stroke-width: 1.5"/>
    <path d="M 251.65017 113.69714 
L 251.65017 101.698817 
" clip-path="url(#p0e65e6f133)" style="fill: none; stroke: #1f77b4; stroke-width: 1.5"/>
    <path d="M 253.171989 112.949844 
L 253.171989 100.92928 
" clip-path="url(#p0e65e6f133)" style="fill: none; stroke: #1f77b4; stroke-width: 1.5"/>
    <path d="M 254.693807 109.774758 
L 254.693807 97.393184 
" clip-path="url(#p0e65e6f133)" style="fill: none; stroke: #1f77b4; stroke-width: 1.5"/>
    <path d="M 256.215625 100.252149 
L 256.215625 87.496745 
" clip-path="url(#p0e65e6f133)" style="fill: none; stroke: #1f77b4; stroke-width: 1.5"/>
    <path d="M 257.737443 96.149042 
L 257.737443 82.625888 
" clip-path="url(#p0e65e6f133)" style="fill: none; stroke: #1f77b4; stroke-width: 1.5"/>
    <path d="M 259.259261 110.394706 
L 259.259261 97.550628 
" clip-path="url(#p0e65e6f133)" style="fill: none; stroke: #1f77b4; stroke-width: 1.5"/>
    <path d="M 260.78108 104.222041 
L 260.78108 91.635679 
" clip-path="url(#p0e65e6f133)" style="fill: none; stroke: #1f77b4; stroke-width: 1.5"/>
    <path d="M 262.302898 114.303459 
L 262.302898 102.297359 
" clip-path="url(#p0e65e6f133)" style="fill: none; stroke: #1f77b4; stroke-width: 1.5"/>
    <path d="M 263.824716 105.593216 
L 263.824716 92.844257 
" clip-path="url(#p0e65e6f133)" style="fill: none; stroke: #1f77b4; stroke-width: 1.5"/>
    <path d="M 265.346534 115.700399 
L 265.346534 103.763223 
" clip-path="url(#p0e65e6f133)" style="fill: none; stroke: #1f77b4; stroke-width: 1.5"/>
    <path d="M 266.868352 107.272066 
L 266.868352 95.053718 
" clip-path="url(#p0e65e6f133)" style="fill: none; stroke: #1f77b4; stroke-width: 1.5"/>
    <path d="M 268.39017 117.785153 
L 268.39017 106.2299 
" clip-path="url(#p0e65e6f133)" style="fill: none; stroke: #1f77b4; stroke-width: 1.5"/>
    <path d="M 269.911989 107.50526 
L 269.911989 95.285706 
" clip-path="url(#p0e65e6f133)" style="fill: none; stroke: #1f77b4; stroke-width: 1.5"/>
    <path d="M 271.433807 105.784696 
L 271.433807 93.356 
" clip-path="url(#p0e65e6f133)" style="fill: none; stroke: #1f77b4; stroke-width: 1.5"/>
    <path d="M 272.955625 110.162067 
L 272.955625 98.320334 
" clip-path="url(#p0e65e6f133)" style="fill: none; stroke: #1f77b4; stroke-width: 1.5"/>
    <path d="M 274.477443 101.120145 
L 274.477443 88.488029 
" clip-path="url(#p0e65e6f133)" style="fill: none; stroke: #1f77b4; stroke-width: 1.5"/>
    <path d="M 275.999261 114.135816 
L 275.999261 102.170488 
" clip-path="url(#p0e65e6f133)" style="fill: none; stroke: #1f77b4; stroke-width: 1.5"/>
    <path d="M 277.52108 111.057732 
L 277.52108 98.980984 
" clip-path="url(#p0e65e6f133)" style="fill: none; stroke: #1f77b4; stroke-width: 1.5"/>
    <path d="M 279.042898 105.044837 
L 279.042898 92.554221 
" clip-path="url(#p0e65e6f133)" style="fill: none; stroke: #1f77b4; stroke-width: 1.5"/>
    <path d="M 280.564716 112.403273 
L 280.564716 100.39533 
" clip-path="url(#p0e65e6f133)" style="fill: none; stroke: #1f77b4; stroke-width: 1.5"/>
    <path d="M 282.086534 111.294108 
L 282.086534 99.105033 
" clip-path="url(#p0e65e6f133)" style="fill: none; stroke: #1f77b4; stroke-width: 1.5"/>
    <path d="M 283.608352 111.000461 
L 283.608352 98.806359 
" clip-path="url(#p0e65e6f133)" style="fill: none; stroke: #1f77b4; stroke-width: 1.5"/>
    <path d="M 285.13017 112.844401 
L 285.13017 101.183742 
" clip-path="url(#p0e65e6f133)" style="fill: none; stroke: #1f77b4; stroke-width: 1.5"/>
    <path d="M 286.651989 118.083369 
L 286.651989 106.280015 
" clip-path="url(#p0e65e6f133)" style="fill: none; stroke: #1f77b4; stroke-width: 1.5"/>
    <path d="M 288.173807 118.746014 
L 288.173807 107.129397 
" clip-path="url(#p0e65e6f133)" style="fill: none; stroke: #1f77b4; stroke-width: 1.5"/>
    <path d="M 289.695625 117.944074 
L 289.695625 106.526618 
" clip-path="url(#p0e65e6f133)" style="fill: none; stroke: #1f77b4; stroke-width: 1.5"/>
    <path d="M 291.217443 113.177619 
L 291.217443 101.653813 
" clip-path="url(#p0e65e6f133)" style="fill: none; stroke: #1f77b4; stroke-width: 1.5"/>
    <path d="M 292.739261 109.695747 
L 292.739261 97.705362 
" clip-path="url(#p0e65e6f133)" style="fill: none; stroke: #1f77b4; stroke-width: 1.5"/>
    <path d="M 294.26108 125.420147 
L 294.26108 114.319266 
" clip-path="url(#p0e65e6f133)" style="fill: none; stroke: #1f77b4; stroke-width: 1.5"/>
    <path d="M 295.782898 102.907128 
L 295.782898 90.502936 
" clip-path="url(#p0e65e6f133)" style="fill: none; stroke: #1f77b4; stroke-width: 1.5"/>
    <path d="M 297.304716 107.532592 
L 297.304716 95.448001 
" clip-path="url(#p0e65e6f133)" style="fill: none; stroke: #1f77b4; stroke-width: 1.5"/>
    <path d="M 298.826534 119.032807 
L 298.826534 107.857644 
" clip-path="url(#p0e65e6f133)" style="fill: none; stroke: #1f77b4; stroke-width: 1.5"/>
    <path d="M 300.348352 111.126763 
L 300.348352 99.040753 
" clip-path="url(#p0e65e6f133)" style="fill: none; stroke: #1f77b4; stroke-width: 1.5"/>
    <path d="M 301.87017 117.598675 
L 301.87017 106.134633 
" clip-path="url(#p0e65e6f133)" style="fill: none; stroke: #1f77b4; stroke-width: 1.5"/>
    <path d="M 303.391989 111.698847 
L 303.391989 100.100423 
" clip-path="url(#p0e65e6f133)" style="fill: none; stroke: #1f77b4; stroke-width: 1.5"/>
    <path d="M 304.913807 122.837965 
L 304.913807 111.818594 
" clip-path="url(#p0e65e6f133)" style="fill: none; stroke: #1f77b4; stroke-width: 1.5"/>
    <path d="M 306.435625 112.979967 
L 306.435625 101.501151 
" clip-path="url(#p0e65e6f133)" style="fill: none; stroke: #1f77b4; stroke-width: 1.5"/>
    <path d="M 307.957443 116.3208 
L 307.957443 104.740058 
" clip-path="url(#p0e65e6f133)" style="fill: none; stroke: #1f77b4; stroke-width: 1.5"/>
    <path d="M 309.479261 121.739196 
L 309.479261 110.55281 
" clip-path="url(#p0e65e6f133)" style="fill: none; stroke: #1f77b4; stroke-width: 1.5"/>
    <path d="M 311.00108 116.888381 
L 311.00108 105.861355 
" clip-path="url(#p0e65e6f133)" style="fill: none; stroke: #1f77b4; stroke-width: 1.5"/>
    <path d="M 312.522898 119.194127 
L 312.522898 108.032449 
" clip-path="url(#p0e65e6f133)" style="fill: none; stroke: #1f77b4; stroke-width: 1.5"/>
    <path d="M 314.044716 111.746914 
L 314.044716 99.638488 
" clip-path="url(#p0e65e6f133)" style="fill: none; stroke: #1f77b4; stroke-width: 1.5"/>
    <path d="M 315.566534 124.664513 
L 315.566534 113.778309 
" clip-path="url(#p0e65e6f133)" style="fill: none; stroke: #1f77b4; stroke-width: 1.5"/>
    <path d="M 317.088352 118.577819 
L 317.088352 107.180501 
" clip-path="url(#p0e65e6f133)" style="fill: none; stroke: #1f77b4; stroke-width: 1.5"/>
    <path d="M 318.61017 120.428407 
L 318.61017 109.504136 
" clip-path="url(#p0e65e6f133)" style="fill: none; stroke: #1f77b4; stroke-width: 1.5"/>
    <path d="M 320.131989 119.96473 
L 320.131989 108.788221 
" clip-path="url(#p0e65e6f133)" style="fill: none; stroke: #1f77b4; stroke-width: 1.5"/>
    <path d="M 321.653807 117.414955 
L 321.653807 105.856531 
" clip-path="url(#p0e65e6f133)" style="fill: none; stroke: #1f77b4; stroke-width: 1.5"/>
    <path d="M 323.175625 127.559957 
L 323.175625 117.007974 
" clip-path="url(#p0e65e6f133)" style="fill: none; stroke: #1f77b4; stroke-width: 1.5"/>
    <path d="M 324.697443 125.748276 
L 324.697443 115.443762 
" clip-path="url(#p0e65e6f133)" style="fill: none; stroke: #1f77b4; stroke-width: 1.5"/>
    <path d="M 326.219261 124.5517 
L 326.219261 113.784441 
" clip-path="url(#p0e65e6f133)" style="fill: none; stroke: #1f77b4; stroke-width: 1.5"/>
    <path d="M 327.74108 127.652632 
L 327.74108 117.029681 
" clip-path="url(#p0e65e6f133)" style="fill: none; stroke: #1f77b4; stroke-width: 1.5"/>
    <path d="M 329.262898 142.95756 
L 329.262898 133.127989 
" clip-path="url(#p0e65e6f133)" style="fill: none; stroke: #1f77b4; stroke-width: 1.5"/>
    <path d="M 330.784716 145.996077 
L 330.784716 136.406653 
" clip-path="url(#p0e65e6f133)" style="fill: none; stroke: #1f77b4; stroke-width: 1.5"/>
    <path d="M 332.306534 154.569361 
L 332.306534 145.407785 
" clip-path="url(#p0e65e6f133)" style="fill: none; stroke: #1f77b4; stroke-width: 1.5"/>
    <path d="M 333.828352 165.948862 
L 333.828352 157.68106 
" clip-path="url(#p0e65e6f133)" style="fill: none; stroke: #1f77b4; stroke-width: 1.5"/>
    <path d="M 335.35017 179.723948 
L 335.35017 172.727221 
" clip-path="url(#p0e65e6f133)" style="fill: none; stroke: #1f77b4; stroke-width: 1.5"/>
    <path d="M 336.871989 189.010001 
L 336.871989 183.006497 
" clip-path="url(#p0e65e6f133)" style="fill: none; stroke: #1f77b4; stroke-width: 1.5"/>
    <path d="M 338.393807 199.651854 
L 338.393807 195.189451 
" clip-path="url(#p0e65e6f133)" style="fill: none; stroke: #1f77b4; stroke-width: 1.5"/>
    <path d="M 339.915625 209.140438 
L 339.915625 206.593837 
" clip-path="url(#p0e65e6f133)" style="fill: none; stroke: #1f77b4; stroke-width: 1.5"/>
    <path d="M 341.437443 215.905287 
L 341.437443 214.942066 
" clip-path="url(#p0e65e6f133)" style="fill: none; stroke: #1f77b4; stroke-width: 1.5"/>
    <path d="M 342.959261 217.677402 
L 342.959261 217.301728 
" clip-path="url(#p0e65e6f133)" style="fill: none; stroke: #1f77b4; stroke-width: 1.5"/>
    <path d="M 344.48108 218.38398 
L 344.48108 218.249124 
" clip-path="url(#p0e65e6f133)" style="fill: none; stroke: #1f77b4; stroke-width: 1.5"/>
    <path d="M 346.002898 218.706149 
L 346.002898 218.657554 
" clip-path="url(#p0e65e6f133)" style="fill: none; stroke: #1f77b4; stroke-width: 1.5"/>
    <path d="M 347.524716 218.809299 
L 347.524716 218.782271 
" clip-path="url(#p0e65e6f133)" style="fill: none; stroke: #1f77b4; stroke-width: 1.5"/>
    <path d="M 349.046534 218.857446 
L 349.046534 218.851643 
" clip-path="url(#p0e65e6f133)" style="fill: none; stroke: #1f77b4; stroke-width: 1.5"/>
    <path d="M 350.568352 218.868601 
L 350.568352 218.865403 
" clip-path="url(#p0e65e6f133)" style="fill: none; stroke: #1f77b4; stroke-width: 1.5"/>
    <path d="M 352.09017 218.874766 
L 352.09017 218.872707 
" clip-path="url(#p0e65e6f133)" style="fill: none; stroke: #1f77b4; stroke-width: 1.5"/>
    <path d="M 353.611989 218.878217 
L 353.611989 218.877678 
" clip-path="url(#p0e65e6f133)" style="fill: none; stroke: #1f77b4; stroke-width: 1.5"/>
    <path d="M 355.133807 218.879187 
L 355.133807 218.878656 
" clip-path="url(#p0e65e6f133)" style="fill: none; stroke: #1f77b4; stroke-width: 1.5"/>
    <path d="M 356.655625 218.879734 
L 356.655625 218.879635 
" clip-path="url(#p0e65e6f133)" style="fill: none; stroke: #1f77b4; stroke-width: 1.5"/>
    <path d="M 358.177443 218.879832 
L 358.177443 218.879712 
" clip-path="url(#p0e65e6f133)" style="fill: none; stroke: #1f77b4; stroke-width: 1.5"/>
    <path d="M 359.699261 218.879964 
L 359.699261 218.879936 
" clip-path="url(#p0e65e6f133)" style="fill: none; stroke: #1f77b4; stroke-width: 1.5"/>
    <path d="M 361.22108 218.879979 
L 361.22108 218.879958 
" clip-path="url(#p0e65e6f133)" style="fill: none; stroke: #1f77b4; stroke-width: 1.5"/>
    <path d="M 362.742898 218.879992 
L 362.742898 218.879978 
" clip-path="url(#p0e65e6f133)" style="fill: none; stroke: #1f77b4; stroke-width: 1.5"/>
    <path d="M 364.264716 218.879996 
L 364.264716 218.879991 
" clip-path="url(#p0e65e6f133)" style="fill: none; stroke: #1f77b4; stroke-width: 1.5"/>
    <path d="M 365.786534 218.88 
L 365.786534 218.879999 
" clip-path="url(#p0e65e6f133)" style="fill: none; stroke: #1f77b4; stroke-width: 1.5"/>
   </g>
  </g>
 </g>
 <defs>
  <clipPath id="p0e65e6f133">
   <rect x="46.965625" y="7.2" width="334.8" height="221.76"/>
  </clipPath>
 </defs>
</svg>