<?xml version="1.0" encoding="utf-8" standalone="no"?>
<!DOCTYPE svg PUBLIC "-//W3C//DTD SVG 1.1//EN"
  "http://www.w3.org/Graphics/SVG/1.1/DTD/svg11.dtd">
<svg xmlns:xlink="http://www.w3.org/1999/xlink" width="423.8785pt" height="280.132187pt" viewBox="0 0 423.8785 280.132187" xmlns="http://www.w3.org/2000/svg" version="1.1">
 <metadata>
  <rdf:RDF xmlns:dc="http://purl.org/dc/elements/1.1/" xmlns:cc="http://creativecommons.org/ns#" xmlns:rdf="http://www.w3.org/1999/02/22-rdf-syntax-ns#">
   <cc:Work>
    <dc:type rdf:resource="http://purl.org/dc/dcmitype/StillImage"/>
    <dc:date>2024-08-01T15:38:52.244744</dc:date>
    <dc:format>image/svg+xml</dc:format>
    <dc:creator>
     <cc:Agent>
      <dc:title>Matplotlib v3.9.1, https://matplotlib.org/</dc:title>
     </cc:Agent>
    </dc:creator>
   </cc:Work>
  </rdf:RDF>
 </metadata>
 <defs>
  <style type="text/css">*{stroke-linejoin: round; stroke-linecap: butt}</style>
 </defs>
 <g id="figure_1">
  <g id="patch_1">
   <path d="M 0 280.132187 
L 423.8785 280.132187 
L 423.8785 0 
L 0 0 
z
" style="fill: #ffffff"/>
  </g>
  <g id="axes_1">
   <g id="patch_2">
    <path d="M 45.478125 241.6525 
L 403.085725 241.6525 
L 403.085725 7.2 
L 45.478125 7.2 
z
" style="fill: #ffffff"/>
   </g>
   <g id="matplotlib.axis_1">
    <g id="xtick_1">
     <g id="line2d_1">
      <defs>
       <path id="m3e752d4536" d="M 0 0 
L 0 3.5 
" style="stroke: #000000; stroke-width: 0.8"/>
      </defs>
      <g>
       <use xlink:href="#m3e752d4536" x="53.85888" y="241.6525" style="stroke: #000000; stroke-width: 0.8"/>
      </g>
     </g>
     <g id="text_1">
      <!-- 0.000 -->
      <g transform="translate(39.544818 256.250937) scale(0.1 -0.1)">
       <defs>
        <path id="DejaVuSans-30" d="M 2034 4250 
Q 1547 4250 1301 3770 
Q 1056 3291 1056 2328 
Q 1056 1369 1301 889 
Q 1547 409 2034 409 
Q 2525 409 2770 889 
Q 3016 1369 3016 2328 
Q 3016 3291 2770 3770 
Q 2525 4250 2034 4250 
z
M 2034 4750 
Q 2819 4750 3233 4129 
Q 3647 3509 3647 2328 
Q 3647 1150 3233 529 
Q 2819 -91 2034 -91 
Q 1250 -91 836 529 
Q 422 1150 422 2328 
Q 422 3509 836 4129 
Q 1250 4750 2034 4750 
z
" transform="scale(0.015625)"/>
        <path id="DejaVuSans-2e" d="M 684 794 
L 1344 794 
L 1344 0 
L 684 0 
L 684 794 
z
" transform="scale(0.015625)"/>
       </defs>
       <use xlink:href="#DejaVuSans-30"/>
       <use xlink:href="#DejaVuSans-2e" x="63.623047"/>
       <use xlink:href="#DejaVuSans-30" x="95.410156"/>
       <use xlink:href="#DejaVuSans-30" x="159.033203"/>
       <use xlink:href="#DejaVuSans-30" x="222.65625"/>
      </g>
     </g>
    </g>
    <g id="xtick_2">
     <g id="line2d_2">
      <g>
       <use xlink:href="#m3e752d4536" x="97.422075" y="241.6525" style="stroke: #000000; stroke-width: 0.8"/>
      </g>
     </g>
     <g id="text_2">
      <!-- 0.025 -->
      <g transform="translate(83.108013 256.250937) scale(0.1 -0.1)">
       <defs>
        <path id="DejaVuSans-32" d="M 1228 531 
L 3431 531 
L 3431 0 
L 469 0 
L 469 531 
Q 828 903 1448 1529 
Q 2069 2156 2228 2338 
Q 2531 2678 2651 2914 
Q 2772 3150 2772 3378 
Q 2772 3750 2511 3984 
Q 2250 4219 1831 4219 
Q 1534 4219 1204 4116 
Q 875 4013 500 3803 
L 500 4441 
Q 881 4594 1212 4672 
Q 1544 4750 1819 4750 
Q 2544 4750 2975 4387 
Q 3406 4025 3406 3419 
Q 3406 3131 3298 2873 
Q 3191 2616 2906 2266 
Q 2828 2175 2409 1742 
Q 1991 1309 1228 531 
z
" transform="scale(0.015625)"/>
        <path id="DejaVuSans-35" d="M 691 4666 
L 3169 4666 
L 3169 4134 
L 1269 4134 
L 1269 2991 
Q 1406 3038 1543 3061 
Q 1681 3084 1819 3084 
Q 2600 3084 3056 2656 
Q 3513 2228 3513 1497 
Q 3513 744 3044 326 
Q 2575 -91 1722 -91 
Q 1428 -91 1123 -41 
Q 819 9 494 109 
L 494 744 
Q 775 591 1075 516 
Q 1375 441 1709 441 
Q 2250 441 2565 725 
Q 2881 1009 2881 1497 
Q 2881 1984 2565 2268 
Q 2250 2553 1709 2553 
Q 1456 2553 1204 2497 
Q 953 2441 691 2322 
L 691 4666 
z
" transform="scale(0.015625)"/>
       </defs>
       <use xlink:href="#DejaVuSans-30"/>
       <use xlink:href="#DejaVuSans-2e" x="63.623047"/>
       <use xlink:href="#DejaVuSans-30" x="95.410156"/>
       <use xlink:href="#DejaVuSans-32" x="159.033203"/>
       <use xlink:href="#DejaVuSans-35" x="222.65625"/>
      </g>
     </g>
    </g>
    <g id="xtick_3">
     <g id="line2d_3">
      <g>
       <use xlink:href="#m3e752d4536" x="140.98527" y="241.6525" style="stroke: #000000; stroke-width: 0.8"/>
      </g>
     </g>
     <g id="text_3">
      <!-- 0.050 -->
      <g transform="translate(126.671207 256.250937) scale(0.1 -0.1)">
       <use xlink:href="#DejaVuSans-30"/>
       <use xlink:href="#DejaVuSans-2e" x="63.623047"/>
       <use xlink:href="#DejaVuSans-30" x="95.410156"/>
       <use xlink:href="#DejaVuSans-35" x="159.033203"/>
       <use xlink:href="#DejaVuSans-30" x="222.65625"/>
      </g>
     </g>
    </g>
    <g id="xtick_4">
     <g id="line2d_4">
      <g>
       <use xlink:href="#m3e752d4536" x="184.548464" y="241.6525" style="stroke: #000000; stroke-width: 0.8"/>
      </g>
     </g>
     <g id="text_4">
      <!-- 0.075 -->
      <g transform="translate(170.234402 256.250937) scale(0.1 -0.1)">
       <defs>
        <path id="DejaVuSans-37" d="M 525 4666 
L 3525 4666 
L 3525 4397 
L 1831 0 
L 1172 0 
L 2766 4134 
L 525 4134 
L 525 4666 
z
" transform="scale(0.015625)"/>
       </defs>
       <use xlink:href="#DejaVuSans-30"/>
       <use xlink:href="#DejaVuSans-2e" x="63.623047"/>
       <use xlink:href="#DejaVuSans-30" x="95.410156"/>
       <use xlink:href="#DejaVuSans-37" x="159.033203"/>
       <use xlink:href="#DejaVuSans-35" x="222.65625"/>
      </g>
     </g>
    </g>
    <g id="xtick_5">
     <g id="line2d_5">
      <g>
       <use xlink:href="#m3e752d4536" x="228.111659" y="241.6525" style="stroke: #000000; stroke-width: 0.8"/>
      </g>
     </g>
     <g id="text_5">
      <!-- 0.100 -->
      <g transform="translate(213.797597 256.250937) scale(0.1 -0.1)">
       <defs>
        <path id="DejaVuSans-31" d="M 794 531 
L 1825 531 
L 1825 4091 
L 703 3866 
L 703 4441 
L 1819 4666 
L 2450 4666 
L 2450 531 
L 3481 531 
L 3481 0 
L 794 0 
L 794 531 
z
" transform="scale(0.015625)"/>
       </defs>
       <use xlink:href="#DejaVuSans-30"/>
       <use xlink:href="#DejaVuSans-2e" x="63.623047"/>
       <use xlink:href="#DejaVuSans-31" x="95.410156"/>
       <use xlink:href="#DejaVuSans-30" x="159.033203"/>
       <use xlink:href="#DejaVuSans-30" x="222.65625"/>
      </g>
     </g>
    </g>
    <g id="xtick_6">
     <g id="line2d_6">
      <g>
       <use xlink:href="#m3e752d4536" x="271.674854" y="241.6525" style="stroke: #000000; stroke-width: 0.8"/>
      </g>
     </g>
     <g id="text_6">
      <!-- 0.125 -->
      <g transform="translate(257.360791 256.250937) scale(0.1 -0.1)">
       <use xlink:href="#DejaVuSans-30"/>
       <use xlink:href="#DejaVuSans-2e" x="63.623047"/>
       <use xlink:href="#DejaVuSans-31" x="95.410156"/>
       <use xlink:href="#DejaVuSans-32" x="159.033203"/>
       <use xlink:href="#DejaVuSans-35" x="222.65625"/>
      </g>
     </g>
    </g>
    <g id="xtick_7">
     <g id="line2d_7">
      <g>
       <use xlink:href="#m3e752d4536" x="315.238048" y="241.6525" style="stroke: #000000; stroke-width: 0.8"/>
      </g>
     </g>
     <g id="text_7">
      <!-- 0.150 -->
      <g transform="translate(300.923986 256.250937) scale(0.1 -0.1)">
       <use xlink:href="#DejaVuSans-30"/>
       <use xlink:href="#DejaVuSans-2e" x="63.623047"/>
       <use xlink:href="#DejaVuSans-31" x="95.410156"/>
       <use xlink:href="#DejaVuSans-35" x="159.033203"/>
       <use xlink:href="#DejaVuSans-30" x="222.65625"/>
      </g>
     </g>
    </g>
    <g id="xtick_8">
     <g id="line2d_8">
      <g>
       <use xlink:href="#m3e752d4536" x="358.801243" y="241.6525" style="stroke: #000000; stroke-width: 0.8"/>
      </g>
     </g>
     <g id="text_8">
      <!-- 0.175 -->
      <g transform="translate(344.487181 256.250937) scale(0.1 -0.1)">
       <use xlink:href="#DejaVuSans-30"/>
       <use xlink:href="#DejaVuSans-2e" x="63.623047"/>
       <use xlink:href="#DejaVuSans-31" x="95.410156"/>
       <use xlink:href="#DejaVuSans-37" x="159.033203"/>
       <use xlink:href="#DejaVuSans-35" x="222.65625"/>
      </g>
     </g>
    </g>
    <g id="xtick_9">
     <g id="line2d_9">
      <g>
       <use xlink:href="#m3e752d4536" x="402.364438" y="241.6525" style="stroke: #000000; stroke-width: 0.8"/>
      </g>
     </g>
     <g id="text_9">
      <!-- 0.200 -->
      <g transform="translate(388.050375 256.250937) scale(0.1 -0.1)">
       <use xlink:href="#DejaVuSans-30"/>
       <use xlink:href="#DejaVuSans-2e" x="63.623047"/>
       <use xlink:href="#DejaVuSans-32" x="95.410156"/>
       <use xlink:href="#DejaVuSans-30" x="159.033203"/>
       <use xlink:href="#DejaVuSans-30" x="222.65625"/>
      </g>
     </g>
    </g>
    <g id="text_10">
     <!-- Q [1/Å] -->
     <g transform="translate(206.569425 270.8525) scale(0.1 -0.1)">
      <defs>
       <path id="DejaVuSans-51" d="M 2522 4238 
Q 1834 4238 1429 3725 
Q 1025 3213 1025 2328 
Q 1025 1447 1429 934 
Q 1834 422 2522 422 
Q 3209 422 3611 934 
Q 4013 1447 4013 2328 
Q 4013 3213 3611 3725 
Q 3209 4238 2522 4238 
z
M 3406 84 
L 4238 -825 
L 3475 -825 
L 2784 -78 
Q 2681 -84 2626 -87 
Q 2572 -91 2522 -91 
Q 1538 -91 948 567 
Q 359 1225 359 2328 
Q 359 3434 948 4092 
Q 1538 4750 2522 4750 
Q 3503 4750 4090 4092 
Q 4678 3434 4678 2328 
Q 4678 1516 4351 937 
Q 4025 359 3406 84 
z
" transform="scale(0.015625)"/>
       <path id="DejaVuSans-20" transform="scale(0.015625)"/>
       <path id="DejaVuSans-5b" d="M 550 4863 
L 1875 4863 
L 1875 4416 
L 1125 4416 
L 1125 -397 
L 1875 -397 
L 1875 -844 
L 550 -844 
L 550 4863 
z
" transform="scale(0.015625)"/>
       <path id="DejaVuSans-2f" d="M 1625 4666 
L 2156 4666 
L 531 -594 
L 0 -594 
L 1625 4666 
z
" transform="scale(0.015625)"/>
       <path id="DejaVuSans-c5" d="M 2663 5081 
Q 2663 5278 2523 5417 
Q 2384 5556 2188 5556 
Q 1988 5556 1852 5420 
Q 1716 5284 1716 5081 
Q 1716 4884 1853 4746 
Q 1991 4609 2188 4609 
Q 2384 4609 2523 4746 
Q 2663 4884 2663 5081 
z
M 2188 4044 
L 1338 1722 
L 3041 1722 
L 2188 4044 
z
M 1716 4366 
Q 1525 4494 1428 4673 
Q 1331 4853 1331 5081 
Q 1331 5441 1579 5691 
Q 1828 5941 2188 5941 
Q 2544 5941 2795 5689 
Q 3047 5438 3047 5081 
Q 3047 4863 2948 4678 
Q 2850 4494 2663 4366 
L 4325 0 
L 3669 0 
L 3244 1197 
L 1141 1197 
L 716 0 
L 50 0 
L 1716 4366 
z
" transform="scale(0.015625)"/>
       <path id="DejaVuSans-5d" d="M 1947 4863 
L 1947 -844 
L 622 -844 
L 622 -397 
L 1369 -397 
L 1369 4416 
L 622 4416 
L 622 4863 
L 1947 4863 
z
" transform="scale(0.015625)"/>
      </defs>
      <use xlink:href="#DejaVuSans-51"/>
      <use xlink:href="#DejaVuSans-20" x="78.710938"/>
      <use xlink:href="#DejaVuSans-5b" x="110.498047"/>
      <use xlink:href="#DejaVuSans-31" x="149.511719"/>
      <use xlink:href="#DejaVuSans-2f" x="213.134766"/>
      <use xlink:href="#DejaVuSans-c5" x="246.826172"/>
      <use xlink:href="#DejaVuSans-5d" x="315.234375"/>
     </g>
    </g>
   </g>
   <g id="matplotlib.axis_2">
    <g id="ytick_1">
     <g id="line2d_10">
      <defs>
       <path id="mead41f9f7d" d="M 0 0 
L -3.5 0 
" style="stroke: #000000; stroke-width: 0.8"/>
      </defs>
      <g>
       <use xlink:href="#mead41f9f7d" x="45.478125" y="241.6525" style="stroke: #000000; stroke-width: 0.8"/>
      </g>
     </g>
     <g id="text_11">
      <!-- $\mathdefault{10^{0}}$ -->
      <g transform="translate(20.878125 245.451719) scale(0.1 -0.1)">
       <use xlink:href="#DejaVuSans-31" transform="translate(0 0.765625)"/>
       <use xlink:href="#DejaVuSans-30" transform="translate(63.623047 0.765625)"/>
       <use xlink:href="#DejaVuSans-30" transform="translate(128.203125 39.046875) scale(0.7)"/>
      </g>
     </g>
    </g>
    <g id="ytick_2">
     <g id="line2d_11">
      <g>
       <use xlink:href="#mead41f9f7d" x="45.478125" y="180.694957" style="stroke: #000000; stroke-width: 0.8"/>
      </g>
     </g>
     <g id="text_12">
      <!-- $\mathdefault{10^{1}}$ -->
      <g transform="translate(20.878125 184.494175) scale(0.1 -0.1)">
       <use xlink:href="#DejaVuSans-31" transform="translate(0 0.684375)"/>
       <use xlink:href="#DejaVuSans-30" transform="translate(63.623047 0.684375)"/>
       <use xlink:href="#DejaVuSans-31" transform="translate(128.203125 38.965625) scale(0.7)"/>
      </g>
     </g>
    </g>
    <g id="ytick_3">
     <g id="line2d_12">
      <g>
       <use xlink:href="#mead41f9f7d" x="45.478125" y="119.737413" style="stroke: #000000; stroke-width: 0.8"/>
      </g>
     </g>
     <g id="text_13">
      <!-- $\mathdefault{10^{2}}$ -->
      <g transform="translate(20.878125 123.536632) scale(0.1 -0.1)">
       <use xlink:href="#DejaVuSans-31" transform="translate(0 0.765625)"/>
       <use xlink:href="#DejaVuSans-30" transform="translate(63.623047 0.765625)"/>
       <use xlink:href="#DejaVuSans-32" transform="translate(128.203125 39.046875) scale(0.7)"/>
      </g>
     </g>
    </g>
    <g id="ytick_4">
     <g id="line2d_13">
      <g>
       <use xlink:href="#mead41f9f7d" x="45.478125" y="58.77987" style="stroke: #000000; stroke-width: 0.8"/>
      </g>
     </g>
     <g id="text_14">
      <!-- $\mathdefault{10^{3}}$ -->
      <g transform="translate(20.878125 62.579089) scale(0.1 -0.1)">
       <defs>
        <path id="DejaVuSans-33" d="M 2597 2516 
Q 3050 2419 3304 2112 
Q 3559 1806 3559 1356 
Q 3559 666 3084 287 
Q 2609 -91 1734 -91 
Q 1441 -91 1130 -33 
Q 819 25 488 141 
L 488 750 
Q 750 597 1062 519 
Q 1375 441 1716 441 
Q 2309 441 2620 675 
Q 2931 909 2931 1356 
Q 2931 1769 2642 2001 
Q 2353 2234 1838 2234 
L 1294 2234 
L 1294 2753 
L 1863 2753 
Q 2328 2753 2575 2939 
Q 2822 3125 2822 3475 
Q 2822 3834 2567 4026 
Q 2313 4219 1838 4219 
Q 1578 4219 1281 4162 
Q 984 4106 628 3988 
L 628 4550 
Q 988 4650 1302 4700 
Q 1616 4750 1894 4750 
Q 2613 4750 3031 4423 
Q 3450 4097 3450 3541 
Q 3450 3153 3228 2886 
Q 3006 2619 2597 2516 
z
" transform="scale(0.015625)"/>
       </defs>
       <use xlink:href="#DejaVuSans-31" transform="translate(0 0.765625)"/>
       <use xlink:href="#DejaVuSans-30" transform="translate(63.623047 0.765625)"/>
       <use xlink:href="#DejaVuSans-33" transform="translate(128.203125 39.046875) scale(0.7)"/>
      </g>
     </g>
    </g>
    <g id="ytick_5">
     <g id="line2d_14">
      <defs>
       <path id="m84e38b9255" d="M 0 0 
L -2 0 
" style="stroke: #000000; stroke-width: 0.6"/>
      </defs>
      <g>
       <use xlink:href="#m84e38b9255" x="45.478125" y="223.302451" style="stroke: #000000; stroke-width: 0.6"/>
      </g>
     </g>
    </g>
    <g id="ytick_6">
     <g id="line2d_15">
      <g>
       <use xlink:href="#m84e38b9255" x="45.478125" y="212.56836" style="stroke: #000000; stroke-width: 0.6"/>
      </g>
     </g>
    </g>
    <g id="ytick_7">
     <g id="line2d_16">
      <g>
       <use xlink:href="#m84e38b9255" x="45.478125" y="204.952402" style="stroke: #000000; stroke-width: 0.6"/>
      </g>
     </g>
    </g>
    <g id="ytick_8">
     <g id="line2d_17">
      <g>
       <use xlink:href="#m84e38b9255" x="45.478125" y="199.045006" style="stroke: #000000; stroke-width: 0.6"/>
      </g>
     </g>
    </g>
    <g id="ytick_9">
     <g id="line2d_18">
      <g>
       <use xlink:href="#m84e38b9255" x="45.478125" y="194.218311" style="stroke: #000000; stroke-width: 0.6"/>
      </g>
     </g>
    </g>
    <g id="ytick_10">
     <g id="line2d_19">
      <g>
       <use xlink:href="#m84e38b9255" x="45.478125" y="190.1374" style="stroke: #000000; stroke-width: 0.6"/>
      </g>
     </g>
    </g>
    <g id="ytick_11">
     <g id="line2d_20">
      <g>
       <use xlink:href="#m84e38b9255" x="45.478125" y="186.602353" style="stroke: #000000; stroke-width: 0.6"/>
      </g>
     </g>
    </g>
    <g id="ytick_12">
     <g id="line2d_21">
      <g>
       <use xlink:href="#m84e38b9255" x="45.478125" y="183.484221" style="stroke: #000000; stroke-width: 0.6"/>
      </g>
     </g>
    </g>
    <g id="ytick_13">
     <g id="line2d_22">
      <g>
       <use xlink:href="#m84e38b9255" x="45.478125" y="162.344908" style="stroke: #000000; stroke-width: 0.6"/>
      </g>
     </g>
    </g>
    <g id="ytick_14">
     <g id="line2d_23">
      <g>
       <use xlink:href="#m84e38b9255" x="45.478125" y="151.610817" style="stroke: #000000; stroke-width: 0.6"/>
      </g>
     </g>
    </g>
    <g id="ytick_15">
     <g id="line2d_24">
      <g>
       <use xlink:href="#m84e38b9255" x="45.478125" y="143.994859" style="stroke: #000000; stroke-width: 0.6"/>
      </g>
     </g>
    </g>
    <g id="ytick_16">
     <g id="line2d_25">
      <g>
       <use xlink:href="#m84e38b9255" x="45.478125" y="138.087462" style="stroke: #000000; stroke-width: 0.6"/>
      </g>
     </g>
    </g>
    <g id="ytick_17">
     <g id="line2d_26">
      <g>
       <use xlink:href="#m84e38b9255" x="45.478125" y="133.260768" style="stroke: #000000; stroke-width: 0.6"/>
      </g>
     </g>
    </g>
    <g id="ytick_18">
     <g id="line2d_27">
      <g>
       <use xlink:href="#m84e38b9255" x="45.478125" y="129.179856" style="stroke: #000000; stroke-width: 0.6"/>
      </g>
     </g>
    </g>
    <g id="ytick_19">
     <g id="line2d_28">
      <g>
       <use xlink:href="#m84e38b9255" x="45.478125" y="125.64481" style="stroke: #000000; stroke-width: 0.6"/>
      </g>
     </g>
    </g>
    <g id="ytick_20">
     <g id="line2d_29">
      <g>
       <use xlink:href="#m84e38b9255" x="45.478125" y="122.526678" style="stroke: #000000; stroke-width: 0.6"/>
      </g>
     </g>
    </g>
    <g id="ytick_21">
     <g id="line2d_30">
      <g>
       <use xlink:href="#m84e38b9255" x="45.478125" y="101.387364" style="stroke: #000000; stroke-width: 0.6"/>
      </g>
     </g>
    </g>
    <g id="ytick_22">
     <g id="line2d_31">
      <g>
       <use xlink:href="#m84e38b9255" x="45.478125" y="90.653274" style="stroke: #000000; stroke-width: 0.6"/>
      </g>
     </g>
    </g>
    <g id="ytick_23">
     <g id="line2d_32">
      <g>
       <use xlink:href="#m84e38b9255" x="45.478125" y="83.037315" style="stroke: #000000; stroke-width: 0.6"/>
      </g>
     </g>
    </g>
    <g id="ytick_24">
     <g id="line2d_33">
      <g>
       <use xlink:href="#m84e38b9255" x="45.478125" y="77.129919" style="stroke: #000000; stroke-width: 0.6"/>
      </g>
     </g>
    </g>
    <g id="ytick_25">
     <g id="line2d_34">
      <g>
       <use xlink:href="#m84e38b9255" x="45.478125" y="72.303225" style="stroke: #000000; stroke-width: 0.6"/>
      </g>
     </g>
    </g>
    <g id="ytick_26">
     <g id="line2d_35">
      <g>
       <use xlink:href="#m84e38b9255" x="45.478125" y="68.222313" style="stroke: #000000; stroke-width: 0.6"/>
      </g>
     </g>
    </g>
    <g id="ytick_27">
     <g id="line2d_36">
      <g>
       <use xlink:href="#m84e38b9255" x="45.478125" y="64.687266" style="stroke: #000000; stroke-width: 0.6"/>
      </g>
     </g>
    </g>
    <g id="ytick_28">
     <g id="line2d_37">
      <g>
       <use xlink:href="#m84e38b9255" x="45.478125" y="61.569134" style="stroke: #000000; stroke-width: 0.6"/>
      </g>
     </g>
    </g>
    <g id="ytick_29">
     <g id="line2d_38">
      <g>
       <use xlink:href="#m84e38b9255" x="45.478125" y="40.429821" style="stroke: #000000; stroke-width: 0.6"/>
      </g>
     </g>
    </g>
    <g id="ytick_30">
     <g id="line2d_39">
      <g>
       <use xlink:href="#m84e38b9255" x="45.478125" y="29.695731" style="stroke: #000000; stroke-width: 0.6"/>
      </g>
     </g>
    </g>
    <g id="ytick_31">
     <g id="line2d_40">
      <g>
       <use xlink:href="#m84e38b9255" x="45.478125" y="22.079772" style="stroke: #000000; stroke-width: 0.6"/>
      </g>
     </g>
    </g>
    <g id="ytick_32">
     <g id="line2d_41">
      <g>
       <use xlink:href="#m84e38b9255" x="45.478125" y="16.172376" style="stroke: #000000; stroke-width: 0.6"/>
      </g>
     </g>
    </g>
    <g id="ytick_33">
     <g id="line2d_42">
      <g>
       <use xlink:href="#m84e38b9255" x="45.478125" y="11.345682" style="stroke: #000000; stroke-width: 0.6"/>
      </g>
     </g>
    </g>
    <g id="ytick_34">
     <g id="line2d_43">
      <g>
       <use xlink:href="#m84e38b9255" x="45.478125" y="7.26477" style="stroke: #000000; stroke-width: 0.6"/>
      </g>
     </g>
    </g>
    <g id="text_15">
     <!-- [counts] -->
     <g transform="translate(14.798438 145.03875) rotate(-90) scale(0.1 -0.1)">
      <defs>
       <path id="DejaVuSans-63" d="M 3122 3366 
L 3122 2828 
Q 2878 2963 2633 3030 
Q 2388 3097 2138 3097 
Q 1578 3097 1268 2742 
Q 959 2388 959 1747 
Q 959 1106 1268 751 
Q 1578 397 2138 397 
Q 2388 397 2633 464 
Q 2878 531 3122 666 
L 3122 134 
Q 2881 22 2623 -34 
Q 2366 -91 2075 -91 
Q 1284 -91 818 406 
Q 353 903 353 1747 
Q 353 2603 823 3093 
Q 1294 3584 2113 3584 
Q 2378 3584 2631 3529 
Q 2884 3475 3122 3366 
z
" transform="scale(0.015625)"/>
       <path id="DejaVuSans-6f" d="M 1959 3097 
Q 1497 3097 1228 2736 
Q 959 2375 959 1747 
Q 959 1119 1226 758 
Q 1494 397 1959 397 
Q 2419 397 2687 759 
Q 2956 1122 2956 1747 
Q 2956 2369 2687 2733 
Q 2419 3097 1959 3097 
z
M 1959 3584 
Q 2709 3584 3137 3096 
Q 3566 2609 3566 1747 
Q 3566 888 3137 398 
Q 2709 -91 1959 -91 
Q 1206 -91 779 398 
Q 353 888 353 1747 
Q 353 2609 779 3096 
Q 1206 3584 1959 3584 
z
" transform="scale(0.015625)"/>
       <path id="DejaVuSans-75" d="M 544 1381 
L 544 3500 
L 1119 3500 
L 1119 1403 
Q 1119 906 1312 657 
Q 1506 409 1894 409 
Q 2359 409 2629 706 
Q 2900 1003 2900 1516 
L 2900 3500 
L 3475 3500 
L 3475 0 
L 2900 0 
L 2900 538 
Q 2691 219 2414 64 
Q 2138 -91 1772 -91 
Q 1169 -91 856 284 
Q 544 659 544 1381 
z
M 1991 3584 
L 1991 3584 
z
" transform="scale(0.015625)"/>
       <path id="DejaVuSans-6e" d="M 3513 2113 
L 3513 0 
L 2938 0 
L 2938 2094 
Q 2938 2591 2744 2837 
Q 2550 3084 2163 3084 
Q 1697 3084 1428 2787 
Q 1159 2491 1159 1978 
L 1159 0 
L 581 0 
L 581 3500 
L 1159 3500 
L 1159 2956 
Q 1366 3272 1645 3428 
Q 1925 3584 2291 3584 
Q 2894 3584 3203 3211 
Q 3513 2838 3513 2113 
z
" transform="scale(0.015625)"/>
       <path id="DejaVuSans-74" d="M 1172 4494 
L 1172 3500 
L 2356 3500 
L 2356 3053 
L 1172 3053 
L 1172 1153 
Q 1172 725 1289 603 
Q 1406 481 1766 481 
L 2356 481 
L 2356 0 
L 1766 0 
Q 1100 0 847 248 
Q 594 497 594 1153 
L 594 3053 
L 172 3053 
L 172 3500 
L 594 3500 
L 594 4494 
L 1172 4494 
z
" transform="scale(0.015625)"/>
       <path id="DejaVuSans-73" d="M 2834 3397 
L 2834 2853 
Q 2591 2978 2328 3040 
Q 2066 3103 1784 3103 
Q 1356 3103 1142 2972 
Q 928 2841 928 2578 
Q 928 2378 1081 2264 
Q 1234 2150 1697 2047 
L 1894 2003 
Q 2506 1872 2764 1633 
Q 3022 1394 3022 966 
Q 3022 478 2636 193 
Q 2250 -91 1575 -91 
Q 1294 -91 989 -36 
Q 684 19 347 128 
L 347 722 
Q 666 556 975 473 
Q 1284 391 1588 391 
Q 1994 391 2212 530 
Q 2431 669 2431 922 
Q 2431 1156 2273 1281 
Q 2116 1406 1581 1522 
L 1381 1569 
Q 847 1681 609 1914 
Q 372 2147 372 2553 
Q 372 3047 722 3315 
Q 1072 3584 1716 3584 
Q 2034 3584 2315 3537 
Q 2597 3491 2834 3397 
z
" transform="scale(0.015625)"/>
      </defs>
      <use xlink:href="#DejaVuSans-5b"/>
      <use xlink:href="#DejaVuSans-63" x="39.013672"/>
      <use xlink:href="#DejaVuSans-6f" x="93.994141"/>
      <use xlink:href="#DejaVuSans-75" x="155.175781"/>
      <use xlink:href="#DejaVuSans-6e" x="218.554688"/>
      <use xlink:href="#DejaVuSans-74" x="281.933594"/>
      <use xlink:href="#DejaVuSans-73" x="321.142578"/>
      <use xlink:href="#DejaVuSans-5d" x="373.242188"/>
     </g>
    </g>
   </g>
   <g id="patch_3">
    <path d="M 45.478125 241.6525 
L 45.478125 7.2 
" style="fill: none; stroke: #000000; stroke-width: 0.8; stroke-linejoin: miter; stroke-linecap: square"/>
   </g>
   <g id="patch_4">
    <path d="M 403.085725 241.6525 
L 403.085725 7.2 
" style="fill: none; stroke: #000000; stroke-width: 0.8; stroke-linejoin: miter; stroke-linecap: square"/>
   </g>
   <g id="patch_5">
    <path d="M 45.478125 241.6525 
L 403.085725 241.6525 
" style="fill: none; stroke: #000000; stroke-width: 0.8; stroke-linejoin: miter; stroke-linecap: square"/>
   </g>
   <g id="patch_6">
    <path d="M 45.478125 7.2 
L 403.085725 7.2 
" style="fill: none; stroke: #000000; stroke-width: 0.8; stroke-linejoin: miter; stroke-linecap: square"/>
   </g>
   <g id="line2d_44">
    <path d="M 61.733016 52.797189 
L 63.358505 52.797189 
L 63.358505 24.003058 
L 64.983994 24.003058 
L 64.983994 22.218237 
L 66.609483 22.218237 
L 66.609483 22.834182 
L 68.234972 22.834182 
L 68.234972 23.334723 
L 69.860461 23.334723 
L 69.860461 23.472953 
L 71.48595 23.472953 
L 71.48595 25.291786 
L 73.11144 25.291786 
L 73.11144 24.300776 
L 74.736929 24.300776 
L 74.736929 27.315431 
L 76.362418 27.315431 
L 76.362418 27.600085 
L 77.987907 27.600085 
L 77.987907 29.862091 
L 79.613396 29.862091 
L 79.613396 30.980429 
L 82.864374 31.024025 
L 82.864374 32.630498 
L 84.489863 32.630498 
L 84.489863 33.650213 
L 86.115352 33.650213 
L 86.115352 37.134735 
L 87.740841 37.134735 
L 87.740841 36.080938 
L 89.36633 36.080938 
L 89.36633 41.639589 
L 92.617309 41.702017 
L 92.617309 43.120484 
L 94.242798 43.120484 
L 94.242798 47.976202 
L 95.868287 47.976202 
L 95.868287 55.343864 
L 97.493776 55.343864 
L 97.493776 59.715955 
L 99.119265 59.715955 
L 99.119265 67.484805 
L 100.744754 67.484805 
L 100.744754 78.28049 
L 102.370243 78.28049 
L 102.370243 86.867314 
L 103.995732 86.867314 
L 103.995732 89.223585 
L 105.621221 89.223585 
L 105.621221 90.305654 
L 107.246711 90.305654 
L 107.246711 101.984988 
L 108.8722 101.984988 
L 108.8722 98.613632 
L 110.497689 98.613632 
L 110.497689 101.528668 
L 112.123178 101.528668 
L 112.123178 91.646798 
L 113.748667 91.646798 
L 113.748667 95.247492 
L 115.374156 95.247492 
L 115.374156 95.544064 
L 116.999645 95.544064 
L 116.999645 96.617467 
L 118.625134 96.617467 
L 118.625134 103.511435 
L 120.250623 103.511435 
L 120.250623 106.071009 
L 121.876112 106.071009 
L 121.876112 109.660951 
L 123.501601 109.660951 
L 123.501601 113.132139 
L 125.127091 113.132139 
L 125.127091 119.515871 
L 126.75258 119.515871 
L 126.75258 122.90898 
L 128.378069 122.90898 
L 128.378069 133.169118 
L 130.003558 133.169118 
L 130.003558 137.651609 
L 131.629047 137.651609 
L 131.629047 146.435323 
L 133.254536 146.435323 
L 133.254536 146.255672 
L 134.880025 146.255672 
L 134.880025 160.849189 
L 136.505514 160.849189 
L 136.505514 160.709776 
L 138.131003 160.709776 
L 138.131003 164.316835 
L 139.756492 164.316835 
L 139.756492 165.64282 
L 141.381981 165.64282 
L 141.381981 163.705579 
L 143.007471 163.705579 
L 143.007471 159.493373 
L 144.63296 159.493373 
L 144.63296 160.394032 
L 146.258449 160.394032 
L 146.258449 156.206889 
L 147.883938 156.206889 
L 147.883938 155.365658 
L 149.509427 155.365658 
L 149.509427 149.662045 
L 151.134916 149.662045 
L 151.134916 146.14379 
L 152.760405 146.14379 
L 152.760405 141.772242 
L 154.385894 141.772242 
L 154.385894 146.554346 
L 156.011383 146.554346 
L 156.011383 137.887764 
L 157.636872 137.887764 
L 157.636872 140.359043 
L 159.262361 140.359043 
L 159.262361 141.449185 
L 160.887851 141.449185 
L 160.887851 132.452958 
L 162.51334 132.452958 
L 162.51334 136.897365 
L 164.138829 136.897365 
L 164.138829 135.523595 
L 165.764318 135.523595 
L 165.764318 139.877553 
L 167.389807 139.877553 
L 167.389807 141.485483 
L 169.015296 141.485483 
L 169.015296 135.968359 
L 170.640785 135.968359 
L 170.640785 139.226481 
L 172.266274 139.226481 
L 172.266274 143.061647 
L 173.891763 143.061647 
L 173.891763 148.30971 
L 175.517252 148.30971 
L 175.517252 146.300364 
L 177.142741 146.300364 
L 177.142741 147.66122 
L 178.768231 147.66122 
L 178.768231 145.31058 
L 180.39372 145.31058 
L 180.39372 153.612334 
L 182.019209 153.612334 
L 182.019209 146.247542 
L 183.644698 146.247542 
L 183.644698 150.87005 
L 185.270187 150.87005 
L 185.270187 157.657566 
L 186.895676 157.657566 
L 186.895676 156.162157 
L 188.521165 156.162157 
L 188.521165 165.184799 
L 190.146654 165.184799 
L 190.146654 160.261084 
L 191.772143 160.261084 
L 191.772143 158.223072 
L 193.397632 158.223072 
L 193.397632 170.073482 
L 195.023121 170.073482 
L 195.023121 166.500913 
L 196.648611 166.500913 
L 196.648611 172.187097 
L 198.2741 172.187097 
L 198.2741 169.363381 
L 199.899589 169.363381 
L 199.899589 171.749601 
L 201.525078 171.749601 
L 201.525078 165.365721 
L 203.150567 165.365721 
L 203.150567 170.060827 
L 204.776056 170.060827 
L 204.776056 162.956534 
L 206.401545 162.956534 
L 206.401545 170.686124 
L 208.027034 170.686124 
L 208.027034 165.054621 
L 209.652523 165.054621 
L 209.652523 166.818192 
L 211.278012 166.818192 
L 211.278012 158.256425 
L 212.903502 158.256425 
L 212.903502 165.49523 
L 214.528991 165.49523 
L 214.528991 162.828492 
L 217.779969 162.799095 
L 217.779969 158.995244 
L 219.405458 158.995244 
L 219.405458 168.880298 
L 221.030947 168.880298 
L 221.030947 165.78196 
L 222.656436 165.78196 
L 222.656436 153.859018 
L 224.281925 153.859018 
L 224.281925 164.923129 
L 225.907414 164.923129 
L 225.907414 162.889021 
L 227.532903 162.889021 
L 227.532903 162.093329 
L 229.158392 162.093329 
L 229.158392 157.295613 
L 230.783882 157.295613 
L 230.783882 172.925736 
L 232.409371 172.925736 
L 232.409371 159.169702 
L 234.03486 159.169702 
L 234.03486 160.729988 
L 235.660349 160.729988 
L 235.660349 158.851438 
L 237.285838 158.851438 
L 237.285838 158.100507 
L 238.911327 158.100507 
L 238.911327 160.973608 
L 240.536816 160.973608 
L 240.536816 154.303235 
L 242.162305 154.303235 
L 242.162305 164.763967 
L 243.787794 164.763967 
L 243.787794 161.791652 
L 245.413283 161.791652 
L 245.413283 166.883477 
L 247.038772 166.883477 
L 247.038772 163.50127 
L 248.664262 163.50127 
L 248.664262 161.477976 
L 250.289751 161.477976 
L 250.289751 160.509429 
L 251.91524 160.509429 
L 251.91524 166.688606 
L 253.540729 166.688606 
L 253.540729 170.059785 
L 255.166218 170.059785 
L 255.166218 162.09607 
L 256.791707 162.09607 
L 256.791707 171.056442 
L 258.417196 171.056442 
L 258.417196 165.681012 
L 260.042685 165.681012 
L 260.042685 173.921298 
L 261.668174 173.921298 
L 261.668174 169.612621 
L 263.293663 169.612621 
L 263.293663 173.799347 
L 264.919152 173.799347 
L 264.919152 169.40863 
L 266.544642 169.40863 
L 266.544642 161.233557 
L 268.170131 161.233557 
L 268.170131 174.415101 
L 269.79562 174.415101 
L 269.79562 166.439532 
L 271.421109 166.439532 
L 271.421109 173.000044 
L 273.046598 173.000044 
L 273.046598 162.465136 
L 274.672087 162.465136 
L 274.672087 168.21532 
L 276.297576 168.21532 
L 276.297576 174.791159 
L 277.923065 174.791159 
L 277.923065 157.305966 
L 279.548554 157.305966 
L 279.548554 173.197211 
L 281.174043 173.197211 
L 281.174043 165.586121 
L 282.799532 165.586121 
L 282.799532 161.087732 
L 284.425022 161.087732 
L 284.425022 165.428026 
L 286.050511 165.428026 
L 286.050511 163.013587 
L 287.676 163.013587 
L 287.676 165.390676 
L 289.301489 165.390676 
L 289.301489 162.138524 
L 290.926978 162.138524 
L 290.926978 167.154387 
L 292.552467 167.154387 
L 292.552467 168.014711 
L 294.177956 168.014711 
L 294.177956 167.078532 
L 295.803445 167.078532 
L 295.803445 171.408356 
L 297.428934 171.408356 
L 297.428934 174.52317 
L 299.054423 174.52317 
L 299.054423 163.591042 
L 300.679912 163.591042 
L 300.679912 159.518642 
L 302.305402 159.518642 
L 302.305402 165.205768 
L 303.930891 165.205768 
L 303.930891 168.320426 
L 305.55638 168.320426 
L 305.55638 164.492549 
L 307.181869 164.492549 
L 307.181869 174.721613 
L 308.807358 174.721613 
L 308.807358 172.535058 
L 310.432847 172.535058 
L 310.432847 167.653565 
L 312.058336 167.653565 
L 312.058336 168.78567 
L 313.683825 168.78567 
L 313.683825 171.88616 
L 315.309314 171.88616 
L 315.309314 163.28639 
L 316.934803 163.28639 
L 316.934803 176.567047 
L 318.560293 176.567047 
L 318.560293 176.181213 
L 320.185782 176.181213 
L 320.185782 166.022426 
L 321.811271 166.022426 
L 321.811271 168.473772 
L 323.43676 168.473772 
L 323.43676 167.391061 
L 325.062249 167.391061 
L 325.062249 175.657533 
L 326.687738 175.657533 
L 326.687738 172.600226 
L 328.313227 172.600226 
L 328.313227 178.981755 
L 329.938716 178.981755 
L 329.938716 195.370802 
L 331.564205 195.370802 
L 331.564205 182.353698 
L 333.189694 182.353698 
L 333.189694 177.384132 
L 334.815183 177.384132 
L 334.815183 170.297051 
L 336.440673 170.297051 
L 336.440673 184.12807 
L 338.066162 184.12807 
L 338.066162 172.983764 
L 339.691651 172.983764 
L 339.691651 197.207739 
L 341.31714 197.207739 
L 341.31714 185.57236 
L 342.942629 185.57236 
L 342.942629 186.20968 
L 344.568118 186.20968 
L 344.568118 200.253285 
L 346.193607 200.253285 
L 346.193607 178.998691 
L 347.819096 178.998691 
L 347.819096 178.751129 
L 349.444585 178.751129 
L 349.444585 198.541259 
L 352.695563 198.6084 
L 352.695563 177.524106 
L 354.321053 177.524106 
L 354.321053 180.367581 
L 357.572031 180.371637 
L 357.572031 183.786359 
L 359.19752 183.786359 
L 359.19752 197.310574 
L 360.823009 197.310574 
L 360.823009 194.419801 
L 362.448498 194.419801 
L 362.448498 203.22363 
L 364.073987 203.22363 
L 364.073987 219.851178 
L 365.699476 219.851178 
L 365.699476 231.8262 
L 367.324965 231.8262 
L 367.324965 218.656717 
L 368.950454 218.656717 
L 368.950454 221.600302 
L 370.575943 221.600302 
L 370.575943 227.862248 
L 372.201433 227.862248 
L 372.201433 232.132905 
L 373.826922 232.132905 
L 373.826922 237.752483 
L 375.452411 237.752483 
L 375.452411 240.575946 
L 377.0779 240.575946 
L 377.0779 222.328342 
L 380.328878 222.231138 
L 380.328878 274.016793 
L 381.954367 274.016793 
L 381.954367 265.12028 
L 383.579856 265.12028 
L 383.579856 281.132187 
L 383.579856 281.132187 
" clip-path="url(#p753182cbdf)" style="fill: none; stroke: #1f77b4; stroke-width: 1.5; stroke-linecap: square"/>
   </g>
  </g>
 </g>
 <defs>
  <clipPath id="p753182cbdf">
   <rect x="45.478125" y="7.2" width="357.6076" height="234.4525"/>
  </clipPath>
 </defs>
</svg>