<?xml version="1.0" encoding="utf-8" standalone="no"?>
<!DOCTYPE svg PUBLIC "-//W3C//DTD SVG 1.1//EN"
  "http://www.w3.org/Graphics/SVG/1.1/DTD/svg11.dtd">
<svg xmlns:xlink="http://www.w3.org/1999/xlink" width="423.392569pt" height="279.99625pt" viewBox="0 0 423.392569 279.99625" xmlns="http://www.w3.org/2000/svg" version="1.1">
 <metadata>
  <rdf:RDF xmlns:dc="http://purl.org/dc/elements/1.1/" xmlns:cc="http://creativecommons.org/ns#" xmlns:rdf="http://www.w3.org/1999/02/22-rdf-syntax-ns#">
   <cc:Work>
    <dc:type rdf:resource="http://purl.org/dc/dcmitype/StillImage"/>
    <dc:date>2024-09-10T09:04:19.034856</dc:date>
    <dc:format>image/svg+xml</dc:format>
    <dc:creator>
     <cc:Agent>
      <dc:title>Matplotlib v3.9.2, https://matplotlib.org/</dc:title>
     </cc:Agent>
    </dc:creator>
   </cc:Work>
  </rdf:RDF>
 </metadata>
 <defs>
  <style type="text/css">*{stroke-linejoin: round; stroke-linecap: butt}</style>
 </defs>
 <g id="figure_1">
  <g id="patch_1">
   <path d="M 0 279.99625 
L 423.392569 279.99625 
L 423.392569 0 
L 0 0 
z
" style="fill: #ffffff"/>
  </g>
  <g id="axes_1">
   <g id="patch_2">
    <path d="M 45.478125 242.44 
L 414.304889 242.44 
L 414.304889 7.2 
L 45.478125 7.2 
z
" style="fill: #ffffff"/>
   </g>
   <g id="matplotlib.axis_1">
    <g id="xtick_1">
     <g id="line2d_1">
      <defs>
       <path id="m298fbc80bd" d="M 0 0 
L 0 3.5 
" style="stroke: #000000; stroke-width: 0.8"/>
      </defs>
      <g>
       <use xlink:href="#m298fbc80bd" x="51.542008" y="242.44" style="stroke: #000000; stroke-width: 0.8"/>
      </g>
     </g>
     <g id="text_1">
      <!-- 0.0 -->
      <g transform="translate(43.590445 257.038437) scale(0.1 -0.1)">
       <defs>
        <path id="DejaVuSans-30" d="M 2034 4250 
Q 1547 4250 1301 3770 
Q 1056 3291 1056 2328 
Q 1056 1369 1301 889 
Q 1547 409 2034 409 
Q 2525 409 2770 889 
Q 3016 1369 3016 2328 
Q 3016 3291 2770 3770 
Q 2525 4250 2034 4250 
z
M 2034 4750 
Q 2819 4750 3233 4129 
Q 3647 3509 3647 2328 
Q 3647 1150 3233 529 
Q 2819 -91 2034 -91 
Q 1250 -91 836 529 
Q 422 1150 422 2328 
Q 422 3509 836 4129 
Q 1250 4750 2034 4750 
z
" transform="scale(0.015625)"/>
        <path id="DejaVuSans-2e" d="M 684 794 
L 1344 794 
L 1344 0 
L 684 0 
L 684 794 
z
" transform="scale(0.015625)"/>
       </defs>
       <use xlink:href="#DejaVuSans-30"/>
       <use xlink:href="#DejaVuSans-2e" x="63.623047"/>
       <use xlink:href="#DejaVuSans-30" x="95.410156"/>
      </g>
     </g>
    </g>
    <g id="xtick_2">
     <g id="line2d_2">
      <g>
       <use xlink:href="#m298fbc80bd" x="122.881808" y="242.44" style="stroke: #000000; stroke-width: 0.8"/>
      </g>
     </g>
     <g id="text_2">
      <!-- 0.1 -->
      <g transform="translate(114.930245 257.038437) scale(0.1 -0.1)">
       <defs>
        <path id="DejaVuSans-31" d="M 794 531 
L 1825 531 
L 1825 4091 
L 703 3866 
L 703 4441 
L 1819 4666 
L 2450 4666 
L 2450 531 
L 3481 531 
L 3481 0 
L 794 0 
L 794 531 
z
" transform="scale(0.015625)"/>
       </defs>
       <use xlink:href="#DejaVuSans-30"/>
       <use xlink:href="#DejaVuSans-2e" x="63.623047"/>
       <use xlink:href="#DejaVuSans-31" x="95.410156"/>
      </g>
     </g>
    </g>
    <g id="xtick_3">
     <g id="line2d_3">
      <g>
       <use xlink:href="#m298fbc80bd" x="194.221607" y="242.44" style="stroke: #000000; stroke-width: 0.8"/>
      </g>
     </g>
     <g id="text_3">
      <!-- 0.2 -->
      <g transform="translate(186.270045 257.038437) scale(0.1 -0.1)">
       <defs>
        <path id="DejaVuSans-32" d="M 1228 531 
L 3431 531 
L 3431 0 
L 469 0 
L 469 531 
Q 828 903 1448 1529 
Q 2069 2156 2228 2338 
Q 2531 2678 2651 2914 
Q 2772 3150 2772 3378 
Q 2772 3750 2511 3984 
Q 2250 4219 1831 4219 
Q 1534 4219 1204 4116 
Q 875 4013 500 3803 
L 500 4441 
Q 881 4594 1212 4672 
Q 1544 4750 1819 4750 
Q 2544 4750 2975 4387 
Q 3406 4025 3406 3419 
Q 3406 3131 3298 2873 
Q 3191 2616 2906 2266 
Q 2828 2175 2409 1742 
Q 1991 1309 1228 531 
z
" transform="scale(0.015625)"/>
       </defs>
       <use xlink:href="#DejaVuSans-30"/>
       <use xlink:href="#DejaVuSans-2e" x="63.623047"/>
       <use xlink:href="#DejaVuSans-32" x="95.410156"/>
      </g>
     </g>
    </g>
    <g id="xtick_4">
     <g id="line2d_4">
      <g>
       <use xlink:href="#m298fbc80bd" x="265.561407" y="242.44" style="stroke: #000000; stroke-width: 0.8"/>
      </g>
     </g>
     <g id="text_4">
      <!-- 0.3 -->
      <g transform="translate(257.609844 257.038437) scale(0.1 -0.1)">
       <defs>
        <path id="DejaVuSans-33" d="M 2597 2516 
Q 3050 2419 3304 2112 
Q 3559 1806 3559 1356 
Q 3559 666 3084 287 
Q 2609 -91 1734 -91 
Q 1441 -91 1130 -33 
Q 819 25 488 141 
L 488 750 
Q 750 597 1062 519 
Q 1375 441 1716 441 
Q 2309 441 2620 675 
Q 2931 909 2931 1356 
Q 2931 1769 2642 2001 
Q 2353 2234 1838 2234 
L 1294 2234 
L 1294 2753 
L 1863 2753 
Q 2328 2753 2575 2939 
Q 2822 3125 2822 3475 
Q 2822 3834 2567 4026 
Q 2313 4219 1838 4219 
Q 1578 4219 1281 4162 
Q 984 4106 628 3988 
L 628 4550 
Q 988 4650 1302 4700 
Q 1616 4750 1894 4750 
Q 2613 4750 3031 4423 
Q 3450 4097 3450 3541 
Q 3450 3153 3228 2886 
Q 3006 2619 2597 2516 
z
" transform="scale(0.015625)"/>
       </defs>
       <use xlink:href="#DejaVuSans-30"/>
       <use xlink:href="#DejaVuSans-2e" x="63.623047"/>
       <use xlink:href="#DejaVuSans-33" x="95.410156"/>
      </g>
     </g>
    </g>
    <g id="xtick_5">
     <g id="line2d_5">
      <g>
       <use xlink:href="#m298fbc80bd" x="336.901206" y="242.44" style="stroke: #000000; stroke-width: 0.8"/>
      </g>
     </g>
     <g id="text_5">
      <!-- 0.4 -->
      <g transform="translate(328.949644 257.038437) scale(0.1 -0.1)">
       <defs>
        <path id="DejaVuSans-34" d="M 2419 4116 
L 825 1625 
L 2419 1625 
L 2419 4116 
z
M 2253 4666 
L 3047 4666 
L 3047 1625 
L 3713 1625 
L 3713 1100 
L 3047 1100 
L 3047 0 
L 2419 0 
L 2419 1100 
L 313 1100 
L 313 1709 
L 2253 4666 
z
" transform="scale(0.015625)"/>
       </defs>
       <use xlink:href="#DejaVuSans-30"/>
       <use xlink:href="#DejaVuSans-2e" x="63.623047"/>
       <use xlink:href="#DejaVuSans-34" x="95.410156"/>
      </g>
     </g>
    </g>
    <g id="xtick_6">
     <g id="line2d_6">
      <g>
       <use xlink:href="#m298fbc80bd" x="408.241006" y="242.44" style="stroke: #000000; stroke-width: 0.8"/>
      </g>
     </g>
     <g id="text_6">
      <!-- 0.5 -->
      <g transform="translate(400.289444 257.038437) scale(0.1 -0.1)">
       <defs>
        <path id="DejaVuSans-35" d="M 691 4666 
L 3169 4666 
L 3169 4134 
L 1269 4134 
L 1269 2991 
Q 1406 3038 1543 3061 
Q 1681 3084 1819 3084 
Q 2600 3084 3056 2656 
Q 3513 2228 3513 1497 
Q 3513 744 3044 326 
Q 2575 -91 1722 -91 
Q 1428 -91 1123 -41 
Q 819 9 494 109 
L 494 744 
Q 775 591 1075 516 
Q 1375 441 1709 441 
Q 2250 441 2565 725 
Q 2881 1009 2881 1497 
Q 2881 1984 2565 2268 
Q 2250 2553 1709 2553 
Q 1456 2553 1204 2497 
Q 953 2441 691 2322 
L 691 4666 
z
" transform="scale(0.015625)"/>
       </defs>
       <use xlink:href="#DejaVuSans-30"/>
       <use xlink:href="#DejaVuSans-2e" x="63.623047"/>
       <use xlink:href="#DejaVuSans-35" x="95.410156"/>
      </g>
     </g>
    </g>
    <g id="text_7">
     <!-- y [m] -->
     <g transform="translate(216.571194 270.716562) scale(0.1 -0.1)">
      <defs>
       <path id="DejaVuSans-79" d="M 2059 -325 
Q 1816 -950 1584 -1140 
Q 1353 -1331 966 -1331 
L 506 -1331 
L 506 -850 
L 844 -850 
Q 1081 -850 1212 -737 
Q 1344 -625 1503 -206 
L 1606 56 
L 191 3500 
L 800 3500 
L 1894 763 
L 2988 3500 
L 3597 3500 
L 2059 -325 
z
" transform="scale(0.015625)"/>
       <path id="DejaVuSans-20" transform="scale(0.015625)"/>
       <path id="DejaVuSans-5b" d="M 550 4863 
L 1875 4863 
L 1875 4416 
L 1125 4416 
L 1125 -397 
L 1875 -397 
L 1875 -844 
L 550 -844 
L 550 4863 
z
" transform="scale(0.015625)"/>
       <path id="DejaVuSans-6d" d="M 3328 2828 
Q 3544 3216 3844 3400 
Q 4144 3584 4550 3584 
Q 5097 3584 5394 3201 
Q 5691 2819 5691 2113 
L 5691 0 
L 5113 0 
L 5113 2094 
Q 5113 2597 4934 2840 
Q 4756 3084 4391 3084 
Q 3944 3084 3684 2787 
Q 3425 2491 3425 1978 
L 3425 0 
L 2847 0 
L 2847 2094 
Q 2847 2600 2669 2842 
Q 2491 3084 2119 3084 
Q 1678 3084 1418 2786 
Q 1159 2488 1159 1978 
L 1159 0 
L 581 0 
L 581 3500 
L 1159 3500 
L 1159 2956 
Q 1356 3278 1631 3431 
Q 1906 3584 2284 3584 
Q 2666 3584 2933 3390 
Q 3200 3197 3328 2828 
z
" transform="scale(0.015625)"/>
       <path id="DejaVuSans-5d" d="M 1947 4863 
L 1947 -844 
L 622 -844 
L 622 -397 
L 1369 -397 
L 1369 4416 
L 622 4416 
L 622 4863 
L 1947 4863 
z
" transform="scale(0.015625)"/>
      </defs>
      <use xlink:href="#DejaVuSans-79"/>
      <use xlink:href="#DejaVuSans-20" x="59.179688"/>
      <use xlink:href="#DejaVuSans-5b" x="90.966797"/>
      <use xlink:href="#DejaVuSans-6d" x="129.980469"/>
      <use xlink:href="#DejaVuSans-5d" x="227.392578"/>
     </g>
    </g>
   </g>
   <g id="matplotlib.axis_2">
    <g id="ytick_1">
     <g id="line2d_7">
      <defs>
       <path id="mcc80fc30a1" d="M 0 0 
L -3.5 0 
" style="stroke: #000000; stroke-width: 0.8"/>
      </defs>
      <g>
       <use xlink:href="#mcc80fc30a1" x="45.478125" y="228.015766" style="stroke: #000000; stroke-width: 0.8"/>
      </g>
     </g>
     <g id="text_8">
      <!-- $\mathdefault{10^{1}}$ -->
      <g transform="translate(20.878125 231.814985) scale(0.1 -0.1)">
       <use xlink:href="#DejaVuSans-31" transform="translate(0 0.684375)"/>
       <use xlink:href="#DejaVuSans-30" transform="translate(63.623047 0.684375)"/>
       <use xlink:href="#DejaVuSans-31" transform="translate(128.203125 38.965625) scale(0.7)"/>
      </g>
     </g>
    </g>
    <g id="ytick_2">
     <g id="line2d_8">
      <g>
       <use xlink:href="#mcc80fc30a1" x="45.478125" y="147.015934" style="stroke: #000000; stroke-width: 0.8"/>
      </g>
     </g>
     <g id="text_9">
      <!-- $\mathdefault{10^{2}}$ -->
      <g transform="translate(20.878125 150.815153) scale(0.1 -0.1)">
       <use xlink:href="#DejaVuSans-31" transform="translate(0 0.765625)"/>
       <use xlink:href="#DejaVuSans-30" transform="translate(63.623047 0.765625)"/>
       <use xlink:href="#DejaVuSans-32" transform="translate(128.203125 39.046875) scale(0.7)"/>
      </g>
     </g>
    </g>
    <g id="ytick_3">
     <g id="line2d_9">
      <g>
       <use xlink:href="#mcc80fc30a1" x="45.478125" y="66.016103" style="stroke: #000000; stroke-width: 0.8"/>
      </g>
     </g>
     <g id="text_10">
      <!-- $\mathdefault{10^{3}}$ -->
      <g transform="translate(20.878125 69.815322) scale(0.1 -0.1)">
       <use xlink:href="#DejaVuSans-31" transform="translate(0 0.765625)"/>
       <use xlink:href="#DejaVuSans-30" transform="translate(63.623047 0.765625)"/>
       <use xlink:href="#DejaVuSans-33" transform="translate(128.203125 39.046875) scale(0.7)"/>
      </g>
     </g>
    </g>
    <g id="ytick_4">
     <g id="line2d_10">
      <defs>
       <path id="mbb9e0c8296" d="M 0 0 
L -2 0 
" style="stroke: #000000; stroke-width: 0.6"/>
      </defs>
      <g>
       <use xlink:href="#mbb9e0c8296" x="45.478125" y="240.562799" style="stroke: #000000; stroke-width: 0.6"/>
      </g>
     </g>
    </g>
    <g id="ytick_5">
     <g id="line2d_11">
      <g>
       <use xlink:href="#mbb9e0c8296" x="45.478125" y="235.865461" style="stroke: #000000; stroke-width: 0.6"/>
      </g>
     </g>
    </g>
    <g id="ytick_6">
     <g id="line2d_12">
      <g>
       <use xlink:href="#mbb9e0c8296" x="45.478125" y="231.722115" style="stroke: #000000; stroke-width: 0.6"/>
      </g>
     </g>
    </g>
    <g id="ytick_7">
     <g id="line2d_13">
      <g>
       <use xlink:href="#mbb9e0c8296" x="45.478125" y="203.632387" style="stroke: #000000; stroke-width: 0.6"/>
      </g>
     </g>
    </g>
    <g id="ytick_8">
     <g id="line2d_14">
      <g>
       <use xlink:href="#mbb9e0c8296" x="45.478125" y="189.369025" style="stroke: #000000; stroke-width: 0.6"/>
      </g>
     </g>
    </g>
    <g id="ytick_9">
     <g id="line2d_15">
      <g>
       <use xlink:href="#mbb9e0c8296" x="45.478125" y="179.249008" style="stroke: #000000; stroke-width: 0.6"/>
      </g>
     </g>
    </g>
    <g id="ytick_10">
     <g id="line2d_16">
      <g>
       <use xlink:href="#mbb9e0c8296" x="45.478125" y="171.399313" style="stroke: #000000; stroke-width: 0.6"/>
      </g>
     </g>
    </g>
    <g id="ytick_11">
     <g id="line2d_17">
      <g>
       <use xlink:href="#mbb9e0c8296" x="45.478125" y="164.985646" style="stroke: #000000; stroke-width: 0.6"/>
      </g>
     </g>
    </g>
    <g id="ytick_12">
     <g id="line2d_18">
      <g>
       <use xlink:href="#mbb9e0c8296" x="45.478125" y="159.562967" style="stroke: #000000; stroke-width: 0.6"/>
      </g>
     </g>
    </g>
    <g id="ytick_13">
     <g id="line2d_19">
      <g>
       <use xlink:href="#mbb9e0c8296" x="45.478125" y="154.865629" style="stroke: #000000; stroke-width: 0.6"/>
      </g>
     </g>
    </g>
    <g id="ytick_14">
     <g id="line2d_20">
      <g>
       <use xlink:href="#mbb9e0c8296" x="45.478125" y="150.722283" style="stroke: #000000; stroke-width: 0.6"/>
      </g>
     </g>
    </g>
    <g id="ytick_15">
     <g id="line2d_21">
      <g>
       <use xlink:href="#mbb9e0c8296" x="45.478125" y="122.632556" style="stroke: #000000; stroke-width: 0.6"/>
      </g>
     </g>
    </g>
    <g id="ytick_16">
     <g id="line2d_22">
      <g>
       <use xlink:href="#mbb9e0c8296" x="45.478125" y="108.369193" style="stroke: #000000; stroke-width: 0.6"/>
      </g>
     </g>
    </g>
    <g id="ytick_17">
     <g id="line2d_23">
      <g>
       <use xlink:href="#mbb9e0c8296" x="45.478125" y="98.249177" style="stroke: #000000; stroke-width: 0.6"/>
      </g>
     </g>
    </g>
    <g id="ytick_18">
     <g id="line2d_24">
      <g>
       <use xlink:href="#mbb9e0c8296" x="45.478125" y="90.399482" style="stroke: #000000; stroke-width: 0.6"/>
      </g>
     </g>
    </g>
    <g id="ytick_19">
     <g id="line2d_25">
      <g>
       <use xlink:href="#mbb9e0c8296" x="45.478125" y="83.985814" style="stroke: #000000; stroke-width: 0.6"/>
      </g>
     </g>
    </g>
    <g id="ytick_20">
     <g id="line2d_26">
      <g>
       <use xlink:href="#mbb9e0c8296" x="45.478125" y="78.563136" style="stroke: #000000; stroke-width: 0.6"/>
      </g>
     </g>
    </g>
    <g id="ytick_21">
     <g id="line2d_27">
      <g>
       <use xlink:href="#mbb9e0c8296" x="45.478125" y="73.865798" style="stroke: #000000; stroke-width: 0.6"/>
      </g>
     </g>
    </g>
    <g id="ytick_22">
     <g id="line2d_28">
      <g>
       <use xlink:href="#mbb9e0c8296" x="45.478125" y="69.722452" style="stroke: #000000; stroke-width: 0.6"/>
      </g>
     </g>
    </g>
    <g id="ytick_23">
     <g id="line2d_29">
      <g>
       <use xlink:href="#mbb9e0c8296" x="45.478125" y="41.632724" style="stroke: #000000; stroke-width: 0.6"/>
      </g>
     </g>
    </g>
    <g id="ytick_24">
     <g id="line2d_30">
      <g>
       <use xlink:href="#mbb9e0c8296" x="45.478125" y="27.369362" style="stroke: #000000; stroke-width: 0.6"/>
      </g>
     </g>
    </g>
    <g id="ytick_25">
     <g id="line2d_31">
      <g>
       <use xlink:href="#mbb9e0c8296" x="45.478125" y="17.249345" style="stroke: #000000; stroke-width: 0.6"/>
      </g>
     </g>
    </g>
    <g id="ytick_26">
     <g id="line2d_32">
      <g>
       <use xlink:href="#mbb9e0c8296" x="45.478125" y="9.39965" style="stroke: #000000; stroke-width: 0.6"/>
      </g>
     </g>
    </g>
    <g id="text_11">
     <!-- [counts] -->
     <g transform="translate(14.798438 145.4325) rotate(-90) scale(0.1 -0.1)">
      <defs>
       <path id="DejaVuSans-63" d="M 3122 3366 
L 3122 2828 
Q 2878 2963 2633 3030 
Q 2388 3097 2138 3097 
Q 1578 3097 1268 2742 
Q 959 2388 959 1747 
Q 959 1106 1268 751 
Q 1578 397 2138 397 
Q 2388 397 2633 464 
Q 2878 531 3122 666 
L 3122 134 
Q 2881 22 2623 -34 
Q 2366 -91 2075 -91 
Q 1284 -91 818 406 
Q 353 903 353 1747 
Q 353 2603 823 3093 
Q 1294 3584 2113 3584 
Q 2378 3584 2631 3529 
Q 2884 3475 3122 3366 
z
" transform="scale(0.015625)"/>
       <path id="DejaVuSans-6f" d="M 1959 3097 
Q 1497 3097 1228 2736 
Q 959 2375 959 1747 
Q 959 1119 1226 758 
Q 1494 397 1959 397 
Q 2419 397 2687 759 
Q 2956 1122 2956 1747 
Q 2956 2369 2687 2733 
Q 2419 3097 1959 3097 
z
M 1959 3584 
Q 2709 3584 3137 3096 
Q 3566 2609 3566 1747 
Q 3566 888 3137 398 
Q 2709 -91 1959 -91 
Q 1206 -91 779 398 
Q 353 888 353 1747 
Q 353 2609 779 3096 
Q 1206 3584 1959 3584 
z
" transform="scale(0.015625)"/>
       <path id="DejaVuSans-75" d="M 544 1381 
L 544 3500 
L 1119 3500 
L 1119 1403 
Q 1119 906 1312 657 
Q 1506 409 1894 409 
Q 2359 409 2629 706 
Q 2900 1003 2900 1516 
L 2900 3500 
L 3475 3500 
L 3475 0 
L 2900 0 
L 2900 538 
Q 2691 219 2414 64 
Q 2138 -91 1772 -91 
Q 1169 -91 856 284 
Q 544 659 544 1381 
z
M 1991 3584 
L 1991 3584 
z
" transform="scale(0.015625)"/>
       <path id="DejaVuSans-6e" d="M 3513 2113 
L 3513 0 
L 2938 0 
L 2938 2094 
Q 2938 2591 2744 2837 
Q 2550 3084 2163 3084 
Q 1697 3084 1428 2787 
Q 1159 2491 1159 1978 
L 1159 0 
L 581 0 
L 581 3500 
L 1159 3500 
L 1159 2956 
Q 1366 3272 1645 3428 
Q 1925 3584 2291 3584 
Q 2894 3584 3203 3211 
Q 3513 2838 3513 2113 
z
" transform="scale(0.015625)"/>
       <path id="DejaVuSans-74" d="M 1172 4494 
L 1172 3500 
L 2356 3500 
L 2356 3053 
L 1172 3053 
L 1172 1153 
Q 1172 725 1289 603 
Q 1406 481 1766 481 
L 2356 481 
L 2356 0 
L 1766 0 
Q 1100 0 847 248 
Q 594 497 594 1153 
L 594 3053 
L 172 3053 
L 172 3500 
L 594 3500 
L 594 4494 
L 1172 4494 
z
" transform="scale(0.015625)"/>
       <path id="DejaVuSans-73" d="M 2834 3397 
L 2834 2853 
Q 2591 2978 2328 3040 
Q 2066 3103 1784 3103 
Q 1356 3103 1142 2972 
Q 928 2841 928 2578 
Q 928 2378 1081 2264 
Q 1234 2150 1697 2047 
L 1894 2003 
Q 2506 1872 2764 1633 
Q 3022 1394 3022 966 
Q 3022 478 2636 193 
Q 2250 -91 1575 -91 
Q 1294 -91 989 -36 
Q 684 19 347 128 
L 347 722 
Q 666 556 975 473 
Q 1284 391 1588 391 
Q 1994 391 2212 530 
Q 2431 669 2431 922 
Q 2431 1156 2273 1281 
Q 2116 1406 1581 1522 
L 1381 1569 
Q 847 1681 609 1914 
Q 372 2147 372 2553 
Q 372 3047 722 3315 
Q 1072 3584 1716 3584 
Q 2034 3584 2315 3537 
Q 2597 3491 2834 3397 
z
" transform="scale(0.015625)"/>
      </defs>
      <use xlink:href="#DejaVuSans-5b"/>
      <use xlink:href="#DejaVuSans-63" x="39.013672"/>
      <use xlink:href="#DejaVuSans-6f" x="93.994141"/>
      <use xlink:href="#DejaVuSans-75" x="155.175781"/>
      <use xlink:href="#DejaVuSans-6e" x="218.554688"/>
      <use xlink:href="#DejaVuSans-74" x="281.933594"/>
      <use xlink:href="#DejaVuSans-73" x="321.142578"/>
      <use xlink:href="#DejaVuSans-5d" x="373.242188"/>
     </g>
    </g>
   </g>
   <g id="patch_3">
    <path d="M 45.478125 242.44 
L 45.478125 7.2 
" style="fill: none; stroke: #000000; stroke-width: 0.8; stroke-linejoin: miter; stroke-linecap: square"/>
   </g>
   <g id="patch_4">
    <path d="M 414.304889 242.44 
L 414.304889 7.2 
" style="fill: none; stroke: #000000; stroke-width: 0.8; stroke-linejoin: miter; stroke-linecap: square"/>
   </g>
   <g id="patch_5">
    <path d="M 45.478125 242.44 
L 414.304889 242.44 
" style="fill: none; stroke: #000000; stroke-width: 0.8; stroke-linejoin: miter; stroke-linecap: square"/>
   </g>
   <g id="patch_6">
    <path d="M 45.478125 7.2 
L 414.304889 7.2 
" style="fill: none; stroke: #000000; stroke-width: 0.8; stroke-linejoin: miter; stroke-linecap: square"/>
   </g>
   <g id="line2d_33">
    <path d="M 62.242978 17.892727 
L 63.919463 17.892727 
L 63.919463 20.434189 
L 65.595948 20.434189 
L 65.595948 21.302246 
L 67.272434 21.302246 
L 67.272434 23.01573 
L 68.948919 23.01573 
L 68.948919 22.649033 
L 70.625404 22.649033 
L 70.625404 22.846935 
L 72.30189 22.846935 
L 72.30189 26.146322 
L 73.978375 26.146322 
L 73.978375 27.648784 
L 75.65486 27.648784 
L 75.65486 29.194502 
L 79.007831 29.232001 
L 79.007831 31.256678 
L 80.684316 31.256678 
L 80.684316 32.255057 
L 82.360801 32.255057 
L 82.360801 33.085423 
L 84.037287 33.085423 
L 84.037287 36.778085 
L 85.713772 36.778085 
L 85.713772 38.251102 
L 87.390257 38.251102 
L 87.390257 37.699251 
L 89.066743 37.699251 
L 89.066743 38.081713 
L 90.743228 38.081713 
L 90.743228 43.12413 
L 92.419713 43.12413 
L 92.419713 49.161479 
L 94.096198 49.161479 
L 94.096198 46.703991 
L 95.772684 46.703991 
L 95.772684 48.440559 
L 97.449169 48.440559 
L 97.449169 53.773889 
L 99.125654 53.773889 
L 99.125654 57.459531 
L 100.80214 57.459531 
L 100.80214 62.367081 
L 102.478625 62.367081 
L 102.478625 68.667464 
L 104.15511 68.667464 
L 104.15511 76.434465 
L 105.831595 76.434465 
L 105.831595 90.737187 
L 107.508081 90.737187 
L 107.508081 103.385367 
L 109.184566 103.385367 
L 109.184566 122.239261 
L 110.861051 122.239261 
L 110.861051 133.705193 
L 112.537537 133.705193 
L 112.537537 158.267892 
L 114.214022 158.267892 
L 114.214022 161.363261 
L 115.890507 161.363261 
L 115.890507 134.843037 
L 117.566992 134.843037 
L 117.566992 123.204239 
L 119.243478 123.204239 
L 119.243478 120.320918 
L 120.919963 120.320918 
L 120.919963 113.7763 
L 122.596448 113.7763 
L 122.596448 123.312862 
L 124.272934 123.312862 
L 124.272934 116.621951 
L 125.949419 116.621951 
L 125.949419 115.766084 
L 127.625904 115.766084 
L 127.625904 115.526086 
L 129.30239 115.526086 
L 129.30239 124.707074 
L 130.978875 124.707074 
L 130.978875 134.641829 
L 132.65536 134.641829 
L 132.65536 140.571943 
L 134.331845 140.571943 
L 134.331845 144.238831 
L 136.008331 144.238831 
L 136.008331 153.852917 
L 137.684816 153.852917 
L 137.684816 152.5666 
L 139.361301 152.5666 
L 139.361301 160.616379 
L 141.037787 160.616379 
L 141.037787 173.671787 
L 142.714272 173.671787 
L 142.714272 172.088187 
L 144.390757 172.088187 
L 144.390757 180.741463 
L 146.067242 180.741463 
L 146.067242 187.027394 
L 147.743728 187.027394 
L 147.743728 197.295939 
L 149.420213 197.295939 
L 149.420213 196.617175 
L 151.096698 196.617175 
L 151.096698 191.533838 
L 152.773184 191.533838 
L 152.773184 201.310198 
L 154.449669 201.310198 
L 154.449669 191.071772 
L 156.126154 191.071772 
L 156.126154 195.842558 
L 157.802639 195.842558 
L 157.802639 198.224208 
L 159.479125 198.224208 
L 159.479125 202.54058 
L 161.15561 202.54058 
L 161.15561 191.022258 
L 162.832095 191.022258 
L 162.832095 179.789976 
L 164.508581 179.789976 
L 164.508581 194.19277 
L 166.185066 194.19277 
L 166.185066 181.899165 
L 167.861551 181.899165 
L 167.861551 187.330525 
L 169.538037 187.330525 
L 169.538037 188.133164 
L 171.214522 188.133164 
L 171.214522 189.448258 
L 172.891007 189.448258 
L 172.891007 185.385303 
L 174.567492 185.385303 
L 174.567492 172.845229 
L 176.243978 172.845229 
L 176.243978 174.164698 
L 177.920463 174.164698 
L 177.920463 182.283124 
L 179.596948 182.283124 
L 179.596948 179.775029 
L 181.273434 179.775029 
L 181.273434 180.336228 
L 182.949919 180.336228 
L 182.949919 185.814904 
L 184.626404 185.814904 
L 184.626404 187.304613 
L 186.302889 187.304613 
L 186.302889 183.139559 
L 187.979375 183.139559 
L 187.979375 177.949965 
L 189.65586 177.949965 
L 189.65586 189.64899 
L 191.332345 189.64899 
L 191.332345 180.275456 
L 193.008831 180.275456 
L 193.008831 183.547213 
L 194.685316 183.547213 
L 194.685316 186.042449 
L 196.361801 186.042449 
L 196.361801 199.884864 
L 198.038286 199.884864 
L 198.038286 182.704036 
L 199.714772 182.704036 
L 199.714772 192.134305 
L 201.391257 192.134305 
L 201.391257 183.265214 
L 203.067742 183.265214 
L 203.067742 197.372003 
L 204.744228 197.372003 
L 204.744228 194.9695 
L 206.420713 194.9695 
L 206.420713 194.682334 
L 208.097198 194.682334 
L 208.097198 201.833078 
L 209.773683 201.833078 
L 209.773683 206.568362 
L 211.450169 206.568362 
L 211.450169 202.939005 
L 213.126654 202.939005 
L 213.126654 214.98999 
L 214.803139 214.98999 
L 214.803139 211.595039 
L 216.479625 211.595039 
L 216.479625 213.763331 
L 218.15611 213.763331 
L 218.15611 206.584337 
L 219.832595 206.584337 
L 219.832595 197.907016 
L 221.509081 197.907016 
L 221.509081 216.38105 
L 223.185566 216.38105 
L 223.185566 215.011134 
L 224.862051 215.011134 
L 224.862051 215.74012 
L 226.538536 215.74012 
L 226.538536 209.69624 
L 228.215022 209.69624 
L 228.215022 205.35863 
L 229.891507 205.35863 
L 229.891507 215.677238 
L 231.567992 215.677238 
L 231.567992 210.556425 
L 233.244478 210.556425 
L 233.244478 208.054912 
L 234.920963 208.054912 
L 234.920963 215.334052 
L 236.597448 215.334052 
L 236.597448 218.50511 
L 238.273933 218.50511 
L 238.273933 207.65321 
L 239.950419 207.65321 
L 239.950419 209.255767 
L 241.626904 209.255767 
L 241.626904 212.91923 
L 243.303389 212.91923 
L 243.303389 209.203683 
L 244.979875 209.203683 
L 244.979875 206.864551 
L 246.65636 206.864551 
L 246.65636 210.155949 
L 248.332845 210.155949 
L 248.332845 204.806521 
L 250.00933 204.806521 
L 250.00933 207.607651 
L 251.685816 207.607651 
L 251.685816 214.27821 
L 253.362301 214.27821 
L 253.362301 215.074735 
L 255.038786 215.074735 
L 255.038786 212.095875 
L 256.715272 212.095875 
L 256.715272 210.800655 
L 258.391757 210.800655 
L 258.391757 217.852185 
L 260.068242 217.852185 
L 260.068242 212.926078 
L 261.744727 212.926078 
L 261.744727 205.400402 
L 263.421213 205.400402 
L 263.421213 210.493689 
L 265.097698 210.493689 
L 265.097698 207.261694 
L 266.774183 207.261694 
L 266.774183 210.514014 
L 268.450669 210.514014 
L 268.450669 204.273815 
L 270.127154 204.273815 
L 270.127154 203.210865 
L 271.803639 203.210865 
L 271.803639 217.511603 
L 273.480125 217.511603 
L 273.480125 210.186057 
L 276.833095 210.077406 
L 276.833095 213.114918 
L 278.50958 213.114918 
L 278.50958 209.868576 
L 280.186066 209.868576 
L 280.186066 200.843396 
L 281.862551 200.843396 
L 281.862551 213.946815 
L 283.539036 213.946815 
L 283.539036 216.609889 
L 285.215522 216.609889 
L 285.215522 216.112339 
L 286.892007 216.112339 
L 286.892007 213.775665 
L 288.568492 213.775665 
L 288.568492 217.174667 
L 290.244977 217.174667 
L 290.244977 216.864564 
L 291.921463 216.864564 
L 291.921463 215.514325 
L 293.597948 215.514325 
L 293.597948 212.770212 
L 295.274433 212.770212 
L 295.274433 220.726122 
L 296.950919 220.726122 
L 296.950919 214.532888 
L 298.627404 214.532888 
L 298.627404 204.939557 
L 300.303889 204.939557 
L 300.303889 215.470675 
L 301.980374 215.470675 
L 301.980374 210.765164 
L 303.65686 210.765164 
L 303.65686 205.381823 
L 305.333345 205.381823 
L 305.333345 224.117486 
L 307.00983 224.117486 
L 307.00983 216.381328 
L 308.686316 216.381328 
L 308.686316 210.166742 
L 310.362801 210.166742 
L 310.362801 209.385325 
L 312.039286 209.385325 
L 312.039286 203.369839 
L 313.715771 203.369839 
L 313.715771 216.098896 
L 315.392257 216.098896 
L 315.392257 229.728188 
L 317.068742 229.728188 
L 317.068742 206.173034 
L 318.745227 206.173034 
L 318.745227 216.913759 
L 320.421713 216.913759 
L 320.421713 208.112702 
L 322.098198 208.112702 
L 322.098198 217.698515 
L 323.774683 217.698515 
L 323.774683 210.534671 
L 325.451169 210.534671 
L 325.451169 229.376807 
L 327.127654 229.376807 
L 327.127654 228.246407 
L 328.804139 228.246407 
L 328.804139 226.383536 
L 330.480624 226.383536 
L 330.480624 222.441711 
L 332.15711 222.441711 
L 332.15711 208.243955 
L 333.833595 208.243955 
L 333.833595 219.609078 
L 335.51008 219.609078 
L 335.51008 214.701398 
L 337.186566 214.701398 
L 337.186566 200.650408 
L 338.863051 200.650408 
L 338.863051 227.756341 
L 340.539536 227.756341 
L 340.539536 209.405848 
L 342.216021 209.405848 
L 342.216021 220.893197 
L 343.892507 220.893197 
L 343.892507 224.944881 
L 345.568992 224.944881 
L 345.568992 216.901098 
L 347.245477 216.901098 
L 347.245477 212.139473 
L 348.921963 212.139473 
L 348.921963 214.577578 
L 350.598448 214.577578 
L 350.598448 204.569948 
L 352.274933 204.569948 
L 352.274933 220.832951 
L 353.951418 220.832951 
L 353.951418 199.837583 
L 355.627904 199.837583 
L 355.627904 211.156146 
L 357.304389 211.156146 
L 357.304389 217.075675 
L 358.980874 217.075675 
L 358.980874 204.786997 
L 360.65736 204.786997 
L 360.65736 221.662033 
L 362.333845 221.662033 
L 362.333845 212.073328 
L 364.01033 212.073328 
L 364.01033 218.950861 
L 365.686816 218.950861 
L 365.686816 215.866032 
L 367.363301 215.866032 
L 367.363301 212.698787 
L 369.039786 212.698787 
L 369.039786 212.090516 
L 370.716271 212.090516 
L 370.716271 228.83949 
L 372.392757 228.83949 
L 372.392757 210.087036 
L 374.069242 210.087036 
L 374.069242 231.747273 
L 375.745727 231.747273 
L 375.745727 202.249387 
L 377.422213 202.249387 
L 377.422213 218.469071 
L 379.098698 218.469071 
L 379.098698 211.772578 
L 380.775183 211.772578 
L 380.775183 210.552774 
L 382.451668 210.552774 
L 382.451668 226.228536 
L 384.128154 226.228536 
L 384.128154 213.324925 
L 385.804639 213.324925 
L 385.804639 210.747786 
L 387.481124 210.747786 
L 387.481124 200.234102 
L 389.15761 200.234102 
L 389.15761 225.536099 
L 390.834095 225.536099 
L 390.834095 221.48367 
L 392.51058 221.48367 
L 392.51058 211.739344 
L 394.187065 211.739344 
L 394.187065 211.036344 
L 395.863551 211.036344 
L 395.863551 228.044686 
L 397.540036 228.044686 
L 397.540036 228.044686 
" clip-path="url(#p7593866efa)" style="fill: none; stroke: #1f77b4; stroke-width: 1.5; stroke-linecap: square"/>
   </g>
  </g>
 </g>
 <defs>
  <clipPath id="p7593866efa">
   <rect x="45.478125" y="7.2" width="368.826764" height="235.24"/>
  </clipPath>
 </defs>
</svg>