<?xml version="1.0" encoding="UTF-8" standalone="no"?>
<!DOCTYPE svg PUBLIC "-//W3C//DTD SVG 1.1//EN"
 "http://www.w3.org/Graphics/SVG/1.1/DTD/svg11.dtd">
<!-- Generated by graphviz version 2.43.0 (0)
 -->
<!-- Title: %3 Pages: 1 -->
<svg width="537pt" height="251pt"
 viewBox="0.00 0.00 537.00 251.00" xmlns="http://www.w3.org/2000/svg" xmlns:xlink="http://www.w3.org/1999/xlink">
<g id="graph0" class="graph" transform="scale(1 1) rotate(0) translate(4 247)">
<title>%3</title>
<polygon fill="white" stroke="transparent" points="-4,4 -4,-247 533,-247 533,4 -4,4"/>
<!-- Compute (L1) = straight_l1(source_position, sample_position) -->
<g id="node1" class="node">
<title>Compute (L1) = straight_l1(source_position, sample_position)</title>
<polygon fill="lightgrey" stroke="transparent" points="263,-184 161,-184 161,-169 263,-169 263,-184"/>
<text text-anchor="middle" x="212" y="-172.8" font-family="Times,serif" font-size="14.00">straight_l1(...)</text>
</g>
<!-- L1 -->
<g id="node2" class="node">
<title>L1</title>
<polygon fill="none" stroke="black" points="275,-133 221,-133 221,-110 275,-110 275,-133"/>
<text text-anchor="middle" x="248" y="-117.8" font-family="Times,serif" font-size="14.00">L1</text>
</g>
<!-- Compute (L1) = straight_l1(source_position, sample_position)&#45;&gt;L1 -->
<g id="edge1" class="edge">
<title>Compute (L1) = straight_l1(source_position, sample_position)&#45;&gt;L1</title>
<path fill="none" stroke="black" d="M216.71,-168.57C221.33,-161.77 228.59,-151.07 234.96,-141.7"/>
<polygon fill="black" stroke="black" points="237.95,-143.53 240.67,-133.29 232.16,-139.59 237.95,-143.53"/>
</g>
<!-- Compute (Ltotal) = l_total(L1, L2) -->
<g id="node9" class="node">
<title>Compute (Ltotal) = l_total(L1, L2)</title>
<polygon fill="lightgrey" stroke="transparent" points="318.5,-74 249.5,-74 249.5,-59 318.5,-59 318.5,-74"/>
<text text-anchor="middle" x="284" y="-62.8" font-family="Times,serif" font-size="14.00">l_total(...)</text>
</g>
<!-- L1&#45;&gt;Compute (Ltotal) = l_total(L1, L2) -->
<g id="edge9" class="edge">
<title>L1&#45;&gt;Compute (Ltotal) = l_total(L1, L2)</title>
<path fill="none" stroke="black" d="M255.29,-109.77C260.6,-101.96 267.86,-91.26 273.76,-82.58"/>
<polygon fill="black" stroke="black" points="276.74,-84.42 279.46,-74.19 270.94,-80.49 276.74,-84.42"/>
</g>
<!-- source_position -->
<g id="node3" class="node">
<title>source_position</title>
<polygon fill="none" stroke="black" points="128,-243 0,-243 0,-220 128,-220 128,-243"/>
<text text-anchor="middle" x="64" y="-227.8" font-family="Times,serif" font-size="14.00">source_position</text>
</g>
<!-- source_position&#45;&gt;Compute (L1) = straight_l1(source_position, sample_position) -->
<g id="edge2" class="edge">
<title>source_position&#45;&gt;Compute (L1) = straight_l1(source_position, sample_position)</title>
<path fill="none" stroke="black" d="M93.59,-219.9C119.96,-210.46 158.25,-196.75 184.09,-187.5"/>
<polygon fill="black" stroke="black" points="185.43,-190.73 193.66,-184.07 183.07,-184.14 185.43,-190.73"/>
</g>
<!-- sample_position -->
<g id="node4" class="node">
<title>sample_position</title>
<polygon fill="none" stroke="black" points="277.5,-243 146.5,-243 146.5,-220 277.5,-220 277.5,-243"/>
<text text-anchor="middle" x="212" y="-227.8" font-family="Times,serif" font-size="14.00">sample_position</text>
</g>
<!-- sample_position&#45;&gt;Compute (L1) = straight_l1(source_position, sample_position) -->
<g id="edge3" class="edge">
<title>sample_position&#45;&gt;Compute (L1) = straight_l1(source_position, sample_position)</title>
<path fill="none" stroke="black" d="M212,-219.77C212,-212.45 212,-202.61 212,-194.26"/>
<polygon fill="black" stroke="black" points="215.5,-194.19 212,-184.19 208.5,-194.19 215.5,-194.19"/>
</g>
<!-- Compute (L2) = backscattering_l2(sample_position, analyzer_position, position) -->
<g id="node5" class="node">
<title>Compute (L2) = backscattering_l2(sample_position, analyzer_position, position)</title>
<polygon fill="lightgrey" stroke="transparent" points="436.5,-184 285.5,-184 285.5,-169 436.5,-169 436.5,-184"/>
<text text-anchor="middle" x="361" y="-172.8" font-family="Times,serif" font-size="14.00">backscattering_l2(...)</text>
</g>
<!-- sample_position&#45;&gt;Compute (L2) = backscattering_l2(sample_position, analyzer_position, position) -->
<g id="edge5" class="edge">
<title>sample_position&#45;&gt;Compute (L2) = backscattering_l2(sample_position, analyzer_position, position)</title>
<path fill="none" stroke="black" d="M241.79,-219.9C268.33,-210.46 306.89,-196.75 332.9,-187.5"/>
<polygon fill="black" stroke="black" points="334.29,-190.72 342.54,-184.07 331.94,-184.12 334.29,-190.72"/>
</g>
<!-- L2 -->
<g id="node6" class="node">
<title>L2</title>
<polygon fill="none" stroke="black" points="365,-133 311,-133 311,-110 365,-110 365,-133"/>
<text text-anchor="middle" x="338" y="-117.8" font-family="Times,serif" font-size="14.00">L2</text>
</g>
<!-- Compute (L2) = backscattering_l2(sample_position, analyzer_position, position)&#45;&gt;L2 -->
<g id="edge4" class="edge">
<title>Compute (L2) = backscattering_l2(sample_position, analyzer_position, position)&#45;&gt;L2</title>
<path fill="none" stroke="black" d="M357.99,-168.57C355.13,-161.98 350.69,-151.73 346.71,-142.57"/>
<polygon fill="black" stroke="black" points="349.87,-141.07 342.68,-133.29 343.45,-143.86 349.87,-141.07"/>
</g>
<!-- L2&#45;&gt;Compute (Ltotal) = l_total(L1, L2) -->
<g id="edge10" class="edge">
<title>L2&#45;&gt;Compute (Ltotal) = l_total(L1, L2)</title>
<path fill="none" stroke="black" d="M327.07,-109.77C318.68,-101.54 307.04,-90.11 297.97,-81.21"/>
<polygon fill="black" stroke="black" points="300.4,-78.69 290.81,-74.19 295.5,-83.69 300.4,-78.69"/>
</g>
<!-- analyzer_position -->
<g id="node7" class="node">
<title>analyzer_position</title>
<polygon fill="none" stroke="black" points="436.5,-243 295.5,-243 295.5,-220 436.5,-220 436.5,-243"/>
<text text-anchor="middle" x="366" y="-227.8" font-family="Times,serif" font-size="14.00">analyzer_position</text>
</g>
<!-- analyzer_position&#45;&gt;Compute (L2) = backscattering_l2(sample_position, analyzer_position, position) -->
<g id="edge6" class="edge">
<title>analyzer_position&#45;&gt;Compute (L2) = backscattering_l2(sample_position, analyzer_position, position)</title>
<path fill="none" stroke="black" d="M364.99,-219.77C364.3,-212.45 363.37,-202.61 362.58,-194.26"/>
<polygon fill="black" stroke="black" points="366.05,-193.81 361.63,-184.19 359.09,-194.47 366.05,-193.81"/>
</g>
<!-- position -->
<g id="node8" class="node">
<title>position</title>
<polygon fill="none" stroke="black" points="529,-243 455,-243 455,-220 529,-220 529,-243"/>
<text text-anchor="middle" x="492" y="-227.8" font-family="Times,serif" font-size="14.00">position</text>
</g>
<!-- position&#45;&gt;Compute (L2) = backscattering_l2(sample_position, analyzer_position, position) -->
<g id="edge7" class="edge">
<title>position&#45;&gt;Compute (L2) = backscattering_l2(sample_position, analyzer_position, position)</title>
<path fill="none" stroke="black" d="M465.81,-219.9C442.78,-210.59 409.47,-197.11 386.62,-187.87"/>
<polygon fill="black" stroke="black" points="387.81,-184.57 377.23,-184.07 385.19,-191.06 387.81,-184.57"/>
</g>
<!-- Ltotal -->
<g id="node10" class="node">
<title>Ltotal</title>
<polygon fill="none" stroke="black" points="313.5,-23 254.5,-23 254.5,0 313.5,0 313.5,-23"/>
<text text-anchor="middle" x="284" y="-7.8" font-family="Times,serif" font-size="14.00">Ltotal</text>
</g>
<!-- Compute (Ltotal) = l_total(L1, L2)&#45;&gt;Ltotal -->
<g id="edge8" class="edge">
<title>Compute (Ltotal) = l_total(L1, L2)&#45;&gt;Ltotal</title>
<path fill="none" stroke="black" d="M284,-58.57C284,-52.19 284,-42.38 284,-33.45"/>
<polygon fill="black" stroke="black" points="287.5,-33.29 284,-23.29 280.5,-33.29 287.5,-33.29"/>
</g>
</g>
</svg>