<?xml version="1.0" encoding="utf-8" standalone="no"?>
<!DOCTYPE svg PUBLIC "-//W3C//DTD SVG 1.1//EN"
  "http://www.w3.org/Graphics/SVG/1.1/DTD/svg11.dtd">
<svg xmlns:xlink="http://www.w3.org/1999/xlink" width="388.965625pt" height="268.411229pt" viewBox="0 0 388.965625 268.411229" xmlns="http://www.w3.org/2000/svg" version="1.1">
 <metadata>
  <rdf:RDF xmlns:dc="http://purl.org/dc/elements/1.1/" xmlns:cc="http://creativecommons.org/ns#" xmlns:rdf="http://www.w3.org/1999/02/22-rdf-syntax-ns#">
   <cc:Work>
    <dc:type rdf:resource="http://purl.org/dc/dcmitype/StillImage"/>
    <dc:date>2025-06-23T14:42:08.231234</dc:date>
    <dc:format>image/svg+xml</dc:format>
    <dc:creator>
     <cc:Agent>
      <dc:title>Matplotlib v3.10.1, https://matplotlib.org/</dc:title>
     </cc:Agent>
    </dc:creator>
   </cc:Work>
  </rdf:RDF>
 </metadata>
 <defs>
  <style type="text/css">*{stroke-linejoin: round; stroke-linecap: butt}</style>
 </defs>
 <g id="figure_1">
  <g id="patch_1">
   <path d="M 0 268.411229 
L 388.965625 268.411229 
L 388.965625 0 
L 0 0 
z
" style="fill: #ffffff"/>
  </g>
  <g id="axes_1">
   <g id="patch_2">
    <path d="M 46.965625 230.854979 
L 381.765625 230.854979 
L 381.765625 9.094979 
L 46.965625 9.094979 
z
" style="fill: #ffffff"/>
   </g>
   <g id="matplotlib.axis_1">
    <g id="xtick_1">
     <g id="line2d_1">
      <defs>
       <path id="ma2d09582b3" d="M 0 0 
L 0 3.5 
" style="stroke: #000000; stroke-width: 0.8"/>
      </defs>
      <g>
       <use xlink:href="#ma2d09582b3" x="100.289005" y="230.854979" style="stroke: #000000; stroke-width: 0.8"/>
      </g>
     </g>
     <g id="text_1">
      <!-- 246.8 -->
      <g transform="translate(85.974942 245.453417) scale(0.1 -0.1)">
       <defs>
        <path id="DejaVuSans-32" d="M 1228 531 
L 3431 531 
L 3431 0 
L 469 0 
L 469 531 
Q 828 903 1448 1529 
Q 2069 2156 2228 2338 
Q 2531 2678 2651 2914 
Q 2772 3150 2772 3378 
Q 2772 3750 2511 3984 
Q 2250 4219 1831 4219 
Q 1534 4219 1204 4116 
Q 875 4013 500 3803 
L 500 4441 
Q 881 4594 1212 4672 
Q 1544 4750 1819 4750 
Q 2544 4750 2975 4387 
Q 3406 4025 3406 3419 
Q 3406 3131 3298 2873 
Q 3191 2616 2906 2266 
Q 2828 2175 2409 1742 
Q 1991 1309 1228 531 
z
" transform="scale(0.015625)"/>
        <path id="DejaVuSans-34" d="M 2419 4116 
L 825 1625 
L 2419 1625 
L 2419 4116 
z
M 2253 4666 
L 3047 4666 
L 3047 1625 
L 3713 1625 
L 3713 1100 
L 3047 1100 
L 3047 0 
L 2419 0 
L 2419 1100 
L 313 1100 
L 313 1709 
L 2253 4666 
z
" transform="scale(0.015625)"/>
        <path id="DejaVuSans-36" d="M 2113 2584 
Q 1688 2584 1439 2293 
Q 1191 2003 1191 1497 
Q 1191 994 1439 701 
Q 1688 409 2113 409 
Q 2538 409 2786 701 
Q 3034 994 3034 1497 
Q 3034 2003 2786 2293 
Q 2538 2584 2113 2584 
z
M 3366 4563 
L 3366 3988 
Q 3128 4100 2886 4159 
Q 2644 4219 2406 4219 
Q 1781 4219 1451 3797 
Q 1122 3375 1075 2522 
Q 1259 2794 1537 2939 
Q 1816 3084 2150 3084 
Q 2853 3084 3261 2657 
Q 3669 2231 3669 1497 
Q 3669 778 3244 343 
Q 2819 -91 2113 -91 
Q 1303 -91 875 529 
Q 447 1150 447 2328 
Q 447 3434 972 4092 
Q 1497 4750 2381 4750 
Q 2619 4750 2861 4703 
Q 3103 4656 3366 4563 
z
" transform="scale(0.015625)"/>
        <path id="DejaVuSans-2e" d="M 684 794 
L 1344 794 
L 1344 0 
L 684 0 
L 684 794 
z
" transform="scale(0.015625)"/>
        <path id="DejaVuSans-38" d="M 2034 2216 
Q 1584 2216 1326 1975 
Q 1069 1734 1069 1313 
Q 1069 891 1326 650 
Q 1584 409 2034 409 
Q 2484 409 2743 651 
Q 3003 894 3003 1313 
Q 3003 1734 2745 1975 
Q 2488 2216 2034 2216 
z
M 1403 2484 
Q 997 2584 770 2862 
Q 544 3141 544 3541 
Q 544 4100 942 4425 
Q 1341 4750 2034 4750 
Q 2731 4750 3128 4425 
Q 3525 4100 3525 3541 
Q 3525 3141 3298 2862 
Q 3072 2584 2669 2484 
Q 3125 2378 3379 2068 
Q 3634 1759 3634 1313 
Q 3634 634 3220 271 
Q 2806 -91 2034 -91 
Q 1263 -91 848 271 
Q 434 634 434 1313 
Q 434 1759 690 2068 
Q 947 2378 1403 2484 
z
M 1172 3481 
Q 1172 3119 1398 2916 
Q 1625 2713 2034 2713 
Q 2441 2713 2670 2916 
Q 2900 3119 2900 3481 
Q 2900 3844 2670 4047 
Q 2441 4250 2034 4250 
Q 1625 4250 1398 4047 
Q 1172 3844 1172 3481 
z
" transform="scale(0.015625)"/>
       </defs>
       <use xlink:href="#DejaVuSans-32"/>
       <use xlink:href="#DejaVuSans-34" transform="translate(63.623047 0)"/>
       <use xlink:href="#DejaVuSans-36" transform="translate(127.246094 0)"/>
       <use xlink:href="#DejaVuSans-2e" transform="translate(190.869141 0)"/>
       <use xlink:href="#DejaVuSans-38" transform="translate(222.65625 0)"/>
      </g>
     </g>
    </g>
    <g id="xtick_2">
     <g id="line2d_2">
      <g>
       <use xlink:href="#ma2d09582b3" x="161.066305" y="230.854979" style="stroke: #000000; stroke-width: 0.8"/>
      </g>
     </g>
     <g id="text_2">
      <!-- 247.0 -->
      <g transform="translate(146.752242 245.453417) scale(0.1 -0.1)">
       <defs>
        <path id="DejaVuSans-37" d="M 525 4666 
L 3525 4666 
L 3525 4397 
L 1831 0 
L 1172 0 
L 2766 4134 
L 525 4134 
L 525 4666 
z
" transform="scale(0.015625)"/>
        <path id="DejaVuSans-30" d="M 2034 4250 
Q 1547 4250 1301 3770 
Q 1056 3291 1056 2328 
Q 1056 1369 1301 889 
Q 1547 409 2034 409 
Q 2525 409 2770 889 
Q 3016 1369 3016 2328 
Q 3016 3291 2770 3770 
Q 2525 4250 2034 4250 
z
M 2034 4750 
Q 2819 4750 3233 4129 
Q 3647 3509 3647 2328 
Q 3647 1150 3233 529 
Q 2819 -91 2034 -91 
Q 1250 -91 836 529 
Q 422 1150 422 2328 
Q 422 3509 836 4129 
Q 1250 4750 2034 4750 
z
" transform="scale(0.015625)"/>
       </defs>
       <use xlink:href="#DejaVuSans-32"/>
       <use xlink:href="#DejaVuSans-34" transform="translate(63.623047 0)"/>
       <use xlink:href="#DejaVuSans-37" transform="translate(127.246094 0)"/>
       <use xlink:href="#DejaVuSans-2e" transform="translate(190.869141 0)"/>
       <use xlink:href="#DejaVuSans-30" transform="translate(222.65625 0)"/>
      </g>
     </g>
    </g>
    <g id="xtick_3">
     <g id="line2d_3">
      <g>
       <use xlink:href="#ma2d09582b3" x="221.843604" y="230.854979" style="stroke: #000000; stroke-width: 0.8"/>
      </g>
     </g>
     <g id="text_3">
      <!-- 247.2 -->
      <g transform="translate(207.529542 245.453417) scale(0.1 -0.1)">
       <use xlink:href="#DejaVuSans-32"/>
       <use xlink:href="#DejaVuSans-34" transform="translate(63.623047 0)"/>
       <use xlink:href="#DejaVuSans-37" transform="translate(127.246094 0)"/>
       <use xlink:href="#DejaVuSans-2e" transform="translate(190.869141 0)"/>
       <use xlink:href="#DejaVuSans-32" transform="translate(222.65625 0)"/>
      </g>
     </g>
    </g>
    <g id="xtick_4">
     <g id="line2d_4">
      <g>
       <use xlink:href="#ma2d09582b3" x="282.620904" y="230.854979" style="stroke: #000000; stroke-width: 0.8"/>
      </g>
     </g>
     <g id="text_4">
      <!-- 247.4 -->
      <g transform="translate(268.306842 245.453417) scale(0.1 -0.1)">
       <use xlink:href="#DejaVuSans-32"/>
       <use xlink:href="#DejaVuSans-34" transform="translate(63.623047 0)"/>
       <use xlink:href="#DejaVuSans-37" transform="translate(127.246094 0)"/>
       <use xlink:href="#DejaVuSans-2e" transform="translate(190.869141 0)"/>
       <use xlink:href="#DejaVuSans-34" transform="translate(222.65625 0)"/>
      </g>
     </g>
    </g>
    <g id="xtick_5">
     <g id="line2d_5">
      <g>
       <use xlink:href="#ma2d09582b3" x="343.398204" y="230.854979" style="stroke: #000000; stroke-width: 0.8"/>
      </g>
     </g>
     <g id="text_5">
      <!-- 247.6 -->
      <g transform="translate(329.084141 245.453417) scale(0.1 -0.1)">
       <use xlink:href="#DejaVuSans-32"/>
       <use xlink:href="#DejaVuSans-34" transform="translate(63.623047 0)"/>
       <use xlink:href="#DejaVuSans-37" transform="translate(127.246094 0)"/>
       <use xlink:href="#DejaVuSans-2e" transform="translate(190.869141 0)"/>
       <use xlink:href="#DejaVuSans-36" transform="translate(222.65625 0)"/>
      </g>
     </g>
    </g>
    <g id="text_6">
     <!-- tof [ms] -->
     <g transform="translate(194.620313 259.131542) scale(0.1 -0.1)">
      <defs>
       <path id="DejaVuSans-74" d="M 1172 4494 
L 1172 3500 
L 2356 3500 
L 2356 3053 
L 1172 3053 
L 1172 1153 
Q 1172 725 1289 603 
Q 1406 481 1766 481 
L 2356 481 
L 2356 0 
L 1766 0 
Q 1100 0 847 248 
Q 594 497 594 1153 
L 594 3053 
L 172 3053 
L 172 3500 
L 594 3500 
L 594 4494 
L 1172 4494 
z
" transform="scale(0.015625)"/>
       <path id="DejaVuSans-6f" d="M 1959 3097 
Q 1497 3097 1228 2736 
Q 959 2375 959 1747 
Q 959 1119 1226 758 
Q 1494 397 1959 397 
Q 2419 397 2687 759 
Q 2956 1122 2956 1747 
Q 2956 2369 2687 2733 
Q 2419 3097 1959 3097 
z
M 1959 3584 
Q 2709 3584 3137 3096 
Q 3566 2609 3566 1747 
Q 3566 888 3137 398 
Q 2709 -91 1959 -91 
Q 1206 -91 779 398 
Q 353 888 353 1747 
Q 353 2609 779 3096 
Q 1206 3584 1959 3584 
z
" transform="scale(0.015625)"/>
       <path id="DejaVuSans-66" d="M 2375 4863 
L 2375 4384 
L 1825 4384 
Q 1516 4384 1395 4259 
Q 1275 4134 1275 3809 
L 1275 3500 
L 2222 3500 
L 2222 3053 
L 1275 3053 
L 1275 0 
L 697 0 
L 697 3053 
L 147 3053 
L 147 3500 
L 697 3500 
L 697 3744 
Q 697 4328 969 4595 
Q 1241 4863 1831 4863 
L 2375 4863 
z
" transform="scale(0.015625)"/>
       <path id="DejaVuSans-20" transform="scale(0.015625)"/>
       <path id="DejaVuSans-5b" d="M 550 4863 
L 1875 4863 
L 1875 4416 
L 1125 4416 
L 1125 -397 
L 1875 -397 
L 1875 -844 
L 550 -844 
L 550 4863 
z
" transform="scale(0.015625)"/>
       <path id="DejaVuSans-6d" d="M 3328 2828 
Q 3544 3216 3844 3400 
Q 4144 3584 4550 3584 
Q 5097 3584 5394 3201 
Q 5691 2819 5691 2113 
L 5691 0 
L 5113 0 
L 5113 2094 
Q 5113 2597 4934 2840 
Q 4756 3084 4391 3084 
Q 3944 3084 3684 2787 
Q 3425 2491 3425 1978 
L 3425 0 
L 2847 0 
L 2847 2094 
Q 2847 2600 2669 2842 
Q 2491 3084 2119 3084 
Q 1678 3084 1418 2786 
Q 1159 2488 1159 1978 
L 1159 0 
L 581 0 
L 581 3500 
L 1159 3500 
L 1159 2956 
Q 1356 3278 1631 3431 
Q 1906 3584 2284 3584 
Q 2666 3584 2933 3390 
Q 3200 3197 3328 2828 
z
" transform="scale(0.015625)"/>
       <path id="DejaVuSans-73" d="M 2834 3397 
L 2834 2853 
Q 2591 2978 2328 3040 
Q 2066 3103 1784 3103 
Q 1356 3103 1142 2972 
Q 928 2841 928 2578 
Q 928 2378 1081 2264 
Q 1234 2150 1697 2047 
L 1894 2003 
Q 2506 1872 2764 1633 
Q 3022 1394 3022 966 
Q 3022 478 2636 193 
Q 2250 -91 1575 -91 
Q 1294 -91 989 -36 
Q 684 19 347 128 
L 347 722 
Q 666 556 975 473 
Q 1284 391 1588 391 
Q 1994 391 2212 530 
Q 2431 669 2431 922 
Q 2431 1156 2273 1281 
Q 2116 1406 1581 1522 
L 1381 1569 
Q 847 1681 609 1914 
Q 372 2147 372 2553 
Q 372 3047 722 3315 
Q 1072 3584 1716 3584 
Q 2034 3584 2315 3537 
Q 2597 3491 2834 3397 
z
" transform="scale(0.015625)"/>
       <path id="DejaVuSans-5d" d="M 1947 4863 
L 1947 -844 
L 622 -844 
L 622 -397 
L 1369 -397 
L 1369 4416 
L 622 4416 
L 622 4863 
L 1947 4863 
z
" transform="scale(0.015625)"/>
      </defs>
      <use xlink:href="#DejaVuSans-74"/>
      <use xlink:href="#DejaVuSans-6f" transform="translate(39.208984 0)"/>
      <use xlink:href="#DejaVuSans-66" transform="translate(100.390625 0)"/>
      <use xlink:href="#DejaVuSans-20" transform="translate(135.595703 0)"/>
      <use xlink:href="#DejaVuSans-5b" transform="translate(167.382812 0)"/>
      <use xlink:href="#DejaVuSans-6d" transform="translate(206.396484 0)"/>
      <use xlink:href="#DejaVuSans-73" transform="translate(303.808594 0)"/>
      <use xlink:href="#DejaVuSans-5d" transform="translate(355.908203 0)"/>
     </g>
    </g>
   </g>
   <g id="matplotlib.axis_2">
    <g id="ytick_1">
     <g id="line2d_6">
      <defs>
       <path id="m3c0ef04dce" d="M 0 0 
L -3.5 0 
" style="stroke: #000000; stroke-width: 0.8"/>
      </defs>
      <g>
       <use xlink:href="#m3c0ef04dce" x="46.965625" y="220.774979" style="stroke: #000000; stroke-width: 0.8"/>
      </g>
     </g>
     <g id="text_7">
      <!-- 0 -->
      <g transform="translate(33.603125 224.574198) scale(0.1 -0.1)">
       <use xlink:href="#DejaVuSans-30"/>
      </g>
     </g>
    </g>
    <g id="ytick_2">
     <g id="line2d_7">
      <g>
       <use xlink:href="#m3c0ef04dce" x="46.965625" y="178.819827" style="stroke: #000000; stroke-width: 0.8"/>
      </g>
     </g>
     <g id="text_8">
      <!-- 50 -->
      <g transform="translate(27.240625 182.619046) scale(0.1 -0.1)">
       <defs>
        <path id="DejaVuSans-35" d="M 691 4666 
L 3169 4666 
L 3169 4134 
L 1269 4134 
L 1269 2991 
Q 1406 3038 1543 3061 
Q 1681 3084 1819 3084 
Q 2600 3084 3056 2656 
Q 3513 2228 3513 1497 
Q 3513 744 3044 326 
Q 2575 -91 1722 -91 
Q 1428 -91 1123 -41 
Q 819 9 494 109 
L 494 744 
Q 775 591 1075 516 
Q 1375 441 1709 441 
Q 2250 441 2565 725 
Q 2881 1009 2881 1497 
Q 2881 1984 2565 2268 
Q 2250 2553 1709 2553 
Q 1456 2553 1204 2497 
Q 953 2441 691 2322 
L 691 4666 
z
" transform="scale(0.015625)"/>
       </defs>
       <use xlink:href="#DejaVuSans-35"/>
       <use xlink:href="#DejaVuSans-30" transform="translate(63.623047 0)"/>
      </g>
     </g>
    </g>
    <g id="ytick_3">
     <g id="line2d_8">
      <g>
       <use xlink:href="#m3c0ef04dce" x="46.965625" y="136.864675" style="stroke: #000000; stroke-width: 0.8"/>
      </g>
     </g>
     <g id="text_9">
      <!-- 100 -->
      <g transform="translate(20.878125 140.663894) scale(0.1 -0.1)">
       <defs>
        <path id="DejaVuSans-31" d="M 794 531 
L 1825 531 
L 1825 4091 
L 703 3866 
L 703 4441 
L 1819 4666 
L 2450 4666 
L 2450 531 
L 3481 531 
L 3481 0 
L 794 0 
L 794 531 
z
" transform="scale(0.015625)"/>
       </defs>
       <use xlink:href="#DejaVuSans-31"/>
       <use xlink:href="#DejaVuSans-30" transform="translate(63.623047 0)"/>
       <use xlink:href="#DejaVuSans-30" transform="translate(127.246094 0)"/>
      </g>
     </g>
    </g>
    <g id="ytick_4">
     <g id="line2d_9">
      <g>
       <use xlink:href="#m3c0ef04dce" x="46.965625" y="94.909523" style="stroke: #000000; stroke-width: 0.8"/>
      </g>
     </g>
     <g id="text_10">
      <!-- 150 -->
      <g transform="translate(20.878125 98.708742) scale(0.1 -0.1)">
       <use xlink:href="#DejaVuSans-31"/>
       <use xlink:href="#DejaVuSans-35" transform="translate(63.623047 0)"/>
       <use xlink:href="#DejaVuSans-30" transform="translate(127.246094 0)"/>
      </g>
     </g>
    </g>
    <g id="ytick_5">
     <g id="line2d_10">
      <g>
       <use xlink:href="#m3c0ef04dce" x="46.965625" y="52.954371" style="stroke: #000000; stroke-width: 0.8"/>
      </g>
     </g>
     <g id="text_11">
      <!-- 200 -->
      <g transform="translate(20.878125 56.75359) scale(0.1 -0.1)">
       <use xlink:href="#DejaVuSans-32"/>
       <use xlink:href="#DejaVuSans-30" transform="translate(63.623047 0)"/>
       <use xlink:href="#DejaVuSans-30" transform="translate(127.246094 0)"/>
      </g>
     </g>
    </g>
    <g id="ytick_6">
     <g id="line2d_11">
      <g>
       <use xlink:href="#m3c0ef04dce" x="46.965625" y="10.999219" style="stroke: #000000; stroke-width: 0.8"/>
      </g>
     </g>
     <g id="text_12">
      <!-- 250 -->
      <g transform="translate(20.878125 14.798437) scale(0.1 -0.1)">
       <use xlink:href="#DejaVuSans-32"/>
       <use xlink:href="#DejaVuSans-35" transform="translate(63.623047 0)"/>
       <use xlink:href="#DejaVuSans-30" transform="translate(127.246094 0)"/>
      </g>
     </g>
    </g>
    <g id="text_13">
     <!-- [counts] -->
     <g transform="translate(14.798438 140.587479) rotate(-90) scale(0.1 -0.1)">
      <defs>
       <path id="DejaVuSans-63" d="M 3122 3366 
L 3122 2828 
Q 2878 2963 2633 3030 
Q 2388 3097 2138 3097 
Q 1578 3097 1268 2742 
Q 959 2388 959 1747 
Q 959 1106 1268 751 
Q 1578 397 2138 397 
Q 2388 397 2633 464 
Q 2878 531 3122 666 
L 3122 134 
Q 2881 22 2623 -34 
Q 2366 -91 2075 -91 
Q 1284 -91 818 406 
Q 353 903 353 1747 
Q 353 2603 823 3093 
Q 1294 3584 2113 3584 
Q 2378 3584 2631 3529 
Q 2884 3475 3122 3366 
z
" transform="scale(0.015625)"/>
       <path id="DejaVuSans-75" d="M 544 1381 
L 544 3500 
L 1119 3500 
L 1119 1403 
Q 1119 906 1312 657 
Q 1506 409 1894 409 
Q 2359 409 2629 706 
Q 2900 1003 2900 1516 
L 2900 3500 
L 3475 3500 
L 3475 0 
L 2900 0 
L 2900 538 
Q 2691 219 2414 64 
Q 2138 -91 1772 -91 
Q 1169 -91 856 284 
Q 544 659 544 1381 
z
M 1991 3584 
L 1991 3584 
z
" transform="scale(0.015625)"/>
       <path id="DejaVuSans-6e" d="M 3513 2113 
L 3513 0 
L 2938 0 
L 2938 2094 
Q 2938 2591 2744 2837 
Q 2550 3084 2163 3084 
Q 1697 3084 1428 2787 
Q 1159 2491 1159 1978 
L 1159 0 
L 581 0 
L 581 3500 
L 1159 3500 
L 1159 2956 
Q 1366 3272 1645 3428 
Q 1925 3584 2291 3584 
Q 2894 3584 3203 3211 
Q 3513 2838 3513 2113 
z
" transform="scale(0.015625)"/>
      </defs>
      <use xlink:href="#DejaVuSans-5b"/>
      <use xlink:href="#DejaVuSans-63" transform="translate(39.013672 0)"/>
      <use xlink:href="#DejaVuSans-6f" transform="translate(93.994141 0)"/>
      <use xlink:href="#DejaVuSans-75" transform="translate(155.175781 0)"/>
      <use xlink:href="#DejaVuSans-6e" transform="translate(218.554688 0)"/>
      <use xlink:href="#DejaVuSans-74" transform="translate(281.933594 0)"/>
      <use xlink:href="#DejaVuSans-73" transform="translate(321.142578 0)"/>
      <use xlink:href="#DejaVuSans-5d" transform="translate(373.242188 0)"/>
     </g>
    </g>
   </g>
   <g id="patch_3">
    <path d="M 46.965625 230.854979 
L 46.965625 9.094979 
" style="fill: none; stroke: #000000; stroke-width: 0.8; stroke-linejoin: miter; stroke-linecap: square"/>
   </g>
   <g id="patch_4">
    <path d="M 381.765625 230.854979 
L 381.765625 9.094979 
" style="fill: none; stroke: #000000; stroke-width: 0.8; stroke-linejoin: miter; stroke-linecap: square"/>
   </g>
   <g id="patch_5">
    <path d="M 46.965625 230.854979 
L 381.765625 230.854979 
" style="fill: none; stroke: #000000; stroke-width: 0.8; stroke-linejoin: miter; stroke-linecap: square"/>
   </g>
   <g id="patch_6">
    <path d="M 46.965625 9.094979 
L 381.765625 9.094979 
" style="fill: none; stroke: #000000; stroke-width: 0.8; stroke-linejoin: miter; stroke-linecap: square"/>
   </g>
   <g id="line2d_12">
    <path d="M 62.183807 220.774979 
L 71.314716 220.68825 
L 71.314716 220.182685 
L 74.358352 220.182685 
L 74.358352 219.569185 
L 77.401989 219.569185 
L 77.401989 218.039575 
L 80.445625 218.039575 
L 80.445625 215.194965 
L 83.489261 215.194965 
L 83.489261 212.162455 
L 86.532898 212.162455 
L 86.532898 207.417818 
L 89.576534 207.417818 
L 89.576534 200.513448 
L 92.62017 200.513448 
L 92.62017 191.235338 
L 95.663807 191.235338 
L 95.663807 181.064278 
L 98.707443 181.064278 
L 98.707443 169.417482 
L 101.75108 169.417482 
L 101.75108 153.650717 
L 104.794716 153.650717 
L 104.794716 138.712938 
L 107.838352 138.712938 
L 107.838352 121.773485 
L 110.881989 121.773485 
L 110.881989 105.793139 
L 113.925625 105.793139 
L 113.925625 90.926126 
L 116.969261 90.926126 
L 116.969261 75.118527 
L 120.012898 75.118527 
L 120.012898 61.712158 
L 123.056534 61.712158 
L 123.056534 53.795774 
L 126.10017 53.795774 
L 126.10017 43.060761 
L 129.143807 43.060761 
L 129.143807 37.507634 
L 132.187443 37.507634 
L 132.187443 31.560091 
L 135.23108 31.560091 
L 135.23108 28.320016 
L 138.274716 28.320016 
L 138.274716 22.13297 
L 141.318352 22.13297 
L 141.318352 25.47856 
L 144.361989 25.47856 
L 144.361989 20.855279 
L 147.405625 20.855279 
L 147.405625 25.62495 
L 150.449261 25.62495 
L 150.449261 24.997286 
L 153.492898 24.997286 
L 153.492898 27.713129 
L 156.536534 27.713129 
L 156.536534 31.690964 
L 159.58017 31.690964 
L 159.58017 36.968322 
L 162.623807 36.968322 
L 162.623807 43.32631 
L 165.667443 43.32631 
L 165.667443 52.680604 
L 168.71108 52.680604 
L 168.71108 63.71927 
L 171.754716 63.71927 
L 171.754716 76.397581 
L 174.798352 76.397581 
L 174.798352 91.630696 
L 177.841989 91.630696 
L 177.841989 107.934477 
L 180.885625 107.934477 
L 180.885625 124.02816 
L 183.929261 124.02816 
L 183.929261 139.627108 
L 186.972898 139.627108 
L 186.972898 152.576843 
L 190.016534 152.576843 
L 190.016534 167.538044 
L 193.06017 167.538044 
L 193.06017 176.826134 
L 196.103807 176.826134 
L 196.103807 185.980826 
L 199.147443 185.980826 
L 199.147443 193.259377 
L 202.19108 193.259377 
L 202.19108 197.740565 
L 205.234716 197.740565 
L 205.234716 199.504045 
L 208.278352 199.504045 
L 208.278352 201.501988 
L 211.321989 201.501988 
L 211.321989 200.481866 
L 214.365625 200.481866 
L 214.365625 201.085067 
L 217.409261 201.085067 
L 217.409261 199.163294 
L 220.452898 199.163294 
L 220.452898 200.415031 
L 223.496534 200.415031 
L 223.496534 199.500643 
L 226.54017 199.500643 
L 226.54017 198.976281 
L 229.583807 198.976281 
L 229.583807 198.581756 
L 232.627443 198.581756 
L 232.627443 200.765101 
L 235.67108 200.765101 
L 235.67108 199.069279 
L 238.714716 199.069279 
L 238.714716 198.918985 
L 241.758352 198.918985 
L 241.758352 199.473192 
L 244.801989 199.473192 
L 244.801989 198.382168 
L 247.845625 198.382168 
L 247.845625 199.179856 
L 250.889261 199.179856 
L 250.889261 198.902152 
L 253.932898 198.902152 
L 253.932898 199.941897 
L 256.976534 199.941897 
L 256.976534 200.156507 
L 263.063807 200.086827 
L 263.063807 201.948572 
L 266.107443 201.948572 
L 266.107443 203.428312 
L 269.15108 203.428312 
L 269.15108 204.562173 
L 272.194716 204.562173 
L 272.194716 207.472096 
L 275.238352 207.472096 
L 275.238352 209.458679 
L 278.281989 209.458679 
L 278.281989 211.669029 
L 281.325625 211.669029 
L 281.325625 212.963041 
L 284.369261 212.963041 
L 284.369261 215.230797 
L 287.412898 215.230797 
L 287.412898 216.589901 
L 290.456534 216.589901 
L 290.456534 218.279136 
L 293.50017 218.279136 
L 293.50017 218.997341 
L 296.543807 218.997341 
L 296.543807 219.666548 
L 299.587443 219.666548 
L 299.587443 220.037321 
L 302.63108 220.037321 
L 302.63108 220.326547 
L 308.718352 220.436367 
L 308.718352 220.468118 
L 314.805625 220.531099 
L 314.805625 220.601043 
L 320.892898 220.661287 
L 320.892898 220.718116 
L 366.547443 220.774979 
L 366.547443 220.774979 
" clip-path="url(#p1fce566cdd)" style="fill: none; stroke: #1f77b4; stroke-width: 1.5; stroke-linecap: square"/>
   </g>
   <g id="LineCollection_1">
    <path d="M 63.705625 220.774979 
L 63.705625 220.774979 
" clip-path="url(#p1fce566cdd)" style="fill: none; stroke: #1f77b4; stroke-width: 1.5"/>
    <path d="M 66.749261 220.758033 
L 66.749261 220.711382 
" clip-path="url(#p1fce566cdd)" style="fill: none; stroke: #1f77b4; stroke-width: 1.5"/>
    <path d="M 69.792898 220.723846 
L 69.792898 220.652655 
" clip-path="url(#p1fce566cdd)" style="fill: none; stroke: #1f77b4; stroke-width: 1.5"/>
    <path d="M 72.836534 220.277524 
L 72.836534 220.087847 
" clip-path="url(#p1fce566cdd)" style="fill: none; stroke: #1f77b4; stroke-width: 1.5"/>
    <path d="M 75.88017 219.705012 
L 75.88017 219.433359 
" clip-path="url(#p1fce566cdd)" style="fill: none; stroke: #1f77b4; stroke-width: 1.5"/>
    <path d="M 78.923807 218.242435 
L 78.923807 217.836714 
" clip-path="url(#p1fce566cdd)" style="fill: none; stroke: #1f77b4; stroke-width: 1.5"/>
    <path d="M 81.967443 215.486124 
L 81.967443 214.903806 
" clip-path="url(#p1fce566cdd)" style="fill: none; stroke: #1f77b4; stroke-width: 1.5"/>
    <path d="M 85.01108 212.521828 
L 85.01108 211.803081 
" clip-path="url(#p1fce566cdd)" style="fill: none; stroke: #1f77b4; stroke-width: 1.5"/>
    <path d="M 88.054716 207.867204 
L 88.054716 206.968433 
" clip-path="url(#p1fce566cdd)" style="fill: none; stroke: #1f77b4; stroke-width: 1.5"/>
    <path d="M 91.098352 201.071357 
L 91.098352 199.95554 
" clip-path="url(#p1fce566cdd)" style="fill: none; stroke: #1f77b4; stroke-width: 1.5"/>
    <path d="M 94.141989 191.907524 
L 94.141989 190.563153 
" clip-path="url(#p1fce566cdd)" style="fill: none; stroke: #1f77b4; stroke-width: 1.5"/>
    <path d="M 97.185625 181.841995 
L 97.185625 180.28656 
" clip-path="url(#p1fce566cdd)" style="fill: none; stroke: #1f77b4; stroke-width: 1.5"/>
    <path d="M 100.229261 170.298982 
L 100.229261 168.535982 
" clip-path="url(#p1fce566cdd)" style="fill: none; stroke: #1f77b4; stroke-width: 1.5"/>
    <path d="M 103.272898 154.657215 
L 103.272898 152.64422 
" clip-path="url(#p1fce566cdd)" style="fill: none; stroke: #1f77b4; stroke-width: 1.5"/>
    <path d="M 106.316534 139.825512 
L 106.316534 137.600364 
" clip-path="url(#p1fce566cdd)" style="fill: none; stroke: #1f77b4; stroke-width: 1.5"/>
    <path d="M 109.36017 122.992207 
L 109.36017 120.554762 
" clip-path="url(#p1fce566cdd)" style="fill: none; stroke: #1f77b4; stroke-width: 1.5"/>
    <path d="M 112.403807 107.10197 
L 112.403807 104.484308 
" clip-path="url(#p1fce566cdd)" style="fill: none; stroke: #1f77b4; stroke-width: 1.5"/>
    <path d="M 115.447443 92.314895 
L 115.447443 89.537357 
" clip-path="url(#p1fce566cdd)" style="fill: none; stroke: #1f77b4; stroke-width: 1.5"/>
    <path d="M 118.49108 76.585174 
L 118.49108 73.65188 
" clip-path="url(#p1fce566cdd)" style="fill: none; stroke: #1f77b4; stroke-width: 1.5"/>
    <path d="M 121.534716 63.237924 
L 121.534716 60.186391 
" clip-path="url(#p1fce566cdd)" style="fill: none; stroke: #1f77b4; stroke-width: 1.5"/>
    <path d="M 124.578352 55.357302 
L 124.578352 52.234246 
" clip-path="url(#p1fce566cdd)" style="fill: none; stroke: #1f77b4; stroke-width: 1.5"/>
    <path d="M 127.621989 44.664717 
L 127.621989 41.456806 
" clip-path="url(#p1fce566cdd)" style="fill: none; stroke: #1f77b4; stroke-width: 1.5"/>
    <path d="M 130.665625 39.131542 
L 130.665625 35.883727 
" clip-path="url(#p1fce566cdd)" style="fill: none; stroke: #1f77b4; stroke-width: 1.5"/>
    <path d="M 133.709261 33.204533 
L 133.709261 29.915649 
" clip-path="url(#p1fce566cdd)" style="fill: none; stroke: #1f77b4; stroke-width: 1.5"/>
    <path d="M 136.752898 29.974319 
L 136.752898 26.665712 
" clip-path="url(#p1fce566cdd)" style="fill: none; stroke: #1f77b4; stroke-width: 1.5"/>
    <path d="M 139.796534 23.809356 
L 139.796534 20.456583 
" clip-path="url(#p1fce566cdd)" style="fill: none; stroke: #1f77b4; stroke-width: 1.5"/>
    <path d="M 142.84017 27.141277 
L 142.84017 23.815842 
" clip-path="url(#p1fce566cdd)" style="fill: none; stroke: #1f77b4; stroke-width: 1.5"/>
    <path d="M 145.883807 22.535579 
L 145.883807 19.174979 
" clip-path="url(#p1fce566cdd)" style="fill: none; stroke: #1f77b4; stroke-width: 1.5"/>
    <path d="M 148.927443 27.283445 
L 148.927443 23.966455 
" clip-path="url(#p1fce566cdd)" style="fill: none; stroke: #1f77b4; stroke-width: 1.5"/>
    <path d="M 151.97108 26.657656 
L 151.97108 23.336916 
" clip-path="url(#p1fce566cdd)" style="fill: none; stroke: #1f77b4; stroke-width: 1.5"/>
    <path d="M 155.014716 29.359536 
L 155.014716 26.066722 
" clip-path="url(#p1fce566cdd)" style="fill: none; stroke: #1f77b4; stroke-width: 1.5"/>
    <path d="M 158.058352 33.317435 
L 158.058352 30.064493 
" clip-path="url(#p1fce566cdd)" style="fill: none; stroke: #1f77b4; stroke-width: 1.5"/>
    <path d="M 161.101989 38.569942 
L 161.101989 35.366703 
" clip-path="url(#p1fce566cdd)" style="fill: none; stroke: #1f77b4; stroke-width: 1.5"/>
    <path d="M 164.145625 44.898841 
L 164.145625 41.75378 
" clip-path="url(#p1fce566cdd)" style="fill: none; stroke: #1f77b4; stroke-width: 1.5"/>
    <path d="M 167.189261 54.2081 
L 167.189261 51.153108 
" clip-path="url(#p1fce566cdd)" style="fill: none; stroke: #1f77b4; stroke-width: 1.5"/>
    <path d="M 170.232898 65.186665 
L 170.232898 62.251875 
" clip-path="url(#p1fce566cdd)" style="fill: none; stroke: #1f77b4; stroke-width: 1.5"/>
    <path d="M 173.276534 77.799978 
L 173.276534 74.995184 
" clip-path="url(#p1fce566cdd)" style="fill: none; stroke: #1f77b4; stroke-width: 1.5"/>
    <path d="M 176.32017 92.948752 
L 176.32017 90.312639 
" clip-path="url(#p1fce566cdd)" style="fill: none; stroke: #1f77b4; stroke-width: 1.5"/>
    <path d="M 179.363807 109.157275 
L 179.363807 106.711679 
" clip-path="url(#p1fce566cdd)" style="fill: none; stroke: #1f77b4; stroke-width: 1.5"/>
    <path d="M 182.407443 125.149363 
L 182.407443 122.906958 
" clip-path="url(#p1fce566cdd)" style="fill: none; stroke: #1f77b4; stroke-width: 1.5"/>
    <path d="M 185.45108 140.639128 
L 185.45108 138.615087 
" clip-path="url(#p1fce566cdd)" style="fill: none; stroke: #1f77b4; stroke-width: 1.5"/>
    <path d="M 188.494716 153.500623 
L 188.494716 151.653063 
" clip-path="url(#p1fce566cdd)" style="fill: none; stroke: #1f77b4; stroke-width: 1.5"/>
    <path d="M 191.538352 168.338837 
L 191.538352 166.737252 
" clip-path="url(#p1fce566cdd)" style="fill: none; stroke: #1f77b4; stroke-width: 1.5"/>
    <path d="M 194.581989 177.548107 
L 194.581989 176.104161 
" clip-path="url(#p1fce566cdd)" style="fill: none; stroke: #1f77b4; stroke-width: 1.5"/>
    <path d="M 197.625625 186.614229 
L 197.625625 185.347423 
" clip-path="url(#p1fce566cdd)" style="fill: none; stroke: #1f77b4; stroke-width: 1.5"/>
    <path d="M 200.669261 193.825483 
L 200.669261 192.69327 
" clip-path="url(#p1fce566cdd)" style="fill: none; stroke: #1f77b4; stroke-width: 1.5"/>
    <path d="M 203.712898 198.262765 
L 203.712898 197.218364 
" clip-path="url(#p1fce566cdd)" style="fill: none; stroke: #1f77b4; stroke-width: 1.5"/>
    <path d="M 206.756534 200.01756 
L 206.756534 198.990531 
" clip-path="url(#p1fce566cdd)" style="fill: none; stroke: #1f77b4; stroke-width: 1.5"/>
    <path d="M 209.80017 202.000586 
L 209.80017 201.003389 
" clip-path="url(#p1fce566cdd)" style="fill: none; stroke: #1f77b4; stroke-width: 1.5"/>
    <path d="M 212.843807 201.004752 
L 212.843807 199.95898 
" clip-path="url(#p1fce566cdd)" style="fill: none; stroke: #1f77b4; stroke-width: 1.5"/>
    <path d="M 215.887443 201.604868 
L 215.887443 200.565266 
" clip-path="url(#p1fce566cdd)" style="fill: none; stroke: #1f77b4; stroke-width: 1.5"/>
    <path d="M 218.93108 199.711072 
L 218.93108 198.615516 
" clip-path="url(#p1fce566cdd)" style="fill: none; stroke: #1f77b4; stroke-width: 1.5"/>
    <path d="M 221.974716 200.944564 
L 221.974716 199.885498 
" clip-path="url(#p1fce566cdd)" style="fill: none; stroke: #1f77b4; stroke-width: 1.5"/>
    <path d="M 225.018352 200.045748 
L 225.018352 198.955537 
" clip-path="url(#p1fce566cdd)" style="fill: none; stroke: #1f77b4; stroke-width: 1.5"/>
    <path d="M 228.061989 199.529442 
L 228.061989 198.423121 
" clip-path="url(#p1fce566cdd)" style="fill: none; stroke: #1f77b4; stroke-width: 1.5"/>
    <path d="M 231.105625 199.138392 
L 231.105625 198.02512 
" clip-path="url(#p1fce566cdd)" style="fill: none; stroke: #1f77b4; stroke-width: 1.5"/>
    <path d="M 234.149261 201.291284 
L 234.149261 200.238919 
" clip-path="url(#p1fce566cdd)" style="fill: none; stroke: #1f77b4; stroke-width: 1.5"/>
    <path d="M 237.192898 199.620653 
L 237.192898 198.517906 
" clip-path="url(#p1fce566cdd)" style="fill: none; stroke: #1f77b4; stroke-width: 1.5"/>
    <path d="M 240.236534 199.473484 
L 240.236534 198.364486 
" clip-path="url(#p1fce566cdd)" style="fill: none; stroke: #1f77b4; stroke-width: 1.5"/>
    <path d="M 243.28017 200.019293 
L 243.28017 198.927091 
" clip-path="url(#p1fce566cdd)" style="fill: none; stroke: #1f77b4; stroke-width: 1.5"/>
    <path d="M 246.323807 198.943286 
L 246.323807 197.821051 
" clip-path="url(#p1fce566cdd)" style="fill: none; stroke: #1f77b4; stroke-width: 1.5"/>
    <path d="M 249.367443 199.730246 
L 249.367443 198.629465 
" clip-path="url(#p1fce566cdd)" style="fill: none; stroke: #1f77b4; stroke-width: 1.5"/>
    <path d="M 252.41108 199.453814 
L 252.41108 198.35049 
" clip-path="url(#p1fce566cdd)" style="fill: none; stroke: #1f77b4; stroke-width: 1.5"/>
    <path d="M 255.454716 200.482281 
L 255.454716 199.401514 
" clip-path="url(#p1fce566cdd)" style="fill: none; stroke: #1f77b4; stroke-width: 1.5"/>
    <path d="M 258.498352 200.691113 
L 258.498352 199.621901 
" clip-path="url(#p1fce566cdd)" style="fill: none; stroke: #1f77b4; stroke-width: 1.5"/>
    <path d="M 261.541989 200.62076 
L 261.541989 199.552893 
" clip-path="url(#p1fce566cdd)" style="fill: none; stroke: #1f77b4; stroke-width: 1.5"/>
    <path d="M 264.585625 202.458205 
L 264.585625 201.438938 
" clip-path="url(#p1fce566cdd)" style="fill: none; stroke: #1f77b4; stroke-width: 1.5"/>
    <path d="M 267.629261 203.914375 
L 267.629261 202.942248 
" clip-path="url(#p1fce566cdd)" style="fill: none; stroke: #1f77b4; stroke-width: 1.5"/>
    <path d="M 270.672898 205.030903 
L 270.672898 204.093443 
" clip-path="url(#p1fce566cdd)" style="fill: none; stroke: #1f77b4; stroke-width: 1.5"/>
    <path d="M 273.716534 207.888799 
L 273.716534 207.055394 
" clip-path="url(#p1fce566cdd)" style="fill: none; stroke: #1f77b4; stroke-width: 1.5"/>
    <path d="M 276.76017 209.83855 
L 276.76017 209.078809 
" clip-path="url(#p1fce566cdd)" style="fill: none; stroke: #1f77b4; stroke-width: 1.5"/>
    <path d="M 279.803807 212.006891 
L 279.803807 211.331166 
" clip-path="url(#p1fce566cdd)" style="fill: none; stroke: #1f77b4; stroke-width: 1.5"/>
    <path d="M 282.847443 213.267706 
L 282.847443 212.658375 
" clip-path="url(#p1fce566cdd)" style="fill: none; stroke: #1f77b4; stroke-width: 1.5"/>
    <path d="M 285.89108 215.478576 
L 285.89108 214.983018 
" clip-path="url(#p1fce566cdd)" style="fill: none; stroke: #1f77b4; stroke-width: 1.5"/>
    <path d="M 288.934716 216.799862 
L 288.934716 216.37994 
" clip-path="url(#p1fce566cdd)" style="fill: none; stroke: #1f77b4; stroke-width: 1.5"/>
    <path d="M 291.978352 218.435452 
L 291.978352 218.122819 
" clip-path="url(#p1fce566cdd)" style="fill: none; stroke: #1f77b4; stroke-width: 1.5"/>
    <path d="M 295.021989 219.12296 
L 295.021989 218.871723 
" clip-path="url(#p1fce566cdd)" style="fill: none; stroke: #1f77b4; stroke-width: 1.5"/>
    <path d="M 298.065625 219.763959 
L 298.065625 219.569136 
" clip-path="url(#p1fce566cdd)" style="fill: none; stroke: #1f77b4; stroke-width: 1.5"/>
    <path d="M 301.109261 220.113306 
L 301.109261 219.961336 
" clip-path="url(#p1fce566cdd)" style="fill: none; stroke: #1f77b4; stroke-width: 1.5"/>
    <path d="M 304.152898 220.383486 
L 304.152898 220.269609 
" clip-path="url(#p1fce566cdd)" style="fill: none; stroke: #1f77b4; stroke-width: 1.5"/>
    <path d="M 307.196534 220.486602 
L 307.196534 220.386131 
" clip-path="url(#p1fce566cdd)" style="fill: none; stroke: #1f77b4; stroke-width: 1.5"/>
    <path d="M 310.24017 220.515811 
L 310.24017 220.420425 
" clip-path="url(#p1fce566cdd)" style="fill: none; stroke: #1f77b4; stroke-width: 1.5"/>
    <path d="M 313.283807 220.573858 
L 313.283807 220.48834 
" clip-path="url(#p1fce566cdd)" style="fill: none; stroke: #1f77b4; stroke-width: 1.5"/>
    <path d="M 316.327443 220.635375 
L 316.327443 220.56671 
" clip-path="url(#p1fce566cdd)" style="fill: none; stroke: #1f77b4; stroke-width: 1.5"/>
    <path d="M 319.37108 220.689476 
L 319.37108 220.633098 
" clip-path="url(#p1fce566cdd)" style="fill: none; stroke: #1f77b4; stroke-width: 1.5"/>
    <path d="M 322.414716 220.737895 
L 322.414716 220.698336 
" clip-path="url(#p1fce566cdd)" style="fill: none; stroke: #1f77b4; stroke-width: 1.5"/>
    <path d="M 325.458352 220.758677 
L 325.458352 220.731252 
" clip-path="url(#p1fce566cdd)" style="fill: none; stroke: #1f77b4; stroke-width: 1.5"/>
    <path d="M 328.501989 220.774979 
L 328.501989 220.758558 
" clip-path="url(#p1fce566cdd)" style="fill: none; stroke: #1f77b4; stroke-width: 1.5"/>
    <path d="M 331.545625 220.774979 
L 331.545625 220.774971 
" clip-path="url(#p1fce566cdd)" style="fill: none; stroke: #1f77b4; stroke-width: 1.5"/>
    <path d="M 334.589261 220.774976 
L 334.589261 220.759084 
" clip-path="url(#p1fce566cdd)" style="fill: none; stroke: #1f77b4; stroke-width: 1.5"/>
    <path d="M 337.632898 220.774979 
L 337.632898 220.774979 
" clip-path="url(#p1fce566cdd)" style="fill: none; stroke: #1f77b4; stroke-width: 1.5"/>
    <path d="M 340.676534 220.774979 
L 340.676534 220.774973 
" clip-path="url(#p1fce566cdd)" style="fill: none; stroke: #1f77b4; stroke-width: 1.5"/>
    <path d="M 343.72017 220.774979 
L 343.72017 220.774979 
" clip-path="url(#p1fce566cdd)" style="fill: none; stroke: #1f77b4; stroke-width: 1.5"/>
    <path d="M 346.763807 220.774979 
L 346.763807 220.774979 
" clip-path="url(#p1fce566cdd)" style="fill: none; stroke: #1f77b4; stroke-width: 1.5"/>
    <path d="M 349.807443 220.774979 
L 349.807443 220.774979 
" clip-path="url(#p1fce566cdd)" style="fill: none; stroke: #1f77b4; stroke-width: 1.5"/>
    <path d="M 352.85108 220.774979 
L 352.85108 220.774979 
" clip-path="url(#p1fce566cdd)" style="fill: none; stroke: #1f77b4; stroke-width: 1.5"/>
    <path d="M 355.894716 220.774979 
L 355.894716 220.774979 
" clip-path="url(#p1fce566cdd)" style="fill: none; stroke: #1f77b4; stroke-width: 1.5"/>
    <path d="M 358.938352 220.774979 
L 358.938352 220.774979 
" clip-path="url(#p1fce566cdd)" style="fill: none; stroke: #1f77b4; stroke-width: 1.5"/>
    <path d="M 361.981989 220.774979 
L 361.981989 220.774979 
" clip-path="url(#p1fce566cdd)" style="fill: none; stroke: #1f77b4; stroke-width: 1.5"/>
    <path d="M 365.025625 220.774979 
L 365.025625 220.774979 
" clip-path="url(#p1fce566cdd)" style="fill: none; stroke: #1f77b4; stroke-width: 1.5"/>
   </g>
  </g>
 </g>
 <defs>
  <clipPath id="p1fce566cdd">
   <rect x="46.965625" y="9.094979" width="334.8" height="221.76"/>
  </clipPath>
 </defs>
</svg>