<?xml version="1.0" encoding="utf-8" standalone="no"?>
<!DOCTYPE svg PUBLIC "-//W3C//DTD SVG 1.1//EN"
  "http://www.w3.org/Graphics/SVG/1.1/DTD/svg11.dtd">
<svg xmlns:xlink="http://www.w3.org/1999/xlink" width="423.74044pt" height="280.132187pt" viewBox="0 0 423.74044 280.132187" xmlns="http://www.w3.org/2000/svg" version="1.1">
 <metadata>
  <rdf:RDF xmlns:dc="http://purl.org/dc/elements/1.1/" xmlns:cc="http://creativecommons.org/ns#" xmlns:rdf="http://www.w3.org/1999/02/22-rdf-syntax-ns#">
   <cc:Work>
    <dc:type rdf:resource="http://purl.org/dc/dcmitype/StillImage"/>
    <dc:date>2024-09-10T09:04:24.726389</dc:date>
    <dc:format>image/svg+xml</dc:format>
    <dc:creator>
     <cc:Agent>
      <dc:title>Matplotlib v3.9.2, https://matplotlib.org/</dc:title>
     </cc:Agent>
    </dc:creator>
   </cc:Work>
  </rdf:RDF>
 </metadata>
 <defs>
  <style type="text/css">*{stroke-linejoin: round; stroke-linecap: butt}</style>
 </defs>
 <g id="figure_1">
  <g id="patch_1">
   <path d="M 0 280.132187 
L 423.74044 280.132187 
L 423.74044 0 
L 0 0 
z
" style="fill: #ffffff"/>
  </g>
  <g id="axes_1">
   <g id="patch_2">
    <path d="M 45.478125 241.6525 
L 416.54044 241.6525 
L 416.54044 7.2 
L 45.478125 7.2 
z
" style="fill: #ffffff"/>
   </g>
   <g id="matplotlib.axis_1">
    <g id="xtick_1">
     <g id="line2d_1">
      <defs>
       <path id="mefc0565323" d="M 0 0 
L 0 3.5 
" style="stroke: #000000; stroke-width: 0.8"/>
      </defs>
      <g>
       <use xlink:href="#mefc0565323" x="53.695123" y="241.6525" style="stroke: #000000; stroke-width: 0.8"/>
      </g>
     </g>
     <g id="text_1">
      <!-- 0.000 -->
      <g transform="translate(39.38106 256.250937) scale(0.1 -0.1)">
       <defs>
        <path id="DejaVuSans-30" d="M 2034 4250 
Q 1547 4250 1301 3770 
Q 1056 3291 1056 2328 
Q 1056 1369 1301 889 
Q 1547 409 2034 409 
Q 2525 409 2770 889 
Q 3016 1369 3016 2328 
Q 3016 3291 2770 3770 
Q 2525 4250 2034 4250 
z
M 2034 4750 
Q 2819 4750 3233 4129 
Q 3647 3509 3647 2328 
Q 3647 1150 3233 529 
Q 2819 -91 2034 -91 
Q 1250 -91 836 529 
Q 422 1150 422 2328 
Q 422 3509 836 4129 
Q 1250 4750 2034 4750 
z
" transform="scale(0.015625)"/>
        <path id="DejaVuSans-2e" d="M 684 794 
L 1344 794 
L 1344 0 
L 684 0 
L 684 794 
z
" transform="scale(0.015625)"/>
       </defs>
       <use xlink:href="#DejaVuSans-30"/>
       <use xlink:href="#DejaVuSans-2e" x="63.623047"/>
       <use xlink:href="#DejaVuSans-30" x="95.410156"/>
       <use xlink:href="#DejaVuSans-30" x="159.033203"/>
       <use xlink:href="#DejaVuSans-30" x="222.65625"/>
      </g>
     </g>
    </g>
    <g id="xtick_2">
     <g id="line2d_2">
      <g>
       <use xlink:href="#mefc0565323" x="96.942479" y="241.6525" style="stroke: #000000; stroke-width: 0.8"/>
      </g>
     </g>
     <g id="text_2">
      <!-- 0.025 -->
      <g transform="translate(82.628416 256.250937) scale(0.1 -0.1)">
       <defs>
        <path id="DejaVuSans-32" d="M 1228 531 
L 3431 531 
L 3431 0 
L 469 0 
L 469 531 
Q 828 903 1448 1529 
Q 2069 2156 2228 2338 
Q 2531 2678 2651 2914 
Q 2772 3150 2772 3378 
Q 2772 3750 2511 3984 
Q 2250 4219 1831 4219 
Q 1534 4219 1204 4116 
Q 875 4013 500 3803 
L 500 4441 
Q 881 4594 1212 4672 
Q 1544 4750 1819 4750 
Q 2544 4750 2975 4387 
Q 3406 4025 3406 3419 
Q 3406 3131 3298 2873 
Q 3191 2616 2906 2266 
Q 2828 2175 2409 1742 
Q 1991 1309 1228 531 
z
" transform="scale(0.015625)"/>
        <path id="DejaVuSans-35" d="M 691 4666 
L 3169 4666 
L 3169 4134 
L 1269 4134 
L 1269 2991 
Q 1406 3038 1543 3061 
Q 1681 3084 1819 3084 
Q 2600 3084 3056 2656 
Q 3513 2228 3513 1497 
Q 3513 744 3044 326 
Q 2575 -91 1722 -91 
Q 1428 -91 1123 -41 
Q 819 9 494 109 
L 494 744 
Q 775 591 1075 516 
Q 1375 441 1709 441 
Q 2250 441 2565 725 
Q 2881 1009 2881 1497 
Q 2881 1984 2565 2268 
Q 2250 2553 1709 2553 
Q 1456 2553 1204 2497 
Q 953 2441 691 2322 
L 691 4666 
z
" transform="scale(0.015625)"/>
       </defs>
       <use xlink:href="#DejaVuSans-30"/>
       <use xlink:href="#DejaVuSans-2e" x="63.623047"/>
       <use xlink:href="#DejaVuSans-30" x="95.410156"/>
       <use xlink:href="#DejaVuSans-32" x="159.033203"/>
       <use xlink:href="#DejaVuSans-35" x="222.65625"/>
      </g>
     </g>
    </g>
    <g id="xtick_3">
     <g id="line2d_3">
      <g>
       <use xlink:href="#mefc0565323" x="140.189835" y="241.6525" style="stroke: #000000; stroke-width: 0.8"/>
      </g>
     </g>
     <g id="text_3">
      <!-- 0.050 -->
      <g transform="translate(125.875772 256.250937) scale(0.1 -0.1)">
       <use xlink:href="#DejaVuSans-30"/>
       <use xlink:href="#DejaVuSans-2e" x="63.623047"/>
       <use xlink:href="#DejaVuSans-30" x="95.410156"/>
       <use xlink:href="#DejaVuSans-35" x="159.033203"/>
       <use xlink:href="#DejaVuSans-30" x="222.65625"/>
      </g>
     </g>
    </g>
    <g id="xtick_4">
     <g id="line2d_4">
      <g>
       <use xlink:href="#mefc0565323" x="183.437191" y="241.6525" style="stroke: #000000; stroke-width: 0.8"/>
      </g>
     </g>
     <g id="text_4">
      <!-- 0.075 -->
      <g transform="translate(169.123128 256.250937) scale(0.1 -0.1)">
       <defs>
        <path id="DejaVuSans-37" d="M 525 4666 
L 3525 4666 
L 3525 4397 
L 1831 0 
L 1172 0 
L 2766 4134 
L 525 4134 
L 525 4666 
z
" transform="scale(0.015625)"/>
       </defs>
       <use xlink:href="#DejaVuSans-30"/>
       <use xlink:href="#DejaVuSans-2e" x="63.623047"/>
       <use xlink:href="#DejaVuSans-30" x="95.410156"/>
       <use xlink:href="#DejaVuSans-37" x="159.033203"/>
       <use xlink:href="#DejaVuSans-35" x="222.65625"/>
      </g>
     </g>
    </g>
    <g id="xtick_5">
     <g id="line2d_5">
      <g>
       <use xlink:href="#mefc0565323" x="226.684547" y="241.6525" style="stroke: #000000; stroke-width: 0.8"/>
      </g>
     </g>
     <g id="text_5">
      <!-- 0.100 -->
      <g transform="translate(212.370485 256.250937) scale(0.1 -0.1)">
       <defs>
        <path id="DejaVuSans-31" d="M 794 531 
L 1825 531 
L 1825 4091 
L 703 3866 
L 703 4441 
L 1819 4666 
L 2450 4666 
L 2450 531 
L 3481 531 
L 3481 0 
L 794 0 
L 794 531 
z
" transform="scale(0.015625)"/>
       </defs>
       <use xlink:href="#DejaVuSans-30"/>
       <use xlink:href="#DejaVuSans-2e" x="63.623047"/>
       <use xlink:href="#DejaVuSans-31" x="95.410156"/>
       <use xlink:href="#DejaVuSans-30" x="159.033203"/>
       <use xlink:href="#DejaVuSans-30" x="222.65625"/>
      </g>
     </g>
    </g>
    <g id="xtick_6">
     <g id="line2d_6">
      <g>
       <use xlink:href="#mefc0565323" x="269.931903" y="241.6525" style="stroke: #000000; stroke-width: 0.8"/>
      </g>
     </g>
     <g id="text_6">
      <!-- 0.125 -->
      <g transform="translate(255.617841 256.250937) scale(0.1 -0.1)">
       <use xlink:href="#DejaVuSans-30"/>
       <use xlink:href="#DejaVuSans-2e" x="63.623047"/>
       <use xlink:href="#DejaVuSans-31" x="95.410156"/>
       <use xlink:href="#DejaVuSans-32" x="159.033203"/>
       <use xlink:href="#DejaVuSans-35" x="222.65625"/>
      </g>
     </g>
    </g>
    <g id="xtick_7">
     <g id="line2d_7">
      <g>
       <use xlink:href="#mefc0565323" x="313.179259" y="241.6525" style="stroke: #000000; stroke-width: 0.8"/>
      </g>
     </g>
     <g id="text_7">
      <!-- 0.150 -->
      <g transform="translate(298.865197 256.250937) scale(0.1 -0.1)">
       <use xlink:href="#DejaVuSans-30"/>
       <use xlink:href="#DejaVuSans-2e" x="63.623047"/>
       <use xlink:href="#DejaVuSans-31" x="95.410156"/>
       <use xlink:href="#DejaVuSans-35" x="159.033203"/>
       <use xlink:href="#DejaVuSans-30" x="222.65625"/>
      </g>
     </g>
    </g>
    <g id="xtick_8">
     <g id="line2d_8">
      <g>
       <use xlink:href="#mefc0565323" x="356.426615" y="241.6525" style="stroke: #000000; stroke-width: 0.8"/>
      </g>
     </g>
     <g id="text_8">
      <!-- 0.175 -->
      <g transform="translate(342.112553 256.250937) scale(0.1 -0.1)">
       <use xlink:href="#DejaVuSans-30"/>
       <use xlink:href="#DejaVuSans-2e" x="63.623047"/>
       <use xlink:href="#DejaVuSans-31" x="95.410156"/>
       <use xlink:href="#DejaVuSans-37" x="159.033203"/>
       <use xlink:href="#DejaVuSans-35" x="222.65625"/>
      </g>
     </g>
    </g>
    <g id="xtick_9">
     <g id="line2d_9">
      <g>
       <use xlink:href="#mefc0565323" x="399.673971" y="241.6525" style="stroke: #000000; stroke-width: 0.8"/>
      </g>
     </g>
     <g id="text_9">
      <!-- 0.200 -->
      <g transform="translate(385.359909 256.250937) scale(0.1 -0.1)">
       <use xlink:href="#DejaVuSans-30"/>
       <use xlink:href="#DejaVuSans-2e" x="63.623047"/>
       <use xlink:href="#DejaVuSans-32" x="95.410156"/>
       <use xlink:href="#DejaVuSans-30" x="159.033203"/>
       <use xlink:href="#DejaVuSans-30" x="222.65625"/>
      </g>
     </g>
    </g>
    <g id="text_10">
     <!-- Q [1/Å] -->
     <g transform="translate(213.296783 270.8525) scale(0.1 -0.1)">
      <defs>
       <path id="DejaVuSans-51" d="M 2522 4238 
Q 1834 4238 1429 3725 
Q 1025 3213 1025 2328 
Q 1025 1447 1429 934 
Q 1834 422 2522 422 
Q 3209 422 3611 934 
Q 4013 1447 4013 2328 
Q 4013 3213 3611 3725 
Q 3209 4238 2522 4238 
z
M 3406 84 
L 4238 -825 
L 3475 -825 
L 2784 -78 
Q 2681 -84 2626 -87 
Q 2572 -91 2522 -91 
Q 1538 -91 948 567 
Q 359 1225 359 2328 
Q 359 3434 948 4092 
Q 1538 4750 2522 4750 
Q 3503 4750 4090 4092 
Q 4678 3434 4678 2328 
Q 4678 1516 4351 937 
Q 4025 359 3406 84 
z
" transform="scale(0.015625)"/>
       <path id="DejaVuSans-20" transform="scale(0.015625)"/>
       <path id="DejaVuSans-5b" d="M 550 4863 
L 1875 4863 
L 1875 4416 
L 1125 4416 
L 1125 -397 
L 1875 -397 
L 1875 -844 
L 550 -844 
L 550 4863 
z
" transform="scale(0.015625)"/>
       <path id="DejaVuSans-2f" d="M 1625 4666 
L 2156 4666 
L 531 -594 
L 0 -594 
L 1625 4666 
z
" transform="scale(0.015625)"/>
       <path id="DejaVuSans-c5" d="M 2663 5081 
Q 2663 5278 2523 5417 
Q 2384 5556 2188 5556 
Q 1988 5556 1852 5420 
Q 1716 5284 1716 5081 
Q 1716 4884 1853 4746 
Q 1991 4609 2188 4609 
Q 2384 4609 2523 4746 
Q 2663 4884 2663 5081 
z
M 2188 4044 
L 1338 1722 
L 3041 1722 
L 2188 4044 
z
M 1716 4366 
Q 1525 4494 1428 4673 
Q 1331 4853 1331 5081 
Q 1331 5441 1579 5691 
Q 1828 5941 2188 5941 
Q 2544 5941 2795 5689 
Q 3047 5438 3047 5081 
Q 3047 4863 2948 4678 
Q 2850 4494 2663 4366 
L 4325 0 
L 3669 0 
L 3244 1197 
L 1141 1197 
L 716 0 
L 50 0 
L 1716 4366 
z
" transform="scale(0.015625)"/>
       <path id="DejaVuSans-5d" d="M 1947 4863 
L 1947 -844 
L 622 -844 
L 622 -397 
L 1369 -397 
L 1369 4416 
L 622 4416 
L 622 4863 
L 1947 4863 
z
" transform="scale(0.015625)"/>
      </defs>
      <use xlink:href="#DejaVuSans-51"/>
      <use xlink:href="#DejaVuSans-20" x="78.710938"/>
      <use xlink:href="#DejaVuSans-5b" x="110.498047"/>
      <use xlink:href="#DejaVuSans-31" x="149.511719"/>
      <use xlink:href="#DejaVuSans-2f" x="213.134766"/>
      <use xlink:href="#DejaVuSans-c5" x="246.826172"/>
      <use xlink:href="#DejaVuSans-5d" x="315.234375"/>
     </g>
    </g>
   </g>
   <g id="matplotlib.axis_2">
    <g id="ytick_1">
     <g id="line2d_10">
      <defs>
       <path id="m8978302ce0" d="M 0 0 
L -3.5 0 
" style="stroke: #000000; stroke-width: 0.8"/>
      </defs>
      <g>
       <use xlink:href="#m8978302ce0" x="45.478125" y="241.6525" style="stroke: #000000; stroke-width: 0.8"/>
      </g>
     </g>
     <g id="text_11">
      <!-- $\mathdefault{10^{0}}$ -->
      <g transform="translate(20.878125 245.451719) scale(0.1 -0.1)">
       <use xlink:href="#DejaVuSans-31" transform="translate(0 0.765625)"/>
       <use xlink:href="#DejaVuSans-30" transform="translate(63.623047 0.765625)"/>
       <use xlink:href="#DejaVuSans-30" transform="translate(128.203125 39.046875) scale(0.7)"/>
      </g>
     </g>
    </g>
    <g id="ytick_2">
     <g id="line2d_11">
      <g>
       <use xlink:href="#m8978302ce0" x="45.478125" y="190.304542" style="stroke: #000000; stroke-width: 0.8"/>
      </g>
     </g>
     <g id="text_12">
      <!-- $\mathdefault{10^{1}}$ -->
      <g transform="translate(20.878125 194.103761) scale(0.1 -0.1)">
       <use xlink:href="#DejaVuSans-31" transform="translate(0 0.684375)"/>
       <use xlink:href="#DejaVuSans-30" transform="translate(63.623047 0.684375)"/>
       <use xlink:href="#DejaVuSans-31" transform="translate(128.203125 38.965625) scale(0.7)"/>
      </g>
     </g>
    </g>
    <g id="ytick_3">
     <g id="line2d_12">
      <g>
       <use xlink:href="#m8978302ce0" x="45.478125" y="138.956584" style="stroke: #000000; stroke-width: 0.8"/>
      </g>
     </g>
     <g id="text_13">
      <!-- $\mathdefault{10^{2}}$ -->
      <g transform="translate(20.878125 142.755803) scale(0.1 -0.1)">
       <use xlink:href="#DejaVuSans-31" transform="translate(0 0.765625)"/>
       <use xlink:href="#DejaVuSans-30" transform="translate(63.623047 0.765625)"/>
       <use xlink:href="#DejaVuSans-32" transform="translate(128.203125 39.046875) scale(0.7)"/>
      </g>
     </g>
    </g>
    <g id="ytick_4">
     <g id="line2d_13">
      <g>
       <use xlink:href="#m8978302ce0" x="45.478125" y="87.608626" style="stroke: #000000; stroke-width: 0.8"/>
      </g>
     </g>
     <g id="text_14">
      <!-- $\mathdefault{10^{3}}$ -->
      <g transform="translate(20.878125 91.407845) scale(0.1 -0.1)">
       <defs>
        <path id="DejaVuSans-33" d="M 2597 2516 
Q 3050 2419 3304 2112 
Q 3559 1806 3559 1356 
Q 3559 666 3084 287 
Q 2609 -91 1734 -91 
Q 1441 -91 1130 -33 
Q 819 25 488 141 
L 488 750 
Q 750 597 1062 519 
Q 1375 441 1716 441 
Q 2309 441 2620 675 
Q 2931 909 2931 1356 
Q 2931 1769 2642 2001 
Q 2353 2234 1838 2234 
L 1294 2234 
L 1294 2753 
L 1863 2753 
Q 2328 2753 2575 2939 
Q 2822 3125 2822 3475 
Q 2822 3834 2567 4026 
Q 2313 4219 1838 4219 
Q 1578 4219 1281 4162 
Q 984 4106 628 3988 
L 628 4550 
Q 988 4650 1302 4700 
Q 1616 4750 1894 4750 
Q 2613 4750 3031 4423 
Q 3450 4097 3450 3541 
Q 3450 3153 3228 2886 
Q 3006 2619 2597 2516 
z
" transform="scale(0.015625)"/>
       </defs>
       <use xlink:href="#DejaVuSans-31" transform="translate(0 0.765625)"/>
       <use xlink:href="#DejaVuSans-30" transform="translate(63.623047 0.765625)"/>
       <use xlink:href="#DejaVuSans-33" transform="translate(128.203125 39.046875) scale(0.7)"/>
      </g>
     </g>
    </g>
    <g id="ytick_5">
     <g id="line2d_14">
      <g>
       <use xlink:href="#m8978302ce0" x="45.478125" y="36.260669" style="stroke: #000000; stroke-width: 0.8"/>
      </g>
     </g>
     <g id="text_15">
      <!-- $\mathdefault{10^{4}}$ -->
      <g transform="translate(20.878125 40.059887) scale(0.1 -0.1)">
       <defs>
        <path id="DejaVuSans-34" d="M 2419 4116 
L 825 1625 
L 2419 1625 
L 2419 4116 
z
M 2253 4666 
L 3047 4666 
L 3047 1625 
L 3713 1625 
L 3713 1100 
L 3047 1100 
L 3047 0 
L 2419 0 
L 2419 1100 
L 313 1100 
L 313 1709 
L 2253 4666 
z
" transform="scale(0.015625)"/>
       </defs>
       <use xlink:href="#DejaVuSans-31" transform="translate(0 0.684375)"/>
       <use xlink:href="#DejaVuSans-30" transform="translate(63.623047 0.684375)"/>
       <use xlink:href="#DejaVuSans-34" transform="translate(128.203125 38.965625) scale(0.7)"/>
      </g>
     </g>
    </g>
    <g id="ytick_6">
     <g id="line2d_15">
      <defs>
       <path id="m869e508cd4" d="M 0 0 
L -2 0 
" style="stroke: #000000; stroke-width: 0.6"/>
      </defs>
      <g>
       <use xlink:href="#m869e508cd4" x="45.478125" y="226.195224" style="stroke: #000000; stroke-width: 0.6"/>
      </g>
     </g>
    </g>
    <g id="ytick_7">
     <g id="line2d_16">
      <g>
       <use xlink:href="#m869e508cd4" x="45.478125" y="217.153298" style="stroke: #000000; stroke-width: 0.6"/>
      </g>
     </g>
    </g>
    <g id="ytick_8">
     <g id="line2d_17">
      <g>
       <use xlink:href="#m869e508cd4" x="45.478125" y="210.737949" style="stroke: #000000; stroke-width: 0.6"/>
      </g>
     </g>
    </g>
    <g id="ytick_9">
     <g id="line2d_18">
      <g>
       <use xlink:href="#m869e508cd4" x="45.478125" y="205.761818" style="stroke: #000000; stroke-width: 0.6"/>
      </g>
     </g>
    </g>
    <g id="ytick_10">
     <g id="line2d_19">
      <g>
       <use xlink:href="#m869e508cd4" x="45.478125" y="201.696022" style="stroke: #000000; stroke-width: 0.6"/>
      </g>
     </g>
    </g>
    <g id="ytick_11">
     <g id="line2d_20">
      <g>
       <use xlink:href="#m869e508cd4" x="45.478125" y="198.258441" style="stroke: #000000; stroke-width: 0.6"/>
      </g>
     </g>
    </g>
    <g id="ytick_12">
     <g id="line2d_21">
      <g>
       <use xlink:href="#m869e508cd4" x="45.478125" y="195.280673" style="stroke: #000000; stroke-width: 0.6"/>
      </g>
     </g>
    </g>
    <g id="ytick_13">
     <g id="line2d_22">
      <g>
       <use xlink:href="#m869e508cd4" x="45.478125" y="192.654096" style="stroke: #000000; stroke-width: 0.6"/>
      </g>
     </g>
    </g>
    <g id="ytick_14">
     <g id="line2d_23">
      <g>
       <use xlink:href="#m869e508cd4" x="45.478125" y="174.847267" style="stroke: #000000; stroke-width: 0.6"/>
      </g>
     </g>
    </g>
    <g id="ytick_15">
     <g id="line2d_24">
      <g>
       <use xlink:href="#m869e508cd4" x="45.478125" y="165.80534" style="stroke: #000000; stroke-width: 0.6"/>
      </g>
     </g>
    </g>
    <g id="ytick_16">
     <g id="line2d_25">
      <g>
       <use xlink:href="#m869e508cd4" x="45.478125" y="159.389991" style="stroke: #000000; stroke-width: 0.6"/>
      </g>
     </g>
    </g>
    <g id="ytick_17">
     <g id="line2d_26">
      <g>
       <use xlink:href="#m869e508cd4" x="45.478125" y="154.41386" style="stroke: #000000; stroke-width: 0.6"/>
      </g>
     </g>
    </g>
    <g id="ytick_18">
     <g id="line2d_27">
      <g>
       <use xlink:href="#m869e508cd4" x="45.478125" y="150.348065" style="stroke: #000000; stroke-width: 0.6"/>
      </g>
     </g>
    </g>
    <g id="ytick_19">
     <g id="line2d_28">
      <g>
       <use xlink:href="#m869e508cd4" x="45.478125" y="146.910484" style="stroke: #000000; stroke-width: 0.6"/>
      </g>
     </g>
    </g>
    <g id="ytick_20">
     <g id="line2d_29">
      <g>
       <use xlink:href="#m869e508cd4" x="45.478125" y="143.932716" style="stroke: #000000; stroke-width: 0.6"/>
      </g>
     </g>
    </g>
    <g id="ytick_21">
     <g id="line2d_30">
      <g>
       <use xlink:href="#m869e508cd4" x="45.478125" y="141.306138" style="stroke: #000000; stroke-width: 0.6"/>
      </g>
     </g>
    </g>
    <g id="ytick_22">
     <g id="line2d_31">
      <g>
       <use xlink:href="#m869e508cd4" x="45.478125" y="123.499309" style="stroke: #000000; stroke-width: 0.6"/>
      </g>
     </g>
    </g>
    <g id="ytick_23">
     <g id="line2d_32">
      <g>
       <use xlink:href="#m869e508cd4" x="45.478125" y="114.457382" style="stroke: #000000; stroke-width: 0.6"/>
      </g>
     </g>
    </g>
    <g id="ytick_24">
     <g id="line2d_33">
      <g>
       <use xlink:href="#m869e508cd4" x="45.478125" y="108.042033" style="stroke: #000000; stroke-width: 0.6"/>
      </g>
     </g>
    </g>
    <g id="ytick_25">
     <g id="line2d_34">
      <g>
       <use xlink:href="#m869e508cd4" x="45.478125" y="103.065902" style="stroke: #000000; stroke-width: 0.6"/>
      </g>
     </g>
    </g>
    <g id="ytick_26">
     <g id="line2d_35">
      <g>
       <use xlink:href="#m869e508cd4" x="45.478125" y="99.000107" style="stroke: #000000; stroke-width: 0.6"/>
      </g>
     </g>
    </g>
    <g id="ytick_27">
     <g id="line2d_36">
      <g>
       <use xlink:href="#m869e508cd4" x="45.478125" y="95.562526" style="stroke: #000000; stroke-width: 0.6"/>
      </g>
     </g>
    </g>
    <g id="ytick_28">
     <g id="line2d_37">
      <g>
       <use xlink:href="#m869e508cd4" x="45.478125" y="92.584758" style="stroke: #000000; stroke-width: 0.6"/>
      </g>
     </g>
    </g>
    <g id="ytick_29">
     <g id="line2d_38">
      <g>
       <use xlink:href="#m869e508cd4" x="45.478125" y="89.95818" style="stroke: #000000; stroke-width: 0.6"/>
      </g>
     </g>
    </g>
    <g id="ytick_30">
     <g id="line2d_39">
      <g>
       <use xlink:href="#m869e508cd4" x="45.478125" y="72.151351" style="stroke: #000000; stroke-width: 0.6"/>
      </g>
     </g>
    </g>
    <g id="ytick_31">
     <g id="line2d_40">
      <g>
       <use xlink:href="#m869e508cd4" x="45.478125" y="63.109424" style="stroke: #000000; stroke-width: 0.6"/>
      </g>
     </g>
    </g>
    <g id="ytick_32">
     <g id="line2d_41">
      <g>
       <use xlink:href="#m869e508cd4" x="45.478125" y="56.694075" style="stroke: #000000; stroke-width: 0.6"/>
      </g>
     </g>
    </g>
    <g id="ytick_33">
     <g id="line2d_42">
      <g>
       <use xlink:href="#m869e508cd4" x="45.478125" y="51.717944" style="stroke: #000000; stroke-width: 0.6"/>
      </g>
     </g>
    </g>
    <g id="ytick_34">
     <g id="line2d_43">
      <g>
       <use xlink:href="#m869e508cd4" x="45.478125" y="47.652149" style="stroke: #000000; stroke-width: 0.6"/>
      </g>
     </g>
    </g>
    <g id="ytick_35">
     <g id="line2d_44">
      <g>
       <use xlink:href="#m869e508cd4" x="45.478125" y="44.214568" style="stroke: #000000; stroke-width: 0.6"/>
      </g>
     </g>
    </g>
    <g id="ytick_36">
     <g id="line2d_45">
      <g>
       <use xlink:href="#m869e508cd4" x="45.478125" y="41.2368" style="stroke: #000000; stroke-width: 0.6"/>
      </g>
     </g>
    </g>
    <g id="ytick_37">
     <g id="line2d_46">
      <g>
       <use xlink:href="#m869e508cd4" x="45.478125" y="38.610222" style="stroke: #000000; stroke-width: 0.6"/>
      </g>
     </g>
    </g>
    <g id="ytick_38">
     <g id="line2d_47">
      <g>
       <use xlink:href="#m869e508cd4" x="45.478125" y="20.803393" style="stroke: #000000; stroke-width: 0.6"/>
      </g>
     </g>
    </g>
    <g id="ytick_39">
     <g id="line2d_48">
      <g>
       <use xlink:href="#m869e508cd4" x="45.478125" y="11.761466" style="stroke: #000000; stroke-width: 0.6"/>
      </g>
     </g>
    </g>
    <g id="text_16">
     <!-- [counts] -->
     <g transform="translate(14.798438 145.03875) rotate(-90) scale(0.1 -0.1)">
      <defs>
       <path id="DejaVuSans-63" d="M 3122 3366 
L 3122 2828 
Q 2878 2963 2633 3030 
Q 2388 3097 2138 3097 
Q 1578 3097 1268 2742 
Q 959 2388 959 1747 
Q 959 1106 1268 751 
Q 1578 397 2138 397 
Q 2388 397 2633 464 
Q 2878 531 3122 666 
L 3122 134 
Q 2881 22 2623 -34 
Q 2366 -91 2075 -91 
Q 1284 -91 818 406 
Q 353 903 353 1747 
Q 353 2603 823 3093 
Q 1294 3584 2113 3584 
Q 2378 3584 2631 3529 
Q 2884 3475 3122 3366 
z
" transform="scale(0.015625)"/>
       <path id="DejaVuSans-6f" d="M 1959 3097 
Q 1497 3097 1228 2736 
Q 959 2375 959 1747 
Q 959 1119 1226 758 
Q 1494 397 1959 397 
Q 2419 397 2687 759 
Q 2956 1122 2956 1747 
Q 2956 2369 2687 2733 
Q 2419 3097 1959 3097 
z
M 1959 3584 
Q 2709 3584 3137 3096 
Q 3566 2609 3566 1747 
Q 3566 888 3137 398 
Q 2709 -91 1959 -91 
Q 1206 -91 779 398 
Q 353 888 353 1747 
Q 353 2609 779 3096 
Q 1206 3584 1959 3584 
z
" transform="scale(0.015625)"/>
       <path id="DejaVuSans-75" d="M 544 1381 
L 544 3500 
L 1119 3500 
L 1119 1403 
Q 1119 906 1312 657 
Q 1506 409 1894 409 
Q 2359 409 2629 706 
Q 2900 1003 2900 1516 
L 2900 3500 
L 3475 3500 
L 3475 0 
L 2900 0 
L 2900 538 
Q 2691 219 2414 64 
Q 2138 -91 1772 -91 
Q 1169 -91 856 284 
Q 544 659 544 1381 
z
M 1991 3584 
L 1991 3584 
z
" transform="scale(0.015625)"/>
       <path id="DejaVuSans-6e" d="M 3513 2113 
L 3513 0 
L 2938 0 
L 2938 2094 
Q 2938 2591 2744 2837 
Q 2550 3084 2163 3084 
Q 1697 3084 1428 2787 
Q 1159 2491 1159 1978 
L 1159 0 
L 581 0 
L 581 3500 
L 1159 3500 
L 1159 2956 
Q 1366 3272 1645 3428 
Q 1925 3584 2291 3584 
Q 2894 3584 3203 3211 
Q 3513 2838 3513 2113 
z
" transform="scale(0.015625)"/>
       <path id="DejaVuSans-74" d="M 1172 4494 
L 1172 3500 
L 2356 3500 
L 2356 3053 
L 1172 3053 
L 1172 1153 
Q 1172 725 1289 603 
Q 1406 481 1766 481 
L 2356 481 
L 2356 0 
L 1766 0 
Q 1100 0 847 248 
Q 594 497 594 1153 
L 594 3053 
L 172 3053 
L 172 3500 
L 594 3500 
L 594 4494 
L 1172 4494 
z
" transform="scale(0.015625)"/>
       <path id="DejaVuSans-73" d="M 2834 3397 
L 2834 2853 
Q 2591 2978 2328 3040 
Q 2066 3103 1784 3103 
Q 1356 3103 1142 2972 
Q 928 2841 928 2578 
Q 928 2378 1081 2264 
Q 1234 2150 1697 2047 
L 1894 2003 
Q 2506 1872 2764 1633 
Q 3022 1394 3022 966 
Q 3022 478 2636 193 
Q 2250 -91 1575 -91 
Q 1294 -91 989 -36 
Q 684 19 347 128 
L 347 722 
Q 666 556 975 473 
Q 1284 391 1588 391 
Q 1994 391 2212 530 
Q 2431 669 2431 922 
Q 2431 1156 2273 1281 
Q 2116 1406 1581 1522 
L 1381 1569 
Q 847 1681 609 1914 
Q 372 2147 372 2553 
Q 372 3047 722 3315 
Q 1072 3584 1716 3584 
Q 2034 3584 2315 3537 
Q 2597 3491 2834 3397 
z
" transform="scale(0.015625)"/>
      </defs>
      <use xlink:href="#DejaVuSans-5b"/>
      <use xlink:href="#DejaVuSans-63" x="39.013672"/>
      <use xlink:href="#DejaVuSans-6f" x="93.994141"/>
      <use xlink:href="#DejaVuSans-75" x="155.175781"/>
      <use xlink:href="#DejaVuSans-6e" x="218.554688"/>
      <use xlink:href="#DejaVuSans-74" x="281.933594"/>
      <use xlink:href="#DejaVuSans-73" x="321.142578"/>
      <use xlink:href="#DejaVuSans-5d" x="373.242188"/>
     </g>
    </g>
   </g>
   <g id="patch_3">
    <path d="M 45.478125 241.6525 
L 45.478125 7.2 
" style="fill: none; stroke: #000000; stroke-width: 0.8; stroke-linejoin: miter; stroke-linecap: square"/>
   </g>
   <g id="patch_4">
    <path d="M 416.54044 241.6525 
L 416.54044 7.2 
" style="fill: none; stroke: #000000; stroke-width: 0.8; stroke-linejoin: miter; stroke-linecap: square"/>
   </g>
   <g id="patch_5">
    <path d="M 45.478125 241.6525 
L 416.54044 241.6525 
" style="fill: none; stroke: #000000; stroke-width: 0.8; stroke-linejoin: miter; stroke-linecap: square"/>
   </g>
   <g id="patch_6">
    <path d="M 45.478125 7.2 
L 416.54044 7.2 
" style="fill: none; stroke: #000000; stroke-width: 0.8; stroke-linejoin: miter; stroke-linecap: square"/>
   </g>
   <g id="line2d_49">
    <path d="M 62.344594 39.798598 
L 64.031241 39.798598 
L 64.031241 31.311678 
L 67.404535 31.212861 
L 67.404535 32.075076 
L 69.091181 32.075076 
L 69.091181 32.674575 
L 70.777828 32.674575 
L 70.777828 33.298535 
L 72.464475 33.298535 
L 72.464475 34.619154 
L 74.151122 34.619154 
L 74.151122 35.338419 
L 75.837769 35.338419 
L 75.837769 35.615199 
L 77.524416 35.615199 
L 77.524416 37.313272 
L 79.211063 37.313272 
L 79.211063 37.974862 
L 80.89771 37.974862 
L 80.89771 39.548056 
L 82.584357 39.548056 
L 82.584357 40.985754 
L 84.271003 40.985754 
L 84.271003 41.752498 
L 85.95765 41.752498 
L 85.95765 43.473111 
L 87.644297 43.473111 
L 87.644297 45.921091 
L 89.330944 45.921091 
L 89.330944 47.079944 
L 91.017591 47.079944 
L 91.017591 50.282838 
L 92.704238 50.282838 
L 92.704238 51.838092 
L 94.390885 51.838092 
L 94.390885 55.34579 
L 96.077532 55.34579 
L 96.077532 60.256589 
L 97.764179 60.256589 
L 97.764179 64.95834 
L 99.450825 64.95834 
L 99.450825 72.791103 
L 101.137472 72.791103 
L 101.137472 78.818499 
L 102.824119 78.818499 
L 102.824119 85.82994 
L 104.510766 85.82994 
L 104.510766 94.704238 
L 106.197413 94.704238 
L 106.197413 95.410352 
L 107.88406 95.410352 
L 107.88406 97.212599 
L 109.570707 97.212599 
L 109.570707 96.179145 
L 111.257354 96.179145 
L 111.257354 90.493188 
L 112.944 90.493188 
L 112.944 92.135779 
L 114.630647 92.135779 
L 114.630647 92.383951 
L 116.317294 92.383951 
L 116.317294 94.017632 
L 118.003941 94.017632 
L 118.003941 96.319486 
L 119.690588 96.319486 
L 119.690588 102.89028 
L 121.377235 102.89028 
L 121.377235 105.200614 
L 123.063882 105.200614 
L 123.063882 108.131358 
L 124.750529 108.131358 
L 124.750529 113.827956 
L 126.437176 113.827956 
L 126.437176 117.213566 
L 128.123822 117.213566 
L 128.123822 125.447523 
L 129.810469 125.447523 
L 129.810469 127.840406 
L 131.497116 127.840406 
L 131.497116 136.384034 
L 133.183763 136.384034 
L 133.183763 140.542904 
L 134.87041 140.542904 
L 134.87041 146.595997 
L 136.557057 146.595997 
L 136.557057 151.552727 
L 138.243704 151.552727 
L 138.243704 151.032944 
L 139.930351 151.032944 
L 139.930351 151.86259 
L 141.616998 151.86259 
L 141.616998 148.717265 
L 143.303644 148.717265 
L 143.303644 147.998867 
L 144.990291 147.998867 
L 144.990291 142.225964 
L 146.676938 142.225964 
L 146.676938 141.871701 
L 148.363585 141.871701 
L 148.363585 140.015808 
L 150.050232 140.015808 
L 150.050232 135.748811 
L 151.736879 135.748811 
L 151.736879 134.084083 
L 153.423526 134.084083 
L 153.423526 134.85228 
L 155.110173 134.85228 
L 155.110173 133.187673 
L 156.79682 133.187673 
L 156.79682 129.847507 
L 158.483466 129.847507 
L 158.483466 130.201567 
L 160.170113 130.201567 
L 160.170113 132.897311 
L 161.85676 132.897311 
L 161.85676 129.253148 
L 163.543407 129.253148 
L 163.543407 131.544907 
L 165.230054 131.544907 
L 165.230054 130.509639 
L 166.916701 130.509639 
L 166.916701 130.393611 
L 168.603348 130.393611 
L 168.603348 131.902873 
L 170.289995 131.902873 
L 170.289995 131.600567 
L 171.976642 131.600567 
L 171.976642 134.262427 
L 173.663288 134.262427 
L 173.663288 133.33477 
L 175.349935 133.33477 
L 175.349935 136.997377 
L 178.723229 137.008801 
L 178.723229 137.837305 
L 180.409876 137.837305 
L 180.409876 140.101824 
L 182.096523 140.101824 
L 182.096523 144.785822 
L 183.78317 144.785822 
L 183.78317 143.219048 
L 185.469817 143.219048 
L 185.469817 145.276843 
L 187.156464 145.276843 
L 187.156464 147.694295 
L 188.84311 147.694295 
L 188.84311 148.547719 
L 190.529757 148.547719 
L 190.529757 153.390275 
L 192.216404 153.390275 
L 192.216404 150.538454 
L 193.903051 150.538454 
L 193.903051 155.42885 
L 195.589698 155.42885 
L 195.589698 154.118494 
L 197.276345 154.118494 
L 197.276345 157.567372 
L 198.962992 157.567372 
L 198.962992 156.444977 
L 200.649639 156.444977 
L 200.649639 154.952878 
L 202.336286 154.952878 
L 202.336286 154.774121 
L 204.022932 154.774121 
L 204.022932 154.294221 
L 205.709579 154.294221 
L 205.709579 151.27962 
L 207.396226 151.27962 
L 207.396226 152.057636 
L 209.082873 152.057636 
L 209.082873 151.43456 
L 210.76952 151.43456 
L 210.76952 153.882894 
L 212.456167 153.882894 
L 212.456167 151.323634 
L 214.142814 151.323634 
L 214.142814 149.245984 
L 215.829461 149.245984 
L 215.829461 151.418356 
L 217.516108 151.418356 
L 217.516108 149.643331 
L 219.202754 149.643331 
L 219.202754 151.040454 
L 220.889401 151.040454 
L 220.889401 150.892391 
L 222.576048 150.892391 
L 222.576048 148.846743 
L 224.262695 148.846743 
L 224.262695 148.971056 
L 225.949342 148.971056 
L 225.949342 145.856775 
L 227.635989 145.856775 
L 227.635989 146.838544 
L 229.322636 146.838544 
L 229.322636 150.388905 
L 231.009283 150.388905 
L 231.009283 148.497312 
L 232.69593 148.497312 
L 232.69593 148.191784 
L 234.382576 148.191784 
L 234.382576 150.020584 
L 236.069223 150.020584 
L 236.069223 151.268944 
L 237.75587 151.268944 
L 237.75587 150.248721 
L 239.442517 150.248721 
L 239.442517 149.830405 
L 241.129164 149.830405 
L 241.129164 155.160224 
L 242.815811 155.160224 
L 242.815811 149.674941 
L 244.502458 149.674941 
L 244.502458 155.460601 
L 246.189105 155.460601 
L 246.189105 153.928022 
L 247.875751 153.928022 
L 247.875751 154.043715 
L 249.562398 154.043715 
L 249.562398 154.991548 
L 251.249045 154.991548 
L 251.249045 151.516715 
L 252.935692 151.516715 
L 252.935692 156.017734 
L 254.622339 156.017734 
L 254.622339 156.148191 
L 256.308986 156.148191 
L 256.308986 155.345351 
L 257.995633 155.345351 
L 257.995633 156.239084 
L 259.68228 156.239084 
L 259.68228 155.357336 
L 261.368927 155.357336 
L 261.368927 157.076996 
L 263.055573 157.076996 
L 263.055573 153.423717 
L 264.74222 153.423717 
L 264.74222 153.744075 
L 266.428867 153.744075 
L 266.428867 153.075392 
L 268.115514 153.075392 
L 268.115514 155.580735 
L 269.802161 155.580735 
L 269.802161 158.65766 
L 271.488808 158.65766 
L 271.488808 157.568919 
L 273.175455 157.568919 
L 273.175455 152.798048 
L 274.862102 152.798048 
L 274.862102 151.749515 
L 276.548749 151.749515 
L 276.548749 149.557477 
L 278.235395 149.557477 
L 278.235395 154.925461 
L 279.922042 154.925461 
L 279.922042 155.368372 
L 281.608689 155.368372 
L 281.608689 154.074093 
L 283.295336 154.074093 
L 283.295336 156.251538 
L 284.981983 156.251538 
L 284.981983 157.867256 
L 286.66863 157.867256 
L 286.66863 154.020659 
L 288.355277 154.020659 
L 288.355277 156.293927 
L 290.041924 156.293927 
L 290.041924 152.416972 
L 291.728571 152.416972 
L 291.728571 155.528602 
L 293.415217 155.528602 
L 293.415217 154.324641 
L 295.101864 154.324641 
L 295.101864 157.033477 
L 296.788511 157.033477 
L 296.788511 158.281547 
L 298.475158 158.281547 
L 298.475158 150.947109 
L 300.161805 150.947109 
L 300.161805 153.942507 
L 301.848452 153.942507 
L 301.848452 156.505439 
L 303.535099 156.505439 
L 303.535099 158.936544 
L 305.221746 158.936544 
L 305.221746 153.27342 
L 306.908393 153.27342 
L 306.908393 156.258667 
L 308.595039 156.258667 
L 308.595039 155.385531 
L 310.281686 155.385531 
L 310.281686 155.082577 
L 311.968333 155.082577 
L 311.968333 154.419938 
L 313.65498 154.419938 
L 313.65498 157.3304 
L 315.341627 157.3304 
L 315.341627 155.146511 
L 317.028274 155.146511 
L 317.028274 153.821596 
L 318.714921 153.821596 
L 318.714921 162.256863 
L 320.401568 162.256863 
L 320.401568 159.46476 
L 322.088215 159.46476 
L 322.088215 155.784212 
L 323.774861 155.784212 
L 323.774861 158.690474 
L 325.461508 158.690474 
L 325.461508 160.032322 
L 327.148155 160.032322 
L 327.148155 161.367012 
L 328.834802 161.367012 
L 328.834802 165.205506 
L 330.521449 165.205506 
L 330.521449 160.545069 
L 332.208096 160.545069 
L 332.208096 161.246493 
L 333.894743 161.246493 
L 333.894743 159.589847 
L 335.58139 159.589847 
L 335.58139 167.202803 
L 337.268037 167.202803 
L 337.268037 160.546174 
L 338.954683 160.546174 
L 338.954683 168.843694 
L 340.64133 168.843694 
L 340.64133 170.359007 
L 342.327977 170.359007 
L 342.327977 161.393359 
L 344.014624 161.393359 
L 344.014624 166.087031 
L 345.701271 166.087031 
L 345.701271 169.342919 
L 347.387918 169.342919 
L 347.387918 169.166495 
L 349.074565 169.166495 
L 349.074565 163.426679 
L 350.761212 163.426679 
L 350.761212 171.759023 
L 352.447859 171.759023 
L 352.447859 173.732053 
L 354.134505 173.732053 
L 354.134505 184.187724 
L 355.821152 184.187724 
L 355.821152 174.486959 
L 357.507799 174.486959 
L 357.507799 183.098902 
L 359.194446 183.098902 
L 359.194446 172.403275 
L 360.881093 172.403275 
L 360.881093 176.225819 
L 362.56774 176.225819 
L 362.56774 188.874072 
L 364.254387 188.874072 
L 364.254387 184.162948 
L 365.941034 184.162948 
L 365.941034 191.277819 
L 367.62768 191.277819 
L 367.62768 206.578812 
L 369.314327 206.578812 
L 369.314327 186.761419 
L 371.000974 186.761419 
L 371.000974 203.502306 
L 372.687621 203.502306 
L 372.687621 214.122965 
L 374.374268 214.122965 
L 374.374268 219.044121 
L 376.060915 219.044121 
L 376.060915 221.453511 
L 377.747562 221.453511 
L 377.747562 230.746455 
L 379.434209 230.746455 
L 379.434209 265.299918 
L 381.120856 265.299918 
L 381.120856 281.132187 
L 381.120856 281.132187 
" clip-path="url(#p65e99b4bfc)" style="fill: none; stroke: #1f77b4; stroke-width: 1.5; stroke-linecap: square"/>
   </g>
   <g id="LineCollection_1">
    <path d="M 63.187917 40.041326 
L 63.187917 39.558484 
" clip-path="url(#p65e99b4bfc)" style="fill: none; stroke: #1f77b4; stroke-width: 1.5"/>
    <path d="M 64.874564 31.512156 
L 64.874564 31.112986 
" clip-path="url(#p65e99b4bfc)" style="fill: none; stroke: #1f77b4; stroke-width: 1.5"/>
    <path d="M 66.561211 31.412893 
L 66.561211 31.014606 
" clip-path="url(#p65e99b4bfc)" style="fill: none; stroke: #1f77b4; stroke-width: 1.5"/>
    <path d="M 68.247858 32.279032 
L 68.247858 31.87297 
" clip-path="url(#p65e99b4bfc)" style="fill: none; stroke: #1f77b4; stroke-width: 1.5"/>
    <path d="M 69.934505 32.881303 
L 69.934505 32.469745 
" clip-path="url(#p65e99b4bfc)" style="fill: none; stroke: #1f77b4; stroke-width: 1.5"/>
    <path d="M 71.621152 33.508189 
L 71.621152 33.090833 
" clip-path="url(#p65e99b4bfc)" style="fill: none; stroke: #1f77b4; stroke-width: 1.5"/>
    <path d="M 73.307799 34.835139 
L 73.307799 34.40524 
" clip-path="url(#p65e99b4bfc)" style="fill: none; stroke: #1f77b4; stroke-width: 1.5"/>
    <path d="M 74.994446 35.557933 
L 74.994446 35.121044 
" clip-path="url(#p65e99b4bfc)" style="fill: none; stroke: #1f77b4; stroke-width: 1.5"/>
    <path d="M 76.681092 35.836087 
L 76.681092 35.396478 
" clip-path="url(#p65e99b4bfc)" style="fill: none; stroke: #1f77b4; stroke-width: 1.5"/>
    <path d="M 78.367739 37.542776 
L 78.367739 37.086106 
" clip-path="url(#p65e99b4bfc)" style="fill: none; stroke: #1f77b4; stroke-width: 1.5"/>
    <path d="M 80.054386 38.207814 
L 80.054386 37.744319 
" clip-path="url(#p65e99b4bfc)" style="fill: none; stroke: #1f77b4; stroke-width: 1.5"/>
    <path d="M 81.741033 39.789416 
L 81.741033 39.309279 
" clip-path="url(#p65e99b4bfc)" style="fill: none; stroke: #1f77b4; stroke-width: 1.5"/>
    <path d="M 83.42768 41.235066 
L 83.42768 40.739199 
" clip-path="url(#p65e99b4bfc)" style="fill: none; stroke: #1f77b4; stroke-width: 1.5"/>
    <path d="M 85.114327 42.006158 
L 85.114327 41.501691 
" clip-path="url(#p65e99b4bfc)" style="fill: none; stroke: #1f77b4; stroke-width: 1.5"/>
    <path d="M 86.800974 43.736807 
L 86.800974 43.212496 
" clip-path="url(#p65e99b4bfc)" style="fill: none; stroke: #1f77b4; stroke-width: 1.5"/>
    <path d="M 88.487621 46.199758 
L 88.487621 45.645862 
" clip-path="url(#p65e99b4bfc)" style="fill: none; stroke: #1f77b4; stroke-width: 1.5"/>
    <path d="M 90.174268 47.365994 
L 90.174268 46.797516 
" clip-path="url(#p65e99b4bfc)" style="fill: none; stroke: #1f77b4; stroke-width: 1.5"/>
    <path d="M 91.860914 50.590334 
L 91.860914 49.979525 
" clip-path="url(#p65e99b4bfc)" style="fill: none; stroke: #1f77b4; stroke-width: 1.5"/>
    <path d="M 93.547561 52.156578 
L 93.547561 51.524091 
" clip-path="url(#p65e99b4bfc)" style="fill: none; stroke: #1f77b4; stroke-width: 1.5"/>
    <path d="M 95.234208 55.690538 
L 95.234208 55.006291 
" clip-path="url(#p65e99b4bfc)" style="fill: none; stroke: #1f77b4; stroke-width: 1.5"/>
    <path d="M 96.920855 60.641813 
L 96.920855 59.877907 
" clip-path="url(#p65e99b4bfc)" style="fill: none; stroke: #1f77b4; stroke-width: 1.5"/>
    <path d="M 98.607502 65.386805 
L 98.607502 64.537951 
" clip-path="url(#p65e99b4bfc)" style="fill: none; stroke: #1f77b4; stroke-width: 1.5"/>
    <path d="M 100.294149 73.302779 
L 100.294149 72.290905 
" clip-path="url(#p65e99b4bfc)" style="fill: none; stroke: #1f77b4; stroke-width: 1.5"/>
    <path d="M 101.980796 79.405197 
L 101.980796 78.246842 
" clip-path="url(#p65e99b4bfc)" style="fill: none; stroke: #1f77b4; stroke-width: 1.5"/>
    <path d="M 103.667443 86.518071 
L 103.667443 85.16241 
" clip-path="url(#p65e99b4bfc)" style="fill: none; stroke: #1f77b4; stroke-width: 1.5"/>
    <path d="M 105.35409 95.546756 
L 105.35409 93.892396 
" clip-path="url(#p65e99b4bfc)" style="fill: none; stroke: #1f77b4; stroke-width: 1.5"/>
    <path d="M 107.040736 96.266576 
L 107.040736 94.585791 
" clip-path="url(#p65e99b4bfc)" style="fill: none; stroke: #1f77b4; stroke-width: 1.5"/>
    <path d="M 108.727383 98.104847 
L 108.727383 96.354682 
" clip-path="url(#p65e99b4bfc)" style="fill: none; stroke: #1f77b4; stroke-width: 1.5"/>
    <path d="M 110.41403 97.050551 
L 110.41403 95.340514 
" clip-path="url(#p65e99b4bfc)" style="fill: none; stroke: #1f77b4; stroke-width: 1.5"/>
    <path d="M 112.100677 91.258479 
L 112.100677 89.753291 
" clip-path="url(#p65e99b4bfc)" style="fill: none; stroke: #1f77b4; stroke-width: 1.5"/>
    <path d="M 113.787324 92.930298 
L 113.787324 91.368597 
" clip-path="url(#p65e99b4bfc)" style="fill: none; stroke: #1f77b4; stroke-width: 1.5"/>
    <path d="M 115.473971 93.182984 
L 115.473971 91.612561 
" clip-path="url(#p65e99b4bfc)" style="fill: none; stroke: #1f77b4; stroke-width: 1.5"/>
    <path d="M 117.160618 94.847037 
L 117.160618 93.217973 
" clip-path="url(#p65e99b4bfc)" style="fill: none; stroke: #1f77b4; stroke-width: 1.5"/>
    <path d="M 118.847265 97.193693 
L 118.847265 95.478261 
" clip-path="url(#p65e99b4bfc)" style="fill: none; stroke: #1f77b4; stroke-width: 1.5"/>
    <path d="M 120.533911 103.906458 
L 120.533911 101.918396 
" clip-path="url(#p65e99b4bfc)" style="fill: none; stroke: #1f77b4; stroke-width: 1.5"/>
    <path d="M 122.220558 106.272137 
L 122.220558 104.178226 
" clip-path="url(#p65e99b4bfc)" style="fill: none; stroke: #1f77b4; stroke-width: 1.5"/>
    <path d="M 123.907205 109.277559 
L 123.907205 107.041202 
" clip-path="url(#p65e99b4bfc)" style="fill: none; stroke: #1f77b4; stroke-width: 1.5"/>
    <path d="M 125.593852 115.134978 
L 125.593852 112.593317 
" clip-path="url(#p65e99b4bfc)" style="fill: none; stroke: #1f77b4; stroke-width: 1.5"/>
    <path d="M 127.280499 118.627001 
L 127.280499 115.884404 
" clip-path="url(#p65e99b4bfc)" style="fill: none; stroke: #1f77b4; stroke-width: 1.5"/>
    <path d="M 128.967146 127.1588 
L 128.967146 123.85826 
" clip-path="url(#p65e99b4bfc)" style="fill: none; stroke: #1f77b4; stroke-width: 1.5"/>
    <path d="M 130.653793 129.649933 
L 130.653793 126.166755 
" clip-path="url(#p65e99b4bfc)" style="fill: none; stroke: #1f77b4; stroke-width: 1.5"/>
    <path d="M 132.34044 138.595143 
L 132.34044 134.37252 
" clip-path="url(#p65e99b4bfc)" style="fill: none; stroke: #1f77b4; stroke-width: 1.5"/>
    <path d="M 134.027087 142.982353 
L 134.027087 138.344191 
" clip-path="url(#p65e99b4bfc)" style="fill: none; stroke: #1f77b4; stroke-width: 1.5"/>
    <path d="M 135.713733 149.41335 
L 135.713733 144.094989 
" clip-path="url(#p65e99b4bfc)" style="fill: none; stroke: #1f77b4; stroke-width: 1.5"/>
    <path d="M 137.40038 154.725907 
L 137.40038 148.775338 
" clip-path="url(#p65e99b4bfc)" style="fill: none; stroke: #1f77b4; stroke-width: 1.5"/>
    <path d="M 139.087027 154.166648 
L 139.087027 148.285832 
" clip-path="url(#p65e99b4bfc)" style="fill: none; stroke: #1f77b4; stroke-width: 1.5"/>
    <path d="M 140.773674 155.059556 
L 140.773674 149.067001 
" clip-path="url(#p65e99b4bfc)" style="fill: none; stroke: #1f77b4; stroke-width: 1.5"/>
    <path d="M 142.460321 151.681382 
L 142.460321 146.10131 
" clip-path="url(#p65e99b4bfc)" style="fill: none; stroke: #1f77b4; stroke-width: 1.5"/>
    <path d="M 144.146968 150.912388 
L 144.146968 145.422388 
" clip-path="url(#p65e99b4bfc)" style="fill: none; stroke: #1f77b4; stroke-width: 1.5"/>
    <path d="M 145.833615 144.764773 
L 145.833615 139.946874 
" clip-path="url(#p65e99b4bfc)" style="fill: none; stroke: #1f77b4; stroke-width: 1.5"/>
    <path d="M 147.520262 144.389247 
L 147.520262 139.609758 
" clip-path="url(#p65e99b4bfc)" style="fill: none; stroke: #1f77b4; stroke-width: 1.5"/>
    <path d="M 149.206909 142.424991 
L 149.206909 137.841708 
" clip-path="url(#p65e99b4bfc)" style="fill: none; stroke: #1f77b4; stroke-width: 1.5"/>
    <path d="M 150.893555 137.927072 
L 150.893555 133.764515 
" clip-path="url(#p65e99b4bfc)" style="fill: none; stroke: #1f77b4; stroke-width: 1.5"/>
    <path d="M 152.580202 136.178668 
L 152.580202 132.169454 
" clip-path="url(#p65e99b4bfc)" style="fill: none; stroke: #1f77b4; stroke-width: 1.5"/>
    <path d="M 154.266849 136.985051 
L 154.266849 132.905799 
" clip-path="url(#p65e99b4bfc)" style="fill: none; stroke: #1f77b4; stroke-width: 1.5"/>
    <path d="M 155.953496 135.238602 
L 155.953496 131.309582 
" clip-path="url(#p65e99b4bfc)" style="fill: none; stroke: #1f77b4; stroke-width: 1.5"/>
    <path d="M 157.640143 131.743968 
L 157.640143 128.099761 
" clip-path="url(#p65e99b4bfc)" style="fill: none; stroke: #1f77b4; stroke-width: 1.5"/>
    <path d="M 159.32679 132.11381 
L 159.32679 128.440428 
" clip-path="url(#p65e99b4bfc)" style="fill: none; stroke: #1f77b4; stroke-width: 1.5"/>
    <path d="M 161.013437 134.934305 
L 161.013437 131.030912 
" clip-path="url(#p65e99b4bfc)" style="fill: none; stroke: #1f77b4; stroke-width: 1.5"/>
    <path d="M 162.700084 131.12342 
L 162.700084 127.527667 
" clip-path="url(#p65e99b4bfc)" style="fill: none; stroke: #1f77b4; stroke-width: 1.5"/>
    <path d="M 164.386731 133.518286 
L 164.386731 129.732048 
" clip-path="url(#p65e99b4bfc)" style="fill: none; stroke: #1f77b4; stroke-width: 1.5"/>
    <path d="M 166.073377 132.435725 
L 166.073377 128.736765 
" clip-path="url(#p65e99b4bfc)" style="fill: none; stroke: #1f77b4; stroke-width: 1.5"/>
    <path d="M 167.760024 132.314471 
L 167.760024 128.625165 
" clip-path="url(#p65e99b4bfc)" style="fill: none; stroke: #1f77b4; stroke-width: 1.5"/>
    <path d="M 169.446671 133.892885 
L 169.446671 130.075987 
" clip-path="url(#p65e99b4bfc)" style="fill: none; stroke: #1f77b4; stroke-width: 1.5"/>
    <path d="M 171.133318 133.576522 
L 171.133318 129.785533 
" clip-path="url(#p65e99b4bfc)" style="fill: none; stroke: #1f77b4; stroke-width: 1.5"/>
    <path d="M 172.819965 136.365813 
L 172.819965 132.340449 
" clip-path="url(#p65e99b4bfc)" style="fill: none; stroke: #1f77b4; stroke-width: 1.5"/>
    <path d="M 174.506612 135.392797 
L 174.506612 131.45073 
" clip-path="url(#p65e99b4bfc)" style="fill: none; stroke: #1f77b4; stroke-width: 1.5"/>
    <path d="M 176.193259 139.240695 
L 176.193259 134.959245 
" clip-path="url(#p65e99b4bfc)" style="fill: none; stroke: #1f77b4; stroke-width: 1.5"/>
    <path d="M 177.879906 139.252724 
L 177.879906 134.97017 
" clip-path="url(#p65e99b4bfc)" style="fill: none; stroke: #1f77b4; stroke-width: 1.5"/>
    <path d="M 179.566553 140.125535 
L 179.566553 135.762175 
" clip-path="url(#p65e99b4bfc)" style="fill: none; stroke: #1f77b4; stroke-width: 1.5"/>
    <path d="M 181.253199 142.515919 
L 181.253199 137.923726 
" clip-path="url(#p65e99b4bfc)" style="fill: none; stroke: #1f77b4; stroke-width: 1.5"/>
    <path d="M 182.939846 147.48405 
L 182.939846 142.379113 
" clip-path="url(#p65e99b4bfc)" style="fill: none; stroke: #1f77b4; stroke-width: 1.5"/>
    <path d="M 184.626493 145.818485 
L 184.626493 140.89123 
" clip-path="url(#p65e99b4bfc)" style="fill: none; stroke: #1f77b4; stroke-width: 1.5"/>
    <path d="M 186.31314 148.006846 
L 186.31314 142.844893 
" clip-path="url(#p65e99b4bfc)" style="fill: none; stroke: #1f77b4; stroke-width: 1.5"/>
    <path d="M 187.999787 150.586643 
L 187.999787 145.134381 
" clip-path="url(#p65e99b4bfc)" style="fill: none; stroke: #1f77b4; stroke-width: 1.5"/>
    <path d="M 189.686434 151.499811 
L 189.686434 145.941132 
" clip-path="url(#p65e99b4bfc)" style="fill: none; stroke: #1f77b4; stroke-width: 1.5"/>
    <path d="M 191.373081 156.707347 
L 191.373081 150.503317 
" clip-path="url(#p65e99b4bfc)" style="fill: none; stroke: #1f77b4; stroke-width: 1.5"/>
    <path d="M 193.059728 153.635092 
L 193.059728 147.819859 
" clip-path="url(#p65e99b4bfc)" style="fill: none; stroke: #1f77b4; stroke-width: 1.5"/>
    <path d="M 194.746375 158.913819 
L 194.746375 152.415607 
" clip-path="url(#p65e99b4bfc)" style="fill: none; stroke: #1f77b4; stroke-width: 1.5"/>
    <path d="M 196.433021 157.49452 
L 196.433021 151.187005 
" clip-path="url(#p65e99b4bfc)" style="fill: none; stroke: #1f77b4; stroke-width: 1.5"/>
    <path d="M 198.119668 161.238385 
L 198.119668 154.416119 
" clip-path="url(#p65e99b4bfc)" style="fill: none; stroke: #1f77b4; stroke-width: 1.5"/>
    <path d="M 199.806315 160.01704 
L 199.806315 153.366876 
" clip-path="url(#p65e99b4bfc)" style="fill: none; stroke: #1f77b4; stroke-width: 1.5"/>
    <path d="M 201.492962 158.397842 
L 201.492962 151.969574 
" clip-path="url(#p65e99b4bfc)" style="fill: none; stroke: #1f77b4; stroke-width: 1.5"/>
    <path d="M 203.179609 158.204189 
L 203.179609 151.80199 
" clip-path="url(#p65e99b4bfc)" style="fill: none; stroke: #1f77b4; stroke-width: 1.5"/>
    <path d="M 204.866256 157.684641 
L 204.866256 151.35189 
" clip-path="url(#p65e99b4bfc)" style="fill: none; stroke: #1f77b4; stroke-width: 1.5"/>
    <path d="M 206.552903 154.431992 
L 206.552903 148.518178 
" clip-path="url(#p65e99b4bfc)" style="fill: none; stroke: #1f77b4; stroke-width: 1.5"/>
    <path d="M 208.23955 155.269674 
L 208.23955 149.250535 
" clip-path="url(#p65e99b4bfc)" style="fill: none; stroke: #1f77b4; stroke-width: 1.5"/>
    <path d="M 209.926197 154.598719 
L 209.926197 148.664081 
" clip-path="url(#p65e99b4bfc)" style="fill: none; stroke: #1f77b4; stroke-width: 1.5"/>
    <path d="M 211.612843 157.239724 
L 211.612843 150.965881 
" clip-path="url(#p65e99b4bfc)" style="fill: none; stroke: #1f77b4; stroke-width: 1.5"/>
    <path d="M 213.29949 154.47935 
L 213.29949 148.559628 
" clip-path="url(#p65e99b4bfc)" style="fill: none; stroke: #1f77b4; stroke-width: 1.5"/>
    <path d="M 214.986137 152.247937 
L 214.986137 146.600613 
" clip-path="url(#p65e99b4bfc)" style="fill: none; stroke: #1f77b4; stroke-width: 1.5"/>
    <path d="M 216.672784 154.581281 
L 216.672784 148.648824 
" clip-path="url(#p65e99b4bfc)" style="fill: none; stroke: #1f77b4; stroke-width: 1.5"/>
    <path d="M 218.359431 152.674059 
L 218.359431 146.975649 
" clip-path="url(#p65e99b4bfc)" style="fill: none; stroke: #1f77b4; stroke-width: 1.5"/>
    <path d="M 220.046078 154.174725 
L 220.046078 148.292907 
" clip-path="url(#p65e99b4bfc)" style="fill: none; stroke: #1f77b4; stroke-width: 1.5"/>
    <path d="M 221.732725 154.015511 
L 221.732725 148.153413 
" clip-path="url(#p65e99b4bfc)" style="fill: none; stroke: #1f77b4; stroke-width: 1.5"/>
    <path d="M 223.419372 151.820078 
L 223.419372 146.223613 
" clip-path="url(#p65e99b4bfc)" style="fill: none; stroke: #1f77b4; stroke-width: 1.5"/>
    <path d="M 225.106019 151.953271 
L 225.106019 146.34102 
" clip-path="url(#p65e99b4bfc)" style="fill: none; stroke: #1f77b4; stroke-width: 1.5"/>
    <path d="M 226.792665 148.624819 
L 226.792665 143.39469 
" clip-path="url(#p65e99b4bfc)" style="fill: none; stroke: #1f77b4; stroke-width: 1.5"/>
    <path d="M 228.479312 149.672279 
L 228.479312 144.324638 
" clip-path="url(#p65e99b4bfc)" style="fill: none; stroke: #1f77b4; stroke-width: 1.5"/>
    <path d="M 230.165959 153.474425 
L 230.165959 147.678878 
" clip-path="url(#p65e99b4bfc)" style="fill: none; stroke: #1f77b4; stroke-width: 1.5"/>
    <path d="M 231.852606 151.445839 
L 231.852606 145.893504 
" clip-path="url(#p65e99b4bfc)" style="fill: none; stroke: #1f77b4; stroke-width: 1.5"/>
    <path d="M 233.539253 151.118801 
L 233.539253 145.60476 
" clip-path="url(#p65e99b4bfc)" style="fill: none; stroke: #1f77b4; stroke-width: 1.5"/>
    <path d="M 235.2259 153.078905 
L 235.2259 147.331555 
" clip-path="url(#p65e99b4bfc)" style="fill: none; stroke: #1f77b4; stroke-width: 1.5"/>
    <path d="M 236.912547 154.420506 
L 236.912547 148.508124 
" clip-path="url(#p65e99b4bfc)" style="fill: none; stroke: #1f77b4; stroke-width: 1.5"/>
    <path d="M 238.599194 153.323859 
L 238.599194 147.546705 
" clip-path="url(#p65e99b4bfc)" style="fill: none; stroke: #1f77b4; stroke-width: 1.5"/>
    <path d="M 240.28584 152.874783 
L 240.28584 147.152157 
" clip-path="url(#p65e99b4bfc)" style="fill: none; stroke: #1f77b4; stroke-width: 1.5"/>
    <path d="M 241.972487 158.622554 
L 241.972487 152.163913 
" clip-path="url(#p65e99b4bfc)" style="fill: none; stroke: #1f77b4; stroke-width: 1.5"/>
    <path d="M 243.659134 152.707971 
L 243.659134 147.005476 
" clip-path="url(#p65e99b4bfc)" style="fill: none; stroke: #1f77b4; stroke-width: 1.5"/>
    <path d="M 245.345781 158.948256 
L 245.345781 152.44535 
" clip-path="url(#p65e99b4bfc)" style="fill: none; stroke: #1f77b4; stroke-width: 1.5"/>
    <path d="M 247.032428 157.28852 
L 247.032428 151.008242 
" clip-path="url(#p65e99b4bfc)" style="fill: none; stroke: #1f77b4; stroke-width: 1.5"/>
    <path d="M 248.719075 157.413635 
L 248.719075 151.116827 
" clip-path="url(#p65e99b4bfc)" style="fill: none; stroke: #1f77b4; stroke-width: 1.5"/>
    <path d="M 250.405722 158.439744 
L 250.405722 152.005823 
" clip-path="url(#p65e99b4bfc)" style="fill: none; stroke: #1f77b4; stroke-width: 1.5"/>
    <path d="M 252.092369 154.687143 
L 252.092369 148.741433 
" clip-path="url(#p65e99b4bfc)" style="fill: none; stroke: #1f77b4; stroke-width: 1.5"/>
    <path d="M 253.779016 159.552894 
L 253.779016 152.96706 
" clip-path="url(#p65e99b4bfc)" style="fill: none; stroke: #1f77b4; stroke-width: 1.5"/>
    <path d="M 255.465662 159.694576 
L 255.465662 153.089168 
" clip-path="url(#p65e99b4bfc)" style="fill: none; stroke: #1f77b4; stroke-width: 1.5"/>
    <path d="M 257.152309 158.823266 
L 257.152309 152.33738 
" clip-path="url(#p65e99b4bfc)" style="fill: none; stroke: #1f77b4; stroke-width: 1.5"/>
    <path d="M 258.838956 159.793312 
L 258.838956 153.17423 
" clip-path="url(#p65e99b4bfc)" style="fill: none; stroke: #1f77b4; stroke-width: 1.5"/>
    <path d="M 260.525603 158.836263 
L 260.525603 152.348609 
" clip-path="url(#p65e99b4bfc)" style="fill: none; stroke: #1f77b4; stroke-width: 1.5"/>
    <path d="M 262.21225 160.704417 
L 262.21225 153.957901 
" clip-path="url(#p65e99b4bfc)" style="fill: none; stroke: #1f77b4; stroke-width: 1.5"/>
    <path d="M 263.898897 156.743473 
L 263.898897 150.534729 
" clip-path="url(#p65e99b4bfc)" style="fill: none; stroke: #1f77b4; stroke-width: 1.5"/>
    <path d="M 265.585544 157.08965 
L 265.585544 150.835562 
" clip-path="url(#p65e99b4bfc)" style="fill: none; stroke: #1f77b4; stroke-width: 1.5"/>
    <path d="M 267.272191 156.367318 
L 267.272191 150.207494 
" clip-path="url(#p65e99b4bfc)" style="fill: none; stroke: #1f77b4; stroke-width: 1.5"/>
    <path d="M 268.958838 159.078575 
L 268.958838 152.557879 
" clip-path="url(#p65e99b4bfc)" style="fill: none; stroke: #1f77b4; stroke-width: 1.5"/>
    <path d="M 270.645484 162.427645 
L 270.645484 155.433801 
" clip-path="url(#p65e99b4bfc)" style="fill: none; stroke: #1f77b4; stroke-width: 1.5"/>
    <path d="M 272.332131 161.240071 
L 272.332131 154.417565 
" clip-path="url(#p65e99b4bfc)" style="fill: none; stroke: #1f77b4; stroke-width: 1.5"/>
    <path d="M 274.018778 156.067994 
L 274.018778 149.946838 
" clip-path="url(#p65e99b4bfc)" style="fill: none; stroke: #1f77b4; stroke-width: 1.5"/>
    <path d="M 275.705425 154.937779 
L 275.705425 148.960581 
" clip-path="url(#p65e99b4bfc)" style="fill: none; stroke: #1f77b4; stroke-width: 1.5"/>
    <path d="M 277.392072 152.581963 
L 277.392072 146.89463 
" clip-path="url(#p65e99b4bfc)" style="fill: none; stroke: #1f77b4; stroke-width: 1.5"/>
    <path d="M 279.078719 158.368136 
L 279.078719 151.943873 
" clip-path="url(#p65e99b4bfc)" style="fill: none; stroke: #1f77b4; stroke-width: 1.5"/>
    <path d="M 280.765366 158.84823 
L 280.765366 152.358949 
" clip-path="url(#p65e99b4bfc)" style="fill: none; stroke: #1f77b4; stroke-width: 1.5"/>
    <path d="M 282.452013 157.446492 
L 282.452013 151.145337 
" clip-path="url(#p65e99b4bfc)" style="fill: none; stroke: #1f77b4; stroke-width: 1.5"/>
    <path d="M 284.13866 159.806842 
L 284.13866 153.185884 
" clip-path="url(#p65e99b4bfc)" style="fill: none; stroke: #1f77b4; stroke-width: 1.5"/>
    <path d="M 285.825306 161.565207 
L 285.825306 154.696186 
" clip-path="url(#p65e99b4bfc)" style="fill: none; stroke: #1f77b4; stroke-width: 1.5"/>
    <path d="M 287.511953 157.388699 
L 287.511953 151.095189 
" clip-path="url(#p65e99b4bfc)" style="fill: none; stroke: #1f77b4; stroke-width: 1.5"/>
    <path d="M 289.1986 159.852896 
L 289.1986 153.225549 
" clip-path="url(#p65e99b4bfc)" style="fill: none; stroke: #1f77b4; stroke-width: 1.5"/>
    <path d="M 290.885247 155.656974 
L 290.885247 149.588545 
" clip-path="url(#p65e99b4bfc)" style="fill: none; stroke: #1f77b4; stroke-width: 1.5"/>
    <path d="M 292.571894 159.022019 
L 292.571894 152.509049 
" clip-path="url(#p65e99b4bfc)" style="fill: none; stroke: #1f77b4; stroke-width: 1.5"/>
    <path d="M 294.258541 157.717559 
L 294.258541 151.380428 
" clip-path="url(#p65e99b4bfc)" style="fill: none; stroke: #1f77b4; stroke-width: 1.5"/>
    <path d="M 295.945188 160.657057 
L 295.945188 153.917221 
" clip-path="url(#p65e99b4bfc)" style="fill: none; stroke: #1f77b4; stroke-width: 1.5"/>
    <path d="M 297.631835 162.017066 
L 297.631835 155.082909 
" clip-path="url(#p65e99b4bfc)" style="fill: none; stroke: #1f77b4; stroke-width: 1.5"/>
    <path d="M 299.318482 154.074345 
L 299.318482 148.204967 
" clip-path="url(#p65e99b4bfc)" style="fill: none; stroke: #1f77b4; stroke-width: 1.5"/>
    <path d="M 301.005128 157.304182 
L 301.005128 151.021838 
" clip-path="url(#p65e99b4bfc)" style="fill: none; stroke: #1f77b4; stroke-width: 1.5"/>
    <path d="M 302.691775 160.082759 
L 302.691775 153.423439 
" clip-path="url(#p65e99b4bfc)" style="fill: none; stroke: #1f77b4; stroke-width: 1.5"/>
    <path d="M 304.378422 162.732307 
L 304.378422 155.693865 
" clip-path="url(#p65e99b4bfc)" style="fill: none; stroke: #1f77b4; stroke-width: 1.5"/>
    <path d="M 306.065069 156.581136 
L 306.065069 150.393549 
" clip-path="url(#p65e99b4bfc)" style="fill: none; stroke: #1f77b4; stroke-width: 1.5"/>
    <path d="M 307.751716 159.814587 
L 307.751716 153.192555 
" clip-path="url(#p65e99b4bfc)" style="fill: none; stroke: #1f77b4; stroke-width: 1.5"/>
    <path d="M 309.438363 158.866838 
L 309.438363 152.375024 
" clip-path="url(#p65e99b4bfc)" style="fill: none; stroke: #1f77b4; stroke-width: 1.5"/>
    <path d="M 311.12501 158.538392 
L 311.12501 152.091142 
" clip-path="url(#p65e99b4bfc)" style="fill: none; stroke: #1f77b4; stroke-width: 1.5"/>
    <path d="M 312.811657 157.820697 
L 312.811657 151.469827 
" clip-path="url(#p65e99b4bfc)" style="fill: none; stroke: #1f77b4; stroke-width: 1.5"/>
    <path d="M 314.498304 160.980277 
L 314.498304 154.194725 
" clip-path="url(#p65e99b4bfc)" style="fill: none; stroke: #1f77b4; stroke-width: 1.5"/>
    <path d="M 316.18495 158.607689 
L 316.18495 152.151061 
" clip-path="url(#p65e99b4bfc)" style="fill: none; stroke: #1f77b4; stroke-width: 1.5"/>
    <path d="M 317.871597 157.173451 
L 317.871597 150.908339 
" clip-path="url(#p65e99b4bfc)" style="fill: none; stroke: #1f77b4; stroke-width: 1.5"/>
    <path d="M 319.558244 166.374752 
L 319.558244 158.782146 
" clip-path="url(#p65e99b4bfc)" style="fill: none; stroke: #1f77b4; stroke-width: 1.5"/>
    <path d="M 321.244891 163.309876 
L 321.244891 156.186155 
" clip-path="url(#p65e99b4bfc)" style="fill: none; stroke: #1f77b4; stroke-width: 1.5"/>
    <path d="M 322.931538 159.299376 
L 322.931538 152.748433 
" clip-path="url(#p65e99b4bfc)" style="fill: none; stroke: #1f77b4; stroke-width: 1.5"/>
    <path d="M 324.618185 162.463482 
L 324.618185 155.464406 
" clip-path="url(#p65e99b4bfc)" style="fill: none; stroke: #1f77b4; stroke-width: 1.5"/>
    <path d="M 326.304832 163.931247 
L 326.304832 156.714703 
" clip-path="url(#p65e99b4bfc)" style="fill: none; stroke: #1f77b4; stroke-width: 1.5"/>
    <path d="M 327.991479 165.395741 
L 327.991479 157.955946 
" clip-path="url(#p65e99b4bfc)" style="fill: none; stroke: #1f77b4; stroke-width: 1.5"/>
    <path d="M 329.678126 169.634665 
L 329.678126 161.511957 
" clip-path="url(#p65e99b4bfc)" style="fill: none; stroke: #1f77b4; stroke-width: 1.5"/>
    <path d="M 331.364772 164.493313 
L 331.364772 157.191835 
" clip-path="url(#p65e99b4bfc)" style="fill: none; stroke: #1f77b4; stroke-width: 1.5"/>
    <path d="M 333.051419 165.263309 
L 333.051419 157.843964 
" clip-path="url(#p65e99b4bfc)" style="fill: none; stroke: #1f77b4; stroke-width: 1.5"/>
    <path d="M 334.738066 163.446752 
L 334.738066 156.30268 
" clip-path="url(#p65e99b4bfc)" style="fill: none; stroke: #1f77b4; stroke-width: 1.5"/>
    <path d="M 336.424713 171.857502 
L 336.424713 163.353899 
" clip-path="url(#p65e99b4bfc)" style="fill: none; stroke: #1f77b4; stroke-width: 1.5"/>
    <path d="M 338.11136 164.494524 
L 338.11136 157.192862 
" clip-path="url(#p65e99b4bfc)" style="fill: none; stroke: #1f77b4; stroke-width: 1.5"/>
    <path d="M 339.798007 173.693223 
L 339.798007 164.862701 
" clip-path="url(#p65e99b4bfc)" style="fill: none; stroke: #1f77b4; stroke-width: 1.5"/>
    <path d="M 341.484654 175.396541 
L 341.484654 166.25237 
" clip-path="url(#p65e99b4bfc)" style="fill: none; stroke: #1f77b4; stroke-width: 1.5"/>
    <path d="M 343.171301 165.424697 
L 343.171301 157.980424 
" clip-path="url(#p65e99b4bfc)" style="fill: none; stroke: #1f77b4; stroke-width: 1.5"/>
    <path d="M 344.857948 170.614209 
L 344.857948 162.325638 
" clip-path="url(#p65e99b4bfc)" style="fill: none; stroke: #1f77b4; stroke-width: 1.5"/>
    <path d="M 346.544594 174.25351 
L 346.544594 165.320926 
" clip-path="url(#p65e99b4bfc)" style="fill: none; stroke: #1f77b4; stroke-width: 1.5"/>
    <path d="M 348.231241 174.055409 
L 348.231241 165.159034 
" clip-path="url(#p65e99b4bfc)" style="fill: none; stroke: #1f77b4; stroke-width: 1.5"/>
    <path d="M 349.917888 167.665086 
L 349.917888 159.866617 
" clip-path="url(#p65e99b4bfc)" style="fill: none; stroke: #1f77b4; stroke-width: 1.5"/>
    <path d="M 351.604535 176.977519 
L 351.604535 167.533103 
" clip-path="url(#p65e99b4bfc)" style="fill: none; stroke: #1f77b4; stroke-width: 1.5"/>
    <path d="M 353.291182 179.218089 
L 353.291182 169.332685 
" clip-path="url(#p65e99b4bfc)" style="fill: none; stroke: #1f77b4; stroke-width: 1.5"/>
    <path d="M 354.977829 191.38064 
L 354.977829 178.757743 
" clip-path="url(#p65e99b4bfc)" style="fill: none; stroke: #1f77b4; stroke-width: 1.5"/>
    <path d="M 356.664476 180.079421 
L 356.664476 170.019541 
" clip-path="url(#p65e99b4bfc)" style="fill: none; stroke: #1f77b4; stroke-width: 1.5"/>
    <path d="M 358.351123 190.088034 
L 358.351123 177.785457 
" clip-path="url(#p65e99b4bfc)" style="fill: none; stroke: #1f77b4; stroke-width: 1.5"/>
    <path d="M 360.03777 177.707483 
L 360.03777 168.121413 
" clip-path="url(#p65e99b4bfc)" style="fill: none; stroke: #1f77b4; stroke-width: 1.5"/>
    <path d="M 361.724416 182.072431 
L 361.724416 171.598025 
" clip-path="url(#p65e99b4bfc)" style="fill: none; stroke: #1f77b4; stroke-width: 1.5"/>
    <path d="M 363.411063 197.027854 
L 363.411063 182.916422 
" clip-path="url(#p65e99b4bfc)" style="fill: none; stroke: #1f77b4; stroke-width: 1.5"/>
    <path d="M 365.09771 191.35115 
L 365.09771 178.735644 
" clip-path="url(#p65e99b4bfc)" style="fill: none; stroke: #1f77b4; stroke-width: 1.5"/>
    <path d="M 366.784357 199.983478 
L 366.784357 185.032524 
" clip-path="url(#p65e99b4bfc)" style="fill: none; stroke: #1f77b4; stroke-width: 1.5"/>
    <path d="M 368.471004 220.134012 
L 368.471004 198.208756 
" clip-path="url(#p65e99b4bfc)" style="fill: none; stroke: #1f77b4; stroke-width: 1.5"/>
    <path d="M 370.157651 194.464363 
L 370.157651 181.046969 
" clip-path="url(#p65e99b4bfc)" style="fill: none; stroke: #1f77b4; stroke-width: 1.5"/>
    <path d="M 371.844298 215.847582 
L 371.844298 195.602326 
" clip-path="url(#p65e99b4bfc)" style="fill: none; stroke: #1f77b4; stroke-width: 1.5"/>
    <path d="M 373.530945 231.411833 
L 373.530945 204.502478 
" clip-path="url(#p65e99b4bfc)" style="fill: none; stroke: #1f77b4; stroke-width: 1.5"/>
    <path d="M 375.217591 239.609108 
L 375.217591 208.530203 
" clip-path="url(#p65e99b4bfc)" style="fill: none; stroke: #1f77b4; stroke-width: 1.5"/>
    <path d="M 376.904238 243.977102 
L 376.904238 210.479059 
" clip-path="url(#p65e99b4bfc)" style="fill: none; stroke: #1f77b4; stroke-width: 1.5"/>
    <path d="M 378.590885 264.825449 
L 378.590885 217.849427 
" clip-path="url(#p65e99b4bfc)" style="fill: none; stroke: #1f77b4; stroke-width: 1.5"/>
    <path d="M 380.277532 281.132187 
L 380.277532 243.15617 
" clip-path="url(#p65e99b4bfc)" style="fill: none; stroke: #1f77b4; stroke-width: 1.5"/>
    <path d="M 381.964179 281.132187 
L 381.964179 256.456302 
" clip-path="url(#p65e99b4bfc)" style="fill: none; stroke: #1f77b4; stroke-width: 1.5"/>
    <path clip-path="url(#p65e99b4bfc)" style="fill: none; stroke: #1f77b4; stroke-width: 1.5"/>
    <path clip-path="url(#p65e99b4bfc)" style="fill: none; stroke: #1f77b4; stroke-width: 1.5"/>
    <path clip-path="url(#p65e99b4bfc)" style="fill: none; stroke: #1f77b4; stroke-width: 1.5"/>
    <path clip-path="url(#p65e99b4bfc)" style="fill: none; stroke: #1f77b4; stroke-width: 1.5"/>
    <path clip-path="url(#p65e99b4bfc)" style="fill: none; stroke: #1f77b4; stroke-width: 1.5"/>
    <path clip-path="url(#p65e99b4bfc)" style="fill: none; stroke: #1f77b4; stroke-width: 1.5"/>
    <path clip-path="url(#p65e99b4bfc)" style="fill: none; stroke: #1f77b4; stroke-width: 1.5"/>
    <path clip-path="url(#p65e99b4bfc)" style="fill: none; stroke: #1f77b4; stroke-width: 1.5"/>
    <path clip-path="url(#p65e99b4bfc)" style="fill: none; stroke: #1f77b4; stroke-width: 1.5"/>
    <path clip-path="url(#p65e99b4bfc)" style="fill: none; stroke: #1f77b4; stroke-width: 1.5"/>
   </g>
  </g>
 </g>
 <defs>
  <clipPath id="p65e99b4bfc">
   <rect x="45.478125" y="7.2" width="371.062315" height="234.4525"/>
  </clipPath>
 </defs>
</svg>