<?xml version="1.0" encoding="utf-8" standalone="no"?>
<!DOCTYPE svg PUBLIC "-//W3C//DTD SVG 1.1//EN"
  "http://www.w3.org/Graphics/SVG/1.1/DTD/svg11.dtd">
<svg xmlns:xlink="http://www.w3.org/1999/xlink" width="401.18144pt" height="267.439687pt" viewBox="0 0 401.18144 267.439687" xmlns="http://www.w3.org/2000/svg" version="1.1">
 <metadata>
  <rdf:RDF xmlns:dc="http://purl.org/dc/elements/1.1/" xmlns:cc="http://creativecommons.org/ns#" xmlns:rdf="http://www.w3.org/1999/02/22-rdf-syntax-ns#">
   <cc:Work>
    <dc:type rdf:resource="http://purl.org/dc/dcmitype/StillImage"/>
    <dc:date>2025-04-22T15:34:01.609312</dc:date>
    <dc:format>image/svg+xml</dc:format>
    <dc:creator>
     <cc:Agent>
      <dc:title>Matplotlib v3.10.1, https://matplotlib.org/</dc:title>
     </cc:Agent>
    </dc:creator>
   </cc:Work>
  </rdf:RDF>
 </metadata>
 <defs>
  <style type="text/css">*{stroke-linejoin: round; stroke-linecap: butt}</style>
 </defs>
 <g id="figure_1">
  <g id="patch_1">
   <path d="M 0 267.439687 
L 401.18144 267.439687 
L 401.18144 0 
L 0 0 
z
" style="fill: #ffffff"/>
  </g>
  <g id="axes_1">
   <g id="patch_2">
    <path d="M 45.478125 228.96 
L 380.278125 228.96 
L 380.278125 7.2 
L 45.478125 7.2 
z
" style="fill: #ffffff"/>
   </g>
   <g id="matplotlib.axis_1">
    <g id="xtick_1">
     <g id="line2d_1">
      <defs>
       <path id="m237049374b" d="M 0 0 
L 0 3.5 
" style="stroke: #000000; stroke-width: 0.8"/>
      </defs>
      <g>
       <use xlink:href="#m237049374b" x="53.308899" y="228.96" style="stroke: #000000; stroke-width: 0.8"/>
      </g>
     </g>
     <g id="text_1">
      <!-- 0.000 -->
      <g transform="translate(38.994836 243.558437) scale(0.1 -0.1)">
       <defs>
        <path id="DejaVuSans-30" d="M 2034 4250 
Q 1547 4250 1301 3770 
Q 1056 3291 1056 2328 
Q 1056 1369 1301 889 
Q 1547 409 2034 409 
Q 2525 409 2770 889 
Q 3016 1369 3016 2328 
Q 3016 3291 2770 3770 
Q 2525 4250 2034 4250 
z
M 2034 4750 
Q 2819 4750 3233 4129 
Q 3647 3509 3647 2328 
Q 3647 1150 3233 529 
Q 2819 -91 2034 -91 
Q 1250 -91 836 529 
Q 422 1150 422 2328 
Q 422 3509 836 4129 
Q 1250 4750 2034 4750 
z
" transform="scale(0.015625)"/>
        <path id="DejaVuSans-2e" d="M 684 794 
L 1344 794 
L 1344 0 
L 684 0 
L 684 794 
z
" transform="scale(0.015625)"/>
       </defs>
       <use xlink:href="#DejaVuSans-30"/>
       <use xlink:href="#DejaVuSans-2e" transform="translate(63.623047 0)"/>
       <use xlink:href="#DejaVuSans-30" transform="translate(95.410156 0)"/>
       <use xlink:href="#DejaVuSans-30" transform="translate(159.033203 0)"/>
       <use xlink:href="#DejaVuSans-30" transform="translate(222.65625 0)"/>
      </g>
     </g>
    </g>
    <g id="xtick_2">
     <g id="line2d_2">
      <g>
       <use xlink:href="#m237049374b" x="94.103708" y="228.96" style="stroke: #000000; stroke-width: 0.8"/>
      </g>
     </g>
     <g id="text_2">
      <!-- 0.025 -->
      <g transform="translate(79.789646 243.558437) scale(0.1 -0.1)">
       <defs>
        <path id="DejaVuSans-32" d="M 1228 531 
L 3431 531 
L 3431 0 
L 469 0 
L 469 531 
Q 828 903 1448 1529 
Q 2069 2156 2228 2338 
Q 2531 2678 2651 2914 
Q 2772 3150 2772 3378 
Q 2772 3750 2511 3984 
Q 2250 4219 1831 4219 
Q 1534 4219 1204 4116 
Q 875 4013 500 3803 
L 500 4441 
Q 881 4594 1212 4672 
Q 1544 4750 1819 4750 
Q 2544 4750 2975 4387 
Q 3406 4025 3406 3419 
Q 3406 3131 3298 2873 
Q 3191 2616 2906 2266 
Q 2828 2175 2409 1742 
Q 1991 1309 1228 531 
z
" transform="scale(0.015625)"/>
        <path id="DejaVuSans-35" d="M 691 4666 
L 3169 4666 
L 3169 4134 
L 1269 4134 
L 1269 2991 
Q 1406 3038 1543 3061 
Q 1681 3084 1819 3084 
Q 2600 3084 3056 2656 
Q 3513 2228 3513 1497 
Q 3513 744 3044 326 
Q 2575 -91 1722 -91 
Q 1428 -91 1123 -41 
Q 819 9 494 109 
L 494 744 
Q 775 591 1075 516 
Q 1375 441 1709 441 
Q 2250 441 2565 725 
Q 2881 1009 2881 1497 
Q 2881 1984 2565 2268 
Q 2250 2553 1709 2553 
Q 1456 2553 1204 2497 
Q 953 2441 691 2322 
L 691 4666 
z
" transform="scale(0.015625)"/>
       </defs>
       <use xlink:href="#DejaVuSans-30"/>
       <use xlink:href="#DejaVuSans-2e" transform="translate(63.623047 0)"/>
       <use xlink:href="#DejaVuSans-30" transform="translate(95.410156 0)"/>
       <use xlink:href="#DejaVuSans-32" transform="translate(159.033203 0)"/>
       <use xlink:href="#DejaVuSans-35" transform="translate(222.65625 0)"/>
      </g>
     </g>
    </g>
    <g id="xtick_3">
     <g id="line2d_3">
      <g>
       <use xlink:href="#m237049374b" x="134.898518" y="228.96" style="stroke: #000000; stroke-width: 0.8"/>
      </g>
     </g>
     <g id="text_3">
      <!-- 0.050 -->
      <g transform="translate(120.584456 243.558437) scale(0.1 -0.1)">
       <use xlink:href="#DejaVuSans-30"/>
       <use xlink:href="#DejaVuSans-2e" transform="translate(63.623047 0)"/>
       <use xlink:href="#DejaVuSans-30" transform="translate(95.410156 0)"/>
       <use xlink:href="#DejaVuSans-35" transform="translate(159.033203 0)"/>
       <use xlink:href="#DejaVuSans-30" transform="translate(222.65625 0)"/>
      </g>
     </g>
    </g>
    <g id="xtick_4">
     <g id="line2d_4">
      <g>
       <use xlink:href="#m237049374b" x="175.693328" y="228.96" style="stroke: #000000; stroke-width: 0.8"/>
      </g>
     </g>
     <g id="text_4">
      <!-- 0.075 -->
      <g transform="translate(161.379266 243.558437) scale(0.1 -0.1)">
       <defs>
        <path id="DejaVuSans-37" d="M 525 4666 
L 3525 4666 
L 3525 4397 
L 1831 0 
L 1172 0 
L 2766 4134 
L 525 4134 
L 525 4666 
z
" transform="scale(0.015625)"/>
       </defs>
       <use xlink:href="#DejaVuSans-30"/>
       <use xlink:href="#DejaVuSans-2e" transform="translate(63.623047 0)"/>
       <use xlink:href="#DejaVuSans-30" transform="translate(95.410156 0)"/>
       <use xlink:href="#DejaVuSans-37" transform="translate(159.033203 0)"/>
       <use xlink:href="#DejaVuSans-35" transform="translate(222.65625 0)"/>
      </g>
     </g>
    </g>
    <g id="xtick_5">
     <g id="line2d_5">
      <g>
       <use xlink:href="#m237049374b" x="216.488138" y="228.96" style="stroke: #000000; stroke-width: 0.8"/>
      </g>
     </g>
     <g id="text_5">
      <!-- 0.100 -->
      <g transform="translate(202.174076 243.558437) scale(0.1 -0.1)">
       <defs>
        <path id="DejaVuSans-31" d="M 794 531 
L 1825 531 
L 1825 4091 
L 703 3866 
L 703 4441 
L 1819 4666 
L 2450 4666 
L 2450 531 
L 3481 531 
L 3481 0 
L 794 0 
L 794 531 
z
" transform="scale(0.015625)"/>
       </defs>
       <use xlink:href="#DejaVuSans-30"/>
       <use xlink:href="#DejaVuSans-2e" transform="translate(63.623047 0)"/>
       <use xlink:href="#DejaVuSans-31" transform="translate(95.410156 0)"/>
       <use xlink:href="#DejaVuSans-30" transform="translate(159.033203 0)"/>
       <use xlink:href="#DejaVuSans-30" transform="translate(222.65625 0)"/>
      </g>
     </g>
    </g>
    <g id="xtick_6">
     <g id="line2d_6">
      <g>
       <use xlink:href="#m237049374b" x="257.282948" y="228.96" style="stroke: #000000; stroke-width: 0.8"/>
      </g>
     </g>
     <g id="text_6">
      <!-- 0.125 -->
      <g transform="translate(242.968886 243.558437) scale(0.1 -0.1)">
       <use xlink:href="#DejaVuSans-30"/>
       <use xlink:href="#DejaVuSans-2e" transform="translate(63.623047 0)"/>
       <use xlink:href="#DejaVuSans-31" transform="translate(95.410156 0)"/>
       <use xlink:href="#DejaVuSans-32" transform="translate(159.033203 0)"/>
       <use xlink:href="#DejaVuSans-35" transform="translate(222.65625 0)"/>
      </g>
     </g>
    </g>
    <g id="xtick_7">
     <g id="line2d_7">
      <g>
       <use xlink:href="#m237049374b" x="298.077758" y="228.96" style="stroke: #000000; stroke-width: 0.8"/>
      </g>
     </g>
     <g id="text_7">
      <!-- 0.150 -->
      <g transform="translate(283.763696 243.558437) scale(0.1 -0.1)">
       <use xlink:href="#DejaVuSans-30"/>
       <use xlink:href="#DejaVuSans-2e" transform="translate(63.623047 0)"/>
       <use xlink:href="#DejaVuSans-31" transform="translate(95.410156 0)"/>
       <use xlink:href="#DejaVuSans-35" transform="translate(159.033203 0)"/>
       <use xlink:href="#DejaVuSans-30" transform="translate(222.65625 0)"/>
      </g>
     </g>
    </g>
    <g id="xtick_8">
     <g id="line2d_8">
      <g>
       <use xlink:href="#m237049374b" x="338.872568" y="228.96" style="stroke: #000000; stroke-width: 0.8"/>
      </g>
     </g>
     <g id="text_8">
      <!-- 0.175 -->
      <g transform="translate(324.558505 243.558437) scale(0.1 -0.1)">
       <use xlink:href="#DejaVuSans-30"/>
       <use xlink:href="#DejaVuSans-2e" transform="translate(63.623047 0)"/>
       <use xlink:href="#DejaVuSans-31" transform="translate(95.410156 0)"/>
       <use xlink:href="#DejaVuSans-37" transform="translate(159.033203 0)"/>
       <use xlink:href="#DejaVuSans-35" transform="translate(222.65625 0)"/>
      </g>
     </g>
    </g>
    <g id="xtick_9">
     <g id="line2d_9">
      <g>
       <use xlink:href="#m237049374b" x="379.667378" y="228.96" style="stroke: #000000; stroke-width: 0.8"/>
      </g>
     </g>
     <g id="text_9">
      <!-- 0.200 -->
      <g transform="translate(365.353315 243.558437) scale(0.1 -0.1)">
       <use xlink:href="#DejaVuSans-30"/>
       <use xlink:href="#DejaVuSans-2e" transform="translate(63.623047 0)"/>
       <use xlink:href="#DejaVuSans-32" transform="translate(95.410156 0)"/>
       <use xlink:href="#DejaVuSans-30" transform="translate(159.033203 0)"/>
       <use xlink:href="#DejaVuSans-30" transform="translate(222.65625 0)"/>
      </g>
     </g>
    </g>
    <g id="text_10">
     <!-- Q [1/Å] -->
     <g transform="translate(195.165625 258.16) scale(0.1 -0.1)">
      <defs>
       <path id="DejaVuSans-51" d="M 2522 4238 
Q 1834 4238 1429 3725 
Q 1025 3213 1025 2328 
Q 1025 1447 1429 934 
Q 1834 422 2522 422 
Q 3209 422 3611 934 
Q 4013 1447 4013 2328 
Q 4013 3213 3611 3725 
Q 3209 4238 2522 4238 
z
M 3406 84 
L 4238 -825 
L 3475 -825 
L 2784 -78 
Q 2681 -84 2626 -87 
Q 2572 -91 2522 -91 
Q 1538 -91 948 567 
Q 359 1225 359 2328 
Q 359 3434 948 4092 
Q 1538 4750 2522 4750 
Q 3503 4750 4090 4092 
Q 4678 3434 4678 2328 
Q 4678 1516 4351 937 
Q 4025 359 3406 84 
z
" transform="scale(0.015625)"/>
       <path id="DejaVuSans-20" transform="scale(0.015625)"/>
       <path id="DejaVuSans-5b" d="M 550 4863 
L 1875 4863 
L 1875 4416 
L 1125 4416 
L 1125 -397 
L 1875 -397 
L 1875 -844 
L 550 -844 
L 550 4863 
z
" transform="scale(0.015625)"/>
       <path id="DejaVuSans-2f" d="M 1625 4666 
L 2156 4666 
L 531 -594 
L 0 -594 
L 1625 4666 
z
" transform="scale(0.015625)"/>
       <path id="DejaVuSans-c5" d="M 2663 5081 
Q 2663 5278 2523 5417 
Q 2384 5556 2188 5556 
Q 1988 5556 1852 5420 
Q 1716 5284 1716 5081 
Q 1716 4884 1853 4746 
Q 1991 4609 2188 4609 
Q 2384 4609 2523 4746 
Q 2663 4884 2663 5081 
z
M 2188 4044 
L 1338 1722 
L 3041 1722 
L 2188 4044 
z
M 1716 4366 
Q 1525 4494 1428 4673 
Q 1331 4853 1331 5081 
Q 1331 5441 1579 5691 
Q 1828 5941 2188 5941 
Q 2544 5941 2795 5689 
Q 3047 5438 3047 5081 
Q 3047 4863 2948 4678 
Q 2850 4494 2663 4366 
L 4325 0 
L 3669 0 
L 3244 1197 
L 1141 1197 
L 716 0 
L 50 0 
L 1716 4366 
z
" transform="scale(0.015625)"/>
       <path id="DejaVuSans-5d" d="M 1947 4863 
L 1947 -844 
L 622 -844 
L 622 -397 
L 1369 -397 
L 1369 4416 
L 622 4416 
L 622 4863 
L 1947 4863 
z
" transform="scale(0.015625)"/>
      </defs>
      <use xlink:href="#DejaVuSans-51"/>
      <use xlink:href="#DejaVuSans-20" transform="translate(78.710938 0)"/>
      <use xlink:href="#DejaVuSans-5b" transform="translate(110.498047 0)"/>
      <use xlink:href="#DejaVuSans-31" transform="translate(149.511719 0)"/>
      <use xlink:href="#DejaVuSans-2f" transform="translate(213.134766 0)"/>
      <use xlink:href="#DejaVuSans-c5" transform="translate(246.826172 0)"/>
      <use xlink:href="#DejaVuSans-5d" transform="translate(315.234375 0)"/>
     </g>
    </g>
   </g>
   <g id="matplotlib.axis_2">
    <g id="ytick_1">
     <g id="line2d_10">
      <defs>
       <path id="m0a6a58ef90" d="M 0 0 
L -3.5 0 
" style="stroke: #000000; stroke-width: 0.8"/>
      </defs>
      <g>
       <use xlink:href="#m0a6a58ef90" x="45.478125" y="228.96" style="stroke: #000000; stroke-width: 0.8"/>
      </g>
     </g>
     <g id="text_11">
      <!-- $\mathdefault{10^{0}}$ -->
      <g transform="translate(20.878125 232.759219) scale(0.1 -0.1)">
       <use xlink:href="#DejaVuSans-31" transform="translate(0 0.765625)"/>
       <use xlink:href="#DejaVuSans-30" transform="translate(63.623047 0.765625)"/>
       <use xlink:href="#DejaVuSans-30" transform="translate(128.203125 39.046875) scale(0.7)"/>
      </g>
     </g>
    </g>
    <g id="ytick_2">
     <g id="line2d_11">
      <g>
       <use xlink:href="#m0a6a58ef90" x="45.478125" y="171.09045" style="stroke: #000000; stroke-width: 0.8"/>
      </g>
     </g>
     <g id="text_12">
      <!-- $\mathdefault{10^{1}}$ -->
      <g transform="translate(20.878125 174.889669) scale(0.1 -0.1)">
       <use xlink:href="#DejaVuSans-31" transform="translate(0 0.684375)"/>
       <use xlink:href="#DejaVuSans-30" transform="translate(63.623047 0.684375)"/>
       <use xlink:href="#DejaVuSans-31" transform="translate(128.203125 38.965625) scale(0.7)"/>
      </g>
     </g>
    </g>
    <g id="ytick_3">
     <g id="line2d_12">
      <g>
       <use xlink:href="#m0a6a58ef90" x="45.478125" y="113.2209" style="stroke: #000000; stroke-width: 0.8"/>
      </g>
     </g>
     <g id="text_13">
      <!-- $\mathdefault{10^{2}}$ -->
      <g transform="translate(20.878125 117.020119) scale(0.1 -0.1)">
       <use xlink:href="#DejaVuSans-31" transform="translate(0 0.765625)"/>
       <use xlink:href="#DejaVuSans-30" transform="translate(63.623047 0.765625)"/>
       <use xlink:href="#DejaVuSans-32" transform="translate(128.203125 39.046875) scale(0.7)"/>
      </g>
     </g>
    </g>
    <g id="ytick_4">
     <g id="line2d_13">
      <g>
       <use xlink:href="#m0a6a58ef90" x="45.478125" y="55.35135" style="stroke: #000000; stroke-width: 0.8"/>
      </g>
     </g>
     <g id="text_14">
      <!-- $\mathdefault{10^{3}}$ -->
      <g transform="translate(20.878125 59.150569) scale(0.1 -0.1)">
       <defs>
        <path id="DejaVuSans-33" d="M 2597 2516 
Q 3050 2419 3304 2112 
Q 3559 1806 3559 1356 
Q 3559 666 3084 287 
Q 2609 -91 1734 -91 
Q 1441 -91 1130 -33 
Q 819 25 488 141 
L 488 750 
Q 750 597 1062 519 
Q 1375 441 1716 441 
Q 2309 441 2620 675 
Q 2931 909 2931 1356 
Q 2931 1769 2642 2001 
Q 2353 2234 1838 2234 
L 1294 2234 
L 1294 2753 
L 1863 2753 
Q 2328 2753 2575 2939 
Q 2822 3125 2822 3475 
Q 2822 3834 2567 4026 
Q 2313 4219 1838 4219 
Q 1578 4219 1281 4162 
Q 984 4106 628 3988 
L 628 4550 
Q 988 4650 1302 4700 
Q 1616 4750 1894 4750 
Q 2613 4750 3031 4423 
Q 3450 4097 3450 3541 
Q 3450 3153 3228 2886 
Q 3006 2619 2597 2516 
z
" transform="scale(0.015625)"/>
       </defs>
       <use xlink:href="#DejaVuSans-31" transform="translate(0 0.765625)"/>
       <use xlink:href="#DejaVuSans-30" transform="translate(63.623047 0.765625)"/>
       <use xlink:href="#DejaVuSans-33" transform="translate(128.203125 39.046875) scale(0.7)"/>
      </g>
     </g>
    </g>
    <g id="ytick_5">
     <g id="line2d_14">
      <defs>
       <path id="m2556f11fc9" d="M 0 0 
L -2 0 
" style="stroke: #000000; stroke-width: 0.6"/>
      </defs>
      <g>
       <use xlink:href="#m2556f11fc9" x="45.478125" y="211.53953" style="stroke: #000000; stroke-width: 0.6"/>
      </g>
     </g>
    </g>
    <g id="ytick_6">
     <g id="line2d_15">
      <g>
       <use xlink:href="#m2556f11fc9" x="45.478125" y="201.349208" style="stroke: #000000; stroke-width: 0.6"/>
      </g>
     </g>
    </g>
    <g id="ytick_7">
     <g id="line2d_16">
      <g>
       <use xlink:href="#m2556f11fc9" x="45.478125" y="194.119059" style="stroke: #000000; stroke-width: 0.6"/>
      </g>
     </g>
    </g>
    <g id="ytick_8">
     <g id="line2d_17">
      <g>
       <use xlink:href="#m2556f11fc9" x="45.478125" y="188.51092" style="stroke: #000000; stroke-width: 0.6"/>
      </g>
     </g>
    </g>
    <g id="ytick_9">
     <g id="line2d_18">
      <g>
       <use xlink:href="#m2556f11fc9" x="45.478125" y="183.928737" style="stroke: #000000; stroke-width: 0.6"/>
      </g>
     </g>
    </g>
    <g id="ytick_10">
     <g id="line2d_19">
      <g>
       <use xlink:href="#m2556f11fc9" x="45.478125" y="180.054557" style="stroke: #000000; stroke-width: 0.6"/>
      </g>
     </g>
    </g>
    <g id="ytick_11">
     <g id="line2d_20">
      <g>
       <use xlink:href="#m2556f11fc9" x="45.478125" y="176.698589" style="stroke: #000000; stroke-width: 0.6"/>
      </g>
     </g>
    </g>
    <g id="ytick_12">
     <g id="line2d_21">
      <g>
       <use xlink:href="#m2556f11fc9" x="45.478125" y="173.738415" style="stroke: #000000; stroke-width: 0.6"/>
      </g>
     </g>
    </g>
    <g id="ytick_13">
     <g id="line2d_22">
      <g>
       <use xlink:href="#m2556f11fc9" x="45.478125" y="153.66998" style="stroke: #000000; stroke-width: 0.6"/>
      </g>
     </g>
    </g>
    <g id="ytick_14">
     <g id="line2d_23">
      <g>
       <use xlink:href="#m2556f11fc9" x="45.478125" y="143.479658" style="stroke: #000000; stroke-width: 0.6"/>
      </g>
     </g>
    </g>
    <g id="ytick_15">
     <g id="line2d_24">
      <g>
       <use xlink:href="#m2556f11fc9" x="45.478125" y="136.249509" style="stroke: #000000; stroke-width: 0.6"/>
      </g>
     </g>
    </g>
    <g id="ytick_16">
     <g id="line2d_25">
      <g>
       <use xlink:href="#m2556f11fc9" x="45.478125" y="130.64137" style="stroke: #000000; stroke-width: 0.6"/>
      </g>
     </g>
    </g>
    <g id="ytick_17">
     <g id="line2d_26">
      <g>
       <use xlink:href="#m2556f11fc9" x="45.478125" y="126.059187" style="stroke: #000000; stroke-width: 0.6"/>
      </g>
     </g>
    </g>
    <g id="ytick_18">
     <g id="line2d_27">
      <g>
       <use xlink:href="#m2556f11fc9" x="45.478125" y="122.185007" style="stroke: #000000; stroke-width: 0.6"/>
      </g>
     </g>
    </g>
    <g id="ytick_19">
     <g id="line2d_28">
      <g>
       <use xlink:href="#m2556f11fc9" x="45.478125" y="118.829039" style="stroke: #000000; stroke-width: 0.6"/>
      </g>
     </g>
    </g>
    <g id="ytick_20">
     <g id="line2d_29">
      <g>
       <use xlink:href="#m2556f11fc9" x="45.478125" y="115.868865" style="stroke: #000000; stroke-width: 0.6"/>
      </g>
     </g>
    </g>
    <g id="ytick_21">
     <g id="line2d_30">
      <g>
       <use xlink:href="#m2556f11fc9" x="45.478125" y="95.80043" style="stroke: #000000; stroke-width: 0.6"/>
      </g>
     </g>
    </g>
    <g id="ytick_22">
     <g id="line2d_31">
      <g>
       <use xlink:href="#m2556f11fc9" x="45.478125" y="85.610108" style="stroke: #000000; stroke-width: 0.6"/>
      </g>
     </g>
    </g>
    <g id="ytick_23">
     <g id="line2d_32">
      <g>
       <use xlink:href="#m2556f11fc9" x="45.478125" y="78.379959" style="stroke: #000000; stroke-width: 0.6"/>
      </g>
     </g>
    </g>
    <g id="ytick_24">
     <g id="line2d_33">
      <g>
       <use xlink:href="#m2556f11fc9" x="45.478125" y="72.77182" style="stroke: #000000; stroke-width: 0.6"/>
      </g>
     </g>
    </g>
    <g id="ytick_25">
     <g id="line2d_34">
      <g>
       <use xlink:href="#m2556f11fc9" x="45.478125" y="68.189637" style="stroke: #000000; stroke-width: 0.6"/>
      </g>
     </g>
    </g>
    <g id="ytick_26">
     <g id="line2d_35">
      <g>
       <use xlink:href="#m2556f11fc9" x="45.478125" y="64.315457" style="stroke: #000000; stroke-width: 0.6"/>
      </g>
     </g>
    </g>
    <g id="ytick_27">
     <g id="line2d_36">
      <g>
       <use xlink:href="#m2556f11fc9" x="45.478125" y="60.959489" style="stroke: #000000; stroke-width: 0.6"/>
      </g>
     </g>
    </g>
    <g id="ytick_28">
     <g id="line2d_37">
      <g>
       <use xlink:href="#m2556f11fc9" x="45.478125" y="57.999315" style="stroke: #000000; stroke-width: 0.6"/>
      </g>
     </g>
    </g>
    <g id="ytick_29">
     <g id="line2d_38">
      <g>
       <use xlink:href="#m2556f11fc9" x="45.478125" y="37.93088" style="stroke: #000000; stroke-width: 0.6"/>
      </g>
     </g>
    </g>
    <g id="ytick_30">
     <g id="line2d_39">
      <g>
       <use xlink:href="#m2556f11fc9" x="45.478125" y="27.740558" style="stroke: #000000; stroke-width: 0.6"/>
      </g>
     </g>
    </g>
    <g id="ytick_31">
     <g id="line2d_40">
      <g>
       <use xlink:href="#m2556f11fc9" x="45.478125" y="20.510409" style="stroke: #000000; stroke-width: 0.6"/>
      </g>
     </g>
    </g>
    <g id="ytick_32">
     <g id="line2d_41">
      <g>
       <use xlink:href="#m2556f11fc9" x="45.478125" y="14.90227" style="stroke: #000000; stroke-width: 0.6"/>
      </g>
     </g>
    </g>
    <g id="ytick_33">
     <g id="line2d_42">
      <g>
       <use xlink:href="#m2556f11fc9" x="45.478125" y="10.320087" style="stroke: #000000; stroke-width: 0.6"/>
      </g>
     </g>
    </g>
    <g id="text_15">
     <!-- [counts] -->
     <g transform="translate(14.798438 138.6925) rotate(-90) scale(0.1 -0.1)">
      <defs>
       <path id="DejaVuSans-63" d="M 3122 3366 
L 3122 2828 
Q 2878 2963 2633 3030 
Q 2388 3097 2138 3097 
Q 1578 3097 1268 2742 
Q 959 2388 959 1747 
Q 959 1106 1268 751 
Q 1578 397 2138 397 
Q 2388 397 2633 464 
Q 2878 531 3122 666 
L 3122 134 
Q 2881 22 2623 -34 
Q 2366 -91 2075 -91 
Q 1284 -91 818 406 
Q 353 903 353 1747 
Q 353 2603 823 3093 
Q 1294 3584 2113 3584 
Q 2378 3584 2631 3529 
Q 2884 3475 3122 3366 
z
" transform="scale(0.015625)"/>
       <path id="DejaVuSans-6f" d="M 1959 3097 
Q 1497 3097 1228 2736 
Q 959 2375 959 1747 
Q 959 1119 1226 758 
Q 1494 397 1959 397 
Q 2419 397 2687 759 
Q 2956 1122 2956 1747 
Q 2956 2369 2687 2733 
Q 2419 3097 1959 3097 
z
M 1959 3584 
Q 2709 3584 3137 3096 
Q 3566 2609 3566 1747 
Q 3566 888 3137 398 
Q 2709 -91 1959 -91 
Q 1206 -91 779 398 
Q 353 888 353 1747 
Q 353 2609 779 3096 
Q 1206 3584 1959 3584 
z
" transform="scale(0.015625)"/>
       <path id="DejaVuSans-75" d="M 544 1381 
L 544 3500 
L 1119 3500 
L 1119 1403 
Q 1119 906 1312 657 
Q 1506 409 1894 409 
Q 2359 409 2629 706 
Q 2900 1003 2900 1516 
L 2900 3500 
L 3475 3500 
L 3475 0 
L 2900 0 
L 2900 538 
Q 2691 219 2414 64 
Q 2138 -91 1772 -91 
Q 1169 -91 856 284 
Q 544 659 544 1381 
z
M 1991 3584 
L 1991 3584 
z
" transform="scale(0.015625)"/>
       <path id="DejaVuSans-6e" d="M 3513 2113 
L 3513 0 
L 2938 0 
L 2938 2094 
Q 2938 2591 2744 2837 
Q 2550 3084 2163 3084 
Q 1697 3084 1428 2787 
Q 1159 2491 1159 1978 
L 1159 0 
L 581 0 
L 581 3500 
L 1159 3500 
L 1159 2956 
Q 1366 3272 1645 3428 
Q 1925 3584 2291 3584 
Q 2894 3584 3203 3211 
Q 3513 2838 3513 2113 
z
" transform="scale(0.015625)"/>
       <path id="DejaVuSans-74" d="M 1172 4494 
L 1172 3500 
L 2356 3500 
L 2356 3053 
L 1172 3053 
L 1172 1153 
Q 1172 725 1289 603 
Q 1406 481 1766 481 
L 2356 481 
L 2356 0 
L 1766 0 
Q 1100 0 847 248 
Q 594 497 594 1153 
L 594 3053 
L 172 3053 
L 172 3500 
L 594 3500 
L 594 4494 
L 1172 4494 
z
" transform="scale(0.015625)"/>
       <path id="DejaVuSans-73" d="M 2834 3397 
L 2834 2853 
Q 2591 2978 2328 3040 
Q 2066 3103 1784 3103 
Q 1356 3103 1142 2972 
Q 928 2841 928 2578 
Q 928 2378 1081 2264 
Q 1234 2150 1697 2047 
L 1894 2003 
Q 2506 1872 2764 1633 
Q 3022 1394 3022 966 
Q 3022 478 2636 193 
Q 2250 -91 1575 -91 
Q 1294 -91 989 -36 
Q 684 19 347 128 
L 347 722 
Q 666 556 975 473 
Q 1284 391 1588 391 
Q 1994 391 2212 530 
Q 2431 669 2431 922 
Q 2431 1156 2273 1281 
Q 2116 1406 1581 1522 
L 1381 1569 
Q 847 1681 609 1914 
Q 372 2147 372 2553 
Q 372 3047 722 3315 
Q 1072 3584 1716 3584 
Q 2034 3584 2315 3537 
Q 2597 3491 2834 3397 
z
" transform="scale(0.015625)"/>
      </defs>
      <use xlink:href="#DejaVuSans-5b"/>
      <use xlink:href="#DejaVuSans-63" transform="translate(39.013672 0)"/>
      <use xlink:href="#DejaVuSans-6f" transform="translate(93.994141 0)"/>
      <use xlink:href="#DejaVuSans-75" transform="translate(155.175781 0)"/>
      <use xlink:href="#DejaVuSans-6e" transform="translate(218.554688 0)"/>
      <use xlink:href="#DejaVuSans-74" transform="translate(281.933594 0)"/>
      <use xlink:href="#DejaVuSans-73" transform="translate(321.142578 0)"/>
      <use xlink:href="#DejaVuSans-5d" transform="translate(373.242188 0)"/>
     </g>
    </g>
   </g>
   <g id="patch_3">
    <path d="M 45.478125 228.96 
L 45.478125 7.2 
" style="fill: none; stroke: #000000; stroke-width: 0.8; stroke-linejoin: miter; stroke-linecap: square"/>
   </g>
   <g id="patch_4">
    <path d="M 380.278125 228.96 
L 380.278125 7.2 
" style="fill: none; stroke: #000000; stroke-width: 0.8; stroke-linejoin: miter; stroke-linecap: square"/>
   </g>
   <g id="patch_5">
    <path d="M 45.478125 228.96 
L 380.278125 228.96 
" style="fill: none; stroke: #000000; stroke-width: 0.8; stroke-linejoin: miter; stroke-linecap: square"/>
   </g>
   <g id="patch_6">
    <path d="M 45.478125 7.2 
L 380.278125 7.2 
" style="fill: none; stroke: #000000; stroke-width: 0.8; stroke-linejoin: miter; stroke-linecap: square"/>
   </g>
   <g id="line2d_43">
    <path d="M 60.696307 48.919566 
L 62.218125 48.919566 
L 62.218125 22.351149 
L 63.739943 22.351149 
L 63.739943 19.92584 
L 65.261761 19.92584 
L 65.261761 19.687983 
L 66.78358 19.687983 
L 66.78358 22.086665 
L 68.305398 22.086665 
L 68.305398 22.423855 
L 71.349034 22.425677 
L 71.349034 24.178638 
L 72.870852 24.178638 
L 72.870852 25.490129 
L 74.39267 25.490129 
L 74.39267 24.941028 
L 75.914489 24.941028 
L 75.914489 25.832945 
L 77.436307 25.832945 
L 77.436307 28.12227 
L 78.958125 28.12227 
L 78.958125 29.802063 
L 80.479943 29.802063 
L 80.479943 30.672631 
L 82.001761 30.672631 
L 82.001761 32.685041 
L 83.52358 32.685041 
L 83.52358 34.102202 
L 85.045398 34.102202 
L 85.045398 34.807789 
L 86.567216 34.807789 
L 86.567216 37.684922 
L 88.089034 37.684922 
L 88.089034 40.488508 
L 89.610852 40.488508 
L 89.610852 43.692537 
L 91.13267 43.692537 
L 91.13267 44.821753 
L 92.654489 44.821753 
L 92.654489 49.387468 
L 94.176307 49.387468 
L 94.176307 52.902394 
L 95.698125 52.902394 
L 95.698125 61.245045 
L 97.219943 61.245045 
L 97.219943 74.281629 
L 98.741761 74.281629 
L 98.741761 77.484342 
L 100.26358 77.484342 
L 100.26358 86.058145 
L 101.785398 86.058145 
L 101.785398 88.393201 
L 103.307216 88.393201 
L 103.307216 93.323984 
L 104.829034 93.323984 
L 104.829034 91.293468 
L 106.350852 91.293468 
L 106.350852 90.138399 
L 107.87267 90.138399 
L 107.87267 88.223285 
L 109.394489 88.223285 
L 109.394489 92.918107 
L 110.916307 92.918107 
L 110.916307 91.596824 
L 112.438125 91.596824 
L 112.438125 89.193196 
L 113.959943 89.193196 
L 113.959943 92.474763 
L 115.481761 92.474763 
L 115.481761 97.085183 
L 117.00358 97.085183 
L 117.00358 104.441384 
L 118.525398 104.441384 
L 118.525398 107.476954 
L 120.047216 107.476954 
L 120.047216 111.198315 
L 121.569034 111.198315 
L 121.569034 118.839648 
L 123.090852 118.839648 
L 123.090852 122.842598 
L 124.61267 122.842598 
L 124.61267 129.535958 
L 126.134489 129.535958 
L 126.134489 136.091755 
L 127.656307 136.091755 
L 127.656307 145.283982 
L 129.178125 145.283982 
L 129.178125 148.333493 
L 130.699943 148.333493 
L 130.699943 154.531969 
L 132.221761 154.531969 
L 132.221761 156.175567 
L 133.74358 156.175567 
L 133.74358 153.935048 
L 135.265398 153.935048 
L 135.265398 154.245582 
L 136.787216 154.245582 
L 136.787216 149.354796 
L 138.309034 149.354796 
L 138.309034 150.75568 
L 139.830852 150.75568 
L 139.830852 143.914828 
L 141.35267 143.914828 
L 141.35267 141.937868 
L 142.874489 141.937868 
L 142.874489 143.578025 
L 144.396307 143.578025 
L 144.396307 140.125102 
L 145.918125 140.125102 
L 145.918125 137.427071 
L 147.439943 137.427071 
L 147.439943 133.694644 
L 148.961761 133.694644 
L 148.961761 134.304834 
L 150.48358 134.304834 
L 150.48358 128.632925 
L 152.005398 128.632925 
L 152.005398 132.315514 
L 153.527216 132.315514 
L 153.527216 133.41454 
L 155.049034 133.41454 
L 155.049034 141.0059 
L 156.570852 141.0059 
L 156.570852 134.393682 
L 158.09267 134.393682 
L 158.09267 130.663514 
L 159.614489 130.663514 
L 159.614489 130.116284 
L 161.136307 130.116284 
L 161.136307 134.903256 
L 162.658125 134.903256 
L 162.658125 134.340185 
L 164.179943 134.340185 
L 164.179943 132.874981 
L 165.701761 132.874981 
L 165.701761 133.747519 
L 167.22358 133.747519 
L 167.22358 136.496291 
L 168.745398 136.496291 
L 168.745398 141.345331 
L 170.267216 141.345331 
L 170.267216 138.305577 
L 171.789034 138.305577 
L 171.789034 140.507527 
L 173.310852 140.507527 
L 173.310852 152.294258 
L 174.83267 152.294258 
L 174.83267 149.043009 
L 176.354489 149.043009 
L 176.354489 144.756226 
L 177.876307 144.756226 
L 177.876307 151.134115 
L 179.398125 151.134115 
L 179.398125 147.393219 
L 180.919943 147.393219 
L 180.919943 152.562446 
L 182.441761 152.562446 
L 182.441761 158.53393 
L 185.485398 158.628648 
L 185.485398 160.766792 
L 187.007216 160.766792 
L 187.007216 155.013895 
L 188.529034 155.013895 
L 188.529034 157.495398 
L 190.050852 157.495398 
L 190.050852 156.676041 
L 191.57267 156.676041 
L 191.57267 157.822179 
L 193.094489 157.822179 
L 193.094489 158.354126 
L 194.616307 158.354126 
L 194.616307 160.81357 
L 196.138125 160.81357 
L 196.138125 156.095933 
L 197.659943 156.095933 
L 197.659943 163.871589 
L 199.181761 163.871589 
L 199.181761 159.538079 
L 200.70358 159.538079 
L 200.70358 154.278246 
L 202.225398 154.278246 
L 202.225398 157.20035 
L 203.747216 157.20035 
L 203.747216 157.994436 
L 205.269034 157.994436 
L 205.269034 151.656049 
L 206.790852 151.656049 
L 206.790852 154.622552 
L 208.31267 154.622552 
L 208.31267 154.502396 
L 209.834489 154.502396 
L 209.834489 145.995672 
L 211.356307 145.995672 
L 211.356307 154.367651 
L 212.878125 154.367651 
L 212.878125 144.200525 
L 214.399943 144.200525 
L 214.399943 156.274724 
L 215.921761 156.274724 
L 215.921761 152.58795 
L 217.44358 152.58795 
L 217.44358 142.748863 
L 218.965398 142.748863 
L 218.965398 149.395897 
L 220.487216 149.395897 
L 220.487216 151.228166 
L 222.009034 151.228166 
L 222.009034 163.640398 
L 223.530852 163.640398 
L 223.530852 153.551677 
L 225.05267 153.551677 
L 225.05267 156.10473 
L 226.574489 156.10473 
L 226.574489 157.539321 
L 228.096307 157.539321 
L 228.096307 146.167226 
L 229.618125 146.167226 
L 229.618125 155.527844 
L 231.139943 155.527844 
L 231.139943 157.714091 
L 232.661761 157.714091 
L 232.661761 159.539387 
L 234.18358 159.539387 
L 234.18358 159.825519 
L 235.705398 159.825519 
L 235.705398 158.97838 
L 237.227216 158.97838 
L 237.227216 160.606277 
L 238.749034 160.606277 
L 238.749034 156.725534 
L 240.270852 156.725534 
L 240.270852 159.393622 
L 241.79267 159.393622 
L 241.79267 150.550465 
L 243.314489 150.550465 
L 243.314489 160.739567 
L 244.836307 160.739567 
L 244.836307 167.734174 
L 246.358125 167.734174 
L 246.358125 165.900821 
L 247.879943 165.900821 
L 247.879943 164.005974 
L 249.401761 164.005974 
L 249.401761 156.8471 
L 250.92358 156.8471 
L 250.92358 162.580783 
L 252.445398 162.580783 
L 252.445398 163.598771 
L 253.967216 163.598771 
L 253.967216 158.526459 
L 255.489034 158.526459 
L 255.489034 167.176667 
L 257.010852 167.176667 
L 257.010852 164.717039 
L 258.53267 164.717039 
L 258.53267 167.485792 
L 260.054489 167.485792 
L 260.054489 155.682993 
L 261.576307 155.682993 
L 261.576307 156.434672 
L 263.098125 156.434672 
L 263.098125 157.555051 
L 264.619943 157.555051 
L 264.619943 158.514042 
L 267.66358 158.604678 
L 267.66358 155.398879 
L 269.185398 155.398879 
L 269.185398 159.093825 
L 270.707216 159.093825 
L 270.707216 153.663914 
L 272.229034 153.663914 
L 272.229034 156.249036 
L 273.750852 156.249036 
L 273.750852 153.849383 
L 275.27267 153.849383 
L 275.27267 163.377506 
L 276.794489 163.377506 
L 276.794489 162.723449 
L 278.316307 162.723449 
L 278.316307 159.720609 
L 279.838125 159.720609 
L 279.838125 157.874277 
L 281.359943 157.874277 
L 281.359943 158.119622 
L 282.881761 158.119622 
L 282.881761 159.051002 
L 284.40358 159.051002 
L 284.40358 154.527936 
L 285.925398 154.527936 
L 285.925398 168.502393 
L 287.447216 168.502393 
L 287.447216 152.509747 
L 288.969034 152.509747 
L 288.969034 159.276899 
L 290.490852 159.276899 
L 290.490852 157.758849 
L 292.01267 157.758849 
L 292.01267 155.89101 
L 293.534489 155.89101 
L 293.534489 163.051902 
L 295.056307 163.051902 
L 295.056307 169.850881 
L 296.578125 169.850881 
L 296.578125 163.892413 
L 298.099943 163.892413 
L 298.099943 165.653828 
L 299.621761 165.653828 
L 299.621761 172.496272 
L 301.14358 172.496272 
L 301.14358 168.021514 
L 302.665398 168.021514 
L 302.665398 165.773643 
L 304.187216 165.773643 
L 304.187216 164.397516 
L 305.709034 164.397516 
L 305.709034 170.455125 
L 307.230852 170.455125 
L 307.230852 164.471145 
L 308.75267 164.471145 
L 308.75267 176.370088 
L 310.274489 176.370088 
L 310.274489 168.262625 
L 311.796307 168.262625 
L 311.796307 161.04546 
L 313.318125 161.04546 
L 313.318125 161.201765 
L 314.839943 161.201765 
L 314.839943 171.041705 
L 316.361761 171.041705 
L 316.361761 167.401872 
L 317.88358 167.401872 
L 317.88358 179.972391 
L 319.405398 179.972391 
L 319.405398 163.228533 
L 320.927216 163.228533 
L 320.927216 172.78695 
L 322.449034 172.78695 
L 322.449034 169.074972 
L 323.970852 169.074972 
L 323.970852 170.716581 
L 325.49267 170.716581 
L 325.49267 176.805141 
L 327.014489 176.805141 
L 327.014489 182.000119 
L 328.536307 182.000119 
L 328.536307 167.660488 
L 330.058125 167.660488 
L 330.058125 172.012424 
L 331.579943 172.012424 
L 331.579943 177.21561 
L 333.101761 177.21561 
L 333.101761 190.422337 
L 334.62358 190.422337 
L 334.62358 183.586611 
L 336.145398 183.586611 
L 336.145398 186.063818 
L 337.667216 186.063818 
L 337.667216 206.780896 
L 339.189034 206.780896 
L 339.189034 180.64226 
L 340.710852 180.64226 
L 340.710852 198.088945 
L 342.23267 198.088945 
L 342.23267 192.446497 
L 343.754489 192.446497 
L 343.754489 207.732646 
L 345.276307 207.732646 
L 345.276307 189.931945 
L 346.798125 189.931945 
L 346.798125 207.692076 
L 348.319943 207.692076 
L 348.319943 198.159747 
L 349.841761 198.159747 
L 349.841761 218.744555 
L 351.36358 218.744555 
L 351.36358 195.447772 
L 352.885398 195.447772 
L 352.885398 202.948477 
L 354.407216 202.948477 
L 354.407216 198.292115 
L 355.929034 198.292115 
L 355.929034 230.078055 
L 357.450852 230.078055 
L 357.450852 242.310618 
L 358.97267 242.310618 
L 358.97267 238.247727 
L 360.494489 238.247727 
L 360.494489 257.9123 
L 362.016307 257.9123 
L 362.016307 268.439687 
L 362.016307 268.439687 
" clip-path="url(#pb67add9fa3)" style="fill: none; stroke: #1f77b4; stroke-width: 1.5; stroke-linecap: square"/>
   </g>
   <g id="LineCollection_1">
    <path d="M 61.457216 49.628779 
L 61.457216 48.229819 
" clip-path="url(#pb67add9fa3)" style="fill: none; stroke: #1f77b4; stroke-width: 1.5"/>
    <path d="M 62.979034 22.766767 
L 62.979034 21.942292 
" clip-path="url(#pb67add9fa3)" style="fill: none; stroke: #1f77b4; stroke-width: 1.5"/>
    <path d="M 64.500852 20.321726 
L 64.500852 19.536094 
" clip-path="url(#pb67add9fa3)" style="fill: none; stroke: #1f77b4; stroke-width: 1.5"/>
    <path d="M 66.02267 20.081985 
L 66.02267 19.300063 
" clip-path="url(#pb67add9fa3)" style="fill: none; stroke: #1f77b4; stroke-width: 1.5"/>
    <path d="M 67.544489 22.500084 
L 67.544489 21.679937 
" clip-path="url(#pb67add9fa3)" style="fill: none; stroke: #1f77b4; stroke-width: 1.5"/>
    <path d="M 69.066307 22.84008 
L 69.066307 22.014411 
" clip-path="url(#pb67add9fa3)" style="fill: none; stroke: #1f77b4; stroke-width: 1.5"/>
    <path d="M 70.588125 22.841917 
L 70.588125 22.016218 
" clip-path="url(#pb67add9fa3)" style="fill: none; stroke: #1f77b4; stroke-width: 1.5"/>
    <path d="M 72.109943 24.609778 
L 72.109943 23.75477 
" clip-path="url(#pb67add9fa3)" style="fill: none; stroke: #1f77b4; stroke-width: 1.5"/>
    <path d="M 73.631761 25.932767 
L 73.631761 25.055152 
" clip-path="url(#pb67add9fa3)" style="fill: none; stroke: #1f77b4; stroke-width: 1.5"/>
    <path d="M 75.15358 25.378815 
L 75.15358 24.510737 
" clip-path="url(#pb67add9fa3)" style="fill: none; stroke: #1f77b4; stroke-width: 1.5"/>
    <path d="M 76.675398 26.278639 
L 76.675398 25.395017 
" clip-path="url(#pb67add9fa3)" style="fill: none; stroke: #1f77b4; stroke-width: 1.5"/>
    <path d="M 78.197216 28.588927 
L 78.197216 27.66412 
" clip-path="url(#pb67add9fa3)" style="fill: none; stroke: #1f77b4; stroke-width: 1.5"/>
    <path d="M 79.719034 30.284732 
L 79.719034 29.32849 
" clip-path="url(#pb67add9fa3)" style="fill: none; stroke: #1f77b4; stroke-width: 1.5"/>
    <path d="M 81.240852 31.163815 
L 81.240852 30.190862 
" clip-path="url(#pb67add9fa3)" style="fill: none; stroke: #1f77b4; stroke-width: 1.5"/>
    <path d="M 82.76267 33.196495 
L 82.76267 32.183789 
" clip-path="url(#pb67add9fa3)" style="fill: none; stroke: #1f77b4; stroke-width: 1.5"/>
    <path d="M 84.284489 34.628435 
L 84.284489 33.586762 
" clip-path="url(#pb67add9fa3)" style="fill: none; stroke: #1f77b4; stroke-width: 1.5"/>
    <path d="M 85.806307 35.34154 
L 85.806307 34.285138 
" clip-path="url(#pb67add9fa3)" style="fill: none; stroke: #1f77b4; stroke-width: 1.5"/>
    <path d="M 87.328125 38.250473 
L 87.328125 37.131818 
" clip-path="url(#pb67add9fa3)" style="fill: none; stroke: #1f77b4; stroke-width: 1.5"/>
    <path d="M 88.849943 41.086889 
L 88.849943 39.904044 
" clip-path="url(#pb67add9fa3)" style="fill: none; stroke: #1f77b4; stroke-width: 1.5"/>
    <path d="M 90.371761 44.330806 
L 90.371761 43.070077 
" clip-path="url(#pb67add9fa3)" style="fill: none; stroke: #1f77b4; stroke-width: 1.5"/>
    <path d="M 91.89358 45.474714 
L 91.89358 44.185329 
" clip-path="url(#pb67add9fa3)" style="fill: none; stroke: #1f77b4; stroke-width: 1.5"/>
    <path d="M 93.415398 50.103409 
L 93.415398 48.691359 
" clip-path="url(#pb67add9fa3)" style="fill: none; stroke: #1f77b4; stroke-width: 1.5"/>
    <path d="M 94.937216 53.670991 
L 94.937216 52.156606 
" clip-path="url(#pb67add9fa3)" style="fill: none; stroke: #1f77b4; stroke-width: 1.5"/>
    <path d="M 96.459034 62.154947 
L 96.459034 60.366937 
" clip-path="url(#pb67add9fa3)" style="fill: none; stroke: #1f77b4; stroke-width: 1.5"/>
    <path d="M 97.980852 75.467396 
L 97.980852 73.149296 
" clip-path="url(#pb67add9fa3)" style="fill: none; stroke: #1f77b4; stroke-width: 1.5"/>
    <path d="M 99.50267 78.750118 
L 99.50267 76.279271 
" clip-path="url(#pb67add9fa3)" style="fill: none; stroke: #1f77b4; stroke-width: 1.5"/>
    <path d="M 101.024489 87.56653 
L 101.024489 84.635186 
" clip-path="url(#pb67add9fa3)" style="fill: none; stroke: #1f77b4; stroke-width: 1.5"/>
    <path d="M 102.546307 89.975617 
L 102.546307 86.904545 
" clip-path="url(#pb67add9fa3)" style="fill: none; stroke: #1f77b4; stroke-width: 1.5"/>
    <path d="M 104.068125 95.075308 
L 104.068125 91.686789 
" clip-path="url(#pb67add9fa3)" style="fill: none; stroke: #1f77b4; stroke-width: 1.5"/>
    <path d="M 105.589943 92.973084 
L 105.589943 89.719104 
" clip-path="url(#pb67add9fa3)" style="fill: none; stroke: #1f77b4; stroke-width: 1.5"/>
    <path d="M 107.111761 91.778586 
L 107.111761 88.598728 
" clip-path="url(#pb67add9fa3)" style="fill: none; stroke: #1f77b4; stroke-width: 1.5"/>
    <path d="M 108.63358 89.800189 
L 108.63358 86.739507 
" clip-path="url(#pb67add9fa3)" style="fill: none; stroke: #1f77b4; stroke-width: 1.5"/>
    <path d="M 110.155398 94.654848 
L 110.155398 91.293663 
" clip-path="url(#pb67add9fa3)" style="fill: none; stroke: #1f77b4; stroke-width: 1.5"/>
    <path d="M 111.677216 93.286957 
L 111.677216 90.013224 
" clip-path="url(#pb67add9fa3)" style="fill: none; stroke: #1f77b4; stroke-width: 1.5"/>
    <path d="M 113.199034 90.801828 
L 113.199034 87.681362 
" clip-path="url(#pb67add9fa3)" style="fill: none; stroke: #1f77b4; stroke-width: 1.5"/>
    <path d="M 114.720852 94.195719 
L 114.720852 90.864136 
" clip-path="url(#pb67add9fa3)" style="fill: none; stroke: #1f77b4; stroke-width: 1.5"/>
    <path d="M 116.24267 98.977831 
L 116.24267 95.325136 
" clip-path="url(#pb67add9fa3)" style="fill: none; stroke: #1f77b4; stroke-width: 1.5"/>
    <path d="M 117.764489 106.645757 
L 117.764489 102.414862 
" clip-path="url(#pb67add9fa3)" style="fill: none; stroke: #1f77b4; stroke-width: 1.5"/>
    <path d="M 119.286307 109.825163 
L 119.286307 105.32952 
" clip-path="url(#pb67add9fa3)" style="fill: none; stroke: #1f77b4; stroke-width: 1.5"/>
    <path d="M 120.808125 113.736386 
L 120.808125 108.893211 
" clip-path="url(#pb67add9fa3)" style="fill: none; stroke: #1f77b4; stroke-width: 1.5"/>
    <path d="M 122.329943 121.820071 
L 122.329943 116.175495 
" clip-path="url(#pb67add9fa3)" style="fill: none; stroke: #1f77b4; stroke-width: 1.5"/>
    <path d="M 123.851761 126.086705 
L 123.851761 119.969774 
" clip-path="url(#pb67add9fa3)" style="fill: none; stroke: #1f77b4; stroke-width: 1.5"/>
    <path d="M 125.37358 133.27819 
L 125.37358 126.279408 
" clip-path="url(#pb67add9fa3)" style="fill: none; stroke: #1f77b4; stroke-width: 1.5"/>
    <path d="M 126.895398 140.402524 
L 126.895398 132.413252 
" clip-path="url(#pb67add9fa3)" style="fill: none; stroke: #1f77b4; stroke-width: 1.5"/>
    <path d="M 128.417216 150.556559 
L 128.417216 140.928021 
" clip-path="url(#pb67add9fa3)" style="fill: none; stroke: #1f77b4; stroke-width: 1.5"/>
    <path d="M 129.939034 153.975703 
L 129.939034 143.728621 
" clip-path="url(#pb67add9fa3)" style="fill: none; stroke: #1f77b4; stroke-width: 1.5"/>
    <path d="M 131.460852 161.018403 
L 131.460852 149.380857 
" clip-path="url(#pb67add9fa3)" style="fill: none; stroke: #1f77b4; stroke-width: 1.5"/>
    <path d="M 132.98267 162.909196 
L 132.98267 150.870118 
" clip-path="url(#pb67add9fa3)" style="fill: none; stroke: #1f77b4; stroke-width: 1.5"/>
    <path d="M 134.504489 160.33427 
L 134.504489 148.838979 
" clip-path="url(#pb67add9fa3)" style="fill: none; stroke: #1f77b4; stroke-width: 1.5"/>
    <path d="M 136.026307 160.690007 
L 136.026307 149.120945 
" clip-path="url(#pb67add9fa3)" style="fill: none; stroke: #1f77b4; stroke-width: 1.5"/>
    <path d="M 137.548125 155.127186 
L 137.548125 144.663705 
" clip-path="url(#pb67add9fa3)" style="fill: none; stroke: #1f77b4; stroke-width: 1.5"/>
    <path d="M 139.069943 156.712138 
L 139.069943 145.943938 
" clip-path="url(#pb67add9fa3)" style="fill: none; stroke: #1f77b4; stroke-width: 1.5"/>
    <path d="M 140.591761 149.030259 
L 140.591761 139.666566 
" clip-path="url(#pb67add9fa3)" style="fill: none; stroke: #1f77b4; stroke-width: 1.5"/>
    <path d="M 142.11358 146.835445 
L 142.11358 137.840805 
" clip-path="url(#pb67add9fa3)" style="fill: none; stroke: #1f77b4; stroke-width: 1.5"/>
    <path d="M 143.635398 148.655598 
L 143.635398 139.355879 
" clip-path="url(#pb67add9fa3)" style="fill: none; stroke: #1f77b4; stroke-width: 1.5"/>
    <path d="M 145.157216 144.831867 
L 145.157216 136.16231 
" clip-path="url(#pb67add9fa3)" style="fill: none; stroke: #1f77b4; stroke-width: 1.5"/>
    <path d="M 146.679034 141.86476 
L 146.679034 133.656612 
" clip-path="url(#pb67add9fa3)" style="fill: none; stroke: #1f77b4; stroke-width: 1.5"/>
    <path d="M 148.200852 137.787363 
L 148.200852 130.176011 
" clip-path="url(#pb67add9fa3)" style="fill: none; stroke: #1f77b4; stroke-width: 1.5"/>
    <path d="M 149.72267 138.451898 
L 149.72267 130.746131 
" clip-path="url(#pb67add9fa3)" style="fill: none; stroke: #1f77b4; stroke-width: 1.5"/>
    <path d="M 151.244489 132.303413 
L 151.244489 125.430818 
" clip-path="url(#pb67add9fa3)" style="fill: none; stroke: #1f77b4; stroke-width: 1.5"/>
    <path d="M 152.766307 136.288224 
L 152.766307 128.885902 
" clip-path="url(#pb67add9fa3)" style="fill: none; stroke: #1f77b4; stroke-width: 1.5"/>
    <path d="M 154.288125 137.48257 
L 154.288125 129.914159 
" clip-path="url(#pb67add9fa3)" style="fill: none; stroke: #1f77b4; stroke-width: 1.5"/>
    <path d="M 155.809943 145.804338 
L 155.809943 136.978384 
" clip-path="url(#pb67add9fa3)" style="fill: none; stroke: #1f77b4; stroke-width: 1.5"/>
    <path d="M 157.331761 138.548724 
L 157.331761 130.829109 
" clip-path="url(#pb67add9fa3)" style="fill: none; stroke: #1f77b4; stroke-width: 1.5"/>
    <path d="M 158.85358 134.497456 
L 158.85358 127.337769 
" clip-path="url(#pb67add9fa3)" style="fill: none; stroke: #1f77b4; stroke-width: 1.5"/>
    <path d="M 160.375398 133.905417 
L 160.375398 126.82429 
" clip-path="url(#pb67add9fa3)" style="fill: none; stroke: #1f77b4; stroke-width: 1.5"/>
    <path d="M 161.897216 139.104378 
L 161.897216 131.304843 
" clip-path="url(#pb67add9fa3)" style="fill: none; stroke: #1f77b4; stroke-width: 1.5"/>
    <path d="M 163.419034 138.490421 
L 163.419034 130.779147 
" clip-path="url(#pb67add9fa3)" style="fill: none; stroke: #1f77b4; stroke-width: 1.5"/>
    <path d="M 164.940852 136.895909 
L 164.940852 129.409512 
" clip-path="url(#pb67add9fa3)" style="fill: none; stroke: #1f77b4; stroke-width: 1.5"/>
    <path d="M 166.46267 137.844917 
L 166.46267 130.225431 
" clip-path="url(#pb67add9fa3)" style="fill: none; stroke: #1f77b4; stroke-width: 1.5"/>
    <path d="M 167.984489 140.845088 
L 167.984489 132.790152 
" clip-path="url(#pb67add9fa3)" style="fill: none; stroke: #1f77b4; stroke-width: 1.5"/>
    <path d="M 169.506307 146.179618 
L 169.506307 137.292612 
" clip-path="url(#pb67add9fa3)" style="fill: none; stroke: #1f77b4; stroke-width: 1.5"/>
    <path d="M 171.028125 142.828986 
L 171.028125 134.473462 
" clip-path="url(#pb67add9fa3)" style="fill: none; stroke: #1f77b4; stroke-width: 1.5"/>
    <path d="M 172.549943 145.253856 
L 172.549943 136.516752 
" clip-path="url(#pb67add9fa3)" style="fill: none; stroke: #1f77b4; stroke-width: 1.5"/>
    <path d="M 174.071761 158.460513 
L 174.071761 147.346766 
" clip-path="url(#pb67add9fa3)" style="fill: none; stroke: #1f77b4; stroke-width: 1.5"/>
    <path d="M 175.59358 154.775305 
L 175.59358 144.378394 
" clip-path="url(#pb67add9fa3)" style="fill: none; stroke: #1f77b4; stroke-width: 1.5"/>
    <path d="M 177.115398 149.967605 
L 177.115398 140.442072 
" clip-path="url(#pb67add9fa3)" style="fill: none; stroke: #1f77b4; stroke-width: 1.5"/>
    <path d="M 178.637216 157.14142 
L 178.637216 146.2893 
" clip-path="url(#pb67add9fa3)" style="fill: none; stroke: #1f77b4; stroke-width: 1.5"/>
    <path d="M 180.159034 152.918471 
L 180.159034 142.866447 
" clip-path="url(#pb67add9fa3)" style="fill: none; stroke: #1f77b4; stroke-width: 1.5"/>
    <path d="M 181.680852 158.766116 
L 181.680852 147.590941 
" clip-path="url(#pb67add9fa3)" style="fill: none; stroke: #1f77b4; stroke-width: 1.5"/>
    <path d="M 183.20267 165.641261 
L 183.20267 152.99977 
" clip-path="url(#pb67add9fa3)" style="fill: none; stroke: #1f77b4; stroke-width: 1.5"/>
    <path d="M 184.724489 165.751477 
L 184.724489 153.085121 
" clip-path="url(#pb67add9fa3)" style="fill: none; stroke: #1f77b4; stroke-width: 1.5"/>
    <path d="M 186.246307 168.250034 
L 186.246307 155.008012 
" clip-path="url(#pb67add9fa3)" style="fill: none; stroke: #1f77b4; stroke-width: 1.5"/>
    <path d="M 187.768125 161.571724 
L 187.768125 149.817953 
" clip-path="url(#pb67add9fa3)" style="fill: none; stroke: #1f77b4; stroke-width: 1.5"/>
    <path d="M 189.289943 164.435316 
L 189.289943 152.06302 
" clip-path="url(#pb67add9fa3)" style="fill: none; stroke: #1f77b4; stroke-width: 1.5"/>
    <path d="M 190.811761 163.487058 
L 190.811761 151.322777 
" clip-path="url(#pb67add9fa3)" style="fill: none; stroke: #1f77b4; stroke-width: 1.5"/>
    <path d="M 192.33358 164.814282 
L 192.33358 152.357957 
" clip-path="url(#pb67add9fa3)" style="fill: none; stroke: #1f77b4; stroke-width: 1.5"/>
    <path d="M 193.855398 165.432144 
L 193.855398 152.83771 
" clip-path="url(#pb67add9fa3)" style="fill: none; stroke: #1f77b4; stroke-width: 1.5"/>
    <path d="M 195.377216 168.304928 
L 195.377216 155.049998 
" clip-path="url(#pb67add9fa3)" style="fill: none; stroke: #1f77b4; stroke-width: 1.5"/>
    <path d="M 196.899034 162.817341 
L 196.899034 150.798057 
" clip-path="url(#pb67add9fa3)" style="fill: none; stroke: #1f77b4; stroke-width: 1.5"/>
    <path d="M 198.420852 171.916451 
L 198.420852 157.787005 
" clip-path="url(#pb67add9fa3)" style="fill: none; stroke: #1f77b4; stroke-width: 1.5"/>
    <path d="M 199.94267 166.811704 
L 199.94267 153.90389 
" clip-path="url(#pb67add9fa3)" style="fill: none; stroke: #1f77b4; stroke-width: 1.5"/>
    <path d="M 201.464489 160.727447 
L 201.464489 149.150596 
" clip-path="url(#pb67add9fa3)" style="fill: none; stroke: #1f77b4; stroke-width: 1.5"/>
    <path d="M 202.986307 164.093533 
L 202.986307 151.796581 
" clip-path="url(#pb67add9fa3)" style="fill: none; stroke: #1f77b4; stroke-width: 1.5"/>
    <path d="M 204.508125 165.014229 
L 204.508125 152.513361 
" clip-path="url(#pb67add9fa3)" style="fill: none; stroke: #1f77b4; stroke-width: 1.5"/>
    <path d="M 206.029943 157.734286 
L 206.029943 146.765283 
" clip-path="url(#pb67add9fa3)" style="fill: none; stroke: #1f77b4; stroke-width: 1.5"/>
    <path d="M 207.551761 161.122338 
L 207.551761 149.463041 
" clip-path="url(#pb67add9fa3)" style="fill: none; stroke: #1f77b4; stroke-width: 1.5"/>
    <path d="M 209.07358 160.984478 
L 209.07358 149.354024 
" clip-path="url(#pb67add9fa3)" style="fill: none; stroke: #1f77b4; stroke-width: 1.5"/>
    <path d="M 210.595398 151.352041 
L 210.595398 141.582747 
" clip-path="url(#pb67add9fa3)" style="fill: none; stroke: #1f77b4; stroke-width: 1.5"/>
    <path d="M 212.117216 160.829944 
L 212.117216 149.231745 
" clip-path="url(#pb67add9fa3)" style="fill: none; stroke: #1f77b4; stroke-width: 1.5"/>
    <path d="M 213.639034 149.348314 
L 213.639034 139.929994 
" clip-path="url(#pb67add9fa3)" style="fill: none; stroke: #1f77b4; stroke-width: 1.5"/>
    <path d="M 215.160852 163.023606 
L 215.160852 150.959832 
" clip-path="url(#pb67add9fa3)" style="fill: none; stroke: #1f77b4; stroke-width: 1.5"/>
    <path d="M 216.68267 158.795191 
L 216.68267 147.614156 
" clip-path="url(#pb67add9fa3)" style="fill: none; stroke: #1f77b4; stroke-width: 1.5"/>
    <path d="M 218.204489 147.734546 
L 218.204489 138.590383 
" clip-path="url(#pb67add9fa3)" style="fill: none; stroke: #1f77b4; stroke-width: 1.5"/>
    <path d="M 219.726307 155.173596 
L 219.726307 144.701306 
" clip-path="url(#pb67add9fa3)" style="fill: none; stroke: #1f77b4; stroke-width: 1.5"/>
    <path d="M 221.248125 157.248184 
L 221.248125 146.3751 
" clip-path="url(#pb67add9fa3)" style="fill: none; stroke: #1f77b4; stroke-width: 1.5"/>
    <path d="M 222.769943 171.641788 
L 222.769943 157.580625 
" clip-path="url(#pb67add9fa3)" style="fill: none; stroke: #1f77b4; stroke-width: 1.5"/>
    <path d="M 224.291761 159.895588 
L 224.291761 148.49068 
" clip-path="url(#pb67add9fa3)" style="fill: none; stroke: #1f77b4; stroke-width: 1.5"/>
    <path d="M 225.81358 162.827487 
L 225.81358 150.806017 
" clip-path="url(#pb67add9fa3)" style="fill: none; stroke: #1f77b4; stroke-width: 1.5"/>
    <path d="M 227.335398 164.486228 
L 227.335398 152.102673 
" clip-path="url(#pb67add9fa3)" style="fill: none; stroke: #1f77b4; stroke-width: 1.5"/>
    <path d="M 228.857216 151.544014 
L 228.857216 141.740469 
" clip-path="url(#pb67add9fa3)" style="fill: none; stroke: #1f77b4; stroke-width: 1.5"/>
    <path d="M 230.379034 162.162798 
L 230.379034 150.283707 
" clip-path="url(#pb67add9fa3)" style="fill: none; stroke: #1f77b4; stroke-width: 1.5"/>
    <path d="M 231.900852 164.688884 
L 231.900852 152.260421 
" clip-path="url(#pb67add9fa3)" style="fill: none; stroke: #1f77b4; stroke-width: 1.5"/>
    <path d="M 233.42267 166.813231 
L 233.42267 153.905067 
" clip-path="url(#pb67add9fa3)" style="fill: none; stroke: #1f77b4; stroke-width: 1.5"/>
    <path d="M 234.944489 167.147568 
L 234.944489 154.162401 
" clip-path="url(#pb67add9fa3)" style="fill: none; stroke: #1f77b4; stroke-width: 1.5"/>
    <path d="M 236.466307 166.15877 
L 236.466307 153.400143 
" clip-path="url(#pb67add9fa3)" style="fill: none; stroke: #1f77b4; stroke-width: 1.5"/>
    <path d="M 237.988125 168.061743 
L 237.988125 154.863911 
" clip-path="url(#pb67add9fa3)" style="fill: none; stroke: #1f77b4; stroke-width: 1.5"/>
    <path d="M 239.509943 163.544259 
L 239.509943 151.367521 
" clip-path="url(#pb67add9fa3)" style="fill: none; stroke: #1f77b4; stroke-width: 1.5"/>
    <path d="M 241.031761 166.64305 
L 241.031761 153.773922 
" clip-path="url(#pb67add9fa3)" style="fill: none; stroke: #1f77b4; stroke-width: 1.5"/>
    <path d="M 242.55358 156.479552 
L 242.55358 145.756571 
" clip-path="url(#pb67add9fa3)" style="fill: none; stroke: #1f77b4; stroke-width: 1.5"/>
    <path d="M 244.075398 168.218089 
L 244.075398 154.983574 
" clip-path="url(#pb67add9fa3)" style="fill: none; stroke: #1f77b4; stroke-width: 1.5"/>
    <path d="M 245.597216 176.548015 
L 245.597216 161.22161 
" clip-path="url(#pb67add9fa3)" style="fill: none; stroke: #1f77b4; stroke-width: 1.5"/>
    <path d="M 247.119034 174.33936 
L 247.119034 159.594588 
" clip-path="url(#pb67add9fa3)" style="fill: none; stroke: #1f77b4; stroke-width: 1.5"/>
    <path d="M 248.640852 172.076232 
L 248.640852 157.906926 
" clip-path="url(#pb67add9fa3)" style="fill: none; stroke: #1f77b4; stroke-width: 1.5"/>
    <path d="M 250.16267 163.684801 
L 250.16267 151.477406 
" clip-path="url(#pb67add9fa3)" style="fill: none; stroke: #1f77b4; stroke-width: 1.5"/>
    <path d="M 251.684489 170.3864 
L 251.684489 156.633583 
" clip-path="url(#pb67add9fa3)" style="fill: none; stroke: #1f77b4; stroke-width: 1.5"/>
    <path d="M 253.206307 171.592363 
L 253.206307 157.543455 
" clip-path="url(#pb67add9fa3)" style="fill: none; stroke: #1f77b4; stroke-width: 1.5"/>
    <path d="M 254.728125 165.632569 
L 254.728125 152.993037 
" clip-path="url(#pb67add9fa3)" style="fill: none; stroke: #1f77b4; stroke-width: 1.5"/>
    <path d="M 256.249943 175.874331 
L 256.249943 160.727464 
" clip-path="url(#pb67add9fa3)" style="fill: none; stroke: #1f77b4; stroke-width: 1.5"/>
    <path d="M 257.771761 172.923245 
L 257.771761 158.540957 
" clip-path="url(#pb67add9fa3)" style="fill: none; stroke: #1f77b4; stroke-width: 1.5"/>
    <path d="M 259.29358 176.247648 
L 259.29358 161.001524 
" clip-path="url(#pb67add9fa3)" style="fill: none; stroke: #1f77b4; stroke-width: 1.5"/>
    <path d="M 260.815398 162.341432 
L 260.815398 150.424228 
" clip-path="url(#pb67add9fa3)" style="fill: none; stroke: #1f77b4; stroke-width: 1.5"/>
    <path d="M 262.337216 163.208241 
L 262.337216 151.104517 
" clip-path="url(#pb67add9fa3)" style="fill: none; stroke: #1f77b4; stroke-width: 1.5"/>
    <path d="M 263.859034 164.504461 
L 263.859034 152.116872 
" clip-path="url(#pb67add9fa3)" style="fill: none; stroke: #1f77b4; stroke-width: 1.5"/>
    <path d="M 265.380852 165.618124 
L 265.380852 152.981848 
" clip-path="url(#pb67add9fa3)" style="fill: none; stroke: #1f77b4; stroke-width: 1.5"/>
    <path d="M 266.90267 165.723582 
L 266.90267 153.063523 
" clip-path="url(#pb67add9fa3)" style="fill: none; stroke: #1f77b4; stroke-width: 1.5"/>
    <path d="M 268.424489 162.014384 
L 268.424489 150.166873 
" clip-path="url(#pb67add9fa3)" style="fill: none; stroke: #1f77b4; stroke-width: 1.5"/>
    <path d="M 269.946307 166.293333 
L 269.946307 153.504089 
" clip-path="url(#pb67add9fa3)" style="fill: none; stroke: #1f77b4; stroke-width: 1.5"/>
    <path d="M 271.468125 160.023962 
L 271.468125 148.592672 
" clip-path="url(#pb67add9fa3)" style="fill: none; stroke: #1f77b4; stroke-width: 1.5"/>
    <path d="M 272.989943 162.993963 
L 272.989943 150.936592 
" clip-path="url(#pb67add9fa3)" style="fill: none; stroke: #1f77b4; stroke-width: 1.5"/>
    <path d="M 274.511761 160.236199 
L 274.511761 148.761171 
" clip-path="url(#pb67add9fa3)" style="fill: none; stroke: #1f77b4; stroke-width: 1.5"/>
    <path d="M 276.03358 171.329796 
L 276.03358 157.345837 
" clip-path="url(#pb67add9fa3)" style="fill: none; stroke: #1f77b4; stroke-width: 1.5"/>
    <path d="M 277.555398 170.555097 
L 277.555398 156.761201 
" clip-path="url(#pb67add9fa3)" style="fill: none; stroke: #1f77b4; stroke-width: 1.5"/>
    <path d="M 279.077216 167.024941 
L 279.077216 154.068065 
" clip-path="url(#pb67add9fa3)" style="fill: none; stroke: #1f77b4; stroke-width: 1.5"/>
    <path d="M 280.599034 164.874742 
L 280.599034 152.404963 
" clip-path="url(#pb67add9fa3)" style="fill: none; stroke: #1f77b4; stroke-width: 1.5"/>
    <path d="M 282.120852 165.159617 
L 282.120852 152.62627 
" clip-path="url(#pb67add9fa3)" style="fill: none; stroke: #1f77b4; stroke-width: 1.5"/>
    <path d="M 283.64267 166.243412 
L 283.64267 153.465534 
" clip-path="url(#pb67add9fa3)" style="fill: none; stroke: #1f77b4; stroke-width: 1.5"/>
    <path d="M 285.164489 161.013776 
L 285.164489 149.377198 
" clip-path="url(#pb67add9fa3)" style="fill: none; stroke: #1f77b4; stroke-width: 1.5"/>
    <path d="M 286.686307 177.479348 
L 286.686307 161.901627 
" clip-path="url(#pb67add9fa3)" style="fill: none; stroke: #1f77b4; stroke-width: 1.5"/>
    <path d="M 288.208125 158.706044 
L 288.208125 147.542969 
" clip-path="url(#pb67add9fa3)" style="fill: none; stroke: #1f77b4; stroke-width: 1.5"/>
    <path d="M 289.729943 166.506845 
L 289.729943 153.668882 
" clip-path="url(#pb67add9fa3)" style="fill: none; stroke: #1f77b4; stroke-width: 1.5"/>
    <path d="M 291.251761 164.740804 
L 291.251761 152.300811 
" clip-path="url(#pb67add9fa3)" style="fill: none; stroke: #1f77b4; stroke-width: 1.5"/>
    <path d="M 292.77358 162.581085 
L 292.77358 150.612576 
" clip-path="url(#pb67add9fa3)" style="fill: none; stroke: #1f77b4; stroke-width: 1.5"/>
    <path d="M 294.295398 170.943866 
L 294.295398 157.054882 
" clip-path="url(#pb67add9fa3)" style="fill: none; stroke: #1f77b4; stroke-width: 1.5"/>
    <path d="M 295.817216 179.122934 
L 295.817216 163.092764 
" clip-path="url(#pb67add9fa3)" style="fill: none; stroke: #1f77b4; stroke-width: 1.5"/>
    <path d="M 297.339034 171.941205 
L 297.339034 157.80559 
" clip-path="url(#pb67add9fa3)" style="fill: none; stroke: #1f77b4; stroke-width: 1.5"/>
    <path d="M 298.860852 174.043259 
L 298.860852 159.374948 
" clip-path="url(#pb67add9fa3)" style="fill: none; stroke: #1f77b4; stroke-width: 1.5"/>
    <path d="M 300.38267 182.38172 
L 300.38267 165.419959 
" clip-path="url(#pb67add9fa3)" style="fill: none; stroke: #1f77b4; stroke-width: 1.5"/>
    <path d="M 301.904489 176.89595 
L 301.904489 161.476081 
" clip-path="url(#pb67add9fa3)" style="fill: none; stroke: #1f77b4; stroke-width: 1.5"/>
    <path d="M 303.426307 174.186854 
L 303.426307 159.481507 
" clip-path="url(#pb67add9fa3)" style="fill: none; stroke: #1f77b4; stroke-width: 1.5"/>
    <path d="M 304.948125 172.542304 
L 304.948125 158.256156 
" clip-path="url(#pb67add9fa3)" style="fill: none; stroke: #1f77b4; stroke-width: 1.5"/>
    <path d="M 306.469943 179.863161 
L 306.469943 163.625445 
" clip-path="url(#pb67add9fa3)" style="fill: none; stroke: #1f77b4; stroke-width: 1.5"/>
    <path d="M 307.991761 172.630038 
L 307.991761 158.321799 
" clip-path="url(#pb67add9fa3)" style="fill: none; stroke: #1f77b4; stroke-width: 1.5"/>
    <path d="M 309.51358 187.245098 
L 309.51358 168.804465 
" clip-path="url(#pb67add9fa3)" style="fill: none; stroke: #1f77b4; stroke-width: 1.5"/>
    <path d="M 311.035398 177.188289 
L 311.035398 161.689499 
" clip-path="url(#pb67add9fa3)" style="fill: none; stroke: #1f77b4; stroke-width: 1.5"/>
    <path d="M 312.557216 168.577208 
L 312.557216 155.258084 
" clip-path="url(#pb67add9fa3)" style="fill: none; stroke: #1f77b4; stroke-width: 1.5"/>
    <path d="M 314.079034 168.760879 
L 314.079034 155.398294 
" clip-path="url(#pb67add9fa3)" style="fill: none; stroke: #1f77b4; stroke-width: 1.5"/>
    <path d="M 315.600852 180.584041 
L 315.600852 164.141925 
" clip-path="url(#pb67add9fa3)" style="fill: none; stroke: #1f77b4; stroke-width: 1.5"/>
    <path d="M 317.12267 176.146246 
L 317.12267 160.92714 
" clip-path="url(#pb67add9fa3)" style="fill: none; stroke: #1f77b4; stroke-width: 1.5"/>
    <path d="M 318.644489 191.879283 
L 318.644489 171.926012 
" clip-path="url(#pb67add9fa3)" style="fill: none; stroke: #1f77b4; stroke-width: 1.5"/>
    <path d="M 320.166307 171.153155 
L 320.166307 157.212738 
" clip-path="url(#pb67add9fa3)" style="fill: none; stroke: #1f77b4; stroke-width: 1.5"/>
    <path d="M 321.688125 182.74274 
L 321.688125 165.674893 
" clip-path="url(#pb67add9fa3)" style="fill: none; stroke: #1f77b4; stroke-width: 1.5"/>
    <path d="M 323.209943 178.175839 
L 323.209943 162.407788 
" clip-path="url(#pb67add9fa3)" style="fill: none; stroke: #1f77b4; stroke-width: 1.5"/>
    <path d="M 324.731761 180.184196 
L 324.731761 163.855732 
" clip-path="url(#pb67add9fa3)" style="fill: none; stroke: #1f77b4; stroke-width: 1.5"/>
    <path d="M 326.25358 187.798716 
L 326.25358 169.182792 
" clip-path="url(#pb67add9fa3)" style="fill: none; stroke: #1f77b4; stroke-width: 1.5"/>
    <path d="M 327.775398 194.541959 
L 327.775398 173.671882 
" clip-path="url(#pb67add9fa3)" style="fill: none; stroke: #1f77b4; stroke-width: 1.5"/>
    <path d="M 329.297216 176.458869 
L 329.297216 161.15633 
" clip-path="url(#pb67add9fa3)" style="fill: none; stroke: #1f77b4; stroke-width: 1.5"/>
    <path d="M 330.819034 181.782112 
L 330.819034 164.995262 
" clip-path="url(#pb67add9fa3)" style="fill: none; stroke: #1f77b4; stroke-width: 1.5"/>
    <path d="M 332.340852 188.322517 
L 332.340852 169.539408 
" clip-path="url(#pb67add9fa3)" style="fill: none; stroke: #1f77b4; stroke-width: 1.5"/>
    <path d="M 333.86267 206.12112 
L 333.86267 180.833157 
" clip-path="url(#pb67add9fa3)" style="fill: none; stroke: #1f77b4; stroke-width: 1.5"/>
    <path d="M 335.384489 196.655453 
L 335.384489 175.032081 
" clip-path="url(#pb67add9fa3)" style="fill: none; stroke: #1f77b4; stroke-width: 1.5"/>
    <path d="M 336.906307 200.013851 
L 336.906307 177.145645 
" clip-path="url(#pb67add9fa3)" style="fill: none; stroke: #1f77b4; stroke-width: 1.5"/>
    <path d="M 338.428125 232.684351 
L 338.428125 194.298449 
" clip-path="url(#pb67add9fa3)" style="fill: none; stroke: #1f77b4; stroke-width: 1.5"/>
    <path d="M 339.949943 192.754327 
L 339.949943 172.503675 
" clip-path="url(#pb67add9fa3)" style="fill: none; stroke: #1f77b4; stroke-width: 1.5"/>
    <path d="M 341.471761 217.664676 
L 341.471761 187.219407 
" clip-path="url(#pb67add9fa3)" style="fill: none; stroke: #1f77b4; stroke-width: 1.5"/>
    <path d="M 342.99358 209.05762 
L 342.99358 182.531855 
" clip-path="url(#pb67add9fa3)" style="fill: none; stroke: #1f77b4; stroke-width: 1.5"/>
    <path d="M 344.515398 234.51754 
L 344.515398 195.062846 
" clip-path="url(#pb67add9fa3)" style="fill: none; stroke: #1f77b4; stroke-width: 1.5"/>
    <path d="M 346.037216 205.419923 
L 346.037216 180.420281 
" clip-path="url(#pb67add9fa3)" style="fill: none; stroke: #1f77b4; stroke-width: 1.5"/>
    <path d="M 347.559034 234.438412 
L 347.559034 195.030306 
" clip-path="url(#pb67add9fa3)" style="fill: none; stroke: #1f77b4; stroke-width: 1.5"/>
    <path d="M 349.080852 217.777282 
L 349.080852 187.277773 
" clip-path="url(#pb67add9fa3)" style="fill: none; stroke: #1f77b4; stroke-width: 1.5"/>
    <path d="M 350.60267 261.30132 
L 350.60267 203.748412 
" clip-path="url(#pb67add9fa3)" style="fill: none; stroke: #1f77b4; stroke-width: 1.5"/>
    <path d="M 352.124489 213.550638 
L 352.124489 185.034041 
" clip-path="url(#pb67add9fa3)" style="fill: none; stroke: #1f77b4; stroke-width: 1.5"/>
    <path d="M 353.646307 225.727949 
L 353.646307 191.198818 
" clip-path="url(#pb67add9fa3)" style="fill: none; stroke: #1f77b4; stroke-width: 1.5"/>
    <path d="M 355.168125 217.988153 
L 355.168125 187.386863 
" clip-path="url(#pb67add9fa3)" style="fill: none; stroke: #1f77b4; stroke-width: 1.5"/>
    <path d="M 356.689943 268.439687 
L 356.689943 212.376517 
" clip-path="url(#pb67add9fa3)" style="fill: none; stroke: #1f77b4; stroke-width: 1.5"/>
    <path d="M 358.211761 268.439687 
L 358.211761 221.331517 
" clip-path="url(#pb67add9fa3)" style="fill: none; stroke: #1f77b4; stroke-width: 1.5"/>
    <path d="M 359.73358 268.439687 
L 359.73358 218.398218 
" clip-path="url(#pb67add9fa3)" style="fill: none; stroke: #1f77b4; stroke-width: 1.5"/>
    <path d="M 361.255398 268.439687 
L 361.255398 232.225578 
" clip-path="url(#pb67add9fa3)" style="fill: none; stroke: #1f77b4; stroke-width: 1.5"/>
    <path d="M 362.777216 268.439687 
L 362.777216 249.909993 
" clip-path="url(#pb67add9fa3)" style="fill: none; stroke: #1f77b4; stroke-width: 1.5"/>
    <path d="M 364.299034 268.439687 
L 364.299034 247.512713 
" clip-path="url(#pb67add9fa3)" style="fill: none; stroke: #1f77b4; stroke-width: 1.5"/>
   </g>
  </g>
 </g>
 <defs>
  <clipPath id="pb67add9fa3">
   <rect x="45.478125" y="7.2" width="334.8" height="221.76"/>
  </clipPath>
 </defs>
</svg>