<?xml version="1.0" encoding="utf-8" standalone="no"?>
<!DOCTYPE svg PUBLIC "-//W3C//DTD SVG 1.1//EN"
  "http://www.w3.org/Graphics/SVG/1.1/DTD/svg11.dtd">
<svg xmlns:xlink="http://www.w3.org/1999/xlink" width="393.378125pt" height="271.238906pt" viewBox="0 0 393.378125 271.238906" xmlns="http://www.w3.org/2000/svg" version="1.1">
 <metadata>
  <rdf:RDF xmlns:dc="http://purl.org/dc/elements/1.1/" xmlns:cc="http://creativecommons.org/ns#" xmlns:rdf="http://www.w3.org/1999/02/22-rdf-syntax-ns#">
   <cc:Work>
    <dc:type rdf:resource="http://purl.org/dc/dcmitype/StillImage"/>
    <dc:date>2025-06-12T13:12:02.635410</dc:date>
    <dc:format>image/svg+xml</dc:format>
    <dc:creator>
     <cc:Agent>
      <dc:title>Matplotlib v3.10.1, https://matplotlib.org/</dc:title>
     </cc:Agent>
    </dc:creator>
   </cc:Work>
  </rdf:RDF>
 </metadata>
 <defs>
  <style type="text/css">*{stroke-linejoin: round; stroke-linecap: butt}</style>
 </defs>
 <g id="figure_1">
  <g id="patch_1">
   <path d="M 0 271.238906 
L 393.378125 271.238906 
L 393.378125 0 
L 0 0 
z
" style="fill: #ffffff"/>
  </g>
  <g id="axes_1">
   <g id="patch_2">
    <path d="M 51.378125 232.759219 
L 386.178125 232.759219 
L 386.178125 10.999219 
L 51.378125 10.999219 
z
" style="fill: #ffffff"/>
   </g>
   <g id="matplotlib.axis_1">
    <g id="xtick_1">
     <g id="line2d_1">
      <defs>
       <path id="m1422f16487" d="M 0 0 
L 0 3.5 
" style="stroke: #000000; stroke-width: 0.8"/>
      </defs>
      <g>
       <use xlink:href="#m1422f16487" x="58.792111" y="232.759219" style="stroke: #000000; stroke-width: 0.8"/>
      </g>
     </g>
     <g id="text_1">
      <!-- 0.000 -->
      <g transform="translate(44.478049 247.357656) scale(0.1 -0.1)">
       <defs>
        <path id="DejaVuSans-30" d="M 2034 4250 
Q 1547 4250 1301 3770 
Q 1056 3291 1056 2328 
Q 1056 1369 1301 889 
Q 1547 409 2034 409 
Q 2525 409 2770 889 
Q 3016 1369 3016 2328 
Q 3016 3291 2770 3770 
Q 2525 4250 2034 4250 
z
M 2034 4750 
Q 2819 4750 3233 4129 
Q 3647 3509 3647 2328 
Q 3647 1150 3233 529 
Q 2819 -91 2034 -91 
Q 1250 -91 836 529 
Q 422 1150 422 2328 
Q 422 3509 836 4129 
Q 1250 4750 2034 4750 
z
" transform="scale(0.015625)"/>
        <path id="DejaVuSans-2e" d="M 684 794 
L 1344 794 
L 1344 0 
L 684 0 
L 684 794 
z
" transform="scale(0.015625)"/>
       </defs>
       <use xlink:href="#DejaVuSans-30"/>
       <use xlink:href="#DejaVuSans-2e" transform="translate(63.623047 0)"/>
       <use xlink:href="#DejaVuSans-30" transform="translate(95.410156 0)"/>
       <use xlink:href="#DejaVuSans-30" transform="translate(159.033203 0)"/>
       <use xlink:href="#DejaVuSans-30" transform="translate(222.65625 0)"/>
      </g>
     </g>
    </g>
    <g id="xtick_2">
     <g id="line2d_2">
      <g>
       <use xlink:href="#m1422f16487" x="97.81309" y="232.759219" style="stroke: #000000; stroke-width: 0.8"/>
      </g>
     </g>
     <g id="text_2">
      <!-- 0.025 -->
      <g transform="translate(83.499028 247.357656) scale(0.1 -0.1)">
       <defs>
        <path id="DejaVuSans-32" d="M 1228 531 
L 3431 531 
L 3431 0 
L 469 0 
L 469 531 
Q 828 903 1448 1529 
Q 2069 2156 2228 2338 
Q 2531 2678 2651 2914 
Q 2772 3150 2772 3378 
Q 2772 3750 2511 3984 
Q 2250 4219 1831 4219 
Q 1534 4219 1204 4116 
Q 875 4013 500 3803 
L 500 4441 
Q 881 4594 1212 4672 
Q 1544 4750 1819 4750 
Q 2544 4750 2975 4387 
Q 3406 4025 3406 3419 
Q 3406 3131 3298 2873 
Q 3191 2616 2906 2266 
Q 2828 2175 2409 1742 
Q 1991 1309 1228 531 
z
" transform="scale(0.015625)"/>
        <path id="DejaVuSans-35" d="M 691 4666 
L 3169 4666 
L 3169 4134 
L 1269 4134 
L 1269 2991 
Q 1406 3038 1543 3061 
Q 1681 3084 1819 3084 
Q 2600 3084 3056 2656 
Q 3513 2228 3513 1497 
Q 3513 744 3044 326 
Q 2575 -91 1722 -91 
Q 1428 -91 1123 -41 
Q 819 9 494 109 
L 494 744 
Q 775 591 1075 516 
Q 1375 441 1709 441 
Q 2250 441 2565 725 
Q 2881 1009 2881 1497 
Q 2881 1984 2565 2268 
Q 2250 2553 1709 2553 
Q 1456 2553 1204 2497 
Q 953 2441 691 2322 
L 691 4666 
z
" transform="scale(0.015625)"/>
       </defs>
       <use xlink:href="#DejaVuSans-30"/>
       <use xlink:href="#DejaVuSans-2e" transform="translate(63.623047 0)"/>
       <use xlink:href="#DejaVuSans-30" transform="translate(95.410156 0)"/>
       <use xlink:href="#DejaVuSans-32" transform="translate(159.033203 0)"/>
       <use xlink:href="#DejaVuSans-35" transform="translate(222.65625 0)"/>
      </g>
     </g>
    </g>
    <g id="xtick_3">
     <g id="line2d_3">
      <g>
       <use xlink:href="#m1422f16487" x="136.834069" y="232.759219" style="stroke: #000000; stroke-width: 0.8"/>
      </g>
     </g>
     <g id="text_3">
      <!-- 0.050 -->
      <g transform="translate(122.520007 247.357656) scale(0.1 -0.1)">
       <use xlink:href="#DejaVuSans-30"/>
       <use xlink:href="#DejaVuSans-2e" transform="translate(63.623047 0)"/>
       <use xlink:href="#DejaVuSans-30" transform="translate(95.410156 0)"/>
       <use xlink:href="#DejaVuSans-35" transform="translate(159.033203 0)"/>
       <use xlink:href="#DejaVuSans-30" transform="translate(222.65625 0)"/>
      </g>
     </g>
    </g>
    <g id="xtick_4">
     <g id="line2d_4">
      <g>
       <use xlink:href="#m1422f16487" x="175.855048" y="232.759219" style="stroke: #000000; stroke-width: 0.8"/>
      </g>
     </g>
     <g id="text_4">
      <!-- 0.075 -->
      <g transform="translate(161.540986 247.357656) scale(0.1 -0.1)">
       <defs>
        <path id="DejaVuSans-37" d="M 525 4666 
L 3525 4666 
L 3525 4397 
L 1831 0 
L 1172 0 
L 2766 4134 
L 525 4134 
L 525 4666 
z
" transform="scale(0.015625)"/>
       </defs>
       <use xlink:href="#DejaVuSans-30"/>
       <use xlink:href="#DejaVuSans-2e" transform="translate(63.623047 0)"/>
       <use xlink:href="#DejaVuSans-30" transform="translate(95.410156 0)"/>
       <use xlink:href="#DejaVuSans-37" transform="translate(159.033203 0)"/>
       <use xlink:href="#DejaVuSans-35" transform="translate(222.65625 0)"/>
      </g>
     </g>
    </g>
    <g id="xtick_5">
     <g id="line2d_5">
      <g>
       <use xlink:href="#m1422f16487" x="214.876027" y="232.759219" style="stroke: #000000; stroke-width: 0.8"/>
      </g>
     </g>
     <g id="text_5">
      <!-- 0.100 -->
      <g transform="translate(200.561965 247.357656) scale(0.1 -0.1)">
       <defs>
        <path id="DejaVuSans-31" d="M 794 531 
L 1825 531 
L 1825 4091 
L 703 3866 
L 703 4441 
L 1819 4666 
L 2450 4666 
L 2450 531 
L 3481 531 
L 3481 0 
L 794 0 
L 794 531 
z
" transform="scale(0.015625)"/>
       </defs>
       <use xlink:href="#DejaVuSans-30"/>
       <use xlink:href="#DejaVuSans-2e" transform="translate(63.623047 0)"/>
       <use xlink:href="#DejaVuSans-31" transform="translate(95.410156 0)"/>
       <use xlink:href="#DejaVuSans-30" transform="translate(159.033203 0)"/>
       <use xlink:href="#DejaVuSans-30" transform="translate(222.65625 0)"/>
      </g>
     </g>
    </g>
    <g id="xtick_6">
     <g id="line2d_6">
      <g>
       <use xlink:href="#m1422f16487" x="253.897006" y="232.759219" style="stroke: #000000; stroke-width: 0.8"/>
      </g>
     </g>
     <g id="text_6">
      <!-- 0.125 -->
      <g transform="translate(239.582944 247.357656) scale(0.1 -0.1)">
       <use xlink:href="#DejaVuSans-30"/>
       <use xlink:href="#DejaVuSans-2e" transform="translate(63.623047 0)"/>
       <use xlink:href="#DejaVuSans-31" transform="translate(95.410156 0)"/>
       <use xlink:href="#DejaVuSans-32" transform="translate(159.033203 0)"/>
       <use xlink:href="#DejaVuSans-35" transform="translate(222.65625 0)"/>
      </g>
     </g>
    </g>
    <g id="xtick_7">
     <g id="line2d_7">
      <g>
       <use xlink:href="#m1422f16487" x="292.917985" y="232.759219" style="stroke: #000000; stroke-width: 0.8"/>
      </g>
     </g>
     <g id="text_7">
      <!-- 0.150 -->
      <g transform="translate(278.603923 247.357656) scale(0.1 -0.1)">
       <use xlink:href="#DejaVuSans-30"/>
       <use xlink:href="#DejaVuSans-2e" transform="translate(63.623047 0)"/>
       <use xlink:href="#DejaVuSans-31" transform="translate(95.410156 0)"/>
       <use xlink:href="#DejaVuSans-35" transform="translate(159.033203 0)"/>
       <use xlink:href="#DejaVuSans-30" transform="translate(222.65625 0)"/>
      </g>
     </g>
    </g>
    <g id="xtick_8">
     <g id="line2d_8">
      <g>
       <use xlink:href="#m1422f16487" x="331.938964" y="232.759219" style="stroke: #000000; stroke-width: 0.8"/>
      </g>
     </g>
     <g id="text_8">
      <!-- 0.175 -->
      <g transform="translate(317.624902 247.357656) scale(0.1 -0.1)">
       <use xlink:href="#DejaVuSans-30"/>
       <use xlink:href="#DejaVuSans-2e" transform="translate(63.623047 0)"/>
       <use xlink:href="#DejaVuSans-31" transform="translate(95.410156 0)"/>
       <use xlink:href="#DejaVuSans-37" transform="translate(159.033203 0)"/>
       <use xlink:href="#DejaVuSans-35" transform="translate(222.65625 0)"/>
      </g>
     </g>
    </g>
    <g id="xtick_9">
     <g id="line2d_9">
      <g>
       <use xlink:href="#m1422f16487" x="370.959943" y="232.759219" style="stroke: #000000; stroke-width: 0.8"/>
      </g>
     </g>
     <g id="text_9">
      <!-- 0.200 -->
      <g transform="translate(356.645881 247.357656) scale(0.1 -0.1)">
       <use xlink:href="#DejaVuSans-30"/>
       <use xlink:href="#DejaVuSans-2e" transform="translate(63.623047 0)"/>
       <use xlink:href="#DejaVuSans-32" transform="translate(95.410156 0)"/>
       <use xlink:href="#DejaVuSans-30" transform="translate(159.033203 0)"/>
       <use xlink:href="#DejaVuSans-30" transform="translate(222.65625 0)"/>
      </g>
     </g>
    </g>
    <g id="text_10">
     <!-- Q [1/Å] -->
     <g transform="translate(201.065625 261.959219) scale(0.1 -0.1)">
      <defs>
       <path id="DejaVuSans-51" d="M 2522 4238 
Q 1834 4238 1429 3725 
Q 1025 3213 1025 2328 
Q 1025 1447 1429 934 
Q 1834 422 2522 422 
Q 3209 422 3611 934 
Q 4013 1447 4013 2328 
Q 4013 3213 3611 3725 
Q 3209 4238 2522 4238 
z
M 3406 84 
L 4238 -825 
L 3475 -825 
L 2784 -78 
Q 2681 -84 2626 -87 
Q 2572 -91 2522 -91 
Q 1538 -91 948 567 
Q 359 1225 359 2328 
Q 359 3434 948 4092 
Q 1538 4750 2522 4750 
Q 3503 4750 4090 4092 
Q 4678 3434 4678 2328 
Q 4678 1516 4351 937 
Q 4025 359 3406 84 
z
" transform="scale(0.015625)"/>
       <path id="DejaVuSans-20" transform="scale(0.015625)"/>
       <path id="DejaVuSans-5b" d="M 550 4863 
L 1875 4863 
L 1875 4416 
L 1125 4416 
L 1125 -397 
L 1875 -397 
L 1875 -844 
L 550 -844 
L 550 4863 
z
" transform="scale(0.015625)"/>
       <path id="DejaVuSans-2f" d="M 1625 4666 
L 2156 4666 
L 531 -594 
L 0 -594 
L 1625 4666 
z
" transform="scale(0.015625)"/>
       <path id="DejaVuSans-c5" d="M 2663 5081 
Q 2663 5278 2523 5417 
Q 2384 5556 2188 5556 
Q 1988 5556 1852 5420 
Q 1716 5284 1716 5081 
Q 1716 4884 1853 4746 
Q 1991 4609 2188 4609 
Q 2384 4609 2523 4746 
Q 2663 4884 2663 5081 
z
M 2188 4044 
L 1338 1722 
L 3041 1722 
L 2188 4044 
z
M 1716 4366 
Q 1525 4494 1428 4673 
Q 1331 4853 1331 5081 
Q 1331 5441 1579 5691 
Q 1828 5941 2188 5941 
Q 2544 5941 2795 5689 
Q 3047 5438 3047 5081 
Q 3047 4863 2948 4678 
Q 2850 4494 2663 4366 
L 4325 0 
L 3669 0 
L 3244 1197 
L 1141 1197 
L 716 0 
L 50 0 
L 1716 4366 
z
" transform="scale(0.015625)"/>
       <path id="DejaVuSans-5d" d="M 1947 4863 
L 1947 -844 
L 622 -844 
L 622 -397 
L 1369 -397 
L 1369 4416 
L 622 4416 
L 622 4863 
L 1947 4863 
z
" transform="scale(0.015625)"/>
      </defs>
      <use xlink:href="#DejaVuSans-51"/>
      <use xlink:href="#DejaVuSans-20" transform="translate(78.710938 0)"/>
      <use xlink:href="#DejaVuSans-5b" transform="translate(110.498047 0)"/>
      <use xlink:href="#DejaVuSans-31" transform="translate(149.511719 0)"/>
      <use xlink:href="#DejaVuSans-2f" transform="translate(213.134766 0)"/>
      <use xlink:href="#DejaVuSans-c5" transform="translate(246.826172 0)"/>
      <use xlink:href="#DejaVuSans-5d" transform="translate(315.234375 0)"/>
     </g>
    </g>
   </g>
   <g id="matplotlib.axis_2">
    <g id="ytick_1">
     <g id="line2d_10">
      <defs>
       <path id="m49b6684852" d="M 0 0 
L -3.5 0 
" style="stroke: #000000; stroke-width: 0.8"/>
      </defs>
      <g>
       <use xlink:href="#m49b6684852" x="51.378125" y="232.759219" style="stroke: #000000; stroke-width: 0.8"/>
      </g>
     </g>
     <g id="text_11">
      <!-- $\mathdefault{10^{-3}}$ -->
      <g transform="translate(20.878125 236.558437) scale(0.1 -0.1)">
       <defs>
        <path id="DejaVuSans-2212" d="M 678 2272 
L 4684 2272 
L 4684 1741 
L 678 1741 
L 678 2272 
z
" transform="scale(0.015625)"/>
        <path id="DejaVuSans-33" d="M 2597 2516 
Q 3050 2419 3304 2112 
Q 3559 1806 3559 1356 
Q 3559 666 3084 287 
Q 2609 -91 1734 -91 
Q 1441 -91 1130 -33 
Q 819 25 488 141 
L 488 750 
Q 750 597 1062 519 
Q 1375 441 1716 441 
Q 2309 441 2620 675 
Q 2931 909 2931 1356 
Q 2931 1769 2642 2001 
Q 2353 2234 1838 2234 
L 1294 2234 
L 1294 2753 
L 1863 2753 
Q 2328 2753 2575 2939 
Q 2822 3125 2822 3475 
Q 2822 3834 2567 4026 
Q 2313 4219 1838 4219 
Q 1578 4219 1281 4162 
Q 984 4106 628 3988 
L 628 4550 
Q 988 4650 1302 4700 
Q 1616 4750 1894 4750 
Q 2613 4750 3031 4423 
Q 3450 4097 3450 3541 
Q 3450 3153 3228 2886 
Q 3006 2619 2597 2516 
z
" transform="scale(0.015625)"/>
       </defs>
       <use xlink:href="#DejaVuSans-31" transform="translate(0 0.765625)"/>
       <use xlink:href="#DejaVuSans-30" transform="translate(63.623047 0.765625)"/>
       <use xlink:href="#DejaVuSans-2212" transform="translate(128.203125 39.046875) scale(0.7)"/>
       <use xlink:href="#DejaVuSans-33" transform="translate(186.855469 39.046875) scale(0.7)"/>
      </g>
     </g>
    </g>
    <g id="ytick_2">
     <g id="line2d_11">
      <g>
       <use xlink:href="#m49b6684852" x="51.378125" y="177.319219" style="stroke: #000000; stroke-width: 0.8"/>
      </g>
     </g>
     <g id="text_12">
      <!-- $\mathdefault{10^{-2}}$ -->
      <g transform="translate(20.878125 181.118437) scale(0.1 -0.1)">
       <use xlink:href="#DejaVuSans-31" transform="translate(0 0.765625)"/>
       <use xlink:href="#DejaVuSans-30" transform="translate(63.623047 0.765625)"/>
       <use xlink:href="#DejaVuSans-2212" transform="translate(128.203125 39.046875) scale(0.7)"/>
       <use xlink:href="#DejaVuSans-32" transform="translate(186.855469 39.046875) scale(0.7)"/>
      </g>
     </g>
    </g>
    <g id="ytick_3">
     <g id="line2d_12">
      <g>
       <use xlink:href="#m49b6684852" x="51.378125" y="121.879219" style="stroke: #000000; stroke-width: 0.8"/>
      </g>
     </g>
     <g id="text_13">
      <!-- $\mathdefault{10^{-1}}$ -->
      <g transform="translate(20.878125 125.678438) scale(0.1 -0.1)">
       <use xlink:href="#DejaVuSans-31" transform="translate(0 0.684375)"/>
       <use xlink:href="#DejaVuSans-30" transform="translate(63.623047 0.684375)"/>
       <use xlink:href="#DejaVuSans-2212" transform="translate(128.203125 38.965625) scale(0.7)"/>
       <use xlink:href="#DejaVuSans-31" transform="translate(186.855469 38.965625) scale(0.7)"/>
      </g>
     </g>
    </g>
    <g id="ytick_4">
     <g id="line2d_13">
      <g>
       <use xlink:href="#m49b6684852" x="51.378125" y="66.439219" style="stroke: #000000; stroke-width: 0.8"/>
      </g>
     </g>
     <g id="text_14">
      <!-- $\mathdefault{10^{0}}$ -->
      <g transform="translate(26.778125 70.238438) scale(0.1 -0.1)">
       <use xlink:href="#DejaVuSans-31" transform="translate(0 0.765625)"/>
       <use xlink:href="#DejaVuSans-30" transform="translate(63.623047 0.765625)"/>
       <use xlink:href="#DejaVuSans-30" transform="translate(128.203125 39.046875) scale(0.7)"/>
      </g>
     </g>
    </g>
    <g id="ytick_5">
     <g id="line2d_14">
      <g>
       <use xlink:href="#m49b6684852" x="51.378125" y="10.999219" style="stroke: #000000; stroke-width: 0.8"/>
      </g>
     </g>
     <g id="text_15">
      <!-- $\mathdefault{10^{1}}$ -->
      <g transform="translate(26.778125 14.798438) scale(0.1 -0.1)">
       <use xlink:href="#DejaVuSans-31" transform="translate(0 0.684375)"/>
       <use xlink:href="#DejaVuSans-30" transform="translate(63.623047 0.684375)"/>
       <use xlink:href="#DejaVuSans-31" transform="translate(128.203125 38.965625) scale(0.7)"/>
      </g>
     </g>
    </g>
    <g id="ytick_6">
     <g id="line2d_15">
      <defs>
       <path id="ma669841f37" d="M 0 0 
L -2 0 
" style="stroke: #000000; stroke-width: 0.6"/>
      </defs>
      <g>
       <use xlink:href="#ma669841f37" x="51.378125" y="216.070116" style="stroke: #000000; stroke-width: 0.6"/>
      </g>
     </g>
    </g>
    <g id="ytick_7">
     <g id="line2d_16">
      <g>
       <use xlink:href="#ma669841f37" x="51.378125" y="206.307616" style="stroke: #000000; stroke-width: 0.6"/>
      </g>
     </g>
    </g>
    <g id="ytick_8">
     <g id="line2d_17">
      <g>
       <use xlink:href="#ma669841f37" x="51.378125" y="199.381013" style="stroke: #000000; stroke-width: 0.6"/>
      </g>
     </g>
    </g>
    <g id="ytick_9">
     <g id="line2d_18">
      <g>
       <use xlink:href="#ma669841f37" x="51.378125" y="194.008322" style="stroke: #000000; stroke-width: 0.6"/>
      </g>
     </g>
    </g>
    <g id="ytick_10">
     <g id="line2d_19">
      <g>
       <use xlink:href="#ma669841f37" x="51.378125" y="189.618513" style="stroke: #000000; stroke-width: 0.6"/>
      </g>
     </g>
    </g>
    <g id="ytick_11">
     <g id="line2d_20">
      <g>
       <use xlink:href="#ma669841f37" x="51.378125" y="185.906983" style="stroke: #000000; stroke-width: 0.6"/>
      </g>
     </g>
    </g>
    <g id="ytick_12">
     <g id="line2d_21">
      <g>
       <use xlink:href="#ma669841f37" x="51.378125" y="182.69191" style="stroke: #000000; stroke-width: 0.6"/>
      </g>
     </g>
    </g>
    <g id="ytick_13">
     <g id="line2d_22">
      <g>
       <use xlink:href="#ma669841f37" x="51.378125" y="179.856014" style="stroke: #000000; stroke-width: 0.6"/>
      </g>
     </g>
    </g>
    <g id="ytick_14">
     <g id="line2d_23">
      <g>
       <use xlink:href="#ma669841f37" x="51.378125" y="160.630116" style="stroke: #000000; stroke-width: 0.6"/>
      </g>
     </g>
    </g>
    <g id="ytick_15">
     <g id="line2d_24">
      <g>
       <use xlink:href="#ma669841f37" x="51.378125" y="150.867616" style="stroke: #000000; stroke-width: 0.6"/>
      </g>
     </g>
    </g>
    <g id="ytick_16">
     <g id="line2d_25">
      <g>
       <use xlink:href="#ma669841f37" x="51.378125" y="143.941013" style="stroke: #000000; stroke-width: 0.6"/>
      </g>
     </g>
    </g>
    <g id="ytick_17">
     <g id="line2d_26">
      <g>
       <use xlink:href="#ma669841f37" x="51.378125" y="138.568322" style="stroke: #000000; stroke-width: 0.6"/>
      </g>
     </g>
    </g>
    <g id="ytick_18">
     <g id="line2d_27">
      <g>
       <use xlink:href="#ma669841f37" x="51.378125" y="134.178513" style="stroke: #000000; stroke-width: 0.6"/>
      </g>
     </g>
    </g>
    <g id="ytick_19">
     <g id="line2d_28">
      <g>
       <use xlink:href="#ma669841f37" x="51.378125" y="130.466983" style="stroke: #000000; stroke-width: 0.6"/>
      </g>
     </g>
    </g>
    <g id="ytick_20">
     <g id="line2d_29">
      <g>
       <use xlink:href="#ma669841f37" x="51.378125" y="127.25191" style="stroke: #000000; stroke-width: 0.6"/>
      </g>
     </g>
    </g>
    <g id="ytick_21">
     <g id="line2d_30">
      <g>
       <use xlink:href="#ma669841f37" x="51.378125" y="124.416014" style="stroke: #000000; stroke-width: 0.6"/>
      </g>
     </g>
    </g>
    <g id="ytick_22">
     <g id="line2d_31">
      <g>
       <use xlink:href="#ma669841f37" x="51.378125" y="105.190116" style="stroke: #000000; stroke-width: 0.6"/>
      </g>
     </g>
    </g>
    <g id="ytick_23">
     <g id="line2d_32">
      <g>
       <use xlink:href="#ma669841f37" x="51.378125" y="95.427616" style="stroke: #000000; stroke-width: 0.6"/>
      </g>
     </g>
    </g>
    <g id="ytick_24">
     <g id="line2d_33">
      <g>
       <use xlink:href="#ma669841f37" x="51.378125" y="88.501013" style="stroke: #000000; stroke-width: 0.6"/>
      </g>
     </g>
    </g>
    <g id="ytick_25">
     <g id="line2d_34">
      <g>
       <use xlink:href="#ma669841f37" x="51.378125" y="83.128322" style="stroke: #000000; stroke-width: 0.6"/>
      </g>
     </g>
    </g>
    <g id="ytick_26">
     <g id="line2d_35">
      <g>
       <use xlink:href="#ma669841f37" x="51.378125" y="78.738513" style="stroke: #000000; stroke-width: 0.6"/>
      </g>
     </g>
    </g>
    <g id="ytick_27">
     <g id="line2d_36">
      <g>
       <use xlink:href="#ma669841f37" x="51.378125" y="75.026983" style="stroke: #000000; stroke-width: 0.6"/>
      </g>
     </g>
    </g>
    <g id="ytick_28">
     <g id="line2d_37">
      <g>
       <use xlink:href="#ma669841f37" x="51.378125" y="71.81191" style="stroke: #000000; stroke-width: 0.6"/>
      </g>
     </g>
    </g>
    <g id="ytick_29">
     <g id="line2d_38">
      <g>
       <use xlink:href="#ma669841f37" x="51.378125" y="68.976014" style="stroke: #000000; stroke-width: 0.6"/>
      </g>
     </g>
    </g>
    <g id="ytick_30">
     <g id="line2d_39">
      <g>
       <use xlink:href="#ma669841f37" x="51.378125" y="49.750116" style="stroke: #000000; stroke-width: 0.6"/>
      </g>
     </g>
    </g>
    <g id="ytick_31">
     <g id="line2d_40">
      <g>
       <use xlink:href="#ma669841f37" x="51.378125" y="39.987616" style="stroke: #000000; stroke-width: 0.6"/>
      </g>
     </g>
    </g>
    <g id="ytick_32">
     <g id="line2d_41">
      <g>
       <use xlink:href="#ma669841f37" x="51.378125" y="33.061013" style="stroke: #000000; stroke-width: 0.6"/>
      </g>
     </g>
    </g>
    <g id="ytick_33">
     <g id="line2d_42">
      <g>
       <use xlink:href="#ma669841f37" x="51.378125" y="27.688322" style="stroke: #000000; stroke-width: 0.6"/>
      </g>
     </g>
    </g>
    <g id="ytick_34">
     <g id="line2d_43">
      <g>
       <use xlink:href="#ma669841f37" x="51.378125" y="23.298513" style="stroke: #000000; stroke-width: 0.6"/>
      </g>
     </g>
    </g>
    <g id="ytick_35">
     <g id="line2d_44">
      <g>
       <use xlink:href="#ma669841f37" x="51.378125" y="19.586983" style="stroke: #000000; stroke-width: 0.6"/>
      </g>
     </g>
    </g>
    <g id="ytick_36">
     <g id="line2d_45">
      <g>
       <use xlink:href="#ma669841f37" x="51.378125" y="16.37191" style="stroke: #000000; stroke-width: 0.6"/>
      </g>
     </g>
    </g>
    <g id="ytick_37">
     <g id="line2d_46">
      <g>
       <use xlink:href="#ma669841f37" x="51.378125" y="13.536014" style="stroke: #000000; stroke-width: 0.6"/>
      </g>
     </g>
    </g>
    <g id="text_16">
     <!-- [dimensionless] -->
     <g transform="translate(14.798438 161.356562) rotate(-90) scale(0.1 -0.1)">
      <defs>
       <path id="DejaVuSans-64" d="M 2906 2969 
L 2906 4863 
L 3481 4863 
L 3481 0 
L 2906 0 
L 2906 525 
Q 2725 213 2448 61 
Q 2172 -91 1784 -91 
Q 1150 -91 751 415 
Q 353 922 353 1747 
Q 353 2572 751 3078 
Q 1150 3584 1784 3584 
Q 2172 3584 2448 3432 
Q 2725 3281 2906 2969 
z
M 947 1747 
Q 947 1113 1208 752 
Q 1469 391 1925 391 
Q 2381 391 2643 752 
Q 2906 1113 2906 1747 
Q 2906 2381 2643 2742 
Q 2381 3103 1925 3103 
Q 1469 3103 1208 2742 
Q 947 2381 947 1747 
z
" transform="scale(0.015625)"/>
       <path id="DejaVuSans-69" d="M 603 3500 
L 1178 3500 
L 1178 0 
L 603 0 
L 603 3500 
z
M 603 4863 
L 1178 4863 
L 1178 4134 
L 603 4134 
L 603 4863 
z
" transform="scale(0.015625)"/>
       <path id="DejaVuSans-6d" d="M 3328 2828 
Q 3544 3216 3844 3400 
Q 4144 3584 4550 3584 
Q 5097 3584 5394 3201 
Q 5691 2819 5691 2113 
L 5691 0 
L 5113 0 
L 5113 2094 
Q 5113 2597 4934 2840 
Q 4756 3084 4391 3084 
Q 3944 3084 3684 2787 
Q 3425 2491 3425 1978 
L 3425 0 
L 2847 0 
L 2847 2094 
Q 2847 2600 2669 2842 
Q 2491 3084 2119 3084 
Q 1678 3084 1418 2786 
Q 1159 2488 1159 1978 
L 1159 0 
L 581 0 
L 581 3500 
L 1159 3500 
L 1159 2956 
Q 1356 3278 1631 3431 
Q 1906 3584 2284 3584 
Q 2666 3584 2933 3390 
Q 3200 3197 3328 2828 
z
" transform="scale(0.015625)"/>
       <path id="DejaVuSans-65" d="M 3597 1894 
L 3597 1613 
L 953 1613 
Q 991 1019 1311 708 
Q 1631 397 2203 397 
Q 2534 397 2845 478 
Q 3156 559 3463 722 
L 3463 178 
Q 3153 47 2828 -22 
Q 2503 -91 2169 -91 
Q 1331 -91 842 396 
Q 353 884 353 1716 
Q 353 2575 817 3079 
Q 1281 3584 2069 3584 
Q 2775 3584 3186 3129 
Q 3597 2675 3597 1894 
z
M 3022 2063 
Q 3016 2534 2758 2815 
Q 2500 3097 2075 3097 
Q 1594 3097 1305 2825 
Q 1016 2553 972 2059 
L 3022 2063 
z
" transform="scale(0.015625)"/>
       <path id="DejaVuSans-6e" d="M 3513 2113 
L 3513 0 
L 2938 0 
L 2938 2094 
Q 2938 2591 2744 2837 
Q 2550 3084 2163 3084 
Q 1697 3084 1428 2787 
Q 1159 2491 1159 1978 
L 1159 0 
L 581 0 
L 581 3500 
L 1159 3500 
L 1159 2956 
Q 1366 3272 1645 3428 
Q 1925 3584 2291 3584 
Q 2894 3584 3203 3211 
Q 3513 2838 3513 2113 
z
" transform="scale(0.015625)"/>
       <path id="DejaVuSans-73" d="M 2834 3397 
L 2834 2853 
Q 2591 2978 2328 3040 
Q 2066 3103 1784 3103 
Q 1356 3103 1142 2972 
Q 928 2841 928 2578 
Q 928 2378 1081 2264 
Q 1234 2150 1697 2047 
L 1894 2003 
Q 2506 1872 2764 1633 
Q 3022 1394 3022 966 
Q 3022 478 2636 193 
Q 2250 -91 1575 -91 
Q 1294 -91 989 -36 
Q 684 19 347 128 
L 347 722 
Q 666 556 975 473 
Q 1284 391 1588 391 
Q 1994 391 2212 530 
Q 2431 669 2431 922 
Q 2431 1156 2273 1281 
Q 2116 1406 1581 1522 
L 1381 1569 
Q 847 1681 609 1914 
Q 372 2147 372 2553 
Q 372 3047 722 3315 
Q 1072 3584 1716 3584 
Q 2034 3584 2315 3537 
Q 2597 3491 2834 3397 
z
" transform="scale(0.015625)"/>
       <path id="DejaVuSans-6f" d="M 1959 3097 
Q 1497 3097 1228 2736 
Q 959 2375 959 1747 
Q 959 1119 1226 758 
Q 1494 397 1959 397 
Q 2419 397 2687 759 
Q 2956 1122 2956 1747 
Q 2956 2369 2687 2733 
Q 2419 3097 1959 3097 
z
M 1959 3584 
Q 2709 3584 3137 3096 
Q 3566 2609 3566 1747 
Q 3566 888 3137 398 
Q 2709 -91 1959 -91 
Q 1206 -91 779 398 
Q 353 888 353 1747 
Q 353 2609 779 3096 
Q 1206 3584 1959 3584 
z
" transform="scale(0.015625)"/>
       <path id="DejaVuSans-6c" d="M 603 4863 
L 1178 4863 
L 1178 0 
L 603 0 
L 603 4863 
z
" transform="scale(0.015625)"/>
      </defs>
      <use xlink:href="#DejaVuSans-5b"/>
      <use xlink:href="#DejaVuSans-64" transform="translate(39.013672 0)"/>
      <use xlink:href="#DejaVuSans-69" transform="translate(102.490234 0)"/>
      <use xlink:href="#DejaVuSans-6d" transform="translate(130.273438 0)"/>
      <use xlink:href="#DejaVuSans-65" transform="translate(227.685547 0)"/>
      <use xlink:href="#DejaVuSans-6e" transform="translate(289.208984 0)"/>
      <use xlink:href="#DejaVuSans-73" transform="translate(352.587891 0)"/>
      <use xlink:href="#DejaVuSans-69" transform="translate(404.6875 0)"/>
      <use xlink:href="#DejaVuSans-6f" transform="translate(432.470703 0)"/>
      <use xlink:href="#DejaVuSans-6e" transform="translate(493.652344 0)"/>
      <use xlink:href="#DejaVuSans-6c" transform="translate(557.03125 0)"/>
      <use xlink:href="#DejaVuSans-65" transform="translate(584.814453 0)"/>
      <use xlink:href="#DejaVuSans-73" transform="translate(646.337891 0)"/>
      <use xlink:href="#DejaVuSans-73" transform="translate(698.4375 0)"/>
      <use xlink:href="#DejaVuSans-5d" transform="translate(750.537109 0)"/>
     </g>
    </g>
   </g>
   <g id="patch_3">
    <path d="M 51.378125 232.759219 
L 51.378125 10.999219 
" style="fill: none; stroke: #000000; stroke-width: 0.8; stroke-linejoin: miter; stroke-linecap: square"/>
   </g>
   <g id="patch_4">
    <path d="M 386.178125 232.759219 
L 386.178125 10.999219 
" style="fill: none; stroke: #000000; stroke-width: 0.8; stroke-linejoin: miter; stroke-linecap: square"/>
   </g>
   <g id="patch_5">
    <path d="M 51.378125 232.759219 
L 386.178125 232.759219 
" style="fill: none; stroke: #000000; stroke-width: 0.8; stroke-linejoin: miter; stroke-linecap: square"/>
   </g>
   <g id="patch_6">
    <path d="M 51.378125 10.999219 
L 386.178125 10.999219 
" style="fill: none; stroke: #000000; stroke-width: 0.8; stroke-linejoin: miter; stroke-linecap: square"/>
   </g>
   <g id="line2d_47">
    <path d="M 66.596307 28.129315 
L 68.118125 28.129315 
L 68.118125 31.114405 
L 69.639943 31.114405 
L 69.639943 28.568836 
L 71.161761 28.568836 
L 71.161761 27.45561 
L 72.68358 27.45561 
L 72.68358 30.06467 
L 74.205398 30.06467 
L 74.205398 30.993736 
L 75.727216 30.993736 
L 75.727216 29.956793 
L 77.249034 29.956793 
L 77.249034 31.19244 
L 78.770852 31.19244 
L 78.770852 34.709763 
L 80.29267 34.709763 
L 80.29267 31.257492 
L 81.814489 31.257492 
L 81.814489 38.113782 
L 83.336307 38.113782 
L 83.336307 37.341138 
L 84.858125 37.341138 
L 84.858125 40.604909 
L 86.379943 40.604909 
L 86.379943 41.3686 
L 87.901761 41.3686 
L 87.901761 43.271671 
L 89.42358 43.271671 
L 89.42358 42.317542 
L 90.945398 42.317542 
L 90.945398 43.890435 
L 92.467216 43.890435 
L 92.467216 45.602981 
L 93.989034 45.602981 
L 93.989034 46.63512 
L 95.510852 46.63512 
L 95.510852 46.994294 
L 97.03267 46.994294 
L 97.03267 52.898671 
L 98.554489 52.898671 
L 98.554489 49.756795 
L 100.076307 49.756795 
L 100.076307 59.013583 
L 101.598125 59.013583 
L 101.598125 55.846989 
L 103.119943 55.846989 
L 103.119943 57.656514 
L 104.641761 57.656514 
L 104.641761 61.695865 
L 106.16358 61.695865 
L 106.16358 65.792968 
L 107.685398 65.792968 
L 107.685398 67.171849 
L 109.207216 67.171849 
L 109.207216 78.74505 
L 110.729034 78.74505 
L 110.729034 81.220245 
L 112.250852 81.220245 
L 112.250852 83.354873 
L 113.77267 83.354873 
L 113.77267 85.67135 
L 115.294489 85.67135 
L 115.294489 91.414597 
L 116.816307 91.414597 
L 116.816307 96.099221 
L 118.338125 96.099221 
L 118.338125 98.446077 
L 119.859943 98.446077 
L 119.859943 105.333301 
L 121.381761 105.333301 
L 121.381761 106.661148 
L 122.90358 106.661148 
L 122.90358 120.945608 
L 124.425398 120.945608 
L 124.425398 122.579638 
L 125.947216 122.579638 
L 125.947216 126.572688 
L 127.469034 126.572688 
L 127.469034 132.953422 
L 128.990852 132.953422 
L 128.990852 138.228668 
L 130.51267 138.228668 
L 130.51267 152.232234 
L 132.034489 152.232234 
L 132.034489 152.053471 
L 133.556307 152.053471 
L 133.556307 152.67726 
L 135.078125 152.67726 
L 135.078125 158.984691 
L 136.599943 158.984691 
L 136.599943 157.603034 
L 138.121761 157.603034 
L 138.121761 152.06024 
L 139.64358 152.06024 
L 139.64358 152.822604 
L 141.165398 152.822604 
L 141.165398 146.68741 
L 142.687216 146.68741 
L 142.687216 147.50701 
L 144.209034 147.50701 
L 144.209034 142.888272 
L 145.730852 142.888272 
L 145.730852 136.13345 
L 147.25267 136.13345 
L 147.25267 143.702114 
L 148.774489 143.702114 
L 148.774489 134.4702 
L 150.296307 134.4702 
L 150.296307 139.583582 
L 151.818125 139.583582 
L 151.818125 132.811381 
L 153.339943 132.811381 
L 153.339943 139.889887 
L 154.861761 139.889887 
L 154.861761 128.162451 
L 156.38358 128.162451 
L 156.38358 132.387173 
L 157.905398 132.387173 
L 157.905398 137.721282 
L 159.427216 137.721282 
L 159.427216 129.673258 
L 160.949034 129.673258 
L 160.949034 137.331448 
L 163.99267 137.378114 
L 163.99267 136.004857 
L 165.514489 136.004857 
L 165.514489 136.76041 
L 167.036307 136.76041 
L 167.036307 145.507124 
L 168.558125 145.507124 
L 168.558125 140.479186 
L 170.079943 140.479186 
L 170.079943 139.323069 
L 171.601761 139.323069 
L 171.601761 144.81609 
L 173.12358 144.81609 
L 173.12358 145.434504 
L 174.645398 145.434504 
L 174.645398 145.987086 
L 176.167216 145.987086 
L 176.167216 150.940764 
L 177.689034 150.940764 
L 177.689034 156.407919 
L 179.210852 156.407919 
L 179.210852 154.444052 
L 180.73267 154.444052 
L 180.73267 153.089869 
L 182.254489 153.089869 
L 182.254489 155.239505 
L 183.776307 155.239505 
L 183.776307 156.085496 
L 185.298125 156.085496 
L 185.298125 158.1417 
L 186.819943 158.1417 
L 186.819943 158.942782 
L 188.341761 158.942782 
L 188.341761 162.358894 
L 189.86358 162.358894 
L 189.86358 158.402036 
L 191.385398 158.402036 
L 191.385398 161.526036 
L 192.907216 161.526036 
L 192.907216 162.639513 
L 194.429034 162.639513 
L 194.429034 160.636532 
L 195.950852 160.636532 
L 195.950852 159.973593 
L 197.47267 159.973593 
L 197.47267 163.970441 
L 198.994489 163.970441 
L 198.994489 162.115316 
L 200.516307 162.115316 
L 200.516307 152.504183 
L 202.038125 152.504183 
L 202.038125 159.953621 
L 203.559943 159.953621 
L 203.559943 161.63114 
L 205.081761 161.63114 
L 205.081761 158.154728 
L 206.60358 158.154728 
L 206.60358 152.623247 
L 208.125398 152.623247 
L 208.125398 151.871865 
L 209.647216 151.871865 
L 209.647216 148.465896 
L 211.169034 148.465896 
L 211.169034 149.754887 
L 212.690852 149.754887 
L 212.690852 147.737293 
L 214.21267 147.737293 
L 214.21267 158.028389 
L 215.734489 158.028389 
L 215.734489 153.988916 
L 217.256307 153.988916 
L 217.256307 152.007484 
L 218.778125 152.007484 
L 218.778125 149.295696 
L 220.299943 149.295696 
L 220.299943 155.971705 
L 221.821761 155.971705 
L 221.821761 146.768372 
L 223.34358 146.768372 
L 223.34358 157.423989 
L 224.865398 157.423989 
L 224.865398 155.840411 
L 226.387216 155.840411 
L 226.387216 149.076461 
L 227.909034 149.076461 
L 227.909034 153.821795 
L 229.430852 153.821795 
L 229.430852 169.468537 
L 230.95267 169.468537 
L 230.95267 166.140594 
L 232.474489 166.140594 
L 232.474489 156.886422 
L 233.996307 156.886422 
L 233.996307 153.929285 
L 235.518125 153.929285 
L 235.518125 168.720796 
L 237.039943 168.720796 
L 237.039943 160.884046 
L 238.561761 160.884046 
L 238.561761 160.695749 
L 240.08358 160.695749 
L 240.08358 158.261896 
L 241.605398 158.261896 
L 241.605398 163.583254 
L 243.127216 163.583254 
L 243.127216 165.301694 
L 244.649034 165.301694 
L 244.649034 162.675828 
L 246.170852 162.675828 
L 246.170852 161.222397 
L 247.69267 161.222397 
L 247.69267 163.627396 
L 249.214489 163.627396 
L 249.214489 162.307847 
L 250.736307 162.307847 
L 250.736307 161.3453 
L 252.258125 161.3453 
L 252.258125 159.008119 
L 253.779943 159.008119 
L 253.779943 157.209353 
L 255.301761 157.209353 
L 255.301761 153.886405 
L 256.82358 153.886405 
L 256.82358 153.546649 
L 258.345398 153.546649 
L 258.345398 155.088727 
L 259.867216 155.088727 
L 259.867216 155.903347 
L 261.389034 155.903347 
L 261.389034 162.068856 
L 262.910852 162.068856 
L 262.910852 162.427021 
L 264.43267 162.427021 
L 264.43267 167.916206 
L 265.954489 167.916206 
L 265.954489 164.403672 
L 267.476307 164.403672 
L 267.476307 158.361552 
L 268.998125 158.361552 
L 268.998125 163.448904 
L 270.519943 163.448904 
L 270.519943 162.848319 
L 272.041761 162.848319 
L 272.041761 167.179143 
L 273.56358 167.179143 
L 273.56358 157.750663 
L 275.085398 157.750663 
L 275.085398 157.469587 
L 276.607216 157.469587 
L 276.607216 156.262434 
L 278.129034 156.262434 
L 278.129034 157.096508 
L 279.650852 157.096508 
L 279.650852 166.460576 
L 281.17267 166.460576 
L 281.17267 149.371118 
L 282.694489 149.371118 
L 282.694489 157.476167 
L 284.216307 157.476167 
L 284.216307 153.95801 
L 285.738125 153.95801 
L 285.738125 158.772628 
L 287.259943 158.772628 
L 287.259943 158.088699 
L 288.781761 158.088699 
L 288.781761 163.397967 
L 290.30358 163.397967 
L 290.30358 162.816773 
L 291.825398 162.816773 
L 291.825398 156.872328 
L 293.347216 156.872328 
L 293.347216 160.222227 
L 294.869034 160.222227 
L 294.869034 169.501578 
L 296.390852 169.501578 
L 296.390852 160.711476 
L 297.91267 160.711476 
L 297.91267 158.290311 
L 299.434489 158.290311 
L 299.434489 165.382378 
L 300.956307 165.382378 
L 300.956307 166.227466 
L 302.478125 166.227466 
L 302.478125 172.960947 
L 303.999943 172.960947 
L 303.999943 167.690962 
L 305.521761 167.690962 
L 305.521761 169.956934 
L 307.04358 169.956934 
L 307.04358 169.362065 
L 311.609034 169.325447 
L 311.609034 171.054782 
L 313.130852 171.054782 
L 313.130852 150.709532 
L 314.65267 150.709532 
L 314.65267 164.233678 
L 316.174489 164.233678 
L 316.174489 153.0231 
L 317.696307 153.0231 
L 317.696307 157.531791 
L 319.218125 157.531791 
L 319.218125 152.046495 
L 320.739943 152.046495 
L 320.739943 167.078963 
L 322.261761 167.078963 
L 322.261761 170.404136 
L 323.78358 170.404136 
L 323.78358 151.148733 
L 325.305398 151.148733 
L 325.305398 157.387722 
L 326.827216 157.387722 
L 326.827216 154.970698 
L 328.349034 154.970698 
L 328.349034 160.313515 
L 329.870852 160.313515 
L 329.870852 165.337315 
L 331.39267 165.337315 
L 331.39267 156.86906 
L 332.914489 156.86906 
L 332.914489 151.020521 
L 334.436307 151.020521 
L 334.436307 170.696997 
L 335.958125 170.696997 
L 335.958125 152.604225 
L 337.479943 152.604225 
L 337.479943 159.065904 
L 339.001761 159.065904 
L 339.001761 160.083043 
L 340.52358 160.083043 
L 340.52358 189.078243 
L 342.045398 189.078243 
L 342.045398 152.016245 
L 343.567216 152.016245 
L 343.567216 148.150654 
L 345.089034 148.150654 
L 345.089034 180.547157 
L 346.610852 180.547157 
L 346.610852 141.868483 
L 348.13267 141.868483 
L 348.13267 155.301839 
L 349.654489 155.301839 
L 349.654489 149.605882 
L 351.176307 149.605882 
L 351.176307 131.199264 
L 352.698125 131.199264 
L 352.698125 210.973145 
L 354.219943 210.973145 
L 354.219943 206.563073 
L 355.741761 206.563073 
L 355.741761 84.704564 
L 357.26358 84.704564 
L 357.26358 84.704564 
" clip-path="url(#p67cfd97fa7)" style="fill: none; stroke: #1f77b4; stroke-width: 1.5; stroke-linecap: square"/>
   </g>
   <g id="LineCollection_1">
    <path d="M 67.357216 29.231076 
L 67.357216 27.075771 
" clip-path="url(#p67cfd97fa7)" style="fill: none; stroke: #1f77b4; stroke-width: 1.5"/>
    <path d="M 68.879034 31.995038 
L 68.879034 30.264849 
" clip-path="url(#p67cfd97fa7)" style="fill: none; stroke: #1f77b4; stroke-width: 1.5"/>
    <path d="M 70.400852 29.495586 
L 70.400852 27.676438 
" clip-path="url(#p67cfd97fa7)" style="fill: none; stroke: #1f77b4; stroke-width: 1.5"/>
    <path d="M 71.92267 28.394056 
L 71.92267 26.552374 
" clip-path="url(#p67cfd97fa7)" style="fill: none; stroke: #1f77b4; stroke-width: 1.5"/>
    <path d="M 73.444489 31.011313 
L 73.444489 29.153842 
" clip-path="url(#p67cfd97fa7)" style="fill: none; stroke: #1f77b4; stroke-width: 1.5"/>
    <path d="M 74.966307 31.936401 
L 74.966307 30.086591 
" clip-path="url(#p67cfd97fa7)" style="fill: none; stroke: #1f77b4; stroke-width: 1.5"/>
    <path d="M 76.488125 30.915055 
L 76.488125 29.035214 
" clip-path="url(#p67cfd97fa7)" style="fill: none; stroke: #1f77b4; stroke-width: 1.5"/>
    <path d="M 78.009943 32.135165 
L 78.009943 30.285239 
" clip-path="url(#p67cfd97fa7)" style="fill: none; stroke: #1f77b4; stroke-width: 1.5"/>
    <path d="M 79.531761 35.635764 
L 79.531761 33.818062 
" clip-path="url(#p67cfd97fa7)" style="fill: none; stroke: #1f77b4; stroke-width: 1.5"/>
    <path d="M 81.05358 32.250025 
L 81.05358 30.304259 
" clip-path="url(#p67cfd97fa7)" style="fill: none; stroke: #1f77b4; stroke-width: 1.5"/>
    <path d="M 82.575398 39.055502 
L 82.575398 37.207514 
" clip-path="url(#p67cfd97fa7)" style="fill: none; stroke: #1f77b4; stroke-width: 1.5"/>
    <path d="M 84.097216 38.309423 
L 84.097216 36.410293 
" clip-path="url(#p67cfd97fa7)" style="fill: none; stroke: #1f77b4; stroke-width: 1.5"/>
    <path d="M 85.619034 41.552489 
L 85.619034 39.693213 
" clip-path="url(#p67cfd97fa7)" style="fill: none; stroke: #1f77b4; stroke-width: 1.5"/>
    <path d="M 87.140852 42.304938 
L 87.140852 40.467316 
" clip-path="url(#p67cfd97fa7)" style="fill: none; stroke: #1f77b4; stroke-width: 1.5"/>
    <path d="M 88.66267 44.243234 
L 88.66267 42.337795 
" clip-path="url(#p67cfd97fa7)" style="fill: none; stroke: #1f77b4; stroke-width: 1.5"/>
    <path d="M 90.184489 43.334108 
L 90.184489 41.342164 
" clip-path="url(#p67cfd97fa7)" style="fill: none; stroke: #1f77b4; stroke-width: 1.5"/>
    <path d="M 91.706307 44.887328 
L 91.706307 42.93318 
" clip-path="url(#p67cfd97fa7)" style="fill: none; stroke: #1f77b4; stroke-width: 1.5"/>
    <path d="M 93.228125 46.646132 
L 93.228125 44.603154 
" clip-path="url(#p67cfd97fa7)" style="fill: none; stroke: #1f77b4; stroke-width: 1.5"/>
    <path d="M 94.749943 47.710962 
L 94.749943 45.605301 
" clip-path="url(#p67cfd97fa7)" style="fill: none; stroke: #1f77b4; stroke-width: 1.5"/>
    <path d="M 96.271761 48.102383 
L 96.271761 45.934966 
" clip-path="url(#p67cfd97fa7)" style="fill: none; stroke: #1f77b4; stroke-width: 1.5"/>
    <path d="M 97.79358 54.120314 
L 97.79358 51.736029 
" clip-path="url(#p67cfd97fa7)" style="fill: none; stroke: #1f77b4; stroke-width: 1.5"/>
    <path d="M 99.315398 51.102195 
L 99.315398 48.482611 
" clip-path="url(#p67cfd97fa7)" style="fill: none; stroke: #1f77b4; stroke-width: 1.5"/>
    <path d="M 100.837216 60.57166 
L 100.837216 57.550233 
" clip-path="url(#p67cfd97fa7)" style="fill: none; stroke: #1f77b4; stroke-width: 1.5"/>
    <path d="M 102.359034 57.604704 
L 102.359034 54.208909 
" clip-path="url(#p67cfd97fa7)" style="fill: none; stroke: #1f77b4; stroke-width: 1.5"/>
    <path d="M 103.880852 59.667011 
L 103.880852 55.801036 
" clip-path="url(#p67cfd97fa7)" style="fill: none; stroke: #1f77b4; stroke-width: 1.5"/>
    <path d="M 105.40267 64.122563 
L 105.40267 59.49151 
" clip-path="url(#p67cfd97fa7)" style="fill: none; stroke: #1f77b4; stroke-width: 1.5"/>
    <path d="M 106.924489 68.003379 
L 106.924489 63.768529 
" clip-path="url(#p67cfd97fa7)" style="fill: none; stroke: #1f77b4; stroke-width: 1.5"/>
    <path d="M 108.446307 69.367118 
L 108.446307 65.160117 
" clip-path="url(#p67cfd97fa7)" style="fill: none; stroke: #1f77b4; stroke-width: 1.5"/>
    <path d="M 109.968125 80.97586 
L 109.968125 76.703517 
" clip-path="url(#p67cfd97fa7)" style="fill: none; stroke: #1f77b4; stroke-width: 1.5"/>
    <path d="M 111.489943 83.219872 
L 111.489943 79.374028 
" clip-path="url(#p67cfd97fa7)" style="fill: none; stroke: #1f77b4; stroke-width: 1.5"/>
    <path d="M 113.011761 85.377983 
L 113.011761 81.488657 
" clip-path="url(#p67cfd97fa7)" style="fill: none; stroke: #1f77b4; stroke-width: 1.5"/>
    <path d="M 114.53358 87.496515 
L 114.53358 83.974845 
" clip-path="url(#p67cfd97fa7)" style="fill: none; stroke: #1f77b4; stroke-width: 1.5"/>
    <path d="M 116.055398 93.326228 
L 116.055398 89.643641 
" clip-path="url(#p67cfd97fa7)" style="fill: none; stroke: #1f77b4; stroke-width: 1.5"/>
    <path d="M 117.577216 98.056398 
L 117.577216 94.289248 
" clip-path="url(#p67cfd97fa7)" style="fill: none; stroke: #1f77b4; stroke-width: 1.5"/>
    <path d="M 119.099034 100.429675 
L 119.099034 96.613532 
" clip-path="url(#p67cfd97fa7)" style="fill: none; stroke: #1f77b4; stroke-width: 1.5"/>
    <path d="M 120.620852 107.55899 
L 120.620852 103.296056 
" clip-path="url(#p67cfd97fa7)" style="fill: none; stroke: #1f77b4; stroke-width: 1.5"/>
    <path d="M 122.14267 108.941885 
L 122.14267 104.577885 
" clip-path="url(#p67cfd97fa7)" style="fill: none; stroke: #1f77b4; stroke-width: 1.5"/>
    <path d="M 123.664489 123.897141 
L 123.664489 118.316702 
" clip-path="url(#p67cfd97fa7)" style="fill: none; stroke: #1f77b4; stroke-width: 1.5"/>
    <path d="M 125.186307 125.64652 
L 125.186307 119.859636 
" clip-path="url(#p67cfd97fa7)" style="fill: none; stroke: #1f77b4; stroke-width: 1.5"/>
    <path d="M 126.708125 129.950545 
L 126.708125 123.61094 
" clip-path="url(#p67cfd97fa7)" style="fill: none; stroke: #1f77b4; stroke-width: 1.5"/>
    <path d="M 128.229943 136.438145 
L 128.229943 129.909867 
" clip-path="url(#p67cfd97fa7)" style="fill: none; stroke: #1f77b4; stroke-width: 1.5"/>
    <path d="M 129.751761 142.359595 
L 129.751761 134.703773 
" clip-path="url(#p67cfd97fa7)" style="fill: none; stroke: #1f77b4; stroke-width: 1.5"/>
    <path d="M 131.27358 157.940182 
L 131.27358 147.621486 
" clip-path="url(#p67cfd97fa7)" style="fill: none; stroke: #1f77b4; stroke-width: 1.5"/>
    <path d="M 132.795398 157.75294 
L 132.795398 147.448249 
" clip-path="url(#p67cfd97fa7)" style="fill: none; stroke: #1f77b4; stroke-width: 1.5"/>
    <path d="M 134.317216 158.478308 
L 134.317216 148.006057 
" clip-path="url(#p67cfd97fa7)" style="fill: none; stroke: #1f77b4; stroke-width: 1.5"/>
    <path d="M 135.839034 165.4432 
L 135.839034 153.897287 
" clip-path="url(#p67cfd97fa7)" style="fill: none; stroke: #1f77b4; stroke-width: 1.5"/>
    <path d="M 137.360852 163.880502 
L 137.360852 152.628393 
" clip-path="url(#p67cfd97fa7)" style="fill: none; stroke: #1f77b4; stroke-width: 1.5"/>
    <path d="M 138.88267 157.835164 
L 138.88267 147.405961 
" clip-path="url(#p67cfd97fa7)" style="fill: none; stroke: #1f77b4; stroke-width: 1.5"/>
    <path d="M 140.404489 158.588386 
L 140.404489 148.174256 
" clip-path="url(#p67cfd97fa7)" style="fill: none; stroke: #1f77b4; stroke-width: 1.5"/>
    <path d="M 141.926307 151.614376 
L 141.926307 142.599403 
" clip-path="url(#p67cfd97fa7)" style="fill: none; stroke: #1f77b4; stroke-width: 1.5"/>
    <path d="M 143.448125 152.562224 
L 143.448125 143.331203 
" clip-path="url(#p67cfd97fa7)" style="fill: none; stroke: #1f77b4; stroke-width: 1.5"/>
    <path d="M 144.969943 147.472274 
L 144.969943 139.038985 
" clip-path="url(#p67cfd97fa7)" style="fill: none; stroke: #1f77b4; stroke-width: 1.5"/>
    <path d="M 146.491761 140.056602 
L 146.491761 132.760872 
" clip-path="url(#p67cfd97fa7)" style="fill: none; stroke: #1f77b4; stroke-width: 1.5"/>
    <path d="M 148.01358 148.291125 
L 148.01358 139.8493 
" clip-path="url(#p67cfd97fa7)" style="fill: none; stroke: #1f77b4; stroke-width: 1.5"/>
    <path d="M 149.535398 138.215972 
L 149.535398 131.229477 
" clip-path="url(#p67cfd97fa7)" style="fill: none; stroke: #1f77b4; stroke-width: 1.5"/>
    <path d="M 151.057216 143.79002 
L 151.057216 136.003891 
" clip-path="url(#p67cfd97fa7)" style="fill: none; stroke: #1f77b4; stroke-width: 1.5"/>
    <path d="M 152.579034 136.444939 
L 152.579034 129.654953 
" clip-path="url(#p67cfd97fa7)" style="fill: none; stroke: #1f77b4; stroke-width: 1.5"/>
    <path d="M 154.100852 144.307534 
L 154.100852 136.158492 
" clip-path="url(#p67cfd97fa7)" style="fill: none; stroke: #1f77b4; stroke-width: 1.5"/>
    <path d="M 155.62267 131.626149 
L 155.62267 125.134941 
" clip-path="url(#p67cfd97fa7)" style="fill: none; stroke: #1f77b4; stroke-width: 1.5"/>
    <path d="M 157.144489 136.058667 
L 157.144489 129.20217 
" clip-path="url(#p67cfd97fa7)" style="fill: none; stroke: #1f77b4; stroke-width: 1.5"/>
    <path d="M 158.666307 141.769532 
L 158.666307 134.256722 
" clip-path="url(#p67cfd97fa7)" style="fill: none; stroke: #1f77b4; stroke-width: 1.5"/>
    <path d="M 160.188125 133.371614 
L 160.188125 126.46807 
" clip-path="url(#p67cfd97fa7)" style="fill: none; stroke: #1f77b4; stroke-width: 1.5"/>
    <path d="M 161.709943 141.462951 
L 161.709943 133.806133 
" clip-path="url(#p67cfd97fa7)" style="fill: none; stroke: #1f77b4; stroke-width: 1.5"/>
    <path d="M 163.231761 141.413739 
L 163.231761 133.922801 
" clip-path="url(#p67cfd97fa7)" style="fill: none; stroke: #1f77b4; stroke-width: 1.5"/>
    <path d="M 164.75358 140.203715 
L 164.75358 132.430654 
" clip-path="url(#p67cfd97fa7)" style="fill: none; stroke: #1f77b4; stroke-width: 1.5"/>
    <path d="M 166.275398 140.694868 
L 166.275398 133.379484 
" clip-path="url(#p67cfd97fa7)" style="fill: none; stroke: #1f77b4; stroke-width: 1.5"/>
    <path d="M 167.797216 150.388201 
L 167.797216 141.450726 
" clip-path="url(#p67cfd97fa7)" style="fill: none; stroke: #1f77b4; stroke-width: 1.5"/>
    <path d="M 169.319034 144.997949 
L 169.319034 136.675967 
" clip-path="url(#p67cfd97fa7)" style="fill: none; stroke: #1f77b4; stroke-width: 1.5"/>
    <path d="M 170.840852 143.679173 
L 170.840852 135.635643 
" clip-path="url(#p67cfd97fa7)" style="fill: none; stroke: #1f77b4; stroke-width: 1.5"/>
    <path d="M 172.36267 149.39703 
L 172.36267 140.96896 
" clip-path="url(#p67cfd97fa7)" style="fill: none; stroke: #1f77b4; stroke-width: 1.5"/>
    <path d="M 173.884489 150.362711 
L 173.884489 141.345644 
" clip-path="url(#p67cfd97fa7)" style="fill: none; stroke: #1f77b4; stroke-width: 1.5"/>
    <path d="M 175.406307 151.031511 
L 175.406307 141.818635 
" clip-path="url(#p67cfd97fa7)" style="fill: none; stroke: #1f77b4; stroke-width: 1.5"/>
    <path d="M 176.928125 156.136317 
L 176.928125 146.669776 
" clip-path="url(#p67cfd97fa7)" style="fill: none; stroke: #1f77b4; stroke-width: 1.5"/>
    <path d="M 178.449943 162.527732 
L 178.449943 151.532606 
" clip-path="url(#p67cfd97fa7)" style="fill: none; stroke: #1f77b4; stroke-width: 1.5"/>
    <path d="M 179.971761 160.48736 
L 179.971761 149.617324 
" clip-path="url(#p67cfd97fa7)" style="fill: none; stroke: #1f77b4; stroke-width: 1.5"/>
    <path d="M 181.49358 158.922782 
L 181.49358 148.398062 
" clip-path="url(#p67cfd97fa7)" style="fill: none; stroke: #1f77b4; stroke-width: 1.5"/>
    <path d="M 183.015398 161.322684 
L 183.015398 150.387424 
" clip-path="url(#p67cfd97fa7)" style="fill: none; stroke: #1f77b4; stroke-width: 1.5"/>
    <path d="M 184.537216 162.569813 
L 184.537216 150.98213 
" clip-path="url(#p67cfd97fa7)" style="fill: none; stroke: #1f77b4; stroke-width: 1.5"/>
    <path d="M 186.059034 164.460054 
L 186.059034 153.141473 
" clip-path="url(#p67cfd97fa7)" style="fill: none; stroke: #1f77b4; stroke-width: 1.5"/>
    <path d="M 187.580852 165.607835 
L 187.580852 153.728397 
" clip-path="url(#p67cfd97fa7)" style="fill: none; stroke: #1f77b4; stroke-width: 1.5"/>
    <path d="M 189.10267 169.604437 
L 189.10267 156.796847 
" clip-path="url(#p67cfd97fa7)" style="fill: none; stroke: #1f77b4; stroke-width: 1.5"/>
    <path d="M 190.624489 165.051529 
L 190.624489 153.197156 
" clip-path="url(#p67cfd97fa7)" style="fill: none; stroke: #1f77b4; stroke-width: 1.5"/>
    <path d="M 192.146307 168.466235 
L 192.146307 156.145191 
" clip-path="url(#p67cfd97fa7)" style="fill: none; stroke: #1f77b4; stroke-width: 1.5"/>
    <path d="M 193.668125 169.683429 
L 193.668125 157.196708 
" clip-path="url(#p67cfd97fa7)" style="fill: none; stroke: #1f77b4; stroke-width: 1.5"/>
    <path d="M 195.189943 167.789288 
L 195.189943 155.129162 
" clip-path="url(#p67cfd97fa7)" style="fill: none; stroke: #1f77b4; stroke-width: 1.5"/>
    <path d="M 196.711761 166.909346 
L 196.711761 154.595414 
" clip-path="url(#p67cfd97fa7)" style="fill: none; stroke: #1f77b4; stroke-width: 1.5"/>
    <path d="M 198.23358 171.194112 
L 198.23358 158.421253 
" clip-path="url(#p67cfd97fa7)" style="fill: none; stroke: #1f77b4; stroke-width: 1.5"/>
    <path d="M 199.755398 169.212316 
L 199.755398 156.640963 
" clip-path="url(#p67cfd97fa7)" style="fill: none; stroke: #1f77b4; stroke-width: 1.5"/>
    <path d="M 201.277216 158.356698 
L 201.277216 147.799724 
" clip-path="url(#p67cfd97fa7)" style="fill: none; stroke: #1f77b4; stroke-width: 1.5"/>
    <path d="M 202.799034 166.661773 
L 202.799034 154.712958 
" clip-path="url(#p67cfd97fa7)" style="fill: none; stroke: #1f77b4; stroke-width: 1.5"/>
    <path d="M 204.320852 168.504912 
L 204.320852 156.290204 
" clip-path="url(#p67cfd97fa7)" style="fill: none; stroke: #1f77b4; stroke-width: 1.5"/>
    <path d="M 205.84267 164.769135 
L 205.84267 152.971317 
" clip-path="url(#p67cfd97fa7)" style="fill: none; stroke: #1f77b4; stroke-width: 1.5"/>
    <path d="M 207.364489 158.068903 
L 207.364489 148.184918 
" clip-path="url(#p67cfd97fa7)" style="fill: none; stroke: #1f77b4; stroke-width: 1.5"/>
    <path d="M 208.886307 157.684806 
L 208.886307 147.192966 
" clip-path="url(#p67cfd97fa7)" style="fill: none; stroke: #1f77b4; stroke-width: 1.5"/>
    <path d="M 210.408125 153.903415 
L 210.408125 144.032967 
" clip-path="url(#p67cfd97fa7)" style="fill: none; stroke: #1f77b4; stroke-width: 1.5"/>
    <path d="M 211.929943 155.245648 
L 211.929943 145.286685 
" clip-path="url(#p67cfd97fa7)" style="fill: none; stroke: #1f77b4; stroke-width: 1.5"/>
    <path d="M 213.451761 153.233362 
L 213.451761 143.265584 
" clip-path="url(#p67cfd97fa7)" style="fill: none; stroke: #1f77b4; stroke-width: 1.5"/>
    <path d="M 214.97358 164.476848 
L 214.97358 152.94721 
" clip-path="url(#p67cfd97fa7)" style="fill: none; stroke: #1f77b4; stroke-width: 1.5"/>
    <path d="M 216.495398 159.692544 
L 216.495398 149.380983 
" clip-path="url(#p67cfd97fa7)" style="fill: none; stroke: #1f77b4; stroke-width: 1.5"/>
    <path d="M 218.017216 157.628987 
L 218.017216 147.453218 
" clip-path="url(#p67cfd97fa7)" style="fill: none; stroke: #1f77b4; stroke-width: 1.5"/>
    <path d="M 219.539034 154.976957 
L 219.539034 144.70235 
" clip-path="url(#p67cfd97fa7)" style="fill: none; stroke: #1f77b4; stroke-width: 1.5"/>
    <path d="M 221.060852 161.812187 
L 221.060852 151.27501 
" clip-path="url(#p67cfd97fa7)" style="fill: none; stroke: #1f77b4; stroke-width: 1.5"/>
    <path d="M 222.58267 151.851178 
L 222.58267 142.573778 
" clip-path="url(#p67cfd97fa7)" style="fill: none; stroke: #1f77b4; stroke-width: 1.5"/>
    <path d="M 224.104489 163.479236 
L 224.104489 152.589661 
" clip-path="url(#p67cfd97fa7)" style="fill: none; stroke: #1f77b4; stroke-width: 1.5"/>
    <path d="M 225.626307 162.079899 
L 225.626307 150.889602 
" clip-path="url(#p67cfd97fa7)" style="fill: none; stroke: #1f77b4; stroke-width: 1.5"/>
    <path d="M 227.148125 154.50406 
L 227.148125 144.650116 
" clip-path="url(#p67cfd97fa7)" style="fill: none; stroke: #1f77b4; stroke-width: 1.5"/>
    <path d="M 228.669943 159.745572 
L 228.669943 149.071482 
" clip-path="url(#p67cfd97fa7)" style="fill: none; stroke: #1f77b4; stroke-width: 1.5"/>
    <path d="M 230.191761 177.923147 
L 230.191761 163.223523 
" clip-path="url(#p67cfd97fa7)" style="fill: none; stroke: #1f77b4; stroke-width: 1.5"/>
    <path d="M 231.71358 173.777851 
L 231.71358 160.351366 
" clip-path="url(#p67cfd97fa7)" style="fill: none; stroke: #1f77b4; stroke-width: 1.5"/>
    <path d="M 233.235398 163.337199 
L 233.235398 151.803806 
" clip-path="url(#p67cfd97fa7)" style="fill: none; stroke: #1f77b4; stroke-width: 1.5"/>
    <path d="M 234.757216 159.986923 
L 234.757216 149.093437 
" clip-path="url(#p67cfd97fa7)" style="fill: none; stroke: #1f77b4; stroke-width: 1.5"/>
    <path d="M 236.279034 176.926691 
L 236.279034 162.611935 
" clip-path="url(#p67cfd97fa7)" style="fill: none; stroke: #1f77b4; stroke-width: 1.5"/>
    <path d="M 237.800852 167.742095 
L 237.800852 155.552582 
" clip-path="url(#p67cfd97fa7)" style="fill: none; stroke: #1f77b4; stroke-width: 1.5"/>
    <path d="M 239.32267 167.261452 
L 239.32267 155.542224 
" clip-path="url(#p67cfd97fa7)" style="fill: none; stroke: #1f77b4; stroke-width: 1.5"/>
    <path d="M 240.844489 164.591627 
L 240.844489 153.254563 
" clip-path="url(#p67cfd97fa7)" style="fill: none; stroke: #1f77b4; stroke-width: 1.5"/>
    <path d="M 242.366307 170.697471 
L 242.366307 158.098693 
" clip-path="url(#p67cfd97fa7)" style="fill: none; stroke: #1f77b4; stroke-width: 1.5"/>
    <path d="M 243.888125 173.210113 
L 243.888125 159.358573 
" clip-path="url(#p67cfd97fa7)" style="fill: none; stroke: #1f77b4; stroke-width: 1.5"/>
    <path d="M 245.409943 169.774373 
L 245.409943 157.200558 
" clip-path="url(#p67cfd97fa7)" style="fill: none; stroke: #1f77b4; stroke-width: 1.5"/>
    <path d="M 246.931761 168.095406 
L 246.931761 155.88192 
" clip-path="url(#p67cfd97fa7)" style="fill: none; stroke: #1f77b4; stroke-width: 1.5"/>
    <path d="M 248.45358 171.104383 
L 248.45358 157.930414 
" clip-path="url(#p67cfd97fa7)" style="fill: none; stroke: #1f77b4; stroke-width: 1.5"/>
    <path d="M 249.975398 169.423247 
L 249.975398 156.822584 
" clip-path="url(#p67cfd97fa7)" style="fill: none; stroke: #1f77b4; stroke-width: 1.5"/>
    <path d="M 251.497216 168.4934 
L 251.497216 155.840683 
" clip-path="url(#p67cfd97fa7)" style="fill: none; stroke: #1f77b4; stroke-width: 1.5"/>
    <path d="M 253.019034 165.607703 
L 253.019034 153.833793 
" clip-path="url(#p67cfd97fa7)" style="fill: none; stroke: #1f77b4; stroke-width: 1.5"/>
    <path d="M 254.540852 163.505142 
L 254.540852 152.22324 
" clip-path="url(#p67cfd97fa7)" style="fill: none; stroke: #1f77b4; stroke-width: 1.5"/>
    <path d="M 256.06267 159.802977 
L 256.06267 149.140717 
" clip-path="url(#p67cfd97fa7)" style="fill: none; stroke: #1f77b4; stroke-width: 1.5"/>
    <path d="M 257.584489 159.369546 
L 257.584489 148.861314 
" clip-path="url(#p67cfd97fa7)" style="fill: none; stroke: #1f77b4; stroke-width: 1.5"/>
    <path d="M 259.106307 161.559923 
L 259.106307 149.993474 
" clip-path="url(#p67cfd97fa7)" style="fill: none; stroke: #1f77b4; stroke-width: 1.5"/>
    <path d="M 260.628125 162.39851 
L 260.628125 150.79328 
" clip-path="url(#p67cfd97fa7)" style="fill: none; stroke: #1f77b4; stroke-width: 1.5"/>
    <path d="M 262.149943 169.04976 
L 262.149943 156.663644 
" clip-path="url(#p67cfd97fa7)" style="fill: none; stroke: #1f77b4; stroke-width: 1.5"/>
    <path d="M 263.671761 169.951213 
L 263.671761 156.702768 
" clip-path="url(#p67cfd97fa7)" style="fill: none; stroke: #1f77b4; stroke-width: 1.5"/>
    <path d="M 265.19358 176.19674 
L 265.19358 161.766257 
" clip-path="url(#p67cfd97fa7)" style="fill: none; stroke: #1f77b4; stroke-width: 1.5"/>
    <path d="M 266.715398 172.175484 
L 266.715398 158.53774 
" clip-path="url(#p67cfd97fa7)" style="fill: none; stroke: #1f77b4; stroke-width: 1.5"/>
    <path d="M 268.237216 164.627011 
L 268.237216 153.394441 
" clip-path="url(#p67cfd97fa7)" style="fill: none; stroke: #1f77b4; stroke-width: 1.5"/>
    <path d="M 269.759034 170.624686 
L 269.759034 157.927935 
" clip-path="url(#p67cfd97fa7)" style="fill: none; stroke: #1f77b4; stroke-width: 1.5"/>
    <path d="M 271.280852 170.074066 
L 271.280852 157.29791 
" clip-path="url(#p67cfd97fa7)" style="fill: none; stroke: #1f77b4; stroke-width: 1.5"/>
    <path d="M 272.80267 174.91874 
L 272.80267 161.331514 
" clip-path="url(#p67cfd97fa7)" style="fill: none; stroke: #1f77b4; stroke-width: 1.5"/>
    <path d="M 274.324489 164.166476 
L 274.324489 152.689729 
" clip-path="url(#p67cfd97fa7)" style="fill: none; stroke: #1f77b4; stroke-width: 1.5"/>
    <path d="M 275.846307 163.915831 
L 275.846307 152.389779 
" clip-path="url(#p67cfd97fa7)" style="fill: none; stroke: #1f77b4; stroke-width: 1.5"/>
    <path d="M 277.368125 162.212195 
L 277.368125 151.495456 
" clip-path="url(#p67cfd97fa7)" style="fill: none; stroke: #1f77b4; stroke-width: 1.5"/>
    <path d="M 278.889943 163.10614 
L 278.889943 152.291245 
" clip-path="url(#p67cfd97fa7)" style="fill: none; stroke: #1f77b4; stroke-width: 1.5"/>
    <path d="M 280.411761 174.283144 
L 280.411761 160.565885 
" clip-path="url(#p67cfd97fa7)" style="fill: none; stroke: #1f77b4; stroke-width: 1.5"/>
    <path d="M 281.93358 154.969131 
L 281.93358 144.832258 
" clip-path="url(#p67cfd97fa7)" style="fill: none; stroke: #1f77b4; stroke-width: 1.5"/>
    <path d="M 283.455398 163.831777 
L 283.455398 152.452687 
" clip-path="url(#p67cfd97fa7)" style="fill: none; stroke: #1f77b4; stroke-width: 1.5"/>
    <path d="M 284.977216 160.018944 
L 284.977216 149.120065 
" clip-path="url(#p67cfd97fa7)" style="fill: none; stroke: #1f77b4; stroke-width: 1.5"/>
    <path d="M 286.499034 165.214528 
L 286.499034 153.695513 
" clip-path="url(#p67cfd97fa7)" style="fill: none; stroke: #1f77b4; stroke-width: 1.5"/>
    <path d="M 288.020852 164.570387 
L 288.020852 152.986958 
" clip-path="url(#p67cfd97fa7)" style="fill: none; stroke: #1f77b4; stroke-width: 1.5"/>
    <path d="M 289.54267 170.527065 
L 289.54267 157.904591 
" clip-path="url(#p67cfd97fa7)" style="fill: none; stroke: #1f77b4; stroke-width: 1.5"/>
    <path d="M 291.064489 170.100361 
L 291.064489 157.232405 
" clip-path="url(#p67cfd97fa7)" style="fill: none; stroke: #1f77b4; stroke-width: 1.5"/>
    <path d="M 292.586307 163.61048 
L 292.586307 151.613419 
" clip-path="url(#p67cfd97fa7)" style="fill: none; stroke: #1f77b4; stroke-width: 1.5"/>
    <path d="M 294.108125 167.040984 
L 294.108125 154.914476 
" clip-path="url(#p67cfd97fa7)" style="fill: none; stroke: #1f77b4; stroke-width: 1.5"/>
    <path d="M 295.629943 178.384494 
L 295.629943 163.027117 
" clip-path="url(#p67cfd97fa7)" style="fill: none; stroke: #1f77b4; stroke-width: 1.5"/>
    <path d="M 297.151761 168.044478 
L 297.151761 155.098198 
" clip-path="url(#p67cfd97fa7)" style="fill: none; stroke: #1f77b4; stroke-width: 1.5"/>
    <path d="M 298.67358 165.508787 
L 298.67358 152.744181 
" clip-path="url(#p67cfd97fa7)" style="fill: none; stroke: #1f77b4; stroke-width: 1.5"/>
    <path d="M 300.195398 174.02876 
L 300.195398 159.033855 
" clip-path="url(#p67cfd97fa7)" style="fill: none; stroke: #1f77b4; stroke-width: 1.5"/>
    <path d="M 301.717216 175.207722 
L 301.717216 159.701725 
" clip-path="url(#p67cfd97fa7)" style="fill: none; stroke: #1f77b4; stroke-width: 1.5"/>
    <path d="M 303.239034 184.324161 
L 303.239034 165.272201 
" clip-path="url(#p67cfd97fa7)" style="fill: none; stroke: #1f77b4; stroke-width: 1.5"/>
    <path d="M 304.760852 177.632911 
L 304.760852 160.675133 
" clip-path="url(#p67cfd97fa7)" style="fill: none; stroke: #1f77b4; stroke-width: 1.5"/>
    <path d="M 306.28267 179.926809 
L 306.28267 162.927309 
" clip-path="url(#p67cfd97fa7)" style="fill: none; stroke: #1f77b4; stroke-width: 1.5"/>
    <path d="M 307.804489 178.892224 
L 307.804489 162.552478 
" clip-path="url(#p67cfd97fa7)" style="fill: none; stroke: #1f77b4; stroke-width: 1.5"/>
    <path d="M 309.326307 180.308029 
L 309.326307 161.930669 
" clip-path="url(#p67cfd97fa7)" style="fill: none; stroke: #1f77b4; stroke-width: 1.5"/>
    <path d="M 310.848125 179.584167 
L 310.848125 162.154516 
" clip-path="url(#p67cfd97fa7)" style="fill: none; stroke: #1f77b4; stroke-width: 1.5"/>
    <path d="M 312.369943 182.716471 
L 312.369943 163.231959 
" clip-path="url(#p67cfd97fa7)" style="fill: none; stroke: #1f77b4; stroke-width: 1.5"/>
    <path d="M 313.891761 157.810516 
L 313.891761 145.232816 
" clip-path="url(#p67cfd97fa7)" style="fill: none; stroke: #1f77b4; stroke-width: 1.5"/>
    <path d="M 315.41358 174.618034 
L 315.41358 157.002067 
" clip-path="url(#p67cfd97fa7)" style="fill: none; stroke: #1f77b4; stroke-width: 1.5"/>
    <path d="M 316.935398 160.804382 
L 316.935398 147.151796 
" clip-path="url(#p67cfd97fa7)" style="fill: none; stroke: #1f77b4; stroke-width: 1.5"/>
    <path d="M 318.457216 166.227343 
L 318.457216 151.156931 
" clip-path="url(#p67cfd97fa7)" style="fill: none; stroke: #1f77b4; stroke-width: 1.5"/>
    <path d="M 319.979034 159.734698 
L 319.979034 146.228146 
" clip-path="url(#p67cfd97fa7)" style="fill: none; stroke: #1f77b4; stroke-width: 1.5"/>
    <path d="M 321.500852 178.99879 
L 321.500852 159.142102 
" clip-path="url(#p67cfd97fa7)" style="fill: none; stroke: #1f77b4; stroke-width: 1.5"/>
    <path d="M 323.02267 182.995761 
L 323.02267 162.178592 
" clip-path="url(#p67cfd97fa7)" style="fill: none; stroke: #1f77b4; stroke-width: 1.5"/>
    <path d="M 324.544489 159.01294 
L 324.544489 145.23052 
" clip-path="url(#p67cfd97fa7)" style="fill: none; stroke: #1f77b4; stroke-width: 1.5"/>
    <path d="M 326.066307 167.949978 
L 326.066307 150.070986 
" clip-path="url(#p67cfd97fa7)" style="fill: none; stroke: #1f77b4; stroke-width: 1.5"/>
    <path d="M 327.588125 163.800324 
L 327.588125 148.524445 
" clip-path="url(#p67cfd97fa7)" style="fill: none; stroke: #1f77b4; stroke-width: 1.5"/>
    <path d="M 329.109943 172.288264 
L 329.109943 152.352618 
" clip-path="url(#p67cfd97fa7)" style="fill: none; stroke: #1f77b4; stroke-width: 1.5"/>
    <path d="M 330.631761 178.785768 
L 330.631761 156.759788 
" clip-path="url(#p67cfd97fa7)" style="fill: none; stroke: #1f77b4; stroke-width: 1.5"/>
    <path d="M 332.15358 168.219357 
L 332.15358 149.186173 
" clip-path="url(#p67cfd97fa7)" style="fill: none; stroke: #1f77b4; stroke-width: 1.5"/>
    <path d="M 333.675398 161.524397 
L 333.675398 143.731617 
" clip-path="url(#p67cfd97fa7)" style="fill: none; stroke: #1f77b4; stroke-width: 1.5"/>
    <path d="M 335.197216 188.766569 
L 335.197216 160.491387 
" clip-path="url(#p67cfd97fa7)" style="fill: none; stroke: #1f77b4; stroke-width: 1.5"/>
    <path d="M 336.719034 164.520485 
L 336.719034 144.668928 
" clip-path="url(#p67cfd97fa7)" style="fill: none; stroke: #1f77b4; stroke-width: 1.5"/>
    <path d="M 338.240852 173.06466 
L 338.240852 150.27141 
" clip-path="url(#p67cfd97fa7)" style="fill: none; stroke: #1f77b4; stroke-width: 1.5"/>
    <path d="M 339.76267 175.934266 
L 339.76267 150.606445 
" clip-path="url(#p67cfd97fa7)" style="fill: none; stroke: #1f77b4; stroke-width: 1.5"/>
    <path d="M 341.284489 265.534419 
L 341.284489 172.897385 
" clip-path="url(#p67cfd97fa7)" style="fill: none; stroke: #1f77b4; stroke-width: 1.5"/>
    <path d="M 342.806307 166.442784 
L 342.806307 143.057783 
" clip-path="url(#p67cfd97fa7)" style="fill: none; stroke: #1f77b4; stroke-width: 1.5"/>
    <path d="M 344.328125 164.418384 
L 344.328125 138.530267 
" clip-path="url(#p67cfd97fa7)" style="fill: none; stroke: #1f77b4; stroke-width: 1.5"/>
    <path d="M 345.849943 257.748681 
L 345.849943 164.350648 
" clip-path="url(#p67cfd97fa7)" style="fill: none; stroke: #1f77b4; stroke-width: 1.5"/>
    <path d="M 347.371761 159.138141 
L 347.371761 131.915535 
" clip-path="url(#p67cfd97fa7)" style="fill: none; stroke: #1f77b4; stroke-width: 1.5"/>
    <path d="M 348.89358 179.35846 
L 348.89358 143.511516 
" clip-path="url(#p67cfd97fa7)" style="fill: none; stroke: #1f77b4; stroke-width: 1.5"/>
    <path d="M 350.415398 179.548924 
L 350.415398 136.665188 
" clip-path="url(#p67cfd97fa7)" style="fill: none; stroke: #1f77b4; stroke-width: 1.5"/>
    <path d="M 351.937216 152.663158 
L 351.937216 120.034676 
" clip-path="url(#p67cfd97fa7)" style="fill: none; stroke: #1f77b4; stroke-width: 1.5"/>
    <path d="M 353.459034 272.238906 
L 353.459034 175.532692 
" clip-path="url(#p67cfd97fa7)" style="fill: none; stroke: #1f77b4; stroke-width: 1.5"/>
    <path d="M 354.980852 272.238906 
L 354.980852 166.443358 
" clip-path="url(#p67cfd97fa7)" style="fill: none; stroke: #1f77b4; stroke-width: 1.5"/>
    <path d="M 356.50267 130.720577 
L 356.50267 69.865323 
" clip-path="url(#p67cfd97fa7)" style="fill: none; stroke: #1f77b4; stroke-width: 1.5"/>
    <path clip-path="url(#p67cfd97fa7)" style="fill: none; stroke: #1f77b4; stroke-width: 1.5"/>
    <path clip-path="url(#p67cfd97fa7)" style="fill: none; stroke: #1f77b4; stroke-width: 1.5"/>
    <path clip-path="url(#p67cfd97fa7)" style="fill: none; stroke: #1f77b4; stroke-width: 1.5"/>
    <path clip-path="url(#p67cfd97fa7)" style="fill: none; stroke: #1f77b4; stroke-width: 1.5"/>
    <path clip-path="url(#p67cfd97fa7)" style="fill: none; stroke: #1f77b4; stroke-width: 1.5"/>
    <path clip-path="url(#p67cfd97fa7)" style="fill: none; stroke: #1f77b4; stroke-width: 1.5"/>
    <path clip-path="url(#p67cfd97fa7)" style="fill: none; stroke: #1f77b4; stroke-width: 1.5"/>
    <path clip-path="url(#p67cfd97fa7)" style="fill: none; stroke: #1f77b4; stroke-width: 1.5"/>
    <path clip-path="url(#p67cfd97fa7)" style="fill: none; stroke: #1f77b4; stroke-width: 1.5"/>
   </g>
  </g>
 </g>
 <defs>
  <clipPath id="p67cfd97fa7">
   <rect x="51.378125" y="10.999219" width="334.8" height="221.76"/>
  </clipPath>
 </defs>
</svg>