<?xml version="1.0" encoding="utf-8" standalone="no"?>
<!DOCTYPE svg PUBLIC "-//W3C//DTD SVG 1.1//EN"
  "http://www.w3.org/Graphics/SVG/1.1/DTD/svg11.dtd">
<svg xmlns:xlink="http://www.w3.org/1999/xlink" width="424.495625pt" height="280.173125pt" viewBox="0 0 424.495625 280.173125" xmlns="http://www.w3.org/2000/svg" version="1.1">
 <metadata>
  <rdf:RDF xmlns:dc="http://purl.org/dc/elements/1.1/" xmlns:cc="http://creativecommons.org/ns#" xmlns:rdf="http://www.w3.org/1999/02/22-rdf-syntax-ns#">
   <cc:Work>
    <dc:type rdf:resource="http://purl.org/dc/dcmitype/StillImage"/>
    <dc:date>2024-09-10T09:04:14.415876</dc:date>
    <dc:format>image/svg+xml</dc:format>
    <dc:creator>
     <cc:Agent>
      <dc:title>Matplotlib v3.9.2, https://matplotlib.org/</dc:title>
     </cc:Agent>
    </dc:creator>
   </cc:Work>
  </rdf:RDF>
 </metadata>
 <defs>
  <style type="text/css">*{stroke-linejoin: round; stroke-linecap: butt}</style>
 </defs>
 <g id="figure_1">
  <g id="patch_1">
   <path d="M 0 280.173125 
L 424.495625 280.173125 
L 424.495625 0 
L 0 0 
z
" style="fill: #ffffff"/>
  </g>
  <g id="axes_1">
   <g id="patch_2">
    <path d="M 46.965625 242.33875 
L 417.295625 242.33875 
L 417.295625 7.2 
L 46.965625 7.2 
z
" style="fill: #ffffff"/>
   </g>
   <g id="matplotlib.axis_1">
    <g id="xtick_1">
     <g id="line2d_1">
      <defs>
       <path id="m4f194f86e1" d="M 0 0 
L 0 3.5 
" style="stroke: #000000; stroke-width: 0.8"/>
      </defs>
      <g>
       <use xlink:href="#m4f194f86e1" x="61.223691" y="242.33875" style="stroke: #000000; stroke-width: 0.8"/>
      </g>
     </g>
     <g id="text_1">
      <!-- −0.0125 -->
      <g transform="translate(39.538535 256.937187) scale(0.1 -0.1)">
       <defs>
        <path id="DejaVuSans-2212" d="M 678 2272 
L 4684 2272 
L 4684 1741 
L 678 1741 
L 678 2272 
z
" transform="scale(0.015625)"/>
        <path id="DejaVuSans-30" d="M 2034 4250 
Q 1547 4250 1301 3770 
Q 1056 3291 1056 2328 
Q 1056 1369 1301 889 
Q 1547 409 2034 409 
Q 2525 409 2770 889 
Q 3016 1369 3016 2328 
Q 3016 3291 2770 3770 
Q 2525 4250 2034 4250 
z
M 2034 4750 
Q 2819 4750 3233 4129 
Q 3647 3509 3647 2328 
Q 3647 1150 3233 529 
Q 2819 -91 2034 -91 
Q 1250 -91 836 529 
Q 422 1150 422 2328 
Q 422 3509 836 4129 
Q 1250 4750 2034 4750 
z
" transform="scale(0.015625)"/>
        <path id="DejaVuSans-2e" d="M 684 794 
L 1344 794 
L 1344 0 
L 684 0 
L 684 794 
z
" transform="scale(0.015625)"/>
        <path id="DejaVuSans-31" d="M 794 531 
L 1825 531 
L 1825 4091 
L 703 3866 
L 703 4441 
L 1819 4666 
L 2450 4666 
L 2450 531 
L 3481 531 
L 3481 0 
L 794 0 
L 794 531 
z
" transform="scale(0.015625)"/>
        <path id="DejaVuSans-32" d="M 1228 531 
L 3431 531 
L 3431 0 
L 469 0 
L 469 531 
Q 828 903 1448 1529 
Q 2069 2156 2228 2338 
Q 2531 2678 2651 2914 
Q 2772 3150 2772 3378 
Q 2772 3750 2511 3984 
Q 2250 4219 1831 4219 
Q 1534 4219 1204 4116 
Q 875 4013 500 3803 
L 500 4441 
Q 881 4594 1212 4672 
Q 1544 4750 1819 4750 
Q 2544 4750 2975 4387 
Q 3406 4025 3406 3419 
Q 3406 3131 3298 2873 
Q 3191 2616 2906 2266 
Q 2828 2175 2409 1742 
Q 1991 1309 1228 531 
z
" transform="scale(0.015625)"/>
        <path id="DejaVuSans-35" d="M 691 4666 
L 3169 4666 
L 3169 4134 
L 1269 4134 
L 1269 2991 
Q 1406 3038 1543 3061 
Q 1681 3084 1819 3084 
Q 2600 3084 3056 2656 
Q 3513 2228 3513 1497 
Q 3513 744 3044 326 
Q 2575 -91 1722 -91 
Q 1428 -91 1123 -41 
Q 819 9 494 109 
L 494 744 
Q 775 591 1075 516 
Q 1375 441 1709 441 
Q 2250 441 2565 725 
Q 2881 1009 2881 1497 
Q 2881 1984 2565 2268 
Q 2250 2553 1709 2553 
Q 1456 2553 1204 2497 
Q 953 2441 691 2322 
L 691 4666 
z
" transform="scale(0.015625)"/>
       </defs>
       <use xlink:href="#DejaVuSans-2212"/>
       <use xlink:href="#DejaVuSans-30" x="83.789062"/>
       <use xlink:href="#DejaVuSans-2e" x="147.412109"/>
       <use xlink:href="#DejaVuSans-30" x="179.199219"/>
       <use xlink:href="#DejaVuSans-31" x="242.822266"/>
       <use xlink:href="#DejaVuSans-32" x="306.445312"/>
       <use xlink:href="#DejaVuSans-35" x="370.068359"/>
      </g>
     </g>
    </g>
    <g id="xtick_2">
     <g id="line2d_2">
      <g>
       <use xlink:href="#m4f194f86e1" x="106.192265" y="242.33875" style="stroke: #000000; stroke-width: 0.8"/>
      </g>
     </g>
     <g id="text_2">
      <!-- −0.0100 -->
      <g transform="translate(84.507109 256.937187) scale(0.1 -0.1)">
       <use xlink:href="#DejaVuSans-2212"/>
       <use xlink:href="#DejaVuSans-30" x="83.789062"/>
       <use xlink:href="#DejaVuSans-2e" x="147.412109"/>
       <use xlink:href="#DejaVuSans-30" x="179.199219"/>
       <use xlink:href="#DejaVuSans-31" x="242.822266"/>
       <use xlink:href="#DejaVuSans-30" x="306.445312"/>
       <use xlink:href="#DejaVuSans-30" x="370.068359"/>
      </g>
     </g>
    </g>
    <g id="xtick_3">
     <g id="line2d_3">
      <g>
       <use xlink:href="#m4f194f86e1" x="151.160839" y="242.33875" style="stroke: #000000; stroke-width: 0.8"/>
      </g>
     </g>
     <g id="text_3">
      <!-- −0.0075 -->
      <g transform="translate(129.475683 256.937187) scale(0.1 -0.1)">
       <defs>
        <path id="DejaVuSans-37" d="M 525 4666 
L 3525 4666 
L 3525 4397 
L 1831 0 
L 1172 0 
L 2766 4134 
L 525 4134 
L 525 4666 
z
" transform="scale(0.015625)"/>
       </defs>
       <use xlink:href="#DejaVuSans-2212"/>
       <use xlink:href="#DejaVuSans-30" x="83.789062"/>
       <use xlink:href="#DejaVuSans-2e" x="147.412109"/>
       <use xlink:href="#DejaVuSans-30" x="179.199219"/>
       <use xlink:href="#DejaVuSans-30" x="242.822266"/>
       <use xlink:href="#DejaVuSans-37" x="306.445312"/>
       <use xlink:href="#DejaVuSans-35" x="370.068359"/>
      </g>
     </g>
    </g>
    <g id="xtick_4">
     <g id="line2d_4">
      <g>
       <use xlink:href="#m4f194f86e1" x="196.129413" y="242.33875" style="stroke: #000000; stroke-width: 0.8"/>
      </g>
     </g>
     <g id="text_4">
      <!-- −0.0050 -->
      <g transform="translate(174.444257 256.937187) scale(0.1 -0.1)">
       <use xlink:href="#DejaVuSans-2212"/>
       <use xlink:href="#DejaVuSans-30" x="83.789062"/>
       <use xlink:href="#DejaVuSans-2e" x="147.412109"/>
       <use xlink:href="#DejaVuSans-30" x="179.199219"/>
       <use xlink:href="#DejaVuSans-30" x="242.822266"/>
       <use xlink:href="#DejaVuSans-35" x="306.445312"/>
       <use xlink:href="#DejaVuSans-30" x="370.068359"/>
      </g>
     </g>
    </g>
    <g id="xtick_5">
     <g id="line2d_5">
      <g>
       <use xlink:href="#m4f194f86e1" x="241.097987" y="242.33875" style="stroke: #000000; stroke-width: 0.8"/>
      </g>
     </g>
     <g id="text_5">
      <!-- −0.0025 -->
      <g transform="translate(219.412831 256.937187) scale(0.1 -0.1)">
       <use xlink:href="#DejaVuSans-2212"/>
       <use xlink:href="#DejaVuSans-30" x="83.789062"/>
       <use xlink:href="#DejaVuSans-2e" x="147.412109"/>
       <use xlink:href="#DejaVuSans-30" x="179.199219"/>
       <use xlink:href="#DejaVuSans-30" x="242.822266"/>
       <use xlink:href="#DejaVuSans-32" x="306.445312"/>
       <use xlink:href="#DejaVuSans-35" x="370.068359"/>
      </g>
     </g>
    </g>
    <g id="xtick_6">
     <g id="line2d_6">
      <g>
       <use xlink:href="#m4f194f86e1" x="286.066561" y="242.33875" style="stroke: #000000; stroke-width: 0.8"/>
      </g>
     </g>
     <g id="text_6">
      <!-- 0.0000 -->
      <g transform="translate(268.571248 256.937187) scale(0.1 -0.1)">
       <use xlink:href="#DejaVuSans-30"/>
       <use xlink:href="#DejaVuSans-2e" x="63.623047"/>
       <use xlink:href="#DejaVuSans-30" x="95.410156"/>
       <use xlink:href="#DejaVuSans-30" x="159.033203"/>
       <use xlink:href="#DejaVuSans-30" x="222.65625"/>
       <use xlink:href="#DejaVuSans-30" x="286.279297"/>
      </g>
     </g>
    </g>
    <g id="xtick_7">
     <g id="line2d_7">
      <g>
       <use xlink:href="#m4f194f86e1" x="331.035135" y="242.33875" style="stroke: #000000; stroke-width: 0.8"/>
      </g>
     </g>
     <g id="text_7">
      <!-- 0.0025 -->
      <g transform="translate(313.539822 256.937187) scale(0.1 -0.1)">
       <use xlink:href="#DejaVuSans-30"/>
       <use xlink:href="#DejaVuSans-2e" x="63.623047"/>
       <use xlink:href="#DejaVuSans-30" x="95.410156"/>
       <use xlink:href="#DejaVuSans-30" x="159.033203"/>
       <use xlink:href="#DejaVuSans-32" x="222.65625"/>
       <use xlink:href="#DejaVuSans-35" x="286.279297"/>
      </g>
     </g>
    </g>
    <g id="xtick_8">
     <g id="line2d_8">
      <g>
       <use xlink:href="#m4f194f86e1" x="376.003709" y="242.33875" style="stroke: #000000; stroke-width: 0.8"/>
      </g>
     </g>
     <g id="text_8">
      <!-- 0.0050 -->
      <g transform="translate(358.508396 256.937187) scale(0.1 -0.1)">
       <use xlink:href="#DejaVuSans-30"/>
       <use xlink:href="#DejaVuSans-2e" x="63.623047"/>
       <use xlink:href="#DejaVuSans-30" x="95.410156"/>
       <use xlink:href="#DejaVuSans-30" x="159.033203"/>
       <use xlink:href="#DejaVuSans-35" x="222.65625"/>
       <use xlink:href="#DejaVuSans-30" x="286.279297"/>
      </g>
     </g>
    </g>
    <g id="text_9">
     <!-- energy_transfer [meV] -->
     <g transform="translate(175.604062 270.615312) scale(0.1 -0.1)">
      <defs>
       <path id="DejaVuSans-65" d="M 3597 1894 
L 3597 1613 
L 953 1613 
Q 991 1019 1311 708 
Q 1631 397 2203 397 
Q 2534 397 2845 478 
Q 3156 559 3463 722 
L 3463 178 
Q 3153 47 2828 -22 
Q 2503 -91 2169 -91 
Q 1331 -91 842 396 
Q 353 884 353 1716 
Q 353 2575 817 3079 
Q 1281 3584 2069 3584 
Q 2775 3584 3186 3129 
Q 3597 2675 3597 1894 
z
M 3022 2063 
Q 3016 2534 2758 2815 
Q 2500 3097 2075 3097 
Q 1594 3097 1305 2825 
Q 1016 2553 972 2059 
L 3022 2063 
z
" transform="scale(0.015625)"/>
       <path id="DejaVuSans-6e" d="M 3513 2113 
L 3513 0 
L 2938 0 
L 2938 2094 
Q 2938 2591 2744 2837 
Q 2550 3084 2163 3084 
Q 1697 3084 1428 2787 
Q 1159 2491 1159 1978 
L 1159 0 
L 581 0 
L 581 3500 
L 1159 3500 
L 1159 2956 
Q 1366 3272 1645 3428 
Q 1925 3584 2291 3584 
Q 2894 3584 3203 3211 
Q 3513 2838 3513 2113 
z
" transform="scale(0.015625)"/>
       <path id="DejaVuSans-72" d="M 2631 2963 
Q 2534 3019 2420 3045 
Q 2306 3072 2169 3072 
Q 1681 3072 1420 2755 
Q 1159 2438 1159 1844 
L 1159 0 
L 581 0 
L 581 3500 
L 1159 3500 
L 1159 2956 
Q 1341 3275 1631 3429 
Q 1922 3584 2338 3584 
Q 2397 3584 2469 3576 
Q 2541 3569 2628 3553 
L 2631 2963 
z
" transform="scale(0.015625)"/>
       <path id="DejaVuSans-67" d="M 2906 1791 
Q 2906 2416 2648 2759 
Q 2391 3103 1925 3103 
Q 1463 3103 1205 2759 
Q 947 2416 947 1791 
Q 947 1169 1205 825 
Q 1463 481 1925 481 
Q 2391 481 2648 825 
Q 2906 1169 2906 1791 
z
M 3481 434 
Q 3481 -459 3084 -895 
Q 2688 -1331 1869 -1331 
Q 1566 -1331 1297 -1286 
Q 1028 -1241 775 -1147 
L 775 -588 
Q 1028 -725 1275 -790 
Q 1522 -856 1778 -856 
Q 2344 -856 2625 -561 
Q 2906 -266 2906 331 
L 2906 616 
Q 2728 306 2450 153 
Q 2172 0 1784 0 
Q 1141 0 747 490 
Q 353 981 353 1791 
Q 353 2603 747 3093 
Q 1141 3584 1784 3584 
Q 2172 3584 2450 3431 
Q 2728 3278 2906 2969 
L 2906 3500 
L 3481 3500 
L 3481 434 
z
" transform="scale(0.015625)"/>
       <path id="DejaVuSans-79" d="M 2059 -325 
Q 1816 -950 1584 -1140 
Q 1353 -1331 966 -1331 
L 506 -1331 
L 506 -850 
L 844 -850 
Q 1081 -850 1212 -737 
Q 1344 -625 1503 -206 
L 1606 56 
L 191 3500 
L 800 3500 
L 1894 763 
L 2988 3500 
L 3597 3500 
L 2059 -325 
z
" transform="scale(0.015625)"/>
       <path id="DejaVuSans-5f" d="M 3263 -1063 
L 3263 -1509 
L -63 -1509 
L -63 -1063 
L 3263 -1063 
z
" transform="scale(0.015625)"/>
       <path id="DejaVuSans-74" d="M 1172 4494 
L 1172 3500 
L 2356 3500 
L 2356 3053 
L 1172 3053 
L 1172 1153 
Q 1172 725 1289 603 
Q 1406 481 1766 481 
L 2356 481 
L 2356 0 
L 1766 0 
Q 1100 0 847 248 
Q 594 497 594 1153 
L 594 3053 
L 172 3053 
L 172 3500 
L 594 3500 
L 594 4494 
L 1172 4494 
z
" transform="scale(0.015625)"/>
       <path id="DejaVuSans-61" d="M 2194 1759 
Q 1497 1759 1228 1600 
Q 959 1441 959 1056 
Q 959 750 1161 570 
Q 1363 391 1709 391 
Q 2188 391 2477 730 
Q 2766 1069 2766 1631 
L 2766 1759 
L 2194 1759 
z
M 3341 1997 
L 3341 0 
L 2766 0 
L 2766 531 
Q 2569 213 2275 61 
Q 1981 -91 1556 -91 
Q 1019 -91 701 211 
Q 384 513 384 1019 
Q 384 1609 779 1909 
Q 1175 2209 1959 2209 
L 2766 2209 
L 2766 2266 
Q 2766 2663 2505 2880 
Q 2244 3097 1772 3097 
Q 1472 3097 1187 3025 
Q 903 2953 641 2809 
L 641 3341 
Q 956 3463 1253 3523 
Q 1550 3584 1831 3584 
Q 2591 3584 2966 3190 
Q 3341 2797 3341 1997 
z
" transform="scale(0.015625)"/>
       <path id="DejaVuSans-73" d="M 2834 3397 
L 2834 2853 
Q 2591 2978 2328 3040 
Q 2066 3103 1784 3103 
Q 1356 3103 1142 2972 
Q 928 2841 928 2578 
Q 928 2378 1081 2264 
Q 1234 2150 1697 2047 
L 1894 2003 
Q 2506 1872 2764 1633 
Q 3022 1394 3022 966 
Q 3022 478 2636 193 
Q 2250 -91 1575 -91 
Q 1294 -91 989 -36 
Q 684 19 347 128 
L 347 722 
Q 666 556 975 473 
Q 1284 391 1588 391 
Q 1994 391 2212 530 
Q 2431 669 2431 922 
Q 2431 1156 2273 1281 
Q 2116 1406 1581 1522 
L 1381 1569 
Q 847 1681 609 1914 
Q 372 2147 372 2553 
Q 372 3047 722 3315 
Q 1072 3584 1716 3584 
Q 2034 3584 2315 3537 
Q 2597 3491 2834 3397 
z
" transform="scale(0.015625)"/>
       <path id="DejaVuSans-66" d="M 2375 4863 
L 2375 4384 
L 1825 4384 
Q 1516 4384 1395 4259 
Q 1275 4134 1275 3809 
L 1275 3500 
L 2222 3500 
L 2222 3053 
L 1275 3053 
L 1275 0 
L 697 0 
L 697 3053 
L 147 3053 
L 147 3500 
L 697 3500 
L 697 3744 
Q 697 4328 969 4595 
Q 1241 4863 1831 4863 
L 2375 4863 
z
" transform="scale(0.015625)"/>
       <path id="DejaVuSans-20" transform="scale(0.015625)"/>
       <path id="DejaVuSans-5b" d="M 550 4863 
L 1875 4863 
L 1875 4416 
L 1125 4416 
L 1125 -397 
L 1875 -397 
L 1875 -844 
L 550 -844 
L 550 4863 
z
" transform="scale(0.015625)"/>
       <path id="DejaVuSans-6d" d="M 3328 2828 
Q 3544 3216 3844 3400 
Q 4144 3584 4550 3584 
Q 5097 3584 5394 3201 
Q 5691 2819 5691 2113 
L 5691 0 
L 5113 0 
L 5113 2094 
Q 5113 2597 4934 2840 
Q 4756 3084 4391 3084 
Q 3944 3084 3684 2787 
Q 3425 2491 3425 1978 
L 3425 0 
L 2847 0 
L 2847 2094 
Q 2847 2600 2669 2842 
Q 2491 3084 2119 3084 
Q 1678 3084 1418 2786 
Q 1159 2488 1159 1978 
L 1159 0 
L 581 0 
L 581 3500 
L 1159 3500 
L 1159 2956 
Q 1356 3278 1631 3431 
Q 1906 3584 2284 3584 
Q 2666 3584 2933 3390 
Q 3200 3197 3328 2828 
z
" transform="scale(0.015625)"/>
       <path id="DejaVuSans-56" d="M 1831 0 
L 50 4666 
L 709 4666 
L 2188 738 
L 3669 4666 
L 4325 4666 
L 2547 0 
L 1831 0 
z
" transform="scale(0.015625)"/>
       <path id="DejaVuSans-5d" d="M 1947 4863 
L 1947 -844 
L 622 -844 
L 622 -397 
L 1369 -397 
L 1369 4416 
L 622 4416 
L 622 4863 
L 1947 4863 
z
" transform="scale(0.015625)"/>
      </defs>
      <use xlink:href="#DejaVuSans-65"/>
      <use xlink:href="#DejaVuSans-6e" x="61.523438"/>
      <use xlink:href="#DejaVuSans-65" x="124.902344"/>
      <use xlink:href="#DejaVuSans-72" x="186.425781"/>
      <use xlink:href="#DejaVuSans-67" x="225.789062"/>
      <use xlink:href="#DejaVuSans-79" x="289.265625"/>
      <use xlink:href="#DejaVuSans-5f" x="348.445312"/>
      <use xlink:href="#DejaVuSans-74" x="398.445312"/>
      <use xlink:href="#DejaVuSans-72" x="437.654297"/>
      <use xlink:href="#DejaVuSans-61" x="478.767578"/>
      <use xlink:href="#DejaVuSans-6e" x="540.046875"/>
      <use xlink:href="#DejaVuSans-73" x="603.425781"/>
      <use xlink:href="#DejaVuSans-66" x="655.525391"/>
      <use xlink:href="#DejaVuSans-65" x="690.730469"/>
      <use xlink:href="#DejaVuSans-72" x="752.253906"/>
      <use xlink:href="#DejaVuSans-20" x="793.367188"/>
      <use xlink:href="#DejaVuSans-5b" x="825.154297"/>
      <use xlink:href="#DejaVuSans-6d" x="864.167969"/>
      <use xlink:href="#DejaVuSans-65" x="961.580078"/>
      <use xlink:href="#DejaVuSans-56" x="1023.103516"/>
      <use xlink:href="#DejaVuSans-5d" x="1091.511719"/>
     </g>
    </g>
   </g>
   <g id="matplotlib.axis_2">
    <g id="ytick_1">
     <g id="line2d_9">
      <defs>
       <path id="mde9f9f3a08" d="M 0 0 
L -3.5 0 
" style="stroke: #000000; stroke-width: 0.8"/>
      </defs>
      <g>
       <use xlink:href="#mde9f9f3a08" x="46.965625" y="231.452508" style="stroke: #000000; stroke-width: 0.8"/>
      </g>
     </g>
     <g id="text_10">
      <!-- 0 -->
      <g transform="translate(33.603125 235.251727) scale(0.1 -0.1)">
       <use xlink:href="#DejaVuSans-30"/>
      </g>
     </g>
    </g>
    <g id="ytick_2">
     <g id="line2d_10">
      <g>
       <use xlink:href="#mde9f9f3a08" x="46.965625" y="191.582416" style="stroke: #000000; stroke-width: 0.8"/>
      </g>
     </g>
     <g id="text_11">
      <!-- 50 -->
      <g transform="translate(27.240625 195.381635) scale(0.1 -0.1)">
       <use xlink:href="#DejaVuSans-35"/>
       <use xlink:href="#DejaVuSans-30" x="63.623047"/>
      </g>
     </g>
    </g>
    <g id="ytick_3">
     <g id="line2d_11">
      <g>
       <use xlink:href="#mde9f9f3a08" x="46.965625" y="151.712324" style="stroke: #000000; stroke-width: 0.8"/>
      </g>
     </g>
     <g id="text_12">
      <!-- 100 -->
      <g transform="translate(20.878125 155.511543) scale(0.1 -0.1)">
       <use xlink:href="#DejaVuSans-31"/>
       <use xlink:href="#DejaVuSans-30" x="63.623047"/>
       <use xlink:href="#DejaVuSans-30" x="127.246094"/>
      </g>
     </g>
    </g>
    <g id="ytick_4">
     <g id="line2d_12">
      <g>
       <use xlink:href="#mde9f9f3a08" x="46.965625" y="111.842232" style="stroke: #000000; stroke-width: 0.8"/>
      </g>
     </g>
     <g id="text_13">
      <!-- 150 -->
      <g transform="translate(20.878125 115.641451) scale(0.1 -0.1)">
       <use xlink:href="#DejaVuSans-31"/>
       <use xlink:href="#DejaVuSans-35" x="63.623047"/>
       <use xlink:href="#DejaVuSans-30" x="127.246094"/>
      </g>
     </g>
    </g>
    <g id="ytick_5">
     <g id="line2d_13">
      <g>
       <use xlink:href="#mde9f9f3a08" x="46.965625" y="71.97214" style="stroke: #000000; stroke-width: 0.8"/>
      </g>
     </g>
     <g id="text_14">
      <!-- 200 -->
      <g transform="translate(20.878125 75.771359) scale(0.1 -0.1)">
       <use xlink:href="#DejaVuSans-32"/>
       <use xlink:href="#DejaVuSans-30" x="63.623047"/>
       <use xlink:href="#DejaVuSans-30" x="127.246094"/>
      </g>
     </g>
    </g>
    <g id="ytick_6">
     <g id="line2d_14">
      <g>
       <use xlink:href="#mde9f9f3a08" x="46.965625" y="32.102048" style="stroke: #000000; stroke-width: 0.8"/>
      </g>
     </g>
     <g id="text_15">
      <!-- 250 -->
      <g transform="translate(20.878125 35.901267) scale(0.1 -0.1)">
       <use xlink:href="#DejaVuSans-32"/>
       <use xlink:href="#DejaVuSans-35" x="63.623047"/>
       <use xlink:href="#DejaVuSans-30" x="127.246094"/>
      </g>
     </g>
    </g>
    <g id="text_16">
     <!-- [counts] -->
     <g transform="translate(14.798437 145.381875) rotate(-90) scale(0.1 -0.1)">
      <defs>
       <path id="DejaVuSans-63" d="M 3122 3366 
L 3122 2828 
Q 2878 2963 2633 3030 
Q 2388 3097 2138 3097 
Q 1578 3097 1268 2742 
Q 959 2388 959 1747 
Q 959 1106 1268 751 
Q 1578 397 2138 397 
Q 2388 397 2633 464 
Q 2878 531 3122 666 
L 3122 134 
Q 2881 22 2623 -34 
Q 2366 -91 2075 -91 
Q 1284 -91 818 406 
Q 353 903 353 1747 
Q 353 2603 823 3093 
Q 1294 3584 2113 3584 
Q 2378 3584 2631 3529 
Q 2884 3475 3122 3366 
z
" transform="scale(0.015625)"/>
       <path id="DejaVuSans-6f" d="M 1959 3097 
Q 1497 3097 1228 2736 
Q 959 2375 959 1747 
Q 959 1119 1226 758 
Q 1494 397 1959 397 
Q 2419 397 2687 759 
Q 2956 1122 2956 1747 
Q 2956 2369 2687 2733 
Q 2419 3097 1959 3097 
z
M 1959 3584 
Q 2709 3584 3137 3096 
Q 3566 2609 3566 1747 
Q 3566 888 3137 398 
Q 2709 -91 1959 -91 
Q 1206 -91 779 398 
Q 353 888 353 1747 
Q 353 2609 779 3096 
Q 1206 3584 1959 3584 
z
" transform="scale(0.015625)"/>
       <path id="DejaVuSans-75" d="M 544 1381 
L 544 3500 
L 1119 3500 
L 1119 1403 
Q 1119 906 1312 657 
Q 1506 409 1894 409 
Q 2359 409 2629 706 
Q 2900 1003 2900 1516 
L 2900 3500 
L 3475 3500 
L 3475 0 
L 2900 0 
L 2900 538 
Q 2691 219 2414 64 
Q 2138 -91 1772 -91 
Q 1169 -91 856 284 
Q 544 659 544 1381 
z
M 1991 3584 
L 1991 3584 
z
" transform="scale(0.015625)"/>
      </defs>
      <use xlink:href="#DejaVuSans-5b"/>
      <use xlink:href="#DejaVuSans-63" x="39.013672"/>
      <use xlink:href="#DejaVuSans-6f" x="93.994141"/>
      <use xlink:href="#DejaVuSans-75" x="155.175781"/>
      <use xlink:href="#DejaVuSans-6e" x="218.554688"/>
      <use xlink:href="#DejaVuSans-74" x="281.933594"/>
      <use xlink:href="#DejaVuSans-73" x="321.142578"/>
      <use xlink:href="#DejaVuSans-5d" x="373.242188"/>
     </g>
    </g>
   </g>
   <g id="patch_3">
    <path d="M 46.965625 242.33875 
L 46.965625 7.2 
" style="fill: none; stroke: #000000; stroke-width: 0.8; stroke-linejoin: miter; stroke-linecap: square"/>
   </g>
   <g id="patch_4">
    <path d="M 417.295625 242.33875 
L 417.295625 7.2 
" style="fill: none; stroke: #000000; stroke-width: 0.8; stroke-linejoin: miter; stroke-linecap: square"/>
   </g>
   <g id="patch_5">
    <path d="M 46.965625 242.33875 
L 417.295625 242.33875 
" style="fill: none; stroke: #000000; stroke-width: 0.8; stroke-linejoin: miter; stroke-linecap: square"/>
   </g>
   <g id="patch_6">
    <path d="M 46.965625 7.2 
L 417.295625 7.2 
" style="fill: none; stroke: #000000; stroke-width: 0.8; stroke-linejoin: miter; stroke-linecap: square"/>
   </g>
   <g id="legend_1">
    <g id="patch_7">
     <path d="M 53.965625 44.55625 
L 137.648438 44.55625 
Q 139.648438 44.55625 139.648438 42.55625 
L 139.648438 14.2 
Q 139.648438 12.2 137.648438 12.2 
L 53.965625 12.2 
Q 51.965625 12.2 51.965625 14.2 
L 51.965625 42.55625 
Q 51.965625 44.55625 53.965625 44.55625 
z
" style="fill: #ffffff; opacity: 0.8; stroke: #cccccc; stroke-linejoin: miter"/>
    </g>
    <g id="line2d_15">
     <path d="M 55.965625 20.298438 
L 55.965625 20.298438 
L 65.965625 20.298438 
L 65.965625 20.298438 
L 75.965625 20.298438 
" style="fill: none; stroke: #1f77b4; stroke-width: 1.5; stroke-linecap: square"/>
    </g>
    <g id="text_17">
     <!-- unmasked -->
     <g transform="translate(83.965625 23.798438) scale(0.1 -0.1)">
      <defs>
       <path id="DejaVuSans-6b" d="M 581 4863 
L 1159 4863 
L 1159 1991 
L 2875 3500 
L 3609 3500 
L 1753 1863 
L 3688 0 
L 2938 0 
L 1159 1709 
L 1159 0 
L 581 0 
L 581 4863 
z
" transform="scale(0.015625)"/>
       <path id="DejaVuSans-64" d="M 2906 2969 
L 2906 4863 
L 3481 4863 
L 3481 0 
L 2906 0 
L 2906 525 
Q 2725 213 2448 61 
Q 2172 -91 1784 -91 
Q 1150 -91 751 415 
Q 353 922 353 1747 
Q 353 2572 751 3078 
Q 1150 3584 1784 3584 
Q 2172 3584 2448 3432 
Q 2725 3281 2906 2969 
z
M 947 1747 
Q 947 1113 1208 752 
Q 1469 391 1925 391 
Q 2381 391 2643 752 
Q 2906 1113 2906 1747 
Q 2906 2381 2643 2742 
Q 2381 3103 1925 3103 
Q 1469 3103 1208 2742 
Q 947 2381 947 1747 
z
" transform="scale(0.015625)"/>
      </defs>
      <use xlink:href="#DejaVuSans-75"/>
      <use xlink:href="#DejaVuSans-6e" x="63.378906"/>
      <use xlink:href="#DejaVuSans-6d" x="126.757812"/>
      <use xlink:href="#DejaVuSans-61" x="224.169922"/>
      <use xlink:href="#DejaVuSans-73" x="285.449219"/>
      <use xlink:href="#DejaVuSans-6b" x="337.548828"/>
      <use xlink:href="#DejaVuSans-65" x="391.833984"/>
      <use xlink:href="#DejaVuSans-64" x="453.357422"/>
     </g>
    </g>
    <g id="line2d_16">
     <path d="M 55.965625 34.976563 
L 55.965625 34.976563 
L 65.965625 34.976563 
L 65.965625 34.976563 
L 75.965625 34.976563 
" style="fill: none; stroke: #ff7f0e; stroke-width: 1.5; stroke-linecap: square"/>
    </g>
    <g id="text_18">
     <!-- masked -->
     <g transform="translate(83.965625 38.476563) scale(0.1 -0.1)">
      <use xlink:href="#DejaVuSans-6d"/>
      <use xlink:href="#DejaVuSans-61" x="97.412109"/>
      <use xlink:href="#DejaVuSans-73" x="158.691406"/>
      <use xlink:href="#DejaVuSans-6b" x="210.791016"/>
      <use xlink:href="#DejaVuSans-65" x="265.076172"/>
      <use xlink:href="#DejaVuSans-64" x="326.599609"/>
     </g>
    </g>
   </g>
   <g id="line2d_17">
    <path d="M 63.798807 231.452508 
L 137.864807 231.452471 
L 137.864807 231.292146 
L 147.964716 231.286307 
L 147.964716 231.171903 
L 154.697989 231.175117 
L 154.697989 230.722882 
L 161.431261 230.689813 
L 161.431261 230.147186 
L 164.797898 230.147186 
L 164.797898 229.097865 
L 168.164534 229.097865 
L 168.164534 226.708563 
L 171.53117 226.708563 
L 171.53117 226.075885 
L 174.897807 226.075885 
L 174.897807 224.164969 
L 178.264443 224.164969 
L 178.264443 220.966879 
L 181.63108 220.966879 
L 181.63108 219.814503 
L 184.997716 219.814503 
L 184.997716 217.3247 
L 188.364352 217.3247 
L 188.364352 215.254622 
L 191.730989 215.254622 
L 191.730989 211.452809 
L 198.464261 211.409439 
L 198.464261 210.246756 
L 201.830898 210.246756 
L 201.830898 210.4888 
L 208.56417 210.400796 
L 208.56417 209.96285 
L 211.930807 209.96285 
L 211.930807 210.315798 
L 215.297443 210.315798 
L 215.297443 210.732664 
L 218.66408 210.732664 
L 218.66408 208.059226 
L 225.397352 208.082681 
L 225.397352 210.444613 
L 228.763989 210.444613 
L 228.763989 209.134546 
L 232.130625 209.134546 
L 232.130625 211.451111 
L 235.497261 211.451111 
L 235.497261 208.652034 
L 242.230534 208.721853 
L 242.230534 210.441665 
L 245.59717 210.441665 
L 245.59717 210.145083 
L 248.963807 210.145083 
L 248.963807 209.716757 
L 252.330443 209.716757 
L 252.330443 209.005444 
L 255.69708 209.005444 
L 255.69708 206.668432 
L 259.063716 206.668432 
L 259.063716 201.843435 
L 262.430352 201.843435 
L 262.430352 193.999113 
L 265.796989 193.999113 
L 265.796989 185.55613 
L 269.163625 185.55613 
L 269.163625 170.093785 
L 272.530261 170.093785 
L 272.530261 159.321681 
L 275.896898 159.321681 
L 275.896898 144.65218 
L 279.263534 144.65218 
L 279.263534 124.624647 
L 282.63017 124.624647 
L 282.63017 109.21317 
L 285.996807 109.21317 
L 285.996807 87.268226 
L 289.363443 87.268226 
L 289.363443 81.743643 
L 292.73008 81.743643 
L 292.73008 68.555319 
L 296.096716 68.555319 
L 296.096716 58.151901 
L 299.463352 58.151901 
L 299.463352 48.147506 
L 302.829989 48.147506 
L 302.829989 37.109082 
L 306.196625 37.109082 
L 306.196625 33.5879 
L 309.563261 33.5879 
L 309.563261 30.545288 
L 312.929898 30.545288 
L 312.929898 30.668894 
L 316.296534 30.668894 
L 316.296534 32.530593 
L 319.66317 32.530593 
L 319.66317 39.195708 
L 323.029807 39.195708 
L 323.029807 36.795853 
L 326.396443 36.795853 
L 326.396443 42.35064 
L 329.76308 42.35064 
L 329.76308 40.250881 
L 333.129716 40.250881 
L 333.129716 50.345265 
L 336.496352 50.345265 
L 336.496352 54.698969 
L 339.862989 54.698969 
L 339.862989 66.769748 
L 343.229625 66.769748 
L 343.229625 81.330942 
L 346.596261 81.330942 
L 346.596261 92.029323 
L 349.962898 92.029323 
L 349.962898 110.908772 
L 353.329534 110.908772 
L 353.329534 126.692385 
L 356.69617 126.692385 
L 356.69617 145.204823 
L 360.062807 145.204823 
L 360.062807 161.090213 
L 363.429443 161.090213 
L 363.429443 177.618285 
L 366.79608 177.618285 
L 366.79608 192.008812 
L 370.162716 192.008812 
L 370.162716 200.948493 
L 373.529352 200.948493 
L 373.529352 211.662003 
L 376.895989 211.662003 
L 376.895989 217.282267 
L 380.262625 217.282267 
L 380.262625 221.966048 
L 383.629261 221.966048 
L 383.629261 225.911671 
L 386.995898 225.911671 
L 386.995898 228.703915 
L 390.362534 228.703915 
L 390.362534 230.235726 
L 393.72917 230.235726 
L 393.72917 230.89351 
L 397.095807 230.89351 
L 397.095807 231.283292 
L 400.462443 231.283292 
L 400.462443 231.283292 
" clip-path="url(#pacd9b1c5da)" style="fill: none; stroke: #1f77b4; stroke-width: 1.5; stroke-linecap: square"/>
   </g>
   <g id="LineCollection_1">
    <path d="M 65.482125 231.452508 
L 65.482125 231.452508 
" clip-path="url(#pacd9b1c5da)" style="fill: none; stroke: #1f77b4; stroke-width: 1.5"/>
    <path d="M 68.848761 231.452508 
L 68.848761 231.452508 
" clip-path="url(#pacd9b1c5da)" style="fill: none; stroke: #1f77b4; stroke-width: 1.5"/>
    <path d="M 72.215398 231.452508 
L 72.215398 231.452508 
" clip-path="url(#pacd9b1c5da)" style="fill: none; stroke: #1f77b4; stroke-width: 1.5"/>
    <path d="M 75.582034 231.452508 
L 75.582034 231.452508 
" clip-path="url(#pacd9b1c5da)" style="fill: none; stroke: #1f77b4; stroke-width: 1.5"/>
    <path d="M 78.94867 231.452508 
L 78.94867 231.452508 
" clip-path="url(#pacd9b1c5da)" style="fill: none; stroke: #1f77b4; stroke-width: 1.5"/>
    <path d="M 82.315307 231.452508 
L 82.315307 231.452508 
" clip-path="url(#pacd9b1c5da)" style="fill: none; stroke: #1f77b4; stroke-width: 1.5"/>
    <path d="M 85.681943 231.452508 
L 85.681943 231.452508 
" clip-path="url(#pacd9b1c5da)" style="fill: none; stroke: #1f77b4; stroke-width: 1.5"/>
    <path d="M 89.04858 231.452508 
L 89.04858 231.452508 
" clip-path="url(#pacd9b1c5da)" style="fill: none; stroke: #1f77b4; stroke-width: 1.5"/>
    <path d="M 92.415216 231.452508 
L 92.415216 231.452508 
" clip-path="url(#pacd9b1c5da)" style="fill: none; stroke: #1f77b4; stroke-width: 1.5"/>
    <path d="M 95.781852 231.452508 
L 95.781852 231.452508 
" clip-path="url(#pacd9b1c5da)" style="fill: none; stroke: #1f77b4; stroke-width: 1.5"/>
    <path d="M 99.148489 231.452509 
L 99.148489 231.452508 
" clip-path="url(#pacd9b1c5da)" style="fill: none; stroke: #1f77b4; stroke-width: 1.5"/>
    <path d="M 102.515125 231.452509 
L 102.515125 231.452508 
" clip-path="url(#pacd9b1c5da)" style="fill: none; stroke: #1f77b4; stroke-width: 1.5"/>
    <path d="M 105.881761 231.453706 
L 105.881761 231.451308 
" clip-path="url(#pacd9b1c5da)" style="fill: none; stroke: #1f77b4; stroke-width: 1.5"/>
    <path d="M 109.248398 231.452508 
L 109.248398 231.452508 
" clip-path="url(#pacd9b1c5da)" style="fill: none; stroke: #1f77b4; stroke-width: 1.5"/>
    <path d="M 112.615034 231.452508 
L 112.615034 231.452508 
" clip-path="url(#pacd9b1c5da)" style="fill: none; stroke: #1f77b4; stroke-width: 1.5"/>
    <path d="M 115.98167 231.453274 
L 115.98167 231.451742 
" clip-path="url(#pacd9b1c5da)" style="fill: none; stroke: #1f77b4; stroke-width: 1.5"/>
    <path d="M 119.348307 231.452689 
L 119.348307 231.452328 
" clip-path="url(#pacd9b1c5da)" style="fill: none; stroke: #1f77b4; stroke-width: 1.5"/>
    <path d="M 122.714943 231.452685 
L 122.714943 231.452332 
" clip-path="url(#pacd9b1c5da)" style="fill: none; stroke: #1f77b4; stroke-width: 1.5"/>
    <path d="M 126.08158 231.453227 
L 126.08158 231.451789 
" clip-path="url(#pacd9b1c5da)" style="fill: none; stroke: #1f77b4; stroke-width: 1.5"/>
    <path d="M 129.448216 231.563575 
L 129.448216 231.296824 
" clip-path="url(#pacd9b1c5da)" style="fill: none; stroke: #1f77b4; stroke-width: 1.5"/>
    <path d="M 132.814852 231.60741 
L 132.814852 231.186539 
" clip-path="url(#pacd9b1c5da)" style="fill: none; stroke: #1f77b4; stroke-width: 1.5"/>
    <path d="M 136.181489 231.457927 
L 136.181489 231.447015 
" clip-path="url(#pacd9b1c5da)" style="fill: none; stroke: #1f77b4; stroke-width: 1.5"/>
    <path d="M 139.548125 231.64974 
L 139.548125 230.934552 
" clip-path="url(#pacd9b1c5da)" style="fill: none; stroke: #1f77b4; stroke-width: 1.5"/>
    <path d="M 142.914761 231.646261 
L 142.914761 230.982487 
" clip-path="url(#pacd9b1c5da)" style="fill: none; stroke: #1f77b4; stroke-width: 1.5"/>
    <path d="M 146.281398 231.650353 
L 146.281398 230.922261 
" clip-path="url(#pacd9b1c5da)" style="fill: none; stroke: #1f77b4; stroke-width: 1.5"/>
    <path d="M 149.648034 231.644931 
L 149.648034 230.698874 
" clip-path="url(#pacd9b1c5da)" style="fill: none; stroke: #1f77b4; stroke-width: 1.5"/>
    <path d="M 153.01467 231.645428 
L 153.01467 230.704806 
" clip-path="url(#pacd9b1c5da)" style="fill: none; stroke: #1f77b4; stroke-width: 1.5"/>
    <path d="M 156.381307 231.485644 
L 156.381307 229.960121 
" clip-path="url(#pacd9b1c5da)" style="fill: none; stroke: #1f77b4; stroke-width: 1.5"/>
    <path d="M 159.747943 231.469669 
L 159.747943 229.909958 
" clip-path="url(#pacd9b1c5da)" style="fill: none; stroke: #1f77b4; stroke-width: 1.5"/>
    <path d="M 163.11458 231.167415 
L 163.11458 229.126957 
" clip-path="url(#pacd9b1c5da)" style="fill: none; stroke: #1f77b4; stroke-width: 1.5"/>
    <path d="M 166.481216 230.468119 
L 166.481216 227.727611 
" clip-path="url(#pacd9b1c5da)" style="fill: none; stroke: #1f77b4; stroke-width: 1.5"/>
    <path d="M 169.847852 228.653513 
L 169.847852 224.763613 
" clip-path="url(#pacd9b1c5da)" style="fill: none; stroke: #1f77b4; stroke-width: 1.5"/>
    <path d="M 173.214489 228.146472 
L 173.214489 224.005298 
" clip-path="url(#pacd9b1c5da)" style="fill: none; stroke: #1f77b4; stroke-width: 1.5"/>
    <path d="M 176.581125 226.575591 
L 176.581125 221.754347 
" clip-path="url(#pacd9b1c5da)" style="fill: none; stroke: #1f77b4; stroke-width: 1.5"/>
    <path d="M 179.947761 223.858464 
L 179.947761 218.075295 
" clip-path="url(#pacd9b1c5da)" style="fill: none; stroke: #1f77b4; stroke-width: 1.5"/>
    <path d="M 183.314398 222.860839 
L 183.314398 216.768166 
" clip-path="url(#pacd9b1c5da)" style="fill: none; stroke: #1f77b4; stroke-width: 1.5"/>
    <path d="M 186.681034 220.681118 
L 186.681034 213.968283 
" clip-path="url(#pacd9b1c5da)" style="fill: none; stroke: #1f77b4; stroke-width: 1.5"/>
    <path d="M 190.04767 218.848537 
L 190.04767 211.660707 
" clip-path="url(#pacd9b1c5da)" style="fill: none; stroke: #1f77b4; stroke-width: 1.5"/>
    <path d="M 193.414307 215.446278 
L 193.414307 207.459339 
" clip-path="url(#pacd9b1c5da)" style="fill: none; stroke: #1f77b4; stroke-width: 1.5"/>
    <path d="M 196.780943 215.407236 
L 196.780943 207.411643 
" clip-path="url(#pacd9b1c5da)" style="fill: none; stroke: #1f77b4; stroke-width: 1.5"/>
    <path d="M 200.14758 214.358873 
L 200.14758 206.134639 
" clip-path="url(#pacd9b1c5da)" style="fill: none; stroke: #1f77b4; stroke-width: 1.5"/>
    <path d="M 203.514216 214.577381 
L 203.514216 206.400218 
" clip-path="url(#pacd9b1c5da)" style="fill: none; stroke: #1f77b4; stroke-width: 1.5"/>
    <path d="M 206.880852 214.49795 
L 206.880852 206.303642 
" clip-path="url(#pacd9b1c5da)" style="fill: none; stroke: #1f77b4; stroke-width: 1.5"/>
    <path d="M 210.247489 214.102402 
L 210.247489 205.823298 
" clip-path="url(#pacd9b1c5da)" style="fill: none; stroke: #1f77b4; stroke-width: 1.5"/>
    <path d="M 213.614125 214.421215 
L 213.614125 206.21038 
" clip-path="url(#pacd9b1c5da)" style="fill: none; stroke: #1f77b4; stroke-width: 1.5"/>
    <path d="M 216.980761 214.797395 
L 216.980761 206.667932 
" clip-path="url(#pacd9b1c5da)" style="fill: none; stroke: #1f77b4; stroke-width: 1.5"/>
    <path d="M 220.347398 212.378236 
L 220.347398 203.740216 
" clip-path="url(#pacd9b1c5da)" style="fill: none; stroke: #1f77b4; stroke-width: 1.5"/>
    <path d="M 223.714034 212.399525 
L 223.714034 203.765837 
" clip-path="url(#pacd9b1c5da)" style="fill: none; stroke: #1f77b4; stroke-width: 1.5"/>
    <path d="M 227.08067 214.537501 
L 227.08067 206.351724 
" clip-path="url(#pacd9b1c5da)" style="fill: none; stroke: #1f77b4; stroke-width: 1.5"/>
    <path d="M 230.447307 213.353122 
L 230.447307 204.91597 
" clip-path="url(#pacd9b1c5da)" style="fill: none; stroke: #1f77b4; stroke-width: 1.5"/>
    <path d="M 233.813943 215.44475 
L 233.813943 207.457472 
" clip-path="url(#pacd9b1c5da)" style="fill: none; stroke: #1f77b4; stroke-width: 1.5"/>
    <path d="M 237.18058 212.915969 
L 237.18058 204.388099 
" clip-path="url(#pacd9b1c5da)" style="fill: none; stroke: #1f77b4; stroke-width: 1.5"/>
    <path d="M 240.547216 212.979255 
L 240.547216 204.464452 
" clip-path="url(#pacd9b1c5da)" style="fill: none; stroke: #1f77b4; stroke-width: 1.5"/>
    <path d="M 243.913852 214.534841 
L 243.913852 206.34849 
" clip-path="url(#pacd9b1c5da)" style="fill: none; stroke: #1f77b4; stroke-width: 1.5"/>
    <path d="M 247.280489 214.267046 
L 247.280489 206.023119 
" clip-path="url(#pacd9b1c5da)" style="fill: none; stroke: #1f77b4; stroke-width: 1.5"/>
    <path d="M 250.647125 213.879944 
L 250.647125 205.55357 
" clip-path="url(#pacd9b1c5da)" style="fill: none; stroke: #1f77b4; stroke-width: 1.5"/>
    <path d="M 254.013761 213.236204 
L 254.013761 204.774684 
" clip-path="url(#pacd9b1c5da)" style="fill: none; stroke: #1f77b4; stroke-width: 1.5"/>
    <path d="M 257.380398 211.113977 
L 257.380398 202.222888 
" clip-path="url(#pacd9b1c5da)" style="fill: none; stroke: #1f77b4; stroke-width: 1.5"/>
    <path d="M 260.747034 206.702482 
L 260.747034 196.984389 
" clip-path="url(#pacd9b1c5da)" style="fill: none; stroke: #1f77b4; stroke-width: 1.5"/>
    <path d="M 264.11367 199.464038 
L 264.11367 188.534188 
" clip-path="url(#pacd9b1c5da)" style="fill: none; stroke: #1f77b4; stroke-width: 1.5"/>
    <path d="M 267.480307 191.605747 
L 267.480307 179.506514 
" clip-path="url(#pacd9b1c5da)" style="fill: none; stroke: #1f77b4; stroke-width: 1.5"/>
    <path d="M 270.846943 177.088609 
L 270.846943 163.098961 
" clip-path="url(#pacd9b1c5da)" style="fill: none; stroke: #1f77b4; stroke-width: 1.5"/>
    <path d="M 274.21358 166.905694 
L 274.21358 151.737668 
" clip-path="url(#pacd9b1c5da)" style="fill: none; stroke: #1f77b4; stroke-width: 1.5"/>
    <path d="M 277.580216 152.971719 
L 277.580216 136.33264 
" clip-path="url(#pacd9b1c5da)" style="fill: none; stroke: #1f77b4; stroke-width: 1.5"/>
    <path d="M 280.946852 133.854204 
L 280.946852 115.395089 
" clip-path="url(#pacd9b1c5da)" style="fill: none; stroke: #1f77b4; stroke-width: 1.5"/>
    <path d="M 284.313489 119.086055 
L 284.313489 99.340284 
" clip-path="url(#pacd9b1c5da)" style="fill: none; stroke: #1f77b4; stroke-width: 1.5"/>
    <path d="M 287.680125 97.990764 
L 287.680125 76.545688 
" clip-path="url(#pacd9b1c5da)" style="fill: none; stroke: #1f77b4; stroke-width: 1.5"/>
    <path d="M 291.046761 92.669673 
L 291.046761 70.817613 
" clip-path="url(#pacd9b1c5da)" style="fill: none; stroke: #1f77b4; stroke-width: 1.5"/>
    <path d="M 294.413398 79.952447 
L 294.413398 57.158192 
" clip-path="url(#pacd9b1c5da)" style="fill: none; stroke: #1f77b4; stroke-width: 1.5"/>
    <path d="M 297.780034 69.907335 
L 297.780034 46.396468 
" clip-path="url(#pacd9b1c5da)" style="fill: none; stroke: #1f77b4; stroke-width: 1.5"/>
    <path d="M 301.14667 60.237492 
L 301.14667 36.057521 
" clip-path="url(#pacd9b1c5da)" style="fill: none; stroke: #1f77b4; stroke-width: 1.5"/>
    <path d="M 304.513307 49.557769 
L 304.513307 24.660395 
" clip-path="url(#pacd9b1c5da)" style="fill: none; stroke: #1f77b4; stroke-width: 1.5"/>
    <path d="M 307.879943 46.148855 
L 307.879943 21.026944 
" clip-path="url(#pacd9b1c5da)" style="fill: none; stroke: #1f77b4; stroke-width: 1.5"/>
    <path d="M 311.24658 43.202452 
L 311.24658 17.888125 
" clip-path="url(#pacd9b1c5da)" style="fill: none; stroke: #1f77b4; stroke-width: 1.5"/>
    <path d="M 314.613216 43.322164 
L 314.613216 18.015625 
" clip-path="url(#pacd9b1c5da)" style="fill: none; stroke: #1f77b4; stroke-width: 1.5"/>
    <path d="M 317.979852 45.125064 
L 317.979852 19.936122 
" clip-path="url(#pacd9b1c5da)" style="fill: none; stroke: #1f77b4; stroke-width: 1.5"/>
    <path d="M 321.346489 51.577385 
L 321.346489 26.814031 
" clip-path="url(#pacd9b1c5da)" style="fill: none; stroke: #1f77b4; stroke-width: 1.5"/>
    <path d="M 324.713125 49.254568 
L 324.713125 24.337138 
" clip-path="url(#pacd9b1c5da)" style="fill: none; stroke: #1f77b4; stroke-width: 1.5"/>
    <path d="M 328.079761 54.630306 
L 328.079761 30.070975 
" clip-path="url(#pacd9b1c5da)" style="fill: none; stroke: #1f77b4; stroke-width: 1.5"/>
    <path d="M 331.446398 52.598534 
L 331.446398 27.903228 
" clip-path="url(#pacd9b1c5da)" style="fill: none; stroke: #1f77b4; stroke-width: 1.5"/>
    <path d="M 334.813034 62.362555 
L 334.813034 38.327976 
" clip-path="url(#pacd9b1c5da)" style="fill: none; stroke: #1f77b4; stroke-width: 1.5"/>
    <path d="M 338.17967 66.570935 
L 338.17967 42.827002 
" clip-path="url(#pacd9b1c5da)" style="fill: none; stroke: #1f77b4; stroke-width: 1.5"/>
    <path d="M 341.546307 78.229169 
L 341.546307 55.310327 
" clip-path="url(#pacd9b1c5da)" style="fill: none; stroke: #1f77b4; stroke-width: 1.5"/>
    <path d="M 344.912943 92.272022 
L 344.912943 70.389863 
" clip-path="url(#pacd9b1c5da)" style="fill: none; stroke: #1f77b4; stroke-width: 1.5"/>
    <path d="M 348.27958 102.57334 
L 348.27958 81.485305 
" clip-path="url(#pacd9b1c5da)" style="fill: none; stroke: #1f77b4; stroke-width: 1.5"/>
    <path d="M 351.646216 120.712944 
L 351.646216 101.104599 
" clip-path="url(#pacd9b1c5da)" style="fill: none; stroke: #1f77b4; stroke-width: 1.5"/>
    <path d="M 355.012852 135.832183 
L 355.012852 117.552586 
" clip-path="url(#pacd9b1c5da)" style="fill: none; stroke: #1f77b4; stroke-width: 1.5"/>
    <path d="M 358.379489 153.497835 
L 358.379489 136.91181 
" clip-path="url(#pacd9b1c5da)" style="fill: none; stroke: #1f77b4; stroke-width: 1.5"/>
    <path d="M 361.746125 168.580675 
L 361.746125 153.599751 
" clip-path="url(#pacd9b1c5da)" style="fill: none; stroke: #1f77b4; stroke-width: 1.5"/>
    <path d="M 365.112761 184.170194 
L 365.112761 171.066376 
" clip-path="url(#pacd9b1c5da)" style="fill: none; stroke: #1f77b4; stroke-width: 1.5"/>
    <path d="M 368.479398 197.617063 
L 368.479398 186.400562 
" clip-path="url(#pacd9b1c5da)" style="fill: none; stroke: #1f77b4; stroke-width: 1.5"/>
    <path d="M 371.846034 205.880426 
L 371.846034 196.016561 
" clip-path="url(#pacd9b1c5da)" style="fill: none; stroke: #1f77b4; stroke-width: 1.5"/>
    <path d="M 375.21267 215.634532 
L 375.21267 207.689474 
" clip-path="url(#pacd9b1c5da)" style="fill: none; stroke: #1f77b4; stroke-width: 1.5"/>
    <path d="M 378.579307 220.643722 
L 378.579307 213.920813 
" clip-path="url(#pacd9b1c5da)" style="fill: none; stroke: #1f77b4; stroke-width: 1.5"/>
    <path d="M 381.945943 224.716415 
L 381.945943 219.21568 
" clip-path="url(#pacd9b1c5da)" style="fill: none; stroke: #1f77b4; stroke-width: 1.5"/>
    <path d="M 385.31258 228.01364 
L 385.31258 223.809702 
" clip-path="url(#pacd9b1c5da)" style="fill: none; stroke: #1f77b4; stroke-width: 1.5"/>
    <path d="M 388.679216 230.184366 
L 388.679216 227.223465 
" clip-path="url(#pacd9b1c5da)" style="fill: none; stroke: #1f77b4; stroke-width: 1.5"/>
    <path d="M 392.045852 231.220746 
L 392.045852 229.250706 
" clip-path="url(#pacd9b1c5da)" style="fill: none; stroke: #1f77b4; stroke-width: 1.5"/>
    <path d="M 395.412489 231.561152 
L 395.412489 230.225868 
" clip-path="url(#pacd9b1c5da)" style="fill: none; stroke: #1f77b4; stroke-width: 1.5"/>
    <path d="M 398.779125 231.650625 
L 398.779125 230.915958 
" clip-path="url(#pacd9b1c5da)" style="fill: none; stroke: #1f77b4; stroke-width: 1.5"/>
   </g>
   <g id="line2d_18">
    <path d="M 63.798807 231.452508 
L 215.297443 231.423395 
L 215.297443 231.314211 
L 222.030716 231.343946 
L 222.030716 231.084049 
L 228.763989 231.082912 
L 228.763989 230.820776 
L 235.497261 230.776688 
L 235.497261 229.853309 
L 238.863898 229.853309 
L 238.863898 229.540058 
L 242.230534 229.540058 
L 242.230534 228.519882 
L 245.59717 228.519882 
L 245.59717 226.648609 
L 248.963807 226.648609 
L 248.963807 225.255071 
L 252.330443 225.255071 
L 252.330443 221.624865 
L 255.69708 221.624865 
L 255.69708 217.077051 
L 259.063716 217.077051 
L 259.063716 210.219077 
L 262.430352 210.219077 
L 262.430352 200.567585 
L 265.796989 200.567585 
L 265.796989 190.445098 
L 269.163625 190.445098 
L 269.163625 173.815058 
L 272.530261 173.815058 
L 272.530261 162.679045 
L 275.896898 162.679045 
L 275.896898 147.873204 
L 279.263534 147.873204 
L 279.263534 128.740163 
L 282.63017 128.740163 
L 282.63017 114.616713 
L 285.996807 114.616713 
L 285.996807 93.676789 
L 289.363443 93.676789 
L 289.363443 89.180626 
L 292.73008 89.180626 
L 292.73008 77.776376 
L 296.096716 77.776376 
L 296.096716 68.786125 
L 299.463352 68.786125 
L 299.463352 58.353262 
L 302.829989 58.353262 
L 302.829989 51.088228 
L 306.196625 51.088228 
L 306.196625 46.705592 
L 309.563261 46.705592 
L 309.563261 43.104613 
L 312.929898 43.104613 
L 312.929898 44.70649 
L 316.296534 44.70649 
L 316.296534 46.114416 
L 319.66317 46.114416 
L 319.66317 51.563186 
L 323.029807 51.563186 
L 323.029807 49.98918 
L 326.396443 49.98918 
L 326.396443 55.070697 
L 329.76308 55.070697 
L 329.76308 52.640843 
L 333.129716 52.640843 
L 333.129716 62.977973 
L 336.496352 62.977973 
L 336.496352 68.626079 
L 339.862989 68.626079 
L 339.862989 79.957006 
L 343.229625 79.957006 
L 343.229625 93.117476 
L 346.596261 93.117476 
L 346.596261 104.159382 
L 349.962898 104.159382 
L 349.962898 121.223493 
L 353.329534 121.223493 
L 353.329534 135.829646 
L 356.69617 135.829646 
L 356.69617 153.977264 
L 360.062807 153.977264 
L 360.062807 168.131931 
L 363.429443 168.131931 
L 363.429443 183.129122 
L 366.79608 183.129122 
L 366.79608 196.907787 
L 370.162716 196.907787 
L 370.162716 203.671367 
L 373.529352 203.671367 
L 373.529352 213.897178 
L 376.895989 213.897178 
L 376.895989 219.029614 
L 380.262625 219.029614 
L 380.262625 222.426893 
L 383.629261 222.426893 
L 383.629261 226.144192 
L 386.995898 226.144192 
L 386.995898 228.747459 
L 390.362534 228.747459 
L 390.362534 230.235726 
L 393.72917 230.235726 
L 393.72917 230.89351 
L 397.095807 230.89351 
L 397.095807 231.283292 
L 400.462443 231.283292 
L 400.462443 231.283292 
" clip-path="url(#pacd9b1c5da)" style="fill: none; stroke: #ff7f0e; stroke-width: 1.5; stroke-linecap: square"/>
   </g>
   <g id="LineCollection_2">
    <path d="M 65.482125 231.452508 
L 65.482125 231.452508 
" clip-path="url(#pacd9b1c5da)" style="fill: none; stroke: #ff7f0e; stroke-width: 1.5"/>
    <path d="M 68.848761 231.452508 
L 68.848761 231.452508 
" clip-path="url(#pacd9b1c5da)" style="fill: none; stroke: #ff7f0e; stroke-width: 1.5"/>
    <path d="M 72.215398 231.452508 
L 72.215398 231.452508 
" clip-path="url(#pacd9b1c5da)" style="fill: none; stroke: #ff7f0e; stroke-width: 1.5"/>
    <path d="M 75.582034 231.452508 
L 75.582034 231.452508 
" clip-path="url(#pacd9b1c5da)" style="fill: none; stroke: #ff7f0e; stroke-width: 1.5"/>
    <path d="M 78.94867 231.452508 
L 78.94867 231.452508 
" clip-path="url(#pacd9b1c5da)" style="fill: none; stroke: #ff7f0e; stroke-width: 1.5"/>
    <path d="M 82.315307 231.452508 
L 82.315307 231.452508 
" clip-path="url(#pacd9b1c5da)" style="fill: none; stroke: #ff7f0e; stroke-width: 1.5"/>
    <path d="M 85.681943 231.452508 
L 85.681943 231.452508 
" clip-path="url(#pacd9b1c5da)" style="fill: none; stroke: #ff7f0e; stroke-width: 1.5"/>
    <path d="M 89.04858 231.452508 
L 89.04858 231.452508 
" clip-path="url(#pacd9b1c5da)" style="fill: none; stroke: #ff7f0e; stroke-width: 1.5"/>
    <path d="M 92.415216 231.452508 
L 92.415216 231.452508 
" clip-path="url(#pacd9b1c5da)" style="fill: none; stroke: #ff7f0e; stroke-width: 1.5"/>
    <path d="M 95.781852 231.452508 
L 95.781852 231.452508 
" clip-path="url(#pacd9b1c5da)" style="fill: none; stroke: #ff7f0e; stroke-width: 1.5"/>
    <path d="M 99.148489 231.452509 
L 99.148489 231.452508 
" clip-path="url(#pacd9b1c5da)" style="fill: none; stroke: #ff7f0e; stroke-width: 1.5"/>
    <path d="M 102.515125 231.452508 
L 102.515125 231.452508 
" clip-path="url(#pacd9b1c5da)" style="fill: none; stroke: #ff7f0e; stroke-width: 1.5"/>
    <path d="M 105.881761 231.453706 
L 105.881761 231.451308 
" clip-path="url(#pacd9b1c5da)" style="fill: none; stroke: #ff7f0e; stroke-width: 1.5"/>
    <path d="M 109.248398 231.452508 
L 109.248398 231.452508 
" clip-path="url(#pacd9b1c5da)" style="fill: none; stroke: #ff7f0e; stroke-width: 1.5"/>
    <path d="M 112.615034 231.452508 
L 112.615034 231.452508 
" clip-path="url(#pacd9b1c5da)" style="fill: none; stroke: #ff7f0e; stroke-width: 1.5"/>
    <path d="M 115.98167 231.453274 
L 115.98167 231.451742 
" clip-path="url(#pacd9b1c5da)" style="fill: none; stroke: #ff7f0e; stroke-width: 1.5"/>
    <path d="M 119.348307 231.45251 
L 119.348307 231.452506 
" clip-path="url(#pacd9b1c5da)" style="fill: none; stroke: #ff7f0e; stroke-width: 1.5"/>
    <path d="M 122.714943 231.452509 
L 122.714943 231.452508 
" clip-path="url(#pacd9b1c5da)" style="fill: none; stroke: #ff7f0e; stroke-width: 1.5"/>
    <path d="M 126.08158 231.453227 
L 126.08158 231.451789 
" clip-path="url(#pacd9b1c5da)" style="fill: none; stroke: #ff7f0e; stroke-width: 1.5"/>
    <path d="M 129.448216 231.452671 
L 129.448216 231.452346 
" clip-path="url(#pacd9b1c5da)" style="fill: none; stroke: #ff7f0e; stroke-width: 1.5"/>
    <path d="M 132.814852 231.455169 
L 132.814852 231.44983 
" clip-path="url(#pacd9b1c5da)" style="fill: none; stroke: #ff7f0e; stroke-width: 1.5"/>
    <path d="M 136.181489 231.452993 
L 136.181489 231.452024 
" clip-path="url(#pacd9b1c5da)" style="fill: none; stroke: #ff7f0e; stroke-width: 1.5"/>
    <path d="M 139.548125 231.452686 
L 139.548125 231.452331 
" clip-path="url(#pacd9b1c5da)" style="fill: none; stroke: #ff7f0e; stroke-width: 1.5"/>
    <path d="M 142.914761 231.455087 
L 142.914761 231.449913 
" clip-path="url(#pacd9b1c5da)" style="fill: none; stroke: #ff7f0e; stroke-width: 1.5"/>
    <path d="M 146.281398 231.456646 
L 146.281398 231.448328 
" clip-path="url(#pacd9b1c5da)" style="fill: none; stroke: #ff7f0e; stroke-width: 1.5"/>
    <path d="M 149.648034 231.457996 
L 149.648034 231.446944 
" clip-path="url(#pacd9b1c5da)" style="fill: none; stroke: #ff7f0e; stroke-width: 1.5"/>
    <path d="M 153.01467 231.457459 
L 153.01467 231.447495 
" clip-path="url(#pacd9b1c5da)" style="fill: none; stroke: #ff7f0e; stroke-width: 1.5"/>
    <path d="M 156.381307 231.462496 
L 156.381307 231.442264 
" clip-path="url(#pacd9b1c5da)" style="fill: none; stroke: #ff7f0e; stroke-width: 1.5"/>
    <path d="M 159.747943 231.461496 
L 159.747943 231.443313 
" clip-path="url(#pacd9b1c5da)" style="fill: none; stroke: #ff7f0e; stroke-width: 1.5"/>
    <path d="M 163.11458 231.472715 
L 163.11458 231.431223 
" clip-path="url(#pacd9b1c5da)" style="fill: none; stroke: #ff7f0e; stroke-width: 1.5"/>
    <path d="M 166.481216 231.475503 
L 166.481216 231.428105 
" clip-path="url(#pacd9b1c5da)" style="fill: none; stroke: #ff7f0e; stroke-width: 1.5"/>
    <path d="M 169.847852 231.473195 
L 169.847852 231.430689 
" clip-path="url(#pacd9b1c5da)" style="fill: none; stroke: #ff7f0e; stroke-width: 1.5"/>
    <path d="M 173.214489 231.470328 
L 173.214489 231.433855 
" clip-path="url(#pacd9b1c5da)" style="fill: none; stroke: #ff7f0e; stroke-width: 1.5"/>
    <path d="M 176.581125 231.476883 
L 176.581125 231.426545 
" clip-path="url(#pacd9b1c5da)" style="fill: none; stroke: #ff7f0e; stroke-width: 1.5"/>
    <path d="M 179.947761 231.564415 
L 179.947761 231.295133 
" clip-path="url(#pacd9b1c5da)" style="fill: none; stroke: #ff7f0e; stroke-width: 1.5"/>
    <path d="M 183.314398 231.48381 
L 183.314398 231.418535 
" clip-path="url(#pacd9b1c5da)" style="fill: none; stroke: #ff7f0e; stroke-width: 1.5"/>
    <path d="M 186.681034 231.484753 
L 186.681034 231.417422 
" clip-path="url(#pacd9b1c5da)" style="fill: none; stroke: #ff7f0e; stroke-width: 1.5"/>
    <path d="M 190.04767 231.591189 
L 190.04767 231.233689 
" clip-path="url(#pacd9b1c5da)" style="fill: none; stroke: #ff7f0e; stroke-width: 1.5"/>
    <path d="M 193.414307 231.479909 
L 193.414307 231.423083 
" clip-path="url(#pacd9b1c5da)" style="fill: none; stroke: #ff7f0e; stroke-width: 1.5"/>
    <path d="M 196.780943 231.48179 
L 196.780943 231.420902 
" clip-path="url(#pacd9b1c5da)" style="fill: none; stroke: #ff7f0e; stroke-width: 1.5"/>
    <path d="M 200.14758 231.593338 
L 200.14758 231.227977 
" clip-path="url(#pacd9b1c5da)" style="fill: none; stroke: #ff7f0e; stroke-width: 1.5"/>
    <path d="M 203.514216 231.490632 
L 203.514216 231.410342 
" clip-path="url(#pacd9b1c5da)" style="fill: none; stroke: #ff7f0e; stroke-width: 1.5"/>
    <path d="M 206.880852 231.485668 
L 206.880852 231.416335 
" clip-path="url(#pacd9b1c5da)" style="fill: none; stroke: #ff7f0e; stroke-width: 1.5"/>
    <path d="M 210.247489 231.489923 
L 210.247489 231.411209 
" clip-path="url(#pacd9b1c5da)" style="fill: none; stroke: #ff7f0e; stroke-width: 1.5"/>
    <path d="M 213.614125 231.575761 
L 213.614125 231.271028 
" clip-path="url(#pacd9b1c5da)" style="fill: none; stroke: #ff7f0e; stroke-width: 1.5"/>
    <path d="M 216.980761 231.646293 
L 216.980761 230.982128 
" clip-path="url(#pacd9b1c5da)" style="fill: none; stroke: #ff7f0e; stroke-width: 1.5"/>
    <path d="M 220.347398 231.63817 
L 220.347398 231.049721 
" clip-path="url(#pacd9b1c5da)" style="fill: none; stroke: #ff7f0e; stroke-width: 1.5"/>
    <path d="M 223.714034 231.626092 
L 223.714034 230.542006 
" clip-path="url(#pacd9b1c5da)" style="fill: none; stroke: #ff7f0e; stroke-width: 1.5"/>
    <path d="M 227.08067 231.62579 
L 227.08067 230.540034 
" clip-path="url(#pacd9b1c5da)" style="fill: none; stroke: #ff7f0e; stroke-width: 1.5"/>
    <path d="M 230.447307 231.530526 
L 230.447307 230.111026 
" clip-path="url(#pacd9b1c5da)" style="fill: none; stroke: #ff7f0e; stroke-width: 1.5"/>
    <path d="M 233.813943 231.510787 
L 233.813943 230.04259 
" clip-path="url(#pacd9b1c5da)" style="fill: none; stroke: #ff7f0e; stroke-width: 1.5"/>
    <path d="M 237.18058 230.982559 
L 237.18058 228.724059 
" clip-path="url(#pacd9b1c5da)" style="fill: none; stroke: #ff7f0e; stroke-width: 1.5"/>
    <path d="M 240.547216 230.774964 
L 240.547216 228.305153 
" clip-path="url(#pacd9b1c5da)" style="fill: none; stroke: #ff7f0e; stroke-width: 1.5"/>
    <path d="M 243.913852 230.049092 
L 243.913852 226.990673 
" clip-path="url(#pacd9b1c5da)" style="fill: none; stroke: #ff7f0e; stroke-width: 1.5"/>
    <path d="M 247.280489 228.605811 
L 247.280489 224.691407 
" clip-path="url(#pacd9b1c5da)" style="fill: none; stroke: #ff7f0e; stroke-width: 1.5"/>
    <path d="M 250.647125 227.478098 
L 250.647125 223.032044 
" clip-path="url(#pacd9b1c5da)" style="fill: none; stroke: #ff7f0e; stroke-width: 1.5"/>
    <path d="M 254.013761 224.424255 
L 254.013761 218.825476 
" clip-path="url(#pacd9b1c5da)" style="fill: none; stroke: #ff7f0e; stroke-width: 1.5"/>
    <path d="M 257.380398 220.462759 
L 257.380398 213.691343 
" clip-path="url(#pacd9b1c5da)" style="fill: none; stroke: #ff7f0e; stroke-width: 1.5"/>
    <path d="M 260.747034 214.333876 
L 260.747034 206.104277 
" clip-path="url(#pacd9b1c5da)" style="fill: none; stroke: #ff7f0e; stroke-width: 1.5"/>
    <path d="M 264.11367 205.530215 
L 264.11367 195.604955 
" clip-path="url(#pacd9b1c5da)" style="fill: none; stroke: #ff7f0e; stroke-width: 1.5"/>
    <path d="M 267.480307 196.163435 
L 267.480307 184.72676 
" clip-path="url(#pacd9b1c5da)" style="fill: none; stroke: #ff7f0e; stroke-width: 1.5"/>
    <path d="M 270.846943 180.594454 
L 270.846943 167.035662 
" clip-path="url(#pacd9b1c5da)" style="fill: none; stroke: #ff7f0e; stroke-width: 1.5"/>
    <path d="M 274.21358 170.084455 
L 274.21358 155.273636 
" clip-path="url(#pacd9b1c5da)" style="fill: none; stroke: #ff7f0e; stroke-width: 1.5"/>
    <path d="M 277.580216 156.036922 
L 277.580216 139.709486 
" clip-path="url(#pacd9b1c5da)" style="fill: none; stroke: #ff7f0e; stroke-width: 1.5"/>
    <path d="M 280.946852 137.790191 
L 280.946852 119.690135 
" clip-path="url(#pacd9b1c5da)" style="fill: none; stroke: #ff7f0e; stroke-width: 1.5"/>
    <path d="M 284.313489 124.268919 
L 284.313489 104.964507 
" clip-path="url(#pacd9b1c5da)" style="fill: none; stroke: #ff7f0e; stroke-width: 1.5"/>
    <path d="M 287.680125 104.158326 
L 287.680125 83.195252 
" clip-path="url(#pacd9b1c5da)" style="fill: none; stroke: #ff7f0e; stroke-width: 1.5"/>
    <path d="M 291.046761 99.831817 
L 291.046761 78.529436 
" clip-path="url(#pacd9b1c5da)" style="fill: none; stroke: #ff7f0e; stroke-width: 1.5"/>
    <path d="M 294.413398 88.846228 
L 294.413398 66.706523 
" clip-path="url(#pacd9b1c5da)" style="fill: none; stroke: #ff7f0e; stroke-width: 1.5"/>
    <path d="M 297.780034 80.175176 
L 297.780034 57.397075 
" clip-path="url(#pacd9b1c5da)" style="fill: none; stroke: #ff7f0e; stroke-width: 1.5"/>
    <path d="M 301.14667 70.101865 
L 301.14667 46.60466 
" clip-path="url(#pacd9b1c5da)" style="fill: none; stroke: #ff7f0e; stroke-width: 1.5"/>
    <path d="M 304.513307 63.080843 
L 304.513307 39.095613 
" clip-path="url(#pacd9b1c5da)" style="fill: none; stroke: #ff7f0e; stroke-width: 1.5"/>
    <path d="M 307.879943 58.843035 
L 307.879943 34.568148 
" clip-path="url(#pacd9b1c5da)" style="fill: none; stroke: #ff7f0e; stroke-width: 1.5"/>
    <path d="M 311.24658 55.359774 
L 311.24658 30.849453 
" clip-path="url(#pacd9b1c5da)" style="fill: none; stroke: #ff7f0e; stroke-width: 1.5"/>
    <path d="M 314.613216 56.909425 
L 314.613216 32.503555 
" clip-path="url(#pacd9b1c5da)" style="fill: none; stroke: #ff7f0e; stroke-width: 1.5"/>
    <path d="M 317.979852 58.271264 
L 317.979852 33.957569 
" clip-path="url(#pacd9b1c5da)" style="fill: none; stroke: #ff7f0e; stroke-width: 1.5"/>
    <path d="M 321.346489 63.540001 
L 321.346489 39.586372 
" clip-path="url(#pacd9b1c5da)" style="fill: none; stroke: #ff7f0e; stroke-width: 1.5"/>
    <path d="M 324.713125 62.018277 
L 324.713125 37.960082 
" clip-path="url(#pacd9b1c5da)" style="fill: none; stroke: #ff7f0e; stroke-width: 1.5"/>
    <path d="M 328.079761 66.930174 
L 328.079761 43.211221 
" clip-path="url(#pacd9b1c5da)" style="fill: none; stroke: #ff7f0e; stroke-width: 1.5"/>
    <path d="M 331.446398 64.581729 
L 331.446398 40.699957 
" clip-path="url(#pacd9b1c5da)" style="fill: none; stroke: #ff7f0e; stroke-width: 1.5"/>
    <path d="M 334.813034 74.568569 
L 334.813034 51.387378 
" clip-path="url(#pacd9b1c5da)" style="fill: none; stroke: #ff7f0e; stroke-width: 1.5"/>
    <path d="M 338.17967 80.020731 
L 338.17967 57.231427 
" clip-path="url(#pacd9b1c5da)" style="fill: none; stroke: #ff7f0e; stroke-width: 1.5"/>
    <path d="M 341.546307 90.948039 
L 341.546307 68.965974 
" clip-path="url(#pacd9b1c5da)" style="fill: none; stroke: #ff7f0e; stroke-width: 1.5"/>
    <path d="M 344.912943 103.620266 
L 344.912943 82.614685 
" clip-path="url(#pacd9b1c5da)" style="fill: none; stroke: #ff7f0e; stroke-width: 1.5"/>
    <path d="M 348.27958 114.234291 
L 348.27958 94.084474 
" clip-path="url(#pacd9b1c5da)" style="fill: none; stroke: #ff7f0e; stroke-width: 1.5"/>
    <path d="M 351.646216 130.598824 
L 351.646216 111.848163 
" clip-path="url(#pacd9b1c5da)" style="fill: none; stroke: #ff7f0e; stroke-width: 1.5"/>
    <path d="M 355.012852 144.561761 
L 355.012852 127.09753 
" clip-path="url(#pacd9b1c5da)" style="fill: none; stroke: #ff7f0e; stroke-width: 1.5"/>
    <path d="M 358.379489 161.83722 
L 358.379489 146.117308 
" clip-path="url(#pacd9b1c5da)" style="fill: none; stroke: #ff7f0e; stroke-width: 1.5"/>
    <path d="M 361.746125 175.2377 
L 361.746125 161.026163 
" clip-path="url(#pacd9b1c5da)" style="fill: none; stroke: #ff7f0e; stroke-width: 1.5"/>
    <path d="M 365.112761 189.33663 
L 365.112761 176.921614 
" clip-path="url(#pacd9b1c5da)" style="fill: none; stroke: #ff7f0e; stroke-width: 1.5"/>
    <path d="M 368.479398 202.156218 
L 368.479398 191.659356 
" clip-path="url(#pacd9b1c5da)" style="fill: none; stroke: #ff7f0e; stroke-width: 1.5"/>
    <path d="M 371.846034 208.378036 
L 371.846034 198.964698 
" clip-path="url(#pacd9b1c5da)" style="fill: none; stroke: #ff7f0e; stroke-width: 1.5"/>
    <path d="M 375.21267 217.638655 
L 375.21267 210.1557 
" clip-path="url(#pacd9b1c5da)" style="fill: none; stroke: #ff7f0e; stroke-width: 1.5"/>
    <path d="M 378.579307 222.177 
L 378.579307 215.882228 
" clip-path="url(#pacd9b1c5da)" style="fill: none; stroke: #ff7f0e; stroke-width: 1.5"/>
    <path d="M 381.945943 225.109623 
L 381.945943 219.744162 
" clip-path="url(#pacd9b1c5da)" style="fill: none; stroke: #ff7f0e; stroke-width: 1.5"/>
    <path d="M 385.31258 228.201584 
L 385.31258 224.0868 
" clip-path="url(#pacd9b1c5da)" style="fill: none; stroke: #ff7f0e; stroke-width: 1.5"/>
    <path d="M 388.679216 230.216136 
L 388.679216 227.278783 
" clip-path="url(#pacd9b1c5da)" style="fill: none; stroke: #ff7f0e; stroke-width: 1.5"/>
    <path d="M 392.045852 231.220746 
L 392.045852 229.250706 
" clip-path="url(#pacd9b1c5da)" style="fill: none; stroke: #ff7f0e; stroke-width: 1.5"/>
    <path d="M 395.412489 231.561152 
L 395.412489 230.225868 
" clip-path="url(#pacd9b1c5da)" style="fill: none; stroke: #ff7f0e; stroke-width: 1.5"/>
    <path d="M 398.779125 231.650625 
L 398.779125 230.915958 
" clip-path="url(#pacd9b1c5da)" style="fill: none; stroke: #ff7f0e; stroke-width: 1.5"/>
   </g>
  </g>
 </g>
 <defs>
  <clipPath id="pacd9b1c5da">
   <rect x="46.965625" y="7.2" width="370.33" height="235.13875"/>
  </clipPath>
 </defs>
</svg>