<?xml version="1.0" encoding="utf-8" standalone="no"?>
<!DOCTYPE svg PUBLIC "-//W3C//DTD SVG 1.1//EN"
  "http://www.w3.org/Graphics/SVG/1.1/DTD/svg11.dtd">
<svg xmlns:xlink="http://www.w3.org/1999/xlink" width="388.965625pt" height="266.794375pt" viewBox="0 0 388.965625 266.794375" xmlns="http://www.w3.org/2000/svg" version="1.1">
 <metadata>
  <rdf:RDF xmlns:dc="http://purl.org/dc/elements/1.1/" xmlns:cc="http://creativecommons.org/ns#" xmlns:rdf="http://www.w3.org/1999/02/22-rdf-syntax-ns#">
   <cc:Work>
    <dc:type rdf:resource="http://purl.org/dc/dcmitype/StillImage"/>
    <dc:date>2025-08-15T11:24:49.343709</dc:date>
    <dc:format>image/svg+xml</dc:format>
    <dc:creator>
     <cc:Agent>
      <dc:title>Matplotlib v3.10.5, https://matplotlib.org/</dc:title>
     </cc:Agent>
    </dc:creator>
   </cc:Work>
  </rdf:RDF>
 </metadata>
 <defs>
  <style type="text/css">*{stroke-linejoin: round; stroke-linecap: butt}</style>
 </defs>
 <g id="figure_1">
  <g id="patch_1">
   <path d="M 0 266.794375 
L 388.965625 266.794375 
L 388.965625 0 
L 0 0 
z
" style="fill: #ffffff"/>
  </g>
  <g id="axes_1">
   <g id="patch_2">
    <path d="M 46.965625 228.96 
L 381.765625 228.96 
L 381.765625 7.2 
L 46.965625 7.2 
z
" style="fill: #ffffff"/>
   </g>
   <g id="matplotlib.axis_1">
    <g id="xtick_1">
     <g id="line2d_1">
      <defs>
       <path id="m6bf2c5720c" d="M 0 0 
L 0 3.5 
" style="stroke: #000000; stroke-width: 0.8"/>
      </defs>
      <g>
       <use xlink:href="#m6bf2c5720c" x="50.951944" y="228.96" style="stroke: #000000; stroke-width: 0.8"/>
      </g>
     </g>
     <g id="text_1">
      <!-- −0.0125 -->
      <g transform="translate(29.266787 243.558437) scale(0.1 -0.1)">
       <defs>
        <path id="DejaVuSans-2212" d="M 678 2272 
L 4684 2272 
L 4684 1741 
L 678 1741 
L 678 2272 
z
" transform="scale(0.015625)"/>
        <path id="DejaVuSans-30" d="M 2034 4250 
Q 1547 4250 1301 3770 
Q 1056 3291 1056 2328 
Q 1056 1369 1301 889 
Q 1547 409 2034 409 
Q 2525 409 2770 889 
Q 3016 1369 3016 2328 
Q 3016 3291 2770 3770 
Q 2525 4250 2034 4250 
z
M 2034 4750 
Q 2819 4750 3233 4129 
Q 3647 3509 3647 2328 
Q 3647 1150 3233 529 
Q 2819 -91 2034 -91 
Q 1250 -91 836 529 
Q 422 1150 422 2328 
Q 422 3509 836 4129 
Q 1250 4750 2034 4750 
z
" transform="scale(0.015625)"/>
        <path id="DejaVuSans-2e" d="M 684 794 
L 1344 794 
L 1344 0 
L 684 0 
L 684 794 
z
" transform="scale(0.015625)"/>
        <path id="DejaVuSans-31" d="M 794 531 
L 1825 531 
L 1825 4091 
L 703 3866 
L 703 4441 
L 1819 4666 
L 2450 4666 
L 2450 531 
L 3481 531 
L 3481 0 
L 794 0 
L 794 531 
z
" transform="scale(0.015625)"/>
        <path id="DejaVuSans-32" d="M 1228 531 
L 3431 531 
L 3431 0 
L 469 0 
L 469 531 
Q 828 903 1448 1529 
Q 2069 2156 2228 2338 
Q 2531 2678 2651 2914 
Q 2772 3150 2772 3378 
Q 2772 3750 2511 3984 
Q 2250 4219 1831 4219 
Q 1534 4219 1204 4116 
Q 875 4013 500 3803 
L 500 4441 
Q 881 4594 1212 4672 
Q 1544 4750 1819 4750 
Q 2544 4750 2975 4387 
Q 3406 4025 3406 3419 
Q 3406 3131 3298 2873 
Q 3191 2616 2906 2266 
Q 2828 2175 2409 1742 
Q 1991 1309 1228 531 
z
" transform="scale(0.015625)"/>
        <path id="DejaVuSans-35" d="M 691 4666 
L 3169 4666 
L 3169 4134 
L 1269 4134 
L 1269 2991 
Q 1406 3038 1543 3061 
Q 1681 3084 1819 3084 
Q 2600 3084 3056 2656 
Q 3513 2228 3513 1497 
Q 3513 744 3044 326 
Q 2575 -91 1722 -91 
Q 1428 -91 1123 -41 
Q 819 9 494 109 
L 494 744 
Q 775 591 1075 516 
Q 1375 441 1709 441 
Q 2250 441 2565 725 
Q 2881 1009 2881 1497 
Q 2881 1984 2565 2268 
Q 2250 2553 1709 2553 
Q 1456 2553 1204 2497 
Q 953 2441 691 2322 
L 691 4666 
z
" transform="scale(0.015625)"/>
       </defs>
       <use xlink:href="#DejaVuSans-2212"/>
       <use xlink:href="#DejaVuSans-30" transform="translate(83.789062 0)"/>
       <use xlink:href="#DejaVuSans-2e" transform="translate(147.412109 0)"/>
       <use xlink:href="#DejaVuSans-30" transform="translate(179.199219 0)"/>
       <use xlink:href="#DejaVuSans-31" transform="translate(242.822266 0)"/>
       <use xlink:href="#DejaVuSans-32" transform="translate(306.445312 0)"/>
       <use xlink:href="#DejaVuSans-35" transform="translate(370.068359 0)"/>
      </g>
     </g>
    </g>
    <g id="xtick_2">
     <g id="line2d_2">
      <g>
       <use xlink:href="#m6bf2c5720c" x="92.325219" y="228.96" style="stroke: #000000; stroke-width: 0.8"/>
      </g>
     </g>
     <g id="text_2">
      <!-- −0.0100 -->
      <g transform="translate(70.640063 243.558437) scale(0.1 -0.1)">
       <use xlink:href="#DejaVuSans-2212"/>
       <use xlink:href="#DejaVuSans-30" transform="translate(83.789062 0)"/>
       <use xlink:href="#DejaVuSans-2e" transform="translate(147.412109 0)"/>
       <use xlink:href="#DejaVuSans-30" transform="translate(179.199219 0)"/>
       <use xlink:href="#DejaVuSans-31" transform="translate(242.822266 0)"/>
       <use xlink:href="#DejaVuSans-30" transform="translate(306.445312 0)"/>
       <use xlink:href="#DejaVuSans-30" transform="translate(370.068359 0)"/>
      </g>
     </g>
    </g>
    <g id="xtick_3">
     <g id="line2d_3">
      <g>
       <use xlink:href="#m6bf2c5720c" x="133.698494" y="228.96" style="stroke: #000000; stroke-width: 0.8"/>
      </g>
     </g>
     <g id="text_3">
      <!-- −0.0075 -->
      <g transform="translate(112.013338 243.558437) scale(0.1 -0.1)">
       <defs>
        <path id="DejaVuSans-37" d="M 525 4666 
L 3525 4666 
L 3525 4397 
L 1831 0 
L 1172 0 
L 2766 4134 
L 525 4134 
L 525 4666 
z
" transform="scale(0.015625)"/>
       </defs>
       <use xlink:href="#DejaVuSans-2212"/>
       <use xlink:href="#DejaVuSans-30" transform="translate(83.789062 0)"/>
       <use xlink:href="#DejaVuSans-2e" transform="translate(147.412109 0)"/>
       <use xlink:href="#DejaVuSans-30" transform="translate(179.199219 0)"/>
       <use xlink:href="#DejaVuSans-30" transform="translate(242.822266 0)"/>
       <use xlink:href="#DejaVuSans-37" transform="translate(306.445312 0)"/>
       <use xlink:href="#DejaVuSans-35" transform="translate(370.068359 0)"/>
      </g>
     </g>
    </g>
    <g id="xtick_4">
     <g id="line2d_4">
      <g>
       <use xlink:href="#m6bf2c5720c" x="175.07177" y="228.96" style="stroke: #000000; stroke-width: 0.8"/>
      </g>
     </g>
     <g id="text_4">
      <!-- −0.0050 -->
      <g transform="translate(153.386613 243.558437) scale(0.1 -0.1)">
       <use xlink:href="#DejaVuSans-2212"/>
       <use xlink:href="#DejaVuSans-30" transform="translate(83.789062 0)"/>
       <use xlink:href="#DejaVuSans-2e" transform="translate(147.412109 0)"/>
       <use xlink:href="#DejaVuSans-30" transform="translate(179.199219 0)"/>
       <use xlink:href="#DejaVuSans-30" transform="translate(242.822266 0)"/>
       <use xlink:href="#DejaVuSans-35" transform="translate(306.445312 0)"/>
       <use xlink:href="#DejaVuSans-30" transform="translate(370.068359 0)"/>
      </g>
     </g>
    </g>
    <g id="xtick_5">
     <g id="line2d_5">
      <g>
       <use xlink:href="#m6bf2c5720c" x="216.445045" y="228.96" style="stroke: #000000; stroke-width: 0.8"/>
      </g>
     </g>
     <g id="text_5">
      <!-- −0.0025 -->
      <g transform="translate(194.759889 243.558437) scale(0.1 -0.1)">
       <use xlink:href="#DejaVuSans-2212"/>
       <use xlink:href="#DejaVuSans-30" transform="translate(83.789062 0)"/>
       <use xlink:href="#DejaVuSans-2e" transform="translate(147.412109 0)"/>
       <use xlink:href="#DejaVuSans-30" transform="translate(179.199219 0)"/>
       <use xlink:href="#DejaVuSans-30" transform="translate(242.822266 0)"/>
       <use xlink:href="#DejaVuSans-32" transform="translate(306.445312 0)"/>
       <use xlink:href="#DejaVuSans-35" transform="translate(370.068359 0)"/>
      </g>
     </g>
    </g>
    <g id="xtick_6">
     <g id="line2d_6">
      <g>
       <use xlink:href="#m6bf2c5720c" x="257.81832" y="228.96" style="stroke: #000000; stroke-width: 0.8"/>
      </g>
     </g>
     <g id="text_6">
      <!-- 0.0000 -->
      <g transform="translate(240.323008 243.558437) scale(0.1 -0.1)">
       <use xlink:href="#DejaVuSans-30"/>
       <use xlink:href="#DejaVuSans-2e" transform="translate(63.623047 0)"/>
       <use xlink:href="#DejaVuSans-30" transform="translate(95.410156 0)"/>
       <use xlink:href="#DejaVuSans-30" transform="translate(159.033203 0)"/>
       <use xlink:href="#DejaVuSans-30" transform="translate(222.65625 0)"/>
       <use xlink:href="#DejaVuSans-30" transform="translate(286.279297 0)"/>
      </g>
     </g>
    </g>
    <g id="xtick_7">
     <g id="line2d_7">
      <g>
       <use xlink:href="#m6bf2c5720c" x="299.191595" y="228.96" style="stroke: #000000; stroke-width: 0.8"/>
      </g>
     </g>
     <g id="text_7">
      <!-- 0.0025 -->
      <g transform="translate(281.696283 243.558437) scale(0.1 -0.1)">
       <use xlink:href="#DejaVuSans-30"/>
       <use xlink:href="#DejaVuSans-2e" transform="translate(63.623047 0)"/>
       <use xlink:href="#DejaVuSans-30" transform="translate(95.410156 0)"/>
       <use xlink:href="#DejaVuSans-30" transform="translate(159.033203 0)"/>
       <use xlink:href="#DejaVuSans-32" transform="translate(222.65625 0)"/>
       <use xlink:href="#DejaVuSans-35" transform="translate(286.279297 0)"/>
      </g>
     </g>
    </g>
    <g id="xtick_8">
     <g id="line2d_8">
      <g>
       <use xlink:href="#m6bf2c5720c" x="340.564871" y="228.96" style="stroke: #000000; stroke-width: 0.8"/>
      </g>
     </g>
     <g id="text_8">
      <!-- 0.0050 -->
      <g transform="translate(323.069558 243.558437) scale(0.1 -0.1)">
       <use xlink:href="#DejaVuSans-30"/>
       <use xlink:href="#DejaVuSans-2e" transform="translate(63.623047 0)"/>
       <use xlink:href="#DejaVuSans-30" transform="translate(95.410156 0)"/>
       <use xlink:href="#DejaVuSans-30" transform="translate(159.033203 0)"/>
       <use xlink:href="#DejaVuSans-35" transform="translate(222.65625 0)"/>
       <use xlink:href="#DejaVuSans-30" transform="translate(286.279297 0)"/>
      </g>
     </g>
    </g>
    <g id="text_9">
     <!-- energy_transfer [meV] -->
     <g transform="translate(157.839063 257.236562) scale(0.1 -0.1)">
      <defs>
       <path id="DejaVuSans-65" d="M 3597 1894 
L 3597 1613 
L 953 1613 
Q 991 1019 1311 708 
Q 1631 397 2203 397 
Q 2534 397 2845 478 
Q 3156 559 3463 722 
L 3463 178 
Q 3153 47 2828 -22 
Q 2503 -91 2169 -91 
Q 1331 -91 842 396 
Q 353 884 353 1716 
Q 353 2575 817 3079 
Q 1281 3584 2069 3584 
Q 2775 3584 3186 3129 
Q 3597 2675 3597 1894 
z
M 3022 2063 
Q 3016 2534 2758 2815 
Q 2500 3097 2075 3097 
Q 1594 3097 1305 2825 
Q 1016 2553 972 2059 
L 3022 2063 
z
" transform="scale(0.015625)"/>
       <path id="DejaVuSans-6e" d="M 3513 2113 
L 3513 0 
L 2938 0 
L 2938 2094 
Q 2938 2591 2744 2837 
Q 2550 3084 2163 3084 
Q 1697 3084 1428 2787 
Q 1159 2491 1159 1978 
L 1159 0 
L 581 0 
L 581 3500 
L 1159 3500 
L 1159 2956 
Q 1366 3272 1645 3428 
Q 1925 3584 2291 3584 
Q 2894 3584 3203 3211 
Q 3513 2838 3513 2113 
z
" transform="scale(0.015625)"/>
       <path id="DejaVuSans-72" d="M 2631 2963 
Q 2534 3019 2420 3045 
Q 2306 3072 2169 3072 
Q 1681 3072 1420 2755 
Q 1159 2438 1159 1844 
L 1159 0 
L 581 0 
L 581 3500 
L 1159 3500 
L 1159 2956 
Q 1341 3275 1631 3429 
Q 1922 3584 2338 3584 
Q 2397 3584 2469 3576 
Q 2541 3569 2628 3553 
L 2631 2963 
z
" transform="scale(0.015625)"/>
       <path id="DejaVuSans-67" d="M 2906 1791 
Q 2906 2416 2648 2759 
Q 2391 3103 1925 3103 
Q 1463 3103 1205 2759 
Q 947 2416 947 1791 
Q 947 1169 1205 825 
Q 1463 481 1925 481 
Q 2391 481 2648 825 
Q 2906 1169 2906 1791 
z
M 3481 434 
Q 3481 -459 3084 -895 
Q 2688 -1331 1869 -1331 
Q 1566 -1331 1297 -1286 
Q 1028 -1241 775 -1147 
L 775 -588 
Q 1028 -725 1275 -790 
Q 1522 -856 1778 -856 
Q 2344 -856 2625 -561 
Q 2906 -266 2906 331 
L 2906 616 
Q 2728 306 2450 153 
Q 2172 0 1784 0 
Q 1141 0 747 490 
Q 353 981 353 1791 
Q 353 2603 747 3093 
Q 1141 3584 1784 3584 
Q 2172 3584 2450 3431 
Q 2728 3278 2906 2969 
L 2906 3500 
L 3481 3500 
L 3481 434 
z
" transform="scale(0.015625)"/>
       <path id="DejaVuSans-79" d="M 2059 -325 
Q 1816 -950 1584 -1140 
Q 1353 -1331 966 -1331 
L 506 -1331 
L 506 -850 
L 844 -850 
Q 1081 -850 1212 -737 
Q 1344 -625 1503 -206 
L 1606 56 
L 191 3500 
L 800 3500 
L 1894 763 
L 2988 3500 
L 3597 3500 
L 2059 -325 
z
" transform="scale(0.015625)"/>
       <path id="DejaVuSans-5f" d="M 3263 -1063 
L 3263 -1509 
L -63 -1509 
L -63 -1063 
L 3263 -1063 
z
" transform="scale(0.015625)"/>
       <path id="DejaVuSans-74" d="M 1172 4494 
L 1172 3500 
L 2356 3500 
L 2356 3053 
L 1172 3053 
L 1172 1153 
Q 1172 725 1289 603 
Q 1406 481 1766 481 
L 2356 481 
L 2356 0 
L 1766 0 
Q 1100 0 847 248 
Q 594 497 594 1153 
L 594 3053 
L 172 3053 
L 172 3500 
L 594 3500 
L 594 4494 
L 1172 4494 
z
" transform="scale(0.015625)"/>
       <path id="DejaVuSans-61" d="M 2194 1759 
Q 1497 1759 1228 1600 
Q 959 1441 959 1056 
Q 959 750 1161 570 
Q 1363 391 1709 391 
Q 2188 391 2477 730 
Q 2766 1069 2766 1631 
L 2766 1759 
L 2194 1759 
z
M 3341 1997 
L 3341 0 
L 2766 0 
L 2766 531 
Q 2569 213 2275 61 
Q 1981 -91 1556 -91 
Q 1019 -91 701 211 
Q 384 513 384 1019 
Q 384 1609 779 1909 
Q 1175 2209 1959 2209 
L 2766 2209 
L 2766 2266 
Q 2766 2663 2505 2880 
Q 2244 3097 1772 3097 
Q 1472 3097 1187 3025 
Q 903 2953 641 2809 
L 641 3341 
Q 956 3463 1253 3523 
Q 1550 3584 1831 3584 
Q 2591 3584 2966 3190 
Q 3341 2797 3341 1997 
z
" transform="scale(0.015625)"/>
       <path id="DejaVuSans-73" d="M 2834 3397 
L 2834 2853 
Q 2591 2978 2328 3040 
Q 2066 3103 1784 3103 
Q 1356 3103 1142 2972 
Q 928 2841 928 2578 
Q 928 2378 1081 2264 
Q 1234 2150 1697 2047 
L 1894 2003 
Q 2506 1872 2764 1633 
Q 3022 1394 3022 966 
Q 3022 478 2636 193 
Q 2250 -91 1575 -91 
Q 1294 -91 989 -36 
Q 684 19 347 128 
L 347 722 
Q 666 556 975 473 
Q 1284 391 1588 391 
Q 1994 391 2212 530 
Q 2431 669 2431 922 
Q 2431 1156 2273 1281 
Q 2116 1406 1581 1522 
L 1381 1569 
Q 847 1681 609 1914 
Q 372 2147 372 2553 
Q 372 3047 722 3315 
Q 1072 3584 1716 3584 
Q 2034 3584 2315 3537 
Q 2597 3491 2834 3397 
z
" transform="scale(0.015625)"/>
       <path id="DejaVuSans-66" d="M 2375 4863 
L 2375 4384 
L 1825 4384 
Q 1516 4384 1395 4259 
Q 1275 4134 1275 3809 
L 1275 3500 
L 2222 3500 
L 2222 3053 
L 1275 3053 
L 1275 0 
L 697 0 
L 697 3053 
L 147 3053 
L 147 3500 
L 697 3500 
L 697 3744 
Q 697 4328 969 4595 
Q 1241 4863 1831 4863 
L 2375 4863 
z
" transform="scale(0.015625)"/>
       <path id="DejaVuSans-20" transform="scale(0.015625)"/>
       <path id="DejaVuSans-5b" d="M 550 4863 
L 1875 4863 
L 1875 4416 
L 1125 4416 
L 1125 -397 
L 1875 -397 
L 1875 -844 
L 550 -844 
L 550 4863 
z
" transform="scale(0.015625)"/>
       <path id="DejaVuSans-6d" d="M 3328 2828 
Q 3544 3216 3844 3400 
Q 4144 3584 4550 3584 
Q 5097 3584 5394 3201 
Q 5691 2819 5691 2113 
L 5691 0 
L 5113 0 
L 5113 2094 
Q 5113 2597 4934 2840 
Q 4756 3084 4391 3084 
Q 3944 3084 3684 2787 
Q 3425 2491 3425 1978 
L 3425 0 
L 2847 0 
L 2847 2094 
Q 2847 2600 2669 2842 
Q 2491 3084 2119 3084 
Q 1678 3084 1418 2786 
Q 1159 2488 1159 1978 
L 1159 0 
L 581 0 
L 581 3500 
L 1159 3500 
L 1159 2956 
Q 1356 3278 1631 3431 
Q 1906 3584 2284 3584 
Q 2666 3584 2933 3390 
Q 3200 3197 3328 2828 
z
" transform="scale(0.015625)"/>
       <path id="DejaVuSans-56" d="M 1831 0 
L 50 4666 
L 709 4666 
L 2188 738 
L 3669 4666 
L 4325 4666 
L 2547 0 
L 1831 0 
z
" transform="scale(0.015625)"/>
       <path id="DejaVuSans-5d" d="M 1947 4863 
L 1947 -844 
L 622 -844 
L 622 -397 
L 1369 -397 
L 1369 4416 
L 622 4416 
L 622 4863 
L 1947 4863 
z
" transform="scale(0.015625)"/>
      </defs>
      <use xlink:href="#DejaVuSans-65"/>
      <use xlink:href="#DejaVuSans-6e" transform="translate(61.523438 0)"/>
      <use xlink:href="#DejaVuSans-65" transform="translate(124.902344 0)"/>
      <use xlink:href="#DejaVuSans-72" transform="translate(186.425781 0)"/>
      <use xlink:href="#DejaVuSans-67" transform="translate(225.789062 0)"/>
      <use xlink:href="#DejaVuSans-79" transform="translate(289.265625 0)"/>
      <use xlink:href="#DejaVuSans-5f" transform="translate(348.445312 0)"/>
      <use xlink:href="#DejaVuSans-74" transform="translate(398.445312 0)"/>
      <use xlink:href="#DejaVuSans-72" transform="translate(437.654297 0)"/>
      <use xlink:href="#DejaVuSans-61" transform="translate(478.767578 0)"/>
      <use xlink:href="#DejaVuSans-6e" transform="translate(540.046875 0)"/>
      <use xlink:href="#DejaVuSans-73" transform="translate(603.425781 0)"/>
      <use xlink:href="#DejaVuSans-66" transform="translate(655.525391 0)"/>
      <use xlink:href="#DejaVuSans-65" transform="translate(690.730469 0)"/>
      <use xlink:href="#DejaVuSans-72" transform="translate(752.253906 0)"/>
      <use xlink:href="#DejaVuSans-20" transform="translate(793.367188 0)"/>
      <use xlink:href="#DejaVuSans-5b" transform="translate(825.154297 0)"/>
      <use xlink:href="#DejaVuSans-6d" transform="translate(864.167969 0)"/>
      <use xlink:href="#DejaVuSans-65" transform="translate(961.580078 0)"/>
      <use xlink:href="#DejaVuSans-56" transform="translate(1023.103516 0)"/>
      <use xlink:href="#DejaVuSans-5d" transform="translate(1091.511719 0)"/>
     </g>
    </g>
   </g>
   <g id="matplotlib.axis_2">
    <g id="ytick_1">
     <g id="line2d_9">
      <defs>
       <path id="m7ae4ab8f01" d="M 0 0 
L -3.5 0 
" style="stroke: #000000; stroke-width: 0.8"/>
      </defs>
      <g>
       <use xlink:href="#m7ae4ab8f01" x="46.965625" y="218.88" style="stroke: #000000; stroke-width: 0.8"/>
      </g>
     </g>
     <g id="text_10">
      <!-- 0 -->
      <g transform="translate(33.603125 222.679219) scale(0.1 -0.1)">
       <use xlink:href="#DejaVuSans-30"/>
      </g>
     </g>
    </g>
    <g id="ytick_2">
     <g id="line2d_10">
      <g>
       <use xlink:href="#m7ae4ab8f01" x="46.965625" y="177.92318" style="stroke: #000000; stroke-width: 0.8"/>
      </g>
     </g>
     <g id="text_11">
      <!-- 50 -->
      <g transform="translate(27.240625 181.722399) scale(0.1 -0.1)">
       <use xlink:href="#DejaVuSans-35"/>
       <use xlink:href="#DejaVuSans-30" transform="translate(63.623047 0)"/>
      </g>
     </g>
    </g>
    <g id="ytick_3">
     <g id="line2d_11">
      <g>
       <use xlink:href="#m7ae4ab8f01" x="46.965625" y="136.96636" style="stroke: #000000; stroke-width: 0.8"/>
      </g>
     </g>
     <g id="text_12">
      <!-- 100 -->
      <g transform="translate(20.878125 140.765579) scale(0.1 -0.1)">
       <use xlink:href="#DejaVuSans-31"/>
       <use xlink:href="#DejaVuSans-30" transform="translate(63.623047 0)"/>
       <use xlink:href="#DejaVuSans-30" transform="translate(127.246094 0)"/>
      </g>
     </g>
    </g>
    <g id="ytick_4">
     <g id="line2d_12">
      <g>
       <use xlink:href="#m7ae4ab8f01" x="46.965625" y="96.00954" style="stroke: #000000; stroke-width: 0.8"/>
      </g>
     </g>
     <g id="text_13">
      <!-- 150 -->
      <g transform="translate(20.878125 99.808759) scale(0.1 -0.1)">
       <use xlink:href="#DejaVuSans-31"/>
       <use xlink:href="#DejaVuSans-35" transform="translate(63.623047 0)"/>
       <use xlink:href="#DejaVuSans-30" transform="translate(127.246094 0)"/>
      </g>
     </g>
    </g>
    <g id="ytick_5">
     <g id="line2d_13">
      <g>
       <use xlink:href="#m7ae4ab8f01" x="46.965625" y="55.05272" style="stroke: #000000; stroke-width: 0.8"/>
      </g>
     </g>
     <g id="text_14">
      <!-- 200 -->
      <g transform="translate(20.878125 58.851939) scale(0.1 -0.1)">
       <use xlink:href="#DejaVuSans-32"/>
       <use xlink:href="#DejaVuSans-30" transform="translate(63.623047 0)"/>
       <use xlink:href="#DejaVuSans-30" transform="translate(127.246094 0)"/>
      </g>
     </g>
    </g>
    <g id="ytick_6">
     <g id="line2d_14">
      <g>
       <use xlink:href="#m7ae4ab8f01" x="46.965625" y="14.0959" style="stroke: #000000; stroke-width: 0.8"/>
      </g>
     </g>
     <g id="text_15">
      <!-- 250 -->
      <g transform="translate(20.878125 17.895119) scale(0.1 -0.1)">
       <use xlink:href="#DejaVuSans-32"/>
       <use xlink:href="#DejaVuSans-35" transform="translate(63.623047 0)"/>
       <use xlink:href="#DejaVuSans-30" transform="translate(127.246094 0)"/>
      </g>
     </g>
    </g>
    <g id="text_16">
     <!-- [counts] -->
     <g transform="translate(14.798438 138.6925) rotate(-90) scale(0.1 -0.1)">
      <defs>
       <path id="DejaVuSans-63" d="M 3122 3366 
L 3122 2828 
Q 2878 2963 2633 3030 
Q 2388 3097 2138 3097 
Q 1578 3097 1268 2742 
Q 959 2388 959 1747 
Q 959 1106 1268 751 
Q 1578 397 2138 397 
Q 2388 397 2633 464 
Q 2878 531 3122 666 
L 3122 134 
Q 2881 22 2623 -34 
Q 2366 -91 2075 -91 
Q 1284 -91 818 406 
Q 353 903 353 1747 
Q 353 2603 823 3093 
Q 1294 3584 2113 3584 
Q 2378 3584 2631 3529 
Q 2884 3475 3122 3366 
z
" transform="scale(0.015625)"/>
       <path id="DejaVuSans-6f" d="M 1959 3097 
Q 1497 3097 1228 2736 
Q 959 2375 959 1747 
Q 959 1119 1226 758 
Q 1494 397 1959 397 
Q 2419 397 2687 759 
Q 2956 1122 2956 1747 
Q 2956 2369 2687 2733 
Q 2419 3097 1959 3097 
z
M 1959 3584 
Q 2709 3584 3137 3096 
Q 3566 2609 3566 1747 
Q 3566 888 3137 398 
Q 2709 -91 1959 -91 
Q 1206 -91 779 398 
Q 353 888 353 1747 
Q 353 2609 779 3096 
Q 1206 3584 1959 3584 
z
" transform="scale(0.015625)"/>
       <path id="DejaVuSans-75" d="M 544 1381 
L 544 3500 
L 1119 3500 
L 1119 1403 
Q 1119 906 1312 657 
Q 1506 409 1894 409 
Q 2359 409 2629 706 
Q 2900 1003 2900 1516 
L 2900 3500 
L 3475 3500 
L 3475 0 
L 2900 0 
L 2900 538 
Q 2691 219 2414 64 
Q 2138 -91 1772 -91 
Q 1169 -91 856 284 
Q 544 659 544 1381 
z
M 1991 3584 
L 1991 3584 
z
" transform="scale(0.015625)"/>
      </defs>
      <use xlink:href="#DejaVuSans-5b"/>
      <use xlink:href="#DejaVuSans-63" transform="translate(39.013672 0)"/>
      <use xlink:href="#DejaVuSans-6f" transform="translate(93.994141 0)"/>
      <use xlink:href="#DejaVuSans-75" transform="translate(155.175781 0)"/>
      <use xlink:href="#DejaVuSans-6e" transform="translate(218.554688 0)"/>
      <use xlink:href="#DejaVuSans-74" transform="translate(281.933594 0)"/>
      <use xlink:href="#DejaVuSans-73" transform="translate(321.142578 0)"/>
      <use xlink:href="#DejaVuSans-5d" transform="translate(373.242188 0)"/>
     </g>
    </g>
   </g>
   <g id="line2d_15">
    <path d="M 62.183807 218.88 
L 123.056534 218.836868 
L 123.056534 218.706299 
L 129.143807 218.656059 
L 129.143807 218.523813 
L 135.23108 218.516988 
L 135.23108 218.386755 
L 138.274716 218.386755 
L 138.274716 218.059388 
L 141.318352 218.059388 
L 141.318352 217.723074 
L 144.361989 217.723074 
L 144.361989 217.126476 
L 147.405625 217.126476 
L 147.405625 216.077087 
L 150.449261 216.077087 
L 150.449261 214.354324 
L 153.492898 214.354324 
L 153.492898 212.618272 
L 156.536534 212.618272 
L 156.536534 210.517185 
L 159.58017 210.517185 
L 159.58017 208.807407 
L 162.623807 208.807407 
L 162.623807 206.205587 
L 165.667443 206.205587 
L 165.667443 203.668952 
L 168.71108 203.668952 
L 168.71108 201.75514 
L 171.754716 201.75514 
L 171.754716 200.898589 
L 174.798352 200.898589 
L 174.798352 199.326123 
L 177.841989 199.326123 
L 177.841989 198.256985 
L 180.885625 198.256985 
L 180.885625 196.520102 
L 183.929261 196.520102 
L 183.929261 197.159917 
L 190.016534 197.224693 
L 190.016534 196.8517 
L 196.103807 196.832678 
L 196.103807 197.361388 
L 199.147443 197.361388 
L 199.147443 196.715879 
L 202.19108 196.715879 
L 202.19108 197.333025 
L 205.234716 197.333025 
L 205.234716 195.501558 
L 208.278352 195.501558 
L 208.278352 196.0685 
L 211.321989 196.0685 
L 211.321989 197.477508 
L 214.365625 197.477508 
L 214.365625 196.476592 
L 217.409261 196.476592 
L 217.409261 198.412719 
L 220.452898 198.412719 
L 220.452898 197.55074 
L 226.54017 197.476498 
L 226.54017 196.480769 
L 229.583807 196.480769 
L 229.583807 193.306573 
L 232.627443 193.306573 
L 232.627443 188.042889 
L 235.67108 188.042889 
L 235.67108 181.154239 
L 238.714716 181.154239 
L 238.714716 173.247933 
L 241.758352 173.247933 
L 241.758352 161.286206 
L 244.801989 161.286206 
L 244.801989 149.019679 
L 247.845625 149.019679 
L 247.845625 132.523268 
L 250.889261 132.523268 
L 250.889261 113.951447 
L 253.932898 113.951447 
L 253.932898 100.157219 
L 256.976534 100.157219 
L 256.976534 83.886863 
L 260.02017 83.886863 
L 260.02017 66.501693 
L 263.063807 66.501693 
L 263.063807 57.198238 
L 266.107443 57.198238 
L 266.107443 44.472801 
L 269.15108 44.472801 
L 269.15108 35.392143 
L 272.194716 35.392143 
L 272.194716 30.93779 
L 275.238352 30.93779 
L 275.238352 23.500645 
L 278.281989 23.500645 
L 278.281989 20.945001 
L 281.325625 20.945001 
L 281.325625 22.513623 
L 284.369261 22.513623 
L 284.369261 18.939258 
L 287.412898 18.939258 
L 287.412898 19.727564 
L 290.456534 19.727564 
L 290.456534 20.255061 
L 293.50017 20.255061 
L 293.50017 21.061433 
L 296.543807 21.061433 
L 296.543807 26.610109 
L 299.587443 26.610109 
L 299.587443 32.139847 
L 302.63108 32.139847 
L 302.63108 39.498044 
L 305.674716 39.498044 
L 305.674716 47.667659 
L 308.718352 47.667659 
L 308.718352 58.007443 
L 311.761989 58.007443 
L 311.761989 73.082271 
L 314.805625 73.082271 
L 314.805625 89.396494 
L 317.849261 89.396494 
L 317.849261 102.524861 
L 320.892898 102.524861 
L 320.892898 120.15402 
L 323.936534 120.15402 
L 323.936534 137.341973 
L 326.98017 137.341973 
L 326.98017 151.8833 
L 330.023807 151.8833 
L 330.023807 169.426344 
L 333.067443 169.426344 
L 333.067443 179.958901 
L 336.11108 179.958901 
L 336.11108 190.904787 
L 339.154716 190.904787 
L 339.154716 199.851179 
L 342.198352 199.851179 
L 342.198352 205.545612 
L 345.241989 205.545612 
L 345.241989 210.944945 
L 348.285625 210.944945 
L 348.285625 214.496614 
L 351.329261 214.496614 
L 351.329261 216.427456 
L 354.372898 216.427456 
L 354.372898 217.814681 
L 357.416534 217.814681 
L 357.416534 218.574145 
L 360.46017 218.574145 
L 360.46017 218.821139 
L 366.547443 218.864918 
L 366.547443 218.864918 
" clip-path="url(#p248d5191c4)" style="fill: none; stroke: #1f77b4; stroke-width: 1.5; stroke-linecap: square"/>
   </g>
   <g id="LineCollection_1">
    <path d="M 63.705625 218.88 
L 63.705625 218.88 
" clip-path="url(#p248d5191c4)" style="fill: none; stroke: #1f77b4; stroke-width: 1.5"/>
    <path d="M 66.749261 218.88 
L 66.749261 218.88 
" clip-path="url(#p248d5191c4)" style="fill: none; stroke: #1f77b4; stroke-width: 1.5"/>
    <path d="M 69.792898 218.88 
L 69.792898 218.88 
" clip-path="url(#p248d5191c4)" style="fill: none; stroke: #1f77b4; stroke-width: 1.5"/>
    <path d="M 72.836534 218.88 
L 72.836534 218.88 
" clip-path="url(#p248d5191c4)" style="fill: none; stroke: #1f77b4; stroke-width: 1.5"/>
    <path d="M 75.88017 218.88 
L 75.88017 218.88 
" clip-path="url(#p248d5191c4)" style="fill: none; stroke: #1f77b4; stroke-width: 1.5"/>
    <path d="M 78.923807 218.88 
L 78.923807 218.88 
" clip-path="url(#p248d5191c4)" style="fill: none; stroke: #1f77b4; stroke-width: 1.5"/>
    <path d="M 81.967443 218.88 
L 81.967443 218.88 
" clip-path="url(#p248d5191c4)" style="fill: none; stroke: #1f77b4; stroke-width: 1.5"/>
    <path d="M 85.01108 218.88 
L 85.01108 218.88 
" clip-path="url(#p248d5191c4)" style="fill: none; stroke: #1f77b4; stroke-width: 1.5"/>
    <path d="M 88.054716 218.88 
L 88.054716 218.88 
" clip-path="url(#p248d5191c4)" style="fill: none; stroke: #1f77b4; stroke-width: 1.5"/>
    <path d="M 91.098352 218.88 
L 91.098352 218.88 
" clip-path="url(#p248d5191c4)" style="fill: none; stroke: #1f77b4; stroke-width: 1.5"/>
    <path d="M 94.141989 218.88 
L 94.141989 218.88 
" clip-path="url(#p248d5191c4)" style="fill: none; stroke: #1f77b4; stroke-width: 1.5"/>
    <path d="M 97.185625 218.88 
L 97.185625 218.88 
" clip-path="url(#p248d5191c4)" style="fill: none; stroke: #1f77b4; stroke-width: 1.5"/>
    <path d="M 100.229261 218.88 
L 100.229261 218.879997 
" clip-path="url(#p248d5191c4)" style="fill: none; stroke: #1f77b4; stroke-width: 1.5"/>
    <path d="M 103.272898 218.88 
L 103.272898 218.88 
" clip-path="url(#p248d5191c4)" style="fill: none; stroke: #1f77b4; stroke-width: 1.5"/>
    <path d="M 106.316534 218.88 
L 106.316534 218.88 
" clip-path="url(#p248d5191c4)" style="fill: none; stroke: #1f77b4; stroke-width: 1.5"/>
    <path d="M 109.36017 218.876576 
L 109.36017 218.860033 
" clip-path="url(#p248d5191c4)" style="fill: none; stroke: #1f77b4; stroke-width: 1.5"/>
    <path d="M 112.403807 218.87791 
L 112.403807 218.867813 
" clip-path="url(#p248d5191c4)" style="fill: none; stroke: #1f77b4; stroke-width: 1.5"/>
    <path d="M 115.447443 218.878272 
L 115.447443 218.86277 
" clip-path="url(#p248d5191c4)" style="fill: none; stroke: #1f77b4; stroke-width: 1.5"/>
    <path d="M 118.49108 218.857638 
L 118.49108 218.825406 
" clip-path="url(#p248d5191c4)" style="fill: none; stroke: #1f77b4; stroke-width: 1.5"/>
    <path d="M 121.534716 218.853466 
L 121.534716 218.82027 
" clip-path="url(#p248d5191c4)" style="fill: none; stroke: #1f77b4; stroke-width: 1.5"/>
    <path d="M 124.578352 218.740889 
L 124.578352 218.671709 
" clip-path="url(#p248d5191c4)" style="fill: none; stroke: #1f77b4; stroke-width: 1.5"/>
    <path d="M 127.621989 218.695596 
L 127.621989 218.616523 
" clip-path="url(#p248d5191c4)" style="fill: none; stroke: #1f77b4; stroke-width: 1.5"/>
    <path d="M 130.665625 218.575791 
L 130.665625 218.471836 
" clip-path="url(#p248d5191c4)" style="fill: none; stroke: #1f77b4; stroke-width: 1.5"/>
    <path d="M 133.709261 218.569111 
L 133.709261 218.464864 
" clip-path="url(#p248d5191c4)" style="fill: none; stroke: #1f77b4; stroke-width: 1.5"/>
    <path d="M 136.752898 218.450422 
L 136.752898 218.323087 
" clip-path="url(#p248d5191c4)" style="fill: none; stroke: #1f77b4; stroke-width: 1.5"/>
    <path d="M 139.796534 218.140869 
L 139.796534 217.977906 
" clip-path="url(#p248d5191c4)" style="fill: none; stroke: #1f77b4; stroke-width: 1.5"/>
    <path d="M 142.84017 217.81995 
L 142.84017 217.626199 
" clip-path="url(#p248d5191c4)" style="fill: none; stroke: #1f77b4; stroke-width: 1.5"/>
    <path d="M 145.883807 217.248395 
L 145.883807 217.004557 
" clip-path="url(#p248d5191c4)" style="fill: none; stroke: #1f77b4; stroke-width: 1.5"/>
    <path d="M 148.927443 216.241617 
L 148.927443 215.912557 
" clip-path="url(#p248d5191c4)" style="fill: none; stroke: #1f77b4; stroke-width: 1.5"/>
    <path d="M 151.97108 214.575607 
L 151.97108 214.133042 
" clip-path="url(#p248d5191c4)" style="fill: none; stroke: #1f77b4; stroke-width: 1.5"/>
    <path d="M 155.014716 212.882291 
L 155.014716 212.354253 
" clip-path="url(#p248d5191c4)" style="fill: none; stroke: #1f77b4; stroke-width: 1.5"/>
    <path d="M 158.058352 210.830765 
L 158.058352 210.203606 
" clip-path="url(#p248d5191c4)" style="fill: none; stroke: #1f77b4; stroke-width: 1.5"/>
    <path d="M 161.101989 209.158815 
L 161.101989 208.455998 
" clip-path="url(#p248d5191c4)" style="fill: none; stroke: #1f77b4; stroke-width: 1.5"/>
    <path d="M 164.145625 206.606604 
L 164.145625 205.80457 
" clip-path="url(#p248d5191c4)" style="fill: none; stroke: #1f77b4; stroke-width: 1.5"/>
    <path d="M 167.189261 204.114471 
L 167.189261 203.223433 
" clip-path="url(#p248d5191c4)" style="fill: none; stroke: #1f77b4; stroke-width: 1.5"/>
    <path d="M 170.232898 202.234958 
L 170.232898 201.275321 
" clip-path="url(#p248d5191c4)" style="fill: none; stroke: #1f77b4; stroke-width: 1.5"/>
    <path d="M 173.276534 201.388408 
L 173.276534 200.40877 
" clip-path="url(#p248d5191c4)" style="fill: none; stroke: #1f77b4; stroke-width: 1.5"/>
    <path d="M 176.32017 199.840419 
L 176.32017 198.811826 
" clip-path="url(#p248d5191c4)" style="fill: none; stroke: #1f77b4; stroke-width: 1.5"/>
    <path d="M 179.363807 198.788124 
L 179.363807 197.725846 
" clip-path="url(#p248d5191c4)" style="fill: none; stroke: #1f77b4; stroke-width: 1.5"/>
    <path d="M 182.407443 197.071684 
L 182.407443 195.968521 
" clip-path="url(#p248d5191c4)" style="fill: none; stroke: #1f77b4; stroke-width: 1.5"/>
    <path d="M 185.45108 197.703173 
L 185.45108 196.616661 
" clip-path="url(#p248d5191c4)" style="fill: none; stroke: #1f77b4; stroke-width: 1.5"/>
    <path d="M 188.494716 197.766524 
L 188.494716 196.682862 
" clip-path="url(#p248d5191c4)" style="fill: none; stroke: #1f77b4; stroke-width: 1.5"/>
    <path d="M 191.538352 197.401931 
L 191.538352 196.30147 
" clip-path="url(#p248d5191c4)" style="fill: none; stroke: #1f77b4; stroke-width: 1.5"/>
    <path d="M 194.581989 197.381819 
L 194.581989 196.283537 
" clip-path="url(#p248d5191c4)" style="fill: none; stroke: #1f77b4; stroke-width: 1.5"/>
    <path d="M 197.625625 197.903726 
L 197.625625 196.819049 
" clip-path="url(#p248d5191c4)" style="fill: none; stroke: #1f77b4; stroke-width: 1.5"/>
    <path d="M 200.669261 197.267244 
L 200.669261 196.164513 
" clip-path="url(#p248d5191c4)" style="fill: none; stroke: #1f77b4; stroke-width: 1.5"/>
    <path d="M 203.712898 197.871923 
L 203.712898 196.794128 
" clip-path="url(#p248d5191c4)" style="fill: none; stroke: #1f77b4; stroke-width: 1.5"/>
    <path d="M 206.756534 196.067383 
L 206.756534 194.935733 
" clip-path="url(#p248d5191c4)" style="fill: none; stroke: #1f77b4; stroke-width: 1.5"/>
    <path d="M 209.80017 196.626127 
L 209.80017 195.510872 
" clip-path="url(#p248d5191c4)" style="fill: none; stroke: #1f77b4; stroke-width: 1.5"/>
    <path d="M 212.843807 198.015264 
L 212.843807 196.939751 
" clip-path="url(#p248d5191c4)" style="fill: none; stroke: #1f77b4; stroke-width: 1.5"/>
    <path d="M 215.887443 197.029528 
L 215.887443 195.923656 
" clip-path="url(#p248d5191c4)" style="fill: none; stroke: #1f77b4; stroke-width: 1.5"/>
    <path d="M 218.93108 198.933309 
L 218.93108 197.892128 
" clip-path="url(#p248d5191c4)" style="fill: none; stroke: #1f77b4; stroke-width: 1.5"/>
    <path d="M 221.974716 198.083233 
L 221.974716 197.018247 
" clip-path="url(#p248d5191c4)" style="fill: none; stroke: #1f77b4; stroke-width: 1.5"/>
    <path d="M 225.018352 197.999881 
L 225.018352 196.953116 
" clip-path="url(#p248d5191c4)" style="fill: none; stroke: #1f77b4; stroke-width: 1.5"/>
    <path d="M 228.061989 197.001446 
L 228.061989 195.960091 
" clip-path="url(#p248d5191c4)" style="fill: none; stroke: #1f77b4; stroke-width: 1.5"/>
    <path d="M 231.105625 193.857717 
L 231.105625 192.755429 
" clip-path="url(#p248d5191c4)" style="fill: none; stroke: #1f77b4; stroke-width: 1.5"/>
    <path d="M 234.149261 188.640995 
L 234.149261 187.444783 
" clip-path="url(#p248d5191c4)" style="fill: none; stroke: #1f77b4; stroke-width: 1.5"/>
    <path d="M 237.192898 181.815829 
L 237.192898 180.492649 
" clip-path="url(#p248d5191c4)" style="fill: none; stroke: #1f77b4; stroke-width: 1.5"/>
    <path d="M 240.236534 173.976132 
L 240.236534 172.519734 
" clip-path="url(#p248d5191c4)" style="fill: none; stroke: #1f77b4; stroke-width: 1.5"/>
    <path d="M 243.28017 162.115885 
L 243.28017 160.456527 
" clip-path="url(#p248d5191c4)" style="fill: none; stroke: #1f77b4; stroke-width: 1.5"/>
    <path d="M 246.323807 149.941791 
L 246.323807 148.097566 
" clip-path="url(#p248d5191c4)" style="fill: none; stroke: #1f77b4; stroke-width: 1.5"/>
    <path d="M 249.367443 133.563445 
L 249.367443 131.483091 
" clip-path="url(#p248d5191c4)" style="fill: none; stroke: #1f77b4; stroke-width: 1.5"/>
    <path d="M 252.41108 115.113145 
L 252.41108 112.789749 
" clip-path="url(#p248d5191c4)" style="fill: none; stroke: #1f77b4; stroke-width: 1.5"/>
    <path d="M 255.454716 101.400872 
L 255.454716 98.913567 
" clip-path="url(#p248d5191c4)" style="fill: none; stroke: #1f77b4; stroke-width: 1.5"/>
    <path d="M 258.498352 85.220312 
L 258.498352 82.553414 
" clip-path="url(#p248d5191c4)" style="fill: none; stroke: #1f77b4; stroke-width: 1.5"/>
    <path d="M 261.541989 67.930978 
L 261.541989 65.072408 
" clip-path="url(#p248d5191c4)" style="fill: none; stroke: #1f77b4; stroke-width: 1.5"/>
    <path d="M 264.585625 58.671726 
L 264.585625 55.72475 
" clip-path="url(#p248d5191c4)" style="fill: none; stroke: #1f77b4; stroke-width: 1.5"/>
    <path d="M 267.629261 46.009011 
L 267.629261 42.936592 
" clip-path="url(#p248d5191c4)" style="fill: none; stroke: #1f77b4; stroke-width: 1.5"/>
    <path d="M 270.672898 36.973929 
L 270.672898 33.810357 
" clip-path="url(#p248d5191c4)" style="fill: none; stroke: #1f77b4; stroke-width: 1.5"/>
    <path d="M 273.716534 32.539789 
L 273.716534 29.335791 
" clip-path="url(#p248d5191c4)" style="fill: none; stroke: #1f77b4; stroke-width: 1.5"/>
    <path d="M 276.76017 25.136877 
L 276.76017 21.864412 
" clip-path="url(#p248d5191c4)" style="fill: none; stroke: #1f77b4; stroke-width: 1.5"/>
    <path d="M 279.803807 22.595037 
L 279.803807 19.294965 
" clip-path="url(#p248d5191c4)" style="fill: none; stroke: #1f77b4; stroke-width: 1.5"/>
    <path d="M 282.847443 24.155102 
L 282.847443 20.872145 
" clip-path="url(#p248d5191c4)" style="fill: none; stroke: #1f77b4; stroke-width: 1.5"/>
    <path d="M 285.89108 20.598516 
L 285.89108 17.28 
" clip-path="url(#p248d5191c4)" style="fill: none; stroke: #1f77b4; stroke-width: 1.5"/>
    <path d="M 288.934716 21.385246 
L 288.934716 18.069882 
" clip-path="url(#p248d5191c4)" style="fill: none; stroke: #1f77b4; stroke-width: 1.5"/>
    <path d="M 291.978352 21.914646 
L 291.978352 18.595476 
" clip-path="url(#p248d5191c4)" style="fill: none; stroke: #1f77b4; stroke-width: 1.5"/>
    <path d="M 295.021989 22.718901 
L 295.021989 19.403966 
" clip-path="url(#p248d5191c4)" style="fill: none; stroke: #1f77b4; stroke-width: 1.5"/>
    <path d="M 298.065625 28.248006 
L 298.065625 24.972211 
" clip-path="url(#p248d5191c4)" style="fill: none; stroke: #1f77b4; stroke-width: 1.5"/>
    <path d="M 301.109261 33.758282 
L 301.109261 30.521412 
" clip-path="url(#p248d5191c4)" style="fill: none; stroke: #1f77b4; stroke-width: 1.5"/>
    <path d="M 304.152898 41.088843 
L 304.152898 37.907246 
" clip-path="url(#p248d5191c4)" style="fill: none; stroke: #1f77b4; stroke-width: 1.5"/>
    <path d="M 307.196534 49.228309 
L 307.196534 46.107009 
" clip-path="url(#p248d5191c4)" style="fill: none; stroke: #1f77b4; stroke-width: 1.5"/>
    <path d="M 310.24017 59.526528 
L 310.24017 56.488358 
" clip-path="url(#p248d5191c4)" style="fill: none; stroke: #1f77b4; stroke-width: 1.5"/>
    <path d="M 313.283807 74.531518 
L 313.283807 71.633025 
" clip-path="url(#p248d5191c4)" style="fill: none; stroke: #1f77b4; stroke-width: 1.5"/>
    <path d="M 316.327443 90.767129 
L 316.327443 88.02586 
" clip-path="url(#p248d5191c4)" style="fill: none; stroke: #1f77b4; stroke-width: 1.5"/>
    <path d="M 319.37108 103.825463 
L 319.37108 101.22426 
" clip-path="url(#p248d5191c4)" style="fill: none; stroke: #1f77b4; stroke-width: 1.5"/>
    <path d="M 322.414716 121.355524 
L 322.414716 118.952517 
" clip-path="url(#p248d5191c4)" style="fill: none; stroke: #1f77b4; stroke-width: 1.5"/>
    <path d="M 325.458352 138.433203 
L 325.458352 136.250743 
" clip-path="url(#p248d5191c4)" style="fill: none; stroke: #1f77b4; stroke-width: 1.5"/>
    <path d="M 328.501989 152.875162 
L 328.501989 150.891438 
" clip-path="url(#p248d5191c4)" style="fill: none; stroke: #1f77b4; stroke-width: 1.5"/>
    <path d="M 331.545625 170.27786 
L 331.545625 168.574829 
" clip-path="url(#p248d5191c4)" style="fill: none; stroke: #1f77b4; stroke-width: 1.5"/>
    <path d="M 334.589261 180.718448 
L 334.589261 179.199353 
" clip-path="url(#p248d5191c4)" style="fill: none; stroke: #1f77b4; stroke-width: 1.5"/>
    <path d="M 337.632898 191.550022 
L 337.632898 190.259553 
" clip-path="url(#p248d5191c4)" style="fill: none; stroke: #1f77b4; stroke-width: 1.5"/>
    <path d="M 340.676534 200.381689 
L 340.676534 199.320669 
" clip-path="url(#p248d5191c4)" style="fill: none; stroke: #1f77b4; stroke-width: 1.5"/>
    <path d="M 343.72017 205.988786 
L 343.72017 205.102438 
" clip-path="url(#p248d5191c4)" style="fill: none; stroke: #1f77b4; stroke-width: 1.5"/>
    <path d="M 346.763807 211.284294 
L 346.763807 210.605597 
" clip-path="url(#p248d5191c4)" style="fill: none; stroke: #1f77b4; stroke-width: 1.5"/>
    <path d="M 349.807443 214.750161 
L 349.807443 214.243068 
" clip-path="url(#p248d5191c4)" style="fill: none; stroke: #1f77b4; stroke-width: 1.5"/>
    <path d="M 352.85108 216.617525 
L 352.85108 216.237386 
" clip-path="url(#p248d5191c4)" style="fill: none; stroke: #1f77b4; stroke-width: 1.5"/>
    <path d="M 355.894716 217.940217 
L 355.894716 217.689144 
" clip-path="url(#p248d5191c4)" style="fill: none; stroke: #1f77b4; stroke-width: 1.5"/>
    <path d="M 358.938352 218.642157 
L 358.938352 218.506133 
" clip-path="url(#p248d5191c4)" style="fill: none; stroke: #1f77b4; stroke-width: 1.5"/>
    <path d="M 361.981989 218.850024 
L 361.981989 218.792254 
" clip-path="url(#p248d5191c4)" style="fill: none; stroke: #1f77b4; stroke-width: 1.5"/>
    <path d="M 365.025625 218.88 
L 365.025625 218.849837 
" clip-path="url(#p248d5191c4)" style="fill: none; stroke: #1f77b4; stroke-width: 1.5"/>
   </g>
   <g id="line2d_16">
    <path d="M 62.183807 218.88 
L 193.06017 218.838057 
L 193.06017 218.76318 
L 199.147443 218.753416 
L 199.147443 218.578427 
L 205.234716 218.507796 
L 205.234716 218.324775 
L 208.278352 218.324775 
L 208.278352 217.877692 
L 211.321989 217.877692 
L 211.321989 217.658583 
L 214.365625 217.658583 
L 214.365625 216.989788 
L 217.409261 216.989788 
L 217.409261 216.139126 
L 220.452898 216.139126 
L 220.452898 215.182678 
L 223.496534 215.182678 
L 223.496534 213.045466 
L 226.54017 213.045466 
L 226.54017 209.059352 
L 229.583807 209.059352 
L 229.583807 204.538851 
L 232.627443 204.538851 
L 232.627443 197.656946 
L 235.67108 197.656946 
L 235.67108 188.615819 
L 238.714716 188.615819 
L 238.714716 178.027417 
L 241.758352 178.027417 
L 241.758352 164.858055 
L 244.801989 164.858055 
L 244.801989 151.610381 
L 247.845625 151.610381 
L 247.845625 135.799249 
L 250.889261 135.799249 
L 250.889261 118.132397 
L 253.932898 118.132397 
L 253.932898 105.105617 
L 256.976534 105.105617 
L 256.976534 90.157551 
L 260.02017 90.157551 
L 260.02017 74.67962 
L 263.063807 74.67962 
L 263.063807 65.849565 
L 266.107443 65.849565 
L 266.107443 54.193364 
L 269.15108 54.193364 
L 269.15108 46.609435 
L 272.194716 46.609435 
L 272.194716 42.553424 
L 275.238352 42.553424 
L 275.238352 35.866477 
L 278.281989 35.866477 
L 278.281989 33.861298 
L 281.325625 33.861298 
L 281.325625 35.295628 
L 284.369261 35.295628 
L 284.369261 32.575048 
L 287.412898 32.575048 
L 287.412898 33.148852 
L 290.456534 33.148852 
L 290.456534 33.488374 
L 293.50017 33.488374 
L 293.50017 33.766765 
L 296.543807 33.766765 
L 296.543807 39.285792 
L 299.587443 39.285792 
L 299.587443 44.453283 
L 302.63108 44.453283 
L 302.63108 52.772322 
L 305.674716 52.772322 
L 305.674716 60.933292 
L 308.718352 60.933292 
L 308.718352 70.525489 
L 311.761989 70.525489 
L 311.761989 85.126342 
L 314.805625 85.126342 
L 314.805625 100.356006 
L 317.849261 100.356006 
L 317.849261 112.977685 
L 320.892898 112.977685 
L 320.892898 129.499965 
L 323.936534 129.499965 
L 323.936534 145.537297 
L 326.98017 145.537297 
L 326.98017 158.035947 
L 330.023807 158.035947 
L 330.023807 174.702907 
L 333.067443 174.702907 
L 333.067443 184.782351 
L 336.11108 184.782351 
L 336.11108 193.846104 
L 339.154716 193.846104 
L 339.154716 201.366629 
L 342.198352 201.366629 
L 342.198352 206.48819 
L 345.241989 206.48819 
L 345.241989 211.432093 
L 348.285625 211.432093 
L 348.285625 214.674703 
L 351.329261 214.674703 
L 351.329261 216.4498 
L 354.372898 216.4498 
L 354.372898 217.814681 
L 357.416534 217.814681 
L 357.416534 218.574145 
L 360.46017 218.574145 
L 360.46017 218.821139 
L 366.547443 218.864918 
L 366.547443 218.864918 
" clip-path="url(#p248d5191c4)" style="fill: none; stroke: #ff7f0e; stroke-width: 1.5; stroke-linecap: square"/>
   </g>
   <g id="LineCollection_2">
    <path d="M 63.705625 218.88 
L 63.705625 218.88 
" clip-path="url(#p248d5191c4)" style="fill: none; stroke: #ff7f0e; stroke-width: 1.5"/>
    <path d="M 66.749261 218.88 
L 66.749261 218.88 
" clip-path="url(#p248d5191c4)" style="fill: none; stroke: #ff7f0e; stroke-width: 1.5"/>
    <path d="M 69.792898 218.88 
L 69.792898 218.88 
" clip-path="url(#p248d5191c4)" style="fill: none; stroke: #ff7f0e; stroke-width: 1.5"/>
    <path d="M 72.836534 218.88 
L 72.836534 218.88 
" clip-path="url(#p248d5191c4)" style="fill: none; stroke: #ff7f0e; stroke-width: 1.5"/>
    <path d="M 75.88017 218.88 
L 75.88017 218.88 
" clip-path="url(#p248d5191c4)" style="fill: none; stroke: #ff7f0e; stroke-width: 1.5"/>
    <path d="M 78.923807 218.88 
L 78.923807 218.88 
" clip-path="url(#p248d5191c4)" style="fill: none; stroke: #ff7f0e; stroke-width: 1.5"/>
    <path d="M 81.967443 218.88 
L 81.967443 218.88 
" clip-path="url(#p248d5191c4)" style="fill: none; stroke: #ff7f0e; stroke-width: 1.5"/>
    <path d="M 85.01108 218.88 
L 85.01108 218.88 
" clip-path="url(#p248d5191c4)" style="fill: none; stroke: #ff7f0e; stroke-width: 1.5"/>
    <path d="M 88.054716 218.88 
L 88.054716 218.88 
" clip-path="url(#p248d5191c4)" style="fill: none; stroke: #ff7f0e; stroke-width: 1.5"/>
    <path d="M 91.098352 218.88 
L 91.098352 218.88 
" clip-path="url(#p248d5191c4)" style="fill: none; stroke: #ff7f0e; stroke-width: 1.5"/>
    <path d="M 94.141989 218.88 
L 94.141989 218.88 
" clip-path="url(#p248d5191c4)" style="fill: none; stroke: #ff7f0e; stroke-width: 1.5"/>
    <path d="M 97.185625 218.88 
L 97.185625 218.88 
" clip-path="url(#p248d5191c4)" style="fill: none; stroke: #ff7f0e; stroke-width: 1.5"/>
    <path d="M 100.229261 218.88 
L 100.229261 218.879997 
" clip-path="url(#p248d5191c4)" style="fill: none; stroke: #ff7f0e; stroke-width: 1.5"/>
    <path d="M 103.272898 218.88 
L 103.272898 218.88 
" clip-path="url(#p248d5191c4)" style="fill: none; stroke: #ff7f0e; stroke-width: 1.5"/>
    <path d="M 106.316534 218.88 
L 106.316534 218.88 
" clip-path="url(#p248d5191c4)" style="fill: none; stroke: #ff7f0e; stroke-width: 1.5"/>
    <path d="M 109.36017 218.88 
L 109.36017 218.88 
" clip-path="url(#p248d5191c4)" style="fill: none; stroke: #ff7f0e; stroke-width: 1.5"/>
    <path d="M 112.403807 218.88 
L 112.403807 218.88 
" clip-path="url(#p248d5191c4)" style="fill: none; stroke: #ff7f0e; stroke-width: 1.5"/>
    <path d="M 115.447443 218.88 
L 115.447443 218.879999 
" clip-path="url(#p248d5191c4)" style="fill: none; stroke: #ff7f0e; stroke-width: 1.5"/>
    <path d="M 118.49108 218.88 
L 118.49108 218.879989 
" clip-path="url(#p248d5191c4)" style="fill: none; stroke: #ff7f0e; stroke-width: 1.5"/>
    <path d="M 121.534716 218.88 
L 121.534716 218.879996 
" clip-path="url(#p248d5191c4)" style="fill: none; stroke: #ff7f0e; stroke-width: 1.5"/>
    <path d="M 124.578352 218.879971 
L 124.578352 218.879862 
" clip-path="url(#p248d5191c4)" style="fill: none; stroke: #ff7f0e; stroke-width: 1.5"/>
    <path d="M 127.621989 218.879993 
L 127.621989 218.879951 
" clip-path="url(#p248d5191c4)" style="fill: none; stroke: #ff7f0e; stroke-width: 1.5"/>
    <path d="M 130.665625 218.87996 
L 130.665625 218.879904 
" clip-path="url(#p248d5191c4)" style="fill: none; stroke: #ff7f0e; stroke-width: 1.5"/>
    <path d="M 133.709261 218.879883 
L 133.709261 218.879662 
" clip-path="url(#p248d5191c4)" style="fill: none; stroke: #ff7f0e; stroke-width: 1.5"/>
    <path d="M 136.752898 218.8799 
L 136.752898 218.879784 
" clip-path="url(#p248d5191c4)" style="fill: none; stroke: #ff7f0e; stroke-width: 1.5"/>
    <path d="M 139.796534 218.879874 
L 139.796534 218.879694 
" clip-path="url(#p248d5191c4)" style="fill: none; stroke: #ff7f0e; stroke-width: 1.5"/>
    <path d="M 142.84017 218.879924 
L 142.84017 218.879839 
" clip-path="url(#p248d5191c4)" style="fill: none; stroke: #ff7f0e; stroke-width: 1.5"/>
    <path d="M 145.883807 218.879783 
L 145.883807 218.879579 
" clip-path="url(#p248d5191c4)" style="fill: none; stroke: #ff7f0e; stroke-width: 1.5"/>
    <path d="M 148.927443 218.8795 
L 148.927443 218.867858 
" clip-path="url(#p248d5191c4)" style="fill: none; stroke: #ff7f0e; stroke-width: 1.5"/>
    <path d="M 151.97108 218.879501 
L 151.97108 218.87928 
" clip-path="url(#p248d5191c4)" style="fill: none; stroke: #ff7f0e; stroke-width: 1.5"/>
    <path d="M 155.014716 218.879464 
L 155.014716 218.879286 
" clip-path="url(#p248d5191c4)" style="fill: none; stroke: #ff7f0e; stroke-width: 1.5"/>
    <path d="M 158.058352 218.871267 
L 158.058352 218.849109 
" clip-path="url(#p248d5191c4)" style="fill: none; stroke: #ff7f0e; stroke-width: 1.5"/>
    <path d="M 161.101989 218.879096 
L 161.101989 218.854662 
" clip-path="url(#p248d5191c4)" style="fill: none; stroke: #ff7f0e; stroke-width: 1.5"/>
    <path d="M 164.145625 218.878728 
L 164.145625 218.866389 
" clip-path="url(#p248d5191c4)" style="fill: none; stroke: #ff7f0e; stroke-width: 1.5"/>
    <path d="M 167.189261 218.878935 
L 167.189261 218.878612 
" clip-path="url(#p248d5191c4)" style="fill: none; stroke: #ff7f0e; stroke-width: 1.5"/>
    <path d="M 170.232898 218.878778 
L 170.232898 218.878417 
" clip-path="url(#p248d5191c4)" style="fill: none; stroke: #ff7f0e; stroke-width: 1.5"/>
    <path d="M 173.276534 218.863777 
L 173.276534 218.83025 
" clip-path="url(#p248d5191c4)" style="fill: none; stroke: #ff7f0e; stroke-width: 1.5"/>
    <path d="M 176.32017 218.874653 
L 176.32017 218.852756 
" clip-path="url(#p248d5191c4)" style="fill: none; stroke: #ff7f0e; stroke-width: 1.5"/>
    <path d="M 179.363807 218.862479 
L 179.363807 218.818029 
" clip-path="url(#p248d5191c4)" style="fill: none; stroke: #ff7f0e; stroke-width: 1.5"/>
    <path d="M 182.407443 218.87066 
L 182.407443 218.832065 
" clip-path="url(#p248d5191c4)" style="fill: none; stroke: #ff7f0e; stroke-width: 1.5"/>
    <path d="M 185.45108 218.876426 
L 185.45108 218.867007 
" clip-path="url(#p248d5191c4)" style="fill: none; stroke: #ff7f0e; stroke-width: 1.5"/>
    <path d="M 188.494716 218.867964 
L 188.494716 218.835535 
" clip-path="url(#p248d5191c4)" style="fill: none; stroke: #ff7f0e; stroke-width: 1.5"/>
    <path d="M 191.538352 218.86076 
L 191.538352 218.815354 
" clip-path="url(#p248d5191c4)" style="fill: none; stroke: #ff7f0e; stroke-width: 1.5"/>
    <path d="M 194.581989 218.793202 
L 194.581989 218.733157 
" clip-path="url(#p248d5191c4)" style="fill: none; stroke: #ff7f0e; stroke-width: 1.5"/>
    <path d="M 197.625625 218.785882 
L 197.625625 218.720951 
" clip-path="url(#p248d5191c4)" style="fill: none; stroke: #ff7f0e; stroke-width: 1.5"/>
    <path d="M 200.669261 218.623789 
L 200.669261 218.533066 
" clip-path="url(#p248d5191c4)" style="fill: none; stroke: #ff7f0e; stroke-width: 1.5"/>
    <path d="M 203.712898 218.559619 
L 203.712898 218.455972 
" clip-path="url(#p248d5191c4)" style="fill: none; stroke: #ff7f0e; stroke-width: 1.5"/>
    <path d="M 206.756534 218.387126 
L 206.756534 218.262424 
" clip-path="url(#p248d5191c4)" style="fill: none; stroke: #ff7f0e; stroke-width: 1.5"/>
    <path d="M 209.80017 217.962927 
L 209.80017 217.792457 
" clip-path="url(#p248d5191c4)" style="fill: none; stroke: #ff7f0e; stroke-width: 1.5"/>
    <path d="M 212.843807 217.755143 
L 212.843807 217.562024 
" clip-path="url(#p248d5191c4)" style="fill: none; stroke: #ff7f0e; stroke-width: 1.5"/>
    <path d="M 215.887443 217.109989 
L 215.887443 216.869588 
" clip-path="url(#p248d5191c4)" style="fill: none; stroke: #ff7f0e; stroke-width: 1.5"/>
    <path d="M 218.93108 216.284587 
L 218.93108 215.993665 
" clip-path="url(#p248d5191c4)" style="fill: none; stroke: #ff7f0e; stroke-width: 1.5"/>
    <path d="M 221.974716 215.352312 
L 221.974716 215.013044 
" clip-path="url(#p248d5191c4)" style="fill: none; stroke: #ff7f0e; stroke-width: 1.5"/>
    <path d="M 225.018352 213.264491 
L 225.018352 212.826441 
" clip-path="url(#p248d5191c4)" style="fill: none; stroke: #ff7f0e; stroke-width: 1.5"/>
    <path d="M 228.061989 209.355603 
L 228.061989 208.763102 
" clip-path="url(#p248d5191c4)" style="fill: none; stroke: #ff7f0e; stroke-width: 1.5"/>
    <path d="M 231.105625 204.912889 
L 231.105625 204.164813 
" clip-path="url(#p248d5191c4)" style="fill: none; stroke: #ff7f0e; stroke-width: 1.5"/>
    <path d="M 234.149261 198.122241 
L 234.149261 197.191651 
" clip-path="url(#p248d5191c4)" style="fill: none; stroke: #ff7f0e; stroke-width: 1.5"/>
    <path d="M 237.192898 189.188572 
L 237.192898 188.043066 
" clip-path="url(#p248d5191c4)" style="fill: none; stroke: #ff7f0e; stroke-width: 1.5"/>
    <path d="M 240.236534 178.707237 
L 240.236534 177.347598 
" clip-path="url(#p248d5191c4)" style="fill: none; stroke: #ff7f0e; stroke-width: 1.5"/>
    <path d="M 243.28017 165.658157 
L 243.28017 164.057953 
" clip-path="url(#p248d5191c4)" style="fill: none; stroke: #ff7f0e; stroke-width: 1.5"/>
    <path d="M 246.323807 152.515569 
L 246.323807 150.705192 
" clip-path="url(#p248d5191c4)" style="fill: none; stroke: #ff7f0e; stroke-width: 1.5"/>
    <path d="M 249.367443 136.821485 
L 249.367443 134.777013 
" clip-path="url(#p248d5191c4)" style="fill: none; stroke: #ff7f0e; stroke-width: 1.5"/>
    <path d="M 252.41108 119.273352 
L 252.41108 116.991442 
" clip-path="url(#p248d5191c4)" style="fill: none; stroke: #ff7f0e; stroke-width: 1.5"/>
    <path d="M 255.454716 106.325436 
L 255.454716 103.885799 
" clip-path="url(#p248d5191c4)" style="fill: none; stroke: #ff7f0e; stroke-width: 1.5"/>
    <path d="M 258.498352 91.461275 
L 258.498352 88.853828 
" clip-path="url(#p248d5191c4)" style="fill: none; stroke: #ff7f0e; stroke-width: 1.5"/>
    <path d="M 261.541989 76.071835 
L 261.541989 73.287404 
" clip-path="url(#p248d5191c4)" style="fill: none; stroke: #ff7f0e; stroke-width: 1.5"/>
    <path d="M 264.585625 67.284707 
L 264.585625 64.414422 
" clip-path="url(#p248d5191c4)" style="fill: none; stroke: #ff7f0e; stroke-width: 1.5"/>
    <path d="M 267.629261 55.686945 
L 267.629261 52.699782 
" clip-path="url(#p248d5191c4)" style="fill: none; stroke: #ff7f0e; stroke-width: 1.5"/>
    <path d="M 270.672898 48.143295 
L 270.672898 45.075575 
" clip-path="url(#p248d5191c4)" style="fill: none; stroke: #ff7f0e; stroke-width: 1.5"/>
    <path d="M 273.716534 44.105957 
L 273.716534 41.000892 
" clip-path="url(#p248d5191c4)" style="fill: none; stroke: #ff7f0e; stroke-width: 1.5"/>
    <path d="M 276.76017 37.450549 
L 276.76017 34.282405 
" clip-path="url(#p248d5191c4)" style="fill: none; stroke: #ff7f0e; stroke-width: 1.5"/>
    <path d="M 279.803807 35.456655 
L 279.803807 32.265942 
" clip-path="url(#p248d5191c4)" style="fill: none; stroke: #ff7f0e; stroke-width: 1.5"/>
    <path d="M 282.847443 36.883837 
L 282.847443 33.707419 
" clip-path="url(#p248d5191c4)" style="fill: none; stroke: #ff7f0e; stroke-width: 1.5"/>
    <path d="M 285.89108 34.177027 
L 285.89108 30.973068 
" clip-path="url(#p248d5191c4)" style="fill: none; stroke: #ff7f0e; stroke-width: 1.5"/>
    <path d="M 288.934716 34.750584 
L 288.934716 31.54712 
" clip-path="url(#p248d5191c4)" style="fill: none; stroke: #ff7f0e; stroke-width: 1.5"/>
    <path d="M 291.978352 35.092866 
L 291.978352 31.883882 
" clip-path="url(#p248d5191c4)" style="fill: none; stroke: #ff7f0e; stroke-width: 1.5"/>
    <path d="M 295.021989 35.370847 
L 295.021989 32.162684 
" clip-path="url(#p248d5191c4)" style="fill: none; stroke: #ff7f0e; stroke-width: 1.5"/>
    <path d="M 298.065625 40.869357 
L 298.065625 37.702228 
" clip-path="url(#p248d5191c4)" style="fill: none; stroke: #ff7f0e; stroke-width: 1.5"/>
    <path d="M 301.109261 46.018523 
L 301.109261 42.888043 
" clip-path="url(#p248d5191c4)" style="fill: none; stroke: #ff7f0e; stroke-width: 1.5"/>
    <path d="M 304.152898 54.304887 
L 304.152898 51.239756 
" clip-path="url(#p248d5191c4)" style="fill: none; stroke: #ff7f0e; stroke-width: 1.5"/>
    <path d="M 307.196534 62.433862 
L 307.196534 59.432721 
" clip-path="url(#p248d5191c4)" style="fill: none; stroke: #ff7f0e; stroke-width: 1.5"/>
    <path d="M 310.24017 71.985466 
L 310.24017 69.065512 
" clip-path="url(#p248d5191c4)" style="fill: none; stroke: #ff7f0e; stroke-width: 1.5"/>
    <path d="M 313.283807 86.515604 
L 313.283807 83.73708 
" clip-path="url(#p248d5191c4)" style="fill: none; stroke: #ff7f0e; stroke-width: 1.5"/>
    <path d="M 316.327443 101.667867 
L 316.327443 99.044145 
" clip-path="url(#p248d5191c4)" style="fill: none; stroke: #ff7f0e; stroke-width: 1.5"/>
    <path d="M 319.37108 114.219226 
L 319.37108 111.736143 
" clip-path="url(#p248d5191c4)" style="fill: none; stroke: #ff7f0e; stroke-width: 1.5"/>
    <path d="M 322.414716 130.643615 
L 322.414716 128.356315 
" clip-path="url(#p248d5191c4)" style="fill: none; stroke: #ff7f0e; stroke-width: 1.5"/>
    <path d="M 325.458352 146.572627 
L 325.458352 144.501966 
" clip-path="url(#p248d5191c4)" style="fill: none; stroke: #ff7f0e; stroke-width: 1.5"/>
    <path d="M 328.501989 158.980668 
L 328.501989 157.091225 
" clip-path="url(#p248d5191c4)" style="fill: none; stroke: #ff7f0e; stroke-width: 1.5"/>
    <path d="M 331.545625 175.506349 
L 331.545625 173.899466 
" clip-path="url(#p248d5191c4)" style="fill: none; stroke: #ff7f0e; stroke-width: 1.5"/>
    <path d="M 334.589261 185.492181 
L 334.589261 184.072521 
" clip-path="url(#p248d5191c4)" style="fill: none; stroke: #ff7f0e; stroke-width: 1.5"/>
    <path d="M 337.632898 194.456036 
L 337.632898 193.236171 
" clip-path="url(#p248d5191c4)" style="fill: none; stroke: #ff7f0e; stroke-width: 1.5"/>
    <path d="M 340.676534 201.875264 
L 340.676534 200.857995 
" clip-path="url(#p248d5191c4)" style="fill: none; stroke: #ff7f0e; stroke-width: 1.5"/>
    <path d="M 343.72017 206.915404 
L 343.72017 206.060975 
" clip-path="url(#p248d5191c4)" style="fill: none; stroke: #ff7f0e; stroke-width: 1.5"/>
    <path d="M 346.763807 211.760508 
L 346.763807 211.103678 
" clip-path="url(#p248d5191c4)" style="fill: none; stroke: #ff7f0e; stroke-width: 1.5"/>
    <path d="M 349.807443 214.922994 
L 349.807443 214.426413 
" clip-path="url(#p248d5191c4)" style="fill: none; stroke: #ff7f0e; stroke-width: 1.5"/>
    <path d="M 352.85108 216.639074 
L 352.85108 216.260525 
" clip-path="url(#p248d5191c4)" style="fill: none; stroke: #ff7f0e; stroke-width: 1.5"/>
    <path d="M 355.894716 217.940217 
L 355.894716 217.689144 
" clip-path="url(#p248d5191c4)" style="fill: none; stroke: #ff7f0e; stroke-width: 1.5"/>
    <path d="M 358.938352 218.642157 
L 358.938352 218.506133 
" clip-path="url(#p248d5191c4)" style="fill: none; stroke: #ff7f0e; stroke-width: 1.5"/>
    <path d="M 361.981989 218.850024 
L 361.981989 218.792254 
" clip-path="url(#p248d5191c4)" style="fill: none; stroke: #ff7f0e; stroke-width: 1.5"/>
    <path d="M 365.025625 218.88 
L 365.025625 218.849837 
" clip-path="url(#p248d5191c4)" style="fill: none; stroke: #ff7f0e; stroke-width: 1.5"/>
   </g>
   <g id="patch_3">
    <path d="M 46.965625 228.96 
L 46.965625 7.2 
" style="fill: none; stroke: #000000; stroke-width: 0.8; stroke-linejoin: miter; stroke-linecap: square"/>
   </g>
   <g id="patch_4">
    <path d="M 381.765625 228.96 
L 381.765625 7.2 
" style="fill: none; stroke: #000000; stroke-width: 0.8; stroke-linejoin: miter; stroke-linecap: square"/>
   </g>
   <g id="patch_5">
    <path d="M 46.965625 228.96 
L 381.765625 228.96 
" style="fill: none; stroke: #000000; stroke-width: 0.8; stroke-linejoin: miter; stroke-linecap: square"/>
   </g>
   <g id="patch_6">
    <path d="M 46.965625 7.2 
L 381.765625 7.2 
" style="fill: none; stroke: #000000; stroke-width: 0.8; stroke-linejoin: miter; stroke-linecap: square"/>
   </g>
   <g id="legend_1">
    <g id="patch_7">
     <path d="M 53.965625 44.55625 
L 137.648438 44.55625 
Q 139.648438 44.55625 139.648438 42.55625 
L 139.648438 14.2 
Q 139.648438 12.2 137.648438 12.2 
L 53.965625 12.2 
Q 51.965625 12.2 51.965625 14.2 
L 51.965625 42.55625 
Q 51.965625 44.55625 53.965625 44.55625 
z
" style="fill: #ffffff; opacity: 0.8; stroke: #cccccc; stroke-linejoin: miter"/>
    </g>
    <g id="line2d_17">
     <path d="M 55.965625 20.298438 
L 55.965625 20.298438 
L 65.965625 20.298438 
L 65.965625 20.298438 
L 75.965625 20.298438 
" style="fill: none; stroke: #1f77b4; stroke-width: 1.5; stroke-linecap: square"/>
    </g>
    <g id="text_17">
     <!-- unmasked -->
     <g transform="translate(83.965625 23.798438) scale(0.1 -0.1)">
      <defs>
       <path id="DejaVuSans-6b" d="M 581 4863 
L 1159 4863 
L 1159 1991 
L 2875 3500 
L 3609 3500 
L 1753 1863 
L 3688 0 
L 2938 0 
L 1159 1709 
L 1159 0 
L 581 0 
L 581 4863 
z
" transform="scale(0.015625)"/>
       <path id="DejaVuSans-64" d="M 2906 2969 
L 2906 4863 
L 3481 4863 
L 3481 0 
L 2906 0 
L 2906 525 
Q 2725 213 2448 61 
Q 2172 -91 1784 -91 
Q 1150 -91 751 415 
Q 353 922 353 1747 
Q 353 2572 751 3078 
Q 1150 3584 1784 3584 
Q 2172 3584 2448 3432 
Q 2725 3281 2906 2969 
z
M 947 1747 
Q 947 1113 1208 752 
Q 1469 391 1925 391 
Q 2381 391 2643 752 
Q 2906 1113 2906 1747 
Q 2906 2381 2643 2742 
Q 2381 3103 1925 3103 
Q 1469 3103 1208 2742 
Q 947 2381 947 1747 
z
" transform="scale(0.015625)"/>
      </defs>
      <use xlink:href="#DejaVuSans-75"/>
      <use xlink:href="#DejaVuSans-6e" transform="translate(63.378906 0)"/>
      <use xlink:href="#DejaVuSans-6d" transform="translate(126.757812 0)"/>
      <use xlink:href="#DejaVuSans-61" transform="translate(224.169922 0)"/>
      <use xlink:href="#DejaVuSans-73" transform="translate(285.449219 0)"/>
      <use xlink:href="#DejaVuSans-6b" transform="translate(337.548828 0)"/>
      <use xlink:href="#DejaVuSans-65" transform="translate(391.833984 0)"/>
      <use xlink:href="#DejaVuSans-64" transform="translate(453.357422 0)"/>
     </g>
    </g>
    <g id="line2d_18">
     <path d="M 55.965625 34.976562 
L 55.965625 34.976562 
L 65.965625 34.976562 
L 65.965625 34.976562 
L 75.965625 34.976562 
" style="fill: none; stroke: #ff7f0e; stroke-width: 1.5; stroke-linecap: square"/>
    </g>
    <g id="text_18">
     <!-- masked -->
     <g transform="translate(83.965625 38.476562) scale(0.1 -0.1)">
      <use xlink:href="#DejaVuSans-6d"/>
      <use xlink:href="#DejaVuSans-61" transform="translate(97.412109 0)"/>
      <use xlink:href="#DejaVuSans-73" transform="translate(158.691406 0)"/>
      <use xlink:href="#DejaVuSans-6b" transform="translate(210.791016 0)"/>
      <use xlink:href="#DejaVuSans-65" transform="translate(265.076172 0)"/>
      <use xlink:href="#DejaVuSans-64" transform="translate(326.599609 0)"/>
     </g>
    </g>
   </g>
  </g>
 </g>
 <defs>
  <clipPath id="p248d5191c4">
   <rect x="46.965625" y="7.2" width="334.8" height="221.76"/>
  </clipPath>
 </defs>
</svg>