<?xml version="1.0" encoding="utf-8" standalone="no"?>
<!DOCTYPE svg PUBLIC "-//W3C//DTD SVG 1.1//EN"
  "http://www.w3.org/Graphics/SVG/1.1/DTD/svg11.dtd">
<svg xmlns:xlink="http://www.w3.org/1999/xlink" width="389.315634pt" height="268.200625pt" viewBox="0 0 389.315634 268.200625" xmlns="http://www.w3.org/2000/svg" version="1.1">
 <metadata>
  <rdf:RDF xmlns:dc="http://purl.org/dc/elements/1.1/" xmlns:cc="http://creativecommons.org/ns#" xmlns:rdf="http://www.w3.org/1999/02/22-rdf-syntax-ns#">
   <cc:Work>
    <dc:type rdf:resource="http://purl.org/dc/dcmitype/StillImage"/>
    <dc:date>2025-08-15T11:24:55.521625</dc:date>
    <dc:format>image/svg+xml</dc:format>
    <dc:creator>
     <cc:Agent>
      <dc:title>Matplotlib v3.10.5, https://matplotlib.org/</dc:title>
     </cc:Agent>
    </dc:creator>
   </cc:Work>
  </rdf:RDF>
 </metadata>
 <defs>
  <style type="text/css">*{stroke-linejoin: round; stroke-linecap: butt}</style>
 </defs>
 <g id="figure_1">
  <g id="patch_1">
   <path d="M 0 268.200625 
L 389.315634 268.200625 
L 389.315634 0 
L 0 0 
z
" style="fill: #ffffff"/>
  </g>
  <g id="axes_1">
   <g id="patch_2">
    <path d="M 46.965625 228.96 
L 381.765625 228.96 
L 381.765625 7.2 
L 46.965625 7.2 
z
" style="fill: #ffffff"/>
   </g>
   <g id="matplotlib.axis_1">
    <g id="xtick_1">
     <g id="line2d_1">
      <defs>
       <path id="m4d8b5cd1ee" d="M 0 0 
L 0 3.5 
" style="stroke: #000000; stroke-width: 0.8"/>
      </defs>
      <g>
       <use xlink:href="#m4d8b5cd1ee" x="62.298007" y="228.96" style="stroke: #000000; stroke-width: 0.8"/>
      </g>
     </g>
     <g id="text_1">
      <!-- 5.25 -->
      <g transform="translate(51.165194 243.558437) scale(0.1 -0.1)">
       <defs>
        <path id="DejaVuSans-35" d="M 691 4666 
L 3169 4666 
L 3169 4134 
L 1269 4134 
L 1269 2991 
Q 1406 3038 1543 3061 
Q 1681 3084 1819 3084 
Q 2600 3084 3056 2656 
Q 3513 2228 3513 1497 
Q 3513 744 3044 326 
Q 2575 -91 1722 -91 
Q 1428 -91 1123 -41 
Q 819 9 494 109 
L 494 744 
Q 775 591 1075 516 
Q 1375 441 1709 441 
Q 2250 441 2565 725 
Q 2881 1009 2881 1497 
Q 2881 1984 2565 2268 
Q 2250 2553 1709 2553 
Q 1456 2553 1204 2497 
Q 953 2441 691 2322 
L 691 4666 
z
" transform="scale(0.015625)"/>
        <path id="DejaVuSans-2e" d="M 684 794 
L 1344 794 
L 1344 0 
L 684 0 
L 684 794 
z
" transform="scale(0.015625)"/>
        <path id="DejaVuSans-32" d="M 1228 531 
L 3431 531 
L 3431 0 
L 469 0 
L 469 531 
Q 828 903 1448 1529 
Q 2069 2156 2228 2338 
Q 2531 2678 2651 2914 
Q 2772 3150 2772 3378 
Q 2772 3750 2511 3984 
Q 2250 4219 1831 4219 
Q 1534 4219 1204 4116 
Q 875 4013 500 3803 
L 500 4441 
Q 881 4594 1212 4672 
Q 1544 4750 1819 4750 
Q 2544 4750 2975 4387 
Q 3406 4025 3406 3419 
Q 3406 3131 3298 2873 
Q 3191 2616 2906 2266 
Q 2828 2175 2409 1742 
Q 1991 1309 1228 531 
z
" transform="scale(0.015625)"/>
       </defs>
       <use xlink:href="#DejaVuSans-35"/>
       <use xlink:href="#DejaVuSans-2e" transform="translate(63.623047 0)"/>
       <use xlink:href="#DejaVuSans-32" transform="translate(95.410156 0)"/>
       <use xlink:href="#DejaVuSans-35" transform="translate(159.033203 0)"/>
      </g>
     </g>
    </g>
    <g id="xtick_2">
     <g id="line2d_2">
      <g>
       <use xlink:href="#m4d8b5cd1ee" x="106.395838" y="228.96" style="stroke: #000000; stroke-width: 0.8"/>
      </g>
     </g>
     <g id="text_2">
      <!-- 5.50 -->
      <g transform="translate(95.263025 243.558437) scale(0.1 -0.1)">
       <defs>
        <path id="DejaVuSans-30" d="M 2034 4250 
Q 1547 4250 1301 3770 
Q 1056 3291 1056 2328 
Q 1056 1369 1301 889 
Q 1547 409 2034 409 
Q 2525 409 2770 889 
Q 3016 1369 3016 2328 
Q 3016 3291 2770 3770 
Q 2525 4250 2034 4250 
z
M 2034 4750 
Q 2819 4750 3233 4129 
Q 3647 3509 3647 2328 
Q 3647 1150 3233 529 
Q 2819 -91 2034 -91 
Q 1250 -91 836 529 
Q 422 1150 422 2328 
Q 422 3509 836 4129 
Q 1250 4750 2034 4750 
z
" transform="scale(0.015625)"/>
       </defs>
       <use xlink:href="#DejaVuSans-35"/>
       <use xlink:href="#DejaVuSans-2e" transform="translate(63.623047 0)"/>
       <use xlink:href="#DejaVuSans-35" transform="translate(95.410156 0)"/>
       <use xlink:href="#DejaVuSans-30" transform="translate(159.033203 0)"/>
      </g>
     </g>
    </g>
    <g id="xtick_3">
     <g id="line2d_3">
      <g>
       <use xlink:href="#m4d8b5cd1ee" x="150.493668" y="228.96" style="stroke: #000000; stroke-width: 0.8"/>
      </g>
     </g>
     <g id="text_3">
      <!-- 5.75 -->
      <g transform="translate(139.360856 243.558437) scale(0.1 -0.1)">
       <defs>
        <path id="DejaVuSans-37" d="M 525 4666 
L 3525 4666 
L 3525 4397 
L 1831 0 
L 1172 0 
L 2766 4134 
L 525 4134 
L 525 4666 
z
" transform="scale(0.015625)"/>
       </defs>
       <use xlink:href="#DejaVuSans-35"/>
       <use xlink:href="#DejaVuSans-2e" transform="translate(63.623047 0)"/>
       <use xlink:href="#DejaVuSans-37" transform="translate(95.410156 0)"/>
       <use xlink:href="#DejaVuSans-35" transform="translate(159.033203 0)"/>
      </g>
     </g>
    </g>
    <g id="xtick_4">
     <g id="line2d_4">
      <g>
       <use xlink:href="#m4d8b5cd1ee" x="194.591499" y="228.96" style="stroke: #000000; stroke-width: 0.8"/>
      </g>
     </g>
     <g id="text_4">
      <!-- 6.00 -->
      <g transform="translate(183.458686 243.558437) scale(0.1 -0.1)">
       <defs>
        <path id="DejaVuSans-36" d="M 2113 2584 
Q 1688 2584 1439 2293 
Q 1191 2003 1191 1497 
Q 1191 994 1439 701 
Q 1688 409 2113 409 
Q 2538 409 2786 701 
Q 3034 994 3034 1497 
Q 3034 2003 2786 2293 
Q 2538 2584 2113 2584 
z
M 3366 4563 
L 3366 3988 
Q 3128 4100 2886 4159 
Q 2644 4219 2406 4219 
Q 1781 4219 1451 3797 
Q 1122 3375 1075 2522 
Q 1259 2794 1537 2939 
Q 1816 3084 2150 3084 
Q 2853 3084 3261 2657 
Q 3669 2231 3669 1497 
Q 3669 778 3244 343 
Q 2819 -91 2113 -91 
Q 1303 -91 875 529 
Q 447 1150 447 2328 
Q 447 3434 972 4092 
Q 1497 4750 2381 4750 
Q 2619 4750 2861 4703 
Q 3103 4656 3366 4563 
z
" transform="scale(0.015625)"/>
       </defs>
       <use xlink:href="#DejaVuSans-36"/>
       <use xlink:href="#DejaVuSans-2e" transform="translate(63.623047 0)"/>
       <use xlink:href="#DejaVuSans-30" transform="translate(95.410156 0)"/>
       <use xlink:href="#DejaVuSans-30" transform="translate(159.033203 0)"/>
      </g>
     </g>
    </g>
    <g id="xtick_5">
     <g id="line2d_5">
      <g>
       <use xlink:href="#m4d8b5cd1ee" x="238.68933" y="228.96" style="stroke: #000000; stroke-width: 0.8"/>
      </g>
     </g>
     <g id="text_5">
      <!-- 6.25 -->
      <g transform="translate(227.556517 243.558437) scale(0.1 -0.1)">
       <use xlink:href="#DejaVuSans-36"/>
       <use xlink:href="#DejaVuSans-2e" transform="translate(63.623047 0)"/>
       <use xlink:href="#DejaVuSans-32" transform="translate(95.410156 0)"/>
       <use xlink:href="#DejaVuSans-35" transform="translate(159.033203 0)"/>
      </g>
     </g>
    </g>
    <g id="xtick_6">
     <g id="line2d_6">
      <g>
       <use xlink:href="#m4d8b5cd1ee" x="282.78716" y="228.96" style="stroke: #000000; stroke-width: 0.8"/>
      </g>
     </g>
     <g id="text_6">
      <!-- 6.50 -->
      <g transform="translate(271.654348 243.558437) scale(0.1 -0.1)">
       <use xlink:href="#DejaVuSans-36"/>
       <use xlink:href="#DejaVuSans-2e" transform="translate(63.623047 0)"/>
       <use xlink:href="#DejaVuSans-35" transform="translate(95.410156 0)"/>
       <use xlink:href="#DejaVuSans-30" transform="translate(159.033203 0)"/>
      </g>
     </g>
    </g>
    <g id="xtick_7">
     <g id="line2d_7">
      <g>
       <use xlink:href="#m4d8b5cd1ee" x="326.884991" y="228.96" style="stroke: #000000; stroke-width: 0.8"/>
      </g>
     </g>
     <g id="text_7">
      <!-- 6.75 -->
      <g transform="translate(315.752178 243.558437) scale(0.1 -0.1)">
       <use xlink:href="#DejaVuSans-36"/>
       <use xlink:href="#DejaVuSans-2e" transform="translate(63.623047 0)"/>
       <use xlink:href="#DejaVuSans-37" transform="translate(95.410156 0)"/>
       <use xlink:href="#DejaVuSans-35" transform="translate(159.033203 0)"/>
      </g>
     </g>
    </g>
    <g id="xtick_8">
     <g id="line2d_8">
      <g>
       <use xlink:href="#m4d8b5cd1ee" x="370.982822" y="228.96" style="stroke: #000000; stroke-width: 0.8"/>
      </g>
     </g>
     <g id="text_8">
      <!-- 7.00 -->
      <g transform="translate(359.850009 243.558437) scale(0.1 -0.1)">
       <use xlink:href="#DejaVuSans-37"/>
       <use xlink:href="#DejaVuSans-2e" transform="translate(63.623047 0)"/>
       <use xlink:href="#DejaVuSans-30" transform="translate(95.410156 0)"/>
       <use xlink:href="#DejaVuSans-30" transform="translate(159.033203 0)"/>
      </g>
     </g>
    </g>
    <g id="text_9">
     <!-- wavelength [Å] -->
     <g transform="translate(176.328125 258.920937) scale(0.1 -0.1)">
      <defs>
       <path id="DejaVuSans-77" d="M 269 3500 
L 844 3500 
L 1563 769 
L 2278 3500 
L 2956 3500 
L 3675 769 
L 4391 3500 
L 4966 3500 
L 4050 0 
L 3372 0 
L 2619 2869 
L 1863 0 
L 1184 0 
L 269 3500 
z
" transform="scale(0.015625)"/>
       <path id="DejaVuSans-61" d="M 2194 1759 
Q 1497 1759 1228 1600 
Q 959 1441 959 1056 
Q 959 750 1161 570 
Q 1363 391 1709 391 
Q 2188 391 2477 730 
Q 2766 1069 2766 1631 
L 2766 1759 
L 2194 1759 
z
M 3341 1997 
L 3341 0 
L 2766 0 
L 2766 531 
Q 2569 213 2275 61 
Q 1981 -91 1556 -91 
Q 1019 -91 701 211 
Q 384 513 384 1019 
Q 384 1609 779 1909 
Q 1175 2209 1959 2209 
L 2766 2209 
L 2766 2266 
Q 2766 2663 2505 2880 
Q 2244 3097 1772 3097 
Q 1472 3097 1187 3025 
Q 903 2953 641 2809 
L 641 3341 
Q 956 3463 1253 3523 
Q 1550 3584 1831 3584 
Q 2591 3584 2966 3190 
Q 3341 2797 3341 1997 
z
" transform="scale(0.015625)"/>
       <path id="DejaVuSans-76" d="M 191 3500 
L 800 3500 
L 1894 563 
L 2988 3500 
L 3597 3500 
L 2284 0 
L 1503 0 
L 191 3500 
z
" transform="scale(0.015625)"/>
       <path id="DejaVuSans-65" d="M 3597 1894 
L 3597 1613 
L 953 1613 
Q 991 1019 1311 708 
Q 1631 397 2203 397 
Q 2534 397 2845 478 
Q 3156 559 3463 722 
L 3463 178 
Q 3153 47 2828 -22 
Q 2503 -91 2169 -91 
Q 1331 -91 842 396 
Q 353 884 353 1716 
Q 353 2575 817 3079 
Q 1281 3584 2069 3584 
Q 2775 3584 3186 3129 
Q 3597 2675 3597 1894 
z
M 3022 2063 
Q 3016 2534 2758 2815 
Q 2500 3097 2075 3097 
Q 1594 3097 1305 2825 
Q 1016 2553 972 2059 
L 3022 2063 
z
" transform="scale(0.015625)"/>
       <path id="DejaVuSans-6c" d="M 603 4863 
L 1178 4863 
L 1178 0 
L 603 0 
L 603 4863 
z
" transform="scale(0.015625)"/>
       <path id="DejaVuSans-6e" d="M 3513 2113 
L 3513 0 
L 2938 0 
L 2938 2094 
Q 2938 2591 2744 2837 
Q 2550 3084 2163 3084 
Q 1697 3084 1428 2787 
Q 1159 2491 1159 1978 
L 1159 0 
L 581 0 
L 581 3500 
L 1159 3500 
L 1159 2956 
Q 1366 3272 1645 3428 
Q 1925 3584 2291 3584 
Q 2894 3584 3203 3211 
Q 3513 2838 3513 2113 
z
" transform="scale(0.015625)"/>
       <path id="DejaVuSans-67" d="M 2906 1791 
Q 2906 2416 2648 2759 
Q 2391 3103 1925 3103 
Q 1463 3103 1205 2759 
Q 947 2416 947 1791 
Q 947 1169 1205 825 
Q 1463 481 1925 481 
Q 2391 481 2648 825 
Q 2906 1169 2906 1791 
z
M 3481 434 
Q 3481 -459 3084 -895 
Q 2688 -1331 1869 -1331 
Q 1566 -1331 1297 -1286 
Q 1028 -1241 775 -1147 
L 775 -588 
Q 1028 -725 1275 -790 
Q 1522 -856 1778 -856 
Q 2344 -856 2625 -561 
Q 2906 -266 2906 331 
L 2906 616 
Q 2728 306 2450 153 
Q 2172 0 1784 0 
Q 1141 0 747 490 
Q 353 981 353 1791 
Q 353 2603 747 3093 
Q 1141 3584 1784 3584 
Q 2172 3584 2450 3431 
Q 2728 3278 2906 2969 
L 2906 3500 
L 3481 3500 
L 3481 434 
z
" transform="scale(0.015625)"/>
       <path id="DejaVuSans-74" d="M 1172 4494 
L 1172 3500 
L 2356 3500 
L 2356 3053 
L 1172 3053 
L 1172 1153 
Q 1172 725 1289 603 
Q 1406 481 1766 481 
L 2356 481 
L 2356 0 
L 1766 0 
Q 1100 0 847 248 
Q 594 497 594 1153 
L 594 3053 
L 172 3053 
L 172 3500 
L 594 3500 
L 594 4494 
L 1172 4494 
z
" transform="scale(0.015625)"/>
       <path id="DejaVuSans-68" d="M 3513 2113 
L 3513 0 
L 2938 0 
L 2938 2094 
Q 2938 2591 2744 2837 
Q 2550 3084 2163 3084 
Q 1697 3084 1428 2787 
Q 1159 2491 1159 1978 
L 1159 0 
L 581 0 
L 581 4863 
L 1159 4863 
L 1159 2956 
Q 1366 3272 1645 3428 
Q 1925 3584 2291 3584 
Q 2894 3584 3203 3211 
Q 3513 2838 3513 2113 
z
" transform="scale(0.015625)"/>
       <path id="DejaVuSans-20" transform="scale(0.015625)"/>
       <path id="DejaVuSans-5b" d="M 550 4863 
L 1875 4863 
L 1875 4416 
L 1125 4416 
L 1125 -397 
L 1875 -397 
L 1875 -844 
L 550 -844 
L 550 4863 
z
" transform="scale(0.015625)"/>
       <path id="DejaVuSans-c5" d="M 2663 5081 
Q 2663 5278 2523 5417 
Q 2384 5556 2188 5556 
Q 1988 5556 1852 5420 
Q 1716 5284 1716 5081 
Q 1716 4884 1853 4746 
Q 1991 4609 2188 4609 
Q 2384 4609 2523 4746 
Q 2663 4884 2663 5081 
z
M 2188 4044 
L 1338 1722 
L 3041 1722 
L 2188 4044 
z
M 1716 4366 
Q 1525 4494 1428 4673 
Q 1331 4853 1331 5081 
Q 1331 5441 1579 5691 
Q 1828 5941 2188 5941 
Q 2544 5941 2795 5689 
Q 3047 5438 3047 5081 
Q 3047 4863 2948 4678 
Q 2850 4494 2663 4366 
L 4325 0 
L 3669 0 
L 3244 1197 
L 1141 1197 
L 716 0 
L 50 0 
L 1716 4366 
z
" transform="scale(0.015625)"/>
       <path id="DejaVuSans-5d" d="M 1947 4863 
L 1947 -844 
L 622 -844 
L 622 -397 
L 1369 -397 
L 1369 4416 
L 622 4416 
L 622 4863 
L 1947 4863 
z
" transform="scale(0.015625)"/>
      </defs>
      <use xlink:href="#DejaVuSans-77"/>
      <use xlink:href="#DejaVuSans-61" transform="translate(81.787109 0)"/>
      <use xlink:href="#DejaVuSans-76" transform="translate(143.066406 0)"/>
      <use xlink:href="#DejaVuSans-65" transform="translate(202.246094 0)"/>
      <use xlink:href="#DejaVuSans-6c" transform="translate(263.769531 0)"/>
      <use xlink:href="#DejaVuSans-65" transform="translate(291.552734 0)"/>
      <use xlink:href="#DejaVuSans-6e" transform="translate(353.076172 0)"/>
      <use xlink:href="#DejaVuSans-67" transform="translate(416.455078 0)"/>
      <use xlink:href="#DejaVuSans-74" transform="translate(479.931641 0)"/>
      <use xlink:href="#DejaVuSans-68" transform="translate(519.140625 0)"/>
      <use xlink:href="#DejaVuSans-20" transform="translate(582.519531 0)"/>
      <use xlink:href="#DejaVuSans-5b" transform="translate(614.306641 0)"/>
      <use xlink:href="#DejaVuSans-c5" transform="translate(653.320312 0)"/>
      <use xlink:href="#DejaVuSans-5d" transform="translate(721.728516 0)"/>
     </g>
    </g>
   </g>
   <g id="matplotlib.axis_2">
    <g id="ytick_1">
     <g id="line2d_9">
      <defs>
       <path id="mecf96a517b" d="M 0 0 
L -3.5 0 
" style="stroke: #000000; stroke-width: 0.8"/>
      </defs>
      <g>
       <use xlink:href="#mecf96a517b" x="46.965625" y="218.88" style="stroke: #000000; stroke-width: 0.8"/>
      </g>
     </g>
     <g id="text_10">
      <!-- 0 -->
      <g transform="translate(33.603125 222.679219) scale(0.1 -0.1)">
       <use xlink:href="#DejaVuSans-30"/>
      </g>
     </g>
    </g>
    <g id="ytick_2">
     <g id="line2d_10">
      <g>
       <use xlink:href="#mecf96a517b" x="46.965625" y="185.141462" style="stroke: #000000; stroke-width: 0.8"/>
      </g>
     </g>
     <g id="text_11">
      <!-- 100 -->
      <g transform="translate(20.878125 188.940681) scale(0.1 -0.1)">
       <defs>
        <path id="DejaVuSans-31" d="M 794 531 
L 1825 531 
L 1825 4091 
L 703 3866 
L 703 4441 
L 1819 4666 
L 2450 4666 
L 2450 531 
L 3481 531 
L 3481 0 
L 794 0 
L 794 531 
z
" transform="scale(0.015625)"/>
       </defs>
       <use xlink:href="#DejaVuSans-31"/>
       <use xlink:href="#DejaVuSans-30" transform="translate(63.623047 0)"/>
       <use xlink:href="#DejaVuSans-30" transform="translate(127.246094 0)"/>
      </g>
     </g>
    </g>
    <g id="ytick_3">
     <g id="line2d_11">
      <g>
       <use xlink:href="#mecf96a517b" x="46.965625" y="151.402924" style="stroke: #000000; stroke-width: 0.8"/>
      </g>
     </g>
     <g id="text_12">
      <!-- 200 -->
      <g transform="translate(20.878125 155.202143) scale(0.1 -0.1)">
       <use xlink:href="#DejaVuSans-32"/>
       <use xlink:href="#DejaVuSans-30" transform="translate(63.623047 0)"/>
       <use xlink:href="#DejaVuSans-30" transform="translate(127.246094 0)"/>
      </g>
     </g>
    </g>
    <g id="ytick_4">
     <g id="line2d_12">
      <g>
       <use xlink:href="#mecf96a517b" x="46.965625" y="117.664386" style="stroke: #000000; stroke-width: 0.8"/>
      </g>
     </g>
     <g id="text_13">
      <!-- 300 -->
      <g transform="translate(20.878125 121.463605) scale(0.1 -0.1)">
       <defs>
        <path id="DejaVuSans-33" d="M 2597 2516 
Q 3050 2419 3304 2112 
Q 3559 1806 3559 1356 
Q 3559 666 3084 287 
Q 2609 -91 1734 -91 
Q 1441 -91 1130 -33 
Q 819 25 488 141 
L 488 750 
Q 750 597 1062 519 
Q 1375 441 1716 441 
Q 2309 441 2620 675 
Q 2931 909 2931 1356 
Q 2931 1769 2642 2001 
Q 2353 2234 1838 2234 
L 1294 2234 
L 1294 2753 
L 1863 2753 
Q 2328 2753 2575 2939 
Q 2822 3125 2822 3475 
Q 2822 3834 2567 4026 
Q 2313 4219 1838 4219 
Q 1578 4219 1281 4162 
Q 984 4106 628 3988 
L 628 4550 
Q 988 4650 1302 4700 
Q 1616 4750 1894 4750 
Q 2613 4750 3031 4423 
Q 3450 4097 3450 3541 
Q 3450 3153 3228 2886 
Q 3006 2619 2597 2516 
z
" transform="scale(0.015625)"/>
       </defs>
       <use xlink:href="#DejaVuSans-33"/>
       <use xlink:href="#DejaVuSans-30" transform="translate(63.623047 0)"/>
       <use xlink:href="#DejaVuSans-30" transform="translate(127.246094 0)"/>
      </g>
     </g>
    </g>
    <g id="ytick_5">
     <g id="line2d_13">
      <g>
       <use xlink:href="#mecf96a517b" x="46.965625" y="83.925848" style="stroke: #000000; stroke-width: 0.8"/>
      </g>
     </g>
     <g id="text_14">
      <!-- 400 -->
      <g transform="translate(20.878125 87.725067) scale(0.1 -0.1)">
       <defs>
        <path id="DejaVuSans-34" d="M 2419 4116 
L 825 1625 
L 2419 1625 
L 2419 4116 
z
M 2253 4666 
L 3047 4666 
L 3047 1625 
L 3713 1625 
L 3713 1100 
L 3047 1100 
L 3047 0 
L 2419 0 
L 2419 1100 
L 313 1100 
L 313 1709 
L 2253 4666 
z
" transform="scale(0.015625)"/>
       </defs>
       <use xlink:href="#DejaVuSans-34"/>
       <use xlink:href="#DejaVuSans-30" transform="translate(63.623047 0)"/>
       <use xlink:href="#DejaVuSans-30" transform="translate(127.246094 0)"/>
      </g>
     </g>
    </g>
    <g id="ytick_6">
     <g id="line2d_14">
      <g>
       <use xlink:href="#mecf96a517b" x="46.965625" y="50.18731" style="stroke: #000000; stroke-width: 0.8"/>
      </g>
     </g>
     <g id="text_15">
      <!-- 500 -->
      <g transform="translate(20.878125 53.986529) scale(0.1 -0.1)">
       <use xlink:href="#DejaVuSans-35"/>
       <use xlink:href="#DejaVuSans-30" transform="translate(63.623047 0)"/>
       <use xlink:href="#DejaVuSans-30" transform="translate(127.246094 0)"/>
      </g>
     </g>
    </g>
    <g id="ytick_7">
     <g id="line2d_15">
      <g>
       <use xlink:href="#mecf96a517b" x="46.965625" y="16.448772" style="stroke: #000000; stroke-width: 0.8"/>
      </g>
     </g>
     <g id="text_16">
      <!-- 600 -->
      <g transform="translate(20.878125 20.247991) scale(0.1 -0.1)">
       <use xlink:href="#DejaVuSans-36"/>
       <use xlink:href="#DejaVuSans-30" transform="translate(63.623047 0)"/>
       <use xlink:href="#DejaVuSans-30" transform="translate(127.246094 0)"/>
      </g>
     </g>
    </g>
    <g id="text_17">
     <!-- [counts] -->
     <g transform="translate(14.798438 138.6925) rotate(-90) scale(0.1 -0.1)">
      <defs>
       <path id="DejaVuSans-63" d="M 3122 3366 
L 3122 2828 
Q 2878 2963 2633 3030 
Q 2388 3097 2138 3097 
Q 1578 3097 1268 2742 
Q 959 2388 959 1747 
Q 959 1106 1268 751 
Q 1578 397 2138 397 
Q 2388 397 2633 464 
Q 2878 531 3122 666 
L 3122 134 
Q 2881 22 2623 -34 
Q 2366 -91 2075 -91 
Q 1284 -91 818 406 
Q 353 903 353 1747 
Q 353 2603 823 3093 
Q 1294 3584 2113 3584 
Q 2378 3584 2631 3529 
Q 2884 3475 3122 3366 
z
" transform="scale(0.015625)"/>
       <path id="DejaVuSans-6f" d="M 1959 3097 
Q 1497 3097 1228 2736 
Q 959 2375 959 1747 
Q 959 1119 1226 758 
Q 1494 397 1959 397 
Q 2419 397 2687 759 
Q 2956 1122 2956 1747 
Q 2956 2369 2687 2733 
Q 2419 3097 1959 3097 
z
M 1959 3584 
Q 2709 3584 3137 3096 
Q 3566 2609 3566 1747 
Q 3566 888 3137 398 
Q 2709 -91 1959 -91 
Q 1206 -91 779 398 
Q 353 888 353 1747 
Q 353 2609 779 3096 
Q 1206 3584 1959 3584 
z
" transform="scale(0.015625)"/>
       <path id="DejaVuSans-75" d="M 544 1381 
L 544 3500 
L 1119 3500 
L 1119 1403 
Q 1119 906 1312 657 
Q 1506 409 1894 409 
Q 2359 409 2629 706 
Q 2900 1003 2900 1516 
L 2900 3500 
L 3475 3500 
L 3475 0 
L 2900 0 
L 2900 538 
Q 2691 219 2414 64 
Q 2138 -91 1772 -91 
Q 1169 -91 856 284 
Q 544 659 544 1381 
z
M 1991 3584 
L 1991 3584 
z
" transform="scale(0.015625)"/>
       <path id="DejaVuSans-73" d="M 2834 3397 
L 2834 2853 
Q 2591 2978 2328 3040 
Q 2066 3103 1784 3103 
Q 1356 3103 1142 2972 
Q 928 2841 928 2578 
Q 928 2378 1081 2264 
Q 1234 2150 1697 2047 
L 1894 2003 
Q 2506 1872 2764 1633 
Q 3022 1394 3022 966 
Q 3022 478 2636 193 
Q 2250 -91 1575 -91 
Q 1294 -91 989 -36 
Q 684 19 347 128 
L 347 722 
Q 666 556 975 473 
Q 1284 391 1588 391 
Q 1994 391 2212 530 
Q 2431 669 2431 922 
Q 2431 1156 2273 1281 
Q 2116 1406 1581 1522 
L 1381 1569 
Q 847 1681 609 1914 
Q 372 2147 372 2553 
Q 372 3047 722 3315 
Q 1072 3584 1716 3584 
Q 2034 3584 2315 3537 
Q 2597 3491 2834 3397 
z
" transform="scale(0.015625)"/>
      </defs>
      <use xlink:href="#DejaVuSans-5b"/>
      <use xlink:href="#DejaVuSans-63" transform="translate(39.013672 0)"/>
      <use xlink:href="#DejaVuSans-6f" transform="translate(93.994141 0)"/>
      <use xlink:href="#DejaVuSans-75" transform="translate(155.175781 0)"/>
      <use xlink:href="#DejaVuSans-6e" transform="translate(218.554688 0)"/>
      <use xlink:href="#DejaVuSans-74" transform="translate(281.933594 0)"/>
      <use xlink:href="#DejaVuSans-73" transform="translate(321.142578 0)"/>
      <use xlink:href="#DejaVuSans-5d" transform="translate(373.242188 0)"/>
     </g>
    </g>
   </g>
   <g id="line2d_16">
    <path d="M 62.183807 216.111547 
L 63.705625 216.111547 
L 63.705625 199.89559 
L 65.227443 199.89559 
L 65.227443 191.819476 
L 66.749261 191.819476 
L 66.749261 165.262481 
L 68.27108 165.262481 
L 68.27108 142.065373 
L 69.792898 142.065373 
L 69.792898 126.309094 
L 71.314716 126.309094 
L 71.314716 102.787265 
L 72.836534 102.787265 
L 72.836534 92.683803 
L 74.358352 92.683803 
L 74.358352 61.979746 
L 75.88017 61.979746 
L 75.88017 47.939066 
L 77.401989 47.939066 
L 77.401989 31.646581 
L 78.923807 31.646581 
L 78.923807 33.996425 
L 80.445625 33.996425 
L 80.445625 37.315786 
L 81.967443 37.315786 
L 81.967443 31.967855 
L 83.489261 31.967855 
L 83.489261 56.242305 
L 85.01108 56.242305 
L 85.01108 33.776676 
L 86.532898 33.776676 
L 86.532898 26.877473 
L 88.054716 26.877473 
L 88.054716 32.011908 
L 89.576534 32.011908 
L 89.576534 47.20982 
L 91.098352 47.20982 
L 91.098352 47.632614 
L 92.62017 47.632614 
L 92.62017 34.780921 
L 94.141989 34.780921 
L 94.141989 38.242141 
L 95.663807 38.242141 
L 95.663807 53.511956 
L 97.185625 53.511956 
L 97.185625 43.060419 
L 98.707443 43.060419 
L 98.707443 53.491967 
L 100.229261 53.491967 
L 100.229261 43.558058 
L 101.75108 43.558058 
L 101.75108 61.627848 
L 103.272898 61.627848 
L 103.272898 48.413088 
L 104.794716 48.413088 
L 104.794716 51.712634 
L 106.316534 51.712634 
L 106.316534 45.819488 
L 107.838352 45.819488 
L 107.838352 47.988313 
L 109.36017 47.988313 
L 109.36017 53.178261 
L 110.881989 53.178261 
L 110.881989 43.650163 
L 112.403807 43.650163 
L 112.403807 40.86687 
L 113.925625 40.86687 
L 113.925625 69.380103 
L 115.447443 69.380103 
L 115.447443 52.086549 
L 116.969261 52.086549 
L 116.969261 73.131584 
L 118.49108 73.131584 
L 118.49108 57.78655 
L 120.012898 57.78655 
L 120.012898 64.232308 
L 121.534716 64.232308 
L 121.534716 52.631649 
L 123.056534 52.631649 
L 123.056534 60.906103 
L 124.578352 60.906103 
L 124.578352 48.353551 
L 126.10017 48.353551 
L 126.10017 56.435237 
L 127.621989 56.435237 
L 127.621989 57.91522 
L 129.143807 57.91522 
L 129.143807 50.15189 
L 130.665625 50.15189 
L 130.665625 75.224766 
L 132.187443 75.224766 
L 132.187443 62.537391 
L 133.709261 62.537391 
L 133.709261 74.475663 
L 135.23108 74.475663 
L 135.23108 61.566028 
L 136.752898 61.566028 
L 136.752898 68.538325 
L 138.274716 68.538325 
L 138.274716 53.227613 
L 139.796534 53.227613 
L 139.796534 55.203451 
L 141.318352 55.203451 
L 141.318352 66.891599 
L 142.84017 66.891599 
L 142.84017 67.99885 
L 144.361989 67.99885 
L 144.361989 85.888173 
L 145.883807 85.888173 
L 145.883807 69.097039 
L 147.405625 69.097039 
L 147.405625 75.474389 
L 148.927443 75.474389 
L 148.927443 63.995915 
L 150.449261 63.995915 
L 150.449261 78.470053 
L 151.97108 78.470053 
L 151.97108 66.213938 
L 153.492898 66.213938 
L 153.492898 71.023457 
L 155.014716 71.023457 
L 155.014716 77.751063 
L 156.536534 77.751063 
L 156.536534 65.250092 
L 158.058352 65.250092 
L 158.058352 51.086098 
L 159.58017 51.086098 
L 159.58017 61.204768 
L 161.101989 61.204768 
L 161.101989 73.387753 
L 162.623807 73.387753 
L 162.623807 65.039583 
L 164.145625 65.039583 
L 164.145625 68.245115 
L 165.667443 68.245115 
L 165.667443 71.579902 
L 167.189261 71.579902 
L 167.189261 78.40358 
L 168.71108 78.40358 
L 168.71108 86.521425 
L 170.232898 86.521425 
L 170.232898 78.347187 
L 171.754716 78.347187 
L 171.754716 66.77928 
L 173.276534 66.77928 
L 173.276534 66.534992 
L 174.798352 66.534992 
L 174.798352 82.744204 
L 176.32017 82.744204 
L 176.32017 74.018178 
L 177.841989 74.018178 
L 177.841989 68.359781 
L 179.363807 68.359781 
L 179.363807 76.852953 
L 180.885625 76.852953 
L 180.885625 79.898441 
L 182.407443 79.898441 
L 182.407443 70.663505 
L 183.929261 70.663505 
L 183.929261 80.357117 
L 185.45108 80.357117 
L 185.45108 73.435311 
L 186.972898 73.435311 
L 186.972898 78.274563 
L 188.494716 78.274563 
L 188.494716 78.913077 
L 190.016534 78.913077 
L 190.016534 73.553914 
L 191.538352 73.553914 
L 191.538352 81.961258 
L 193.06017 81.961258 
L 193.06017 77.797706 
L 194.581989 77.797706 
L 194.581989 82.799029 
L 196.103807 82.799029 
L 196.103807 87.870143 
L 197.625625 87.870143 
L 197.625625 84.273087 
L 199.147443 84.273087 
L 199.147443 79.772651 
L 200.669261 79.772651 
L 200.669261 74.636624 
L 202.19108 74.636624 
L 202.19108 80.654485 
L 203.712898 80.654485 
L 203.712898 83.761028 
L 205.234716 83.761028 
L 205.234716 92.182601 
L 206.756534 92.182601 
L 206.756534 88.308052 
L 208.278352 88.308052 
L 208.278352 90.026153 
L 209.80017 90.026153 
L 209.80017 86.865469 
L 211.321989 86.865469 
L 211.321989 89.942158 
L 212.843807 89.942158 
L 212.843807 90.442115 
L 214.365625 90.442115 
L 214.365625 75.151204 
L 215.887443 75.151204 
L 215.887443 87.454859 
L 217.409261 87.454859 
L 217.409261 82.010874 
L 218.93108 82.010874 
L 218.93108 89.162826 
L 220.452898 89.162826 
L 220.452898 90.818487 
L 221.974716 90.818487 
L 221.974716 96.197398 
L 223.496534 96.197398 
L 223.496534 86.726201 
L 225.018352 86.726201 
L 225.018352 93.056081 
L 226.54017 93.056081 
L 226.54017 97.013625 
L 228.061989 97.013625 
L 228.061989 105.343668 
L 229.583807 105.343668 
L 229.583807 98.153074 
L 231.105625 98.153074 
L 231.105625 94.807808 
L 232.627443 94.807808 
L 232.627443 100.470926 
L 234.149261 100.470926 
L 234.149261 92.764472 
L 235.67108 92.764472 
L 235.67108 97.005214 
L 237.192898 97.005214 
L 237.192898 102.097574 
L 238.714716 102.097574 
L 238.714716 104.259786 
L 240.236534 104.259786 
L 240.236534 97.173332 
L 241.758352 97.173332 
L 241.758352 98.27982 
L 243.28017 98.27982 
L 243.28017 96.964175 
L 244.801989 96.964175 
L 244.801989 108.028282 
L 246.323807 108.028282 
L 246.323807 96.418437 
L 247.845625 96.418437 
L 247.845625 99.399465 
L 249.367443 99.399465 
L 249.367443 98.653946 
L 252.41108 98.551095 
L 252.41108 83.640468 
L 253.932898 83.640468 
L 253.932898 98.818003 
L 255.454716 98.818003 
L 255.454716 108.121603 
L 256.976534 108.121603 
L 256.976534 106.472863 
L 258.498352 106.472863 
L 258.498352 103.318198 
L 260.02017 103.318198 
L 260.02017 106.532475 
L 261.541989 106.532475 
L 261.541989 105.003954 
L 263.063807 105.003954 
L 263.063807 99.794852 
L 264.585625 99.794852 
L 264.585625 98.184527 
L 266.107443 98.184527 
L 266.107443 103.490252 
L 267.629261 103.490252 
L 267.629261 99.218574 
L 269.15108 99.218574 
L 269.15108 98.159144 
L 270.672898 98.159144 
L 270.672898 96.882405 
L 272.194716 96.882405 
L 272.194716 100.697899 
L 273.716534 100.697899 
L 273.716534 101.650844 
L 275.238352 101.650844 
L 275.238352 99.639872 
L 276.76017 99.639872 
L 276.76017 110.732121 
L 278.281989 110.732121 
L 278.281989 117.489362 
L 279.803807 117.489362 
L 279.803807 114.220787 
L 281.325625 114.220787 
L 281.325625 112.942365 
L 282.847443 112.942365 
L 282.847443 107.177969 
L 284.369261 107.177969 
L 284.369261 117.438994 
L 285.89108 117.438994 
L 285.89108 111.613715 
L 287.412898 111.613715 
L 287.412898 118.765219 
L 290.456534 118.818406 
L 290.456534 114.931236 
L 291.978352 114.931236 
L 291.978352 112.770121 
L 293.50017 112.770121 
L 293.50017 109.233273 
L 295.021989 109.233273 
L 295.021989 103.478991 
L 296.543807 103.478991 
L 296.543807 109.036618 
L 298.065625 109.036618 
L 298.065625 118.521767 
L 299.587443 118.521767 
L 299.587443 115.87279 
L 301.109261 115.87279 
L 301.109261 117.100567 
L 302.63108 117.100567 
L 302.63108 114.612682 
L 304.152898 114.612682 
L 304.152898 115.657928 
L 305.674716 115.657928 
L 305.674716 120.462651 
L 307.196534 120.462651 
L 307.196534 115.043941 
L 308.718352 115.043941 
L 308.718352 123.752949 
L 310.24017 123.752949 
L 310.24017 113.18135 
L 311.761989 113.18135 
L 311.761989 127.673061 
L 313.283807 127.673061 
L 313.283807 110.831881 
L 314.805625 110.831881 
L 314.805625 124.247114 
L 316.327443 124.247114 
L 316.327443 117.978895 
L 317.849261 117.978895 
L 317.849261 113.296552 
L 319.37108 113.296552 
L 319.37108 113.046767 
L 320.892898 113.046767 
L 320.892898 122.195608 
L 322.414716 122.195608 
L 322.414716 117.558408 
L 323.936534 117.558408 
L 323.936534 123.41372 
L 325.458352 123.41372 
L 325.458352 108.50364 
L 326.98017 108.50364 
L 326.98017 119.515397 
L 328.501989 119.515397 
L 328.501989 131.27639 
L 330.023807 131.27639 
L 330.023807 139.879647 
L 331.545625 139.879647 
L 331.545625 151.360149 
L 333.067443 151.360149 
L 333.067443 161.307511 
L 334.589261 161.307511 
L 334.589261 174.863068 
L 336.11108 174.863068 
L 336.11108 184.882679 
L 337.632898 184.882679 
L 337.632898 197.226215 
L 339.154716 197.226215 
L 339.154716 206.839814 
L 340.676534 206.839814 
L 340.676534 215.398419 
L 342.198352 215.398419 
L 342.198352 216.914067 
L 343.72017 216.914067 
L 343.72017 218.256433 
L 345.241989 218.256433 
L 345.241989 218.7056 
L 348.285625 218.789166 
L 348.285625 218.8427 
L 366.547443 218.88 
L 366.547443 218.88 
" clip-path="url(#p6a5564eb22)" style="fill: none; stroke: #1f77b4; stroke-width: 1.5; stroke-linecap: square"/>
   </g>
   <g id="LineCollection_1">
    <path d="M 62.944716 216.887326 
L 62.944716 215.335768 
" clip-path="url(#p6a5564eb22)" style="fill: none; stroke: #1f77b4; stroke-width: 1.5"/>
    <path d="M 64.466534 202.482565 
L 64.466534 197.308615 
" clip-path="url(#p6a5564eb22)" style="fill: none; stroke: #1f77b4; stroke-width: 1.5"/>
    <path d="M 65.988352 195.066147 
L 65.988352 188.572806 
" clip-path="url(#p6a5564eb22)" style="fill: none; stroke: #1f77b4; stroke-width: 1.5"/>
    <path d="M 67.51017 170.237881 
L 67.51017 160.287081 
" clip-path="url(#p6a5564eb22)" style="fill: none; stroke: #1f77b4; stroke-width: 1.5"/>
    <path d="M 69.031989 148.018804 
L 69.031989 136.111942 
" clip-path="url(#p6a5564eb22)" style="fill: none; stroke: #1f77b4; stroke-width: 1.5"/>
    <path d="M 70.553807 133.024627 
L 70.553807 119.593562 
" clip-path="url(#p6a5564eb22)" style="fill: none; stroke: #1f77b4; stroke-width: 1.5"/>
    <path d="M 72.075625 110.274781 
L 72.075625 95.299748 
" clip-path="url(#p6a5564eb22)" style="fill: none; stroke: #1f77b4; stroke-width: 1.5"/>
    <path d="M 73.597443 100.698145 
L 73.597443 84.669461 
" clip-path="url(#p6a5564eb22)" style="fill: none; stroke: #1f77b4; stroke-width: 1.5"/>
    <path d="M 75.119261 70.83762 
L 75.119261 53.121872 
" clip-path="url(#p6a5564eb22)" style="fill: none; stroke: #1f77b4; stroke-width: 1.5"/>
    <path d="M 76.64108 56.947859 
L 76.64108 38.930273 
" clip-path="url(#p6a5564eb22)" style="fill: none; stroke: #1f77b4; stroke-width: 1.5"/>
    <path d="M 78.162898 41.362733 
L 78.162898 21.930429 
" clip-path="url(#p6a5564eb22)" style="fill: none; stroke: #1f77b4; stroke-width: 1.5"/>
    <path d="M 79.684716 43.540305 
L 79.684716 24.452544 
" clip-path="url(#p6a5564eb22)" style="fill: none; stroke: #1f77b4; stroke-width: 1.5"/>
    <path d="M 81.206534 46.642305 
L 81.206534 27.989268 
" clip-path="url(#p6a5564eb22)" style="fill: none; stroke: #1f77b4; stroke-width: 1.5"/>
    <path d="M 82.728352 41.407221 
L 82.728352 22.528488 
" clip-path="url(#p6a5564eb22)" style="fill: none; stroke: #1f77b4; stroke-width: 1.5"/>
    <path d="M 84.25017 64.873575 
L 84.25017 47.611034 
" clip-path="url(#p6a5564eb22)" style="fill: none; stroke: #1f77b4; stroke-width: 1.5"/>
    <path d="M 85.771989 43.017862 
L 85.771989 24.535489 
" clip-path="url(#p6a5564eb22)" style="fill: none; stroke: #1f77b4; stroke-width: 1.5"/>
    <path d="M 87.293807 36.474946 
L 87.293807 17.28 
" clip-path="url(#p6a5564eb22)" style="fill: none; stroke: #1f77b4; stroke-width: 1.5"/>
    <path d="M 88.815625 41.466418 
L 88.815625 22.557398 
" clip-path="url(#p6a5564eb22)" style="fill: none; stroke: #1f77b4; stroke-width: 1.5"/>
    <path d="M 90.337443 56.219636 
L 90.337443 38.200004 
" clip-path="url(#p6a5564eb22)" style="fill: none; stroke: #1f77b4; stroke-width: 1.5"/>
    <path d="M 91.859261 56.437354 
L 91.859261 38.827875 
" clip-path="url(#p6a5564eb22)" style="fill: none; stroke: #1f77b4; stroke-width: 1.5"/>
    <path d="M 93.38108 44.302253 
L 93.38108 25.259588 
" clip-path="url(#p6a5564eb22)" style="fill: none; stroke: #1f77b4; stroke-width: 1.5"/>
    <path d="M 94.902898 47.498858 
L 94.902898 28.985424 
" clip-path="url(#p6a5564eb22)" style="fill: none; stroke: #1f77b4; stroke-width: 1.5"/>
    <path d="M 96.424716 62.100428 
L 96.424716 44.923484 
" clip-path="url(#p6a5564eb22)" style="fill: none; stroke: #1f77b4; stroke-width: 1.5"/>
    <path d="M 97.946534 52.200285 
L 97.946534 33.920552 
" clip-path="url(#p6a5564eb22)" style="fill: none; stroke: #1f77b4; stroke-width: 1.5"/>
    <path d="M 99.468352 62.203077 
L 99.468352 44.780858 
" clip-path="url(#p6a5564eb22)" style="fill: none; stroke: #1f77b4; stroke-width: 1.5"/>
    <path d="M 100.99017 52.504085 
L 100.99017 34.612031 
" clip-path="url(#p6a5564eb22)" style="fill: none; stroke: #1f77b4; stroke-width: 1.5"/>
    <path d="M 102.511989 70.085492 
L 102.511989 53.170204 
" clip-path="url(#p6a5564eb22)" style="fill: none; stroke: #1f77b4; stroke-width: 1.5"/>
    <path d="M 104.033807 57.235047 
L 104.033807 39.591128 
" clip-path="url(#p6a5564eb22)" style="fill: none; stroke: #1f77b4; stroke-width: 1.5"/>
    <path d="M 105.555625 60.353916 
L 105.555625 43.071352 
" clip-path="url(#p6a5564eb22)" style="fill: none; stroke: #1f77b4; stroke-width: 1.5"/>
    <path d="M 107.077443 54.50852 
L 107.077443 37.130457 
" clip-path="url(#p6a5564eb22)" style="fill: none; stroke: #1f77b4; stroke-width: 1.5"/>
    <path d="M 108.599261 56.884211 
L 108.599261 39.092415 
" clip-path="url(#p6a5564eb22)" style="fill: none; stroke: #1f77b4; stroke-width: 1.5"/>
    <path d="M 110.12108 61.662977 
L 110.12108 44.693545 
" clip-path="url(#p6a5564eb22)" style="fill: none; stroke: #1f77b4; stroke-width: 1.5"/>
    <path d="M 111.642898 52.582425 
L 111.642898 34.717901 
" clip-path="url(#p6a5564eb22)" style="fill: none; stroke: #1f77b4; stroke-width: 1.5"/>
    <path d="M 113.164716 49.991392 
L 113.164716 31.742349 
" clip-path="url(#p6a5564eb22)" style="fill: none; stroke: #1f77b4; stroke-width: 1.5"/>
    <path d="M 114.686534 77.579389 
L 114.686534 61.180817 
" clip-path="url(#p6a5564eb22)" style="fill: none; stroke: #1f77b4; stroke-width: 1.5"/>
    <path d="M 116.208352 60.52541 
L 116.208352 43.647688 
" clip-path="url(#p6a5564eb22)" style="fill: none; stroke: #1f77b4; stroke-width: 1.5"/>
    <path d="M 117.73017 80.978899 
L 117.73017 65.284269 
" clip-path="url(#p6a5564eb22)" style="fill: none; stroke: #1f77b4; stroke-width: 1.5"/>
    <path d="M 119.251989 66.204041 
L 119.251989 49.369058 
" clip-path="url(#p6a5564eb22)" style="fill: none; stroke: #1f77b4; stroke-width: 1.5"/>
    <path d="M 120.773807 72.417275 
L 120.773807 56.047341 
" clip-path="url(#p6a5564eb22)" style="fill: none; stroke: #1f77b4; stroke-width: 1.5"/>
    <path d="M 122.295625 61.16663 
L 122.295625 44.096667 
" clip-path="url(#p6a5564eb22)" style="fill: none; stroke: #1f77b4; stroke-width: 1.5"/>
    <path d="M 123.817443 69.052579 
L 123.817443 52.759627 
" clip-path="url(#p6a5564eb22)" style="fill: none; stroke: #1f77b4; stroke-width: 1.5"/>
    <path d="M 125.339261 57.061728 
L 125.339261 39.645375 
" clip-path="url(#p6a5564eb22)" style="fill: none; stroke: #1f77b4; stroke-width: 1.5"/>
    <path d="M 126.86108 64.839709 
L 126.86108 48.030766 
" clip-path="url(#p6a5564eb22)" style="fill: none; stroke: #1f77b4; stroke-width: 1.5"/>
    <path d="M 128.382898 66.089913 
L 128.382898 49.740527 
" clip-path="url(#p6a5564eb22)" style="fill: none; stroke: #1f77b4; stroke-width: 1.5"/>
    <path d="M 129.904716 58.669816 
L 129.904716 41.633964 
" clip-path="url(#p6a5564eb22)" style="fill: none; stroke: #1f77b4; stroke-width: 1.5"/>
    <path d="M 131.426534 82.931919 
L 131.426534 67.517613 
" clip-path="url(#p6a5564eb22)" style="fill: none; stroke: #1f77b4; stroke-width: 1.5"/>
    <path d="M 132.948352 70.542405 
L 132.948352 54.532377 
" clip-path="url(#p6a5564eb22)" style="fill: none; stroke: #1f77b4; stroke-width: 1.5"/>
    <path d="M 134.47017 82.182708 
L 134.47017 66.768617 
" clip-path="url(#p6a5564eb22)" style="fill: none; stroke: #1f77b4; stroke-width: 1.5"/>
    <path d="M 135.991989 69.580422 
L 135.991989 53.551634 
" clip-path="url(#p6a5564eb22)" style="fill: none; stroke: #1f77b4; stroke-width: 1.5"/>
    <path d="M 137.513807 76.384643 
L 137.513807 60.692008 
" clip-path="url(#p6a5564eb22)" style="fill: none; stroke: #1f77b4; stroke-width: 1.5"/>
    <path d="M 139.035625 61.702267 
L 139.035625 44.752959 
" clip-path="url(#p6a5564eb22)" style="fill: none; stroke: #1f77b4; stroke-width: 1.5"/>
    <path d="M 140.557443 63.440583 
L 140.557443 46.966318 
" clip-path="url(#p6a5564eb22)" style="fill: none; stroke: #1f77b4; stroke-width: 1.5"/>
    <path d="M 142.079261 75.017437 
L 142.079261 58.765762 
" clip-path="url(#p6a5564eb22)" style="fill: none; stroke: #1f77b4; stroke-width: 1.5"/>
    <path d="M 143.60108 75.815229 
L 143.60108 60.182472 
" clip-path="url(#p6a5564eb22)" style="fill: none; stroke: #1f77b4; stroke-width: 1.5"/>
    <path d="M 145.122898 93.317979 
L 145.122898 78.458368 
" clip-path="url(#p6a5564eb22)" style="fill: none; stroke: #1f77b4; stroke-width: 1.5"/>
    <path d="M 146.644716 76.786341 
L 146.644716 61.407738 
" clip-path="url(#p6a5564eb22)" style="fill: none; stroke: #1f77b4; stroke-width: 1.5"/>
    <path d="M 148.166534 83.126574 
L 148.166534 67.822205 
" clip-path="url(#p6a5564eb22)" style="fill: none; stroke: #1f77b4; stroke-width: 1.5"/>
    <path d="M 149.688352 72.032957 
L 149.688352 55.958873 
" clip-path="url(#p6a5564eb22)" style="fill: none; stroke: #1f77b4; stroke-width: 1.5"/>
    <path d="M 151.21017 85.856041 
L 151.21017 71.084066 
" clip-path="url(#p6a5564eb22)" style="fill: none; stroke: #1f77b4; stroke-width: 1.5"/>
    <path d="M 152.731989 74.186296 
L 152.731989 58.241581 
" clip-path="url(#p6a5564eb22)" style="fill: none; stroke: #1f77b4; stroke-width: 1.5"/>
    <path d="M 154.253807 78.726077 
L 154.253807 63.320837 
" clip-path="url(#p6a5564eb22)" style="fill: none; stroke: #1f77b4; stroke-width: 1.5"/>
    <path d="M 155.775625 85.361387 
L 155.775625 70.140739 
" clip-path="url(#p6a5564eb22)" style="fill: none; stroke: #1f77b4; stroke-width: 1.5"/>
    <path d="M 157.297443 73.126501 
L 157.297443 57.373683 
" clip-path="url(#p6a5564eb22)" style="fill: none; stroke: #1f77b4; stroke-width: 1.5"/>
    <path d="M 158.819261 59.319497 
L 158.819261 42.852699 
" clip-path="url(#p6a5564eb22)" style="fill: none; stroke: #1f77b4; stroke-width: 1.5"/>
    <path d="M 160.34108 69.258206 
L 160.34108 53.151329 
" clip-path="url(#p6a5564eb22)" style="fill: none; stroke: #1f77b4; stroke-width: 1.5"/>
    <path d="M 161.862898 80.761873 
L 161.862898 66.013634 
" clip-path="url(#p6a5564eb22)" style="fill: none; stroke: #1f77b4; stroke-width: 1.5"/>
    <path d="M 163.384716 73.004165 
L 163.384716 57.075002 
" clip-path="url(#p6a5564eb22)" style="fill: none; stroke: #1f77b4; stroke-width: 1.5"/>
    <path d="M 164.906534 75.87908 
L 164.906534 60.611151 
" clip-path="url(#p6a5564eb22)" style="fill: none; stroke: #1f77b4; stroke-width: 1.5"/>
    <path d="M 166.428352 79.334149 
L 166.428352 63.825655 
" clip-path="url(#p6a5564eb22)" style="fill: none; stroke: #1f77b4; stroke-width: 1.5"/>
    <path d="M 167.95017 85.836851 
L 167.95017 70.970309 
" clip-path="url(#p6a5564eb22)" style="fill: none; stroke: #1f77b4; stroke-width: 1.5"/>
    <path d="M 169.471989 93.737434 
L 169.471989 79.305417 
" clip-path="url(#p6a5564eb22)" style="fill: none; stroke: #1f77b4; stroke-width: 1.5"/>
    <path d="M 170.993807 85.677188 
L 170.993807 71.017186 
" clip-path="url(#p6a5564eb22)" style="fill: none; stroke: #1f77b4; stroke-width: 1.5"/>
    <path d="M 172.515625 74.529608 
L 172.515625 59.028952 
" clip-path="url(#p6a5564eb22)" style="fill: none; stroke: #1f77b4; stroke-width: 1.5"/>
    <path d="M 174.037443 74.198935 
L 174.037443 58.87105 
" clip-path="url(#p6a5564eb22)" style="fill: none; stroke: #1f77b4; stroke-width: 1.5"/>
    <path d="M 175.559261 89.978747 
L 175.559261 75.50966 
" clip-path="url(#p6a5564eb22)" style="fill: none; stroke: #1f77b4; stroke-width: 1.5"/>
    <path d="M 177.08108 81.707358 
L 177.08108 66.328998 
" clip-path="url(#p6a5564eb22)" style="fill: none; stroke: #1f77b4; stroke-width: 1.5"/>
    <path d="M 178.602898 76.107012 
L 178.602898 60.61255 
" clip-path="url(#p6a5564eb22)" style="fill: none; stroke: #1f77b4; stroke-width: 1.5"/>
    <path d="M 180.124716 84.266285 
L 180.124716 69.439622 
" clip-path="url(#p6a5564eb22)" style="fill: none; stroke: #1f77b4; stroke-width: 1.5"/>
    <path d="M 181.646534 87.13475 
L 181.646534 72.662131 
" clip-path="url(#p6a5564eb22)" style="fill: none; stroke: #1f77b4; stroke-width: 1.5"/>
    <path d="M 183.168352 78.290009 
L 183.168352 63.037001 
" clip-path="url(#p6a5564eb22)" style="fill: none; stroke: #1f77b4; stroke-width: 1.5"/>
    <path d="M 184.69017 87.563206 
L 184.69017 73.151028 
" clip-path="url(#p6a5564eb22)" style="fill: none; stroke: #1f77b4; stroke-width: 1.5"/>
    <path d="M 186.211989 80.942895 
L 186.211989 65.927726 
" clip-path="url(#p6a5564eb22)" style="fill: none; stroke: #1f77b4; stroke-width: 1.5"/>
    <path d="M 187.733807 85.600757 
L 187.733807 70.948369 
" clip-path="url(#p6a5564eb22)" style="fill: none; stroke: #1f77b4; stroke-width: 1.5"/>
    <path d="M 189.255625 86.271433 
L 189.255625 71.554722 
" clip-path="url(#p6a5564eb22)" style="fill: none; stroke: #1f77b4; stroke-width: 1.5"/>
    <path d="M 190.777443 80.882342 
L 190.777443 66.225485 
" clip-path="url(#p6a5564eb22)" style="fill: none; stroke: #1f77b4; stroke-width: 1.5"/>
    <path d="M 192.299261 89.036378 
L 192.299261 74.886138 
" clip-path="url(#p6a5564eb22)" style="fill: none; stroke: #1f77b4; stroke-width: 1.5"/>
    <path d="M 193.82108 85.17047 
L 193.82108 70.424943 
" clip-path="url(#p6a5564eb22)" style="fill: none; stroke: #1f77b4; stroke-width: 1.5"/>
    <path d="M 195.342898 90.018095 
L 195.342898 75.579962 
" clip-path="url(#p6a5564eb22)" style="fill: none; stroke: #1f77b4; stroke-width: 1.5"/>
    <path d="M 196.864716 94.773825 
L 196.864716 80.966461 
" clip-path="url(#p6a5564eb22)" style="fill: none; stroke: #1f77b4; stroke-width: 1.5"/>
    <path d="M 198.386534 91.424528 
L 198.386534 77.121646 
" clip-path="url(#p6a5564eb22)" style="fill: none; stroke: #1f77b4; stroke-width: 1.5"/>
    <path d="M 199.908352 86.961855 
L 199.908352 72.583448 
" clip-path="url(#p6a5564eb22)" style="fill: none; stroke: #1f77b4; stroke-width: 1.5"/>
    <path d="M 201.43017 82.119875 
L 201.43017 67.153373 
" clip-path="url(#p6a5564eb22)" style="fill: none; stroke: #1f77b4; stroke-width: 1.5"/>
    <path d="M 202.951989 87.682802 
L 202.951989 73.626169 
" clip-path="url(#p6a5564eb22)" style="fill: none; stroke: #1f77b4; stroke-width: 1.5"/>
    <path d="M 204.473807 90.737692 
L 204.473807 76.784364 
" clip-path="url(#p6a5564eb22)" style="fill: none; stroke: #1f77b4; stroke-width: 1.5"/>
    <path d="M 205.995625 99.009388 
L 205.995625 85.355814 
" clip-path="url(#p6a5564eb22)" style="fill: none; stroke: #1f77b4; stroke-width: 1.5"/>
    <path d="M 207.517443 95.209253 
L 207.517443 81.406851 
" clip-path="url(#p6a5564eb22)" style="fill: none; stroke: #1f77b4; stroke-width: 1.5"/>
    <path d="M 209.039261 96.836405 
L 209.039261 83.215901 
" clip-path="url(#p6a5564eb22)" style="fill: none; stroke: #1f77b4; stroke-width: 1.5"/>
    <path d="M 210.56108 93.798213 
L 210.56108 79.932724 
" clip-path="url(#p6a5564eb22)" style="fill: none; stroke: #1f77b4; stroke-width: 1.5"/>
    <path d="M 212.082898 96.839892 
L 212.082898 83.044424 
" clip-path="url(#p6a5564eb22)" style="fill: none; stroke: #1f77b4; stroke-width: 1.5"/>
    <path d="M 213.604716 97.10748 
L 213.604716 83.77675 
" clip-path="url(#p6a5564eb22)" style="fill: none; stroke: #1f77b4; stroke-width: 1.5"/>
    <path d="M 215.126534 82.330157 
L 215.126534 67.972251 
" clip-path="url(#p6a5564eb22)" style="fill: none; stroke: #1f77b4; stroke-width: 1.5"/>
    <path d="M 216.648352 94.218397 
L 216.648352 80.691321 
" clip-path="url(#p6a5564eb22)" style="fill: none; stroke: #1f77b4; stroke-width: 1.5"/>
    <path d="M 218.17017 89.223215 
L 218.17017 74.798533 
" clip-path="url(#p6a5564eb22)" style="fill: none; stroke: #1f77b4; stroke-width: 1.5"/>
    <path d="M 219.691989 96.126881 
L 219.691989 82.19877 
" clip-path="url(#p6a5564eb22)" style="fill: none; stroke: #1f77b4; stroke-width: 1.5"/>
    <path d="M 221.213807 97.536356 
L 221.213807 84.100619 
" clip-path="url(#p6a5564eb22)" style="fill: none; stroke: #1f77b4; stroke-width: 1.5"/>
    <path d="M 222.735625 102.704435 
L 222.735625 89.690361 
" clip-path="url(#p6a5564eb22)" style="fill: none; stroke: #1f77b4; stroke-width: 1.5"/>
    <path d="M 224.257443 93.611223 
L 224.257443 79.841179 
" clip-path="url(#p6a5564eb22)" style="fill: none; stroke: #1f77b4; stroke-width: 1.5"/>
    <path d="M 225.779261 99.815473 
L 225.779261 86.296689 
" clip-path="url(#p6a5564eb22)" style="fill: none; stroke: #1f77b4; stroke-width: 1.5"/>
    <path d="M 227.30108 103.518779 
L 227.30108 90.50847 
" clip-path="url(#p6a5564eb22)" style="fill: none; stroke: #1f77b4; stroke-width: 1.5"/>
    <path d="M 228.822898 111.525188 
L 228.822898 99.162148 
" clip-path="url(#p6a5564eb22)" style="fill: none; stroke: #1f77b4; stroke-width: 1.5"/>
    <path d="M 230.344716 104.499324 
L 230.344716 91.806823 
" clip-path="url(#p6a5564eb22)" style="fill: none; stroke: #1f77b4; stroke-width: 1.5"/>
    <path d="M 231.866534 101.314211 
L 231.866534 88.301406 
" clip-path="url(#p6a5564eb22)" style="fill: none; stroke: #1f77b4; stroke-width: 1.5"/>
    <path d="M 233.388352 106.804979 
L 233.388352 94.136872 
" clip-path="url(#p6a5564eb22)" style="fill: none; stroke: #1f77b4; stroke-width: 1.5"/>
    <path d="M 234.91017 99.403756 
L 234.91017 86.125188 
" clip-path="url(#p6a5564eb22)" style="fill: none; stroke: #1f77b4; stroke-width: 1.5"/>
    <path d="M 236.431989 103.45854 
L 236.431989 90.551889 
" clip-path="url(#p6a5564eb22)" style="fill: none; stroke: #1f77b4; stroke-width: 1.5"/>
    <path d="M 237.953807 108.29459 
L 237.953807 95.900558 
" clip-path="url(#p6a5564eb22)" style="fill: none; stroke: #1f77b4; stroke-width: 1.5"/>
    <path d="M 239.475625 110.475333 
L 239.475625 98.044239 
" clip-path="url(#p6a5564eb22)" style="fill: none; stroke: #1f77b4; stroke-width: 1.5"/>
    <path d="M 240.997443 103.471671 
L 240.997443 90.874994 
" clip-path="url(#p6a5564eb22)" style="fill: none; stroke: #1f77b4; stroke-width: 1.5"/>
    <path d="M 242.519261 104.601653 
L 242.519261 91.957988 
" clip-path="url(#p6a5564eb22)" style="fill: none; stroke: #1f77b4; stroke-width: 1.5"/>
    <path d="M 244.04108 103.505698 
L 244.04108 90.422651 
" clip-path="url(#p6a5564eb22)" style="fill: none; stroke: #1f77b4; stroke-width: 1.5"/>
    <path d="M 245.562898 114.036142 
L 245.562898 102.020422 
" clip-path="url(#p6a5564eb22)" style="fill: none; stroke: #1f77b4; stroke-width: 1.5"/>
    <path d="M 247.084716 102.801251 
L 247.084716 90.035622 
" clip-path="url(#p6a5564eb22)" style="fill: none; stroke: #1f77b4; stroke-width: 1.5"/>
    <path d="M 248.606534 105.765944 
L 248.606534 93.032986 
" clip-path="url(#p6a5564eb22)" style="fill: none; stroke: #1f77b4; stroke-width: 1.5"/>
    <path d="M 250.128352 105.085562 
L 250.128352 92.22233 
" clip-path="url(#p6a5564eb22)" style="fill: none; stroke: #1f77b4; stroke-width: 1.5"/>
    <path d="M 251.65017 104.834675 
L 251.65017 92.267515 
" clip-path="url(#p6a5564eb22)" style="fill: none; stroke: #1f77b4; stroke-width: 1.5"/>
    <path d="M 253.171989 90.360576 
L 253.171989 76.92036 
" clip-path="url(#p6a5564eb22)" style="fill: none; stroke: #1f77b4; stroke-width: 1.5"/>
    <path d="M 254.693807 105.123905 
L 254.693807 92.512101 
" clip-path="url(#p6a5564eb22)" style="fill: none; stroke: #1f77b4; stroke-width: 1.5"/>
    <path d="M 256.215625 114.177777 
L 256.215625 102.06543 
" clip-path="url(#p6a5564eb22)" style="fill: none; stroke: #1f77b4; stroke-width: 1.5"/>
    <path d="M 257.737443 112.478643 
L 257.737443 100.467083 
" clip-path="url(#p6a5564eb22)" style="fill: none; stroke: #1f77b4; stroke-width: 1.5"/>
    <path d="M 259.259261 109.418233 
L 259.259261 97.218162 
" clip-path="url(#p6a5564eb22)" style="fill: none; stroke: #1f77b4; stroke-width: 1.5"/>
    <path d="M 260.78108 112.369041 
L 260.78108 100.695909 
" clip-path="url(#p6a5564eb22)" style="fill: none; stroke: #1f77b4; stroke-width: 1.5"/>
    <path d="M 262.302898 111.107475 
L 262.302898 98.900433 
" clip-path="url(#p6a5564eb22)" style="fill: none; stroke: #1f77b4; stroke-width: 1.5"/>
    <path d="M 263.824716 105.958618 
L 263.824716 93.631087 
" clip-path="url(#p6a5564eb22)" style="fill: none; stroke: #1f77b4; stroke-width: 1.5"/>
    <path d="M 265.346534 104.584549 
L 265.346534 91.784504 
" clip-path="url(#p6a5564eb22)" style="fill: none; stroke: #1f77b4; stroke-width: 1.5"/>
    <path d="M 266.868352 109.712302 
L 266.868352 97.268201 
" clip-path="url(#p6a5564eb22)" style="fill: none; stroke: #1f77b4; stroke-width: 1.5"/>
    <path d="M 268.39017 105.523314 
L 268.39017 92.913833 
" clip-path="url(#p6a5564eb22)" style="fill: none; stroke: #1f77b4; stroke-width: 1.5"/>
    <path d="M 269.911989 104.504365 
L 269.911989 91.813924 
" clip-path="url(#p6a5564eb22)" style="fill: none; stroke: #1f77b4; stroke-width: 1.5"/>
    <path d="M 271.433807 103.360582 
L 271.433807 90.404227 
" clip-path="url(#p6a5564eb22)" style="fill: none; stroke: #1f77b4; stroke-width: 1.5"/>
    <path d="M 272.955625 106.913121 
L 272.955625 94.482678 
" clip-path="url(#p6a5564eb22)" style="fill: none; stroke: #1f77b4; stroke-width: 1.5"/>
    <path d="M 274.477443 107.949988 
L 274.477443 95.351701 
" clip-path="url(#p6a5564eb22)" style="fill: none; stroke: #1f77b4; stroke-width: 1.5"/>
    <path d="M 275.999261 105.760683 
L 275.999261 93.519061 
" clip-path="url(#p6a5564eb22)" style="fill: none; stroke: #1f77b4; stroke-width: 1.5"/>
    <path d="M 277.52108 116.525802 
L 277.52108 104.938439 
" clip-path="url(#p6a5564eb22)" style="fill: none; stroke: #1f77b4; stroke-width: 1.5"/>
    <path d="M 279.042898 123.029562 
L 279.042898 111.949162 
" clip-path="url(#p6a5564eb22)" style="fill: none; stroke: #1f77b4; stroke-width: 1.5"/>
    <path d="M 280.564716 119.770025 
L 280.564716 108.671548 
" clip-path="url(#p6a5564eb22)" style="fill: none; stroke: #1f77b4; stroke-width: 1.5"/>
    <path d="M 282.086534 118.709385 
L 282.086534 107.175345 
" clip-path="url(#p6a5564eb22)" style="fill: none; stroke: #1f77b4; stroke-width: 1.5"/>
    <path d="M 283.608352 113.202923 
L 283.608352 101.153015 
" clip-path="url(#p6a5564eb22)" style="fill: none; stroke: #1f77b4; stroke-width: 1.5"/>
    <path d="M 285.13017 122.868596 
L 285.13017 112.009393 
" clip-path="url(#p6a5564eb22)" style="fill: none; stroke: #1f77b4; stroke-width: 1.5"/>
    <path d="M 286.651989 117.355528 
L 286.651989 105.871902 
" clip-path="url(#p6a5564eb22)" style="fill: none; stroke: #1f77b4; stroke-width: 1.5"/>
    <path d="M 288.173807 124.260162 
L 288.173807 113.270277 
" clip-path="url(#p6a5564eb22)" style="fill: none; stroke: #1f77b4; stroke-width: 1.5"/>
    <path d="M 289.695625 124.165246 
L 289.695625 113.471567 
" clip-path="url(#p6a5564eb22)" style="fill: none; stroke: #1f77b4; stroke-width: 1.5"/>
    <path d="M 291.217443 120.716416 
L 291.217443 109.146056 
" clip-path="url(#p6a5564eb22)" style="fill: none; stroke: #1f77b4; stroke-width: 1.5"/>
    <path d="M 292.739261 118.453579 
L 292.739261 107.086664 
" clip-path="url(#p6a5564eb22)" style="fill: none; stroke: #1f77b4; stroke-width: 1.5"/>
    <path d="M 294.26108 115.031901 
L 294.26108 103.434645 
" clip-path="url(#p6a5564eb22)" style="fill: none; stroke: #1f77b4; stroke-width: 1.5"/>
    <path d="M 295.782898 109.427821 
L 295.782898 97.530162 
" clip-path="url(#p6a5564eb22)" style="fill: none; stroke: #1f77b4; stroke-width: 1.5"/>
    <path d="M 297.304716 114.896001 
L 297.304716 103.177235 
" clip-path="url(#p6a5564eb22)" style="fill: none; stroke: #1f77b4; stroke-width: 1.5"/>
    <path d="M 298.826534 124.040818 
L 298.826534 113.002716 
" clip-path="url(#p6a5564eb22)" style="fill: none; stroke: #1f77b4; stroke-width: 1.5"/>
    <path d="M 300.348352 121.528766 
L 300.348352 110.216815 
" clip-path="url(#p6a5564eb22)" style="fill: none; stroke: #1f77b4; stroke-width: 1.5"/>
    <path d="M 301.87017 122.594458 
L 301.87017 111.606676 
" clip-path="url(#p6a5564eb22)" style="fill: none; stroke: #1f77b4; stroke-width: 1.5"/>
    <path d="M 303.391989 120.231097 
L 303.391989 108.994267 
" clip-path="url(#p6a5564eb22)" style="fill: none; stroke: #1f77b4; stroke-width: 1.5"/>
    <path d="M 304.913807 121.222017 
L 304.913807 110.093839 
" clip-path="url(#p6a5564eb22)" style="fill: none; stroke: #1f77b4; stroke-width: 1.5"/>
    <path d="M 306.435625 125.712301 
L 306.435625 115.213001 
" clip-path="url(#p6a5564eb22)" style="fill: none; stroke: #1f77b4; stroke-width: 1.5"/>
    <path d="M 307.957443 120.516071 
L 307.957443 109.571811 
" clip-path="url(#p6a5564eb22)" style="fill: none; stroke: #1f77b4; stroke-width: 1.5"/>
    <path d="M 309.479261 129.018936 
L 309.479261 118.486962 
" clip-path="url(#p6a5564eb22)" style="fill: none; stroke: #1f77b4; stroke-width: 1.5"/>
    <path d="M 311.00108 118.73447 
L 311.00108 107.62823 
" clip-path="url(#p6a5564eb22)" style="fill: none; stroke: #1f77b4; stroke-width: 1.5"/>
    <path d="M 312.522898 132.615236 
L 312.522898 122.730886 
" clip-path="url(#p6a5564eb22)" style="fill: none; stroke: #1f77b4; stroke-width: 1.5"/>
    <path d="M 314.044716 116.450977 
L 314.044716 105.212785 
" clip-path="url(#p6a5564eb22)" style="fill: none; stroke: #1f77b4; stroke-width: 1.5"/>
    <path d="M 315.566534 129.520296 
L 315.566534 118.973933 
" clip-path="url(#p6a5564eb22)" style="fill: none; stroke: #1f77b4; stroke-width: 1.5"/>
    <path d="M 317.088352 123.412407 
L 317.088352 112.545383 
" clip-path="url(#p6a5564eb22)" style="fill: none; stroke: #1f77b4; stroke-width: 1.5"/>
    <path d="M 318.61017 118.930673 
L 318.61017 107.662432 
" clip-path="url(#p6a5564eb22)" style="fill: none; stroke: #1f77b4; stroke-width: 1.5"/>
    <path d="M 320.131989 118.73352 
L 320.131989 107.360014 
" clip-path="url(#p6a5564eb22)" style="fill: none; stroke: #1f77b4; stroke-width: 1.5"/>
    <path d="M 321.653807 127.456494 
L 321.653807 116.934722 
" clip-path="url(#p6a5564eb22)" style="fill: none; stroke: #1f77b4; stroke-width: 1.5"/>
    <path d="M 323.175625 123.007555 
L 323.175625 112.109261 
" clip-path="url(#p6a5564eb22)" style="fill: none; stroke: #1f77b4; stroke-width: 1.5"/>
    <path d="M 324.697443 128.60062 
L 324.697443 118.226819 
" clip-path="url(#p6a5564eb22)" style="fill: none; stroke: #1f77b4; stroke-width: 1.5"/>
    <path d="M 326.219261 114.164477 
L 326.219261 102.842803 
" clip-path="url(#p6a5564eb22)" style="fill: none; stroke: #1f77b4; stroke-width: 1.5"/>
    <path d="M 327.74108 124.967575 
L 327.74108 114.06322 
" clip-path="url(#p6a5564eb22)" style="fill: none; stroke: #1f77b4; stroke-width: 1.5"/>
    <path d="M 329.262898 136.20564 
L 329.262898 126.34714 
" clip-path="url(#p6a5564eb22)" style="fill: none; stroke: #1f77b4; stroke-width: 1.5"/>
    <path d="M 330.784716 144.780524 
L 330.784716 134.978769 
" clip-path="url(#p6a5564eb22)" style="fill: none; stroke: #1f77b4; stroke-width: 1.5"/>
    <path d="M 332.306534 155.701853 
L 332.306534 147.018446 
" clip-path="url(#p6a5564eb22)" style="fill: none; stroke: #1f77b4; stroke-width: 1.5"/>
    <path d="M 333.828352 165.271689 
L 333.828352 157.343333 
" clip-path="url(#p6a5564eb22)" style="fill: none; stroke: #1f77b4; stroke-width: 1.5"/>
    <path d="M 335.35017 178.296109 
L 335.35017 171.430026 
" clip-path="url(#p6a5564eb22)" style="fill: none; stroke: #1f77b4; stroke-width: 1.5"/>
    <path d="M 336.871989 187.933895 
L 336.871989 181.831462 
" clip-path="url(#p6a5564eb22)" style="fill: none; stroke: #1f77b4; stroke-width: 1.5"/>
    <path d="M 338.393807 199.382939 
L 338.393807 195.069491 
" clip-path="url(#p6a5564eb22)" style="fill: none; stroke: #1f77b4; stroke-width: 1.5"/>
    <path d="M 339.915625 208.17844 
L 339.915625 205.501189 
" clip-path="url(#p6a5564eb22)" style="fill: none; stroke: #1f77b4; stroke-width: 1.5"/>
    <path d="M 341.437443 215.809757 
L 341.437443 214.987081 
" clip-path="url(#p6a5564eb22)" style="fill: none; stroke: #1f77b4; stroke-width: 1.5"/>
    <path d="M 342.959261 217.14474 
L 342.959261 216.683393 
" clip-path="url(#p6a5564eb22)" style="fill: none; stroke: #1f77b4; stroke-width: 1.5"/>
    <path d="M 344.48108 218.336344 
L 344.48108 218.176522 
" clip-path="url(#p6a5564eb22)" style="fill: none; stroke: #1f77b4; stroke-width: 1.5"/>
    <path d="M 346.002898 218.726776 
L 346.002898 218.684424 
" clip-path="url(#p6a5564eb22)" style="fill: none; stroke: #1f77b4; stroke-width: 1.5"/>
    <path d="M 347.524716 218.799512 
L 347.524716 218.778819 
" clip-path="url(#p6a5564eb22)" style="fill: none; stroke: #1f77b4; stroke-width: 1.5"/>
    <path d="M 349.046534 218.848373 
L 349.046534 218.837028 
" clip-path="url(#p6a5564eb22)" style="fill: none; stroke: #1f77b4; stroke-width: 1.5"/>
    <path d="M 350.568352 218.869455 
L 350.568352 218.866758 
" clip-path="url(#p6a5564eb22)" style="fill: none; stroke: #1f77b4; stroke-width: 1.5"/>
    <path d="M 352.09017 218.875693 
L 352.09017 218.87332 
" clip-path="url(#p6a5564eb22)" style="fill: none; stroke: #1f77b4; stroke-width: 1.5"/>
    <path d="M 353.611989 218.877988 
L 353.611989 218.877128 
" clip-path="url(#p6a5564eb22)" style="fill: none; stroke: #1f77b4; stroke-width: 1.5"/>
    <path d="M 355.133807 218.879105 
L 355.133807 218.87867 
" clip-path="url(#p6a5564eb22)" style="fill: none; stroke: #1f77b4; stroke-width: 1.5"/>
    <path d="M 356.655625 218.879667 
L 356.655625 218.879427 
" clip-path="url(#p6a5564eb22)" style="fill: none; stroke: #1f77b4; stroke-width: 1.5"/>
    <path d="M 358.177443 218.879865 
L 358.177443 218.879761 
" clip-path="url(#p6a5564eb22)" style="fill: none; stroke: #1f77b4; stroke-width: 1.5"/>
    <path d="M 359.699261 218.879903 
L 359.699261 218.879809 
" clip-path="url(#p6a5564eb22)" style="fill: none; stroke: #1f77b4; stroke-width: 1.5"/>
    <path d="M 361.22108 218.87997 
L 361.22108 218.879939 
" clip-path="url(#p6a5564eb22)" style="fill: none; stroke: #1f77b4; stroke-width: 1.5"/>
    <path d="M 362.742898 218.87999 
L 362.742898 218.879982 
" clip-path="url(#p6a5564eb22)" style="fill: none; stroke: #1f77b4; stroke-width: 1.5"/>
    <path d="M 364.264716 218.879996 
L 364.264716 218.879991 
" clip-path="url(#p6a5564eb22)" style="fill: none; stroke: #1f77b4; stroke-width: 1.5"/>
    <path d="M 365.786534 218.88 
L 365.786534 218.879999 
" clip-path="url(#p6a5564eb22)" style="fill: none; stroke: #1f77b4; stroke-width: 1.5"/>
   </g>
   <g id="patch_3">
    <path d="M 46.965625 228.96 
L 46.965625 7.2 
" style="fill: none; stroke: #000000; stroke-width: 0.8; stroke-linejoin: miter; stroke-linecap: square"/>
   </g>
   <g id="patch_4">
    <path d="M 381.765625 228.96 
L 381.765625 7.2 
" style="fill: none; stroke: #000000; stroke-width: 0.8; stroke-linejoin: miter; stroke-linecap: square"/>
   </g>
   <g id="patch_5">
    <path d="M 46.965625 228.96 
L 381.765625 228.96 
" style="fill: none; stroke: #000000; stroke-width: 0.8; stroke-linejoin: miter; stroke-linecap: square"/>
   </g>
   <g id="patch_6">
    <path d="M 46.965625 7.2 
L 381.765625 7.2 
" style="fill: none; stroke: #000000; stroke-width: 0.8; stroke-linejoin: miter; stroke-linecap: square"/>
   </g>
  </g>
 </g>
 <defs>
  <clipPath id="p6a5564eb22">
   <rect x="46.965625" y="7.2" width="334.8" height="221.76"/>
  </clipPath>
 </defs>
</svg>