<?xml version="1.0" encoding="utf-8" standalone="no"?>
<!DOCTYPE svg PUBLIC "-//W3C//DTD SVG 1.1//EN"
  "http://www.w3.org/Graphics/SVG/1.1/DTD/svg11.dtd">
<svg xmlns:xlink="http://www.w3.org/1999/xlink" width="376.240625pt" height="268.200625pt" viewBox="0 0 376.240625 268.200625" xmlns="http://www.w3.org/2000/svg" version="1.1">
 <metadata>
  <rdf:RDF xmlns:dc="http://purl.org/dc/elements/1.1/" xmlns:cc="http://creativecommons.org/ns#" xmlns:rdf="http://www.w3.org/1999/02/22-rdf-syntax-ns#">
   <cc:Work>
    <dc:type rdf:resource="http://purl.org/dc/dcmitype/StillImage"/>
    <dc:date>2025-07-05T14:27:17.219495</dc:date>
    <dc:format>image/svg+xml</dc:format>
    <dc:creator>
     <cc:Agent>
      <dc:title>Matplotlib v3.10.1, https://matplotlib.org/</dc:title>
     </cc:Agent>
    </dc:creator>
   </cc:Work>
  </rdf:RDF>
 </metadata>
 <defs>
  <style type="text/css">*{stroke-linejoin: round; stroke-linecap: butt}</style>
 </defs>
 <g id="figure_1">
  <g id="patch_1">
   <path d="M 0 268.200625 
L 376.240625 268.200625 
L 376.240625 0 
L 0 0 
z
" style="fill: #ffffff"/>
  </g>
  <g id="axes_1">
   <g id="patch_2">
    <path d="M 34.240625 228.96 
L 369.040625 228.96 
L 369.040625 7.2 
L 34.240625 7.2 
z
" style="fill: #ffffff"/>
   </g>
   <g id="matplotlib.axis_1">
    <g id="xtick_1">
     <g id="line2d_1">
      <defs>
       <path id="me25c1f5064" d="M 0 0 
L 0 3.5 
" style="stroke: #000000; stroke-width: 0.8"/>
      </defs>
      <g>
       <use xlink:href="#me25c1f5064" x="49.458807" y="228.96" style="stroke: #000000; stroke-width: 0.8"/>
      </g>
     </g>
     <g id="text_1">
      <!-- 0.50 -->
      <g transform="translate(38.325994 243.558437) scale(0.1 -0.1)">
       <defs>
        <path id="DejaVuSans-30" d="M 2034 4250 
Q 1547 4250 1301 3770 
Q 1056 3291 1056 2328 
Q 1056 1369 1301 889 
Q 1547 409 2034 409 
Q 2525 409 2770 889 
Q 3016 1369 3016 2328 
Q 3016 3291 2770 3770 
Q 2525 4250 2034 4250 
z
M 2034 4750 
Q 2819 4750 3233 4129 
Q 3647 3509 3647 2328 
Q 3647 1150 3233 529 
Q 2819 -91 2034 -91 
Q 1250 -91 836 529 
Q 422 1150 422 2328 
Q 422 3509 836 4129 
Q 1250 4750 2034 4750 
z
" transform="scale(0.015625)"/>
        <path id="DejaVuSans-2e" d="M 684 794 
L 1344 794 
L 1344 0 
L 684 0 
L 684 794 
z
" transform="scale(0.015625)"/>
        <path id="DejaVuSans-35" d="M 691 4666 
L 3169 4666 
L 3169 4134 
L 1269 4134 
L 1269 2991 
Q 1406 3038 1543 3061 
Q 1681 3084 1819 3084 
Q 2600 3084 3056 2656 
Q 3513 2228 3513 1497 
Q 3513 744 3044 326 
Q 2575 -91 1722 -91 
Q 1428 -91 1123 -41 
Q 819 9 494 109 
L 494 744 
Q 775 591 1075 516 
Q 1375 441 1709 441 
Q 2250 441 2565 725 
Q 2881 1009 2881 1497 
Q 2881 1984 2565 2268 
Q 2250 2553 1709 2553 
Q 1456 2553 1204 2497 
Q 953 2441 691 2322 
L 691 4666 
z
" transform="scale(0.015625)"/>
       </defs>
       <use xlink:href="#DejaVuSans-30"/>
       <use xlink:href="#DejaVuSans-2e" transform="translate(63.623047 0)"/>
       <use xlink:href="#DejaVuSans-35" transform="translate(95.410156 0)"/>
       <use xlink:href="#DejaVuSans-30" transform="translate(159.033203 0)"/>
      </g>
     </g>
    </g>
    <g id="xtick_2">
     <g id="line2d_2">
      <g>
       <use xlink:href="#me25c1f5064" x="87.504261" y="228.96" style="stroke: #000000; stroke-width: 0.8"/>
      </g>
     </g>
     <g id="text_2">
      <!-- 0.75 -->
      <g transform="translate(76.371449 243.558437) scale(0.1 -0.1)">
       <defs>
        <path id="DejaVuSans-37" d="M 525 4666 
L 3525 4666 
L 3525 4397 
L 1831 0 
L 1172 0 
L 2766 4134 
L 525 4134 
L 525 4666 
z
" transform="scale(0.015625)"/>
       </defs>
       <use xlink:href="#DejaVuSans-30"/>
       <use xlink:href="#DejaVuSans-2e" transform="translate(63.623047 0)"/>
       <use xlink:href="#DejaVuSans-37" transform="translate(95.410156 0)"/>
       <use xlink:href="#DejaVuSans-35" transform="translate(159.033203 0)"/>
      </g>
     </g>
    </g>
    <g id="xtick_3">
     <g id="line2d_3">
      <g>
       <use xlink:href="#me25c1f5064" x="125.549716" y="228.96" style="stroke: #000000; stroke-width: 0.8"/>
      </g>
     </g>
     <g id="text_3">
      <!-- 1.00 -->
      <g transform="translate(114.416903 243.558437) scale(0.1 -0.1)">
       <defs>
        <path id="DejaVuSans-31" d="M 794 531 
L 1825 531 
L 1825 4091 
L 703 3866 
L 703 4441 
L 1819 4666 
L 2450 4666 
L 2450 531 
L 3481 531 
L 3481 0 
L 794 0 
L 794 531 
z
" transform="scale(0.015625)"/>
       </defs>
       <use xlink:href="#DejaVuSans-31"/>
       <use xlink:href="#DejaVuSans-2e" transform="translate(63.623047 0)"/>
       <use xlink:href="#DejaVuSans-30" transform="translate(95.410156 0)"/>
       <use xlink:href="#DejaVuSans-30" transform="translate(159.033203 0)"/>
      </g>
     </g>
    </g>
    <g id="xtick_4">
     <g id="line2d_4">
      <g>
       <use xlink:href="#me25c1f5064" x="163.59517" y="228.96" style="stroke: #000000; stroke-width: 0.8"/>
      </g>
     </g>
     <g id="text_4">
      <!-- 1.25 -->
      <g transform="translate(152.462358 243.558437) scale(0.1 -0.1)">
       <defs>
        <path id="DejaVuSans-32" d="M 1228 531 
L 3431 531 
L 3431 0 
L 469 0 
L 469 531 
Q 828 903 1448 1529 
Q 2069 2156 2228 2338 
Q 2531 2678 2651 2914 
Q 2772 3150 2772 3378 
Q 2772 3750 2511 3984 
Q 2250 4219 1831 4219 
Q 1534 4219 1204 4116 
Q 875 4013 500 3803 
L 500 4441 
Q 881 4594 1212 4672 
Q 1544 4750 1819 4750 
Q 2544 4750 2975 4387 
Q 3406 4025 3406 3419 
Q 3406 3131 3298 2873 
Q 3191 2616 2906 2266 
Q 2828 2175 2409 1742 
Q 1991 1309 1228 531 
z
" transform="scale(0.015625)"/>
       </defs>
       <use xlink:href="#DejaVuSans-31"/>
       <use xlink:href="#DejaVuSans-2e" transform="translate(63.623047 0)"/>
       <use xlink:href="#DejaVuSans-32" transform="translate(95.410156 0)"/>
       <use xlink:href="#DejaVuSans-35" transform="translate(159.033203 0)"/>
      </g>
     </g>
    </g>
    <g id="xtick_5">
     <g id="line2d_5">
      <g>
       <use xlink:href="#me25c1f5064" x="201.640625" y="228.96" style="stroke: #000000; stroke-width: 0.8"/>
      </g>
     </g>
     <g id="text_5">
      <!-- 1.50 -->
      <g transform="translate(190.507812 243.558437) scale(0.1 -0.1)">
       <use xlink:href="#DejaVuSans-31"/>
       <use xlink:href="#DejaVuSans-2e" transform="translate(63.623047 0)"/>
       <use xlink:href="#DejaVuSans-35" transform="translate(95.410156 0)"/>
       <use xlink:href="#DejaVuSans-30" transform="translate(159.033203 0)"/>
      </g>
     </g>
    </g>
    <g id="xtick_6">
     <g id="line2d_6">
      <g>
       <use xlink:href="#me25c1f5064" x="239.68608" y="228.96" style="stroke: #000000; stroke-width: 0.8"/>
      </g>
     </g>
     <g id="text_6">
      <!-- 1.75 -->
      <g transform="translate(228.553267 243.558437) scale(0.1 -0.1)">
       <use xlink:href="#DejaVuSans-31"/>
       <use xlink:href="#DejaVuSans-2e" transform="translate(63.623047 0)"/>
       <use xlink:href="#DejaVuSans-37" transform="translate(95.410156 0)"/>
       <use xlink:href="#DejaVuSans-35" transform="translate(159.033203 0)"/>
      </g>
     </g>
    </g>
    <g id="xtick_7">
     <g id="line2d_7">
      <g>
       <use xlink:href="#me25c1f5064" x="277.731534" y="228.96" style="stroke: #000000; stroke-width: 0.8"/>
      </g>
     </g>
     <g id="text_7">
      <!-- 2.00 -->
      <g transform="translate(266.598722 243.558437) scale(0.1 -0.1)">
       <use xlink:href="#DejaVuSans-32"/>
       <use xlink:href="#DejaVuSans-2e" transform="translate(63.623047 0)"/>
       <use xlink:href="#DejaVuSans-30" transform="translate(95.410156 0)"/>
       <use xlink:href="#DejaVuSans-30" transform="translate(159.033203 0)"/>
      </g>
     </g>
    </g>
    <g id="xtick_8">
     <g id="line2d_8">
      <g>
       <use xlink:href="#me25c1f5064" x="315.776989" y="228.96" style="stroke: #000000; stroke-width: 0.8"/>
      </g>
     </g>
     <g id="text_8">
      <!-- 2.25 -->
      <g transform="translate(304.644176 243.558437) scale(0.1 -0.1)">
       <use xlink:href="#DejaVuSans-32"/>
       <use xlink:href="#DejaVuSans-2e" transform="translate(63.623047 0)"/>
       <use xlink:href="#DejaVuSans-32" transform="translate(95.410156 0)"/>
       <use xlink:href="#DejaVuSans-35" transform="translate(159.033203 0)"/>
      </g>
     </g>
    </g>
    <g id="xtick_9">
     <g id="line2d_9">
      <g>
       <use xlink:href="#me25c1f5064" x="353.822443" y="228.96" style="stroke: #000000; stroke-width: 0.8"/>
      </g>
     </g>
     <g id="text_9">
      <!-- 2.50 -->
      <g transform="translate(342.689631 243.558437) scale(0.1 -0.1)">
       <use xlink:href="#DejaVuSans-32"/>
       <use xlink:href="#DejaVuSans-2e" transform="translate(63.623047 0)"/>
       <use xlink:href="#DejaVuSans-35" transform="translate(95.410156 0)"/>
       <use xlink:href="#DejaVuSans-30" transform="translate(159.033203 0)"/>
      </g>
     </g>
    </g>
    <g id="text_10">
     <!-- dspacing [Å] -->
     <g transform="translate(170.23125 258.920937) scale(0.1 -0.1)">
      <defs>
       <path id="DejaVuSans-64" d="M 2906 2969 
L 2906 4863 
L 3481 4863 
L 3481 0 
L 2906 0 
L 2906 525 
Q 2725 213 2448 61 
Q 2172 -91 1784 -91 
Q 1150 -91 751 415 
Q 353 922 353 1747 
Q 353 2572 751 3078 
Q 1150 3584 1784 3584 
Q 2172 3584 2448 3432 
Q 2725 3281 2906 2969 
z
M 947 1747 
Q 947 1113 1208 752 
Q 1469 391 1925 391 
Q 2381 391 2643 752 
Q 2906 1113 2906 1747 
Q 2906 2381 2643 2742 
Q 2381 3103 1925 3103 
Q 1469 3103 1208 2742 
Q 947 2381 947 1747 
z
" transform="scale(0.015625)"/>
       <path id="DejaVuSans-73" d="M 2834 3397 
L 2834 2853 
Q 2591 2978 2328 3040 
Q 2066 3103 1784 3103 
Q 1356 3103 1142 2972 
Q 928 2841 928 2578 
Q 928 2378 1081 2264 
Q 1234 2150 1697 2047 
L 1894 2003 
Q 2506 1872 2764 1633 
Q 3022 1394 3022 966 
Q 3022 478 2636 193 
Q 2250 -91 1575 -91 
Q 1294 -91 989 -36 
Q 684 19 347 128 
L 347 722 
Q 666 556 975 473 
Q 1284 391 1588 391 
Q 1994 391 2212 530 
Q 2431 669 2431 922 
Q 2431 1156 2273 1281 
Q 2116 1406 1581 1522 
L 1381 1569 
Q 847 1681 609 1914 
Q 372 2147 372 2553 
Q 372 3047 722 3315 
Q 1072 3584 1716 3584 
Q 2034 3584 2315 3537 
Q 2597 3491 2834 3397 
z
" transform="scale(0.015625)"/>
       <path id="DejaVuSans-70" d="M 1159 525 
L 1159 -1331 
L 581 -1331 
L 581 3500 
L 1159 3500 
L 1159 2969 
Q 1341 3281 1617 3432 
Q 1894 3584 2278 3584 
Q 2916 3584 3314 3078 
Q 3713 2572 3713 1747 
Q 3713 922 3314 415 
Q 2916 -91 2278 -91 
Q 1894 -91 1617 61 
Q 1341 213 1159 525 
z
M 3116 1747 
Q 3116 2381 2855 2742 
Q 2594 3103 2138 3103 
Q 1681 3103 1420 2742 
Q 1159 2381 1159 1747 
Q 1159 1113 1420 752 
Q 1681 391 2138 391 
Q 2594 391 2855 752 
Q 3116 1113 3116 1747 
z
" transform="scale(0.015625)"/>
       <path id="DejaVuSans-61" d="M 2194 1759 
Q 1497 1759 1228 1600 
Q 959 1441 959 1056 
Q 959 750 1161 570 
Q 1363 391 1709 391 
Q 2188 391 2477 730 
Q 2766 1069 2766 1631 
L 2766 1759 
L 2194 1759 
z
M 3341 1997 
L 3341 0 
L 2766 0 
L 2766 531 
Q 2569 213 2275 61 
Q 1981 -91 1556 -91 
Q 1019 -91 701 211 
Q 384 513 384 1019 
Q 384 1609 779 1909 
Q 1175 2209 1959 2209 
L 2766 2209 
L 2766 2266 
Q 2766 2663 2505 2880 
Q 2244 3097 1772 3097 
Q 1472 3097 1187 3025 
Q 903 2953 641 2809 
L 641 3341 
Q 956 3463 1253 3523 
Q 1550 3584 1831 3584 
Q 2591 3584 2966 3190 
Q 3341 2797 3341 1997 
z
" transform="scale(0.015625)"/>
       <path id="DejaVuSans-63" d="M 3122 3366 
L 3122 2828 
Q 2878 2963 2633 3030 
Q 2388 3097 2138 3097 
Q 1578 3097 1268 2742 
Q 959 2388 959 1747 
Q 959 1106 1268 751 
Q 1578 397 2138 397 
Q 2388 397 2633 464 
Q 2878 531 3122 666 
L 3122 134 
Q 2881 22 2623 -34 
Q 2366 -91 2075 -91 
Q 1284 -91 818 406 
Q 353 903 353 1747 
Q 353 2603 823 3093 
Q 1294 3584 2113 3584 
Q 2378 3584 2631 3529 
Q 2884 3475 3122 3366 
z
" transform="scale(0.015625)"/>
       <path id="DejaVuSans-69" d="M 603 3500 
L 1178 3500 
L 1178 0 
L 603 0 
L 603 3500 
z
M 603 4863 
L 1178 4863 
L 1178 4134 
L 603 4134 
L 603 4863 
z
" transform="scale(0.015625)"/>
       <path id="DejaVuSans-6e" d="M 3513 2113 
L 3513 0 
L 2938 0 
L 2938 2094 
Q 2938 2591 2744 2837 
Q 2550 3084 2163 3084 
Q 1697 3084 1428 2787 
Q 1159 2491 1159 1978 
L 1159 0 
L 581 0 
L 581 3500 
L 1159 3500 
L 1159 2956 
Q 1366 3272 1645 3428 
Q 1925 3584 2291 3584 
Q 2894 3584 3203 3211 
Q 3513 2838 3513 2113 
z
" transform="scale(0.015625)"/>
       <path id="DejaVuSans-67" d="M 2906 1791 
Q 2906 2416 2648 2759 
Q 2391 3103 1925 3103 
Q 1463 3103 1205 2759 
Q 947 2416 947 1791 
Q 947 1169 1205 825 
Q 1463 481 1925 481 
Q 2391 481 2648 825 
Q 2906 1169 2906 1791 
z
M 3481 434 
Q 3481 -459 3084 -895 
Q 2688 -1331 1869 -1331 
Q 1566 -1331 1297 -1286 
Q 1028 -1241 775 -1147 
L 775 -588 
Q 1028 -725 1275 -790 
Q 1522 -856 1778 -856 
Q 2344 -856 2625 -561 
Q 2906 -266 2906 331 
L 2906 616 
Q 2728 306 2450 153 
Q 2172 0 1784 0 
Q 1141 0 747 490 
Q 353 981 353 1791 
Q 353 2603 747 3093 
Q 1141 3584 1784 3584 
Q 2172 3584 2450 3431 
Q 2728 3278 2906 2969 
L 2906 3500 
L 3481 3500 
L 3481 434 
z
" transform="scale(0.015625)"/>
       <path id="DejaVuSans-20" transform="scale(0.015625)"/>
       <path id="DejaVuSans-5b" d="M 550 4863 
L 1875 4863 
L 1875 4416 
L 1125 4416 
L 1125 -397 
L 1875 -397 
L 1875 -844 
L 550 -844 
L 550 4863 
z
" transform="scale(0.015625)"/>
       <path id="DejaVuSans-c5" d="M 2663 5081 
Q 2663 5278 2523 5417 
Q 2384 5556 2188 5556 
Q 1988 5556 1852 5420 
Q 1716 5284 1716 5081 
Q 1716 4884 1853 4746 
Q 1991 4609 2188 4609 
Q 2384 4609 2523 4746 
Q 2663 4884 2663 5081 
z
M 2188 4044 
L 1338 1722 
L 3041 1722 
L 2188 4044 
z
M 1716 4366 
Q 1525 4494 1428 4673 
Q 1331 4853 1331 5081 
Q 1331 5441 1579 5691 
Q 1828 5941 2188 5941 
Q 2544 5941 2795 5689 
Q 3047 5438 3047 5081 
Q 3047 4863 2948 4678 
Q 2850 4494 2663 4366 
L 4325 0 
L 3669 0 
L 3244 1197 
L 1141 1197 
L 716 0 
L 50 0 
L 1716 4366 
z
" transform="scale(0.015625)"/>
       <path id="DejaVuSans-5d" d="M 1947 4863 
L 1947 -844 
L 622 -844 
L 622 -397 
L 1369 -397 
L 1369 4416 
L 622 4416 
L 622 4863 
L 1947 4863 
z
" transform="scale(0.015625)"/>
      </defs>
      <use xlink:href="#DejaVuSans-64"/>
      <use xlink:href="#DejaVuSans-73" transform="translate(63.476562 0)"/>
      <use xlink:href="#DejaVuSans-70" transform="translate(115.576172 0)"/>
      <use xlink:href="#DejaVuSans-61" transform="translate(179.052734 0)"/>
      <use xlink:href="#DejaVuSans-63" transform="translate(240.332031 0)"/>
      <use xlink:href="#DejaVuSans-69" transform="translate(295.3125 0)"/>
      <use xlink:href="#DejaVuSans-6e" transform="translate(323.095703 0)"/>
      <use xlink:href="#DejaVuSans-67" transform="translate(386.474609 0)"/>
      <use xlink:href="#DejaVuSans-20" transform="translate(449.951172 0)"/>
      <use xlink:href="#DejaVuSans-5b" transform="translate(481.738281 0)"/>
      <use xlink:href="#DejaVuSans-c5" transform="translate(520.751953 0)"/>
      <use xlink:href="#DejaVuSans-5d" transform="translate(589.160156 0)"/>
     </g>
    </g>
   </g>
   <g id="matplotlib.axis_2">
    <g id="ytick_1">
     <g id="line2d_10">
      <defs>
       <path id="mc5b35ecd84" d="M 0 0 
L -3.5 0 
" style="stroke: #000000; stroke-width: 0.8"/>
      </defs>
      <g>
       <use xlink:href="#mc5b35ecd84" x="34.240625" y="224.989805" style="stroke: #000000; stroke-width: 0.8"/>
      </g>
     </g>
     <g id="text_11">
      <!-- 0 -->
      <g transform="translate(20.878125 228.789024) scale(0.1 -0.1)">
       <use xlink:href="#DejaVuSans-30"/>
      </g>
     </g>
    </g>
    <g id="ytick_2">
     <g id="line2d_11">
      <g>
       <use xlink:href="#mc5b35ecd84" x="34.240625" y="195.145611" style="stroke: #000000; stroke-width: 0.8"/>
      </g>
     </g>
     <g id="text_12">
      <!-- 1 -->
      <g transform="translate(20.878125 198.94483) scale(0.1 -0.1)">
       <use xlink:href="#DejaVuSans-31"/>
      </g>
     </g>
    </g>
    <g id="ytick_3">
     <g id="line2d_12">
      <g>
       <use xlink:href="#mc5b35ecd84" x="34.240625" y="165.301417" style="stroke: #000000; stroke-width: 0.8"/>
      </g>
     </g>
     <g id="text_13">
      <!-- 2 -->
      <g transform="translate(20.878125 169.100636) scale(0.1 -0.1)">
       <use xlink:href="#DejaVuSans-32"/>
      </g>
     </g>
    </g>
    <g id="ytick_4">
     <g id="line2d_13">
      <g>
       <use xlink:href="#mc5b35ecd84" x="34.240625" y="135.457223" style="stroke: #000000; stroke-width: 0.8"/>
      </g>
     </g>
     <g id="text_14">
      <!-- 3 -->
      <g transform="translate(20.878125 139.256442) scale(0.1 -0.1)">
       <defs>
        <path id="DejaVuSans-33" d="M 2597 2516 
Q 3050 2419 3304 2112 
Q 3559 1806 3559 1356 
Q 3559 666 3084 287 
Q 2609 -91 1734 -91 
Q 1441 -91 1130 -33 
Q 819 25 488 141 
L 488 750 
Q 750 597 1062 519 
Q 1375 441 1716 441 
Q 2309 441 2620 675 
Q 2931 909 2931 1356 
Q 2931 1769 2642 2001 
Q 2353 2234 1838 2234 
L 1294 2234 
L 1294 2753 
L 1863 2753 
Q 2328 2753 2575 2939 
Q 2822 3125 2822 3475 
Q 2822 3834 2567 4026 
Q 2313 4219 1838 4219 
Q 1578 4219 1281 4162 
Q 984 4106 628 3988 
L 628 4550 
Q 988 4650 1302 4700 
Q 1616 4750 1894 4750 
Q 2613 4750 3031 4423 
Q 3450 4097 3450 3541 
Q 3450 3153 3228 2886 
Q 3006 2619 2597 2516 
z
" transform="scale(0.015625)"/>
       </defs>
       <use xlink:href="#DejaVuSans-33"/>
      </g>
     </g>
    </g>
    <g id="ytick_5">
     <g id="line2d_14">
      <g>
       <use xlink:href="#mc5b35ecd84" x="34.240625" y="105.613029" style="stroke: #000000; stroke-width: 0.8"/>
      </g>
     </g>
     <g id="text_15">
      <!-- 4 -->
      <g transform="translate(20.878125 109.412248) scale(0.1 -0.1)">
       <defs>
        <path id="DejaVuSans-34" d="M 2419 4116 
L 825 1625 
L 2419 1625 
L 2419 4116 
z
M 2253 4666 
L 3047 4666 
L 3047 1625 
L 3713 1625 
L 3713 1100 
L 3047 1100 
L 3047 0 
L 2419 0 
L 2419 1100 
L 313 1100 
L 313 1709 
L 2253 4666 
z
" transform="scale(0.015625)"/>
       </defs>
       <use xlink:href="#DejaVuSans-34"/>
      </g>
     </g>
    </g>
    <g id="ytick_6">
     <g id="line2d_15">
      <g>
       <use xlink:href="#mc5b35ecd84" x="34.240625" y="75.768835" style="stroke: #000000; stroke-width: 0.8"/>
      </g>
     </g>
     <g id="text_16">
      <!-- 5 -->
      <g transform="translate(20.878125 79.568054) scale(0.1 -0.1)">
       <use xlink:href="#DejaVuSans-35"/>
      </g>
     </g>
    </g>
    <g id="ytick_7">
     <g id="line2d_16">
      <g>
       <use xlink:href="#mc5b35ecd84" x="34.240625" y="45.924641" style="stroke: #000000; stroke-width: 0.8"/>
      </g>
     </g>
     <g id="text_17">
      <!-- 6 -->
      <g transform="translate(20.878125 49.72386) scale(0.1 -0.1)">
       <defs>
        <path id="DejaVuSans-36" d="M 2113 2584 
Q 1688 2584 1439 2293 
Q 1191 2003 1191 1497 
Q 1191 994 1439 701 
Q 1688 409 2113 409 
Q 2538 409 2786 701 
Q 3034 994 3034 1497 
Q 3034 2003 2786 2293 
Q 2538 2584 2113 2584 
z
M 3366 4563 
L 3366 3988 
Q 3128 4100 2886 4159 
Q 2644 4219 2406 4219 
Q 1781 4219 1451 3797 
Q 1122 3375 1075 2522 
Q 1259 2794 1537 2939 
Q 1816 3084 2150 3084 
Q 2853 3084 3261 2657 
Q 3669 2231 3669 1497 
Q 3669 778 3244 343 
Q 2819 -91 2113 -91 
Q 1303 -91 875 529 
Q 447 1150 447 2328 
Q 447 3434 972 4092 
Q 1497 4750 2381 4750 
Q 2619 4750 2861 4703 
Q 3103 4656 3366 4563 
z
" transform="scale(0.015625)"/>
       </defs>
       <use xlink:href="#DejaVuSans-36"/>
      </g>
     </g>
    </g>
    <g id="ytick_8">
     <g id="line2d_17">
      <g>
       <use xlink:href="#mc5b35ecd84" x="34.240625" y="16.080447" style="stroke: #000000; stroke-width: 0.8"/>
      </g>
     </g>
     <g id="text_18">
      <!-- 7 -->
      <g transform="translate(20.878125 19.879666) scale(0.1 -0.1)">
       <use xlink:href="#DejaVuSans-37"/>
      </g>
     </g>
    </g>
    <g id="text_19">
     <!-- [dimensionless] -->
     <g transform="translate(14.798437 157.557344) rotate(-90) scale(0.1 -0.1)">
      <defs>
       <path id="DejaVuSans-6d" d="M 3328 2828 
Q 3544 3216 3844 3400 
Q 4144 3584 4550 3584 
Q 5097 3584 5394 3201 
Q 5691 2819 5691 2113 
L 5691 0 
L 5113 0 
L 5113 2094 
Q 5113 2597 4934 2840 
Q 4756 3084 4391 3084 
Q 3944 3084 3684 2787 
Q 3425 2491 3425 1978 
L 3425 0 
L 2847 0 
L 2847 2094 
Q 2847 2600 2669 2842 
Q 2491 3084 2119 3084 
Q 1678 3084 1418 2786 
Q 1159 2488 1159 1978 
L 1159 0 
L 581 0 
L 581 3500 
L 1159 3500 
L 1159 2956 
Q 1356 3278 1631 3431 
Q 1906 3584 2284 3584 
Q 2666 3584 2933 3390 
Q 3200 3197 3328 2828 
z
" transform="scale(0.015625)"/>
       <path id="DejaVuSans-65" d="M 3597 1894 
L 3597 1613 
L 953 1613 
Q 991 1019 1311 708 
Q 1631 397 2203 397 
Q 2534 397 2845 478 
Q 3156 559 3463 722 
L 3463 178 
Q 3153 47 2828 -22 
Q 2503 -91 2169 -91 
Q 1331 -91 842 396 
Q 353 884 353 1716 
Q 353 2575 817 3079 
Q 1281 3584 2069 3584 
Q 2775 3584 3186 3129 
Q 3597 2675 3597 1894 
z
M 3022 2063 
Q 3016 2534 2758 2815 
Q 2500 3097 2075 3097 
Q 1594 3097 1305 2825 
Q 1016 2553 972 2059 
L 3022 2063 
z
" transform="scale(0.015625)"/>
       <path id="DejaVuSans-6f" d="M 1959 3097 
Q 1497 3097 1228 2736 
Q 959 2375 959 1747 
Q 959 1119 1226 758 
Q 1494 397 1959 397 
Q 2419 397 2687 759 
Q 2956 1122 2956 1747 
Q 2956 2369 2687 2733 
Q 2419 3097 1959 3097 
z
M 1959 3584 
Q 2709 3584 3137 3096 
Q 3566 2609 3566 1747 
Q 3566 888 3137 398 
Q 2709 -91 1959 -91 
Q 1206 -91 779 398 
Q 353 888 353 1747 
Q 353 2609 779 3096 
Q 1206 3584 1959 3584 
z
" transform="scale(0.015625)"/>
       <path id="DejaVuSans-6c" d="M 603 4863 
L 1178 4863 
L 1178 0 
L 603 0 
L 603 4863 
z
" transform="scale(0.015625)"/>
      </defs>
      <use xlink:href="#DejaVuSans-5b"/>
      <use xlink:href="#DejaVuSans-64" transform="translate(39.013672 0)"/>
      <use xlink:href="#DejaVuSans-69" transform="translate(102.490234 0)"/>
      <use xlink:href="#DejaVuSans-6d" transform="translate(130.273438 0)"/>
      <use xlink:href="#DejaVuSans-65" transform="translate(227.685547 0)"/>
      <use xlink:href="#DejaVuSans-6e" transform="translate(289.208984 0)"/>
      <use xlink:href="#DejaVuSans-73" transform="translate(352.587891 0)"/>
      <use xlink:href="#DejaVuSans-69" transform="translate(404.6875 0)"/>
      <use xlink:href="#DejaVuSans-6f" transform="translate(432.470703 0)"/>
      <use xlink:href="#DejaVuSans-6e" transform="translate(493.652344 0)"/>
      <use xlink:href="#DejaVuSans-6c" transform="translate(557.03125 0)"/>
      <use xlink:href="#DejaVuSans-65" transform="translate(584.814453 0)"/>
      <use xlink:href="#DejaVuSans-73" transform="translate(646.337891 0)"/>
      <use xlink:href="#DejaVuSans-73" transform="translate(698.4375 0)"/>
      <use xlink:href="#DejaVuSans-5d" transform="translate(750.537109 0)"/>
     </g>
    </g>
   </g>
   <g id="patch_3">
    <path d="M 34.240625 228.96 
L 34.240625 7.2 
" style="fill: none; stroke: #000000; stroke-width: 0.8; stroke-linejoin: miter; stroke-linecap: square"/>
   </g>
   <g id="patch_4">
    <path d="M 369.040625 228.96 
L 369.040625 7.2 
" style="fill: none; stroke: #000000; stroke-width: 0.8; stroke-linejoin: miter; stroke-linecap: square"/>
   </g>
   <g id="patch_5">
    <path d="M 34.240625 228.96 
L 369.040625 228.96 
" style="fill: none; stroke: #000000; stroke-width: 0.8; stroke-linejoin: miter; stroke-linecap: square"/>
   </g>
   <g id="patch_6">
    <path d="M 34.240625 7.2 
L 369.040625 7.2 
" style="fill: none; stroke: #000000; stroke-width: 0.8; stroke-linejoin: miter; stroke-linecap: square"/>
   </g>
   <g id="line2d_18">
    <path d="M 49.458807 211.495798 
L 50.980625 211.495798 
L 50.980625 211.296234 
L 52.502443 211.296234 
L 52.502443 211.598898 
L 54.024261 211.598898 
L 54.024261 212.965224 
L 55.54608 212.965224 
L 55.54608 209.174993 
L 57.067898 209.174993 
L 57.067898 213.929859 
L 58.589716 213.929859 
L 58.589716 214.751244 
L 60.111534 214.751244 
L 60.111534 213.908169 
L 61.633352 213.908169 
L 61.633352 210.701355 
L 63.15517 210.701355 
L 63.15517 211.069696 
L 64.676989 211.069696 
L 64.676989 212.188876 
L 66.198807 212.188876 
L 66.198807 212.703784 
L 67.720625 212.703784 
L 67.720625 208.677382 
L 69.242443 208.677382 
L 69.242443 214.985227 
L 70.764261 214.985227 
L 70.764261 203.925591 
L 72.28608 203.925591 
L 72.28608 204.41255 
L 73.807898 204.41255 
L 73.807898 211.330801 
L 75.329716 211.330801 
L 75.329716 215.212961 
L 76.851534 215.212961 
L 76.851534 209.702163 
L 78.373352 209.702163 
L 78.373352 217.130423 
L 79.89517 217.130423 
L 79.89517 207.835566 
L 81.416989 207.835566 
L 81.416989 214.461452 
L 84.460625 214.512483 
L 84.460625 217.288817 
L 85.982443 217.288817 
L 85.982443 200.384794 
L 87.504261 200.384794 
L 87.504261 206.712458 
L 89.02608 206.712458 
L 89.02608 209.905295 
L 90.547898 209.905295 
L 90.547898 216.192855 
L 92.069716 216.192855 
L 92.069716 202.837345 
L 93.591534 202.837345 
L 93.591534 194.026401 
L 95.113352 194.026401 
L 95.113352 217.14019 
L 98.156989 217.215419 
L 98.156989 211.285019 
L 99.678807 211.285019 
L 99.678807 216.405188 
L 101.200625 216.405188 
L 101.200625 216.649615 
L 102.722443 216.649615 
L 102.722443 214.485791 
L 104.244261 214.485791 
L 104.244261 172.311408 
L 105.76608 172.311408 
L 105.76608 201.118222 
L 107.287898 201.118222 
L 107.287898 198.740546 
L 108.809716 198.740546 
L 108.809716 195.929907 
L 110.331534 195.929907 
L 110.331534 215.766929 
L 111.853352 215.766929 
L 111.853352 205.411998 
L 113.37517 205.411998 
L 113.37517 215.238831 
L 114.896989 215.238831 
L 114.896989 216.970939 
L 116.418807 216.970939 
L 116.418807 216.657089 
L 117.940625 216.657089 
L 117.940625 216.125382 
L 119.462443 216.125382 
L 119.462443 206.611748 
L 120.984261 206.611748 
L 120.984261 200.068218 
L 122.50608 200.068218 
L 122.50608 216.854866 
L 124.027898 216.854866 
L 124.027898 217.325436 
L 125.549716 217.325436 
L 125.549716 217.106683 
L 127.071534 217.106683 
L 127.071534 217.259294 
L 128.593352 217.259294 
L 128.593352 216.421244 
L 130.11517 216.421244 
L 130.11517 205.931271 
L 131.636989 205.931271 
L 131.636989 203.750958 
L 133.158807 203.750958 
L 133.158807 216.732322 
L 134.680625 216.732322 
L 134.680625 217.281773 
L 136.202443 217.281773 
L 136.202443 217.06791 
L 137.724261 217.06791 
L 137.724261 217.231314 
L 140.767898 217.268453 
L 140.767898 214.00085 
L 142.289716 214.00085 
L 142.289716 196.909853 
L 143.811534 196.909853 
L 143.811534 165.223263 
L 145.333352 165.223263 
L 145.333352 209.859031 
L 146.85517 209.859031 
L 146.85517 217.498201 
L 148.376989 217.498201 
L 148.376989 214.485848 
L 149.898807 214.485848 
L 149.898807 181.674622 
L 151.420625 181.674622 
L 151.420625 99.779306 
L 152.942443 99.779306 
L 152.942443 197.994339 
L 154.464261 197.994339 
L 154.464261 217.586879 
L 157.507898 217.63506 
L 157.507898 216.648088 
L 159.029716 216.648088 
L 159.029716 211.818501 
L 160.551534 211.818501 
L 160.551534 204.754265 
L 162.073352 204.754265 
L 162.073352 214.706569 
L 163.59517 214.706569 
L 163.59517 216.239015 
L 165.116989 216.239015 
L 165.116989 217.459908 
L 169.682443 217.515721 
L 169.682443 217.634457 
L 172.72608 217.665196 
L 172.72608 217.812129 
L 175.769716 217.741106 
L 175.769716 217.698075 
L 177.291534 217.698075 
L 177.291534 217.294831 
L 178.813352 217.294831 
L 178.813352 212.073512 
L 180.33517 212.073512 
L 180.33517 188.03231 
L 181.856989 188.03231 
L 181.856989 53.776534 
L 183.378807 53.776534 
L 183.378807 108.688968 
L 184.900625 108.688968 
L 184.900625 211.735094 
L 186.422443 211.735094 
L 186.422443 217.619474 
L 189.46608 217.645055 
L 189.46608 217.73614 
L 192.509716 217.814455 
L 192.509716 217.864377 
L 195.553352 217.896903 
L 195.553352 217.740674 
L 197.07517 217.740674 
L 197.07517 217.629305 
L 198.596989 217.629305 
L 198.596989 217.984383 
L 200.118807 217.984383 
L 200.118807 217.713857 
L 204.684261 217.807564 
L 204.684261 217.855932 
L 209.249716 217.894783 
L 209.249716 217.484558 
L 210.771534 217.484558 
L 210.771534 217.167396 
L 212.293352 217.167396 
L 212.293352 214.899354 
L 213.81517 214.899354 
L 213.81517 203.778377 
L 215.336989 203.778377 
L 215.336989 198.040484 
L 216.858807 198.040484 
L 216.858807 213.227702 
L 218.380625 213.227702 
L 218.380625 217.3308 
L 219.902443 217.3308 
L 219.902443 216.997375 
L 221.424261 216.997375 
L 221.424261 214.676217 
L 222.94608 214.676217 
L 222.94608 213.493602 
L 224.467898 213.493602 
L 224.467898 216.892915 
L 225.989716 216.892915 
L 225.989716 217.952375 
L 227.511534 217.952375 
L 227.511534 218.069408 
L 230.55517 218.076831 
L 230.55517 218.192829 
L 232.076989 218.192829 
L 232.076989 218.02209 
L 236.642443 217.992184 
L 236.642443 217.707202 
L 238.164261 217.707202 
L 238.164261 217.480784 
L 239.68608 217.480784 
L 239.68608 217.670917 
L 241.207898 217.670917 
L 241.207898 218.218149 
L 242.729716 218.218149 
L 242.729716 218.073852 
L 248.816989 218.115032 
L 248.816989 217.808872 
L 250.338807 217.808872 
L 250.338807 218.148377 
L 251.860625 218.148377 
L 251.860625 218.015593 
L 253.382443 218.015593 
L 253.382443 218.192059 
L 259.469716 218.239574 
L 259.469716 217.563699 
L 260.991534 217.563699 
L 260.991534 215.810571 
L 262.513352 215.810571 
L 262.513352 211.014509 
L 264.03517 211.014509 
L 264.03517 197.740637 
L 265.556989 197.740637 
L 265.556989 155.622505 
L 267.078807 155.622505 
L 267.078807 77.449279 
L 268.600625 77.449279 
L 268.600625 65.831144 
L 270.122443 65.831144 
L 270.122443 34.362636 
L 271.644261 34.362636 
L 271.644261 84.821198 
L 273.16608 84.821198 
L 273.16608 176.297836 
L 274.687898 176.297836 
L 274.687898 211.322147 
L 276.209716 211.322147 
L 276.209716 217.507621 
L 277.731534 217.507621 
L 277.731534 218.049007 
L 282.296989 218.144429 
L 282.296989 218.420429 
L 285.340625 218.417306 
L 285.340625 217.983261 
L 288.384261 218.073794 
L 288.384261 218.200972 
L 289.90608 218.200972 
L 289.90608 218.359163 
L 291.427898 218.359163 
L 291.427898 218.104711 
L 299.036989 218.210291 
L 299.036989 217.840064 
L 300.558807 217.840064 
L 300.558807 218.24431 
L 302.080625 218.24431 
L 302.080625 217.987556 
L 303.602443 217.987556 
L 303.602443 217.124896 
L 305.124261 217.124896 
L 305.124261 215.255769 
L 306.64608 215.255769 
L 306.64608 209.065685 
L 308.167898 209.065685 
L 308.167898 194.881828 
L 309.689716 194.881828 
L 309.689716 154.525886 
L 311.211534 154.525886 
L 311.211534 80.988329 
L 312.733352 80.988329 
L 312.733352 54.811046 
L 314.25517 54.811046 
L 314.25517 68.076256 
L 315.776989 68.076256 
L 315.776989 39.624628 
L 317.298807 39.624628 
L 317.298807 20.211096 
L 318.820625 20.211096 
L 318.820625 66.005865 
L 320.342443 66.005865 
L 320.342443 151.459074 
L 321.864261 151.459074 
L 321.864261 197.093566 
L 323.38608 197.093566 
L 323.38608 214.188723 
L 324.907898 214.188723 
L 324.907898 217.453919 
L 326.429716 217.453919 
L 326.429716 217.826428 
L 327.951534 217.826428 
L 327.951534 218.105249 
L 329.473352 218.105249 
L 329.473352 218.714167 
L 332.516989 218.675752 
L 332.516989 217.974124 
L 334.038807 217.974124 
L 334.038807 218.487454 
L 335.560625 218.487454 
L 335.560625 218.126543 
L 338.604261 218.03608 
L 338.604261 218.425695 
L 340.12608 218.425695 
L 340.12608 218.142646 
L 341.647898 218.142646 
L 341.647898 218.342797 
L 347.73517 218.398374 
L 347.73517 218.523484 
L 350.778807 218.583736 
L 350.778807 218.226348 
L 353.822443 218.297218 
L 353.822443 218.297218 
" clip-path="url(#pbf7784cf4a)" style="fill: none; stroke: #1f77b4; stroke-width: 1.5; stroke-linecap: square"/>
   </g>
   <g id="LineCollection_1">
    <path d="M 50.219716 212.253743 
L 50.219716 210.737853 
" clip-path="url(#pbf7784cf4a)" style="fill: none; stroke: #1f77b4; stroke-width: 1.5"/>
    <path d="M 51.741534 212.089062 
L 51.741534 210.503406 
" clip-path="url(#pbf7784cf4a)" style="fill: none; stroke: #1f77b4; stroke-width: 1.5"/>
    <path d="M 53.263352 212.27465 
L 53.263352 210.923145 
" clip-path="url(#pbf7784cf4a)" style="fill: none; stroke: #1f77b4; stroke-width: 1.5"/>
    <path d="M 54.78517 213.588656 
L 54.78517 212.341792 
" clip-path="url(#pbf7784cf4a)" style="fill: none; stroke: #1f77b4; stroke-width: 1.5"/>
    <path d="M 56.306989 209.89641 
L 56.306989 208.453576 
" clip-path="url(#pbf7784cf4a)" style="fill: none; stroke: #1f77b4; stroke-width: 1.5"/>
    <path d="M 57.828807 214.488417 
L 57.828807 213.371302 
" clip-path="url(#pbf7784cf4a)" style="fill: none; stroke: #1f77b4; stroke-width: 1.5"/>
    <path d="M 59.350625 215.279172 
L 59.350625 214.223316 
" clip-path="url(#pbf7784cf4a)" style="fill: none; stroke: #1f77b4; stroke-width: 1.5"/>
    <path d="M 60.872443 214.425706 
L 60.872443 213.390631 
" clip-path="url(#pbf7784cf4a)" style="fill: none; stroke: #1f77b4; stroke-width: 1.5"/>
    <path d="M 62.394261 211.318894 
L 62.394261 210.083816 
" clip-path="url(#pbf7784cf4a)" style="fill: none; stroke: #1f77b4; stroke-width: 1.5"/>
    <path d="M 63.91608 211.658086 
L 63.91608 210.481307 
" clip-path="url(#pbf7784cf4a)" style="fill: none; stroke: #1f77b4; stroke-width: 1.5"/>
    <path d="M 65.437898 212.744309 
L 65.437898 211.633443 
" clip-path="url(#pbf7784cf4a)" style="fill: none; stroke: #1f77b4; stroke-width: 1.5"/>
    <path d="M 66.959716 213.229671 
L 66.959716 212.177897 
" clip-path="url(#pbf7784cf4a)" style="fill: none; stroke: #1f77b4; stroke-width: 1.5"/>
    <path d="M 68.481534 209.293463 
L 68.481534 208.061302 
" clip-path="url(#pbf7784cf4a)" style="fill: none; stroke: #1f77b4; stroke-width: 1.5"/>
    <path d="M 70.003352 215.389503 
L 70.003352 214.580951 
" clip-path="url(#pbf7784cf4a)" style="fill: none; stroke: #1f77b4; stroke-width: 1.5"/>
    <path d="M 71.52517 204.672888 
L 71.52517 203.178295 
" clip-path="url(#pbf7784cf4a)" style="fill: none; stroke: #1f77b4; stroke-width: 1.5"/>
    <path d="M 73.046989 205.157366 
L 73.046989 203.667734 
" clip-path="url(#pbf7784cf4a)" style="fill: none; stroke: #1f77b4; stroke-width: 1.5"/>
    <path d="M 74.568807 211.783364 
L 74.568807 210.878238 
" clip-path="url(#pbf7784cf4a)" style="fill: none; stroke: #1f77b4; stroke-width: 1.5"/>
    <path d="M 76.090625 215.592072 
L 76.090625 214.833851 
" clip-path="url(#pbf7784cf4a)" style="fill: none; stroke: #1f77b4; stroke-width: 1.5"/>
    <path d="M 77.612443 210.202023 
L 77.612443 209.202304 
" clip-path="url(#pbf7784cf4a)" style="fill: none; stroke: #1f77b4; stroke-width: 1.5"/>
    <path d="M 79.134261 217.442369 
L 79.134261 216.818478 
" clip-path="url(#pbf7784cf4a)" style="fill: none; stroke: #1f77b4; stroke-width: 1.5"/>
    <path d="M 80.65608 208.358048 
L 80.65608 207.313084 
" clip-path="url(#pbf7784cf4a)" style="fill: none; stroke: #1f77b4; stroke-width: 1.5"/>
    <path d="M 82.177898 214.81144 
L 82.177898 214.111465 
" clip-path="url(#pbf7784cf4a)" style="fill: none; stroke: #1f77b4; stroke-width: 1.5"/>
    <path d="M 83.699716 214.882333 
L 83.699716 214.142633 
" clip-path="url(#pbf7784cf4a)" style="fill: none; stroke: #1f77b4; stroke-width: 1.5"/>
    <path d="M 85.221534 217.557904 
L 85.221534 217.01973 
" clip-path="url(#pbf7784cf4a)" style="fill: none; stroke: #1f77b4; stroke-width: 1.5"/>
    <path d="M 86.743352 200.973097 
L 86.743352 199.79649 
" clip-path="url(#pbf7784cf4a)" style="fill: none; stroke: #1f77b4; stroke-width: 1.5"/>
    <path d="M 88.26517 207.156008 
L 88.26517 206.268908 
" clip-path="url(#pbf7784cf4a)" style="fill: none; stroke: #1f77b4; stroke-width: 1.5"/>
    <path d="M 89.786989 210.270703 
L 89.786989 209.539888 
" clip-path="url(#pbf7784cf4a)" style="fill: none; stroke: #1f77b4; stroke-width: 1.5"/>
    <path d="M 91.308807 216.450033 
L 91.308807 215.935678 
" clip-path="url(#pbf7784cf4a)" style="fill: none; stroke: #1f77b4; stroke-width: 1.5"/>
    <path d="M 92.830625 203.429282 
L 92.830625 202.245408 
" clip-path="url(#pbf7784cf4a)" style="fill: none; stroke: #1f77b4; stroke-width: 1.5"/>
    <path d="M 94.352443 194.715504 
L 94.352443 193.337298 
" clip-path="url(#pbf7784cf4a)" style="fill: none; stroke: #1f77b4; stroke-width: 1.5"/>
    <path d="M 95.874261 217.357611 
L 95.874261 216.922769 
" clip-path="url(#pbf7784cf4a)" style="fill: none; stroke: #1f77b4; stroke-width: 1.5"/>
    <path d="M 97.39608 217.424237 
L 97.39608 217.006601 
" clip-path="url(#pbf7784cf4a)" style="fill: none; stroke: #1f77b4; stroke-width: 1.5"/>
    <path d="M 98.917898 211.562925 
L 98.917898 211.007114 
" clip-path="url(#pbf7784cf4a)" style="fill: none; stroke: #1f77b4; stroke-width: 1.5"/>
    <path d="M 100.439716 216.610096 
L 100.439716 216.20028 
" clip-path="url(#pbf7784cf4a)" style="fill: none; stroke: #1f77b4; stroke-width: 1.5"/>
    <path d="M 101.961534 216.844334 
L 101.961534 216.454895 
" clip-path="url(#pbf7784cf4a)" style="fill: none; stroke: #1f77b4; stroke-width: 1.5"/>
    <path d="M 103.483352 214.739792 
L 103.483352 214.23179 
" clip-path="url(#pbf7784cf4a)" style="fill: none; stroke: #1f77b4; stroke-width: 1.5"/>
    <path d="M 105.00517 173.24662 
L 105.00517 171.376195 
" clip-path="url(#pbf7784cf4a)" style="fill: none; stroke: #1f77b4; stroke-width: 1.5"/>
    <path d="M 106.526989 201.548427 
L 106.526989 200.688017 
" clip-path="url(#pbf7784cf4a)" style="fill: none; stroke: #1f77b4; stroke-width: 1.5"/>
    <path d="M 108.048807 199.202779 
L 108.048807 198.278313 
" clip-path="url(#pbf7784cf4a)" style="fill: none; stroke: #1f77b4; stroke-width: 1.5"/>
    <path d="M 109.570625 196.385255 
L 109.570625 195.47456 
" clip-path="url(#pbf7784cf4a)" style="fill: none; stroke: #1f77b4; stroke-width: 1.5"/>
    <path d="M 111.092443 215.945902 
L 111.092443 215.587956 
" clip-path="url(#pbf7784cf4a)" style="fill: none; stroke: #1f77b4; stroke-width: 1.5"/>
    <path d="M 112.614261 205.693811 
L 112.614261 205.130185 
" clip-path="url(#pbf7784cf4a)" style="fill: none; stroke: #1f77b4; stroke-width: 1.5"/>
    <path d="M 114.13608 215.408187 
L 114.13608 215.069476 
" clip-path="url(#pbf7784cf4a)" style="fill: none; stroke: #1f77b4; stroke-width: 1.5"/>
    <path d="M 115.657898 217.129936 
L 115.657898 216.811942 
" clip-path="url(#pbf7784cf4a)" style="fill: none; stroke: #1f77b4; stroke-width: 1.5"/>
    <path d="M 117.179716 216.811994 
L 117.179716 216.502183 
" clip-path="url(#pbf7784cf4a)" style="fill: none; stroke: #1f77b4; stroke-width: 1.5"/>
    <path d="M 118.701534 216.284326 
L 118.701534 215.966438 
" clip-path="url(#pbf7784cf4a)" style="fill: none; stroke: #1f77b4; stroke-width: 1.5"/>
    <path d="M 120.223352 206.872884 
L 120.223352 206.350611 
" clip-path="url(#pbf7784cf4a)" style="fill: none; stroke: #1f77b4; stroke-width: 1.5"/>
    <path d="M 121.74517 200.380205 
L 121.74517 199.756231 
" clip-path="url(#pbf7784cf4a)" style="fill: none; stroke: #1f77b4; stroke-width: 1.5"/>
    <path d="M 123.266989 216.996934 
L 123.266989 216.712797 
" clip-path="url(#pbf7784cf4a)" style="fill: none; stroke: #1f77b4; stroke-width: 1.5"/>
    <path d="M 124.788807 217.46267 
L 124.788807 217.188202 
" clip-path="url(#pbf7784cf4a)" style="fill: none; stroke: #1f77b4; stroke-width: 1.5"/>
    <path d="M 126.310625 217.245584 
L 126.310625 216.967782 
" clip-path="url(#pbf7784cf4a)" style="fill: none; stroke: #1f77b4; stroke-width: 1.5"/>
    <path d="M 127.832443 217.391917 
L 127.832443 217.126672 
" clip-path="url(#pbf7784cf4a)" style="fill: none; stroke: #1f77b4; stroke-width: 1.5"/>
    <path d="M 129.354261 216.561301 
L 129.354261 216.281188 
" clip-path="url(#pbf7784cf4a)" style="fill: none; stroke: #1f77b4; stroke-width: 1.5"/>
    <path d="M 130.87608 206.154508 
L 130.87608 205.708034 
" clip-path="url(#pbf7784cf4a)" style="fill: none; stroke: #1f77b4; stroke-width: 1.5"/>
    <path d="M 132.397898 203.993757 
L 132.397898 203.508158 
" clip-path="url(#pbf7784cf4a)" style="fill: none; stroke: #1f77b4; stroke-width: 1.5"/>
    <path d="M 133.919716 216.863392 
L 133.919716 216.601252 
" clip-path="url(#pbf7784cf4a)" style="fill: none; stroke: #1f77b4; stroke-width: 1.5"/>
    <path d="M 135.441534 217.406517 
L 135.441534 217.157028 
" clip-path="url(#pbf7784cf4a)" style="fill: none; stroke: #1f77b4; stroke-width: 1.5"/>
    <path d="M 136.963352 217.194738 
L 136.963352 216.941081 
" clip-path="url(#pbf7784cf4a)" style="fill: none; stroke: #1f77b4; stroke-width: 1.5"/>
    <path d="M 138.48517 217.355582 
L 138.48517 217.107047 
" clip-path="url(#pbf7784cf4a)" style="fill: none; stroke: #1f77b4; stroke-width: 1.5"/>
    <path d="M 140.006989 217.391727 
L 140.006989 217.145179 
" clip-path="url(#pbf7784cf4a)" style="fill: none; stroke: #1f77b4; stroke-width: 1.5"/>
    <path d="M 141.528807 214.166004 
L 141.528807 213.835696 
" clip-path="url(#pbf7784cf4a)" style="fill: none; stroke: #1f77b4; stroke-width: 1.5"/>
    <path d="M 143.050625 197.235283 
L 143.050625 196.584423 
" clip-path="url(#pbf7784cf4a)" style="fill: none; stroke: #1f77b4; stroke-width: 1.5"/>
    <path d="M 144.572443 165.819011 
L 144.572443 164.627515 
" clip-path="url(#pbf7784cf4a)" style="fill: none; stroke: #1f77b4; stroke-width: 1.5"/>
    <path d="M 146.094261 210.056912 
L 146.094261 209.66115 
" clip-path="url(#pbf7784cf4a)" style="fill: none; stroke: #1f77b4; stroke-width: 1.5"/>
    <path d="M 147.61608 217.616512 
L 147.61608 217.379889 
" clip-path="url(#pbf7784cf4a)" style="fill: none; stroke: #1f77b4; stroke-width: 1.5"/>
    <path d="M 149.137898 214.673757 
L 149.137898 214.297939 
" clip-path="url(#pbf7784cf4a)" style="fill: none; stroke: #1f77b4; stroke-width: 1.5"/>
    <path d="M 150.659716 182.171758 
L 150.659716 181.177486 
" clip-path="url(#pbf7784cf4a)" style="fill: none; stroke: #1f77b4; stroke-width: 1.5"/>
    <path d="M 152.181534 100.992872 
L 152.181534 98.565739 
" clip-path="url(#pbf7784cf4a)" style="fill: none; stroke: #1f77b4; stroke-width: 1.5"/>
    <path d="M 153.703352 198.351325 
L 153.703352 197.637353 
" clip-path="url(#pbf7784cf4a)" style="fill: none; stroke: #1f77b4; stroke-width: 1.5"/>
    <path d="M 155.22517 217.701047 
L 155.22517 217.472711 
" clip-path="url(#pbf7784cf4a)" style="fill: none; stroke: #1f77b4; stroke-width: 1.5"/>
    <path d="M 156.746989 217.747007 
L 156.746989 217.523112 
" clip-path="url(#pbf7784cf4a)" style="fill: none; stroke: #1f77b4; stroke-width: 1.5"/>
    <path d="M 158.268807 216.769068 
L 158.268807 216.527108 
" clip-path="url(#pbf7784cf4a)" style="fill: none; stroke: #1f77b4; stroke-width: 1.5"/>
    <path d="M 159.790625 211.967022 
L 159.790625 211.669981 
" clip-path="url(#pbf7784cf4a)" style="fill: none; stroke: #1f77b4; stroke-width: 1.5"/>
    <path d="M 161.312443 204.958821 
L 161.312443 204.549708 
" clip-path="url(#pbf7784cf4a)" style="fill: none; stroke: #1f77b4; stroke-width: 1.5"/>
    <path d="M 162.834261 214.842079 
L 162.834261 214.571059 
" clip-path="url(#pbf7784cf4a)" style="fill: none; stroke: #1f77b4; stroke-width: 1.5"/>
    <path d="M 164.35608 216.366885 
L 164.35608 216.111144 
" clip-path="url(#pbf7784cf4a)" style="fill: none; stroke: #1f77b4; stroke-width: 1.5"/>
    <path d="M 165.877898 217.574613 
L 165.877898 217.345202 
" clip-path="url(#pbf7784cf4a)" style="fill: none; stroke: #1f77b4; stroke-width: 1.5"/>
    <path d="M 167.399716 217.59235 
L 167.399716 217.363223 
" clip-path="url(#pbf7784cf4a)" style="fill: none; stroke: #1f77b4; stroke-width: 1.5"/>
    <path d="M 168.921534 217.628486 
L 168.921534 217.402956 
" clip-path="url(#pbf7784cf4a)" style="fill: none; stroke: #1f77b4; stroke-width: 1.5"/>
    <path d="M 170.443352 217.747346 
L 170.443352 217.521568 
" clip-path="url(#pbf7784cf4a)" style="fill: none; stroke: #1f77b4; stroke-width: 1.5"/>
    <path d="M 171.96517 217.776617 
L 171.96517 217.553775 
" clip-path="url(#pbf7784cf4a)" style="fill: none; stroke: #1f77b4; stroke-width: 1.5"/>
    <path d="M 173.486989 217.922036 
L 173.486989 217.702222 
" clip-path="url(#pbf7784cf4a)" style="fill: none; stroke: #1f77b4; stroke-width: 1.5"/>
    <path d="M 175.008807 217.850946 
L 175.008807 217.631267 
" clip-path="url(#pbf7784cf4a)" style="fill: none; stroke: #1f77b4; stroke-width: 1.5"/>
    <path d="M 176.530625 217.808092 
L 176.530625 217.588058 
" clip-path="url(#pbf7784cf4a)" style="fill: none; stroke: #1f77b4; stroke-width: 1.5"/>
    <path d="M 178.052443 217.414018 
L 178.052443 217.175644 
" clip-path="url(#pbf7784cf4a)" style="fill: none; stroke: #1f77b4; stroke-width: 1.5"/>
    <path d="M 179.574261 212.263672 
L 179.574261 211.883353 
" clip-path="url(#pbf7784cf4a)" style="fill: none; stroke: #1f77b4; stroke-width: 1.5"/>
    <path d="M 181.09608 188.432666 
L 181.09608 187.631954 
" clip-path="url(#pbf7784cf4a)" style="fill: none; stroke: #1f77b4; stroke-width: 1.5"/>
    <path d="M 182.617898 55.311948 
L 182.617898 52.241119 
" clip-path="url(#pbf7784cf4a)" style="fill: none; stroke: #1f77b4; stroke-width: 1.5"/>
    <path d="M 184.139716 109.818989 
L 184.139716 107.558948 
" clip-path="url(#pbf7784cf4a)" style="fill: none; stroke: #1f77b4; stroke-width: 1.5"/>
    <path d="M 185.661534 211.9237 
L 185.661534 211.546487 
" clip-path="url(#pbf7784cf4a)" style="fill: none; stroke: #1f77b4; stroke-width: 1.5"/>
    <path d="M 187.183352 217.726869 
L 187.183352 217.51208 
" clip-path="url(#pbf7784cf4a)" style="fill: none; stroke: #1f77b4; stroke-width: 1.5"/>
    <path d="M 188.70517 217.75108 
L 188.70517 217.539029 
" clip-path="url(#pbf7784cf4a)" style="fill: none; stroke: #1f77b4; stroke-width: 1.5"/>
    <path d="M 190.226989 217.84157 
L 190.226989 217.630711 
" clip-path="url(#pbf7784cf4a)" style="fill: none; stroke: #1f77b4; stroke-width: 1.5"/>
    <path d="M 191.748807 217.918044 
L 191.748807 217.710865 
" clip-path="url(#pbf7784cf4a)" style="fill: none; stroke: #1f77b4; stroke-width: 1.5"/>
    <path d="M 193.270625 217.966567 
L 193.270625 217.762187 
" clip-path="url(#pbf7784cf4a)" style="fill: none; stroke: #1f77b4; stroke-width: 1.5"/>
    <path d="M 194.792443 217.998566 
L 194.792443 217.795241 
" clip-path="url(#pbf7784cf4a)" style="fill: none; stroke: #1f77b4; stroke-width: 1.5"/>
    <path d="M 196.314261 217.844641 
L 196.314261 217.636708 
" clip-path="url(#pbf7784cf4a)" style="fill: none; stroke: #1f77b4; stroke-width: 1.5"/>
    <path d="M 197.83608 217.73384 
L 197.83608 217.52477 
" clip-path="url(#pbf7784cf4a)" style="fill: none; stroke: #1f77b4; stroke-width: 1.5"/>
    <path d="M 199.357898 218.084916 
L 199.357898 217.88385 
" clip-path="url(#pbf7784cf4a)" style="fill: none; stroke: #1f77b4; stroke-width: 1.5"/>
    <path d="M 200.879716 217.817952 
L 200.879716 217.609761 
" clip-path="url(#pbf7784cf4a)" style="fill: none; stroke: #1f77b4; stroke-width: 1.5"/>
    <path d="M 202.401534 217.903267 
L 202.401534 217.699193 
" clip-path="url(#pbf7784cf4a)" style="fill: none; stroke: #1f77b4; stroke-width: 1.5"/>
    <path d="M 203.923352 217.909646 
L 203.923352 217.705482 
" clip-path="url(#pbf7784cf4a)" style="fill: none; stroke: #1f77b4; stroke-width: 1.5"/>
    <path d="M 205.44517 217.95726 
L 205.44517 217.754604 
" clip-path="url(#pbf7784cf4a)" style="fill: none; stroke: #1f77b4; stroke-width: 1.5"/>
    <path d="M 206.966989 217.860276 
L 206.966989 217.656335 
" clip-path="url(#pbf7784cf4a)" style="fill: none; stroke: #1f77b4; stroke-width: 1.5"/>
    <path d="M 208.488807 217.996076 
L 208.488807 217.793491 
" clip-path="url(#pbf7784cf4a)" style="fill: none; stroke: #1f77b4; stroke-width: 1.5"/>
    <path d="M 210.010625 217.590131 
L 210.010625 217.378985 
" clip-path="url(#pbf7784cf4a)" style="fill: none; stroke: #1f77b4; stroke-width: 1.5"/>
    <path d="M 211.532443 217.272653 
L 211.532443 217.06214 
" clip-path="url(#pbf7784cf4a)" style="fill: none; stroke: #1f77b4; stroke-width: 1.5"/>
    <path d="M 213.054261 215.018079 
L 213.054261 214.780628 
" clip-path="url(#pbf7784cf4a)" style="fill: none; stroke: #1f77b4; stroke-width: 1.5"/>
    <path d="M 214.57608 203.972764 
L 214.57608 203.583991 
" clip-path="url(#pbf7784cf4a)" style="fill: none; stroke: #1f77b4; stroke-width: 1.5"/>
    <path d="M 216.097898 198.276449 
L 216.097898 197.804519 
" clip-path="url(#pbf7784cf4a)" style="fill: none; stroke: #1f77b4; stroke-width: 1.5"/>
    <path d="M 217.619716 213.358107 
L 217.619716 213.097296 
" clip-path="url(#pbf7784cf4a)" style="fill: none; stroke: #1f77b4; stroke-width: 1.5"/>
    <path d="M 219.141534 217.435938 
L 219.141534 217.225661 
" clip-path="url(#pbf7784cf4a)" style="fill: none; stroke: #1f77b4; stroke-width: 1.5"/>
    <path d="M 220.663352 217.107051 
L 220.663352 216.887699 
" clip-path="url(#pbf7784cf4a)" style="fill: none; stroke: #1f77b4; stroke-width: 1.5"/>
    <path d="M 222.18517 214.807384 
L 222.18517 214.54505 
" clip-path="url(#pbf7784cf4a)" style="fill: none; stroke: #1f77b4; stroke-width: 1.5"/>
    <path d="M 223.706989 213.637368 
L 223.706989 213.349837 
" clip-path="url(#pbf7784cf4a)" style="fill: none; stroke: #1f77b4; stroke-width: 1.5"/>
    <path d="M 225.228807 217.007683 
L 225.228807 216.778148 
" clip-path="url(#pbf7784cf4a)" style="fill: none; stroke: #1f77b4; stroke-width: 1.5"/>
    <path d="M 226.750625 218.054131 
L 226.750625 217.850618 
" clip-path="url(#pbf7784cf4a)" style="fill: none; stroke: #1f77b4; stroke-width: 1.5"/>
    <path d="M 228.272443 218.170626 
L 228.272443 217.968191 
" clip-path="url(#pbf7784cf4a)" style="fill: none; stroke: #1f77b4; stroke-width: 1.5"/>
    <path d="M 229.794261 218.1791 
L 229.794261 217.974561 
" clip-path="url(#pbf7784cf4a)" style="fill: none; stroke: #1f77b4; stroke-width: 1.5"/>
    <path d="M 231.31608 218.292922 
L 231.31608 218.092735 
" clip-path="url(#pbf7784cf4a)" style="fill: none; stroke: #1f77b4; stroke-width: 1.5"/>
    <path d="M 232.837898 218.125957 
L 232.837898 217.918222 
" clip-path="url(#pbf7784cf4a)" style="fill: none; stroke: #1f77b4; stroke-width: 1.5"/>
    <path d="M 234.359716 218.056748 
L 234.359716 217.847324 
" clip-path="url(#pbf7784cf4a)" style="fill: none; stroke: #1f77b4; stroke-width: 1.5"/>
    <path d="M 235.881534 218.097362 
L 235.881534 217.887006 
" clip-path="url(#pbf7784cf4a)" style="fill: none; stroke: #1f77b4; stroke-width: 1.5"/>
    <path d="M 237.403352 217.814664 
L 237.403352 217.599741 
" clip-path="url(#pbf7784cf4a)" style="fill: none; stroke: #1f77b4; stroke-width: 1.5"/>
    <path d="M 238.92517 217.5913 
L 238.92517 217.370268 
" clip-path="url(#pbf7784cf4a)" style="fill: none; stroke: #1f77b4; stroke-width: 1.5"/>
    <path d="M 240.446989 217.781964 
L 240.446989 217.559869 
" clip-path="url(#pbf7784cf4a)" style="fill: none; stroke: #1f77b4; stroke-width: 1.5"/>
    <path d="M 241.968807 218.324607 
L 241.968807 218.111691 
" clip-path="url(#pbf7784cf4a)" style="fill: none; stroke: #1f77b4; stroke-width: 1.5"/>
    <path d="M 243.490625 218.183777 
L 243.490625 217.963928 
" clip-path="url(#pbf7784cf4a)" style="fill: none; stroke: #1f77b4; stroke-width: 1.5"/>
    <path d="M 245.012443 218.150211 
L 245.012443 217.926159 
" clip-path="url(#pbf7784cf4a)" style="fill: none; stroke: #1f77b4; stroke-width: 1.5"/>
    <path d="M 246.534261 218.200242 
L 246.534261 217.97562 
" clip-path="url(#pbf7784cf4a)" style="fill: none; stroke: #1f77b4; stroke-width: 1.5"/>
    <path d="M 248.05608 218.229772 
L 248.05608 218.000291 
" clip-path="url(#pbf7784cf4a)" style="fill: none; stroke: #1f77b4; stroke-width: 1.5"/>
    <path d="M 249.577898 217.930831 
L 249.577898 217.686914 
" clip-path="url(#pbf7784cf4a)" style="fill: none; stroke: #1f77b4; stroke-width: 1.5"/>
    <path d="M 251.099716 218.264111 
L 251.099716 218.032642 
" clip-path="url(#pbf7784cf4a)" style="fill: none; stroke: #1f77b4; stroke-width: 1.5"/>
    <path d="M 252.621534 218.137586 
L 252.621534 217.893601 
" clip-path="url(#pbf7784cf4a)" style="fill: none; stroke: #1f77b4; stroke-width: 1.5"/>
    <path d="M 254.143352 218.311072 
L 254.143352 218.073046 
" clip-path="url(#pbf7784cf4a)" style="fill: none; stroke: #1f77b4; stroke-width: 1.5"/>
    <path d="M 255.66517 218.242336 
L 255.66517 217.998752 
" clip-path="url(#pbf7784cf4a)" style="fill: none; stroke: #1f77b4; stroke-width: 1.5"/>
    <path d="M 257.186989 218.262028 
L 257.186989 218.014122 
" clip-path="url(#pbf7784cf4a)" style="fill: none; stroke: #1f77b4; stroke-width: 1.5"/>
    <path d="M 258.708807 218.362443 
L 258.708807 218.116706 
" clip-path="url(#pbf7784cf4a)" style="fill: none; stroke: #1f77b4; stroke-width: 1.5"/>
    <path d="M 260.230625 217.700078 
L 260.230625 217.427319 
" clip-path="url(#pbf7784cf4a)" style="fill: none; stroke: #1f77b4; stroke-width: 1.5"/>
    <path d="M 261.752443 215.990446 
L 261.752443 215.630695 
" clip-path="url(#pbf7784cf4a)" style="fill: none; stroke: #1f77b4; stroke-width: 1.5"/>
    <path d="M 263.274261 211.264201 
L 263.274261 210.764816 
" clip-path="url(#pbf7784cf4a)" style="fill: none; stroke: #1f77b4; stroke-width: 1.5"/>
    <path d="M 264.79608 198.140964 
L 264.79608 197.340309 
" clip-path="url(#pbf7784cf4a)" style="fill: none; stroke: #1f77b4; stroke-width: 1.5"/>
    <path d="M 266.317898 156.507791 
L 266.317898 154.737218 
" clip-path="url(#pbf7784cf4a)" style="fill: none; stroke: #1f77b4; stroke-width: 1.5"/>
    <path d="M 267.839716 79.166569 
L 267.839716 75.731989 
" clip-path="url(#pbf7784cf4a)" style="fill: none; stroke: #1f77b4; stroke-width: 1.5"/>
    <path d="M 269.361534 67.667777 
L 269.361534 63.99451 
" clip-path="url(#pbf7784cf4a)" style="fill: none; stroke: #1f77b4; stroke-width: 1.5"/>
    <path d="M 270.883352 36.550887 
L 270.883352 32.174385 
" clip-path="url(#pbf7784cf4a)" style="fill: none; stroke: #1f77b4; stroke-width: 1.5"/>
    <path d="M 272.40517 86.512013 
L 272.40517 83.130383 
" clip-path="url(#pbf7784cf4a)" style="fill: none; stroke: #1f77b4; stroke-width: 1.5"/>
    <path d="M 273.926989 177.030816 
L 273.926989 175.564855 
" clip-path="url(#pbf7784cf4a)" style="fill: none; stroke: #1f77b4; stroke-width: 1.5"/>
    <path d="M 275.448807 211.587684 
L 275.448807 211.056611 
" clip-path="url(#pbf7784cf4a)" style="fill: none; stroke: #1f77b4; stroke-width: 1.5"/>
    <path d="M 276.970625 217.658003 
L 276.970625 217.35724 
" clip-path="url(#pbf7784cf4a)" style="fill: none; stroke: #1f77b4; stroke-width: 1.5"/>
    <path d="M 278.492443 218.191179 
L 278.492443 217.906835 
" clip-path="url(#pbf7784cf4a)" style="fill: none; stroke: #1f77b4; stroke-width: 1.5"/>
    <path d="M 280.014261 218.281521 
L 280.014261 217.997065 
" clip-path="url(#pbf7784cf4a)" style="fill: none; stroke: #1f77b4; stroke-width: 1.5"/>
    <path d="M 281.53608 218.287669 
L 281.53608 218.001189 
" clip-path="url(#pbf7784cf4a)" style="fill: none; stroke: #1f77b4; stroke-width: 1.5"/>
    <path d="M 283.057898 218.560461 
L 283.057898 218.280396 
" clip-path="url(#pbf7784cf4a)" style="fill: none; stroke: #1f77b4; stroke-width: 1.5"/>
    <path d="M 284.579716 218.558216 
L 284.579716 218.276395 
" clip-path="url(#pbf7784cf4a)" style="fill: none; stroke: #1f77b4; stroke-width: 1.5"/>
    <path d="M 286.101534 218.131606 
L 286.101534 217.834915 
" clip-path="url(#pbf7784cf4a)" style="fill: none; stroke: #1f77b4; stroke-width: 1.5"/>
    <path d="M 287.623352 218.222484 
L 287.623352 217.925105 
" clip-path="url(#pbf7784cf4a)" style="fill: none; stroke: #1f77b4; stroke-width: 1.5"/>
    <path d="M 289.14517 218.348569 
L 289.14517 218.053374 
" clip-path="url(#pbf7784cf4a)" style="fill: none; stroke: #1f77b4; stroke-width: 1.5"/>
    <path d="M 290.666989 218.503117 
L 290.666989 218.215209 
" clip-path="url(#pbf7784cf4a)" style="fill: none; stroke: #1f77b4; stroke-width: 1.5"/>
    <path d="M 292.188807 218.255976 
L 292.188807 217.953446 
" clip-path="url(#pbf7784cf4a)" style="fill: none; stroke: #1f77b4; stroke-width: 1.5"/>
    <path d="M 293.710625 218.148311 
L 293.710625 217.841301 
" clip-path="url(#pbf7784cf4a)" style="fill: none; stroke: #1f77b4; stroke-width: 1.5"/>
    <path d="M 295.232443 218.233854 
L 295.232443 217.924095 
" clip-path="url(#pbf7784cf4a)" style="fill: none; stroke: #1f77b4; stroke-width: 1.5"/>
    <path d="M 296.754261 218.190314 
L 296.754261 217.879654 
" clip-path="url(#pbf7784cf4a)" style="fill: none; stroke: #1f77b4; stroke-width: 1.5"/>
    <path d="M 298.27608 218.364131 
L 298.27608 218.05645 
" clip-path="url(#pbf7784cf4a)" style="fill: none; stroke: #1f77b4; stroke-width: 1.5"/>
    <path d="M 299.797898 218.000877 
L 299.797898 217.67925 
" clip-path="url(#pbf7784cf4a)" style="fill: none; stroke: #1f77b4; stroke-width: 1.5"/>
    <path d="M 301.319716 218.400315 
L 301.319716 218.088304 
" clip-path="url(#pbf7784cf4a)" style="fill: none; stroke: #1f77b4; stroke-width: 1.5"/>
    <path d="M 302.841534 218.155825 
L 302.841534 217.819288 
" clip-path="url(#pbf7784cf4a)" style="fill: none; stroke: #1f77b4; stroke-width: 1.5"/>
    <path d="M 304.363352 217.320029 
L 304.363352 216.929764 
" clip-path="url(#pbf7784cf4a)" style="fill: none; stroke: #1f77b4; stroke-width: 1.5"/>
    <path d="M 305.88517 215.513337 
L 305.88517 214.998202 
" clip-path="url(#pbf7784cf4a)" style="fill: none; stroke: #1f77b4; stroke-width: 1.5"/>
    <path d="M 307.406989 209.429706 
L 307.406989 208.701664 
" clip-path="url(#pbf7784cf4a)" style="fill: none; stroke: #1f77b4; stroke-width: 1.5"/>
    <path d="M 308.928807 195.43258 
L 308.928807 194.331076 
" clip-path="url(#pbf7784cf4a)" style="fill: none; stroke: #1f77b4; stroke-width: 1.5"/>
    <path d="M 310.450625 155.626198 
L 310.450625 153.425574 
" clip-path="url(#pbf7784cf4a)" style="fill: none; stroke: #1f77b4; stroke-width: 1.5"/>
    <path d="M 311.972443 83.084529 
L 311.972443 78.892129 
" clip-path="url(#pbf7784cf4a)" style="fill: none; stroke: #1f77b4; stroke-width: 1.5"/>
    <path d="M 313.494261 57.257115 
L 313.494261 52.364977 
" clip-path="url(#pbf7784cf4a)" style="fill: none; stroke: #1f77b4; stroke-width: 1.5"/>
    <path d="M 315.01608 70.36116 
L 315.01608 65.791352 
" clip-path="url(#pbf7784cf4a)" style="fill: none; stroke: #1f77b4; stroke-width: 1.5"/>
    <path d="M 316.537898 42.273713 
L 316.537898 36.975543 
" clip-path="url(#pbf7784cf4a)" style="fill: none; stroke: #1f77b4; stroke-width: 1.5"/>
    <path d="M 318.059716 23.142193 
L 318.059716 17.28 
" clip-path="url(#pbf7784cf4a)" style="fill: none; stroke: #1f77b4; stroke-width: 1.5"/>
    <path d="M 319.581534 68.396114 
L 319.581534 63.615616 
" clip-path="url(#pbf7784cf4a)" style="fill: none; stroke: #1f77b4; stroke-width: 1.5"/>
    <path d="M 321.103352 152.718344 
L 321.103352 150.199805 
" clip-path="url(#pbf7784cf4a)" style="fill: none; stroke: #1f77b4; stroke-width: 1.5"/>
    <path d="M 322.62517 197.68344 
L 322.62517 196.503692 
" clip-path="url(#pbf7784cf4a)" style="fill: none; stroke: #1f77b4; stroke-width: 1.5"/>
    <path d="M 324.146989 214.456319 
L 324.146989 213.921128 
" clip-path="url(#pbf7784cf4a)" style="fill: none; stroke: #1f77b4; stroke-width: 1.5"/>
    <path d="M 325.668807 217.646533 
L 325.668807 217.261304 
" clip-path="url(#pbf7784cf4a)" style="fill: none; stroke: #1f77b4; stroke-width: 1.5"/>
    <path d="M 327.190625 218.00782 
L 327.190625 217.645036 
" clip-path="url(#pbf7784cf4a)" style="fill: none; stroke: #1f77b4; stroke-width: 1.5"/>
    <path d="M 328.712443 218.281315 
L 328.712443 217.929182 
" clip-path="url(#pbf7784cf4a)" style="fill: none; stroke: #1f77b4; stroke-width: 1.5"/>
    <path d="M 330.234261 218.88 
L 330.234261 218.548335 
" clip-path="url(#pbf7784cf4a)" style="fill: none; stroke: #1f77b4; stroke-width: 1.5"/>
    <path d="M 331.75608 218.840455 
L 331.75608 218.51105 
" clip-path="url(#pbf7784cf4a)" style="fill: none; stroke: #1f77b4; stroke-width: 1.5"/>
    <path d="M 333.277898 218.155966 
L 333.277898 217.792281 
" clip-path="url(#pbf7784cf4a)" style="fill: none; stroke: #1f77b4; stroke-width: 1.5"/>
    <path d="M 334.799716 218.65965 
L 334.799716 218.315258 
" clip-path="url(#pbf7784cf4a)" style="fill: none; stroke: #1f77b4; stroke-width: 1.5"/>
    <path d="M 336.321534 218.306843 
L 336.321534 217.946243 
" clip-path="url(#pbf7784cf4a)" style="fill: none; stroke: #1f77b4; stroke-width: 1.5"/>
    <path d="M 337.843352 218.219922 
L 337.843352 217.852238 
" clip-path="url(#pbf7784cf4a)" style="fill: none; stroke: #1f77b4; stroke-width: 1.5"/>
    <path d="M 339.36517 218.603252 
L 339.36517 218.248137 
" clip-path="url(#pbf7784cf4a)" style="fill: none; stroke: #1f77b4; stroke-width: 1.5"/>
    <path d="M 340.886989 218.326742 
L 340.886989 217.958551 
" clip-path="url(#pbf7784cf4a)" style="fill: none; stroke: #1f77b4; stroke-width: 1.5"/>
    <path d="M 342.408807 218.523714 
L 342.408807 218.16188 
" clip-path="url(#pbf7784cf4a)" style="fill: none; stroke: #1f77b4; stroke-width: 1.5"/>
    <path d="M 343.930625 218.433053 
L 343.930625 218.068274 
" clip-path="url(#pbf7784cf4a)" style="fill: none; stroke: #1f77b4; stroke-width: 1.5"/>
    <path d="M 345.452443 218.432512 
L 345.452443 218.056659 
" clip-path="url(#pbf7784cf4a)" style="fill: none; stroke: #1f77b4; stroke-width: 1.5"/>
    <path d="M 346.974261 218.581627 
L 346.974261 218.21512 
" clip-path="url(#pbf7784cf4a)" style="fill: none; stroke: #1f77b4; stroke-width: 1.5"/>
    <path d="M 348.49608 218.704094 
L 348.49608 218.342874 
" clip-path="url(#pbf7784cf4a)" style="fill: none; stroke: #1f77b4; stroke-width: 1.5"/>
    <path d="M 350.017898 218.761808 
L 350.017898 218.405663 
" clip-path="url(#pbf7784cf4a)" style="fill: none; stroke: #1f77b4; stroke-width: 1.5"/>
    <path d="M 351.539716 218.415591 
L 351.539716 218.037105 
" clip-path="url(#pbf7784cf4a)" style="fill: none; stroke: #1f77b4; stroke-width: 1.5"/>
    <path d="M 353.061534 218.485623 
L 353.061534 218.108812 
" clip-path="url(#pbf7784cf4a)" style="fill: none; stroke: #1f77b4; stroke-width: 1.5"/>
   </g>
  </g>
 </g>
 <defs>
  <clipPath id="pbf7784cf4a">
   <rect x="34.240625" y="7.2" width="334.8" height="221.76"/>
  </clipPath>
 </defs>
</svg>