<?xml version="1.0" encoding="utf-8" standalone="no"?>
<!DOCTYPE svg PUBLIC "-//W3C//DTD SVG 1.1//EN"
  "http://www.w3.org/Graphics/SVG/1.1/DTD/svg11.dtd">
<svg xmlns:xlink="http://www.w3.org/1999/xlink" width="423.392569pt" height="279.99625pt" viewBox="0 0 423.392569 279.99625" xmlns="http://www.w3.org/2000/svg" version="1.1">
 <metadata>
  <rdf:RDF xmlns:dc="http://purl.org/dc/elements/1.1/" xmlns:cc="http://creativecommons.org/ns#" xmlns:rdf="http://www.w3.org/1999/02/22-rdf-syntax-ns#">
   <cc:Work>
    <dc:type rdf:resource="http://purl.org/dc/dcmitype/StillImage"/>
    <dc:date>2024-06-05T11:39:38.052348</dc:date>
    <dc:format>image/svg+xml</dc:format>
    <dc:creator>
     <cc:Agent>
      <dc:title>Matplotlib v3.9.0, https://matplotlib.org/</dc:title>
     </cc:Agent>
    </dc:creator>
   </cc:Work>
  </rdf:RDF>
 </metadata>
 <defs>
  <style type="text/css">*{stroke-linejoin: round; stroke-linecap: butt}</style>
 </defs>
 <g id="figure_1">
  <g id="patch_1">
   <path d="M 0 279.99625 
L 423.392569 279.99625 
L 423.392569 0 
L 0 0 
z
" style="fill: #ffffff"/>
  </g>
  <g id="axes_1">
   <g id="patch_2">
    <path d="M 45.478125 242.44 
L 414.304889 242.44 
L 414.304889 7.2 
L 45.478125 7.2 
z
" style="fill: #ffffff"/>
   </g>
   <g id="matplotlib.axis_1">
    <g id="xtick_1">
     <g id="line2d_1">
      <defs>
       <path id="md643f128b6" d="M 0 0 
L 0 3.5 
" style="stroke: #000000; stroke-width: 0.8"/>
      </defs>
      <g>
       <use xlink:href="#md643f128b6" x="51.542008" y="242.44" style="stroke: #000000; stroke-width: 0.8"/>
      </g>
     </g>
     <g id="text_1">
      <!-- 0.0 -->
      <g transform="translate(43.590445 257.038437) scale(0.1 -0.1)">
       <defs>
        <path id="DejaVuSans-30" d="M 2034 4250 
Q 1547 4250 1301 3770 
Q 1056 3291 1056 2328 
Q 1056 1369 1301 889 
Q 1547 409 2034 409 
Q 2525 409 2770 889 
Q 3016 1369 3016 2328 
Q 3016 3291 2770 3770 
Q 2525 4250 2034 4250 
z
M 2034 4750 
Q 2819 4750 3233 4129 
Q 3647 3509 3647 2328 
Q 3647 1150 3233 529 
Q 2819 -91 2034 -91 
Q 1250 -91 836 529 
Q 422 1150 422 2328 
Q 422 3509 836 4129 
Q 1250 4750 2034 4750 
z
" transform="scale(0.015625)"/>
        <path id="DejaVuSans-2e" d="M 684 794 
L 1344 794 
L 1344 0 
L 684 0 
L 684 794 
z
" transform="scale(0.015625)"/>
       </defs>
       <use xlink:href="#DejaVuSans-30"/>
       <use xlink:href="#DejaVuSans-2e" x="63.623047"/>
       <use xlink:href="#DejaVuSans-30" x="95.410156"/>
      </g>
     </g>
    </g>
    <g id="xtick_2">
     <g id="line2d_2">
      <g>
       <use xlink:href="#md643f128b6" x="122.881808" y="242.44" style="stroke: #000000; stroke-width: 0.8"/>
      </g>
     </g>
     <g id="text_2">
      <!-- 0.1 -->
      <g transform="translate(114.930245 257.038437) scale(0.1 -0.1)">
       <defs>
        <path id="DejaVuSans-31" d="M 794 531 
L 1825 531 
L 1825 4091 
L 703 3866 
L 703 4441 
L 1819 4666 
L 2450 4666 
L 2450 531 
L 3481 531 
L 3481 0 
L 794 0 
L 794 531 
z
" transform="scale(0.015625)"/>
       </defs>
       <use xlink:href="#DejaVuSans-30"/>
       <use xlink:href="#DejaVuSans-2e" x="63.623047"/>
       <use xlink:href="#DejaVuSans-31" x="95.410156"/>
      </g>
     </g>
    </g>
    <g id="xtick_3">
     <g id="line2d_3">
      <g>
       <use xlink:href="#md643f128b6" x="194.221607" y="242.44" style="stroke: #000000; stroke-width: 0.8"/>
      </g>
     </g>
     <g id="text_3">
      <!-- 0.2 -->
      <g transform="translate(186.270045 257.038437) scale(0.1 -0.1)">
       <defs>
        <path id="DejaVuSans-32" d="M 1228 531 
L 3431 531 
L 3431 0 
L 469 0 
L 469 531 
Q 828 903 1448 1529 
Q 2069 2156 2228 2338 
Q 2531 2678 2651 2914 
Q 2772 3150 2772 3378 
Q 2772 3750 2511 3984 
Q 2250 4219 1831 4219 
Q 1534 4219 1204 4116 
Q 875 4013 500 3803 
L 500 4441 
Q 881 4594 1212 4672 
Q 1544 4750 1819 4750 
Q 2544 4750 2975 4387 
Q 3406 4025 3406 3419 
Q 3406 3131 3298 2873 
Q 3191 2616 2906 2266 
Q 2828 2175 2409 1742 
Q 1991 1309 1228 531 
z
" transform="scale(0.015625)"/>
       </defs>
       <use xlink:href="#DejaVuSans-30"/>
       <use xlink:href="#DejaVuSans-2e" x="63.623047"/>
       <use xlink:href="#DejaVuSans-32" x="95.410156"/>
      </g>
     </g>
    </g>
    <g id="xtick_4">
     <g id="line2d_4">
      <g>
       <use xlink:href="#md643f128b6" x="265.561407" y="242.44" style="stroke: #000000; stroke-width: 0.8"/>
      </g>
     </g>
     <g id="text_4">
      <!-- 0.3 -->
      <g transform="translate(257.609844 257.038437) scale(0.1 -0.1)">
       <defs>
        <path id="DejaVuSans-33" d="M 2597 2516 
Q 3050 2419 3304 2112 
Q 3559 1806 3559 1356 
Q 3559 666 3084 287 
Q 2609 -91 1734 -91 
Q 1441 -91 1130 -33 
Q 819 25 488 141 
L 488 750 
Q 750 597 1062 519 
Q 1375 441 1716 441 
Q 2309 441 2620 675 
Q 2931 909 2931 1356 
Q 2931 1769 2642 2001 
Q 2353 2234 1838 2234 
L 1294 2234 
L 1294 2753 
L 1863 2753 
Q 2328 2753 2575 2939 
Q 2822 3125 2822 3475 
Q 2822 3834 2567 4026 
Q 2313 4219 1838 4219 
Q 1578 4219 1281 4162 
Q 984 4106 628 3988 
L 628 4550 
Q 988 4650 1302 4700 
Q 1616 4750 1894 4750 
Q 2613 4750 3031 4423 
Q 3450 4097 3450 3541 
Q 3450 3153 3228 2886 
Q 3006 2619 2597 2516 
z
" transform="scale(0.015625)"/>
       </defs>
       <use xlink:href="#DejaVuSans-30"/>
       <use xlink:href="#DejaVuSans-2e" x="63.623047"/>
       <use xlink:href="#DejaVuSans-33" x="95.410156"/>
      </g>
     </g>
    </g>
    <g id="xtick_5">
     <g id="line2d_5">
      <g>
       <use xlink:href="#md643f128b6" x="336.901206" y="242.44" style="stroke: #000000; stroke-width: 0.8"/>
      </g>
     </g>
     <g id="text_5">
      <!-- 0.4 -->
      <g transform="translate(328.949644 257.038437) scale(0.1 -0.1)">
       <defs>
        <path id="DejaVuSans-34" d="M 2419 4116 
L 825 1625 
L 2419 1625 
L 2419 4116 
z
M 2253 4666 
L 3047 4666 
L 3047 1625 
L 3713 1625 
L 3713 1100 
L 3047 1100 
L 3047 0 
L 2419 0 
L 2419 1100 
L 313 1100 
L 313 1709 
L 2253 4666 
z
" transform="scale(0.015625)"/>
       </defs>
       <use xlink:href="#DejaVuSans-30"/>
       <use xlink:href="#DejaVuSans-2e" x="63.623047"/>
       <use xlink:href="#DejaVuSans-34" x="95.410156"/>
      </g>
     </g>
    </g>
    <g id="xtick_6">
     <g id="line2d_6">
      <g>
       <use xlink:href="#md643f128b6" x="408.241006" y="242.44" style="stroke: #000000; stroke-width: 0.8"/>
      </g>
     </g>
     <g id="text_6">
      <!-- 0.5 -->
      <g transform="translate(400.289444 257.038437) scale(0.1 -0.1)">
       <defs>
        <path id="DejaVuSans-35" d="M 691 4666 
L 3169 4666 
L 3169 4134 
L 1269 4134 
L 1269 2991 
Q 1406 3038 1543 3061 
Q 1681 3084 1819 3084 
Q 2600 3084 3056 2656 
Q 3513 2228 3513 1497 
Q 3513 744 3044 326 
Q 2575 -91 1722 -91 
Q 1428 -91 1123 -41 
Q 819 9 494 109 
L 494 744 
Q 775 591 1075 516 
Q 1375 441 1709 441 
Q 2250 441 2565 725 
Q 2881 1009 2881 1497 
Q 2881 1984 2565 2268 
Q 2250 2553 1709 2553 
Q 1456 2553 1204 2497 
Q 953 2441 691 2322 
L 691 4666 
z
" transform="scale(0.015625)"/>
       </defs>
       <use xlink:href="#DejaVuSans-30"/>
       <use xlink:href="#DejaVuSans-2e" x="63.623047"/>
       <use xlink:href="#DejaVuSans-35" x="95.410156"/>
      </g>
     </g>
    </g>
    <g id="text_7">
     <!-- y [m] -->
     <g transform="translate(216.571194 270.716562) scale(0.1 -0.1)">
      <defs>
       <path id="DejaVuSans-79" d="M 2059 -325 
Q 1816 -950 1584 -1140 
Q 1353 -1331 966 -1331 
L 506 -1331 
L 506 -850 
L 844 -850 
Q 1081 -850 1212 -737 
Q 1344 -625 1503 -206 
L 1606 56 
L 191 3500 
L 800 3500 
L 1894 763 
L 2988 3500 
L 3597 3500 
L 2059 -325 
z
" transform="scale(0.015625)"/>
       <path id="DejaVuSans-20" transform="scale(0.015625)"/>
       <path id="DejaVuSans-5b" d="M 550 4863 
L 1875 4863 
L 1875 4416 
L 1125 4416 
L 1125 -397 
L 1875 -397 
L 1875 -844 
L 550 -844 
L 550 4863 
z
" transform="scale(0.015625)"/>
       <path id="DejaVuSans-6d" d="M 3328 2828 
Q 3544 3216 3844 3400 
Q 4144 3584 4550 3584 
Q 5097 3584 5394 3201 
Q 5691 2819 5691 2113 
L 5691 0 
L 5113 0 
L 5113 2094 
Q 5113 2597 4934 2840 
Q 4756 3084 4391 3084 
Q 3944 3084 3684 2787 
Q 3425 2491 3425 1978 
L 3425 0 
L 2847 0 
L 2847 2094 
Q 2847 2600 2669 2842 
Q 2491 3084 2119 3084 
Q 1678 3084 1418 2786 
Q 1159 2488 1159 1978 
L 1159 0 
L 581 0 
L 581 3500 
L 1159 3500 
L 1159 2956 
Q 1356 3278 1631 3431 
Q 1906 3584 2284 3584 
Q 2666 3584 2933 3390 
Q 3200 3197 3328 2828 
z
" transform="scale(0.015625)"/>
       <path id="DejaVuSans-5d" d="M 1947 4863 
L 1947 -844 
L 622 -844 
L 622 -397 
L 1369 -397 
L 1369 4416 
L 622 4416 
L 622 4863 
L 1947 4863 
z
" transform="scale(0.015625)"/>
      </defs>
      <use xlink:href="#DejaVuSans-79"/>
      <use xlink:href="#DejaVuSans-20" x="59.179688"/>
      <use xlink:href="#DejaVuSans-5b" x="90.966797"/>
      <use xlink:href="#DejaVuSans-6d" x="129.980469"/>
      <use xlink:href="#DejaVuSans-5d" x="227.392578"/>
     </g>
    </g>
   </g>
   <g id="matplotlib.axis_2">
    <g id="ytick_1">
     <g id="line2d_7">
      <defs>
       <path id="m9437345677" d="M 0 0 
L -3.5 0 
" style="stroke: #000000; stroke-width: 0.8"/>
      </defs>
      <g>
       <use xlink:href="#m9437345677" x="45.478125" y="220.222524" style="stroke: #000000; stroke-width: 0.8"/>
      </g>
     </g>
     <g id="text_8">
      <!-- $\mathdefault{10^{1}}$ -->
      <g transform="translate(20.878125 224.021743) scale(0.1 -0.1)">
       <use xlink:href="#DejaVuSans-31" transform="translate(0 0.684375)"/>
       <use xlink:href="#DejaVuSans-30" transform="translate(63.623047 0.684375)"/>
       <use xlink:href="#DejaVuSans-31" transform="translate(128.203125 38.965625) scale(0.7)"/>
      </g>
     </g>
    </g>
    <g id="ytick_2">
     <g id="line2d_8">
      <g>
       <use xlink:href="#m9437345677" x="45.478125" y="141.762306" style="stroke: #000000; stroke-width: 0.8"/>
      </g>
     </g>
     <g id="text_9">
      <!-- $\mathdefault{10^{2}}$ -->
      <g transform="translate(20.878125 145.561525) scale(0.1 -0.1)">
       <use xlink:href="#DejaVuSans-31" transform="translate(0 0.765625)"/>
       <use xlink:href="#DejaVuSans-30" transform="translate(63.623047 0.765625)"/>
       <use xlink:href="#DejaVuSans-32" transform="translate(128.203125 39.046875) scale(0.7)"/>
      </g>
     </g>
    </g>
    <g id="ytick_3">
     <g id="line2d_9">
      <g>
       <use xlink:href="#m9437345677" x="45.478125" y="63.302089" style="stroke: #000000; stroke-width: 0.8"/>
      </g>
     </g>
     <g id="text_10">
      <!-- $\mathdefault{10^{3}}$ -->
      <g transform="translate(20.878125 67.101307) scale(0.1 -0.1)">
       <use xlink:href="#DejaVuSans-31" transform="translate(0 0.765625)"/>
       <use xlink:href="#DejaVuSans-30" transform="translate(63.623047 0.765625)"/>
       <use xlink:href="#DejaVuSans-33" transform="translate(128.203125 39.046875) scale(0.7)"/>
      </g>
     </g>
    </g>
    <g id="ytick_4">
     <g id="line2d_10">
      <defs>
       <path id="mc742e3248b" d="M 0 0 
L -2 0 
" style="stroke: #000000; stroke-width: 0.6"/>
      </defs>
      <g>
       <use xlink:href="#mc742e3248b" x="45.478125" y="237.628825" style="stroke: #000000; stroke-width: 0.6"/>
      </g>
     </g>
    </g>
    <g id="ytick_5">
     <g id="line2d_11">
      <g>
       <use xlink:href="#mc742e3248b" x="45.478125" y="232.376165" style="stroke: #000000; stroke-width: 0.6"/>
      </g>
     </g>
    </g>
    <g id="ytick_6">
     <g id="line2d_12">
      <g>
       <use xlink:href="#mc742e3248b" x="45.478125" y="227.826104" style="stroke: #000000; stroke-width: 0.6"/>
      </g>
     </g>
    </g>
    <g id="ytick_7">
     <g id="line2d_13">
      <g>
       <use xlink:href="#mc742e3248b" x="45.478125" y="223.812666" style="stroke: #000000; stroke-width: 0.6"/>
      </g>
     </g>
    </g>
    <g id="ytick_8">
     <g id="line2d_14">
      <g>
       <use xlink:href="#mc742e3248b" x="45.478125" y="196.603645" style="stroke: #000000; stroke-width: 0.6"/>
      </g>
     </g>
    </g>
    <g id="ytick_9">
     <g id="line2d_15">
      <g>
       <use xlink:href="#mc742e3248b" x="45.478125" y="182.787486" style="stroke: #000000; stroke-width: 0.6"/>
      </g>
     </g>
    </g>
    <g id="ytick_10">
     <g id="line2d_16">
      <g>
       <use xlink:href="#mc742e3248b" x="45.478125" y="172.984766" style="stroke: #000000; stroke-width: 0.6"/>
      </g>
     </g>
    </g>
    <g id="ytick_11">
     <g id="line2d_17">
      <g>
       <use xlink:href="#mc742e3248b" x="45.478125" y="165.381185" style="stroke: #000000; stroke-width: 0.6"/>
      </g>
     </g>
    </g>
    <g id="ytick_12">
     <g id="line2d_18">
      <g>
       <use xlink:href="#mc742e3248b" x="45.478125" y="159.168607" style="stroke: #000000; stroke-width: 0.6"/>
      </g>
     </g>
    </g>
    <g id="ytick_13">
     <g id="line2d_19">
      <g>
       <use xlink:href="#mc742e3248b" x="45.478125" y="153.915948" style="stroke: #000000; stroke-width: 0.6"/>
      </g>
     </g>
    </g>
    <g id="ytick_14">
     <g id="line2d_20">
      <g>
       <use xlink:href="#mc742e3248b" x="45.478125" y="149.365887" style="stroke: #000000; stroke-width: 0.6"/>
      </g>
     </g>
    </g>
    <g id="ytick_15">
     <g id="line2d_21">
      <g>
       <use xlink:href="#mc742e3248b" x="45.478125" y="145.352449" style="stroke: #000000; stroke-width: 0.6"/>
      </g>
     </g>
    </g>
    <g id="ytick_16">
     <g id="line2d_22">
      <g>
       <use xlink:href="#mc742e3248b" x="45.478125" y="118.143427" style="stroke: #000000; stroke-width: 0.6"/>
      </g>
     </g>
    </g>
    <g id="ytick_17">
     <g id="line2d_23">
      <g>
       <use xlink:href="#mc742e3248b" x="45.478125" y="104.327269" style="stroke: #000000; stroke-width: 0.6"/>
      </g>
     </g>
    </g>
    <g id="ytick_18">
     <g id="line2d_24">
      <g>
       <use xlink:href="#mc742e3248b" x="45.478125" y="94.524548" style="stroke: #000000; stroke-width: 0.6"/>
      </g>
     </g>
    </g>
    <g id="ytick_19">
     <g id="line2d_25">
      <g>
       <use xlink:href="#mc742e3248b" x="45.478125" y="86.920968" style="stroke: #000000; stroke-width: 0.6"/>
      </g>
     </g>
    </g>
    <g id="ytick_20">
     <g id="line2d_26">
      <g>
       <use xlink:href="#mc742e3248b" x="45.478125" y="80.70839" style="stroke: #000000; stroke-width: 0.6"/>
      </g>
     </g>
    </g>
    <g id="ytick_21">
     <g id="line2d_27">
      <g>
       <use xlink:href="#mc742e3248b" x="45.478125" y="75.45573" style="stroke: #000000; stroke-width: 0.6"/>
      </g>
     </g>
    </g>
    <g id="ytick_22">
     <g id="line2d_28">
      <g>
       <use xlink:href="#mc742e3248b" x="45.478125" y="70.905669" style="stroke: #000000; stroke-width: 0.6"/>
      </g>
     </g>
    </g>
    <g id="ytick_23">
     <g id="line2d_29">
      <g>
       <use xlink:href="#mc742e3248b" x="45.478125" y="66.892231" style="stroke: #000000; stroke-width: 0.6"/>
      </g>
     </g>
    </g>
    <g id="ytick_24">
     <g id="line2d_30">
      <g>
       <use xlink:href="#mc742e3248b" x="45.478125" y="39.68321" style="stroke: #000000; stroke-width: 0.6"/>
      </g>
     </g>
    </g>
    <g id="ytick_25">
     <g id="line2d_31">
      <g>
       <use xlink:href="#mc742e3248b" x="45.478125" y="25.867051" style="stroke: #000000; stroke-width: 0.6"/>
      </g>
     </g>
    </g>
    <g id="ytick_26">
     <g id="line2d_32">
      <g>
       <use xlink:href="#mc742e3248b" x="45.478125" y="16.064331" style="stroke: #000000; stroke-width: 0.6"/>
      </g>
     </g>
    </g>
    <g id="ytick_27">
     <g id="line2d_33">
      <g>
       <use xlink:href="#mc742e3248b" x="45.478125" y="8.46075" style="stroke: #000000; stroke-width: 0.6"/>
      </g>
     </g>
    </g>
    <g id="text_11">
     <!-- [counts] -->
     <g transform="translate(14.798438 145.4325) rotate(-90) scale(0.1 -0.1)">
      <defs>
       <path id="DejaVuSans-63" d="M 3122 3366 
L 3122 2828 
Q 2878 2963 2633 3030 
Q 2388 3097 2138 3097 
Q 1578 3097 1268 2742 
Q 959 2388 959 1747 
Q 959 1106 1268 751 
Q 1578 397 2138 397 
Q 2388 397 2633 464 
Q 2878 531 3122 666 
L 3122 134 
Q 2881 22 2623 -34 
Q 2366 -91 2075 -91 
Q 1284 -91 818 406 
Q 353 903 353 1747 
Q 353 2603 823 3093 
Q 1294 3584 2113 3584 
Q 2378 3584 2631 3529 
Q 2884 3475 3122 3366 
z
" transform="scale(0.015625)"/>
       <path id="DejaVuSans-6f" d="M 1959 3097 
Q 1497 3097 1228 2736 
Q 959 2375 959 1747 
Q 959 1119 1226 758 
Q 1494 397 1959 397 
Q 2419 397 2687 759 
Q 2956 1122 2956 1747 
Q 2956 2369 2687 2733 
Q 2419 3097 1959 3097 
z
M 1959 3584 
Q 2709 3584 3137 3096 
Q 3566 2609 3566 1747 
Q 3566 888 3137 398 
Q 2709 -91 1959 -91 
Q 1206 -91 779 398 
Q 353 888 353 1747 
Q 353 2609 779 3096 
Q 1206 3584 1959 3584 
z
" transform="scale(0.015625)"/>
       <path id="DejaVuSans-75" d="M 544 1381 
L 544 3500 
L 1119 3500 
L 1119 1403 
Q 1119 906 1312 657 
Q 1506 409 1894 409 
Q 2359 409 2629 706 
Q 2900 1003 2900 1516 
L 2900 3500 
L 3475 3500 
L 3475 0 
L 2900 0 
L 2900 538 
Q 2691 219 2414 64 
Q 2138 -91 1772 -91 
Q 1169 -91 856 284 
Q 544 659 544 1381 
z
M 1991 3584 
L 1991 3584 
z
" transform="scale(0.015625)"/>
       <path id="DejaVuSans-6e" d="M 3513 2113 
L 3513 0 
L 2938 0 
L 2938 2094 
Q 2938 2591 2744 2837 
Q 2550 3084 2163 3084 
Q 1697 3084 1428 2787 
Q 1159 2491 1159 1978 
L 1159 0 
L 581 0 
L 581 3500 
L 1159 3500 
L 1159 2956 
Q 1366 3272 1645 3428 
Q 1925 3584 2291 3584 
Q 2894 3584 3203 3211 
Q 3513 2838 3513 2113 
z
" transform="scale(0.015625)"/>
       <path id="DejaVuSans-74" d="M 1172 4494 
L 1172 3500 
L 2356 3500 
L 2356 3053 
L 1172 3053 
L 1172 1153 
Q 1172 725 1289 603 
Q 1406 481 1766 481 
L 2356 481 
L 2356 0 
L 1766 0 
Q 1100 0 847 248 
Q 594 497 594 1153 
L 594 3053 
L 172 3053 
L 172 3500 
L 594 3500 
L 594 4494 
L 1172 4494 
z
" transform="scale(0.015625)"/>
       <path id="DejaVuSans-73" d="M 2834 3397 
L 2834 2853 
Q 2591 2978 2328 3040 
Q 2066 3103 1784 3103 
Q 1356 3103 1142 2972 
Q 928 2841 928 2578 
Q 928 2378 1081 2264 
Q 1234 2150 1697 2047 
L 1894 2003 
Q 2506 1872 2764 1633 
Q 3022 1394 3022 966 
Q 3022 478 2636 193 
Q 2250 -91 1575 -91 
Q 1294 -91 989 -36 
Q 684 19 347 128 
L 347 722 
Q 666 556 975 473 
Q 1284 391 1588 391 
Q 1994 391 2212 530 
Q 2431 669 2431 922 
Q 2431 1156 2273 1281 
Q 2116 1406 1581 1522 
L 1381 1569 
Q 847 1681 609 1914 
Q 372 2147 372 2553 
Q 372 3047 722 3315 
Q 1072 3584 1716 3584 
Q 2034 3584 2315 3537 
Q 2597 3491 2834 3397 
z
" transform="scale(0.015625)"/>
      </defs>
      <use xlink:href="#DejaVuSans-5b"/>
      <use xlink:href="#DejaVuSans-63" x="39.013672"/>
      <use xlink:href="#DejaVuSans-6f" x="93.994141"/>
      <use xlink:href="#DejaVuSans-75" x="155.175781"/>
      <use xlink:href="#DejaVuSans-6e" x="218.554688"/>
      <use xlink:href="#DejaVuSans-74" x="281.933594"/>
      <use xlink:href="#DejaVuSans-73" x="321.142578"/>
      <use xlink:href="#DejaVuSans-5d" x="373.242188"/>
     </g>
    </g>
   </g>
   <g id="patch_3">
    <path d="M 45.478125 242.44 
L 45.478125 7.2 
" style="fill: none; stroke: #000000; stroke-width: 0.8; stroke-linejoin: miter; stroke-linecap: square"/>
   </g>
   <g id="patch_4">
    <path d="M 414.304889 242.44 
L 414.304889 7.2 
" style="fill: none; stroke: #000000; stroke-width: 0.8; stroke-linejoin: miter; stroke-linecap: square"/>
   </g>
   <g id="patch_5">
    <path d="M 45.478125 242.44 
L 414.304889 242.44 
" style="fill: none; stroke: #000000; stroke-width: 0.8; stroke-linejoin: miter; stroke-linecap: square"/>
   </g>
   <g id="patch_6">
    <path d="M 45.478125 7.2 
L 414.304889 7.2 
" style="fill: none; stroke: #000000; stroke-width: 0.8; stroke-linejoin: miter; stroke-linecap: square"/>
   </g>
   <g id="line2d_34">
    <path d="M 62.242978 17.892727 
L 63.919463 17.892727 
L 63.919463 19.881945 
L 65.595948 19.881945 
L 65.595948 21.453575 
L 67.272434 21.453575 
L 67.272434 22.925154 
L 68.948919 22.925154 
L 68.948919 21.380074 
L 70.625404 21.380074 
L 70.625404 22.631785 
L 72.30189 22.631785 
L 72.30189 24.292284 
L 73.978375 24.292284 
L 73.978375 24.986268 
L 77.331346 24.943375 
L 77.331346 27.572166 
L 79.007831 27.572166 
L 79.007831 29.989372 
L 80.684316 29.989372 
L 80.684316 30.268433 
L 82.360801 30.268433 
L 82.360801 31.49818 
L 84.037287 31.49818 
L 84.037287 33.607504 
L 85.713772 33.607504 
L 85.713772 33.16978 
L 87.390257 33.16978 
L 87.390257 36.519022 
L 89.066743 36.519022 
L 89.066743 35.600871 
L 90.743228 35.600871 
L 90.743228 40.953818 
L 92.419713 40.953818 
L 92.419713 45.060496 
L 94.096198 45.060496 
L 94.096198 41.314093 
L 95.772684 41.314093 
L 95.772684 43.234235 
L 97.449169 43.234235 
L 97.449169 49.875371 
L 99.125654 49.875371 
L 99.125654 57.165609 
L 100.80214 57.165609 
L 100.80214 59.436544 
L 102.478625 59.436544 
L 102.478625 64.383501 
L 104.15511 64.383501 
L 104.15511 73.513043 
L 105.831595 73.513043 
L 105.831595 86.724486 
L 107.508081 86.724486 
L 107.508081 98.214231 
L 109.184566 98.214231 
L 109.184566 121.850459 
L 110.861051 121.850459 
L 110.861051 133.578032 
L 112.537537 133.578032 
L 112.537537 187.756033 
L 114.214022 187.756033 
L 114.214022 161.106269 
L 115.890507 161.106269 
L 115.890507 130.072143 
L 117.566992 130.072143 
L 117.566992 118.220443 
L 119.243478 118.220443 
L 119.243478 113.253207 
L 120.919963 113.253207 
L 120.919963 111.080843 
L 122.596448 111.080843 
L 122.596448 104.91706 
L 124.272934 104.91706 
L 124.272934 109.159344 
L 125.949419 109.159344 
L 125.949419 110.989056 
L 127.625904 110.989056 
L 127.625904 113.477362 
L 129.30239 113.477362 
L 129.30239 118.352712 
L 130.978875 118.352712 
L 130.978875 131.969363 
L 132.65536 131.969363 
L 132.65536 132.688486 
L 134.331845 132.688486 
L 134.331845 137.638936 
L 136.008331 137.638936 
L 136.008331 145.247835 
L 137.684816 145.247835 
L 137.684816 156.114209 
L 139.361301 156.114209 
L 139.361301 158.209768 
L 141.037787 158.209768 
L 141.037787 167.456437 
L 142.714272 167.456437 
L 142.714272 171.05873 
L 144.390757 171.05873 
L 144.390757 180.249379 
L 146.067242 180.249379 
L 146.067242 181.038291 
L 147.743728 181.038291 
L 147.743728 188.480664 
L 149.420213 188.480664 
L 149.420213 187.431917 
L 151.096698 187.431917 
L 151.096698 190.708548 
L 152.773184 190.708548 
L 152.773184 188.583995 
L 154.449669 188.583995 
L 154.449669 196.374399 
L 156.126154 196.374399 
L 156.126154 184.005348 
L 157.802639 184.005348 
L 157.802639 187.28296 
L 159.479125 187.28296 
L 159.479125 193.420475 
L 161.15561 193.420475 
L 161.15561 191.869413 
L 162.832095 191.869413 
L 162.832095 186.680547 
L 164.508581 186.680547 
L 164.508581 175.22432 
L 166.185066 175.22432 
L 166.185066 181.73931 
L 167.861551 181.73931 
L 167.861551 177.601191 
L 169.538036 177.601191 
L 169.538036 180.063625 
L 171.214522 180.063625 
L 171.214522 174.903386 
L 172.891007 174.903386 
L 172.891007 174.326765 
L 174.567492 174.326765 
L 174.567492 172.100961 
L 176.243978 172.100961 
L 176.243978 185.71143 
L 177.920463 185.71143 
L 177.920463 172.740585 
L 179.596948 172.740585 
L 179.596948 163.004342 
L 181.273434 163.004342 
L 181.273434 172.079231 
L 182.949919 172.079231 
L 182.949919 171.370057 
L 184.626404 171.370057 
L 184.626404 171.604068 
L 186.302889 171.604068 
L 186.302889 174.168279 
L 187.979375 174.168279 
L 187.979375 176.082711 
L 189.65586 176.082711 
L 189.65586 174.588718 
L 191.332345 174.588718 
L 191.332345 180.202045 
L 193.008831 180.202045 
L 193.008831 198.299091 
L 194.685316 198.299091 
L 194.685316 187.224135 
L 196.361801 187.224135 
L 196.361801 187.033491 
L 198.038286 187.033491 
L 198.038286 180.803772 
L 199.714772 180.803772 
L 199.714772 188.828705 
L 201.391257 188.828705 
L 201.391257 187.197271 
L 203.067742 187.197271 
L 203.067742 200.862926 
L 204.744228 200.862926 
L 204.744228 194.061232 
L 206.420713 194.061232 
L 206.420713 190.378643 
L 208.097198 190.378643 
L 208.097198 194.152829 
L 209.773683 194.152829 
L 209.773683 199.488377 
L 211.450169 199.488377 
L 211.450169 195.714498 
L 213.126654 195.714498 
L 213.126654 192.737704 
L 214.803139 192.737704 
L 214.803139 205.210477 
L 216.479625 205.210477 
L 216.479625 203.907625 
L 218.15611 203.907625 
L 218.15611 209.300125 
L 219.832595 209.300125 
L 219.832595 200.348993 
L 221.50908 200.348993 
L 221.50908 212.583824 
L 223.185566 212.583824 
L 223.185566 200.355626 
L 224.862051 200.355626 
L 224.862051 204.252587 
L 226.538536 204.252587 
L 226.538536 205.649354 
L 228.215022 205.649354 
L 228.215022 208.061937 
L 229.891507 208.061937 
L 229.891507 201.989272 
L 231.567992 201.989272 
L 231.567992 214.358031 
L 233.244478 214.358031 
L 233.244478 204.775982 
L 234.920963 204.775982 
L 234.920963 206.497911 
L 236.597448 206.497911 
L 236.597448 200.111623 
L 238.273933 200.111623 
L 238.273933 208.117873 
L 239.950419 208.117873 
L 239.950419 204.272543 
L 241.626904 204.272543 
L 241.626904 208.104306 
L 243.303389 208.104306 
L 243.303389 203.657584 
L 244.979875 203.657584 
L 244.979875 201.542477 
L 246.65636 201.542477 
L 246.65636 209.112384 
L 248.332845 209.112384 
L 248.332845 214.712733 
L 250.00933 214.712733 
L 250.00933 199.750039 
L 251.685816 199.750039 
L 251.685816 203.445541 
L 253.362301 203.445541 
L 253.362301 216.116871 
L 255.038786 216.116871 
L 255.038786 206.296934 
L 256.715272 206.296934 
L 256.715272 204.781585 
L 258.391757 204.781585 
L 258.391757 203.796043 
L 260.068242 203.796043 
L 260.068242 207.616804 
L 261.744727 207.616804 
L 261.744727 211.342323 
L 263.421213 211.342323 
L 263.421213 195.504966 
L 265.097698 195.504966 
L 265.097698 201.3067 
L 266.774183 201.3067 
L 266.774183 194.084605 
L 268.450669 194.084605 
L 268.450669 202.06064 
L 270.127154 202.06064 
L 270.127154 206.842184 
L 271.803639 206.842184 
L 271.803639 207.0421 
L 273.480124 207.0421 
L 273.480124 205.16521 
L 275.15661 205.16521 
L 275.15661 206.28855 
L 276.833095 206.28855 
L 276.833095 201.237812 
L 278.50958 201.237812 
L 278.50958 201.584225 
L 280.186066 201.584225 
L 280.186066 202.318697 
L 281.862551 202.318697 
L 281.862551 213.591884 
L 283.539036 213.591884 
L 283.539036 216.665618 
L 285.215522 216.665618 
L 285.215522 205.144772 
L 286.892007 205.144772 
L 286.892007 209.488531 
L 288.568492 209.488531 
L 288.568492 206.101453 
L 290.244977 206.101453 
L 290.244977 205.655231 
L 291.921463 205.655231 
L 291.921463 221.177159 
L 293.597948 221.177159 
L 293.597948 227.352171 
L 295.274433 227.352171 
L 295.274433 220.201575 
L 296.950919 220.201575 
L 296.950919 218.336177 
L 298.627404 218.336177 
L 298.627404 208.214638 
L 300.303889 208.214638 
L 300.303889 205.81858 
L 301.980374 205.81858 
L 301.980374 203.869737 
L 303.65686 203.869737 
L 303.65686 205.054079 
L 305.333345 205.054079 
L 305.333345 218.794897 
L 307.00983 218.794897 
L 307.00983 199.646814 
L 308.686316 199.646814 
L 308.686316 207.937068 
L 310.362801 207.937068 
L 310.362801 226.229092 
L 312.039286 226.229092 
L 312.039286 201.135917 
L 313.715771 201.135917 
L 313.715771 219.505896 
L 315.392257 219.505896 
L 315.392257 200.790672 
L 317.068742 200.790672 
L 317.068742 205.44639 
L 318.745227 205.44639 
L 318.745227 231.747273 
L 320.421713 231.747273 
L 320.421713 192.414799 
L 322.098198 192.414799 
L 322.098198 215.389992 
L 323.774683 215.389992 
L 323.774683 207.407062 
L 325.451168 207.407062 
L 325.451168 217.264425 
L 327.127654 217.264425 
L 327.127654 203.477271 
L 328.804139 203.477271 
L 328.804139 209.146077 
L 330.480624 209.146077 
L 330.480624 213.292145 
L 332.15711 213.292145 
L 332.15711 209.488222 
L 333.833595 209.488222 
L 333.833595 216.818873 
L 335.51008 216.818873 
L 335.51008 218.035394 
L 337.186566 218.035394 
L 337.186566 220.750741 
L 338.863051 220.750741 
L 338.863051 194.667428 
L 340.539536 194.667428 
L 340.539536 201.092071 
L 342.216021 201.092071 
L 342.216021 214.829037 
L 343.892507 214.829037 
L 343.892507 211.458759 
L 345.568992 211.458759 
L 345.568992 203.877514 
L 347.245477 203.877514 
L 347.245477 207.132985 
L 348.921963 207.132985 
L 348.921963 219.757416 
L 350.598448 219.757416 
L 350.598448 216.232403 
L 353.951418 216.294572 
L 353.951418 217.987642 
L 355.627904 217.987642 
L 355.627904 216.678419 
L 357.304389 216.678419 
L 357.304389 203.569801 
L 358.980874 203.569801 
L 358.980874 214.896911 
L 360.65736 214.896911 
L 360.65736 216.874162 
L 362.333845 216.874162 
L 362.333845 207.834662 
L 364.01033 207.834662 
L 364.01033 205.129308 
L 365.686815 205.129308 
L 365.686815 208.148958 
L 367.363301 208.148958 
L 367.363301 200.878807 
L 369.039786 200.878807 
L 369.039786 199.544509 
L 370.716271 199.544509 
L 370.716271 198.863186 
L 372.392757 198.863186 
L 372.392757 212.694181 
L 374.069242 212.694181 
L 374.069242 209.828874 
L 375.745727 209.828874 
L 375.745727 216.376666 
L 377.422212 216.376666 
L 377.422212 201.553122 
L 379.098698 201.553122 
L 379.098698 206.325478 
L 380.775183 206.325478 
L 380.775183 226.241649 
L 382.451668 226.241649 
L 382.451668 212.589874 
L 384.128154 212.589874 
L 384.128154 194.558965 
L 385.804639 194.558965 
L 385.804639 218.802596 
L 387.481124 218.802596 
L 387.481124 209.560955 
L 389.15761 209.560955 
L 389.15761 206.472747 
L 390.834095 206.472747 
L 390.834095 211.844766 
L 392.51058 211.844766 
L 392.51058 194.988513 
L 394.187065 194.988513 
L 394.187065 221.001288 
L 395.863551 221.001288 
L 395.863551 193.463259 
L 397.540036 193.463259 
L 397.540036 193.463259 
" clip-path="url(#p74002b02f6)" style="fill: none; stroke: #1f77b4; stroke-width: 1.5; stroke-linecap: square"/>
   </g>
  </g>
 </g>
 <defs>
  <clipPath id="p74002b02f6">
   <rect x="45.478125" y="7.2" width="368.826764" height="235.24"/>
  </clipPath>
 </defs>
</svg>