<?xml version="1.0" encoding="utf-8" standalone="no"?>
<!DOCTYPE svg PUBLIC "-//W3C//DTD SVG 1.1//EN"
  "http://www.w3.org/Graphics/SVG/1.1/DTD/svg11.dtd">
<svg xmlns:xlink="http://www.w3.org/1999/xlink" width="424.565875pt" height="280.132187pt" viewBox="0 0 424.565875 280.132187" xmlns="http://www.w3.org/2000/svg" version="1.1">
 <metadata>
  <rdf:RDF xmlns:dc="http://purl.org/dc/elements/1.1/" xmlns:cc="http://creativecommons.org/ns#" xmlns:rdf="http://www.w3.org/1999/02/22-rdf-syntax-ns#">
   <cc:Work>
    <dc:type rdf:resource="http://purl.org/dc/dcmitype/StillImage"/>
    <dc:date>2024-06-05T11:39:39.980662</dc:date>
    <dc:format>image/svg+xml</dc:format>
    <dc:creator>
     <cc:Agent>
      <dc:title>Matplotlib v3.9.0, https://matplotlib.org/</dc:title>
     </cc:Agent>
    </dc:creator>
   </cc:Work>
  </rdf:RDF>
 </metadata>
 <defs>
  <style type="text/css">*{stroke-linejoin: round; stroke-linecap: butt}</style>
 </defs>
 <g id="figure_1">
  <g id="patch_1">
   <path d="M 0 280.132187 
L 424.565875 280.132187 
L 424.565875 0 
L 0 0 
z
" style="fill: #ffffff"/>
  </g>
  <g id="axes_1">
   <g id="patch_2">
    <path d="M 46.965625 241.6525 
L 404.149852 241.6525 
L 404.149852 7.2 
L 46.965625 7.2 
z
" style="fill: #ffffff"/>
   </g>
   <g id="matplotlib.axis_1">
    <g id="xtick_1">
     <g id="line2d_1">
      <defs>
       <path id="m525f962848" d="M 0 0 
L 0 3.5 
" style="stroke: #000000; stroke-width: 0.8"/>
      </defs>
      <g>
       <use xlink:href="#m525f962848" x="55.305341" y="241.6525" style="stroke: #000000; stroke-width: 0.8"/>
      </g>
     </g>
     <g id="text_1">
      <!-- 0.000 -->
      <g transform="translate(40.991279 256.250937) scale(0.1 -0.1)">
       <defs>
        <path id="DejaVuSans-30" d="M 2034 4250 
Q 1547 4250 1301 3770 
Q 1056 3291 1056 2328 
Q 1056 1369 1301 889 
Q 1547 409 2034 409 
Q 2525 409 2770 889 
Q 3016 1369 3016 2328 
Q 3016 3291 2770 3770 
Q 2525 4250 2034 4250 
z
M 2034 4750 
Q 2819 4750 3233 4129 
Q 3647 3509 3647 2328 
Q 3647 1150 3233 529 
Q 2819 -91 2034 -91 
Q 1250 -91 836 529 
Q 422 1150 422 2328 
Q 422 3509 836 4129 
Q 1250 4750 2034 4750 
z
" transform="scale(0.015625)"/>
        <path id="DejaVuSans-2e" d="M 684 794 
L 1344 794 
L 1344 0 
L 684 0 
L 684 794 
z
" transform="scale(0.015625)"/>
       </defs>
       <use xlink:href="#DejaVuSans-30"/>
       <use xlink:href="#DejaVuSans-2e" x="63.623047"/>
       <use xlink:href="#DejaVuSans-30" x="95.410156"/>
       <use xlink:href="#DejaVuSans-30" x="159.033203"/>
       <use xlink:href="#DejaVuSans-30" x="222.65625"/>
      </g>
     </g>
    </g>
    <g id="xtick_2">
     <g id="line2d_2">
      <g>
       <use xlink:href="#m525f962848" x="98.77365" y="241.6525" style="stroke: #000000; stroke-width: 0.8"/>
      </g>
     </g>
     <g id="text_2">
      <!-- 0.025 -->
      <g transform="translate(84.459588 256.250937) scale(0.1 -0.1)">
       <defs>
        <path id="DejaVuSans-32" d="M 1228 531 
L 3431 531 
L 3431 0 
L 469 0 
L 469 531 
Q 828 903 1448 1529 
Q 2069 2156 2228 2338 
Q 2531 2678 2651 2914 
Q 2772 3150 2772 3378 
Q 2772 3750 2511 3984 
Q 2250 4219 1831 4219 
Q 1534 4219 1204 4116 
Q 875 4013 500 3803 
L 500 4441 
Q 881 4594 1212 4672 
Q 1544 4750 1819 4750 
Q 2544 4750 2975 4387 
Q 3406 4025 3406 3419 
Q 3406 3131 3298 2873 
Q 3191 2616 2906 2266 
Q 2828 2175 2409 1742 
Q 1991 1309 1228 531 
z
" transform="scale(0.015625)"/>
        <path id="DejaVuSans-35" d="M 691 4666 
L 3169 4666 
L 3169 4134 
L 1269 4134 
L 1269 2991 
Q 1406 3038 1543 3061 
Q 1681 3084 1819 3084 
Q 2600 3084 3056 2656 
Q 3513 2228 3513 1497 
Q 3513 744 3044 326 
Q 2575 -91 1722 -91 
Q 1428 -91 1123 -41 
Q 819 9 494 109 
L 494 744 
Q 775 591 1075 516 
Q 1375 441 1709 441 
Q 2250 441 2565 725 
Q 2881 1009 2881 1497 
Q 2881 1984 2565 2268 
Q 2250 2553 1709 2553 
Q 1456 2553 1204 2497 
Q 953 2441 691 2322 
L 691 4666 
z
" transform="scale(0.015625)"/>
       </defs>
       <use xlink:href="#DejaVuSans-30"/>
       <use xlink:href="#DejaVuSans-2e" x="63.623047"/>
       <use xlink:href="#DejaVuSans-30" x="95.410156"/>
       <use xlink:href="#DejaVuSans-32" x="159.033203"/>
       <use xlink:href="#DejaVuSans-35" x="222.65625"/>
      </g>
     </g>
    </g>
    <g id="xtick_3">
     <g id="line2d_3">
      <g>
       <use xlink:href="#m525f962848" x="142.241959" y="241.6525" style="stroke: #000000; stroke-width: 0.8"/>
      </g>
     </g>
     <g id="text_3">
      <!-- 0.050 -->
      <g transform="translate(127.927896 256.250937) scale(0.1 -0.1)">
       <use xlink:href="#DejaVuSans-30"/>
       <use xlink:href="#DejaVuSans-2e" x="63.623047"/>
       <use xlink:href="#DejaVuSans-30" x="95.410156"/>
       <use xlink:href="#DejaVuSans-35" x="159.033203"/>
       <use xlink:href="#DejaVuSans-30" x="222.65625"/>
      </g>
     </g>
    </g>
    <g id="xtick_4">
     <g id="line2d_4">
      <g>
       <use xlink:href="#m525f962848" x="185.710268" y="241.6525" style="stroke: #000000; stroke-width: 0.8"/>
      </g>
     </g>
     <g id="text_4">
      <!-- 0.075 -->
      <g transform="translate(171.396205 256.250937) scale(0.1 -0.1)">
       <defs>
        <path id="DejaVuSans-37" d="M 525 4666 
L 3525 4666 
L 3525 4397 
L 1831 0 
L 1172 0 
L 2766 4134 
L 525 4134 
L 525 4666 
z
" transform="scale(0.015625)"/>
       </defs>
       <use xlink:href="#DejaVuSans-30"/>
       <use xlink:href="#DejaVuSans-2e" x="63.623047"/>
       <use xlink:href="#DejaVuSans-30" x="95.410156"/>
       <use xlink:href="#DejaVuSans-37" x="159.033203"/>
       <use xlink:href="#DejaVuSans-35" x="222.65625"/>
      </g>
     </g>
    </g>
    <g id="xtick_5">
     <g id="line2d_5">
      <g>
       <use xlink:href="#m525f962848" x="229.178577" y="241.6525" style="stroke: #000000; stroke-width: 0.8"/>
      </g>
     </g>
     <g id="text_5">
      <!-- 0.100 -->
      <g transform="translate(214.864514 256.250937) scale(0.1 -0.1)">
       <defs>
        <path id="DejaVuSans-31" d="M 794 531 
L 1825 531 
L 1825 4091 
L 703 3866 
L 703 4441 
L 1819 4666 
L 2450 4666 
L 2450 531 
L 3481 531 
L 3481 0 
L 794 0 
L 794 531 
z
" transform="scale(0.015625)"/>
       </defs>
       <use xlink:href="#DejaVuSans-30"/>
       <use xlink:href="#DejaVuSans-2e" x="63.623047"/>
       <use xlink:href="#DejaVuSans-31" x="95.410156"/>
       <use xlink:href="#DejaVuSans-30" x="159.033203"/>
       <use xlink:href="#DejaVuSans-30" x="222.65625"/>
      </g>
     </g>
    </g>
    <g id="xtick_6">
     <g id="line2d_6">
      <g>
       <use xlink:href="#m525f962848" x="272.646886" y="241.6525" style="stroke: #000000; stroke-width: 0.8"/>
      </g>
     </g>
     <g id="text_6">
      <!-- 0.125 -->
      <g transform="translate(258.332823 256.250937) scale(0.1 -0.1)">
       <use xlink:href="#DejaVuSans-30"/>
       <use xlink:href="#DejaVuSans-2e" x="63.623047"/>
       <use xlink:href="#DejaVuSans-31" x="95.410156"/>
       <use xlink:href="#DejaVuSans-32" x="159.033203"/>
       <use xlink:href="#DejaVuSans-35" x="222.65625"/>
      </g>
     </g>
    </g>
    <g id="xtick_7">
     <g id="line2d_7">
      <g>
       <use xlink:href="#m525f962848" x="316.115195" y="241.6525" style="stroke: #000000; stroke-width: 0.8"/>
      </g>
     </g>
     <g id="text_7">
      <!-- 0.150 -->
      <g transform="translate(301.801132 256.250937) scale(0.1 -0.1)">
       <use xlink:href="#DejaVuSans-30"/>
       <use xlink:href="#DejaVuSans-2e" x="63.623047"/>
       <use xlink:href="#DejaVuSans-31" x="95.410156"/>
       <use xlink:href="#DejaVuSans-35" x="159.033203"/>
       <use xlink:href="#DejaVuSans-30" x="222.65625"/>
      </g>
     </g>
    </g>
    <g id="xtick_8">
     <g id="line2d_8">
      <g>
       <use xlink:href="#m525f962848" x="359.583504" y="241.6525" style="stroke: #000000; stroke-width: 0.8"/>
      </g>
     </g>
     <g id="text_8">
      <!-- 0.175 -->
      <g transform="translate(345.269441 256.250937) scale(0.1 -0.1)">
       <use xlink:href="#DejaVuSans-30"/>
       <use xlink:href="#DejaVuSans-2e" x="63.623047"/>
       <use xlink:href="#DejaVuSans-31" x="95.410156"/>
       <use xlink:href="#DejaVuSans-37" x="159.033203"/>
       <use xlink:href="#DejaVuSans-35" x="222.65625"/>
      </g>
     </g>
    </g>
    <g id="xtick_9">
     <g id="line2d_9">
      <g>
       <use xlink:href="#m525f962848" x="403.051812" y="241.6525" style="stroke: #000000; stroke-width: 0.8"/>
      </g>
     </g>
     <g id="text_9">
      <!-- 0.200 -->
      <g transform="translate(388.73775 256.250937) scale(0.1 -0.1)">
       <use xlink:href="#DejaVuSans-30"/>
       <use xlink:href="#DejaVuSans-2e" x="63.623047"/>
       <use xlink:href="#DejaVuSans-32" x="95.410156"/>
       <use xlink:href="#DejaVuSans-30" x="159.033203"/>
       <use xlink:href="#DejaVuSans-30" x="222.65625"/>
      </g>
     </g>
    </g>
    <g id="text_10">
     <!-- Q [1/Å] -->
     <g transform="translate(207.845239 270.8525) scale(0.1 -0.1)">
      <defs>
       <path id="DejaVuSans-51" d="M 2522 4238 
Q 1834 4238 1429 3725 
Q 1025 3213 1025 2328 
Q 1025 1447 1429 934 
Q 1834 422 2522 422 
Q 3209 422 3611 934 
Q 4013 1447 4013 2328 
Q 4013 3213 3611 3725 
Q 3209 4238 2522 4238 
z
M 3406 84 
L 4238 -825 
L 3475 -825 
L 2784 -78 
Q 2681 -84 2626 -87 
Q 2572 -91 2522 -91 
Q 1538 -91 948 567 
Q 359 1225 359 2328 
Q 359 3434 948 4092 
Q 1538 4750 2522 4750 
Q 3503 4750 4090 4092 
Q 4678 3434 4678 2328 
Q 4678 1516 4351 937 
Q 4025 359 3406 84 
z
" transform="scale(0.015625)"/>
       <path id="DejaVuSans-20" transform="scale(0.015625)"/>
       <path id="DejaVuSans-5b" d="M 550 4863 
L 1875 4863 
L 1875 4416 
L 1125 4416 
L 1125 -397 
L 1875 -397 
L 1875 -844 
L 550 -844 
L 550 4863 
z
" transform="scale(0.015625)"/>
       <path id="DejaVuSans-2f" d="M 1625 4666 
L 2156 4666 
L 531 -594 
L 0 -594 
L 1625 4666 
z
" transform="scale(0.015625)"/>
       <path id="DejaVuSans-c5" d="M 2663 5081 
Q 2663 5278 2523 5417 
Q 2384 5556 2188 5556 
Q 1988 5556 1852 5420 
Q 1716 5284 1716 5081 
Q 1716 4884 1853 4746 
Q 1991 4609 2188 4609 
Q 2384 4609 2523 4746 
Q 2663 4884 2663 5081 
z
M 2188 4044 
L 1338 1722 
L 3041 1722 
L 2188 4044 
z
M 1716 4366 
Q 1525 4494 1428 4673 
Q 1331 4853 1331 5081 
Q 1331 5441 1579 5691 
Q 1828 5941 2188 5941 
Q 2544 5941 2795 5689 
Q 3047 5438 3047 5081 
Q 3047 4863 2948 4678 
Q 2850 4494 2663 4366 
L 4325 0 
L 3669 0 
L 3244 1197 
L 1141 1197 
L 716 0 
L 50 0 
L 1716 4366 
z
" transform="scale(0.015625)"/>
       <path id="DejaVuSans-5d" d="M 1947 4863 
L 1947 -844 
L 622 -844 
L 622 -397 
L 1369 -397 
L 1369 4416 
L 622 4416 
L 622 4863 
L 1947 4863 
z
" transform="scale(0.015625)"/>
      </defs>
      <use xlink:href="#DejaVuSans-51"/>
      <use xlink:href="#DejaVuSans-20" x="78.710938"/>
      <use xlink:href="#DejaVuSans-5b" x="110.498047"/>
      <use xlink:href="#DejaVuSans-31" x="149.511719"/>
      <use xlink:href="#DejaVuSans-2f" x="213.134766"/>
      <use xlink:href="#DejaVuSans-c5" x="246.826172"/>
      <use xlink:href="#DejaVuSans-5d" x="315.234375"/>
     </g>
    </g>
   </g>
   <g id="matplotlib.axis_2">
    <g id="ytick_1">
     <g id="line2d_10">
      <defs>
       <path id="mf403e3f0b6" d="M 0 0 
L -3.5 0 
" style="stroke: #000000; stroke-width: 0.8"/>
      </defs>
      <g>
       <use xlink:href="#mf403e3f0b6" x="46.965625" y="231.024636" style="stroke: #000000; stroke-width: 0.8"/>
      </g>
     </g>
     <g id="text_11">
      <!-- 0 -->
      <g transform="translate(33.603125 234.823855) scale(0.1 -0.1)">
       <use xlink:href="#DejaVuSans-30"/>
      </g>
     </g>
    </g>
    <g id="ytick_2">
     <g id="line2d_11">
      <g>
       <use xlink:href="#mf403e3f0b6" x="46.965625" y="184.279769" style="stroke: #000000; stroke-width: 0.8"/>
      </g>
     </g>
     <g id="text_12">
      <!-- 200 -->
      <g transform="translate(20.878125 188.078988) scale(0.1 -0.1)">
       <use xlink:href="#DejaVuSans-32"/>
       <use xlink:href="#DejaVuSans-30" x="63.623047"/>
       <use xlink:href="#DejaVuSans-30" x="127.246094"/>
      </g>
     </g>
    </g>
    <g id="ytick_3">
     <g id="line2d_12">
      <g>
       <use xlink:href="#mf403e3f0b6" x="46.965625" y="137.534903" style="stroke: #000000; stroke-width: 0.8"/>
      </g>
     </g>
     <g id="text_13">
      <!-- 400 -->
      <g transform="translate(20.878125 141.334121) scale(0.1 -0.1)">
       <defs>
        <path id="DejaVuSans-34" d="M 2419 4116 
L 825 1625 
L 2419 1625 
L 2419 4116 
z
M 2253 4666 
L 3047 4666 
L 3047 1625 
L 3713 1625 
L 3713 1100 
L 3047 1100 
L 3047 0 
L 2419 0 
L 2419 1100 
L 313 1100 
L 313 1709 
L 2253 4666 
z
" transform="scale(0.015625)"/>
       </defs>
       <use xlink:href="#DejaVuSans-34"/>
       <use xlink:href="#DejaVuSans-30" x="63.623047"/>
       <use xlink:href="#DejaVuSans-30" x="127.246094"/>
      </g>
     </g>
    </g>
    <g id="ytick_4">
     <g id="line2d_13">
      <g>
       <use xlink:href="#mf403e3f0b6" x="46.965625" y="90.790036" style="stroke: #000000; stroke-width: 0.8"/>
      </g>
     </g>
     <g id="text_14">
      <!-- 600 -->
      <g transform="translate(20.878125 94.589255) scale(0.1 -0.1)">
       <defs>
        <path id="DejaVuSans-36" d="M 2113 2584 
Q 1688 2584 1439 2293 
Q 1191 2003 1191 1497 
Q 1191 994 1439 701 
Q 1688 409 2113 409 
Q 2538 409 2786 701 
Q 3034 994 3034 1497 
Q 3034 2003 2786 2293 
Q 2538 2584 2113 2584 
z
M 3366 4563 
L 3366 3988 
Q 3128 4100 2886 4159 
Q 2644 4219 2406 4219 
Q 1781 4219 1451 3797 
Q 1122 3375 1075 2522 
Q 1259 2794 1537 2939 
Q 1816 3084 2150 3084 
Q 2853 3084 3261 2657 
Q 3669 2231 3669 1497 
Q 3669 778 3244 343 
Q 2819 -91 2113 -91 
Q 1303 -91 875 529 
Q 447 1150 447 2328 
Q 447 3434 972 4092 
Q 1497 4750 2381 4750 
Q 2619 4750 2861 4703 
Q 3103 4656 3366 4563 
z
" transform="scale(0.015625)"/>
       </defs>
       <use xlink:href="#DejaVuSans-36"/>
       <use xlink:href="#DejaVuSans-30" x="63.623047"/>
       <use xlink:href="#DejaVuSans-30" x="127.246094"/>
      </g>
     </g>
    </g>
    <g id="ytick_5">
     <g id="line2d_14">
      <g>
       <use xlink:href="#mf403e3f0b6" x="46.965625" y="44.045169" style="stroke: #000000; stroke-width: 0.8"/>
      </g>
     </g>
     <g id="text_15">
      <!-- 800 -->
      <g transform="translate(20.878125 47.844388) scale(0.1 -0.1)">
       <defs>
        <path id="DejaVuSans-38" d="M 2034 2216 
Q 1584 2216 1326 1975 
Q 1069 1734 1069 1313 
Q 1069 891 1326 650 
Q 1584 409 2034 409 
Q 2484 409 2743 651 
Q 3003 894 3003 1313 
Q 3003 1734 2745 1975 
Q 2488 2216 2034 2216 
z
M 1403 2484 
Q 997 2584 770 2862 
Q 544 3141 544 3541 
Q 544 4100 942 4425 
Q 1341 4750 2034 4750 
Q 2731 4750 3128 4425 
Q 3525 4100 3525 3541 
Q 3525 3141 3298 2862 
Q 3072 2584 2669 2484 
Q 3125 2378 3379 2068 
Q 3634 1759 3634 1313 
Q 3634 634 3220 271 
Q 2806 -91 2034 -91 
Q 1263 -91 848 271 
Q 434 634 434 1313 
Q 434 1759 690 2068 
Q 947 2378 1403 2484 
z
M 1172 3481 
Q 1172 3119 1398 2916 
Q 1625 2713 2034 2713 
Q 2441 2713 2670 2916 
Q 2900 3119 2900 3481 
Q 2900 3844 2670 4047 
Q 2441 4250 2034 4250 
Q 1625 4250 1398 4047 
Q 1172 3844 1172 3481 
z
" transform="scale(0.015625)"/>
       </defs>
       <use xlink:href="#DejaVuSans-38"/>
       <use xlink:href="#DejaVuSans-30" x="63.623047"/>
       <use xlink:href="#DejaVuSans-30" x="127.246094"/>
      </g>
     </g>
    </g>
    <g id="text_16">
     <!-- [counts] -->
     <g transform="translate(14.798437 145.03875) rotate(-90) scale(0.1 -0.1)">
      <defs>
       <path id="DejaVuSans-63" d="M 3122 3366 
L 3122 2828 
Q 2878 2963 2633 3030 
Q 2388 3097 2138 3097 
Q 1578 3097 1268 2742 
Q 959 2388 959 1747 
Q 959 1106 1268 751 
Q 1578 397 2138 397 
Q 2388 397 2633 464 
Q 2878 531 3122 666 
L 3122 134 
Q 2881 22 2623 -34 
Q 2366 -91 2075 -91 
Q 1284 -91 818 406 
Q 353 903 353 1747 
Q 353 2603 823 3093 
Q 1294 3584 2113 3584 
Q 2378 3584 2631 3529 
Q 2884 3475 3122 3366 
z
" transform="scale(0.015625)"/>
       <path id="DejaVuSans-6f" d="M 1959 3097 
Q 1497 3097 1228 2736 
Q 959 2375 959 1747 
Q 959 1119 1226 758 
Q 1494 397 1959 397 
Q 2419 397 2687 759 
Q 2956 1122 2956 1747 
Q 2956 2369 2687 2733 
Q 2419 3097 1959 3097 
z
M 1959 3584 
Q 2709 3584 3137 3096 
Q 3566 2609 3566 1747 
Q 3566 888 3137 398 
Q 2709 -91 1959 -91 
Q 1206 -91 779 398 
Q 353 888 353 1747 
Q 353 2609 779 3096 
Q 1206 3584 1959 3584 
z
" transform="scale(0.015625)"/>
       <path id="DejaVuSans-75" d="M 544 1381 
L 544 3500 
L 1119 3500 
L 1119 1403 
Q 1119 906 1312 657 
Q 1506 409 1894 409 
Q 2359 409 2629 706 
Q 2900 1003 2900 1516 
L 2900 3500 
L 3475 3500 
L 3475 0 
L 2900 0 
L 2900 538 
Q 2691 219 2414 64 
Q 2138 -91 1772 -91 
Q 1169 -91 856 284 
Q 544 659 544 1381 
z
M 1991 3584 
L 1991 3584 
z
" transform="scale(0.015625)"/>
       <path id="DejaVuSans-6e" d="M 3513 2113 
L 3513 0 
L 2938 0 
L 2938 2094 
Q 2938 2591 2744 2837 
Q 2550 3084 2163 3084 
Q 1697 3084 1428 2787 
Q 1159 2491 1159 1978 
L 1159 0 
L 581 0 
L 581 3500 
L 1159 3500 
L 1159 2956 
Q 1366 3272 1645 3428 
Q 1925 3584 2291 3584 
Q 2894 3584 3203 3211 
Q 3513 2838 3513 2113 
z
" transform="scale(0.015625)"/>
       <path id="DejaVuSans-74" d="M 1172 4494 
L 1172 3500 
L 2356 3500 
L 2356 3053 
L 1172 3053 
L 1172 1153 
Q 1172 725 1289 603 
Q 1406 481 1766 481 
L 2356 481 
L 2356 0 
L 1766 0 
Q 1100 0 847 248 
Q 594 497 594 1153 
L 594 3053 
L 172 3053 
L 172 3500 
L 594 3500 
L 594 4494 
L 1172 4494 
z
" transform="scale(0.015625)"/>
       <path id="DejaVuSans-73" d="M 2834 3397 
L 2834 2853 
Q 2591 2978 2328 3040 
Q 2066 3103 1784 3103 
Q 1356 3103 1142 2972 
Q 928 2841 928 2578 
Q 928 2378 1081 2264 
Q 1234 2150 1697 2047 
L 1894 2003 
Q 2506 1872 2764 1633 
Q 3022 1394 3022 966 
Q 3022 478 2636 193 
Q 2250 -91 1575 -91 
Q 1294 -91 989 -36 
Q 684 19 347 128 
L 347 722 
Q 666 556 975 473 
Q 1284 391 1588 391 
Q 1994 391 2212 530 
Q 2431 669 2431 922 
Q 2431 1156 2273 1281 
Q 2116 1406 1581 1522 
L 1381 1569 
Q 847 1681 609 1914 
Q 372 2147 372 2553 
Q 372 3047 722 3315 
Q 1072 3584 1716 3584 
Q 2034 3584 2315 3537 
Q 2597 3491 2834 3397 
z
" transform="scale(0.015625)"/>
      </defs>
      <use xlink:href="#DejaVuSans-5b"/>
      <use xlink:href="#DejaVuSans-63" x="39.013672"/>
      <use xlink:href="#DejaVuSans-6f" x="93.994141"/>
      <use xlink:href="#DejaVuSans-75" x="155.175781"/>
      <use xlink:href="#DejaVuSans-6e" x="218.554688"/>
      <use xlink:href="#DejaVuSans-74" x="281.933594"/>
      <use xlink:href="#DejaVuSans-73" x="321.142578"/>
      <use xlink:href="#DejaVuSans-5d" x="373.242188"/>
     </g>
    </g>
   </g>
   <g id="patch_3">
    <path d="M 46.965625 241.6525 
L 46.965625 7.2 
" style="fill: none; stroke: #000000; stroke-width: 0.8; stroke-linejoin: miter; stroke-linecap: square"/>
   </g>
   <g id="patch_4">
    <path d="M 404.149852 241.6525 
L 404.149852 7.2 
" style="fill: none; stroke: #000000; stroke-width: 0.8; stroke-linejoin: miter; stroke-linecap: square"/>
   </g>
   <g id="patch_5">
    <path d="M 46.965625 241.6525 
L 404.149852 241.6525 
" style="fill: none; stroke: #000000; stroke-width: 0.8; stroke-linejoin: miter; stroke-linecap: square"/>
   </g>
   <g id="patch_6">
    <path d="M 46.965625 7.2 
L 404.149852 7.2 
" style="fill: none; stroke: #000000; stroke-width: 0.8; stroke-linejoin: miter; stroke-linecap: square"/>
   </g>
   <g id="line2d_15">
    <path d="M 63.201272 158.236728 
L 64.824836 158.236728 
L 64.824836 61.402887 
L 66.448401 61.402887 
L 66.448401 24.799541 
L 68.071966 24.799541 
L 68.071966 38.37683 
L 69.69553 38.37683 
L 69.69553 24.892065 
L 71.319095 24.892065 
L 71.319095 50.900006 
L 72.94266 50.900006 
L 72.94266 41.233975 
L 74.566224 41.233975 
L 74.566224 54.172256 
L 76.189789 54.172256 
L 76.189789 55.705653 
L 77.813354 55.705653 
L 77.813354 47.410058 
L 79.436918 47.410058 
L 79.436918 42.905557 
L 81.060483 42.905557 
L 81.060483 43.544644 
L 82.684048 43.544644 
L 82.684048 39.073637 
L 84.307612 39.073637 
L 84.307612 46.657507 
L 85.931177 46.657507 
L 85.931177 47.862588 
L 87.554742 47.862588 
L 87.554742 45.271397 
L 89.178306 45.271397 
L 89.178306 34.961472 
L 90.801871 34.961472 
L 90.801871 39.419327 
L 92.425436 39.419327 
L 92.425436 48.741569 
L 94.049 48.741569 
L 94.049 64.354847 
L 95.672565 64.354847 
L 95.672565 60.053054 
L 97.29613 60.053054 
L 97.29613 69.446357 
L 98.919694 69.446357 
L 98.919694 92.818867 
L 100.543259 92.818867 
L 100.543259 118.74221 
L 102.166824 118.74221 
L 102.166824 141.660753 
L 103.790388 141.660753 
L 103.790388 147.427645 
L 105.413953 147.427645 
L 105.413953 169.059198 
L 107.037518 169.059198 
L 107.037518 185.520541 
L 108.661082 185.520541 
L 108.661082 173.863112 
L 110.284647 173.863112 
L 110.284647 164.448754 
L 111.908212 164.448754 
L 111.908212 153.551788 
L 113.531776 153.551788 
L 113.531776 123.668838 
L 115.155341 123.668838 
L 115.155341 117.064751 
L 116.778906 117.064751 
L 116.778906 102.305645 
L 118.40247 102.305645 
L 118.40247 97.412426 
L 120.026035 97.412426 
L 120.026035 71.018864 
L 121.6496 71.018864 
L 121.6496 71.326597 
L 123.273164 71.326597 
L 123.273164 52.270627 
L 124.896729 52.270627 
L 124.896729 32.867366 
L 126.520294 32.867366 
L 126.520294 51.870891 
L 128.143858 51.870891 
L 128.143858 42.268969 
L 129.767423 42.268969 
L 129.767423 54.130509 
L 131.390988 54.130509 
L 131.390988 42.718965 
L 133.014552 42.718965 
L 133.014552 46.844759 
L 134.638117 46.844759 
L 134.638117 48.235376 
L 136.261682 48.235376 
L 136.261682 43.401025 
L 137.885246 43.401025 
L 137.885246 42.911812 
L 139.508811 42.911812 
L 139.508811 40.530283 
L 141.132376 40.530283 
L 141.132376 57.876383 
L 142.75594 57.876383 
L 142.75594 47.580371 
L 144.379505 47.580371 
L 144.379505 43.49291 
L 146.00307 43.49291 
L 146.00307 34.936472 
L 147.626634 34.936472 
L 147.626634 39.808058 
L 149.250199 39.808058 
L 149.250199 42.526572 
L 150.873764 42.526572 
L 150.873764 47.953486 
L 152.497329 47.953486 
L 152.497329 29.038269 
L 154.120893 29.038269 
L 154.120893 59.951651 
L 155.744458 59.951651 
L 155.744458 56.693506 
L 157.368023 56.693506 
L 157.368023 44.765464 
L 158.991587 44.765464 
L 158.991587 45.271726 
L 160.615152 45.271726 
L 160.615152 36.935187 
L 162.238717 36.935187 
L 162.238717 64.360133 
L 163.862281 64.360133 
L 163.862281 56.761644 
L 165.485846 56.761644 
L 165.485846 41.020227 
L 167.109411 41.020227 
L 167.109411 49.748393 
L 168.732975 49.748393 
L 168.732975 53.416001 
L 170.35654 53.416001 
L 170.35654 57.312266 
L 171.980105 57.312266 
L 171.980105 34.707805 
L 173.603669 34.707805 
L 173.603669 73.552354 
L 175.227234 73.552354 
L 175.227234 45.86309 
L 176.850799 45.86309 
L 176.850799 62.307605 
L 178.474363 62.307605 
L 178.474363 49.343171 
L 180.097928 49.343171 
L 180.097928 31.724631 
L 181.721493 31.724631 
L 181.721493 43.252074 
L 183.345057 43.252074 
L 183.345057 45.901467 
L 184.968622 45.901467 
L 184.968622 44.359803 
L 186.592187 44.359803 
L 186.592187 53.374517 
L 188.215751 53.374517 
L 188.215751 57.633246 
L 189.839316 57.633246 
L 189.839316 38.407167 
L 191.462881 38.407167 
L 191.462881 43.153223 
L 193.086445 43.153223 
L 193.086445 35.020165 
L 194.71001 35.020165 
L 194.71001 45.514994 
L 196.333575 45.514994 
L 196.333575 42.764367 
L 197.957139 42.764367 
L 197.957139 40.94193 
L 199.580704 40.94193 
L 199.580704 48.352225 
L 201.204269 48.352225 
L 201.204269 58.932597 
L 202.827833 58.932597 
L 202.827833 48.850879 
L 204.451398 48.850879 
L 204.451398 50.185843 
L 206.074963 50.185843 
L 206.074963 48.615285 
L 207.698527 48.615285 
L 207.698527 38.651655 
L 209.322092 38.651655 
L 209.322092 51.711992 
L 210.945657 51.711992 
L 210.945657 40.071887 
L 212.569221 40.071887 
L 212.569221 53.828253 
L 214.192786 53.828253 
L 214.192786 46.80398 
L 215.816351 46.80398 
L 215.816351 47.966398 
L 217.439915 47.966398 
L 217.439915 31.659653 
L 219.06348 31.659653 
L 219.06348 36.675801 
L 220.687045 36.675801 
L 220.687045 42.226836 
L 222.310609 42.226836 
L 222.310609 55.331575 
L 223.934174 55.331575 
L 223.934174 45.693038 
L 225.557739 45.693038 
L 225.557739 53.560572 
L 227.181303 53.560572 
L 227.181303 37.197815 
L 228.804868 37.197815 
L 228.804868 48.888536 
L 230.428433 48.888536 
L 230.428433 39.73161 
L 232.051997 39.73161 
L 232.051997 31.832719 
L 233.675562 31.832719 
L 233.675562 60.570595 
L 235.299127 60.570595 
L 235.299127 53.576029 
L 236.922691 53.576029 
L 236.922691 40.091585 
L 238.546256 40.091585 
L 238.546256 39.369609 
L 240.169821 39.369609 
L 240.169821 32.060446 
L 241.793385 32.060446 
L 241.793385 44.795833 
L 243.41695 44.795833 
L 243.41695 42.089987 
L 245.040515 42.089987 
L 245.040515 50.600937 
L 246.664079 50.600937 
L 246.664079 44.132266 
L 248.287644 44.132266 
L 248.287644 45.03536 
L 249.911209 45.03536 
L 249.911209 50.744183 
L 251.534773 50.744183 
L 251.534773 48.530829 
L 253.158338 48.530829 
L 253.158338 59.029583 
L 254.781903 59.029583 
L 254.781903 48.196739 
L 256.405467 48.196739 
L 256.405467 40.536823 
L 258.029032 40.536823 
L 258.029032 29.740473 
L 259.652597 29.740473 
L 259.652597 48.530121 
L 261.276161 48.530121 
L 261.276161 55.819941 
L 262.899726 55.819941 
L 262.899726 45.302813 
L 264.523291 45.302813 
L 264.523291 60.683898 
L 266.146855 60.683898 
L 266.146855 44.788387 
L 267.77042 44.788387 
L 267.77042 34.648347 
L 269.393985 34.648347 
L 269.393985 44.016638 
L 271.017549 44.016638 
L 271.017549 44.211673 
L 272.641114 44.211673 
L 272.641114 55.076263 
L 274.264679 55.076263 
L 274.264679 55.639251 
L 275.888243 55.639251 
L 275.888243 42.852357 
L 277.511808 42.852357 
L 277.511808 44.424665 
L 279.135373 44.424665 
L 279.135373 47.851656 
L 280.758937 47.851656 
L 280.758937 52.337345 
L 282.382502 52.337345 
L 282.382502 37.756212 
L 284.006067 37.756212 
L 284.006067 47.073788 
L 285.629631 47.073788 
L 285.629631 41.984769 
L 287.253196 41.984769 
L 287.253196 55.172652 
L 288.876761 55.172652 
L 288.876761 62.752018 
L 290.500325 62.752018 
L 290.500325 54.890133 
L 292.12389 54.890133 
L 292.12389 44.42858 
L 293.747455 44.42858 
L 293.747455 59.258716 
L 295.371019 59.258716 
L 295.371019 58.511066 
L 298.618149 58.582006 
L 298.618149 49.171225 
L 300.241713 49.171225 
L 300.241713 40.711915 
L 301.865278 40.711915 
L 301.865278 34.690035 
L 303.488843 34.690035 
L 303.488843 51.338147 
L 305.112407 51.338147 
L 305.112407 44.225718 
L 306.735972 44.225718 
L 306.735972 53.689073 
L 308.359537 53.689073 
L 308.359537 42.282089 
L 309.983101 42.282089 
L 309.983101 41.568374 
L 311.606666 41.568374 
L 311.606666 50.824988 
L 313.230231 50.824988 
L 313.230231 55.922987 
L 314.853795 55.922987 
L 314.853795 43.082189 
L 316.47736 43.082189 
L 316.47736 50.772363 
L 318.100925 50.772363 
L 318.100925 60.749449 
L 319.724489 60.749449 
L 319.724489 67.097902 
L 321.348054 67.097902 
L 321.348054 68.759216 
L 322.971619 68.759216 
L 322.971619 64.614374 
L 324.595183 64.614374 
L 324.595183 89.31165 
L 326.218748 89.31165 
L 326.218748 83.456847 
L 327.842313 83.456847 
L 327.842313 80.815277 
L 329.465877 80.815277 
L 329.465877 91.751029 
L 331.089442 91.751029 
L 331.089442 76.278047 
L 332.713007 76.278047 
L 332.713007 84.407051 
L 334.336571 84.407051 
L 334.336571 110.741068 
L 335.960136 110.741068 
L 335.960136 102.912973 
L 337.583701 102.912973 
L 337.583701 109.758341 
L 340.83083 109.782348 
L 340.83083 120.03373 
L 342.454395 120.03373 
L 342.454395 105.492975 
L 344.077959 105.492975 
L 344.077959 127.613062 
L 345.701524 127.613062 
L 345.701524 134.964655 
L 347.325089 134.964655 
L 347.325089 134.074947 
L 348.948653 134.074947 
L 348.948653 131.112168 
L 350.572218 131.112168 
L 350.572218 132.122363 
L 352.195783 132.122363 
L 352.195783 153.572215 
L 353.819347 153.572215 
L 353.819347 150.883645 
L 355.442912 150.883645 
L 355.442912 160.163893 
L 357.066477 160.163893 
L 357.066477 159.445109 
L 358.690042 159.445109 
L 358.690042 168.214389 
L 360.313606 168.214389 
L 360.313606 164.911913 
L 361.937171 164.911913 
L 361.937171 156.674589 
L 363.560736 156.674589 
L 363.560736 172.754683 
L 365.1843 172.754683 
L 365.1843 171.96123 
L 366.807865 171.96123 
L 366.807865 189.630349 
L 368.43143 189.630349 
L 368.43143 174.216142 
L 370.054994 174.216142 
L 370.054994 197.133185 
L 371.678559 197.133185 
L 371.678559 198.865959 
L 373.302124 198.865959 
L 373.302124 199.852273 
L 374.925688 199.852273 
L 374.925688 208.334037 
L 376.549253 208.334037 
L 376.549253 211.50856 
L 378.172818 211.50856 
L 378.172818 212.434165 
L 379.796382 212.434165 
L 379.796382 214.358543 
L 381.419947 214.358543 
L 381.419947 219.165086 
L 383.043512 219.165086 
L 383.043512 228.627051 
L 384.667076 228.627051 
L 384.667076 229.707674 
L 386.290641 229.707674 
L 386.290641 230.735701 
L 387.914206 230.735701 
L 387.914206 230.735701 
" clip-path="url(#pd98d78264d)" style="fill: none; stroke: #1f77b4; stroke-width: 1.5; stroke-linecap: square"/>
   </g>
   <g id="LineCollection_1">
    <path d="M 64.013054 162.361325 
L 64.013054 154.11213 
" clip-path="url(#pd98d78264d)" style="fill: none; stroke: #1f77b4; stroke-width: 1.5"/>
    <path d="M 65.636619 67.699293 
L 65.636619 55.106481 
" clip-path="url(#pd98d78264d)" style="fill: none; stroke: #1f77b4; stroke-width: 1.5"/>
    <path d="M 67.260183 31.74215 
L 67.260183 17.856932 
" clip-path="url(#pd98d78264d)" style="fill: none; stroke: #1f77b4; stroke-width: 1.5"/>
    <path d="M 68.883748 45.087008 
L 68.883748 31.666653 
" clip-path="url(#pd98d78264d)" style="fill: none; stroke: #1f77b4; stroke-width: 1.5"/>
    <path d="M 70.507313 31.833116 
L 70.507313 17.951013 
" clip-path="url(#pd98d78264d)" style="fill: none; stroke: #1f77b4; stroke-width: 1.5"/>
    <path d="M 72.130877 57.388419 
L 72.130877 44.411592 
" clip-path="url(#pd98d78264d)" style="fill: none; stroke: #1f77b4; stroke-width: 1.5"/>
    <path d="M 73.754442 47.894207 
L 73.754442 34.573742 
" clip-path="url(#pd98d78264d)" style="fill: none; stroke: #1f77b4; stroke-width: 1.5"/>
    <path d="M 75.378007 60.601463 
L 75.378007 47.743049 
" clip-path="url(#pd98d78264d)" style="fill: none; stroke: #1f77b4; stroke-width: 1.5"/>
    <path d="M 77.001571 62.106927 
L 77.001571 49.304379 
" clip-path="url(#pd98d78264d)" style="fill: none; stroke: #1f77b4; stroke-width: 1.5"/>
    <path d="M 78.625136 53.961027 
L 78.625136 40.859089 
" clip-path="url(#pd98d78264d)" style="fill: none; stroke: #1f77b4; stroke-width: 1.5"/>
    <path d="M 80.248701 49.536395 
L 80.248701 36.27472 
" clip-path="url(#pd98d78264d)" style="fill: none; stroke: #1f77b4; stroke-width: 1.5"/>
    <path d="M 81.872265 50.164209 
L 81.872265 36.92508 
" clip-path="url(#pd98d78264d)" style="fill: none; stroke: #1f77b4; stroke-width: 1.5"/>
    <path d="M 83.49583 45.771668 
L 83.49583 32.375606 
" clip-path="url(#pd98d78264d)" style="fill: none; stroke: #1f77b4; stroke-width: 1.5"/>
    <path d="M 85.119395 53.221887 
L 85.119395 40.093127 
" clip-path="url(#pd98d78264d)" style="fill: none; stroke: #1f77b4; stroke-width: 1.5"/>
    <path d="M 86.742959 54.40548 
L 86.742959 41.319697 
" clip-path="url(#pd98d78264d)" style="fill: none; stroke: #1f77b4; stroke-width: 1.5"/>
    <path d="M 88.366524 51.860407 
L 88.366524 38.682387 
" clip-path="url(#pd98d78264d)" style="fill: none; stroke: #1f77b4; stroke-width: 1.5"/>
    <path d="M 89.990089 41.730869 
L 89.990089 28.192076 
" clip-path="url(#pd98d78264d)" style="fill: none; stroke: #1f77b4; stroke-width: 1.5"/>
    <path d="M 91.613653 46.111324 
L 91.613653 32.72733 
" clip-path="url(#pd98d78264d)" style="fill: none; stroke: #1f77b4; stroke-width: 1.5"/>
    <path d="M 93.237218 55.268742 
L 93.237218 42.214396 
" clip-path="url(#pd98d78264d)" style="fill: none; stroke: #1f77b4; stroke-width: 1.5"/>
    <path d="M 94.860783 70.596224 
L 94.860783 58.11347 
" clip-path="url(#pd98d78264d)" style="fill: none; stroke: #1f77b4; stroke-width: 1.5"/>
    <path d="M 96.484347 66.374464 
L 96.484347 53.731645 
" clip-path="url(#pd98d78264d)" style="fill: none; stroke: #1f77b4; stroke-width: 1.5"/>
    <path d="M 98.107912 75.591662 
L 98.107912 63.301052 
" clip-path="url(#pd98d78264d)" style="fill: none; stroke: #1f77b4; stroke-width: 1.5"/>
    <path d="M 99.731477 98.502356 
L 99.731477 87.135378 
" clip-path="url(#pd98d78264d)" style="fill: none; stroke: #1f77b4; stroke-width: 1.5"/>
    <path d="M 101.355041 123.865015 
L 101.355041 113.619405 
" clip-path="url(#pd98d78264d)" style="fill: none; stroke: #1f77b4; stroke-width: 1.5"/>
    <path d="M 102.978606 146.23093 
L 102.978606 137.090576 
" clip-path="url(#pd98d78264d)" style="fill: none; stroke: #1f77b4; stroke-width: 1.5"/>
    <path d="M 104.602171 151.847899 
L 104.602171 143.00739 
" clip-path="url(#pd98d78264d)" style="fill: none; stroke: #1f77b4; stroke-width: 1.5"/>
    <path d="M 106.225735 172.864829 
L 106.225735 165.253566 
" clip-path="url(#pd98d78264d)" style="fill: none; stroke: #1f77b4; stroke-width: 1.5"/>
    <path d="M 107.8493 188.781739 
L 107.8493 182.259342 
" clip-path="url(#pd98d78264d)" style="fill: none; stroke: #1f77b4; stroke-width: 1.5"/>
    <path d="M 109.472865 177.518251 
L 109.472865 170.207974 
" clip-path="url(#pd98d78264d)" style="fill: none; stroke: #1f77b4; stroke-width: 1.5"/>
    <path d="M 111.096429 168.393422 
L 111.096429 160.504086 
" clip-path="url(#pd98d78264d)" style="fill: none; stroke: #1f77b4; stroke-width: 1.5"/>
    <path d="M 112.719994 157.807054 
L 112.719994 149.296522 
" clip-path="url(#pd98d78264d)" style="fill: none; stroke: #1f77b4; stroke-width: 1.5"/>
    <path d="M 114.343559 128.677996 
L 114.343559 118.65968 
" clip-path="url(#pd98d78264d)" style="fill: none; stroke: #1f77b4; stroke-width: 1.5"/>
    <path d="M 115.967123 122.225681 
L 115.967123 111.903821 
" clip-path="url(#pd98d78264d)" style="fill: none; stroke: #1f77b4; stroke-width: 1.5"/>
    <path d="M 117.590688 107.790603 
L 117.590688 96.820687 
" clip-path="url(#pd98d78264d)" style="fill: none; stroke: #1f77b4; stroke-width: 1.5"/>
    <path d="M 119.214253 103.000666 
L 119.214253 91.824186 
" clip-path="url(#pd98d78264d)" style="fill: none; stroke: #1f77b4; stroke-width: 1.5"/>
    <path d="M 120.837817 77.134192 
L 120.837817 64.903535 
" clip-path="url(#pd98d78264d)" style="fill: none; stroke: #1f77b4; stroke-width: 1.5"/>
    <path d="M 122.461382 77.436042 
L 122.461382 65.217152 
" clip-path="url(#pd98d78264d)" style="fill: none; stroke: #1f77b4; stroke-width: 1.5"/>
    <path d="M 124.084947 58.734307 
L 124.084947 45.806947 
" clip-path="url(#pd98d78264d)" style="fill: none; stroke: #1f77b4; stroke-width: 1.5"/>
    <path d="M 125.708511 39.672817 
L 125.708511 26.061914 
" clip-path="url(#pd98d78264d)" style="fill: none; stroke: #1f77b4; stroke-width: 1.5"/>
    <path d="M 127.332076 58.341794 
L 127.332076 45.399987 
" clip-path="url(#pd98d78264d)" style="fill: none; stroke: #1f77b4; stroke-width: 1.5"/>
    <path d="M 128.955641 48.911016 
L 128.955641 35.626922 
" clip-path="url(#pd98d78264d)" style="fill: none; stroke: #1f77b4; stroke-width: 1.5"/>
    <path d="M 130.579205 60.560475 
L 130.579205 47.700543 
" clip-path="url(#pd98d78264d)" style="fill: none; stroke: #1f77b4; stroke-width: 1.5"/>
    <path d="M 132.20277 49.353091 
L 132.20277 36.08484 
" clip-path="url(#pd98d78264d)" style="fill: none; stroke: #1f77b4; stroke-width: 1.5"/>
    <path d="M 133.826335 53.405805 
L 133.826335 40.283713 
" clip-path="url(#pd98d78264d)" style="fill: none; stroke: #1f77b4; stroke-width: 1.5"/>
    <path d="M 135.449899 54.771605 
L 135.449899 41.699146 
" clip-path="url(#pd98d78264d)" style="fill: none; stroke: #1f77b4; stroke-width: 1.5"/>
    <path d="M 137.073464 50.023125 
L 137.073464 36.778926 
" clip-path="url(#pd98d78264d)" style="fill: none; stroke: #1f77b4; stroke-width: 1.5"/>
    <path d="M 138.697029 49.542539 
L 138.697029 36.281085 
" clip-path="url(#pd98d78264d)" style="fill: none; stroke: #1f77b4; stroke-width: 1.5"/>
    <path d="M 140.320593 47.202851 
L 140.320593 33.857715 
" clip-path="url(#pd98d78264d)" style="fill: none; stroke: #1f77b4; stroke-width: 1.5"/>
    <path d="M 141.944158 64.237905 
L 141.944158 51.514861 
" clip-path="url(#pd98d78264d)" style="fill: none; stroke: #1f77b4; stroke-width: 1.5"/>
    <path d="M 143.567723 54.128301 
L 143.567723 41.032441 
" clip-path="url(#pd98d78264d)" style="fill: none; stroke: #1f77b4; stroke-width: 1.5"/>
    <path d="M 145.191287 50.113388 
L 145.191287 36.872432 
" clip-path="url(#pd98d78264d)" style="fill: none; stroke: #1f77b4; stroke-width: 1.5"/>
    <path d="M 146.814852 41.706301 
L 146.814852 28.166644 
" clip-path="url(#pd98d78264d)" style="fill: none; stroke: #1f77b4; stroke-width: 1.5"/>
    <path d="M 148.438417 46.493263 
L 148.438417 33.122853 
" clip-path="url(#pd98d78264d)" style="fill: none; stroke: #1f77b4; stroke-width: 1.5"/>
    <path d="M 150.061981 49.164085 
L 150.061981 35.889058 
" clip-path="url(#pd98d78264d)" style="fill: none; stroke: #1f77b4; stroke-width: 1.5"/>
    <path d="M 151.685546 54.494753 
L 151.685546 41.412218 
" clip-path="url(#pd98d78264d)" style="fill: none; stroke: #1f77b4; stroke-width: 1.5"/>
    <path d="M 153.309111 35.909159 
L 153.309111 22.167379 
" clip-path="url(#pd98d78264d)" style="fill: none; stroke: #1f77b4; stroke-width: 1.5"/>
    <path d="M 154.932676 66.274935 
L 154.932676 53.628368 
" clip-path="url(#pd98d78264d)" style="fill: none; stroke: #1f77b4; stroke-width: 1.5"/>
    <path d="M 156.55624 63.076721 
L 156.55624 50.310292 
" clip-path="url(#pd98d78264d)" style="fill: none; stroke: #1f77b4; stroke-width: 1.5"/>
    <path d="M 158.179805 51.363441 
L 158.179805 38.167487 
" clip-path="url(#pd98d78264d)" style="fill: none; stroke: #1f77b4; stroke-width: 1.5"/>
    <path d="M 159.80337 51.860731 
L 159.80337 38.682722 
" clip-path="url(#pd98d78264d)" style="fill: none; stroke: #1f77b4; stroke-width: 1.5"/>
    <path d="M 161.426934 43.670425 
L 161.426934 30.19995 
" clip-path="url(#pd98d78264d)" style="fill: none; stroke: #1f77b4; stroke-width: 1.5"/>
    <path d="M 163.050499 70.601411 
L 163.050499 58.118856 
" clip-path="url(#pd98d78264d)" style="fill: none; stroke: #1f77b4; stroke-width: 1.5"/>
    <path d="M 164.674064 63.143611 
L 164.674064 50.379677 
" clip-path="url(#pd98d78264d)" style="fill: none; stroke: #1f77b4; stroke-width: 1.5"/>
    <path d="M 166.297628 47.684209 
L 166.297628 34.356245 
" clip-path="url(#pd98d78264d)" style="fill: none; stroke: #1f77b4; stroke-width: 1.5"/>
    <path d="M 167.921193 56.257515 
L 167.921193 43.239271 
" clip-path="url(#pd98d78264d)" style="fill: none; stroke: #1f77b4; stroke-width: 1.5"/>
    <path d="M 169.544758 59.858939 
L 169.544758 46.973062 
" clip-path="url(#pd98d78264d)" style="fill: none; stroke: #1f77b4; stroke-width: 1.5"/>
    <path d="M 171.168322 63.684142 
L 171.168322 50.940389 
" clip-path="url(#pd98d78264d)" style="fill: none; stroke: #1f77b4; stroke-width: 1.5"/>
    <path d="M 172.791887 41.481579 
L 172.791887 27.93403 
" clip-path="url(#pd98d78264d)" style="fill: none; stroke: #1f77b4; stroke-width: 1.5"/>
    <path d="M 174.415452 79.619075 
L 174.415452 67.485633 
" clip-path="url(#pd98d78264d)" style="fill: none; stroke: #1f77b4; stroke-width: 1.5"/>
    <path d="M 176.039016 52.441597 
L 176.039016 39.284583 
" clip-path="url(#pd98d78264d)" style="fill: none; stroke: #1f77b4; stroke-width: 1.5"/>
    <path d="M 177.662581 68.587197 
L 177.662581 56.028013 
" clip-path="url(#pd98d78264d)" style="fill: none; stroke: #1f77b4; stroke-width: 1.5"/>
    <path d="M 179.286146 55.859564 
L 179.286146 42.826778 
" clip-path="url(#pd98d78264d)" style="fill: none; stroke: #1f77b4; stroke-width: 1.5"/>
    <path d="M 180.90971 38.549678 
L 180.90971 24.899585 
" clip-path="url(#pd98d78264d)" style="fill: none; stroke: #1f77b4; stroke-width: 1.5"/>
    <path d="M 182.533275 49.876801 
L 182.533275 36.627346 
" clip-path="url(#pd98d78264d)" style="fill: none; stroke: #1f77b4; stroke-width: 1.5"/>
    <path d="M 184.15684 52.479293 
L 184.15684 39.323642 
" clip-path="url(#pd98d78264d)" style="fill: none; stroke: #1f77b4; stroke-width: 1.5"/>
    <path d="M 185.780404 50.964961 
L 185.780404 37.754645 
" clip-path="url(#pd98d78264d)" style="fill: none; stroke: #1f77b4; stroke-width: 1.5"/>
    <path d="M 187.403969 59.818208 
L 187.403969 46.930826 
" clip-path="url(#pd98d78264d)" style="fill: none; stroke: #1f77b4; stroke-width: 1.5"/>
    <path d="M 189.027534 63.999233 
L 189.027534 51.267259 
" clip-path="url(#pd98d78264d)" style="fill: none; stroke: #1f77b4; stroke-width: 1.5"/>
    <path d="M 190.651098 45.116816 
L 190.651098 31.697518 
" clip-path="url(#pd98d78264d)" style="fill: none; stroke: #1f77b4; stroke-width: 1.5"/>
    <path d="M 192.274663 49.779694 
L 192.274663 36.526752 
" clip-path="url(#pd98d78264d)" style="fill: none; stroke: #1f77b4; stroke-width: 1.5"/>
    <path d="M 193.898228 41.788549 
L 193.898228 28.251782 
" clip-path="url(#pd98d78264d)" style="fill: none; stroke: #1f77b4; stroke-width: 1.5"/>
    <path d="M 195.521792 52.099682 
L 195.521792 38.930306 
" clip-path="url(#pd98d78264d)" style="fill: none; stroke: #1f77b4; stroke-width: 1.5"/>
    <path d="M 197.145357 49.397693 
L 197.145357 36.131042 
" clip-path="url(#pd98d78264d)" style="fill: none; stroke: #1f77b4; stroke-width: 1.5"/>
    <path d="M 198.768922 47.607285 
L 198.768922 34.276575 
" clip-path="url(#pd98d78264d)" style="fill: none; stroke: #1f77b4; stroke-width: 1.5"/>
    <path d="M 200.392486 54.886366 
L 200.392486 41.818085 
" clip-path="url(#pd98d78264d)" style="fill: none; stroke: #1f77b4; stroke-width: 1.5"/>
    <path d="M 202.016051 65.274687 
L 202.016051 52.590508 
" clip-path="url(#pd98d78264d)" style="fill: none; stroke: #1f77b4; stroke-width: 1.5"/>
    <path d="M 203.639616 55.376094 
L 203.639616 42.325663 
" clip-path="url(#pd98d78264d)" style="fill: none; stroke: #1f77b4; stroke-width: 1.5"/>
    <path d="M 205.26318 56.687106 
L 205.26318 43.684579 
" clip-path="url(#pd98d78264d)" style="fill: none; stroke: #1f77b4; stroke-width: 1.5"/>
    <path d="M 206.886745 55.144718 
L 206.886745 42.085851 
" clip-path="url(#pd98d78264d)" style="fill: none; stroke: #1f77b4; stroke-width: 1.5"/>
    <path d="M 208.51031 45.357045 
L 208.51031 31.946266 
" clip-path="url(#pd98d78264d)" style="fill: none; stroke: #1f77b4; stroke-width: 1.5"/>
    <path d="M 210.133874 58.185764 
L 210.133874 45.238219 
" clip-path="url(#pd98d78264d)" style="fill: none; stroke: #1f77b4; stroke-width: 1.5"/>
    <path d="M 211.757439 46.752479 
L 211.757439 33.391295 
" clip-path="url(#pd98d78264d)" style="fill: none; stroke: #1f77b4; stroke-width: 1.5"/>
    <path d="M 213.381004 60.26371 
L 213.381004 47.392796 
" clip-path="url(#pd98d78264d)" style="fill: none; stroke: #1f77b4; stroke-width: 1.5"/>
    <path d="M 215.004568 53.365752 
L 215.004568 40.242208 
" clip-path="url(#pd98d78264d)" style="fill: none; stroke: #1f77b4; stroke-width: 1.5"/>
    <path d="M 216.628133 54.507435 
L 216.628133 41.425362 
" clip-path="url(#pd98d78264d)" style="fill: none; stroke: #1f77b4; stroke-width: 1.5"/>
    <path d="M 218.251698 38.485812 
L 218.251698 24.833494 
" clip-path="url(#pd98d78264d)" style="fill: none; stroke: #1f77b4; stroke-width: 1.5"/>
    <path d="M 219.875262 43.415537 
L 219.875262 29.936064 
" clip-path="url(#pd98d78264d)" style="fill: none; stroke: #1f77b4; stroke-width: 1.5"/>
    <path d="M 221.498827 48.869624 
L 221.498827 35.584047 
" clip-path="url(#pd98d78264d)" style="fill: none; stroke: #1f77b4; stroke-width: 1.5"/>
    <path d="M 223.122392 61.739675 
L 223.122392 48.923475 
" clip-path="url(#pd98d78264d)" style="fill: none; stroke: #1f77b4; stroke-width: 1.5"/>
    <path d="M 224.745956 52.274565 
L 224.745956 39.11151 
" clip-path="url(#pd98d78264d)" style="fill: none; stroke: #1f77b4; stroke-width: 1.5"/>
    <path d="M 226.369521 60.000888 
L 226.369521 47.120256 
" clip-path="url(#pd98d78264d)" style="fill: none; stroke: #1f77b4; stroke-width: 1.5"/>
    <path d="M 227.993086 43.928494 
L 227.993086 30.467136 
" clip-path="url(#pd98d78264d)" style="fill: none; stroke: #1f77b4; stroke-width: 1.5"/>
    <path d="M 229.61665 55.413077 
L 229.61665 42.363995 
" clip-path="url(#pd98d78264d)" style="fill: none; stroke: #1f77b4; stroke-width: 1.5"/>
    <path d="M 231.240215 46.418152 
L 231.240215 33.045069 
" clip-path="url(#pd98d78264d)" style="fill: none; stroke: #1f77b4; stroke-width: 1.5"/>
    <path d="M 232.86378 38.655915 
L 232.86378 25.009524 
" clip-path="url(#pd98d78264d)" style="fill: none; stroke: #1f77b4; stroke-width: 1.5"/>
    <path d="M 234.487344 66.882429 
L 234.487344 54.25876 
" clip-path="url(#pd98d78264d)" style="fill: none; stroke: #1f77b4; stroke-width: 1.5"/>
    <path d="M 236.110909 60.016065 
L 236.110909 47.135994 
" clip-path="url(#pd98d78264d)" style="fill: none; stroke: #1f77b4; stroke-width: 1.5"/>
    <path d="M 237.734474 46.771832 
L 237.734474 33.411338 
" clip-path="url(#pd98d78264d)" style="fill: none; stroke: #1f77b4; stroke-width: 1.5"/>
    <path d="M 239.358038 46.062474 
L 239.358038 32.676744 
" clip-path="url(#pd98d78264d)" style="fill: none; stroke: #1f77b4; stroke-width: 1.5"/>
    <path d="M 240.981603 38.87974 
L 240.981603 25.241152 
" clip-path="url(#pd98d78264d)" style="fill: none; stroke: #1f77b4; stroke-width: 1.5"/>
    <path d="M 242.605168 51.393272 
L 242.605168 38.198394 
" clip-path="url(#pd98d78264d)" style="fill: none; stroke: #1f77b4; stroke-width: 1.5"/>
    <path d="M 244.228732 48.735182 
L 244.228732 35.444791 
" clip-path="url(#pd98d78264d)" style="fill: none; stroke: #1f77b4; stroke-width: 1.5"/>
    <path d="M 245.852297 57.094735 
L 245.852297 44.10714 
" clip-path="url(#pd98d78264d)" style="fill: none; stroke: #1f77b4; stroke-width: 1.5"/>
    <path d="M 247.475862 50.741449 
L 247.475862 37.523083 
" clip-path="url(#pd98d78264d)" style="fill: none; stroke: #1f77b4; stroke-width: 1.5"/>
    <path d="M 249.099426 51.628555 
L 249.099426 38.442165 
" clip-path="url(#pd98d78264d)" style="fill: none; stroke: #1f77b4; stroke-width: 1.5"/>
    <path d="M 250.722991 57.235402 
L 250.722991 44.252963 
" clip-path="url(#pd98d78264d)" style="fill: none; stroke: #1f77b4; stroke-width: 1.5"/>
    <path d="M 252.346556 55.061774 
L 252.346556 41.999884 
" clip-path="url(#pd98d78264d)" style="fill: none; stroke: #1f77b4; stroke-width: 1.5"/>
    <path d="M 253.97012 65.369885 
L 253.97012 52.689281 
" clip-path="url(#pd98d78264d)" style="fill: none; stroke: #1f77b4; stroke-width: 1.5"/>
    <path d="M 255.593685 54.733659 
L 255.593685 41.659818 
" clip-path="url(#pd98d78264d)" style="fill: none; stroke: #1f77b4; stroke-width: 1.5"/>
    <path d="M 257.21725 47.209277 
L 257.21725 33.864369 
" clip-path="url(#pd98d78264d)" style="fill: none; stroke: #1f77b4; stroke-width: 1.5"/>
    <path d="M 258.840814 36.599409 
L 258.840814 22.881536 
" clip-path="url(#pd98d78264d)" style="fill: none; stroke: #1f77b4; stroke-width: 1.5"/>
    <path d="M 260.464379 55.061078 
L 260.464379 41.999163 
" clip-path="url(#pd98d78264d)" style="fill: none; stroke: #1f77b4; stroke-width: 1.5"/>
    <path d="M 262.087944 62.219129 
L 262.087944 49.420754 
" clip-path="url(#pd98d78264d)" style="fill: none; stroke: #1f77b4; stroke-width: 1.5"/>
    <path d="M 263.711508 51.891265 
L 263.711508 38.71436 
" clip-path="url(#pd98d78264d)" style="fill: none; stroke: #1f77b4; stroke-width: 1.5"/>
    <path d="M 265.335073 66.993635 
L 265.335073 54.374161 
" clip-path="url(#pd98d78264d)" style="fill: none; stroke: #1f77b4; stroke-width: 1.5"/>
    <path d="M 266.958638 51.385958 
L 266.958638 38.190816 
" clip-path="url(#pd98d78264d)" style="fill: none; stroke: #1f77b4; stroke-width: 1.5"/>
    <path d="M 268.582202 41.423147 
L 268.582202 27.873547 
" clip-path="url(#pd98d78264d)" style="fill: none; stroke: #1f77b4; stroke-width: 1.5"/>
    <path d="M 270.205767 50.627865 
L 270.205767 37.405412 
" clip-path="url(#pd98d78264d)" style="fill: none; stroke: #1f77b4; stroke-width: 1.5"/>
    <path d="M 271.829332 50.819451 
L 271.829332 37.603895 
" clip-path="url(#pd98d78264d)" style="fill: none; stroke: #1f77b4; stroke-width: 1.5"/>
    <path d="M 273.452896 61.489017 
L 273.452896 48.663509 
" clip-path="url(#pd98d78264d)" style="fill: none; stroke: #1f77b4; stroke-width: 1.5"/>
    <path d="M 275.076461 62.041737 
L 275.076461 49.236764 
" clip-path="url(#pd98d78264d)" style="fill: none; stroke: #1f77b4; stroke-width: 1.5"/>
    <path d="M 276.700026 49.484132 
L 276.700026 36.220582 
" clip-path="url(#pd98d78264d)" style="fill: none; stroke: #1f77b4; stroke-width: 1.5"/>
    <path d="M 278.32359 51.028675 
L 278.32359 37.820654 
" clip-path="url(#pd98d78264d)" style="fill: none; stroke: #1f77b4; stroke-width: 1.5"/>
    <path d="M 279.947155 54.394742 
L 279.947155 41.308569 
" clip-path="url(#pd98d78264d)" style="fill: none; stroke: #1f77b4; stroke-width: 1.5"/>
    <path d="M 281.57072 58.799819 
L 281.57072 45.874871 
" clip-path="url(#pd98d78264d)" style="fill: none; stroke: #1f77b4; stroke-width: 1.5"/>
    <path d="M 283.194284 44.477189 
L 283.194284 31.035235 
" clip-path="url(#pd98d78264d)" style="fill: none; stroke: #1f77b4; stroke-width: 1.5"/>
    <path d="M 284.817849 53.630753 
L 284.817849 40.516823 
" clip-path="url(#pd98d78264d)" style="fill: none; stroke: #1f77b4; stroke-width: 1.5"/>
    <path d="M 286.441414 48.631815 
L 286.441414 35.337724 
" clip-path="url(#pd98d78264d)" style="fill: none; stroke: #1f77b4; stroke-width: 1.5"/>
    <path d="M 288.064978 61.58365 
L 288.064978 48.761655 
" clip-path="url(#pd98d78264d)" style="fill: none; stroke: #1f77b4; stroke-width: 1.5"/>
    <path d="M 289.688543 69.023334 
L 289.688543 56.480702 
" clip-path="url(#pd98d78264d)" style="fill: none; stroke: #1f77b4; stroke-width: 1.5"/>
    <path d="M 291.312108 61.306278 
L 291.312108 48.473987 
" clip-path="url(#pd98d78264d)" style="fill: none; stroke: #1f77b4; stroke-width: 1.5"/>
    <path d="M 292.935672 51.032521 
L 292.935672 37.824638 
" clip-path="url(#pd98d78264d)" style="fill: none; stroke: #1f77b4; stroke-width: 1.5"/>
    <path d="M 294.559237 65.594794 
L 294.559237 52.922639 
" clip-path="url(#pd98d78264d)" style="fill: none; stroke: #1f77b4; stroke-width: 1.5"/>
    <path d="M 296.182802 64.860918 
L 296.182802 52.161215 
" clip-path="url(#pd98d78264d)" style="fill: none; stroke: #1f77b4; stroke-width: 1.5"/>
    <path d="M 297.806366 64.930552 
L 297.806366 52.233459 
" clip-path="url(#pd98d78264d)" style="fill: none; stroke: #1f77b4; stroke-width: 1.5"/>
    <path d="M 299.429931 55.6907 
L 299.429931 42.651749 
" clip-path="url(#pd98d78264d)" style="fill: none; stroke: #1f77b4; stroke-width: 1.5"/>
    <path d="M 301.053496 47.381301 
L 301.053496 34.042529 
" clip-path="url(#pd98d78264d)" style="fill: none; stroke: #1f77b4; stroke-width: 1.5"/>
    <path d="M 302.67706 41.464116 
L 302.67706 27.915954 
" clip-path="url(#pd98d78264d)" style="fill: none; stroke: #1f77b4; stroke-width: 1.5"/>
    <path d="M 304.300625 57.818665 
L 304.300625 44.85763 
" clip-path="url(#pd98d78264d)" style="fill: none; stroke: #1f77b4; stroke-width: 1.5"/>
    <path d="M 305.92419 50.833248 
L 305.92419 37.618188 
" clip-path="url(#pd98d78264d)" style="fill: none; stroke: #1f77b4; stroke-width: 1.5"/>
    <path d="M 307.547754 60.127057 
L 307.547754 47.251089 
" clip-path="url(#pd98d78264d)" style="fill: none; stroke: #1f77b4; stroke-width: 1.5"/>
    <path d="M 309.171319 48.923906 
L 309.171319 35.640273 
" clip-path="url(#pd98d78264d)" style="fill: none; stroke: #1f77b4; stroke-width: 1.5"/>
    <path d="M 310.794884 48.222737 
L 310.794884 34.914012 
" clip-path="url(#pd98d78264d)" style="fill: none; stroke: #1f77b4; stroke-width: 1.5"/>
    <path d="M 312.418448 57.314753 
L 312.418448 44.335224 
" clip-path="url(#pd98d78264d)" style="fill: none; stroke: #1f77b4; stroke-width: 1.5"/>
    <path d="M 314.042013 62.320292 
L 314.042013 49.525682 
" clip-path="url(#pd98d78264d)" style="fill: none; stroke: #1f77b4; stroke-width: 1.5"/>
    <path d="M 315.665578 49.709913 
L 315.665578 36.454465 
" clip-path="url(#pd98d78264d)" style="fill: none; stroke: #1f77b4; stroke-width: 1.5"/>
    <path d="M 317.289142 57.263075 
L 317.289142 44.281651 
" clip-path="url(#pd98d78264d)" style="fill: none; stroke: #1f77b4; stroke-width: 1.5"/>
    <path d="M 318.912707 67.057972 
L 318.912707 54.440927 
" clip-path="url(#pd98d78264d)" style="fill: none; stroke: #1f77b4; stroke-width: 1.5"/>
    <path d="M 320.536272 73.287705 
L 320.536272 60.908099 
" clip-path="url(#pd98d78264d)" style="fill: none; stroke: #1f77b4; stroke-width: 1.5"/>
    <path d="M 322.159836 74.917574 
L 322.159836 62.600858 
" clip-path="url(#pd98d78264d)" style="fill: none; stroke: #1f77b4; stroke-width: 1.5"/>
    <path d="M 323.783401 70.85089 
L 323.783401 58.377858 
" clip-path="url(#pd98d78264d)" style="fill: none; stroke: #1f77b4; stroke-width: 1.5"/>
    <path d="M 325.406966 95.066802 
L 325.406966 83.556498 
" clip-path="url(#pd98d78264d)" style="fill: none; stroke: #1f77b4; stroke-width: 1.5"/>
    <path d="M 327.03053 89.329681 
L 327.03053 77.584012 
" clip-path="url(#pd98d78264d)" style="fill: none; stroke: #1f77b4; stroke-width: 1.5"/>
    <path d="M 328.654095 86.740442 
L 328.654095 74.890112 
" clip-path="url(#pd98d78264d)" style="fill: none; stroke: #1f77b4; stroke-width: 1.5"/>
    <path d="M 330.27766 97.456433 
L 330.27766 86.045625 
" clip-path="url(#pd98d78264d)" style="fill: none; stroke: #1f77b4; stroke-width: 1.5"/>
    <path d="M 331.901224 82.292034 
L 331.901224 70.26406 
" clip-path="url(#pd98d78264d)" style="fill: none; stroke: #1f77b4; stroke-width: 1.5"/>
    <path d="M 333.524789 90.260947 
L 333.524789 78.553155 
" clip-path="url(#pd98d78264d)" style="fill: none; stroke: #1f77b4; stroke-width: 1.5"/>
    <path d="M 335.148354 116.043256 
L 335.148354 105.43888 
" clip-path="url(#pd98d78264d)" style="fill: none; stroke: #1f77b4; stroke-width: 1.5"/>
    <path d="M 336.771918 108.384975 
L 336.771918 97.44097 
" clip-path="url(#pd98d78264d)" style="fill: none; stroke: #1f77b4; stroke-width: 1.5"/>
    <path d="M 338.395483 115.082145 
L 338.395483 104.434538 
" clip-path="url(#pd98d78264d)" style="fill: none; stroke: #1f77b4; stroke-width: 1.5"/>
    <path d="M 340.019048 115.105625 
L 340.019048 104.459072 
" clip-path="url(#pd98d78264d)" style="fill: none; stroke: #1f77b4; stroke-width: 1.5"/>
    <path d="M 341.642612 125.126988 
L 341.642612 114.940472 
" clip-path="url(#pd98d78264d)" style="fill: none; stroke: #1f77b4; stroke-width: 1.5"/>
    <path d="M 343.266177 110.909598 
L 343.266177 100.076352 
" clip-path="url(#pd98d78264d)" style="fill: none; stroke: #1f77b4; stroke-width: 1.5"/>
    <path d="M 344.889742 132.529341 
L 344.889742 122.696783 
" clip-path="url(#pd98d78264d)" style="fill: none; stroke: #1f77b4; stroke-width: 1.5"/>
    <path d="M 346.513306 139.702962 
L 346.513306 130.226348 
" clip-path="url(#pd98d78264d)" style="fill: none; stroke: #1f77b4; stroke-width: 1.5"/>
    <path d="M 348.136871 138.835147 
L 348.136871 129.314748 
" clip-path="url(#pd98d78264d)" style="fill: none; stroke: #1f77b4; stroke-width: 1.5"/>
    <path d="M 349.760436 135.944556 
L 349.760436 126.27978 
" clip-path="url(#pd98d78264d)" style="fill: none; stroke: #1f77b4; stroke-width: 1.5"/>
    <path d="M 351.384 136.93026 
L 351.384 127.314467 
" clip-path="url(#pd98d78264d)" style="fill: none; stroke: #1f77b4; stroke-width: 1.5"/>
    <path d="M 353.007565 157.82692 
L 353.007565 149.31751 
" clip-path="url(#pd98d78264d)" style="fill: none; stroke: #1f77b4; stroke-width: 1.5"/>
    <path d="M 354.63113 155.211566 
L 354.63113 146.555724 
" clip-path="url(#pd98d78264d)" style="fill: none; stroke: #1f77b4; stroke-width: 1.5"/>
    <path d="M 356.254694 164.233522 
L 356.254694 156.094264 
" clip-path="url(#pd98d78264d)" style="fill: none; stroke: #1f77b4; stroke-width: 1.5"/>
    <path d="M 357.878259 163.535326 
L 357.878259 155.354892 
" clip-path="url(#pd98d78264d)" style="fill: none; stroke: #1f77b4; stroke-width: 1.5"/>
    <path d="M 359.501824 172.045875 
L 359.501824 164.382904 
" clip-path="url(#pd98d78264d)" style="fill: none; stroke: #1f77b4; stroke-width: 1.5"/>
    <path d="M 361.125389 168.842835 
L 361.125389 160.98099 
" clip-path="url(#pd98d78264d)" style="fill: none; stroke: #1f77b4; stroke-width: 1.5"/>
    <path d="M 362.748953 160.843212 
L 362.748953 152.505966 
" clip-path="url(#pd98d78264d)" style="fill: none; stroke: #1f77b4; stroke-width: 1.5"/>
    <path d="M 364.372518 176.44509 
L 364.372518 169.064276 
" clip-path="url(#pd98d78264d)" style="fill: none; stroke: #1f77b4; stroke-width: 1.5"/>
    <path d="M 365.996083 175.676679 
L 365.996083 168.245782 
" clip-path="url(#pd98d78264d)" style="fill: none; stroke: #1f77b4; stroke-width: 1.5"/>
    <path d="M 367.619647 192.740791 
L 367.619647 186.519906 
" clip-path="url(#pd98d78264d)" style="fill: none; stroke: #1f77b4; stroke-width: 1.5"/>
    <path d="M 369.243212 177.859976 
L 369.243212 170.572307 
" clip-path="url(#pd98d78264d)" style="fill: none; stroke: #1f77b4; stroke-width: 1.5"/>
    <path d="M 370.866777 199.947658 
L 370.866777 194.318713 
" clip-path="url(#pd98d78264d)" style="fill: none; stroke: #1f77b4; stroke-width: 1.5"/>
    <path d="M 372.490341 201.60754 
L 372.490341 196.124378 
" clip-path="url(#pd98d78264d)" style="fill: none; stroke: #1f77b4; stroke-width: 1.5"/>
    <path d="M 374.113906 202.551484 
L 374.113906 197.153062 
" clip-path="url(#pd98d78264d)" style="fill: none; stroke: #1f77b4; stroke-width: 1.5"/>
    <path d="M 375.737471 210.636936 
L 375.737471 206.031137 
" clip-path="url(#pd98d78264d)" style="fill: none; stroke: #1f77b4; stroke-width: 1.5"/>
    <path d="M 377.361035 213.6443 
L 377.361035 209.372821 
" clip-path="url(#pd98d78264d)" style="fill: none; stroke: #1f77b4; stroke-width: 1.5"/>
    <path d="M 378.9846 214.518642 
L 378.9846 210.349687 
" clip-path="url(#pd98d78264d)" style="fill: none; stroke: #1f77b4; stroke-width: 1.5"/>
    <path d="M 380.608165 216.332187 
L 380.608165 212.384899 
" clip-path="url(#pd98d78264d)" style="fill: none; stroke: #1f77b4; stroke-width: 1.5"/>
    <path d="M 382.231729 220.829978 
L 382.231729 217.500194 
" clip-path="url(#pd98d78264d)" style="fill: none; stroke: #1f77b4; stroke-width: 1.5"/>
    <path d="M 383.855294 229.375632 
L 383.855294 227.87847 
" clip-path="url(#pd98d78264d)" style="fill: none; stroke: #1f77b4; stroke-width: 1.5"/>
    <path d="M 385.478859 230.262476 
L 385.478859 229.152871 
" clip-path="url(#pd98d78264d)" style="fill: none; stroke: #1f77b4; stroke-width: 1.5"/>
    <path d="M 387.102423 230.995568 
L 387.102423 230.475833 
" clip-path="url(#pd98d78264d)" style="fill: none; stroke: #1f77b4; stroke-width: 1.5"/>
   </g>
  </g>
 </g>
 <defs>
  <clipPath id="pd98d78264d">
   <rect x="46.965625" y="7.2" width="357.184227" height="234.4525"/>
  </clipPath>
 </defs>
</svg>