<?xml version="1.0" encoding="utf-8" standalone="no"?>
<!DOCTYPE svg PUBLIC "-//W3C//DTD SVG 1.1//EN"
  "http://www.w3.org/Graphics/SVG/1.1/DTD/svg11.dtd">
<svg xmlns:xlink="http://www.w3.org/1999/xlink" width="388.965625pt" height="266.794375pt" viewBox="0 0 388.965625 266.794375" xmlns="http://www.w3.org/2000/svg" version="1.1">
 <metadata>
  <rdf:RDF xmlns:dc="http://purl.org/dc/elements/1.1/" xmlns:cc="http://creativecommons.org/ns#" xmlns:rdf="http://www.w3.org/1999/02/22-rdf-syntax-ns#">
   <cc:Work>
    <dc:type rdf:resource="http://purl.org/dc/dcmitype/StillImage"/>
    <dc:date>2025-06-12T13:11:55.576984</dc:date>
    <dc:format>image/svg+xml</dc:format>
    <dc:creator>
     <cc:Agent>
      <dc:title>Matplotlib v3.10.1, https://matplotlib.org/</dc:title>
     </cc:Agent>
    </dc:creator>
   </cc:Work>
  </rdf:RDF>
 </metadata>
 <defs>
  <style type="text/css">*{stroke-linejoin: round; stroke-linecap: butt}</style>
 </defs>
 <g id="figure_1">
  <g id="patch_1">
   <path d="M 0 266.794375 
L 388.965625 266.794375 
L 388.965625 0 
L 0 0 
z
" style="fill: #ffffff"/>
  </g>
  <g id="axes_1">
   <g id="patch_2">
    <path d="M 46.965625 228.96 
L 381.765625 228.96 
L 381.765625 7.2 
L 46.965625 7.2 
z
" style="fill: #ffffff"/>
   </g>
   <g id="matplotlib.axis_1">
    <g id="xtick_1">
     <g id="line2d_1">
      <defs>
       <path id="me80ad6dac4" d="M 0 0 
L 0 3.5 
" style="stroke: #000000; stroke-width: 0.8"/>
      </defs>
      <g>
       <use xlink:href="#me80ad6dac4" x="53.155907" y="228.96" style="stroke: #000000; stroke-width: 0.8"/>
      </g>
     </g>
     <g id="text_1">
      <!-- −0.0125 -->
      <g transform="translate(31.470751 243.558437) scale(0.1 -0.1)">
       <defs>
        <path id="DejaVuSans-2212" d="M 678 2272 
L 4684 2272 
L 4684 1741 
L 678 1741 
L 678 2272 
z
" transform="scale(0.015625)"/>
        <path id="DejaVuSans-30" d="M 2034 4250 
Q 1547 4250 1301 3770 
Q 1056 3291 1056 2328 
Q 1056 1369 1301 889 
Q 1547 409 2034 409 
Q 2525 409 2770 889 
Q 3016 1369 3016 2328 
Q 3016 3291 2770 3770 
Q 2525 4250 2034 4250 
z
M 2034 4750 
Q 2819 4750 3233 4129 
Q 3647 3509 3647 2328 
Q 3647 1150 3233 529 
Q 2819 -91 2034 -91 
Q 1250 -91 836 529 
Q 422 1150 422 2328 
Q 422 3509 836 4129 
Q 1250 4750 2034 4750 
z
" transform="scale(0.015625)"/>
        <path id="DejaVuSans-2e" d="M 684 794 
L 1344 794 
L 1344 0 
L 684 0 
L 684 794 
z
" transform="scale(0.015625)"/>
        <path id="DejaVuSans-31" d="M 794 531 
L 1825 531 
L 1825 4091 
L 703 3866 
L 703 4441 
L 1819 4666 
L 2450 4666 
L 2450 531 
L 3481 531 
L 3481 0 
L 794 0 
L 794 531 
z
" transform="scale(0.015625)"/>
        <path id="DejaVuSans-32" d="M 1228 531 
L 3431 531 
L 3431 0 
L 469 0 
L 469 531 
Q 828 903 1448 1529 
Q 2069 2156 2228 2338 
Q 2531 2678 2651 2914 
Q 2772 3150 2772 3378 
Q 2772 3750 2511 3984 
Q 2250 4219 1831 4219 
Q 1534 4219 1204 4116 
Q 875 4013 500 3803 
L 500 4441 
Q 881 4594 1212 4672 
Q 1544 4750 1819 4750 
Q 2544 4750 2975 4387 
Q 3406 4025 3406 3419 
Q 3406 3131 3298 2873 
Q 3191 2616 2906 2266 
Q 2828 2175 2409 1742 
Q 1991 1309 1228 531 
z
" transform="scale(0.015625)"/>
        <path id="DejaVuSans-35" d="M 691 4666 
L 3169 4666 
L 3169 4134 
L 1269 4134 
L 1269 2991 
Q 1406 3038 1543 3061 
Q 1681 3084 1819 3084 
Q 2600 3084 3056 2656 
Q 3513 2228 3513 1497 
Q 3513 744 3044 326 
Q 2575 -91 1722 -91 
Q 1428 -91 1123 -41 
Q 819 9 494 109 
L 494 744 
Q 775 591 1075 516 
Q 1375 441 1709 441 
Q 2250 441 2565 725 
Q 2881 1009 2881 1497 
Q 2881 1984 2565 2268 
Q 2250 2553 1709 2553 
Q 1456 2553 1204 2497 
Q 953 2441 691 2322 
L 691 4666 
z
" transform="scale(0.015625)"/>
       </defs>
       <use xlink:href="#DejaVuSans-2212"/>
       <use xlink:href="#DejaVuSans-30" transform="translate(83.789062 0)"/>
       <use xlink:href="#DejaVuSans-2e" transform="translate(147.412109 0)"/>
       <use xlink:href="#DejaVuSans-30" transform="translate(179.199219 0)"/>
       <use xlink:href="#DejaVuSans-31" transform="translate(242.822266 0)"/>
       <use xlink:href="#DejaVuSans-32" transform="translate(306.445312 0)"/>
       <use xlink:href="#DejaVuSans-35" transform="translate(370.068359 0)"/>
      </g>
     </g>
    </g>
    <g id="xtick_2">
     <g id="line2d_2">
      <g>
       <use xlink:href="#me80ad6dac4" x="94.606608" y="228.96" style="stroke: #000000; stroke-width: 0.8"/>
      </g>
     </g>
     <g id="text_2">
      <!-- −0.0100 -->
      <g transform="translate(72.921452 243.558437) scale(0.1 -0.1)">
       <use xlink:href="#DejaVuSans-2212"/>
       <use xlink:href="#DejaVuSans-30" transform="translate(83.789062 0)"/>
       <use xlink:href="#DejaVuSans-2e" transform="translate(147.412109 0)"/>
       <use xlink:href="#DejaVuSans-30" transform="translate(179.199219 0)"/>
       <use xlink:href="#DejaVuSans-31" transform="translate(242.822266 0)"/>
       <use xlink:href="#DejaVuSans-30" transform="translate(306.445312 0)"/>
       <use xlink:href="#DejaVuSans-30" transform="translate(370.068359 0)"/>
      </g>
     </g>
    </g>
    <g id="xtick_3">
     <g id="line2d_3">
      <g>
       <use xlink:href="#me80ad6dac4" x="136.05731" y="228.96" style="stroke: #000000; stroke-width: 0.8"/>
      </g>
     </g>
     <g id="text_3">
      <!-- −0.0075 -->
      <g transform="translate(114.372153 243.558437) scale(0.1 -0.1)">
       <defs>
        <path id="DejaVuSans-37" d="M 525 4666 
L 3525 4666 
L 3525 4397 
L 1831 0 
L 1172 0 
L 2766 4134 
L 525 4134 
L 525 4666 
z
" transform="scale(0.015625)"/>
       </defs>
       <use xlink:href="#DejaVuSans-2212"/>
       <use xlink:href="#DejaVuSans-30" transform="translate(83.789062 0)"/>
       <use xlink:href="#DejaVuSans-2e" transform="translate(147.412109 0)"/>
       <use xlink:href="#DejaVuSans-30" transform="translate(179.199219 0)"/>
       <use xlink:href="#DejaVuSans-30" transform="translate(242.822266 0)"/>
       <use xlink:href="#DejaVuSans-37" transform="translate(306.445312 0)"/>
       <use xlink:href="#DejaVuSans-35" transform="translate(370.068359 0)"/>
      </g>
     </g>
    </g>
    <g id="xtick_4">
     <g id="line2d_4">
      <g>
       <use xlink:href="#me80ad6dac4" x="177.508011" y="228.96" style="stroke: #000000; stroke-width: 0.8"/>
      </g>
     </g>
     <g id="text_4">
      <!-- −0.0050 -->
      <g transform="translate(155.822855 243.558437) scale(0.1 -0.1)">
       <use xlink:href="#DejaVuSans-2212"/>
       <use xlink:href="#DejaVuSans-30" transform="translate(83.789062 0)"/>
       <use xlink:href="#DejaVuSans-2e" transform="translate(147.412109 0)"/>
       <use xlink:href="#DejaVuSans-30" transform="translate(179.199219 0)"/>
       <use xlink:href="#DejaVuSans-30" transform="translate(242.822266 0)"/>
       <use xlink:href="#DejaVuSans-35" transform="translate(306.445312 0)"/>
       <use xlink:href="#DejaVuSans-30" transform="translate(370.068359 0)"/>
      </g>
     </g>
    </g>
    <g id="xtick_5">
     <g id="line2d_5">
      <g>
       <use xlink:href="#me80ad6dac4" x="218.958712" y="228.96" style="stroke: #000000; stroke-width: 0.8"/>
      </g>
     </g>
     <g id="text_5">
      <!-- −0.0025 -->
      <g transform="translate(197.273556 243.558437) scale(0.1 -0.1)">
       <use xlink:href="#DejaVuSans-2212"/>
       <use xlink:href="#DejaVuSans-30" transform="translate(83.789062 0)"/>
       <use xlink:href="#DejaVuSans-2e" transform="translate(147.412109 0)"/>
       <use xlink:href="#DejaVuSans-30" transform="translate(179.199219 0)"/>
       <use xlink:href="#DejaVuSans-30" transform="translate(242.822266 0)"/>
       <use xlink:href="#DejaVuSans-32" transform="translate(306.445312 0)"/>
       <use xlink:href="#DejaVuSans-35" transform="translate(370.068359 0)"/>
      </g>
     </g>
    </g>
    <g id="xtick_6">
     <g id="line2d_6">
      <g>
       <use xlink:href="#me80ad6dac4" x="260.409413" y="228.96" style="stroke: #000000; stroke-width: 0.8"/>
      </g>
     </g>
     <g id="text_6">
      <!-- 0.0000 -->
      <g transform="translate(242.914101 243.558437) scale(0.1 -0.1)">
       <use xlink:href="#DejaVuSans-30"/>
       <use xlink:href="#DejaVuSans-2e" transform="translate(63.623047 0)"/>
       <use xlink:href="#DejaVuSans-30" transform="translate(95.410156 0)"/>
       <use xlink:href="#DejaVuSans-30" transform="translate(159.033203 0)"/>
       <use xlink:href="#DejaVuSans-30" transform="translate(222.65625 0)"/>
       <use xlink:href="#DejaVuSans-30" transform="translate(286.279297 0)"/>
      </g>
     </g>
    </g>
    <g id="xtick_7">
     <g id="line2d_7">
      <g>
       <use xlink:href="#me80ad6dac4" x="301.860115" y="228.96" style="stroke: #000000; stroke-width: 0.8"/>
      </g>
     </g>
     <g id="text_7">
      <!-- 0.0025 -->
      <g transform="translate(284.364802 243.558437) scale(0.1 -0.1)">
       <use xlink:href="#DejaVuSans-30"/>
       <use xlink:href="#DejaVuSans-2e" transform="translate(63.623047 0)"/>
       <use xlink:href="#DejaVuSans-30" transform="translate(95.410156 0)"/>
       <use xlink:href="#DejaVuSans-30" transform="translate(159.033203 0)"/>
       <use xlink:href="#DejaVuSans-32" transform="translate(222.65625 0)"/>
       <use xlink:href="#DejaVuSans-35" transform="translate(286.279297 0)"/>
      </g>
     </g>
    </g>
    <g id="xtick_8">
     <g id="line2d_8">
      <g>
       <use xlink:href="#me80ad6dac4" x="343.310816" y="228.96" style="stroke: #000000; stroke-width: 0.8"/>
      </g>
     </g>
     <g id="text_8">
      <!-- 0.0050 -->
      <g transform="translate(325.815503 243.558437) scale(0.1 -0.1)">
       <use xlink:href="#DejaVuSans-30"/>
       <use xlink:href="#DejaVuSans-2e" transform="translate(63.623047 0)"/>
       <use xlink:href="#DejaVuSans-30" transform="translate(95.410156 0)"/>
       <use xlink:href="#DejaVuSans-30" transform="translate(159.033203 0)"/>
       <use xlink:href="#DejaVuSans-35" transform="translate(222.65625 0)"/>
       <use xlink:href="#DejaVuSans-30" transform="translate(286.279297 0)"/>
      </g>
     </g>
    </g>
    <g id="text_9">
     <!-- energy_transfer [meV] -->
     <g transform="translate(157.839063 257.236562) scale(0.1 -0.1)">
      <defs>
       <path id="DejaVuSans-65" d="M 3597 1894 
L 3597 1613 
L 953 1613 
Q 991 1019 1311 708 
Q 1631 397 2203 397 
Q 2534 397 2845 478 
Q 3156 559 3463 722 
L 3463 178 
Q 3153 47 2828 -22 
Q 2503 -91 2169 -91 
Q 1331 -91 842 396 
Q 353 884 353 1716 
Q 353 2575 817 3079 
Q 1281 3584 2069 3584 
Q 2775 3584 3186 3129 
Q 3597 2675 3597 1894 
z
M 3022 2063 
Q 3016 2534 2758 2815 
Q 2500 3097 2075 3097 
Q 1594 3097 1305 2825 
Q 1016 2553 972 2059 
L 3022 2063 
z
" transform="scale(0.015625)"/>
       <path id="DejaVuSans-6e" d="M 3513 2113 
L 3513 0 
L 2938 0 
L 2938 2094 
Q 2938 2591 2744 2837 
Q 2550 3084 2163 3084 
Q 1697 3084 1428 2787 
Q 1159 2491 1159 1978 
L 1159 0 
L 581 0 
L 581 3500 
L 1159 3500 
L 1159 2956 
Q 1366 3272 1645 3428 
Q 1925 3584 2291 3584 
Q 2894 3584 3203 3211 
Q 3513 2838 3513 2113 
z
" transform="scale(0.015625)"/>
       <path id="DejaVuSans-72" d="M 2631 2963 
Q 2534 3019 2420 3045 
Q 2306 3072 2169 3072 
Q 1681 3072 1420 2755 
Q 1159 2438 1159 1844 
L 1159 0 
L 581 0 
L 581 3500 
L 1159 3500 
L 1159 2956 
Q 1341 3275 1631 3429 
Q 1922 3584 2338 3584 
Q 2397 3584 2469 3576 
Q 2541 3569 2628 3553 
L 2631 2963 
z
" transform="scale(0.015625)"/>
       <path id="DejaVuSans-67" d="M 2906 1791 
Q 2906 2416 2648 2759 
Q 2391 3103 1925 3103 
Q 1463 3103 1205 2759 
Q 947 2416 947 1791 
Q 947 1169 1205 825 
Q 1463 481 1925 481 
Q 2391 481 2648 825 
Q 2906 1169 2906 1791 
z
M 3481 434 
Q 3481 -459 3084 -895 
Q 2688 -1331 1869 -1331 
Q 1566 -1331 1297 -1286 
Q 1028 -1241 775 -1147 
L 775 -588 
Q 1028 -725 1275 -790 
Q 1522 -856 1778 -856 
Q 2344 -856 2625 -561 
Q 2906 -266 2906 331 
L 2906 616 
Q 2728 306 2450 153 
Q 2172 0 1784 0 
Q 1141 0 747 490 
Q 353 981 353 1791 
Q 353 2603 747 3093 
Q 1141 3584 1784 3584 
Q 2172 3584 2450 3431 
Q 2728 3278 2906 2969 
L 2906 3500 
L 3481 3500 
L 3481 434 
z
" transform="scale(0.015625)"/>
       <path id="DejaVuSans-79" d="M 2059 -325 
Q 1816 -950 1584 -1140 
Q 1353 -1331 966 -1331 
L 506 -1331 
L 506 -850 
L 844 -850 
Q 1081 -850 1212 -737 
Q 1344 -625 1503 -206 
L 1606 56 
L 191 3500 
L 800 3500 
L 1894 763 
L 2988 3500 
L 3597 3500 
L 2059 -325 
z
" transform="scale(0.015625)"/>
       <path id="DejaVuSans-5f" d="M 3263 -1063 
L 3263 -1509 
L -63 -1509 
L -63 -1063 
L 3263 -1063 
z
" transform="scale(0.015625)"/>
       <path id="DejaVuSans-74" d="M 1172 4494 
L 1172 3500 
L 2356 3500 
L 2356 3053 
L 1172 3053 
L 1172 1153 
Q 1172 725 1289 603 
Q 1406 481 1766 481 
L 2356 481 
L 2356 0 
L 1766 0 
Q 1100 0 847 248 
Q 594 497 594 1153 
L 594 3053 
L 172 3053 
L 172 3500 
L 594 3500 
L 594 4494 
L 1172 4494 
z
" transform="scale(0.015625)"/>
       <path id="DejaVuSans-61" d="M 2194 1759 
Q 1497 1759 1228 1600 
Q 959 1441 959 1056 
Q 959 750 1161 570 
Q 1363 391 1709 391 
Q 2188 391 2477 730 
Q 2766 1069 2766 1631 
L 2766 1759 
L 2194 1759 
z
M 3341 1997 
L 3341 0 
L 2766 0 
L 2766 531 
Q 2569 213 2275 61 
Q 1981 -91 1556 -91 
Q 1019 -91 701 211 
Q 384 513 384 1019 
Q 384 1609 779 1909 
Q 1175 2209 1959 2209 
L 2766 2209 
L 2766 2266 
Q 2766 2663 2505 2880 
Q 2244 3097 1772 3097 
Q 1472 3097 1187 3025 
Q 903 2953 641 2809 
L 641 3341 
Q 956 3463 1253 3523 
Q 1550 3584 1831 3584 
Q 2591 3584 2966 3190 
Q 3341 2797 3341 1997 
z
" transform="scale(0.015625)"/>
       <path id="DejaVuSans-73" d="M 2834 3397 
L 2834 2853 
Q 2591 2978 2328 3040 
Q 2066 3103 1784 3103 
Q 1356 3103 1142 2972 
Q 928 2841 928 2578 
Q 928 2378 1081 2264 
Q 1234 2150 1697 2047 
L 1894 2003 
Q 2506 1872 2764 1633 
Q 3022 1394 3022 966 
Q 3022 478 2636 193 
Q 2250 -91 1575 -91 
Q 1294 -91 989 -36 
Q 684 19 347 128 
L 347 722 
Q 666 556 975 473 
Q 1284 391 1588 391 
Q 1994 391 2212 530 
Q 2431 669 2431 922 
Q 2431 1156 2273 1281 
Q 2116 1406 1581 1522 
L 1381 1569 
Q 847 1681 609 1914 
Q 372 2147 372 2553 
Q 372 3047 722 3315 
Q 1072 3584 1716 3584 
Q 2034 3584 2315 3537 
Q 2597 3491 2834 3397 
z
" transform="scale(0.015625)"/>
       <path id="DejaVuSans-66" d="M 2375 4863 
L 2375 4384 
L 1825 4384 
Q 1516 4384 1395 4259 
Q 1275 4134 1275 3809 
L 1275 3500 
L 2222 3500 
L 2222 3053 
L 1275 3053 
L 1275 0 
L 697 0 
L 697 3053 
L 147 3053 
L 147 3500 
L 697 3500 
L 697 3744 
Q 697 4328 969 4595 
Q 1241 4863 1831 4863 
L 2375 4863 
z
" transform="scale(0.015625)"/>
       <path id="DejaVuSans-20" transform="scale(0.015625)"/>
       <path id="DejaVuSans-5b" d="M 550 4863 
L 1875 4863 
L 1875 4416 
L 1125 4416 
L 1125 -397 
L 1875 -397 
L 1875 -844 
L 550 -844 
L 550 4863 
z
" transform="scale(0.015625)"/>
       <path id="DejaVuSans-6d" d="M 3328 2828 
Q 3544 3216 3844 3400 
Q 4144 3584 4550 3584 
Q 5097 3584 5394 3201 
Q 5691 2819 5691 2113 
L 5691 0 
L 5113 0 
L 5113 2094 
Q 5113 2597 4934 2840 
Q 4756 3084 4391 3084 
Q 3944 3084 3684 2787 
Q 3425 2491 3425 1978 
L 3425 0 
L 2847 0 
L 2847 2094 
Q 2847 2600 2669 2842 
Q 2491 3084 2119 3084 
Q 1678 3084 1418 2786 
Q 1159 2488 1159 1978 
L 1159 0 
L 581 0 
L 581 3500 
L 1159 3500 
L 1159 2956 
Q 1356 3278 1631 3431 
Q 1906 3584 2284 3584 
Q 2666 3584 2933 3390 
Q 3200 3197 3328 2828 
z
" transform="scale(0.015625)"/>
       <path id="DejaVuSans-56" d="M 1831 0 
L 50 4666 
L 709 4666 
L 2188 738 
L 3669 4666 
L 4325 4666 
L 2547 0 
L 1831 0 
z
" transform="scale(0.015625)"/>
       <path id="DejaVuSans-5d" d="M 1947 4863 
L 1947 -844 
L 622 -844 
L 622 -397 
L 1369 -397 
L 1369 4416 
L 622 4416 
L 622 4863 
L 1947 4863 
z
" transform="scale(0.015625)"/>
      </defs>
      <use xlink:href="#DejaVuSans-65"/>
      <use xlink:href="#DejaVuSans-6e" transform="translate(61.523438 0)"/>
      <use xlink:href="#DejaVuSans-65" transform="translate(124.902344 0)"/>
      <use xlink:href="#DejaVuSans-72" transform="translate(186.425781 0)"/>
      <use xlink:href="#DejaVuSans-67" transform="translate(225.789062 0)"/>
      <use xlink:href="#DejaVuSans-79" transform="translate(289.265625 0)"/>
      <use xlink:href="#DejaVuSans-5f" transform="translate(348.445312 0)"/>
      <use xlink:href="#DejaVuSans-74" transform="translate(398.445312 0)"/>
      <use xlink:href="#DejaVuSans-72" transform="translate(437.654297 0)"/>
      <use xlink:href="#DejaVuSans-61" transform="translate(478.767578 0)"/>
      <use xlink:href="#DejaVuSans-6e" transform="translate(540.046875 0)"/>
      <use xlink:href="#DejaVuSans-73" transform="translate(603.425781 0)"/>
      <use xlink:href="#DejaVuSans-66" transform="translate(655.525391 0)"/>
      <use xlink:href="#DejaVuSans-65" transform="translate(690.730469 0)"/>
      <use xlink:href="#DejaVuSans-72" transform="translate(752.253906 0)"/>
      <use xlink:href="#DejaVuSans-20" transform="translate(793.367188 0)"/>
      <use xlink:href="#DejaVuSans-5b" transform="translate(825.154297 0)"/>
      <use xlink:href="#DejaVuSans-6d" transform="translate(864.167969 0)"/>
      <use xlink:href="#DejaVuSans-65" transform="translate(961.580078 0)"/>
      <use xlink:href="#DejaVuSans-56" transform="translate(1023.103516 0)"/>
      <use xlink:href="#DejaVuSans-5d" transform="translate(1091.511719 0)"/>
     </g>
    </g>
   </g>
   <g id="matplotlib.axis_2">
    <g id="ytick_1">
     <g id="line2d_9">
      <defs>
       <path id="m6ee0edbcc3" d="M 0 0 
L -3.5 0 
" style="stroke: #000000; stroke-width: 0.8"/>
      </defs>
      <g>
       <use xlink:href="#m6ee0edbcc3" x="46.965625" y="218.687635" style="stroke: #000000; stroke-width: 0.8"/>
      </g>
     </g>
     <g id="text_10">
      <!-- 0 -->
      <g transform="translate(33.603125 222.486853) scale(0.1 -0.1)">
       <use xlink:href="#DejaVuSans-30"/>
      </g>
     </g>
    </g>
    <g id="ytick_2">
     <g id="line2d_10">
      <g>
       <use xlink:href="#m6ee0edbcc3" x="46.965625" y="180.129732" style="stroke: #000000; stroke-width: 0.8"/>
      </g>
     </g>
     <g id="text_11">
      <!-- 50 -->
      <g transform="translate(27.240625 183.928951) scale(0.1 -0.1)">
       <use xlink:href="#DejaVuSans-35"/>
       <use xlink:href="#DejaVuSans-30" transform="translate(63.623047 0)"/>
      </g>
     </g>
    </g>
    <g id="ytick_3">
     <g id="line2d_11">
      <g>
       <use xlink:href="#m6ee0edbcc3" x="46.965625" y="141.57183" style="stroke: #000000; stroke-width: 0.8"/>
      </g>
     </g>
     <g id="text_12">
      <!-- 100 -->
      <g transform="translate(20.878125 145.371049) scale(0.1 -0.1)">
       <use xlink:href="#DejaVuSans-31"/>
       <use xlink:href="#DejaVuSans-30" transform="translate(63.623047 0)"/>
       <use xlink:href="#DejaVuSans-30" transform="translate(127.246094 0)"/>
      </g>
     </g>
    </g>
    <g id="ytick_4">
     <g id="line2d_12">
      <g>
       <use xlink:href="#m6ee0edbcc3" x="46.965625" y="103.013928" style="stroke: #000000; stroke-width: 0.8"/>
      </g>
     </g>
     <g id="text_13">
      <!-- 150 -->
      <g transform="translate(20.878125 106.813147) scale(0.1 -0.1)">
       <use xlink:href="#DejaVuSans-31"/>
       <use xlink:href="#DejaVuSans-35" transform="translate(63.623047 0)"/>
       <use xlink:href="#DejaVuSans-30" transform="translate(127.246094 0)"/>
      </g>
     </g>
    </g>
    <g id="ytick_5">
     <g id="line2d_13">
      <g>
       <use xlink:href="#m6ee0edbcc3" x="46.965625" y="64.456026" style="stroke: #000000; stroke-width: 0.8"/>
      </g>
     </g>
     <g id="text_14">
      <!-- 200 -->
      <g transform="translate(20.878125 68.255245) scale(0.1 -0.1)">
       <use xlink:href="#DejaVuSans-32"/>
       <use xlink:href="#DejaVuSans-30" transform="translate(63.623047 0)"/>
       <use xlink:href="#DejaVuSans-30" transform="translate(127.246094 0)"/>
      </g>
     </g>
    </g>
    <g id="ytick_6">
     <g id="line2d_14">
      <g>
       <use xlink:href="#m6ee0edbcc3" x="46.965625" y="25.898124" style="stroke: #000000; stroke-width: 0.8"/>
      </g>
     </g>
     <g id="text_15">
      <!-- 250 -->
      <g transform="translate(20.878125 29.697343) scale(0.1 -0.1)">
       <use xlink:href="#DejaVuSans-32"/>
       <use xlink:href="#DejaVuSans-35" transform="translate(63.623047 0)"/>
       <use xlink:href="#DejaVuSans-30" transform="translate(127.246094 0)"/>
      </g>
     </g>
    </g>
    <g id="text_16">
     <!-- [counts] -->
     <g transform="translate(14.798438 138.6925) rotate(-90) scale(0.1 -0.1)">
      <defs>
       <path id="DejaVuSans-63" d="M 3122 3366 
L 3122 2828 
Q 2878 2963 2633 3030 
Q 2388 3097 2138 3097 
Q 1578 3097 1268 2742 
Q 959 2388 959 1747 
Q 959 1106 1268 751 
Q 1578 397 2138 397 
Q 2388 397 2633 464 
Q 2878 531 3122 666 
L 3122 134 
Q 2881 22 2623 -34 
Q 2366 -91 2075 -91 
Q 1284 -91 818 406 
Q 353 903 353 1747 
Q 353 2603 823 3093 
Q 1294 3584 2113 3584 
Q 2378 3584 2631 3529 
Q 2884 3475 3122 3366 
z
" transform="scale(0.015625)"/>
       <path id="DejaVuSans-6f" d="M 1959 3097 
Q 1497 3097 1228 2736 
Q 959 2375 959 1747 
Q 959 1119 1226 758 
Q 1494 397 1959 397 
Q 2419 397 2687 759 
Q 2956 1122 2956 1747 
Q 2956 2369 2687 2733 
Q 2419 3097 1959 3097 
z
M 1959 3584 
Q 2709 3584 3137 3096 
Q 3566 2609 3566 1747 
Q 3566 888 3137 398 
Q 2709 -91 1959 -91 
Q 1206 -91 779 398 
Q 353 888 353 1747 
Q 353 2609 779 3096 
Q 1206 3584 1959 3584 
z
" transform="scale(0.015625)"/>
       <path id="DejaVuSans-75" d="M 544 1381 
L 544 3500 
L 1119 3500 
L 1119 1403 
Q 1119 906 1312 657 
Q 1506 409 1894 409 
Q 2359 409 2629 706 
Q 2900 1003 2900 1516 
L 2900 3500 
L 3475 3500 
L 3475 0 
L 2900 0 
L 2900 538 
Q 2691 219 2414 64 
Q 2138 -91 1772 -91 
Q 1169 -91 856 284 
Q 544 659 544 1381 
z
M 1991 3584 
L 1991 3584 
z
" transform="scale(0.015625)"/>
      </defs>
      <use xlink:href="#DejaVuSans-5b"/>
      <use xlink:href="#DejaVuSans-63" transform="translate(39.013672 0)"/>
      <use xlink:href="#DejaVuSans-6f" transform="translate(93.994141 0)"/>
      <use xlink:href="#DejaVuSans-75" transform="translate(155.175781 0)"/>
      <use xlink:href="#DejaVuSans-6e" transform="translate(218.554688 0)"/>
      <use xlink:href="#DejaVuSans-74" transform="translate(281.933594 0)"/>
      <use xlink:href="#DejaVuSans-73" transform="translate(321.142578 0)"/>
      <use xlink:href="#DejaVuSans-5d" transform="translate(373.242188 0)"/>
     </g>
    </g>
   </g>
   <g id="patch_3">
    <path d="M 46.965625 228.96 
L 46.965625 7.2 
" style="fill: none; stroke: #000000; stroke-width: 0.8; stroke-linejoin: miter; stroke-linecap: square"/>
   </g>
   <g id="patch_4">
    <path d="M 381.765625 228.96 
L 381.765625 7.2 
" style="fill: none; stroke: #000000; stroke-width: 0.8; stroke-linejoin: miter; stroke-linecap: square"/>
   </g>
   <g id="patch_5">
    <path d="M 46.965625 228.96 
L 381.765625 228.96 
" style="fill: none; stroke: #000000; stroke-width: 0.8; stroke-linejoin: miter; stroke-linecap: square"/>
   </g>
   <g id="patch_6">
    <path d="M 46.965625 7.2 
L 381.765625 7.2 
" style="fill: none; stroke: #000000; stroke-width: 0.8; stroke-linejoin: miter; stroke-linecap: square"/>
   </g>
   <g id="legend_1">
    <g id="patch_7">
     <path d="M 53.965625 44.55625 
L 137.648438 44.55625 
Q 139.648438 44.55625 139.648438 42.55625 
L 139.648438 14.2 
Q 139.648438 12.2 137.648438 12.2 
L 53.965625 12.2 
Q 51.965625 12.2 51.965625 14.2 
L 51.965625 42.55625 
Q 51.965625 44.55625 53.965625 44.55625 
z
" style="fill: #ffffff; opacity: 0.8; stroke: #cccccc; stroke-linejoin: miter"/>
    </g>
    <g id="line2d_15">
     <path d="M 55.965625 20.298438 
L 55.965625 20.298438 
L 65.965625 20.298438 
L 65.965625 20.298438 
L 75.965625 20.298438 
" style="fill: none; stroke: #1f77b4; stroke-width: 1.5; stroke-linecap: square"/>
    </g>
    <g id="text_17">
     <!-- unmasked -->
     <g transform="translate(83.965625 23.798438) scale(0.1 -0.1)">
      <defs>
       <path id="DejaVuSans-6b" d="M 581 4863 
L 1159 4863 
L 1159 1991 
L 2875 3500 
L 3609 3500 
L 1753 1863 
L 3688 0 
L 2938 0 
L 1159 1709 
L 1159 0 
L 581 0 
L 581 4863 
z
" transform="scale(0.015625)"/>
       <path id="DejaVuSans-64" d="M 2906 2969 
L 2906 4863 
L 3481 4863 
L 3481 0 
L 2906 0 
L 2906 525 
Q 2725 213 2448 61 
Q 2172 -91 1784 -91 
Q 1150 -91 751 415 
Q 353 922 353 1747 
Q 353 2572 751 3078 
Q 1150 3584 1784 3584 
Q 2172 3584 2448 3432 
Q 2725 3281 2906 2969 
z
M 947 1747 
Q 947 1113 1208 752 
Q 1469 391 1925 391 
Q 2381 391 2643 752 
Q 2906 1113 2906 1747 
Q 2906 2381 2643 2742 
Q 2381 3103 1925 3103 
Q 1469 3103 1208 2742 
Q 947 2381 947 1747 
z
" transform="scale(0.015625)"/>
      </defs>
      <use xlink:href="#DejaVuSans-75"/>
      <use xlink:href="#DejaVuSans-6e" transform="translate(63.378906 0)"/>
      <use xlink:href="#DejaVuSans-6d" transform="translate(126.757812 0)"/>
      <use xlink:href="#DejaVuSans-61" transform="translate(224.169922 0)"/>
      <use xlink:href="#DejaVuSans-73" transform="translate(285.449219 0)"/>
      <use xlink:href="#DejaVuSans-6b" transform="translate(337.548828 0)"/>
      <use xlink:href="#DejaVuSans-65" transform="translate(391.833984 0)"/>
      <use xlink:href="#DejaVuSans-64" transform="translate(453.357422 0)"/>
     </g>
    </g>
    <g id="line2d_16">
     <path d="M 55.965625 34.976562 
L 55.965625 34.976562 
L 65.965625 34.976562 
L 65.965625 34.976562 
L 75.965625 34.976562 
" style="fill: none; stroke: #ff7f0e; stroke-width: 1.5; stroke-linecap: square"/>
    </g>
    <g id="text_18">
     <!-- masked -->
     <g transform="translate(83.965625 38.476562) scale(0.1 -0.1)">
      <use xlink:href="#DejaVuSans-6d"/>
      <use xlink:href="#DejaVuSans-61" transform="translate(97.412109 0)"/>
      <use xlink:href="#DejaVuSans-73" transform="translate(158.691406 0)"/>
      <use xlink:href="#DejaVuSans-6b" transform="translate(210.791016 0)"/>
      <use xlink:href="#DejaVuSans-65" transform="translate(265.076172 0)"/>
      <use xlink:href="#DejaVuSans-64" transform="translate(326.599609 0)"/>
     </g>
    </g>
   </g>
   <g id="line2d_17">
    <path d="M 62.183807 218.687635 
L 126.10017 218.611207 
L 126.10017 218.525127 
L 132.187443 218.434366 
L 132.187443 218.349459 
L 138.274716 218.272536 
L 138.274716 218.221119 
L 141.318352 218.221119 
L 141.318352 217.848289 
L 144.361989 217.848289 
L 144.361989 217.208947 
L 147.405625 217.208947 
L 147.405625 216.798257 
L 150.449261 216.798257 
L 150.449261 216.393288 
L 153.492898 216.393288 
L 153.492898 213.588402 
L 156.536534 213.588402 
L 156.536534 212.772675 
L 159.58017 212.772675 
L 159.58017 209.972123 
L 162.623807 209.972123 
L 162.623807 208.518668 
L 165.667443 208.518668 
L 165.667443 205.770492 
L 168.71108 205.770492 
L 168.71108 203.715684 
L 171.754716 203.715684 
L 171.754716 202.338436 
L 174.798352 202.338436 
L 174.798352 200.278408 
L 177.841989 200.278408 
L 177.841989 198.348187 
L 180.885625 198.348187 
L 180.885625 199.891425 
L 183.929261 199.891425 
L 183.929261 197.409354 
L 186.972898 197.409354 
L 186.972898 197.748642 
L 190.016534 197.748642 
L 190.016534 198.249894 
L 193.06017 198.249894 
L 193.06017 197.175523 
L 196.103807 197.175523 
L 196.103807 197.925423 
L 199.147443 197.925423 
L 199.147443 196.385636 
L 205.234716 196.39558 
L 205.234716 197.968345 
L 208.278352 197.968345 
L 208.278352 196.673289 
L 211.321989 196.673289 
L 211.321989 198.826985 
L 214.365625 198.826985 
L 214.365625 199.298574 
L 217.409261 199.298574 
L 217.409261 199.674207 
L 220.452898 199.674207 
L 220.452898 197.585503 
L 223.496534 197.585503 
L 223.496534 198.974919 
L 226.54017 198.974919 
L 226.54017 198.508404 
L 229.583807 198.508404 
L 229.583807 197.090002 
L 232.627443 197.090002 
L 232.627443 193.612042 
L 235.67108 193.612042 
L 235.67108 190.828159 
L 238.714716 190.828159 
L 238.714716 182.238901 
L 241.758352 182.238901 
L 241.758352 173.263746 
L 244.801989 173.263746 
L 244.801989 164.602174 
L 247.845625 164.602174 
L 247.845625 150.296904 
L 250.889261 150.296904 
L 250.889261 139.441903 
L 253.932898 139.441903 
L 253.932898 123.794865 
L 256.976534 123.794865 
L 256.976534 99.961382 
L 260.02017 99.961382 
L 260.02017 91.882186 
L 263.063807 91.882186 
L 263.063807 72.684751 
L 266.107443 72.684751 
L 266.107443 62.882927 
L 269.15108 62.882927 
L 269.15108 55.942068 
L 272.194716 55.942068 
L 272.194716 42.854781 
L 275.238352 42.854781 
L 275.238352 36.825469 
L 278.281989 36.825469 
L 278.281989 38.448378 
L 281.325625 38.448378 
L 281.325625 33.003577 
L 284.369261 33.003577 
L 284.369261 29.363013 
L 287.412898 29.363013 
L 287.412898 30.688869 
L 290.456534 30.688869 
L 290.456534 33.406873 
L 293.50017 33.406873 
L 293.50017 30.605733 
L 296.543807 30.605733 
L 296.543807 34.844755 
L 299.587443 34.844755 
L 299.587443 37.995786 
L 302.63108 37.995786 
L 302.63108 40.663172 
L 305.674716 40.663172 
L 305.674716 50.808697 
L 308.718352 50.808697 
L 308.718352 58.218216 
L 311.761989 58.218216 
L 311.761989 73.286341 
L 314.805625 73.286341 
L 314.805625 84.076952 
L 317.849261 84.076952 
L 317.849261 100.183626 
L 320.892898 100.183626 
L 320.892898 106.12955 
L 323.936534 106.12955 
L 323.936534 127.618822 
L 326.98017 127.618822 
L 326.98017 146.225226 
L 330.023807 146.225226 
L 330.023807 158.894642 
L 333.067443 158.894642 
L 333.067443 170.296272 
L 336.11108 170.296272 
L 336.11108 184.866461 
L 339.154716 184.866461 
L 339.154716 194.923136 
L 342.198352 194.923136 
L 342.198352 201.040162 
L 345.241989 201.040162 
L 345.241989 206.75844 
L 348.285625 206.75844 
L 348.285625 211.674712 
L 351.329261 211.674712 
L 351.329261 214.759184 
L 354.372898 214.759184 
L 354.372898 216.741374 
L 357.416534 216.741374 
L 357.416534 217.366739 
L 360.46017 217.366739 
L 360.46017 218.412666 
L 366.547443 218.476338 
L 366.547443 218.476338 
" clip-path="url(#pb328aa2ae9)" style="fill: none; stroke: #1f77b4; stroke-width: 1.5; stroke-linecap: square"/>
   </g>
   <g id="LineCollection_1">
    <path d="M 63.705625 218.687635 
L 63.705625 218.687635 
" clip-path="url(#pb328aa2ae9)" style="fill: none; stroke: #1f77b4; stroke-width: 1.5"/>
    <path d="M 66.749261 218.687635 
L 66.749261 218.687635 
" clip-path="url(#pb328aa2ae9)" style="fill: none; stroke: #1f77b4; stroke-width: 1.5"/>
    <path d="M 69.792898 218.687635 
L 69.792898 218.687635 
" clip-path="url(#pb328aa2ae9)" style="fill: none; stroke: #1f77b4; stroke-width: 1.5"/>
    <path d="M 72.836534 218.687635 
L 72.836534 218.687635 
" clip-path="url(#pb328aa2ae9)" style="fill: none; stroke: #1f77b4; stroke-width: 1.5"/>
    <path d="M 75.88017 218.687635 
L 75.88017 218.687635 
" clip-path="url(#pb328aa2ae9)" style="fill: none; stroke: #1f77b4; stroke-width: 1.5"/>
    <path d="M 78.923807 218.687635 
L 78.923807 218.687635 
" clip-path="url(#pb328aa2ae9)" style="fill: none; stroke: #1f77b4; stroke-width: 1.5"/>
    <path d="M 81.967443 218.687635 
L 81.967443 218.687635 
" clip-path="url(#pb328aa2ae9)" style="fill: none; stroke: #1f77b4; stroke-width: 1.5"/>
    <path d="M 85.01108 218.687635 
L 85.01108 218.687635 
" clip-path="url(#pb328aa2ae9)" style="fill: none; stroke: #1f77b4; stroke-width: 1.5"/>
    <path d="M 88.054716 218.687635 
L 88.054716 218.687635 
" clip-path="url(#pb328aa2ae9)" style="fill: none; stroke: #1f77b4; stroke-width: 1.5"/>
    <path d="M 91.098352 218.687635 
L 91.098352 218.687635 
" clip-path="url(#pb328aa2ae9)" style="fill: none; stroke: #1f77b4; stroke-width: 1.5"/>
    <path d="M 94.141989 218.687635 
L 94.141989 218.687635 
" clip-path="url(#pb328aa2ae9)" style="fill: none; stroke: #1f77b4; stroke-width: 1.5"/>
    <path d="M 97.185625 218.687639 
L 97.185625 218.687631 
" clip-path="url(#pb328aa2ae9)" style="fill: none; stroke: #1f77b4; stroke-width: 1.5"/>
    <path d="M 100.229261 218.687635 
L 100.229261 218.687634 
" clip-path="url(#pb328aa2ae9)" style="fill: none; stroke: #1f77b4; stroke-width: 1.5"/>
    <path d="M 103.272898 218.687827 
L 103.272898 218.687442 
" clip-path="url(#pb328aa2ae9)" style="fill: none; stroke: #1f77b4; stroke-width: 1.5"/>
    <path d="M 106.316534 218.687635 
L 106.316534 218.687634 
" clip-path="url(#pb328aa2ae9)" style="fill: none; stroke: #1f77b4; stroke-width: 1.5"/>
    <path d="M 109.36017 218.689191 
L 109.36017 218.686072 
" clip-path="url(#pb328aa2ae9)" style="fill: none; stroke: #1f77b4; stroke-width: 1.5"/>
    <path d="M 112.403807 218.688005 
L 112.403807 218.687264 
" clip-path="url(#pb328aa2ae9)" style="fill: none; stroke: #1f77b4; stroke-width: 1.5"/>
    <path d="M 115.447443 218.691035 
L 115.447443 218.684204 
" clip-path="url(#pb328aa2ae9)" style="fill: none; stroke: #1f77b4; stroke-width: 1.5"/>
    <path d="M 118.49108 218.782507 
L 118.49108 218.560928 
" clip-path="url(#pb328aa2ae9)" style="fill: none; stroke: #1f77b4; stroke-width: 1.5"/>
    <path d="M 121.534716 218.864489 
L 121.534716 218.315035 
" clip-path="url(#pb328aa2ae9)" style="fill: none; stroke: #1f77b4; stroke-width: 1.5"/>
    <path d="M 124.578352 218.853978 
L 124.578352 218.368436 
" clip-path="url(#pb328aa2ae9)" style="fill: none; stroke: #1f77b4; stroke-width: 1.5"/>
    <path d="M 127.621989 218.879131 
L 127.621989 218.171123 
" clip-path="url(#pb328aa2ae9)" style="fill: none; stroke: #1f77b4; stroke-width: 1.5"/>
    <path d="M 130.665625 218.876305 
L 130.665625 217.992428 
" clip-path="url(#pb328aa2ae9)" style="fill: none; stroke: #1f77b4; stroke-width: 1.5"/>
    <path d="M 133.709261 218.860132 
L 133.709261 217.838787 
" clip-path="url(#pb328aa2ae9)" style="fill: none; stroke: #1f77b4; stroke-width: 1.5"/>
    <path d="M 136.752898 218.838316 
L 136.752898 217.706757 
" clip-path="url(#pb328aa2ae9)" style="fill: none; stroke: #1f77b4; stroke-width: 1.5"/>
    <path d="M 139.796534 218.820917 
L 139.796534 217.621321 
" clip-path="url(#pb328aa2ae9)" style="fill: none; stroke: #1f77b4; stroke-width: 1.5"/>
    <path d="M 142.84017 218.652819 
L 142.84017 217.04376 
" clip-path="url(#pb328aa2ae9)" style="fill: none; stroke: #1f77b4; stroke-width: 1.5"/>
    <path d="M 145.883807 218.276796 
L 145.883807 216.141097 
" clip-path="url(#pb328aa2ae9)" style="fill: none; stroke: #1f77b4; stroke-width: 1.5"/>
    <path d="M 148.927443 218.005323 
L 148.927443 215.591191 
" clip-path="url(#pb328aa2ae9)" style="fill: none; stroke: #1f77b4; stroke-width: 1.5"/>
    <path d="M 151.97108 217.72344 
L 151.97108 215.063136 
" clip-path="url(#pb328aa2ae9)" style="fill: none; stroke: #1f77b4; stroke-width: 1.5"/>
    <path d="M 155.014716 215.571409 
L 155.014716 211.605396 
" clip-path="url(#pb328aa2ae9)" style="fill: none; stroke: #1f77b4; stroke-width: 1.5"/>
    <path d="M 158.058352 214.908411 
L 158.058352 210.636939 
" clip-path="url(#pb328aa2ae9)" style="fill: none; stroke: #1f77b4; stroke-width: 1.5"/>
    <path d="M 161.101989 212.564619 
L 161.101989 207.379627 
" clip-path="url(#pb328aa2ae9)" style="fill: none; stroke: #1f77b4; stroke-width: 1.5"/>
    <path d="M 164.145625 211.319004 
L 164.145625 205.718333 
" clip-path="url(#pb328aa2ae9)" style="fill: none; stroke: #1f77b4; stroke-width: 1.5"/>
    <path d="M 167.189261 208.926623 
L 167.189261 202.614362 
" clip-path="url(#pb328aa2ae9)" style="fill: none; stroke: #1f77b4; stroke-width: 1.5"/>
    <path d="M 170.232898 207.113586 
L 170.232898 200.317782 
" clip-path="url(#pb328aa2ae9)" style="fill: none; stroke: #1f77b4; stroke-width: 1.5"/>
    <path d="M 173.276534 205.889185 
L 173.276534 198.787688 
" clip-path="url(#pb328aa2ae9)" style="fill: none; stroke: #1f77b4; stroke-width: 1.5"/>
    <path d="M 176.32017 204.046222 
L 176.32017 196.510593 
" clip-path="url(#pb328aa2ae9)" style="fill: none; stroke: #1f77b4; stroke-width: 1.5"/>
    <path d="M 179.363807 202.308607 
L 179.363807 194.387766 
" clip-path="url(#pb328aa2ae9)" style="fill: none; stroke: #1f77b4; stroke-width: 1.5"/>
    <path d="M 182.407443 203.698635 
L 182.407443 196.084215 
" clip-path="url(#pb328aa2ae9)" style="fill: none; stroke: #1f77b4; stroke-width: 1.5"/>
    <path d="M 185.45108 201.460146 
L 185.45108 193.358562 
" clip-path="url(#pb328aa2ae9)" style="fill: none; stroke: #1f77b4; stroke-width: 1.5"/>
    <path d="M 188.494716 201.767009 
L 188.494716 193.730276 
" clip-path="url(#pb328aa2ae9)" style="fill: none; stroke: #1f77b4; stroke-width: 1.5"/>
    <path d="M 191.538352 202.219872 
L 191.538352 194.279916 
" clip-path="url(#pb328aa2ae9)" style="fill: none; stroke: #1f77b4; stroke-width: 1.5"/>
    <path d="M 194.581989 201.248512 
L 194.581989 193.102534 
" clip-path="url(#pb328aa2ae9)" style="fill: none; stroke: #1f77b4; stroke-width: 1.5"/>
    <path d="M 197.625625 201.926791 
L 197.625625 193.924055 
" clip-path="url(#pb328aa2ae9)" style="fill: none; stroke: #1f77b4; stroke-width: 1.5"/>
    <path d="M 200.669261 200.532727 
L 200.669261 192.238545 
" clip-path="url(#pb328aa2ae9)" style="fill: none; stroke: #1f77b4; stroke-width: 1.5"/>
    <path d="M 203.712898 200.541747 
L 203.712898 192.249414 
" clip-path="url(#pb328aa2ae9)" style="fill: none; stroke: #1f77b4; stroke-width: 1.5"/>
    <path d="M 206.756534 201.965574 
L 206.756534 193.971115 
" clip-path="url(#pb328aa2ae9)" style="fill: none; stroke: #1f77b4; stroke-width: 1.5"/>
    <path d="M 209.80017 200.793549 
L 209.80017 192.553029 
" clip-path="url(#pb328aa2ae9)" style="fill: none; stroke: #1f77b4; stroke-width: 1.5"/>
    <path d="M 212.843807 202.740513 
L 212.843807 194.913457 
" clip-path="url(#pb328aa2ae9)" style="fill: none; stroke: #1f77b4; stroke-width: 1.5"/>
    <path d="M 215.887443 203.16536 
L 215.887443 195.431789 
" clip-path="url(#pb328aa2ae9)" style="fill: none; stroke: #1f77b4; stroke-width: 1.5"/>
    <path d="M 218.93108 203.503353 
L 218.93108 195.845061 
" clip-path="url(#pb328aa2ae9)" style="fill: none; stroke: #1f77b4; stroke-width: 1.5"/>
    <path d="M 221.974716 201.619493 
L 221.974716 193.551513 
" clip-path="url(#pb328aa2ae9)" style="fill: none; stroke: #1f77b4; stroke-width: 1.5"/>
    <path d="M 225.018352 202.873844 
L 225.018352 195.075994 
" clip-path="url(#pb328aa2ae9)" style="fill: none; stroke: #1f77b4; stroke-width: 1.5"/>
    <path d="M 228.061989 202.453195 
L 228.061989 194.563613 
" clip-path="url(#pb328aa2ae9)" style="fill: none; stroke: #1f77b4; stroke-width: 1.5"/>
    <path d="M 231.105625 201.171079 
L 231.105625 193.008925 
" clip-path="url(#pb328aa2ae9)" style="fill: none; stroke: #1f77b4; stroke-width: 1.5"/>
    <path d="M 234.149261 198.009456 
L 234.149261 189.214629 
" clip-path="url(#pb328aa2ae9)" style="fill: none; stroke: #1f77b4; stroke-width: 1.5"/>
    <path d="M 237.192898 195.463249 
L 237.192898 186.19307 
" clip-path="url(#pb328aa2ae9)" style="fill: none; stroke: #1f77b4; stroke-width: 1.5"/>
    <path d="M 240.236534 187.540574 
L 240.236534 176.937228 
" clip-path="url(#pb328aa2ae9)" style="fill: none; stroke: #1f77b4; stroke-width: 1.5"/>
    <path d="M 243.28017 179.182276 
L 243.28017 167.345217 
" clip-path="url(#pb328aa2ae9)" style="fill: none; stroke: #1f77b4; stroke-width: 1.5"/>
    <path d="M 246.323807 171.060381 
L 246.323807 158.143967 
" clip-path="url(#pb328aa2ae9)" style="fill: none; stroke: #1f77b4; stroke-width: 1.5"/>
    <path d="M 249.367443 157.559139 
L 249.367443 143.034669 
" clip-path="url(#pb328aa2ae9)" style="fill: none; stroke: #1f77b4; stroke-width: 1.5"/>
    <path d="M 252.41108 147.259255 
L 252.41108 131.624552 
" clip-path="url(#pb328aa2ae9)" style="fill: none; stroke: #1f77b4; stroke-width: 1.5"/>
    <path d="M 255.454716 132.34924 
L 255.454716 115.240491 
" clip-path="url(#pb328aa2ae9)" style="fill: none; stroke: #1f77b4; stroke-width: 1.5"/>
    <path d="M 258.498352 109.529909 
L 258.498352 90.392856 
" clip-path="url(#pb328aa2ae9)" style="fill: none; stroke: #1f77b4; stroke-width: 1.5"/>
    <path d="M 261.541989 101.770919 
L 261.541989 81.993453 
" clip-path="url(#pb328aa2ae9)" style="fill: none; stroke: #1f77b4; stroke-width: 1.5"/>
    <path d="M 264.585625 83.295656 
L 264.585625 62.073846 
" clip-path="url(#pb328aa2ae9)" style="fill: none; stroke: #1f77b4; stroke-width: 1.5"/>
    <path d="M 267.629261 73.844225 
L 267.629261 51.921629 
" clip-path="url(#pb328aa2ae9)" style="fill: none; stroke: #1f77b4; stroke-width: 1.5"/>
    <path d="M 270.672898 67.14486 
L 270.672898 44.739275 
" clip-path="url(#pb328aa2ae9)" style="fill: none; stroke: #1f77b4; stroke-width: 1.5"/>
    <path d="M 273.716534 54.499304 
L 273.716534 31.210258 
" clip-path="url(#pb328aa2ae9)" style="fill: none; stroke: #1f77b4; stroke-width: 1.5"/>
    <path d="M 276.76017 48.667955 
L 276.76017 24.982983 
" clip-path="url(#pb328aa2ae9)" style="fill: none; stroke: #1f77b4; stroke-width: 1.5"/>
    <path d="M 279.803807 50.237905 
L 279.803807 26.65885 
" clip-path="url(#pb328aa2ae9)" style="fill: none; stroke: #1f77b4; stroke-width: 1.5"/>
    <path d="M 282.847443 44.969853 
L 282.847443 21.037301 
" clip-path="url(#pb328aa2ae9)" style="fill: none; stroke: #1f77b4; stroke-width: 1.5"/>
    <path d="M 285.89108 41.446026 
L 285.89108 17.28 
" clip-path="url(#pb328aa2ae9)" style="fill: none; stroke: #1f77b4; stroke-width: 1.5"/>
    <path d="M 288.934716 42.729498 
L 288.934716 18.648239 
" clip-path="url(#pb328aa2ae9)" style="fill: none; stroke: #1f77b4; stroke-width: 1.5"/>
    <path d="M 291.978352 45.360146 
L 291.978352 21.453599 
" clip-path="url(#pb328aa2ae9)" style="fill: none; stroke: #1f77b4; stroke-width: 1.5"/>
    <path d="M 295.021989 42.649024 
L 295.021989 18.562441 
" clip-path="url(#pb328aa2ae9)" style="fill: none; stroke: #1f77b4; stroke-width: 1.5"/>
    <path d="M 298.065625 46.751556 
L 298.065625 22.937954 
" clip-path="url(#pb328aa2ae9)" style="fill: none; stroke: #1f77b4; stroke-width: 1.5"/>
    <path d="M 301.109261 49.800106 
L 301.109261 26.191466 
" clip-path="url(#pb328aa2ae9)" style="fill: none; stroke: #1f77b4; stroke-width: 1.5"/>
    <path d="M 304.152898 52.38004 
L 304.152898 28.946304 
" clip-path="url(#pb328aa2ae9)" style="fill: none; stroke: #1f77b4; stroke-width: 1.5"/>
    <path d="M 307.196534 62.186799 
L 307.196534 39.430596 
" clip-path="url(#pb328aa2ae9)" style="fill: none; stroke: #1f77b4; stroke-width: 1.5"/>
    <path d="M 310.24017 69.342392 
L 310.24017 47.09404 
" clip-path="url(#pb328aa2ae9)" style="fill: none; stroke: #1f77b4; stroke-width: 1.5"/>
    <path d="M 313.283807 83.875362 
L 313.283807 62.697319 
" clip-path="url(#pb328aa2ae9)" style="fill: none; stroke: #1f77b4; stroke-width: 1.5"/>
    <path d="M 316.327443 94.265481 
L 316.327443 73.888424 
" clip-path="url(#pb328aa2ae9)" style="fill: none; stroke: #1f77b4; stroke-width: 1.5"/>
    <path d="M 319.37108 109.743193 
L 319.37108 90.624059 
" clip-path="url(#pb328aa2ae9)" style="fill: none; stroke: #1f77b4; stroke-width: 1.5"/>
    <path d="M 322.414716 115.446206 
L 322.414716 96.812895 
" clip-path="url(#pb328aa2ae9)" style="fill: none; stroke: #1f77b4; stroke-width: 1.5"/>
    <path d="M 325.458352 135.999063 
L 325.458352 119.23858 
" clip-path="url(#pb328aa2ae9)" style="fill: none; stroke: #1f77b4; stroke-width: 1.5"/>
    <path d="M 328.501989 153.700517 
L 328.501989 138.749936 
" clip-path="url(#pb328aa2ae9)" style="fill: none; stroke: #1f77b4; stroke-width: 1.5"/>
    <path d="M 331.545625 165.685065 
L 331.545625 152.104219 
" clip-path="url(#pb328aa2ae9)" style="fill: none; stroke: #1f77b4; stroke-width: 1.5"/>
    <path d="M 334.589261 176.405068 
L 334.589261 164.187476 
" clip-path="url(#pb328aa2ae9)" style="fill: none; stroke: #1f77b4; stroke-width: 1.5"/>
    <path d="M 337.632898 189.973463 
L 337.632898 179.759459 
" clip-path="url(#pb328aa2ae9)" style="fill: none; stroke: #1f77b4; stroke-width: 1.5"/>
    <path d="M 340.676534 199.204045 
L 340.676534 190.642227 
" clip-path="url(#pb328aa2ae9)" style="fill: none; stroke: #1f77b4; stroke-width: 1.5"/>
    <path d="M 343.72017 204.729198 
L 343.72017 197.351125 
" clip-path="url(#pb328aa2ae9)" style="fill: none; stroke: #1f77b4; stroke-width: 1.5"/>
    <path d="M 346.763807 209.791474 
L 346.763807 203.725406 
" clip-path="url(#pb328aa2ae9)" style="fill: none; stroke: #1f77b4; stroke-width: 1.5"/>
    <path d="M 349.807443 214.000238 
L 349.807443 209.349186 
" clip-path="url(#pb328aa2ae9)" style="fill: none; stroke: #1f77b4; stroke-width: 1.5"/>
    <path d="M 352.85108 216.499717 
L 352.85108 213.018651 
" clip-path="url(#pb328aa2ae9)" style="fill: none; stroke: #1f77b4; stroke-width: 1.5"/>
    <path d="M 355.894716 217.966476 
L 355.894716 215.516272 
" clip-path="url(#pb328aa2ae9)" style="fill: none; stroke: #1f77b4; stroke-width: 1.5"/>
    <path d="M 358.938352 218.376006 
L 358.938352 216.357472 
" clip-path="url(#pb328aa2ae9)" style="fill: none; stroke: #1f77b4; stroke-width: 1.5"/>
    <path d="M 361.981989 218.873149 
L 361.981989 217.952183 
" clip-path="url(#pb328aa2ae9)" style="fill: none; stroke: #1f77b4; stroke-width: 1.5"/>
    <path d="M 365.025625 218.88 
L 365.025625 218.072675 
" clip-path="url(#pb328aa2ae9)" style="fill: none; stroke: #1f77b4; stroke-width: 1.5"/>
   </g>
   <g id="line2d_18">
    <path d="M 78.820744 218.687635 
L 202.543225 218.604815 
L 202.543225 218.213679 
L 208.297759 218.1405 
L 208.297759 218.062701 
L 211.175026 218.062701 
L 211.175026 217.893508 
L 214.052293 217.893508 
L 214.052293 217.116875 
L 216.92956 217.116875 
L 216.92956 216.790541 
L 219.806827 216.790541 
L 219.806827 215.921764 
L 222.684094 215.921764 
L 222.684094 215.020401 
L 225.561361 215.020401 
L 225.561361 213.354045 
L 228.438628 213.354045 
L 228.438628 211.668359 
L 231.315895 211.668359 
L 231.315895 207.61054 
L 234.193162 207.61054 
L 234.193162 202.175222 
L 237.070429 202.175222 
L 237.070429 196.466553 
L 239.947696 196.466553 
L 239.947696 186.066954 
L 242.824963 186.066954 
L 242.824963 176.890219 
L 245.70223 176.890219 
L 245.70223 167.231045 
L 248.579497 167.231045 
L 248.579497 155.002751 
L 251.456764 155.002751 
L 251.456764 144.382362 
L 254.334031 144.382362 
L 254.334031 130.516772 
L 257.211298 130.516772 
L 257.211298 109.733929 
L 260.088565 109.733929 
L 260.088565 103.976464 
L 262.965831 103.976464 
L 262.965831 89.005861 
L 265.843098 89.005861 
L 265.843098 77.053311 
L 268.720365 77.053311 
L 268.720365 75.634198 
L 271.597632 75.634198 
L 271.597632 65.134089 
L 274.474899 65.134089 
L 274.474899 58.922828 
L 277.352166 58.922828 
L 277.352166 56.985511 
L 280.229433 56.985511 
L 280.229433 58.378132 
L 283.1067 58.378132 
L 283.1067 55.421313 
L 285.983967 55.421313 
L 285.983967 49.978037 
L 288.861234 49.978037 
L 288.861234 52.715691 
L 291.738501 52.715691 
L 291.738501 56.255128 
L 294.615768 56.255128 
L 294.615768 54.837495 
L 297.493035 54.837495 
L 297.493035 55.327158 
L 300.370302 55.327158 
L 300.370302 61.661186 
L 303.247569 61.661186 
L 303.247569 62.607701 
L 306.124836 62.607701 
L 306.124836 70.973096 
L 309.002103 70.973096 
L 309.002103 78.158612 
L 311.87937 78.158612 
L 311.87937 93.613145 
L 314.756637 93.613145 
L 314.756637 102.020663 
L 317.633904 102.020663 
L 317.633904 114.431621 
L 320.511171 114.431621 
L 320.511171 119.765643 
L 323.388438 119.765643 
L 323.388438 137.122732 
L 326.265705 137.122732 
L 326.265705 153.528323 
L 329.142972 153.528323 
L 329.142972 165.338944 
L 332.020239 165.338944 
L 332.020239 174.115358 
L 334.897506 174.115358 
L 334.897506 184.48361 
L 337.774773 184.48361 
L 337.774773 194.854128 
L 340.65204 194.854128 
L 340.65204 201.260392 
L 343.529307 201.260392 
L 343.529307 205.731168 
L 346.406574 205.731168 
L 346.406574 209.789235 
L 349.283841 209.789235 
L 349.283841 213.171806 
L 352.161108 213.171806 
L 352.161108 215.657059 
L 355.038375 215.657059 
L 355.038375 217.04037 
L 357.915642 217.04037 
L 357.915642 217.706182 
L 360.792909 217.706182 
L 360.792909 218.515149 
L 366.547443 218.476338 
L 366.547443 218.476338 
" clip-path="url(#pb328aa2ae9)" style="fill: none; stroke: #ff7f0e; stroke-width: 1.5; stroke-linecap: square"/>
   </g>
   <g id="LineCollection_2">
    <path d="M 80.259378 218.687635 
L 80.259378 218.687635 
" clip-path="url(#pb328aa2ae9)" style="fill: none; stroke: #ff7f0e; stroke-width: 1.5"/>
    <path d="M 83.136645 218.687635 
L 83.136645 218.687635 
" clip-path="url(#pb328aa2ae9)" style="fill: none; stroke: #ff7f0e; stroke-width: 1.5"/>
    <path d="M 86.013912 218.687635 
L 86.013912 218.687635 
" clip-path="url(#pb328aa2ae9)" style="fill: none; stroke: #ff7f0e; stroke-width: 1.5"/>
    <path d="M 88.891179 218.687635 
L 88.891179 218.687635 
" clip-path="url(#pb328aa2ae9)" style="fill: none; stroke: #ff7f0e; stroke-width: 1.5"/>
    <path d="M 91.768446 218.687635 
L 91.768446 218.687635 
" clip-path="url(#pb328aa2ae9)" style="fill: none; stroke: #ff7f0e; stroke-width: 1.5"/>
    <path d="M 94.645713 218.687635 
L 94.645713 218.687635 
" clip-path="url(#pb328aa2ae9)" style="fill: none; stroke: #ff7f0e; stroke-width: 1.5"/>
    <path d="M 97.522979 218.687635 
L 97.522979 218.687635 
" clip-path="url(#pb328aa2ae9)" style="fill: none; stroke: #ff7f0e; stroke-width: 1.5"/>
    <path d="M 100.400246 218.687635 
L 100.400246 218.687634 
" clip-path="url(#pb328aa2ae9)" style="fill: none; stroke: #ff7f0e; stroke-width: 1.5"/>
    <path d="M 103.277513 218.687636 
L 103.277513 218.687633 
" clip-path="url(#pb328aa2ae9)" style="fill: none; stroke: #ff7f0e; stroke-width: 1.5"/>
    <path d="M 106.15478 218.687635 
L 106.15478 218.687635 
" clip-path="url(#pb328aa2ae9)" style="fill: none; stroke: #ff7f0e; stroke-width: 1.5"/>
    <path d="M 109.032047 218.687704 
L 109.032047 218.687566 
" clip-path="url(#pb328aa2ae9)" style="fill: none; stroke: #ff7f0e; stroke-width: 1.5"/>
    <path d="M 111.909314 218.687637 
L 111.909314 218.687632 
" clip-path="url(#pb328aa2ae9)" style="fill: none; stroke: #ff7f0e; stroke-width: 1.5"/>
    <path d="M 114.786581 218.687843 
L 114.786581 218.687426 
" clip-path="url(#pb328aa2ae9)" style="fill: none; stroke: #ff7f0e; stroke-width: 1.5"/>
    <path d="M 117.663848 218.691027 
L 117.663848 218.684212 
" clip-path="url(#pb328aa2ae9)" style="fill: none; stroke: #ff7f0e; stroke-width: 1.5"/>
    <path d="M 120.541115 218.690429 
L 120.541115 218.68482 
" clip-path="url(#pb328aa2ae9)" style="fill: none; stroke: #ff7f0e; stroke-width: 1.5"/>
    <path d="M 123.418382 218.68832 
L 123.418382 218.686947 
" clip-path="url(#pb328aa2ae9)" style="fill: none; stroke: #ff7f0e; stroke-width: 1.5"/>
    <path d="M 126.295649 218.688215 
L 126.295649 218.687053 
" clip-path="url(#pb328aa2ae9)" style="fill: none; stroke: #ff7f0e; stroke-width: 1.5"/>
    <path d="M 129.172916 218.692203 
L 129.172916 218.683011 
" clip-path="url(#pb328aa2ae9)" style="fill: none; stroke: #ff7f0e; stroke-width: 1.5"/>
    <path d="M 132.050183 218.693742 
L 132.050183 218.681429 
" clip-path="url(#pb328aa2ae9)" style="fill: none; stroke: #ff7f0e; stroke-width: 1.5"/>
    <path d="M 134.92745 218.691104 
L 134.92745 218.684133 
" clip-path="url(#pb328aa2ae9)" style="fill: none; stroke: #ff7f0e; stroke-width: 1.5"/>
    <path d="M 137.804717 218.698288 
L 137.804717 218.676678 
" clip-path="url(#pb328aa2ae9)" style="fill: none; stroke: #ff7f0e; stroke-width: 1.5"/>
    <path d="M 140.681984 218.697597 
L 140.681984 218.677408 
" clip-path="url(#pb328aa2ae9)" style="fill: none; stroke: #ff7f0e; stroke-width: 1.5"/>
    <path d="M 143.559251 218.694356 
L 143.559251 218.680794 
" clip-path="url(#pb328aa2ae9)" style="fill: none; stroke: #ff7f0e; stroke-width: 1.5"/>
    <path d="M 146.436518 218.706005 
L 146.436518 218.668344 
" clip-path="url(#pb328aa2ae9)" style="fill: none; stroke: #ff7f0e; stroke-width: 1.5"/>
    <path d="M 149.313785 218.704079 
L 149.313785 218.670457 
" clip-path="url(#pb328aa2ae9)" style="fill: none; stroke: #ff7f0e; stroke-width: 1.5"/>
    <path d="M 152.191052 218.707838 
L 152.191052 218.666313 
" clip-path="url(#pb328aa2ae9)" style="fill: none; stroke: #ff7f0e; stroke-width: 1.5"/>
    <path d="M 155.068319 218.701418 
L 155.068319 218.67334 
" clip-path="url(#pb328aa2ae9)" style="fill: none; stroke: #ff7f0e; stroke-width: 1.5"/>
    <path d="M 157.945586 218.783175 
L 157.945586 218.559719 
" clip-path="url(#pb328aa2ae9)" style="fill: none; stroke: #ff7f0e; stroke-width: 1.5"/>
    <path d="M 160.822853 218.713466 
L 160.822853 218.659946 
" clip-path="url(#pb328aa2ae9)" style="fill: none; stroke: #ff7f0e; stroke-width: 1.5"/>
    <path d="M 163.70012 218.84011 
L 163.70012 218.421592 
" clip-path="url(#pb328aa2ae9)" style="fill: none; stroke: #ff7f0e; stroke-width: 1.5"/>
    <path d="M 166.577387 218.710725 
L 166.577387 218.663072 
" clip-path="url(#pb328aa2ae9)" style="fill: none; stroke: #ff7f0e; stroke-width: 1.5"/>
    <path d="M 169.454654 218.71805 
L 169.454654 218.65461 
" clip-path="url(#pb328aa2ae9)" style="fill: none; stroke: #ff7f0e; stroke-width: 1.5"/>
    <path d="M 172.331921 218.712032 
L 172.331921 218.661587 
" clip-path="url(#pb328aa2ae9)" style="fill: none; stroke: #ff7f0e; stroke-width: 1.5"/>
    <path d="M 175.209188 218.719923 
L 175.209188 218.652389 
" clip-path="url(#pb328aa2ae9)" style="fill: none; stroke: #ff7f0e; stroke-width: 1.5"/>
    <path d="M 178.086455 218.865169 
L 178.086455 218.310938 
" clip-path="url(#pb328aa2ae9)" style="fill: none; stroke: #ff7f0e; stroke-width: 1.5"/>
    <path d="M 180.963722 218.723085 
L 180.963722 218.648585 
" clip-path="url(#pb328aa2ae9)" style="fill: none; stroke: #ff7f0e; stroke-width: 1.5"/>
    <path d="M 183.840989 218.719039 
L 183.840989 218.65344 
" clip-path="url(#pb328aa2ae9)" style="fill: none; stroke: #ff7f0e; stroke-width: 1.5"/>
    <path d="M 186.718256 218.71816 
L 186.718256 218.65448 
" clip-path="url(#pb328aa2ae9)" style="fill: none; stroke: #ff7f0e; stroke-width: 1.5"/>
    <path d="M 189.595523 218.714939 
L 189.595523 218.658246 
" clip-path="url(#pb328aa2ae9)" style="fill: none; stroke: #ff7f0e; stroke-width: 1.5"/>
    <path d="M 192.47279 218.779252 
L 192.47279 218.566735 
" clip-path="url(#pb328aa2ae9)" style="fill: none; stroke: #ff7f0e; stroke-width: 1.5"/>
    <path d="M 195.350057 218.822026 
L 195.350057 218.475293 
" clip-path="url(#pb328aa2ae9)" style="fill: none; stroke: #ff7f0e; stroke-width: 1.5"/>
    <path d="M 198.227324 218.811272 
L 198.227324 218.501968 
" clip-path="url(#pb328aa2ae9)" style="fill: none; stroke: #ff7f0e; stroke-width: 1.5"/>
    <path d="M 201.104591 218.857534 
L 201.104591 218.352095 
" clip-path="url(#pb328aa2ae9)" style="fill: none; stroke: #ff7f0e; stroke-width: 1.5"/>
    <path d="M 203.981858 218.818241 
L 203.981858 217.609118 
" clip-path="url(#pb328aa2ae9)" style="fill: none; stroke: #ff7f0e; stroke-width: 1.5"/>
    <path d="M 206.859125 218.790059 
L 206.859125 217.490941 
" clip-path="url(#pb328aa2ae9)" style="fill: none; stroke: #ff7f0e; stroke-width: 1.5"/>
    <path d="M 209.736392 218.756907 
L 209.736392 217.368495 
" clip-path="url(#pb328aa2ae9)" style="fill: none; stroke: #ff7f0e; stroke-width: 1.5"/>
    <path d="M 212.613659 218.676066 
L 212.613659 217.11095 
" clip-path="url(#pb328aa2ae9)" style="fill: none; stroke: #ff7f0e; stroke-width: 1.5"/>
    <path d="M 215.490926 218.217468 
L 215.490926 216.016283 
" clip-path="url(#pb328aa2ae9)" style="fill: none; stroke: #ff7f0e; stroke-width: 1.5"/>
    <path d="M 218.368193 218.000069 
L 218.368193 215.581013 
" clip-path="url(#pb328aa2ae9)" style="fill: none; stroke: #ff7f0e; stroke-width: 1.5"/>
    <path d="M 221.24546 217.382217 
L 221.24546 214.461311 
" clip-path="url(#pb328aa2ae9)" style="fill: none; stroke: #ff7f0e; stroke-width: 1.5"/>
    <path d="M 224.122727 216.702071 
L 224.122727 213.33873 
" clip-path="url(#pb328aa2ae9)" style="fill: none; stroke: #ff7f0e; stroke-width: 1.5"/>
    <path d="M 226.999994 215.382109 
L 226.999994 211.325982 
" clip-path="url(#pb328aa2ae9)" style="fill: none; stroke: #ff7f0e; stroke-width: 1.5"/>
    <path d="M 229.877261 213.994938 
L 229.877261 209.341779 
" clip-path="url(#pb328aa2ae9)" style="fill: none; stroke: #ff7f0e; stroke-width: 1.5"/>
    <path d="M 232.754528 210.533242 
L 232.754528 204.687837 
" clip-path="url(#pb328aa2ae9)" style="fill: none; stroke: #ff7f0e; stroke-width: 1.5"/>
    <path d="M 235.631795 205.74365 
L 235.631795 198.606794 
" clip-path="url(#pb328aa2ae9)" style="fill: none; stroke: #ff7f0e; stroke-width: 1.5"/>
    <path d="M 238.509062 200.606114 
L 238.509062 192.326992 
" clip-path="url(#pb328aa2ae9)" style="fill: none; stroke: #ff7f0e; stroke-width: 1.5"/>
    <path d="M 241.386329 191.0825 
L 241.386329 181.051409 
" clip-path="url(#pb328aa2ae9)" style="fill: none; stroke: #ff7f0e; stroke-width: 1.5"/>
    <path d="M 244.263596 182.567579 
L 244.263596 171.212859 
" clip-path="url(#pb328aa2ae9)" style="fill: none; stroke: #ff7f0e; stroke-width: 1.5"/>
    <path d="M 247.140863 173.530344 
L 247.140863 160.931746 
" clip-path="url(#pb328aa2ae9)" style="fill: none; stroke: #ff7f0e; stroke-width: 1.5"/>
    <path d="M 250.01813 162.010683 
L 250.01813 147.994819 
" clip-path="url(#pb328aa2ae9)" style="fill: none; stroke: #ff7f0e; stroke-width: 1.5"/>
    <path d="M 252.895397 151.952112 
L 252.895397 136.812612 
" clip-path="url(#pb328aa2ae9)" style="fill: none; stroke: #ff7f0e; stroke-width: 1.5"/>
    <path d="M 255.772664 138.762599 
L 255.772664 122.270944 
" clip-path="url(#pb328aa2ae9)" style="fill: none; stroke: #ff7f0e; stroke-width: 1.5"/>
    <path d="M 258.649931 118.9002 
L 258.649931 100.567657 
" clip-path="url(#pb328aa2ae9)" style="fill: none; stroke: #ff7f0e; stroke-width: 1.5"/>
    <path d="M 261.527198 113.381805 
L 261.527198 94.571123 
" clip-path="url(#pb328aa2ae9)" style="fill: none; stroke: #ff7f0e; stroke-width: 1.5"/>
    <path d="M 264.404465 99.006118 
L 264.404465 79.005604 
" clip-path="url(#pb328aa2ae9)" style="fill: none; stroke: #ff7f0e; stroke-width: 1.5"/>
    <path d="M 267.281732 87.504265 
L 267.281732 66.602356 
" clip-path="url(#pb328aa2ae9)" style="fill: none; stroke: #ff7f0e; stroke-width: 1.5"/>
    <path d="M 270.158999 86.137379 
L 270.158999 65.131017 
" clip-path="url(#pb328aa2ae9)" style="fill: none; stroke: #ff7f0e; stroke-width: 1.5"/>
    <path d="M 273.036266 76.015911 
L 273.036266 54.252267 
" clip-path="url(#pb328aa2ae9)" style="fill: none; stroke: #ff7f0e; stroke-width: 1.5"/>
    <path d="M 275.913533 70.022554 
L 275.913533 47.823102 
" clip-path="url(#pb328aa2ae9)" style="fill: none; stroke: #ff7f0e; stroke-width: 1.5"/>
    <path d="M 278.7908 68.152332 
L 278.7908 45.818689 
" clip-path="url(#pb328aa2ae9)" style="fill: none; stroke: #ff7f0e; stroke-width: 1.5"/>
    <path d="M 281.668067 69.496763 
L 281.668067 47.259501 
" clip-path="url(#pb328aa2ae9)" style="fill: none; stroke: #ff7f0e; stroke-width: 1.5"/>
    <path d="M 284.545334 66.642014 
L 284.545334 44.200612 
" clip-path="url(#pb328aa2ae9)" style="fill: none; stroke: #ff7f0e; stroke-width: 1.5"/>
    <path d="M 287.422601 61.384253 
L 287.422601 38.571821 
" clip-path="url(#pb328aa2ae9)" style="fill: none; stroke: #ff7f0e; stroke-width: 1.5"/>
    <path d="M 290.299868 64.028984 
L 290.299868 41.402398 
" clip-path="url(#pb328aa2ae9)" style="fill: none; stroke: #ff7f0e; stroke-width: 1.5"/>
    <path d="M 293.177135 67.44714 
L 293.177135 45.063116 
" clip-path="url(#pb328aa2ae9)" style="fill: none; stroke: #ff7f0e; stroke-width: 1.5"/>
    <path d="M 296.054402 66.07824 
L 296.054402 43.59675 
" clip-path="url(#pb328aa2ae9)" style="fill: none; stroke: #ff7f0e; stroke-width: 1.5"/>
    <path d="M 298.931669 66.551094 
L 298.931669 44.103222 
" clip-path="url(#pb328aa2ae9)" style="fill: none; stroke: #ff7f0e; stroke-width: 1.5"/>
    <path d="M 301.808936 72.665377 
L 301.808936 50.656996 
" clip-path="url(#pb328aa2ae9)" style="fill: none; stroke: #ff7f0e; stroke-width: 1.5"/>
    <path d="M 304.686203 73.578676 
L 304.686203 51.636726 
" clip-path="url(#pb328aa2ae9)" style="fill: none; stroke: #ff7f0e; stroke-width: 1.5"/>
    <path d="M 307.56347 81.646017 
L 307.56347 60.300174 
" clip-path="url(#pb328aa2ae9)" style="fill: none; stroke: #ff7f0e; stroke-width: 1.5"/>
    <path d="M 310.440737 88.568707 
L 310.440737 67.748516 
" clip-path="url(#pb328aa2ae9)" style="fill: none; stroke: #ff7f0e; stroke-width: 1.5"/>
    <path d="M 313.318004 103.434153 
L 313.318004 83.792137 
" clip-path="url(#pb328aa2ae9)" style="fill: none; stroke: #ff7f0e; stroke-width: 1.5"/>
    <path d="M 316.195271 111.505845 
L 316.195271 92.535482 
" clip-path="url(#pb328aa2ae9)" style="fill: none; stroke: #ff7f0e; stroke-width: 1.5"/>
    <path d="M 319.072538 123.398106 
L 319.072538 105.465135 
" clip-path="url(#pb328aa2ae9)" style="fill: none; stroke: #ff7f0e; stroke-width: 1.5"/>
    <path d="M 321.949805 128.499743 
L 321.949805 111.031544 
" clip-path="url(#pb328aa2ae9)" style="fill: none; stroke: #ff7f0e; stroke-width: 1.5"/>
    <path d="M 324.827072 145.053648 
L 324.827072 129.191816 
" clip-path="url(#pb328aa2ae9)" style="fill: none; stroke: #ff7f0e; stroke-width: 1.5"/>
    <path d="M 327.704339 160.616914 
L 327.704339 146.439732 
" clip-path="url(#pb328aa2ae9)" style="fill: none; stroke: #ff7f0e; stroke-width: 1.5"/>
    <path d="M 330.581606 171.753012 
L 330.581606 158.924876 
" clip-path="url(#pb328aa2ae9)" style="fill: none; stroke: #ff7f0e; stroke-width: 1.5"/>
    <path d="M 333.458873 179.978145 
L 333.458873 168.252571 
" clip-path="url(#pb328aa2ae9)" style="fill: none; stroke: #ff7f0e; stroke-width: 1.5"/>
    <path d="M 336.33614 189.619436 
L 336.33614 179.347784 
" clip-path="url(#pb328aa2ae9)" style="fill: none; stroke: #ff7f0e; stroke-width: 1.5"/>
    <path d="M 339.213407 199.141248 
L 339.213407 190.567007 
" clip-path="url(#pb328aa2ae9)" style="fill: none; stroke: #ff7f0e; stroke-width: 1.5"/>
    <path d="M 342.090674 204.926338 
L 342.090674 197.594446 
" clip-path="url(#pb328aa2ae9)" style="fill: none; stroke: #ff7f0e; stroke-width: 1.5"/>
    <path d="M 344.967941 208.892099 
L 344.967941 202.570237 
" clip-path="url(#pb328aa2ae9)" style="fill: none; stroke: #ff7f0e; stroke-width: 1.5"/>
    <path d="M 347.845208 212.408791 
L 347.845208 207.169679 
" clip-path="url(#pb328aa2ae9)" style="fill: none; stroke: #ff7f0e; stroke-width: 1.5"/>
    <path d="M 350.722475 215.234226 
L 350.722475 211.109386 
" clip-path="url(#pb328aa2ae9)" style="fill: none; stroke: #ff7f0e; stroke-width: 1.5"/>
    <path d="M 353.599742 217.185802 
L 353.599742 214.128317 
" clip-path="url(#pb328aa2ae9)" style="fill: none; stroke: #ff7f0e; stroke-width: 1.5"/>
    <path d="M 356.477009 218.167446 
L 356.477009 215.913293 
" clip-path="url(#pb328aa2ae9)" style="fill: none; stroke: #ff7f0e; stroke-width: 1.5"/>
    <path d="M 359.354276 218.576156 
L 359.354276 216.836208 
" clip-path="url(#pb328aa2ae9)" style="fill: none; stroke: #ff7f0e; stroke-width: 1.5"/>
    <path d="M 362.231543 218.879859 
L 362.231543 218.150439 
" clip-path="url(#pb328aa2ae9)" style="fill: none; stroke: #ff7f0e; stroke-width: 1.5"/>
    <path d="M 365.10881 218.88 
L 365.10881 218.072675 
" clip-path="url(#pb328aa2ae9)" style="fill: none; stroke: #ff7f0e; stroke-width: 1.5"/>
   </g>
  </g>
 </g>
 <defs>
  <clipPath id="pb328aa2ae9">
   <rect x="46.965625" y="7.2" width="334.8" height="221.76"/>
  </clipPath>
 </defs>
</svg>