<?xml version="1.0" encoding="utf-8" standalone="no"?>
<!DOCTYPE svg PUBLIC "-//W3C//DTD SVG 1.1//EN"
  "http://www.w3.org/Graphics/SVG/1.1/DTD/svg11.dtd">
<svg xmlns:xlink="http://www.w3.org/1999/xlink" width="423.392569pt" height="279.99625pt" viewBox="0 0 423.392569 279.99625" xmlns="http://www.w3.org/2000/svg" version="1.1">
 <metadata>
  <rdf:RDF xmlns:dc="http://purl.org/dc/elements/1.1/" xmlns:cc="http://creativecommons.org/ns#" xmlns:rdf="http://www.w3.org/1999/02/22-rdf-syntax-ns#">
   <cc:Work>
    <dc:type rdf:resource="http://purl.org/dc/dcmitype/StillImage"/>
    <dc:date>2024-08-01T15:38:51.089889</dc:date>
    <dc:format>image/svg+xml</dc:format>
    <dc:creator>
     <cc:Agent>
      <dc:title>Matplotlib v3.9.1, https://matplotlib.org/</dc:title>
     </cc:Agent>
    </dc:creator>
   </cc:Work>
  </rdf:RDF>
 </metadata>
 <defs>
  <style type="text/css">*{stroke-linejoin: round; stroke-linecap: butt}</style>
 </defs>
 <g id="figure_1">
  <g id="patch_1">
   <path d="M 0 279.99625 
L 423.392569 279.99625 
L 423.392569 0 
L 0 0 
z
" style="fill: #ffffff"/>
  </g>
  <g id="axes_1">
   <g id="patch_2">
    <path d="M 45.478125 242.44 
L 414.304889 242.44 
L 414.304889 7.2 
L 45.478125 7.2 
z
" style="fill: #ffffff"/>
   </g>
   <g id="matplotlib.axis_1">
    <g id="xtick_1">
     <g id="line2d_1">
      <defs>
       <path id="m38dedf809c" d="M 0 0 
L 0 3.5 
" style="stroke: #000000; stroke-width: 0.8"/>
      </defs>
      <g>
       <use xlink:href="#m38dedf809c" x="51.542008" y="242.44" style="stroke: #000000; stroke-width: 0.8"/>
      </g>
     </g>
     <g id="text_1">
      <!-- 0.0 -->
      <g transform="translate(43.590445 257.038437) scale(0.1 -0.1)">
       <defs>
        <path id="DejaVuSans-30" d="M 2034 4250 
Q 1547 4250 1301 3770 
Q 1056 3291 1056 2328 
Q 1056 1369 1301 889 
Q 1547 409 2034 409 
Q 2525 409 2770 889 
Q 3016 1369 3016 2328 
Q 3016 3291 2770 3770 
Q 2525 4250 2034 4250 
z
M 2034 4750 
Q 2819 4750 3233 4129 
Q 3647 3509 3647 2328 
Q 3647 1150 3233 529 
Q 2819 -91 2034 -91 
Q 1250 -91 836 529 
Q 422 1150 422 2328 
Q 422 3509 836 4129 
Q 1250 4750 2034 4750 
z
" transform="scale(0.015625)"/>
        <path id="DejaVuSans-2e" d="M 684 794 
L 1344 794 
L 1344 0 
L 684 0 
L 684 794 
z
" transform="scale(0.015625)"/>
       </defs>
       <use xlink:href="#DejaVuSans-30"/>
       <use xlink:href="#DejaVuSans-2e" x="63.623047"/>
       <use xlink:href="#DejaVuSans-30" x="95.410156"/>
      </g>
     </g>
    </g>
    <g id="xtick_2">
     <g id="line2d_2">
      <g>
       <use xlink:href="#m38dedf809c" x="122.881808" y="242.44" style="stroke: #000000; stroke-width: 0.8"/>
      </g>
     </g>
     <g id="text_2">
      <!-- 0.1 -->
      <g transform="translate(114.930245 257.038437) scale(0.1 -0.1)">
       <defs>
        <path id="DejaVuSans-31" d="M 794 531 
L 1825 531 
L 1825 4091 
L 703 3866 
L 703 4441 
L 1819 4666 
L 2450 4666 
L 2450 531 
L 3481 531 
L 3481 0 
L 794 0 
L 794 531 
z
" transform="scale(0.015625)"/>
       </defs>
       <use xlink:href="#DejaVuSans-30"/>
       <use xlink:href="#DejaVuSans-2e" x="63.623047"/>
       <use xlink:href="#DejaVuSans-31" x="95.410156"/>
      </g>
     </g>
    </g>
    <g id="xtick_3">
     <g id="line2d_3">
      <g>
       <use xlink:href="#m38dedf809c" x="194.221607" y="242.44" style="stroke: #000000; stroke-width: 0.8"/>
      </g>
     </g>
     <g id="text_3">
      <!-- 0.2 -->
      <g transform="translate(186.270045 257.038437) scale(0.1 -0.1)">
       <defs>
        <path id="DejaVuSans-32" d="M 1228 531 
L 3431 531 
L 3431 0 
L 469 0 
L 469 531 
Q 828 903 1448 1529 
Q 2069 2156 2228 2338 
Q 2531 2678 2651 2914 
Q 2772 3150 2772 3378 
Q 2772 3750 2511 3984 
Q 2250 4219 1831 4219 
Q 1534 4219 1204 4116 
Q 875 4013 500 3803 
L 500 4441 
Q 881 4594 1212 4672 
Q 1544 4750 1819 4750 
Q 2544 4750 2975 4387 
Q 3406 4025 3406 3419 
Q 3406 3131 3298 2873 
Q 3191 2616 2906 2266 
Q 2828 2175 2409 1742 
Q 1991 1309 1228 531 
z
" transform="scale(0.015625)"/>
       </defs>
       <use xlink:href="#DejaVuSans-30"/>
       <use xlink:href="#DejaVuSans-2e" x="63.623047"/>
       <use xlink:href="#DejaVuSans-32" x="95.410156"/>
      </g>
     </g>
    </g>
    <g id="xtick_4">
     <g id="line2d_4">
      <g>
       <use xlink:href="#m38dedf809c" x="265.561407" y="242.44" style="stroke: #000000; stroke-width: 0.8"/>
      </g>
     </g>
     <g id="text_4">
      <!-- 0.3 -->
      <g transform="translate(257.609844 257.038437) scale(0.1 -0.1)">
       <defs>
        <path id="DejaVuSans-33" d="M 2597 2516 
Q 3050 2419 3304 2112 
Q 3559 1806 3559 1356 
Q 3559 666 3084 287 
Q 2609 -91 1734 -91 
Q 1441 -91 1130 -33 
Q 819 25 488 141 
L 488 750 
Q 750 597 1062 519 
Q 1375 441 1716 441 
Q 2309 441 2620 675 
Q 2931 909 2931 1356 
Q 2931 1769 2642 2001 
Q 2353 2234 1838 2234 
L 1294 2234 
L 1294 2753 
L 1863 2753 
Q 2328 2753 2575 2939 
Q 2822 3125 2822 3475 
Q 2822 3834 2567 4026 
Q 2313 4219 1838 4219 
Q 1578 4219 1281 4162 
Q 984 4106 628 3988 
L 628 4550 
Q 988 4650 1302 4700 
Q 1616 4750 1894 4750 
Q 2613 4750 3031 4423 
Q 3450 4097 3450 3541 
Q 3450 3153 3228 2886 
Q 3006 2619 2597 2516 
z
" transform="scale(0.015625)"/>
       </defs>
       <use xlink:href="#DejaVuSans-30"/>
       <use xlink:href="#DejaVuSans-2e" x="63.623047"/>
       <use xlink:href="#DejaVuSans-33" x="95.410156"/>
      </g>
     </g>
    </g>
    <g id="xtick_5">
     <g id="line2d_5">
      <g>
       <use xlink:href="#m38dedf809c" x="336.901206" y="242.44" style="stroke: #000000; stroke-width: 0.8"/>
      </g>
     </g>
     <g id="text_5">
      <!-- 0.4 -->
      <g transform="translate(328.949644 257.038437) scale(0.1 -0.1)">
       <defs>
        <path id="DejaVuSans-34" d="M 2419 4116 
L 825 1625 
L 2419 1625 
L 2419 4116 
z
M 2253 4666 
L 3047 4666 
L 3047 1625 
L 3713 1625 
L 3713 1100 
L 3047 1100 
L 3047 0 
L 2419 0 
L 2419 1100 
L 313 1100 
L 313 1709 
L 2253 4666 
z
" transform="scale(0.015625)"/>
       </defs>
       <use xlink:href="#DejaVuSans-30"/>
       <use xlink:href="#DejaVuSans-2e" x="63.623047"/>
       <use xlink:href="#DejaVuSans-34" x="95.410156"/>
      </g>
     </g>
    </g>
    <g id="xtick_6">
     <g id="line2d_6">
      <g>
       <use xlink:href="#m38dedf809c" x="408.241006" y="242.44" style="stroke: #000000; stroke-width: 0.8"/>
      </g>
     </g>
     <g id="text_6">
      <!-- 0.5 -->
      <g transform="translate(400.289444 257.038437) scale(0.1 -0.1)">
       <defs>
        <path id="DejaVuSans-35" d="M 691 4666 
L 3169 4666 
L 3169 4134 
L 1269 4134 
L 1269 2991 
Q 1406 3038 1543 3061 
Q 1681 3084 1819 3084 
Q 2600 3084 3056 2656 
Q 3513 2228 3513 1497 
Q 3513 744 3044 326 
Q 2575 -91 1722 -91 
Q 1428 -91 1123 -41 
Q 819 9 494 109 
L 494 744 
Q 775 591 1075 516 
Q 1375 441 1709 441 
Q 2250 441 2565 725 
Q 2881 1009 2881 1497 
Q 2881 1984 2565 2268 
Q 2250 2553 1709 2553 
Q 1456 2553 1204 2497 
Q 953 2441 691 2322 
L 691 4666 
z
" transform="scale(0.015625)"/>
       </defs>
       <use xlink:href="#DejaVuSans-30"/>
       <use xlink:href="#DejaVuSans-2e" x="63.623047"/>
       <use xlink:href="#DejaVuSans-35" x="95.410156"/>
      </g>
     </g>
    </g>
    <g id="text_7">
     <!-- y [m] -->
     <g transform="translate(216.571194 270.716562) scale(0.1 -0.1)">
      <defs>
       <path id="DejaVuSans-79" d="M 2059 -325 
Q 1816 -950 1584 -1140 
Q 1353 -1331 966 -1331 
L 506 -1331 
L 506 -850 
L 844 -850 
Q 1081 -850 1212 -737 
Q 1344 -625 1503 -206 
L 1606 56 
L 191 3500 
L 800 3500 
L 1894 763 
L 2988 3500 
L 3597 3500 
L 2059 -325 
z
" transform="scale(0.015625)"/>
       <path id="DejaVuSans-20" transform="scale(0.015625)"/>
       <path id="DejaVuSans-5b" d="M 550 4863 
L 1875 4863 
L 1875 4416 
L 1125 4416 
L 1125 -397 
L 1875 -397 
L 1875 -844 
L 550 -844 
L 550 4863 
z
" transform="scale(0.015625)"/>
       <path id="DejaVuSans-6d" d="M 3328 2828 
Q 3544 3216 3844 3400 
Q 4144 3584 4550 3584 
Q 5097 3584 5394 3201 
Q 5691 2819 5691 2113 
L 5691 0 
L 5113 0 
L 5113 2094 
Q 5113 2597 4934 2840 
Q 4756 3084 4391 3084 
Q 3944 3084 3684 2787 
Q 3425 2491 3425 1978 
L 3425 0 
L 2847 0 
L 2847 2094 
Q 2847 2600 2669 2842 
Q 2491 3084 2119 3084 
Q 1678 3084 1418 2786 
Q 1159 2488 1159 1978 
L 1159 0 
L 581 0 
L 581 3500 
L 1159 3500 
L 1159 2956 
Q 1356 3278 1631 3431 
Q 1906 3584 2284 3584 
Q 2666 3584 2933 3390 
Q 3200 3197 3328 2828 
z
" transform="scale(0.015625)"/>
       <path id="DejaVuSans-5d" d="M 1947 4863 
L 1947 -844 
L 622 -844 
L 622 -397 
L 1369 -397 
L 1369 4416 
L 622 4416 
L 622 4863 
L 1947 4863 
z
" transform="scale(0.015625)"/>
      </defs>
      <use xlink:href="#DejaVuSans-79"/>
      <use xlink:href="#DejaVuSans-20" x="59.179688"/>
      <use xlink:href="#DejaVuSans-5b" x="90.966797"/>
      <use xlink:href="#DejaVuSans-6d" x="129.980469"/>
      <use xlink:href="#DejaVuSans-5d" x="227.392578"/>
     </g>
    </g>
   </g>
   <g id="matplotlib.axis_2">
    <g id="ytick_1">
     <g id="line2d_7">
      <defs>
       <path id="mde27269970" d="M 0 0 
L -3.5 0 
" style="stroke: #000000; stroke-width: 0.8"/>
      </defs>
      <g>
       <use xlink:href="#mde27269970" x="45.478125" y="221.543639" style="stroke: #000000; stroke-width: 0.8"/>
      </g>
     </g>
     <g id="text_8">
      <!-- $\mathdefault{10^{1}}$ -->
      <g transform="translate(20.878125 225.342858) scale(0.1 -0.1)">
       <use xlink:href="#DejaVuSans-31" transform="translate(0 0.684375)"/>
       <use xlink:href="#DejaVuSans-30" transform="translate(63.623047 0.684375)"/>
       <use xlink:href="#DejaVuSans-31" transform="translate(128.203125 38.965625) scale(0.7)"/>
      </g>
     </g>
    </g>
    <g id="ytick_2">
     <g id="line2d_8">
      <g>
       <use xlink:href="#mde27269970" x="45.478125" y="142.756765" style="stroke: #000000; stroke-width: 0.8"/>
      </g>
     </g>
     <g id="text_9">
      <!-- $\mathdefault{10^{2}}$ -->
      <g transform="translate(20.878125 146.555984) scale(0.1 -0.1)">
       <use xlink:href="#DejaVuSans-31" transform="translate(0 0.765625)"/>
       <use xlink:href="#DejaVuSans-30" transform="translate(63.623047 0.765625)"/>
       <use xlink:href="#DejaVuSans-32" transform="translate(128.203125 39.046875) scale(0.7)"/>
      </g>
     </g>
    </g>
    <g id="ytick_3">
     <g id="line2d_9">
      <g>
       <use xlink:href="#mde27269970" x="45.478125" y="63.969891" style="stroke: #000000; stroke-width: 0.8"/>
      </g>
     </g>
     <g id="text_10">
      <!-- $\mathdefault{10^{3}}$ -->
      <g transform="translate(20.878125 67.769109) scale(0.1 -0.1)">
       <use xlink:href="#DejaVuSans-31" transform="translate(0 0.765625)"/>
       <use xlink:href="#DejaVuSans-30" transform="translate(63.623047 0.765625)"/>
       <use xlink:href="#DejaVuSans-33" transform="translate(128.203125 39.046875) scale(0.7)"/>
      </g>
     </g>
    </g>
    <g id="ytick_4">
     <g id="line2d_10">
      <defs>
       <path id="ma18a1ad0e1" d="M 0 0 
L -2 0 
" style="stroke: #000000; stroke-width: 0.6"/>
      </defs>
      <g>
       <use xlink:href="#ma18a1ad0e1" x="45.478125" y="239.022409" style="stroke: #000000; stroke-width: 0.6"/>
      </g>
     </g>
    </g>
    <g id="ytick_5">
     <g id="line2d_11">
      <g>
       <use xlink:href="#ma18a1ad0e1" x="45.478125" y="233.74788" style="stroke: #000000; stroke-width: 0.6"/>
      </g>
     </g>
    </g>
    <g id="ytick_6">
     <g id="line2d_12">
      <g>
       <use xlink:href="#ma18a1ad0e1" x="45.478125" y="229.178876" style="stroke: #000000; stroke-width: 0.6"/>
      </g>
     </g>
    </g>
    <g id="ytick_7">
     <g id="line2d_13">
      <g>
       <use xlink:href="#ma18a1ad0e1" x="45.478125" y="225.148729" style="stroke: #000000; stroke-width: 0.6"/>
      </g>
     </g>
    </g>
    <g id="ytick_8">
     <g id="line2d_14">
      <g>
       <use xlink:href="#ma18a1ad0e1" x="45.478125" y="197.826427" style="stroke: #000000; stroke-width: 0.6"/>
      </g>
     </g>
    </g>
    <g id="ytick_9">
     <g id="line2d_15">
      <g>
       <use xlink:href="#ma18a1ad0e1" x="45.478125" y="183.952747" style="stroke: #000000; stroke-width: 0.6"/>
      </g>
     </g>
    </g>
    <g id="ytick_10">
     <g id="line2d_16">
      <g>
       <use xlink:href="#ma18a1ad0e1" x="45.478125" y="174.109214" style="stroke: #000000; stroke-width: 0.6"/>
      </g>
     </g>
    </g>
    <g id="ytick_11">
     <g id="line2d_17">
      <g>
       <use xlink:href="#ma18a1ad0e1" x="45.478125" y="166.473977" style="stroke: #000000; stroke-width: 0.6"/>
      </g>
     </g>
    </g>
    <g id="ytick_12">
     <g id="line2d_18">
      <g>
       <use xlink:href="#ma18a1ad0e1" x="45.478125" y="160.235534" style="stroke: #000000; stroke-width: 0.6"/>
      </g>
     </g>
    </g>
    <g id="ytick_13">
     <g id="line2d_19">
      <g>
       <use xlink:href="#ma18a1ad0e1" x="45.478125" y="154.961006" style="stroke: #000000; stroke-width: 0.6"/>
      </g>
     </g>
    </g>
    <g id="ytick_14">
     <g id="line2d_20">
      <g>
       <use xlink:href="#ma18a1ad0e1" x="45.478125" y="150.392002" style="stroke: #000000; stroke-width: 0.6"/>
      </g>
     </g>
    </g>
    <g id="ytick_15">
     <g id="line2d_21">
      <g>
       <use xlink:href="#ma18a1ad0e1" x="45.478125" y="146.361855" style="stroke: #000000; stroke-width: 0.6"/>
      </g>
     </g>
    </g>
    <g id="ytick_16">
     <g id="line2d_22">
      <g>
       <use xlink:href="#ma18a1ad0e1" x="45.478125" y="119.039553" style="stroke: #000000; stroke-width: 0.6"/>
      </g>
     </g>
    </g>
    <g id="ytick_17">
     <g id="line2d_23">
      <g>
       <use xlink:href="#ma18a1ad0e1" x="45.478125" y="105.165873" style="stroke: #000000; stroke-width: 0.6"/>
      </g>
     </g>
    </g>
    <g id="ytick_18">
     <g id="line2d_24">
      <g>
       <use xlink:href="#ma18a1ad0e1" x="45.478125" y="95.32234" style="stroke: #000000; stroke-width: 0.6"/>
      </g>
     </g>
    </g>
    <g id="ytick_19">
     <g id="line2d_25">
      <g>
       <use xlink:href="#ma18a1ad0e1" x="45.478125" y="87.687103" style="stroke: #000000; stroke-width: 0.6"/>
      </g>
     </g>
    </g>
    <g id="ytick_20">
     <g id="line2d_26">
      <g>
       <use xlink:href="#ma18a1ad0e1" x="45.478125" y="81.44866" style="stroke: #000000; stroke-width: 0.6"/>
      </g>
     </g>
    </g>
    <g id="ytick_21">
     <g id="line2d_27">
      <g>
       <use xlink:href="#ma18a1ad0e1" x="45.478125" y="76.174132" style="stroke: #000000; stroke-width: 0.6"/>
      </g>
     </g>
    </g>
    <g id="ytick_22">
     <g id="line2d_28">
      <g>
       <use xlink:href="#ma18a1ad0e1" x="45.478125" y="71.605128" style="stroke: #000000; stroke-width: 0.6"/>
      </g>
     </g>
    </g>
    <g id="ytick_23">
     <g id="line2d_29">
      <g>
       <use xlink:href="#ma18a1ad0e1" x="45.478125" y="67.57498" style="stroke: #000000; stroke-width: 0.6"/>
      </g>
     </g>
    </g>
    <g id="ytick_24">
     <g id="line2d_30">
      <g>
       <use xlink:href="#ma18a1ad0e1" x="45.478125" y="40.252678" style="stroke: #000000; stroke-width: 0.6"/>
      </g>
     </g>
    </g>
    <g id="ytick_25">
     <g id="line2d_31">
      <g>
       <use xlink:href="#ma18a1ad0e1" x="45.478125" y="26.378998" style="stroke: #000000; stroke-width: 0.6"/>
      </g>
     </g>
    </g>
    <g id="ytick_26">
     <g id="line2d_32">
      <g>
       <use xlink:href="#ma18a1ad0e1" x="45.478125" y="16.535466" style="stroke: #000000; stroke-width: 0.6"/>
      </g>
     </g>
    </g>
    <g id="ytick_27">
     <g id="line2d_33">
      <g>
       <use xlink:href="#ma18a1ad0e1" x="45.478125" y="8.900229" style="stroke: #000000; stroke-width: 0.6"/>
      </g>
     </g>
    </g>
    <g id="text_11">
     <!-- [counts] -->
     <g transform="translate(14.798438 145.4325) rotate(-90) scale(0.1 -0.1)">
      <defs>
       <path id="DejaVuSans-63" d="M 3122 3366 
L 3122 2828 
Q 2878 2963 2633 3030 
Q 2388 3097 2138 3097 
Q 1578 3097 1268 2742 
Q 959 2388 959 1747 
Q 959 1106 1268 751 
Q 1578 397 2138 397 
Q 2388 397 2633 464 
Q 2878 531 3122 666 
L 3122 134 
Q 2881 22 2623 -34 
Q 2366 -91 2075 -91 
Q 1284 -91 818 406 
Q 353 903 353 1747 
Q 353 2603 823 3093 
Q 1294 3584 2113 3584 
Q 2378 3584 2631 3529 
Q 2884 3475 3122 3366 
z
" transform="scale(0.015625)"/>
       <path id="DejaVuSans-6f" d="M 1959 3097 
Q 1497 3097 1228 2736 
Q 959 2375 959 1747 
Q 959 1119 1226 758 
Q 1494 397 1959 397 
Q 2419 397 2687 759 
Q 2956 1122 2956 1747 
Q 2956 2369 2687 2733 
Q 2419 3097 1959 3097 
z
M 1959 3584 
Q 2709 3584 3137 3096 
Q 3566 2609 3566 1747 
Q 3566 888 3137 398 
Q 2709 -91 1959 -91 
Q 1206 -91 779 398 
Q 353 888 353 1747 
Q 353 2609 779 3096 
Q 1206 3584 1959 3584 
z
" transform="scale(0.015625)"/>
       <path id="DejaVuSans-75" d="M 544 1381 
L 544 3500 
L 1119 3500 
L 1119 1403 
Q 1119 906 1312 657 
Q 1506 409 1894 409 
Q 2359 409 2629 706 
Q 2900 1003 2900 1516 
L 2900 3500 
L 3475 3500 
L 3475 0 
L 2900 0 
L 2900 538 
Q 2691 219 2414 64 
Q 2138 -91 1772 -91 
Q 1169 -91 856 284 
Q 544 659 544 1381 
z
M 1991 3584 
L 1991 3584 
z
" transform="scale(0.015625)"/>
       <path id="DejaVuSans-6e" d="M 3513 2113 
L 3513 0 
L 2938 0 
L 2938 2094 
Q 2938 2591 2744 2837 
Q 2550 3084 2163 3084 
Q 1697 3084 1428 2787 
Q 1159 2491 1159 1978 
L 1159 0 
L 581 0 
L 581 3500 
L 1159 3500 
L 1159 2956 
Q 1366 3272 1645 3428 
Q 1925 3584 2291 3584 
Q 2894 3584 3203 3211 
Q 3513 2838 3513 2113 
z
" transform="scale(0.015625)"/>
       <path id="DejaVuSans-74" d="M 1172 4494 
L 1172 3500 
L 2356 3500 
L 2356 3053 
L 1172 3053 
L 1172 1153 
Q 1172 725 1289 603 
Q 1406 481 1766 481 
L 2356 481 
L 2356 0 
L 1766 0 
Q 1100 0 847 248 
Q 594 497 594 1153 
L 594 3053 
L 172 3053 
L 172 3500 
L 594 3500 
L 594 4494 
L 1172 4494 
z
" transform="scale(0.015625)"/>
       <path id="DejaVuSans-73" d="M 2834 3397 
L 2834 2853 
Q 2591 2978 2328 3040 
Q 2066 3103 1784 3103 
Q 1356 3103 1142 2972 
Q 928 2841 928 2578 
Q 928 2378 1081 2264 
Q 1234 2150 1697 2047 
L 1894 2003 
Q 2506 1872 2764 1633 
Q 3022 1394 3022 966 
Q 3022 478 2636 193 
Q 2250 -91 1575 -91 
Q 1294 -91 989 -36 
Q 684 19 347 128 
L 347 722 
Q 666 556 975 473 
Q 1284 391 1588 391 
Q 1994 391 2212 530 
Q 2431 669 2431 922 
Q 2431 1156 2273 1281 
Q 2116 1406 1581 1522 
L 1381 1569 
Q 847 1681 609 1914 
Q 372 2147 372 2553 
Q 372 3047 722 3315 
Q 1072 3584 1716 3584 
Q 2034 3584 2315 3537 
Q 2597 3491 2834 3397 
z
" transform="scale(0.015625)"/>
      </defs>
      <use xlink:href="#DejaVuSans-5b"/>
      <use xlink:href="#DejaVuSans-63" x="39.013672"/>
      <use xlink:href="#DejaVuSans-6f" x="93.994141"/>
      <use xlink:href="#DejaVuSans-75" x="155.175781"/>
      <use xlink:href="#DejaVuSans-6e" x="218.554688"/>
      <use xlink:href="#DejaVuSans-74" x="281.933594"/>
      <use xlink:href="#DejaVuSans-73" x="321.142578"/>
      <use xlink:href="#DejaVuSans-5d" x="373.242188"/>
     </g>
    </g>
   </g>
   <g id="patch_3">
    <path d="M 45.478125 242.44 
L 45.478125 7.2 
" style="fill: none; stroke: #000000; stroke-width: 0.8; stroke-linejoin: miter; stroke-linecap: square"/>
   </g>
   <g id="patch_4">
    <path d="M 414.304889 242.44 
L 414.304889 7.2 
" style="fill: none; stroke: #000000; stroke-width: 0.8; stroke-linejoin: miter; stroke-linecap: square"/>
   </g>
   <g id="patch_5">
    <path d="M 45.478125 242.44 
L 414.304889 242.44 
" style="fill: none; stroke: #000000; stroke-width: 0.8; stroke-linejoin: miter; stroke-linecap: square"/>
   </g>
   <g id="patch_6">
    <path d="M 45.478125 7.2 
L 414.304889 7.2 
" style="fill: none; stroke: #000000; stroke-width: 0.8; stroke-linejoin: miter; stroke-linecap: square"/>
   </g>
   <g id="line2d_34">
    <path d="M 62.242978 17.892727 
L 63.919463 17.892727 
L 63.919463 21.417938 
L 65.595948 21.417938 
L 65.595948 19.918918 
L 67.272434 19.918918 
L 67.272434 22.430969 
L 68.948919 22.430969 
L 68.948919 20.599716 
L 70.625404 20.599716 
L 70.625404 24.004345 
L 72.30189 24.004345 
L 72.30189 24.748129 
L 73.978375 24.748129 
L 73.978375 25.280748 
L 75.65486 25.280748 
L 75.65486 25.746294 
L 77.331346 25.746294 
L 77.331346 26.839246 
L 79.007831 26.839246 
L 79.007831 29.510676 
L 80.684316 29.510676 
L 80.684316 33.114345 
L 82.360801 33.114345 
L 82.360801 31.121631 
L 84.037287 31.121631 
L 84.037287 33.575067 
L 85.713772 33.575067 
L 85.713772 34.733015 
L 87.390257 34.733015 
L 87.390257 38.932849 
L 89.066743 38.932849 
L 89.066743 39.536528 
L 90.743228 39.536528 
L 90.743228 41.236313 
L 92.419713 41.236313 
L 92.419713 39.18652 
L 94.096198 39.18652 
L 94.096198 46.51713 
L 95.772684 46.51713 
L 95.772684 48.952572 
L 97.449169 48.952572 
L 97.449169 52.804307 
L 99.125654 52.804307 
L 99.125654 53.107936 
L 100.80214 53.107936 
L 100.80214 58.415906 
L 102.478625 58.415906 
L 102.478625 65.597341 
L 104.15511 65.597341 
L 104.15511 77.999555 
L 105.831595 77.999555 
L 105.831595 90.266796 
L 107.508081 90.266796 
L 107.508081 103.977857 
L 109.184566 103.977857 
L 109.184566 112.542015 
L 110.861051 112.542015 
L 110.861051 143.465927 
L 112.537537 143.465927 
L 112.537537 145.281841 
L 114.214022 145.281841 
L 114.214022 135.845958 
L 115.890507 135.845958 
L 115.890507 132.856316 
L 117.566992 132.856316 
L 117.566992 123.811968 
L 119.243478 123.811968 
L 119.243478 120.833313 
L 120.919963 120.833313 
L 120.919963 110.911441 
L 122.596448 110.911441 
L 122.596448 108.203308 
L 124.272934 108.203308 
L 124.272934 111.549945 
L 125.949419 111.549945 
L 125.949419 111.422088 
L 127.625904 111.422088 
L 127.625904 116.557454 
L 129.30239 116.557454 
L 129.30239 119.608014 
L 130.978875 119.608014 
L 130.978875 125.526698 
L 132.65536 125.526698 
L 132.65536 136.338721 
L 134.331845 136.338721 
L 134.331845 141.203681 
L 136.008331 141.203681 
L 136.008331 152.530095 
L 137.684816 152.530095 
L 137.684816 162.442858 
L 139.361301 162.442858 
L 139.361301 167.443656 
L 141.037787 167.443656 
L 141.037787 164.095744 
L 142.714272 164.095744 
L 142.714272 167.462443 
L 144.390757 167.462443 
L 144.390757 171.677564 
L 146.067242 171.677564 
L 146.067242 184.252238 
L 147.743728 184.252238 
L 147.743728 192.12409 
L 149.420213 192.12409 
L 149.420213 191.271902 
L 151.096698 191.271902 
L 151.096698 192.221899 
L 152.773184 192.221899 
L 152.773184 188.144764 
L 154.449669 188.144764 
L 154.449669 186.896916 
L 156.126154 186.896916 
L 156.126154 193.589839 
L 157.802639 193.589839 
L 157.802639 194.454987 
L 159.479125 194.454987 
L 159.479125 182.852312 
L 161.15561 182.852312 
L 161.15561 190.803196 
L 162.832095 190.803196 
L 162.832095 177.286446 
L 164.508581 177.286446 
L 164.508581 184.116797 
L 166.185066 184.116797 
L 166.185066 180.994768 
L 167.861551 180.994768 
L 167.861551 182.656333 
L 169.538036 182.656333 
L 169.538036 177.13686 
L 171.214522 177.13686 
L 171.214522 171.276268 
L 172.891007 171.276268 
L 172.891007 186.0438 
L 174.567492 186.0438 
L 174.567492 174.724718 
L 176.243978 174.724718 
L 176.243978 172.140077 
L 177.920463 172.140077 
L 177.920463 182.563561 
L 179.596948 182.563561 
L 179.596948 178.216276 
L 181.273434 178.216276 
L 181.273434 170.435984 
L 182.949919 170.435984 
L 182.949919 172.60024 
L 184.626404 172.60024 
L 184.626404 169.328258 
L 186.302889 169.328258 
L 186.302889 174.798754 
L 187.979375 174.798754 
L 187.979375 177.449678 
L 189.65586 177.449678 
L 189.65586 187.79644 
L 191.332345 187.79644 
L 191.332345 180.081469 
L 193.008831 180.081469 
L 193.008831 172.931253 
L 194.685316 172.931253 
L 194.685316 182.072835 
L 196.361801 182.072835 
L 196.361801 180.618391 
L 198.038286 180.618391 
L 198.038286 184.147059 
L 199.714772 184.147059 
L 199.714772 195.27869 
L 201.391257 195.27869 
L 201.391257 190.644813 
L 203.067742 190.644813 
L 203.067742 195.266304 
L 204.744228 195.266304 
L 204.744228 192.685864 
L 206.420713 192.685864 
L 206.420713 197.587798 
L 208.097198 197.587798 
L 208.097198 203.944895 
L 209.773683 203.944895 
L 209.773683 191.67099 
L 211.450169 191.67099 
L 211.450169 189.955328 
L 213.126654 189.955328 
L 213.126654 194.758892 
L 214.803139 194.758892 
L 214.803139 202.369084 
L 216.479625 202.369084 
L 216.479625 200.770599 
L 218.15611 200.770599 
L 218.15611 200.050091 
L 219.832595 200.050091 
L 219.832595 197.320971 
L 221.50908 197.320971 
L 221.50908 203.446556 
L 223.185566 203.446556 
L 223.185566 201.116005 
L 224.862051 201.116005 
L 224.862051 202.731869 
L 226.538536 202.731869 
L 226.538536 211.55104 
L 228.215022 211.55104 
L 228.215022 199.341062 
L 229.891507 199.341062 
L 229.891507 205.749449 
L 231.567992 205.749449 
L 231.567992 206.132455 
L 233.244478 206.132455 
L 233.244478 202.511015 
L 234.920963 202.511015 
L 234.920963 206.583049 
L 238.273933 206.611477 
L 238.273933 199.97754 
L 239.950419 199.97754 
L 239.950419 203.031154 
L 241.626904 203.031154 
L 241.626904 203.546131 
L 243.303389 203.546131 
L 243.303389 217.99311 
L 244.979875 217.99311 
L 244.979875 201.045728 
L 246.65636 201.045728 
L 246.65636 211.93945 
L 248.332845 211.93945 
L 248.332845 189.266213 
L 250.00933 189.266213 
L 250.00933 192.037108 
L 251.685816 192.037108 
L 251.685816 204.537246 
L 253.362301 204.537246 
L 253.362301 208.996602 
L 255.038786 208.996602 
L 255.038786 200.041575 
L 256.715272 200.041575 
L 256.715272 204.450442 
L 258.391757 204.450442 
L 258.391757 211.934909 
L 260.068242 211.934909 
L 260.068242 198.692985 
L 261.744727 198.692985 
L 261.744727 199.504213 
L 263.421213 199.504213 
L 263.421213 197.885252 
L 265.097698 197.885252 
L 265.097698 203.28038 
L 266.774183 203.28038 
L 266.774183 194.147647 
L 268.450669 194.147647 
L 268.450669 203.401108 
L 270.127154 203.401108 
L 270.127154 204.686251 
L 271.803639 204.686251 
L 271.803639 194.730422 
L 275.15661 194.819909 
L 275.15661 214.392466 
L 276.833095 214.392466 
L 276.833095 205.434956 
L 280.186066 205.511477 
L 280.186066 216.696544 
L 281.862551 216.696544 
L 281.862551 199.766124 
L 283.539036 199.766124 
L 283.539036 202.473678 
L 285.215522 202.473678 
L 285.215522 206.921015 
L 288.568492 206.890249 
L 288.568492 214.010762 
L 290.244977 214.010762 
L 290.244977 205.581123 
L 291.921463 205.581123 
L 291.921463 204.66309 
L 293.597948 204.66309 
L 293.597948 194.175791 
L 295.274433 194.175791 
L 295.274433 204.192197 
L 296.950919 204.192197 
L 296.950919 205.3057 
L 298.627404 205.3057 
L 298.627404 202.765478 
L 300.303889 202.765478 
L 300.303889 201.553635 
L 301.980374 201.553635 
L 301.980374 212.022399 
L 303.65686 212.022399 
L 303.65686 216.305326 
L 305.333345 216.305326 
L 305.333345 207.911758 
L 307.00983 207.911758 
L 307.00983 214.539971 
L 308.686316 214.539971 
L 308.686316 203.62109 
L 310.362801 203.62109 
L 310.362801 204.860054 
L 312.039286 204.860054 
L 312.039286 212.538747 
L 313.715771 212.538747 
L 313.715771 200.826517 
L 315.392257 200.826517 
L 315.392257 192.95995 
L 317.068742 192.95995 
L 317.068742 204.971531 
L 318.745227 204.971531 
L 318.745227 202.745407 
L 320.421713 202.745407 
L 320.421713 219.621821 
L 322.098198 219.621821 
L 322.098198 226.312184 
L 323.774683 226.312184 
L 323.774683 217.255676 
L 325.451169 217.255676 
L 325.451169 210.124688 
L 327.127654 210.124688 
L 327.127654 215.275926 
L 328.804139 215.275926 
L 328.804139 216.249249 
L 330.480624 216.249249 
L 330.480624 209.999606 
L 332.15711 209.999606 
L 332.15711 212.923226 
L 333.833595 212.923226 
L 333.833595 200.794686 
L 335.51008 200.794686 
L 335.51008 223.132545 
L 337.186566 223.132545 
L 337.186566 217.191866 
L 338.863051 217.191866 
L 338.863051 206.33649 
L 340.539536 206.33649 
L 340.539536 220.314979 
L 342.216021 220.314979 
L 342.216021 213.701311 
L 343.892507 213.701311 
L 343.892507 204.490975 
L 345.568992 204.490975 
L 345.568992 210.65541 
L 347.245477 210.65541 
L 347.245477 200.642498 
L 348.921963 200.642498 
L 348.921963 223.570227 
L 350.598448 223.570227 
L 350.598448 213.138668 
L 352.274933 213.138668 
L 352.274933 225.618265 
L 353.951418 225.618265 
L 353.951418 209.736737 
L 355.627904 209.736737 
L 355.627904 216.263154 
L 357.304389 216.263154 
L 357.304389 219.616307 
L 358.980874 219.616307 
L 358.980874 205.432049 
L 360.65736 205.432049 
L 360.65736 220.481366 
L 362.333845 220.481366 
L 362.333845 225.490323 
L 364.01033 225.490323 
L 364.01033 205.012458 
L 365.686815 205.012458 
L 365.686815 209.363553 
L 367.363301 209.363553 
L 367.363301 210.123246 
L 369.039786 210.123246 
L 369.039786 194.514842 
L 370.716271 194.514842 
L 370.716271 231.747273 
L 372.392757 231.747273 
L 372.392757 200.476296 
L 374.069242 200.476296 
L 374.069242 214.975219 
L 375.745727 214.975219 
L 375.745727 200.949333 
L 377.422213 200.949333 
L 377.422213 210.215467 
L 379.098698 210.215467 
L 379.098698 214.886682 
L 380.775183 214.886682 
L 380.775183 210.740167 
L 382.451668 210.740167 
L 382.451668 211.230237 
L 384.128154 211.230237 
L 384.128154 214.497783 
L 385.804639 214.497783 
L 385.804639 209.021011 
L 387.481124 209.021011 
L 387.481124 214.156519 
L 389.15761 214.156519 
L 389.15761 199.510952 
L 390.834095 199.510952 
L 390.834095 210.342199 
L 392.51058 210.342199 
L 392.51058 216.443043 
L 394.187065 216.443043 
L 394.187065 223.729829 
L 395.863551 223.729829 
L 395.863551 206.676461 
L 397.540036 206.676461 
L 397.540036 206.676461 
" clip-path="url(#pe84a76c289)" style="fill: none; stroke: #1f77b4; stroke-width: 1.5; stroke-linecap: square"/>
   </g>
  </g>
 </g>
 <defs>
  <clipPath id="pe84a76c289">
   <rect x="45.478125" y="7.2" width="368.826764" height="235.24"/>
  </clipPath>
 </defs>
</svg>