<?xml version="1.0" encoding="utf-8" standalone="no"?>
<!DOCTYPE svg PUBLIC "-//W3C//DTD SVG 1.1//EN"
  "http://www.w3.org/Graphics/SVG/1.1/DTD/svg11.dtd">
<svg xmlns:xlink="http://www.w3.org/1999/xlink" width="388.965625pt" height="266.794375pt" viewBox="0 0 388.965625 266.794375" xmlns="http://www.w3.org/2000/svg" version="1.1">
 <metadata>
  <rdf:RDF xmlns:dc="http://purl.org/dc/elements/1.1/" xmlns:cc="http://creativecommons.org/ns#" xmlns:rdf="http://www.w3.org/1999/02/22-rdf-syntax-ns#">
   <cc:Work>
    <dc:type rdf:resource="http://purl.org/dc/dcmitype/StillImage"/>
    <dc:date>2025-07-11T14:02:58.811479</dc:date>
    <dc:format>image/svg+xml</dc:format>
    <dc:creator>
     <cc:Agent>
      <dc:title>Matplotlib v3.10.1, https://matplotlib.org/</dc:title>
     </cc:Agent>
    </dc:creator>
   </cc:Work>
  </rdf:RDF>
 </metadata>
 <defs>
  <style type="text/css">*{stroke-linejoin: round; stroke-linecap: butt}</style>
 </defs>
 <g id="figure_1">
  <g id="patch_1">
   <path d="M 0 266.794375 
L 388.965625 266.794375 
L 388.965625 0 
L 0 0 
z
" style="fill: #ffffff"/>
  </g>
  <g id="axes_1">
   <g id="patch_2">
    <path d="M 46.965625 228.96 
L 381.765625 228.96 
L 381.765625 7.2 
L 46.965625 7.2 
z
" style="fill: #ffffff"/>
   </g>
   <g id="matplotlib.axis_1">
    <g id="xtick_1">
     <g id="line2d_1">
      <defs>
       <path id="md037808ea2" d="M 0 0 
L 0 3.5 
" style="stroke: #000000; stroke-width: 0.8"/>
      </defs>
      <g>
       <use xlink:href="#md037808ea2" x="49.490944" y="228.96" style="stroke: #000000; stroke-width: 0.8"/>
      </g>
     </g>
     <g id="text_1">
      <!-- −0.0125 -->
      <g transform="translate(27.805788 243.558437) scale(0.1 -0.1)">
       <defs>
        <path id="DejaVuSans-2212" d="M 678 2272 
L 4684 2272 
L 4684 1741 
L 678 1741 
L 678 2272 
z
" transform="scale(0.015625)"/>
        <path id="DejaVuSans-30" d="M 2034 4250 
Q 1547 4250 1301 3770 
Q 1056 3291 1056 2328 
Q 1056 1369 1301 889 
Q 1547 409 2034 409 
Q 2525 409 2770 889 
Q 3016 1369 3016 2328 
Q 3016 3291 2770 3770 
Q 2525 4250 2034 4250 
z
M 2034 4750 
Q 2819 4750 3233 4129 
Q 3647 3509 3647 2328 
Q 3647 1150 3233 529 
Q 2819 -91 2034 -91 
Q 1250 -91 836 529 
Q 422 1150 422 2328 
Q 422 3509 836 4129 
Q 1250 4750 2034 4750 
z
" transform="scale(0.015625)"/>
        <path id="DejaVuSans-2e" d="M 684 794 
L 1344 794 
L 1344 0 
L 684 0 
L 684 794 
z
" transform="scale(0.015625)"/>
        <path id="DejaVuSans-31" d="M 794 531 
L 1825 531 
L 1825 4091 
L 703 3866 
L 703 4441 
L 1819 4666 
L 2450 4666 
L 2450 531 
L 3481 531 
L 3481 0 
L 794 0 
L 794 531 
z
" transform="scale(0.015625)"/>
        <path id="DejaVuSans-32" d="M 1228 531 
L 3431 531 
L 3431 0 
L 469 0 
L 469 531 
Q 828 903 1448 1529 
Q 2069 2156 2228 2338 
Q 2531 2678 2651 2914 
Q 2772 3150 2772 3378 
Q 2772 3750 2511 3984 
Q 2250 4219 1831 4219 
Q 1534 4219 1204 4116 
Q 875 4013 500 3803 
L 500 4441 
Q 881 4594 1212 4672 
Q 1544 4750 1819 4750 
Q 2544 4750 2975 4387 
Q 3406 4025 3406 3419 
Q 3406 3131 3298 2873 
Q 3191 2616 2906 2266 
Q 2828 2175 2409 1742 
Q 1991 1309 1228 531 
z
" transform="scale(0.015625)"/>
        <path id="DejaVuSans-35" d="M 691 4666 
L 3169 4666 
L 3169 4134 
L 1269 4134 
L 1269 2991 
Q 1406 3038 1543 3061 
Q 1681 3084 1819 3084 
Q 2600 3084 3056 2656 
Q 3513 2228 3513 1497 
Q 3513 744 3044 326 
Q 2575 -91 1722 -91 
Q 1428 -91 1123 -41 
Q 819 9 494 109 
L 494 744 
Q 775 591 1075 516 
Q 1375 441 1709 441 
Q 2250 441 2565 725 
Q 2881 1009 2881 1497 
Q 2881 1984 2565 2268 
Q 2250 2553 1709 2553 
Q 1456 2553 1204 2497 
Q 953 2441 691 2322 
L 691 4666 
z
" transform="scale(0.015625)"/>
       </defs>
       <use xlink:href="#DejaVuSans-2212"/>
       <use xlink:href="#DejaVuSans-30" transform="translate(83.789062 0)"/>
       <use xlink:href="#DejaVuSans-2e" transform="translate(147.412109 0)"/>
       <use xlink:href="#DejaVuSans-30" transform="translate(179.199219 0)"/>
       <use xlink:href="#DejaVuSans-31" transform="translate(242.822266 0)"/>
       <use xlink:href="#DejaVuSans-32" transform="translate(306.445312 0)"/>
       <use xlink:href="#DejaVuSans-35" transform="translate(370.068359 0)"/>
      </g>
     </g>
    </g>
    <g id="xtick_2">
     <g id="line2d_2">
      <g>
       <use xlink:href="#md037808ea2" x="91.157827" y="228.96" style="stroke: #000000; stroke-width: 0.8"/>
      </g>
     </g>
     <g id="text_2">
      <!-- −0.0100 -->
      <g transform="translate(69.472671 243.558437) scale(0.1 -0.1)">
       <use xlink:href="#DejaVuSans-2212"/>
       <use xlink:href="#DejaVuSans-30" transform="translate(83.789062 0)"/>
       <use xlink:href="#DejaVuSans-2e" transform="translate(147.412109 0)"/>
       <use xlink:href="#DejaVuSans-30" transform="translate(179.199219 0)"/>
       <use xlink:href="#DejaVuSans-31" transform="translate(242.822266 0)"/>
       <use xlink:href="#DejaVuSans-30" transform="translate(306.445312 0)"/>
       <use xlink:href="#DejaVuSans-30" transform="translate(370.068359 0)"/>
      </g>
     </g>
    </g>
    <g id="xtick_3">
     <g id="line2d_3">
      <g>
       <use xlink:href="#md037808ea2" x="132.824711" y="228.96" style="stroke: #000000; stroke-width: 0.8"/>
      </g>
     </g>
     <g id="text_3">
      <!-- −0.0075 -->
      <g transform="translate(111.139554 243.558437) scale(0.1 -0.1)">
       <defs>
        <path id="DejaVuSans-37" d="M 525 4666 
L 3525 4666 
L 3525 4397 
L 1831 0 
L 1172 0 
L 2766 4134 
L 525 4134 
L 525 4666 
z
" transform="scale(0.015625)"/>
       </defs>
       <use xlink:href="#DejaVuSans-2212"/>
       <use xlink:href="#DejaVuSans-30" transform="translate(83.789062 0)"/>
       <use xlink:href="#DejaVuSans-2e" transform="translate(147.412109 0)"/>
       <use xlink:href="#DejaVuSans-30" transform="translate(179.199219 0)"/>
       <use xlink:href="#DejaVuSans-30" transform="translate(242.822266 0)"/>
       <use xlink:href="#DejaVuSans-37" transform="translate(306.445312 0)"/>
       <use xlink:href="#DejaVuSans-35" transform="translate(370.068359 0)"/>
      </g>
     </g>
    </g>
    <g id="xtick_4">
     <g id="line2d_4">
      <g>
       <use xlink:href="#md037808ea2" x="174.491594" y="228.96" style="stroke: #000000; stroke-width: 0.8"/>
      </g>
     </g>
     <g id="text_4">
      <!-- −0.0050 -->
      <g transform="translate(152.806438 243.558437) scale(0.1 -0.1)">
       <use xlink:href="#DejaVuSans-2212"/>
       <use xlink:href="#DejaVuSans-30" transform="translate(83.789062 0)"/>
       <use xlink:href="#DejaVuSans-2e" transform="translate(147.412109 0)"/>
       <use xlink:href="#DejaVuSans-30" transform="translate(179.199219 0)"/>
       <use xlink:href="#DejaVuSans-30" transform="translate(242.822266 0)"/>
       <use xlink:href="#DejaVuSans-35" transform="translate(306.445312 0)"/>
       <use xlink:href="#DejaVuSans-30" transform="translate(370.068359 0)"/>
      </g>
     </g>
    </g>
    <g id="xtick_5">
     <g id="line2d_5">
      <g>
       <use xlink:href="#md037808ea2" x="216.158478" y="228.96" style="stroke: #000000; stroke-width: 0.8"/>
      </g>
     </g>
     <g id="text_5">
      <!-- −0.0025 -->
      <g transform="translate(194.473321 243.558437) scale(0.1 -0.1)">
       <use xlink:href="#DejaVuSans-2212"/>
       <use xlink:href="#DejaVuSans-30" transform="translate(83.789062 0)"/>
       <use xlink:href="#DejaVuSans-2e" transform="translate(147.412109 0)"/>
       <use xlink:href="#DejaVuSans-30" transform="translate(179.199219 0)"/>
       <use xlink:href="#DejaVuSans-30" transform="translate(242.822266 0)"/>
       <use xlink:href="#DejaVuSans-32" transform="translate(306.445312 0)"/>
       <use xlink:href="#DejaVuSans-35" transform="translate(370.068359 0)"/>
      </g>
     </g>
    </g>
    <g id="xtick_6">
     <g id="line2d_6">
      <g>
       <use xlink:href="#md037808ea2" x="257.825361" y="228.96" style="stroke: #000000; stroke-width: 0.8"/>
      </g>
     </g>
     <g id="text_6">
      <!-- 0.0000 -->
      <g transform="translate(240.330048 243.558437) scale(0.1 -0.1)">
       <use xlink:href="#DejaVuSans-30"/>
       <use xlink:href="#DejaVuSans-2e" transform="translate(63.623047 0)"/>
       <use xlink:href="#DejaVuSans-30" transform="translate(95.410156 0)"/>
       <use xlink:href="#DejaVuSans-30" transform="translate(159.033203 0)"/>
       <use xlink:href="#DejaVuSans-30" transform="translate(222.65625 0)"/>
       <use xlink:href="#DejaVuSans-30" transform="translate(286.279297 0)"/>
      </g>
     </g>
    </g>
    <g id="xtick_7">
     <g id="line2d_7">
      <g>
       <use xlink:href="#md037808ea2" x="299.492244" y="228.96" style="stroke: #000000; stroke-width: 0.8"/>
      </g>
     </g>
     <g id="text_7">
      <!-- 0.0025 -->
      <g transform="translate(281.996932 243.558437) scale(0.1 -0.1)">
       <use xlink:href="#DejaVuSans-30"/>
       <use xlink:href="#DejaVuSans-2e" transform="translate(63.623047 0)"/>
       <use xlink:href="#DejaVuSans-30" transform="translate(95.410156 0)"/>
       <use xlink:href="#DejaVuSans-30" transform="translate(159.033203 0)"/>
       <use xlink:href="#DejaVuSans-32" transform="translate(222.65625 0)"/>
       <use xlink:href="#DejaVuSans-35" transform="translate(286.279297 0)"/>
      </g>
     </g>
    </g>
    <g id="xtick_8">
     <g id="line2d_8">
      <g>
       <use xlink:href="#md037808ea2" x="341.159128" y="228.96" style="stroke: #000000; stroke-width: 0.8"/>
      </g>
     </g>
     <g id="text_8">
      <!-- 0.0050 -->
      <g transform="translate(323.663815 243.558437) scale(0.1 -0.1)">
       <use xlink:href="#DejaVuSans-30"/>
       <use xlink:href="#DejaVuSans-2e" transform="translate(63.623047 0)"/>
       <use xlink:href="#DejaVuSans-30" transform="translate(95.410156 0)"/>
       <use xlink:href="#DejaVuSans-30" transform="translate(159.033203 0)"/>
       <use xlink:href="#DejaVuSans-35" transform="translate(222.65625 0)"/>
       <use xlink:href="#DejaVuSans-30" transform="translate(286.279297 0)"/>
      </g>
     </g>
    </g>
    <g id="text_9">
     <!-- energy_transfer [meV] -->
     <g transform="translate(157.839063 257.236562) scale(0.1 -0.1)">
      <defs>
       <path id="DejaVuSans-65" d="M 3597 1894 
L 3597 1613 
L 953 1613 
Q 991 1019 1311 708 
Q 1631 397 2203 397 
Q 2534 397 2845 478 
Q 3156 559 3463 722 
L 3463 178 
Q 3153 47 2828 -22 
Q 2503 -91 2169 -91 
Q 1331 -91 842 396 
Q 353 884 353 1716 
Q 353 2575 817 3079 
Q 1281 3584 2069 3584 
Q 2775 3584 3186 3129 
Q 3597 2675 3597 1894 
z
M 3022 2063 
Q 3016 2534 2758 2815 
Q 2500 3097 2075 3097 
Q 1594 3097 1305 2825 
Q 1016 2553 972 2059 
L 3022 2063 
z
" transform="scale(0.015625)"/>
       <path id="DejaVuSans-6e" d="M 3513 2113 
L 3513 0 
L 2938 0 
L 2938 2094 
Q 2938 2591 2744 2837 
Q 2550 3084 2163 3084 
Q 1697 3084 1428 2787 
Q 1159 2491 1159 1978 
L 1159 0 
L 581 0 
L 581 3500 
L 1159 3500 
L 1159 2956 
Q 1366 3272 1645 3428 
Q 1925 3584 2291 3584 
Q 2894 3584 3203 3211 
Q 3513 2838 3513 2113 
z
" transform="scale(0.015625)"/>
       <path id="DejaVuSans-72" d="M 2631 2963 
Q 2534 3019 2420 3045 
Q 2306 3072 2169 3072 
Q 1681 3072 1420 2755 
Q 1159 2438 1159 1844 
L 1159 0 
L 581 0 
L 581 3500 
L 1159 3500 
L 1159 2956 
Q 1341 3275 1631 3429 
Q 1922 3584 2338 3584 
Q 2397 3584 2469 3576 
Q 2541 3569 2628 3553 
L 2631 2963 
z
" transform="scale(0.015625)"/>
       <path id="DejaVuSans-67" d="M 2906 1791 
Q 2906 2416 2648 2759 
Q 2391 3103 1925 3103 
Q 1463 3103 1205 2759 
Q 947 2416 947 1791 
Q 947 1169 1205 825 
Q 1463 481 1925 481 
Q 2391 481 2648 825 
Q 2906 1169 2906 1791 
z
M 3481 434 
Q 3481 -459 3084 -895 
Q 2688 -1331 1869 -1331 
Q 1566 -1331 1297 -1286 
Q 1028 -1241 775 -1147 
L 775 -588 
Q 1028 -725 1275 -790 
Q 1522 -856 1778 -856 
Q 2344 -856 2625 -561 
Q 2906 -266 2906 331 
L 2906 616 
Q 2728 306 2450 153 
Q 2172 0 1784 0 
Q 1141 0 747 490 
Q 353 981 353 1791 
Q 353 2603 747 3093 
Q 1141 3584 1784 3584 
Q 2172 3584 2450 3431 
Q 2728 3278 2906 2969 
L 2906 3500 
L 3481 3500 
L 3481 434 
z
" transform="scale(0.015625)"/>
       <path id="DejaVuSans-79" d="M 2059 -325 
Q 1816 -950 1584 -1140 
Q 1353 -1331 966 -1331 
L 506 -1331 
L 506 -850 
L 844 -850 
Q 1081 -850 1212 -737 
Q 1344 -625 1503 -206 
L 1606 56 
L 191 3500 
L 800 3500 
L 1894 763 
L 2988 3500 
L 3597 3500 
L 2059 -325 
z
" transform="scale(0.015625)"/>
       <path id="DejaVuSans-5f" d="M 3263 -1063 
L 3263 -1509 
L -63 -1509 
L -63 -1063 
L 3263 -1063 
z
" transform="scale(0.015625)"/>
       <path id="DejaVuSans-74" d="M 1172 4494 
L 1172 3500 
L 2356 3500 
L 2356 3053 
L 1172 3053 
L 1172 1153 
Q 1172 725 1289 603 
Q 1406 481 1766 481 
L 2356 481 
L 2356 0 
L 1766 0 
Q 1100 0 847 248 
Q 594 497 594 1153 
L 594 3053 
L 172 3053 
L 172 3500 
L 594 3500 
L 594 4494 
L 1172 4494 
z
" transform="scale(0.015625)"/>
       <path id="DejaVuSans-61" d="M 2194 1759 
Q 1497 1759 1228 1600 
Q 959 1441 959 1056 
Q 959 750 1161 570 
Q 1363 391 1709 391 
Q 2188 391 2477 730 
Q 2766 1069 2766 1631 
L 2766 1759 
L 2194 1759 
z
M 3341 1997 
L 3341 0 
L 2766 0 
L 2766 531 
Q 2569 213 2275 61 
Q 1981 -91 1556 -91 
Q 1019 -91 701 211 
Q 384 513 384 1019 
Q 384 1609 779 1909 
Q 1175 2209 1959 2209 
L 2766 2209 
L 2766 2266 
Q 2766 2663 2505 2880 
Q 2244 3097 1772 3097 
Q 1472 3097 1187 3025 
Q 903 2953 641 2809 
L 641 3341 
Q 956 3463 1253 3523 
Q 1550 3584 1831 3584 
Q 2591 3584 2966 3190 
Q 3341 2797 3341 1997 
z
" transform="scale(0.015625)"/>
       <path id="DejaVuSans-73" d="M 2834 3397 
L 2834 2853 
Q 2591 2978 2328 3040 
Q 2066 3103 1784 3103 
Q 1356 3103 1142 2972 
Q 928 2841 928 2578 
Q 928 2378 1081 2264 
Q 1234 2150 1697 2047 
L 1894 2003 
Q 2506 1872 2764 1633 
Q 3022 1394 3022 966 
Q 3022 478 2636 193 
Q 2250 -91 1575 -91 
Q 1294 -91 989 -36 
Q 684 19 347 128 
L 347 722 
Q 666 556 975 473 
Q 1284 391 1588 391 
Q 1994 391 2212 530 
Q 2431 669 2431 922 
Q 2431 1156 2273 1281 
Q 2116 1406 1581 1522 
L 1381 1569 
Q 847 1681 609 1914 
Q 372 2147 372 2553 
Q 372 3047 722 3315 
Q 1072 3584 1716 3584 
Q 2034 3584 2315 3537 
Q 2597 3491 2834 3397 
z
" transform="scale(0.015625)"/>
       <path id="DejaVuSans-66" d="M 2375 4863 
L 2375 4384 
L 1825 4384 
Q 1516 4384 1395 4259 
Q 1275 4134 1275 3809 
L 1275 3500 
L 2222 3500 
L 2222 3053 
L 1275 3053 
L 1275 0 
L 697 0 
L 697 3053 
L 147 3053 
L 147 3500 
L 697 3500 
L 697 3744 
Q 697 4328 969 4595 
Q 1241 4863 1831 4863 
L 2375 4863 
z
" transform="scale(0.015625)"/>
       <path id="DejaVuSans-20" transform="scale(0.015625)"/>
       <path id="DejaVuSans-5b" d="M 550 4863 
L 1875 4863 
L 1875 4416 
L 1125 4416 
L 1125 -397 
L 1875 -397 
L 1875 -844 
L 550 -844 
L 550 4863 
z
" transform="scale(0.015625)"/>
       <path id="DejaVuSans-6d" d="M 3328 2828 
Q 3544 3216 3844 3400 
Q 4144 3584 4550 3584 
Q 5097 3584 5394 3201 
Q 5691 2819 5691 2113 
L 5691 0 
L 5113 0 
L 5113 2094 
Q 5113 2597 4934 2840 
Q 4756 3084 4391 3084 
Q 3944 3084 3684 2787 
Q 3425 2491 3425 1978 
L 3425 0 
L 2847 0 
L 2847 2094 
Q 2847 2600 2669 2842 
Q 2491 3084 2119 3084 
Q 1678 3084 1418 2786 
Q 1159 2488 1159 1978 
L 1159 0 
L 581 0 
L 581 3500 
L 1159 3500 
L 1159 2956 
Q 1356 3278 1631 3431 
Q 1906 3584 2284 3584 
Q 2666 3584 2933 3390 
Q 3200 3197 3328 2828 
z
" transform="scale(0.015625)"/>
       <path id="DejaVuSans-56" d="M 1831 0 
L 50 4666 
L 709 4666 
L 2188 738 
L 3669 4666 
L 4325 4666 
L 2547 0 
L 1831 0 
z
" transform="scale(0.015625)"/>
       <path id="DejaVuSans-5d" d="M 1947 4863 
L 1947 -844 
L 622 -844 
L 622 -397 
L 1369 -397 
L 1369 4416 
L 622 4416 
L 622 4863 
L 1947 4863 
z
" transform="scale(0.015625)"/>
      </defs>
      <use xlink:href="#DejaVuSans-65"/>
      <use xlink:href="#DejaVuSans-6e" transform="translate(61.523438 0)"/>
      <use xlink:href="#DejaVuSans-65" transform="translate(124.902344 0)"/>
      <use xlink:href="#DejaVuSans-72" transform="translate(186.425781 0)"/>
      <use xlink:href="#DejaVuSans-67" transform="translate(225.789062 0)"/>
      <use xlink:href="#DejaVuSans-79" transform="translate(289.265625 0)"/>
      <use xlink:href="#DejaVuSans-5f" transform="translate(348.445312 0)"/>
      <use xlink:href="#DejaVuSans-74" transform="translate(398.445312 0)"/>
      <use xlink:href="#DejaVuSans-72" transform="translate(437.654297 0)"/>
      <use xlink:href="#DejaVuSans-61" transform="translate(478.767578 0)"/>
      <use xlink:href="#DejaVuSans-6e" transform="translate(540.046875 0)"/>
      <use xlink:href="#DejaVuSans-73" transform="translate(603.425781 0)"/>
      <use xlink:href="#DejaVuSans-66" transform="translate(655.525391 0)"/>
      <use xlink:href="#DejaVuSans-65" transform="translate(690.730469 0)"/>
      <use xlink:href="#DejaVuSans-72" transform="translate(752.253906 0)"/>
      <use xlink:href="#DejaVuSans-20" transform="translate(793.367188 0)"/>
      <use xlink:href="#DejaVuSans-5b" transform="translate(825.154297 0)"/>
      <use xlink:href="#DejaVuSans-6d" transform="translate(864.167969 0)"/>
      <use xlink:href="#DejaVuSans-65" transform="translate(961.580078 0)"/>
      <use xlink:href="#DejaVuSans-56" transform="translate(1023.103516 0)"/>
      <use xlink:href="#DejaVuSans-5d" transform="translate(1091.511719 0)"/>
     </g>
    </g>
   </g>
   <g id="matplotlib.axis_2">
    <g id="ytick_1">
     <g id="line2d_9">
      <defs>
       <path id="m19c2642bea" d="M 0 0 
L -3.5 0 
" style="stroke: #000000; stroke-width: 0.8"/>
      </defs>
      <g>
       <use xlink:href="#m19c2642bea" x="46.965625" y="218.88" style="stroke: #000000; stroke-width: 0.8"/>
      </g>
     </g>
     <g id="text_10">
      <!-- 0 -->
      <g transform="translate(33.603125 222.679219) scale(0.1 -0.1)">
       <use xlink:href="#DejaVuSans-30"/>
      </g>
     </g>
    </g>
    <g id="ytick_2">
     <g id="line2d_10">
      <g>
       <use xlink:href="#m19c2642bea" x="46.965625" y="177.796844" style="stroke: #000000; stroke-width: 0.8"/>
      </g>
     </g>
     <g id="text_11">
      <!-- 50 -->
      <g transform="translate(27.240625 181.596063) scale(0.1 -0.1)">
       <use xlink:href="#DejaVuSans-35"/>
       <use xlink:href="#DejaVuSans-30" transform="translate(63.623047 0)"/>
      </g>
     </g>
    </g>
    <g id="ytick_3">
     <g id="line2d_11">
      <g>
       <use xlink:href="#m19c2642bea" x="46.965625" y="136.713688" style="stroke: #000000; stroke-width: 0.8"/>
      </g>
     </g>
     <g id="text_12">
      <!-- 100 -->
      <g transform="translate(20.878125 140.512907) scale(0.1 -0.1)">
       <use xlink:href="#DejaVuSans-31"/>
       <use xlink:href="#DejaVuSans-30" transform="translate(63.623047 0)"/>
       <use xlink:href="#DejaVuSans-30" transform="translate(127.246094 0)"/>
      </g>
     </g>
    </g>
    <g id="ytick_4">
     <g id="line2d_12">
      <g>
       <use xlink:href="#m19c2642bea" x="46.965625" y="95.630532" style="stroke: #000000; stroke-width: 0.8"/>
      </g>
     </g>
     <g id="text_13">
      <!-- 150 -->
      <g transform="translate(20.878125 99.429751) scale(0.1 -0.1)">
       <use xlink:href="#DejaVuSans-31"/>
       <use xlink:href="#DejaVuSans-35" transform="translate(63.623047 0)"/>
       <use xlink:href="#DejaVuSans-30" transform="translate(127.246094 0)"/>
      </g>
     </g>
    </g>
    <g id="ytick_5">
     <g id="line2d_13">
      <g>
       <use xlink:href="#m19c2642bea" x="46.965625" y="54.547377" style="stroke: #000000; stroke-width: 0.8"/>
      </g>
     </g>
     <g id="text_14">
      <!-- 200 -->
      <g transform="translate(20.878125 58.346595) scale(0.1 -0.1)">
       <use xlink:href="#DejaVuSans-32"/>
       <use xlink:href="#DejaVuSans-30" transform="translate(63.623047 0)"/>
       <use xlink:href="#DejaVuSans-30" transform="translate(127.246094 0)"/>
      </g>
     </g>
    </g>
    <g id="ytick_6">
     <g id="line2d_14">
      <g>
       <use xlink:href="#m19c2642bea" x="46.965625" y="13.464221" style="stroke: #000000; stroke-width: 0.8"/>
      </g>
     </g>
     <g id="text_15">
      <!-- 250 -->
      <g transform="translate(20.878125 17.263439) scale(0.1 -0.1)">
       <use xlink:href="#DejaVuSans-32"/>
       <use xlink:href="#DejaVuSans-35" transform="translate(63.623047 0)"/>
       <use xlink:href="#DejaVuSans-30" transform="translate(127.246094 0)"/>
      </g>
     </g>
    </g>
    <g id="text_16">
     <!-- [counts] -->
     <g transform="translate(14.798438 138.6925) rotate(-90) scale(0.1 -0.1)">
      <defs>
       <path id="DejaVuSans-63" d="M 3122 3366 
L 3122 2828 
Q 2878 2963 2633 3030 
Q 2388 3097 2138 3097 
Q 1578 3097 1268 2742 
Q 959 2388 959 1747 
Q 959 1106 1268 751 
Q 1578 397 2138 397 
Q 2388 397 2633 464 
Q 2878 531 3122 666 
L 3122 134 
Q 2881 22 2623 -34 
Q 2366 -91 2075 -91 
Q 1284 -91 818 406 
Q 353 903 353 1747 
Q 353 2603 823 3093 
Q 1294 3584 2113 3584 
Q 2378 3584 2631 3529 
Q 2884 3475 3122 3366 
z
" transform="scale(0.015625)"/>
       <path id="DejaVuSans-6f" d="M 1959 3097 
Q 1497 3097 1228 2736 
Q 959 2375 959 1747 
Q 959 1119 1226 758 
Q 1494 397 1959 397 
Q 2419 397 2687 759 
Q 2956 1122 2956 1747 
Q 2956 2369 2687 2733 
Q 2419 3097 1959 3097 
z
M 1959 3584 
Q 2709 3584 3137 3096 
Q 3566 2609 3566 1747 
Q 3566 888 3137 398 
Q 2709 -91 1959 -91 
Q 1206 -91 779 398 
Q 353 888 353 1747 
Q 353 2609 779 3096 
Q 1206 3584 1959 3584 
z
" transform="scale(0.015625)"/>
       <path id="DejaVuSans-75" d="M 544 1381 
L 544 3500 
L 1119 3500 
L 1119 1403 
Q 1119 906 1312 657 
Q 1506 409 1894 409 
Q 2359 409 2629 706 
Q 2900 1003 2900 1516 
L 2900 3500 
L 3475 3500 
L 3475 0 
L 2900 0 
L 2900 538 
Q 2691 219 2414 64 
Q 2138 -91 1772 -91 
Q 1169 -91 856 284 
Q 544 659 544 1381 
z
M 1991 3584 
L 1991 3584 
z
" transform="scale(0.015625)"/>
      </defs>
      <use xlink:href="#DejaVuSans-5b"/>
      <use xlink:href="#DejaVuSans-63" transform="translate(39.013672 0)"/>
      <use xlink:href="#DejaVuSans-6f" transform="translate(93.994141 0)"/>
      <use xlink:href="#DejaVuSans-75" transform="translate(155.175781 0)"/>
      <use xlink:href="#DejaVuSans-6e" transform="translate(218.554688 0)"/>
      <use xlink:href="#DejaVuSans-74" transform="translate(281.933594 0)"/>
      <use xlink:href="#DejaVuSans-73" transform="translate(321.142578 0)"/>
      <use xlink:href="#DejaVuSans-5d" transform="translate(373.242188 0)"/>
     </g>
    </g>
   </g>
   <g id="patch_3">
    <path d="M 46.965625 228.96 
L 46.965625 7.2 
" style="fill: none; stroke: #000000; stroke-width: 0.8; stroke-linejoin: miter; stroke-linecap: square"/>
   </g>
   <g id="patch_4">
    <path d="M 381.765625 228.96 
L 381.765625 7.2 
" style="fill: none; stroke: #000000; stroke-width: 0.8; stroke-linejoin: miter; stroke-linecap: square"/>
   </g>
   <g id="patch_5">
    <path d="M 46.965625 228.96 
L 381.765625 228.96 
" style="fill: none; stroke: #000000; stroke-width: 0.8; stroke-linejoin: miter; stroke-linecap: square"/>
   </g>
   <g id="patch_6">
    <path d="M 46.965625 7.2 
L 381.765625 7.2 
" style="fill: none; stroke: #000000; stroke-width: 0.8; stroke-linejoin: miter; stroke-linecap: square"/>
   </g>
   <g id="legend_1">
    <g id="patch_7">
     <path d="M 53.965625 44.55625 
L 137.648438 44.55625 
Q 139.648438 44.55625 139.648438 42.55625 
L 139.648438 14.2 
Q 139.648438 12.2 137.648438 12.2 
L 53.965625 12.2 
Q 51.965625 12.2 51.965625 14.2 
L 51.965625 42.55625 
Q 51.965625 44.55625 53.965625 44.55625 
z
" style="fill: #ffffff; opacity: 0.8; stroke: #cccccc; stroke-linejoin: miter"/>
    </g>
    <g id="line2d_15">
     <path d="M 55.965625 20.298438 
L 55.965625 20.298438 
L 65.965625 20.298438 
L 65.965625 20.298438 
L 75.965625 20.298438 
" style="fill: none; stroke: #1f77b4; stroke-width: 1.5; stroke-linecap: square"/>
    </g>
    <g id="text_17">
     <!-- unmasked -->
     <g transform="translate(83.965625 23.798438) scale(0.1 -0.1)">
      <defs>
       <path id="DejaVuSans-6b" d="M 581 4863 
L 1159 4863 
L 1159 1991 
L 2875 3500 
L 3609 3500 
L 1753 1863 
L 3688 0 
L 2938 0 
L 1159 1709 
L 1159 0 
L 581 0 
L 581 4863 
z
" transform="scale(0.015625)"/>
       <path id="DejaVuSans-64" d="M 2906 2969 
L 2906 4863 
L 3481 4863 
L 3481 0 
L 2906 0 
L 2906 525 
Q 2725 213 2448 61 
Q 2172 -91 1784 -91 
Q 1150 -91 751 415 
Q 353 922 353 1747 
Q 353 2572 751 3078 
Q 1150 3584 1784 3584 
Q 2172 3584 2448 3432 
Q 2725 3281 2906 2969 
z
M 947 1747 
Q 947 1113 1208 752 
Q 1469 391 1925 391 
Q 2381 391 2643 752 
Q 2906 1113 2906 1747 
Q 2906 2381 2643 2742 
Q 2381 3103 1925 3103 
Q 1469 3103 1208 2742 
Q 947 2381 947 1747 
z
" transform="scale(0.015625)"/>
      </defs>
      <use xlink:href="#DejaVuSans-75"/>
      <use xlink:href="#DejaVuSans-6e" transform="translate(63.378906 0)"/>
      <use xlink:href="#DejaVuSans-6d" transform="translate(126.757812 0)"/>
      <use xlink:href="#DejaVuSans-61" transform="translate(224.169922 0)"/>
      <use xlink:href="#DejaVuSans-73" transform="translate(285.449219 0)"/>
      <use xlink:href="#DejaVuSans-6b" transform="translate(337.548828 0)"/>
      <use xlink:href="#DejaVuSans-65" transform="translate(391.833984 0)"/>
      <use xlink:href="#DejaVuSans-64" transform="translate(453.357422 0)"/>
     </g>
    </g>
    <g id="line2d_16">
     <path d="M 55.965625 34.976562 
L 55.965625 34.976562 
L 65.965625 34.976562 
L 65.965625 34.976562 
L 75.965625 34.976562 
" style="fill: none; stroke: #ff7f0e; stroke-width: 1.5; stroke-linecap: square"/>
    </g>
    <g id="text_18">
     <!-- masked -->
     <g transform="translate(83.965625 38.476562) scale(0.1 -0.1)">
      <use xlink:href="#DejaVuSans-6d"/>
      <use xlink:href="#DejaVuSans-61" transform="translate(97.412109 0)"/>
      <use xlink:href="#DejaVuSans-73" transform="translate(158.691406 0)"/>
      <use xlink:href="#DejaVuSans-6b" transform="translate(210.791016 0)"/>
      <use xlink:href="#DejaVuSans-65" transform="translate(265.076172 0)"/>
      <use xlink:href="#DejaVuSans-64" transform="translate(326.599609 0)"/>
     </g>
    </g>
   </g>
   <g id="line2d_17">
    <path d="M 62.183807 218.88 
L 123.056534 218.795205 
L 123.056534 218.759482 
L 129.143807 218.677872 
L 129.143807 218.547591 
L 135.23108 218.511437 
L 135.23108 218.39024 
L 138.274716 218.39024 
L 138.274716 217.96623 
L 141.318352 217.96623 
L 141.318352 217.492833 
L 144.361989 217.492833 
L 144.361989 216.762289 
L 147.405625 216.762289 
L 147.405625 215.712422 
L 150.449261 215.712422 
L 150.449261 213.961743 
L 153.492898 213.961743 
L 153.492898 212.202536 
L 156.536534 212.202536 
L 156.536534 210.738857 
L 159.58017 210.738857 
L 159.58017 207.913927 
L 162.623807 207.913927 
L 162.623807 205.927663 
L 165.667443 205.927663 
L 165.667443 203.459436 
L 168.71108 203.459436 
L 168.71108 201.431494 
L 171.754716 201.431494 
L 171.754716 198.836312 
L 174.798352 198.836312 
L 174.798352 197.633642 
L 177.841989 197.633642 
L 177.841989 197.864878 
L 180.885625 197.864878 
L 180.885625 197.326825 
L 183.929261 197.326825 
L 183.929261 197.085229 
L 186.972898 197.085229 
L 186.972898 196.824258 
L 193.06017 196.863278 
L 193.06017 197.562806 
L 196.103807 197.562806 
L 196.103807 196.7897 
L 199.147443 196.7897 
L 199.147443 196.41098 
L 202.19108 196.41098 
L 202.19108 197.403847 
L 205.234716 197.403847 
L 205.234716 197.133774 
L 208.278352 197.133774 
L 208.278352 197.741825 
L 211.321989 197.741825 
L 211.321989 196.926549 
L 214.365625 196.926549 
L 214.365625 198.408953 
L 217.409261 198.408953 
L 217.409261 197.266444 
L 220.452898 197.266444 
L 220.452898 197.74844 
L 226.54017 197.812445 
L 226.54017 196.061719 
L 229.583807 196.061719 
L 229.583807 194.444413 
L 232.627443 194.444413 
L 232.627443 188.389473 
L 235.67108 188.389473 
L 235.67108 182.266168 
L 238.714716 182.266168 
L 238.714716 171.072851 
L 241.758352 171.072851 
L 241.758352 163.562782 
L 244.801989 163.562782 
L 244.801989 149.419827 
L 247.845625 149.419827 
L 247.845625 133.807322 
L 250.889261 133.807322 
L 250.889261 117.741868 
L 253.932898 117.741868 
L 253.932898 100.571101 
L 256.976534 100.571101 
L 256.976534 85.18479 
L 260.02017 85.18479 
L 260.02017 69.904767 
L 263.063807 69.904767 
L 263.063807 56.710952 
L 266.107443 56.710952 
L 266.107443 45.551158 
L 269.15108 45.551158 
L 269.15108 35.638884 
L 272.194716 35.638884 
L 272.194716 32.706223 
L 275.238352 32.706223 
L 275.238352 24.694083 
L 278.281989 24.694083 
L 278.281989 24.097422 
L 281.325625 24.097422 
L 281.325625 21.337709 
L 284.369261 21.337709 
L 284.369261 20.969548 
L 287.412898 20.969548 
L 287.412898 18.942737 
L 290.456534 18.942737 
L 290.456534 21.426673 
L 293.50017 21.426673 
L 293.50017 22.6227 
L 296.543807 22.6227 
L 296.543807 28.00996 
L 299.587443 28.00996 
L 299.587443 31.848167 
L 302.63108 31.848167 
L 302.63108 39.86562 
L 305.674716 39.86562 
L 305.674716 44.123187 
L 308.718352 44.123187 
L 308.718352 60.131751 
L 311.761989 60.131751 
L 311.761989 69.751564 
L 314.805625 69.751564 
L 314.805625 89.01167 
L 317.849261 89.01167 
L 317.849261 100.914157 
L 320.892898 100.914157 
L 320.892898 118.288517 
L 323.936534 118.288517 
L 323.936534 135.522556 
L 326.98017 135.522556 
L 326.98017 148.368725 
L 330.023807 148.368725 
L 330.023807 165.183902 
L 333.067443 165.183902 
L 333.067443 178.100513 
L 336.11108 178.100513 
L 336.11108 189.535693 
L 339.154716 189.535693 
L 339.154716 198.597192 
L 342.198352 198.597192 
L 342.198352 204.979936 
L 345.241989 204.979936 
L 345.241989 209.771119 
L 348.285625 209.771119 
L 348.285625 213.784555 
L 351.329261 213.784555 
L 351.329261 215.811014 
L 354.372898 215.811014 
L 354.372898 217.376147 
L 357.416534 217.376147 
L 357.416534 218.478012 
L 360.46017 218.478012 
L 360.46017 218.786092 
L 366.547443 218.805666 
L 366.547443 218.805666 
" clip-path="url(#p47db4c1fb6)" style="fill: none; stroke: #1f77b4; stroke-width: 1.5; stroke-linecap: square"/>
   </g>
   <g id="LineCollection_1">
    <path d="M 63.705625 218.88 
L 63.705625 218.88 
" clip-path="url(#p47db4c1fb6)" style="fill: none; stroke: #1f77b4; stroke-width: 1.5"/>
    <path d="M 66.749261 218.88 
L 66.749261 218.88 
" clip-path="url(#p47db4c1fb6)" style="fill: none; stroke: #1f77b4; stroke-width: 1.5"/>
    <path d="M 69.792898 218.88 
L 69.792898 218.88 
" clip-path="url(#p47db4c1fb6)" style="fill: none; stroke: #1f77b4; stroke-width: 1.5"/>
    <path d="M 72.836534 218.88 
L 72.836534 218.88 
" clip-path="url(#p47db4c1fb6)" style="fill: none; stroke: #1f77b4; stroke-width: 1.5"/>
    <path d="M 75.88017 218.88 
L 75.88017 218.88 
" clip-path="url(#p47db4c1fb6)" style="fill: none; stroke: #1f77b4; stroke-width: 1.5"/>
    <path d="M 78.923807 218.88 
L 78.923807 218.88 
" clip-path="url(#p47db4c1fb6)" style="fill: none; stroke: #1f77b4; stroke-width: 1.5"/>
    <path d="M 81.967443 218.88 
L 81.967443 218.88 
" clip-path="url(#p47db4c1fb6)" style="fill: none; stroke: #1f77b4; stroke-width: 1.5"/>
    <path d="M 85.01108 218.88 
L 85.01108 218.88 
" clip-path="url(#p47db4c1fb6)" style="fill: none; stroke: #1f77b4; stroke-width: 1.5"/>
    <path d="M 88.054716 218.88 
L 88.054716 218.88 
" clip-path="url(#p47db4c1fb6)" style="fill: none; stroke: #1f77b4; stroke-width: 1.5"/>
    <path d="M 91.098352 218.88 
L 91.098352 218.88 
" clip-path="url(#p47db4c1fb6)" style="fill: none; stroke: #1f77b4; stroke-width: 1.5"/>
    <path d="M 94.141989 218.88 
L 94.141989 218.88 
" clip-path="url(#p47db4c1fb6)" style="fill: none; stroke: #1f77b4; stroke-width: 1.5"/>
    <path d="M 97.185625 218.88 
L 97.185625 218.88 
" clip-path="url(#p47db4c1fb6)" style="fill: none; stroke: #1f77b4; stroke-width: 1.5"/>
    <path d="M 100.229261 218.88 
L 100.229261 218.88 
" clip-path="url(#p47db4c1fb6)" style="fill: none; stroke: #1f77b4; stroke-width: 1.5"/>
    <path d="M 103.272898 218.88 
L 103.272898 218.88 
" clip-path="url(#p47db4c1fb6)" style="fill: none; stroke: #1f77b4; stroke-width: 1.5"/>
    <path d="M 106.316534 218.88 
L 106.316534 218.88 
" clip-path="url(#p47db4c1fb6)" style="fill: none; stroke: #1f77b4; stroke-width: 1.5"/>
    <path d="M 109.36017 218.88 
L 109.36017 218.865035 
" clip-path="url(#p47db4c1fb6)" style="fill: none; stroke: #1f77b4; stroke-width: 1.5"/>
    <path d="M 112.403807 218.876319 
L 112.403807 218.857703 
" clip-path="url(#p47db4c1fb6)" style="fill: none; stroke: #1f77b4; stroke-width: 1.5"/>
    <path d="M 115.447443 218.866773 
L 115.447443 218.838505 
" clip-path="url(#p47db4c1fb6)" style="fill: none; stroke: #1f77b4; stroke-width: 1.5"/>
    <path d="M 118.49108 218.828284 
L 118.49108 218.785282 
" clip-path="url(#p47db4c1fb6)" style="fill: none; stroke: #1f77b4; stroke-width: 1.5"/>
    <path d="M 121.534716 218.818439 
L 121.534716 218.771972 
" clip-path="url(#p47db4c1fb6)" style="fill: none; stroke: #1f77b4; stroke-width: 1.5"/>
    <path d="M 124.578352 218.789811 
L 124.578352 218.729154 
" clip-path="url(#p47db4c1fb6)" style="fill: none; stroke: #1f77b4; stroke-width: 1.5"/>
    <path d="M 127.621989 218.715466 
L 127.621989 218.640278 
" clip-path="url(#p47db4c1fb6)" style="fill: none; stroke: #1f77b4; stroke-width: 1.5"/>
    <path d="M 130.665625 218.59808 
L 130.665625 218.497101 
" clip-path="url(#p47db4c1fb6)" style="fill: none; stroke: #1f77b4; stroke-width: 1.5"/>
    <path d="M 133.709261 218.56359 
L 133.709261 218.459284 
" clip-path="url(#p47db4c1fb6)" style="fill: none; stroke: #1f77b4; stroke-width: 1.5"/>
    <path d="M 136.752898 218.450051 
L 136.752898 218.330429 
" clip-path="url(#p47db4c1fb6)" style="fill: none; stroke: #1f77b4; stroke-width: 1.5"/>
    <path d="M 139.796534 218.051085 
L 139.796534 217.881374 
" clip-path="url(#p47db4c1fb6)" style="fill: none; stroke: #1f77b4; stroke-width: 1.5"/>
    <path d="M 142.84017 217.602758 
L 142.84017 217.382908 
" clip-path="url(#p47db4c1fb6)" style="fill: none; stroke: #1f77b4; stroke-width: 1.5"/>
    <path d="M 145.883807 216.901317 
L 145.883807 216.623262 
" clip-path="url(#p47db4c1fb6)" style="fill: none; stroke: #1f77b4; stroke-width: 1.5"/>
    <path d="M 148.927443 215.888921 
L 148.927443 215.535923 
" clip-path="url(#p47db4c1fb6)" style="fill: none; stroke: #1f77b4; stroke-width: 1.5"/>
    <path d="M 151.97108 214.193891 
L 151.97108 213.729594 
" clip-path="url(#p47db4c1fb6)" style="fill: none; stroke: #1f77b4; stroke-width: 1.5"/>
    <path d="M 155.014716 212.475947 
L 155.014716 211.929126 
" clip-path="url(#p47db4c1fb6)" style="fill: none; stroke: #1f77b4; stroke-width: 1.5"/>
    <path d="M 158.058352 211.049815 
L 158.058352 210.427899 
" clip-path="url(#p47db4c1fb6)" style="fill: none; stroke: #1f77b4; stroke-width: 1.5"/>
    <path d="M 161.101989 208.282907 
L 161.101989 207.544946 
" clip-path="url(#p47db4c1fb6)" style="fill: none; stroke: #1f77b4; stroke-width: 1.5"/>
    <path d="M 164.145625 206.33741 
L 164.145625 205.517917 
" clip-path="url(#p47db4c1fb6)" style="fill: none; stroke: #1f77b4; stroke-width: 1.5"/>
    <path d="M 167.189261 203.910782 
L 167.189261 203.008091 
" clip-path="url(#p47db4c1fb6)" style="fill: none; stroke: #1f77b4; stroke-width: 1.5"/>
    <path d="M 170.232898 201.911388 
L 170.232898 200.951599 
" clip-path="url(#p47db4c1fb6)" style="fill: none; stroke: #1f77b4; stroke-width: 1.5"/>
    <path d="M 173.276534 199.357291 
L 173.276534 198.315334 
" clip-path="url(#p47db4c1fb6)" style="fill: none; stroke: #1f77b4; stroke-width: 1.5"/>
    <path d="M 176.32017 198.172011 
L 176.32017 197.095272 
" clip-path="url(#p47db4c1fb6)" style="fill: none; stroke: #1f77b4; stroke-width: 1.5"/>
    <path d="M 179.363807 198.398438 
L 179.363807 197.331318 
" clip-path="url(#p47db4c1fb6)" style="fill: none; stroke: #1f77b4; stroke-width: 1.5"/>
    <path d="M 182.407443 197.870705 
L 182.407443 196.782945 
" clip-path="url(#p47db4c1fb6)" style="fill: none; stroke: #1f77b4; stroke-width: 1.5"/>
    <path d="M 185.45108 197.63173 
L 185.45108 196.538729 
" clip-path="url(#p47db4c1fb6)" style="fill: none; stroke: #1f77b4; stroke-width: 1.5"/>
    <path d="M 188.494716 197.374711 
L 188.494716 196.273806 
" clip-path="url(#p47db4c1fb6)" style="fill: none; stroke: #1f77b4; stroke-width: 1.5"/>
    <path d="M 191.538352 197.413377 
L 191.538352 196.313179 
" clip-path="url(#p47db4c1fb6)" style="fill: none; stroke: #1f77b4; stroke-width: 1.5"/>
    <path d="M 194.581989 198.103904 
L 194.581989 197.021708 
" clip-path="url(#p47db4c1fb6)" style="fill: none; stroke: #1f77b4; stroke-width: 1.5"/>
    <path d="M 197.625625 197.338509 
L 197.625625 196.240891 
" clip-path="url(#p47db4c1fb6)" style="fill: none; stroke: #1f77b4; stroke-width: 1.5"/>
    <path d="M 200.669261 196.965586 
L 200.669261 195.856373 
" clip-path="url(#p47db4c1fb6)" style="fill: none; stroke: #1f77b4; stroke-width: 1.5"/>
    <path d="M 203.712898 197.946375 
L 203.712898 196.861319 
" clip-path="url(#p47db4c1fb6)" style="fill: none; stroke: #1f77b4; stroke-width: 1.5"/>
    <path d="M 206.756534 197.676347 
L 206.756534 196.591201 
" clip-path="url(#p47db4c1fb6)" style="fill: none; stroke: #1f77b4; stroke-width: 1.5"/>
    <path d="M 209.80017 198.276884 
L 209.80017 197.206766 
" clip-path="url(#p47db4c1fb6)" style="fill: none; stroke: #1f77b4; stroke-width: 1.5"/>
    <path d="M 212.843807 197.469046 
L 212.843807 196.384053 
" clip-path="url(#p47db4c1fb6)" style="fill: none; stroke: #1f77b4; stroke-width: 1.5"/>
    <path d="M 215.887443 198.933536 
L 215.887443 197.884369 
" clip-path="url(#p47db4c1fb6)" style="fill: none; stroke: #1f77b4; stroke-width: 1.5"/>
    <path d="M 218.93108 197.803615 
L 218.93108 196.729274 
" clip-path="url(#p47db4c1fb6)" style="fill: none; stroke: #1f77b4; stroke-width: 1.5"/>
    <path d="M 221.974716 198.276687 
L 221.974716 197.220193 
" clip-path="url(#p47db4c1fb6)" style="fill: none; stroke: #1f77b4; stroke-width: 1.5"/>
    <path d="M 225.018352 198.331001 
L 225.018352 197.29389 
" clip-path="url(#p47db4c1fb6)" style="fill: none; stroke: #1f77b4; stroke-width: 1.5"/>
    <path d="M 228.061989 196.592601 
L 228.061989 195.530837 
" clip-path="url(#p47db4c1fb6)" style="fill: none; stroke: #1f77b4; stroke-width: 1.5"/>
    <path d="M 231.105625 194.98155 
L 231.105625 193.907276 
" clip-path="url(#p47db4c1fb6)" style="fill: none; stroke: #1f77b4; stroke-width: 1.5"/>
    <path d="M 234.149261 188.985575 
L 234.149261 187.793371 
" clip-path="url(#p47db4c1fb6)" style="fill: none; stroke: #1f77b4; stroke-width: 1.5"/>
    <path d="M 237.192898 182.914915 
L 237.192898 181.61742 
" clip-path="url(#p47db4c1fb6)" style="fill: none; stroke: #1f77b4; stroke-width: 1.5"/>
    <path d="M 240.236534 171.825234 
L 240.236534 170.320468 
" clip-path="url(#p47db4c1fb6)" style="fill: none; stroke: #1f77b4; stroke-width: 1.5"/>
    <path d="M 243.28017 164.376498 
L 243.28017 162.749065 
" clip-path="url(#p47db4c1fb6)" style="fill: none; stroke: #1f77b4; stroke-width: 1.5"/>
    <path d="M 246.323807 150.341075 
L 246.323807 148.49858 
" clip-path="url(#p47db4c1fb6)" style="fill: none; stroke: #1f77b4; stroke-width: 1.5"/>
    <path d="M 249.367443 134.842744 
L 249.367443 132.7719 
" clip-path="url(#p47db4c1fb6)" style="fill: none; stroke: #1f77b4; stroke-width: 1.5"/>
    <path d="M 252.41108 118.880211 
L 252.41108 116.603525 
" clip-path="url(#p47db4c1fb6)" style="fill: none; stroke: #1f77b4; stroke-width: 1.5"/>
    <path d="M 255.454716 101.817284 
L 255.454716 99.324917 
" clip-path="url(#p47db4c1fb6)" style="fill: none; stroke: #1f77b4; stroke-width: 1.5"/>
    <path d="M 258.498352 86.513827 
L 258.498352 83.855754 
" clip-path="url(#p47db4c1fb6)" style="fill: none; stroke: #1f77b4; stroke-width: 1.5"/>
    <path d="M 261.541989 71.318558 
L 261.541989 68.490976 
" clip-path="url(#p47db4c1fb6)" style="fill: none; stroke: #1f77b4; stroke-width: 1.5"/>
    <path d="M 264.585625 58.190093 
L 264.585625 55.23181 
" clip-path="url(#p47db4c1fb6)" style="fill: none; stroke: #1f77b4; stroke-width: 1.5"/>
    <path d="M 267.629261 47.086637 
L 267.629261 44.01568 
" clip-path="url(#p47db4c1fb6)" style="fill: none; stroke: #1f77b4; stroke-width: 1.5"/>
    <path d="M 270.672898 37.217821 
L 270.672898 34.059948 
" clip-path="url(#p47db4c1fb6)" style="fill: none; stroke: #1f77b4; stroke-width: 1.5"/>
    <path d="M 273.716534 34.304111 
L 273.716534 31.108336 
" clip-path="url(#p47db4c1fb6)" style="fill: none; stroke: #1f77b4; stroke-width: 1.5"/>
    <path d="M 276.76017 26.329587 
L 276.76017 23.058578 
" clip-path="url(#p47db4c1fb6)" style="fill: none; stroke: #1f77b4; stroke-width: 1.5"/>
    <path d="M 279.803807 25.736732 
L 279.803807 22.458112 
" clip-path="url(#p47db4c1fb6)" style="fill: none; stroke: #1f77b4; stroke-width: 1.5"/>
    <path d="M 282.847443 22.989923 
L 282.847443 19.685496 
" clip-path="url(#p47db4c1fb6)" style="fill: none; stroke: #1f77b4; stroke-width: 1.5"/>
    <path d="M 285.89108 22.623567 
L 285.89108 19.315529 
" clip-path="url(#p47db4c1fb6)" style="fill: none; stroke: #1f77b4; stroke-width: 1.5"/>
    <path d="M 288.934716 20.605474 
L 288.934716 17.28 
" clip-path="url(#p47db4c1fb6)" style="fill: none; stroke: #1f77b4; stroke-width: 1.5"/>
    <path d="M 291.978352 23.083831 
L 291.978352 19.769515 
" clip-path="url(#p47db4c1fb6)" style="fill: none; stroke: #1f77b4; stroke-width: 1.5"/>
    <path d="M 295.021989 24.275134 
L 295.021989 20.970265 
" clip-path="url(#p47db4c1fb6)" style="fill: none; stroke: #1f77b4; stroke-width: 1.5"/>
    <path d="M 298.065625 29.644391 
L 298.065625 26.375529 
" clip-path="url(#p47db4c1fb6)" style="fill: none; stroke: #1f77b4; stroke-width: 1.5"/>
    <path d="M 301.109261 33.470526 
L 301.109261 30.225807 
" clip-path="url(#p47db4c1fb6)" style="fill: none; stroke: #1f77b4; stroke-width: 1.5"/>
    <path d="M 304.152898 41.456444 
L 304.152898 38.274795 
" clip-path="url(#p47db4c1fb6)" style="fill: none; stroke: #1f77b4; stroke-width: 1.5"/>
    <path d="M 307.196534 45.701481 
L 307.196534 42.544892 
" clip-path="url(#p47db4c1fb6)" style="fill: none; stroke: #1f77b4; stroke-width: 1.5"/>
    <path d="M 310.24017 61.641881 
L 310.24017 58.621621 
" clip-path="url(#p47db4c1fb6)" style="fill: none; stroke: #1f77b4; stroke-width: 1.5"/>
    <path d="M 313.283807 71.22002 
L 313.283807 68.283107 
" clip-path="url(#p47db4c1fb6)" style="fill: none; stroke: #1f77b4; stroke-width: 1.5"/>
    <path d="M 316.327443 90.383702 
L 316.327443 87.639638 
" clip-path="url(#p47db4c1fb6)" style="fill: none; stroke: #1f77b4; stroke-width: 1.5"/>
    <path d="M 319.37108 102.227299 
L 319.37108 99.601014 
" clip-path="url(#p47db4c1fb6)" style="fill: none; stroke: #1f77b4; stroke-width: 1.5"/>
    <path d="M 322.414716 119.501694 
L 322.414716 117.075339 
" clip-path="url(#p47db4c1fb6)" style="fill: none; stroke: #1f77b4; stroke-width: 1.5"/>
    <path d="M 325.458352 136.629909 
L 325.458352 134.415203 
" clip-path="url(#p47db4c1fb6)" style="fill: none; stroke: #1f77b4; stroke-width: 1.5"/>
    <path d="M 328.501989 149.389722 
L 328.501989 147.347728 
" clip-path="url(#p47db4c1fb6)" style="fill: none; stroke: #1f77b4; stroke-width: 1.5"/>
    <path d="M 331.545625 166.075565 
L 331.545625 164.292239 
" clip-path="url(#p47db4c1fb6)" style="fill: none; stroke: #1f77b4; stroke-width: 1.5"/>
    <path d="M 334.589261 178.879446 
L 334.589261 177.321581 
" clip-path="url(#p47db4c1fb6)" style="fill: none; stroke: #1f77b4; stroke-width: 1.5"/>
    <path d="M 337.632898 190.195646 
L 337.632898 188.875739 
" clip-path="url(#p47db4c1fb6)" style="fill: none; stroke: #1f77b4; stroke-width: 1.5"/>
    <path d="M 340.676534 199.144139 
L 340.676534 198.050244 
" clip-path="url(#p47db4c1fb6)" style="fill: none; stroke: #1f77b4; stroke-width: 1.5"/>
    <path d="M 343.72017 205.4329 
L 343.72017 204.526972 
" clip-path="url(#p47db4c1fb6)" style="fill: none; stroke: #1f77b4; stroke-width: 1.5"/>
    <path d="M 346.763807 210.139731 
L 346.763807 209.402507 
" clip-path="url(#p47db4c1fb6)" style="fill: none; stroke: #1f77b4; stroke-width: 1.5"/>
    <path d="M 349.807443 214.057662 
L 349.807443 213.511449 
" clip-path="url(#p47db4c1fb6)" style="fill: none; stroke: #1f77b4; stroke-width: 1.5"/>
    <path d="M 352.85108 216.026491 
L 352.85108 215.595536 
" clip-path="url(#p47db4c1fb6)" style="fill: none; stroke: #1f77b4; stroke-width: 1.5"/>
    <path d="M 355.894716 217.525757 
L 355.894716 217.226536 
" clip-path="url(#p47db4c1fb6)" style="fill: none; stroke: #1f77b4; stroke-width: 1.5"/>
    <path d="M 358.938352 218.553673 
L 358.938352 218.402351 
" clip-path="url(#p47db4c1fb6)" style="fill: none; stroke: #1f77b4; stroke-width: 1.5"/>
    <path d="M 361.981989 218.823503 
L 361.981989 218.748681 
" clip-path="url(#p47db4c1fb6)" style="fill: none; stroke: #1f77b4; stroke-width: 1.5"/>
    <path d="M 365.025625 218.837282 
L 365.025625 218.77405 
" clip-path="url(#p47db4c1fb6)" style="fill: none; stroke: #1f77b4; stroke-width: 1.5"/>
   </g>
   <g id="line2d_18">
    <path d="M 62.183807 218.88 
L 196.103807 218.794028 
L 196.103807 218.674245 
L 202.19108 218.630662 
L 202.19108 218.514726 
L 205.234716 218.514726 
L 205.234716 218.136167 
L 208.278352 218.136167 
L 208.278352 218.011188 
L 211.321989 218.011188 
L 211.321989 217.178316 
L 214.365625 217.178316 
L 214.365625 216.908147 
L 217.409261 216.908147 
L 217.409261 215.755556 
L 220.452898 215.755556 
L 220.452898 214.509511 
L 223.496534 214.509511 
L 223.496534 213.119046 
L 226.54017 213.119046 
L 226.54017 209.155442 
L 229.583807 209.155442 
L 229.583807 204.918642 
L 232.627443 204.918642 
L 232.627443 197.609046 
L 235.67108 197.609046 
L 235.67108 188.667718 
L 238.714716 188.667718 
L 238.714716 176.416319 
L 241.758352 176.416319 
L 241.758352 166.986129 
L 244.801989 166.986129 
L 244.801989 152.153529 
L 247.845625 152.153529 
L 247.845625 136.700393 
L 250.889261 136.700393 
L 250.889261 121.708805 
L 253.932898 121.708805 
L 253.932898 105.48207 
L 256.976534 105.48207 
L 256.976534 91.221785 
L 260.02017 91.221785 
L 260.02017 77.437619 
L 263.063807 77.437619 
L 263.063807 64.65537 
L 266.107443 64.65537 
L 266.107443 55.713718 
L 269.15108 55.713718 
L 269.15108 46.810139 
L 272.194716 46.810139 
L 272.194716 44.160325 
L 275.238352 44.160325 
L 275.238352 37.407037 
L 278.281989 37.407037 
L 278.281989 36.016127 
L 281.325625 36.016127 
L 281.325625 33.707644 
L 284.369261 33.707644 
L 284.369261 34.40138 
L 287.412898 34.40138 
L 287.412898 32.474228 
L 290.456534 32.474228 
L 290.456534 34.906592 
L 293.50017 34.906592 
L 293.50017 35.798738 
L 296.543807 35.798738 
L 296.543807 41.126869 
L 299.587443 41.126869 
L 299.587443 44.555577 
L 302.63108 44.555577 
L 302.63108 52.685385 
L 305.674716 52.685385 
L 305.674716 56.572972 
L 308.718352 56.572972 
L 308.718352 72.559867 
L 311.761989 72.559867 
L 311.761989 81.667295 
L 314.805625 81.667295 
L 314.805625 100.801193 
L 317.849261 100.801193 
L 317.849261 111.801292 
L 320.892898 111.801292 
L 320.892898 127.487608 
L 323.936534 127.487608 
L 323.936534 143.394047 
L 326.98017 143.394047 
L 326.98017 155.329788 
L 330.023807 155.329788 
L 330.023807 171.046302 
L 333.067443 171.046302 
L 333.067443 182.316286 
L 336.11108 182.316286 
L 336.11108 192.691038 
L 339.154716 192.691038 
L 339.154716 200.549368 
L 342.198352 200.549368 
L 342.198352 206.095795 
L 345.241989 206.095795 
L 345.241989 210.268593 
L 348.285625 210.268593 
L 348.285625 214.024309 
L 351.329261 214.024309 
L 351.329261 215.905422 
L 354.372898 215.905422 
L 354.372898 217.376147 
L 357.416534 217.376147 
L 357.416534 218.478012 
L 360.46017 218.478012 
L 360.46017 218.786092 
L 366.547443 218.805666 
L 366.547443 218.805666 
" clip-path="url(#p47db4c1fb6)" style="fill: none; stroke: #ff7f0e; stroke-width: 1.5; stroke-linecap: square"/>
   </g>
   <g id="LineCollection_2">
    <path d="M 63.705625 218.88 
L 63.705625 218.88 
" clip-path="url(#p47db4c1fb6)" style="fill: none; stroke: #ff7f0e; stroke-width: 1.5"/>
    <path d="M 66.749261 218.88 
L 66.749261 218.88 
" clip-path="url(#p47db4c1fb6)" style="fill: none; stroke: #ff7f0e; stroke-width: 1.5"/>
    <path d="M 69.792898 218.88 
L 69.792898 218.88 
" clip-path="url(#p47db4c1fb6)" style="fill: none; stroke: #ff7f0e; stroke-width: 1.5"/>
    <path d="M 72.836534 218.88 
L 72.836534 218.88 
" clip-path="url(#p47db4c1fb6)" style="fill: none; stroke: #ff7f0e; stroke-width: 1.5"/>
    <path d="M 75.88017 218.88 
L 75.88017 218.88 
" clip-path="url(#p47db4c1fb6)" style="fill: none; stroke: #ff7f0e; stroke-width: 1.5"/>
    <path d="M 78.923807 218.88 
L 78.923807 218.88 
" clip-path="url(#p47db4c1fb6)" style="fill: none; stroke: #ff7f0e; stroke-width: 1.5"/>
    <path d="M 81.967443 218.88 
L 81.967443 218.88 
" clip-path="url(#p47db4c1fb6)" style="fill: none; stroke: #ff7f0e; stroke-width: 1.5"/>
    <path d="M 85.01108 218.88 
L 85.01108 218.88 
" clip-path="url(#p47db4c1fb6)" style="fill: none; stroke: #ff7f0e; stroke-width: 1.5"/>
    <path d="M 88.054716 218.88 
L 88.054716 218.88 
" clip-path="url(#p47db4c1fb6)" style="fill: none; stroke: #ff7f0e; stroke-width: 1.5"/>
    <path d="M 91.098352 218.88 
L 91.098352 218.88 
" clip-path="url(#p47db4c1fb6)" style="fill: none; stroke: #ff7f0e; stroke-width: 1.5"/>
    <path d="M 94.141989 218.88 
L 94.141989 218.88 
" clip-path="url(#p47db4c1fb6)" style="fill: none; stroke: #ff7f0e; stroke-width: 1.5"/>
    <path d="M 97.185625 218.88 
L 97.185625 218.88 
" clip-path="url(#p47db4c1fb6)" style="fill: none; stroke: #ff7f0e; stroke-width: 1.5"/>
    <path d="M 100.229261 218.88 
L 100.229261 218.88 
" clip-path="url(#p47db4c1fb6)" style="fill: none; stroke: #ff7f0e; stroke-width: 1.5"/>
    <path d="M 103.272898 218.88 
L 103.272898 218.88 
" clip-path="url(#p47db4c1fb6)" style="fill: none; stroke: #ff7f0e; stroke-width: 1.5"/>
    <path d="M 106.316534 218.88 
L 106.316534 218.88 
" clip-path="url(#p47db4c1fb6)" style="fill: none; stroke: #ff7f0e; stroke-width: 1.5"/>
    <path d="M 109.36017 218.88 
L 109.36017 218.88 
" clip-path="url(#p47db4c1fb6)" style="fill: none; stroke: #ff7f0e; stroke-width: 1.5"/>
    <path d="M 112.403807 218.88 
L 112.403807 218.879995 
" clip-path="url(#p47db4c1fb6)" style="fill: none; stroke: #ff7f0e; stroke-width: 1.5"/>
    <path d="M 115.447443 218.88 
L 115.447443 218.879987 
" clip-path="url(#p47db4c1fb6)" style="fill: none; stroke: #ff7f0e; stroke-width: 1.5"/>
    <path d="M 118.49108 218.879994 
L 118.49108 218.879957 
" clip-path="url(#p47db4c1fb6)" style="fill: none; stroke: #ff7f0e; stroke-width: 1.5"/>
    <path d="M 121.534716 218.879994 
L 121.534716 218.879958 
" clip-path="url(#p47db4c1fb6)" style="fill: none; stroke: #ff7f0e; stroke-width: 1.5"/>
    <path d="M 124.578352 218.879995 
L 124.578352 218.879983 
" clip-path="url(#p47db4c1fb6)" style="fill: none; stroke: #ff7f0e; stroke-width: 1.5"/>
    <path d="M 127.621989 218.879985 
L 127.621989 218.879955 
" clip-path="url(#p47db4c1fb6)" style="fill: none; stroke: #ff7f0e; stroke-width: 1.5"/>
    <path d="M 130.665625 218.87997 
L 130.665625 218.879885 
" clip-path="url(#p47db4c1fb6)" style="fill: none; stroke: #ff7f0e; stroke-width: 1.5"/>
    <path d="M 133.709261 218.879941 
L 133.709261 218.866781 
" clip-path="url(#p47db4c1fb6)" style="fill: none; stroke: #ff7f0e; stroke-width: 1.5"/>
    <path d="M 136.752898 218.879883 
L 136.752898 218.879698 
" clip-path="url(#p47db4c1fb6)" style="fill: none; stroke: #ff7f0e; stroke-width: 1.5"/>
    <path d="M 139.796534 218.879675 
L 139.796534 218.8671 
" clip-path="url(#p47db4c1fb6)" style="fill: none; stroke: #ff7f0e; stroke-width: 1.5"/>
    <path d="M 142.84017 218.879871 
L 142.84017 218.879702 
" clip-path="url(#p47db4c1fb6)" style="fill: none; stroke: #ff7f0e; stroke-width: 1.5"/>
    <path d="M 145.883807 218.879711 
L 145.883807 218.879534 
" clip-path="url(#p47db4c1fb6)" style="fill: none; stroke: #ff7f0e; stroke-width: 1.5"/>
    <path d="M 148.927443 218.879684 
L 148.927443 218.879527 
" clip-path="url(#p47db4c1fb6)" style="fill: none; stroke: #ff7f0e; stroke-width: 1.5"/>
    <path d="M 151.97108 218.879563 
L 151.97108 218.879333 
" clip-path="url(#p47db4c1fb6)" style="fill: none; stroke: #ff7f0e; stroke-width: 1.5"/>
    <path d="M 155.014716 218.875615 
L 155.014716 218.857937 
" clip-path="url(#p47db4c1fb6)" style="fill: none; stroke: #ff7f0e; stroke-width: 1.5"/>
    <path d="M 158.058352 218.879242 
L 158.058352 218.878977 
" clip-path="url(#p47db4c1fb6)" style="fill: none; stroke: #ff7f0e; stroke-width: 1.5"/>
    <path d="M 161.101989 218.879062 
L 161.101989 218.878704 
" clip-path="url(#p47db4c1fb6)" style="fill: none; stroke: #ff7f0e; stroke-width: 1.5"/>
    <path d="M 164.145625 218.863345 
L 164.145625 218.825271 
" clip-path="url(#p47db4c1fb6)" style="fill: none; stroke: #ff7f0e; stroke-width: 1.5"/>
    <path d="M 167.189261 218.873026 
L 167.189261 218.839306 
" clip-path="url(#p47db4c1fb6)" style="fill: none; stroke: #ff7f0e; stroke-width: 1.5"/>
    <path d="M 170.232898 218.878625 
L 170.232898 218.847102 
" clip-path="url(#p47db4c1fb6)" style="fill: none; stroke: #ff7f0e; stroke-width: 1.5"/>
    <path d="M 173.276534 218.863703 
L 173.276534 218.822753 
" clip-path="url(#p47db4c1fb6)" style="fill: none; stroke: #ff7f0e; stroke-width: 1.5"/>
    <path d="M 176.32017 218.878862 
L 176.32017 218.849094 
" clip-path="url(#p47db4c1fb6)" style="fill: none; stroke: #ff7f0e; stroke-width: 1.5"/>
    <path d="M 179.363807 218.859575 
L 179.363807 218.80772 
" clip-path="url(#p47db4c1fb6)" style="fill: none; stroke: #ff7f0e; stroke-width: 1.5"/>
    <path d="M 182.407443 218.861386 
L 182.407443 218.825487 
" clip-path="url(#p47db4c1fb6)" style="fill: none; stroke: #ff7f0e; stroke-width: 1.5"/>
    <path d="M 185.45108 218.878121 
L 185.45108 218.856059 
" clip-path="url(#p47db4c1fb6)" style="fill: none; stroke: #ff7f0e; stroke-width: 1.5"/>
    <path d="M 188.494716 218.872982 
L 188.494716 218.841814 
" clip-path="url(#p47db4c1fb6)" style="fill: none; stroke: #ff7f0e; stroke-width: 1.5"/>
    <path d="M 191.538352 218.878283 
L 191.538352 218.862117 
" clip-path="url(#p47db4c1fb6)" style="fill: none; stroke: #ff7f0e; stroke-width: 1.5"/>
    <path d="M 194.581989 218.823344 
L 194.581989 218.764713 
" clip-path="url(#p47db4c1fb6)" style="fill: none; stroke: #ff7f0e; stroke-width: 1.5"/>
    <path d="M 197.625625 218.712975 
L 197.625625 218.635514 
" clip-path="url(#p47db4c1fb6)" style="fill: none; stroke: #ff7f0e; stroke-width: 1.5"/>
    <path d="M 200.669261 218.673072 
L 200.669261 218.588253 
" clip-path="url(#p47db4c1fb6)" style="fill: none; stroke: #ff7f0e; stroke-width: 1.5"/>
    <path d="M 203.712898 218.566868 
L 203.712898 218.462583 
" clip-path="url(#p47db4c1fb6)" style="fill: none; stroke: #ff7f0e; stroke-width: 1.5"/>
    <path d="M 206.756534 218.214116 
L 206.756534 218.058218 
" clip-path="url(#p47db4c1fb6)" style="fill: none; stroke: #ff7f0e; stroke-width: 1.5"/>
    <path d="M 209.80017 218.089587 
L 209.80017 217.932789 
" clip-path="url(#p47db4c1fb6)" style="fill: none; stroke: #ff7f0e; stroke-width: 1.5"/>
    <path d="M 212.843807 217.291871 
L 212.843807 217.064761 
" clip-path="url(#p47db4c1fb6)" style="fill: none; stroke: #ff7f0e; stroke-width: 1.5"/>
    <path d="M 215.887443 217.029355 
L 215.887443 216.786939 
" clip-path="url(#p47db4c1fb6)" style="fill: none; stroke: #ff7f0e; stroke-width: 1.5"/>
    <path d="M 218.93108 215.912882 
L 218.93108 215.598231 
" clip-path="url(#p47db4c1fb6)" style="fill: none; stroke: #ff7f0e; stroke-width: 1.5"/>
    <path d="M 221.974716 214.69764 
L 221.974716 214.321381 
" clip-path="url(#p47db4c1fb6)" style="fill: none; stroke: #ff7f0e; stroke-width: 1.5"/>
    <path d="M 225.018352 213.337312 
L 225.018352 212.900779 
" clip-path="url(#p47db4c1fb6)" style="fill: none; stroke: #ff7f0e; stroke-width: 1.5"/>
    <path d="M 228.061989 209.453253 
L 228.061989 208.857631 
" clip-path="url(#p47db4c1fb6)" style="fill: none; stroke: #ff7f0e; stroke-width: 1.5"/>
    <path d="M 231.105625 205.286828 
L 231.105625 204.550456 
" clip-path="url(#p47db4c1fb6)" style="fill: none; stroke: #ff7f0e; stroke-width: 1.5"/>
    <path d="M 234.149261 198.076764 
L 234.149261 197.141327 
" clip-path="url(#p47db4c1fb6)" style="fill: none; stroke: #ff7f0e; stroke-width: 1.5"/>
    <path d="M 237.192898 189.24043 
L 237.192898 188.095006 
" clip-path="url(#p47db4c1fb6)" style="fill: none; stroke: #ff7f0e; stroke-width: 1.5"/>
    <path d="M 240.236534 177.116246 
L 240.236534 175.716392 
" clip-path="url(#p47db4c1fb6)" style="fill: none; stroke: #ff7f0e; stroke-width: 1.5"/>
    <path d="M 243.28017 167.771898 
L 243.28017 166.200361 
" clip-path="url(#p47db4c1fb6)" style="fill: none; stroke: #ff7f0e; stroke-width: 1.5"/>
    <path d="M 246.323807 153.056684 
L 246.323807 151.250375 
" clip-path="url(#p47db4c1fb6)" style="fill: none; stroke: #ff7f0e; stroke-width: 1.5"/>
    <path d="M 249.367443 137.719667 
L 249.367443 135.681119 
" clip-path="url(#p47db4c1fb6)" style="fill: none; stroke: #ff7f0e; stroke-width: 1.5"/>
    <path d="M 252.41108 122.827373 
L 252.41108 120.590238 
" clip-path="url(#p47db4c1fb6)" style="fill: none; stroke: #ff7f0e; stroke-width: 1.5"/>
    <path d="M 255.454716 106.704837 
L 255.454716 104.259302 
" clip-path="url(#p47db4c1fb6)" style="fill: none; stroke: #ff7f0e; stroke-width: 1.5"/>
    <path d="M 258.498352 92.522888 
L 258.498352 89.920682 
" clip-path="url(#p47db4c1fb6)" style="fill: none; stroke: #ff7f0e; stroke-width: 1.5"/>
    <path d="M 261.541989 78.817413 
L 261.541989 76.057824 
" clip-path="url(#p47db4c1fb6)" style="fill: none; stroke: #ff7f0e; stroke-width: 1.5"/>
    <path d="M 264.585625 66.099741 
L 264.585625 63.211 
" clip-path="url(#p47db4c1fb6)" style="fill: none; stroke: #ff7f0e; stroke-width: 1.5"/>
    <path d="M 267.629261 57.204742 
L 267.629261 54.222693 
" clip-path="url(#p47db4c1fb6)" style="fill: none; stroke: #ff7f0e; stroke-width: 1.5"/>
    <path d="M 270.672898 48.341087 
L 270.672898 45.27919 
" clip-path="url(#p47db4c1fb6)" style="fill: none; stroke: #ff7f0e; stroke-width: 1.5"/>
    <path d="M 273.716534 45.709483 
L 273.716534 42.611166 
" clip-path="url(#p47db4c1fb6)" style="fill: none; stroke: #ff7f0e; stroke-width: 1.5"/>
    <path d="M 276.76017 38.987864 
L 276.76017 35.82621 
" clip-path="url(#p47db4c1fb6)" style="fill: none; stroke: #ff7f0e; stroke-width: 1.5"/>
    <path d="M 279.803807 37.605268 
L 279.803807 34.426987 
" clip-path="url(#p47db4c1fb6)" style="fill: none; stroke: #ff7f0e; stroke-width: 1.5"/>
    <path d="M 282.847443 35.307632 
L 282.847443 32.107656 
" clip-path="url(#p47db4c1fb6)" style="fill: none; stroke: #ff7f0e; stroke-width: 1.5"/>
    <path d="M 285.89108 35.998259 
L 285.89108 32.804501 
" clip-path="url(#p47db4c1fb6)" style="fill: none; stroke: #ff7f0e; stroke-width: 1.5"/>
    <path d="M 288.934716 34.081215 
L 288.934716 30.867241 
" clip-path="url(#p47db4c1fb6)" style="fill: none; stroke: #ff7f0e; stroke-width: 1.5"/>
    <path d="M 291.978352 36.506653 
L 291.978352 33.306532 
" clip-path="url(#p47db4c1fb6)" style="fill: none; stroke: #ff7f0e; stroke-width: 1.5"/>
    <path d="M 295.021989 37.395498 
L 295.021989 34.201978 
" clip-path="url(#p47db4c1fb6)" style="fill: none; stroke: #ff7f0e; stroke-width: 1.5"/>
    <path d="M 298.065625 42.705334 
L 298.065625 39.548404 
" clip-path="url(#p47db4c1fb6)" style="fill: none; stroke: #ff7f0e; stroke-width: 1.5"/>
    <path d="M 301.109261 46.123073 
L 301.109261 42.988081 
" clip-path="url(#p47db4c1fb6)" style="fill: none; stroke: #ff7f0e; stroke-width: 1.5"/>
    <path d="M 304.152898 54.220633 
L 304.152898 51.150137 
" clip-path="url(#p47db4c1fb6)" style="fill: none; stroke: #ff7f0e; stroke-width: 1.5"/>
    <path d="M 307.196534 58.096082 
L 307.196534 55.049863 
" clip-path="url(#p47db4c1fb6)" style="fill: none; stroke: #ff7f0e; stroke-width: 1.5"/>
    <path d="M 310.24017 74.010839 
L 310.24017 71.108894 
" clip-path="url(#p47db4c1fb6)" style="fill: none; stroke: #ff7f0e; stroke-width: 1.5"/>
    <path d="M 313.283807 83.077633 
L 313.283807 80.256956 
" clip-path="url(#p47db4c1fb6)" style="fill: none; stroke: #ff7f0e; stroke-width: 1.5"/>
    <path d="M 316.327443 102.11119 
L 316.327443 99.491196 
" clip-path="url(#p47db4c1fb6)" style="fill: none; stroke: #ff7f0e; stroke-width: 1.5"/>
    <path d="M 319.37108 113.052954 
L 319.37108 110.54963 
" clip-path="url(#p47db4c1fb6)" style="fill: none; stroke: #ff7f0e; stroke-width: 1.5"/>
    <path d="M 322.414716 128.64402 
L 322.414716 126.331196 
" clip-path="url(#p47db4c1fb6)" style="fill: none; stroke: #ff7f0e; stroke-width: 1.5"/>
    <path d="M 325.458352 144.448398 
L 325.458352 142.339697 
" clip-path="url(#p47db4c1fb6)" style="fill: none; stroke: #ff7f0e; stroke-width: 1.5"/>
    <path d="M 328.501989 156.298694 
L 328.501989 154.360881 
" clip-path="url(#p47db4c1fb6)" style="fill: none; stroke: #ff7f0e; stroke-width: 1.5"/>
    <path d="M 331.545625 171.887099 
L 331.545625 170.205505 
" clip-path="url(#p47db4c1fb6)" style="fill: none; stroke: #ff7f0e; stroke-width: 1.5"/>
    <path d="M 334.589261 183.053855 
L 334.589261 181.578717 
" clip-path="url(#p47db4c1fb6)" style="fill: none; stroke: #ff7f0e; stroke-width: 1.5"/>
    <path d="M 337.632898 193.314193 
L 337.632898 192.067882 
" clip-path="url(#p47db4c1fb6)" style="fill: none; stroke: #ff7f0e; stroke-width: 1.5"/>
    <path d="M 340.676534 201.068912 
L 340.676534 200.029825 
" clip-path="url(#p47db4c1fb6)" style="fill: none; stroke: #ff7f0e; stroke-width: 1.5"/>
    <path d="M 343.72017 206.530192 
L 343.72017 205.661398 
" clip-path="url(#p47db4c1fb6)" style="fill: none; stroke: #ff7f0e; stroke-width: 1.5"/>
    <path d="M 346.763807 210.626664 
L 346.763807 209.910522 
" clip-path="url(#p47db4c1fb6)" style="fill: none; stroke: #ff7f0e; stroke-width: 1.5"/>
    <path d="M 349.807443 214.290793 
L 349.807443 213.757826 
" clip-path="url(#p47db4c1fb6)" style="fill: none; stroke: #ff7f0e; stroke-width: 1.5"/>
    <path d="M 352.85108 216.117707 
L 352.85108 215.693137 
" clip-path="url(#p47db4c1fb6)" style="fill: none; stroke: #ff7f0e; stroke-width: 1.5"/>
    <path d="M 355.894716 217.525757 
L 355.894716 217.226536 
" clip-path="url(#p47db4c1fb6)" style="fill: none; stroke: #ff7f0e; stroke-width: 1.5"/>
    <path d="M 358.938352 218.553673 
L 358.938352 218.402351 
" clip-path="url(#p47db4c1fb6)" style="fill: none; stroke: #ff7f0e; stroke-width: 1.5"/>
    <path d="M 361.981989 218.823503 
L 361.981989 218.748681 
" clip-path="url(#p47db4c1fb6)" style="fill: none; stroke: #ff7f0e; stroke-width: 1.5"/>
    <path d="M 365.025625 218.837282 
L 365.025625 218.77405 
" clip-path="url(#p47db4c1fb6)" style="fill: none; stroke: #ff7f0e; stroke-width: 1.5"/>
   </g>
  </g>
 </g>
 <defs>
  <clipPath id="p47db4c1fb6">
   <rect x="46.965625" y="7.2" width="334.8" height="221.76"/>
  </clipPath>
 </defs>
</svg>