<?xml version="1.0" encoding="utf-8" standalone="no"?>
<!DOCTYPE svg PUBLIC "-//W3C//DTD SVG 1.1//EN"
  "http://www.w3.org/Graphics/SVG/1.1/DTD/svg11.dtd">
<svg xmlns:xlink="http://www.w3.org/1999/xlink" width="424.495625pt" height="279.944481pt" viewBox="0 0 424.495625 279.944481" xmlns="http://www.w3.org/2000/svg" version="1.1">
 <metadata>
  <rdf:RDF xmlns:dc="http://purl.org/dc/elements/1.1/" xmlns:cc="http://creativecommons.org/ns#" xmlns:rdf="http://www.w3.org/1999/02/22-rdf-syntax-ns#">
   <cc:Work>
    <dc:type rdf:resource="http://purl.org/dc/dcmitype/StillImage"/>
    <dc:date>2024-09-10T09:04:19.605268</dc:date>
    <dc:format>image/svg+xml</dc:format>
    <dc:creator>
     <cc:Agent>
      <dc:title>Matplotlib v3.9.2, https://matplotlib.org/</dc:title>
     </cc:Agent>
    </dc:creator>
   </cc:Work>
  </rdf:RDF>
 </metadata>
 <defs>
  <style type="text/css">*{stroke-linejoin: round; stroke-linecap: butt}</style>
 </defs>
 <g id="figure_1">
  <g id="patch_1">
   <path d="M 0 279.944481 
L 424.495625 279.944481 
L 424.495625 0 
L 0 0 
z
" style="fill: #ffffff"/>
  </g>
  <g id="axes_1">
   <g id="patch_2">
    <path d="M 46.965625 240.703856 
L 417.295625 240.703856 
L 417.295625 7.541187 
L 46.965625 7.541187 
z
" style="fill: #ffffff"/>
   </g>
   <g id="matplotlib.axis_1">
    <g id="xtick_1">
     <g id="line2d_1">
      <defs>
       <path id="mfcb482d022" d="M 0 0 
L 0 3.5 
" style="stroke: #000000; stroke-width: 0.8"/>
      </defs>
      <g>
       <use xlink:href="#mfcb482d022" x="64.06618" y="240.703856" style="stroke: #000000; stroke-width: 0.8"/>
      </g>
     </g>
     <g id="text_1">
      <!-- 5.25 -->
      <g transform="translate(52.933368 255.302293) scale(0.1 -0.1)">
       <defs>
        <path id="DejaVuSans-35" d="M 691 4666 
L 3169 4666 
L 3169 4134 
L 1269 4134 
L 1269 2991 
Q 1406 3038 1543 3061 
Q 1681 3084 1819 3084 
Q 2600 3084 3056 2656 
Q 3513 2228 3513 1497 
Q 3513 744 3044 326 
Q 2575 -91 1722 -91 
Q 1428 -91 1123 -41 
Q 819 9 494 109 
L 494 744 
Q 775 591 1075 516 
Q 1375 441 1709 441 
Q 2250 441 2565 725 
Q 2881 1009 2881 1497 
Q 2881 1984 2565 2268 
Q 2250 2553 1709 2553 
Q 1456 2553 1204 2497 
Q 953 2441 691 2322 
L 691 4666 
z
" transform="scale(0.015625)"/>
        <path id="DejaVuSans-2e" d="M 684 794 
L 1344 794 
L 1344 0 
L 684 0 
L 684 794 
z
" transform="scale(0.015625)"/>
        <path id="DejaVuSans-32" d="M 1228 531 
L 3431 531 
L 3431 0 
L 469 0 
L 469 531 
Q 828 903 1448 1529 
Q 2069 2156 2228 2338 
Q 2531 2678 2651 2914 
Q 2772 3150 2772 3378 
Q 2772 3750 2511 3984 
Q 2250 4219 1831 4219 
Q 1534 4219 1204 4116 
Q 875 4013 500 3803 
L 500 4441 
Q 881 4594 1212 4672 
Q 1544 4750 1819 4750 
Q 2544 4750 2975 4387 
Q 3406 4025 3406 3419 
Q 3406 3131 3298 2873 
Q 3191 2616 2906 2266 
Q 2828 2175 2409 1742 
Q 1991 1309 1228 531 
z
" transform="scale(0.015625)"/>
       </defs>
       <use xlink:href="#DejaVuSans-35"/>
       <use xlink:href="#DejaVuSans-2e" x="63.623047"/>
       <use xlink:href="#DejaVuSans-32" x="95.410156"/>
       <use xlink:href="#DejaVuSans-35" x="159.033203"/>
      </g>
     </g>
    </g>
    <g id="xtick_2">
     <g id="line2d_2">
      <g>
       <use xlink:href="#mfcb482d022" x="112.659744" y="240.703856" style="stroke: #000000; stroke-width: 0.8"/>
      </g>
     </g>
     <g id="text_2">
      <!-- 5.50 -->
      <g transform="translate(101.526931 255.302293) scale(0.1 -0.1)">
       <defs>
        <path id="DejaVuSans-30" d="M 2034 4250 
Q 1547 4250 1301 3770 
Q 1056 3291 1056 2328 
Q 1056 1369 1301 889 
Q 1547 409 2034 409 
Q 2525 409 2770 889 
Q 3016 1369 3016 2328 
Q 3016 3291 2770 3770 
Q 2525 4250 2034 4250 
z
M 2034 4750 
Q 2819 4750 3233 4129 
Q 3647 3509 3647 2328 
Q 3647 1150 3233 529 
Q 2819 -91 2034 -91 
Q 1250 -91 836 529 
Q 422 1150 422 2328 
Q 422 3509 836 4129 
Q 1250 4750 2034 4750 
z
" transform="scale(0.015625)"/>
       </defs>
       <use xlink:href="#DejaVuSans-35"/>
       <use xlink:href="#DejaVuSans-2e" x="63.623047"/>
       <use xlink:href="#DejaVuSans-35" x="95.410156"/>
       <use xlink:href="#DejaVuSans-30" x="159.033203"/>
      </g>
     </g>
    </g>
    <g id="xtick_3">
     <g id="line2d_3">
      <g>
       <use xlink:href="#mfcb482d022" x="161.253308" y="240.703856" style="stroke: #000000; stroke-width: 0.8"/>
      </g>
     </g>
     <g id="text_3">
      <!-- 5.75 -->
      <g transform="translate(150.120495 255.302293) scale(0.1 -0.1)">
       <defs>
        <path id="DejaVuSans-37" d="M 525 4666 
L 3525 4666 
L 3525 4397 
L 1831 0 
L 1172 0 
L 2766 4134 
L 525 4134 
L 525 4666 
z
" transform="scale(0.015625)"/>
       </defs>
       <use xlink:href="#DejaVuSans-35"/>
       <use xlink:href="#DejaVuSans-2e" x="63.623047"/>
       <use xlink:href="#DejaVuSans-37" x="95.410156"/>
       <use xlink:href="#DejaVuSans-35" x="159.033203"/>
      </g>
     </g>
    </g>
    <g id="xtick_4">
     <g id="line2d_4">
      <g>
       <use xlink:href="#mfcb482d022" x="209.846871" y="240.703856" style="stroke: #000000; stroke-width: 0.8"/>
      </g>
     </g>
     <g id="text_4">
      <!-- 6.00 -->
      <g transform="translate(198.714059 255.302293) scale(0.1 -0.1)">
       <defs>
        <path id="DejaVuSans-36" d="M 2113 2584 
Q 1688 2584 1439 2293 
Q 1191 2003 1191 1497 
Q 1191 994 1439 701 
Q 1688 409 2113 409 
Q 2538 409 2786 701 
Q 3034 994 3034 1497 
Q 3034 2003 2786 2293 
Q 2538 2584 2113 2584 
z
M 3366 4563 
L 3366 3988 
Q 3128 4100 2886 4159 
Q 2644 4219 2406 4219 
Q 1781 4219 1451 3797 
Q 1122 3375 1075 2522 
Q 1259 2794 1537 2939 
Q 1816 3084 2150 3084 
Q 2853 3084 3261 2657 
Q 3669 2231 3669 1497 
Q 3669 778 3244 343 
Q 2819 -91 2113 -91 
Q 1303 -91 875 529 
Q 447 1150 447 2328 
Q 447 3434 972 4092 
Q 1497 4750 2381 4750 
Q 2619 4750 2861 4703 
Q 3103 4656 3366 4563 
z
" transform="scale(0.015625)"/>
       </defs>
       <use xlink:href="#DejaVuSans-36"/>
       <use xlink:href="#DejaVuSans-2e" x="63.623047"/>
       <use xlink:href="#DejaVuSans-30" x="95.410156"/>
       <use xlink:href="#DejaVuSans-30" x="159.033203"/>
      </g>
     </g>
    </g>
    <g id="xtick_5">
     <g id="line2d_5">
      <g>
       <use xlink:href="#mfcb482d022" x="258.440435" y="240.703856" style="stroke: #000000; stroke-width: 0.8"/>
      </g>
     </g>
     <g id="text_5">
      <!-- 6.25 -->
      <g transform="translate(247.307622 255.302293) scale(0.1 -0.1)">
       <use xlink:href="#DejaVuSans-36"/>
       <use xlink:href="#DejaVuSans-2e" x="63.623047"/>
       <use xlink:href="#DejaVuSans-32" x="95.410156"/>
       <use xlink:href="#DejaVuSans-35" x="159.033203"/>
      </g>
     </g>
    </g>
    <g id="xtick_6">
     <g id="line2d_6">
      <g>
       <use xlink:href="#mfcb482d022" x="307.033999" y="240.703856" style="stroke: #000000; stroke-width: 0.8"/>
      </g>
     </g>
     <g id="text_6">
      <!-- 6.50 -->
      <g transform="translate(295.901186 255.302293) scale(0.1 -0.1)">
       <use xlink:href="#DejaVuSans-36"/>
       <use xlink:href="#DejaVuSans-2e" x="63.623047"/>
       <use xlink:href="#DejaVuSans-35" x="95.410156"/>
       <use xlink:href="#DejaVuSans-30" x="159.033203"/>
      </g>
     </g>
    </g>
    <g id="xtick_7">
     <g id="line2d_7">
      <g>
       <use xlink:href="#mfcb482d022" x="355.627562" y="240.703856" style="stroke: #000000; stroke-width: 0.8"/>
      </g>
     </g>
     <g id="text_7">
      <!-- 6.75 -->
      <g transform="translate(344.49475 255.302293) scale(0.1 -0.1)">
       <use xlink:href="#DejaVuSans-36"/>
       <use xlink:href="#DejaVuSans-2e" x="63.623047"/>
       <use xlink:href="#DejaVuSans-37" x="95.410156"/>
       <use xlink:href="#DejaVuSans-35" x="159.033203"/>
      </g>
     </g>
    </g>
    <g id="xtick_8">
     <g id="line2d_8">
      <g>
       <use xlink:href="#mfcb482d022" x="404.221126" y="240.703856" style="stroke: #000000; stroke-width: 0.8"/>
      </g>
     </g>
     <g id="text_8">
      <!-- 7.00 -->
      <g transform="translate(393.088313 255.302293) scale(0.1 -0.1)">
       <use xlink:href="#DejaVuSans-37"/>
       <use xlink:href="#DejaVuSans-2e" x="63.623047"/>
       <use xlink:href="#DejaVuSans-30" x="95.410156"/>
       <use xlink:href="#DejaVuSans-30" x="159.033203"/>
      </g>
     </g>
    </g>
    <g id="text_9">
     <!-- wavelength [Å] -->
     <g transform="translate(194.093125 270.664793) scale(0.1 -0.1)">
      <defs>
       <path id="DejaVuSans-77" d="M 269 3500 
L 844 3500 
L 1563 769 
L 2278 3500 
L 2956 3500 
L 3675 769 
L 4391 3500 
L 4966 3500 
L 4050 0 
L 3372 0 
L 2619 2869 
L 1863 0 
L 1184 0 
L 269 3500 
z
" transform="scale(0.015625)"/>
       <path id="DejaVuSans-61" d="M 2194 1759 
Q 1497 1759 1228 1600 
Q 959 1441 959 1056 
Q 959 750 1161 570 
Q 1363 391 1709 391 
Q 2188 391 2477 730 
Q 2766 1069 2766 1631 
L 2766 1759 
L 2194 1759 
z
M 3341 1997 
L 3341 0 
L 2766 0 
L 2766 531 
Q 2569 213 2275 61 
Q 1981 -91 1556 -91 
Q 1019 -91 701 211 
Q 384 513 384 1019 
Q 384 1609 779 1909 
Q 1175 2209 1959 2209 
L 2766 2209 
L 2766 2266 
Q 2766 2663 2505 2880 
Q 2244 3097 1772 3097 
Q 1472 3097 1187 3025 
Q 903 2953 641 2809 
L 641 3341 
Q 956 3463 1253 3523 
Q 1550 3584 1831 3584 
Q 2591 3584 2966 3190 
Q 3341 2797 3341 1997 
z
" transform="scale(0.015625)"/>
       <path id="DejaVuSans-76" d="M 191 3500 
L 800 3500 
L 1894 563 
L 2988 3500 
L 3597 3500 
L 2284 0 
L 1503 0 
L 191 3500 
z
" transform="scale(0.015625)"/>
       <path id="DejaVuSans-65" d="M 3597 1894 
L 3597 1613 
L 953 1613 
Q 991 1019 1311 708 
Q 1631 397 2203 397 
Q 2534 397 2845 478 
Q 3156 559 3463 722 
L 3463 178 
Q 3153 47 2828 -22 
Q 2503 -91 2169 -91 
Q 1331 -91 842 396 
Q 353 884 353 1716 
Q 353 2575 817 3079 
Q 1281 3584 2069 3584 
Q 2775 3584 3186 3129 
Q 3597 2675 3597 1894 
z
M 3022 2063 
Q 3016 2534 2758 2815 
Q 2500 3097 2075 3097 
Q 1594 3097 1305 2825 
Q 1016 2553 972 2059 
L 3022 2063 
z
" transform="scale(0.015625)"/>
       <path id="DejaVuSans-6c" d="M 603 4863 
L 1178 4863 
L 1178 0 
L 603 0 
L 603 4863 
z
" transform="scale(0.015625)"/>
       <path id="DejaVuSans-6e" d="M 3513 2113 
L 3513 0 
L 2938 0 
L 2938 2094 
Q 2938 2591 2744 2837 
Q 2550 3084 2163 3084 
Q 1697 3084 1428 2787 
Q 1159 2491 1159 1978 
L 1159 0 
L 581 0 
L 581 3500 
L 1159 3500 
L 1159 2956 
Q 1366 3272 1645 3428 
Q 1925 3584 2291 3584 
Q 2894 3584 3203 3211 
Q 3513 2838 3513 2113 
z
" transform="scale(0.015625)"/>
       <path id="DejaVuSans-67" d="M 2906 1791 
Q 2906 2416 2648 2759 
Q 2391 3103 1925 3103 
Q 1463 3103 1205 2759 
Q 947 2416 947 1791 
Q 947 1169 1205 825 
Q 1463 481 1925 481 
Q 2391 481 2648 825 
Q 2906 1169 2906 1791 
z
M 3481 434 
Q 3481 -459 3084 -895 
Q 2688 -1331 1869 -1331 
Q 1566 -1331 1297 -1286 
Q 1028 -1241 775 -1147 
L 775 -588 
Q 1028 -725 1275 -790 
Q 1522 -856 1778 -856 
Q 2344 -856 2625 -561 
Q 2906 -266 2906 331 
L 2906 616 
Q 2728 306 2450 153 
Q 2172 0 1784 0 
Q 1141 0 747 490 
Q 353 981 353 1791 
Q 353 2603 747 3093 
Q 1141 3584 1784 3584 
Q 2172 3584 2450 3431 
Q 2728 3278 2906 2969 
L 2906 3500 
L 3481 3500 
L 3481 434 
z
" transform="scale(0.015625)"/>
       <path id="DejaVuSans-74" d="M 1172 4494 
L 1172 3500 
L 2356 3500 
L 2356 3053 
L 1172 3053 
L 1172 1153 
Q 1172 725 1289 603 
Q 1406 481 1766 481 
L 2356 481 
L 2356 0 
L 1766 0 
Q 1100 0 847 248 
Q 594 497 594 1153 
L 594 3053 
L 172 3053 
L 172 3500 
L 594 3500 
L 594 4494 
L 1172 4494 
z
" transform="scale(0.015625)"/>
       <path id="DejaVuSans-68" d="M 3513 2113 
L 3513 0 
L 2938 0 
L 2938 2094 
Q 2938 2591 2744 2837 
Q 2550 3084 2163 3084 
Q 1697 3084 1428 2787 
Q 1159 2491 1159 1978 
L 1159 0 
L 581 0 
L 581 4863 
L 1159 4863 
L 1159 2956 
Q 1366 3272 1645 3428 
Q 1925 3584 2291 3584 
Q 2894 3584 3203 3211 
Q 3513 2838 3513 2113 
z
" transform="scale(0.015625)"/>
       <path id="DejaVuSans-20" transform="scale(0.015625)"/>
       <path id="DejaVuSans-5b" d="M 550 4863 
L 1875 4863 
L 1875 4416 
L 1125 4416 
L 1125 -397 
L 1875 -397 
L 1875 -844 
L 550 -844 
L 550 4863 
z
" transform="scale(0.015625)"/>
       <path id="DejaVuSans-c5" d="M 2663 5081 
Q 2663 5278 2523 5417 
Q 2384 5556 2188 5556 
Q 1988 5556 1852 5420 
Q 1716 5284 1716 5081 
Q 1716 4884 1853 4746 
Q 1991 4609 2188 4609 
Q 2384 4609 2523 4746 
Q 2663 4884 2663 5081 
z
M 2188 4044 
L 1338 1722 
L 3041 1722 
L 2188 4044 
z
M 1716 4366 
Q 1525 4494 1428 4673 
Q 1331 4853 1331 5081 
Q 1331 5441 1579 5691 
Q 1828 5941 2188 5941 
Q 2544 5941 2795 5689 
Q 3047 5438 3047 5081 
Q 3047 4863 2948 4678 
Q 2850 4494 2663 4366 
L 4325 0 
L 3669 0 
L 3244 1197 
L 1141 1197 
L 716 0 
L 50 0 
L 1716 4366 
z
" transform="scale(0.015625)"/>
       <path id="DejaVuSans-5d" d="M 1947 4863 
L 1947 -844 
L 622 -844 
L 622 -397 
L 1369 -397 
L 1369 4416 
L 622 4416 
L 622 4863 
L 1947 4863 
z
" transform="scale(0.015625)"/>
      </defs>
      <use xlink:href="#DejaVuSans-77"/>
      <use xlink:href="#DejaVuSans-61" x="81.787109"/>
      <use xlink:href="#DejaVuSans-76" x="143.066406"/>
      <use xlink:href="#DejaVuSans-65" x="202.246094"/>
      <use xlink:href="#DejaVuSans-6c" x="263.769531"/>
      <use xlink:href="#DejaVuSans-65" x="291.552734"/>
      <use xlink:href="#DejaVuSans-6e" x="353.076172"/>
      <use xlink:href="#DejaVuSans-67" x="416.455078"/>
      <use xlink:href="#DejaVuSans-74" x="479.931641"/>
      <use xlink:href="#DejaVuSans-68" x="519.140625"/>
      <use xlink:href="#DejaVuSans-20" x="582.519531"/>
      <use xlink:href="#DejaVuSans-5b" x="614.306641"/>
      <use xlink:href="#DejaVuSans-c5" x="653.320312"/>
      <use xlink:href="#DejaVuSans-5d" x="721.728516"/>
     </g>
    </g>
   </g>
   <g id="matplotlib.axis_2">
    <g id="ytick_1">
     <g id="line2d_9">
      <defs>
       <path id="m144eda4eef" d="M 0 0 
L -3.5 0 
" style="stroke: #000000; stroke-width: 0.8"/>
      </defs>
      <g>
       <use xlink:href="#m144eda4eef" x="46.965625" y="230.105553" style="stroke: #000000; stroke-width: 0.8"/>
      </g>
     </g>
     <g id="text_10">
      <!-- 0 -->
      <g transform="translate(33.603125 233.904772) scale(0.1 -0.1)">
       <use xlink:href="#DejaVuSans-30"/>
      </g>
     </g>
    </g>
    <g id="ytick_2">
     <g id="line2d_10">
      <g>
       <use xlink:href="#m144eda4eef" x="46.965625" y="193.58783" style="stroke: #000000; stroke-width: 0.8"/>
      </g>
     </g>
     <g id="text_11">
      <!-- 100 -->
      <g transform="translate(20.878125 197.387049) scale(0.1 -0.1)">
       <defs>
        <path id="DejaVuSans-31" d="M 794 531 
L 1825 531 
L 1825 4091 
L 703 3866 
L 703 4441 
L 1819 4666 
L 2450 4666 
L 2450 531 
L 3481 531 
L 3481 0 
L 794 0 
L 794 531 
z
" transform="scale(0.015625)"/>
       </defs>
       <use xlink:href="#DejaVuSans-31"/>
       <use xlink:href="#DejaVuSans-30" x="63.623047"/>
       <use xlink:href="#DejaVuSans-30" x="127.246094"/>
      </g>
     </g>
    </g>
    <g id="ytick_3">
     <g id="line2d_11">
      <g>
       <use xlink:href="#m144eda4eef" x="46.965625" y="157.070108" style="stroke: #000000; stroke-width: 0.8"/>
      </g>
     </g>
     <g id="text_12">
      <!-- 200 -->
      <g transform="translate(20.878125 160.869327) scale(0.1 -0.1)">
       <use xlink:href="#DejaVuSans-32"/>
       <use xlink:href="#DejaVuSans-30" x="63.623047"/>
       <use xlink:href="#DejaVuSans-30" x="127.246094"/>
      </g>
     </g>
    </g>
    <g id="ytick_4">
     <g id="line2d_12">
      <g>
       <use xlink:href="#m144eda4eef" x="46.965625" y="120.552386" style="stroke: #000000; stroke-width: 0.8"/>
      </g>
     </g>
     <g id="text_13">
      <!-- 300 -->
      <g transform="translate(20.878125 124.351605) scale(0.1 -0.1)">
       <defs>
        <path id="DejaVuSans-33" d="M 2597 2516 
Q 3050 2419 3304 2112 
Q 3559 1806 3559 1356 
Q 3559 666 3084 287 
Q 2609 -91 1734 -91 
Q 1441 -91 1130 -33 
Q 819 25 488 141 
L 488 750 
Q 750 597 1062 519 
Q 1375 441 1716 441 
Q 2309 441 2620 675 
Q 2931 909 2931 1356 
Q 2931 1769 2642 2001 
Q 2353 2234 1838 2234 
L 1294 2234 
L 1294 2753 
L 1863 2753 
Q 2328 2753 2575 2939 
Q 2822 3125 2822 3475 
Q 2822 3834 2567 4026 
Q 2313 4219 1838 4219 
Q 1578 4219 1281 4162 
Q 984 4106 628 3988 
L 628 4550 
Q 988 4650 1302 4700 
Q 1616 4750 1894 4750 
Q 2613 4750 3031 4423 
Q 3450 4097 3450 3541 
Q 3450 3153 3228 2886 
Q 3006 2619 2597 2516 
z
" transform="scale(0.015625)"/>
       </defs>
       <use xlink:href="#DejaVuSans-33"/>
       <use xlink:href="#DejaVuSans-30" x="63.623047"/>
       <use xlink:href="#DejaVuSans-30" x="127.246094"/>
      </g>
     </g>
    </g>
    <g id="ytick_5">
     <g id="line2d_13">
      <g>
       <use xlink:href="#m144eda4eef" x="46.965625" y="84.034663" style="stroke: #000000; stroke-width: 0.8"/>
      </g>
     </g>
     <g id="text_14">
      <!-- 400 -->
      <g transform="translate(20.878125 87.833882) scale(0.1 -0.1)">
       <defs>
        <path id="DejaVuSans-34" d="M 2419 4116 
L 825 1625 
L 2419 1625 
L 2419 4116 
z
M 2253 4666 
L 3047 4666 
L 3047 1625 
L 3713 1625 
L 3713 1100 
L 3047 1100 
L 3047 0 
L 2419 0 
L 2419 1100 
L 313 1100 
L 313 1709 
L 2253 4666 
z
" transform="scale(0.015625)"/>
       </defs>
       <use xlink:href="#DejaVuSans-34"/>
       <use xlink:href="#DejaVuSans-30" x="63.623047"/>
       <use xlink:href="#DejaVuSans-30" x="127.246094"/>
      </g>
     </g>
    </g>
    <g id="ytick_6">
     <g id="line2d_14">
      <g>
       <use xlink:href="#m144eda4eef" x="46.965625" y="47.516941" style="stroke: #000000; stroke-width: 0.8"/>
      </g>
     </g>
     <g id="text_15">
      <!-- 500 -->
      <g transform="translate(20.878125 51.31616) scale(0.1 -0.1)">
       <use xlink:href="#DejaVuSans-35"/>
       <use xlink:href="#DejaVuSans-30" x="63.623047"/>
       <use xlink:href="#DejaVuSans-30" x="127.246094"/>
      </g>
     </g>
    </g>
    <g id="ytick_7">
     <g id="line2d_15">
      <g>
       <use xlink:href="#m144eda4eef" x="46.965625" y="10.999219" style="stroke: #000000; stroke-width: 0.8"/>
      </g>
     </g>
     <g id="text_16">
      <!-- 600 -->
      <g transform="translate(20.878125 14.798438) scale(0.1 -0.1)">
       <use xlink:href="#DejaVuSans-36"/>
       <use xlink:href="#DejaVuSans-30" x="63.623047"/>
       <use xlink:href="#DejaVuSans-30" x="127.246094"/>
      </g>
     </g>
    </g>
    <g id="text_17">
     <!-- [counts] -->
     <g transform="translate(14.798437 144.735022) rotate(-90) scale(0.1 -0.1)">
      <defs>
       <path id="DejaVuSans-63" d="M 3122 3366 
L 3122 2828 
Q 2878 2963 2633 3030 
Q 2388 3097 2138 3097 
Q 1578 3097 1268 2742 
Q 959 2388 959 1747 
Q 959 1106 1268 751 
Q 1578 397 2138 397 
Q 2388 397 2633 464 
Q 2878 531 3122 666 
L 3122 134 
Q 2881 22 2623 -34 
Q 2366 -91 2075 -91 
Q 1284 -91 818 406 
Q 353 903 353 1747 
Q 353 2603 823 3093 
Q 1294 3584 2113 3584 
Q 2378 3584 2631 3529 
Q 2884 3475 3122 3366 
z
" transform="scale(0.015625)"/>
       <path id="DejaVuSans-6f" d="M 1959 3097 
Q 1497 3097 1228 2736 
Q 959 2375 959 1747 
Q 959 1119 1226 758 
Q 1494 397 1959 397 
Q 2419 397 2687 759 
Q 2956 1122 2956 1747 
Q 2956 2369 2687 2733 
Q 2419 3097 1959 3097 
z
M 1959 3584 
Q 2709 3584 3137 3096 
Q 3566 2609 3566 1747 
Q 3566 888 3137 398 
Q 2709 -91 1959 -91 
Q 1206 -91 779 398 
Q 353 888 353 1747 
Q 353 2609 779 3096 
Q 1206 3584 1959 3584 
z
" transform="scale(0.015625)"/>
       <path id="DejaVuSans-75" d="M 544 1381 
L 544 3500 
L 1119 3500 
L 1119 1403 
Q 1119 906 1312 657 
Q 1506 409 1894 409 
Q 2359 409 2629 706 
Q 2900 1003 2900 1516 
L 2900 3500 
L 3475 3500 
L 3475 0 
L 2900 0 
L 2900 538 
Q 2691 219 2414 64 
Q 2138 -91 1772 -91 
Q 1169 -91 856 284 
Q 544 659 544 1381 
z
M 1991 3584 
L 1991 3584 
z
" transform="scale(0.015625)"/>
       <path id="DejaVuSans-73" d="M 2834 3397 
L 2834 2853 
Q 2591 2978 2328 3040 
Q 2066 3103 1784 3103 
Q 1356 3103 1142 2972 
Q 928 2841 928 2578 
Q 928 2378 1081 2264 
Q 1234 2150 1697 2047 
L 1894 2003 
Q 2506 1872 2764 1633 
Q 3022 1394 3022 966 
Q 3022 478 2636 193 
Q 2250 -91 1575 -91 
Q 1294 -91 989 -36 
Q 684 19 347 128 
L 347 722 
Q 666 556 975 473 
Q 1284 391 1588 391 
Q 1994 391 2212 530 
Q 2431 669 2431 922 
Q 2431 1156 2273 1281 
Q 2116 1406 1581 1522 
L 1381 1569 
Q 847 1681 609 1914 
Q 372 2147 372 2553 
Q 372 3047 722 3315 
Q 1072 3584 1716 3584 
Q 2034 3584 2315 3537 
Q 2597 3491 2834 3397 
z
" transform="scale(0.015625)"/>
      </defs>
      <use xlink:href="#DejaVuSans-5b"/>
      <use xlink:href="#DejaVuSans-63" x="39.013672"/>
      <use xlink:href="#DejaVuSans-6f" x="93.994141"/>
      <use xlink:href="#DejaVuSans-75" x="155.175781"/>
      <use xlink:href="#DejaVuSans-6e" x="218.554688"/>
      <use xlink:href="#DejaVuSans-74" x="281.933594"/>
      <use xlink:href="#DejaVuSans-73" x="321.142578"/>
      <use xlink:href="#DejaVuSans-5d" x="373.242188"/>
     </g>
    </g>
   </g>
   <g id="patch_3">
    <path d="M 46.965625 240.703856 
L 46.965625 7.541187 
" style="fill: none; stroke: #000000; stroke-width: 0.8; stroke-linejoin: miter; stroke-linecap: square"/>
   </g>
   <g id="patch_4">
    <path d="M 417.295625 240.703856 
L 417.295625 7.541187 
" style="fill: none; stroke: #000000; stroke-width: 0.8; stroke-linejoin: miter; stroke-linecap: square"/>
   </g>
   <g id="patch_5">
    <path d="M 46.965625 240.703856 
L 417.295625 240.703856 
" style="fill: none; stroke: #000000; stroke-width: 0.8; stroke-linejoin: miter; stroke-linecap: square"/>
   </g>
   <g id="patch_6">
    <path d="M 46.965625 7.541187 
L 417.295625 7.541187 
" style="fill: none; stroke: #000000; stroke-width: 0.8; stroke-linejoin: miter; stroke-linecap: square"/>
   </g>
   <g id="line2d_16">
    <path d="M 63.798807 227.248204 
L 65.482125 227.248204 
L 65.482125 212.906917 
L 67.165443 212.906917 
L 67.165443 182.326309 
L 68.848761 182.326309 
L 68.848761 183.411025 
L 70.53208 183.411025 
L 70.53208 140.797451 
L 72.215398 140.797451 
L 72.215398 114.709655 
L 73.898716 114.709655 
L 73.898716 102.926185 
L 75.582034 102.926185 
L 75.582034 66.57644 
L 77.265352 66.57644 
L 77.265352 91.309578 
L 78.94867 91.309578 
L 78.94867 43.420341 
L 80.631989 43.420341 
L 80.631989 37.954637 
L 82.315307 37.954637 
L 82.315307 26.245463 
L 83.998625 26.245463 
L 83.998625 26.624607 
L 85.681943 26.624607 
L 85.681943 45.325816 
L 87.365261 45.325816 
L 87.365261 18.13949 
L 89.04858 18.13949 
L 89.04858 68.675135 
L 90.731898 68.675135 
L 90.731898 60.226482 
L 92.415216 60.226482 
L 92.415216 40.567753 
L 94.098534 40.567753 
L 94.098534 39.615547 
L 95.781852 39.615547 
L 95.781852 49.023447 
L 97.46517 49.023447 
L 97.46517 31.863013 
L 99.148489 31.863013 
L 99.148489 41.197448 
L 100.831807 41.197448 
L 100.831807 61.120948 
L 102.515125 61.120948 
L 102.515125 56.366316 
L 104.198443 56.366316 
L 104.198443 19.439918 
L 105.881761 19.439918 
L 105.881761 34.179103 
L 107.56508 34.179103 
L 107.56508 57.823848 
L 109.248398 57.823848 
L 109.248398 32.740549 
L 110.931716 32.740549 
L 110.931716 32.320531 
L 112.615034 32.320531 
L 112.615034 62.109549 
L 114.298352 62.109549 
L 114.298352 51.523537 
L 115.98167 51.523537 
L 115.98167 41.505357 
L 117.664989 41.505357 
L 117.664989 53.487182 
L 119.348307 53.487182 
L 119.348307 34.454813 
L 121.031625 34.454813 
L 121.031625 58.6806 
L 122.714943 58.6806 
L 122.714943 44.133144 
L 124.398261 44.133144 
L 124.398261 59.741571 
L 126.08158 59.741571 
L 126.08158 55.092051 
L 127.764898 55.092051 
L 127.764898 48.986403 
L 129.448216 48.986403 
L 129.448216 43.942452 
L 131.131534 43.942452 
L 131.131534 69.810084 
L 132.814852 69.810084 
L 132.814852 61.942243 
L 134.49817 61.942243 
L 134.49817 52.019185 
L 136.181489 52.019185 
L 136.181489 66.705958 
L 137.864807 66.705958 
L 137.864807 60.514993 
L 139.548125 60.514993 
L 139.548125 38.55532 
L 141.231443 38.55532 
L 141.231443 47.927227 
L 142.914761 47.927227 
L 142.914761 84.031305 
L 144.59808 84.031305 
L 144.59808 55.733922 
L 146.281398 55.733922 
L 146.281398 67.035847 
L 147.964716 67.035847 
L 147.964716 54.64741 
L 149.648034 54.64741 
L 149.648034 65.023818 
L 151.331352 65.023818 
L 151.331352 60.680319 
L 153.01467 60.680319 
L 153.01467 45.494426 
L 154.697989 45.494426 
L 154.697989 87.355726 
L 156.381307 87.355726 
L 156.381307 56.495504 
L 158.064625 56.495504 
L 158.064625 82.180316 
L 159.747943 82.180316 
L 159.747943 47.562194 
L 161.431261 47.562194 
L 161.431261 68.015979 
L 163.11458 68.015979 
L 163.11458 82.896922 
L 164.797898 82.896922 
L 164.797898 58.493672 
L 166.481216 58.493672 
L 166.481216 65.792731 
L 168.164534 65.792731 
L 168.164534 75.040496 
L 169.847852 75.040496 
L 169.847852 76.708457 
L 171.53117 76.708457 
L 171.53117 90.56198 
L 173.214489 90.56198 
L 173.214489 105.510817 
L 174.897807 105.510817 
L 174.897807 70.39645 
L 176.581125 70.39645 
L 176.581125 69.953491 
L 178.264443 69.953491 
L 178.264443 94.29416 
L 179.947761 94.29416 
L 179.947761 75.851093 
L 181.63108 75.851093 
L 181.63108 87.392091 
L 183.314398 87.392091 
L 183.314398 83.863297 
L 184.997716 83.863297 
L 184.997716 102.376823 
L 186.681034 102.376823 
L 186.681034 70.955954 
L 188.364352 70.955954 
L 188.364352 90.116297 
L 190.04767 90.116297 
L 190.04767 79.570434 
L 191.730989 79.570434 
L 191.730989 94.626145 
L 193.414307 94.626145 
L 193.414307 99.458373 
L 195.097625 99.458373 
L 195.097625 73.701703 
L 196.780943 73.701703 
L 196.780943 98.283704 
L 198.464261 98.283704 
L 198.464261 92.724374 
L 200.14758 92.724374 
L 200.14758 107.745132 
L 201.830898 107.745132 
L 201.830898 102.682155 
L 203.514216 102.682155 
L 203.514216 88.591007 
L 205.197534 88.591007 
L 205.197534 62.429007 
L 206.880852 62.429007 
L 206.880852 80.35998 
L 208.56417 80.35998 
L 208.56417 84.927942 
L 210.247489 84.927942 
L 210.247489 55.16031 
L 211.930807 55.16031 
L 211.930807 95.540781 
L 213.614125 95.540781 
L 213.614125 87.435841 
L 215.297443 87.435841 
L 215.297443 75.297077 
L 216.980761 75.297077 
L 216.980761 76.917926 
L 218.66408 76.917926 
L 218.66408 83.423058 
L 220.347398 83.423058 
L 220.347398 92.137703 
L 222.030716 92.137703 
L 222.030716 80.55039 
L 223.714034 80.55039 
L 223.714034 82.871473 
L 225.397352 82.871473 
L 225.397352 76.846968 
L 227.08067 76.846968 
L 227.08067 51.910666 
L 228.763989 51.910666 
L 228.763989 88.376025 
L 230.447307 88.376025 
L 230.447307 85.539085 
L 232.130625 85.539085 
L 232.130625 87.902325 
L 233.813943 87.902325 
L 233.813943 90.454132 
L 235.497261 90.454132 
L 235.497261 87.285244 
L 237.18058 87.285244 
L 237.18058 78.427061 
L 238.863898 78.427061 
L 238.863898 92.157205 
L 240.547216 92.157205 
L 240.547216 83.600492 
L 242.230534 83.600492 
L 242.230534 78.999359 
L 243.913852 78.999359 
L 243.913852 72.751421 
L 245.59717 72.751421 
L 245.59717 95.619268 
L 247.280489 95.619268 
L 247.280489 100.786558 
L 248.963807 100.786558 
L 248.963807 112.171816 
L 250.647125 112.171816 
L 250.647125 91.811968 
L 252.330443 91.811968 
L 252.330443 86.052437 
L 254.013761 86.052437 
L 254.013761 89.89636 
L 255.69708 89.89636 
L 255.69708 112.694587 
L 257.380398 112.694587 
L 257.380398 79.146717 
L 259.063716 79.146717 
L 259.063716 102.244184 
L 260.747034 102.244184 
L 260.747034 91.687499 
L 262.430352 91.687499 
L 262.430352 110.475924 
L 264.11367 110.475924 
L 264.11367 111.876156 
L 265.796989 111.876156 
L 265.796989 98.909097 
L 267.480307 98.909097 
L 267.480307 99.97158 
L 269.163625 99.97158 
L 269.163625 98.39981 
L 270.846943 98.39981 
L 270.846943 99.80059 
L 272.530261 99.80059 
L 272.530261 110.022429 
L 274.21358 110.022429 
L 274.21358 98.981369 
L 275.896898 98.981369 
L 275.896898 105.407316 
L 277.580216 105.407316 
L 277.580216 97.6543 
L 279.263534 97.6543 
L 279.263534 116.768529 
L 280.946852 116.768529 
L 280.946852 79.492095 
L 282.63017 79.492095 
L 282.63017 100.258391 
L 284.313489 100.258391 
L 284.313489 114.589244 
L 285.996807 114.589244 
L 285.996807 100.252621 
L 287.680125 100.252621 
L 287.680125 96.893454 
L 289.363443 96.893454 
L 289.363443 101.121277 
L 291.046761 101.121277 
L 291.046761 130.958656 
L 292.73008 130.958656 
L 292.73008 110.152966 
L 294.413398 110.152966 
L 294.413398 128.895157 
L 296.096716 128.895157 
L 296.096716 100.45669 
L 297.780034 100.45669 
L 297.780034 93.425857 
L 299.463352 93.425857 
L 299.463352 110.748747 
L 301.14667 110.748747 
L 301.14667 124.282099 
L 302.829989 124.282099 
L 302.829989 119.383666 
L 304.513307 119.383666 
L 304.513307 91.397091 
L 306.196625 91.397091 
L 306.196625 131.711469 
L 307.879943 131.711469 
L 307.879943 116.412857 
L 309.563261 116.412857 
L 309.563261 130.422081 
L 311.24658 130.422081 
L 311.24658 109.019798 
L 312.929898 109.019798 
L 312.929898 102.408579 
L 314.613216 102.408579 
L 314.613216 124.247661 
L 316.296534 124.247661 
L 316.296534 124.596017 
L 317.979852 124.596017 
L 317.979852 99.817139 
L 319.66317 99.817139 
L 319.66317 135.364668 
L 321.346489 135.364668 
L 321.346489 117.449506 
L 323.029807 117.449506 
L 323.029807 117.152523 
L 324.713125 117.152523 
L 324.713125 122.68435 
L 326.396443 122.68435 
L 326.396443 107.708129 
L 328.079761 107.708129 
L 328.079761 101.322845 
L 329.76308 101.322845 
L 329.76308 118.956688 
L 331.446398 118.956688 
L 331.446398 121.49348 
L 333.129716 121.49348 
L 333.129716 122.413616 
L 334.813034 122.413616 
L 334.813034 119.684368 
L 336.496352 119.684368 
L 336.496352 130.743764 
L 338.17967 130.743764 
L 338.17967 125.395497 
L 339.862989 125.395497 
L 339.862989 122.347214 
L 341.546307 122.347214 
L 341.546307 106.067981 
L 343.229625 106.067981 
L 343.229625 111.035725 
L 344.912943 111.035725 
L 344.912943 117.935868 
L 346.596261 117.935868 
L 346.596261 118.728359 
L 348.27958 118.728359 
L 348.27958 129.329785 
L 349.962898 129.329785 
L 349.962898 125.975411 
L 351.646216 125.975411 
L 351.646216 111.887915 
L 353.329534 111.887915 
L 353.329534 110.413748 
L 355.012852 110.413748 
L 355.012852 124.187456 
L 356.69617 124.187456 
L 356.69617 131.211214 
L 358.379489 131.211214 
L 358.379489 150.585468 
L 360.062807 150.585468 
L 360.062807 153.537304 
L 361.746125 153.537304 
L 361.746125 165.438632 
L 363.429443 165.438632 
L 363.429443 194.120161 
L 365.112761 194.120161 
L 365.112761 180.457137 
L 366.79608 180.457137 
L 366.79608 206.575556 
L 368.479398 206.575556 
L 368.479398 212.680718 
L 370.162716 212.680718 
L 370.162716 220.650867 
L 371.846034 220.650867 
L 371.846034 227.849937 
L 373.529352 227.849937 
L 373.529352 229.074796 
L 375.21267 229.074796 
L 375.21267 229.753077 
L 376.895989 229.753077 
L 376.895989 229.980355 
L 381.945943 230.088587 
L 381.945943 230.099069 
L 400.462443 230.105553 
L 400.462443 230.105553 
" clip-path="url(#pd449f3d01d)" style="fill: none; stroke: #1f77b4; stroke-width: 1.5; stroke-linecap: square"/>
   </g>
  </g>
 </g>
 <defs>
  <clipPath id="pd449f3d01d">
   <rect x="46.965625" y="7.541187" width="370.33" height="233.162669"/>
  </clipPath>
 </defs>
</svg>