<?xml version="1.0" encoding="utf-8" standalone="no"?>
<!DOCTYPE svg PUBLIC "-//W3C//DTD SVG 1.1//EN"
  "http://www.w3.org/Graphics/SVG/1.1/DTD/svg11.dtd">
<svg xmlns:xlink="http://www.w3.org/1999/xlink" width="388.965625pt" height="266.794375pt" viewBox="0 0 388.965625 266.794375" xmlns="http://www.w3.org/2000/svg" version="1.1">
 <metadata>
  <rdf:RDF xmlns:dc="http://purl.org/dc/elements/1.1/" xmlns:cc="http://creativecommons.org/ns#" xmlns:rdf="http://www.w3.org/1999/02/22-rdf-syntax-ns#">
   <cc:Work>
    <dc:type rdf:resource="http://purl.org/dc/dcmitype/StillImage"/>
    <dc:date>2025-07-31T09:51:58.950559</dc:date>
    <dc:format>image/svg+xml</dc:format>
    <dc:creator>
     <cc:Agent>
      <dc:title>Matplotlib v3.10.1, https://matplotlib.org/</dc:title>
     </cc:Agent>
    </dc:creator>
   </cc:Work>
  </rdf:RDF>
 </metadata>
 <defs>
  <style type="text/css">*{stroke-linejoin: round; stroke-linecap: butt}</style>
 </defs>
 <g id="figure_1">
  <g id="patch_1">
   <path d="M 0 266.794375 
L 388.965625 266.794375 
L 388.965625 0 
L 0 0 
z
" style="fill: #ffffff"/>
  </g>
  <g id="axes_1">
   <g id="patch_2">
    <path d="M 46.965625 228.96 
L 381.765625 228.96 
L 381.765625 7.2 
L 46.965625 7.2 
z
" style="fill: #ffffff"/>
   </g>
   <g id="matplotlib.axis_1">
    <g id="xtick_1">
     <g id="line2d_1">
      <defs>
       <path id="m33c2f6facb" d="M 0 0 
L 0 3.5 
" style="stroke: #000000; stroke-width: 0.8"/>
      </defs>
      <g>
       <use xlink:href="#m33c2f6facb" x="89.077886" y="228.96" style="stroke: #000000; stroke-width: 0.8"/>
      </g>
     </g>
     <g id="text_1">
      <!-- −0.0100 -->
      <g transform="translate(67.392729 243.558437) scale(0.1 -0.1)">
       <defs>
        <path id="DejaVuSans-2212" d="M 678 2272 
L 4684 2272 
L 4684 1741 
L 678 1741 
L 678 2272 
z
" transform="scale(0.015625)"/>
        <path id="DejaVuSans-30" d="M 2034 4250 
Q 1547 4250 1301 3770 
Q 1056 3291 1056 2328 
Q 1056 1369 1301 889 
Q 1547 409 2034 409 
Q 2525 409 2770 889 
Q 3016 1369 3016 2328 
Q 3016 3291 2770 3770 
Q 2525 4250 2034 4250 
z
M 2034 4750 
Q 2819 4750 3233 4129 
Q 3647 3509 3647 2328 
Q 3647 1150 3233 529 
Q 2819 -91 2034 -91 
Q 1250 -91 836 529 
Q 422 1150 422 2328 
Q 422 3509 836 4129 
Q 1250 4750 2034 4750 
z
" transform="scale(0.015625)"/>
        <path id="DejaVuSans-2e" d="M 684 794 
L 1344 794 
L 1344 0 
L 684 0 
L 684 794 
z
" transform="scale(0.015625)"/>
        <path id="DejaVuSans-31" d="M 794 531 
L 1825 531 
L 1825 4091 
L 703 3866 
L 703 4441 
L 1819 4666 
L 2450 4666 
L 2450 531 
L 3481 531 
L 3481 0 
L 794 0 
L 794 531 
z
" transform="scale(0.015625)"/>
       </defs>
       <use xlink:href="#DejaVuSans-2212"/>
       <use xlink:href="#DejaVuSans-30" transform="translate(83.789062 0)"/>
       <use xlink:href="#DejaVuSans-2e" transform="translate(147.412109 0)"/>
       <use xlink:href="#DejaVuSans-30" transform="translate(179.199219 0)"/>
       <use xlink:href="#DejaVuSans-31" transform="translate(242.822266 0)"/>
       <use xlink:href="#DejaVuSans-30" transform="translate(306.445312 0)"/>
       <use xlink:href="#DejaVuSans-30" transform="translate(370.068359 0)"/>
      </g>
     </g>
    </g>
    <g id="xtick_2">
     <g id="line2d_2">
      <g>
       <use xlink:href="#m33c2f6facb" x="131.246584" y="228.96" style="stroke: #000000; stroke-width: 0.8"/>
      </g>
     </g>
     <g id="text_2">
      <!-- −0.0075 -->
      <g transform="translate(109.561428 243.558437) scale(0.1 -0.1)">
       <defs>
        <path id="DejaVuSans-37" d="M 525 4666 
L 3525 4666 
L 3525 4397 
L 1831 0 
L 1172 0 
L 2766 4134 
L 525 4134 
L 525 4666 
z
" transform="scale(0.015625)"/>
        <path id="DejaVuSans-35" d="M 691 4666 
L 3169 4666 
L 3169 4134 
L 1269 4134 
L 1269 2991 
Q 1406 3038 1543 3061 
Q 1681 3084 1819 3084 
Q 2600 3084 3056 2656 
Q 3513 2228 3513 1497 
Q 3513 744 3044 326 
Q 2575 -91 1722 -91 
Q 1428 -91 1123 -41 
Q 819 9 494 109 
L 494 744 
Q 775 591 1075 516 
Q 1375 441 1709 441 
Q 2250 441 2565 725 
Q 2881 1009 2881 1497 
Q 2881 1984 2565 2268 
Q 2250 2553 1709 2553 
Q 1456 2553 1204 2497 
Q 953 2441 691 2322 
L 691 4666 
z
" transform="scale(0.015625)"/>
       </defs>
       <use xlink:href="#DejaVuSans-2212"/>
       <use xlink:href="#DejaVuSans-30" transform="translate(83.789062 0)"/>
       <use xlink:href="#DejaVuSans-2e" transform="translate(147.412109 0)"/>
       <use xlink:href="#DejaVuSans-30" transform="translate(179.199219 0)"/>
       <use xlink:href="#DejaVuSans-30" transform="translate(242.822266 0)"/>
       <use xlink:href="#DejaVuSans-37" transform="translate(306.445312 0)"/>
       <use xlink:href="#DejaVuSans-35" transform="translate(370.068359 0)"/>
      </g>
     </g>
    </g>
    <g id="xtick_3">
     <g id="line2d_3">
      <g>
       <use xlink:href="#m33c2f6facb" x="173.415283" y="228.96" style="stroke: #000000; stroke-width: 0.8"/>
      </g>
     </g>
     <g id="text_3">
      <!-- −0.0050 -->
      <g transform="translate(151.730127 243.558437) scale(0.1 -0.1)">
       <use xlink:href="#DejaVuSans-2212"/>
       <use xlink:href="#DejaVuSans-30" transform="translate(83.789062 0)"/>
       <use xlink:href="#DejaVuSans-2e" transform="translate(147.412109 0)"/>
       <use xlink:href="#DejaVuSans-30" transform="translate(179.199219 0)"/>
       <use xlink:href="#DejaVuSans-30" transform="translate(242.822266 0)"/>
       <use xlink:href="#DejaVuSans-35" transform="translate(306.445312 0)"/>
       <use xlink:href="#DejaVuSans-30" transform="translate(370.068359 0)"/>
      </g>
     </g>
    </g>
    <g id="xtick_4">
     <g id="line2d_4">
      <g>
       <use xlink:href="#m33c2f6facb" x="215.583981" y="228.96" style="stroke: #000000; stroke-width: 0.8"/>
      </g>
     </g>
     <g id="text_4">
      <!-- −0.0025 -->
      <g transform="translate(193.898825 243.558437) scale(0.1 -0.1)">
       <defs>
        <path id="DejaVuSans-32" d="M 1228 531 
L 3431 531 
L 3431 0 
L 469 0 
L 469 531 
Q 828 903 1448 1529 
Q 2069 2156 2228 2338 
Q 2531 2678 2651 2914 
Q 2772 3150 2772 3378 
Q 2772 3750 2511 3984 
Q 2250 4219 1831 4219 
Q 1534 4219 1204 4116 
Q 875 4013 500 3803 
L 500 4441 
Q 881 4594 1212 4672 
Q 1544 4750 1819 4750 
Q 2544 4750 2975 4387 
Q 3406 4025 3406 3419 
Q 3406 3131 3298 2873 
Q 3191 2616 2906 2266 
Q 2828 2175 2409 1742 
Q 1991 1309 1228 531 
z
" transform="scale(0.015625)"/>
       </defs>
       <use xlink:href="#DejaVuSans-2212"/>
       <use xlink:href="#DejaVuSans-30" transform="translate(83.789062 0)"/>
       <use xlink:href="#DejaVuSans-2e" transform="translate(147.412109 0)"/>
       <use xlink:href="#DejaVuSans-30" transform="translate(179.199219 0)"/>
       <use xlink:href="#DejaVuSans-30" transform="translate(242.822266 0)"/>
       <use xlink:href="#DejaVuSans-32" transform="translate(306.445312 0)"/>
       <use xlink:href="#DejaVuSans-35" transform="translate(370.068359 0)"/>
      </g>
     </g>
    </g>
    <g id="xtick_5">
     <g id="line2d_5">
      <g>
       <use xlink:href="#m33c2f6facb" x="257.75268" y="228.96" style="stroke: #000000; stroke-width: 0.8"/>
      </g>
     </g>
     <g id="text_5">
      <!-- 0.0000 -->
      <g transform="translate(240.257368 243.558437) scale(0.1 -0.1)">
       <use xlink:href="#DejaVuSans-30"/>
       <use xlink:href="#DejaVuSans-2e" transform="translate(63.623047 0)"/>
       <use xlink:href="#DejaVuSans-30" transform="translate(95.410156 0)"/>
       <use xlink:href="#DejaVuSans-30" transform="translate(159.033203 0)"/>
       <use xlink:href="#DejaVuSans-30" transform="translate(222.65625 0)"/>
       <use xlink:href="#DejaVuSans-30" transform="translate(286.279297 0)"/>
      </g>
     </g>
    </g>
    <g id="xtick_6">
     <g id="line2d_6">
      <g>
       <use xlink:href="#m33c2f6facb" x="299.921379" y="228.96" style="stroke: #000000; stroke-width: 0.8"/>
      </g>
     </g>
     <g id="text_6">
      <!-- 0.0025 -->
      <g transform="translate(282.426066 243.558437) scale(0.1 -0.1)">
       <use xlink:href="#DejaVuSans-30"/>
       <use xlink:href="#DejaVuSans-2e" transform="translate(63.623047 0)"/>
       <use xlink:href="#DejaVuSans-30" transform="translate(95.410156 0)"/>
       <use xlink:href="#DejaVuSans-30" transform="translate(159.033203 0)"/>
       <use xlink:href="#DejaVuSans-32" transform="translate(222.65625 0)"/>
       <use xlink:href="#DejaVuSans-35" transform="translate(286.279297 0)"/>
      </g>
     </g>
    </g>
    <g id="xtick_7">
     <g id="line2d_7">
      <g>
       <use xlink:href="#m33c2f6facb" x="342.090077" y="228.96" style="stroke: #000000; stroke-width: 0.8"/>
      </g>
     </g>
     <g id="text_7">
      <!-- 0.0050 -->
      <g transform="translate(324.594765 243.558437) scale(0.1 -0.1)">
       <use xlink:href="#DejaVuSans-30"/>
       <use xlink:href="#DejaVuSans-2e" transform="translate(63.623047 0)"/>
       <use xlink:href="#DejaVuSans-30" transform="translate(95.410156 0)"/>
       <use xlink:href="#DejaVuSans-30" transform="translate(159.033203 0)"/>
       <use xlink:href="#DejaVuSans-35" transform="translate(222.65625 0)"/>
       <use xlink:href="#DejaVuSans-30" transform="translate(286.279297 0)"/>
      </g>
     </g>
    </g>
    <g id="text_8">
     <!-- energy_transfer [meV] -->
     <g transform="translate(157.839063 257.236562) scale(0.1 -0.1)">
      <defs>
       <path id="DejaVuSans-65" d="M 3597 1894 
L 3597 1613 
L 953 1613 
Q 991 1019 1311 708 
Q 1631 397 2203 397 
Q 2534 397 2845 478 
Q 3156 559 3463 722 
L 3463 178 
Q 3153 47 2828 -22 
Q 2503 -91 2169 -91 
Q 1331 -91 842 396 
Q 353 884 353 1716 
Q 353 2575 817 3079 
Q 1281 3584 2069 3584 
Q 2775 3584 3186 3129 
Q 3597 2675 3597 1894 
z
M 3022 2063 
Q 3016 2534 2758 2815 
Q 2500 3097 2075 3097 
Q 1594 3097 1305 2825 
Q 1016 2553 972 2059 
L 3022 2063 
z
" transform="scale(0.015625)"/>
       <path id="DejaVuSans-6e" d="M 3513 2113 
L 3513 0 
L 2938 0 
L 2938 2094 
Q 2938 2591 2744 2837 
Q 2550 3084 2163 3084 
Q 1697 3084 1428 2787 
Q 1159 2491 1159 1978 
L 1159 0 
L 581 0 
L 581 3500 
L 1159 3500 
L 1159 2956 
Q 1366 3272 1645 3428 
Q 1925 3584 2291 3584 
Q 2894 3584 3203 3211 
Q 3513 2838 3513 2113 
z
" transform="scale(0.015625)"/>
       <path id="DejaVuSans-72" d="M 2631 2963 
Q 2534 3019 2420 3045 
Q 2306 3072 2169 3072 
Q 1681 3072 1420 2755 
Q 1159 2438 1159 1844 
L 1159 0 
L 581 0 
L 581 3500 
L 1159 3500 
L 1159 2956 
Q 1341 3275 1631 3429 
Q 1922 3584 2338 3584 
Q 2397 3584 2469 3576 
Q 2541 3569 2628 3553 
L 2631 2963 
z
" transform="scale(0.015625)"/>
       <path id="DejaVuSans-67" d="M 2906 1791 
Q 2906 2416 2648 2759 
Q 2391 3103 1925 3103 
Q 1463 3103 1205 2759 
Q 947 2416 947 1791 
Q 947 1169 1205 825 
Q 1463 481 1925 481 
Q 2391 481 2648 825 
Q 2906 1169 2906 1791 
z
M 3481 434 
Q 3481 -459 3084 -895 
Q 2688 -1331 1869 -1331 
Q 1566 -1331 1297 -1286 
Q 1028 -1241 775 -1147 
L 775 -588 
Q 1028 -725 1275 -790 
Q 1522 -856 1778 -856 
Q 2344 -856 2625 -561 
Q 2906 -266 2906 331 
L 2906 616 
Q 2728 306 2450 153 
Q 2172 0 1784 0 
Q 1141 0 747 490 
Q 353 981 353 1791 
Q 353 2603 747 3093 
Q 1141 3584 1784 3584 
Q 2172 3584 2450 3431 
Q 2728 3278 2906 2969 
L 2906 3500 
L 3481 3500 
L 3481 434 
z
" transform="scale(0.015625)"/>
       <path id="DejaVuSans-79" d="M 2059 -325 
Q 1816 -950 1584 -1140 
Q 1353 -1331 966 -1331 
L 506 -1331 
L 506 -850 
L 844 -850 
Q 1081 -850 1212 -737 
Q 1344 -625 1503 -206 
L 1606 56 
L 191 3500 
L 800 3500 
L 1894 763 
L 2988 3500 
L 3597 3500 
L 2059 -325 
z
" transform="scale(0.015625)"/>
       <path id="DejaVuSans-5f" d="M 3263 -1063 
L 3263 -1509 
L -63 -1509 
L -63 -1063 
L 3263 -1063 
z
" transform="scale(0.015625)"/>
       <path id="DejaVuSans-74" d="M 1172 4494 
L 1172 3500 
L 2356 3500 
L 2356 3053 
L 1172 3053 
L 1172 1153 
Q 1172 725 1289 603 
Q 1406 481 1766 481 
L 2356 481 
L 2356 0 
L 1766 0 
Q 1100 0 847 248 
Q 594 497 594 1153 
L 594 3053 
L 172 3053 
L 172 3500 
L 594 3500 
L 594 4494 
L 1172 4494 
z
" transform="scale(0.015625)"/>
       <path id="DejaVuSans-61" d="M 2194 1759 
Q 1497 1759 1228 1600 
Q 959 1441 959 1056 
Q 959 750 1161 570 
Q 1363 391 1709 391 
Q 2188 391 2477 730 
Q 2766 1069 2766 1631 
L 2766 1759 
L 2194 1759 
z
M 3341 1997 
L 3341 0 
L 2766 0 
L 2766 531 
Q 2569 213 2275 61 
Q 1981 -91 1556 -91 
Q 1019 -91 701 211 
Q 384 513 384 1019 
Q 384 1609 779 1909 
Q 1175 2209 1959 2209 
L 2766 2209 
L 2766 2266 
Q 2766 2663 2505 2880 
Q 2244 3097 1772 3097 
Q 1472 3097 1187 3025 
Q 903 2953 641 2809 
L 641 3341 
Q 956 3463 1253 3523 
Q 1550 3584 1831 3584 
Q 2591 3584 2966 3190 
Q 3341 2797 3341 1997 
z
" transform="scale(0.015625)"/>
       <path id="DejaVuSans-73" d="M 2834 3397 
L 2834 2853 
Q 2591 2978 2328 3040 
Q 2066 3103 1784 3103 
Q 1356 3103 1142 2972 
Q 928 2841 928 2578 
Q 928 2378 1081 2264 
Q 1234 2150 1697 2047 
L 1894 2003 
Q 2506 1872 2764 1633 
Q 3022 1394 3022 966 
Q 3022 478 2636 193 
Q 2250 -91 1575 -91 
Q 1294 -91 989 -36 
Q 684 19 347 128 
L 347 722 
Q 666 556 975 473 
Q 1284 391 1588 391 
Q 1994 391 2212 530 
Q 2431 669 2431 922 
Q 2431 1156 2273 1281 
Q 2116 1406 1581 1522 
L 1381 1569 
Q 847 1681 609 1914 
Q 372 2147 372 2553 
Q 372 3047 722 3315 
Q 1072 3584 1716 3584 
Q 2034 3584 2315 3537 
Q 2597 3491 2834 3397 
z
" transform="scale(0.015625)"/>
       <path id="DejaVuSans-66" d="M 2375 4863 
L 2375 4384 
L 1825 4384 
Q 1516 4384 1395 4259 
Q 1275 4134 1275 3809 
L 1275 3500 
L 2222 3500 
L 2222 3053 
L 1275 3053 
L 1275 0 
L 697 0 
L 697 3053 
L 147 3053 
L 147 3500 
L 697 3500 
L 697 3744 
Q 697 4328 969 4595 
Q 1241 4863 1831 4863 
L 2375 4863 
z
" transform="scale(0.015625)"/>
       <path id="DejaVuSans-20" transform="scale(0.015625)"/>
       <path id="DejaVuSans-5b" d="M 550 4863 
L 1875 4863 
L 1875 4416 
L 1125 4416 
L 1125 -397 
L 1875 -397 
L 1875 -844 
L 550 -844 
L 550 4863 
z
" transform="scale(0.015625)"/>
       <path id="DejaVuSans-6d" d="M 3328 2828 
Q 3544 3216 3844 3400 
Q 4144 3584 4550 3584 
Q 5097 3584 5394 3201 
Q 5691 2819 5691 2113 
L 5691 0 
L 5113 0 
L 5113 2094 
Q 5113 2597 4934 2840 
Q 4756 3084 4391 3084 
Q 3944 3084 3684 2787 
Q 3425 2491 3425 1978 
L 3425 0 
L 2847 0 
L 2847 2094 
Q 2847 2600 2669 2842 
Q 2491 3084 2119 3084 
Q 1678 3084 1418 2786 
Q 1159 2488 1159 1978 
L 1159 0 
L 581 0 
L 581 3500 
L 1159 3500 
L 1159 2956 
Q 1356 3278 1631 3431 
Q 1906 3584 2284 3584 
Q 2666 3584 2933 3390 
Q 3200 3197 3328 2828 
z
" transform="scale(0.015625)"/>
       <path id="DejaVuSans-56" d="M 1831 0 
L 50 4666 
L 709 4666 
L 2188 738 
L 3669 4666 
L 4325 4666 
L 2547 0 
L 1831 0 
z
" transform="scale(0.015625)"/>
       <path id="DejaVuSans-5d" d="M 1947 4863 
L 1947 -844 
L 622 -844 
L 622 -397 
L 1369 -397 
L 1369 4416 
L 622 4416 
L 622 4863 
L 1947 4863 
z
" transform="scale(0.015625)"/>
      </defs>
      <use xlink:href="#DejaVuSans-65"/>
      <use xlink:href="#DejaVuSans-6e" transform="translate(61.523438 0)"/>
      <use xlink:href="#DejaVuSans-65" transform="translate(124.902344 0)"/>
      <use xlink:href="#DejaVuSans-72" transform="translate(186.425781 0)"/>
      <use xlink:href="#DejaVuSans-67" transform="translate(225.789062 0)"/>
      <use xlink:href="#DejaVuSans-79" transform="translate(289.265625 0)"/>
      <use xlink:href="#DejaVuSans-5f" transform="translate(348.445312 0)"/>
      <use xlink:href="#DejaVuSans-74" transform="translate(398.445312 0)"/>
      <use xlink:href="#DejaVuSans-72" transform="translate(437.654297 0)"/>
      <use xlink:href="#DejaVuSans-61" transform="translate(478.767578 0)"/>
      <use xlink:href="#DejaVuSans-6e" transform="translate(540.046875 0)"/>
      <use xlink:href="#DejaVuSans-73" transform="translate(603.425781 0)"/>
      <use xlink:href="#DejaVuSans-66" transform="translate(655.525391 0)"/>
      <use xlink:href="#DejaVuSans-65" transform="translate(690.730469 0)"/>
      <use xlink:href="#DejaVuSans-72" transform="translate(752.253906 0)"/>
      <use xlink:href="#DejaVuSans-20" transform="translate(793.367188 0)"/>
      <use xlink:href="#DejaVuSans-5b" transform="translate(825.154297 0)"/>
      <use xlink:href="#DejaVuSans-6d" transform="translate(864.167969 0)"/>
      <use xlink:href="#DejaVuSans-65" transform="translate(961.580078 0)"/>
      <use xlink:href="#DejaVuSans-56" transform="translate(1023.103516 0)"/>
      <use xlink:href="#DejaVuSans-5d" transform="translate(1091.511719 0)"/>
     </g>
    </g>
   </g>
   <g id="matplotlib.axis_2">
    <g id="ytick_1">
     <g id="line2d_8">
      <defs>
       <path id="m97231228c5" d="M 0 0 
L -3.5 0 
" style="stroke: #000000; stroke-width: 0.8"/>
      </defs>
      <g>
       <use xlink:href="#m97231228c5" x="46.965625" y="218.88" style="stroke: #000000; stroke-width: 0.8"/>
      </g>
     </g>
     <g id="text_9">
      <!-- 0 -->
      <g transform="translate(33.603125 222.679219) scale(0.1 -0.1)">
       <use xlink:href="#DejaVuSans-30"/>
      </g>
     </g>
    </g>
    <g id="ytick_2">
     <g id="line2d_9">
      <g>
       <use xlink:href="#m97231228c5" x="46.965625" y="177.864284" style="stroke: #000000; stroke-width: 0.8"/>
      </g>
     </g>
     <g id="text_10">
      <!-- 50 -->
      <g transform="translate(27.240625 181.663503) scale(0.1 -0.1)">
       <use xlink:href="#DejaVuSans-35"/>
       <use xlink:href="#DejaVuSans-30" transform="translate(63.623047 0)"/>
      </g>
     </g>
    </g>
    <g id="ytick_3">
     <g id="line2d_10">
      <g>
       <use xlink:href="#m97231228c5" x="46.965625" y="136.848569" style="stroke: #000000; stroke-width: 0.8"/>
      </g>
     </g>
     <g id="text_11">
      <!-- 100 -->
      <g transform="translate(20.878125 140.647788) scale(0.1 -0.1)">
       <use xlink:href="#DejaVuSans-31"/>
       <use xlink:href="#DejaVuSans-30" transform="translate(63.623047 0)"/>
       <use xlink:href="#DejaVuSans-30" transform="translate(127.246094 0)"/>
      </g>
     </g>
    </g>
    <g id="ytick_4">
     <g id="line2d_11">
      <g>
       <use xlink:href="#m97231228c5" x="46.965625" y="95.832853" style="stroke: #000000; stroke-width: 0.8"/>
      </g>
     </g>
     <g id="text_12">
      <!-- 150 -->
      <g transform="translate(20.878125 99.632072) scale(0.1 -0.1)">
       <use xlink:href="#DejaVuSans-31"/>
       <use xlink:href="#DejaVuSans-35" transform="translate(63.623047 0)"/>
       <use xlink:href="#DejaVuSans-30" transform="translate(127.246094 0)"/>
      </g>
     </g>
    </g>
    <g id="ytick_5">
     <g id="line2d_12">
      <g>
       <use xlink:href="#m97231228c5" x="46.965625" y="54.817138" style="stroke: #000000; stroke-width: 0.8"/>
      </g>
     </g>
     <g id="text_13">
      <!-- 200 -->
      <g transform="translate(20.878125 58.616356) scale(0.1 -0.1)">
       <use xlink:href="#DejaVuSans-32"/>
       <use xlink:href="#DejaVuSans-30" transform="translate(63.623047 0)"/>
       <use xlink:href="#DejaVuSans-30" transform="translate(127.246094 0)"/>
      </g>
     </g>
    </g>
    <g id="ytick_6">
     <g id="line2d_13">
      <g>
       <use xlink:href="#m97231228c5" x="46.965625" y="13.801422" style="stroke: #000000; stroke-width: 0.8"/>
      </g>
     </g>
     <g id="text_14">
      <!-- 250 -->
      <g transform="translate(20.878125 17.600641) scale(0.1 -0.1)">
       <use xlink:href="#DejaVuSans-32"/>
       <use xlink:href="#DejaVuSans-35" transform="translate(63.623047 0)"/>
       <use xlink:href="#DejaVuSans-30" transform="translate(127.246094 0)"/>
      </g>
     </g>
    </g>
    <g id="text_15">
     <!-- [counts] -->
     <g transform="translate(14.798438 138.6925) rotate(-90) scale(0.1 -0.1)">
      <defs>
       <path id="DejaVuSans-63" d="M 3122 3366 
L 3122 2828 
Q 2878 2963 2633 3030 
Q 2388 3097 2138 3097 
Q 1578 3097 1268 2742 
Q 959 2388 959 1747 
Q 959 1106 1268 751 
Q 1578 397 2138 397 
Q 2388 397 2633 464 
Q 2878 531 3122 666 
L 3122 134 
Q 2881 22 2623 -34 
Q 2366 -91 2075 -91 
Q 1284 -91 818 406 
Q 353 903 353 1747 
Q 353 2603 823 3093 
Q 1294 3584 2113 3584 
Q 2378 3584 2631 3529 
Q 2884 3475 3122 3366 
z
" transform="scale(0.015625)"/>
       <path id="DejaVuSans-6f" d="M 1959 3097 
Q 1497 3097 1228 2736 
Q 959 2375 959 1747 
Q 959 1119 1226 758 
Q 1494 397 1959 397 
Q 2419 397 2687 759 
Q 2956 1122 2956 1747 
Q 2956 2369 2687 2733 
Q 2419 3097 1959 3097 
z
M 1959 3584 
Q 2709 3584 3137 3096 
Q 3566 2609 3566 1747 
Q 3566 888 3137 398 
Q 2709 -91 1959 -91 
Q 1206 -91 779 398 
Q 353 888 353 1747 
Q 353 2609 779 3096 
Q 1206 3584 1959 3584 
z
" transform="scale(0.015625)"/>
       <path id="DejaVuSans-75" d="M 544 1381 
L 544 3500 
L 1119 3500 
L 1119 1403 
Q 1119 906 1312 657 
Q 1506 409 1894 409 
Q 2359 409 2629 706 
Q 2900 1003 2900 1516 
L 2900 3500 
L 3475 3500 
L 3475 0 
L 2900 0 
L 2900 538 
Q 2691 219 2414 64 
Q 2138 -91 1772 -91 
Q 1169 -91 856 284 
Q 544 659 544 1381 
z
M 1991 3584 
L 1991 3584 
z
" transform="scale(0.015625)"/>
      </defs>
      <use xlink:href="#DejaVuSans-5b"/>
      <use xlink:href="#DejaVuSans-63" transform="translate(39.013672 0)"/>
      <use xlink:href="#DejaVuSans-6f" transform="translate(93.994141 0)"/>
      <use xlink:href="#DejaVuSans-75" transform="translate(155.175781 0)"/>
      <use xlink:href="#DejaVuSans-6e" transform="translate(218.554688 0)"/>
      <use xlink:href="#DejaVuSans-74" transform="translate(281.933594 0)"/>
      <use xlink:href="#DejaVuSans-73" transform="translate(321.142578 0)"/>
      <use xlink:href="#DejaVuSans-5d" transform="translate(373.242188 0)"/>
     </g>
    </g>
   </g>
   <g id="patch_3">
    <path d="M 46.965625 228.96 
L 46.965625 7.2 
" style="fill: none; stroke: #000000; stroke-width: 0.8; stroke-linejoin: miter; stroke-linecap: square"/>
   </g>
   <g id="patch_4">
    <path d="M 381.765625 228.96 
L 381.765625 7.2 
" style="fill: none; stroke: #000000; stroke-width: 0.8; stroke-linejoin: miter; stroke-linecap: square"/>
   </g>
   <g id="patch_5">
    <path d="M 46.965625 228.96 
L 381.765625 228.96 
" style="fill: none; stroke: #000000; stroke-width: 0.8; stroke-linejoin: miter; stroke-linecap: square"/>
   </g>
   <g id="patch_6">
    <path d="M 46.965625 7.2 
L 381.765625 7.2 
" style="fill: none; stroke: #000000; stroke-width: 0.8; stroke-linejoin: miter; stroke-linecap: square"/>
   </g>
   <g id="legend_1">
    <g id="patch_7">
     <path d="M 53.965625 44.55625 
L 137.648438 44.55625 
Q 139.648438 44.55625 139.648438 42.55625 
L 139.648438 14.2 
Q 139.648438 12.2 137.648438 12.2 
L 53.965625 12.2 
Q 51.965625 12.2 51.965625 14.2 
L 51.965625 42.55625 
Q 51.965625 44.55625 53.965625 44.55625 
z
" style="fill: #ffffff; opacity: 0.8; stroke: #cccccc; stroke-linejoin: miter"/>
    </g>
    <g id="line2d_14">
     <path d="M 55.965625 20.298438 
L 55.965625 20.298438 
L 65.965625 20.298438 
L 65.965625 20.298438 
L 75.965625 20.298438 
" style="fill: none; stroke: #1f77b4; stroke-width: 1.5; stroke-linecap: square"/>
    </g>
    <g id="text_16">
     <!-- unmasked -->
     <g transform="translate(83.965625 23.798438) scale(0.1 -0.1)">
      <defs>
       <path id="DejaVuSans-6b" d="M 581 4863 
L 1159 4863 
L 1159 1991 
L 2875 3500 
L 3609 3500 
L 1753 1863 
L 3688 0 
L 2938 0 
L 1159 1709 
L 1159 0 
L 581 0 
L 581 4863 
z
" transform="scale(0.015625)"/>
       <path id="DejaVuSans-64" d="M 2906 2969 
L 2906 4863 
L 3481 4863 
L 3481 0 
L 2906 0 
L 2906 525 
Q 2725 213 2448 61 
Q 2172 -91 1784 -91 
Q 1150 -91 751 415 
Q 353 922 353 1747 
Q 353 2572 751 3078 
Q 1150 3584 1784 3584 
Q 2172 3584 2448 3432 
Q 2725 3281 2906 2969 
z
M 947 1747 
Q 947 1113 1208 752 
Q 1469 391 1925 391 
Q 2381 391 2643 752 
Q 2906 1113 2906 1747 
Q 2906 2381 2643 2742 
Q 2381 3103 1925 3103 
Q 1469 3103 1208 2742 
Q 947 2381 947 1747 
z
" transform="scale(0.015625)"/>
      </defs>
      <use xlink:href="#DejaVuSans-75"/>
      <use xlink:href="#DejaVuSans-6e" transform="translate(63.378906 0)"/>
      <use xlink:href="#DejaVuSans-6d" transform="translate(126.757812 0)"/>
      <use xlink:href="#DejaVuSans-61" transform="translate(224.169922 0)"/>
      <use xlink:href="#DejaVuSans-73" transform="translate(285.449219 0)"/>
      <use xlink:href="#DejaVuSans-6b" transform="translate(337.548828 0)"/>
      <use xlink:href="#DejaVuSans-65" transform="translate(391.833984 0)"/>
      <use xlink:href="#DejaVuSans-64" transform="translate(453.357422 0)"/>
     </g>
    </g>
    <g id="line2d_15">
     <path d="M 55.965625 34.976562 
L 55.965625 34.976562 
L 65.965625 34.976562 
L 65.965625 34.976562 
L 75.965625 34.976562 
" style="fill: none; stroke: #ff7f0e; stroke-width: 1.5; stroke-linecap: square"/>
    </g>
    <g id="text_17">
     <!-- masked -->
     <g transform="translate(83.965625 38.476562) scale(0.1 -0.1)">
      <use xlink:href="#DejaVuSans-6d"/>
      <use xlink:href="#DejaVuSans-61" transform="translate(97.412109 0)"/>
      <use xlink:href="#DejaVuSans-73" transform="translate(158.691406 0)"/>
      <use xlink:href="#DejaVuSans-6b" transform="translate(210.791016 0)"/>
      <use xlink:href="#DejaVuSans-65" transform="translate(265.076172 0)"/>
      <use xlink:href="#DejaVuSans-64" transform="translate(326.599609 0)"/>
     </g>
    </g>
   </g>
   <g id="line2d_16">
    <path d="M 62.183807 218.88 
L 120.012898 218.792904 
L 120.012898 218.730065 
L 129.143807 218.663865 
L 129.143807 218.505116 
L 135.23108 218.425517 
L 135.23108 218.229319 
L 138.274716 218.229319 
L 138.274716 217.757463 
L 141.318352 217.757463 
L 141.318352 217.454161 
L 144.361989 217.454161 
L 144.361989 216.251856 
L 147.405625 216.251856 
L 147.405625 215.230042 
L 150.449261 215.230042 
L 150.449261 213.411926 
L 153.492898 213.411926 
L 153.492898 211.874489 
L 156.536534 211.874489 
L 156.536534 209.646141 
L 159.58017 209.646141 
L 159.58017 207.102694 
L 162.623807 207.102694 
L 162.623807 205.468949 
L 165.667443 205.468949 
L 165.667443 203.306087 
L 168.71108 203.306087 
L 168.71108 201.640596 
L 171.754716 201.640596 
L 171.754716 201.12222 
L 174.798352 201.12222 
L 174.798352 197.558732 
L 177.841989 197.558732 
L 177.841989 197.689932 
L 180.885625 197.689932 
L 180.885625 197.883503 
L 183.929261 197.883503 
L 183.929261 196.282239 
L 186.972898 196.282239 
L 186.972898 197.739454 
L 190.016534 197.739454 
L 190.016534 196.82648 
L 193.06017 196.82648 
L 193.06017 197.301733 
L 196.103807 197.301733 
L 196.103807 197.692229 
L 199.147443 197.692229 
L 199.147443 197.478146 
L 202.19108 197.478146 
L 202.19108 196.790794 
L 205.234716 196.790794 
L 205.234716 196.55386 
L 208.278352 196.55386 
L 208.278352 196.363229 
L 211.321989 196.363229 
L 211.321989 196.733146 
L 214.365625 196.733146 
L 214.365625 197.17635 
L 217.409261 197.17635 
L 217.409261 198.243406 
L 220.452898 198.243406 
L 220.452898 197.65014 
L 223.496534 197.65014 
L 223.496534 197.15297 
L 226.54017 197.15297 
L 226.54017 195.888621 
L 229.583807 195.888621 
L 229.583807 193.357215 
L 232.627443 193.357215 
L 232.627443 187.535563 
L 235.67108 187.535563 
L 235.67108 182.571099 
L 238.714716 182.571099 
L 238.714716 172.866375 
L 241.758352 172.866375 
L 241.758352 160.888206 
L 244.801989 160.888206 
L 244.801989 147.461031 
L 247.845625 147.461031 
L 247.845625 135.078727 
L 250.889261 135.078727 
L 250.889261 118.511085 
L 253.932898 118.511085 
L 253.932898 102.418621 
L 256.976534 102.418621 
L 256.976534 86.35741 
L 260.02017 86.35741 
L 260.02017 70.903443 
L 263.063807 70.903443 
L 263.063807 58.684612 
L 266.107443 58.684612 
L 266.107443 48.766128 
L 269.15108 48.766128 
L 269.15108 38.732608 
L 272.194716 38.732608 
L 272.194716 34.245501 
L 275.238352 34.245501 
L 275.238352 27.267818 
L 278.281989 27.267818 
L 278.281989 24.834835 
L 281.325625 24.834835 
L 281.325625 25.127143 
L 284.369261 25.127143 
L 284.369261 18.938958 
L 287.412898 18.938958 
L 287.412898 20.070504 
L 290.456534 20.070504 
L 290.456534 23.722295 
L 293.50017 23.722295 
L 293.50017 26.538121 
L 296.543807 26.538121 
L 296.543807 29.169472 
L 299.587443 29.169472 
L 299.587443 33.69518 
L 302.63108 33.69518 
L 302.63108 43.124763 
L 305.674716 43.124763 
L 305.674716 45.186169 
L 308.718352 45.186169 
L 308.718352 58.333664 
L 311.761989 58.333664 
L 311.761989 72.521966 
L 314.805625 72.521966 
L 314.805625 85.724156 
L 317.849261 85.724156 
L 317.849261 99.128101 
L 320.892898 99.128101 
L 320.892898 116.403354 
L 323.936534 116.403354 
L 323.936534 131.796747 
L 326.98017 131.796747 
L 326.98017 148.123934 
L 330.023807 148.123934 
L 330.023807 160.242427 
L 333.067443 160.242427 
L 333.067443 176.0418 
L 336.11108 176.0418 
L 336.11108 188.503018 
L 339.154716 188.503018 
L 339.154716 195.701378 
L 342.198352 195.701378 
L 342.198352 203.544537 
L 345.241989 203.544537 
L 345.241989 208.583951 
L 348.285625 208.583951 
L 348.285625 212.576857 
L 351.329261 212.576857 
L 351.329261 215.11749 
L 354.372898 215.11749 
L 354.372898 216.89913 
L 357.416534 216.89913 
L 357.416534 218.097646 
L 360.46017 218.097646 
L 360.46017 218.590353 
L 363.503807 218.590353 
L 363.503807 218.778656 
L 366.547443 218.778656 
L 366.547443 218.778656 
" clip-path="url(#pa42d409d39)" style="fill: none; stroke: #1f77b4; stroke-width: 1.5; stroke-linecap: square"/>
   </g>
   <g id="LineCollection_1">
    <path d="M 63.705625 218.88 
L 63.705625 218.88 
" clip-path="url(#pa42d409d39)" style="fill: none; stroke: #1f77b4; stroke-width: 1.5"/>
    <path d="M 66.749261 218.88 
L 66.749261 218.88 
" clip-path="url(#pa42d409d39)" style="fill: none; stroke: #1f77b4; stroke-width: 1.5"/>
    <path d="M 69.792898 218.88 
L 69.792898 218.88 
" clip-path="url(#pa42d409d39)" style="fill: none; stroke: #1f77b4; stroke-width: 1.5"/>
    <path d="M 72.836534 218.88 
L 72.836534 218.88 
" clip-path="url(#pa42d409d39)" style="fill: none; stroke: #1f77b4; stroke-width: 1.5"/>
    <path d="M 75.88017 218.88 
L 75.88017 218.88 
" clip-path="url(#pa42d409d39)" style="fill: none; stroke: #1f77b4; stroke-width: 1.5"/>
    <path d="M 78.923807 218.88 
L 78.923807 218.88 
" clip-path="url(#pa42d409d39)" style="fill: none; stroke: #1f77b4; stroke-width: 1.5"/>
    <path d="M 81.967443 218.88 
L 81.967443 218.88 
" clip-path="url(#pa42d409d39)" style="fill: none; stroke: #1f77b4; stroke-width: 1.5"/>
    <path d="M 85.01108 218.88 
L 85.01108 218.88 
" clip-path="url(#pa42d409d39)" style="fill: none; stroke: #1f77b4; stroke-width: 1.5"/>
    <path d="M 88.054716 218.88 
L 88.054716 218.88 
" clip-path="url(#pa42d409d39)" style="fill: none; stroke: #1f77b4; stroke-width: 1.5"/>
    <path d="M 91.098352 218.88 
L 91.098352 218.88 
" clip-path="url(#pa42d409d39)" style="fill: none; stroke: #1f77b4; stroke-width: 1.5"/>
    <path d="M 94.141989 218.88 
L 94.141989 218.88 
" clip-path="url(#pa42d409d39)" style="fill: none; stroke: #1f77b4; stroke-width: 1.5"/>
    <path d="M 97.185625 218.88 
L 97.185625 218.88 
" clip-path="url(#pa42d409d39)" style="fill: none; stroke: #1f77b4; stroke-width: 1.5"/>
    <path d="M 100.229261 218.88 
L 100.229261 218.88 
" clip-path="url(#pa42d409d39)" style="fill: none; stroke: #1f77b4; stroke-width: 1.5"/>
    <path d="M 103.272898 218.88 
L 103.272898 218.88 
" clip-path="url(#pa42d409d39)" style="fill: none; stroke: #1f77b4; stroke-width: 1.5"/>
    <path d="M 106.316534 218.879999 
L 106.316534 218.869598 
" clip-path="url(#pa42d409d39)" style="fill: none; stroke: #1f77b4; stroke-width: 1.5"/>
    <path d="M 109.36017 218.867805 
L 109.36017 218.842905 
" clip-path="url(#pa42d409d39)" style="fill: none; stroke: #1f77b4; stroke-width: 1.5"/>
    <path d="M 112.403807 218.879999 
L 112.403807 218.872267 
" clip-path="url(#pa42d409d39)" style="fill: none; stroke: #1f77b4; stroke-width: 1.5"/>
    <path d="M 115.447443 218.843702 
L 115.447443 218.803032 
" clip-path="url(#pa42d409d39)" style="fill: none; stroke: #1f77b4; stroke-width: 1.5"/>
    <path d="M 118.49108 218.81626 
L 118.49108 218.769547 
" clip-path="url(#pa42d409d39)" style="fill: none; stroke: #1f77b4; stroke-width: 1.5"/>
    <path d="M 121.534716 218.762997 
L 121.534716 218.697133 
" clip-path="url(#pa42d409d39)" style="fill: none; stroke: #1f77b4; stroke-width: 1.5"/>
    <path d="M 124.578352 218.727788 
L 124.578352 218.653958 
" clip-path="url(#pa42d409d39)" style="fill: none; stroke: #1f77b4; stroke-width: 1.5"/>
    <path d="M 127.621989 218.703932 
L 127.621989 218.623798 
" clip-path="url(#pa42d409d39)" style="fill: none; stroke: #1f77b4; stroke-width: 1.5"/>
    <path d="M 130.665625 218.557852 
L 130.665625 218.452381 
" clip-path="url(#pa42d409d39)" style="fill: none; stroke: #1f77b4; stroke-width: 1.5"/>
    <path d="M 133.709261 218.486715 
L 133.709261 218.364319 
" clip-path="url(#pa42d409d39)" style="fill: none; stroke: #1f77b4; stroke-width: 1.5"/>
    <path d="M 136.752898 218.300782 
L 136.752898 218.157855 
" clip-path="url(#pa42d409d39)" style="fill: none; stroke: #1f77b4; stroke-width: 1.5"/>
    <path d="M 139.796534 217.852037 
L 139.796534 217.662888 
" clip-path="url(#pa42d409d39)" style="fill: none; stroke: #1f77b4; stroke-width: 1.5"/>
    <path d="M 142.84017 217.563175 
L 142.84017 217.345146 
" clip-path="url(#pa42d409d39)" style="fill: none; stroke: #1f77b4; stroke-width: 1.5"/>
    <path d="M 145.883807 216.411103 
L 145.883807 216.09261 
" clip-path="url(#pa42d409d39)" style="fill: none; stroke: #1f77b4; stroke-width: 1.5"/>
    <path d="M 148.927443 215.421828 
L 148.927443 215.038257 
" clip-path="url(#pa42d409d39)" style="fill: none; stroke: #1f77b4; stroke-width: 1.5"/>
    <path d="M 151.97108 213.657497 
L 151.97108 213.166354 
" clip-path="url(#pa42d409d39)" style="fill: none; stroke: #1f77b4; stroke-width: 1.5"/>
    <path d="M 155.014716 212.157658 
L 155.014716 211.591319 
" clip-path="url(#pa42d409d39)" style="fill: none; stroke: #1f77b4; stroke-width: 1.5"/>
    <path d="M 158.058352 209.981493 
L 158.058352 209.31079 
" clip-path="url(#pa42d409d39)" style="fill: none; stroke: #1f77b4; stroke-width: 1.5"/>
    <path d="M 161.101989 207.487844 
L 161.101989 206.717543 
" clip-path="url(#pa42d409d39)" style="fill: none; stroke: #1f77b4; stroke-width: 1.5"/>
    <path d="M 164.145625 205.885995 
L 164.145625 205.051903 
" clip-path="url(#pa42d409d39)" style="fill: none; stroke: #1f77b4; stroke-width: 1.5"/>
    <path d="M 167.189261 203.758244 
L 167.189261 202.853929 
" clip-path="url(#pa42d409d39)" style="fill: none; stroke: #1f77b4; stroke-width: 1.5"/>
    <path d="M 170.232898 202.120534 
L 170.232898 201.160659 
" clip-path="url(#pa42d409d39)" style="fill: none; stroke: #1f77b4; stroke-width: 1.5"/>
    <path d="M 173.276534 201.609597 
L 173.276534 200.634844 
" clip-path="url(#pa42d409d39)" style="fill: none; stroke: #1f77b4; stroke-width: 1.5"/>
    <path d="M 176.32017 198.099053 
L 176.32017 197.018411 
" clip-path="url(#pa42d409d39)" style="fill: none; stroke: #1f77b4; stroke-width: 1.5"/>
    <path d="M 179.363807 198.226513 
L 179.363807 197.153351 
" clip-path="url(#pa42d409d39)" style="fill: none; stroke: #1f77b4; stroke-width: 1.5"/>
    <path d="M 182.407443 198.421548 
L 182.407443 197.345458 
" clip-path="url(#pa42d409d39)" style="fill: none; stroke: #1f77b4; stroke-width: 1.5"/>
    <path d="M 185.45108 196.841288 
L 185.45108 195.723191 
" clip-path="url(#pa42d409d39)" style="fill: none; stroke: #1f77b4; stroke-width: 1.5"/>
    <path d="M 188.494716 198.277443 
L 188.494716 197.201464 
" clip-path="url(#pa42d409d39)" style="fill: none; stroke: #1f77b4; stroke-width: 1.5"/>
    <path d="M 191.538352 197.377434 
L 191.538352 196.275525 
" clip-path="url(#pa42d409d39)" style="fill: none; stroke: #1f77b4; stroke-width: 1.5"/>
    <path d="M 194.581989 197.844629 
L 194.581989 196.758837 
" clip-path="url(#pa42d409d39)" style="fill: none; stroke: #1f77b4; stroke-width: 1.5"/>
    <path d="M 197.625625 198.227999 
L 197.625625 197.156459 
" clip-path="url(#pa42d409d39)" style="fill: none; stroke: #1f77b4; stroke-width: 1.5"/>
    <path d="M 200.669261 198.01825 
L 200.669261 196.938042 
" clip-path="url(#pa42d409d39)" style="fill: none; stroke: #1f77b4; stroke-width: 1.5"/>
    <path d="M 203.712898 197.338178 
L 203.712898 196.243409 
" clip-path="url(#pa42d409d39)" style="fill: none; stroke: #1f77b4; stroke-width: 1.5"/>
    <path d="M 206.756534 197.103636 
L 206.756534 196.004084 
" clip-path="url(#pa42d409d39)" style="fill: none; stroke: #1f77b4; stroke-width: 1.5"/>
    <path d="M 209.80017 196.913931 
L 209.80017 195.812527 
" clip-path="url(#pa42d409d39)" style="fill: none; stroke: #1f77b4; stroke-width: 1.5"/>
    <path d="M 212.843807 197.283607 
L 212.843807 196.182686 
" clip-path="url(#pa42d409d39)" style="fill: none; stroke: #1f77b4; stroke-width: 1.5"/>
    <path d="M 215.887443 197.717569 
L 215.887443 196.635132 
" clip-path="url(#pa42d409d39)" style="fill: none; stroke: #1f77b4; stroke-width: 1.5"/>
    <path d="M 218.93108 198.768447 
L 218.93108 197.718364 
" clip-path="url(#pa42d409d39)" style="fill: none; stroke: #1f77b4; stroke-width: 1.5"/>
    <path d="M 221.974716 198.173978 
L 221.974716 197.126301 
" clip-path="url(#pa42d409d39)" style="fill: none; stroke: #1f77b4; stroke-width: 1.5"/>
    <path d="M 225.018352 197.680699 
L 225.018352 196.62524 
" clip-path="url(#pa42d409d39)" style="fill: none; stroke: #1f77b4; stroke-width: 1.5"/>
    <path d="M 228.061989 196.422072 
L 228.061989 195.35517 
" clip-path="url(#pa42d409d39)" style="fill: none; stroke: #1f77b4; stroke-width: 1.5"/>
    <path d="M 231.105625 193.903066 
L 231.105625 192.811365 
" clip-path="url(#pa42d409d39)" style="fill: none; stroke: #1f77b4; stroke-width: 1.5"/>
    <path d="M 234.149261 188.139741 
L 234.149261 186.931385 
" clip-path="url(#pa42d409d39)" style="fill: none; stroke: #1f77b4; stroke-width: 1.5"/>
    <path d="M 237.192898 183.215586 
L 237.192898 181.926612 
" clip-path="url(#pa42d409d39)" style="fill: none; stroke: #1f77b4; stroke-width: 1.5"/>
    <path d="M 240.236534 173.600767 
L 240.236534 172.131983 
" clip-path="url(#pa42d409d39)" style="fill: none; stroke: #1f77b4; stroke-width: 1.5"/>
    <path d="M 243.28017 161.71952 
L 243.28017 160.056891 
" clip-path="url(#pa42d409d39)" style="fill: none; stroke: #1f77b4; stroke-width: 1.5"/>
    <path d="M 246.323807 148.398161 
L 246.323807 146.523901 
" clip-path="url(#pa42d409d39)" style="fill: none; stroke: #1f77b4; stroke-width: 1.5"/>
    <path d="M 249.367443 136.104246 
L 249.367443 134.053209 
" clip-path="url(#pa42d409d39)" style="fill: none; stroke: #1f77b4; stroke-width: 1.5"/>
    <path d="M 252.41108 119.642412 
L 252.41108 117.379757 
" clip-path="url(#pa42d409d39)" style="fill: none; stroke: #1f77b4; stroke-width: 1.5"/>
    <path d="M 255.454716 103.648565 
L 255.454716 101.188677 
" clip-path="url(#pa42d409d39)" style="fill: none; stroke: #1f77b4; stroke-width: 1.5"/>
    <path d="M 258.498352 87.681784 
L 258.498352 85.033035 
" clip-path="url(#pa42d409d39)" style="fill: none; stroke: #1f77b4; stroke-width: 1.5"/>
    <path d="M 261.541989 72.313013 
L 261.541989 69.493873 
" clip-path="url(#pa42d409d39)" style="fill: none; stroke: #1f77b4; stroke-width: 1.5"/>
    <path d="M 264.585625 60.150546 
L 264.585625 57.218679 
" clip-path="url(#pa42d409d39)" style="fill: none; stroke: #1f77b4; stroke-width: 1.5"/>
    <path d="M 267.629261 50.286622 
L 267.629261 47.245633 
" clip-path="url(#pa42d409d39)" style="fill: none; stroke: #1f77b4; stroke-width: 1.5"/>
    <path d="M 270.672898 40.303929 
L 270.672898 37.161286 
" clip-path="url(#pa42d409d39)" style="fill: none; stroke: #1f77b4; stroke-width: 1.5"/>
    <path d="M 273.716534 35.832984 
L 273.716534 32.658018 
" clip-path="url(#pa42d409d39)" style="fill: none; stroke: #1f77b4; stroke-width: 1.5"/>
    <path d="M 276.76017 28.889492 
L 276.76017 25.646144 
" clip-path="url(#pa42d409d39)" style="fill: none; stroke: #1f77b4; stroke-width: 1.5"/>
    <path d="M 279.803807 26.470206 
L 279.803807 23.199464 
" clip-path="url(#pa42d409d39)" style="fill: none; stroke: #1f77b4; stroke-width: 1.5"/>
    <path d="M 282.847443 26.758429 
L 282.847443 23.495857 
" clip-path="url(#pa42d409d39)" style="fill: none; stroke: #1f77b4; stroke-width: 1.5"/>
    <path d="M 285.89108 20.597915 
L 285.89108 17.28 
" clip-path="url(#pa42d409d39)" style="fill: none; stroke: #1f77b4; stroke-width: 1.5"/>
    <path d="M 288.934716 21.729471 
L 288.934716 18.411537 
" clip-path="url(#pa42d409d39)" style="fill: none; stroke: #1f77b4; stroke-width: 1.5"/>
    <path d="M 291.978352 25.364253 
L 291.978352 22.080338 
" clip-path="url(#pa42d409d39)" style="fill: none; stroke: #1f77b4; stroke-width: 1.5"/>
    <path d="M 295.021989 28.172332 
L 295.021989 24.903909 
" clip-path="url(#pa42d409d39)" style="fill: none; stroke: #1f77b4; stroke-width: 1.5"/>
    <path d="M 298.065625 30.794449 
L 298.065625 27.544495 
" clip-path="url(#pa42d409d39)" style="fill: none; stroke: #1f77b4; stroke-width: 1.5"/>
    <path d="M 301.109261 35.305063 
L 301.109261 32.085296 
" clip-path="url(#pa42d409d39)" style="fill: none; stroke: #1f77b4; stroke-width: 1.5"/>
    <path d="M 304.152898 44.698848 
L 304.152898 41.550679 
" clip-path="url(#pa42d409d39)" style="fill: none; stroke: #1f77b4; stroke-width: 1.5"/>
    <path d="M 307.196534 46.759527 
L 307.196534 43.612811 
" clip-path="url(#pa42d409d39)" style="fill: none; stroke: #1f77b4; stroke-width: 1.5"/>
    <path d="M 310.24017 59.846667 
L 310.24017 56.82066 
" clip-path="url(#pa42d409d39)" style="fill: none; stroke: #1f77b4; stroke-width: 1.5"/>
    <path d="M 313.283807 73.970761 
L 313.283807 71.073171 
" clip-path="url(#pa42d409d39)" style="fill: none; stroke: #1f77b4; stroke-width: 1.5"/>
    <path d="M 316.327443 87.109706 
L 316.327443 84.338606 
" clip-path="url(#pa42d409d39)" style="fill: none; stroke: #1f77b4; stroke-width: 1.5"/>
    <path d="M 319.37108 100.447705 
L 319.37108 97.808496 
" clip-path="url(#pa42d409d39)" style="fill: none; stroke: #1f77b4; stroke-width: 1.5"/>
    <path d="M 322.414716 117.62644 
L 322.414716 115.180268 
" clip-path="url(#pa42d409d39)" style="fill: none; stroke: #1f77b4; stroke-width: 1.5"/>
    <path d="M 325.458352 132.92784 
L 325.458352 130.665653 
" clip-path="url(#pa42d409d39)" style="fill: none; stroke: #1f77b4; stroke-width: 1.5"/>
    <path d="M 328.501989 149.143994 
L 328.501989 147.103874 
" clip-path="url(#pa42d409d39)" style="fill: none; stroke: #1f77b4; stroke-width: 1.5"/>
    <path d="M 331.545625 161.17376 
L 331.545625 159.311093 
" clip-path="url(#pa42d409d39)" style="fill: none; stroke: #1f77b4; stroke-width: 1.5"/>
    <path d="M 334.589261 176.838816 
L 334.589261 175.244784 
" clip-path="url(#pa42d409d39)" style="fill: none; stroke: #1f77b4; stroke-width: 1.5"/>
    <path d="M 337.632898 189.17302 
L 337.632898 187.833015 
" clip-path="url(#pa42d409d39)" style="fill: none; stroke: #1f77b4; stroke-width: 1.5"/>
    <path d="M 340.676534 196.288559 
L 340.676534 195.114198 
" clip-path="url(#pa42d409d39)" style="fill: none; stroke: #1f77b4; stroke-width: 1.5"/>
    <path d="M 343.72017 204.021919 
L 343.72017 203.067155 
" clip-path="url(#pa42d409d39)" style="fill: none; stroke: #1f77b4; stroke-width: 1.5"/>
    <path d="M 346.763807 208.977255 
L 346.763807 208.190646 
" clip-path="url(#pa42d409d39)" style="fill: none; stroke: #1f77b4; stroke-width: 1.5"/>
    <path d="M 349.807443 212.879757 
L 349.807443 212.273957 
" clip-path="url(#pa42d409d39)" style="fill: none; stroke: #1f77b4; stroke-width: 1.5"/>
    <path d="M 352.85108 215.353038 
L 352.85108 214.881941 
" clip-path="url(#pa42d409d39)" style="fill: none; stroke: #1f77b4; stroke-width: 1.5"/>
    <path d="M 355.894716 217.069611 
L 355.894716 216.728649 
" clip-path="url(#pa42d409d39)" style="fill: none; stroke: #1f77b4; stroke-width: 1.5"/>
    <path d="M 358.938352 218.205259 
L 358.938352 217.990032 
" clip-path="url(#pa42d409d39)" style="fill: none; stroke: #1f77b4; stroke-width: 1.5"/>
    <path d="M 361.981989 218.656579 
L 361.981989 218.524128 
" clip-path="url(#pa42d409d39)" style="fill: none; stroke: #1f77b4; stroke-width: 1.5"/>
    <path d="M 365.025625 218.817026 
L 365.025625 218.740286 
" clip-path="url(#pa42d409d39)" style="fill: none; stroke: #1f77b4; stroke-width: 1.5"/>
   </g>
   <g id="line2d_17">
    <path d="M 62.183807 218.88 
L 196.103807 218.812334 
L 196.103807 218.702126 
L 199.147443 218.702126 
L 199.147443 218.54137 
L 202.19108 218.54137 
L 202.19108 218.36034 
L 205.234716 218.36034 
L 205.234716 218.120248 
L 208.278352 218.120248 
L 208.278352 217.714939 
L 211.321989 217.714939 
L 211.321989 217.354566 
L 214.365625 217.354566 
L 214.365625 216.505233 
L 217.409261 216.505233 
L 217.409261 216.052767 
L 220.452898 216.052767 
L 220.452898 213.862237 
L 223.496534 213.862237 
L 223.496534 212.102309 
L 226.54017 212.102309 
L 226.54017 208.306179 
L 229.583807 208.306179 
L 229.583807 203.588864 
L 232.627443 203.588864 
L 232.627443 196.823667 
L 235.67108 196.823667 
L 235.67108 188.47337 
L 238.714716 188.47337 
L 238.714716 177.564562 
L 241.758352 177.564562 
L 241.758352 164.76763 
L 244.801989 164.76763 
L 244.801989 150.328068 
L 247.845625 150.328068 
L 247.845625 138.418278 
L 250.889261 138.418278 
L 250.889261 122.433695 
L 253.932898 122.433695 
L 253.932898 107.325061 
L 256.976534 107.325061 
L 256.976534 92.346329 
L 260.02017 92.346329 
L 260.02017 78.998428 
L 263.063807 78.998428 
L 263.063807 67.091706 
L 266.107443 67.091706 
L 266.107443 58.490616 
L 269.15108 58.490616 
L 269.15108 49.919073 
L 272.194716 49.919073 
L 272.194716 46.275718 
L 275.238352 46.275718 
L 275.238352 39.478215 
L 278.281989 39.478215 
L 278.281989 37.613172 
L 281.325625 37.613172 
L 281.325625 37.772713 
L 284.369261 37.772713 
L 284.369261 33.252883 
L 287.412898 33.252883 
L 287.412898 33.439356 
L 290.456534 33.439356 
L 290.456534 36.717394 
L 293.50017 36.717394 
L 293.50017 39.619725 
L 296.543807 39.619725 
L 296.543807 41.775503 
L 299.587443 41.775503 
L 299.587443 45.948443 
L 302.63108 45.948443 
L 302.63108 55.554436 
L 305.674716 55.554436 
L 305.674716 58.707663 
L 308.718352 58.707663 
L 308.718352 70.835996 
L 311.761989 70.835996 
L 311.761989 84.483231 
L 314.805625 84.483231 
L 314.805625 97.529127 
L 317.849261 97.529127 
L 317.849261 109.778434 
L 320.892898 109.778434 
L 320.892898 125.53407 
L 323.936534 125.53407 
L 323.936534 139.589021 
L 326.98017 139.589021 
L 326.98017 155.27292 
L 330.023807 155.27292 
L 330.023807 166.875984 
L 333.067443 166.875984 
L 333.067443 180.484051 
L 336.11108 180.484051 
L 336.11108 192.005768 
L 339.154716 192.005768 
L 339.154716 198.155283 
L 342.198352 198.155283 
L 342.198352 204.741475 
L 345.241989 204.741475 
L 345.241989 209.321398 
L 348.285625 209.321398 
L 348.285625 212.850647 
L 351.329261 212.850647 
L 351.329261 215.248487 
L 354.372898 215.248487 
L 354.372898 216.899134 
L 357.416534 216.899134 
L 357.416534 218.112668 
L 360.46017 218.112668 
L 360.46017 218.590353 
L 363.503807 218.590353 
L 363.503807 218.778656 
L 366.547443 218.778656 
L 366.547443 218.778656 
" clip-path="url(#pa42d409d39)" style="fill: none; stroke: #ff7f0e; stroke-width: 1.5; stroke-linecap: square"/>
   </g>
   <g id="LineCollection_2">
    <path d="M 63.705625 218.88 
L 63.705625 218.88 
" clip-path="url(#pa42d409d39)" style="fill: none; stroke: #ff7f0e; stroke-width: 1.5"/>
    <path d="M 66.749261 218.88 
L 66.749261 218.88 
" clip-path="url(#pa42d409d39)" style="fill: none; stroke: #ff7f0e; stroke-width: 1.5"/>
    <path d="M 69.792898 218.88 
L 69.792898 218.88 
" clip-path="url(#pa42d409d39)" style="fill: none; stroke: #ff7f0e; stroke-width: 1.5"/>
    <path d="M 72.836534 218.88 
L 72.836534 218.88 
" clip-path="url(#pa42d409d39)" style="fill: none; stroke: #ff7f0e; stroke-width: 1.5"/>
    <path d="M 75.88017 218.88 
L 75.88017 218.88 
" clip-path="url(#pa42d409d39)" style="fill: none; stroke: #ff7f0e; stroke-width: 1.5"/>
    <path d="M 78.923807 218.88 
L 78.923807 218.88 
" clip-path="url(#pa42d409d39)" style="fill: none; stroke: #ff7f0e; stroke-width: 1.5"/>
    <path d="M 81.967443 218.88 
L 81.967443 218.88 
" clip-path="url(#pa42d409d39)" style="fill: none; stroke: #ff7f0e; stroke-width: 1.5"/>
    <path d="M 85.01108 218.88 
L 85.01108 218.88 
" clip-path="url(#pa42d409d39)" style="fill: none; stroke: #ff7f0e; stroke-width: 1.5"/>
    <path d="M 88.054716 218.88 
L 88.054716 218.88 
" clip-path="url(#pa42d409d39)" style="fill: none; stroke: #ff7f0e; stroke-width: 1.5"/>
    <path d="M 91.098352 218.88 
L 91.098352 218.88 
" clip-path="url(#pa42d409d39)" style="fill: none; stroke: #ff7f0e; stroke-width: 1.5"/>
    <path d="M 94.141989 218.88 
L 94.141989 218.88 
" clip-path="url(#pa42d409d39)" style="fill: none; stroke: #ff7f0e; stroke-width: 1.5"/>
    <path d="M 97.185625 218.88 
L 97.185625 218.88 
" clip-path="url(#pa42d409d39)" style="fill: none; stroke: #ff7f0e; stroke-width: 1.5"/>
    <path d="M 100.229261 218.88 
L 100.229261 218.88 
" clip-path="url(#pa42d409d39)" style="fill: none; stroke: #ff7f0e; stroke-width: 1.5"/>
    <path d="M 103.272898 218.88 
L 103.272898 218.88 
" clip-path="url(#pa42d409d39)" style="fill: none; stroke: #ff7f0e; stroke-width: 1.5"/>
    <path d="M 106.316534 218.88 
L 106.316534 218.879999 
" clip-path="url(#pa42d409d39)" style="fill: none; stroke: #ff7f0e; stroke-width: 1.5"/>
    <path d="M 109.36017 218.88 
L 109.36017 218.879996 
" clip-path="url(#pa42d409d39)" style="fill: none; stroke: #ff7f0e; stroke-width: 1.5"/>
    <path d="M 112.403807 218.88 
L 112.403807 218.88 
" clip-path="url(#pa42d409d39)" style="fill: none; stroke: #ff7f0e; stroke-width: 1.5"/>
    <path d="M 115.447443 218.88 
L 115.447443 218.88 
" clip-path="url(#pa42d409d39)" style="fill: none; stroke: #ff7f0e; stroke-width: 1.5"/>
    <path d="M 118.49108 218.879993 
L 118.49108 218.879974 
" clip-path="url(#pa42d409d39)" style="fill: none; stroke: #ff7f0e; stroke-width: 1.5"/>
    <path d="M 121.534716 218.879991 
L 121.534716 218.879909 
" clip-path="url(#pa42d409d39)" style="fill: none; stroke: #ff7f0e; stroke-width: 1.5"/>
    <path d="M 124.578352 218.879977 
L 124.578352 218.879935 
" clip-path="url(#pa42d409d39)" style="fill: none; stroke: #ff7f0e; stroke-width: 1.5"/>
    <path d="M 127.621989 218.87995 
L 127.621989 218.879842 
" clip-path="url(#pa42d409d39)" style="fill: none; stroke: #ff7f0e; stroke-width: 1.5"/>
    <path d="M 130.665625 218.879983 
L 130.665625 218.87995 
" clip-path="url(#pa42d409d39)" style="fill: none; stroke: #ff7f0e; stroke-width: 1.5"/>
    <path d="M 133.709261 218.879946 
L 133.709261 218.879812 
" clip-path="url(#pa42d409d39)" style="fill: none; stroke: #ff7f0e; stroke-width: 1.5"/>
    <path d="M 136.752898 218.879938 
L 136.752898 218.86318 
" clip-path="url(#pa42d409d39)" style="fill: none; stroke: #ff7f0e; stroke-width: 1.5"/>
    <path d="M 139.796534 218.879905 
L 139.796534 218.879843 
" clip-path="url(#pa42d409d39)" style="fill: none; stroke: #ff7f0e; stroke-width: 1.5"/>
    <path d="M 142.84017 218.879824 
L 142.84017 218.879661 
" clip-path="url(#pa42d409d39)" style="fill: none; stroke: #ff7f0e; stroke-width: 1.5"/>
    <path d="M 145.883807 218.879571 
L 145.883807 218.879316 
" clip-path="url(#pa42d409d39)" style="fill: none; stroke: #ff7f0e; stroke-width: 1.5"/>
    <path d="M 148.927443 218.879461 
L 148.927443 218.87921 
" clip-path="url(#pa42d409d39)" style="fill: none; stroke: #ff7f0e; stroke-width: 1.5"/>
    <path d="M 151.97108 218.879414 
L 151.97108 218.879214 
" clip-path="url(#pa42d409d39)" style="fill: none; stroke: #ff7f0e; stroke-width: 1.5"/>
    <path d="M 155.014716 218.879459 
L 155.014716 218.879231 
" clip-path="url(#pa42d409d39)" style="fill: none; stroke: #ff7f0e; stroke-width: 1.5"/>
    <path d="M 158.058352 218.879365 
L 158.058352 218.87909 
" clip-path="url(#pa42d409d39)" style="fill: none; stroke: #ff7f0e; stroke-width: 1.5"/>
    <path d="M 161.101989 218.87867 
L 161.101989 218.860062 
" clip-path="url(#pa42d409d39)" style="fill: none; stroke: #ff7f0e; stroke-width: 1.5"/>
    <path d="M 164.145625 218.869185 
L 164.145625 218.82292 
" clip-path="url(#pa42d409d39)" style="fill: none; stroke: #ff7f0e; stroke-width: 1.5"/>
    <path d="M 167.189261 218.868858 
L 167.189261 218.838642 
" clip-path="url(#pa42d409d39)" style="fill: none; stroke: #ff7f0e; stroke-width: 1.5"/>
    <path d="M 170.232898 218.878945 
L 170.232898 218.87866 
" clip-path="url(#pa42d409d39)" style="fill: none; stroke: #ff7f0e; stroke-width: 1.5"/>
    <path d="M 173.276534 218.878523 
L 173.276534 218.87815 
" clip-path="url(#pa42d409d39)" style="fill: none; stroke: #ff7f0e; stroke-width: 1.5"/>
    <path d="M 176.32017 218.844866 
L 176.32017 218.788895 
" clip-path="url(#pa42d409d39)" style="fill: none; stroke: #ff7f0e; stroke-width: 1.5"/>
    <path d="M 179.363807 218.853797 
L 179.363807 218.801799 
" clip-path="url(#pa42d409d39)" style="fill: none; stroke: #ff7f0e; stroke-width: 1.5"/>
    <path d="M 182.407443 218.843659 
L 182.407443 218.78881 
" clip-path="url(#pa42d409d39)" style="fill: none; stroke: #ff7f0e; stroke-width: 1.5"/>
    <path d="M 185.45108 218.859519 
L 185.45108 218.817125 
" clip-path="url(#pa42d409d39)" style="fill: none; stroke: #ff7f0e; stroke-width: 1.5"/>
    <path d="M 188.494716 218.824978 
L 188.494716 218.760477 
" clip-path="url(#pa42d409d39)" style="fill: none; stroke: #ff7f0e; stroke-width: 1.5"/>
    <path d="M 191.538352 218.863919 
L 191.538352 218.827959 
" clip-path="url(#pa42d409d39)" style="fill: none; stroke: #ff7f0e; stroke-width: 1.5"/>
    <path d="M 194.581989 218.833286 
L 194.581989 218.791383 
" clip-path="url(#pa42d409d39)" style="fill: none; stroke: #ff7f0e; stroke-width: 1.5"/>
    <path d="M 197.625625 218.736642 
L 197.625625 218.667609 
" clip-path="url(#pa42d409d39)" style="fill: none; stroke: #ff7f0e; stroke-width: 1.5"/>
    <path d="M 200.669261 218.59187 
L 200.669261 218.490869 
" clip-path="url(#pa42d409d39)" style="fill: none; stroke: #ff7f0e; stroke-width: 1.5"/>
    <path d="M 203.712898 218.422603 
L 203.712898 218.298077 
" clip-path="url(#pa42d409d39)" style="fill: none; stroke: #ff7f0e; stroke-width: 1.5"/>
    <path d="M 206.756534 218.193691 
L 206.756534 218.046806 
" clip-path="url(#pa42d409d39)" style="fill: none; stroke: #ff7f0e; stroke-width: 1.5"/>
    <path d="M 209.80017 217.807959 
L 209.80017 217.621919 
" clip-path="url(#pa42d409d39)" style="fill: none; stroke: #ff7f0e; stroke-width: 1.5"/>
    <path d="M 212.843807 217.462594 
L 212.843807 217.246539 
" clip-path="url(#pa42d409d39)" style="fill: none; stroke: #ff7f0e; stroke-width: 1.5"/>
    <path d="M 215.887443 216.640508 
L 215.887443 216.369958 
" clip-path="url(#pa42d409d39)" style="fill: none; stroke: #ff7f0e; stroke-width: 1.5"/>
    <path d="M 218.93108 216.199109 
L 218.93108 215.906425 
" clip-path="url(#pa42d409d39)" style="fill: none; stroke: #ff7f0e; stroke-width: 1.5"/>
    <path d="M 221.974716 214.064156 
L 221.974716 213.660319 
" clip-path="url(#pa42d409d39)" style="fill: none; stroke: #ff7f0e; stroke-width: 1.5"/>
    <path d="M 225.018352 212.344879 
L 225.018352 211.859739 
" clip-path="url(#pa42d409d39)" style="fill: none; stroke: #ff7f0e; stroke-width: 1.5"/>
    <path d="M 228.061989 208.619801 
L 228.061989 207.992556 
" clip-path="url(#pa42d409d39)" style="fill: none; stroke: #ff7f0e; stroke-width: 1.5"/>
    <path d="M 231.105625 203.972207 
L 231.105625 203.20552 
" clip-path="url(#pa42d409d39)" style="fill: none; stroke: #ff7f0e; stroke-width: 1.5"/>
    <path d="M 234.149261 197.301408 
L 234.149261 196.345926 
" clip-path="url(#pa42d409d39)" style="fill: none; stroke: #ff7f0e; stroke-width: 1.5"/>
    <path d="M 237.192898 189.049081 
L 237.192898 187.897658 
" clip-path="url(#pa42d409d39)" style="fill: none; stroke: #ff7f0e; stroke-width: 1.5"/>
    <path d="M 240.236534 178.252634 
L 240.236534 176.876491 
" clip-path="url(#pa42d409d39)" style="fill: none; stroke: #ff7f0e; stroke-width: 1.5"/>
    <path d="M 243.28017 165.567592 
L 243.28017 163.967668 
" clip-path="url(#pa42d409d39)" style="fill: none; stroke: #ff7f0e; stroke-width: 1.5"/>
    <path d="M 246.323807 151.246415 
L 246.323807 149.409721 
" clip-path="url(#pa42d409d39)" style="fill: none; stroke: #ff7f0e; stroke-width: 1.5"/>
    <path d="M 249.367443 139.4253 
L 249.367443 137.411256 
" clip-path="url(#pa42d409d39)" style="fill: none; stroke: #ff7f0e; stroke-width: 1.5"/>
    <path d="M 252.41108 123.545585 
L 252.41108 121.321805 
" clip-path="url(#pa42d409d39)" style="fill: none; stroke: #ff7f0e; stroke-width: 1.5"/>
    <path d="M 255.454716 108.5312 
L 255.454716 106.118921 
" clip-path="url(#pa42d409d39)" style="fill: none; stroke: #ff7f0e; stroke-width: 1.5"/>
    <path d="M 258.498352 93.642611 
L 258.498352 91.050046 
" clip-path="url(#pa42d409d39)" style="fill: none; stroke: #ff7f0e; stroke-width: 1.5"/>
    <path d="M 261.541989 80.369682 
L 261.541989 77.627175 
" clip-path="url(#pa42d409d39)" style="fill: none; stroke: #ff7f0e; stroke-width: 1.5"/>
    <path d="M 264.585625 68.520608 
L 264.585625 65.662804 
" clip-path="url(#pa42d409d39)" style="fill: none; stroke: #ff7f0e; stroke-width: 1.5"/>
    <path d="M 267.629261 59.96796 
L 267.629261 57.013273 
" clip-path="url(#pa42d409d39)" style="fill: none; stroke: #ff7f0e; stroke-width: 1.5"/>
    <path d="M 270.672898 51.441717 
L 270.672898 48.396428 
" clip-path="url(#pa42d409d39)" style="fill: none; stroke: #ff7f0e; stroke-width: 1.5"/>
    <path d="M 273.716534 47.811752 
L 273.716534 44.739684 
" clip-path="url(#pa42d409d39)" style="fill: none; stroke: #ff7f0e; stroke-width: 1.5"/>
    <path d="M 276.76017 41.047967 
L 276.76017 37.908462 
" clip-path="url(#pa42d409d39)" style="fill: none; stroke: #ff7f0e; stroke-width: 1.5"/>
    <path d="M 279.803807 39.194023 
L 279.803807 36.032322 
" clip-path="url(#pa42d409d39)" style="fill: none; stroke: #ff7f0e; stroke-width: 1.5"/>
    <path d="M 282.847443 39.350684 
L 282.847443 36.194741 
" clip-path="url(#pa42d409d39)" style="fill: none; stroke: #ff7f0e; stroke-width: 1.5"/>
    <path d="M 285.89108 34.850937 
L 285.89108 31.65483 
" clip-path="url(#pa42d409d39)" style="fill: none; stroke: #ff7f0e; stroke-width: 1.5"/>
    <path d="M 288.934716 35.04131 
L 288.934716 31.837403 
" clip-path="url(#pa42d409d39)" style="fill: none; stroke: #ff7f0e; stroke-width: 1.5"/>
    <path d="M 291.978352 38.303654 
L 291.978352 35.131135 
" clip-path="url(#pa42d409d39)" style="fill: none; stroke: #ff7f0e; stroke-width: 1.5"/>
    <path d="M 295.021989 41.198411 
L 295.021989 38.041038 
" clip-path="url(#pa42d409d39)" style="fill: none; stroke: #ff7f0e; stroke-width: 1.5"/>
    <path d="M 298.065625 43.346668 
L 298.065625 40.204338 
" clip-path="url(#pa42d409d39)" style="fill: none; stroke: #ff7f0e; stroke-width: 1.5"/>
    <path d="M 301.109261 47.505162 
L 301.109261 44.391724 
" clip-path="url(#pa42d409d39)" style="fill: none; stroke: #ff7f0e; stroke-width: 1.5"/>
    <path d="M 304.152898 57.073568 
L 304.152898 54.035303 
" clip-path="url(#pa42d409d39)" style="fill: none; stroke: #ff7f0e; stroke-width: 1.5"/>
    <path d="M 307.196534 60.220067 
L 307.196534 57.195258 
" clip-path="url(#pa42d409d39)" style="fill: none; stroke: #ff7f0e; stroke-width: 1.5"/>
    <path d="M 310.24017 72.291217 
L 310.24017 69.380776 
" clip-path="url(#pa42d409d39)" style="fill: none; stroke: #ff7f0e; stroke-width: 1.5"/>
    <path d="M 313.283807 85.872791 
L 313.283807 83.09367 
" clip-path="url(#pa42d409d39)" style="fill: none; stroke: #ff7f0e; stroke-width: 1.5"/>
    <path d="M 316.327443 98.85261 
L 316.327443 96.205643 
" clip-path="url(#pa42d409d39)" style="fill: none; stroke: #ff7f0e; stroke-width: 1.5"/>
    <path d="M 319.37108 111.037979 
L 319.37108 108.518888 
" clip-path="url(#pa42d409d39)" style="fill: none; stroke: #ff7f0e; stroke-width: 1.5"/>
    <path d="M 322.414716 126.702012 
L 322.414716 124.366127 
" clip-path="url(#pa42d409d39)" style="fill: none; stroke: #ff7f0e; stroke-width: 1.5"/>
    <path d="M 325.458352 140.668758 
L 325.458352 138.509283 
" clip-path="url(#pa42d409d39)" style="fill: none; stroke: #ff7f0e; stroke-width: 1.5"/>
    <path d="M 328.501989 156.239308 
L 328.501989 154.306531 
" clip-path="url(#pa42d409d39)" style="fill: none; stroke: #ff7f0e; stroke-width: 1.5"/>
    <path d="M 331.545625 167.752945 
L 331.545625 165.999023 
" clip-path="url(#pa42d409d39)" style="fill: none; stroke: #ff7f0e; stroke-width: 1.5"/>
    <path d="M 334.589261 181.238336 
L 334.589261 179.729766 
" clip-path="url(#pa42d409d39)" style="fill: none; stroke: #ff7f0e; stroke-width: 1.5"/>
    <path d="M 337.632898 192.634757 
L 337.632898 191.376779 
" clip-path="url(#pa42d409d39)" style="fill: none; stroke: #ff7f0e; stroke-width: 1.5"/>
    <path d="M 340.676534 198.709635 
L 340.676534 197.600931 
" clip-path="url(#pa42d409d39)" style="fill: none; stroke: #ff7f0e; stroke-width: 1.5"/>
    <path d="M 343.72017 205.19929 
L 343.72017 204.28366 
" clip-path="url(#pa42d409d39)" style="fill: none; stroke: #ff7f0e; stroke-width: 1.5"/>
    <path d="M 346.763807 209.700103 
L 346.763807 208.942692 
" clip-path="url(#pa42d409d39)" style="fill: none; stroke: #ff7f0e; stroke-width: 1.5"/>
    <path d="M 349.807443 213.146541 
L 349.807443 212.554754 
" clip-path="url(#pa42d409d39)" style="fill: none; stroke: #ff7f0e; stroke-width: 1.5"/>
    <path d="M 352.85108 215.479857 
L 352.85108 215.017116 
" clip-path="url(#pa42d409d39)" style="fill: none; stroke: #ff7f0e; stroke-width: 1.5"/>
    <path d="M 355.894716 217.069615 
L 355.894716 216.728653 
" clip-path="url(#pa42d409d39)" style="fill: none; stroke: #ff7f0e; stroke-width: 1.5"/>
    <path d="M 358.938352 218.219228 
L 358.938352 218.006108 
" clip-path="url(#pa42d409d39)" style="fill: none; stroke: #ff7f0e; stroke-width: 1.5"/>
    <path d="M 361.981989 218.656579 
L 361.981989 218.524128 
" clip-path="url(#pa42d409d39)" style="fill: none; stroke: #ff7f0e; stroke-width: 1.5"/>
    <path d="M 365.025625 218.817026 
L 365.025625 218.740286 
" clip-path="url(#pa42d409d39)" style="fill: none; stroke: #ff7f0e; stroke-width: 1.5"/>
   </g>
  </g>
 </g>
 <defs>
  <clipPath id="pa42d409d39">
   <rect x="46.965625" y="7.2" width="334.8" height="221.76"/>
  </clipPath>
 </defs>
</svg>