<?xml version="1.0" encoding="utf-8" standalone="no"?>
<!DOCTYPE svg PUBLIC "-//W3C//DTD SVG 1.1//EN"
  "http://www.w3.org/Graphics/SVG/1.1/DTD/svg11.dtd">
<svg xmlns:xlink="http://www.w3.org/1999/xlink" width="424.615157pt" height="280.132187pt" viewBox="0 0 424.615157 280.132187" xmlns="http://www.w3.org/2000/svg" version="1.1">
 <metadata>
  <rdf:RDF xmlns:dc="http://purl.org/dc/elements/1.1/" xmlns:cc="http://creativecommons.org/ns#" xmlns:rdf="http://www.w3.org/1999/02/22-rdf-syntax-ns#">
   <cc:Work>
    <dc:type rdf:resource="http://purl.org/dc/dcmitype/StillImage"/>
    <dc:date>2024-08-01T15:38:52.902850</dc:date>
    <dc:format>image/svg+xml</dc:format>
    <dc:creator>
     <cc:Agent>
      <dc:title>Matplotlib v3.9.1, https://matplotlib.org/</dc:title>
     </cc:Agent>
    </dc:creator>
   </cc:Work>
  </rdf:RDF>
 </metadata>
 <defs>
  <style type="text/css">*{stroke-linejoin: round; stroke-linecap: butt}</style>
 </defs>
 <g id="figure_1">
  <g id="patch_1">
   <path d="M 0 280.132187 
L 424.615157 280.132187 
L 424.615157 0 
L 0 0 
z
" style="fill: #ffffff"/>
  </g>
  <g id="axes_1">
   <g id="patch_2">
    <path d="M 46.965625 241.6525 
L 403.422545 241.6525 
L 403.422545 7.2 
L 46.965625 7.2 
z
" style="fill: #ffffff"/>
   </g>
   <g id="matplotlib.axis_1">
    <g id="xtick_1">
     <g id="line2d_1">
      <defs>
       <path id="m1b6a9e5a56" d="M 0 0 
L 0 3.5 
" style="stroke: #000000; stroke-width: 0.8"/>
      </defs>
      <g>
       <use xlink:href="#m1b6a9e5a56" x="55.274595" y="241.6525" style="stroke: #000000; stroke-width: 0.8"/>
      </g>
     </g>
     <g id="text_1">
      <!-- 0.000 -->
      <g transform="translate(40.960533 256.250937) scale(0.1 -0.1)">
       <defs>
        <path id="DejaVuSans-30" d="M 2034 4250 
Q 1547 4250 1301 3770 
Q 1056 3291 1056 2328 
Q 1056 1369 1301 889 
Q 1547 409 2034 409 
Q 2525 409 2770 889 
Q 3016 1369 3016 2328 
Q 3016 3291 2770 3770 
Q 2525 4250 2034 4250 
z
M 2034 4750 
Q 2819 4750 3233 4129 
Q 3647 3509 3647 2328 
Q 3647 1150 3233 529 
Q 2819 -91 2034 -91 
Q 1250 -91 836 529 
Q 422 1150 422 2328 
Q 422 3509 836 4129 
Q 1250 4750 2034 4750 
z
" transform="scale(0.015625)"/>
        <path id="DejaVuSans-2e" d="M 684 794 
L 1344 794 
L 1344 0 
L 684 0 
L 684 794 
z
" transform="scale(0.015625)"/>
       </defs>
       <use xlink:href="#DejaVuSans-30"/>
       <use xlink:href="#DejaVuSans-2e" x="63.623047"/>
       <use xlink:href="#DejaVuSans-30" x="95.410156"/>
       <use xlink:href="#DejaVuSans-30" x="159.033203"/>
       <use xlink:href="#DejaVuSans-30" x="222.65625"/>
      </g>
     </g>
    </g>
    <g id="xtick_2">
     <g id="line2d_2">
      <g>
       <use xlink:href="#m1b6a9e5a56" x="98.752908" y="241.6525" style="stroke: #000000; stroke-width: 0.8"/>
      </g>
     </g>
     <g id="text_2">
      <!-- 0.025 -->
      <g transform="translate(84.438845 256.250937) scale(0.1 -0.1)">
       <defs>
        <path id="DejaVuSans-32" d="M 1228 531 
L 3431 531 
L 3431 0 
L 469 0 
L 469 531 
Q 828 903 1448 1529 
Q 2069 2156 2228 2338 
Q 2531 2678 2651 2914 
Q 2772 3150 2772 3378 
Q 2772 3750 2511 3984 
Q 2250 4219 1831 4219 
Q 1534 4219 1204 4116 
Q 875 4013 500 3803 
L 500 4441 
Q 881 4594 1212 4672 
Q 1544 4750 1819 4750 
Q 2544 4750 2975 4387 
Q 3406 4025 3406 3419 
Q 3406 3131 3298 2873 
Q 3191 2616 2906 2266 
Q 2828 2175 2409 1742 
Q 1991 1309 1228 531 
z
" transform="scale(0.015625)"/>
        <path id="DejaVuSans-35" d="M 691 4666 
L 3169 4666 
L 3169 4134 
L 1269 4134 
L 1269 2991 
Q 1406 3038 1543 3061 
Q 1681 3084 1819 3084 
Q 2600 3084 3056 2656 
Q 3513 2228 3513 1497 
Q 3513 744 3044 326 
Q 2575 -91 1722 -91 
Q 1428 -91 1123 -41 
Q 819 9 494 109 
L 494 744 
Q 775 591 1075 516 
Q 1375 441 1709 441 
Q 2250 441 2565 725 
Q 2881 1009 2881 1497 
Q 2881 1984 2565 2268 
Q 2250 2553 1709 2553 
Q 1456 2553 1204 2497 
Q 953 2441 691 2322 
L 691 4666 
z
" transform="scale(0.015625)"/>
       </defs>
       <use xlink:href="#DejaVuSans-30"/>
       <use xlink:href="#DejaVuSans-2e" x="63.623047"/>
       <use xlink:href="#DejaVuSans-30" x="95.410156"/>
       <use xlink:href="#DejaVuSans-32" x="159.033203"/>
       <use xlink:href="#DejaVuSans-35" x="222.65625"/>
      </g>
     </g>
    </g>
    <g id="xtick_3">
     <g id="line2d_3">
      <g>
       <use xlink:href="#m1b6a9e5a56" x="142.23122" y="241.6525" style="stroke: #000000; stroke-width: 0.8"/>
      </g>
     </g>
     <g id="text_3">
      <!-- 0.050 -->
      <g transform="translate(127.917158 256.250937) scale(0.1 -0.1)">
       <use xlink:href="#DejaVuSans-30"/>
       <use xlink:href="#DejaVuSans-2e" x="63.623047"/>
       <use xlink:href="#DejaVuSans-30" x="95.410156"/>
       <use xlink:href="#DejaVuSans-35" x="159.033203"/>
       <use xlink:href="#DejaVuSans-30" x="222.65625"/>
      </g>
     </g>
    </g>
    <g id="xtick_4">
     <g id="line2d_4">
      <g>
       <use xlink:href="#m1b6a9e5a56" x="185.709533" y="241.6525" style="stroke: #000000; stroke-width: 0.8"/>
      </g>
     </g>
     <g id="text_4">
      <!-- 0.075 -->
      <g transform="translate(171.39547 256.250937) scale(0.1 -0.1)">
       <defs>
        <path id="DejaVuSans-37" d="M 525 4666 
L 3525 4666 
L 3525 4397 
L 1831 0 
L 1172 0 
L 2766 4134 
L 525 4134 
L 525 4666 
z
" transform="scale(0.015625)"/>
       </defs>
       <use xlink:href="#DejaVuSans-30"/>
       <use xlink:href="#DejaVuSans-2e" x="63.623047"/>
       <use xlink:href="#DejaVuSans-30" x="95.410156"/>
       <use xlink:href="#DejaVuSans-37" x="159.033203"/>
       <use xlink:href="#DejaVuSans-35" x="222.65625"/>
      </g>
     </g>
    </g>
    <g id="xtick_5">
     <g id="line2d_5">
      <g>
       <use xlink:href="#m1b6a9e5a56" x="229.187845" y="241.6525" style="stroke: #000000; stroke-width: 0.8"/>
      </g>
     </g>
     <g id="text_5">
      <!-- 0.100 -->
      <g transform="translate(214.873783 256.250937) scale(0.1 -0.1)">
       <defs>
        <path id="DejaVuSans-31" d="M 794 531 
L 1825 531 
L 1825 4091 
L 703 3866 
L 703 4441 
L 1819 4666 
L 2450 4666 
L 2450 531 
L 3481 531 
L 3481 0 
L 794 0 
L 794 531 
z
" transform="scale(0.015625)"/>
       </defs>
       <use xlink:href="#DejaVuSans-30"/>
       <use xlink:href="#DejaVuSans-2e" x="63.623047"/>
       <use xlink:href="#DejaVuSans-31" x="95.410156"/>
       <use xlink:href="#DejaVuSans-30" x="159.033203"/>
       <use xlink:href="#DejaVuSans-30" x="222.65625"/>
      </g>
     </g>
    </g>
    <g id="xtick_6">
     <g id="line2d_6">
      <g>
       <use xlink:href="#m1b6a9e5a56" x="272.666158" y="241.6525" style="stroke: #000000; stroke-width: 0.8"/>
      </g>
     </g>
     <g id="text_6">
      <!-- 0.125 -->
      <g transform="translate(258.352095 256.250937) scale(0.1 -0.1)">
       <use xlink:href="#DejaVuSans-30"/>
       <use xlink:href="#DejaVuSans-2e" x="63.623047"/>
       <use xlink:href="#DejaVuSans-31" x="95.410156"/>
       <use xlink:href="#DejaVuSans-32" x="159.033203"/>
       <use xlink:href="#DejaVuSans-35" x="222.65625"/>
      </g>
     </g>
    </g>
    <g id="xtick_7">
     <g id="line2d_7">
      <g>
       <use xlink:href="#m1b6a9e5a56" x="316.14447" y="241.6525" style="stroke: #000000; stroke-width: 0.8"/>
      </g>
     </g>
     <g id="text_7">
      <!-- 0.150 -->
      <g transform="translate(301.830408 256.250937) scale(0.1 -0.1)">
       <use xlink:href="#DejaVuSans-30"/>
       <use xlink:href="#DejaVuSans-2e" x="63.623047"/>
       <use xlink:href="#DejaVuSans-31" x="95.410156"/>
       <use xlink:href="#DejaVuSans-35" x="159.033203"/>
       <use xlink:href="#DejaVuSans-30" x="222.65625"/>
      </g>
     </g>
    </g>
    <g id="xtick_8">
     <g id="line2d_8">
      <g>
       <use xlink:href="#m1b6a9e5a56" x="359.622783" y="241.6525" style="stroke: #000000; stroke-width: 0.8"/>
      </g>
     </g>
     <g id="text_8">
      <!-- 0.175 -->
      <g transform="translate(345.30872 256.250937) scale(0.1 -0.1)">
       <use xlink:href="#DejaVuSans-30"/>
       <use xlink:href="#DejaVuSans-2e" x="63.623047"/>
       <use xlink:href="#DejaVuSans-31" x="95.410156"/>
       <use xlink:href="#DejaVuSans-37" x="159.033203"/>
       <use xlink:href="#DejaVuSans-35" x="222.65625"/>
      </g>
     </g>
    </g>
    <g id="xtick_9">
     <g id="line2d_9">
      <g>
       <use xlink:href="#m1b6a9e5a56" x="403.101095" y="241.6525" style="stroke: #000000; stroke-width: 0.8"/>
      </g>
     </g>
     <g id="text_9">
      <!-- 0.200 -->
      <g transform="translate(388.787032 256.250937) scale(0.1 -0.1)">
       <use xlink:href="#DejaVuSans-30"/>
       <use xlink:href="#DejaVuSans-2e" x="63.623047"/>
       <use xlink:href="#DejaVuSans-32" x="95.410156"/>
       <use xlink:href="#DejaVuSans-30" x="159.033203"/>
       <use xlink:href="#DejaVuSans-30" x="222.65625"/>
      </g>
     </g>
    </g>
    <g id="text_10">
     <!-- Q [1/Å] -->
     <g transform="translate(207.481585 270.8525) scale(0.1 -0.1)">
      <defs>
       <path id="DejaVuSans-51" d="M 2522 4238 
Q 1834 4238 1429 3725 
Q 1025 3213 1025 2328 
Q 1025 1447 1429 934 
Q 1834 422 2522 422 
Q 3209 422 3611 934 
Q 4013 1447 4013 2328 
Q 4013 3213 3611 3725 
Q 3209 4238 2522 4238 
z
M 3406 84 
L 4238 -825 
L 3475 -825 
L 2784 -78 
Q 2681 -84 2626 -87 
Q 2572 -91 2522 -91 
Q 1538 -91 948 567 
Q 359 1225 359 2328 
Q 359 3434 948 4092 
Q 1538 4750 2522 4750 
Q 3503 4750 4090 4092 
Q 4678 3434 4678 2328 
Q 4678 1516 4351 937 
Q 4025 359 3406 84 
z
" transform="scale(0.015625)"/>
       <path id="DejaVuSans-20" transform="scale(0.015625)"/>
       <path id="DejaVuSans-5b" d="M 550 4863 
L 1875 4863 
L 1875 4416 
L 1125 4416 
L 1125 -397 
L 1875 -397 
L 1875 -844 
L 550 -844 
L 550 4863 
z
" transform="scale(0.015625)"/>
       <path id="DejaVuSans-2f" d="M 1625 4666 
L 2156 4666 
L 531 -594 
L 0 -594 
L 1625 4666 
z
" transform="scale(0.015625)"/>
       <path id="DejaVuSans-c5" d="M 2663 5081 
Q 2663 5278 2523 5417 
Q 2384 5556 2188 5556 
Q 1988 5556 1852 5420 
Q 1716 5284 1716 5081 
Q 1716 4884 1853 4746 
Q 1991 4609 2188 4609 
Q 2384 4609 2523 4746 
Q 2663 4884 2663 5081 
z
M 2188 4044 
L 1338 1722 
L 3041 1722 
L 2188 4044 
z
M 1716 4366 
Q 1525 4494 1428 4673 
Q 1331 4853 1331 5081 
Q 1331 5441 1579 5691 
Q 1828 5941 2188 5941 
Q 2544 5941 2795 5689 
Q 3047 5438 3047 5081 
Q 3047 4863 2948 4678 
Q 2850 4494 2663 4366 
L 4325 0 
L 3669 0 
L 3244 1197 
L 1141 1197 
L 716 0 
L 50 0 
L 1716 4366 
z
" transform="scale(0.015625)"/>
       <path id="DejaVuSans-5d" d="M 1947 4863 
L 1947 -844 
L 622 -844 
L 622 -397 
L 1369 -397 
L 1369 4416 
L 622 4416 
L 622 4863 
L 1947 4863 
z
" transform="scale(0.015625)"/>
      </defs>
      <use xlink:href="#DejaVuSans-51"/>
      <use xlink:href="#DejaVuSans-20" x="78.710938"/>
      <use xlink:href="#DejaVuSans-5b" x="110.498047"/>
      <use xlink:href="#DejaVuSans-31" x="149.511719"/>
      <use xlink:href="#DejaVuSans-2f" x="213.134766"/>
      <use xlink:href="#DejaVuSans-c5" x="246.826172"/>
      <use xlink:href="#DejaVuSans-5d" x="315.234375"/>
     </g>
    </g>
   </g>
   <g id="matplotlib.axis_2">
    <g id="ytick_1">
     <g id="line2d_10">
      <defs>
       <path id="m8dc4fe8b34" d="M 0 0 
L -3.5 0 
" style="stroke: #000000; stroke-width: 0.8"/>
      </defs>
      <g>
       <use xlink:href="#m8dc4fe8b34" x="46.965625" y="231.317004" style="stroke: #000000; stroke-width: 0.8"/>
      </g>
     </g>
     <g id="text_11">
      <!-- 0 -->
      <g transform="translate(33.603125 235.116223) scale(0.1 -0.1)">
       <use xlink:href="#DejaVuSans-30"/>
      </g>
     </g>
    </g>
    <g id="ytick_2">
     <g id="line2d_11">
      <g>
       <use xlink:href="#m8dc4fe8b34" x="46.965625" y="186.377577" style="stroke: #000000; stroke-width: 0.8"/>
      </g>
     </g>
     <g id="text_12">
      <!-- 200 -->
      <g transform="translate(20.878125 190.176795) scale(0.1 -0.1)">
       <use xlink:href="#DejaVuSans-32"/>
       <use xlink:href="#DejaVuSans-30" x="63.623047"/>
       <use xlink:href="#DejaVuSans-30" x="127.246094"/>
      </g>
     </g>
    </g>
    <g id="ytick_3">
     <g id="line2d_12">
      <g>
       <use xlink:href="#m8dc4fe8b34" x="46.965625" y="141.438149" style="stroke: #000000; stroke-width: 0.8"/>
      </g>
     </g>
     <g id="text_13">
      <!-- 400 -->
      <g transform="translate(20.878125 145.237368) scale(0.1 -0.1)">
       <defs>
        <path id="DejaVuSans-34" d="M 2419 4116 
L 825 1625 
L 2419 1625 
L 2419 4116 
z
M 2253 4666 
L 3047 4666 
L 3047 1625 
L 3713 1625 
L 3713 1100 
L 3047 1100 
L 3047 0 
L 2419 0 
L 2419 1100 
L 313 1100 
L 313 1709 
L 2253 4666 
z
" transform="scale(0.015625)"/>
       </defs>
       <use xlink:href="#DejaVuSans-34"/>
       <use xlink:href="#DejaVuSans-30" x="63.623047"/>
       <use xlink:href="#DejaVuSans-30" x="127.246094"/>
      </g>
     </g>
    </g>
    <g id="ytick_4">
     <g id="line2d_13">
      <g>
       <use xlink:href="#m8dc4fe8b34" x="46.965625" y="96.498722" style="stroke: #000000; stroke-width: 0.8"/>
      </g>
     </g>
     <g id="text_14">
      <!-- 600 -->
      <g transform="translate(20.878125 100.29794) scale(0.1 -0.1)">
       <defs>
        <path id="DejaVuSans-36" d="M 2113 2584 
Q 1688 2584 1439 2293 
Q 1191 2003 1191 1497 
Q 1191 994 1439 701 
Q 1688 409 2113 409 
Q 2538 409 2786 701 
Q 3034 994 3034 1497 
Q 3034 2003 2786 2293 
Q 2538 2584 2113 2584 
z
M 3366 4563 
L 3366 3988 
Q 3128 4100 2886 4159 
Q 2644 4219 2406 4219 
Q 1781 4219 1451 3797 
Q 1122 3375 1075 2522 
Q 1259 2794 1537 2939 
Q 1816 3084 2150 3084 
Q 2853 3084 3261 2657 
Q 3669 2231 3669 1497 
Q 3669 778 3244 343 
Q 2819 -91 2113 -91 
Q 1303 -91 875 529 
Q 447 1150 447 2328 
Q 447 3434 972 4092 
Q 1497 4750 2381 4750 
Q 2619 4750 2861 4703 
Q 3103 4656 3366 4563 
z
" transform="scale(0.015625)"/>
       </defs>
       <use xlink:href="#DejaVuSans-36"/>
       <use xlink:href="#DejaVuSans-30" x="63.623047"/>
       <use xlink:href="#DejaVuSans-30" x="127.246094"/>
      </g>
     </g>
    </g>
    <g id="ytick_5">
     <g id="line2d_14">
      <g>
       <use xlink:href="#m8dc4fe8b34" x="46.965625" y="51.559294" style="stroke: #000000; stroke-width: 0.8"/>
      </g>
     </g>
     <g id="text_15">
      <!-- 800 -->
      <g transform="translate(20.878125 55.358513) scale(0.1 -0.1)">
       <defs>
        <path id="DejaVuSans-38" d="M 2034 2216 
Q 1584 2216 1326 1975 
Q 1069 1734 1069 1313 
Q 1069 891 1326 650 
Q 1584 409 2034 409 
Q 2484 409 2743 651 
Q 3003 894 3003 1313 
Q 3003 1734 2745 1975 
Q 2488 2216 2034 2216 
z
M 1403 2484 
Q 997 2584 770 2862 
Q 544 3141 544 3541 
Q 544 4100 942 4425 
Q 1341 4750 2034 4750 
Q 2731 4750 3128 4425 
Q 3525 4100 3525 3541 
Q 3525 3141 3298 2862 
Q 3072 2584 2669 2484 
Q 3125 2378 3379 2068 
Q 3634 1759 3634 1313 
Q 3634 634 3220 271 
Q 2806 -91 2034 -91 
Q 1263 -91 848 271 
Q 434 634 434 1313 
Q 434 1759 690 2068 
Q 947 2378 1403 2484 
z
M 1172 3481 
Q 1172 3119 1398 2916 
Q 1625 2713 2034 2713 
Q 2441 2713 2670 2916 
Q 2900 3119 2900 3481 
Q 2900 3844 2670 4047 
Q 2441 4250 2034 4250 
Q 1625 4250 1398 4047 
Q 1172 3844 1172 3481 
z
" transform="scale(0.015625)"/>
       </defs>
       <use xlink:href="#DejaVuSans-38"/>
       <use xlink:href="#DejaVuSans-30" x="63.623047"/>
       <use xlink:href="#DejaVuSans-30" x="127.246094"/>
      </g>
     </g>
    </g>
    <g id="text_16">
     <!-- [counts] -->
     <g transform="translate(14.798437 145.03875) rotate(-90) scale(0.1 -0.1)">
      <defs>
       <path id="DejaVuSans-63" d="M 3122 3366 
L 3122 2828 
Q 2878 2963 2633 3030 
Q 2388 3097 2138 3097 
Q 1578 3097 1268 2742 
Q 959 2388 959 1747 
Q 959 1106 1268 751 
Q 1578 397 2138 397 
Q 2388 397 2633 464 
Q 2878 531 3122 666 
L 3122 134 
Q 2881 22 2623 -34 
Q 2366 -91 2075 -91 
Q 1284 -91 818 406 
Q 353 903 353 1747 
Q 353 2603 823 3093 
Q 1294 3584 2113 3584 
Q 2378 3584 2631 3529 
Q 2884 3475 3122 3366 
z
" transform="scale(0.015625)"/>
       <path id="DejaVuSans-6f" d="M 1959 3097 
Q 1497 3097 1228 2736 
Q 959 2375 959 1747 
Q 959 1119 1226 758 
Q 1494 397 1959 397 
Q 2419 397 2687 759 
Q 2956 1122 2956 1747 
Q 2956 2369 2687 2733 
Q 2419 3097 1959 3097 
z
M 1959 3584 
Q 2709 3584 3137 3096 
Q 3566 2609 3566 1747 
Q 3566 888 3137 398 
Q 2709 -91 1959 -91 
Q 1206 -91 779 398 
Q 353 888 353 1747 
Q 353 2609 779 3096 
Q 1206 3584 1959 3584 
z
" transform="scale(0.015625)"/>
       <path id="DejaVuSans-75" d="M 544 1381 
L 544 3500 
L 1119 3500 
L 1119 1403 
Q 1119 906 1312 657 
Q 1506 409 1894 409 
Q 2359 409 2629 706 
Q 2900 1003 2900 1516 
L 2900 3500 
L 3475 3500 
L 3475 0 
L 2900 0 
L 2900 538 
Q 2691 219 2414 64 
Q 2138 -91 1772 -91 
Q 1169 -91 856 284 
Q 544 659 544 1381 
z
M 1991 3584 
L 1991 3584 
z
" transform="scale(0.015625)"/>
       <path id="DejaVuSans-6e" d="M 3513 2113 
L 3513 0 
L 2938 0 
L 2938 2094 
Q 2938 2591 2744 2837 
Q 2550 3084 2163 3084 
Q 1697 3084 1428 2787 
Q 1159 2491 1159 1978 
L 1159 0 
L 581 0 
L 581 3500 
L 1159 3500 
L 1159 2956 
Q 1366 3272 1645 3428 
Q 1925 3584 2291 3584 
Q 2894 3584 3203 3211 
Q 3513 2838 3513 2113 
z
" transform="scale(0.015625)"/>
       <path id="DejaVuSans-74" d="M 1172 4494 
L 1172 3500 
L 2356 3500 
L 2356 3053 
L 1172 3053 
L 1172 1153 
Q 1172 725 1289 603 
Q 1406 481 1766 481 
L 2356 481 
L 2356 0 
L 1766 0 
Q 1100 0 847 248 
Q 594 497 594 1153 
L 594 3053 
L 172 3053 
L 172 3500 
L 594 3500 
L 594 4494 
L 1172 4494 
z
" transform="scale(0.015625)"/>
       <path id="DejaVuSans-73" d="M 2834 3397 
L 2834 2853 
Q 2591 2978 2328 3040 
Q 2066 3103 1784 3103 
Q 1356 3103 1142 2972 
Q 928 2841 928 2578 
Q 928 2378 1081 2264 
Q 1234 2150 1697 2047 
L 1894 2003 
Q 2506 1872 2764 1633 
Q 3022 1394 3022 966 
Q 3022 478 2636 193 
Q 2250 -91 1575 -91 
Q 1294 -91 989 -36 
Q 684 19 347 128 
L 347 722 
Q 666 556 975 473 
Q 1284 391 1588 391 
Q 1994 391 2212 530 
Q 2431 669 2431 922 
Q 2431 1156 2273 1281 
Q 2116 1406 1581 1522 
L 1381 1569 
Q 847 1681 609 1914 
Q 372 2147 372 2553 
Q 372 3047 722 3315 
Q 1072 3584 1716 3584 
Q 2034 3584 2315 3537 
Q 2597 3491 2834 3397 
z
" transform="scale(0.015625)"/>
      </defs>
      <use xlink:href="#DejaVuSans-5b"/>
      <use xlink:href="#DejaVuSans-63" x="39.013672"/>
      <use xlink:href="#DejaVuSans-6f" x="93.994141"/>
      <use xlink:href="#DejaVuSans-75" x="155.175781"/>
      <use xlink:href="#DejaVuSans-6e" x="218.554688"/>
      <use xlink:href="#DejaVuSans-74" x="281.933594"/>
      <use xlink:href="#DejaVuSans-73" x="321.142578"/>
      <use xlink:href="#DejaVuSans-5d" x="373.242188"/>
     </g>
    </g>
   </g>
   <g id="patch_3">
    <path d="M 46.965625 241.6525 
L 46.965625 7.2 
" style="fill: none; stroke: #000000; stroke-width: 0.8; stroke-linejoin: miter; stroke-linecap: square"/>
   </g>
   <g id="patch_4">
    <path d="M 403.422545 241.6525 
L 403.422545 7.2 
" style="fill: none; stroke: #000000; stroke-width: 0.8; stroke-linejoin: miter; stroke-linecap: square"/>
   </g>
   <g id="patch_5">
    <path d="M 46.965625 241.6525 
L 403.422545 241.6525 
" style="fill: none; stroke: #000000; stroke-width: 0.8; stroke-linejoin: miter; stroke-linecap: square"/>
   </g>
   <g id="patch_6">
    <path d="M 46.965625 7.2 
L 403.422545 7.2 
" style="fill: none; stroke: #000000; stroke-width: 0.8; stroke-linejoin: miter; stroke-linecap: square"/>
   </g>
   <g id="line2d_15">
    <path d="M 63.168212 186.962703 
L 64.788471 186.962703 
L 64.788471 62.702503 
L 66.40873 62.702503 
L 66.40873 50.312158 
L 68.028988 50.312158 
L 68.028988 37.983166 
L 69.649247 37.983166 
L 69.649247 39.750856 
L 71.269506 39.750856 
L 71.269506 59.930898 
L 72.889765 59.930898 
L 72.889765 55.887281 
L 74.510023 55.887281 
L 74.510023 47.058515 
L 76.130282 47.058515 
L 76.130282 54.958235 
L 77.750541 54.958235 
L 77.750541 42.188332 
L 79.3708 42.188332 
L 79.3708 57.035989 
L 80.991058 57.035989 
L 80.991058 43.270621 
L 82.611317 43.270621 
L 82.611317 59.272446 
L 84.231576 59.272446 
L 84.231576 56.532459 
L 85.851834 56.532459 
L 85.851834 74.884102 
L 87.472093 74.884102 
L 87.472093 54.84585 
L 89.092352 54.84585 
L 89.092352 47.219933 
L 90.712611 47.219933 
L 90.712611 55.206868 
L 92.332869 55.206868 
L 92.332869 68.561385 
L 93.953128 68.561385 
L 93.953128 54.918722 
L 95.573387 54.918722 
L 95.573387 73.551811 
L 97.193645 73.551811 
L 97.193645 93.497082 
L 98.813904 93.497082 
L 98.813904 97.47996 
L 100.434163 97.47996 
L 100.434163 117.960703 
L 102.054422 117.960703 
L 102.054422 147.132895 
L 103.67468 147.132895 
L 103.67468 153.453483 
L 105.294939 153.453483 
L 105.294939 177.665373 
L 106.915198 177.665373 
L 106.915198 178.974152 
L 108.535457 178.974152 
L 108.535457 175.266149 
L 110.155715 175.266149 
L 110.155715 162.73584 
L 111.775974 162.73584 
L 111.775974 144.521743 
L 113.396233 144.521743 
L 113.396233 140.281553 
L 115.016491 140.281553 
L 115.016491 112.825554 
L 116.63675 112.825554 
L 116.63675 104.147016 
L 118.257009 104.147016 
L 118.257009 87.690997 
L 119.877268 87.690997 
L 119.877268 72.490397 
L 121.497526 72.490397 
L 121.497526 65.469174 
L 123.117785 65.469174 
L 123.117785 57.744108 
L 124.738044 57.744108 
L 124.738044 58.07881 
L 126.358303 58.07881 
L 126.358303 51.770907 
L 127.978561 51.770907 
L 127.978561 56.401274 
L 129.59882 56.401274 
L 129.59882 41.286619 
L 131.219079 41.286619 
L 131.219079 40.363148 
L 132.839337 40.363148 
L 132.839337 60.92473 
L 134.459596 60.92473 
L 134.459596 55.323977 
L 136.079855 55.323977 
L 136.079855 72.183122 
L 137.700114 72.183122 
L 137.700114 56.380725 
L 139.320372 56.380725 
L 139.320372 60.060942 
L 140.940631 60.060942 
L 140.940631 55.555089 
L 142.56089 55.555089 
L 142.56089 70.429778 
L 144.181149 70.429778 
L 144.181149 59.492147 
L 145.801407 59.492147 
L 145.801407 48.00879 
L 147.421666 48.00879 
L 147.421666 49.132182 
L 149.041925 49.132182 
L 149.041925 48.722556 
L 150.662183 48.722556 
L 150.662183 63.861575 
L 152.282442 63.861575 
L 152.282442 47.847475 
L 153.902701 47.847475 
L 153.902701 50.716845 
L 155.52296 50.716845 
L 155.52296 45.800118 
L 157.143218 45.800118 
L 157.143218 62.12041 
L 158.763477 62.12041 
L 158.763477 46.786263 
L 160.383736 46.786263 
L 160.383736 50.765365 
L 162.003994 50.765365 
L 162.003994 57.794717 
L 163.624253 57.794717 
L 163.624253 55.087072 
L 165.244512 55.087072 
L 165.244512 50.993055 
L 166.864771 50.993055 
L 166.864771 32.056466 
L 168.485029 32.056466 
L 168.485029 52.741861 
L 170.105288 52.741861 
L 170.105288 58.512102 
L 171.725547 58.512102 
L 171.725547 44.574002 
L 173.345806 44.574002 
L 173.345806 51.493933 
L 174.966064 51.493933 
L 174.966064 64.310391 
L 176.586323 64.310391 
L 176.586323 67.876722 
L 178.206582 67.876722 
L 178.206582 50.390839 
L 179.82684 50.390839 
L 179.82684 44.572851 
L 181.447099 44.572851 
L 181.447099 55.376529 
L 183.067358 55.376529 
L 183.067358 48.137508 
L 184.687617 48.137508 
L 184.687617 48.919571 
L 186.307875 48.919571 
L 186.307875 56.169509 
L 187.928134 56.169509 
L 187.928134 64.10993 
L 189.548393 64.10993 
L 189.548393 48.277335 
L 191.168652 48.277335 
L 191.168652 51.327654 
L 192.78891 51.327654 
L 192.78891 58.965354 
L 194.409169 58.965354 
L 194.409169 52.486576 
L 196.029428 52.486576 
L 196.029428 37.290635 
L 197.649686 37.290635 
L 197.649686 52.866732 
L 199.269945 52.866732 
L 199.269945 54.683981 
L 200.890204 54.683981 
L 200.890204 47.021927 
L 202.510463 47.021927 
L 202.510463 50.946089 
L 204.130721 50.946089 
L 204.130721 54.106895 
L 205.75098 54.106895 
L 205.75098 46.999148 
L 207.371239 46.999148 
L 207.371239 45.909143 
L 208.991498 45.909143 
L 208.991498 63.981678 
L 210.611756 63.981678 
L 210.611756 45.20092 
L 212.232015 45.20092 
L 212.232015 63.942992 
L 213.852274 63.942992 
L 213.852274 66.38597 
L 215.472532 66.38597 
L 215.472532 44.528173 
L 217.092791 44.528173 
L 217.092791 56.950596 
L 218.71305 56.950596 
L 218.71305 53.109066 
L 220.333309 53.109066 
L 220.333309 64.442978 
L 221.953567 64.442978 
L 221.953567 75.199573 
L 223.573826 75.199573 
L 223.573826 70.930202 
L 225.194085 70.930202 
L 225.194085 67.381878 
L 226.814343 67.381878 
L 226.814343 67.70938 
L 228.434602 67.70938 
L 228.434602 28.350792 
L 230.054861 28.350792 
L 230.054861 65.797491 
L 231.67512 65.797491 
L 231.67512 54.225541 
L 233.295378 54.225541 
L 233.295378 51.438194 
L 234.915637 51.438194 
L 234.915637 58.759913 
L 236.535896 58.759913 
L 236.535896 52.002063 
L 238.156155 52.002063 
L 238.156155 67.427365 
L 239.776413 67.427365 
L 239.776413 51.131107 
L 241.396672 51.131107 
L 241.396672 60.488925 
L 243.016931 60.488925 
L 243.016931 53.601007 
L 244.637189 53.601007 
L 244.637189 64.097587 
L 246.257448 64.097587 
L 246.257448 55.113722 
L 247.877707 55.113722 
L 247.877707 53.570224 
L 249.497966 53.570224 
L 249.497966 59.0002 
L 251.118224 59.0002 
L 251.118224 61.533048 
L 252.738483 61.533048 
L 252.738483 38.866382 
L 254.358742 38.866382 
L 254.358742 55.678078 
L 255.979001 55.678078 
L 255.979001 47.23457 
L 257.599259 47.23457 
L 257.599259 53.209927 
L 259.219518 53.209927 
L 259.219518 52.162364 
L 260.839777 52.162364 
L 260.839777 45.150542 
L 262.460035 45.150542 
L 262.460035 58.193289 
L 264.080294 58.193289 
L 264.080294 63.628688 
L 265.700553 63.628688 
L 265.700553 52.10932 
L 267.320812 52.10932 
L 267.320812 63.969383 
L 268.94107 63.969383 
L 268.94107 55.738717 
L 270.561329 55.738717 
L 270.561329 54.592707 
L 272.181588 54.592707 
L 272.181588 60.957364 
L 273.801847 60.957364 
L 273.801847 48.860975 
L 275.422105 48.860975 
L 275.422105 53.554785 
L 277.042364 53.554785 
L 277.042364 54.808267 
L 278.662623 54.808267 
L 278.662623 59.508187 
L 280.282881 59.508187 
L 280.282881 65.875376 
L 281.90314 65.875376 
L 281.90314 55.572402 
L 285.143658 55.676809 
L 285.143658 24.67109 
L 286.763916 24.67109 
L 286.763916 51.890243 
L 288.384175 51.890243 
L 288.384175 53.035375 
L 290.004434 53.035375 
L 290.004434 51.842129 
L 291.624692 51.842129 
L 291.624692 54.923997 
L 293.244951 54.923997 
L 293.244951 45.700849 
L 294.86521 45.700849 
L 294.86521 57.905888 
L 296.485469 57.905888 
L 296.485469 46.176999 
L 298.105727 46.176999 
L 298.105727 61.43959 
L 301.346245 61.370234 
L 301.346245 47.193637 
L 302.966504 47.193637 
L 302.966504 53.22248 
L 304.586762 53.22248 
L 304.586762 47.645251 
L 306.207021 47.645251 
L 306.207021 59.523928 
L 307.82728 59.523928 
L 307.82728 61.112747 
L 309.447538 61.112747 
L 309.447538 49.463442 
L 311.067797 49.463442 
L 311.067797 55.897738 
L 312.688056 55.897738 
L 312.688056 59.945278 
L 314.308315 59.945278 
L 314.308315 55.33178 
L 315.928573 55.33178 
L 315.928573 59.497156 
L 317.548832 59.497156 
L 317.548832 69.65185 
L 319.169091 69.65185 
L 319.169091 72.132016 
L 320.78935 72.132016 
L 320.78935 70.315103 
L 322.409608 70.315103 
L 322.409608 92.684275 
L 324.029867 92.684275 
L 324.029867 85.033013 
L 325.650126 85.033013 
L 325.650126 92.330726 
L 327.270384 92.330726 
L 327.270384 88.958852 
L 328.890643 88.958852 
L 328.890643 87.872982 
L 330.510902 87.872982 
L 330.510902 91.410769 
L 332.131161 91.410769 
L 332.131161 94.886693 
L 333.751419 94.886693 
L 333.751419 100.976209 
L 335.371678 100.976209 
L 335.371678 116.322477 
L 336.991937 116.322477 
L 336.991937 114.935652 
L 338.612196 114.935652 
L 338.612196 111.432054 
L 340.232454 111.432054 
L 340.232454 131.145715 
L 341.852713 131.145715 
L 341.852713 119.935544 
L 343.472972 119.935544 
L 343.472972 132.329649 
L 345.09323 132.329649 
L 345.09323 139.799066 
L 346.713489 139.799066 
L 346.713489 142.087078 
L 348.333748 142.087078 
L 348.333748 137.796876 
L 349.954007 137.796876 
L 349.954007 149.827682 
L 351.574265 149.827682 
L 351.574265 151.845677 
L 353.194524 151.845677 
L 353.194524 152.84465 
L 354.814783 152.84465 
L 354.814783 163.49502 
L 356.435041 163.49502 
L 356.435041 160.299565 
L 358.0553 160.299565 
L 358.0553 160.650357 
L 359.675559 160.650357 
L 359.675559 159.022954 
L 361.295818 159.022954 
L 361.295818 177.260437 
L 362.916076 177.260437 
L 362.916076 171.376752 
L 364.536335 171.376752 
L 364.536335 180.278686 
L 366.156594 180.278686 
L 366.156594 189.975831 
L 367.776853 189.975831 
L 367.776853 184.867521 
L 369.397111 184.867521 
L 369.397111 193.886935 
L 371.01737 193.886935 
L 371.01737 198.551178 
L 372.637629 198.551178 
L 372.637629 200.934247 
L 374.257887 200.934247 
L 374.257887 201.830482 
L 375.878146 201.830482 
L 375.878146 206.518345 
L 377.498405 206.518345 
L 377.498405 205.888794 
L 379.118664 205.888794 
L 379.118664 217.531386 
L 380.738922 217.531386 
L 380.738922 220.618699 
L 382.359181 220.618699 
L 382.359181 219.393167 
L 383.97944 219.393167 
L 383.97944 227.894013 
L 385.599699 227.894013 
L 385.599699 230.591933 
L 387.219957 230.591933 
L 387.219957 230.591933 
" clip-path="url(#pab4fde3780)" style="fill: none; stroke: #1f77b4; stroke-width: 1.5; stroke-linecap: square"/>
   </g>
   <g id="LineCollection_1">
    <path d="M 63.978342 190.119646 
L 63.978342 183.805761 
" clip-path="url(#pab4fde3780)" style="fill: none; stroke: #1f77b4; stroke-width: 1.5"/>
    <path d="M 65.5986 68.857761 
L 65.5986 56.547246 
" clip-path="url(#pab4fde3780)" style="fill: none; stroke: #1f77b4; stroke-width: 1.5"/>
    <path d="M 67.218859 56.689561 
L 67.218859 43.934755 
" clip-path="url(#pab4fde3780)" style="fill: none; stroke: #1f77b4; stroke-width: 1.5"/>
    <path d="M 68.839118 44.574188 
L 68.839118 31.392145 
" clip-path="url(#pab4fde3780)" style="fill: none; stroke: #1f77b4; stroke-width: 1.5"/>
    <path d="M 70.459377 46.311677 
L 70.459377 33.190036 
" clip-path="url(#pab4fde3780)" style="fill: none; stroke: #1f77b4; stroke-width: 1.5"/>
    <path d="M 72.079635 66.136538 
L 72.079635 53.725258 
" clip-path="url(#pab4fde3780)" style="fill: none; stroke: #1f77b4; stroke-width: 1.5"/>
    <path d="M 73.699894 62.165701 
L 73.699894 49.608861 
" clip-path="url(#pab4fde3780)" style="fill: none; stroke: #1f77b4; stroke-width: 1.5"/>
    <path d="M 75.320153 53.492982 
L 75.320153 40.624049 
" clip-path="url(#pab4fde3780)" style="fill: none; stroke: #1f77b4; stroke-width: 1.5"/>
    <path d="M 76.940411 61.253258 
L 76.940411 48.663213 
" clip-path="url(#pab4fde3780)" style="fill: none; stroke: #1f77b4; stroke-width: 1.5"/>
    <path d="M 78.56067 48.707279 
L 78.56067 35.669385 
" clip-path="url(#pab4fde3780)" style="fill: none; stroke: #1f77b4; stroke-width: 1.5"/>
    <path d="M 80.180929 63.293819 
L 80.180929 50.778158 
" clip-path="url(#pab4fde3780)" style="fill: none; stroke: #1f77b4; stroke-width: 1.5"/>
    <path d="M 81.801188 49.770889 
L 81.801188 36.770353 
" clip-path="url(#pab4fde3780)" style="fill: none; stroke: #1f77b4; stroke-width: 1.5"/>
    <path d="M 83.421446 65.489995 
L 83.421446 53.054896 
" clip-path="url(#pab4fde3780)" style="fill: none; stroke: #1f77b4; stroke-width: 1.5"/>
    <path d="M 85.041705 62.799323 
L 85.041705 50.265595 
" clip-path="url(#pab4fde3780)" style="fill: none; stroke: #1f77b4; stroke-width: 1.5"/>
    <path d="M 86.661964 80.812848 
L 86.661964 68.955356 
" clip-path="url(#pab4fde3780)" style="fill: none; stroke: #1f77b4; stroke-width: 1.5"/>
    <path d="M 88.282222 61.142878 
L 88.282222 48.548822 
" clip-path="url(#pab4fde3780)" style="fill: none; stroke: #1f77b4; stroke-width: 1.5"/>
    <path d="M 89.902481 53.65158 
L 89.902481 40.788286 
" clip-path="url(#pab4fde3780)" style="fill: none; stroke: #1f77b4; stroke-width: 1.5"/>
    <path d="M 91.52274 61.497452 
L 91.52274 48.916284 
" clip-path="url(#pab4fde3780)" style="fill: none; stroke: #1f77b4; stroke-width: 1.5"/>
    <path d="M 93.142999 74.608758 
L 93.142999 62.514012 
" clip-path="url(#pab4fde3780)" style="fill: none; stroke: #1f77b4; stroke-width: 1.5"/>
    <path d="M 94.763257 61.21445 
L 94.763257 48.622994 
" clip-path="url(#pab4fde3780)" style="fill: none; stroke: #1f77b4; stroke-width: 1.5"/>
    <path d="M 96.383516 79.50575 
L 96.383516 67.597872 
" clip-path="url(#pab4fde3780)" style="fill: none; stroke: #1f77b4; stroke-width: 1.5"/>
    <path d="M 98.003775 99.061948 
L 98.003775 87.932215 
" clip-path="url(#pab4fde3780)" style="fill: none; stroke: #1f77b4; stroke-width: 1.5"/>
    <path d="M 99.624034 102.963827 
L 99.624034 91.996092 
" clip-path="url(#pab4fde3780)" style="fill: none; stroke: #1f77b4; stroke-width: 1.5"/>
    <path d="M 101.244292 123.007567 
L 101.244292 112.913839 
" clip-path="url(#pab4fde3780)" style="fill: none; stroke: #1f77b4; stroke-width: 1.5"/>
    <path d="M 102.864551 151.482139 
L 102.864551 142.78365 
" clip-path="url(#pab4fde3780)" style="fill: none; stroke: #1f77b4; stroke-width: 1.5"/>
    <path d="M 104.48481 157.63627 
L 104.48481 149.270696 
" clip-path="url(#pab4fde3780)" style="fill: none; stroke: #1f77b4; stroke-width: 1.5"/>
    <path d="M 106.105068 181.137457 
L 106.105068 174.193289 
" clip-path="url(#pab4fde3780)" style="fill: none; stroke: #1f77b4; stroke-width: 1.5"/>
    <path d="M 107.725327 182.403626 
L 107.725327 175.544679 
" clip-path="url(#pab4fde3780)" style="fill: none; stroke: #1f77b4; stroke-width: 1.5"/>
    <path d="M 109.345586 178.815018 
L 109.345586 171.717281 
" clip-path="url(#pab4fde3780)" style="fill: none; stroke: #1f77b4; stroke-width: 1.5"/>
    <path d="M 110.965845 166.661396 
L 110.965845 158.810284 
" clip-path="url(#pab4fde3780)" style="fill: none; stroke: #1f77b4; stroke-width: 1.5"/>
    <path d="M 112.586103 148.937924 
L 112.586103 140.105563 
" clip-path="url(#pab4fde3780)" style="fill: none; stroke: #1f77b4; stroke-width: 1.5"/>
    <path d="M 114.206362 144.804318 
L 114.206362 135.758788 
" clip-path="url(#pab4fde3780)" style="fill: none; stroke: #1f77b4; stroke-width: 1.5"/>
    <path d="M 115.826621 117.985466 
L 115.826621 107.665642 
" clip-path="url(#pab4fde3780)" style="fill: none; stroke: #1f77b4; stroke-width: 1.5"/>
    <path d="M 117.44688 109.49255 
L 117.44688 98.801483 
" clip-path="url(#pab4fde3780)" style="fill: none; stroke: #1f77b4; stroke-width: 1.5"/>
    <path d="M 119.067138 93.371874 
L 119.067138 82.010121 
" clip-path="url(#pab4fde3780)" style="fill: none; stroke: #1f77b4; stroke-width: 1.5"/>
    <path d="M 120.687397 78.464331 
L 120.687397 66.516463 
" clip-path="url(#pab4fde3780)" style="fill: none; stroke: #1f77b4; stroke-width: 1.5"/>
    <path d="M 122.307656 71.573724 
L 122.307656 59.364623 
" clip-path="url(#pab4fde3780)" style="fill: none; stroke: #1f77b4; stroke-width: 1.5"/>
    <path d="M 123.927914 63.989213 
L 123.927914 51.499004 
" clip-path="url(#pab4fde3780)" style="fill: none; stroke: #1f77b4; stroke-width: 1.5"/>
    <path d="M 125.548173 64.317891 
L 125.548173 51.83973 
" clip-path="url(#pab4fde3780)" style="fill: none; stroke: #1f77b4; stroke-width: 1.5"/>
    <path d="M 127.168432 58.12256 
L 127.168432 45.419254 
" clip-path="url(#pab4fde3780)" style="fill: none; stroke: #1f77b4; stroke-width: 1.5"/>
    <path d="M 128.788691 62.670489 
L 128.788691 50.132058 
" clip-path="url(#pab4fde3780)" style="fill: none; stroke: #1f77b4; stroke-width: 1.5"/>
    <path d="M 130.408949 47.821088 
L 130.408949 34.75215 
" clip-path="url(#pab4fde3780)" style="fill: none; stroke: #1f77b4; stroke-width: 1.5"/>
    <path d="M 132.029208 46.913476 
L 132.029208 33.812821 
" clip-path="url(#pab4fde3780)" style="fill: none; stroke: #1f77b4; stroke-width: 1.5"/>
    <path d="M 133.649467 67.112351 
L 133.649467 54.737109 
" clip-path="url(#pab4fde3780)" style="fill: none; stroke: #1f77b4; stroke-width: 1.5"/>
    <path d="M 135.269726 61.612469 
L 135.269726 49.035485 
" clip-path="url(#pab4fde3780)" style="fill: none; stroke: #1f77b4; stroke-width: 1.5"/>
    <path d="M 136.889984 78.162832 
L 136.889984 66.203412 
" clip-path="url(#pab4fde3780)" style="fill: none; stroke: #1f77b4; stroke-width: 1.5"/>
    <path d="M 138.510243 62.650309 
L 138.510243 50.111141 
" clip-path="url(#pab4fde3780)" style="fill: none; stroke: #1f77b4; stroke-width: 1.5"/>
    <path d="M 140.130502 66.264228 
L 140.130502 53.857657 
" clip-path="url(#pab4fde3780)" style="fill: none; stroke: #1f77b4; stroke-width: 1.5"/>
    <path d="M 141.75076 61.839451 
L 141.75076 49.270728 
" clip-path="url(#pab4fde3780)" style="fill: none; stroke: #1f77b4; stroke-width: 1.5"/>
    <path d="M 143.371019 76.442339 
L 143.371019 64.417216 
" clip-path="url(#pab4fde3780)" style="fill: none; stroke: #1f77b4; stroke-width: 1.5"/>
    <path d="M 144.991278 65.705726 
L 144.991278 53.278569 
" clip-path="url(#pab4fde3780)" style="fill: none; stroke: #1f77b4; stroke-width: 1.5"/>
    <path d="M 146.611537 54.426643 
L 146.611537 41.590938 
" clip-path="url(#pab4fde3780)" style="fill: none; stroke: #1f77b4; stroke-width: 1.5"/>
    <path d="M 148.231795 55.530338 
L 148.231795 42.734025 
" clip-path="url(#pab4fde3780)" style="fill: none; stroke: #1f77b4; stroke-width: 1.5"/>
    <path d="M 149.852054 55.127902 
L 149.852054 42.317211 
" clip-path="url(#pab4fde3780)" style="fill: none; stroke: #1f77b4; stroke-width: 1.5"/>
    <path d="M 151.472313 69.99564 
L 151.472313 57.727509 
" clip-path="url(#pab4fde3780)" style="fill: none; stroke: #1f77b4; stroke-width: 1.5"/>
    <path d="M 153.092571 54.268151 
L 153.092571 41.426799 
" clip-path="url(#pab4fde3780)" style="fill: none; stroke: #1f77b4; stroke-width: 1.5"/>
    <path d="M 154.71283 57.087115 
L 154.71283 44.346575 
" clip-path="url(#pab4fde3780)" style="fill: none; stroke: #1f77b4; stroke-width: 1.5"/>
    <path d="M 156.333089 52.256519 
L 156.333089 39.343717 
" clip-path="url(#pab4fde3780)" style="fill: none; stroke: #1f77b4; stroke-width: 1.5"/>
    <path d="M 157.953348 68.286283 
L 157.953348 55.954536 
" clip-path="url(#pab4fde3780)" style="fill: none; stroke: #1f77b4; stroke-width: 1.5"/>
    <path d="M 159.573606 53.225481 
L 159.573606 40.347044 
" clip-path="url(#pab4fde3780)" style="fill: none; stroke: #1f77b4; stroke-width: 1.5"/>
    <path d="M 161.193865 57.134779 
L 161.193865 44.395951 
" clip-path="url(#pab4fde3780)" style="fill: none; stroke: #1f77b4; stroke-width: 1.5"/>
    <path d="M 162.814124 64.038911 
L 162.814124 51.550522 
" clip-path="url(#pab4fde3780)" style="fill: none; stroke: #1f77b4; stroke-width: 1.5"/>
    <path d="M 164.434383 61.379795 
L 164.434383 48.794349 
" clip-path="url(#pab4fde3780)" style="fill: none; stroke: #1f77b4; stroke-width: 1.5"/>
    <path d="M 166.054641 57.358452 
L 166.054641 44.627658 
" clip-path="url(#pab4fde3780)" style="fill: none; stroke: #1f77b4; stroke-width: 1.5"/>
    <path d="M 167.6749 38.747749 
L 167.6749 25.365182 
" clip-path="url(#pab4fde3780)" style="fill: none; stroke: #1f77b4; stroke-width: 1.5"/>
    <path d="M 169.295159 59.076316 
L 169.295159 46.407405 
" clip-path="url(#pab4fde3780)" style="fill: none; stroke: #1f77b4; stroke-width: 1.5"/>
    <path d="M 170.915417 64.743375 
L 170.915417 52.280829 
" clip-path="url(#pab4fde3780)" style="fill: none; stroke: #1f77b4; stroke-width: 1.5"/>
    <path d="M 172.535676 51.051703 
L 172.535676 38.0963 
" clip-path="url(#pab4fde3780)" style="fill: none; stroke: #1f77b4; stroke-width: 1.5"/>
    <path d="M 174.155935 57.850483 
L 174.155935 45.137383 
" clip-path="url(#pab4fde3780)" style="fill: none; stroke: #1f77b4; stroke-width: 1.5"/>
    <path d="M 175.776194 70.43623 
L 175.776194 58.184551 
" clip-path="url(#pab4fde3780)" style="fill: none; stroke: #1f77b4; stroke-width: 1.5"/>
    <path d="M 177.396452 73.936802 
L 177.396452 61.816643 
" clip-path="url(#pab4fde3780)" style="fill: none; stroke: #1f77b4; stroke-width: 1.5"/>
    <path d="M 179.016711 56.766856 
L 179.016711 44.014822 
" clip-path="url(#pab4fde3780)" style="fill: none; stroke: #1f77b4; stroke-width: 1.5"/>
    <path d="M 180.63697 51.050572 
L 180.63697 38.095129 
" clip-path="url(#pab4fde3780)" style="fill: none; stroke: #1f77b4; stroke-width: 1.5"/>
    <path d="M 182.257229 61.664082 
L 182.257229 49.088976 
" clip-path="url(#pab4fde3780)" style="fill: none; stroke: #1f77b4; stroke-width: 1.5"/>
    <path d="M 183.877487 54.553107 
L 183.877487 41.721909 
" clip-path="url(#pab4fde3780)" style="fill: none; stroke: #1f77b4; stroke-width: 1.5"/>
    <path d="M 185.497746 55.32146 
L 185.497746 42.517682 
" clip-path="url(#pab4fde3780)" style="fill: none; stroke: #1f77b4; stroke-width: 1.5"/>
    <path d="M 187.118005 62.442876 
L 187.118005 49.896141 
" clip-path="url(#pab4fde3780)" style="fill: none; stroke: #1f77b4; stroke-width: 1.5"/>
    <path d="M 188.738263 70.239445 
L 188.738263 57.980415 
" clip-path="url(#pab4fde3780)" style="fill: none; stroke: #1f77b4; stroke-width: 1.5"/>
    <path d="M 190.358522 54.690485 
L 190.358522 41.864185 
" clip-path="url(#pab4fde3780)" style="fill: none; stroke: #1f77b4; stroke-width: 1.5"/>
    <path d="M 191.978781 57.687142 
L 191.978781 44.968166 
" clip-path="url(#pab4fde3780)" style="fill: none; stroke: #1f77b4; stroke-width: 1.5"/>
    <path d="M 193.59904 65.18845 
L 193.59904 52.742258 
" clip-path="url(#pab4fde3780)" style="fill: none; stroke: #1f77b4; stroke-width: 1.5"/>
    <path d="M 195.219298 58.825558 
L 195.219298 46.147595 
" clip-path="url(#pab4fde3780)" style="fill: none; stroke: #1f77b4; stroke-width: 1.5"/>
    <path d="M 196.839557 43.89345 
L 196.839557 30.68782 
" clip-path="url(#pab4fde3780)" style="fill: none; stroke: #1f77b4; stroke-width: 1.5"/>
    <path d="M 198.459816 59.198972 
L 198.459816 46.534492 
" clip-path="url(#pab4fde3780)" style="fill: none; stroke: #1f77b4; stroke-width: 1.5"/>
    <path d="M 200.080075 60.983896 
L 200.080075 48.384065 
" clip-path="url(#pab4fde3780)" style="fill: none; stroke: #1f77b4; stroke-width: 1.5"/>
    <path d="M 201.700333 53.457032 
L 201.700333 40.586822 
" clip-path="url(#pab4fde3780)" style="fill: none; stroke: #1f77b4; stroke-width: 1.5"/>
    <path d="M 203.320592 57.312315 
L 203.320592 44.579864 
" clip-path="url(#pab4fde3780)" style="fill: none; stroke: #1f77b4; stroke-width: 1.5"/>
    <path d="M 204.940851 60.417094 
L 204.940851 47.796697 
" clip-path="url(#pab4fde3780)" style="fill: none; stroke: #1f77b4; stroke-width: 1.5"/>
    <path d="M 206.561109 53.43465 
L 206.561109 40.563645 
" clip-path="url(#pab4fde3780)" style="fill: none; stroke: #1f77b4; stroke-width: 1.5"/>
    <path d="M 208.181368 52.363646 
L 208.181368 39.454639 
" clip-path="url(#pab4fde3780)" style="fill: none; stroke: #1f77b4; stroke-width: 1.5"/>
    <path d="M 209.801627 70.113543 
L 209.801627 57.849813 
" clip-path="url(#pab4fde3780)" style="fill: none; stroke: #1f77b4; stroke-width: 1.5"/>
    <path d="M 211.421886 51.667739 
L 211.421886 38.7341 
" clip-path="url(#pab4fde3780)" style="fill: none; stroke: #1f77b4; stroke-width: 1.5"/>
    <path d="M 213.042144 70.075566 
L 213.042144 57.810418 
" clip-path="url(#pab4fde3780)" style="fill: none; stroke: #1f77b4; stroke-width: 1.5"/>
    <path d="M 214.662403 72.473624 
L 214.662403 60.298316 
" clip-path="url(#pab4fde3780)" style="fill: none; stroke: #1f77b4; stroke-width: 1.5"/>
    <path d="M 216.282662 51.006669 
L 216.282662 38.049676 
" clip-path="url(#pab4fde3780)" style="fill: none; stroke: #1f77b4; stroke-width: 1.5"/>
    <path d="M 217.90292 63.20996 
L 217.90292 50.691232 
" clip-path="url(#pab4fde3780)" style="fill: none; stroke: #1f77b4; stroke-width: 1.5"/>
    <path d="M 219.523179 59.437005 
L 219.523179 46.781127 
" clip-path="url(#pab4fde3780)" style="fill: none; stroke: #1f77b4; stroke-width: 1.5"/>
    <path d="M 221.143438 70.566385 
L 221.143438 58.319571 
" clip-path="url(#pab4fde3780)" style="fill: none; stroke: #1f77b4; stroke-width: 1.5"/>
    <path d="M 222.763697 81.122338 
L 222.763697 69.276809 
" clip-path="url(#pab4fde3780)" style="fill: none; stroke: #1f77b4; stroke-width: 1.5"/>
    <path d="M 224.383955 76.933406 
L 224.383955 64.926999 
" clip-path="url(#pab4fde3780)" style="fill: none; stroke: #1f77b4; stroke-width: 1.5"/>
    <path d="M 226.004214 73.451124 
L 226.004214 61.312631 
" clip-path="url(#pab4fde3780)" style="fill: none; stroke: #1f77b4; stroke-width: 1.5"/>
    <path d="M 227.624473 73.772561 
L 227.624473 61.646198 
" clip-path="url(#pab4fde3780)" style="fill: none; stroke: #1f77b4; stroke-width: 1.5"/>
    <path d="M 229.244732 35.104008 
L 229.244732 21.597576 
" clip-path="url(#pab4fde3780)" style="fill: none; stroke: #1f77b4; stroke-width: 1.5"/>
    <path d="M 230.86499 71.895995 
L 230.86499 59.698986 
" clip-path="url(#pab4fde3780)" style="fill: none; stroke: #1f77b4; stroke-width: 1.5"/>
    <path d="M 232.485249 60.533627 
L 232.485249 47.917456 
" clip-path="url(#pab4fde3780)" style="fill: none; stroke: #1f77b4; stroke-width: 1.5"/>
    <path d="M 234.105508 57.795729 
L 234.105508 45.080659 
" clip-path="url(#pab4fde3780)" style="fill: none; stroke: #1f77b4; stroke-width: 1.5"/>
    <path d="M 235.725766 64.986717 
L 235.725766 52.533109 
" clip-path="url(#pab4fde3780)" style="fill: none; stroke: #1f77b4; stroke-width: 1.5"/>
    <path d="M 237.346025 58.349625 
L 237.346025 45.6545 
" clip-path="url(#pab4fde3780)" style="fill: none; stroke: #1f77b4; stroke-width: 1.5"/>
    <path d="M 238.966284 73.49577 
L 238.966284 61.358961 
" clip-path="url(#pab4fde3780)" style="fill: none; stroke: #1f77b4; stroke-width: 1.5"/>
    <path d="M 240.586543 57.494066 
L 240.586543 44.768147 
" clip-path="url(#pab4fde3780)" style="fill: none; stroke: #1f77b4; stroke-width: 1.5"/>
    <path d="M 242.206801 66.684454 
L 242.206801 54.293396 
" clip-path="url(#pab4fde3780)" style="fill: none; stroke: #1f77b4; stroke-width: 1.5"/>
    <path d="M 243.82706 59.920206 
L 243.82706 47.281808 
" clip-path="url(#pab4fde3780)" style="fill: none; stroke: #1f77b4; stroke-width: 1.5"/>
    <path d="M 245.447319 70.227328 
L 245.447319 57.967846 
" clip-path="url(#pab4fde3780)" style="fill: none; stroke: #1f77b4; stroke-width: 1.5"/>
    <path d="M 247.067578 61.405969 
L 247.067578 48.821475 
" clip-path="url(#pab4fde3780)" style="fill: none; stroke: #1f77b4; stroke-width: 1.5"/>
    <path d="M 248.687836 59.88997 
L 248.687836 47.250478 
" clip-path="url(#pab4fde3780)" style="fill: none; stroke: #1f77b4; stroke-width: 1.5"/>
    <path d="M 250.308095 65.222666 
L 250.308095 52.777733 
" clip-path="url(#pab4fde3780)" style="fill: none; stroke: #1f77b4; stroke-width: 1.5"/>
    <path d="M 251.928354 67.709614 
L 251.928354 55.356481 
" clip-path="url(#pab4fde3780)" style="fill: none; stroke: #1f77b4; stroke-width: 1.5"/>
    <path d="M 253.548612 45.442331 
L 253.548612 32.290433 
" clip-path="url(#pab4fde3780)" style="fill: none; stroke: #1f77b4; stroke-width: 1.5"/>
    <path d="M 255.168871 61.96024 
L 255.168871 49.395915 
" clip-path="url(#pab4fde3780)" style="fill: none; stroke: #1f77b4; stroke-width: 1.5"/>
    <path d="M 256.78913 53.665961 
L 256.78913 40.803178 
" clip-path="url(#pab4fde3780)" style="fill: none; stroke: #1f77b4; stroke-width: 1.5"/>
    <path d="M 258.409389 59.536076 
L 258.409389 46.883779 
" clip-path="url(#pab4fde3780)" style="fill: none; stroke: #1f77b4; stroke-width: 1.5"/>
    <path d="M 260.029647 58.507089 
L 260.029647 45.817639 
" clip-path="url(#pab4fde3780)" style="fill: none; stroke: #1f77b4; stroke-width: 1.5"/>
    <path d="M 261.649906 51.618236 
L 261.649906 38.682848 
" clip-path="url(#pab4fde3780)" style="fill: none; stroke: #1f77b4; stroke-width: 1.5"/>
    <path d="M 263.270165 64.430308 
L 263.270165 51.95627 
" clip-path="url(#pab4fde3780)" style="fill: none; stroke: #1f77b4; stroke-width: 1.5"/>
    <path d="M 264.890424 69.767017 
L 264.890424 57.490359 
" clip-path="url(#pab4fde3780)" style="fill: none; stroke: #1f77b4; stroke-width: 1.5"/>
    <path d="M 266.510682 58.454984 
L 266.510682 45.763656 
" clip-path="url(#pab4fde3780)" style="fill: none; stroke: #1f77b4; stroke-width: 1.5"/>
    <path d="M 268.130941 70.101473 
L 268.130941 57.837293 
" clip-path="url(#pab4fde3780)" style="fill: none; stroke: #1f77b4; stroke-width: 1.5"/>
    <path d="M 269.7512 62.019795 
L 269.7512 49.457639 
" clip-path="url(#pab4fde3780)" style="fill: none; stroke: #1f77b4; stroke-width: 1.5"/>
    <path d="M 271.371458 60.89425 
L 271.371458 48.291164 
" clip-path="url(#pab4fde3780)" style="fill: none; stroke: #1f77b4; stroke-width: 1.5"/>
    <path d="M 272.991717 67.144392 
L 272.991717 54.770335 
" clip-path="url(#pab4fde3780)" style="fill: none; stroke: #1f77b4; stroke-width: 1.5"/>
    <path d="M 274.611976 55.263893 
L 274.611976 42.458058 
" clip-path="url(#pab4fde3780)" style="fill: none; stroke: #1f77b4; stroke-width: 1.5"/>
    <path d="M 276.232235 59.874806 
L 276.232235 47.234765 
" clip-path="url(#pab4fde3780)" style="fill: none; stroke: #1f77b4; stroke-width: 1.5"/>
    <path d="M 277.852493 61.105966 
L 277.852493 48.510569 
" clip-path="url(#pab4fde3780)" style="fill: none; stroke: #1f77b4; stroke-width: 1.5"/>
    <path d="M 279.472752 65.721475 
L 279.472752 53.294899 
" clip-path="url(#pab4fde3780)" style="fill: none; stroke: #1f77b4; stroke-width: 1.5"/>
    <path d="M 281.093011 71.972446 
L 281.093011 59.778306 
" clip-path="url(#pab4fde3780)" style="fill: none; stroke: #1f77b4; stroke-width: 1.5"/>
    <path d="M 282.71327 61.856454 
L 282.71327 49.28835 
" clip-path="url(#pab4fde3780)" style="fill: none; stroke: #1f77b4; stroke-width: 1.5"/>
    <path d="M 284.333528 61.958994 
L 284.333528 49.394624 
" clip-path="url(#pab4fde3780)" style="fill: none; stroke: #1f77b4; stroke-width: 1.5"/>
    <path d="M 285.953787 31.485247 
L 285.953787 17.856932 
" clip-path="url(#pab4fde3780)" style="fill: none; stroke: #1f77b4; stroke-width: 1.5"/>
    <path d="M 287.574046 58.239785 
L 287.574046 45.540702 
" clip-path="url(#pab4fde3780)" style="fill: none; stroke: #1f77b4; stroke-width: 1.5"/>
    <path d="M 289.194304 59.364622 
L 289.194304 46.706127 
" clip-path="url(#pab4fde3780)" style="fill: none; stroke: #1f77b4; stroke-width: 1.5"/>
    <path d="M 290.814563 58.192522 
L 290.814563 45.491736 
" clip-path="url(#pab4fde3780)" style="fill: none; stroke: #1f77b4; stroke-width: 1.5"/>
    <path d="M 292.434822 61.219631 
L 292.434822 48.628364 
" clip-path="url(#pab4fde3780)" style="fill: none; stroke: #1f77b4; stroke-width: 1.5"/>
    <path d="M 294.055081 52.158977 
L 294.055081 39.242721 
" clip-path="url(#pab4fde3780)" style="fill: none; stroke: #1f77b4; stroke-width: 1.5"/>
    <path d="M 295.675339 64.148082 
L 295.675339 51.663695 
" clip-path="url(#pab4fde3780)" style="fill: none; stroke: #1f77b4; stroke-width: 1.5"/>
    <path d="M 297.295598 52.626838 
L 297.295598 39.727159 
" clip-path="url(#pab4fde3780)" style="fill: none; stroke: #1f77b4; stroke-width: 1.5"/>
    <path d="M 298.915857 67.617856 
L 298.915857 55.261324 
" clip-path="url(#pab4fde3780)" style="fill: none; stroke: #1f77b4; stroke-width: 1.5"/>
    <path d="M 300.536115 67.549761 
L 300.536115 55.190707 
" clip-path="url(#pab4fde3780)" style="fill: none; stroke: #1f77b4; stroke-width: 1.5"/>
    <path d="M 302.156374 53.625743 
L 302.156374 40.76153 
" clip-path="url(#pab4fde3780)" style="fill: none; stroke: #1f77b4; stroke-width: 1.5"/>
    <path d="M 303.776633 59.548405 
L 303.776633 46.896555 
" clip-path="url(#pab4fde3780)" style="fill: none; stroke: #1f77b4; stroke-width: 1.5"/>
    <path d="M 305.396892 54.069464 
L 305.396892 41.221037 
" clip-path="url(#pab4fde3780)" style="fill: none; stroke: #1f77b4; stroke-width: 1.5"/>
    <path d="M 307.01715 65.736932 
L 307.01715 53.310925 
" clip-path="url(#pab4fde3780)" style="fill: none; stroke: #1f77b4; stroke-width: 1.5"/>
    <path d="M 308.637409 67.296954 
L 308.637409 54.928541 
" clip-path="url(#pab4fde3780)" style="fill: none; stroke: #1f77b4; stroke-width: 1.5"/>
    <path d="M 310.257668 55.855779 
L 310.257668 43.071105 
" clip-path="url(#pab4fde3780)" style="fill: none; stroke: #1f77b4; stroke-width: 1.5"/>
    <path d="M 311.877927 62.17597 
L 311.877927 49.619505 
" clip-path="url(#pab4fde3780)" style="fill: none; stroke: #1f77b4; stroke-width: 1.5"/>
    <path d="M 313.498185 66.150658 
L 313.498185 53.739899 
" clip-path="url(#pab4fde3780)" style="fill: none; stroke: #1f77b4; stroke-width: 1.5"/>
    <path d="M 315.118444 61.620133 
L 315.118444 49.043428 
" clip-path="url(#pab4fde3780)" style="fill: none; stroke: #1f77b4; stroke-width: 1.5"/>
    <path d="M 316.738703 65.710643 
L 316.738703 53.283668 
" clip-path="url(#pab4fde3780)" style="fill: none; stroke: #1f77b4; stroke-width: 1.5"/>
    <path d="M 318.358961 75.67893 
L 318.358961 63.624769 
" clip-path="url(#pab4fde3780)" style="fill: none; stroke: #1f77b4; stroke-width: 1.5"/>
    <path d="M 319.97922 78.112686 
L 319.97922 66.151346 
" clip-path="url(#pab4fde3780)" style="fill: none; stroke: #1f77b4; stroke-width: 1.5"/>
    <path d="M 321.599479 76.329808 
L 321.599479 64.300399 
" clip-path="url(#pab4fde3780)" style="fill: none; stroke: #1f77b4; stroke-width: 1.5"/>
    <path d="M 323.219738 98.265527 
L 323.219738 87.103022 
" clip-path="url(#pab4fde3780)" style="fill: none; stroke: #1f77b4; stroke-width: 1.5"/>
    <path d="M 324.839996 90.766214 
L 324.839996 79.299812 
" clip-path="url(#pab4fde3780)" style="fill: none; stroke: #1f77b4; stroke-width: 1.5"/>
    <path d="M 326.460255 97.919091 
L 326.460255 86.742361 
" clip-path="url(#pab4fde3780)" style="fill: none; stroke: #1f77b4; stroke-width: 1.5"/>
    <path d="M 328.080514 94.614599 
L 328.080514 83.303105 
" clip-path="url(#pab4fde3780)" style="fill: none; stroke: #1f77b4; stroke-width: 1.5"/>
    <path d="M 329.700773 93.550258 
L 329.700773 82.195707 
" clip-path="url(#pab4fde3780)" style="fill: none; stroke: #1f77b4; stroke-width: 1.5"/>
    <path d="M 331.321031 97.017597 
L 331.321031 85.80394 
" clip-path="url(#pab4fde3780)" style="fill: none; stroke: #1f77b4; stroke-width: 1.5"/>
    <path d="M 332.94129 100.423434 
L 332.94129 89.349952 
" clip-path="url(#pab4fde3780)" style="fill: none; stroke: #1f77b4; stroke-width: 1.5"/>
    <path d="M 334.561549 106.387974 
L 334.561549 95.564444 
" clip-path="url(#pab4fde3780)" style="fill: none; stroke: #1f77b4; stroke-width: 1.5"/>
    <path d="M 336.181807 121.405679 
L 336.181807 111.239275 
" clip-path="url(#pab4fde3780)" style="fill: none; stroke: #1f77b4; stroke-width: 1.5"/>
    <path d="M 337.802066 120.049413 
L 337.802066 109.82189 
" clip-path="url(#pab4fde3780)" style="fill: none; stroke: #1f77b4; stroke-width: 1.5"/>
    <path d="M 339.422325 116.622219 
L 339.422325 106.24189 
" clip-path="url(#pab4fde3780)" style="fill: none; stroke: #1f77b4; stroke-width: 1.5"/>
    <path d="M 341.042584 135.889996 
L 341.042584 126.401434 
" clip-path="url(#pab4fde3780)" style="fill: none; stroke: #1f77b4; stroke-width: 1.5"/>
    <path d="M 342.662842 124.938253 
L 342.662842 114.932835 
" clip-path="url(#pab4fde3780)" style="fill: none; stroke: #1f77b4; stroke-width: 1.5"/>
    <path d="M 344.283101 137.04581 
L 344.283101 127.613488 
" clip-path="url(#pab4fde3780)" style="fill: none; stroke: #1f77b4; stroke-width: 1.5"/>
    <path d="M 345.90336 144.333801 
L 345.90336 135.264331 
" clip-path="url(#pab4fde3780)" style="fill: none; stroke: #1f77b4; stroke-width: 1.5"/>
    <path d="M 347.523619 146.564768 
L 347.523619 137.609388 
" clip-path="url(#pab4fde3780)" style="fill: none; stroke: #1f77b4; stroke-width: 1.5"/>
    <path d="M 349.143877 142.380947 
L 349.143877 133.212805 
" clip-path="url(#pab4fde3780)" style="fill: none; stroke: #1f77b4; stroke-width: 1.5"/>
    <path d="M 350.764136 154.10675 
L 350.764136 145.548615 
" clip-path="url(#pab4fde3780)" style="fill: none; stroke: #1f77b4; stroke-width: 1.5"/>
    <path d="M 352.384395 156.071429 
L 352.384395 147.619925 
" clip-path="url(#pab4fde3780)" style="fill: none; stroke: #1f77b4; stroke-width: 1.5"/>
    <path d="M 354.004653 157.043758 
L 354.004653 148.645541 
" clip-path="url(#pab4fde3780)" style="fill: none; stroke: #1f77b4; stroke-width: 1.5"/>
    <path d="M 355.624912 167.398788 
L 355.624912 159.591252 
" clip-path="url(#pab4fde3780)" style="fill: none; stroke: #1f77b4; stroke-width: 1.5"/>
    <path d="M 357.245171 164.294238 
L 357.245171 156.304891 
" clip-path="url(#pab4fde3780)" style="fill: none; stroke: #1f77b4; stroke-width: 1.5"/>
    <path d="M 358.86543 164.635152 
L 358.86543 156.665562 
" clip-path="url(#pab4fde3780)" style="fill: none; stroke: #1f77b4; stroke-width: 1.5"/>
    <path d="M 360.485688 163.053372 
L 360.485688 154.992537 
" clip-path="url(#pab4fde3780)" style="fill: none; stroke: #1f77b4; stroke-width: 1.5"/>
    <path d="M 362.105947 180.745599 
L 362.105947 173.775275 
" clip-path="url(#pab4fde3780)" style="fill: none; stroke: #1f77b4; stroke-width: 1.5"/>
    <path d="M 363.726206 175.046684 
L 363.726206 167.706819 
" clip-path="url(#pab4fde3780)" style="fill: none; stroke: #1f77b4; stroke-width: 1.5"/>
    <path d="M 365.346464 183.665153 
L 365.346464 176.892218 
" clip-path="url(#pab4fde3780)" style="fill: none; stroke: #1f77b4; stroke-width: 1.5"/>
    <path d="M 366.966723 193.023657 
L 366.966723 186.928005 
" clip-path="url(#pab4fde3780)" style="fill: none; stroke: #1f77b4; stroke-width: 1.5"/>
    <path d="M 368.586982 188.098166 
L 368.586982 181.636876 
" clip-path="url(#pab4fde3780)" style="fill: none; stroke: #1f77b4; stroke-width: 1.5"/>
    <path d="M 370.207241 196.787009 
L 370.207241 190.986861 
" clip-path="url(#pab4fde3780)" style="fill: none; stroke: #1f77b4; stroke-width: 1.5"/>
    <path d="M 371.827499 201.26455 
L 371.827499 195.837806 
" clip-path="url(#pab4fde3780)" style="fill: none; stroke: #1f77b4; stroke-width: 1.5"/>
    <path d="M 373.447758 203.547084 
L 373.447758 198.32141 
" clip-path="url(#pab4fde3780)" style="fill: none; stroke: #1f77b4; stroke-width: 1.5"/>
    <path d="M 375.068017 204.404494 
L 375.068017 199.25647 
" clip-path="url(#pab4fde3780)" style="fill: none; stroke: #1f77b4; stroke-width: 1.5"/>
    <path d="M 376.688276 208.878893 
L 376.688276 204.157797 
" clip-path="url(#pab4fde3780)" style="fill: none; stroke: #1f77b4; stroke-width: 1.5"/>
    <path d="M 378.308534 208.279117 
L 378.308534 203.49847 
" clip-path="url(#pab4fde3780)" style="fill: none; stroke: #1f77b4; stroke-width: 1.5"/>
    <path d="M 379.928793 219.291383 
L 379.928793 215.771389 
" clip-path="url(#pab4fde3780)" style="fill: none; stroke: #1f77b4; stroke-width: 1.5"/>
    <path d="M 381.549052 222.169144 
L 381.549052 219.068255 
" clip-path="url(#pab4fde3780)" style="fill: none; stroke: #1f77b4; stroke-width: 1.5"/>
    <path d="M 383.16931 221.030009 
L 383.16931 217.756325 
" clip-path="url(#pab4fde3780)" style="fill: none; stroke: #1f77b4; stroke-width: 1.5"/>
    <path d="M 384.789569 228.771017 
L 384.789569 227.017009 
" clip-path="url(#pab4fde3780)" style="fill: none; stroke: #1f77b4; stroke-width: 1.5"/>
    <path d="M 386.409828 230.995568 
L 386.409828 230.188298 
" clip-path="url(#pab4fde3780)" style="fill: none; stroke: #1f77b4; stroke-width: 1.5"/>
   </g>
  </g>
 </g>
 <defs>
  <clipPath id="pab4fde3780">
   <rect x="46.965625" y="7.2" width="356.45692" height="234.4525"/>
  </clipPath>
 </defs>
</svg>