<?xml version="1.0" encoding="UTF-8" standalone="no"?>
<!DOCTYPE svg PUBLIC "-//W3C//DTD SVG 1.1//EN"
 "http://www.w3.org/Graphics/SVG/1.1/DTD/svg11.dtd">
<!-- Generated by graphviz version 2.43.0 (0)
 -->
<!-- Title: %3 Pages: 1 -->
<svg width="526pt" height="361pt"
 viewBox="0.00 0.00 526.00 361.00" xmlns="http://www.w3.org/2000/svg" xmlns:xlink="http://www.w3.org/1999/xlink">
<g id="graph0" class="graph" transform="scale(1 1) rotate(0) translate(4 357)">
<title>%3</title>
<polygon fill="white" stroke="transparent" points="-4,4 -4,-357 522,-357 522,4 -4,4"/>
<!-- Compute (incident_beam) = straight_incident_beam(source_position, sample_position) -->
<g id="node1" class="node">
<title>Compute (incident_beam) = straight_incident_beam(source_position, sample_position)</title>
<polygon fill="lightgrey" stroke="transparent" points="412,-294 220,-294 220,-279 412,-279 412,-294"/>
<text text-anchor="middle" x="316" y="-282.8" font-family="Times,serif" font-size="14.00">straight_incident_beam(...)</text>
</g>
<!-- incident_beam -->
<g id="node2" class="node">
<title>incident_beam</title>
<polygon fill="none" stroke="black" points="357,-243 237,-243 237,-220 357,-220 357,-243"/>
<text text-anchor="middle" x="297" y="-227.8" font-family="Times,serif" font-size="14.00">incident_beam</text>
</g>
<!-- Compute (incident_beam) = straight_incident_beam(source_position, sample_position)&#45;&gt;incident_beam -->
<g id="edge1" class="edge">
<title>Compute (incident_beam) = straight_incident_beam(source_position, sample_position)&#45;&gt;incident_beam</title>
<path fill="none" stroke="black" d="M313.52,-278.57C311.18,-272.05 307.56,-261.95 304.3,-252.87"/>
<polygon fill="black" stroke="black" points="307.54,-251.52 300.87,-243.29 300.95,-253.88 307.54,-251.52"/>
</g>
<!-- Compute (L1) = L1(incident_beam) -->
<g id="node8" class="node">
<title>Compute (L1) = L1(incident_beam)</title>
<polygon fill="lightgrey" stroke="transparent" points="318.5,-184 275.5,-184 275.5,-169 318.5,-169 318.5,-184"/>
<text text-anchor="middle" x="297" y="-172.8" font-family="Times,serif" font-size="14.00">L1(...)</text>
</g>
<!-- incident_beam&#45;&gt;Compute (L1) = L1(incident_beam) -->
<g id="edge8" class="edge">
<title>incident_beam&#45;&gt;Compute (L1) = L1(incident_beam)</title>
<path fill="none" stroke="black" d="M297,-219.77C297,-212.45 297,-202.61 297,-194.26"/>
<polygon fill="black" stroke="black" points="300.5,-194.19 297,-184.19 293.5,-194.19 300.5,-194.19"/>
</g>
<!-- Compute (two_theta) = two_theta(incident_beam, scattered_beam) -->
<g id="node12" class="node">
<title>Compute (two_theta) = two_theta(incident_beam, scattered_beam)</title>
<polygon fill="lightgrey" stroke="transparent" points="255.5,-184 160.5,-184 160.5,-169 255.5,-169 255.5,-184"/>
<text text-anchor="middle" x="208" y="-172.8" font-family="Times,serif" font-size="14.00">two_theta(...)</text>
</g>
<!-- incident_beam&#45;&gt;Compute (two_theta) = two_theta(incident_beam, scattered_beam) -->
<g id="edge12" class="edge">
<title>incident_beam&#45;&gt;Compute (two_theta) = two_theta(incident_beam, scattered_beam)</title>
<path fill="none" stroke="black" d="M278.99,-219.77C264.18,-210.96 243.23,-198.48 227.92,-189.36"/>
<polygon fill="black" stroke="black" points="229.61,-186.3 219.23,-184.19 226.03,-192.31 229.61,-186.3"/>
</g>
<!-- source_position -->
<g id="node3" class="node">
<title>source_position</title>
<polygon fill="none" stroke="black" points="407,-353 279,-353 279,-330 407,-330 407,-353"/>
<text text-anchor="middle" x="343" y="-337.8" font-family="Times,serif" font-size="14.00">source_position</text>
</g>
<!-- source_position&#45;&gt;Compute (incident_beam) = straight_incident_beam(source_position, sample_position) -->
<g id="edge2" class="edge">
<title>source_position&#45;&gt;Compute (incident_beam) = straight_incident_beam(source_position, sample_position)</title>
<path fill="none" stroke="black" d="M337.54,-329.77C333.64,-322.12 328.33,-311.71 323.96,-303.13"/>
<polygon fill="black" stroke="black" points="327.06,-301.51 319.41,-294.19 320.83,-304.68 327.06,-301.51"/>
</g>
<!-- sample_position -->
<g id="node4" class="node">
<title>sample_position</title>
<polygon fill="none" stroke="black" points="260.5,-353 129.5,-353 129.5,-330 260.5,-330 260.5,-353"/>
<text text-anchor="middle" x="195" y="-337.8" font-family="Times,serif" font-size="14.00">sample_position</text>
</g>
<!-- sample_position&#45;&gt;Compute (incident_beam) = straight_incident_beam(source_position, sample_position) -->
<g id="edge3" class="edge">
<title>sample_position&#45;&gt;Compute (incident_beam) = straight_incident_beam(source_position, sample_position)</title>
<path fill="none" stroke="black" d="M219.2,-329.9C240.27,-320.67 270.68,-307.35 291.76,-298.12"/>
<polygon fill="black" stroke="black" points="293.25,-301.28 301.01,-294.07 290.44,-294.87 293.25,-301.28"/>
</g>
<!-- Compute (scattered_beam) = straight_scattered_beam(position, sample_position) -->
<g id="node5" class="node">
<title>Compute (scattered_beam) = straight_scattered_beam(position, sample_position)</title>
<polygon fill="lightgrey" stroke="transparent" points="202,-294 0,-294 0,-279 202,-279 202,-294"/>
<text text-anchor="middle" x="101" y="-282.8" font-family="Times,serif" font-size="14.00">straight_scattered_beam(...)</text>
</g>
<!-- sample_position&#45;&gt;Compute (scattered_beam) = straight_scattered_beam(position, sample_position) -->
<g id="edge6" class="edge">
<title>sample_position&#45;&gt;Compute (scattered_beam) = straight_scattered_beam(position, sample_position)</title>
<path fill="none" stroke="black" d="M175.98,-329.77C160.1,-320.82 137.53,-308.1 121.31,-298.95"/>
<polygon fill="black" stroke="black" points="123.02,-295.9 112.59,-294.03 119.58,-301.99 123.02,-295.9"/>
</g>
<!-- scattered_beam -->
<g id="node6" class="node">
<title>scattered_beam</title>
<polygon fill="none" stroke="black" points="184,-243 54,-243 54,-220 184,-220 184,-243"/>
<text text-anchor="middle" x="119" y="-227.8" font-family="Times,serif" font-size="14.00">scattered_beam</text>
</g>
<!-- Compute (scattered_beam) = straight_scattered_beam(position, sample_position)&#45;&gt;scattered_beam -->
<g id="edge4" class="edge">
<title>Compute (scattered_beam) = straight_scattered_beam(position, sample_position)&#45;&gt;scattered_beam</title>
<path fill="none" stroke="black" d="M103.35,-278.57C105.57,-272.05 109,-261.95 112.08,-252.87"/>
<polygon fill="black" stroke="black" points="115.43,-253.88 115.34,-243.29 108.81,-251.63 115.43,-253.88"/>
</g>
<!-- Compute (L2) = L2(scattered_beam) -->
<g id="node10" class="node">
<title>Compute (L2) = L2(scattered_beam)</title>
<polygon fill="lightgrey" stroke="transparent" points="140.5,-184 97.5,-184 97.5,-169 140.5,-169 140.5,-184"/>
<text text-anchor="middle" x="119" y="-172.8" font-family="Times,serif" font-size="14.00">L2(...)</text>
</g>
<!-- scattered_beam&#45;&gt;Compute (L2) = L2(scattered_beam) -->
<g id="edge10" class="edge">
<title>scattered_beam&#45;&gt;Compute (L2) = L2(scattered_beam)</title>
<path fill="none" stroke="black" d="M119,-219.77C119,-212.45 119,-202.61 119,-194.26"/>
<polygon fill="black" stroke="black" points="122.5,-194.19 119,-184.19 115.5,-194.19 122.5,-194.19"/>
</g>
<!-- scattered_beam&#45;&gt;Compute (two_theta) = two_theta(incident_beam, scattered_beam) -->
<g id="edge13" class="edge">
<title>scattered_beam&#45;&gt;Compute (two_theta) = two_theta(incident_beam, scattered_beam)</title>
<path fill="none" stroke="black" d="M137.01,-219.77C151.82,-210.96 172.77,-198.48 188.08,-189.36"/>
<polygon fill="black" stroke="black" points="189.97,-192.31 196.77,-184.19 186.39,-186.3 189.97,-192.31"/>
</g>
<!-- position -->
<g id="node7" class="node">
<title>position</title>
<polygon fill="none" stroke="black" points="111,-353 37,-353 37,-330 111,-330 111,-353"/>
<text text-anchor="middle" x="74" y="-337.8" font-family="Times,serif" font-size="14.00">position</text>
</g>
<!-- position&#45;&gt;Compute (scattered_beam) = straight_scattered_beam(position, sample_position) -->
<g id="edge5" class="edge">
<title>position&#45;&gt;Compute (scattered_beam) = straight_scattered_beam(position, sample_position)</title>
<path fill="none" stroke="black" d="M79.46,-329.77C83.36,-322.12 88.67,-311.71 93.04,-303.13"/>
<polygon fill="black" stroke="black" points="96.17,-304.68 97.59,-294.19 89.94,-301.51 96.17,-304.68"/>
</g>
<!-- L1 -->
<g id="node9" class="node">
<title>L1</title>
<polygon fill="none" stroke="black" points="324,-133 270,-133 270,-110 324,-110 324,-133"/>
<text text-anchor="middle" x="297" y="-117.8" font-family="Times,serif" font-size="14.00">L1</text>
</g>
<!-- Compute (L1) = L1(incident_beam)&#45;&gt;L1 -->
<g id="edge7" class="edge">
<title>Compute (L1) = L1(incident_beam)&#45;&gt;L1</title>
<path fill="none" stroke="black" d="M297,-168.57C297,-162.19 297,-152.38 297,-143.45"/>
<polygon fill="black" stroke="black" points="300.5,-143.29 297,-133.29 293.5,-143.29 300.5,-143.29"/>
</g>
<!-- Compute (Ltotal) = total_beam_length(L1, L2) -->
<g id="node14" class="node">
<title>Compute (Ltotal) = total_beam_length(L1, L2)</title>
<polygon fill="lightgrey" stroke="transparent" points="219,-74 63,-74 63,-59 219,-59 219,-74"/>
<text text-anchor="middle" x="141" y="-62.8" font-family="Times,serif" font-size="14.00">total_beam_length(...)</text>
</g>
<!-- L1&#45;&gt;Compute (Ltotal) = total_beam_length(L1, L2) -->
<g id="edge15" class="edge">
<title>L1&#45;&gt;Compute (Ltotal) = total_beam_length(L1, L2)</title>
<path fill="none" stroke="black" d="M269.83,-111.27C241.99,-101.81 198.87,-87.16 170.29,-77.45"/>
<polygon fill="black" stroke="black" points="171.07,-74.02 160.47,-74.12 168.81,-80.65 171.07,-74.02"/>
</g>
<!-- Compute (energy_transfer) = energy_transfer_indirect_from_tof(tof, L1, L2, final_energy) -->
<g id="node16" class="node">
<title>Compute (energy_transfer) = energy_transfer_indirect_from_tof(tof, L1, L2, final_energy)</title>
<polygon fill="lightgrey" stroke="transparent" points="516,-74 248,-74 248,-59 516,-59 516,-74"/>
<text text-anchor="middle" x="382" y="-62.8" font-family="Times,serif" font-size="14.00">energy_transfer_indirect_from_tof(...)</text>
</g>
<!-- L1&#45;&gt;Compute (energy_transfer) = energy_transfer_indirect_from_tof(tof, L1, L2, final_energy) -->
<g id="edge19" class="edge">
<title>L1&#45;&gt;Compute (energy_transfer) = energy_transfer_indirect_from_tof(tof, L1, L2, final_energy)</title>
<path fill="none" stroke="black" d="M314.2,-109.77C328.21,-101.04 347.98,-88.71 362.56,-79.62"/>
<polygon fill="black" stroke="black" points="364.64,-82.45 371.28,-74.19 360.94,-76.51 364.64,-82.45"/>
</g>
<!-- L2 -->
<g id="node11" class="node">
<title>L2</title>
<polygon fill="none" stroke="black" points="146,-133 92,-133 92,-110 146,-110 146,-133"/>
<text text-anchor="middle" x="119" y="-117.8" font-family="Times,serif" font-size="14.00">L2</text>
</g>
<!-- Compute (L2) = L2(scattered_beam)&#45;&gt;L2 -->
<g id="edge9" class="edge">
<title>Compute (L2) = L2(scattered_beam)&#45;&gt;L2</title>
<path fill="none" stroke="black" d="M119,-168.57C119,-162.19 119,-152.38 119,-143.45"/>
<polygon fill="black" stroke="black" points="122.5,-143.29 119,-133.29 115.5,-143.29 122.5,-143.29"/>
</g>
<!-- L2&#45;&gt;Compute (Ltotal) = total_beam_length(L1, L2) -->
<g id="edge16" class="edge">
<title>L2&#45;&gt;Compute (Ltotal) = total_beam_length(L1, L2)</title>
<path fill="none" stroke="black" d="M123.45,-109.77C126.56,-102.29 130.76,-92.16 134.28,-83.7"/>
<polygon fill="black" stroke="black" points="137.62,-84.76 138.22,-74.19 131.16,-82.08 137.62,-84.76"/>
</g>
<!-- L2&#45;&gt;Compute (energy_transfer) = energy_transfer_indirect_from_tof(tof, L1, L2, final_energy) -->
<g id="edge20" class="edge">
<title>L2&#45;&gt;Compute (energy_transfer) = energy_transfer_indirect_from_tof(tof, L1, L2, final_energy)</title>
<path fill="none" stroke="black" d="M146,-112.53C149.36,-111.63 152.75,-110.77 156,-110 215.79,-95.92 285.35,-83.42 331.34,-75.68"/>
<polygon fill="black" stroke="black" points="332.06,-79.1 341.35,-74 330.91,-72.2 332.06,-79.1"/>
</g>
<!-- two_theta -->
<g id="node13" class="node">
<title>two_theta</title>
<polygon fill="none" stroke="black" points="251.5,-133 164.5,-133 164.5,-110 251.5,-110 251.5,-133"/>
<text text-anchor="middle" x="208" y="-117.8" font-family="Times,serif" font-size="14.00">two_theta</text>
</g>
<!-- Compute (two_theta) = two_theta(incident_beam, scattered_beam)&#45;&gt;two_theta -->
<g id="edge11" class="edge">
<title>Compute (two_theta) = two_theta(incident_beam, scattered_beam)&#45;&gt;two_theta</title>
<path fill="none" stroke="black" d="M208,-168.57C208,-162.19 208,-152.38 208,-143.45"/>
<polygon fill="black" stroke="black" points="211.5,-143.29 208,-133.29 204.5,-143.29 211.5,-143.29"/>
</g>
<!-- Ltotal -->
<g id="node15" class="node">
<title>Ltotal</title>
<polygon fill="none" stroke="black" points="170.5,-23 111.5,-23 111.5,0 170.5,0 170.5,-23"/>
<text text-anchor="middle" x="141" y="-7.8" font-family="Times,serif" font-size="14.00">Ltotal</text>
</g>
<!-- Compute (Ltotal) = total_beam_length(L1, L2)&#45;&gt;Ltotal -->
<g id="edge14" class="edge">
<title>Compute (Ltotal) = total_beam_length(L1, L2)&#45;&gt;Ltotal</title>
<path fill="none" stroke="black" d="M141,-58.57C141,-52.19 141,-42.38 141,-33.45"/>
<polygon fill="black" stroke="black" points="144.5,-33.29 141,-23.29 137.5,-33.29 144.5,-33.29"/>
</g>
<!-- energy_transfer -->
<g id="node17" class="node">
<title>energy_transfer</title>
<polygon fill="none" stroke="black" points="447.5,-23 316.5,-23 316.5,0 447.5,0 447.5,-23"/>
<text text-anchor="middle" x="382" y="-7.8" font-family="Times,serif" font-size="14.00">energy_transfer</text>
</g>
<!-- Compute (energy_transfer) = energy_transfer_indirect_from_tof(tof, L1, L2, final_energy)&#45;&gt;energy_transfer -->
<g id="edge17" class="edge">
<title>Compute (energy_transfer) = energy_transfer_indirect_from_tof(tof, L1, L2, final_energy)&#45;&gt;energy_transfer</title>
<path fill="none" stroke="black" d="M382,-58.57C382,-52.19 382,-42.38 382,-33.45"/>
<polygon fill="black" stroke="black" points="385.5,-33.29 382,-23.29 378.5,-33.29 385.5,-33.29"/>
</g>
<!-- tof -->
<g id="node18" class="node">
<title>tof</title>
<polygon fill="none" stroke="black" points="518,-133 464,-133 464,-110 518,-110 518,-133"/>
<text text-anchor="middle" x="491" y="-117.8" font-family="Times,serif" font-size="14.00">tof</text>
</g>
<!-- tof&#45;&gt;Compute (energy_transfer) = energy_transfer_indirect_from_tof(tof, L1, L2, final_energy) -->
<g id="edge18" class="edge">
<title>tof&#45;&gt;Compute (energy_transfer) = energy_transfer_indirect_from_tof(tof, L1, L2, final_energy)</title>
<path fill="none" stroke="black" d="M469.2,-109.9C450.48,-100.8 423.57,-87.71 404.61,-78.49"/>
<polygon fill="black" stroke="black" points="406.03,-75.29 395.5,-74.07 402.97,-81.59 406.03,-75.29"/>
</g>
<!-- final_energy -->
<g id="node19" class="node">
<title>final_energy</title>
<polygon fill="none" stroke="black" points="446,-133 342,-133 342,-110 446,-110 446,-133"/>
<text text-anchor="middle" x="394" y="-117.8" font-family="Times,serif" font-size="14.00">final_energy</text>
</g>
<!-- final_energy&#45;&gt;Compute (energy_transfer) = energy_transfer_indirect_from_tof(tof, L1, L2, final_energy) -->
<g id="edge21" class="edge">
<title>final_energy&#45;&gt;Compute (energy_transfer) = energy_transfer_indirect_from_tof(tof, L1, L2, final_energy)</title>
<path fill="none" stroke="black" d="M391.57,-109.77C389.9,-102.37 387.63,-92.39 385.73,-83.98"/>
<polygon fill="black" stroke="black" points="389.14,-83.17 383.51,-74.19 382.31,-84.71 389.14,-83.17"/>
</g>
</g>
</svg>