<?xml version="1.0" encoding="utf-8" standalone="no"?>
<!DOCTYPE svg PUBLIC "-//W3C//DTD SVG 1.1//EN"
  "http://www.w3.org/Graphics/SVG/1.1/DTD/svg11.dtd">
<svg xmlns:xlink="http://www.w3.org/1999/xlink" width="424.495625pt" height="279.924673pt" viewBox="0 0 424.495625 279.924673" xmlns="http://www.w3.org/2000/svg" version="1.1">
 <metadata>
  <rdf:RDF xmlns:dc="http://purl.org/dc/elements/1.1/" xmlns:cc="http://creativecommons.org/ns#" xmlns:rdf="http://www.w3.org/1999/02/22-rdf-syntax-ns#">
   <cc:Work>
    <dc:type rdf:resource="http://purl.org/dc/dcmitype/StillImage"/>
    <dc:date>2024-08-01T15:38:51.745903</dc:date>
    <dc:format>image/svg+xml</dc:format>
    <dc:creator>
     <cc:Agent>
      <dc:title>Matplotlib v3.9.1, https://matplotlib.org/</dc:title>
     </cc:Agent>
    </dc:creator>
   </cc:Work>
  </rdf:RDF>
 </metadata>
 <defs>
  <style type="text/css">*{stroke-linejoin: round; stroke-linecap: butt}</style>
 </defs>
 <g id="figure_1">
  <g id="patch_1">
   <path d="M 0 279.924673 
L 424.495625 279.924673 
L 424.495625 0 
L 0 0 
z
" style="fill: #ffffff"/>
  </g>
  <g id="axes_1">
   <g id="patch_2">
    <path d="M 46.965625 240.684048 
L 417.295625 240.684048 
L 417.295625 7.228235 
L 46.965625 7.228235 
z
" style="fill: #ffffff"/>
   </g>
   <g id="matplotlib.axis_1">
    <g id="xtick_1">
     <g id="line2d_1">
      <defs>
       <path id="m34ca59012a" d="M 0 0 
L 0 3.5 
" style="stroke: #000000; stroke-width: 0.8"/>
      </defs>
      <g>
       <use xlink:href="#m34ca59012a" x="63.963359" y="240.684048" style="stroke: #000000; stroke-width: 0.8"/>
      </g>
     </g>
     <g id="text_1">
      <!-- 5.25 -->
      <g transform="translate(52.830546 255.282485) scale(0.1 -0.1)">
       <defs>
        <path id="DejaVuSans-35" d="M 691 4666 
L 3169 4666 
L 3169 4134 
L 1269 4134 
L 1269 2991 
Q 1406 3038 1543 3061 
Q 1681 3084 1819 3084 
Q 2600 3084 3056 2656 
Q 3513 2228 3513 1497 
Q 3513 744 3044 326 
Q 2575 -91 1722 -91 
Q 1428 -91 1123 -41 
Q 819 9 494 109 
L 494 744 
Q 775 591 1075 516 
Q 1375 441 1709 441 
Q 2250 441 2565 725 
Q 2881 1009 2881 1497 
Q 2881 1984 2565 2268 
Q 2250 2553 1709 2553 
Q 1456 2553 1204 2497 
Q 953 2441 691 2322 
L 691 4666 
z
" transform="scale(0.015625)"/>
        <path id="DejaVuSans-2e" d="M 684 794 
L 1344 794 
L 1344 0 
L 684 0 
L 684 794 
z
" transform="scale(0.015625)"/>
        <path id="DejaVuSans-32" d="M 1228 531 
L 3431 531 
L 3431 0 
L 469 0 
L 469 531 
Q 828 903 1448 1529 
Q 2069 2156 2228 2338 
Q 2531 2678 2651 2914 
Q 2772 3150 2772 3378 
Q 2772 3750 2511 3984 
Q 2250 4219 1831 4219 
Q 1534 4219 1204 4116 
Q 875 4013 500 3803 
L 500 4441 
Q 881 4594 1212 4672 
Q 1544 4750 1819 4750 
Q 2544 4750 2975 4387 
Q 3406 4025 3406 3419 
Q 3406 3131 3298 2873 
Q 3191 2616 2906 2266 
Q 2828 2175 2409 1742 
Q 1991 1309 1228 531 
z
" transform="scale(0.015625)"/>
       </defs>
       <use xlink:href="#DejaVuSans-35"/>
       <use xlink:href="#DejaVuSans-2e" x="63.623047"/>
       <use xlink:href="#DejaVuSans-32" x="95.410156"/>
       <use xlink:href="#DejaVuSans-35" x="159.033203"/>
      </g>
     </g>
    </g>
    <g id="xtick_2">
     <g id="line2d_2">
      <g>
       <use xlink:href="#m34ca59012a" x="112.55752" y="240.684048" style="stroke: #000000; stroke-width: 0.8"/>
      </g>
     </g>
     <g id="text_2">
      <!-- 5.50 -->
      <g transform="translate(101.424707 255.282485) scale(0.1 -0.1)">
       <defs>
        <path id="DejaVuSans-30" d="M 2034 4250 
Q 1547 4250 1301 3770 
Q 1056 3291 1056 2328 
Q 1056 1369 1301 889 
Q 1547 409 2034 409 
Q 2525 409 2770 889 
Q 3016 1369 3016 2328 
Q 3016 3291 2770 3770 
Q 2525 4250 2034 4250 
z
M 2034 4750 
Q 2819 4750 3233 4129 
Q 3647 3509 3647 2328 
Q 3647 1150 3233 529 
Q 2819 -91 2034 -91 
Q 1250 -91 836 529 
Q 422 1150 422 2328 
Q 422 3509 836 4129 
Q 1250 4750 2034 4750 
z
" transform="scale(0.015625)"/>
       </defs>
       <use xlink:href="#DejaVuSans-35"/>
       <use xlink:href="#DejaVuSans-2e" x="63.623047"/>
       <use xlink:href="#DejaVuSans-35" x="95.410156"/>
       <use xlink:href="#DejaVuSans-30" x="159.033203"/>
      </g>
     </g>
    </g>
    <g id="xtick_3">
     <g id="line2d_3">
      <g>
       <use xlink:href="#m34ca59012a" x="161.151681" y="240.684048" style="stroke: #000000; stroke-width: 0.8"/>
      </g>
     </g>
     <g id="text_3">
      <!-- 5.75 -->
      <g transform="translate(150.018868 255.282485) scale(0.1 -0.1)">
       <defs>
        <path id="DejaVuSans-37" d="M 525 4666 
L 3525 4666 
L 3525 4397 
L 1831 0 
L 1172 0 
L 2766 4134 
L 525 4134 
L 525 4666 
z
" transform="scale(0.015625)"/>
       </defs>
       <use xlink:href="#DejaVuSans-35"/>
       <use xlink:href="#DejaVuSans-2e" x="63.623047"/>
       <use xlink:href="#DejaVuSans-37" x="95.410156"/>
       <use xlink:href="#DejaVuSans-35" x="159.033203"/>
      </g>
     </g>
    </g>
    <g id="xtick_4">
     <g id="line2d_4">
      <g>
       <use xlink:href="#m34ca59012a" x="209.745842" y="240.684048" style="stroke: #000000; stroke-width: 0.8"/>
      </g>
     </g>
     <g id="text_4">
      <!-- 6.00 -->
      <g transform="translate(198.613029 255.282485) scale(0.1 -0.1)">
       <defs>
        <path id="DejaVuSans-36" d="M 2113 2584 
Q 1688 2584 1439 2293 
Q 1191 2003 1191 1497 
Q 1191 994 1439 701 
Q 1688 409 2113 409 
Q 2538 409 2786 701 
Q 3034 994 3034 1497 
Q 3034 2003 2786 2293 
Q 2538 2584 2113 2584 
z
M 3366 4563 
L 3366 3988 
Q 3128 4100 2886 4159 
Q 2644 4219 2406 4219 
Q 1781 4219 1451 3797 
Q 1122 3375 1075 2522 
Q 1259 2794 1537 2939 
Q 1816 3084 2150 3084 
Q 2853 3084 3261 2657 
Q 3669 2231 3669 1497 
Q 3669 778 3244 343 
Q 2819 -91 2113 -91 
Q 1303 -91 875 529 
Q 447 1150 447 2328 
Q 447 3434 972 4092 
Q 1497 4750 2381 4750 
Q 2619 4750 2861 4703 
Q 3103 4656 3366 4563 
z
" transform="scale(0.015625)"/>
       </defs>
       <use xlink:href="#DejaVuSans-36"/>
       <use xlink:href="#DejaVuSans-2e" x="63.623047"/>
       <use xlink:href="#DejaVuSans-30" x="95.410156"/>
       <use xlink:href="#DejaVuSans-30" x="159.033203"/>
      </g>
     </g>
    </g>
    <g id="xtick_5">
     <g id="line2d_5">
      <g>
       <use xlink:href="#m34ca59012a" x="258.340003" y="240.684048" style="stroke: #000000; stroke-width: 0.8"/>
      </g>
     </g>
     <g id="text_5">
      <!-- 6.25 -->
      <g transform="translate(247.20719 255.282485) scale(0.1 -0.1)">
       <use xlink:href="#DejaVuSans-36"/>
       <use xlink:href="#DejaVuSans-2e" x="63.623047"/>
       <use xlink:href="#DejaVuSans-32" x="95.410156"/>
       <use xlink:href="#DejaVuSans-35" x="159.033203"/>
      </g>
     </g>
    </g>
    <g id="xtick_6">
     <g id="line2d_6">
      <g>
       <use xlink:href="#m34ca59012a" x="306.934164" y="240.684048" style="stroke: #000000; stroke-width: 0.8"/>
      </g>
     </g>
     <g id="text_6">
      <!-- 6.50 -->
      <g transform="translate(295.801351 255.282485) scale(0.1 -0.1)">
       <use xlink:href="#DejaVuSans-36"/>
       <use xlink:href="#DejaVuSans-2e" x="63.623047"/>
       <use xlink:href="#DejaVuSans-35" x="95.410156"/>
       <use xlink:href="#DejaVuSans-30" x="159.033203"/>
      </g>
     </g>
    </g>
    <g id="xtick_7">
     <g id="line2d_7">
      <g>
       <use xlink:href="#m34ca59012a" x="355.528325" y="240.684048" style="stroke: #000000; stroke-width: 0.8"/>
      </g>
     </g>
     <g id="text_7">
      <!-- 6.75 -->
      <g transform="translate(344.395513 255.282485) scale(0.1 -0.1)">
       <use xlink:href="#DejaVuSans-36"/>
       <use xlink:href="#DejaVuSans-2e" x="63.623047"/>
       <use xlink:href="#DejaVuSans-37" x="95.410156"/>
       <use xlink:href="#DejaVuSans-35" x="159.033203"/>
      </g>
     </g>
    </g>
    <g id="xtick_8">
     <g id="line2d_8">
      <g>
       <use xlink:href="#m34ca59012a" x="404.122486" y="240.684048" style="stroke: #000000; stroke-width: 0.8"/>
      </g>
     </g>
     <g id="text_8">
      <!-- 7.00 -->
      <g transform="translate(392.989674 255.282485) scale(0.1 -0.1)">
       <use xlink:href="#DejaVuSans-37"/>
       <use xlink:href="#DejaVuSans-2e" x="63.623047"/>
       <use xlink:href="#DejaVuSans-30" x="95.410156"/>
       <use xlink:href="#DejaVuSans-30" x="159.033203"/>
      </g>
     </g>
    </g>
    <g id="text_9">
     <!-- wavelength [Å] -->
     <g transform="translate(194.093125 270.644985) scale(0.1 -0.1)">
      <defs>
       <path id="DejaVuSans-77" d="M 269 3500 
L 844 3500 
L 1563 769 
L 2278 3500 
L 2956 3500 
L 3675 769 
L 4391 3500 
L 4966 3500 
L 4050 0 
L 3372 0 
L 2619 2869 
L 1863 0 
L 1184 0 
L 269 3500 
z
" transform="scale(0.015625)"/>
       <path id="DejaVuSans-61" d="M 2194 1759 
Q 1497 1759 1228 1600 
Q 959 1441 959 1056 
Q 959 750 1161 570 
Q 1363 391 1709 391 
Q 2188 391 2477 730 
Q 2766 1069 2766 1631 
L 2766 1759 
L 2194 1759 
z
M 3341 1997 
L 3341 0 
L 2766 0 
L 2766 531 
Q 2569 213 2275 61 
Q 1981 -91 1556 -91 
Q 1019 -91 701 211 
Q 384 513 384 1019 
Q 384 1609 779 1909 
Q 1175 2209 1959 2209 
L 2766 2209 
L 2766 2266 
Q 2766 2663 2505 2880 
Q 2244 3097 1772 3097 
Q 1472 3097 1187 3025 
Q 903 2953 641 2809 
L 641 3341 
Q 956 3463 1253 3523 
Q 1550 3584 1831 3584 
Q 2591 3584 2966 3190 
Q 3341 2797 3341 1997 
z
" transform="scale(0.015625)"/>
       <path id="DejaVuSans-76" d="M 191 3500 
L 800 3500 
L 1894 563 
L 2988 3500 
L 3597 3500 
L 2284 0 
L 1503 0 
L 191 3500 
z
" transform="scale(0.015625)"/>
       <path id="DejaVuSans-65" d="M 3597 1894 
L 3597 1613 
L 953 1613 
Q 991 1019 1311 708 
Q 1631 397 2203 397 
Q 2534 397 2845 478 
Q 3156 559 3463 722 
L 3463 178 
Q 3153 47 2828 -22 
Q 2503 -91 2169 -91 
Q 1331 -91 842 396 
Q 353 884 353 1716 
Q 353 2575 817 3079 
Q 1281 3584 2069 3584 
Q 2775 3584 3186 3129 
Q 3597 2675 3597 1894 
z
M 3022 2063 
Q 3016 2534 2758 2815 
Q 2500 3097 2075 3097 
Q 1594 3097 1305 2825 
Q 1016 2553 972 2059 
L 3022 2063 
z
" transform="scale(0.015625)"/>
       <path id="DejaVuSans-6c" d="M 603 4863 
L 1178 4863 
L 1178 0 
L 603 0 
L 603 4863 
z
" transform="scale(0.015625)"/>
       <path id="DejaVuSans-6e" d="M 3513 2113 
L 3513 0 
L 2938 0 
L 2938 2094 
Q 2938 2591 2744 2837 
Q 2550 3084 2163 3084 
Q 1697 3084 1428 2787 
Q 1159 2491 1159 1978 
L 1159 0 
L 581 0 
L 581 3500 
L 1159 3500 
L 1159 2956 
Q 1366 3272 1645 3428 
Q 1925 3584 2291 3584 
Q 2894 3584 3203 3211 
Q 3513 2838 3513 2113 
z
" transform="scale(0.015625)"/>
       <path id="DejaVuSans-67" d="M 2906 1791 
Q 2906 2416 2648 2759 
Q 2391 3103 1925 3103 
Q 1463 3103 1205 2759 
Q 947 2416 947 1791 
Q 947 1169 1205 825 
Q 1463 481 1925 481 
Q 2391 481 2648 825 
Q 2906 1169 2906 1791 
z
M 3481 434 
Q 3481 -459 3084 -895 
Q 2688 -1331 1869 -1331 
Q 1566 -1331 1297 -1286 
Q 1028 -1241 775 -1147 
L 775 -588 
Q 1028 -725 1275 -790 
Q 1522 -856 1778 -856 
Q 2344 -856 2625 -561 
Q 2906 -266 2906 331 
L 2906 616 
Q 2728 306 2450 153 
Q 2172 0 1784 0 
Q 1141 0 747 490 
Q 353 981 353 1791 
Q 353 2603 747 3093 
Q 1141 3584 1784 3584 
Q 2172 3584 2450 3431 
Q 2728 3278 2906 2969 
L 2906 3500 
L 3481 3500 
L 3481 434 
z
" transform="scale(0.015625)"/>
       <path id="DejaVuSans-74" d="M 1172 4494 
L 1172 3500 
L 2356 3500 
L 2356 3053 
L 1172 3053 
L 1172 1153 
Q 1172 725 1289 603 
Q 1406 481 1766 481 
L 2356 481 
L 2356 0 
L 1766 0 
Q 1100 0 847 248 
Q 594 497 594 1153 
L 594 3053 
L 172 3053 
L 172 3500 
L 594 3500 
L 594 4494 
L 1172 4494 
z
" transform="scale(0.015625)"/>
       <path id="DejaVuSans-68" d="M 3513 2113 
L 3513 0 
L 2938 0 
L 2938 2094 
Q 2938 2591 2744 2837 
Q 2550 3084 2163 3084 
Q 1697 3084 1428 2787 
Q 1159 2491 1159 1978 
L 1159 0 
L 581 0 
L 581 4863 
L 1159 4863 
L 1159 2956 
Q 1366 3272 1645 3428 
Q 1925 3584 2291 3584 
Q 2894 3584 3203 3211 
Q 3513 2838 3513 2113 
z
" transform="scale(0.015625)"/>
       <path id="DejaVuSans-20" transform="scale(0.015625)"/>
       <path id="DejaVuSans-5b" d="M 550 4863 
L 1875 4863 
L 1875 4416 
L 1125 4416 
L 1125 -397 
L 1875 -397 
L 1875 -844 
L 550 -844 
L 550 4863 
z
" transform="scale(0.015625)"/>
       <path id="DejaVuSans-c5" d="M 2663 5081 
Q 2663 5278 2523 5417 
Q 2384 5556 2188 5556 
Q 1988 5556 1852 5420 
Q 1716 5284 1716 5081 
Q 1716 4884 1853 4746 
Q 1991 4609 2188 4609 
Q 2384 4609 2523 4746 
Q 2663 4884 2663 5081 
z
M 2188 4044 
L 1338 1722 
L 3041 1722 
L 2188 4044 
z
M 1716 4366 
Q 1525 4494 1428 4673 
Q 1331 4853 1331 5081 
Q 1331 5441 1579 5691 
Q 1828 5941 2188 5941 
Q 2544 5941 2795 5689 
Q 3047 5438 3047 5081 
Q 3047 4863 2948 4678 
Q 2850 4494 2663 4366 
L 4325 0 
L 3669 0 
L 3244 1197 
L 1141 1197 
L 716 0 
L 50 0 
L 1716 4366 
z
" transform="scale(0.015625)"/>
       <path id="DejaVuSans-5d" d="M 1947 4863 
L 1947 -844 
L 622 -844 
L 622 -397 
L 1369 -397 
L 1369 4416 
L 622 4416 
L 622 4863 
L 1947 4863 
z
" transform="scale(0.015625)"/>
      </defs>
      <use xlink:href="#DejaVuSans-77"/>
      <use xlink:href="#DejaVuSans-61" x="81.787109"/>
      <use xlink:href="#DejaVuSans-76" x="143.066406"/>
      <use xlink:href="#DejaVuSans-65" x="202.246094"/>
      <use xlink:href="#DejaVuSans-6c" x="263.769531"/>
      <use xlink:href="#DejaVuSans-65" x="291.552734"/>
      <use xlink:href="#DejaVuSans-6e" x="353.076172"/>
      <use xlink:href="#DejaVuSans-67" x="416.455078"/>
      <use xlink:href="#DejaVuSans-74" x="479.931641"/>
      <use xlink:href="#DejaVuSans-68" x="519.140625"/>
      <use xlink:href="#DejaVuSans-20" x="582.519531"/>
      <use xlink:href="#DejaVuSans-5b" x="614.306641"/>
      <use xlink:href="#DejaVuSans-c5" x="653.320312"/>
      <use xlink:href="#DejaVuSans-5d" x="721.728516"/>
     </g>
    </g>
   </g>
   <g id="matplotlib.axis_2">
    <g id="ytick_1">
     <g id="line2d_9">
      <defs>
       <path id="m814c87bdac" d="M 0 0 
L -3.5 0 
" style="stroke: #000000; stroke-width: 0.8"/>
      </defs>
      <g>
       <use xlink:href="#m814c87bdac" x="46.965625" y="230.07242" style="stroke: #000000; stroke-width: 0.8"/>
      </g>
     </g>
     <g id="text_10">
      <!-- 0 -->
      <g transform="translate(33.603125 233.871639) scale(0.1 -0.1)">
       <use xlink:href="#DejaVuSans-30"/>
      </g>
     </g>
    </g>
    <g id="ytick_2">
     <g id="line2d_10">
      <g>
       <use xlink:href="#m814c87bdac" x="46.965625" y="193.56022" style="stroke: #000000; stroke-width: 0.8"/>
      </g>
     </g>
     <g id="text_11">
      <!-- 100 -->
      <g transform="translate(20.878125 197.359438) scale(0.1 -0.1)">
       <defs>
        <path id="DejaVuSans-31" d="M 794 531 
L 1825 531 
L 1825 4091 
L 703 3866 
L 703 4441 
L 1819 4666 
L 2450 4666 
L 2450 531 
L 3481 531 
L 3481 0 
L 794 0 
L 794 531 
z
" transform="scale(0.015625)"/>
       </defs>
       <use xlink:href="#DejaVuSans-31"/>
       <use xlink:href="#DejaVuSans-30" x="63.623047"/>
       <use xlink:href="#DejaVuSans-30" x="127.246094"/>
      </g>
     </g>
    </g>
    <g id="ytick_3">
     <g id="line2d_11">
      <g>
       <use xlink:href="#m814c87bdac" x="46.965625" y="157.048019" style="stroke: #000000; stroke-width: 0.8"/>
      </g>
     </g>
     <g id="text_12">
      <!-- 200 -->
      <g transform="translate(20.878125 160.847238) scale(0.1 -0.1)">
       <use xlink:href="#DejaVuSans-32"/>
       <use xlink:href="#DejaVuSans-30" x="63.623047"/>
       <use xlink:href="#DejaVuSans-30" x="127.246094"/>
      </g>
     </g>
    </g>
    <g id="ytick_4">
     <g id="line2d_12">
      <g>
       <use xlink:href="#m814c87bdac" x="46.965625" y="120.535819" style="stroke: #000000; stroke-width: 0.8"/>
      </g>
     </g>
     <g id="text_13">
      <!-- 300 -->
      <g transform="translate(20.878125 124.335038) scale(0.1 -0.1)">
       <defs>
        <path id="DejaVuSans-33" d="M 2597 2516 
Q 3050 2419 3304 2112 
Q 3559 1806 3559 1356 
Q 3559 666 3084 287 
Q 2609 -91 1734 -91 
Q 1441 -91 1130 -33 
Q 819 25 488 141 
L 488 750 
Q 750 597 1062 519 
Q 1375 441 1716 441 
Q 2309 441 2620 675 
Q 2931 909 2931 1356 
Q 2931 1769 2642 2001 
Q 2353 2234 1838 2234 
L 1294 2234 
L 1294 2753 
L 1863 2753 
Q 2328 2753 2575 2939 
Q 2822 3125 2822 3475 
Q 2822 3834 2567 4026 
Q 2313 4219 1838 4219 
Q 1578 4219 1281 4162 
Q 984 4106 628 3988 
L 628 4550 
Q 988 4650 1302 4700 
Q 1616 4750 1894 4750 
Q 2613 4750 3031 4423 
Q 3450 4097 3450 3541 
Q 3450 3153 3228 2886 
Q 3006 2619 2597 2516 
z
" transform="scale(0.015625)"/>
       </defs>
       <use xlink:href="#DejaVuSans-33"/>
       <use xlink:href="#DejaVuSans-30" x="63.623047"/>
       <use xlink:href="#DejaVuSans-30" x="127.246094"/>
      </g>
     </g>
    </g>
    <g id="ytick_5">
     <g id="line2d_13">
      <g>
       <use xlink:href="#m814c87bdac" x="46.965625" y="84.023619" style="stroke: #000000; stroke-width: 0.8"/>
      </g>
     </g>
     <g id="text_14">
      <!-- 400 -->
      <g transform="translate(20.878125 87.822838) scale(0.1 -0.1)">
       <defs>
        <path id="DejaVuSans-34" d="M 2419 4116 
L 825 1625 
L 2419 1625 
L 2419 4116 
z
M 2253 4666 
L 3047 4666 
L 3047 1625 
L 3713 1625 
L 3713 1100 
L 3047 1100 
L 3047 0 
L 2419 0 
L 2419 1100 
L 313 1100 
L 313 1709 
L 2253 4666 
z
" transform="scale(0.015625)"/>
       </defs>
       <use xlink:href="#DejaVuSans-34"/>
       <use xlink:href="#DejaVuSans-30" x="63.623047"/>
       <use xlink:href="#DejaVuSans-30" x="127.246094"/>
      </g>
     </g>
    </g>
    <g id="ytick_6">
     <g id="line2d_14">
      <g>
       <use xlink:href="#m814c87bdac" x="46.965625" y="47.511419" style="stroke: #000000; stroke-width: 0.8"/>
      </g>
     </g>
     <g id="text_15">
      <!-- 500 -->
      <g transform="translate(20.878125 51.310638) scale(0.1 -0.1)">
       <use xlink:href="#DejaVuSans-35"/>
       <use xlink:href="#DejaVuSans-30" x="63.623047"/>
       <use xlink:href="#DejaVuSans-30" x="127.246094"/>
      </g>
     </g>
    </g>
    <g id="ytick_7">
     <g id="line2d_15">
      <g>
       <use xlink:href="#m814c87bdac" x="46.965625" y="10.999219" style="stroke: #000000; stroke-width: 0.8"/>
      </g>
     </g>
     <g id="text_16">
      <!-- 600 -->
      <g transform="translate(20.878125 14.798438) scale(0.1 -0.1)">
       <use xlink:href="#DejaVuSans-36"/>
       <use xlink:href="#DejaVuSans-30" x="63.623047"/>
       <use xlink:href="#DejaVuSans-30" x="127.246094"/>
      </g>
     </g>
    </g>
    <g id="text_17">
     <!-- [counts] -->
     <g transform="translate(14.798437 144.568641) rotate(-90) scale(0.1 -0.1)">
      <defs>
       <path id="DejaVuSans-63" d="M 3122 3366 
L 3122 2828 
Q 2878 2963 2633 3030 
Q 2388 3097 2138 3097 
Q 1578 3097 1268 2742 
Q 959 2388 959 1747 
Q 959 1106 1268 751 
Q 1578 397 2138 397 
Q 2388 397 2633 464 
Q 2878 531 3122 666 
L 3122 134 
Q 2881 22 2623 -34 
Q 2366 -91 2075 -91 
Q 1284 -91 818 406 
Q 353 903 353 1747 
Q 353 2603 823 3093 
Q 1294 3584 2113 3584 
Q 2378 3584 2631 3529 
Q 2884 3475 3122 3366 
z
" transform="scale(0.015625)"/>
       <path id="DejaVuSans-6f" d="M 1959 3097 
Q 1497 3097 1228 2736 
Q 959 2375 959 1747 
Q 959 1119 1226 758 
Q 1494 397 1959 397 
Q 2419 397 2687 759 
Q 2956 1122 2956 1747 
Q 2956 2369 2687 2733 
Q 2419 3097 1959 3097 
z
M 1959 3584 
Q 2709 3584 3137 3096 
Q 3566 2609 3566 1747 
Q 3566 888 3137 398 
Q 2709 -91 1959 -91 
Q 1206 -91 779 398 
Q 353 888 353 1747 
Q 353 2609 779 3096 
Q 1206 3584 1959 3584 
z
" transform="scale(0.015625)"/>
       <path id="DejaVuSans-75" d="M 544 1381 
L 544 3500 
L 1119 3500 
L 1119 1403 
Q 1119 906 1312 657 
Q 1506 409 1894 409 
Q 2359 409 2629 706 
Q 2900 1003 2900 1516 
L 2900 3500 
L 3475 3500 
L 3475 0 
L 2900 0 
L 2900 538 
Q 2691 219 2414 64 
Q 2138 -91 1772 -91 
Q 1169 -91 856 284 
Q 544 659 544 1381 
z
M 1991 3584 
L 1991 3584 
z
" transform="scale(0.015625)"/>
       <path id="DejaVuSans-73" d="M 2834 3397 
L 2834 2853 
Q 2591 2978 2328 3040 
Q 2066 3103 1784 3103 
Q 1356 3103 1142 2972 
Q 928 2841 928 2578 
Q 928 2378 1081 2264 
Q 1234 2150 1697 2047 
L 1894 2003 
Q 2506 1872 2764 1633 
Q 3022 1394 3022 966 
Q 3022 478 2636 193 
Q 2250 -91 1575 -91 
Q 1294 -91 989 -36 
Q 684 19 347 128 
L 347 722 
Q 666 556 975 473 
Q 1284 391 1588 391 
Q 1994 391 2212 530 
Q 2431 669 2431 922 
Q 2431 1156 2273 1281 
Q 2116 1406 1581 1522 
L 1381 1569 
Q 847 1681 609 1914 
Q 372 2147 372 2553 
Q 372 3047 722 3315 
Q 1072 3584 1716 3584 
Q 2034 3584 2315 3537 
Q 2597 3491 2834 3397 
z
" transform="scale(0.015625)"/>
      </defs>
      <use xlink:href="#DejaVuSans-5b"/>
      <use xlink:href="#DejaVuSans-63" x="39.013672"/>
      <use xlink:href="#DejaVuSans-6f" x="93.994141"/>
      <use xlink:href="#DejaVuSans-75" x="155.175781"/>
      <use xlink:href="#DejaVuSans-6e" x="218.554688"/>
      <use xlink:href="#DejaVuSans-74" x="281.933594"/>
      <use xlink:href="#DejaVuSans-73" x="321.142578"/>
      <use xlink:href="#DejaVuSans-5d" x="373.242188"/>
     </g>
    </g>
   </g>
   <g id="patch_3">
    <path d="M 46.965625 240.684048 
L 46.965625 7.228235 
" style="fill: none; stroke: #000000; stroke-width: 0.8; stroke-linejoin: miter; stroke-linecap: square"/>
   </g>
   <g id="patch_4">
    <path d="M 417.295625 240.684048 
L 417.295625 7.228235 
" style="fill: none; stroke: #000000; stroke-width: 0.8; stroke-linejoin: miter; stroke-linecap: square"/>
   </g>
   <g id="patch_5">
    <path d="M 46.965625 240.684048 
L 417.295625 240.684048 
" style="fill: none; stroke: #000000; stroke-width: 0.8; stroke-linejoin: miter; stroke-linecap: square"/>
   </g>
   <g id="patch_6">
    <path d="M 46.965625 7.228235 
L 417.295625 7.228235 
" style="fill: none; stroke: #000000; stroke-width: 0.8; stroke-linejoin: miter; stroke-linecap: square"/>
   </g>
   <g id="line2d_16">
    <path d="M 63.798807 226.018309 
L 65.482125 226.018309 
L 65.482125 209.553013 
L 67.165443 209.553013 
L 67.165443 186.894341 
L 68.848761 186.894341 
L 68.848761 166.334153 
L 70.53208 166.334153 
L 70.53208 170.476726 
L 72.215398 170.476726 
L 72.215398 93.502867 
L 73.898716 93.502867 
L 73.898716 75.280192 
L 75.582034 75.280192 
L 75.582034 95.673788 
L 77.265352 95.673788 
L 77.265352 89.029031 
L 78.94867 89.029031 
L 78.94867 65.672282 
L 80.631989 65.672282 
L 80.631989 49.354623 
L 82.315307 49.354623 
L 82.315307 35.266047 
L 83.998625 35.266047 
L 83.998625 39.425373 
L 85.681943 39.425373 
L 85.681943 41.277495 
L 87.365261 41.277495 
L 87.365261 29.375012 
L 89.04858 29.375012 
L 89.04858 51.606959 
L 90.731898 51.606959 
L 90.731898 32.644707 
L 92.415216 32.644707 
L 92.415216 47.649203 
L 94.098534 47.649203 
L 94.098534 17.839863 
L 95.781852 17.839863 
L 95.781852 27.688752 
L 97.46517 27.688752 
L 97.46517 63.576121 
L 99.148489 63.576121 
L 99.148489 37.124256 
L 100.831807 37.124256 
L 100.831807 43.067842 
L 102.515125 43.067842 
L 102.515125 57.380948 
L 104.198443 57.380948 
L 104.198443 67.480004 
L 105.881761 67.480004 
L 105.881761 53.580545 
L 107.56508 53.580545 
L 107.56508 36.713155 
L 109.248398 36.713155 
L 109.248398 49.231031 
L 110.931716 49.231031 
L 110.931716 45.898532 
L 112.615034 45.898532 
L 112.615034 53.386148 
L 114.298352 53.386148 
L 114.298352 50.504077 
L 115.98167 50.504077 
L 115.98167 96.120391 
L 117.664989 96.120391 
L 117.664989 29.219263 
L 119.348307 29.219263 
L 119.348307 40.762252 
L 121.031625 40.762252 
L 121.031625 71.145613 
L 122.714943 71.145613 
L 122.714943 68.126231 
L 124.398261 68.126231 
L 124.398261 63.292032 
L 126.08158 63.292032 
L 126.08158 53.696568 
L 127.764898 53.696568 
L 127.764898 45.502118 
L 129.448216 45.502118 
L 129.448216 98.58063 
L 131.131534 98.58063 
L 131.131534 42.892504 
L 132.814852 42.892504 
L 132.814852 75.609272 
L 134.49817 75.609272 
L 134.49817 58.373191 
L 136.181489 58.373191 
L 136.181489 72.624383 
L 137.864807 72.624383 
L 137.864807 67.383085 
L 139.548125 67.383085 
L 139.548125 62.620592 
L 141.231443 62.620592 
L 141.231443 56.612169 
L 142.914761 56.612169 
L 142.914761 69.187698 
L 144.59808 69.187698 
L 144.59808 68.039236 
L 146.281398 68.039236 
L 146.281398 60.03503 
L 147.964716 60.03503 
L 147.964716 49.654355 
L 149.648034 49.654355 
L 149.648034 72.006688 
L 151.331352 72.006688 
L 151.331352 59.38242 
L 153.01467 59.38242 
L 153.01467 66.633501 
L 154.697989 66.633501 
L 154.697989 72.236329 
L 156.381307 72.236329 
L 156.381307 43.776977 
L 158.064625 43.776977 
L 158.064625 54.932586 
L 159.747943 54.932586 
L 159.747943 52.913719 
L 161.431261 52.913719 
L 161.431261 69.261653 
L 163.11458 69.261653 
L 163.11458 77.74789 
L 164.797898 77.74789 
L 164.797898 63.930725 
L 166.481216 63.930725 
L 166.481216 58.32152 
L 168.164534 58.32152 
L 168.164534 70.0733 
L 169.847852 70.0733 
L 169.847852 46.031909 
L 171.53117 46.031909 
L 171.53117 57.641286 
L 173.214489 57.641286 
L 173.214489 82.782056 
L 174.897807 82.782056 
L 174.897807 65.085873 
L 176.581125 65.085873 
L 176.581125 64.73039 
L 178.264443 64.73039 
L 178.264443 58.583354 
L 179.947761 58.583354 
L 179.947761 45.127004 
L 181.63108 45.127004 
L 181.63108 93.643485 
L 183.314398 93.643485 
L 183.314398 58.699028 
L 184.997716 58.699028 
L 184.997716 61.483964 
L 186.681034 61.483964 
L 186.681034 27.788768 
L 188.364352 27.788768 
L 188.364352 59.077135 
L 190.04767 59.077135 
L 190.04767 62.249503 
L 191.730989 62.249503 
L 191.730989 86.995868 
L 193.414307 86.995868 
L 193.414307 66.168573 
L 195.097625 66.168573 
L 195.097625 93.285067 
L 196.780943 93.285067 
L 196.780943 87.181501 
L 198.464261 87.181501 
L 198.464261 74.038665 
L 200.14758 74.038665 
L 200.14758 62.481387 
L 201.830898 62.481387 
L 201.830898 62.794058 
L 203.514216 62.794058 
L 203.514216 74.519006 
L 205.197534 74.519006 
L 205.197534 76.832148 
L 206.880852 76.832148 
L 206.880852 87.049064 
L 208.56417 87.049064 
L 208.56417 76.897486 
L 210.247489 76.897486 
L 210.247489 88.536227 
L 211.930807 88.536227 
L 211.930807 90.437261 
L 213.614125 90.437261 
L 213.614125 80.519854 
L 215.297443 80.519854 
L 215.297443 86.165899 
L 216.980761 86.165899 
L 216.980761 77.637614 
L 218.66408 77.637614 
L 218.66408 113.480494 
L 220.347398 113.480494 
L 220.347398 95.689265 
L 222.030716 95.689265 
L 222.030716 71.46427 
L 223.714034 71.46427 
L 223.714034 90.925049 
L 225.397352 90.925049 
L 225.397352 91.358784 
L 227.08067 91.358784 
L 227.08067 86.210258 
L 228.763989 86.210258 
L 228.763989 73.717234 
L 230.447307 73.717234 
L 230.447307 68.703556 
L 232.130625 68.703556 
L 232.130625 101.23006 
L 233.813943 101.23006 
L 233.813943 109.542705 
L 235.497261 109.542705 
L 235.497261 68.786793 
L 237.18058 68.786793 
L 237.18058 103.556374 
L 238.863898 103.556374 
L 238.863898 97.133775 
L 240.547216 97.133775 
L 240.547216 98.320167 
L 242.230534 98.320167 
L 242.230534 92.073919 
L 243.913852 92.073919 
L 243.913852 101.688189 
L 245.59717 101.688189 
L 245.59717 97.180045 
L 247.280489 97.180045 
L 247.280489 103.459655 
L 248.963807 103.459655 
L 248.963807 104.509707 
L 250.647125 104.509707 
L 250.647125 92.280163 
L 252.330443 92.280163 
L 252.330443 124.302283 
L 254.013761 124.302283 
L 254.013761 98.915992 
L 255.69708 98.915992 
L 255.69708 83.14689 
L 257.380398 83.14689 
L 257.380398 97.745698 
L 259.063716 97.745698 
L 259.063716 108.953818 
L 260.747034 108.953818 
L 260.747034 119.673466 
L 262.430352 119.673466 
L 262.430352 115.589354 
L 264.11367 115.589354 
L 264.11367 96.406227 
L 265.796989 96.406227 
L 265.796989 106.409769 
L 267.480307 106.409769 
L 267.480307 108.935498 
L 269.163625 108.935498 
L 269.163625 91.017779 
L 270.846943 91.017779 
L 270.846943 96.367114 
L 272.530261 96.367114 
L 272.530261 85.121759 
L 274.21358 85.121759 
L 274.21358 111.444506 
L 275.896898 111.444506 
L 275.896898 94.988504 
L 277.580216 94.988504 
L 277.580216 126.270948 
L 279.263534 126.270948 
L 279.263534 101.913899 
L 280.946852 101.913899 
L 280.946852 87.081809 
L 282.63017 87.081809 
L 282.63017 95.135229 
L 284.313489 95.135229 
L 284.313489 116.243219 
L 285.996807 116.243219 
L 285.996807 101.860495 
L 287.680125 101.860495 
L 287.680125 105.419127 
L 289.363443 105.419127 
L 289.363443 108.639791 
L 291.046761 108.639791 
L 291.046761 120.639428 
L 292.73008 120.639428 
L 292.73008 119.807609 
L 294.413398 119.807609 
L 294.413398 107.945744 
L 296.096716 107.945744 
L 296.096716 110.553077 
L 297.780034 110.553077 
L 297.780034 110.746214 
L 299.463352 110.746214 
L 299.463352 96.716944 
L 301.14667 96.716944 
L 301.14667 80.80837 
L 302.829989 80.80837 
L 302.829989 117.515432 
L 304.513307 117.515432 
L 304.513307 125.298418 
L 306.196625 125.298418 
L 306.196625 110.115599 
L 307.879943 110.115599 
L 307.879943 125.205583 
L 309.563261 125.205583 
L 309.563261 101.492327 
L 311.24658 101.492327 
L 311.24658 91.034185 
L 312.929898 91.034185 
L 312.929898 90.469364 
L 314.613216 90.469364 
L 314.613216 103.306275 
L 316.296534 103.306275 
L 316.296534 107.657375 
L 317.979852 107.657375 
L 317.979852 110.301555 
L 319.66317 110.301555 
L 319.66317 108.863141 
L 321.346489 108.863141 
L 321.346489 120.867027 
L 323.029807 120.867027 
L 323.029807 127.932444 
L 324.713125 127.932444 
L 324.713125 105.242105 
L 326.396443 105.242105 
L 326.396443 124.826773 
L 328.079761 124.826773 
L 328.079761 117.031103 
L 329.76308 117.031103 
L 329.76308 120.558223 
L 331.446398 120.558223 
L 331.446398 110.016269 
L 333.129716 110.016269 
L 333.129716 117.866199 
L 334.813034 117.866199 
L 334.813034 109.332733 
L 336.496352 109.332733 
L 336.496352 125.016598 
L 338.17967 125.016598 
L 338.17967 123.434945 
L 339.862989 123.434945 
L 339.862989 110.820777 
L 341.546307 110.820777 
L 341.546307 126.856229 
L 343.229625 126.856229 
L 343.229625 121.655871 
L 344.912943 121.655871 
L 344.912943 135.073097 
L 346.596261 135.073097 
L 346.596261 118.463948 
L 348.27958 118.463948 
L 348.27958 117.790951 
L 349.962898 117.790951 
L 349.962898 116.534724 
L 351.646216 116.534724 
L 351.646216 121.143477 
L 353.329534 121.143477 
L 353.329534 123.43705 
L 356.69617 123.543046 
L 356.69617 115.811238 
L 358.379489 115.811238 
L 358.379489 136.96396 
L 360.062807 136.96396 
L 360.062807 159.955123 
L 361.746125 159.955123 
L 361.746125 151.827566 
L 363.429443 151.827566 
L 363.429443 173.583887 
L 365.112761 173.583887 
L 365.112761 198.758065 
L 366.79608 198.758065 
L 366.79608 200.360144 
L 368.479398 200.360144 
L 368.479398 212.233759 
L 370.162716 212.233759 
L 370.162716 225.609946 
L 371.846034 225.609946 
L 371.846034 228.231461 
L 373.529352 228.231461 
L 373.529352 229.171998 
L 375.21267 229.171998 
L 375.21267 229.841359 
L 378.579307 229.901072 
L 378.579307 230.012232 
L 400.462443 230.07242 
L 400.462443 230.07242 
" clip-path="url(#p85d3e91d8e)" style="fill: none; stroke: #1f77b4; stroke-width: 1.5; stroke-linecap: square"/>
   </g>
  </g>
 </g>
 <defs>
  <clipPath id="p85d3e91d8e">
   <rect x="46.965625" y="7.228235" width="370.33" height="233.455813"/>
  </clipPath>
 </defs>
</svg>