<?xml version="1.0" encoding="utf-8" standalone="no"?>
<!DOCTYPE svg PUBLIC "-//W3C//DTD SVG 1.1//EN"
  "http://www.w3.org/Graphics/SVG/1.1/DTD/svg11.dtd">
<svg xmlns:xlink="http://www.w3.org/1999/xlink" width="423.916071pt" height="278.315406pt" viewBox="0 0 423.916071 278.315406" xmlns="http://www.w3.org/2000/svg" version="1.1">
 <metadata>
  <rdf:RDF xmlns:dc="http://purl.org/dc/elements/1.1/" xmlns:cc="http://creativecommons.org/ns#" xmlns:rdf="http://www.w3.org/1999/02/22-rdf-syntax-ns#">
   <cc:Work>
    <dc:type rdf:resource="http://purl.org/dc/dcmitype/StillImage"/>
    <dc:date>2024-06-05T11:39:44.974348</dc:date>
    <dc:format>image/svg+xml</dc:format>
    <dc:creator>
     <cc:Agent>
      <dc:title>Matplotlib v3.9.0, https://matplotlib.org/</dc:title>
     </cc:Agent>
    </dc:creator>
   </cc:Work>
  </rdf:RDF>
 </metadata>
 <defs>
  <style type="text/css">*{stroke-linejoin: round; stroke-linecap: butt}</style>
 </defs>
 <g id="figure_1">
  <g id="patch_1">
   <path d="M 0 278.315406 
L 423.916071 278.315406 
L 423.916071 0 
L 0 0 
z
" style="fill: #ffffff"/>
  </g>
  <g id="axes_1">
   <g id="patch_2">
    <path d="M 51.378125 239.835719 
L 416.716071 239.835719 
L 416.716071 10.999219 
L 51.378125 10.999219 
z
" style="fill: #ffffff"/>
   </g>
   <g id="matplotlib.axis_1">
    <g id="xtick_1">
     <g id="line2d_1">
      <defs>
       <path id="m6b5116fa1f" d="M 0 0 
L 0 3.5 
" style="stroke: #000000; stroke-width: 0.8"/>
      </defs>
      <g>
       <use xlink:href="#m6b5116fa1f" x="59.468359" y="239.835719" style="stroke: #000000; stroke-width: 0.8"/>
      </g>
     </g>
     <g id="text_1">
      <!-- 0.000 -->
      <g transform="translate(45.154297 254.434156) scale(0.1 -0.1)">
       <defs>
        <path id="DejaVuSans-30" d="M 2034 4250 
Q 1547 4250 1301 3770 
Q 1056 3291 1056 2328 
Q 1056 1369 1301 889 
Q 1547 409 2034 409 
Q 2525 409 2770 889 
Q 3016 1369 3016 2328 
Q 3016 3291 2770 3770 
Q 2525 4250 2034 4250 
z
M 2034 4750 
Q 2819 4750 3233 4129 
Q 3647 3509 3647 2328 
Q 3647 1150 3233 529 
Q 2819 -91 2034 -91 
Q 1250 -91 836 529 
Q 422 1150 422 2328 
Q 422 3509 836 4129 
Q 1250 4750 2034 4750 
z
" transform="scale(0.015625)"/>
        <path id="DejaVuSans-2e" d="M 684 794 
L 1344 794 
L 1344 0 
L 684 0 
L 684 794 
z
" transform="scale(0.015625)"/>
       </defs>
       <use xlink:href="#DejaVuSans-30"/>
       <use xlink:href="#DejaVuSans-2e" x="63.623047"/>
       <use xlink:href="#DejaVuSans-30" x="95.410156"/>
       <use xlink:href="#DejaVuSans-30" x="159.033203"/>
       <use xlink:href="#DejaVuSans-30" x="222.65625"/>
      </g>
     </g>
    </g>
    <g id="xtick_2">
     <g id="line2d_2">
      <g>
       <use xlink:href="#m6b5116fa1f" x="102.048539" y="239.835719" style="stroke: #000000; stroke-width: 0.8"/>
      </g>
     </g>
     <g id="text_2">
      <!-- 0.025 -->
      <g transform="translate(87.734477 254.434156) scale(0.1 -0.1)">
       <defs>
        <path id="DejaVuSans-32" d="M 1228 531 
L 3431 531 
L 3431 0 
L 469 0 
L 469 531 
Q 828 903 1448 1529 
Q 2069 2156 2228 2338 
Q 2531 2678 2651 2914 
Q 2772 3150 2772 3378 
Q 2772 3750 2511 3984 
Q 2250 4219 1831 4219 
Q 1534 4219 1204 4116 
Q 875 4013 500 3803 
L 500 4441 
Q 881 4594 1212 4672 
Q 1544 4750 1819 4750 
Q 2544 4750 2975 4387 
Q 3406 4025 3406 3419 
Q 3406 3131 3298 2873 
Q 3191 2616 2906 2266 
Q 2828 2175 2409 1742 
Q 1991 1309 1228 531 
z
" transform="scale(0.015625)"/>
        <path id="DejaVuSans-35" d="M 691 4666 
L 3169 4666 
L 3169 4134 
L 1269 4134 
L 1269 2991 
Q 1406 3038 1543 3061 
Q 1681 3084 1819 3084 
Q 2600 3084 3056 2656 
Q 3513 2228 3513 1497 
Q 3513 744 3044 326 
Q 2575 -91 1722 -91 
Q 1428 -91 1123 -41 
Q 819 9 494 109 
L 494 744 
Q 775 591 1075 516 
Q 1375 441 1709 441 
Q 2250 441 2565 725 
Q 2881 1009 2881 1497 
Q 2881 1984 2565 2268 
Q 2250 2553 1709 2553 
Q 1456 2553 1204 2497 
Q 953 2441 691 2322 
L 691 4666 
z
" transform="scale(0.015625)"/>
       </defs>
       <use xlink:href="#DejaVuSans-30"/>
       <use xlink:href="#DejaVuSans-2e" x="63.623047"/>
       <use xlink:href="#DejaVuSans-30" x="95.410156"/>
       <use xlink:href="#DejaVuSans-32" x="159.033203"/>
       <use xlink:href="#DejaVuSans-35" x="222.65625"/>
      </g>
     </g>
    </g>
    <g id="xtick_3">
     <g id="line2d_3">
      <g>
       <use xlink:href="#m6b5116fa1f" x="144.62872" y="239.835719" style="stroke: #000000; stroke-width: 0.8"/>
      </g>
     </g>
     <g id="text_3">
      <!-- 0.050 -->
      <g transform="translate(130.314657 254.434156) scale(0.1 -0.1)">
       <use xlink:href="#DejaVuSans-30"/>
       <use xlink:href="#DejaVuSans-2e" x="63.623047"/>
       <use xlink:href="#DejaVuSans-30" x="95.410156"/>
       <use xlink:href="#DejaVuSans-35" x="159.033203"/>
       <use xlink:href="#DejaVuSans-30" x="222.65625"/>
      </g>
     </g>
    </g>
    <g id="xtick_4">
     <g id="line2d_4">
      <g>
       <use xlink:href="#m6b5116fa1f" x="187.2089" y="239.835719" style="stroke: #000000; stroke-width: 0.8"/>
      </g>
     </g>
     <g id="text_4">
      <!-- 0.075 -->
      <g transform="translate(172.894837 254.434156) scale(0.1 -0.1)">
       <defs>
        <path id="DejaVuSans-37" d="M 525 4666 
L 3525 4666 
L 3525 4397 
L 1831 0 
L 1172 0 
L 2766 4134 
L 525 4134 
L 525 4666 
z
" transform="scale(0.015625)"/>
       </defs>
       <use xlink:href="#DejaVuSans-30"/>
       <use xlink:href="#DejaVuSans-2e" x="63.623047"/>
       <use xlink:href="#DejaVuSans-30" x="95.410156"/>
       <use xlink:href="#DejaVuSans-37" x="159.033203"/>
       <use xlink:href="#DejaVuSans-35" x="222.65625"/>
      </g>
     </g>
    </g>
    <g id="xtick_5">
     <g id="line2d_5">
      <g>
       <use xlink:href="#m6b5116fa1f" x="229.78908" y="239.835719" style="stroke: #000000; stroke-width: 0.8"/>
      </g>
     </g>
     <g id="text_5">
      <!-- 0.100 -->
      <g transform="translate(215.475018 254.434156) scale(0.1 -0.1)">
       <defs>
        <path id="DejaVuSans-31" d="M 794 531 
L 1825 531 
L 1825 4091 
L 703 3866 
L 703 4441 
L 1819 4666 
L 2450 4666 
L 2450 531 
L 3481 531 
L 3481 0 
L 794 0 
L 794 531 
z
" transform="scale(0.015625)"/>
       </defs>
       <use xlink:href="#DejaVuSans-30"/>
       <use xlink:href="#DejaVuSans-2e" x="63.623047"/>
       <use xlink:href="#DejaVuSans-31" x="95.410156"/>
       <use xlink:href="#DejaVuSans-30" x="159.033203"/>
       <use xlink:href="#DejaVuSans-30" x="222.65625"/>
      </g>
     </g>
    </g>
    <g id="xtick_6">
     <g id="line2d_6">
      <g>
       <use xlink:href="#m6b5116fa1f" x="272.36926" y="239.835719" style="stroke: #000000; stroke-width: 0.8"/>
      </g>
     </g>
     <g id="text_6">
      <!-- 0.125 -->
      <g transform="translate(258.055198 254.434156) scale(0.1 -0.1)">
       <use xlink:href="#DejaVuSans-30"/>
       <use xlink:href="#DejaVuSans-2e" x="63.623047"/>
       <use xlink:href="#DejaVuSans-31" x="95.410156"/>
       <use xlink:href="#DejaVuSans-32" x="159.033203"/>
       <use xlink:href="#DejaVuSans-35" x="222.65625"/>
      </g>
     </g>
    </g>
    <g id="xtick_7">
     <g id="line2d_7">
      <g>
       <use xlink:href="#m6b5116fa1f" x="314.94944" y="239.835719" style="stroke: #000000; stroke-width: 0.8"/>
      </g>
     </g>
     <g id="text_7">
      <!-- 0.150 -->
      <g transform="translate(300.635378 254.434156) scale(0.1 -0.1)">
       <use xlink:href="#DejaVuSans-30"/>
       <use xlink:href="#DejaVuSans-2e" x="63.623047"/>
       <use xlink:href="#DejaVuSans-31" x="95.410156"/>
       <use xlink:href="#DejaVuSans-35" x="159.033203"/>
       <use xlink:href="#DejaVuSans-30" x="222.65625"/>
      </g>
     </g>
    </g>
    <g id="xtick_8">
     <g id="line2d_8">
      <g>
       <use xlink:href="#m6b5116fa1f" x="357.529621" y="239.835719" style="stroke: #000000; stroke-width: 0.8"/>
      </g>
     </g>
     <g id="text_8">
      <!-- 0.175 -->
      <g transform="translate(343.215558 254.434156) scale(0.1 -0.1)">
       <use xlink:href="#DejaVuSans-30"/>
       <use xlink:href="#DejaVuSans-2e" x="63.623047"/>
       <use xlink:href="#DejaVuSans-31" x="95.410156"/>
       <use xlink:href="#DejaVuSans-37" x="159.033203"/>
       <use xlink:href="#DejaVuSans-35" x="222.65625"/>
      </g>
     </g>
    </g>
    <g id="xtick_9">
     <g id="line2d_9">
      <g>
       <use xlink:href="#m6b5116fa1f" x="400.109801" y="239.835719" style="stroke: #000000; stroke-width: 0.8"/>
      </g>
     </g>
     <g id="text_9">
      <!-- 0.200 -->
      <g transform="translate(385.795738 254.434156) scale(0.1 -0.1)">
       <use xlink:href="#DejaVuSans-30"/>
       <use xlink:href="#DejaVuSans-2e" x="63.623047"/>
       <use xlink:href="#DejaVuSans-32" x="95.410156"/>
       <use xlink:href="#DejaVuSans-30" x="159.033203"/>
       <use xlink:href="#DejaVuSans-30" x="222.65625"/>
      </g>
     </g>
    </g>
    <g id="text_10">
     <!-- Q [1/Å] -->
     <g transform="translate(216.334598 269.035719) scale(0.1 -0.1)">
      <defs>
       <path id="DejaVuSans-51" d="M 2522 4238 
Q 1834 4238 1429 3725 
Q 1025 3213 1025 2328 
Q 1025 1447 1429 934 
Q 1834 422 2522 422 
Q 3209 422 3611 934 
Q 4013 1447 4013 2328 
Q 4013 3213 3611 3725 
Q 3209 4238 2522 4238 
z
M 3406 84 
L 4238 -825 
L 3475 -825 
L 2784 -78 
Q 2681 -84 2626 -87 
Q 2572 -91 2522 -91 
Q 1538 -91 948 567 
Q 359 1225 359 2328 
Q 359 3434 948 4092 
Q 1538 4750 2522 4750 
Q 3503 4750 4090 4092 
Q 4678 3434 4678 2328 
Q 4678 1516 4351 937 
Q 4025 359 3406 84 
z
" transform="scale(0.015625)"/>
       <path id="DejaVuSans-20" transform="scale(0.015625)"/>
       <path id="DejaVuSans-5b" d="M 550 4863 
L 1875 4863 
L 1875 4416 
L 1125 4416 
L 1125 -397 
L 1875 -397 
L 1875 -844 
L 550 -844 
L 550 4863 
z
" transform="scale(0.015625)"/>
       <path id="DejaVuSans-2f" d="M 1625 4666 
L 2156 4666 
L 531 -594 
L 0 -594 
L 1625 4666 
z
" transform="scale(0.015625)"/>
       <path id="DejaVuSans-c5" d="M 2663 5081 
Q 2663 5278 2523 5417 
Q 2384 5556 2188 5556 
Q 1988 5556 1852 5420 
Q 1716 5284 1716 5081 
Q 1716 4884 1853 4746 
Q 1991 4609 2188 4609 
Q 2384 4609 2523 4746 
Q 2663 4884 2663 5081 
z
M 2188 4044 
L 1338 1722 
L 3041 1722 
L 2188 4044 
z
M 1716 4366 
Q 1525 4494 1428 4673 
Q 1331 4853 1331 5081 
Q 1331 5441 1579 5691 
Q 1828 5941 2188 5941 
Q 2544 5941 2795 5689 
Q 3047 5438 3047 5081 
Q 3047 4863 2948 4678 
Q 2850 4494 2663 4366 
L 4325 0 
L 3669 0 
L 3244 1197 
L 1141 1197 
L 716 0 
L 50 0 
L 1716 4366 
z
" transform="scale(0.015625)"/>
       <path id="DejaVuSans-5d" d="M 1947 4863 
L 1947 -844 
L 622 -844 
L 622 -397 
L 1369 -397 
L 1369 4416 
L 622 4416 
L 622 4863 
L 1947 4863 
z
" transform="scale(0.015625)"/>
      </defs>
      <use xlink:href="#DejaVuSans-51"/>
      <use xlink:href="#DejaVuSans-20" x="78.710938"/>
      <use xlink:href="#DejaVuSans-5b" x="110.498047"/>
      <use xlink:href="#DejaVuSans-31" x="149.511719"/>
      <use xlink:href="#DejaVuSans-2f" x="213.134766"/>
      <use xlink:href="#DejaVuSans-c5" x="246.826172"/>
      <use xlink:href="#DejaVuSans-5d" x="315.234375"/>
     </g>
    </g>
   </g>
   <g id="matplotlib.axis_2">
    <g id="ytick_1">
     <g id="line2d_10">
      <defs>
       <path id="m090000915f" d="M 0 0 
L -3.5 0 
" style="stroke: #000000; stroke-width: 0.8"/>
      </defs>
      <g>
       <use xlink:href="#m090000915f" x="51.378125" y="239.835719" style="stroke: #000000; stroke-width: 0.8"/>
      </g>
     </g>
     <g id="text_11">
      <!-- $\mathdefault{10^{-3}}$ -->
      <g transform="translate(20.878125 243.634937) scale(0.1 -0.1)">
       <defs>
        <path id="DejaVuSans-2212" d="M 678 2272 
L 4684 2272 
L 4684 1741 
L 678 1741 
L 678 2272 
z
" transform="scale(0.015625)"/>
        <path id="DejaVuSans-33" d="M 2597 2516 
Q 3050 2419 3304 2112 
Q 3559 1806 3559 1356 
Q 3559 666 3084 287 
Q 2609 -91 1734 -91 
Q 1441 -91 1130 -33 
Q 819 25 488 141 
L 488 750 
Q 750 597 1062 519 
Q 1375 441 1716 441 
Q 2309 441 2620 675 
Q 2931 909 2931 1356 
Q 2931 1769 2642 2001 
Q 2353 2234 1838 2234 
L 1294 2234 
L 1294 2753 
L 1863 2753 
Q 2328 2753 2575 2939 
Q 2822 3125 2822 3475 
Q 2822 3834 2567 4026 
Q 2313 4219 1838 4219 
Q 1578 4219 1281 4162 
Q 984 4106 628 3988 
L 628 4550 
Q 988 4650 1302 4700 
Q 1616 4750 1894 4750 
Q 2613 4750 3031 4423 
Q 3450 4097 3450 3541 
Q 3450 3153 3228 2886 
Q 3006 2619 2597 2516 
z
" transform="scale(0.015625)"/>
       </defs>
       <use xlink:href="#DejaVuSans-31" transform="translate(0 0.765625)"/>
       <use xlink:href="#DejaVuSans-30" transform="translate(63.623047 0.765625)"/>
       <use xlink:href="#DejaVuSans-2212" transform="translate(128.203125 39.046875) scale(0.7)"/>
       <use xlink:href="#DejaVuSans-33" transform="translate(186.855469 39.046875) scale(0.7)"/>
      </g>
     </g>
    </g>
    <g id="ytick_2">
     <g id="line2d_11">
      <g>
       <use xlink:href="#m090000915f" x="51.378125" y="182.626594" style="stroke: #000000; stroke-width: 0.8"/>
      </g>
     </g>
     <g id="text_12">
      <!-- $\mathdefault{10^{-2}}$ -->
      <g transform="translate(20.878125 186.425812) scale(0.1 -0.1)">
       <use xlink:href="#DejaVuSans-31" transform="translate(0 0.765625)"/>
       <use xlink:href="#DejaVuSans-30" transform="translate(63.623047 0.765625)"/>
       <use xlink:href="#DejaVuSans-2212" transform="translate(128.203125 39.046875) scale(0.7)"/>
       <use xlink:href="#DejaVuSans-32" transform="translate(186.855469 39.046875) scale(0.7)"/>
      </g>
     </g>
    </g>
    <g id="ytick_3">
     <g id="line2d_12">
      <g>
       <use xlink:href="#m090000915f" x="51.378125" y="125.417469" style="stroke: #000000; stroke-width: 0.8"/>
      </g>
     </g>
     <g id="text_13">
      <!-- $\mathdefault{10^{-1}}$ -->
      <g transform="translate(20.878125 129.216687) scale(0.1 -0.1)">
       <use xlink:href="#DejaVuSans-31" transform="translate(0 0.684375)"/>
       <use xlink:href="#DejaVuSans-30" transform="translate(63.623047 0.684375)"/>
       <use xlink:href="#DejaVuSans-2212" transform="translate(128.203125 38.965625) scale(0.7)"/>
       <use xlink:href="#DejaVuSans-31" transform="translate(186.855469 38.965625) scale(0.7)"/>
      </g>
     </g>
    </g>
    <g id="ytick_4">
     <g id="line2d_13">
      <g>
       <use xlink:href="#m090000915f" x="51.378125" y="68.208344" style="stroke: #000000; stroke-width: 0.8"/>
      </g>
     </g>
     <g id="text_14">
      <!-- $\mathdefault{10^{0}}$ -->
      <g transform="translate(26.778125 72.007562) scale(0.1 -0.1)">
       <use xlink:href="#DejaVuSans-31" transform="translate(0 0.765625)"/>
       <use xlink:href="#DejaVuSans-30" transform="translate(63.623047 0.765625)"/>
       <use xlink:href="#DejaVuSans-30" transform="translate(128.203125 39.046875) scale(0.7)"/>
      </g>
     </g>
    </g>
    <g id="ytick_5">
     <g id="line2d_14">
      <g>
       <use xlink:href="#m090000915f" x="51.378125" y="10.999219" style="stroke: #000000; stroke-width: 0.8"/>
      </g>
     </g>
     <g id="text_15">
      <!-- $\mathdefault{10^{1}}$ -->
      <g transform="translate(26.778125 14.798437) scale(0.1 -0.1)">
       <use xlink:href="#DejaVuSans-31" transform="translate(0 0.684375)"/>
       <use xlink:href="#DejaVuSans-30" transform="translate(63.623047 0.684375)"/>
       <use xlink:href="#DejaVuSans-31" transform="translate(128.203125 38.965625) scale(0.7)"/>
      </g>
     </g>
    </g>
    <g id="ytick_6">
     <g id="line2d_15">
      <defs>
       <path id="m1177169e6d" d="M 0 0 
L -2 0 
" style="stroke: #000000; stroke-width: 0.6"/>
      </defs>
      <g>
       <use xlink:href="#m1177169e6d" x="51.378125" y="222.614056" style="stroke: #000000; stroke-width: 0.6"/>
      </g>
     </g>
    </g>
    <g id="ytick_7">
     <g id="line2d_16">
      <g>
       <use xlink:href="#m1177169e6d" x="51.378125" y="212.540029" style="stroke: #000000; stroke-width: 0.6"/>
      </g>
     </g>
    </g>
    <g id="ytick_8">
     <g id="line2d_17">
      <g>
       <use xlink:href="#m1177169e6d" x="51.378125" y="205.392393" style="stroke: #000000; stroke-width: 0.6"/>
      </g>
     </g>
    </g>
    <g id="ytick_9">
     <g id="line2d_18">
      <g>
       <use xlink:href="#m1177169e6d" x="51.378125" y="199.848256" style="stroke: #000000; stroke-width: 0.6"/>
      </g>
     </g>
    </g>
    <g id="ytick_10">
     <g id="line2d_19">
      <g>
       <use xlink:href="#m1177169e6d" x="51.378125" y="195.318367" style="stroke: #000000; stroke-width: 0.6"/>
      </g>
     </g>
    </g>
    <g id="ytick_11">
     <g id="line2d_20">
      <g>
       <use xlink:href="#m1177169e6d" x="51.378125" y="191.488399" style="stroke: #000000; stroke-width: 0.6"/>
      </g>
     </g>
    </g>
    <g id="ytick_12">
     <g id="line2d_21">
      <g>
       <use xlink:href="#m1177169e6d" x="51.378125" y="188.170731" style="stroke: #000000; stroke-width: 0.6"/>
      </g>
     </g>
    </g>
    <g id="ytick_13">
     <g id="line2d_22">
      <g>
       <use xlink:href="#m1177169e6d" x="51.378125" y="185.24434" style="stroke: #000000; stroke-width: 0.6"/>
      </g>
     </g>
    </g>
    <g id="ytick_14">
     <g id="line2d_23">
      <g>
       <use xlink:href="#m1177169e6d" x="51.378125" y="165.404931" style="stroke: #000000; stroke-width: 0.6"/>
      </g>
     </g>
    </g>
    <g id="ytick_15">
     <g id="line2d_24">
      <g>
       <use xlink:href="#m1177169e6d" x="51.378125" y="155.330904" style="stroke: #000000; stroke-width: 0.6"/>
      </g>
     </g>
    </g>
    <g id="ytick_16">
     <g id="line2d_25">
      <g>
       <use xlink:href="#m1177169e6d" x="51.378125" y="148.183268" style="stroke: #000000; stroke-width: 0.6"/>
      </g>
     </g>
    </g>
    <g id="ytick_17">
     <g id="line2d_26">
      <g>
       <use xlink:href="#m1177169e6d" x="51.378125" y="142.639131" style="stroke: #000000; stroke-width: 0.6"/>
      </g>
     </g>
    </g>
    <g id="ytick_18">
     <g id="line2d_27">
      <g>
       <use xlink:href="#m1177169e6d" x="51.378125" y="138.109242" style="stroke: #000000; stroke-width: 0.6"/>
      </g>
     </g>
    </g>
    <g id="ytick_19">
     <g id="line2d_28">
      <g>
       <use xlink:href="#m1177169e6d" x="51.378125" y="134.279274" style="stroke: #000000; stroke-width: 0.6"/>
      </g>
     </g>
    </g>
    <g id="ytick_20">
     <g id="line2d_29">
      <g>
       <use xlink:href="#m1177169e6d" x="51.378125" y="130.961606" style="stroke: #000000; stroke-width: 0.6"/>
      </g>
     </g>
    </g>
    <g id="ytick_21">
     <g id="line2d_30">
      <g>
       <use xlink:href="#m1177169e6d" x="51.378125" y="128.035215" style="stroke: #000000; stroke-width: 0.6"/>
      </g>
     </g>
    </g>
    <g id="ytick_22">
     <g id="line2d_31">
      <g>
       <use xlink:href="#m1177169e6d" x="51.378125" y="108.195806" style="stroke: #000000; stroke-width: 0.6"/>
      </g>
     </g>
    </g>
    <g id="ytick_23">
     <g id="line2d_32">
      <g>
       <use xlink:href="#m1177169e6d" x="51.378125" y="98.121779" style="stroke: #000000; stroke-width: 0.6"/>
      </g>
     </g>
    </g>
    <g id="ytick_24">
     <g id="line2d_33">
      <g>
       <use xlink:href="#m1177169e6d" x="51.378125" y="90.974143" style="stroke: #000000; stroke-width: 0.6"/>
      </g>
     </g>
    </g>
    <g id="ytick_25">
     <g id="line2d_34">
      <g>
       <use xlink:href="#m1177169e6d" x="51.378125" y="85.430006" style="stroke: #000000; stroke-width: 0.6"/>
      </g>
     </g>
    </g>
    <g id="ytick_26">
     <g id="line2d_35">
      <g>
       <use xlink:href="#m1177169e6d" x="51.378125" y="80.900117" style="stroke: #000000; stroke-width: 0.6"/>
      </g>
     </g>
    </g>
    <g id="ytick_27">
     <g id="line2d_36">
      <g>
       <use xlink:href="#m1177169e6d" x="51.378125" y="77.070149" style="stroke: #000000; stroke-width: 0.6"/>
      </g>
     </g>
    </g>
    <g id="ytick_28">
     <g id="line2d_37">
      <g>
       <use xlink:href="#m1177169e6d" x="51.378125" y="73.752481" style="stroke: #000000; stroke-width: 0.6"/>
      </g>
     </g>
    </g>
    <g id="ytick_29">
     <g id="line2d_38">
      <g>
       <use xlink:href="#m1177169e6d" x="51.378125" y="70.82609" style="stroke: #000000; stroke-width: 0.6"/>
      </g>
     </g>
    </g>
    <g id="ytick_30">
     <g id="line2d_39">
      <g>
       <use xlink:href="#m1177169e6d" x="51.378125" y="50.986681" style="stroke: #000000; stroke-width: 0.6"/>
      </g>
     </g>
    </g>
    <g id="ytick_31">
     <g id="line2d_40">
      <g>
       <use xlink:href="#m1177169e6d" x="51.378125" y="40.912654" style="stroke: #000000; stroke-width: 0.6"/>
      </g>
     </g>
    </g>
    <g id="ytick_32">
     <g id="line2d_41">
      <g>
       <use xlink:href="#m1177169e6d" x="51.378125" y="33.765018" style="stroke: #000000; stroke-width: 0.6"/>
      </g>
     </g>
    </g>
    <g id="ytick_33">
     <g id="line2d_42">
      <g>
       <use xlink:href="#m1177169e6d" x="51.378125" y="28.220881" style="stroke: #000000; stroke-width: 0.6"/>
      </g>
     </g>
    </g>
    <g id="ytick_34">
     <g id="line2d_43">
      <g>
       <use xlink:href="#m1177169e6d" x="51.378125" y="23.690992" style="stroke: #000000; stroke-width: 0.6"/>
      </g>
     </g>
    </g>
    <g id="ytick_35">
     <g id="line2d_44">
      <g>
       <use xlink:href="#m1177169e6d" x="51.378125" y="19.861024" style="stroke: #000000; stroke-width: 0.6"/>
      </g>
     </g>
    </g>
    <g id="ytick_36">
     <g id="line2d_45">
      <g>
       <use xlink:href="#m1177169e6d" x="51.378125" y="16.543356" style="stroke: #000000; stroke-width: 0.6"/>
      </g>
     </g>
    </g>
    <g id="ytick_37">
     <g id="line2d_46">
      <g>
       <use xlink:href="#m1177169e6d" x="51.378125" y="13.616965" style="stroke: #000000; stroke-width: 0.6"/>
      </g>
     </g>
    </g>
    <g id="text_16">
     <!-- [dimensionless] -->
     <g transform="translate(14.798438 164.894812) rotate(-90) scale(0.1 -0.1)">
      <defs>
       <path id="DejaVuSans-64" d="M 2906 2969 
L 2906 4863 
L 3481 4863 
L 3481 0 
L 2906 0 
L 2906 525 
Q 2725 213 2448 61 
Q 2172 -91 1784 -91 
Q 1150 -91 751 415 
Q 353 922 353 1747 
Q 353 2572 751 3078 
Q 1150 3584 1784 3584 
Q 2172 3584 2448 3432 
Q 2725 3281 2906 2969 
z
M 947 1747 
Q 947 1113 1208 752 
Q 1469 391 1925 391 
Q 2381 391 2643 752 
Q 2906 1113 2906 1747 
Q 2906 2381 2643 2742 
Q 2381 3103 1925 3103 
Q 1469 3103 1208 2742 
Q 947 2381 947 1747 
z
" transform="scale(0.015625)"/>
       <path id="DejaVuSans-69" d="M 603 3500 
L 1178 3500 
L 1178 0 
L 603 0 
L 603 3500 
z
M 603 4863 
L 1178 4863 
L 1178 4134 
L 603 4134 
L 603 4863 
z
" transform="scale(0.015625)"/>
       <path id="DejaVuSans-6d" d="M 3328 2828 
Q 3544 3216 3844 3400 
Q 4144 3584 4550 3584 
Q 5097 3584 5394 3201 
Q 5691 2819 5691 2113 
L 5691 0 
L 5113 0 
L 5113 2094 
Q 5113 2597 4934 2840 
Q 4756 3084 4391 3084 
Q 3944 3084 3684 2787 
Q 3425 2491 3425 1978 
L 3425 0 
L 2847 0 
L 2847 2094 
Q 2847 2600 2669 2842 
Q 2491 3084 2119 3084 
Q 1678 3084 1418 2786 
Q 1159 2488 1159 1978 
L 1159 0 
L 581 0 
L 581 3500 
L 1159 3500 
L 1159 2956 
Q 1356 3278 1631 3431 
Q 1906 3584 2284 3584 
Q 2666 3584 2933 3390 
Q 3200 3197 3328 2828 
z
" transform="scale(0.015625)"/>
       <path id="DejaVuSans-65" d="M 3597 1894 
L 3597 1613 
L 953 1613 
Q 991 1019 1311 708 
Q 1631 397 2203 397 
Q 2534 397 2845 478 
Q 3156 559 3463 722 
L 3463 178 
Q 3153 47 2828 -22 
Q 2503 -91 2169 -91 
Q 1331 -91 842 396 
Q 353 884 353 1716 
Q 353 2575 817 3079 
Q 1281 3584 2069 3584 
Q 2775 3584 3186 3129 
Q 3597 2675 3597 1894 
z
M 3022 2063 
Q 3016 2534 2758 2815 
Q 2500 3097 2075 3097 
Q 1594 3097 1305 2825 
Q 1016 2553 972 2059 
L 3022 2063 
z
" transform="scale(0.015625)"/>
       <path id="DejaVuSans-6e" d="M 3513 2113 
L 3513 0 
L 2938 0 
L 2938 2094 
Q 2938 2591 2744 2837 
Q 2550 3084 2163 3084 
Q 1697 3084 1428 2787 
Q 1159 2491 1159 1978 
L 1159 0 
L 581 0 
L 581 3500 
L 1159 3500 
L 1159 2956 
Q 1366 3272 1645 3428 
Q 1925 3584 2291 3584 
Q 2894 3584 3203 3211 
Q 3513 2838 3513 2113 
z
" transform="scale(0.015625)"/>
       <path id="DejaVuSans-73" d="M 2834 3397 
L 2834 2853 
Q 2591 2978 2328 3040 
Q 2066 3103 1784 3103 
Q 1356 3103 1142 2972 
Q 928 2841 928 2578 
Q 928 2378 1081 2264 
Q 1234 2150 1697 2047 
L 1894 2003 
Q 2506 1872 2764 1633 
Q 3022 1394 3022 966 
Q 3022 478 2636 193 
Q 2250 -91 1575 -91 
Q 1294 -91 989 -36 
Q 684 19 347 128 
L 347 722 
Q 666 556 975 473 
Q 1284 391 1588 391 
Q 1994 391 2212 530 
Q 2431 669 2431 922 
Q 2431 1156 2273 1281 
Q 2116 1406 1581 1522 
L 1381 1569 
Q 847 1681 609 1914 
Q 372 2147 372 2553 
Q 372 3047 722 3315 
Q 1072 3584 1716 3584 
Q 2034 3584 2315 3537 
Q 2597 3491 2834 3397 
z
" transform="scale(0.015625)"/>
       <path id="DejaVuSans-6f" d="M 1959 3097 
Q 1497 3097 1228 2736 
Q 959 2375 959 1747 
Q 959 1119 1226 758 
Q 1494 397 1959 397 
Q 2419 397 2687 759 
Q 2956 1122 2956 1747 
Q 2956 2369 2687 2733 
Q 2419 3097 1959 3097 
z
M 1959 3584 
Q 2709 3584 3137 3096 
Q 3566 2609 3566 1747 
Q 3566 888 3137 398 
Q 2709 -91 1959 -91 
Q 1206 -91 779 398 
Q 353 888 353 1747 
Q 353 2609 779 3096 
Q 1206 3584 1959 3584 
z
" transform="scale(0.015625)"/>
       <path id="DejaVuSans-6c" d="M 603 4863 
L 1178 4863 
L 1178 0 
L 603 0 
L 603 4863 
z
" transform="scale(0.015625)"/>
      </defs>
      <use xlink:href="#DejaVuSans-5b"/>
      <use xlink:href="#DejaVuSans-64" x="39.013672"/>
      <use xlink:href="#DejaVuSans-69" x="102.490234"/>
      <use xlink:href="#DejaVuSans-6d" x="130.273438"/>
      <use xlink:href="#DejaVuSans-65" x="227.685547"/>
      <use xlink:href="#DejaVuSans-6e" x="289.208984"/>
      <use xlink:href="#DejaVuSans-73" x="352.587891"/>
      <use xlink:href="#DejaVuSans-69" x="404.6875"/>
      <use xlink:href="#DejaVuSans-6f" x="432.470703"/>
      <use xlink:href="#DejaVuSans-6e" x="493.652344"/>
      <use xlink:href="#DejaVuSans-6c" x="557.03125"/>
      <use xlink:href="#DejaVuSans-65" x="584.814453"/>
      <use xlink:href="#DejaVuSans-73" x="646.337891"/>
      <use xlink:href="#DejaVuSans-73" x="698.4375"/>
      <use xlink:href="#DejaVuSans-5d" x="750.537109"/>
     </g>
    </g>
   </g>
   <g id="patch_3">
    <path d="M 51.378125 239.835719 
L 51.378125 10.999219 
" style="fill: none; stroke: #000000; stroke-width: 0.8; stroke-linejoin: miter; stroke-linecap: square"/>
   </g>
   <g id="patch_4">
    <path d="M 416.716071 239.835719 
L 416.716071 10.999219 
" style="fill: none; stroke: #000000; stroke-width: 0.8; stroke-linejoin: miter; stroke-linecap: square"/>
   </g>
   <g id="patch_5">
    <path d="M 51.378125 239.835719 
L 416.716071 239.835719 
" style="fill: none; stroke: #000000; stroke-width: 0.8; stroke-linejoin: miter; stroke-linecap: square"/>
   </g>
   <g id="patch_6">
    <path d="M 51.378125 10.999219 
L 416.716071 10.999219 
" style="fill: none; stroke: #000000; stroke-width: 0.8; stroke-linejoin: miter; stroke-linecap: square"/>
   </g>
   <g id="line2d_47">
    <path d="M 67.984395 28.479496 
L 69.645022 28.479496 
L 69.645022 27.856372 
L 71.305649 27.856372 
L 71.305649 29.304029 
L 72.966276 29.304029 
L 72.966276 28.77364 
L 74.626903 28.77364 
L 74.626903 30.4663 
L 76.28753 30.4663 
L 76.28753 31.500358 
L 77.948157 31.500358 
L 77.948157 31.858801 
L 79.608784 31.858801 
L 79.608784 32.135851 
L 81.269411 32.135851 
L 81.269411 33.017258 
L 82.930039 33.017258 
L 82.930039 32.862519 
L 84.590666 32.862519 
L 84.590666 35.633079 
L 86.251293 35.633079 
L 86.251293 38.197118 
L 87.91192 38.197118 
L 87.91192 39.029337 
L 89.572547 39.029337 
L 89.572547 39.583513 
L 91.233174 39.583513 
L 91.233174 41.423606 
L 92.893801 41.423606 
L 92.893801 42.184184 
L 94.554428 42.184184 
L 94.554428 44.665315 
L 96.215055 44.665315 
L 96.215055 46.836217 
L 97.875682 46.836217 
L 97.875682 49.303998 
L 99.536309 49.303998 
L 99.536309 53.660911 
L 101.196936 53.660911 
L 101.196936 55.221913 
L 102.857563 55.221913 
L 102.857563 55.348108 
L 104.51819 55.348108 
L 104.51819 58.162206 
L 106.178817 58.162206 
L 106.178817 62.007897 
L 107.839444 62.007897 
L 107.839444 64.108818 
L 109.500071 64.108818 
L 109.500071 67.578779 
L 111.160698 67.578779 
L 111.160698 68.687398 
L 112.821325 68.687398 
L 112.821325 72.552294 
L 114.481952 72.552294 
L 114.481952 79.312296 
L 116.142579 79.312296 
L 116.142579 85.056163 
L 117.803206 85.056163 
L 117.803206 85.362596 
L 119.463833 85.362596 
L 119.463833 86.781332 
L 121.12446 86.781332 
L 121.12446 92.397106 
L 122.785087 92.397106 
L 122.785087 99.626848 
L 124.445714 99.626848 
L 124.445714 101.219397 
L 126.106341 101.219397 
L 126.106341 107.382 
L 127.766968 107.382 
L 127.766968 114.346769 
L 129.427595 114.346769 
L 129.427595 121.584989 
L 131.088222 121.584989 
L 131.088222 126.285207 
L 132.748849 126.285207 
L 132.748849 135.920217 
L 134.409476 135.920217 
L 134.409476 138.714469 
L 136.070103 138.714469 
L 136.070103 146.281056 
L 137.73073 146.281056 
L 137.73073 150.413897 
L 139.391357 150.413897 
L 139.391357 156.877533 
L 141.051984 156.877533 
L 141.051984 161.413228 
L 142.712612 161.413228 
L 142.712612 162.519697 
L 144.373239 162.519697 
L 144.373239 158.891946 
L 146.033866 158.891946 
L 146.033866 157.284608 
L 147.694493 157.284608 
L 147.694493 159.006106 
L 149.35512 159.006106 
L 149.35512 154.30092 
L 151.015747 154.30092 
L 151.015747 149.027268 
L 152.676374 149.027268 
L 152.676374 150.493383 
L 154.337001 150.493383 
L 154.337001 144.304138 
L 155.997628 144.304138 
L 155.997628 143.755026 
L 157.658255 143.755026 
L 157.658255 144.729901 
L 159.318882 144.729901 
L 159.318882 142.179255 
L 160.979509 142.179255 
L 160.979509 139.827064 
L 162.640136 139.827064 
L 162.640136 138.10871 
L 164.300763 138.10871 
L 164.300763 139.02298 
L 165.96139 139.02298 
L 165.96139 137.29942 
L 167.622017 137.29942 
L 167.622017 137.628759 
L 169.282644 137.628759 
L 169.282644 138.39393 
L 170.943271 138.39393 
L 170.943271 136.044481 
L 172.603898 136.044481 
L 172.603898 141.149658 
L 174.264525 141.149658 
L 174.264525 141.531232 
L 175.925152 141.531232 
L 175.925152 142.983444 
L 177.585779 142.983444 
L 177.585779 144.609271 
L 179.246406 144.609271 
L 179.246406 142.703467 
L 180.907033 142.703467 
L 180.907033 144.128733 
L 182.56766 144.128733 
L 182.56766 147.155185 
L 184.228287 147.155185 
L 184.228287 152.066611 
L 185.888914 152.066611 
L 185.888914 153.763633 
L 187.549541 153.763633 
L 187.549541 150.73891 
L 189.210168 150.73891 
L 189.210168 153.791512 
L 190.870795 153.791512 
L 190.870795 156.301904 
L 192.531422 156.301904 
L 192.531422 163.777455 
L 194.192049 163.777455 
L 194.192049 162.527912 
L 197.513303 162.537959 
L 197.513303 166.928676 
L 199.17393 166.928676 
L 199.17393 164.257374 
L 200.834557 164.257374 
L 200.834557 165.942177 
L 202.495185 165.942177 
L 202.495185 163.225569 
L 204.155812 163.225569 
L 204.155812 165.523121 
L 205.816439 165.523121 
L 205.816439 168.464608 
L 207.477066 168.464608 
L 207.477066 166.843154 
L 209.137693 166.843154 
L 209.137693 160.539954 
L 210.79832 160.539954 
L 210.79832 162.798984 
L 212.458947 162.798984 
L 212.458947 163.229999 
L 214.119574 163.229999 
L 214.119574 168.026537 
L 215.780201 168.026537 
L 215.780201 158.86078 
L 217.440828 158.86078 
L 217.440828 164.757726 
L 219.101455 164.757726 
L 219.101455 160.220366 
L 220.762082 160.220366 
L 220.762082 157.953683 
L 222.422709 157.953683 
L 222.422709 156.470901 
L 224.083336 156.470901 
L 224.083336 161.588823 
L 227.40459 161.586496 
L 227.40459 156.62282 
L 230.725844 156.574834 
L 230.725844 157.494902 
L 232.386471 157.494902 
L 232.386471 157.228816 
L 234.047098 157.228816 
L 234.047098 158.912072 
L 235.707725 158.912072 
L 235.707725 163.760334 
L 237.368352 163.760334 
L 237.368352 160.642322 
L 239.028979 160.642322 
L 239.028979 163.372358 
L 240.689606 163.372358 
L 240.689606 161.070439 
L 242.350233 161.070439 
L 242.350233 158.27959 
L 244.01086 158.27959 
L 244.01086 158.968051 
L 245.671487 158.968051 
L 245.671487 162.613984 
L 247.332114 162.613984 
L 247.332114 163.416482 
L 248.992741 163.416482 
L 248.992741 162.030054 
L 250.653368 162.030054 
L 250.653368 166.041958 
L 252.313995 166.041958 
L 252.313995 165.795469 
L 253.974622 165.795469 
L 253.974622 166.55558 
L 255.635249 166.55558 
L 255.635249 165.279238 
L 257.295876 165.279238 
L 257.295876 167.312978 
L 258.956503 167.312978 
L 258.956503 166.406193 
L 260.61713 166.406193 
L 260.61713 166.254969 
L 262.277758 166.254969 
L 262.277758 164.460308 
L 263.938385 164.460308 
L 263.938385 165.413059 
L 265.599012 165.413059 
L 265.599012 164.421888 
L 267.259639 164.421888 
L 267.259639 165.349424 
L 268.920266 165.349424 
L 268.920266 159.276998 
L 270.580893 159.276998 
L 270.580893 165.900321 
L 272.24152 165.900321 
L 272.24152 165.147564 
L 273.902147 165.147564 
L 273.902147 164.647483 
L 275.562774 164.647483 
L 275.562774 160.820818 
L 277.223401 160.820818 
L 277.223401 166.532869 
L 278.884028 166.532869 
L 278.884028 159.068397 
L 280.544655 159.068397 
L 280.544655 166.004532 
L 282.205282 166.004532 
L 282.205282 166.277679 
L 283.865909 166.277679 
L 283.865909 170.34647 
L 285.526536 170.34647 
L 285.526536 163.06972 
L 287.187163 163.06972 
L 287.187163 161.260886 
L 288.84779 161.260886 
L 288.84779 166.791201 
L 290.508417 166.791201 
L 290.508417 160.812188 
L 292.169044 160.812188 
L 292.169044 161.221492 
L 293.829671 161.221492 
L 293.829671 166.126406 
L 295.490298 166.126406 
L 295.490298 161.462145 
L 297.150925 161.462145 
L 297.150925 165.162157 
L 298.811552 165.162157 
L 298.811552 165.470652 
L 300.472179 165.470652 
L 300.472179 166.375651 
L 302.132806 166.375651 
L 302.132806 167.501003 
L 303.793433 167.501003 
L 303.793433 167.982567 
L 305.45406 167.982567 
L 305.45406 165.407768 
L 307.114687 165.407768 
L 307.114687 160.624821 
L 308.775314 160.624821 
L 308.775314 166.76291 
L 310.435941 166.76291 
L 310.435941 162.699027 
L 312.096568 162.699027 
L 312.096568 166.548284 
L 313.757195 166.548284 
L 313.757195 167.511662 
L 315.417822 167.511662 
L 315.417822 165.414098 
L 317.078449 165.414098 
L 317.078449 160.8681 
L 318.739076 160.8681 
L 318.739076 169.666188 
L 320.399703 169.666188 
L 320.399703 166.671332 
L 322.060331 166.671332 
L 322.060331 159.61541 
L 323.720958 159.61541 
L 323.720958 160.861279 
L 325.381585 160.861279 
L 325.381585 167.666677 
L 327.042212 167.666677 
L 327.042212 164.320022 
L 328.702839 164.320022 
L 328.702839 165.717042 
L 330.363466 165.717042 
L 330.363466 160.509488 
L 332.024093 160.509488 
L 332.024093 170.448722 
L 333.68472 170.448722 
L 333.68472 165.537641 
L 335.345347 165.537641 
L 335.345347 172.354747 
L 337.005974 172.354747 
L 337.005974 158.759183 
L 338.666601 158.759183 
L 338.666601 170.966659 
L 340.327228 170.966659 
L 340.327228 157.893926 
L 341.987855 157.893926 
L 341.987855 163.018048 
L 343.648482 163.018048 
L 343.648482 162.330581 
L 345.309109 162.330581 
L 345.309109 160.003953 
L 346.969736 160.003953 
L 346.969736 160.707352 
L 348.630363 160.707352 
L 348.630363 158.459144 
L 350.29099 158.459144 
L 350.29099 167.595548 
L 351.951617 167.595548 
L 351.951617 171.571741 
L 353.612244 171.571741 
L 353.612244 167.379985 
L 355.272871 167.379985 
L 355.272871 170.818752 
L 356.933498 170.818752 
L 356.933498 161.804444 
L 358.594125 161.804444 
L 358.594125 163.502343 
L 360.254752 163.502343 
L 360.254752 162.374935 
L 361.915379 162.374935 
L 361.915379 158.554223 
L 363.576006 158.554223 
L 363.576006 161.577853 
L 365.236633 161.577853 
L 365.236633 172.717322 
L 366.89726 172.717322 
L 366.89726 162.372521 
L 368.557887 162.372521 
L 368.557887 173.842415 
L 370.218514 173.842415 
L 370.218514 168.054274 
L 371.879141 168.054274 
L 371.879141 167.384254 
L 373.539768 167.384254 
L 373.539768 158.8019 
L 375.200395 158.8019 
L 375.200395 179.393288 
L 376.861022 179.393288 
L 376.861022 168.294621 
L 378.521649 168.294621 
L 378.521649 158.223339 
L 380.182276 158.223339 
L 380.182276 187.795363 
L 381.842904 187.795363 
L 381.842904 181.469191 
L 383.503531 181.469191 
L 383.503531 185.839297 
L 385.164158 185.839297 
L 385.164158 209.773737 
L 386.824785 209.773737 
L 386.824785 221.289591 
L 388.485412 221.289591 
L 388.485412 171.587137 
L 390.146039 171.587137 
L 390.146039 168.300837 
L 391.806666 168.300837 
L 391.806666 164.768688 
L 393.467293 164.768688 
L 393.467293 171.717343 
L 395.12792 171.717343 
L 395.12792 141.974432 
L 396.788547 141.974432 
L 396.788547 219.481594 
L 398.449174 219.481594 
L 398.449174 158.85339 
L 400.109801 158.85339 
L 400.109801 158.85339 
" clip-path="url(#p14aace2ead)" style="fill: none; stroke: #1f77b4; stroke-width: 1.5; stroke-linecap: square"/>
   </g>
   <g id="LineCollection_1">
    <path d="M 68.814709 29.13661 
L 68.814709 27.839315 
" clip-path="url(#p14aace2ead)" style="fill: none; stroke: #1f77b4; stroke-width: 1.5"/>
    <path d="M 70.475336 28.405186 
L 70.475336 27.319419 
" clip-path="url(#p14aace2ead)" style="fill: none; stroke: #1f77b4; stroke-width: 1.5"/>
    <path d="M 72.135963 29.846311 
L 72.135963 28.77333 
" clip-path="url(#p14aace2ead)" style="fill: none; stroke: #1f77b4; stroke-width: 1.5"/>
    <path d="M 73.79659 29.327275 
L 73.79659 28.232073 
" clip-path="url(#p14aace2ead)" style="fill: none; stroke: #1f77b4; stroke-width: 1.5"/>
    <path d="M 75.457217 31.013639 
L 75.457217 29.930759 
" clip-path="url(#p14aace2ead)" style="fill: none; stroke: #1f77b4; stroke-width: 1.5"/>
    <path d="M 77.117844 32.051846 
L 77.117844 30.960847 
" clip-path="url(#p14aace2ead)" style="fill: none; stroke: #1f77b4; stroke-width: 1.5"/>
    <path d="M 78.778471 32.414764 
L 78.778471 31.315007 
" clip-path="url(#p14aace2ead)" style="fill: none; stroke: #1f77b4; stroke-width: 1.5"/>
    <path d="M 80.439098 32.692886 
L 80.439098 31.591031 
" clip-path="url(#p14aace2ead)" style="fill: none; stroke: #1f77b4; stroke-width: 1.5"/>
    <path d="M 82.099725 33.587816 
L 82.099725 32.45951 
" clip-path="url(#p14aace2ead)" style="fill: none; stroke: #1f77b4; stroke-width: 1.5"/>
    <path d="M 83.760352 33.428492 
L 83.760352 32.309151 
" clip-path="url(#p14aace2ead)" style="fill: none; stroke: #1f77b4; stroke-width: 1.5"/>
    <path d="M 85.420979 36.198422 
L 85.420979 35.080315 
" clip-path="url(#p14aace2ead)" style="fill: none; stroke: #1f77b4; stroke-width: 1.5"/>
    <path d="M 87.081606 38.765116 
L 87.081606 37.641815 
" clip-path="url(#p14aace2ead)" style="fill: none; stroke: #1f77b4; stroke-width: 1.5"/>
    <path d="M 88.742233 39.609135 
L 88.742233 38.462761 
" clip-path="url(#p14aace2ead)" style="fill: none; stroke: #1f77b4; stroke-width: 1.5"/>
    <path d="M 90.40286 40.170918 
L 90.40286 39.009675 
" clip-path="url(#p14aace2ead)" style="fill: none; stroke: #1f77b4; stroke-width: 1.5"/>
    <path d="M 92.063487 42.007416 
L 92.063487 40.853199 
" clip-path="url(#p14aace2ead)" style="fill: none; stroke: #1f77b4; stroke-width: 1.5"/>
    <path d="M 93.724114 42.774373 
L 93.724114 41.60769 
" clip-path="url(#p14aace2ead)" style="fill: none; stroke: #1f77b4; stroke-width: 1.5"/>
    <path d="M 95.384741 45.26445 
L 95.384741 44.080288 
" clip-path="url(#p14aace2ead)" style="fill: none; stroke: #1f77b4; stroke-width: 1.5"/>
    <path d="M 97.045368 47.453934 
L 97.045368 46.233487 
" clip-path="url(#p14aace2ead)" style="fill: none; stroke: #1f77b4; stroke-width: 1.5"/>
    <path d="M 98.705995 49.940018 
L 98.705995 48.683853 
" clip-path="url(#p14aace2ead)" style="fill: none; stroke: #1f77b4; stroke-width: 1.5"/>
    <path d="M 100.366622 54.334827 
L 100.366622 53.004793 
" clip-path="url(#p14aace2ead)" style="fill: none; stroke: #1f77b4; stroke-width: 1.5"/>
    <path d="M 102.027249 55.940195 
L 102.027249 54.523815 
" clip-path="url(#p14aace2ead)" style="fill: none; stroke: #1f77b4; stroke-width: 1.5"/>
    <path d="M 103.687876 56.12254 
L 103.687876 54.597087 
" clip-path="url(#p14aace2ead)" style="fill: none; stroke: #1f77b4; stroke-width: 1.5"/>
    <path d="M 105.348503 59.03225 
L 105.348503 57.3216 
" clip-path="url(#p14aace2ead)" style="fill: none; stroke: #1f77b4; stroke-width: 1.5"/>
    <path d="M 107.00913 63.027012 
L 107.00913 61.028942 
" clip-path="url(#p14aace2ead)" style="fill: none; stroke: #1f77b4; stroke-width: 1.5"/>
    <path d="M 108.669757 65.300758 
L 108.669757 62.971453 
" clip-path="url(#p14aace2ead)" style="fill: none; stroke: #1f77b4; stroke-width: 1.5"/>
    <path d="M 110.330384 68.924543 
L 110.330384 66.302177 
" clip-path="url(#p14aace2ead)" style="fill: none; stroke: #1f77b4; stroke-width: 1.5"/>
    <path d="M 111.991012 70.051955 
L 111.991012 67.3939 
" clip-path="url(#p14aace2ead)" style="fill: none; stroke: #1f77b4; stroke-width: 1.5"/>
    <path d="M 113.651639 73.860344 
L 113.651639 71.309677 
" clip-path="url(#p14aace2ead)" style="fill: none; stroke: #1f77b4; stroke-width: 1.5"/>
    <path d="M 115.312266 80.533789 
L 115.312266 78.148053 
" clip-path="url(#p14aace2ead)" style="fill: none; stroke: #1f77b4; stroke-width: 1.5"/>
    <path d="M 116.972893 86.259665 
L 116.972893 83.908275 
" clip-path="url(#p14aace2ead)" style="fill: none; stroke: #1f77b4; stroke-width: 1.5"/>
    <path d="M 118.63352 86.447475 
L 118.63352 84.323113 
" clip-path="url(#p14aace2ead)" style="fill: none; stroke: #1f77b4; stroke-width: 1.5"/>
    <path d="M 120.294147 87.848487 
L 120.294147 85.758131 
" clip-path="url(#p14aace2ead)" style="fill: none; stroke: #1f77b4; stroke-width: 1.5"/>
    <path d="M 121.954774 93.476876 
L 121.954774 91.362314 
" clip-path="url(#p14aace2ead)" style="fill: none; stroke: #1f77b4; stroke-width: 1.5"/>
    <path d="M 123.615401 100.834691 
L 123.615401 98.475012 
" clip-path="url(#p14aace2ead)" style="fill: none; stroke: #1f77b4; stroke-width: 1.5"/>
    <path d="M 125.276028 102.396932 
L 125.276028 100.095153 
" clip-path="url(#p14aace2ead)" style="fill: none; stroke: #1f77b4; stroke-width: 1.5"/>
    <path d="M 126.936655 108.658024 
L 126.936655 106.168322 
" clip-path="url(#p14aace2ead)" style="fill: none; stroke: #1f77b4; stroke-width: 1.5"/>
    <path d="M 128.597282 115.760835 
L 128.597282 113.008867 
" clip-path="url(#p14aace2ead)" style="fill: none; stroke: #1f77b4; stroke-width: 1.5"/>
    <path d="M 130.257909 123.206245 
L 130.257909 120.063075 
" clip-path="url(#p14aace2ead)" style="fill: none; stroke: #1f77b4; stroke-width: 1.5"/>
    <path d="M 131.918536 128.00217 
L 131.918536 124.679265 
" clip-path="url(#p14aace2ead)" style="fill: none; stroke: #1f77b4; stroke-width: 1.5"/>
    <path d="M 133.579163 137.969823 
L 133.579163 134.02688 
" clip-path="url(#p14aace2ead)" style="fill: none; stroke: #1f77b4; stroke-width: 1.5"/>
    <path d="M 135.23979 140.959855 
L 135.23979 136.655294 
" clip-path="url(#p14aace2ead)" style="fill: none; stroke: #1f77b4; stroke-width: 1.5"/>
    <path d="M 136.900417 148.848626 
L 136.900417 143.954145 
" clip-path="url(#p14aace2ead)" style="fill: none; stroke: #1f77b4; stroke-width: 1.5"/>
    <path d="M 138.561044 153.24983 
L 138.561044 147.868755 
" clip-path="url(#p14aace2ead)" style="fill: none; stroke: #1f77b4; stroke-width: 1.5"/>
    <path d="M 140.221671 160.080014 
L 140.221671 154.041103 
" clip-path="url(#p14aace2ead)" style="fill: none; stroke: #1f77b4; stroke-width: 1.5"/>
    <path d="M 141.882298 164.923754 
L 141.882298 158.337865 
" clip-path="url(#p14aace2ead)" style="fill: none; stroke: #1f77b4; stroke-width: 1.5"/>
    <path d="M 143.542925 166.202343 
L 143.542925 159.313096 
" clip-path="url(#p14aace2ead)" style="fill: none; stroke: #1f77b4; stroke-width: 1.5"/>
    <path d="M 145.203552 162.213116 
L 145.203552 155.962832 
" clip-path="url(#p14aace2ead)" style="fill: none; stroke: #1f77b4; stroke-width: 1.5"/>
    <path d="M 146.864179 160.618663 
L 146.864179 154.345479 
" clip-path="url(#p14aace2ead)" style="fill: none; stroke: #1f77b4; stroke-width: 1.5"/>
    <path d="M 148.524806 162.360782 
L 148.524806 156.050969 
" clip-path="url(#p14aace2ead)" style="fill: none; stroke: #1f77b4; stroke-width: 1.5"/>
    <path d="M 150.185433 157.332035 
L 150.185433 151.599712 
" clip-path="url(#p14aace2ead)" style="fill: none; stroke: #1f77b4; stroke-width: 1.5"/>
    <path d="M 151.84606 151.766178 
L 151.84606 146.560532 
" clip-path="url(#p14aace2ead)" style="fill: none; stroke: #1f77b4; stroke-width: 1.5"/>
    <path d="M 153.506687 153.28219 
L 153.506687 147.986255 
" clip-path="url(#p14aace2ead)" style="fill: none; stroke: #1f77b4; stroke-width: 1.5"/>
    <path d="M 155.167314 146.735766 
L 155.167314 142.08942 
" clip-path="url(#p14aace2ead)" style="fill: none; stroke: #1f77b4; stroke-width: 1.5"/>
    <path d="M 156.827941 146.216333 
L 156.827941 141.515719 
" clip-path="url(#p14aace2ead)" style="fill: none; stroke: #1f77b4; stroke-width: 1.5"/>
    <path d="M 158.488568 147.266687 
L 158.488568 142.428299 
" clip-path="url(#p14aace2ead)" style="fill: none; stroke: #1f77b4; stroke-width: 1.5"/>
    <path d="M 160.149195 144.567406 
L 160.149195 140.000658 
" clip-path="url(#p14aace2ead)" style="fill: none; stroke: #1f77b4; stroke-width: 1.5"/>
    <path d="M 161.809822 142.111116 
L 161.809822 137.73542 
" clip-path="url(#p14aace2ead)" style="fill: none; stroke: #1f77b4; stroke-width: 1.5"/>
    <path d="M 163.470449 140.329911 
L 163.470449 136.06989 
" clip-path="url(#p14aace2ead)" style="fill: none; stroke: #1f77b4; stroke-width: 1.5"/>
    <path d="M 165.131076 141.23595 
L 165.131076 136.991097 
" clip-path="url(#p14aace2ead)" style="fill: none; stroke: #1f77b4; stroke-width: 1.5"/>
    <path d="M 166.791703 139.48744 
L 166.791703 135.288588 
" clip-path="url(#p14aace2ead)" style="fill: none; stroke: #1f77b4; stroke-width: 1.5"/>
    <path d="M 168.45233 139.752412 
L 168.45233 135.672416 
" clip-path="url(#p14aace2ead)" style="fill: none; stroke: #1f77b4; stroke-width: 1.5"/>
    <path d="M 170.112957 140.664422 
L 170.112957 136.313663 
" clip-path="url(#p14aace2ead)" style="fill: none; stroke: #1f77b4; stroke-width: 1.5"/>
    <path d="M 171.773585 138.172507 
L 171.773585 134.084428 
" clip-path="url(#p14aace2ead)" style="fill: none; stroke: #1f77b4; stroke-width: 1.5"/>
    <path d="M 173.434212 143.522329 
L 173.434212 138.983949 
" clip-path="url(#p14aace2ead)" style="fill: none; stroke: #1f77b4; stroke-width: 1.5"/>
    <path d="M 175.094839 143.954417 
L 175.094839 139.323519 
" clip-path="url(#p14aace2ead)" style="fill: none; stroke: #1f77b4; stroke-width: 1.5"/>
    <path d="M 176.755466 145.394119 
L 176.755466 140.78612 
" clip-path="url(#p14aace2ead)" style="fill: none; stroke: #1f77b4; stroke-width: 1.5"/>
    <path d="M 178.416093 147.120665 
L 178.416093 142.328587 
" clip-path="url(#p14aace2ead)" style="fill: none; stroke: #1f77b4; stroke-width: 1.5"/>
    <path d="M 180.07672 145.088926 
L 180.07672 140.52711 
" clip-path="url(#p14aace2ead)" style="fill: none; stroke: #1f77b4; stroke-width: 1.5"/>
    <path d="M 181.737347 146.627733 
L 181.737347 141.858273 
" clip-path="url(#p14aace2ead)" style="fill: none; stroke: #1f77b4; stroke-width: 1.5"/>
    <path d="M 183.397974 149.799494 
L 183.397974 144.765433 
" clip-path="url(#p14aace2ead)" style="fill: none; stroke: #1f77b4; stroke-width: 1.5"/>
    <path d="M 185.058601 154.937559 
L 185.058601 149.493308 
" clip-path="url(#p14aace2ead)" style="fill: none; stroke: #1f77b4; stroke-width: 1.5"/>
    <path d="M 186.719228 156.733678 
L 186.719228 151.111019 
" clip-path="url(#p14aace2ead)" style="fill: none; stroke: #1f77b4; stroke-width: 1.5"/>
    <path d="M 188.379855 153.615257 
L 188.379855 148.161272 
" clip-path="url(#p14aace2ead)" style="fill: none; stroke: #1f77b4; stroke-width: 1.5"/>
    <path d="M 190.040482 156.849675 
L 190.040482 151.068849 
" clip-path="url(#p14aace2ead)" style="fill: none; stroke: #1f77b4; stroke-width: 1.5"/>
    <path d="M 191.701109 159.485575 
L 191.701109 153.480235 
" clip-path="url(#p14aace2ead)" style="fill: none; stroke: #1f77b4; stroke-width: 1.5"/>
    <path d="M 193.361736 167.459407 
L 193.361736 160.571379 
" clip-path="url(#p14aace2ead)" style="fill: none; stroke: #1f77b4; stroke-width: 1.5"/>
    <path d="M 195.022363 166.256755 
L 195.022363 159.286358 
" clip-path="url(#p14aace2ead)" style="fill: none; stroke: #1f77b4; stroke-width: 1.5"/>
    <path d="M 196.68299 166.003858 
L 196.68299 159.496886 
" clip-path="url(#p14aace2ead)" style="fill: none; stroke: #1f77b4; stroke-width: 1.5"/>
    <path d="M 198.343617 170.826194 
L 198.343617 163.560464 
" clip-path="url(#p14aace2ead)" style="fill: none; stroke: #1f77b4; stroke-width: 1.5"/>
    <path d="M 200.004244 167.997622 
L 200.004244 161.007208 
" clip-path="url(#p14aace2ead)" style="fill: none; stroke: #1f77b4; stroke-width: 1.5"/>
    <path d="M 201.664871 169.751067 
L 201.664871 162.640328 
" clip-path="url(#p14aace2ead)" style="fill: none; stroke: #1f77b4; stroke-width: 1.5"/>
    <path d="M 203.325498 166.970125 
L 203.325498 159.972153 
" clip-path="url(#p14aace2ead)" style="fill: none; stroke: #1f77b4; stroke-width: 1.5"/>
    <path d="M 204.986125 169.489096 
L 204.986125 162.103934 
" clip-path="url(#p14aace2ead)" style="fill: none; stroke: #1f77b4; stroke-width: 1.5"/>
    <path d="M 206.646752 172.498795 
L 206.646752 164.994869 
" clip-path="url(#p14aace2ead)" style="fill: none; stroke: #1f77b4; stroke-width: 1.5"/>
    <path d="M 208.307379 170.825965 
L 208.307379 163.411466 
" clip-path="url(#p14aace2ead)" style="fill: none; stroke: #1f77b4; stroke-width: 1.5"/>
    <path d="M 209.968006 164.074071 
L 209.968006 157.446509 
" clip-path="url(#p14aace2ead)" style="fill: none; stroke: #1f77b4; stroke-width: 1.5"/>
    <path d="M 211.628633 166.482921 
L 211.628633 159.591405 
" clip-path="url(#p14aace2ead)" style="fill: none; stroke: #1f77b4; stroke-width: 1.5"/>
    <path d="M 213.28926 167.011892 
L 213.28926 159.948448 
" clip-path="url(#p14aace2ead)" style="fill: none; stroke: #1f77b4; stroke-width: 1.5"/>
    <path d="M 214.949887 172.126602 
L 214.949887 164.508206 
" clip-path="url(#p14aace2ead)" style="fill: none; stroke: #1f77b4; stroke-width: 1.5"/>
    <path d="M 216.610514 162.327204 
L 216.610514 155.819303 
" clip-path="url(#p14aace2ead)" style="fill: none; stroke: #1f77b4; stroke-width: 1.5"/>
    <path d="M 218.271141 168.550574 
L 218.271141 161.467934 
" clip-path="url(#p14aace2ead)" style="fill: none; stroke: #1f77b4; stroke-width: 1.5"/>
    <path d="M 219.931768 163.635597 
L 219.931768 157.218357 
" clip-path="url(#p14aace2ead)" style="fill: none; stroke: #1f77b4; stroke-width: 1.5"/>
    <path d="M 221.592395 161.32736 
L 221.592395 154.983817 
" clip-path="url(#p14aace2ead)" style="fill: none; stroke: #1f77b4; stroke-width: 1.5"/>
    <path d="M 223.253022 159.74872 
L 223.253022 153.575549 
" clip-path="url(#p14aace2ead)" style="fill: none; stroke: #1f77b4; stroke-width: 1.5"/>
    <path d="M 224.913649 165.07307 
L 224.913649 158.533639 
" clip-path="url(#p14aace2ead)" style="fill: none; stroke: #1f77b4; stroke-width: 1.5"/>
    <path d="M 226.574276 165.145157 
L 226.574276 158.474269 
" clip-path="url(#p14aace2ead)" style="fill: none; stroke: #1f77b4; stroke-width: 1.5"/>
    <path d="M 228.234903 159.903595 
L 228.234903 153.725162 
" clip-path="url(#p14aace2ead)" style="fill: none; stroke: #1f77b4; stroke-width: 1.5"/>
    <path d="M 229.89553 159.745323 
L 229.89553 153.763522 
" clip-path="url(#p14aace2ead)" style="fill: none; stroke: #1f77b4; stroke-width: 1.5"/>
    <path d="M 231.556158 160.805347 
L 231.556158 154.574131 
" clip-path="url(#p14aace2ead)" style="fill: none; stroke: #1f77b4; stroke-width: 1.5"/>
    <path d="M 233.216785 160.386662 
L 233.216785 154.427446 
" clip-path="url(#p14aace2ead)" style="fill: none; stroke: #1f77b4; stroke-width: 1.5"/>
    <path d="M 234.877412 162.345184 
L 234.877412 155.896261 
" clip-path="url(#p14aace2ead)" style="fill: none; stroke: #1f77b4; stroke-width: 1.5"/>
    <path d="M 236.538039 167.413132 
L 236.538039 160.576377 
" clip-path="url(#p14aace2ead)" style="fill: none; stroke: #1f77b4; stroke-width: 1.5"/>
    <path d="M 238.198666 164.134905 
L 238.198666 157.580733 
" clip-path="url(#p14aace2ead)" style="fill: none; stroke: #1f77b4; stroke-width: 1.5"/>
    <path d="M 239.859293 167.064216 
L 239.859293 160.158778 
" clip-path="url(#p14aace2ead)" style="fill: none; stroke: #1f77b4; stroke-width: 1.5"/>
    <path d="M 241.51992 164.659387 
L 241.51992 157.935082 
" clip-path="url(#p14aace2ead)" style="fill: none; stroke: #1f77b4; stroke-width: 1.5"/>
    <path d="M 243.180547 161.627469 
L 243.180547 155.329727 
" clip-path="url(#p14aace2ead)" style="fill: none; stroke: #1f77b4; stroke-width: 1.5"/>
    <path d="M 244.841174 162.302432 
L 244.841174 156.028668 
" clip-path="url(#p14aace2ead)" style="fill: none; stroke: #1f77b4; stroke-width: 1.5"/>
    <path d="M 246.501801 166.203195 
L 246.501801 159.478426 
" clip-path="url(#p14aace2ead)" style="fill: none; stroke: #1f77b4; stroke-width: 1.5"/>
    <path d="M 248.162428 167.160852 
L 248.162428 160.163205 
" clip-path="url(#p14aace2ead)" style="fill: none; stroke: #1f77b4; stroke-width: 1.5"/>
    <path d="M 249.823055 165.660125 
L 249.823055 158.86337 
" clip-path="url(#p14aace2ead)" style="fill: none; stroke: #1f77b4; stroke-width: 1.5"/>
    <path d="M 251.483682 169.907889 
L 251.483682 162.697351 
" clip-path="url(#p14aace2ead)" style="fill: none; stroke: #1f77b4; stroke-width: 1.5"/>
    <path d="M 253.144309 169.64087 
L 253.144309 162.466232 
" clip-path="url(#p14aace2ead)" style="fill: none; stroke: #1f77b4; stroke-width: 1.5"/>
    <path d="M 254.804936 170.466154 
L 254.804936 163.177628 
" clip-path="url(#p14aace2ead)" style="fill: none; stroke: #1f77b4; stroke-width: 1.5"/>
    <path d="M 256.465563 169.139316 
L 256.465563 161.93901 
" clip-path="url(#p14aace2ead)" style="fill: none; stroke: #1f77b4; stroke-width: 1.5"/>
    <path d="M 258.12619 171.329111 
L 258.12619 163.856595 
" clip-path="url(#p14aace2ead)" style="fill: none; stroke: #1f77b4; stroke-width: 1.5"/>
    <path d="M 259.786817 170.322834 
L 259.786817 163.023717 
" clip-path="url(#p14aace2ead)" style="fill: none; stroke: #1f77b4; stroke-width: 1.5"/>
    <path d="M 261.447444 170.174932 
L 261.447444 162.870016 
" clip-path="url(#p14aace2ead)" style="fill: none; stroke: #1f77b4; stroke-width: 1.5"/>
    <path d="M 263.108071 168.288193 
L 263.108071 161.1442 
" clip-path="url(#p14aace2ead)" style="fill: none; stroke: #1f77b4; stroke-width: 1.5"/>
    <path d="M 264.768698 169.293727 
L 264.768698 162.057433 
" clip-path="url(#p14aace2ead)" style="fill: none; stroke: #1f77b4; stroke-width: 1.5"/>
    <path d="M 266.429325 168.267307 
L 266.429325 161.092638 
" clip-path="url(#p14aace2ead)" style="fill: none; stroke: #1f77b4; stroke-width: 1.5"/>
    <path d="M 268.089952 169.225883 
L 268.089952 161.996943 
" clip-path="url(#p14aace2ead)" style="fill: none; stroke: #1f77b4; stroke-width: 1.5"/>
    <path d="M 269.750579 162.72623 
L 269.750579 156.24876 
" clip-path="url(#p14aace2ead)" style="fill: none; stroke: #1f77b4; stroke-width: 1.5"/>
    <path d="M 271.411206 169.858264 
L 271.411206 162.487101 
" clip-path="url(#p14aace2ead)" style="fill: none; stroke: #1f77b4; stroke-width: 1.5"/>
    <path d="M 273.071833 168.997926 
L 273.071833 161.81461 
" clip-path="url(#p14aace2ead)" style="fill: none; stroke: #1f77b4; stroke-width: 1.5"/>
    <path d="M 274.73246 168.393185 
L 274.73246 161.393202 
" clip-path="url(#p14aace2ead)" style="fill: none; stroke: #1f77b4; stroke-width: 1.5"/>
    <path d="M 276.393087 164.442509 
L 276.393087 157.66051 
" clip-path="url(#p14aace2ead)" style="fill: none; stroke: #1f77b4; stroke-width: 1.5"/>
    <path d="M 278.053714 170.429203 
L 278.053714 163.165542 
" clip-path="url(#p14aace2ead)" style="fill: none; stroke: #1f77b4; stroke-width: 1.5"/>
    <path d="M 279.714341 162.482185 
L 279.714341 156.067503 
" clip-path="url(#p14aace2ead)" style="fill: none; stroke: #1f77b4; stroke-width: 1.5"/>
    <path d="M 281.374968 169.929424 
L 281.374968 162.615908 
" clip-path="url(#p14aace2ead)" style="fill: none; stroke: #1f77b4; stroke-width: 1.5"/>
    <path d="M 283.035595 170.31356 
L 283.035595 162.806688 
" clip-path="url(#p14aace2ead)" style="fill: none; stroke: #1f77b4; stroke-width: 1.5"/>
    <path d="M 284.696222 174.586057 
L 284.696222 166.725959 
" clip-path="url(#p14aace2ead)" style="fill: none; stroke: #1f77b4; stroke-width: 1.5"/>
    <path d="M 286.356849 166.771842 
L 286.356849 159.84837 
" clip-path="url(#p14aace2ead)" style="fill: none; stroke: #1f77b4; stroke-width: 1.5"/>
    <path d="M 288.017476 164.787262 
L 288.017476 158.173371 
" clip-path="url(#p14aace2ead)" style="fill: none; stroke: #1f77b4; stroke-width: 1.5"/>
    <path d="M 289.678103 170.72392 
L 289.678103 163.396746 
" clip-path="url(#p14aace2ead)" style="fill: none; stroke: #1f77b4; stroke-width: 1.5"/>
    <path d="M 291.338731 164.314245 
L 291.338731 157.743324 
" clip-path="url(#p14aace2ead)" style="fill: none; stroke: #1f77b4; stroke-width: 1.5"/>
    <path d="M 292.999358 164.693081 
L 292.999358 158.176041 
" clip-path="url(#p14aace2ead)" style="fill: none; stroke: #1f77b4; stroke-width: 1.5"/>
    <path d="M 294.659985 170.072885 
L 294.659985 162.72171 
" clip-path="url(#p14aace2ead)" style="fill: none; stroke: #1f77b4; stroke-width: 1.5"/>
    <path d="M 296.320612 164.999274 
L 296.320612 158.366393 
" clip-path="url(#p14aace2ead)" style="fill: none; stroke: #1f77b4; stroke-width: 1.5"/>
    <path d="M 297.981239 168.973209 
L 297.981239 161.858684 
" clip-path="url(#p14aace2ead)" style="fill: none; stroke: #1f77b4; stroke-width: 1.5"/>
    <path d="M 299.641866 169.354199 
L 299.641866 162.112875 
" clip-path="url(#p14aace2ead)" style="fill: none; stroke: #1f77b4; stroke-width: 1.5"/>
    <path d="M 301.302493 170.328086 
L 301.302493 162.966526 
" clip-path="url(#p14aace2ead)" style="fill: none; stroke: #1f77b4; stroke-width: 1.5"/>
    <path d="M 302.96312 171.532893 
L 302.96312 164.032962 
" clip-path="url(#p14aace2ead)" style="fill: none; stroke: #1f77b4; stroke-width: 1.5"/>
    <path d="M 304.623747 172.075123 
L 304.623747 164.469762 
" clip-path="url(#p14aace2ead)" style="fill: none; stroke: #1f77b4; stroke-width: 1.5"/>
    <path d="M 306.284374 169.362395 
L 306.284374 161.997013 
" clip-path="url(#p14aace2ead)" style="fill: none; stroke: #1f77b4; stroke-width: 1.5"/>
    <path d="M 307.945001 164.258565 
L 307.945001 157.455343 
" clip-path="url(#p14aace2ead)" style="fill: none; stroke: #1f77b4; stroke-width: 1.5"/>
    <path d="M 309.605628 170.706249 
L 309.605628 163.360551 
" clip-path="url(#p14aace2ead)" style="fill: none; stroke: #1f77b4; stroke-width: 1.5"/>
    <path d="M 311.266255 166.351669 
L 311.266255 159.515189 
" clip-path="url(#p14aace2ead)" style="fill: none; stroke: #1f77b4; stroke-width: 1.5"/>
    <path d="M 312.926882 170.551218 
L 312.926882 163.101676 
" clip-path="url(#p14aace2ead)" style="fill: none; stroke: #1f77b4; stroke-width: 1.5"/>
    <path d="M 314.587509 171.627557 
L 314.587509 163.981687 
" clip-path="url(#p14aace2ead)" style="fill: none; stroke: #1f77b4; stroke-width: 1.5"/>
    <path d="M 316.248136 169.355222 
L 316.248136 162.013387 
" clip-path="url(#p14aace2ead)" style="fill: none; stroke: #1f77b4; stroke-width: 1.5"/>
    <path d="M 317.908763 164.59923 
L 317.908763 157.624819 
" clip-path="url(#p14aace2ead)" style="fill: none; stroke: #1f77b4; stroke-width: 1.5"/>
    <path d="M 319.56939 174.129018 
L 319.56939 165.884232 
" clip-path="url(#p14aace2ead)" style="fill: none; stroke: #1f77b4; stroke-width: 1.5"/>
    <path d="M 321.230017 170.828265 
L 321.230017 163.111233 
" clip-path="url(#p14aace2ead)" style="fill: none; stroke: #1f77b4; stroke-width: 1.5"/>
    <path d="M 322.890644 163.382365 
L 322.890644 156.345106 
" clip-path="url(#p14aace2ead)" style="fill: none; stroke: #1f77b4; stroke-width: 1.5"/>
    <path d="M 324.551271 164.834362 
L 324.551271 157.436811 
" clip-path="url(#p14aace2ead)" style="fill: none; stroke: #1f77b4; stroke-width: 1.5"/>
    <path d="M 326.211898 172.145087 
L 326.211898 163.873547 
" clip-path="url(#p14aace2ead)" style="fill: none; stroke: #1f77b4; stroke-width: 1.5"/>
    <path d="M 327.872525 168.66404 
L 327.872525 160.623677 
" clip-path="url(#p14aace2ead)" style="fill: none; stroke: #1f77b4; stroke-width: 1.5"/>
    <path d="M 329.533152 170.200522 
L 329.533152 161.920278 
" clip-path="url(#p14aace2ead)" style="fill: none; stroke: #1f77b4; stroke-width: 1.5"/>
    <path d="M 331.193779 164.537825 
L 331.193779 157.044075 
" clip-path="url(#p14aace2ead)" style="fill: none; stroke: #1f77b4; stroke-width: 1.5"/>
    <path d="M 332.854406 175.513617 
L 332.854406 166.243541 
" clip-path="url(#p14aace2ead)" style="fill: none; stroke: #1f77b4; stroke-width: 1.5"/>
    <path d="M 334.515033 170.256173 
L 334.515033 161.573801 
" clip-path="url(#p14aace2ead)" style="fill: none; stroke: #1f77b4; stroke-width: 1.5"/>
    <path d="M 336.17566 177.86142 
L 336.17566 167.849865 
" clip-path="url(#p14aace2ead)" style="fill: none; stroke: #1f77b4; stroke-width: 1.5"/>
    <path d="M 337.836287 163.015674 
L 337.836287 155.126359 
" clip-path="url(#p14aace2ead)" style="fill: none; stroke: #1f77b4; stroke-width: 1.5"/>
    <path d="M 339.496914 176.362565 
L 339.496914 166.536083 
" clip-path="url(#p14aace2ead)" style="fill: none; stroke: #1f77b4; stroke-width: 1.5"/>
    <path d="M 341.157541 162.163379 
L 341.157541 154.25167 
" clip-path="url(#p14aace2ead)" style="fill: none; stroke: #1f77b4; stroke-width: 1.5"/>
    <path d="M 342.818168 167.883552 
L 342.818168 158.951102 
" clip-path="url(#p14aace2ead)" style="fill: none; stroke: #1f77b4; stroke-width: 1.5"/>
    <path d="M 344.478795 167.256681 
L 344.478795 158.221425 
" clip-path="url(#p14aace2ead)" style="fill: none; stroke: #1f77b4; stroke-width: 1.5"/>
    <path d="M 346.139422 164.805226 
L 346.139422 155.98194 
" clip-path="url(#p14aace2ead)" style="fill: none; stroke: #1f77b4; stroke-width: 1.5"/>
    <path d="M 347.800049 165.800387 
L 347.800049 156.482812 
" clip-path="url(#p14aace2ead)" style="fill: none; stroke: #1f77b4; stroke-width: 1.5"/>
    <path d="M 349.460676 163.381273 
L 349.460676 154.35275 
" clip-path="url(#p14aace2ead)" style="fill: none; stroke: #1f77b4; stroke-width: 1.5"/>
    <path d="M 351.121303 173.833128 
L 351.121303 162.613887 
" clip-path="url(#p14aace2ead)" style="fill: none; stroke: #1f77b4; stroke-width: 1.5"/>
    <path d="M 352.781931 178.716444 
L 352.781931 166.029364 
" clip-path="url(#p14aace2ead)" style="fill: none; stroke: #1f77b4; stroke-width: 1.5"/>
    <path d="M 354.442558 173.737236 
L 354.442558 162.322436 
" clip-path="url(#p14aace2ead)" style="fill: none; stroke: #1f77b4; stroke-width: 1.5"/>
    <path d="M 356.103185 178.233739 
L 356.103185 165.115575 
" clip-path="url(#p14aace2ead)" style="fill: none; stroke: #1f77b4; stroke-width: 1.5"/>
    <path d="M 357.763812 167.91301 
L 357.763812 156.905269 
" clip-path="url(#p14aace2ead)" style="fill: none; stroke: #1f77b4; stroke-width: 1.5"/>
    <path d="M 359.424439 170.089229 
L 359.424439 158.300833 
" clip-path="url(#p14aace2ead)" style="fill: none; stroke: #1f77b4; stroke-width: 1.5"/>
    <path d="M 361.085066 169.041654 
L 361.085066 157.123881 
" clip-path="url(#p14aace2ead)" style="fill: none; stroke: #1f77b4; stroke-width: 1.5"/>
    <path d="M 362.745693 164.760699 
L 362.745693 153.592384 
" clip-path="url(#p14aace2ead)" style="fill: none; stroke: #1f77b4; stroke-width: 1.5"/>
    <path d="M 364.40632 168.79876 
L 364.40632 155.989856 
" clip-path="url(#p14aace2ead)" style="fill: none; stroke: #1f77b4; stroke-width: 1.5"/>
    <path d="M 366.066947 182.885637 
L 366.066947 165.522675 
" clip-path="url(#p14aace2ead)" style="fill: none; stroke: #1f77b4; stroke-width: 1.5"/>
    <path d="M 367.727574 170.597798 
L 367.727574 156.203545 
" clip-path="url(#p14aace2ead)" style="fill: none; stroke: #1f77b4; stroke-width: 1.5"/>
    <path d="M 369.388201 185.34342 
L 369.388201 166.010892 
" clip-path="url(#p14aace2ead)" style="fill: none; stroke: #1f77b4; stroke-width: 1.5"/>
    <path d="M 371.048828 178.650051 
L 371.048828 160.649816 
" clip-path="url(#p14aace2ead)" style="fill: none; stroke: #1f77b4; stroke-width: 1.5"/>
    <path d="M 372.709455 178.670153 
L 372.709455 159.652151 
" clip-path="url(#p14aace2ead)" style="fill: none; stroke: #1f77b4; stroke-width: 1.5"/>
    <path d="M 374.370082 169.292524 
L 374.370082 151.448556 
" clip-path="url(#p14aace2ead)" style="fill: none; stroke: #1f77b4; stroke-width: 1.5"/>
    <path d="M 376.030709 201.43453 
L 376.030709 167.900252 
" clip-path="url(#p14aace2ead)" style="fill: none; stroke: #1f77b4; stroke-width: 1.5"/>
    <path d="M 377.691336 186.079433 
L 377.691336 158.035678 
" clip-path="url(#p14aace2ead)" style="fill: none; stroke: #1f77b4; stroke-width: 1.5"/>
    <path d="M 379.351963 176.563972 
L 379.351963 147.787248 
" clip-path="url(#p14aace2ead)" style="fill: none; stroke: #1f77b4; stroke-width: 1.5"/>
    <path d="M 381.01259 279.315406 
L 381.01259 169.242373 
" clip-path="url(#p14aace2ead)" style="fill: none; stroke: #1f77b4; stroke-width: 1.5"/>
    <path d="M 382.673217 279.315406 
L 382.673217 157.734107 
" clip-path="url(#p14aace2ead)" style="fill: none; stroke: #1f77b4; stroke-width: 1.5"/>
    <path d="M 384.333844 279.315406 
L 384.333844 143.675125 
" clip-path="url(#p14aace2ead)" style="fill: none; stroke: #1f77b4; stroke-width: 1.5"/>
    <path d="M 385.994471 279.315406 
L 385.994471 64.122971 
" clip-path="url(#p14aace2ead)" style="fill: none; stroke: #1f77b4; stroke-width: 1.5"/>
    <path d="M 387.655098 279.315406 
L 387.655098 70.695217 
" clip-path="url(#p14aace2ead)" style="fill: none; stroke: #1f77b4; stroke-width: 1.5"/>
    <path d="M 389.315725 279.315406 
L 389.315725 44.773506 
" clip-path="url(#p14aace2ead)" style="fill: none; stroke: #1f77b4; stroke-width: 1.5"/>
    <path d="M 390.976352 279.315406 
L 390.976352 33.745137 
" clip-path="url(#p14aace2ead)" style="fill: none; stroke: #1f77b4; stroke-width: 1.5"/>
    <path d="M 392.636979 279.315406 
L 392.636979 47.899703 
" clip-path="url(#p14aace2ead)" style="fill: none; stroke: #1f77b4; stroke-width: 1.5"/>
    <path d="M 394.297606 279.315406 
L 394.297606 63.030531 
" clip-path="url(#p14aace2ead)" style="fill: none; stroke: #1f77b4; stroke-width: 1.5"/>
    <path d="M 395.958233 279.315406 
L 395.958233 23.14494 
" clip-path="url(#p14aace2ead)" style="fill: none; stroke: #1f77b4; stroke-width: 1.5"/>
    <path d="M 397.61886 279.315406 
L 397.61886 80.775897 
" clip-path="url(#p14aace2ead)" style="fill: none; stroke: #1f77b4; stroke-width: 1.5"/>
    <path d="M 399.279487 279.315406 
L 399.279487 31.620748 
" clip-path="url(#p14aace2ead)" style="fill: none; stroke: #1f77b4; stroke-width: 1.5"/>
   </g>
  </g>
 </g>
 <defs>
  <clipPath id="p14aace2ead">
   <rect x="51.378125" y="10.999219" width="365.337946" height="228.8365"/>
  </clipPath>
 </defs>
</svg>