<?xml version="1.0" encoding="utf-8" standalone="no"?>
<!DOCTYPE svg PUBLIC "-//W3C//DTD SVG 1.1//EN"
  "http://www.w3.org/Graphics/SVG/1.1/DTD/svg11.dtd">
<svg xmlns:xlink="http://www.w3.org/1999/xlink" width="424.26217pt" height="280.173125pt" viewBox="0 0 424.26217 280.173125" xmlns="http://www.w3.org/2000/svg" version="1.1">
 <metadata>
  <rdf:RDF xmlns:dc="http://purl.org/dc/elements/1.1/" xmlns:cc="http://creativecommons.org/ns#" xmlns:rdf="http://www.w3.org/1999/02/22-rdf-syntax-ns#">
   <cc:Work>
    <dc:type rdf:resource="http://purl.org/dc/dcmitype/StillImage"/>
    <dc:date>2024-09-10T09:04:14.778049</dc:date>
    <dc:format>image/svg+xml</dc:format>
    <dc:creator>
     <cc:Agent>
      <dc:title>Matplotlib v3.9.2, https://matplotlib.org/</dc:title>
     </cc:Agent>
    </dc:creator>
   </cc:Work>
  </rdf:RDF>
 </metadata>
 <defs>
  <style type="text/css">*{stroke-linejoin: round; stroke-linecap: butt}</style>
 </defs>
 <g id="figure_1">
  <g id="patch_1">
   <path d="M 0 280.173125 
L 424.26217 280.173125 
L 424.26217 0 
L 0 0 
z
" style="fill: #ffffff"/>
  </g>
  <g id="axes_1">
   <g id="patch_2">
    <path d="M 53.328125 242.33875 
L 411.440541 242.33875 
L 411.440541 7.2 
L 53.328125 7.2 
z
" style="fill: #ffffff"/>
   </g>
   <g id="matplotlib.axis_1">
    <g id="xtick_1">
     <g id="line2d_1">
      <defs>
       <path id="m9f6cbead2a" d="M 0 0 
L 0 3.5 
" style="stroke: #000000; stroke-width: 0.8"/>
      </defs>
      <g>
       <use xlink:href="#m9f6cbead2a" x="59.582364" y="242.33875" style="stroke: #000000; stroke-width: 0.8"/>
      </g>
     </g>
     <g id="text_1">
      <!-- −0.08 -->
      <g transform="translate(44.259708 256.937188) scale(0.1 -0.1)">
       <defs>
        <path id="DejaVuSans-2212" d="M 678 2272 
L 4684 2272 
L 4684 1741 
L 678 1741 
L 678 2272 
z
" transform="scale(0.015625)"/>
        <path id="DejaVuSans-30" d="M 2034 4250 
Q 1547 4250 1301 3770 
Q 1056 3291 1056 2328 
Q 1056 1369 1301 889 
Q 1547 409 2034 409 
Q 2525 409 2770 889 
Q 3016 1369 3016 2328 
Q 3016 3291 2770 3770 
Q 2525 4250 2034 4250 
z
M 2034 4750 
Q 2819 4750 3233 4129 
Q 3647 3509 3647 2328 
Q 3647 1150 3233 529 
Q 2819 -91 2034 -91 
Q 1250 -91 836 529 
Q 422 1150 422 2328 
Q 422 3509 836 4129 
Q 1250 4750 2034 4750 
z
" transform="scale(0.015625)"/>
        <path id="DejaVuSans-2e" d="M 684 794 
L 1344 794 
L 1344 0 
L 684 0 
L 684 794 
z
" transform="scale(0.015625)"/>
        <path id="DejaVuSans-38" d="M 2034 2216 
Q 1584 2216 1326 1975 
Q 1069 1734 1069 1313 
Q 1069 891 1326 650 
Q 1584 409 2034 409 
Q 2484 409 2743 651 
Q 3003 894 3003 1313 
Q 3003 1734 2745 1975 
Q 2488 2216 2034 2216 
z
M 1403 2484 
Q 997 2584 770 2862 
Q 544 3141 544 3541 
Q 544 4100 942 4425 
Q 1341 4750 2034 4750 
Q 2731 4750 3128 4425 
Q 3525 4100 3525 3541 
Q 3525 3141 3298 2862 
Q 3072 2584 2669 2484 
Q 3125 2378 3379 2068 
Q 3634 1759 3634 1313 
Q 3634 634 3220 271 
Q 2806 -91 2034 -91 
Q 1263 -91 848 271 
Q 434 634 434 1313 
Q 434 1759 690 2068 
Q 947 2378 1403 2484 
z
M 1172 3481 
Q 1172 3119 1398 2916 
Q 1625 2713 2034 2713 
Q 2441 2713 2670 2916 
Q 2900 3119 2900 3481 
Q 2900 3844 2670 4047 
Q 2441 4250 2034 4250 
Q 1625 4250 1398 4047 
Q 1172 3844 1172 3481 
z
" transform="scale(0.015625)"/>
       </defs>
       <use xlink:href="#DejaVuSans-2212"/>
       <use xlink:href="#DejaVuSans-30" x="83.789062"/>
       <use xlink:href="#DejaVuSans-2e" x="147.412109"/>
       <use xlink:href="#DejaVuSans-30" x="179.199219"/>
       <use xlink:href="#DejaVuSans-38" x="242.822266"/>
      </g>
     </g>
    </g>
    <g id="xtick_2">
     <g id="line2d_2">
      <g>
       <use xlink:href="#m9f6cbead2a" x="102.875738" y="242.33875" style="stroke: #000000; stroke-width: 0.8"/>
      </g>
     </g>
     <g id="text_2">
      <!-- −0.06 -->
      <g transform="translate(87.553082 256.937188) scale(0.1 -0.1)">
       <defs>
        <path id="DejaVuSans-36" d="M 2113 2584 
Q 1688 2584 1439 2293 
Q 1191 2003 1191 1497 
Q 1191 994 1439 701 
Q 1688 409 2113 409 
Q 2538 409 2786 701 
Q 3034 994 3034 1497 
Q 3034 2003 2786 2293 
Q 2538 2584 2113 2584 
z
M 3366 4563 
L 3366 3988 
Q 3128 4100 2886 4159 
Q 2644 4219 2406 4219 
Q 1781 4219 1451 3797 
Q 1122 3375 1075 2522 
Q 1259 2794 1537 2939 
Q 1816 3084 2150 3084 
Q 2853 3084 3261 2657 
Q 3669 2231 3669 1497 
Q 3669 778 3244 343 
Q 2819 -91 2113 -91 
Q 1303 -91 875 529 
Q 447 1150 447 2328 
Q 447 3434 972 4092 
Q 1497 4750 2381 4750 
Q 2619 4750 2861 4703 
Q 3103 4656 3366 4563 
z
" transform="scale(0.015625)"/>
       </defs>
       <use xlink:href="#DejaVuSans-2212"/>
       <use xlink:href="#DejaVuSans-30" x="83.789062"/>
       <use xlink:href="#DejaVuSans-2e" x="147.412109"/>
       <use xlink:href="#DejaVuSans-30" x="179.199219"/>
       <use xlink:href="#DejaVuSans-36" x="242.822266"/>
      </g>
     </g>
    </g>
    <g id="xtick_3">
     <g id="line2d_3">
      <g>
       <use xlink:href="#m9f6cbead2a" x="146.169112" y="242.33875" style="stroke: #000000; stroke-width: 0.8"/>
      </g>
     </g>
     <g id="text_3">
      <!-- −0.04 -->
      <g transform="translate(130.846456 256.937188) scale(0.1 -0.1)">
       <defs>
        <path id="DejaVuSans-34" d="M 2419 4116 
L 825 1625 
L 2419 1625 
L 2419 4116 
z
M 2253 4666 
L 3047 4666 
L 3047 1625 
L 3713 1625 
L 3713 1100 
L 3047 1100 
L 3047 0 
L 2419 0 
L 2419 1100 
L 313 1100 
L 313 1709 
L 2253 4666 
z
" transform="scale(0.015625)"/>
       </defs>
       <use xlink:href="#DejaVuSans-2212"/>
       <use xlink:href="#DejaVuSans-30" x="83.789062"/>
       <use xlink:href="#DejaVuSans-2e" x="147.412109"/>
       <use xlink:href="#DejaVuSans-30" x="179.199219"/>
       <use xlink:href="#DejaVuSans-34" x="242.822266"/>
      </g>
     </g>
    </g>
    <g id="xtick_4">
     <g id="line2d_4">
      <g>
       <use xlink:href="#m9f6cbead2a" x="189.462487" y="242.33875" style="stroke: #000000; stroke-width: 0.8"/>
      </g>
     </g>
     <g id="text_4">
      <!-- −0.02 -->
      <g transform="translate(174.13983 256.937188) scale(0.1 -0.1)">
       <defs>
        <path id="DejaVuSans-32" d="M 1228 531 
L 3431 531 
L 3431 0 
L 469 0 
L 469 531 
Q 828 903 1448 1529 
Q 2069 2156 2228 2338 
Q 2531 2678 2651 2914 
Q 2772 3150 2772 3378 
Q 2772 3750 2511 3984 
Q 2250 4219 1831 4219 
Q 1534 4219 1204 4116 
Q 875 4013 500 3803 
L 500 4441 
Q 881 4594 1212 4672 
Q 1544 4750 1819 4750 
Q 2544 4750 2975 4387 
Q 3406 4025 3406 3419 
Q 3406 3131 3298 2873 
Q 3191 2616 2906 2266 
Q 2828 2175 2409 1742 
Q 1991 1309 1228 531 
z
" transform="scale(0.015625)"/>
       </defs>
       <use xlink:href="#DejaVuSans-2212"/>
       <use xlink:href="#DejaVuSans-30" x="83.789062"/>
       <use xlink:href="#DejaVuSans-2e" x="147.412109"/>
       <use xlink:href="#DejaVuSans-30" x="179.199219"/>
       <use xlink:href="#DejaVuSans-32" x="242.822266"/>
      </g>
     </g>
    </g>
    <g id="xtick_5">
     <g id="line2d_5">
      <g>
       <use xlink:href="#m9f6cbead2a" x="232.755861" y="242.33875" style="stroke: #000000; stroke-width: 0.8"/>
      </g>
     </g>
     <g id="text_5">
      <!-- 0.00 -->
      <g transform="translate(221.623048 256.937188) scale(0.1 -0.1)">
       <use xlink:href="#DejaVuSans-30"/>
       <use xlink:href="#DejaVuSans-2e" x="63.623047"/>
       <use xlink:href="#DejaVuSans-30" x="95.410156"/>
       <use xlink:href="#DejaVuSans-30" x="159.033203"/>
      </g>
     </g>
    </g>
    <g id="xtick_6">
     <g id="line2d_6">
      <g>
       <use xlink:href="#m9f6cbead2a" x="276.049235" y="242.33875" style="stroke: #000000; stroke-width: 0.8"/>
      </g>
     </g>
     <g id="text_6">
      <!-- 0.02 -->
      <g transform="translate(264.916423 256.937188) scale(0.1 -0.1)">
       <use xlink:href="#DejaVuSans-30"/>
       <use xlink:href="#DejaVuSans-2e" x="63.623047"/>
       <use xlink:href="#DejaVuSans-30" x="95.410156"/>
       <use xlink:href="#DejaVuSans-32" x="159.033203"/>
      </g>
     </g>
    </g>
    <g id="xtick_7">
     <g id="line2d_7">
      <g>
       <use xlink:href="#m9f6cbead2a" x="319.342609" y="242.33875" style="stroke: #000000; stroke-width: 0.8"/>
      </g>
     </g>
     <g id="text_7">
      <!-- 0.04 -->
      <g transform="translate(308.209797 256.937188) scale(0.1 -0.1)">
       <use xlink:href="#DejaVuSans-30"/>
       <use xlink:href="#DejaVuSans-2e" x="63.623047"/>
       <use xlink:href="#DejaVuSans-30" x="95.410156"/>
       <use xlink:href="#DejaVuSans-34" x="159.033203"/>
      </g>
     </g>
    </g>
    <g id="xtick_8">
     <g id="line2d_8">
      <g>
       <use xlink:href="#m9f6cbead2a" x="362.635984" y="242.33875" style="stroke: #000000; stroke-width: 0.8"/>
      </g>
     </g>
     <g id="text_8">
      <!-- 0.06 -->
      <g transform="translate(351.503171 256.937188) scale(0.1 -0.1)">
       <use xlink:href="#DejaVuSans-30"/>
       <use xlink:href="#DejaVuSans-2e" x="63.623047"/>
       <use xlink:href="#DejaVuSans-30" x="95.410156"/>
       <use xlink:href="#DejaVuSans-36" x="159.033203"/>
      </g>
     </g>
    </g>
    <g id="xtick_9">
     <g id="line2d_9">
      <g>
       <use xlink:href="#m9f6cbead2a" x="405.929358" y="242.33875" style="stroke: #000000; stroke-width: 0.8"/>
      </g>
     </g>
     <g id="text_9">
      <!-- 0.08 -->
      <g transform="translate(394.796545 256.937188) scale(0.1 -0.1)">
       <use xlink:href="#DejaVuSans-30"/>
       <use xlink:href="#DejaVuSans-2e" x="63.623047"/>
       <use xlink:href="#DejaVuSans-30" x="95.410156"/>
       <use xlink:href="#DejaVuSans-38" x="159.033203"/>
      </g>
     </g>
    </g>
    <g id="text_10">
     <!-- energy_transfer [meV] -->
     <g transform="translate(175.857771 270.615313) scale(0.1 -0.1)">
      <defs>
       <path id="DejaVuSans-65" d="M 3597 1894 
L 3597 1613 
L 953 1613 
Q 991 1019 1311 708 
Q 1631 397 2203 397 
Q 2534 397 2845 478 
Q 3156 559 3463 722 
L 3463 178 
Q 3153 47 2828 -22 
Q 2503 -91 2169 -91 
Q 1331 -91 842 396 
Q 353 884 353 1716 
Q 353 2575 817 3079 
Q 1281 3584 2069 3584 
Q 2775 3584 3186 3129 
Q 3597 2675 3597 1894 
z
M 3022 2063 
Q 3016 2534 2758 2815 
Q 2500 3097 2075 3097 
Q 1594 3097 1305 2825 
Q 1016 2553 972 2059 
L 3022 2063 
z
" transform="scale(0.015625)"/>
       <path id="DejaVuSans-6e" d="M 3513 2113 
L 3513 0 
L 2938 0 
L 2938 2094 
Q 2938 2591 2744 2837 
Q 2550 3084 2163 3084 
Q 1697 3084 1428 2787 
Q 1159 2491 1159 1978 
L 1159 0 
L 581 0 
L 581 3500 
L 1159 3500 
L 1159 2956 
Q 1366 3272 1645 3428 
Q 1925 3584 2291 3584 
Q 2894 3584 3203 3211 
Q 3513 2838 3513 2113 
z
" transform="scale(0.015625)"/>
       <path id="DejaVuSans-72" d="M 2631 2963 
Q 2534 3019 2420 3045 
Q 2306 3072 2169 3072 
Q 1681 3072 1420 2755 
Q 1159 2438 1159 1844 
L 1159 0 
L 581 0 
L 581 3500 
L 1159 3500 
L 1159 2956 
Q 1341 3275 1631 3429 
Q 1922 3584 2338 3584 
Q 2397 3584 2469 3576 
Q 2541 3569 2628 3553 
L 2631 2963 
z
" transform="scale(0.015625)"/>
       <path id="DejaVuSans-67" d="M 2906 1791 
Q 2906 2416 2648 2759 
Q 2391 3103 1925 3103 
Q 1463 3103 1205 2759 
Q 947 2416 947 1791 
Q 947 1169 1205 825 
Q 1463 481 1925 481 
Q 2391 481 2648 825 
Q 2906 1169 2906 1791 
z
M 3481 434 
Q 3481 -459 3084 -895 
Q 2688 -1331 1869 -1331 
Q 1566 -1331 1297 -1286 
Q 1028 -1241 775 -1147 
L 775 -588 
Q 1028 -725 1275 -790 
Q 1522 -856 1778 -856 
Q 2344 -856 2625 -561 
Q 2906 -266 2906 331 
L 2906 616 
Q 2728 306 2450 153 
Q 2172 0 1784 0 
Q 1141 0 747 490 
Q 353 981 353 1791 
Q 353 2603 747 3093 
Q 1141 3584 1784 3584 
Q 2172 3584 2450 3431 
Q 2728 3278 2906 2969 
L 2906 3500 
L 3481 3500 
L 3481 434 
z
" transform="scale(0.015625)"/>
       <path id="DejaVuSans-79" d="M 2059 -325 
Q 1816 -950 1584 -1140 
Q 1353 -1331 966 -1331 
L 506 -1331 
L 506 -850 
L 844 -850 
Q 1081 -850 1212 -737 
Q 1344 -625 1503 -206 
L 1606 56 
L 191 3500 
L 800 3500 
L 1894 763 
L 2988 3500 
L 3597 3500 
L 2059 -325 
z
" transform="scale(0.015625)"/>
       <path id="DejaVuSans-5f" d="M 3263 -1063 
L 3263 -1509 
L -63 -1509 
L -63 -1063 
L 3263 -1063 
z
" transform="scale(0.015625)"/>
       <path id="DejaVuSans-74" d="M 1172 4494 
L 1172 3500 
L 2356 3500 
L 2356 3053 
L 1172 3053 
L 1172 1153 
Q 1172 725 1289 603 
Q 1406 481 1766 481 
L 2356 481 
L 2356 0 
L 1766 0 
Q 1100 0 847 248 
Q 594 497 594 1153 
L 594 3053 
L 172 3053 
L 172 3500 
L 594 3500 
L 594 4494 
L 1172 4494 
z
" transform="scale(0.015625)"/>
       <path id="DejaVuSans-61" d="M 2194 1759 
Q 1497 1759 1228 1600 
Q 959 1441 959 1056 
Q 959 750 1161 570 
Q 1363 391 1709 391 
Q 2188 391 2477 730 
Q 2766 1069 2766 1631 
L 2766 1759 
L 2194 1759 
z
M 3341 1997 
L 3341 0 
L 2766 0 
L 2766 531 
Q 2569 213 2275 61 
Q 1981 -91 1556 -91 
Q 1019 -91 701 211 
Q 384 513 384 1019 
Q 384 1609 779 1909 
Q 1175 2209 1959 2209 
L 2766 2209 
L 2766 2266 
Q 2766 2663 2505 2880 
Q 2244 3097 1772 3097 
Q 1472 3097 1187 3025 
Q 903 2953 641 2809 
L 641 3341 
Q 956 3463 1253 3523 
Q 1550 3584 1831 3584 
Q 2591 3584 2966 3190 
Q 3341 2797 3341 1997 
z
" transform="scale(0.015625)"/>
       <path id="DejaVuSans-73" d="M 2834 3397 
L 2834 2853 
Q 2591 2978 2328 3040 
Q 2066 3103 1784 3103 
Q 1356 3103 1142 2972 
Q 928 2841 928 2578 
Q 928 2378 1081 2264 
Q 1234 2150 1697 2047 
L 1894 2003 
Q 2506 1872 2764 1633 
Q 3022 1394 3022 966 
Q 3022 478 2636 193 
Q 2250 -91 1575 -91 
Q 1294 -91 989 -36 
Q 684 19 347 128 
L 347 722 
Q 666 556 975 473 
Q 1284 391 1588 391 
Q 1994 391 2212 530 
Q 2431 669 2431 922 
Q 2431 1156 2273 1281 
Q 2116 1406 1581 1522 
L 1381 1569 
Q 847 1681 609 1914 
Q 372 2147 372 2553 
Q 372 3047 722 3315 
Q 1072 3584 1716 3584 
Q 2034 3584 2315 3537 
Q 2597 3491 2834 3397 
z
" transform="scale(0.015625)"/>
       <path id="DejaVuSans-66" d="M 2375 4863 
L 2375 4384 
L 1825 4384 
Q 1516 4384 1395 4259 
Q 1275 4134 1275 3809 
L 1275 3500 
L 2222 3500 
L 2222 3053 
L 1275 3053 
L 1275 0 
L 697 0 
L 697 3053 
L 147 3053 
L 147 3500 
L 697 3500 
L 697 3744 
Q 697 4328 969 4595 
Q 1241 4863 1831 4863 
L 2375 4863 
z
" transform="scale(0.015625)"/>
       <path id="DejaVuSans-20" transform="scale(0.015625)"/>
       <path id="DejaVuSans-5b" d="M 550 4863 
L 1875 4863 
L 1875 4416 
L 1125 4416 
L 1125 -397 
L 1875 -397 
L 1875 -844 
L 550 -844 
L 550 4863 
z
" transform="scale(0.015625)"/>
       <path id="DejaVuSans-6d" d="M 3328 2828 
Q 3544 3216 3844 3400 
Q 4144 3584 4550 3584 
Q 5097 3584 5394 3201 
Q 5691 2819 5691 2113 
L 5691 0 
L 5113 0 
L 5113 2094 
Q 5113 2597 4934 2840 
Q 4756 3084 4391 3084 
Q 3944 3084 3684 2787 
Q 3425 2491 3425 1978 
L 3425 0 
L 2847 0 
L 2847 2094 
Q 2847 2600 2669 2842 
Q 2491 3084 2119 3084 
Q 1678 3084 1418 2786 
Q 1159 2488 1159 1978 
L 1159 0 
L 581 0 
L 581 3500 
L 1159 3500 
L 1159 2956 
Q 1356 3278 1631 3431 
Q 1906 3584 2284 3584 
Q 2666 3584 2933 3390 
Q 3200 3197 3328 2828 
z
" transform="scale(0.015625)"/>
       <path id="DejaVuSans-56" d="M 1831 0 
L 50 4666 
L 709 4666 
L 2188 738 
L 3669 4666 
L 4325 4666 
L 2547 0 
L 1831 0 
z
" transform="scale(0.015625)"/>
       <path id="DejaVuSans-5d" d="M 1947 4863 
L 1947 -844 
L 622 -844 
L 622 -397 
L 1369 -397 
L 1369 4416 
L 622 4416 
L 622 4863 
L 1947 4863 
z
" transform="scale(0.015625)"/>
      </defs>
      <use xlink:href="#DejaVuSans-65"/>
      <use xlink:href="#DejaVuSans-6e" x="61.523438"/>
      <use xlink:href="#DejaVuSans-65" x="124.902344"/>
      <use xlink:href="#DejaVuSans-72" x="186.425781"/>
      <use xlink:href="#DejaVuSans-67" x="225.789062"/>
      <use xlink:href="#DejaVuSans-79" x="289.265625"/>
      <use xlink:href="#DejaVuSans-5f" x="348.445312"/>
      <use xlink:href="#DejaVuSans-74" x="398.445312"/>
      <use xlink:href="#DejaVuSans-72" x="437.654297"/>
      <use xlink:href="#DejaVuSans-61" x="478.767578"/>
      <use xlink:href="#DejaVuSans-6e" x="540.046875"/>
      <use xlink:href="#DejaVuSans-73" x="603.425781"/>
      <use xlink:href="#DejaVuSans-66" x="655.525391"/>
      <use xlink:href="#DejaVuSans-65" x="690.730469"/>
      <use xlink:href="#DejaVuSans-72" x="752.253906"/>
      <use xlink:href="#DejaVuSans-20" x="793.367188"/>
      <use xlink:href="#DejaVuSans-5b" x="825.154297"/>
      <use xlink:href="#DejaVuSans-6d" x="864.167969"/>
      <use xlink:href="#DejaVuSans-65" x="961.580078"/>
      <use xlink:href="#DejaVuSans-56" x="1023.103516"/>
      <use xlink:href="#DejaVuSans-5d" x="1091.511719"/>
     </g>
    </g>
   </g>
   <g id="matplotlib.axis_2">
    <g id="ytick_1">
     <g id="line2d_10">
      <defs>
       <path id="m952c5ef45d" d="M 0 0 
L -3.5 0 
" style="stroke: #000000; stroke-width: 0.8"/>
      </defs>
      <g>
       <use xlink:href="#m952c5ef45d" x="53.328125" y="231.61268" style="stroke: #000000; stroke-width: 0.8"/>
      </g>
     </g>
     <g id="text_11">
      <!-- 0 -->
      <g transform="translate(39.965625 235.411899) scale(0.1 -0.1)">
       <use xlink:href="#DejaVuSans-30"/>
      </g>
     </g>
    </g>
    <g id="ytick_2">
     <g id="line2d_11">
      <g>
       <use xlink:href="#m952c5ef45d" x="53.328125" y="197.274985" style="stroke: #000000; stroke-width: 0.8"/>
      </g>
     </g>
     <g id="text_12">
      <!-- 200 -->
      <g transform="translate(27.240625 201.074204) scale(0.1 -0.1)">
       <use xlink:href="#DejaVuSans-32"/>
       <use xlink:href="#DejaVuSans-30" x="63.623047"/>
       <use xlink:href="#DejaVuSans-30" x="127.246094"/>
      </g>
     </g>
    </g>
    <g id="ytick_3">
     <g id="line2d_12">
      <g>
       <use xlink:href="#m952c5ef45d" x="53.328125" y="162.93729" style="stroke: #000000; stroke-width: 0.8"/>
      </g>
     </g>
     <g id="text_13">
      <!-- 400 -->
      <g transform="translate(27.240625 166.736509) scale(0.1 -0.1)">
       <use xlink:href="#DejaVuSans-34"/>
       <use xlink:href="#DejaVuSans-30" x="63.623047"/>
       <use xlink:href="#DejaVuSans-30" x="127.246094"/>
      </g>
     </g>
    </g>
    <g id="ytick_4">
     <g id="line2d_13">
      <g>
       <use xlink:href="#m952c5ef45d" x="53.328125" y="128.599595" style="stroke: #000000; stroke-width: 0.8"/>
      </g>
     </g>
     <g id="text_14">
      <!-- 600 -->
      <g transform="translate(27.240625 132.398813) scale(0.1 -0.1)">
       <use xlink:href="#DejaVuSans-36"/>
       <use xlink:href="#DejaVuSans-30" x="63.623047"/>
       <use xlink:href="#DejaVuSans-30" x="127.246094"/>
      </g>
     </g>
    </g>
    <g id="ytick_5">
     <g id="line2d_14">
      <g>
       <use xlink:href="#m952c5ef45d" x="53.328125" y="94.261899" style="stroke: #000000; stroke-width: 0.8"/>
      </g>
     </g>
     <g id="text_15">
      <!-- 800 -->
      <g transform="translate(27.240625 98.061118) scale(0.1 -0.1)">
       <use xlink:href="#DejaVuSans-38"/>
       <use xlink:href="#DejaVuSans-30" x="63.623047"/>
       <use xlink:href="#DejaVuSans-30" x="127.246094"/>
      </g>
     </g>
    </g>
    <g id="ytick_6">
     <g id="line2d_15">
      <g>
       <use xlink:href="#m952c5ef45d" x="53.328125" y="59.924204" style="stroke: #000000; stroke-width: 0.8"/>
      </g>
     </g>
     <g id="text_16">
      <!-- 1000 -->
      <g transform="translate(20.878125 63.723423) scale(0.1 -0.1)">
       <defs>
        <path id="DejaVuSans-31" d="M 794 531 
L 1825 531 
L 1825 4091 
L 703 3866 
L 703 4441 
L 1819 4666 
L 2450 4666 
L 2450 531 
L 3481 531 
L 3481 0 
L 794 0 
L 794 531 
z
" transform="scale(0.015625)"/>
       </defs>
       <use xlink:href="#DejaVuSans-31"/>
       <use xlink:href="#DejaVuSans-30" x="63.623047"/>
       <use xlink:href="#DejaVuSans-30" x="127.246094"/>
       <use xlink:href="#DejaVuSans-30" x="190.869141"/>
      </g>
     </g>
    </g>
    <g id="ytick_7">
     <g id="line2d_16">
      <g>
       <use xlink:href="#m952c5ef45d" x="53.328125" y="25.586509" style="stroke: #000000; stroke-width: 0.8"/>
      </g>
     </g>
     <g id="text_17">
      <!-- 1200 -->
      <g transform="translate(20.878125 29.385728) scale(0.1 -0.1)">
       <use xlink:href="#DejaVuSans-31"/>
       <use xlink:href="#DejaVuSans-32" x="63.623047"/>
       <use xlink:href="#DejaVuSans-30" x="127.246094"/>
       <use xlink:href="#DejaVuSans-30" x="190.869141"/>
      </g>
     </g>
    </g>
    <g id="text_18">
     <!-- [counts] -->
     <g transform="translate(14.798438 145.381875) rotate(-90) scale(0.1 -0.1)">
      <defs>
       <path id="DejaVuSans-63" d="M 3122 3366 
L 3122 2828 
Q 2878 2963 2633 3030 
Q 2388 3097 2138 3097 
Q 1578 3097 1268 2742 
Q 959 2388 959 1747 
Q 959 1106 1268 751 
Q 1578 397 2138 397 
Q 2388 397 2633 464 
Q 2878 531 3122 666 
L 3122 134 
Q 2881 22 2623 -34 
Q 2366 -91 2075 -91 
Q 1284 -91 818 406 
Q 353 903 353 1747 
Q 353 2603 823 3093 
Q 1294 3584 2113 3584 
Q 2378 3584 2631 3529 
Q 2884 3475 3122 3366 
z
" transform="scale(0.015625)"/>
       <path id="DejaVuSans-6f" d="M 1959 3097 
Q 1497 3097 1228 2736 
Q 959 2375 959 1747 
Q 959 1119 1226 758 
Q 1494 397 1959 397 
Q 2419 397 2687 759 
Q 2956 1122 2956 1747 
Q 2956 2369 2687 2733 
Q 2419 3097 1959 3097 
z
M 1959 3584 
Q 2709 3584 3137 3096 
Q 3566 2609 3566 1747 
Q 3566 888 3137 398 
Q 2709 -91 1959 -91 
Q 1206 -91 779 398 
Q 353 888 353 1747 
Q 353 2609 779 3096 
Q 1206 3584 1959 3584 
z
" transform="scale(0.015625)"/>
       <path id="DejaVuSans-75" d="M 544 1381 
L 544 3500 
L 1119 3500 
L 1119 1403 
Q 1119 906 1312 657 
Q 1506 409 1894 409 
Q 2359 409 2629 706 
Q 2900 1003 2900 1516 
L 2900 3500 
L 3475 3500 
L 3475 0 
L 2900 0 
L 2900 538 
Q 2691 219 2414 64 
Q 2138 -91 1772 -91 
Q 1169 -91 856 284 
Q 544 659 544 1381 
z
M 1991 3584 
L 1991 3584 
z
" transform="scale(0.015625)"/>
      </defs>
      <use xlink:href="#DejaVuSans-5b"/>
      <use xlink:href="#DejaVuSans-63" x="39.013672"/>
      <use xlink:href="#DejaVuSans-6f" x="93.994141"/>
      <use xlink:href="#DejaVuSans-75" x="155.175781"/>
      <use xlink:href="#DejaVuSans-6e" x="218.554688"/>
      <use xlink:href="#DejaVuSans-74" x="281.933594"/>
      <use xlink:href="#DejaVuSans-73" x="321.142578"/>
      <use xlink:href="#DejaVuSans-5d" x="373.242188"/>
     </g>
    </g>
   </g>
   <g id="patch_3">
    <path d="M 53.328125 242.33875 
L 53.328125 7.2 
" style="fill: none; stroke: #000000; stroke-width: 0.8; stroke-linejoin: miter; stroke-linecap: square"/>
   </g>
   <g id="patch_4">
    <path d="M 411.440541 242.33875 
L 411.440541 7.2 
" style="fill: none; stroke: #000000; stroke-width: 0.8; stroke-linejoin: miter; stroke-linecap: square"/>
   </g>
   <g id="patch_5">
    <path d="M 53.328125 242.33875 
L 411.440541 242.33875 
" style="fill: none; stroke: #000000; stroke-width: 0.8; stroke-linejoin: miter; stroke-linecap: square"/>
   </g>
   <g id="patch_6">
    <path d="M 53.328125 7.2 
L 411.440541 7.2 
" style="fill: none; stroke: #000000; stroke-width: 0.8; stroke-linejoin: miter; stroke-linecap: square"/>
   </g>
   <g id="legend_1">
    <g id="patch_7">
     <path d="M 214.546791 148.70375 
L 404.440541 148.70375 
Q 406.440541 148.70375 406.440541 146.70375 
L 406.440541 102.835 
Q 406.440541 100.835 404.440541 100.835 
L 214.546791 100.835 
Q 212.546791 100.835 212.546791 102.835 
L 212.546791 146.70375 
Q 212.546791 148.70375 214.546791 148.70375 
z
" style="fill: #ffffff; opacity: 0.8; stroke: #cccccc; stroke-linejoin: miter"/>
    </g>
    <g id="line2d_17">
     <path d="M 216.546791 108.933438 
L 216.546791 108.933438 
L 226.546791 108.933438 
L 226.546791 108.933438 
L 236.546791 108.933438 
" style="fill: none; stroke: #1f77b4; stroke-width: 1.5; stroke-linecap: square"/>
    </g>
    <g id="text_19">
     <!-- elastic_1_pulse -->
     <g transform="translate(244.546791 112.433438) scale(0.1 -0.1)">
      <defs>
       <path id="DejaVuSans-6c" d="M 603 4863 
L 1178 4863 
L 1178 0 
L 603 0 
L 603 4863 
z
" transform="scale(0.015625)"/>
       <path id="DejaVuSans-69" d="M 603 3500 
L 1178 3500 
L 1178 0 
L 603 0 
L 603 3500 
z
M 603 4863 
L 1178 4863 
L 1178 4134 
L 603 4134 
L 603 4863 
z
" transform="scale(0.015625)"/>
       <path id="DejaVuSans-70" d="M 1159 525 
L 1159 -1331 
L 581 -1331 
L 581 3500 
L 1159 3500 
L 1159 2969 
Q 1341 3281 1617 3432 
Q 1894 3584 2278 3584 
Q 2916 3584 3314 3078 
Q 3713 2572 3713 1747 
Q 3713 922 3314 415 
Q 2916 -91 2278 -91 
Q 1894 -91 1617 61 
Q 1341 213 1159 525 
z
M 3116 1747 
Q 3116 2381 2855 2742 
Q 2594 3103 2138 3103 
Q 1681 3103 1420 2742 
Q 1159 2381 1159 1747 
Q 1159 1113 1420 752 
Q 1681 391 2138 391 
Q 2594 391 2855 752 
Q 3116 1113 3116 1747 
z
" transform="scale(0.015625)"/>
      </defs>
      <use xlink:href="#DejaVuSans-65"/>
      <use xlink:href="#DejaVuSans-6c" x="61.523438"/>
      <use xlink:href="#DejaVuSans-61" x="89.306641"/>
      <use xlink:href="#DejaVuSans-73" x="150.585938"/>
      <use xlink:href="#DejaVuSans-74" x="202.685547"/>
      <use xlink:href="#DejaVuSans-69" x="241.894531"/>
      <use xlink:href="#DejaVuSans-63" x="269.677734"/>
      <use xlink:href="#DejaVuSans-5f" x="324.658203"/>
      <use xlink:href="#DejaVuSans-31" x="374.658203"/>
      <use xlink:href="#DejaVuSans-5f" x="438.28125"/>
      <use xlink:href="#DejaVuSans-70" x="488.28125"/>
      <use xlink:href="#DejaVuSans-75" x="551.757812"/>
      <use xlink:href="#DejaVuSans-6c" x="615.136719"/>
      <use xlink:href="#DejaVuSans-73" x="642.919922"/>
      <use xlink:href="#DejaVuSans-65" x="695.019531"/>
     </g>
    </g>
    <g id="line2d_18">
     <path d="M 216.546791 123.889688 
L 216.546791 123.889688 
L 226.546791 123.889688 
L 226.546791 123.889688 
L 236.546791 123.889688 
" style="fill: none; stroke: #ff7f0e; stroke-width: 1.5; stroke-linecap: square"/>
    </g>
    <g id="text_20">
     <!-- known_quasi_elastic_1_pulse -->
     <g transform="translate(244.546791 127.389688) scale(0.1 -0.1)">
      <defs>
       <path id="DejaVuSans-6b" d="M 581 4863 
L 1159 4863 
L 1159 1991 
L 2875 3500 
L 3609 3500 
L 1753 1863 
L 3688 0 
L 2938 0 
L 1159 1709 
L 1159 0 
L 581 0 
L 581 4863 
z
" transform="scale(0.015625)"/>
       <path id="DejaVuSans-77" d="M 269 3500 
L 844 3500 
L 1563 769 
L 2278 3500 
L 2956 3500 
L 3675 769 
L 4391 3500 
L 4966 3500 
L 4050 0 
L 3372 0 
L 2619 2869 
L 1863 0 
L 1184 0 
L 269 3500 
z
" transform="scale(0.015625)"/>
       <path id="DejaVuSans-71" d="M 947 1747 
Q 947 1113 1208 752 
Q 1469 391 1925 391 
Q 2381 391 2643 752 
Q 2906 1113 2906 1747 
Q 2906 2381 2643 2742 
Q 2381 3103 1925 3103 
Q 1469 3103 1208 2742 
Q 947 2381 947 1747 
z
M 2906 525 
Q 2725 213 2448 61 
Q 2172 -91 1784 -91 
Q 1150 -91 751 415 
Q 353 922 353 1747 
Q 353 2572 751 3078 
Q 1150 3584 1784 3584 
Q 2172 3584 2448 3432 
Q 2725 3281 2906 2969 
L 2906 3500 
L 3481 3500 
L 3481 -1331 
L 2906 -1331 
L 2906 525 
z
" transform="scale(0.015625)"/>
      </defs>
      <use xlink:href="#DejaVuSans-6b"/>
      <use xlink:href="#DejaVuSans-6e" x="57.910156"/>
      <use xlink:href="#DejaVuSans-6f" x="121.289062"/>
      <use xlink:href="#DejaVuSans-77" x="182.470703"/>
      <use xlink:href="#DejaVuSans-6e" x="264.257812"/>
      <use xlink:href="#DejaVuSans-5f" x="327.636719"/>
      <use xlink:href="#DejaVuSans-71" x="377.636719"/>
      <use xlink:href="#DejaVuSans-75" x="441.113281"/>
      <use xlink:href="#DejaVuSans-61" x="504.492188"/>
      <use xlink:href="#DejaVuSans-73" x="565.771484"/>
      <use xlink:href="#DejaVuSans-69" x="617.871094"/>
      <use xlink:href="#DejaVuSans-5f" x="645.654297"/>
      <use xlink:href="#DejaVuSans-65" x="695.654297"/>
      <use xlink:href="#DejaVuSans-6c" x="757.177734"/>
      <use xlink:href="#DejaVuSans-61" x="784.960938"/>
      <use xlink:href="#DejaVuSans-73" x="846.240234"/>
      <use xlink:href="#DejaVuSans-74" x="898.339844"/>
      <use xlink:href="#DejaVuSans-69" x="937.548828"/>
      <use xlink:href="#DejaVuSans-63" x="965.332031"/>
      <use xlink:href="#DejaVuSans-5f" x="1020.3125"/>
      <use xlink:href="#DejaVuSans-31" x="1070.3125"/>
      <use xlink:href="#DejaVuSans-5f" x="1133.935547"/>
      <use xlink:href="#DejaVuSans-70" x="1183.935547"/>
      <use xlink:href="#DejaVuSans-75" x="1247.412109"/>
      <use xlink:href="#DejaVuSans-6c" x="1310.791016"/>
      <use xlink:href="#DejaVuSans-73" x="1338.574219"/>
      <use xlink:href="#DejaVuSans-65" x="1390.673828"/>
     </g>
    </g>
    <g id="line2d_19">
     <path d="M 216.546791 138.845938 
L 216.546791 138.845938 
L 226.546791 138.845938 
L 226.546791 138.845938 
L 236.546791 138.845938 
" style="fill: none; stroke: #2ca02c; stroke-width: 1.5; stroke-linecap: square"/>
    </g>
    <g id="text_21">
     <!-- unknown_quasi_elastic_1_pulse -->
     <g transform="translate(244.546791 142.345938) scale(0.1 -0.1)">
      <use xlink:href="#DejaVuSans-75"/>
      <use xlink:href="#DejaVuSans-6e" x="63.378906"/>
      <use xlink:href="#DejaVuSans-6b" x="126.757812"/>
      <use xlink:href="#DejaVuSans-6e" x="184.667969"/>
      <use xlink:href="#DejaVuSans-6f" x="248.046875"/>
      <use xlink:href="#DejaVuSans-77" x="309.228516"/>
      <use xlink:href="#DejaVuSans-6e" x="391.015625"/>
      <use xlink:href="#DejaVuSans-5f" x="454.394531"/>
      <use xlink:href="#DejaVuSans-71" x="504.394531"/>
      <use xlink:href="#DejaVuSans-75" x="567.871094"/>
      <use xlink:href="#DejaVuSans-61" x="631.25"/>
      <use xlink:href="#DejaVuSans-73" x="692.529297"/>
      <use xlink:href="#DejaVuSans-69" x="744.628906"/>
      <use xlink:href="#DejaVuSans-5f" x="772.412109"/>
      <use xlink:href="#DejaVuSans-65" x="822.412109"/>
      <use xlink:href="#DejaVuSans-6c" x="883.935547"/>
      <use xlink:href="#DejaVuSans-61" x="911.71875"/>
      <use xlink:href="#DejaVuSans-73" x="972.998047"/>
      <use xlink:href="#DejaVuSans-74" x="1025.097656"/>
      <use xlink:href="#DejaVuSans-69" x="1064.306641"/>
      <use xlink:href="#DejaVuSans-63" x="1092.089844"/>
      <use xlink:href="#DejaVuSans-5f" x="1147.070312"/>
      <use xlink:href="#DejaVuSans-31" x="1197.070312"/>
      <use xlink:href="#DejaVuSans-5f" x="1260.693359"/>
      <use xlink:href="#DejaVuSans-70" x="1310.693359"/>
      <use xlink:href="#DejaVuSans-75" x="1374.169922"/>
      <use xlink:href="#DejaVuSans-6c" x="1437.548828"/>
      <use xlink:href="#DejaVuSans-73" x="1465.332031"/>
      <use xlink:href="#DejaVuSans-65" x="1517.431641"/>
     </g>
    </g>
   </g>
   <g id="line2d_20">
    <path d="M 206.0074 231.61268 
L 206.0074 231.61268 
L 208.172069 231.61268 
L 208.172069 231.61268 
L 210.336738 231.61268 
L 210.336738 231.61268 
L 212.501406 231.61268 
L 212.501406 231.612678 
L 214.666075 231.612678 
L 214.666075 231.61266 
L 216.830744 231.61266 
L 216.830744 231.612239 
L 218.995412 231.612239 
L 218.995412 231.606804 
L 221.160081 231.606804 
L 221.160081 231.594014 
L 223.32475 231.594014 
L 223.32475 231.473435 
L 225.489419 231.473435 
L 225.489419 230.229796 
L 227.654087 230.229796 
L 227.654087 220.341777 
L 229.818756 220.341777 
L 229.818756 167.25885 
L 231.983425 167.25885 
L 231.983425 77.122118 
L 234.148093 77.122118 
L 234.148093 24.181691 
L 236.312762 24.181691 
L 236.312762 23.86045 
L 238.477431 23.86045 
L 238.477431 63.986487 
L 240.6421 63.986487 
L 240.6421 152.264937 
L 242.806768 152.264937 
L 242.806768 214.969811 
L 244.971437 214.969811 
L 244.971437 230.66522 
L 247.136106 230.66522 
" clip-path="url(#p5005c6062b)" style="fill: none; stroke: #1f77b4; stroke-width: 1.5; stroke-linecap: square"/>
   </g>
   <g id="LineCollection_1">
    <path d="M 207.089735 231.61268 
L 207.089735 231.61268 
" clip-path="url(#p5005c6062b)" style="fill: none; stroke: #1f77b4; stroke-width: 1.5"/>
    <path d="M 209.254403 231.61268 
L 209.254403 231.61268 
" clip-path="url(#p5005c6062b)" style="fill: none; stroke: #1f77b4; stroke-width: 1.5"/>
    <path d="M 211.419072 231.612986 
L 211.419072 231.612374 
" clip-path="url(#p5005c6062b)" style="fill: none; stroke: #1f77b4; stroke-width: 1.5"/>
    <path d="M 213.583741 231.613281 
L 213.583741 231.612076 
" clip-path="url(#p5005c6062b)" style="fill: none; stroke: #1f77b4; stroke-width: 1.5"/>
    <path d="M 215.748409 231.614547 
L 215.748409 231.610772 
" clip-path="url(#p5005c6062b)" style="fill: none; stroke: #1f77b4; stroke-width: 1.5"/>
    <path d="M 217.913078 231.620948 
L 217.913078 231.60353 
" clip-path="url(#p5005c6062b)" style="fill: none; stroke: #1f77b4; stroke-width: 1.5"/>
    <path d="M 220.077747 231.638567 
L 220.077747 231.575041 
" clip-path="url(#p5005c6062b)" style="fill: none; stroke: #1f77b4; stroke-width: 1.5"/>
    <path d="M 222.242415 231.650625 
L 222.242415 231.537403 
" clip-path="url(#p5005c6062b)" style="fill: none; stroke: #1f77b4; stroke-width: 1.5"/>
    <path d="M 224.407084 231.628053 
L 224.407084 231.318816 
" clip-path="url(#p5005c6062b)" style="fill: none; stroke: #1f77b4; stroke-width: 1.5"/>
    <path d="M 226.571753 230.717059 
L 226.571753 229.742533 
" clip-path="url(#p5005c6062b)" style="fill: none; stroke: #1f77b4; stroke-width: 1.5"/>
    <path d="M 228.736422 221.73285 
L 228.736422 218.950704 
" clip-path="url(#p5005c6062b)" style="fill: none; stroke: #1f77b4; stroke-width: 1.5"/>
    <path d="M 230.90109 170.582825 
L 230.90109 163.934874 
" clip-path="url(#p5005c6062b)" style="fill: none; stroke: #1f77b4; stroke-width: 1.5"/>
    <path d="M 233.065759 82.272287 
L 233.065759 71.971948 
" clip-path="url(#p5005c6062b)" style="fill: none; stroke: #1f77b4; stroke-width: 1.5"/>
    <path d="M 235.230428 30.149397 
L 235.230428 18.213986 
" clip-path="url(#p5005c6062b)" style="fill: none; stroke: #1f77b4; stroke-width: 1.5"/>
    <path d="M 237.395096 29.832775 
L 237.395096 17.888125 
" clip-path="url(#p5005c6062b)" style="fill: none; stroke: #1f77b4; stroke-width: 1.5"/>
    <path d="M 239.559765 69.351139 
L 239.559765 58.621836 
" clip-path="url(#p5005c6062b)" style="fill: none; stroke: #1f77b4; stroke-width: 1.5"/>
    <path d="M 241.724434 155.955884 
L 241.724434 148.573989 
" clip-path="url(#p5005c6062b)" style="fill: none; stroke: #1f77b4; stroke-width: 1.5"/>
    <path d="M 243.889103 216.660192 
L 243.889103 213.27943 
" clip-path="url(#p5005c6062b)" style="fill: none; stroke: #1f77b4; stroke-width: 1.5"/>
    <path d="M 246.053771 231.068542 
L 246.053771 230.261899 
" clip-path="url(#p5005c6062b)" style="fill: none; stroke: #1f77b4; stroke-width: 1.5"/>
   </g>
   <g id="line2d_21">
    <path d="M 69.56314 231.61268 
L 80.386484 231.61268 
L 80.386484 231.322197 
L 82.551153 231.322197 
L 82.551153 231.010758 
L 84.715821 231.010758 
L 84.715821 230.529683 
L 86.88049 230.529683 
L 86.88049 231.14935 
L 89.045159 231.14935 
L 89.045159 230.687488 
L 91.209827 230.687488 
L 91.209827 230.350003 
L 93.374496 230.350003 
L 93.374496 230.708228 
L 95.539165 230.708228 
L 95.539165 230.506975 
L 102.033171 230.413621 
L 102.033171 230.041913 
L 104.19784 230.041913 
L 104.19784 231.124474 
L 106.362508 231.124474 
L 106.362508 230.871137 
L 108.527177 230.871137 
L 108.527177 230.379661 
L 110.691846 230.379661 
L 110.691846 230.90944 
L 112.856515 230.90944 
L 112.856515 231.099729 
L 115.021183 231.099729 
L 115.021183 230.401266 
L 117.185852 230.401266 
L 117.185852 230.70659 
L 119.350521 230.70659 
L 119.350521 229.820919 
L 121.515189 229.820919 
L 121.515189 229.674871 
L 123.679858 229.674871 
L 123.679858 229.896047 
L 125.844527 229.896047 
L 125.844527 230.506158 
L 128.009196 230.506158 
L 128.009196 230.185543 
L 130.173864 230.185543 
L 130.173864 230.938818 
L 134.503202 230.968295 
L 134.503202 230.819788 
L 136.66787 230.819788 
L 136.66787 229.649038 
L 140.997208 229.598458 
L 140.997208 230.039084 
L 143.161877 230.039084 
L 143.161877 229.297764 
L 145.326545 229.297764 
L 145.326545 230.23437 
L 147.491214 230.23437 
L 147.491214 229.668096 
L 151.820551 229.634224 
L 151.820551 228.323918 
L 153.98522 228.323918 
L 153.98522 228.46676 
L 156.149889 228.46676 
L 156.149889 229.999992 
L 158.314558 229.999992 
L 158.314558 229.880102 
L 160.479226 229.880102 
L 160.479226 229.016631 
L 162.643895 229.016631 
L 162.643895 229.783163 
L 164.808564 229.783163 
L 164.808564 229.360789 
L 166.973232 229.360789 
L 166.973232 230.173173 
L 169.137901 230.173173 
L 169.137901 227.657524 
L 171.30257 227.657524 
L 171.30257 228.946011 
L 173.467239 228.946011 
L 173.467239 228.583003 
L 175.631907 228.583003 
L 175.631907 229.513766 
L 177.796576 229.513766 
L 177.796576 226.514881 
L 179.961245 226.514881 
L 179.961245 229.094225 
L 182.125913 229.094225 
L 182.125913 226.766325 
L 184.290582 226.766325 
L 184.290582 226.345695 
L 188.61992 226.45016 
L 188.61992 227.137602 
L 190.784588 227.137602 
L 190.784588 225.836414 
L 192.949257 225.836414 
L 192.949257 226.404913 
L 195.113926 226.404913 
L 195.113926 223.925367 
L 197.278594 223.925367 
L 197.278594 224.55498 
L 199.443263 224.55498 
L 199.443263 221.019225 
L 201.607932 221.019225 
L 201.607932 219.435581 
L 203.7726 219.435581 
L 203.7726 221.038823 
L 205.937269 221.038823 
L 205.937269 219.694495 
L 208.101938 219.694495 
L 208.101938 221.059957 
L 210.266607 221.059957 
L 210.266607 220.590102 
L 212.431275 220.590102 
L 212.431275 216.720255 
L 214.595944 216.720255 
L 214.595944 217.378103 
L 216.760613 217.378103 
L 216.760613 214.712838 
L 218.925281 214.712838 
L 218.925281 213.961835 
L 221.08995 213.961835 
L 221.08995 209.031826 
L 223.254619 209.031826 
L 223.254619 210.331363 
L 225.419288 210.331363 
L 225.419288 209.363828 
L 227.583956 209.363828 
L 227.583956 208.798099 
L 229.748625 208.798099 
L 229.748625 209.216139 
L 231.913294 209.216139 
L 231.913294 207.986955 
L 234.077962 207.986955 
L 234.077962 210.413917 
L 236.242631 210.413917 
L 236.242631 206.230867 
L 238.4073 206.230867 
L 238.4073 211.231716 
L 240.571969 211.231716 
L 240.571969 207.973239 
L 242.736637 207.973239 
L 242.736637 207.117724 
L 244.901306 207.117724 
L 244.901306 209.316268 
L 247.065975 209.316268 
L 247.065975 209.103705 
L 249.230643 209.103705 
L 249.230643 210.266458 
L 251.395312 210.266458 
L 251.395312 215.42909 
L 253.559981 215.42909 
L 253.559981 218.597447 
L 255.72465 218.597447 
L 255.72465 215.013486 
L 257.889318 215.013486 
L 257.889318 217.791484 
L 260.053987 217.791484 
L 260.053987 220.715007 
L 262.218656 220.715007 
L 262.218656 219.835249 
L 264.383324 219.835249 
L 264.383324 222.561179 
L 266.547993 222.561179 
L 266.547993 222.026634 
L 268.712662 222.026634 
L 268.712662 222.841782 
L 270.877331 222.841782 
L 270.877331 224.33544 
L 273.041999 224.33544 
L 273.041999 222.055481 
L 275.206668 222.055481 
L 275.206668 224.184865 
L 277.371337 224.184865 
L 277.371337 222.285814 
L 279.536005 222.285814 
L 279.536005 222.534835 
L 281.700674 222.534835 
L 281.700674 223.839526 
L 283.865343 223.839526 
L 283.865343 227.855022 
L 286.030012 227.855022 
L 286.030012 228.586185 
L 288.19468 228.586185 
L 288.19468 226.72368 
L 290.359349 226.72368 
L 290.359349 227.321947 
L 292.524018 227.321947 
L 292.524018 228.591788 
L 294.688686 228.591788 
L 294.688686 227.11713 
L 296.853355 227.11713 
L 296.853355 229.194873 
L 299.018024 229.194873 
L 299.018024 228.068918 
L 301.182693 228.068918 
L 301.182693 228.684561 
L 303.347361 228.684561 
L 303.347361 228.036849 
L 305.51203 228.036849 
L 305.51203 228.829654 
L 307.676699 228.829654 
L 307.676699 228.976775 
L 312.006036 228.967781 
L 312.006036 228.58222 
L 314.170705 228.58222 
L 314.170705 228.970744 
L 316.335374 228.970744 
L 316.335374 231.167214 
L 318.500042 231.167214 
L 318.500042 228.849397 
L 320.664711 228.849397 
L 320.664711 228.639251 
L 322.82938 228.639251 
L 322.82938 228.236027 
L 324.994048 228.236027 
L 324.994048 229.539389 
L 327.158717 229.539389 
L 327.158717 230.341251 
L 329.323386 230.341251 
L 329.323386 231.145075 
L 331.488054 231.145075 
L 331.488054 230.298392 
L 333.652723 230.298392 
L 333.652723 230.145707 
L 335.817392 230.145707 
L 335.817392 230.81032 
L 337.982061 230.81032 
L 337.982061 230.423394 
L 340.146729 230.423394 
L 340.146729 229.88351 
L 342.311398 229.88351 
L 342.311398 231.421973 
L 344.476067 231.421973 
L 344.476067 229.472465 
L 346.640735 229.472465 
L 346.640735 229.68693 
L 348.805404 229.68693 
L 348.805404 229.80052 
L 353.134742 229.883584 
L 353.134742 231.536421 
L 355.29941 231.536421 
L 355.29941 230.53067 
L 357.464079 230.53067 
L 357.464079 230.377801 
L 359.628748 230.377801 
L 359.628748 230.785091 
L 361.793416 230.785091 
L 361.793416 231.507716 
L 363.958085 231.507716 
L 363.958085 230.396142 
L 366.122754 230.396142 
L 366.122754 230.960077 
L 368.287423 230.960077 
L 368.287423 228.697997 
L 370.452091 228.697997 
L 370.452091 230.350941 
L 372.61676 230.350941 
L 372.61676 229.875593 
L 374.781429 229.875593 
L 374.781429 230.674288 
L 376.946097 230.674288 
L 376.946097 229.718604 
L 379.110766 229.718604 
L 379.110766 230.908399 
L 381.275435 230.908399 
L 381.275435 231.562076 
L 383.440104 231.562076 
L 383.440104 230.650643 
L 387.769441 230.748458 
L 387.769441 230.45666 
L 389.93411 230.45666 
L 389.93411 231.256529 
L 392.098778 231.256529 
L 392.098778 230.869757 
L 394.263447 230.869757 
L 394.263447 230.869757 
" clip-path="url(#p5005c6062b)" style="fill: none; stroke: #ff7f0e; stroke-width: 1.5; stroke-linecap: square"/>
   </g>
   <g id="LineCollection_2">
    <path d="M 70.645475 231.61268 
L 70.645475 231.61268 
" clip-path="url(#p5005c6062b)" style="fill: none; stroke: #ff7f0e; stroke-width: 1.5"/>
    <path d="M 72.810143 231.612681 
L 72.810143 231.61268 
" clip-path="url(#p5005c6062b)" style="fill: none; stroke: #ff7f0e; stroke-width: 1.5"/>
    <path d="M 74.974812 231.612794 
L 74.974812 231.612566 
" clip-path="url(#p5005c6062b)" style="fill: none; stroke: #ff7f0e; stroke-width: 1.5"/>
    <path d="M 77.139481 231.612713 
L 77.139481 231.612648 
" clip-path="url(#p5005c6062b)" style="fill: none; stroke: #ff7f0e; stroke-width: 1.5"/>
    <path d="M 79.30415 231.612964 
L 79.30415 231.612396 
" clip-path="url(#p5005c6062b)" style="fill: none; stroke: #ff7f0e; stroke-width: 1.5"/>
    <path d="M 81.468818 231.545519 
L 81.468818 231.098875 
" clip-path="url(#p5005c6062b)" style="fill: none; stroke: #ff7f0e; stroke-width: 1.5"/>
    <path d="M 83.633487 231.332228 
L 83.633487 230.689287 
" clip-path="url(#p5005c6062b)" style="fill: none; stroke: #ff7f0e; stroke-width: 1.5"/>
    <path d="M 85.798156 230.960888 
L 85.798156 230.098477 
" clip-path="url(#p5005c6062b)" style="fill: none; stroke: #ff7f0e; stroke-width: 1.5"/>
    <path d="M 87.962824 231.431394 
L 87.962824 230.867307 
" clip-path="url(#p5005c6062b)" style="fill: none; stroke: #ff7f0e; stroke-width: 1.5"/>
    <path d="M 90.127493 231.086042 
L 90.127493 230.288935 
" clip-path="url(#p5005c6062b)" style="fill: none; stroke: #ff7f0e; stroke-width: 1.5"/>
    <path d="M 92.292162 230.815607 
L 92.292162 229.884399 
" clip-path="url(#p5005c6062b)" style="fill: none; stroke: #ff7f0e; stroke-width: 1.5"/>
    <path d="M 94.456831 231.102289 
L 94.456831 230.314167 
" clip-path="url(#p5005c6062b)" style="fill: none; stroke: #ff7f0e; stroke-width: 1.5"/>
    <path d="M 96.621499 230.942678 
L 96.621499 230.071273 
" clip-path="url(#p5005c6062b)" style="fill: none; stroke: #ff7f0e; stroke-width: 1.5"/>
    <path d="M 98.786168 230.961082 
L 98.786168 230.098767 
" clip-path="url(#p5005c6062b)" style="fill: none; stroke: #ff7f0e; stroke-width: 1.5"/>
    <path d="M 100.950837 230.867344 
L 100.950837 229.959898 
" clip-path="url(#p5005c6062b)" style="fill: none; stroke: #ff7f0e; stroke-width: 1.5"/>
    <path d="M 103.115505 230.561222 
L 103.115505 229.522603 
" clip-path="url(#p5005c6062b)" style="fill: none; stroke: #ff7f0e; stroke-width: 1.5"/>
    <path d="M 105.280174 231.41399 
L 105.280174 230.834958 
" clip-path="url(#p5005c6062b)" style="fill: none; stroke: #ff7f0e; stroke-width: 1.5"/>
    <path d="M 107.444843 231.227948 
L 107.444843 230.514325 
" clip-path="url(#p5005c6062b)" style="fill: none; stroke: #ff7f0e; stroke-width: 1.5"/>
    <path d="M 109.609512 230.839765 
L 109.609512 229.919558 
" clip-path="url(#p5005c6062b)" style="fill: none; stroke: #ff7f0e; stroke-width: 1.5"/>
    <path d="M 111.77418 231.256914 
L 111.77418 230.561966 
" clip-path="url(#p5005c6062b)" style="fill: none; stroke: #ff7f0e; stroke-width: 1.5"/>
    <path d="M 113.938849 231.396492 
L 113.938849 230.802967 
" clip-path="url(#p5005c6062b)" style="fill: none; stroke: #ff7f0e; stroke-width: 1.5"/>
    <path d="M 116.103518 230.857321 
L 116.103518 229.945211 
" clip-path="url(#p5005c6062b)" style="fill: none; stroke: #ff7f0e; stroke-width: 1.5"/>
    <path d="M 118.268186 231.101008 
L 118.268186 230.312172 
" clip-path="url(#p5005c6062b)" style="fill: none; stroke: #ff7f0e; stroke-width: 1.5"/>
    <path d="M 120.432855 230.375558 
L 120.432855 229.26628 
" clip-path="url(#p5005c6062b)" style="fill: none; stroke: #ff7f0e; stroke-width: 1.5"/>
    <path d="M 122.597524 230.251672 
L 122.597524 229.09807 
" clip-path="url(#p5005c6062b)" style="fill: none; stroke: #ff7f0e; stroke-width: 1.5"/>
    <path d="M 124.762192 230.438934 
L 124.762192 229.35316 
" clip-path="url(#p5005c6062b)" style="fill: none; stroke: #ff7f0e; stroke-width: 1.5"/>
    <path d="M 126.926861 230.942022 
L 126.926861 230.070294 
" clip-path="url(#p5005c6062b)" style="fill: none; stroke: #ff7f0e; stroke-width: 1.5"/>
    <path d="M 129.09153 230.680541 
L 129.09153 229.690545 
" clip-path="url(#p5005c6062b)" style="fill: none; stroke: #ff7f0e; stroke-width: 1.5"/>
    <path d="M 131.256199 231.278957 
L 131.256199 230.598679 
" clip-path="url(#p5005c6062b)" style="fill: none; stroke: #ff7f0e; stroke-width: 1.5"/>
    <path d="M 133.420867 231.300911 
L 133.420867 230.635679 
" clip-path="url(#p5005c6062b)" style="fill: none; stroke: #ff7f0e; stroke-width: 1.5"/>
    <path d="M 135.585536 231.188747 
L 135.585536 230.45083 
" clip-path="url(#p5005c6062b)" style="fill: none; stroke: #ff7f0e; stroke-width: 1.5"/>
    <path d="M 137.750205 230.229671 
L 137.750205 229.068405 
" clip-path="url(#p5005c6062b)" style="fill: none; stroke: #ff7f0e; stroke-width: 1.5"/>
    <path d="M 139.914873 230.186521 
L 139.914873 229.010394 
" clip-path="url(#p5005c6062b)" style="fill: none; stroke: #ff7f0e; stroke-width: 1.5"/>
    <path d="M 142.079542 230.558861 
L 142.079542 229.519307 
" clip-path="url(#p5005c6062b)" style="fill: none; stroke: #ff7f0e; stroke-width: 1.5"/>
    <path d="M 144.244211 229.928196 
L 144.244211 228.667332 
" clip-path="url(#p5005c6062b)" style="fill: none; stroke: #ff7f0e; stroke-width: 1.5"/>
    <path d="M 146.40888 230.720827 
L 146.40888 229.747914 
" clip-path="url(#p5005c6062b)" style="fill: none; stroke: #ff7f0e; stroke-width: 1.5"/>
    <path d="M 148.573548 230.245904 
L 148.573548 229.090287 
" clip-path="url(#p5005c6062b)" style="fill: none; stroke: #ff7f0e; stroke-width: 1.5"/>
    <path d="M 150.738217 230.217043 
L 150.738217 229.051405 
" clip-path="url(#p5005c6062b)" style="fill: none; stroke: #ff7f0e; stroke-width: 1.5"/>
    <path d="M 152.902886 229.075345 
L 152.902886 227.572491 
" clip-path="url(#p5005c6062b)" style="fill: none; stroke: #ff7f0e; stroke-width: 1.5"/>
    <path d="M 155.067554 229.201687 
L 155.067554 227.731833 
" clip-path="url(#p5005c6062b)" style="fill: none; stroke: #ff7f0e; stroke-width: 1.5"/>
    <path d="M 157.232223 230.526185 
L 157.232223 229.473798 
" clip-path="url(#p5005c6062b)" style="fill: none; stroke: #ff7f0e; stroke-width: 1.5"/>
    <path d="M 159.396892 230.425504 
L 159.396892 229.3347 
" clip-path="url(#p5005c6062b)" style="fill: none; stroke: #ff7f0e; stroke-width: 1.5"/>
    <path d="M 161.561561 229.684247 
L 161.561561 228.349014 
" clip-path="url(#p5005c6062b)" style="fill: none; stroke: #ff7f0e; stroke-width: 1.5"/>
    <path d="M 163.726229 230.343615 
L 163.726229 229.22271 
" clip-path="url(#p5005c6062b)" style="fill: none; stroke: #ff7f0e; stroke-width: 1.5"/>
    <path d="M 165.890898 229.98258 
L 165.890898 228.738998 
" clip-path="url(#p5005c6062b)" style="fill: none; stroke: #ff7f0e; stroke-width: 1.5"/>
    <path d="M 168.055567 230.670311 
L 168.055567 229.676034 
" clip-path="url(#p5005c6062b)" style="fill: none; stroke: #ff7f0e; stroke-width: 1.5"/>
    <path d="M 170.220235 228.481572 
L 170.220235 226.833477 
" clip-path="url(#p5005c6062b)" style="fill: none; stroke: #ff7f0e; stroke-width: 1.5"/>
    <path d="M 172.384904 229.622647 
L 172.384904 228.269374 
" clip-path="url(#p5005c6062b)" style="fill: none; stroke: #ff7f0e; stroke-width: 1.5"/>
    <path d="M 174.549573 229.304225 
L 174.549573 227.861781 
" clip-path="url(#p5005c6062b)" style="fill: none; stroke: #ff7f0e; stroke-width: 1.5"/>
    <path d="M 176.714242 230.114066 
L 176.714242 228.913467 
" clip-path="url(#p5005c6062b)" style="fill: none; stroke: #ff7f0e; stroke-width: 1.5"/>
    <path d="M 178.87891 227.45042 
L 178.87891 225.579342 
" clip-path="url(#p5005c6062b)" style="fill: none; stroke: #ff7f0e; stroke-width: 1.5"/>
    <path d="M 181.043579 229.751788 
L 181.043579 228.436661 
" clip-path="url(#p5005c6062b)" style="fill: none; stroke: #ff7f0e; stroke-width: 1.5"/>
    <path d="M 183.208248 227.6785 
L 183.208248 225.85415 
" clip-path="url(#p5005c6062b)" style="fill: none; stroke: #ff7f0e; stroke-width: 1.5"/>
    <path d="M 185.372916 227.296632 
L 185.372916 225.394759 
" clip-path="url(#p5005c6062b)" style="fill: none; stroke: #ff7f0e; stroke-width: 1.5"/>
    <path d="M 187.537585 227.391619 
L 187.537585 225.508701 
" clip-path="url(#p5005c6062b)" style="fill: none; stroke: #ff7f0e; stroke-width: 1.5"/>
    <path d="M 189.702254 228.01414 
L 189.702254 226.261063 
" clip-path="url(#p5005c6062b)" style="fill: none; stroke: #ff7f0e; stroke-width: 1.5"/>
    <path d="M 191.866923 226.832264 
L 191.866923 224.840563 
" clip-path="url(#p5005c6062b)" style="fill: none; stroke: #ff7f0e; stroke-width: 1.5"/>
    <path d="M 194.031591 227.350489 
L 194.031591 225.459337 
" clip-path="url(#p5005c6062b)" style="fill: none; stroke: #ff7f0e; stroke-width: 1.5"/>
    <path d="M 196.19626 225.074203 
L 196.19626 222.776531 
" clip-path="url(#p5005c6062b)" style="fill: none; stroke: #ff7f0e; stroke-width: 1.5"/>
    <path d="M 198.360929 225.655764 
L 198.360929 223.454196 
" clip-path="url(#p5005c6062b)" style="fill: none; stroke: #ff7f0e; stroke-width: 1.5"/>
    <path d="M 200.525597 222.367844 
L 200.525597 219.670605 
" clip-path="url(#p5005c6062b)" style="fill: none; stroke: #ff7f0e; stroke-width: 1.5"/>
    <path d="M 202.690266 220.881495 
L 202.690266 217.989667 
" clip-path="url(#p5005c6062b)" style="fill: none; stroke: #ff7f0e; stroke-width: 1.5"/>
    <path d="M 204.854935 222.386194 
L 204.854935 219.691451 
" clip-path="url(#p5005c6062b)" style="fill: none; stroke: #ff7f0e; stroke-width: 1.5"/>
    <path d="M 207.019604 221.124955 
L 207.019604 218.264035 
" clip-path="url(#p5005c6062b)" style="fill: none; stroke: #ff7f0e; stroke-width: 1.5"/>
    <path d="M 209.184272 222.405981 
L 209.184272 219.713933 
" clip-path="url(#p5005c6062b)" style="fill: none; stroke: #ff7f0e; stroke-width: 1.5"/>
    <path d="M 211.348941 221.965765 
L 211.348941 219.214439 
" clip-path="url(#p5005c6062b)" style="fill: none; stroke: #ff7f0e; stroke-width: 1.5"/>
    <path d="M 213.51361 218.319273 
L 213.51361 215.121237 
" clip-path="url(#p5005c6062b)" style="fill: none; stroke: #ff7f0e; stroke-width: 1.5"/>
    <path d="M 215.678278 218.941405 
L 215.678278 215.814801 
" clip-path="url(#p5005c6062b)" style="fill: none; stroke: #ff7f0e; stroke-width: 1.5"/>
    <path d="M 217.842947 216.41622 
L 217.842947 213.009457 
" clip-path="url(#p5005c6062b)" style="fill: none; stroke: #ff7f0e; stroke-width: 1.5"/>
    <path d="M 220.007616 215.702653 
L 220.007616 212.221017 
" clip-path="url(#p5005c6062b)" style="fill: none; stroke: #ff7f0e; stroke-width: 1.5"/>
    <path d="M 222.172285 211.000804 
L 222.172285 207.062849 
" clip-path="url(#p5005c6062b)" style="fill: none; stroke: #ff7f0e; stroke-width: 1.5"/>
    <path d="M 224.336953 212.242843 
L 224.336953 208.419882 
" clip-path="url(#p5005c6062b)" style="fill: none; stroke: #ff7f0e; stroke-width: 1.5"/>
    <path d="M 226.501622 211.318277 
L 226.501622 207.409379 
" clip-path="url(#p5005c6062b)" style="fill: none; stroke: #ff7f0e; stroke-width: 1.5"/>
    <path d="M 228.666291 210.77724 
L 228.666291 206.818958 
" clip-path="url(#p5005c6062b)" style="fill: none; stroke: #ff7f0e; stroke-width: 1.5"/>
    <path d="M 230.830959 211.177064 
L 230.830959 207.255213 
" clip-path="url(#p5005c6062b)" style="fill: none; stroke: #ff7f0e; stroke-width: 1.5"/>
    <path d="M 232.995628 210.000972 
L 232.995628 205.972938 
" clip-path="url(#p5005c6062b)" style="fill: none; stroke: #ff7f0e; stroke-width: 1.5"/>
    <path d="M 235.160297 212.321687 
L 235.160297 208.506148 
" clip-path="url(#p5005c6062b)" style="fill: none; stroke: #ff7f0e; stroke-width: 1.5"/>
    <path d="M 237.324966 208.318393 
L 237.324966 204.143341 
" clip-path="url(#p5005c6062b)" style="fill: none; stroke: #ff7f0e; stroke-width: 1.5"/>
    <path d="M 239.489634 213.102325 
L 239.489634 209.361107 
" clip-path="url(#p5005c6062b)" style="fill: none; stroke: #ff7f0e; stroke-width: 1.5"/>
    <path d="M 241.654303 209.987841 
L 241.654303 205.958638 
" clip-path="url(#p5005c6062b)" style="fill: none; stroke: #ff7f0e; stroke-width: 1.5"/>
    <path d="M 243.818972 209.168456 
L 243.818972 205.066992 
" clip-path="url(#p5005c6062b)" style="fill: none; stroke: #ff7f0e; stroke-width: 1.5"/>
    <path d="M 245.98364 211.272805 
L 245.98364 207.359731 
" clip-path="url(#p5005c6062b)" style="fill: none; stroke: #ff7f0e; stroke-width: 1.5"/>
    <path d="M 248.148309 211.069547 
L 248.148309 207.137864 
" clip-path="url(#p5005c6062b)" style="fill: none; stroke: #ff7f0e; stroke-width: 1.5"/>
    <path d="M 250.312978 212.180851 
L 250.312978 208.352065 
" clip-path="url(#p5005c6062b)" style="fill: none; stroke: #ff7f0e; stroke-width: 1.5"/>
    <path d="M 252.477647 217.095984 
L 252.477647 213.762196 
" clip-path="url(#p5005c6062b)" style="fill: none; stroke: #ff7f0e; stroke-width: 1.5"/>
    <path d="M 254.642315 220.092293 
L 254.642315 217.1026 
" clip-path="url(#p5005c6062b)" style="fill: none; stroke: #ff7f0e; stroke-width: 1.5"/>
    <path d="M 256.806984 216.701648 
L 256.806984 213.325325 
" clip-path="url(#p5005c6062b)" style="fill: none; stroke: #ff7f0e; stroke-width: 1.5"/>
    <path d="M 258.971653 219.331919 
L 258.971653 216.251048 
" clip-path="url(#p5005c6062b)" style="fill: none; stroke: #ff7f0e; stroke-width: 1.5"/>
    <path d="M 261.136321 222.082854 
L 261.136321 219.34716 
" clip-path="url(#p5005c6062b)" style="fill: none; stroke: #ff7f0e; stroke-width: 1.5"/>
    <path d="M 263.30099 221.257237 
L 263.30099 218.413262 
" clip-path="url(#p5005c6062b)" style="fill: none; stroke: #ff7f0e; stroke-width: 1.5"/>
    <path d="M 265.465659 223.807789 
L 265.465659 221.314568 
" clip-path="url(#p5005c6062b)" style="fill: none; stroke: #ff7f0e; stroke-width: 1.5"/>
    <path d="M 267.630327 223.309526 
L 267.630327 220.743741 
" clip-path="url(#p5005c6062b)" style="fill: none; stroke: #ff7f0e; stroke-width: 1.5"/>
    <path d="M 269.794996 224.068918 
L 269.794996 221.614647 
" clip-path="url(#p5005c6062b)" style="fill: none; stroke: #ff7f0e; stroke-width: 1.5"/>
    <path d="M 271.959665 225.453214 
L 271.959665 223.217666 
" clip-path="url(#p5005c6062b)" style="fill: none; stroke: #ff7f0e; stroke-width: 1.5"/>
    <path d="M 274.124334 223.336442 
L 274.124334 220.77452 
" clip-path="url(#p5005c6062b)" style="fill: none; stroke: #ff7f0e; stroke-width: 1.5"/>
    <path d="M 276.289002 225.314144 
L 276.289002 223.055586 
" clip-path="url(#p5005c6062b)" style="fill: none; stroke: #ff7f0e; stroke-width: 1.5"/>
    <path d="M 278.453671 223.551245 
L 278.453671 221.020383 
" clip-path="url(#p5005c6062b)" style="fill: none; stroke: #ff7f0e; stroke-width: 1.5"/>
    <path d="M 280.61834 223.783259 
L 280.61834 221.286412 
" clip-path="url(#p5005c6062b)" style="fill: none; stroke: #ff7f0e; stroke-width: 1.5"/>
    <path d="M 282.783008 224.994758 
L 282.783008 222.684294 
" clip-path="url(#p5005c6062b)" style="fill: none; stroke: #ff7f0e; stroke-width: 1.5"/>
    <path d="M 284.947677 228.658232 
L 284.947677 227.051811 
" clip-path="url(#p5005c6062b)" style="fill: none; stroke: #ff7f0e; stroke-width: 1.5"/>
    <path d="M 287.112346 229.307028 
L 287.112346 227.865342 
" clip-path="url(#p5005c6062b)" style="fill: none; stroke: #ff7f0e; stroke-width: 1.5"/>
    <path d="M 289.277015 227.639859 
L 289.277015 225.8075 
" clip-path="url(#p5005c6062b)" style="fill: none; stroke: #ff7f0e; stroke-width: 1.5"/>
    <path d="M 291.441683 228.180241 
L 291.441683 226.463652 
" clip-path="url(#p5005c6062b)" style="fill: none; stroke: #ff7f0e; stroke-width: 1.5"/>
    <path d="M 293.606352 229.311963 
L 293.606352 227.871613 
" clip-path="url(#p5005c6062b)" style="fill: none; stroke: #ff7f0e; stroke-width: 1.5"/>
    <path d="M 295.771021 227.995671 
L 295.771021 226.238589 
" clip-path="url(#p5005c6062b)" style="fill: none; stroke: #ff7f0e; stroke-width: 1.5"/>
    <path d="M 297.935689 229.839163 
L 297.935689 228.550582 
" clip-path="url(#p5005c6062b)" style="fill: none; stroke: #ff7f0e; stroke-width: 1.5"/>
    <path d="M 300.100358 228.848933 
L 300.100358 227.288903 
" clip-path="url(#p5005c6062b)" style="fill: none; stroke: #ff7f0e; stroke-width: 1.5"/>
    <path d="M 302.265027 229.393592 
L 302.265027 227.97553 
" clip-path="url(#p5005c6062b)" style="fill: none; stroke: #ff7f0e; stroke-width: 1.5"/>
    <path d="M 304.429696 228.820386 
L 304.429696 227.253313 
" clip-path="url(#p5005c6062b)" style="fill: none; stroke: #ff7f0e; stroke-width: 1.5"/>
    <path d="M 306.594364 229.520895 
L 306.594364 228.138414 
" clip-path="url(#p5005c6062b)" style="fill: none; stroke: #ff7f0e; stroke-width: 1.5"/>
    <path d="M 308.759033 229.649497 
L 308.759033 228.304053 
" clip-path="url(#p5005c6062b)" style="fill: none; stroke: #ff7f0e; stroke-width: 1.5"/>
    <path d="M 310.923702 229.64165 
L 310.923702 228.293913 
" clip-path="url(#p5005c6062b)" style="fill: none; stroke: #ff7f0e; stroke-width: 1.5"/>
    <path d="M 313.08837 229.303535 
L 313.08837 227.860905 
" clip-path="url(#p5005c6062b)" style="fill: none; stroke: #ff7f0e; stroke-width: 1.5"/>
    <path d="M 315.253039 229.644235 
L 315.253039 228.297253 
" clip-path="url(#p5005c6062b)" style="fill: none; stroke: #ff7f0e; stroke-width: 1.5"/>
    <path d="M 317.417708 231.443766 
L 317.417708 230.890661 
" clip-path="url(#p5005c6062b)" style="fill: none; stroke: #ff7f0e; stroke-width: 1.5"/>
    <path d="M 319.582377 229.538181 
L 319.582377 228.160612 
" clip-path="url(#p5005c6062b)" style="fill: none; stroke: #ff7f0e; stroke-width: 1.5"/>
    <path d="M 321.747045 229.353746 
L 321.747045 227.924755 
" clip-path="url(#p5005c6062b)" style="fill: none; stroke: #ff7f0e; stroke-width: 1.5"/>
    <path d="M 323.911714 228.997429 
L 323.911714 227.474625 
" clip-path="url(#p5005c6062b)" style="fill: none; stroke: #ff7f0e; stroke-width: 1.5"/>
    <path d="M 326.076383 230.136013 
L 326.076383 228.942765 
" clip-path="url(#p5005c6062b)" style="fill: none; stroke: #ff7f0e; stroke-width: 1.5"/>
    <path d="M 328.241051 230.808466 
L 328.241051 229.874037 
" clip-path="url(#p5005c6062b)" style="fill: none; stroke: #ff7f0e; stroke-width: 1.5"/>
    <path d="M 330.40572 231.428417 
L 330.40572 230.861733 
" clip-path="url(#p5005c6062b)" style="fill: none; stroke: #ff7f0e; stroke-width: 1.5"/>
    <path d="M 332.570389 230.773417 
L 332.570389 229.823368 
" clip-path="url(#p5005c6062b)" style="fill: none; stroke: #ff7f0e; stroke-width: 1.5"/>
    <path d="M 334.735058 230.647566 
L 334.735058 229.643848 
" clip-path="url(#p5005c6062b)" style="fill: none; stroke: #ff7f0e; stroke-width: 1.5"/>
    <path d="M 336.899726 231.181475 
L 336.899726 230.439165 
" clip-path="url(#p5005c6062b)" style="fill: none; stroke: #ff7f0e; stroke-width: 1.5"/>
    <path d="M 339.064395 230.875264 
L 339.064395 229.971523 
" clip-path="url(#p5005c6062b)" style="fill: none; stroke: #ff7f0e; stroke-width: 1.5"/>
    <path d="M 341.229064 230.428376 
L 341.229064 229.338645 
" clip-path="url(#p5005c6062b)" style="fill: none; stroke: #ff7f0e; stroke-width: 1.5"/>
    <path d="M 343.393732 231.602921 
L 343.393732 231.241024 
" clip-path="url(#p5005c6062b)" style="fill: none; stroke: #ff7f0e; stroke-width: 1.5"/>
    <path d="M 345.558401 230.078642 
L 345.558401 228.866289 
" clip-path="url(#p5005c6062b)" style="fill: none; stroke: #ff7f0e; stroke-width: 1.5"/>
    <path d="M 347.72307 230.261933 
L 347.72307 229.111926 
" clip-path="url(#p5005c6062b)" style="fill: none; stroke: #ff7f0e; stroke-width: 1.5"/>
    <path d="M 349.887739 230.358308 
L 349.887739 229.242732 
" clip-path="url(#p5005c6062b)" style="fill: none; stroke: #ff7f0e; stroke-width: 1.5"/>
    <path d="M 352.052407 230.428438 
L 352.052407 229.33873 
" clip-path="url(#p5005c6062b)" style="fill: none; stroke: #ff7f0e; stroke-width: 1.5"/>
    <path d="M 354.217076 231.650845 
L 354.217076 231.421997 
" clip-path="url(#p5005c6062b)" style="fill: none; stroke: #ff7f0e; stroke-width: 1.5"/>
    <path d="M 356.381745 230.961679 
L 356.381745 230.099661 
" clip-path="url(#p5005c6062b)" style="fill: none; stroke: #ff7f0e; stroke-width: 1.5"/>
    <path d="M 358.546413 230.838251 
L 358.546413 229.91735 
" clip-path="url(#p5005c6062b)" style="fill: none; stroke: #ff7f0e; stroke-width: 1.5"/>
    <path d="M 360.711082 231.162036 
L 360.711082 230.408146 
" clip-path="url(#p5005c6062b)" style="fill: none; stroke: #ff7f0e; stroke-width: 1.5"/>
    <path d="M 362.875751 231.641959 
L 362.875751 231.373474 
" clip-path="url(#p5005c6062b)" style="fill: none; stroke: #ff7f0e; stroke-width: 1.5"/>
    <path d="M 365.04042 230.85316 
L 365.04042 229.939123 
" clip-path="url(#p5005c6062b)" style="fill: none; stroke: #ff7f0e; stroke-width: 1.5"/>
    <path d="M 367.205088 231.294808 
L 367.205088 230.625347 
" clip-path="url(#p5005c6062b)" style="fill: none; stroke: #ff7f0e; stroke-width: 1.5"/>
    <path d="M 369.369757 229.405399 
L 369.369757 227.990595 
" clip-path="url(#p5005c6062b)" style="fill: none; stroke: #ff7f0e; stroke-width: 1.5"/>
    <path d="M 371.534426 230.816372 
L 371.534426 229.88551 
" clip-path="url(#p5005c6062b)" style="fill: none; stroke: #ff7f0e; stroke-width: 1.5"/>
    <path d="M 373.699094 230.421705 
L 373.699094 229.329482 
" clip-path="url(#p5005c6062b)" style="fill: none; stroke: #ff7f0e; stroke-width: 1.5"/>
    <path d="M 375.863763 231.075674 
L 375.863763 230.272901 
" clip-path="url(#p5005c6062b)" style="fill: none; stroke: #ff7f0e; stroke-width: 1.5"/>
    <path d="M 378.028432 230.288859 
L 378.028432 229.148349 
" clip-path="url(#p5005c6062b)" style="fill: none; stroke: #ff7f0e; stroke-width: 1.5"/>
    <path d="M 380.193101 231.256131 
L 380.193101 230.560668 
" clip-path="url(#p5005c6062b)" style="fill: none; stroke: #ff7f0e; stroke-width: 1.5"/>
    <path d="M 382.357769 231.655287 
L 382.357769 231.468865 
" clip-path="url(#p5005c6062b)" style="fill: none; stroke: #ff7f0e; stroke-width: 1.5"/>
    <path d="M 384.522438 231.057055 
L 384.522438 230.244231 
" clip-path="url(#p5005c6062b)" style="fill: none; stroke: #ff7f0e; stroke-width: 1.5"/>
    <path d="M 386.687107 231.133655 
L 386.687107 230.363261 
" clip-path="url(#p5005c6062b)" style="fill: none; stroke: #ff7f0e; stroke-width: 1.5"/>
    <path d="M 388.851775 230.902166 
L 388.851775 230.011154 
" clip-path="url(#p5005c6062b)" style="fill: none; stroke: #ff7f0e; stroke-width: 1.5"/>
    <path d="M 391.016444 231.503808 
L 391.016444 231.00925 
" clip-path="url(#p5005c6062b)" style="fill: none; stroke: #ff7f0e; stroke-width: 1.5"/>
    <path d="M 393.181113 231.2269 
L 393.181113 230.512613 
" clip-path="url(#p5005c6062b)" style="fill: none; stroke: #ff7f0e; stroke-width: 1.5"/>
   </g>
   <g id="line2d_22">
    <path d="M 72.778121 231.61268 
L 81.436796 231.61268 
L 81.436796 231.342655 
L 83.601465 231.342655 
L 83.601465 231.181259 
L 85.766133 231.181259 
L 85.766133 230.770879 
L 87.930802 230.770879 
L 87.930802 230.918382 
L 90.095471 230.918382 
L 90.095471 231.368416 
L 94.424808 231.285093 
L 94.424808 231.051606 
L 96.589477 231.051606 
L 96.589477 231.355489 
L 98.754146 231.355489 
L 98.754146 230.568817 
L 100.918814 230.568817 
L 100.918814 230.028658 
L 103.083483 230.028658 
L 103.083483 229.810437 
L 105.248152 229.810437 
L 105.248152 231.423915 
L 107.41282 231.423915 
L 107.41282 231.287527 
L 111.742158 231.384357 
L 111.742158 231.042821 
L 113.906827 231.042821 
L 113.906827 230.349247 
L 116.071495 230.349247 
L 116.071495 231.17502 
L 118.236164 231.17502 
L 118.236164 230.574471 
L 120.400833 230.574471 
L 120.400833 230.990444 
L 124.73017 230.926749 
L 124.73017 230.357868 
L 126.894839 230.357868 
L 126.894839 230.958393 
L 129.059508 230.958393 
L 129.059508 231.15047 
L 131.224176 231.15047 
L 131.224176 230.091897 
L 133.388845 230.091897 
L 133.388845 230.778063 
L 135.553514 230.778063 
L 135.553514 230.150441 
L 137.718182 230.150441 
L 137.718182 230.931628 
L 139.882851 230.931628 
L 139.882851 230.00971 
L 142.04752 230.00971 
L 142.04752 230.506705 
L 144.212189 230.506705 
L 144.212189 229.86064 
L 146.376857 229.86064 
L 146.376857 230.049187 
L 148.541526 230.049187 
L 148.541526 230.410421 
L 150.706195 230.410421 
L 150.706195 231.149175 
L 152.870863 231.149175 
L 152.870863 231.026384 
L 155.035532 231.026384 
L 155.035532 230.407648 
L 159.36487 230.401079 
L 159.36487 230.535495 
L 161.529538 230.535495 
L 161.529538 231.324979 
L 163.694207 231.324979 
L 163.694207 230.332655 
L 165.858876 230.332655 
L 165.858876 229.900812 
L 168.023544 229.900812 
L 168.023544 230.811243 
L 170.188213 230.811243 
L 170.188213 229.422334 
L 172.352882 229.422334 
L 172.352882 229.284538 
L 174.517551 229.284538 
L 174.517551 228.828948 
L 176.682219 228.828948 
L 176.682219 229.424456 
L 178.846888 229.424456 
L 178.846888 229.793652 
L 181.011557 229.793652 
L 181.011557 226.805164 
L 183.176225 226.805164 
L 183.176225 228.083019 
L 185.340894 228.083019 
L 185.340894 227.121045 
L 187.505563 227.121045 
L 187.505563 226.992677 
L 189.670231 226.992677 
L 189.670231 227.604665 
L 191.8349 227.604665 
L 191.8349 226.906258 
L 193.999569 226.906258 
L 193.999569 225.815239 
L 196.164238 225.815239 
L 196.164238 227.594695 
L 198.328906 227.594695 
L 198.328906 225.003988 
L 200.493575 225.003988 
L 200.493575 223.341435 
L 202.658244 223.341435 
L 202.658244 221.573786 
L 204.822912 221.573786 
L 204.822912 221.325892 
L 209.15225 221.242561 
L 209.15225 221.179578 
L 211.316919 221.179578 
L 211.316919 220.451195 
L 213.481587 220.451195 
L 213.481587 216.489856 
L 215.646256 216.489856 
L 215.646256 214.185622 
L 217.810925 214.185622 
L 217.810925 215.138071 
L 219.975593 215.138071 
L 219.975593 213.690673 
L 222.140262 213.690673 
L 222.140262 206.194536 
L 224.304931 206.194536 
L 224.304931 199.885327 
L 226.4696 199.885327 
L 226.4696 196.607961 
L 228.634268 196.607961 
L 228.634268 199.664766 
L 230.798937 199.664766 
L 230.798937 191.624451 
L 232.963606 191.624451 
L 232.963606 196.489353 
L 235.128274 196.489353 
L 235.128274 194.906091 
L 237.292943 194.906091 
L 237.292943 193.36064 
L 239.457612 193.36064 
L 239.457612 192.090216 
L 241.622281 192.090216 
L 241.622281 197.615251 
L 243.786949 197.615251 
L 243.786949 197.251761 
L 245.951618 197.251761 
L 245.951618 202.478315 
L 248.116287 202.478315 
L 248.116287 208.196405 
L 250.280955 208.196405 
L 250.280955 207.307731 
L 252.445624 207.307731 
L 252.445624 213.486383 
L 254.610293 213.486383 
L 254.610293 213.832367 
L 256.774962 213.832367 
L 256.774962 220.51799 
L 258.93963 220.51799 
L 258.93963 218.839935 
L 261.104299 218.839935 
L 261.104299 220.532266 
L 263.268968 220.532266 
L 263.268968 224.063353 
L 265.433636 224.063353 
L 265.433636 219.795309 
L 267.598305 219.795309 
L 267.598305 225.525845 
L 269.762974 225.525845 
L 269.762974 223.060766 
L 271.927643 223.060766 
L 271.927643 225.162528 
L 274.092311 225.162528 
L 274.092311 226.541228 
L 276.25698 226.541228 
L 276.25698 224.304045 
L 278.421649 224.304045 
L 278.421649 226.619761 
L 280.586317 226.619761 
L 280.586317 226.929594 
L 282.750986 226.929594 
L 282.750986 227.868986 
L 284.915655 227.868986 
L 284.915655 227.331357 
L 287.080324 227.331357 
L 287.080324 228.003808 
L 289.244992 228.003808 
L 289.244992 228.566165 
L 291.409661 228.566165 
L 291.409661 228.37487 
L 293.57433 228.37487 
L 293.57433 229.905123 
L 295.738998 229.905123 
L 295.738998 229.014724 
L 297.903667 229.014724 
L 297.903667 228.809815 
L 300.068336 228.809815 
L 300.068336 228.940581 
L 302.233005 228.940581 
L 302.233005 229.358374 
L 304.397673 229.358374 
L 304.397673 228.907863 
L 306.562342 228.907863 
L 306.562342 228.508969 
L 308.727011 228.508969 
L 308.727011 229.509746 
L 310.891679 229.509746 
L 310.891679 230.347332 
L 313.056348 230.347332 
L 313.056348 229.57937 
L 317.385686 229.538717 
L 317.385686 230.859907 
L 319.550354 230.859907 
L 319.550354 230.069772 
L 321.715023 230.069772 
L 321.715023 230.509613 
L 323.879692 230.509613 
L 323.879692 230.916191 
L 326.04436 230.916191 
L 326.04436 230.510402 
L 330.373698 230.407828 
L 330.373698 230.890259 
L 332.538366 230.890259 
L 332.538366 231.304729 
L 334.703035 231.304729 
L 334.703035 230.495149 
L 336.867704 230.495149 
L 336.867704 231.225751 
L 339.032373 231.225751 
L 339.032373 230.978642 
L 341.197041 230.978642 
L 341.197041 230.30247 
L 343.36171 230.30247 
L 343.36171 231.15745 
L 345.526379 231.15745 
L 345.526379 231.307072 
L 347.691047 231.307072 
L 347.691047 229.528921 
L 349.855716 229.528921 
L 349.855716 230.959419 
L 352.020385 230.959419 
L 352.020385 230.617547 
L 354.185054 230.617547 
L 354.185054 229.647209 
L 356.349722 229.647209 
L 356.349722 231.491084 
L 358.514391 231.491084 
L 358.514391 231.246137 
L 360.67906 231.246137 
L 360.67906 230.365348 
L 362.843728 230.365348 
L 362.843728 230.714155 
L 365.008397 230.714155 
L 365.008397 230.529922 
L 367.173066 230.529922 
L 367.173066 230.733649 
L 369.337735 230.733649 
L 369.337735 231.61268 
L 371.502403 231.61268 
L 371.502403 230.946384 
L 375.831741 230.963391 
L 375.831741 230.49036 
L 380.161078 230.57544 
L 380.161078 231.300739 
L 382.325747 231.300739 
L 382.325747 231.108693 
L 384.490416 231.108693 
L 384.490416 231.269385 
L 386.655084 231.269385 
L 386.655084 231.132553 
L 388.819753 231.132553 
L 388.819753 231.435801 
L 393.14909 231.421494 
L 393.14909 231.612428 
L 395.313759 231.612428 
L 395.313759 231.612428 
" clip-path="url(#p5005c6062b)" style="fill: none; stroke: #2ca02c; stroke-width: 1.5; stroke-linecap: square"/>
   </g>
   <g id="LineCollection_3">
    <path d="M 73.860455 231.612683 
L 73.860455 231.612678 
" clip-path="url(#p5005c6062b)" style="fill: none; stroke: #2ca02c; stroke-width: 1.5"/>
    <path d="M 76.025124 231.613561 
L 76.025124 231.611791 
" clip-path="url(#p5005c6062b)" style="fill: none; stroke: #2ca02c; stroke-width: 1.5"/>
    <path d="M 78.189793 231.61268 
L 78.189793 231.61268 
" clip-path="url(#p5005c6062b)" style="fill: none; stroke: #2ca02c; stroke-width: 1.5"/>
    <path d="M 80.354462 231.612771 
L 80.354462 231.61259 
" clip-path="url(#p5005c6062b)" style="fill: none; stroke: #2ca02c; stroke-width: 1.5"/>
    <path d="M 82.51913 231.55797 
L 82.51913 231.127341 
" clip-path="url(#p5005c6062b)" style="fill: none; stroke: #2ca02c; stroke-width: 1.5"/>
    <path d="M 84.683799 231.453417 
L 84.683799 230.909101 
" clip-path="url(#p5005c6062b)" style="fill: none; stroke: #2ca02c; stroke-width: 1.5"/>
    <path d="M 86.848468 231.151047 
L 86.848468 230.390711 
" clip-path="url(#p5005c6062b)" style="fill: none; stroke: #2ca02c; stroke-width: 1.5"/>
    <path d="M 89.013136 231.26364 
L 89.013136 230.573124 
" clip-path="url(#p5005c6062b)" style="fill: none; stroke: #2ca02c; stroke-width: 1.5"/>
    <path d="M 91.177805 231.573202 
L 91.177805 231.16363 
" clip-path="url(#p5005c6062b)" style="fill: none; stroke: #2ca02c; stroke-width: 1.5"/>
    <path d="M 93.342474 231.522249 
L 93.342474 231.047937 
" clip-path="url(#p5005c6062b)" style="fill: none; stroke: #2ca02c; stroke-width: 1.5"/>
    <path d="M 95.507143 231.361977 
L 95.507143 230.741235 
" clip-path="url(#p5005c6062b)" style="fill: none; stroke: #2ca02c; stroke-width: 1.5"/>
    <path d="M 97.671811 231.565624 
L 97.671811 231.145354 
" clip-path="url(#p5005c6062b)" style="fill: none; stroke: #2ca02c; stroke-width: 1.5"/>
    <path d="M 99.83648 230.99216 
L 99.83648 230.145474 
" clip-path="url(#p5005c6062b)" style="fill: none; stroke: #2ca02c; stroke-width: 1.5"/>
    <path d="M 102.001149 230.550154 
L 102.001149 229.507162 
" clip-path="url(#p5005c6062b)" style="fill: none; stroke: #2ca02c; stroke-width: 1.5"/>
    <path d="M 104.165817 230.366696 
L 104.165817 229.254177 
" clip-path="url(#p5005c6062b)" style="fill: none; stroke: #2ca02c; stroke-width: 1.5"/>
    <path d="M 106.330486 231.60394 
L 106.330486 231.24389 
" clip-path="url(#p5005c6062b)" style="fill: none; stroke: #2ca02c; stroke-width: 1.5"/>
    <path d="M 108.495155 231.5238 
L 108.495155 231.051254 
" clip-path="url(#p5005c6062b)" style="fill: none; stroke: #2ca02c; stroke-width: 1.5"/>
    <path d="M 110.659824 231.582348 
L 110.659824 231.186366 
" clip-path="url(#p5005c6062b)" style="fill: none; stroke: #2ca02c; stroke-width: 1.5"/>
    <path d="M 112.824492 231.355612 
L 112.824492 230.73003 
" clip-path="url(#p5005c6062b)" style="fill: none; stroke: #2ca02c; stroke-width: 1.5"/>
    <path d="M 114.989161 230.814991 
L 114.989161 229.883504 
" clip-path="url(#p5005c6062b)" style="fill: none; stroke: #2ca02c; stroke-width: 1.5"/>
    <path d="M 117.15383 231.449139 
L 117.15383 230.900902 
" clip-path="url(#p5005c6062b)" style="fill: none; stroke: #2ca02c; stroke-width: 1.5"/>
    <path d="M 119.318498 230.996666 
L 119.318498 230.152277 
" clip-path="url(#p5005c6062b)" style="fill: none; stroke: #2ca02c; stroke-width: 1.5"/>
    <path d="M 121.483167 231.317294 
L 121.483167 230.663594 
" clip-path="url(#p5005c6062b)" style="fill: none; stroke: #2ca02c; stroke-width: 1.5"/>
    <path d="M 123.647836 231.26992 
L 123.647836 230.583577 
" clip-path="url(#p5005c6062b)" style="fill: none; stroke: #2ca02c; stroke-width: 1.5"/>
    <path d="M 125.812504 230.82202 
L 125.812504 229.893716 
" clip-path="url(#p5005c6062b)" style="fill: none; stroke: #2ca02c; stroke-width: 1.5"/>
    <path d="M 127.977173 231.293555 
L 127.977173 230.62323 
" clip-path="url(#p5005c6062b)" style="fill: none; stroke: #2ca02c; stroke-width: 1.5"/>
    <path d="M 130.141842 231.432172 
L 130.141842 230.868768 
" clip-path="url(#p5005c6062b)" style="fill: none; stroke: #2ca02c; stroke-width: 1.5"/>
    <path d="M 132.306511 230.602878 
L 132.306511 229.580917 
" clip-path="url(#p5005c6062b)" style="fill: none; stroke: #2ca02c; stroke-width: 1.5"/>
    <path d="M 134.471179 231.156606 
L 134.471179 230.399521 
" clip-path="url(#p5005c6062b)" style="fill: none; stroke: #2ca02c; stroke-width: 1.5"/>
    <path d="M 136.635848 230.65149 
L 136.635848 229.649393 
" clip-path="url(#p5005c6062b)" style="fill: none; stroke: #2ca02c; stroke-width: 1.5"/>
    <path d="M 138.800517 231.273577 
L 138.800517 230.58968 
" clip-path="url(#p5005c6062b)" style="fill: none; stroke: #2ca02c; stroke-width: 1.5"/>
    <path d="M 140.965185 230.534316 
L 140.965185 229.485104 
" clip-path="url(#p5005c6062b)" style="fill: none; stroke: #2ca02c; stroke-width: 1.5"/>
    <path d="M 143.129854 230.942461 
L 143.129854 230.070949 
" clip-path="url(#p5005c6062b)" style="fill: none; stroke: #2ca02c; stroke-width: 1.5"/>
    <path d="M 145.294523 230.409097 
L 145.294523 229.312182 
" clip-path="url(#p5005c6062b)" style="fill: none; stroke: #2ca02c; stroke-width: 1.5"/>
    <path d="M 147.459192 230.567293 
L 147.459192 229.531081 
" clip-path="url(#p5005c6062b)" style="fill: none; stroke: #2ca02c; stroke-width: 1.5"/>
    <path d="M 149.62386 230.864749 
L 149.62386 229.956093 
" clip-path="url(#p5005c6062b)" style="fill: none; stroke: #2ca02c; stroke-width: 1.5"/>
    <path d="M 151.788529 231.431272 
L 151.788529 230.867078 
" clip-path="url(#p5005c6062b)" style="fill: none; stroke: #2ca02c; stroke-width: 1.5"/>
    <path d="M 153.953198 231.343654 
L 153.953198 230.709114 
" clip-path="url(#p5005c6062b)" style="fill: none; stroke: #2ca02c; stroke-width: 1.5"/>
    <path d="M 156.117866 230.8625 
L 156.117866 229.952796 
" clip-path="url(#p5005c6062b)" style="fill: none; stroke: #2ca02c; stroke-width: 1.5"/>
    <path d="M 158.282535 230.857169 
L 158.282535 229.944989 
" clip-path="url(#p5005c6062b)" style="fill: none; stroke: #2ca02c; stroke-width: 1.5"/>
    <path d="M 160.447204 230.965542 
L 160.447204 230.105449 
" clip-path="url(#p5005c6062b)" style="fill: none; stroke: #2ca02c; stroke-width: 1.5"/>
    <path d="M 162.611873 231.547229 
L 162.611873 231.102729 
" clip-path="url(#p5005c6062b)" style="fill: none; stroke: #2ca02c; stroke-width: 1.5"/>
    <path d="M 164.776541 230.801447 
L 164.776541 229.863864 
" clip-path="url(#p5005c6062b)" style="fill: none; stroke: #2ca02c; stroke-width: 1.5"/>
    <path d="M 166.94121 230.442945 
L 166.94121 229.358679 
" clip-path="url(#p5005c6062b)" style="fill: none; stroke: #2ca02c; stroke-width: 1.5"/>
    <path d="M 169.105879 231.182185 
L 169.105879 230.440302 
" clip-path="url(#p5005c6062b)" style="fill: none; stroke: #2ca02c; stroke-width: 1.5"/>
    <path d="M 171.270547 230.035569 
L 171.270547 228.809099 
" clip-path="url(#p5005c6062b)" style="fill: none; stroke: #2ca02c; stroke-width: 1.5"/>
    <path d="M 173.435216 229.916769 
L 173.435216 228.652308 
" clip-path="url(#p5005c6062b)" style="fill: none; stroke: #2ca02c; stroke-width: 1.5"/>
    <path d="M 175.599885 229.520276 
L 175.599885 228.13762 
" clip-path="url(#p5005c6062b)" style="fill: none; stroke: #2ca02c; stroke-width: 1.5"/>
    <path d="M 177.764554 230.037394 
L 177.764554 228.811518 
" clip-path="url(#p5005c6062b)" style="fill: none; stroke: #2ca02c; stroke-width: 1.5"/>
    <path d="M 179.929222 230.352496 
L 179.929222 229.234809 
" clip-path="url(#p5005c6062b)" style="fill: none; stroke: #2ca02c; stroke-width: 1.5"/>
    <path d="M 182.093891 227.713676 
L 182.093891 225.896651 
" clip-path="url(#p5005c6062b)" style="fill: none; stroke: #2ca02c; stroke-width: 1.5"/>
    <path d="M 184.25856 228.861481 
L 184.25856 227.304558 
" clip-path="url(#p5005c6062b)" style="fill: none; stroke: #2ca02c; stroke-width: 1.5"/>
    <path d="M 186.423228 227.999203 
L 186.423228 226.242886 
" clip-path="url(#p5005c6062b)" style="fill: none; stroke: #2ca02c; stroke-width: 1.5"/>
    <path d="M 188.587897 227.883295 
L 188.587897 226.102058 
" clip-path="url(#p5005c6062b)" style="fill: none; stroke: #2ca02c; stroke-width: 1.5"/>
    <path d="M 190.752566 228.434201 
L 190.752566 226.775129 
" clip-path="url(#p5005c6062b)" style="fill: none; stroke: #2ca02c; stroke-width: 1.5"/>
    <path d="M 192.917235 227.805168 
L 192.917235 226.007348 
" clip-path="url(#p5005c6062b)" style="fill: none; stroke: #2ca02c; stroke-width: 1.5"/>
    <path d="M 195.081903 226.812913 
L 195.081903 224.817565 
" clip-path="url(#p5005c6062b)" style="fill: none; stroke: #2ca02c; stroke-width: 1.5"/>
    <path d="M 197.246572 228.425262 
L 197.246572 226.764128 
" clip-path="url(#p5005c6062b)" style="fill: none; stroke: #2ca02c; stroke-width: 1.5"/>
    <path d="M 199.411241 226.069181 
L 199.411241 223.938795 
" clip-path="url(#p5005c6062b)" style="fill: none; stroke: #2ca02c; stroke-width: 1.5"/>
    <path d="M 201.575909 224.533105 
L 201.575909 222.149765 
" clip-path="url(#p5005c6062b)" style="fill: none; stroke: #2ca02c; stroke-width: 1.5"/>
    <path d="M 203.740578 222.886631 
L 203.740578 220.260941 
" clip-path="url(#p5005c6062b)" style="fill: none; stroke: #2ca02c; stroke-width: 1.5"/>
    <path d="M 205.905247 222.654847 
L 205.905247 219.996936 
" clip-path="url(#p5005c6062b)" style="fill: none; stroke: #2ca02c; stroke-width: 1.5"/>
    <path d="M 208.069916 222.576889 
L 208.069916 219.908234 
" clip-path="url(#p5005c6062b)" style="fill: none; stroke: #2ca02c; stroke-width: 1.5"/>
    <path d="M 210.234584 222.517951 
L 210.234584 219.841204 
" clip-path="url(#p5005c6062b)" style="fill: none; stroke: #2ca02c; stroke-width: 1.5"/>
    <path d="M 212.399253 221.8355 
L 212.399253 219.066891 
" clip-path="url(#p5005c6062b)" style="fill: none; stroke: #2ca02c; stroke-width: 1.5"/>
    <path d="M 214.563922 218.101196 
L 214.563922 214.878517 
" clip-path="url(#p5005c6062b)" style="fill: none; stroke: #2ca02c; stroke-width: 1.5"/>
    <path d="M 216.72859 215.915369 
L 216.72859 212.455875 
" clip-path="url(#p5005c6062b)" style="fill: none; stroke: #2ca02c; stroke-width: 1.5"/>
    <path d="M 218.893259 216.819885 
L 218.893259 213.456256 
" clip-path="url(#p5005c6062b)" style="fill: none; stroke: #2ca02c; stroke-width: 1.5"/>
    <path d="M 221.057928 215.444812 
L 221.057928 211.936535 
" clip-path="url(#p5005c6062b)" style="fill: none; stroke: #2ca02c; stroke-width: 1.5"/>
    <path d="M 223.222597 208.283556 
L 223.222597 204.105517 
" clip-path="url(#p5005c6062b)" style="fill: none; stroke: #2ca02c; stroke-width: 1.5"/>
    <path d="M 225.387265 202.219256 
L 225.387265 197.551399 
" clip-path="url(#p5005c6062b)" style="fill: none; stroke: #2ca02c; stroke-width: 1.5"/>
    <path d="M 227.551934 199.059472 
L 227.551934 194.15645 
" clip-path="url(#p5005c6062b)" style="fill: none; stroke: #2ca02c; stroke-width: 1.5"/>
    <path d="M 229.716603 202.006792 
L 229.716603 197.322739 
" clip-path="url(#p5005c6062b)" style="fill: none; stroke: #2ca02c; stroke-width: 1.5"/>
    <path d="M 231.881271 194.244664 
L 231.881271 189.004238 
" clip-path="url(#p5005c6062b)" style="fill: none; stroke: #2ca02c; stroke-width: 1.5"/>
    <path d="M 234.04594 198.945014 
L 234.04594 194.033692 
" clip-path="url(#p5005c6062b)" style="fill: none; stroke: #2ca02c; stroke-width: 1.5"/>
    <path d="M 236.210609 197.416489 
L 236.210609 192.395693 
" clip-path="url(#p5005c6062b)" style="fill: none; stroke: #2ca02c; stroke-width: 1.5"/>
    <path d="M 238.375278 195.923341 
L 238.375278 190.79794 
" clip-path="url(#p5005c6062b)" style="fill: none; stroke: #2ca02c; stroke-width: 1.5"/>
    <path d="M 240.539946 194.695125 
L 240.539946 189.485307 
" clip-path="url(#p5005c6062b)" style="fill: none; stroke: #2ca02c; stroke-width: 1.5"/>
    <path d="M 242.704615 200.031232 
L 242.704615 195.199269 
" clip-path="url(#p5005c6062b)" style="fill: none; stroke: #2ca02c; stroke-width: 1.5"/>
    <path d="M 244.869284 199.680623 
L 244.869284 194.822898 
" clip-path="url(#p5005c6062b)" style="fill: none; stroke: #2ca02c; stroke-width: 1.5"/>
    <path d="M 247.033952 204.714838 
L 247.033952 200.241792 
" clip-path="url(#p5005c6062b)" style="fill: none; stroke: #2ca02c; stroke-width: 1.5"/>
    <path d="M 249.198621 210.201475 
L 249.198621 206.191335 
" clip-path="url(#p5005c6062b)" style="fill: none; stroke: #2ca02c; stroke-width: 1.5"/>
    <path d="M 251.36329 209.350493 
L 251.36329 205.264968 
" clip-path="url(#p5005c6062b)" style="fill: none; stroke: #2ca02c; stroke-width: 1.5"/>
    <path d="M 253.527958 215.25049 
L 253.527958 211.722275 
" clip-path="url(#p5005c6062b)" style="fill: none; stroke: #2ca02c; stroke-width: 1.5"/>
    <path d="M 255.692627 215.579557 
L 255.692627 212.085176 
" clip-path="url(#p5005c6062b)" style="fill: none; stroke: #2ca02c; stroke-width: 1.5"/>
    <path d="M 257.857296 221.898146 
L 257.857296 219.137835 
" clip-path="url(#p5005c6062b)" style="fill: none; stroke: #2ca02c; stroke-width: 1.5"/>
    <path d="M 260.021965 220.320791 
L 260.021965 217.35908 
" clip-path="url(#p5005c6062b)" style="fill: none; stroke: #2ca02c; stroke-width: 1.5"/>
    <path d="M 262.186633 221.911533 
L 262.186633 219.152998 
" clip-path="url(#p5005c6062b)" style="fill: none; stroke: #2ca02c; stroke-width: 1.5"/>
    <path d="M 264.351302 225.201831 
L 264.351302 222.924874 
" clip-path="url(#p5005c6062b)" style="fill: none; stroke: #2ca02c; stroke-width: 1.5"/>
    <path d="M 266.515971 221.219706 
L 266.515971 218.370912 
" clip-path="url(#p5005c6062b)" style="fill: none; stroke: #2ca02c; stroke-width: 1.5"/>
    <path d="M 268.680639 226.548116 
L 268.680639 224.503573 
" clip-path="url(#p5005c6062b)" style="fill: none; stroke: #2ca02c; stroke-width: 1.5"/>
    <path d="M 270.845308 224.272486 
L 270.845308 221.849046 
" clip-path="url(#p5005c6062b)" style="fill: none; stroke: #2ca02c; stroke-width: 1.5"/>
    <path d="M 273.009977 226.214867 
L 273.009977 224.110189 
" clip-path="url(#p5005c6062b)" style="fill: none; stroke: #2ca02c; stroke-width: 1.5"/>
    <path d="M 275.174646 227.474346 
L 275.174646 225.608109 
" clip-path="url(#p5005c6062b)" style="fill: none; stroke: #2ca02c; stroke-width: 1.5"/>
    <path d="M 277.339314 225.424227 
L 277.339314 223.183863 
" clip-path="url(#p5005c6062b)" style="fill: none; stroke: #2ca02c; stroke-width: 1.5"/>
    <path d="M 279.503983 227.545626 
L 279.503983 225.693895 
" clip-path="url(#p5005c6062b)" style="fill: none; stroke: #2ca02c; stroke-width: 1.5"/>
    <path d="M 281.668652 227.826273 
L 281.668652 226.032916 
" clip-path="url(#p5005c6062b)" style="fill: none; stroke: #2ca02c; stroke-width: 1.5"/>
    <path d="M 283.83332 228.670702 
L 283.83332 227.06727 
" clip-path="url(#p5005c6062b)" style="fill: none; stroke: #2ca02c; stroke-width: 1.5"/>
    <path d="M 285.997989 228.18871 
L 285.997989 226.474004 
" clip-path="url(#p5005c6062b)" style="fill: none; stroke: #2ca02c; stroke-width: 1.5"/>
    <path d="M 288.162658 228.790956 
L 288.162658 227.21666 
" clip-path="url(#p5005c6062b)" style="fill: none; stroke: #2ca02c; stroke-width: 1.5"/>
    <path d="M 290.327327 229.289388 
L 290.327327 227.842942 
" clip-path="url(#p5005c6062b)" style="fill: none; stroke: #2ca02c; stroke-width: 1.5"/>
    <path d="M 292.491995 229.120453 
L 292.491995 227.629286 
" clip-path="url(#p5005c6062b)" style="fill: none; stroke: #2ca02c; stroke-width: 1.5"/>
    <path d="M 294.656664 230.446573 
L 294.656664 229.363673 
" clip-path="url(#p5005c6062b)" style="fill: none; stroke: #2ca02c; stroke-width: 1.5"/>
    <path d="M 296.821333 229.682585 
L 296.821333 228.346862 
" clip-path="url(#p5005c6062b)" style="fill: none; stroke: #2ca02c; stroke-width: 1.5"/>
    <path d="M 298.986001 229.503515 
L 298.986001 228.116115 
" clip-path="url(#p5005c6062b)" style="fill: none; stroke: #2ca02c; stroke-width: 1.5"/>
    <path d="M 301.15067 229.617905 
L 301.15067 228.263256 
" clip-path="url(#p5005c6062b)" style="fill: none; stroke: #2ca02c; stroke-width: 1.5"/>
    <path d="M 303.315339 229.980498 
L 303.315339 228.73625 
" clip-path="url(#p5005c6062b)" style="fill: none; stroke: #2ca02c; stroke-width: 1.5"/>
    <path d="M 305.480008 229.589322 
L 305.480008 228.226404 
" clip-path="url(#p5005c6062b)" style="fill: none; stroke: #2ca02c; stroke-width: 1.5"/>
    <path d="M 307.644676 229.238949 
L 307.644676 227.778988 
" clip-path="url(#p5005c6062b)" style="fill: none; stroke: #2ca02c; stroke-width: 1.5"/>
    <path d="M 309.809345 230.11062 
L 309.809345 228.908872 
" clip-path="url(#p5005c6062b)" style="fill: none; stroke: #2ca02c; stroke-width: 1.5"/>
    <path d="M 311.974014 230.813428 
L 311.974014 229.881236 
" clip-path="url(#p5005c6062b)" style="fill: none; stroke: #2ca02c; stroke-width: 1.5"/>
    <path d="M 314.138682 230.170213 
L 314.138682 228.988526 
" clip-path="url(#p5005c6062b)" style="fill: none; stroke: #2ca02c; stroke-width: 1.5"/>
    <path d="M 316.303351 230.135438 
L 316.303351 228.941996 
" clip-path="url(#p5005c6062b)" style="fill: none; stroke: #2ca02c; stroke-width: 1.5"/>
    <path d="M 318.46802 231.21941 
L 318.46802 230.500403 
" clip-path="url(#p5005c6062b)" style="fill: none; stroke: #2ca02c; stroke-width: 1.5"/>
    <path d="M 320.632689 230.584456 
L 320.632689 229.555088 
" clip-path="url(#p5005c6062b)" style="fill: none; stroke: #2ca02c; stroke-width: 1.5"/>
    <path d="M 322.797357 230.944796 
L 322.797357 230.07443 
" clip-path="url(#p5005c6062b)" style="fill: none; stroke: #2ca02c; stroke-width: 1.5"/>
    <path d="M 324.962026 231.261994 
L 324.962026 230.570389 
" clip-path="url(#p5005c6062b)" style="fill: none; stroke: #2ca02c; stroke-width: 1.5"/>
    <path d="M 327.126695 230.945429 
L 327.126695 230.075374 
" clip-path="url(#p5005c6062b)" style="fill: none; stroke: #2ca02c; stroke-width: 1.5"/>
    <path d="M 329.291363 230.862646 
L 329.291363 229.953011 
" clip-path="url(#p5005c6062b)" style="fill: none; stroke: #2ca02c; stroke-width: 1.5"/>
    <path d="M 331.456032 231.24244 
L 331.456032 230.538078 
" clip-path="url(#p5005c6062b)" style="fill: none; stroke: #2ca02c; stroke-width: 1.5"/>
    <path d="M 333.620701 231.534667 
L 333.620701 231.07479 
" clip-path="url(#p5005c6062b)" style="fill: none; stroke: #2ca02c; stroke-width: 1.5"/>
    <path d="M 335.78537 230.933176 
L 335.78537 230.057123 
" clip-path="url(#p5005c6062b)" style="fill: none; stroke: #2ca02c; stroke-width: 1.5"/>
    <path d="M 337.950038 231.483494 
L 337.950038 230.968009 
" clip-path="url(#p5005c6062b)" style="fill: none; stroke: #2ca02c; stroke-width: 1.5"/>
    <path d="M 340.114707 231.308577 
L 340.114707 230.648707 
" clip-path="url(#p5005c6062b)" style="fill: none; stroke: #2ca02c; stroke-width: 1.5"/>
    <path d="M 342.279376 230.776757 
L 342.279376 229.828183 
" clip-path="url(#p5005c6062b)" style="fill: none; stroke: #2ca02c; stroke-width: 1.5"/>
    <path d="M 344.444044 231.437017 
L 344.444044 230.877883 
" clip-path="url(#p5005c6062b)" style="fill: none; stroke: #2ca02c; stroke-width: 1.5"/>
    <path d="M 346.608713 231.536134 
L 346.608713 231.07801 
" clip-path="url(#p5005c6062b)" style="fill: none; stroke: #2ca02c; stroke-width: 1.5"/>
    <path d="M 348.773382 230.127049 
L 348.773382 228.930792 
" clip-path="url(#p5005c6062b)" style="fill: none; stroke: #2ca02c; stroke-width: 1.5"/>
    <path d="M 350.938051 231.294318 
L 350.938051 230.62452 
" clip-path="url(#p5005c6062b)" style="fill: none; stroke: #2ca02c; stroke-width: 1.5"/>
    <path d="M 353.102719 231.030891 
L 353.102719 230.204203 
" clip-path="url(#p5005c6062b)" style="fill: none; stroke: #2ca02c; stroke-width: 1.5"/>
    <path d="M 355.267388 230.228113 
L 355.267388 229.066306 
" clip-path="url(#p5005c6062b)" style="fill: none; stroke: #2ca02c; stroke-width: 1.5"/>
    <path d="M 357.432057 231.635572 
L 357.432057 231.346596 
" clip-path="url(#p5005c6062b)" style="fill: none; stroke: #2ca02c; stroke-width: 1.5"/>
    <path d="M 359.596725 231.496998 
L 359.596725 230.995276 
" clip-path="url(#p5005c6062b)" style="fill: none; stroke: #2ca02c; stroke-width: 1.5"/>
    <path d="M 361.761394 230.828114 
L 361.761394 229.902582 
" clip-path="url(#p5005c6062b)" style="fill: none; stroke: #2ca02c; stroke-width: 1.5"/>
    <path d="M 363.926063 231.106923 
L 363.926063 230.321387 
" clip-path="url(#p5005c6062b)" style="fill: none; stroke: #2ca02c; stroke-width: 1.5"/>
    <path d="M 366.090732 230.96108 
L 366.090732 230.098764 
" clip-path="url(#p5005c6062b)" style="fill: none; stroke: #2ca02c; stroke-width: 1.5"/>
    <path d="M 368.2554 231.122133 
L 368.2554 230.345166 
" clip-path="url(#p5005c6062b)" style="fill: none; stroke: #2ca02c; stroke-width: 1.5"/>
    <path d="M 370.420069 231.612831 
L 370.420069 231.61253 
" clip-path="url(#p5005c6062b)" style="fill: none; stroke: #2ca02c; stroke-width: 1.5"/>
    <path d="M 372.584738 231.284608 
L 372.584738 230.60816 
" clip-path="url(#p5005c6062b)" style="fill: none; stroke: #2ca02c; stroke-width: 1.5"/>
    <path d="M 374.749406 231.297271 
L 374.749406 230.629512 
" clip-path="url(#p5005c6062b)" style="fill: none; stroke: #2ca02c; stroke-width: 1.5"/>
    <path d="M 376.914075 230.929324 
L 376.914075 230.051396 
" clip-path="url(#p5005c6062b)" style="fill: none; stroke: #2ca02c; stroke-width: 1.5"/>
    <path d="M 379.078744 230.997438 
L 379.078744 230.153443 
" clip-path="url(#p5005c6062b)" style="fill: none; stroke: #2ca02c; stroke-width: 1.5"/>
    <path d="M 381.243413 231.532162 
L 381.243413 231.069315 
" clip-path="url(#p5005c6062b)" style="fill: none; stroke: #2ca02c; stroke-width: 1.5"/>
    <path d="M 383.408081 231.402851 
L 383.408081 230.814536 
" clip-path="url(#p5005c6062b)" style="fill: none; stroke: #2ca02c; stroke-width: 1.5"/>
    <path d="M 385.57275 231.51216 
L 385.57275 231.02661 
" clip-path="url(#p5005c6062b)" style="fill: none; stroke: #2ca02c; stroke-width: 1.5"/>
    <path d="M 387.737419 231.419663 
L 387.737419 230.845442 
" clip-path="url(#p5005c6062b)" style="fill: none; stroke: #2ca02c; stroke-width: 1.5"/>
    <path d="M 389.902087 231.610065 
L 389.902087 231.261536 
" clip-path="url(#p5005c6062b)" style="fill: none; stroke: #2ca02c; stroke-width: 1.5"/>
    <path d="M 392.066756 231.602669 
L 392.066756 231.240318 
" clip-path="url(#p5005c6062b)" style="fill: none; stroke: #2ca02c; stroke-width: 1.5"/>
    <path d="M 394.231425 231.619016 
L 394.231425 231.605839 
" clip-path="url(#p5005c6062b)" style="fill: none; stroke: #2ca02c; stroke-width: 1.5"/>
   </g>
  </g>
 </g>
 <defs>
  <clipPath id="p5005c6062b">
   <rect x="53.328125" y="7.2" width="358.112416" height="235.13875"/>
  </clipPath>
 </defs>
</svg>