<?xml version="1.0" encoding="UTF-8" standalone="no"?>
<!DOCTYPE svg PUBLIC "-//W3C//DTD SVG 1.1//EN"
 "http://www.w3.org/Graphics/SVG/1.1/DTD/svg11.dtd">
<!-- Generated by graphviz version 2.43.0 (0)
 -->
<!-- Title: %3 Pages: 1 -->
<svg width="846pt" height="208pt"
 viewBox="0.00 0.00 845.50 208.00" xmlns="http://www.w3.org/2000/svg" xmlns:xlink="http://www.w3.org/1999/xlink">
<g id="graph0" class="graph" transform="scale(1 1) rotate(0) translate(4 204)">
<title>%3</title>
<polygon fill="white" stroke="transparent" points="-4,4 -4,-204 841.5,-204 841.5,4 -4,4"/>
<!-- source_position -->
<g id="node1" class="node">
<title>source_position</title>
<polygon fill="none" stroke="black" points="128,-200 0,-200 0,-177 128,-177 128,-200"/>
<text text-anchor="middle" x="64" y="-184.8" font-family="Times,serif" font-size="14.00">source_position</text>
</g>
<!-- incident_beam -->
<g id="node2" class="node">
<title>incident_beam</title>
<polygon fill="none" stroke="black" points="272,-141 152,-141 152,-118 272,-118 272,-141"/>
<text text-anchor="middle" x="212" y="-125.8" font-family="Times,serif" font-size="14.00">incident_beam</text>
</g>
<!-- source_position&#45;&gt;incident_beam -->
<g id="edge1" class="edge">
<title>source_position&#45;&gt;incident_beam</title>
<path fill="none" stroke="black" d="M91.49,-176.91C115.06,-167.83 149.22,-154.68 175.16,-144.69"/>
<polygon fill="black" stroke="black" points="176.58,-147.89 184.66,-141.03 174.07,-141.36 176.58,-147.89"/>
</g>
<!-- L1 -->
<g id="node4" class="node">
<title>L1</title>
<polygon fill="none" stroke="black" points="272,-82 218,-82 218,-59 272,-59 272,-82"/>
<text text-anchor="middle" x="245" y="-66.8" font-family="Times,serif" font-size="14.00">L1</text>
</g>
<!-- incident_beam&#45;&gt;L1 -->
<g id="edge3" class="edge">
<title>incident_beam&#45;&gt;L1</title>
<path fill="none" stroke="black" d="M218.21,-117.78C222.59,-110.22 228.57,-99.87 233.78,-90.88"/>
<polygon fill="black" stroke="black" points="236.84,-92.58 238.82,-82.17 230.78,-89.07 236.84,-92.58"/>
</g>
<!-- sample_position -->
<g id="node3" class="node">
<title>sample_position</title>
<polygon fill="none" stroke="black" points="277.5,-200 146.5,-200 146.5,-177 277.5,-177 277.5,-200"/>
<text text-anchor="middle" x="212" y="-184.8" font-family="Times,serif" font-size="14.00">sample_position</text>
</g>
<!-- sample_position&#45;&gt;incident_beam -->
<g id="edge2" class="edge">
<title>sample_position&#45;&gt;incident_beam</title>
<path fill="none" stroke="black" d="M212,-176.78C212,-169.61 212,-159.95 212,-151.31"/>
<polygon fill="black" stroke="black" points="215.5,-151.17 212,-141.17 208.5,-151.17 215.5,-151.17"/>
</g>
<!-- L2 -->
<g id="node6" class="node">
<title>L2</title>
<polygon fill="none" stroke="black" points="360,-141 306,-141 306,-118 360,-118 360,-141"/>
<text text-anchor="middle" x="333" y="-125.8" font-family="Times,serif" font-size="14.00">L2</text>
</g>
<!-- sample_position&#45;&gt;L2 -->
<g id="edge5" class="edge">
<title>sample_position&#45;&gt;L2</title>
<path fill="none" stroke="black" d="M234.48,-176.91C253.32,-168.03 280.45,-155.26 301.47,-145.35"/>
<polygon fill="black" stroke="black" points="303.09,-148.46 310.64,-141.03 300.11,-142.13 303.09,-148.46"/>
</g>
<!-- energy_transfer -->
<g id="node9" class="node">
<title>energy_transfer</title>
<polygon fill="none" stroke="black" points="425.5,-23 294.5,-23 294.5,0 425.5,0 425.5,-23"/>
<text text-anchor="middle" x="360" y="-7.8" font-family="Times,serif" font-size="14.00">energy_transfer</text>
</g>
<!-- L1&#45;&gt;energy_transfer -->
<g id="edge8" class="edge">
<title>L1&#45;&gt;energy_transfer</title>
<path fill="none" stroke="black" d="M266.36,-58.91C284.19,-50.07 309.82,-37.37 329.76,-27.49"/>
<polygon fill="black" stroke="black" points="331.35,-30.61 338.75,-23.03 328.24,-24.34 331.35,-30.61"/>
</g>
<!-- position -->
<g id="node5" class="node">
<title>position</title>
<polygon fill="none" stroke="black" points="370,-200 296,-200 296,-177 370,-177 370,-200"/>
<text text-anchor="middle" x="333" y="-184.8" font-family="Times,serif" font-size="14.00">position</text>
</g>
<!-- position&#45;&gt;L2 -->
<g id="edge4" class="edge">
<title>position&#45;&gt;L2</title>
<path fill="none" stroke="black" d="M333,-176.78C333,-169.61 333,-159.95 333,-151.31"/>
<polygon fill="black" stroke="black" points="336.5,-151.17 333,-141.17 329.5,-151.17 336.5,-151.17"/>
</g>
<!-- L2&#45;&gt;energy_transfer -->
<g id="edge9" class="edge">
<title>L2&#45;&gt;energy_transfer</title>
<path fill="none" stroke="black" d="M335.49,-117.79C339.97,-98.55 349.46,-57.79 355.23,-33.01"/>
<polygon fill="black" stroke="black" points="358.66,-33.71 357.51,-23.18 351.84,-32.13 358.66,-33.71"/>
</g>
<!-- analyzer_position -->
<g id="node7" class="node">
<title>analyzer_position</title>
<polygon fill="none" stroke="black" points="529.5,-200 388.5,-200 388.5,-177 529.5,-177 529.5,-200"/>
<text text-anchor="middle" x="459" y="-184.8" font-family="Times,serif" font-size="14.00">analyzer_position</text>
</g>
<!-- analyzer_position&#45;&gt;L2 -->
<g id="edge6" class="edge">
<title>analyzer_position&#45;&gt;L2</title>
<path fill="none" stroke="black" d="M435.6,-176.91C415.88,-167.99 387.47,-155.14 365.54,-145.22"/>
<polygon fill="black" stroke="black" points="366.83,-141.96 356.28,-141.03 363.95,-148.34 366.83,-141.96"/>
</g>
<!-- tof -->
<g id="node8" class="node">
<title>tof</title>
<polygon fill="none" stroke="black" points="415,-82 361,-82 361,-59 415,-59 415,-82"/>
<text text-anchor="middle" x="388" y="-66.8" font-family="Times,serif" font-size="14.00">tof</text>
</g>
<!-- tof&#45;&gt;energy_transfer -->
<g id="edge7" class="edge">
<title>tof&#45;&gt;energy_transfer</title>
<path fill="none" stroke="black" d="M382.73,-58.78C379.06,-51.29 374.04,-41.09 369.66,-32.16"/>
<polygon fill="black" stroke="black" points="372.79,-30.61 365.24,-23.17 366.51,-33.69 372.79,-30.61"/>
</g>
<!-- final_energy -->
<g id="node10" class="node">
<title>final_energy</title>
<polygon fill="none" stroke="black" points="605,-82 501,-82 501,-59 605,-59 605,-82"/>
<text text-anchor="middle" x="553" y="-66.8" font-family="Times,serif" font-size="14.00">final_energy</text>
</g>
<!-- final_energy&#45;&gt;energy_transfer -->
<g id="edge10" class="edge">
<title>final_energy&#45;&gt;energy_transfer</title>
<path fill="none" stroke="black" d="M517.15,-58.91C485.6,-49.59 439.5,-35.98 405.38,-25.9"/>
<polygon fill="black" stroke="black" points="406.24,-22.51 395.66,-23.03 404.26,-29.22 406.24,-22.51"/>
</g>
<!-- analyzer_dspacing -->
<g id="node11" class="node">
<title>analyzer_dspacing</title>
<polygon fill="none" stroke="black" points="696,-200 548,-200 548,-177 696,-177 696,-200"/>
<text text-anchor="middle" x="622" y="-184.8" font-family="Times,serif" font-size="14.00">analyzer_dspacing</text>
</g>
<!-- final_wavelength -->
<g id="node12" class="node">
<title>final_wavelength</title>
<polygon fill="none" stroke="black" points="690.5,-141 553.5,-141 553.5,-118 690.5,-118 690.5,-141"/>
<text text-anchor="middle" x="622" y="-125.8" font-family="Times,serif" font-size="14.00">final_wavelength</text>
</g>
<!-- analyzer_dspacing&#45;&gt;final_wavelength -->
<g id="edge11" class="edge">
<title>analyzer_dspacing&#45;&gt;final_wavelength</title>
<path fill="none" stroke="black" d="M622,-176.78C622,-169.61 622,-159.95 622,-151.31"/>
<polygon fill="black" stroke="black" points="625.5,-151.17 622,-141.17 618.5,-151.17 625.5,-151.17"/>
</g>
<!-- final_wavelength&#45;&gt;final_energy -->
<g id="edge13" class="edge">
<title>final_wavelength&#45;&gt;final_energy</title>
<path fill="none" stroke="black" d="M609.02,-117.78C599.09,-109.58 585.21,-98.11 573.75,-88.64"/>
<polygon fill="black" stroke="black" points="575.86,-85.84 565.92,-82.17 571.4,-91.24 575.86,-85.84"/>
</g>
<!-- analyzer_angle -->
<g id="node13" class="node">
<title>analyzer_angle</title>
<polygon fill="none" stroke="black" points="837.5,-200 714.5,-200 714.5,-177 837.5,-177 837.5,-200"/>
<text text-anchor="middle" x="776" y="-184.8" font-family="Times,serif" font-size="14.00">analyzer_angle</text>
</g>
<!-- analyzer_angle&#45;&gt;final_wavelength -->
<g id="edge12" class="edge">
<title>analyzer_angle&#45;&gt;final_wavelength</title>
<path fill="none" stroke="black" d="M747.39,-176.91C722.76,-167.79 687.01,-154.56 659.98,-144.56"/>
<polygon fill="black" stroke="black" points="661.05,-141.22 650.45,-141.03 658.62,-147.78 661.05,-141.22"/>
</g>
</g>
</svg>