<?xml version="1.0" encoding="utf-8" standalone="no"?>
<!DOCTYPE svg PUBLIC "-//W3C//DTD SVG 1.1//EN"
  "http://www.w3.org/Graphics/SVG/1.1/DTD/svg11.dtd">
<svg xmlns:xlink="http://www.w3.org/1999/xlink" width="423.916071pt" height="278.315406pt" viewBox="0 0 423.916071 278.315406" xmlns="http://www.w3.org/2000/svg" version="1.1">
 <metadata>
  <rdf:RDF xmlns:dc="http://purl.org/dc/elements/1.1/" xmlns:cc="http://creativecommons.org/ns#" xmlns:rdf="http://www.w3.org/1999/02/22-rdf-syntax-ns#">
   <cc:Work>
    <dc:type rdf:resource="http://purl.org/dc/dcmitype/StillImage"/>
    <dc:date>2024-09-10T09:04:21.416162</dc:date>
    <dc:format>image/svg+xml</dc:format>
    <dc:creator>
     <cc:Agent>
      <dc:title>Matplotlib v3.9.2, https://matplotlib.org/</dc:title>
     </cc:Agent>
    </dc:creator>
   </cc:Work>
  </rdf:RDF>
 </metadata>
 <defs>
  <style type="text/css">*{stroke-linejoin: round; stroke-linecap: butt}</style>
 </defs>
 <g id="figure_1">
  <g id="patch_1">
   <path d="M 0 278.315406 
L 423.916071 278.315406 
L 423.916071 0 
L 0 0 
z
" style="fill: #ffffff"/>
  </g>
  <g id="axes_1">
   <g id="patch_2">
    <path d="M 51.378125 239.835719 
L 416.716071 239.835719 
L 416.716071 10.999219 
L 51.378125 10.999219 
z
" style="fill: #ffffff"/>
   </g>
   <g id="matplotlib.axis_1">
    <g id="xtick_1">
     <g id="line2d_1">
      <defs>
       <path id="m3889b5b440" d="M 0 0 
L 0 3.5 
" style="stroke: #000000; stroke-width: 0.8"/>
      </defs>
      <g>
       <use xlink:href="#m3889b5b440" x="59.468359" y="239.835719" style="stroke: #000000; stroke-width: 0.8"/>
      </g>
     </g>
     <g id="text_1">
      <!-- 0.000 -->
      <g transform="translate(45.154297 254.434156) scale(0.1 -0.1)">
       <defs>
        <path id="DejaVuSans-30" d="M 2034 4250 
Q 1547 4250 1301 3770 
Q 1056 3291 1056 2328 
Q 1056 1369 1301 889 
Q 1547 409 2034 409 
Q 2525 409 2770 889 
Q 3016 1369 3016 2328 
Q 3016 3291 2770 3770 
Q 2525 4250 2034 4250 
z
M 2034 4750 
Q 2819 4750 3233 4129 
Q 3647 3509 3647 2328 
Q 3647 1150 3233 529 
Q 2819 -91 2034 -91 
Q 1250 -91 836 529 
Q 422 1150 422 2328 
Q 422 3509 836 4129 
Q 1250 4750 2034 4750 
z
" transform="scale(0.015625)"/>
        <path id="DejaVuSans-2e" d="M 684 794 
L 1344 794 
L 1344 0 
L 684 0 
L 684 794 
z
" transform="scale(0.015625)"/>
       </defs>
       <use xlink:href="#DejaVuSans-30"/>
       <use xlink:href="#DejaVuSans-2e" x="63.623047"/>
       <use xlink:href="#DejaVuSans-30" x="95.410156"/>
       <use xlink:href="#DejaVuSans-30" x="159.033203"/>
       <use xlink:href="#DejaVuSans-30" x="222.65625"/>
      </g>
     </g>
    </g>
    <g id="xtick_2">
     <g id="line2d_2">
      <g>
       <use xlink:href="#m3889b5b440" x="102.048539" y="239.835719" style="stroke: #000000; stroke-width: 0.8"/>
      </g>
     </g>
     <g id="text_2">
      <!-- 0.025 -->
      <g transform="translate(87.734477 254.434156) scale(0.1 -0.1)">
       <defs>
        <path id="DejaVuSans-32" d="M 1228 531 
L 3431 531 
L 3431 0 
L 469 0 
L 469 531 
Q 828 903 1448 1529 
Q 2069 2156 2228 2338 
Q 2531 2678 2651 2914 
Q 2772 3150 2772 3378 
Q 2772 3750 2511 3984 
Q 2250 4219 1831 4219 
Q 1534 4219 1204 4116 
Q 875 4013 500 3803 
L 500 4441 
Q 881 4594 1212 4672 
Q 1544 4750 1819 4750 
Q 2544 4750 2975 4387 
Q 3406 4025 3406 3419 
Q 3406 3131 3298 2873 
Q 3191 2616 2906 2266 
Q 2828 2175 2409 1742 
Q 1991 1309 1228 531 
z
" transform="scale(0.015625)"/>
        <path id="DejaVuSans-35" d="M 691 4666 
L 3169 4666 
L 3169 4134 
L 1269 4134 
L 1269 2991 
Q 1406 3038 1543 3061 
Q 1681 3084 1819 3084 
Q 2600 3084 3056 2656 
Q 3513 2228 3513 1497 
Q 3513 744 3044 326 
Q 2575 -91 1722 -91 
Q 1428 -91 1123 -41 
Q 819 9 494 109 
L 494 744 
Q 775 591 1075 516 
Q 1375 441 1709 441 
Q 2250 441 2565 725 
Q 2881 1009 2881 1497 
Q 2881 1984 2565 2268 
Q 2250 2553 1709 2553 
Q 1456 2553 1204 2497 
Q 953 2441 691 2322 
L 691 4666 
z
" transform="scale(0.015625)"/>
       </defs>
       <use xlink:href="#DejaVuSans-30"/>
       <use xlink:href="#DejaVuSans-2e" x="63.623047"/>
       <use xlink:href="#DejaVuSans-30" x="95.410156"/>
       <use xlink:href="#DejaVuSans-32" x="159.033203"/>
       <use xlink:href="#DejaVuSans-35" x="222.65625"/>
      </g>
     </g>
    </g>
    <g id="xtick_3">
     <g id="line2d_3">
      <g>
       <use xlink:href="#m3889b5b440" x="144.62872" y="239.835719" style="stroke: #000000; stroke-width: 0.8"/>
      </g>
     </g>
     <g id="text_3">
      <!-- 0.050 -->
      <g transform="translate(130.314657 254.434156) scale(0.1 -0.1)">
       <use xlink:href="#DejaVuSans-30"/>
       <use xlink:href="#DejaVuSans-2e" x="63.623047"/>
       <use xlink:href="#DejaVuSans-30" x="95.410156"/>
       <use xlink:href="#DejaVuSans-35" x="159.033203"/>
       <use xlink:href="#DejaVuSans-30" x="222.65625"/>
      </g>
     </g>
    </g>
    <g id="xtick_4">
     <g id="line2d_4">
      <g>
       <use xlink:href="#m3889b5b440" x="187.2089" y="239.835719" style="stroke: #000000; stroke-width: 0.8"/>
      </g>
     </g>
     <g id="text_4">
      <!-- 0.075 -->
      <g transform="translate(172.894837 254.434156) scale(0.1 -0.1)">
       <defs>
        <path id="DejaVuSans-37" d="M 525 4666 
L 3525 4666 
L 3525 4397 
L 1831 0 
L 1172 0 
L 2766 4134 
L 525 4134 
L 525 4666 
z
" transform="scale(0.015625)"/>
       </defs>
       <use xlink:href="#DejaVuSans-30"/>
       <use xlink:href="#DejaVuSans-2e" x="63.623047"/>
       <use xlink:href="#DejaVuSans-30" x="95.410156"/>
       <use xlink:href="#DejaVuSans-37" x="159.033203"/>
       <use xlink:href="#DejaVuSans-35" x="222.65625"/>
      </g>
     </g>
    </g>
    <g id="xtick_5">
     <g id="line2d_5">
      <g>
       <use xlink:href="#m3889b5b440" x="229.78908" y="239.835719" style="stroke: #000000; stroke-width: 0.8"/>
      </g>
     </g>
     <g id="text_5">
      <!-- 0.100 -->
      <g transform="translate(215.475018 254.434156) scale(0.1 -0.1)">
       <defs>
        <path id="DejaVuSans-31" d="M 794 531 
L 1825 531 
L 1825 4091 
L 703 3866 
L 703 4441 
L 1819 4666 
L 2450 4666 
L 2450 531 
L 3481 531 
L 3481 0 
L 794 0 
L 794 531 
z
" transform="scale(0.015625)"/>
       </defs>
       <use xlink:href="#DejaVuSans-30"/>
       <use xlink:href="#DejaVuSans-2e" x="63.623047"/>
       <use xlink:href="#DejaVuSans-31" x="95.410156"/>
       <use xlink:href="#DejaVuSans-30" x="159.033203"/>
       <use xlink:href="#DejaVuSans-30" x="222.65625"/>
      </g>
     </g>
    </g>
    <g id="xtick_6">
     <g id="line2d_6">
      <g>
       <use xlink:href="#m3889b5b440" x="272.36926" y="239.835719" style="stroke: #000000; stroke-width: 0.8"/>
      </g>
     </g>
     <g id="text_6">
      <!-- 0.125 -->
      <g transform="translate(258.055198 254.434156) scale(0.1 -0.1)">
       <use xlink:href="#DejaVuSans-30"/>
       <use xlink:href="#DejaVuSans-2e" x="63.623047"/>
       <use xlink:href="#DejaVuSans-31" x="95.410156"/>
       <use xlink:href="#DejaVuSans-32" x="159.033203"/>
       <use xlink:href="#DejaVuSans-35" x="222.65625"/>
      </g>
     </g>
    </g>
    <g id="xtick_7">
     <g id="line2d_7">
      <g>
       <use xlink:href="#m3889b5b440" x="314.94944" y="239.835719" style="stroke: #000000; stroke-width: 0.8"/>
      </g>
     </g>
     <g id="text_7">
      <!-- 0.150 -->
      <g transform="translate(300.635378 254.434156) scale(0.1 -0.1)">
       <use xlink:href="#DejaVuSans-30"/>
       <use xlink:href="#DejaVuSans-2e" x="63.623047"/>
       <use xlink:href="#DejaVuSans-31" x="95.410156"/>
       <use xlink:href="#DejaVuSans-35" x="159.033203"/>
       <use xlink:href="#DejaVuSans-30" x="222.65625"/>
      </g>
     </g>
    </g>
    <g id="xtick_8">
     <g id="line2d_8">
      <g>
       <use xlink:href="#m3889b5b440" x="357.529621" y="239.835719" style="stroke: #000000; stroke-width: 0.8"/>
      </g>
     </g>
     <g id="text_8">
      <!-- 0.175 -->
      <g transform="translate(343.215558 254.434156) scale(0.1 -0.1)">
       <use xlink:href="#DejaVuSans-30"/>
       <use xlink:href="#DejaVuSans-2e" x="63.623047"/>
       <use xlink:href="#DejaVuSans-31" x="95.410156"/>
       <use xlink:href="#DejaVuSans-37" x="159.033203"/>
       <use xlink:href="#DejaVuSans-35" x="222.65625"/>
      </g>
     </g>
    </g>
    <g id="xtick_9">
     <g id="line2d_9">
      <g>
       <use xlink:href="#m3889b5b440" x="400.109801" y="239.835719" style="stroke: #000000; stroke-width: 0.8"/>
      </g>
     </g>
     <g id="text_9">
      <!-- 0.200 -->
      <g transform="translate(385.795738 254.434156) scale(0.1 -0.1)">
       <use xlink:href="#DejaVuSans-30"/>
       <use xlink:href="#DejaVuSans-2e" x="63.623047"/>
       <use xlink:href="#DejaVuSans-32" x="95.410156"/>
       <use xlink:href="#DejaVuSans-30" x="159.033203"/>
       <use xlink:href="#DejaVuSans-30" x="222.65625"/>
      </g>
     </g>
    </g>
    <g id="text_10">
     <!-- Q [1/Å] -->
     <g transform="translate(216.334598 269.035719) scale(0.1 -0.1)">
      <defs>
       <path id="DejaVuSans-51" d="M 2522 4238 
Q 1834 4238 1429 3725 
Q 1025 3213 1025 2328 
Q 1025 1447 1429 934 
Q 1834 422 2522 422 
Q 3209 422 3611 934 
Q 4013 1447 4013 2328 
Q 4013 3213 3611 3725 
Q 3209 4238 2522 4238 
z
M 3406 84 
L 4238 -825 
L 3475 -825 
L 2784 -78 
Q 2681 -84 2626 -87 
Q 2572 -91 2522 -91 
Q 1538 -91 948 567 
Q 359 1225 359 2328 
Q 359 3434 948 4092 
Q 1538 4750 2522 4750 
Q 3503 4750 4090 4092 
Q 4678 3434 4678 2328 
Q 4678 1516 4351 937 
Q 4025 359 3406 84 
z
" transform="scale(0.015625)"/>
       <path id="DejaVuSans-20" transform="scale(0.015625)"/>
       <path id="DejaVuSans-5b" d="M 550 4863 
L 1875 4863 
L 1875 4416 
L 1125 4416 
L 1125 -397 
L 1875 -397 
L 1875 -844 
L 550 -844 
L 550 4863 
z
" transform="scale(0.015625)"/>
       <path id="DejaVuSans-2f" d="M 1625 4666 
L 2156 4666 
L 531 -594 
L 0 -594 
L 1625 4666 
z
" transform="scale(0.015625)"/>
       <path id="DejaVuSans-c5" d="M 2663 5081 
Q 2663 5278 2523 5417 
Q 2384 5556 2188 5556 
Q 1988 5556 1852 5420 
Q 1716 5284 1716 5081 
Q 1716 4884 1853 4746 
Q 1991 4609 2188 4609 
Q 2384 4609 2523 4746 
Q 2663 4884 2663 5081 
z
M 2188 4044 
L 1338 1722 
L 3041 1722 
L 2188 4044 
z
M 1716 4366 
Q 1525 4494 1428 4673 
Q 1331 4853 1331 5081 
Q 1331 5441 1579 5691 
Q 1828 5941 2188 5941 
Q 2544 5941 2795 5689 
Q 3047 5438 3047 5081 
Q 3047 4863 2948 4678 
Q 2850 4494 2663 4366 
L 4325 0 
L 3669 0 
L 3244 1197 
L 1141 1197 
L 716 0 
L 50 0 
L 1716 4366 
z
" transform="scale(0.015625)"/>
       <path id="DejaVuSans-5d" d="M 1947 4863 
L 1947 -844 
L 622 -844 
L 622 -397 
L 1369 -397 
L 1369 4416 
L 622 4416 
L 622 4863 
L 1947 4863 
z
" transform="scale(0.015625)"/>
      </defs>
      <use xlink:href="#DejaVuSans-51"/>
      <use xlink:href="#DejaVuSans-20" x="78.710938"/>
      <use xlink:href="#DejaVuSans-5b" x="110.498047"/>
      <use xlink:href="#DejaVuSans-31" x="149.511719"/>
      <use xlink:href="#DejaVuSans-2f" x="213.134766"/>
      <use xlink:href="#DejaVuSans-c5" x="246.826172"/>
      <use xlink:href="#DejaVuSans-5d" x="315.234375"/>
     </g>
    </g>
   </g>
   <g id="matplotlib.axis_2">
    <g id="ytick_1">
     <g id="line2d_10">
      <defs>
       <path id="mcc2f514fd9" d="M 0 0 
L -3.5 0 
" style="stroke: #000000; stroke-width: 0.8"/>
      </defs>
      <g>
       <use xlink:href="#mcc2f514fd9" x="51.378125" y="239.835719" style="stroke: #000000; stroke-width: 0.8"/>
      </g>
     </g>
     <g id="text_11">
      <!-- $\mathdefault{10^{-3}}$ -->
      <g transform="translate(20.878125 243.634937) scale(0.1 -0.1)">
       <defs>
        <path id="DejaVuSans-2212" d="M 678 2272 
L 4684 2272 
L 4684 1741 
L 678 1741 
L 678 2272 
z
" transform="scale(0.015625)"/>
        <path id="DejaVuSans-33" d="M 2597 2516 
Q 3050 2419 3304 2112 
Q 3559 1806 3559 1356 
Q 3559 666 3084 287 
Q 2609 -91 1734 -91 
Q 1441 -91 1130 -33 
Q 819 25 488 141 
L 488 750 
Q 750 597 1062 519 
Q 1375 441 1716 441 
Q 2309 441 2620 675 
Q 2931 909 2931 1356 
Q 2931 1769 2642 2001 
Q 2353 2234 1838 2234 
L 1294 2234 
L 1294 2753 
L 1863 2753 
Q 2328 2753 2575 2939 
Q 2822 3125 2822 3475 
Q 2822 3834 2567 4026 
Q 2313 4219 1838 4219 
Q 1578 4219 1281 4162 
Q 984 4106 628 3988 
L 628 4550 
Q 988 4650 1302 4700 
Q 1616 4750 1894 4750 
Q 2613 4750 3031 4423 
Q 3450 4097 3450 3541 
Q 3450 3153 3228 2886 
Q 3006 2619 2597 2516 
z
" transform="scale(0.015625)"/>
       </defs>
       <use xlink:href="#DejaVuSans-31" transform="translate(0 0.765625)"/>
       <use xlink:href="#DejaVuSans-30" transform="translate(63.623047 0.765625)"/>
       <use xlink:href="#DejaVuSans-2212" transform="translate(128.203125 39.046875) scale(0.7)"/>
       <use xlink:href="#DejaVuSans-33" transform="translate(186.855469 39.046875) scale(0.7)"/>
      </g>
     </g>
    </g>
    <g id="ytick_2">
     <g id="line2d_11">
      <g>
       <use xlink:href="#mcc2f514fd9" x="51.378125" y="182.626594" style="stroke: #000000; stroke-width: 0.8"/>
      </g>
     </g>
     <g id="text_12">
      <!-- $\mathdefault{10^{-2}}$ -->
      <g transform="translate(20.878125 186.425812) scale(0.1 -0.1)">
       <use xlink:href="#DejaVuSans-31" transform="translate(0 0.765625)"/>
       <use xlink:href="#DejaVuSans-30" transform="translate(63.623047 0.765625)"/>
       <use xlink:href="#DejaVuSans-2212" transform="translate(128.203125 39.046875) scale(0.7)"/>
       <use xlink:href="#DejaVuSans-32" transform="translate(186.855469 39.046875) scale(0.7)"/>
      </g>
     </g>
    </g>
    <g id="ytick_3">
     <g id="line2d_12">
      <g>
       <use xlink:href="#mcc2f514fd9" x="51.378125" y="125.417469" style="stroke: #000000; stroke-width: 0.8"/>
      </g>
     </g>
     <g id="text_13">
      <!-- $\mathdefault{10^{-1}}$ -->
      <g transform="translate(20.878125 129.216687) scale(0.1 -0.1)">
       <use xlink:href="#DejaVuSans-31" transform="translate(0 0.684375)"/>
       <use xlink:href="#DejaVuSans-30" transform="translate(63.623047 0.684375)"/>
       <use xlink:href="#DejaVuSans-2212" transform="translate(128.203125 38.965625) scale(0.7)"/>
       <use xlink:href="#DejaVuSans-31" transform="translate(186.855469 38.965625) scale(0.7)"/>
      </g>
     </g>
    </g>
    <g id="ytick_4">
     <g id="line2d_13">
      <g>
       <use xlink:href="#mcc2f514fd9" x="51.378125" y="68.208344" style="stroke: #000000; stroke-width: 0.8"/>
      </g>
     </g>
     <g id="text_14">
      <!-- $\mathdefault{10^{0}}$ -->
      <g transform="translate(26.778125 72.007562) scale(0.1 -0.1)">
       <use xlink:href="#DejaVuSans-31" transform="translate(0 0.765625)"/>
       <use xlink:href="#DejaVuSans-30" transform="translate(63.623047 0.765625)"/>
       <use xlink:href="#DejaVuSans-30" transform="translate(128.203125 39.046875) scale(0.7)"/>
      </g>
     </g>
    </g>
    <g id="ytick_5">
     <g id="line2d_14">
      <g>
       <use xlink:href="#mcc2f514fd9" x="51.378125" y="10.999219" style="stroke: #000000; stroke-width: 0.8"/>
      </g>
     </g>
     <g id="text_15">
      <!-- $\mathdefault{10^{1}}$ -->
      <g transform="translate(26.778125 14.798437) scale(0.1 -0.1)">
       <use xlink:href="#DejaVuSans-31" transform="translate(0 0.684375)"/>
       <use xlink:href="#DejaVuSans-30" transform="translate(63.623047 0.684375)"/>
       <use xlink:href="#DejaVuSans-31" transform="translate(128.203125 38.965625) scale(0.7)"/>
      </g>
     </g>
    </g>
    <g id="ytick_6">
     <g id="line2d_15">
      <defs>
       <path id="m8a7adae6a8" d="M 0 0 
L -2 0 
" style="stroke: #000000; stroke-width: 0.6"/>
      </defs>
      <g>
       <use xlink:href="#m8a7adae6a8" x="51.378125" y="222.614056" style="stroke: #000000; stroke-width: 0.6"/>
      </g>
     </g>
    </g>
    <g id="ytick_7">
     <g id="line2d_16">
      <g>
       <use xlink:href="#m8a7adae6a8" x="51.378125" y="212.540029" style="stroke: #000000; stroke-width: 0.6"/>
      </g>
     </g>
    </g>
    <g id="ytick_8">
     <g id="line2d_17">
      <g>
       <use xlink:href="#m8a7adae6a8" x="51.378125" y="205.392393" style="stroke: #000000; stroke-width: 0.6"/>
      </g>
     </g>
    </g>
    <g id="ytick_9">
     <g id="line2d_18">
      <g>
       <use xlink:href="#m8a7adae6a8" x="51.378125" y="199.848256" style="stroke: #000000; stroke-width: 0.6"/>
      </g>
     </g>
    </g>
    <g id="ytick_10">
     <g id="line2d_19">
      <g>
       <use xlink:href="#m8a7adae6a8" x="51.378125" y="195.318367" style="stroke: #000000; stroke-width: 0.6"/>
      </g>
     </g>
    </g>
    <g id="ytick_11">
     <g id="line2d_20">
      <g>
       <use xlink:href="#m8a7adae6a8" x="51.378125" y="191.488399" style="stroke: #000000; stroke-width: 0.6"/>
      </g>
     </g>
    </g>
    <g id="ytick_12">
     <g id="line2d_21">
      <g>
       <use xlink:href="#m8a7adae6a8" x="51.378125" y="188.170731" style="stroke: #000000; stroke-width: 0.6"/>
      </g>
     </g>
    </g>
    <g id="ytick_13">
     <g id="line2d_22">
      <g>
       <use xlink:href="#m8a7adae6a8" x="51.378125" y="185.24434" style="stroke: #000000; stroke-width: 0.6"/>
      </g>
     </g>
    </g>
    <g id="ytick_14">
     <g id="line2d_23">
      <g>
       <use xlink:href="#m8a7adae6a8" x="51.378125" y="165.404931" style="stroke: #000000; stroke-width: 0.6"/>
      </g>
     </g>
    </g>
    <g id="ytick_15">
     <g id="line2d_24">
      <g>
       <use xlink:href="#m8a7adae6a8" x="51.378125" y="155.330904" style="stroke: #000000; stroke-width: 0.6"/>
      </g>
     </g>
    </g>
    <g id="ytick_16">
     <g id="line2d_25">
      <g>
       <use xlink:href="#m8a7adae6a8" x="51.378125" y="148.183268" style="stroke: #000000; stroke-width: 0.6"/>
      </g>
     </g>
    </g>
    <g id="ytick_17">
     <g id="line2d_26">
      <g>
       <use xlink:href="#m8a7adae6a8" x="51.378125" y="142.639131" style="stroke: #000000; stroke-width: 0.6"/>
      </g>
     </g>
    </g>
    <g id="ytick_18">
     <g id="line2d_27">
      <g>
       <use xlink:href="#m8a7adae6a8" x="51.378125" y="138.109242" style="stroke: #000000; stroke-width: 0.6"/>
      </g>
     </g>
    </g>
    <g id="ytick_19">
     <g id="line2d_28">
      <g>
       <use xlink:href="#m8a7adae6a8" x="51.378125" y="134.279274" style="stroke: #000000; stroke-width: 0.6"/>
      </g>
     </g>
    </g>
    <g id="ytick_20">
     <g id="line2d_29">
      <g>
       <use xlink:href="#m8a7adae6a8" x="51.378125" y="130.961606" style="stroke: #000000; stroke-width: 0.6"/>
      </g>
     </g>
    </g>
    <g id="ytick_21">
     <g id="line2d_30">
      <g>
       <use xlink:href="#m8a7adae6a8" x="51.378125" y="128.035215" style="stroke: #000000; stroke-width: 0.6"/>
      </g>
     </g>
    </g>
    <g id="ytick_22">
     <g id="line2d_31">
      <g>
       <use xlink:href="#m8a7adae6a8" x="51.378125" y="108.195806" style="stroke: #000000; stroke-width: 0.6"/>
      </g>
     </g>
    </g>
    <g id="ytick_23">
     <g id="line2d_32">
      <g>
       <use xlink:href="#m8a7adae6a8" x="51.378125" y="98.121779" style="stroke: #000000; stroke-width: 0.6"/>
      </g>
     </g>
    </g>
    <g id="ytick_24">
     <g id="line2d_33">
      <g>
       <use xlink:href="#m8a7adae6a8" x="51.378125" y="90.974143" style="stroke: #000000; stroke-width: 0.6"/>
      </g>
     </g>
    </g>
    <g id="ytick_25">
     <g id="line2d_34">
      <g>
       <use xlink:href="#m8a7adae6a8" x="51.378125" y="85.430006" style="stroke: #000000; stroke-width: 0.6"/>
      </g>
     </g>
    </g>
    <g id="ytick_26">
     <g id="line2d_35">
      <g>
       <use xlink:href="#m8a7adae6a8" x="51.378125" y="80.900117" style="stroke: #000000; stroke-width: 0.6"/>
      </g>
     </g>
    </g>
    <g id="ytick_27">
     <g id="line2d_36">
      <g>
       <use xlink:href="#m8a7adae6a8" x="51.378125" y="77.070149" style="stroke: #000000; stroke-width: 0.6"/>
      </g>
     </g>
    </g>
    <g id="ytick_28">
     <g id="line2d_37">
      <g>
       <use xlink:href="#m8a7adae6a8" x="51.378125" y="73.752481" style="stroke: #000000; stroke-width: 0.6"/>
      </g>
     </g>
    </g>
    <g id="ytick_29">
     <g id="line2d_38">
      <g>
       <use xlink:href="#m8a7adae6a8" x="51.378125" y="70.82609" style="stroke: #000000; stroke-width: 0.6"/>
      </g>
     </g>
    </g>
    <g id="ytick_30">
     <g id="line2d_39">
      <g>
       <use xlink:href="#m8a7adae6a8" x="51.378125" y="50.986681" style="stroke: #000000; stroke-width: 0.6"/>
      </g>
     </g>
    </g>
    <g id="ytick_31">
     <g id="line2d_40">
      <g>
       <use xlink:href="#m8a7adae6a8" x="51.378125" y="40.912654" style="stroke: #000000; stroke-width: 0.6"/>
      </g>
     </g>
    </g>
    <g id="ytick_32">
     <g id="line2d_41">
      <g>
       <use xlink:href="#m8a7adae6a8" x="51.378125" y="33.765018" style="stroke: #000000; stroke-width: 0.6"/>
      </g>
     </g>
    </g>
    <g id="ytick_33">
     <g id="line2d_42">
      <g>
       <use xlink:href="#m8a7adae6a8" x="51.378125" y="28.220881" style="stroke: #000000; stroke-width: 0.6"/>
      </g>
     </g>
    </g>
    <g id="ytick_34">
     <g id="line2d_43">
      <g>
       <use xlink:href="#m8a7adae6a8" x="51.378125" y="23.690992" style="stroke: #000000; stroke-width: 0.6"/>
      </g>
     </g>
    </g>
    <g id="ytick_35">
     <g id="line2d_44">
      <g>
       <use xlink:href="#m8a7adae6a8" x="51.378125" y="19.861024" style="stroke: #000000; stroke-width: 0.6"/>
      </g>
     </g>
    </g>
    <g id="ytick_36">
     <g id="line2d_45">
      <g>
       <use xlink:href="#m8a7adae6a8" x="51.378125" y="16.543356" style="stroke: #000000; stroke-width: 0.6"/>
      </g>
     </g>
    </g>
    <g id="ytick_37">
     <g id="line2d_46">
      <g>
       <use xlink:href="#m8a7adae6a8" x="51.378125" y="13.616965" style="stroke: #000000; stroke-width: 0.6"/>
      </g>
     </g>
    </g>
    <g id="text_16">
     <!-- [dimensionless] -->
     <g transform="translate(14.798438 164.894812) rotate(-90) scale(0.1 -0.1)">
      <defs>
       <path id="DejaVuSans-64" d="M 2906 2969 
L 2906 4863 
L 3481 4863 
L 3481 0 
L 2906 0 
L 2906 525 
Q 2725 213 2448 61 
Q 2172 -91 1784 -91 
Q 1150 -91 751 415 
Q 353 922 353 1747 
Q 353 2572 751 3078 
Q 1150 3584 1784 3584 
Q 2172 3584 2448 3432 
Q 2725 3281 2906 2969 
z
M 947 1747 
Q 947 1113 1208 752 
Q 1469 391 1925 391 
Q 2381 391 2643 752 
Q 2906 1113 2906 1747 
Q 2906 2381 2643 2742 
Q 2381 3103 1925 3103 
Q 1469 3103 1208 2742 
Q 947 2381 947 1747 
z
" transform="scale(0.015625)"/>
       <path id="DejaVuSans-69" d="M 603 3500 
L 1178 3500 
L 1178 0 
L 603 0 
L 603 3500 
z
M 603 4863 
L 1178 4863 
L 1178 4134 
L 603 4134 
L 603 4863 
z
" transform="scale(0.015625)"/>
       <path id="DejaVuSans-6d" d="M 3328 2828 
Q 3544 3216 3844 3400 
Q 4144 3584 4550 3584 
Q 5097 3584 5394 3201 
Q 5691 2819 5691 2113 
L 5691 0 
L 5113 0 
L 5113 2094 
Q 5113 2597 4934 2840 
Q 4756 3084 4391 3084 
Q 3944 3084 3684 2787 
Q 3425 2491 3425 1978 
L 3425 0 
L 2847 0 
L 2847 2094 
Q 2847 2600 2669 2842 
Q 2491 3084 2119 3084 
Q 1678 3084 1418 2786 
Q 1159 2488 1159 1978 
L 1159 0 
L 581 0 
L 581 3500 
L 1159 3500 
L 1159 2956 
Q 1356 3278 1631 3431 
Q 1906 3584 2284 3584 
Q 2666 3584 2933 3390 
Q 3200 3197 3328 2828 
z
" transform="scale(0.015625)"/>
       <path id="DejaVuSans-65" d="M 3597 1894 
L 3597 1613 
L 953 1613 
Q 991 1019 1311 708 
Q 1631 397 2203 397 
Q 2534 397 2845 478 
Q 3156 559 3463 722 
L 3463 178 
Q 3153 47 2828 -22 
Q 2503 -91 2169 -91 
Q 1331 -91 842 396 
Q 353 884 353 1716 
Q 353 2575 817 3079 
Q 1281 3584 2069 3584 
Q 2775 3584 3186 3129 
Q 3597 2675 3597 1894 
z
M 3022 2063 
Q 3016 2534 2758 2815 
Q 2500 3097 2075 3097 
Q 1594 3097 1305 2825 
Q 1016 2553 972 2059 
L 3022 2063 
z
" transform="scale(0.015625)"/>
       <path id="DejaVuSans-6e" d="M 3513 2113 
L 3513 0 
L 2938 0 
L 2938 2094 
Q 2938 2591 2744 2837 
Q 2550 3084 2163 3084 
Q 1697 3084 1428 2787 
Q 1159 2491 1159 1978 
L 1159 0 
L 581 0 
L 581 3500 
L 1159 3500 
L 1159 2956 
Q 1366 3272 1645 3428 
Q 1925 3584 2291 3584 
Q 2894 3584 3203 3211 
Q 3513 2838 3513 2113 
z
" transform="scale(0.015625)"/>
       <path id="DejaVuSans-73" d="M 2834 3397 
L 2834 2853 
Q 2591 2978 2328 3040 
Q 2066 3103 1784 3103 
Q 1356 3103 1142 2972 
Q 928 2841 928 2578 
Q 928 2378 1081 2264 
Q 1234 2150 1697 2047 
L 1894 2003 
Q 2506 1872 2764 1633 
Q 3022 1394 3022 966 
Q 3022 478 2636 193 
Q 2250 -91 1575 -91 
Q 1294 -91 989 -36 
Q 684 19 347 128 
L 347 722 
Q 666 556 975 473 
Q 1284 391 1588 391 
Q 1994 391 2212 530 
Q 2431 669 2431 922 
Q 2431 1156 2273 1281 
Q 2116 1406 1581 1522 
L 1381 1569 
Q 847 1681 609 1914 
Q 372 2147 372 2553 
Q 372 3047 722 3315 
Q 1072 3584 1716 3584 
Q 2034 3584 2315 3537 
Q 2597 3491 2834 3397 
z
" transform="scale(0.015625)"/>
       <path id="DejaVuSans-6f" d="M 1959 3097 
Q 1497 3097 1228 2736 
Q 959 2375 959 1747 
Q 959 1119 1226 758 
Q 1494 397 1959 397 
Q 2419 397 2687 759 
Q 2956 1122 2956 1747 
Q 2956 2369 2687 2733 
Q 2419 3097 1959 3097 
z
M 1959 3584 
Q 2709 3584 3137 3096 
Q 3566 2609 3566 1747 
Q 3566 888 3137 398 
Q 2709 -91 1959 -91 
Q 1206 -91 779 398 
Q 353 888 353 1747 
Q 353 2609 779 3096 
Q 1206 3584 1959 3584 
z
" transform="scale(0.015625)"/>
       <path id="DejaVuSans-6c" d="M 603 4863 
L 1178 4863 
L 1178 0 
L 603 0 
L 603 4863 
z
" transform="scale(0.015625)"/>
      </defs>
      <use xlink:href="#DejaVuSans-5b"/>
      <use xlink:href="#DejaVuSans-64" x="39.013672"/>
      <use xlink:href="#DejaVuSans-69" x="102.490234"/>
      <use xlink:href="#DejaVuSans-6d" x="130.273438"/>
      <use xlink:href="#DejaVuSans-65" x="227.685547"/>
      <use xlink:href="#DejaVuSans-6e" x="289.208984"/>
      <use xlink:href="#DejaVuSans-73" x="352.587891"/>
      <use xlink:href="#DejaVuSans-69" x="404.6875"/>
      <use xlink:href="#DejaVuSans-6f" x="432.470703"/>
      <use xlink:href="#DejaVuSans-6e" x="493.652344"/>
      <use xlink:href="#DejaVuSans-6c" x="557.03125"/>
      <use xlink:href="#DejaVuSans-65" x="584.814453"/>
      <use xlink:href="#DejaVuSans-73" x="646.337891"/>
      <use xlink:href="#DejaVuSans-73" x="698.4375"/>
      <use xlink:href="#DejaVuSans-5d" x="750.537109"/>
     </g>
    </g>
   </g>
   <g id="patch_3">
    <path d="M 51.378125 239.835719 
L 51.378125 10.999219 
" style="fill: none; stroke: #000000; stroke-width: 0.8; stroke-linejoin: miter; stroke-linecap: square"/>
   </g>
   <g id="patch_4">
    <path d="M 416.716071 239.835719 
L 416.716071 10.999219 
" style="fill: none; stroke: #000000; stroke-width: 0.8; stroke-linejoin: miter; stroke-linecap: square"/>
   </g>
   <g id="patch_5">
    <path d="M 51.378125 239.835719 
L 416.716071 239.835719 
" style="fill: none; stroke: #000000; stroke-width: 0.8; stroke-linejoin: miter; stroke-linecap: square"/>
   </g>
   <g id="patch_6">
    <path d="M 51.378125 10.999219 
L 416.716071 10.999219 
" style="fill: none; stroke: #000000; stroke-width: 0.8; stroke-linejoin: miter; stroke-linecap: square"/>
   </g>
   <g id="line2d_47">
    <path d="M 67.984395 29.922932 
L 69.645022 29.922932 
L 69.645022 28.328148 
L 71.305649 28.328148 
L 71.305649 29.712271 
L 72.966276 29.712271 
L 72.966276 29.350765 
L 74.626903 29.350765 
L 74.626903 28.638798 
L 76.28753 28.638798 
L 76.28753 28.440386 
L 77.948157 28.440386 
L 77.948157 32.906863 
L 79.608784 32.906863 
L 79.608784 31.681433 
L 81.269411 31.681433 
L 81.269411 33.958657 
L 82.930039 33.958657 
L 82.930039 36.591045 
L 84.590666 36.591045 
L 84.590666 39.496455 
L 86.251293 39.496455 
L 86.251293 38.65752 
L 87.91192 38.65752 
L 87.91192 38.541934 
L 89.572547 38.541934 
L 89.572547 43.623776 
L 91.233174 43.623776 
L 91.233174 43.892738 
L 92.893801 43.892738 
L 92.893801 42.278629 
L 94.554428 42.278629 
L 94.554428 44.250178 
L 96.215055 44.250178 
L 96.215055 48.486333 
L 97.875682 48.486333 
L 97.875682 46.547109 
L 99.536309 46.547109 
L 99.536309 48.275515 
L 101.196936 48.275515 
L 101.196936 49.996558 
L 102.857563 49.996558 
L 102.857563 54.881088 
L 104.51819 54.881088 
L 104.51819 54.608954 
L 106.178817 54.608954 
L 106.178817 64.974421 
L 107.839444 64.974421 
L 107.839444 64.444498 
L 109.500071 64.444498 
L 109.500071 61.760737 
L 111.160698 61.760737 
L 111.160698 70.670803 
L 112.821325 70.670803 
L 112.821325 74.287382 
L 114.481952 74.287382 
L 114.481952 81.159746 
L 116.142579 81.159746 
L 116.142579 77.466121 
L 117.803206 77.466121 
L 117.803206 83.41425 
L 119.463833 83.41425 
L 119.463833 89.424813 
L 121.12446 89.424813 
L 121.12446 93.905202 
L 122.785087 93.905202 
L 122.785087 98.177926 
L 124.445714 98.177926 
L 124.445714 98.876561 
L 126.106341 98.876561 
L 126.106341 110.633572 
L 127.766968 110.633572 
L 127.766968 116.036818 
L 129.427595 116.036818 
L 129.427595 116.228052 
L 131.088222 116.228052 
L 131.088222 125.126235 
L 132.748849 125.126235 
L 132.748849 131.569297 
L 134.409476 131.569297 
L 134.409476 137.832329 
L 136.070103 137.832329 
L 136.070103 142.964 
L 137.73073 142.964 
L 137.73073 148.790416 
L 139.391357 148.790416 
L 139.391357 161.987119 
L 141.051984 161.987119 
L 141.051984 163.319968 
L 142.712612 163.319968 
L 142.712612 163.938399 
L 144.373239 163.938399 
L 144.373239 166.333627 
L 146.033866 166.333627 
L 146.033866 159.200308 
L 147.694493 159.200308 
L 147.694493 157.524325 
L 149.35512 157.524325 
L 149.35512 152.27508 
L 151.015747 152.27508 
L 151.015747 151.239898 
L 152.676374 151.239898 
L 152.676374 147.006729 
L 154.337001 147.006729 
L 154.337001 145.805638 
L 155.997628 145.805638 
L 155.997628 143.973856 
L 157.658255 143.973856 
L 157.658255 141.502243 
L 159.318882 141.502243 
L 159.318882 140.457324 
L 160.979509 140.457324 
L 160.979509 137.431248 
L 162.640136 137.431248 
L 162.640136 139.139483 
L 164.300763 139.139483 
L 164.300763 139.946565 
L 165.96139 139.946565 
L 165.96139 129.896993 
L 167.622017 129.896993 
L 167.622017 144.119925 
L 169.282644 144.119925 
L 169.282644 135.200671 
L 170.943271 135.200671 
L 170.943271 138.821477 
L 172.603898 138.821477 
L 172.603898 137.371394 
L 174.264525 137.371394 
L 174.264525 143.75128 
L 175.925152 143.75128 
L 175.925152 142.310108 
L 177.585779 142.310108 
L 177.585779 142.165656 
L 179.246406 142.165656 
L 179.246406 139.851669 
L 180.907033 139.851669 
L 180.907033 148.649348 
L 182.56766 148.649348 
L 182.56766 144.399291 
L 184.228287 144.399291 
L 184.228287 145.897614 
L 185.888914 145.897614 
L 185.888914 154.376666 
L 187.549541 154.376666 
L 187.549541 153.459789 
L 189.210168 153.459789 
L 189.210168 155.19292 
L 190.870795 155.19292 
L 190.870795 151.078445 
L 192.531422 151.078445 
L 192.531422 153.811771 
L 194.192049 153.811771 
L 194.192049 160.853261 
L 195.852676 160.853261 
L 195.852676 164.708999 
L 197.513303 164.708999 
L 197.513303 158.123818 
L 199.17393 158.123818 
L 199.17393 172.45121 
L 200.834557 172.45121 
L 200.834557 166.062601 
L 202.495185 166.062601 
L 202.495185 165.076679 
L 204.155812 165.076679 
L 204.155812 164.673882 
L 205.816439 164.673882 
L 205.816439 167.004497 
L 207.477066 167.004497 
L 207.477066 166.059447 
L 209.137693 166.059447 
L 209.137693 170.983502 
L 210.79832 170.983502 
L 210.79832 162.047471 
L 212.458947 162.047471 
L 212.458947 170.626898 
L 214.119574 170.626898 
L 214.119574 159.565568 
L 215.780201 159.565568 
L 215.780201 168.372577 
L 217.440828 168.372577 
L 217.440828 166.717364 
L 219.101455 166.717364 
L 219.101455 153.709025 
L 220.762082 153.709025 
L 220.762082 161.188754 
L 222.422709 161.188754 
L 222.422709 160.01254 
L 224.083336 160.01254 
L 224.083336 154.148544 
L 225.743963 154.148544 
L 225.743963 155.632942 
L 227.40459 155.632942 
L 227.40459 161.344622 
L 229.065217 161.344622 
L 229.065217 156.568871 
L 230.725844 156.568871 
L 230.725844 159.914497 
L 232.386471 159.914497 
L 232.386471 160.908321 
L 234.047098 160.908321 
L 234.047098 156.838425 
L 235.707725 156.838425 
L 235.707725 157.030356 
L 237.368352 157.030356 
L 237.368352 164.453551 
L 239.028979 164.453551 
L 239.028979 157.400613 
L 240.689606 157.400613 
L 240.689606 152.841724 
L 242.350233 152.841724 
L 242.350233 168.283926 
L 244.01086 168.283926 
L 244.01086 162.392226 
L 245.671487 162.392226 
L 245.671487 161.280522 
L 247.332114 161.280522 
L 247.332114 158.85621 
L 248.992741 158.85621 
L 248.992741 171.099134 
L 250.653368 171.099134 
L 250.653368 167.301068 
L 252.313995 167.301068 
L 252.313995 161.600897 
L 253.974622 161.600897 
L 253.974622 157.14326 
L 255.635249 157.14326 
L 255.635249 168.473889 
L 257.295876 168.473889 
L 257.295876 162.543375 
L 258.956503 162.543375 
L 258.956503 163.374953 
L 260.61713 163.374953 
L 260.61713 162.537795 
L 262.277758 162.537795 
L 262.277758 164.579605 
L 263.938385 164.579605 
L 263.938385 164.143354 
L 265.599012 164.143354 
L 265.599012 172.044545 
L 267.259639 172.044545 
L 267.259639 167.864915 
L 268.920266 167.864915 
L 268.920266 163.264531 
L 270.580893 163.264531 
L 270.580893 155.172282 
L 272.24152 155.172282 
L 272.24152 157.688981 
L 273.902147 157.688981 
L 273.902147 168.23662 
L 275.562774 168.23662 
L 275.562774 157.671234 
L 277.223401 157.671234 
L 277.223401 170.237263 
L 278.884028 170.237263 
L 278.884028 160.134595 
L 280.544655 160.134595 
L 280.544655 165.801703 
L 282.205282 165.801703 
L 282.205282 166.307511 
L 283.865909 166.307511 
L 283.865909 162.757534 
L 285.526536 162.757534 
L 285.526536 163.028065 
L 287.187163 163.028065 
L 287.187163 164.528768 
L 288.84779 164.528768 
L 288.84779 163.502298 
L 290.508417 163.502298 
L 290.508417 164.47923 
L 292.169044 164.47923 
L 292.169044 161.157933 
L 293.829671 161.157933 
L 293.829671 164.543505 
L 295.490298 164.543505 
L 295.490298 168.270602 
L 297.150925 168.270602 
L 297.150925 166.248293 
L 298.811552 166.248293 
L 298.811552 162.793539 
L 300.472179 162.793539 
L 300.472179 166.420926 
L 302.132806 166.420926 
L 302.132806 157.555905 
L 303.793433 157.555905 
L 303.793433 163.227203 
L 305.45406 163.227203 
L 305.45406 168.551956 
L 307.114687 168.551956 
L 307.114687 160.733818 
L 308.775314 160.733818 
L 308.775314 164.531996 
L 310.435941 164.531996 
L 310.435941 165.280102 
L 312.096568 165.280102 
L 312.096568 169.646741 
L 313.757195 169.646741 
L 313.757195 164.275382 
L 315.417822 164.275382 
L 315.417822 166.505288 
L 317.078449 166.505288 
L 317.078449 171.964771 
L 318.739076 171.964771 
L 318.739076 162.755035 
L 320.399703 162.755035 
L 320.399703 163.098827 
L 322.060331 163.098827 
L 322.060331 153.7404 
L 323.720958 153.7404 
L 323.720958 158.929761 
L 325.381585 158.929761 
L 325.381585 165.819136 
L 327.042212 165.819136 
L 327.042212 172.795513 
L 328.702839 172.795513 
L 328.702839 169.361664 
L 330.363466 169.361664 
L 330.363466 153.39781 
L 332.024093 153.39781 
L 332.024093 167.017894 
L 333.68472 167.017894 
L 333.68472 161.225875 
L 335.345347 161.225875 
L 335.345347 166.914803 
L 337.005974 166.914803 
L 337.005974 165.336438 
L 338.666601 165.336438 
L 338.666601 151.450533 
L 340.327228 151.450533 
L 340.327228 171.949873 
L 341.987855 171.949873 
L 341.987855 158.932335 
L 343.648482 158.932335 
L 343.648482 163.204261 
L 345.309109 163.204261 
L 345.309109 163.936073 
L 346.969736 163.936073 
L 346.969736 159.393873 
L 348.630363 159.393873 
L 348.630363 165.478591 
L 350.29099 165.478591 
L 350.29099 180.424377 
L 351.951617 180.424377 
L 351.951617 148.329911 
L 353.612244 148.329911 
L 353.612244 178.068203 
L 355.272871 178.068203 
L 355.272871 163.518966 
L 356.933498 163.518966 
L 356.933498 166.706343 
L 358.594125 166.706343 
L 358.594125 167.387411 
L 360.254752 167.387411 
L 360.254752 160.705516 
L 361.915379 160.705516 
L 361.915379 164.510847 
L 363.576006 164.510847 
L 363.576006 161.522132 
L 365.236633 161.522132 
L 365.236633 180.264989 
L 366.89726 180.264989 
L 366.89726 175.595793 
L 368.557887 175.595793 
L 368.557887 164.331309 
L 370.218514 164.331309 
L 370.218514 165.476086 
L 371.879141 165.476086 
L 371.879141 152.122629 
L 373.539768 152.122629 
L 373.539768 161.350967 
L 375.200395 161.350967 
L 375.200395 186.140544 
L 376.861022 186.140544 
L 376.861022 130.4169 
L 378.521649 130.4169 
L 378.521649 189.512278 
L 380.182276 189.512278 
L 380.182276 182.654042 
L 381.842904 182.654042 
L 381.842904 180.412358 
L 383.503531 180.412358 
L 383.503531 -1 
L 383.503531 -1 
" clip-path="url(#p39c4c9134f)" style="fill: none; stroke: #1f77b4; stroke-width: 1.5; stroke-linecap: square"/>
   </g>
   <g id="LineCollection_1">
    <path d="M 68.814709 31.053461 
L 68.814709 28.841613 
" clip-path="url(#p39c4c9134f)" style="fill: none; stroke: #1f77b4; stroke-width: 1.5"/>
    <path d="M 70.475336 29.251953 
L 70.475336 27.437464 
" clip-path="url(#p39c4c9134f)" style="fill: none; stroke: #1f77b4; stroke-width: 1.5"/>
    <path d="M 72.135963 30.655303 
L 72.135963 28.803727 
" clip-path="url(#p39c4c9134f)" style="fill: none; stroke: #1f77b4; stroke-width: 1.5"/>
    <path d="M 73.79659 30.31005 
L 73.79659 28.427144 
" clip-path="url(#p39c4c9134f)" style="fill: none; stroke: #1f77b4; stroke-width: 1.5"/>
    <path d="M 75.457217 29.63002 
L 75.457217 27.685609 
" clip-path="url(#p39c4c9134f)" style="fill: none; stroke: #1f77b4; stroke-width: 1.5"/>
    <path d="M 77.117844 29.42922 
L 77.117844 27.489405 
" clip-path="url(#p39c4c9134f)" style="fill: none; stroke: #1f77b4; stroke-width: 1.5"/>
    <path d="M 78.778471 33.868865 
L 78.778471 31.980725 
" clip-path="url(#p39c4c9134f)" style="fill: none; stroke: #1f77b4; stroke-width: 1.5"/>
    <path d="M 80.439098 32.665441 
L 80.439098 30.734917 
" clip-path="url(#p39c4c9134f)" style="fill: none; stroke: #1f77b4; stroke-width: 1.5"/>
    <path d="M 82.099725 34.952106 
L 82.099725 33.003407 
" clip-path="url(#p39c4c9134f)" style="fill: none; stroke: #1f77b4; stroke-width: 1.5"/>
    <path d="M 83.760352 37.55896 
L 83.760352 35.659428 
" clip-path="url(#p39c4c9134f)" style="fill: none; stroke: #1f77b4; stroke-width: 1.5"/>
    <path d="M 85.420979 40.457914 
L 85.420979 38.57082 
" clip-path="url(#p39c4c9134f)" style="fill: none; stroke: #1f77b4; stroke-width: 1.5"/>
    <path d="M 87.081606 39.62299 
L 87.081606 37.728168 
" clip-path="url(#p39c4c9134f)" style="fill: none; stroke: #1f77b4; stroke-width: 1.5"/>
    <path d="M 88.742233 39.548668 
L 88.742233 37.57441 
" clip-path="url(#p39c4c9134f)" style="fill: none; stroke: #1f77b4; stroke-width: 1.5"/>
    <path d="M 90.40286 44.614707 
L 90.40286 42.670855 
" clip-path="url(#p39c4c9134f)" style="fill: none; stroke: #1f77b4; stroke-width: 1.5"/>
    <path d="M 92.063487 44.890505 
L 92.063487 42.933497 
" clip-path="url(#p39c4c9134f)" style="fill: none; stroke: #1f77b4; stroke-width: 1.5"/>
    <path d="M 93.724114 43.310875 
L 93.724114 41.287565 
" clip-path="url(#p39c4c9134f)" style="fill: none; stroke: #1f77b4; stroke-width: 1.5"/>
    <path d="M 95.384741 45.29828 
L 95.384741 43.244506 
" clip-path="url(#p39c4c9134f)" style="fill: none; stroke: #1f77b4; stroke-width: 1.5"/>
    <path d="M 97.045368 49.54305 
L 97.045368 47.472731 
" clip-path="url(#p39c4c9134f)" style="fill: none; stroke: #1f77b4; stroke-width: 1.5"/>
    <path d="M 98.705995 47.740331 
L 98.705995 45.408576 
" clip-path="url(#p39c4c9134f)" style="fill: none; stroke: #1f77b4; stroke-width: 1.5"/>
    <path d="M 100.366622 49.458127 
L 100.366622 47.146644 
" clip-path="url(#p39c4c9134f)" style="fill: none; stroke: #1f77b4; stroke-width: 1.5"/>
    <path d="M 102.027249 51.275881 
L 102.027249 48.779896 
" clip-path="url(#p39c4c9134f)" style="fill: none; stroke: #1f77b4; stroke-width: 1.5"/>
    <path d="M 103.687876 56.283752 
L 103.687876 53.553397 
" clip-path="url(#p39c4c9134f)" style="fill: none; stroke: #1f77b4; stroke-width: 1.5"/>
    <path d="M 105.348503 56.265596 
L 105.348503 53.055901 
" clip-path="url(#p39c4c9134f)" style="fill: none; stroke: #1f77b4; stroke-width: 1.5"/>
    <path d="M 107.00913 66.715062 
L 107.00913 63.347784 
" clip-path="url(#p39c4c9134f)" style="fill: none; stroke: #1f77b4; stroke-width: 1.5"/>
    <path d="M 108.669757 66.590323 
L 108.669757 62.469356 
" clip-path="url(#p39c4c9134f)" style="fill: none; stroke: #1f77b4; stroke-width: 1.5"/>
    <path d="M 110.330384 64.019307 
L 110.330384 59.690481 
" clip-path="url(#p39c4c9134f)" style="fill: none; stroke: #1f77b4; stroke-width: 1.5"/>
    <path d="M 111.991012 72.997027 
L 111.991012 68.543853 
" clip-path="url(#p39c4c9134f)" style="fill: none; stroke: #1f77b4; stroke-width: 1.5"/>
    <path d="M 113.651639 76.525303 
L 113.651639 72.234487 
" clip-path="url(#p39c4c9134f)" style="fill: none; stroke: #1f77b4; stroke-width: 1.5"/>
    <path d="M 115.312266 83.364819 
L 115.312266 79.134522 
" clip-path="url(#p39c4c9134f)" style="fill: none; stroke: #1f77b4; stroke-width: 1.5"/>
    <path d="M 116.972893 79.451087 
L 116.972893 75.628073 
" clip-path="url(#p39c4c9134f)" style="fill: none; stroke: #1f77b4; stroke-width: 1.5"/>
    <path d="M 118.63352 85.411119 
L 118.63352 81.566001 
" clip-path="url(#p39c4c9134f)" style="fill: none; stroke: #1f77b4; stroke-width: 1.5"/>
    <path d="M 120.294147 91.442557 
L 120.294147 87.558696 
" clip-path="url(#p39c4c9134f)" style="fill: none; stroke: #1f77b4; stroke-width: 1.5"/>
    <path d="M 121.954774 95.880876 
L 121.954774 92.075124 
" clip-path="url(#p39c4c9134f)" style="fill: none; stroke: #1f77b4; stroke-width: 1.5"/>
    <path d="M 123.615401 100.193915 
L 123.615401 96.31331 
" clip-path="url(#p39c4c9134f)" style="fill: none; stroke: #1f77b4; stroke-width: 1.5"/>
    <path d="M 125.276028 100.948633 
L 125.276028 96.964072 
" clip-path="url(#p39c4c9134f)" style="fill: none; stroke: #1f77b4; stroke-width: 1.5"/>
    <path d="M 126.936655 112.942909 
L 126.936655 108.520747 
" clip-path="url(#p39c4c9134f)" style="fill: none; stroke: #1f77b4; stroke-width: 1.5"/>
    <path d="M 128.597282 118.577417 
L 128.597282 113.732077 
" clip-path="url(#p39c4c9134f)" style="fill: none; stroke: #1f77b4; stroke-width: 1.5"/>
    <path d="M 130.257909 118.793764 
L 130.257909 113.902668 
" clip-path="url(#p39c4c9134f)" style="fill: none; stroke: #1f77b4; stroke-width: 1.5"/>
    <path d="M 131.918536 128.133127 
L 131.918536 122.444275 
" clip-path="url(#p39c4c9134f)" style="fill: none; stroke: #1f77b4; stroke-width: 1.5"/>
    <path d="M 133.579163 135.000539 
L 133.579163 128.554929 
" clip-path="url(#p39c4c9134f)" style="fill: none; stroke: #1f77b4; stroke-width: 1.5"/>
    <path d="M 135.23979 141.847789 
L 135.23979 134.376445 
" clip-path="url(#p39c4c9134f)" style="fill: none; stroke: #1f77b4; stroke-width: 1.5"/>
    <path d="M 136.900417 147.388266 
L 136.900417 139.209754 
" clip-path="url(#p39c4c9134f)" style="fill: none; stroke: #1f77b4; stroke-width: 1.5"/>
    <path d="M 138.561044 153.726575 
L 138.561044 144.674271 
" clip-path="url(#p39c4c9134f)" style="fill: none; stroke: #1f77b4; stroke-width: 1.5"/>
    <path d="M 140.221671 168.278318 
L 140.221671 156.971383 
" clip-path="url(#p39c4c9134f)" style="fill: none; stroke: #1f77b4; stroke-width: 1.5"/>
    <path d="M 141.882298 169.960572 
L 141.882298 158.085092 
" clip-path="url(#p39c4c9134f)" style="fill: none; stroke: #1f77b4; stroke-width: 1.5"/>
    <path d="M 143.542925 170.597329 
L 143.542925 158.692168 
" clip-path="url(#p39c4c9134f)" style="fill: none; stroke: #1f77b4; stroke-width: 1.5"/>
    <path d="M 145.203552 173.284078 
L 145.203552 160.908557 
" clip-path="url(#p39c4c9134f)" style="fill: none; stroke: #1f77b4; stroke-width: 1.5"/>
    <path d="M 146.864179 165.397416 
L 146.864179 154.244448 
" clip-path="url(#p39c4c9134f)" style="fill: none; stroke: #1f77b4; stroke-width: 1.5"/>
    <path d="M 148.524806 163.414968 
L 148.524806 152.766087 
" clip-path="url(#p39c4c9134f)" style="fill: none; stroke: #1f77b4; stroke-width: 1.5"/>
    <path d="M 150.185433 157.677555 
L 150.185433 147.840082 
" clip-path="url(#p39c4c9134f)" style="fill: none; stroke: #1f77b4; stroke-width: 1.5"/>
    <path d="M 151.84606 156.479337 
L 151.84606 146.915236 
" clip-path="url(#p39c4c9134f)" style="fill: none; stroke: #1f77b4; stroke-width: 1.5"/>
    <path d="M 153.506687 151.769653 
L 153.506687 143.011636 
" clip-path="url(#p39c4c9134f)" style="fill: none; stroke: #1f77b4; stroke-width: 1.5"/>
    <path d="M 155.167314 150.381809 
L 155.167314 141.942666 
" clip-path="url(#p39c4c9134f)" style="fill: none; stroke: #1f77b4; stroke-width: 1.5"/>
    <path d="M 156.827941 148.413996 
L 156.827941 140.208195 
" clip-path="url(#p39c4c9134f)" style="fill: none; stroke: #1f77b4; stroke-width: 1.5"/>
    <path d="M 158.488568 145.764552 
L 158.488568 137.865185 
" clip-path="url(#p39c4c9134f)" style="fill: none; stroke: #1f77b4; stroke-width: 1.5"/>
    <path d="M 160.149195 144.589792 
L 160.149195 136.915173 
" clip-path="url(#p39c4c9134f)" style="fill: none; stroke: #1f77b4; stroke-width: 1.5"/>
    <path d="M 161.809822 141.3803 
L 161.809822 134.024639 
" clip-path="url(#p39c4c9134f)" style="fill: none; stroke: #1f77b4; stroke-width: 1.5"/>
    <path d="M 163.470449 142.996766 
L 163.470449 135.801347 
" clip-path="url(#p39c4c9134f)" style="fill: none; stroke: #1f77b4; stroke-width: 1.5"/>
    <path d="M 165.131076 144.104077 
L 165.131076 136.38604 
" clip-path="url(#p39c4c9134f)" style="fill: none; stroke: #1f77b4; stroke-width: 1.5"/>
    <path d="M 166.791703 133.376967 
L 166.791703 126.845094 
" clip-path="url(#p39c4c9134f)" style="fill: none; stroke: #1f77b4; stroke-width: 1.5"/>
    <path d="M 168.45233 148.415155 
L 168.45233 140.458939 
" clip-path="url(#p39c4c9134f)" style="fill: none; stroke: #1f77b4; stroke-width: 1.5"/>
    <path d="M 170.112957 139.030768 
L 170.112957 131.882905 
" clip-path="url(#p39c4c9134f)" style="fill: none; stroke: #1f77b4; stroke-width: 1.5"/>
    <path d="M 171.773585 142.706203 
L 171.773585 135.462818 
" clip-path="url(#p39c4c9134f)" style="fill: none; stroke: #1f77b4; stroke-width: 1.5"/>
    <path d="M 173.434212 141.31254 
L 173.434212 133.970667 
" clip-path="url(#p39c4c9134f)" style="fill: none; stroke: #1f77b4; stroke-width: 1.5"/>
    <path d="M 175.094839 148.07377 
L 175.094839 140.070523 
" clip-path="url(#p39c4c9134f)" style="fill: none; stroke: #1f77b4; stroke-width: 1.5"/>
    <path d="M 176.755466 146.512263 
L 176.755466 138.716912 
" clip-path="url(#p39c4c9134f)" style="fill: none; stroke: #1f77b4; stroke-width: 1.5"/>
    <path d="M 178.416093 146.494148 
L 178.416093 138.480551 
" clip-path="url(#p39c4c9134f)" style="fill: none; stroke: #1f77b4; stroke-width: 1.5"/>
    <path d="M 180.07672 143.832216 
L 180.07672 136.421661 
" clip-path="url(#p39c4c9134f)" style="fill: none; stroke: #1f77b4; stroke-width: 1.5"/>
    <path d="M 181.737347 153.518258 
L 181.737347 144.580024 
" clip-path="url(#p39c4c9134f)" style="fill: none; stroke: #1f77b4; stroke-width: 1.5"/>
    <path d="M 183.397974 148.954666 
L 183.397974 140.551136 
" clip-path="url(#p39c4c9134f)" style="fill: none; stroke: #1f77b4; stroke-width: 1.5"/>
    <path d="M 185.058601 150.634124 
L 185.058601 141.921106 
" clip-path="url(#p39c4c9134f)" style="fill: none; stroke: #1f77b4; stroke-width: 1.5"/>
    <path d="M 186.719228 159.752072 
L 186.719228 149.959904 
" clip-path="url(#p39c4c9134f)" style="fill: none; stroke: #1f77b4; stroke-width: 1.5"/>
    <path d="M 188.379855 158.63434 
L 188.379855 149.179381 
" clip-path="url(#p39c4c9134f)" style="fill: none; stroke: #1f77b4; stroke-width: 1.5"/>
    <path d="M 190.040482 160.97656 
L 190.040482 150.504635 
" clip-path="url(#p39c4c9134f)" style="fill: none; stroke: #1f77b4; stroke-width: 1.5"/>
    <path d="M 191.701109 156.407165 
L 191.701109 146.693211 
" clip-path="url(#p39c4c9134f)" style="fill: none; stroke: #1f77b4; stroke-width: 1.5"/>
    <path d="M 193.361736 159.403667 
L 193.361736 149.250093 
" clip-path="url(#p39c4c9134f)" style="fill: none; stroke: #1f77b4; stroke-width: 1.5"/>
    <path d="M 195.022363 167.289034 
L 195.022363 155.746242 
" clip-path="url(#p39c4c9134f)" style="fill: none; stroke: #1f77b4; stroke-width: 1.5"/>
    <path d="M 196.68299 171.419327 
L 196.68299 159.43099 
" clip-path="url(#p39c4c9134f)" style="fill: none; stroke: #1f77b4; stroke-width: 1.5"/>
    <path d="M 198.343617 164.10767 
L 198.343617 153.30505 
" clip-path="url(#p39c4c9134f)" style="fill: none; stroke: #1f77b4; stroke-width: 1.5"/>
    <path d="M 200.004244 180.494924 
L 200.004244 166.38454 
" clip-path="url(#p39c4c9134f)" style="fill: none; stroke: #1f77b4; stroke-width: 1.5"/>
    <path d="M 201.664871 173.305015 
L 201.664871 160.461769 
" clip-path="url(#p39c4c9134f)" style="fill: none; stroke: #1f77b4; stroke-width: 1.5"/>
    <path d="M 203.325498 172.027287 
L 203.325498 159.651513 
" clip-path="url(#p39c4c9134f)" style="fill: none; stroke: #1f77b4; stroke-width: 1.5"/>
    <path d="M 204.986125 171.506334 
L 204.986125 159.320792 
" clip-path="url(#p39c4c9134f)" style="fill: none; stroke: #1f77b4; stroke-width: 1.5"/>
    <path d="M 206.646752 174.153037 
L 206.646752 161.459818 
" clip-path="url(#p39c4c9134f)" style="fill: none; stroke: #1f77b4; stroke-width: 1.5"/>
    <path d="M 208.307379 173.718677 
L 208.307379 160.213335 
" clip-path="url(#p39c4c9134f)" style="fill: none; stroke: #1f77b4; stroke-width: 1.5"/>
    <path d="M 209.968006 179.180943 
L 209.968006 164.830134 
" clip-path="url(#p39c4c9134f)" style="fill: none; stroke: #1f77b4; stroke-width: 1.5"/>
    <path d="M 211.628633 168.555953 
L 211.628633 156.89487 
" clip-path="url(#p39c4c9134f)" style="fill: none; stroke: #1f77b4; stroke-width: 1.5"/>
    <path d="M 213.28926 178.557748 
L 213.28926 164.624415 
" clip-path="url(#p39c4c9134f)" style="fill: none; stroke: #1f77b4; stroke-width: 1.5"/>
    <path d="M 214.949887 165.730479 
L 214.949887 154.630281 
" clip-path="url(#p39c4c9134f)" style="fill: none; stroke: #1f77b4; stroke-width: 1.5"/>
    <path d="M 216.610514 175.952167 
L 216.610514 162.572826 
" clip-path="url(#p39c4c9134f)" style="fill: none; stroke: #1f77b4; stroke-width: 1.5"/>
    <path d="M 218.271141 173.621639 
L 218.271141 161.320395 
" clip-path="url(#p39c4c9134f)" style="fill: none; stroke: #1f77b4; stroke-width: 1.5"/>
    <path d="M 219.931768 159.387185 
L 219.931768 149.090187 
" clip-path="url(#p39c4c9134f)" style="fill: none; stroke: #1f77b4; stroke-width: 1.5"/>
    <path d="M 221.592395 167.573657 
L 221.592395 156.113755 
" clip-path="url(#p39c4c9134f)" style="fill: none; stroke: #1f77b4; stroke-width: 1.5"/>
    <path d="M 223.253022 166.158704 
L 223.253022 155.089254 
" clip-path="url(#p39c4c9134f)" style="fill: none; stroke: #1f77b4; stroke-width: 1.5"/>
    <path d="M 224.913649 159.769139 
L 224.913649 149.567813 
" clip-path="url(#p39c4c9134f)" style="fill: none; stroke: #1f77b4; stroke-width: 1.5"/>
    <path d="M 226.574276 161.839741 
L 226.574276 150.670897 
" clip-path="url(#p39c4c9134f)" style="fill: none; stroke: #1f77b4; stroke-width: 1.5"/>
    <path d="M 228.234903 167.628278 
L 228.234903 156.333672 
" clip-path="url(#p39c4c9134f)" style="fill: none; stroke: #1f77b4; stroke-width: 1.5"/>
    <path d="M 229.89553 162.255916 
L 229.89553 151.944164 
" clip-path="url(#p39c4c9134f)" style="fill: none; stroke: #1f77b4; stroke-width: 1.5"/>
    <path d="M 231.556158 166.460717 
L 231.556158 154.738323 
" clip-path="url(#p39c4c9134f)" style="fill: none; stroke: #1f77b4; stroke-width: 1.5"/>
    <path d="M 233.216785 167.384927 
L 233.216785 155.775676 
" clip-path="url(#p39c4c9134f)" style="fill: none; stroke: #1f77b4; stroke-width: 1.5"/>
    <path d="M 234.877412 162.698899 
L 234.877412 152.09986 
" clip-path="url(#p39c4c9134f)" style="fill: none; stroke: #1f77b4; stroke-width: 1.5"/>
    <path d="M 236.538039 162.943104 
L 236.538039 152.257728 
" clip-path="url(#p39c4c9134f)" style="fill: none; stroke: #1f77b4; stroke-width: 1.5"/>
    <path d="M 238.198666 171.452835 
L 238.198666 158.998852 
" clip-path="url(#p39c4c9134f)" style="fill: none; stroke: #1f77b4; stroke-width: 1.5"/>
    <path d="M 239.859293 163.056298 
L 239.859293 152.796635 
" clip-path="url(#p39c4c9134f)" style="fill: none; stroke: #1f77b4; stroke-width: 1.5"/>
    <path d="M 241.51992 158.612041 
L 241.51992 148.162183 
" clip-path="url(#p39c4c9134f)" style="fill: none; stroke: #1f77b4; stroke-width: 1.5"/>
    <path d="M 243.180547 175.614342 
L 243.180547 162.630763 
" clip-path="url(#p39c4c9134f)" style="fill: none; stroke: #1f77b4; stroke-width: 1.5"/>
    <path d="M 244.841174 168.993458 
L 244.841174 157.181794 
" clip-path="url(#p39c4c9134f)" style="fill: none; stroke: #1f77b4; stroke-width: 1.5"/>
    <path d="M 246.501801 168.006294 
L 246.501801 155.992984 
" clip-path="url(#p39c4c9134f)" style="fill: none; stroke: #1f77b4; stroke-width: 1.5"/>
    <path d="M 248.162428 164.91315 
L 248.162428 153.990239 
" clip-path="url(#p39c4c9134f)" style="fill: none; stroke: #1f77b4; stroke-width: 1.5"/>
    <path d="M 249.823055 179.044831 
L 249.823055 165.088182 
" clip-path="url(#p39c4c9134f)" style="fill: none; stroke: #1f77b4; stroke-width: 1.5"/>
    <path d="M 251.483682 174.833225 
L 251.483682 161.529043 
" clip-path="url(#p39c4c9134f)" style="fill: none; stroke: #1f77b4; stroke-width: 1.5"/>
    <path d="M 253.144309 168.16571 
L 253.144309 156.413131 
" clip-path="url(#p39c4c9134f)" style="fill: none; stroke: #1f77b4; stroke-width: 1.5"/>
    <path d="M 254.804936 162.889383 
L 254.804936 152.47962 
" clip-path="url(#p39c4c9134f)" style="fill: none; stroke: #1f77b4; stroke-width: 1.5"/>
    <path d="M 256.465563 176.027736 
L 256.465563 162.689176 
" clip-path="url(#p39c4c9134f)" style="fill: none; stroke: #1f77b4; stroke-width: 1.5"/>
    <path d="M 258.12619 168.947272 
L 258.12619 157.456408 
" clip-path="url(#p39c4c9134f)" style="fill: none; stroke: #1f77b4; stroke-width: 1.5"/>
    <path d="M 259.786817 170.248958 
L 259.786817 157.996453 
" clip-path="url(#p39c4c9134f)" style="fill: none; stroke: #1f77b4; stroke-width: 1.5"/>
    <path d="M 261.447444 169.125382 
L 261.447444 157.335849 
" clip-path="url(#p39c4c9134f)" style="fill: none; stroke: #1f77b4; stroke-width: 1.5"/>
    <path d="M 263.108071 171.396104 
L 263.108071 159.23629 
" clip-path="url(#p39c4c9134f)" style="fill: none; stroke: #1f77b4; stroke-width: 1.5"/>
    <path d="M 264.768698 171.173515 
L 264.768698 158.669969 
" clip-path="url(#p39c4c9134f)" style="fill: none; stroke: #1f77b4; stroke-width: 1.5"/>
    <path d="M 266.429325 180.263184 
L 266.429325 165.879287 
" clip-path="url(#p39c4c9134f)" style="fill: none; stroke: #1f77b4; stroke-width: 1.5"/>
    <path d="M 268.089952 175.384276 
L 268.089952 162.100383 
" clip-path="url(#p39c4c9134f)" style="fill: none; stroke: #1f77b4; stroke-width: 1.5"/>
    <path d="M 269.750579 170.211511 
L 269.750579 157.841571 
" clip-path="url(#p39c4c9134f)" style="fill: none; stroke: #1f77b4; stroke-width: 1.5"/>
    <path d="M 271.411206 160.979617 
L 271.411206 150.468464 
" clip-path="url(#p39c4c9134f)" style="fill: none; stroke: #1f77b4; stroke-width: 1.5"/>
    <path d="M 273.071833 163.897574 
L 273.071833 152.725792 
" clip-path="url(#p39c4c9134f)" style="fill: none; stroke: #1f77b4; stroke-width: 1.5"/>
    <path d="M 274.73246 175.603678 
L 274.73246 162.561754 
" clip-path="url(#p39c4c9134f)" style="fill: none; stroke: #1f77b4; stroke-width: 1.5"/>
    <path d="M 276.393087 163.877135 
L 276.393087 152.709763 
" clip-path="url(#p39c4c9134f)" style="fill: none; stroke: #1f77b4; stroke-width: 1.5"/>
    <path d="M 278.053714 177.963315 
L 278.053714 164.352432 
" clip-path="url(#p39c4c9134f)" style="fill: none; stroke: #1f77b4; stroke-width: 1.5"/>
    <path d="M 279.714341 166.549361 
L 279.714341 155.040786 
" clip-path="url(#p39c4c9134f)" style="fill: none; stroke: #1f77b4; stroke-width: 1.5"/>
    <path d="M 281.374968 172.928134 
L 281.374968 160.270298 
" clip-path="url(#p39c4c9134f)" style="fill: none; stroke: #1f77b4; stroke-width: 1.5"/>
    <path d="M 283.035595 173.880527 
L 283.035595 160.511598 
" clip-path="url(#p39c4c9134f)" style="fill: none; stroke: #1f77b4; stroke-width: 1.5"/>
    <path d="M 284.696222 169.639119 
L 284.696222 157.374406 
" clip-path="url(#p39c4c9134f)" style="fill: none; stroke: #1f77b4; stroke-width: 1.5"/>
    <path d="M 286.356849 169.568915 
L 286.356849 157.855242 
" clip-path="url(#p39c4c9134f)" style="fill: none; stroke: #1f77b4; stroke-width: 1.5"/>
    <path d="M 288.017476 171.536115 
L 288.017476 159.069186 
" clip-path="url(#p39c4c9134f)" style="fill: none; stroke: #1f77b4; stroke-width: 1.5"/>
    <path d="M 289.678103 170.295956 
L 289.678103 158.172994 
" clip-path="url(#p39c4c9134f)" style="fill: none; stroke: #1f77b4; stroke-width: 1.5"/>
    <path d="M 291.338731 171.748555 
L 291.338731 158.862365 
" clip-path="url(#p39c4c9134f)" style="fill: none; stroke: #1f77b4; stroke-width: 1.5"/>
    <path d="M 292.999358 167.700407 
L 292.999358 155.984097 
" clip-path="url(#p39c4c9134f)" style="fill: none; stroke: #1f77b4; stroke-width: 1.5"/>
    <path d="M 294.659985 171.235053 
L 294.659985 159.277095 
" clip-path="url(#p39c4c9134f)" style="fill: none; stroke: #1f77b4; stroke-width: 1.5"/>
    <path d="M 296.320612 175.667947 
L 296.320612 162.577836 
" clip-path="url(#p39c4c9134f)" style="fill: none; stroke: #1f77b4; stroke-width: 1.5"/>
    <path d="M 297.981239 173.479173 
L 297.981239 160.654343 
" clip-path="url(#p39c4c9134f)" style="fill: none; stroke: #1f77b4; stroke-width: 1.5"/>
    <path d="M 299.641866 169.299388 
L 299.641866 157.642584 
" clip-path="url(#p39c4c9134f)" style="fill: none; stroke: #1f77b4; stroke-width: 1.5"/>
    <path d="M 301.302493 173.499568 
L 301.302493 160.918278 
" clip-path="url(#p39c4c9134f)" style="fill: none; stroke: #1f77b4; stroke-width: 1.5"/>
    <path d="M 302.96312 163.648509 
L 302.96312 152.666984 
" clip-path="url(#p39c4c9134f)" style="fill: none; stroke: #1f77b4; stroke-width: 1.5"/>
    <path d="M 304.623747 169.963447 
L 304.623747 157.93321 
" clip-path="url(#p39c4c9134f)" style="fill: none; stroke: #1f77b4; stroke-width: 1.5"/>
    <path d="M 306.284374 176.04432 
L 306.284374 162.803255 
" clip-path="url(#p39c4c9134f)" style="fill: none; stroke: #1f77b4; stroke-width: 1.5"/>
    <path d="M 307.945001 167.160064 
L 307.945001 155.632787 
" clip-path="url(#p39c4c9134f)" style="fill: none; stroke: #1f77b4; stroke-width: 1.5"/>
    <path d="M 309.605628 171.457172 
L 309.605628 159.122297 
" clip-path="url(#p39c4c9134f)" style="fill: none; stroke: #1f77b4; stroke-width: 1.5"/>
    <path d="M 311.266255 172.391119 
L 311.266255 159.757961 
" clip-path="url(#p39c4c9134f)" style="fill: none; stroke: #1f77b4; stroke-width: 1.5"/>
    <path d="M 312.926882 177.320698 
L 312.926882 163.792082 
" clip-path="url(#p39c4c9134f)" style="fill: none; stroke: #1f77b4; stroke-width: 1.5"/>
    <path d="M 314.587509 170.865484 
L 314.587509 159.07187 
" clip-path="url(#p39c4c9134f)" style="fill: none; stroke: #1f77b4; stroke-width: 1.5"/>
    <path d="M 316.248136 174.10017 
L 316.248136 160.696618 
" clip-path="url(#p39c4c9134f)" style="fill: none; stroke: #1f77b4; stroke-width: 1.5"/>
    <path d="M 317.908763 180.861593 
L 317.908763 165.427337 
" clip-path="url(#p39c4c9134f)" style="fill: none; stroke: #1f77b4; stroke-width: 1.5"/>
    <path d="M 319.56939 169.826847 
L 319.56939 157.256503 
" clip-path="url(#p39c4c9134f)" style="fill: none; stroke: #1f77b4; stroke-width: 1.5"/>
    <path d="M 321.230017 170.298009 
L 321.230017 157.523814 
" clip-path="url(#p39c4c9134f)" style="fill: none; stroke: #1f77b4; stroke-width: 1.5"/>
    <path d="M 322.890644 159.859551 
L 322.890644 148.83443 
" clip-path="url(#p39c4c9134f)" style="fill: none; stroke: #1f77b4; stroke-width: 1.5"/>
    <path d="M 324.551271 165.496882 
L 324.551271 153.740557 
" clip-path="url(#p39c4c9134f)" style="fill: none; stroke: #1f77b4; stroke-width: 1.5"/>
    <path d="M 326.211898 174.214671 
L 326.211898 159.555277 
" clip-path="url(#p39c4c9134f)" style="fill: none; stroke: #1f77b4; stroke-width: 1.5"/>
    <path d="M 327.872525 182.057216 
L 327.872525 166.06422 
" clip-path="url(#p39c4c9134f)" style="fill: none; stroke: #1f77b4; stroke-width: 1.5"/>
    <path d="M 329.533152 178.290089 
L 329.533152 162.807266 
" clip-path="url(#p39c4c9134f)" style="fill: none; stroke: #1f77b4; stroke-width: 1.5"/>
    <path d="M 331.193779 159.832787 
L 331.193779 148.29129 
" clip-path="url(#p39c4c9134f)" style="fill: none; stroke: #1f77b4; stroke-width: 1.5"/>
    <path d="M 332.854406 175.586549 
L 332.854406 160.65859 
" clip-path="url(#p39c4c9134f)" style="fill: none; stroke: #1f77b4; stroke-width: 1.5"/>
    <path d="M 334.515033 169.274111 
L 334.515033 155.156642 
" clip-path="url(#p39c4c9134f)" style="fill: none; stroke: #1f77b4; stroke-width: 1.5"/>
    <path d="M 336.17566 176.119349 
L 336.17566 160.21359 
" clip-path="url(#p39c4c9134f)" style="fill: none; stroke: #1f77b4; stroke-width: 1.5"/>
    <path d="M 337.836287 174.95743 
L 337.836287 158.418456 
" clip-path="url(#p39c4c9134f)" style="fill: none; stroke: #1f77b4; stroke-width: 1.5"/>
    <path d="M 339.496914 158.442424 
L 339.496914 146.000314 
" clip-path="url(#p39c4c9134f)" style="fill: none; stroke: #1f77b4; stroke-width: 1.5"/>
    <path d="M 341.157541 183.254092 
L 341.157541 164.209254 
" clip-path="url(#p39c4c9134f)" style="fill: none; stroke: #1f77b4; stroke-width: 1.5"/>
    <path d="M 342.818168 166.7218 
L 342.818168 153.01091 
" clip-path="url(#p39c4c9134f)" style="fill: none; stroke: #1f77b4; stroke-width: 1.5"/>
    <path d="M 344.478795 172.844953 
L 344.478795 156.27616 
" clip-path="url(#p39c4c9134f)" style="fill: none; stroke: #1f77b4; stroke-width: 1.5"/>
    <path d="M 346.139422 173.591663 
L 346.139422 157.000328 
" clip-path="url(#p39c4c9134f)" style="fill: none; stroke: #1f77b4; stroke-width: 1.5"/>
    <path d="M 347.800049 169.089685 
L 347.800049 152.437526 
" clip-path="url(#p39c4c9134f)" style="fill: none; stroke: #1f77b4; stroke-width: 1.5"/>
    <path d="M 349.460676 176.309105 
L 349.460676 157.961178 
" clip-path="url(#p39c4c9134f)" style="fill: none; stroke: #1f77b4; stroke-width: 1.5"/>
    <path d="M 351.121303 197.02533 
L 351.121303 170.560748 
" clip-path="url(#p39c4c9134f)" style="fill: none; stroke: #1f77b4; stroke-width: 1.5"/>
    <path d="M 352.781931 156.274886 
L 352.781931 142.319371 
" clip-path="url(#p39c4c9134f)" style="fill: none; stroke: #1f77b4; stroke-width: 1.5"/>
    <path d="M 354.442558 195.421132 
L 354.442558 167.950574 
" clip-path="url(#p39c4c9134f)" style="fill: none; stroke: #1f77b4; stroke-width: 1.5"/>
    <path d="M 356.103185 176.175221 
L 356.103185 155.174347 
" clip-path="url(#p39c4c9134f)" style="fill: none; stroke: #1f77b4; stroke-width: 1.5"/>
    <path d="M 357.763812 179.407855 
L 357.763812 158.342314 
" clip-path="url(#p39c4c9134f)" style="fill: none; stroke: #1f77b4; stroke-width: 1.5"/>
    <path d="M 359.424439 182.009057 
L 359.424439 158.24425 
" clip-path="url(#p39c4c9134f)" style="fill: none; stroke: #1f77b4; stroke-width: 1.5"/>
    <path d="M 361.085066 173.176822 
L 361.085066 152.440748 
" clip-path="url(#p39c4c9134f)" style="fill: none; stroke: #1f77b4; stroke-width: 1.5"/>
    <path d="M 362.745693 179.341687 
L 362.745693 155.287773 
" clip-path="url(#p39c4c9134f)" style="fill: none; stroke: #1f77b4; stroke-width: 1.5"/>
    <path d="M 364.40632 175.404673 
L 364.40632 152.668913 
" clip-path="url(#p39c4c9134f)" style="fill: none; stroke: #1f77b4; stroke-width: 1.5"/>
    <path d="M 366.066947 211.136905 
L 366.066947 166.915837 
" clip-path="url(#p39c4c9134f)" style="fill: none; stroke: #1f77b4; stroke-width: 1.5"/>
    <path d="M 367.727574 203.483033 
L 367.727574 162.787382 
" clip-path="url(#p39c4c9134f)" style="fill: none; stroke: #1f77b4; stroke-width: 1.5"/>
    <path d="M 369.388201 182.305725 
L 369.388201 154.011348 
" clip-path="url(#p39c4c9134f)" style="fill: none; stroke: #1f77b4; stroke-width: 1.5"/>
    <path d="M 371.048828 190.218102 
L 371.048828 153.328125 
" clip-path="url(#p39c4c9134f)" style="fill: none; stroke: #1f77b4; stroke-width: 1.5"/>
    <path d="M 372.709455 168.062541 
L 372.709455 142.49098 
" clip-path="url(#p39c4c9134f)" style="fill: none; stroke: #1f77b4; stroke-width: 1.5"/>
    <path d="M 374.370082 186.102862 
L 374.370082 149.200769 
" clip-path="url(#p39c4c9134f)" style="fill: none; stroke: #1f77b4; stroke-width: 1.5"/>
    <path d="M 376.030709 279.315406 
L 376.030709 167.562837 
" clip-path="url(#p39c4c9134f)" style="fill: none; stroke: #1f77b4; stroke-width: 1.5"/>
    <path d="M 377.691336 145.394748 
L 377.691336 121.138219 
" clip-path="url(#p39c4c9134f)" style="fill: none; stroke: #1f77b4; stroke-width: 1.5"/>
    <path d="M 379.351963 279.315406 
L 379.351963 162.879442 
" clip-path="url(#p39c4c9134f)" style="fill: none; stroke: #1f77b4; stroke-width: 1.5"/>
    <path d="M 381.01259 279.315406 
L 381.01259 151.360882 
" clip-path="url(#p39c4c9134f)" style="fill: none; stroke: #1f77b4; stroke-width: 1.5"/>
    <path d="M 382.673217 279.315406 
L 382.673217 142.667525 
" clip-path="url(#p39c4c9134f)" style="fill: none; stroke: #1f77b4; stroke-width: 1.5"/>
    <path d="M 384.333844 279.315406 
L 384.333844 -1 
" clip-path="url(#p39c4c9134f)" style="fill: none; stroke: #1f77b4; stroke-width: 1.5"/>
    <path clip-path="url(#p39c4c9134f)" style="fill: none; stroke: #1f77b4; stroke-width: 1.5"/>
    <path clip-path="url(#p39c4c9134f)" style="fill: none; stroke: #1f77b4; stroke-width: 1.5"/>
    <path clip-path="url(#p39c4c9134f)" style="fill: none; stroke: #1f77b4; stroke-width: 1.5"/>
    <path clip-path="url(#p39c4c9134f)" style="fill: none; stroke: #1f77b4; stroke-width: 1.5"/>
    <path clip-path="url(#p39c4c9134f)" style="fill: none; stroke: #1f77b4; stroke-width: 1.5"/>
    <path clip-path="url(#p39c4c9134f)" style="fill: none; stroke: #1f77b4; stroke-width: 1.5"/>
    <path clip-path="url(#p39c4c9134f)" style="fill: none; stroke: #1f77b4; stroke-width: 1.5"/>
    <path clip-path="url(#p39c4c9134f)" style="fill: none; stroke: #1f77b4; stroke-width: 1.5"/>
    <path clip-path="url(#p39c4c9134f)" style="fill: none; stroke: #1f77b4; stroke-width: 1.5"/>
   </g>
  </g>
 </g>
 <defs>
  <clipPath id="p39c4c9134f">
   <rect x="51.378125" y="10.999219" width="365.337946" height="228.8365"/>
  </clipPath>
 </defs>
</svg>