<?xml version="1.0" encoding="utf-8" standalone="no"?>
<!DOCTYPE svg PUBLIC "-//W3C//DTD SVG 1.1//EN"
  "http://www.w3.org/Graphics/SVG/1.1/DTD/svg11.dtd">
<svg xmlns:xlink="http://www.w3.org/1999/xlink" width="388.965625pt" height="266.51625pt" viewBox="0 0 388.965625 266.51625" xmlns="http://www.w3.org/2000/svg" version="1.1">
 <metadata>
  <rdf:RDF xmlns:dc="http://purl.org/dc/elements/1.1/" xmlns:cc="http://creativecommons.org/ns#" xmlns:rdf="http://www.w3.org/1999/02/22-rdf-syntax-ns#">
   <cc:Work>
    <dc:type rdf:resource="http://purl.org/dc/dcmitype/StillImage"/>
    <dc:date>2025-07-31T09:51:58.304996</dc:date>
    <dc:format>image/svg+xml</dc:format>
    <dc:creator>
     <cc:Agent>
      <dc:title>Matplotlib v3.10.1, https://matplotlib.org/</dc:title>
     </cc:Agent>
    </dc:creator>
   </cc:Work>
  </rdf:RDF>
 </metadata>
 <defs>
  <style type="text/css">*{stroke-linejoin: round; stroke-linecap: butt}</style>
 </defs>
 <g id="figure_1">
  <g id="patch_1">
   <path d="M 0 266.51625 
L 388.965625 266.51625 
L 388.965625 0 
L 0 0 
z
" style="fill: #ffffff"/>
  </g>
  <g id="axes_1">
   <g id="patch_2">
    <path d="M 46.965625 228.96 
L 381.765625 228.96 
L 381.765625 7.2 
L 46.965625 7.2 
z
" style="fill: #ffffff"/>
   </g>
   <g id="matplotlib.axis_1">
    <g id="xtick_1">
     <g id="line2d_1">
      <defs>
       <path id="ma078626b7a" d="M 0 0 
L 0 3.5 
" style="stroke: #000000; stroke-width: 0.8"/>
      </defs>
      <g>
       <use xlink:href="#ma078626b7a" x="94.987254" y="228.96" style="stroke: #000000; stroke-width: 0.8"/>
      </g>
     </g>
     <g id="text_1">
      <!-- 246.8 -->
      <g transform="translate(80.673192 243.558437) scale(0.1 -0.1)">
       <defs>
        <path id="DejaVuSans-32" d="M 1228 531 
L 3431 531 
L 3431 0 
L 469 0 
L 469 531 
Q 828 903 1448 1529 
Q 2069 2156 2228 2338 
Q 2531 2678 2651 2914 
Q 2772 3150 2772 3378 
Q 2772 3750 2511 3984 
Q 2250 4219 1831 4219 
Q 1534 4219 1204 4116 
Q 875 4013 500 3803 
L 500 4441 
Q 881 4594 1212 4672 
Q 1544 4750 1819 4750 
Q 2544 4750 2975 4387 
Q 3406 4025 3406 3419 
Q 3406 3131 3298 2873 
Q 3191 2616 2906 2266 
Q 2828 2175 2409 1742 
Q 1991 1309 1228 531 
z
" transform="scale(0.015625)"/>
        <path id="DejaVuSans-34" d="M 2419 4116 
L 825 1625 
L 2419 1625 
L 2419 4116 
z
M 2253 4666 
L 3047 4666 
L 3047 1625 
L 3713 1625 
L 3713 1100 
L 3047 1100 
L 3047 0 
L 2419 0 
L 2419 1100 
L 313 1100 
L 313 1709 
L 2253 4666 
z
" transform="scale(0.015625)"/>
        <path id="DejaVuSans-36" d="M 2113 2584 
Q 1688 2584 1439 2293 
Q 1191 2003 1191 1497 
Q 1191 994 1439 701 
Q 1688 409 2113 409 
Q 2538 409 2786 701 
Q 3034 994 3034 1497 
Q 3034 2003 2786 2293 
Q 2538 2584 2113 2584 
z
M 3366 4563 
L 3366 3988 
Q 3128 4100 2886 4159 
Q 2644 4219 2406 4219 
Q 1781 4219 1451 3797 
Q 1122 3375 1075 2522 
Q 1259 2794 1537 2939 
Q 1816 3084 2150 3084 
Q 2853 3084 3261 2657 
Q 3669 2231 3669 1497 
Q 3669 778 3244 343 
Q 2819 -91 2113 -91 
Q 1303 -91 875 529 
Q 447 1150 447 2328 
Q 447 3434 972 4092 
Q 1497 4750 2381 4750 
Q 2619 4750 2861 4703 
Q 3103 4656 3366 4563 
z
" transform="scale(0.015625)"/>
        <path id="DejaVuSans-2e" d="M 684 794 
L 1344 794 
L 1344 0 
L 684 0 
L 684 794 
z
" transform="scale(0.015625)"/>
        <path id="DejaVuSans-38" d="M 2034 2216 
Q 1584 2216 1326 1975 
Q 1069 1734 1069 1313 
Q 1069 891 1326 650 
Q 1584 409 2034 409 
Q 2484 409 2743 651 
Q 3003 894 3003 1313 
Q 3003 1734 2745 1975 
Q 2488 2216 2034 2216 
z
M 1403 2484 
Q 997 2584 770 2862 
Q 544 3141 544 3541 
Q 544 4100 942 4425 
Q 1341 4750 2034 4750 
Q 2731 4750 3128 4425 
Q 3525 4100 3525 3541 
Q 3525 3141 3298 2862 
Q 3072 2584 2669 2484 
Q 3125 2378 3379 2068 
Q 3634 1759 3634 1313 
Q 3634 634 3220 271 
Q 2806 -91 2034 -91 
Q 1263 -91 848 271 
Q 434 634 434 1313 
Q 434 1759 690 2068 
Q 947 2378 1403 2484 
z
M 1172 3481 
Q 1172 3119 1398 2916 
Q 1625 2713 2034 2713 
Q 2441 2713 2670 2916 
Q 2900 3119 2900 3481 
Q 2900 3844 2670 4047 
Q 2441 4250 2034 4250 
Q 1625 4250 1398 4047 
Q 1172 3844 1172 3481 
z
" transform="scale(0.015625)"/>
       </defs>
       <use xlink:href="#DejaVuSans-32"/>
       <use xlink:href="#DejaVuSans-34" transform="translate(63.623047 0)"/>
       <use xlink:href="#DejaVuSans-36" transform="translate(127.246094 0)"/>
       <use xlink:href="#DejaVuSans-2e" transform="translate(190.869141 0)"/>
       <use xlink:href="#DejaVuSans-38" transform="translate(222.65625 0)"/>
      </g>
     </g>
    </g>
    <g id="xtick_2">
     <g id="line2d_2">
      <g>
       <use xlink:href="#ma078626b7a" x="154.066162" y="228.96" style="stroke: #000000; stroke-width: 0.8"/>
      </g>
     </g>
     <g id="text_2">
      <!-- 247.0 -->
      <g transform="translate(139.752099 243.558437) scale(0.1 -0.1)">
       <defs>
        <path id="DejaVuSans-37" d="M 525 4666 
L 3525 4666 
L 3525 4397 
L 1831 0 
L 1172 0 
L 2766 4134 
L 525 4134 
L 525 4666 
z
" transform="scale(0.015625)"/>
        <path id="DejaVuSans-30" d="M 2034 4250 
Q 1547 4250 1301 3770 
Q 1056 3291 1056 2328 
Q 1056 1369 1301 889 
Q 1547 409 2034 409 
Q 2525 409 2770 889 
Q 3016 1369 3016 2328 
Q 3016 3291 2770 3770 
Q 2525 4250 2034 4250 
z
M 2034 4750 
Q 2819 4750 3233 4129 
Q 3647 3509 3647 2328 
Q 3647 1150 3233 529 
Q 2819 -91 2034 -91 
Q 1250 -91 836 529 
Q 422 1150 422 2328 
Q 422 3509 836 4129 
Q 1250 4750 2034 4750 
z
" transform="scale(0.015625)"/>
       </defs>
       <use xlink:href="#DejaVuSans-32"/>
       <use xlink:href="#DejaVuSans-34" transform="translate(63.623047 0)"/>
       <use xlink:href="#DejaVuSans-37" transform="translate(127.246094 0)"/>
       <use xlink:href="#DejaVuSans-2e" transform="translate(190.869141 0)"/>
       <use xlink:href="#DejaVuSans-30" transform="translate(222.65625 0)"/>
      </g>
     </g>
    </g>
    <g id="xtick_3">
     <g id="line2d_3">
      <g>
       <use xlink:href="#ma078626b7a" x="213.145069" y="228.96" style="stroke: #000000; stroke-width: 0.8"/>
      </g>
     </g>
     <g id="text_3">
      <!-- 247.2 -->
      <g transform="translate(198.831006 243.558437) scale(0.1 -0.1)">
       <use xlink:href="#DejaVuSans-32"/>
       <use xlink:href="#DejaVuSans-34" transform="translate(63.623047 0)"/>
       <use xlink:href="#DejaVuSans-37" transform="translate(127.246094 0)"/>
       <use xlink:href="#DejaVuSans-2e" transform="translate(190.869141 0)"/>
       <use xlink:href="#DejaVuSans-32" transform="translate(222.65625 0)"/>
      </g>
     </g>
    </g>
    <g id="xtick_4">
     <g id="line2d_4">
      <g>
       <use xlink:href="#ma078626b7a" x="272.223976" y="228.96" style="stroke: #000000; stroke-width: 0.8"/>
      </g>
     </g>
     <g id="text_4">
      <!-- 247.4 -->
      <g transform="translate(257.909914 243.558437) scale(0.1 -0.1)">
       <use xlink:href="#DejaVuSans-32"/>
       <use xlink:href="#DejaVuSans-34" transform="translate(63.623047 0)"/>
       <use xlink:href="#DejaVuSans-37" transform="translate(127.246094 0)"/>
       <use xlink:href="#DejaVuSans-2e" transform="translate(190.869141 0)"/>
       <use xlink:href="#DejaVuSans-34" transform="translate(222.65625 0)"/>
      </g>
     </g>
    </g>
    <g id="xtick_5">
     <g id="line2d_5">
      <g>
       <use xlink:href="#ma078626b7a" x="331.302884" y="228.96" style="stroke: #000000; stroke-width: 0.8"/>
      </g>
     </g>
     <g id="text_5">
      <!-- 247.6 -->
      <g transform="translate(316.988821 243.558437) scale(0.1 -0.1)">
       <use xlink:href="#DejaVuSans-32"/>
       <use xlink:href="#DejaVuSans-34" transform="translate(63.623047 0)"/>
       <use xlink:href="#DejaVuSans-37" transform="translate(127.246094 0)"/>
       <use xlink:href="#DejaVuSans-2e" transform="translate(190.869141 0)"/>
       <use xlink:href="#DejaVuSans-36" transform="translate(222.65625 0)"/>
      </g>
     </g>
    </g>
    <g id="text_6">
     <!-- tof [ms] -->
     <g transform="translate(194.620313 257.236562) scale(0.1 -0.1)">
      <defs>
       <path id="DejaVuSans-74" d="M 1172 4494 
L 1172 3500 
L 2356 3500 
L 2356 3053 
L 1172 3053 
L 1172 1153 
Q 1172 725 1289 603 
Q 1406 481 1766 481 
L 2356 481 
L 2356 0 
L 1766 0 
Q 1100 0 847 248 
Q 594 497 594 1153 
L 594 3053 
L 172 3053 
L 172 3500 
L 594 3500 
L 594 4494 
L 1172 4494 
z
" transform="scale(0.015625)"/>
       <path id="DejaVuSans-6f" d="M 1959 3097 
Q 1497 3097 1228 2736 
Q 959 2375 959 1747 
Q 959 1119 1226 758 
Q 1494 397 1959 397 
Q 2419 397 2687 759 
Q 2956 1122 2956 1747 
Q 2956 2369 2687 2733 
Q 2419 3097 1959 3097 
z
M 1959 3584 
Q 2709 3584 3137 3096 
Q 3566 2609 3566 1747 
Q 3566 888 3137 398 
Q 2709 -91 1959 -91 
Q 1206 -91 779 398 
Q 353 888 353 1747 
Q 353 2609 779 3096 
Q 1206 3584 1959 3584 
z
" transform="scale(0.015625)"/>
       <path id="DejaVuSans-66" d="M 2375 4863 
L 2375 4384 
L 1825 4384 
Q 1516 4384 1395 4259 
Q 1275 4134 1275 3809 
L 1275 3500 
L 2222 3500 
L 2222 3053 
L 1275 3053 
L 1275 0 
L 697 0 
L 697 3053 
L 147 3053 
L 147 3500 
L 697 3500 
L 697 3744 
Q 697 4328 969 4595 
Q 1241 4863 1831 4863 
L 2375 4863 
z
" transform="scale(0.015625)"/>
       <path id="DejaVuSans-20" transform="scale(0.015625)"/>
       <path id="DejaVuSans-5b" d="M 550 4863 
L 1875 4863 
L 1875 4416 
L 1125 4416 
L 1125 -397 
L 1875 -397 
L 1875 -844 
L 550 -844 
L 550 4863 
z
" transform="scale(0.015625)"/>
       <path id="DejaVuSans-6d" d="M 3328 2828 
Q 3544 3216 3844 3400 
Q 4144 3584 4550 3584 
Q 5097 3584 5394 3201 
Q 5691 2819 5691 2113 
L 5691 0 
L 5113 0 
L 5113 2094 
Q 5113 2597 4934 2840 
Q 4756 3084 4391 3084 
Q 3944 3084 3684 2787 
Q 3425 2491 3425 1978 
L 3425 0 
L 2847 0 
L 2847 2094 
Q 2847 2600 2669 2842 
Q 2491 3084 2119 3084 
Q 1678 3084 1418 2786 
Q 1159 2488 1159 1978 
L 1159 0 
L 581 0 
L 581 3500 
L 1159 3500 
L 1159 2956 
Q 1356 3278 1631 3431 
Q 1906 3584 2284 3584 
Q 2666 3584 2933 3390 
Q 3200 3197 3328 2828 
z
" transform="scale(0.015625)"/>
       <path id="DejaVuSans-73" d="M 2834 3397 
L 2834 2853 
Q 2591 2978 2328 3040 
Q 2066 3103 1784 3103 
Q 1356 3103 1142 2972 
Q 928 2841 928 2578 
Q 928 2378 1081 2264 
Q 1234 2150 1697 2047 
L 1894 2003 
Q 2506 1872 2764 1633 
Q 3022 1394 3022 966 
Q 3022 478 2636 193 
Q 2250 -91 1575 -91 
Q 1294 -91 989 -36 
Q 684 19 347 128 
L 347 722 
Q 666 556 975 473 
Q 1284 391 1588 391 
Q 1994 391 2212 530 
Q 2431 669 2431 922 
Q 2431 1156 2273 1281 
Q 2116 1406 1581 1522 
L 1381 1569 
Q 847 1681 609 1914 
Q 372 2147 372 2553 
Q 372 3047 722 3315 
Q 1072 3584 1716 3584 
Q 2034 3584 2315 3537 
Q 2597 3491 2834 3397 
z
" transform="scale(0.015625)"/>
       <path id="DejaVuSans-5d" d="M 1947 4863 
L 1947 -844 
L 622 -844 
L 622 -397 
L 1369 -397 
L 1369 4416 
L 622 4416 
L 622 4863 
L 1947 4863 
z
" transform="scale(0.015625)"/>
      </defs>
      <use xlink:href="#DejaVuSans-74"/>
      <use xlink:href="#DejaVuSans-6f" transform="translate(39.208984 0)"/>
      <use xlink:href="#DejaVuSans-66" transform="translate(100.390625 0)"/>
      <use xlink:href="#DejaVuSans-20" transform="translate(135.595703 0)"/>
      <use xlink:href="#DejaVuSans-5b" transform="translate(167.382812 0)"/>
      <use xlink:href="#DejaVuSans-6d" transform="translate(206.396484 0)"/>
      <use xlink:href="#DejaVuSans-73" transform="translate(303.808594 0)"/>
      <use xlink:href="#DejaVuSans-5d" transform="translate(355.908203 0)"/>
     </g>
    </g>
   </g>
   <g id="matplotlib.axis_2">
    <g id="ytick_1">
     <g id="line2d_6">
      <defs>
       <path id="m415dd0f504" d="M 0 0 
L -3.5 0 
" style="stroke: #000000; stroke-width: 0.8"/>
      </defs>
      <g>
       <use xlink:href="#m415dd0f504" x="46.965625" y="218.88" style="stroke: #000000; stroke-width: 0.8"/>
      </g>
     </g>
     <g id="text_7">
      <!-- 0 -->
      <g transform="translate(33.603125 222.679219) scale(0.1 -0.1)">
       <use xlink:href="#DejaVuSans-30"/>
      </g>
     </g>
    </g>
    <g id="ytick_2">
     <g id="line2d_7">
      <g>
       <use xlink:href="#m415dd0f504" x="46.965625" y="178.078544" style="stroke: #000000; stroke-width: 0.8"/>
      </g>
     </g>
     <g id="text_8">
      <!-- 50 -->
      <g transform="translate(27.240625 181.877763) scale(0.1 -0.1)">
       <defs>
        <path id="DejaVuSans-35" d="M 691 4666 
L 3169 4666 
L 3169 4134 
L 1269 4134 
L 1269 2991 
Q 1406 3038 1543 3061 
Q 1681 3084 1819 3084 
Q 2600 3084 3056 2656 
Q 3513 2228 3513 1497 
Q 3513 744 3044 326 
Q 2575 -91 1722 -91 
Q 1428 -91 1123 -41 
Q 819 9 494 109 
L 494 744 
Q 775 591 1075 516 
Q 1375 441 1709 441 
Q 2250 441 2565 725 
Q 2881 1009 2881 1497 
Q 2881 1984 2565 2268 
Q 2250 2553 1709 2553 
Q 1456 2553 1204 2497 
Q 953 2441 691 2322 
L 691 4666 
z
" transform="scale(0.015625)"/>
       </defs>
       <use xlink:href="#DejaVuSans-35"/>
       <use xlink:href="#DejaVuSans-30" transform="translate(63.623047 0)"/>
      </g>
     </g>
    </g>
    <g id="ytick_3">
     <g id="line2d_8">
      <g>
       <use xlink:href="#m415dd0f504" x="46.965625" y="137.277088" style="stroke: #000000; stroke-width: 0.8"/>
      </g>
     </g>
     <g id="text_9">
      <!-- 100 -->
      <g transform="translate(20.878125 141.076306) scale(0.1 -0.1)">
       <defs>
        <path id="DejaVuSans-31" d="M 794 531 
L 1825 531 
L 1825 4091 
L 703 3866 
L 703 4441 
L 1819 4666 
L 2450 4666 
L 2450 531 
L 3481 531 
L 3481 0 
L 794 0 
L 794 531 
z
" transform="scale(0.015625)"/>
       </defs>
       <use xlink:href="#DejaVuSans-31"/>
       <use xlink:href="#DejaVuSans-30" transform="translate(63.623047 0)"/>
       <use xlink:href="#DejaVuSans-30" transform="translate(127.246094 0)"/>
      </g>
     </g>
    </g>
    <g id="ytick_4">
     <g id="line2d_9">
      <g>
       <use xlink:href="#m415dd0f504" x="46.965625" y="96.475632" style="stroke: #000000; stroke-width: 0.8"/>
      </g>
     </g>
     <g id="text_10">
      <!-- 150 -->
      <g transform="translate(20.878125 100.27485) scale(0.1 -0.1)">
       <use xlink:href="#DejaVuSans-31"/>
       <use xlink:href="#DejaVuSans-35" transform="translate(63.623047 0)"/>
       <use xlink:href="#DejaVuSans-30" transform="translate(127.246094 0)"/>
      </g>
     </g>
    </g>
    <g id="ytick_5">
     <g id="line2d_10">
      <g>
       <use xlink:href="#m415dd0f504" x="46.965625" y="55.674175" style="stroke: #000000; stroke-width: 0.8"/>
      </g>
     </g>
     <g id="text_11">
      <!-- 200 -->
      <g transform="translate(20.878125 59.473394) scale(0.1 -0.1)">
       <use xlink:href="#DejaVuSans-32"/>
       <use xlink:href="#DejaVuSans-30" transform="translate(63.623047 0)"/>
       <use xlink:href="#DejaVuSans-30" transform="translate(127.246094 0)"/>
      </g>
     </g>
    </g>
    <g id="ytick_6">
     <g id="line2d_11">
      <g>
       <use xlink:href="#m415dd0f504" x="46.965625" y="14.872719" style="stroke: #000000; stroke-width: 0.8"/>
      </g>
     </g>
     <g id="text_12">
      <!-- 250 -->
      <g transform="translate(20.878125 18.671938) scale(0.1 -0.1)">
       <use xlink:href="#DejaVuSans-32"/>
       <use xlink:href="#DejaVuSans-35" transform="translate(63.623047 0)"/>
       <use xlink:href="#DejaVuSans-30" transform="translate(127.246094 0)"/>
      </g>
     </g>
    </g>
    <g id="text_13">
     <!-- [counts] -->
     <g transform="translate(14.798438 138.6925) rotate(-90) scale(0.1 -0.1)">
      <defs>
       <path id="DejaVuSans-63" d="M 3122 3366 
L 3122 2828 
Q 2878 2963 2633 3030 
Q 2388 3097 2138 3097 
Q 1578 3097 1268 2742 
Q 959 2388 959 1747 
Q 959 1106 1268 751 
Q 1578 397 2138 397 
Q 2388 397 2633 464 
Q 2878 531 3122 666 
L 3122 134 
Q 2881 22 2623 -34 
Q 2366 -91 2075 -91 
Q 1284 -91 818 406 
Q 353 903 353 1747 
Q 353 2603 823 3093 
Q 1294 3584 2113 3584 
Q 2378 3584 2631 3529 
Q 2884 3475 3122 3366 
z
" transform="scale(0.015625)"/>
       <path id="DejaVuSans-75" d="M 544 1381 
L 544 3500 
L 1119 3500 
L 1119 1403 
Q 1119 906 1312 657 
Q 1506 409 1894 409 
Q 2359 409 2629 706 
Q 2900 1003 2900 1516 
L 2900 3500 
L 3475 3500 
L 3475 0 
L 2900 0 
L 2900 538 
Q 2691 219 2414 64 
Q 2138 -91 1772 -91 
Q 1169 -91 856 284 
Q 544 659 544 1381 
z
M 1991 3584 
L 1991 3584 
z
" transform="scale(0.015625)"/>
       <path id="DejaVuSans-6e" d="M 3513 2113 
L 3513 0 
L 2938 0 
L 2938 2094 
Q 2938 2591 2744 2837 
Q 2550 3084 2163 3084 
Q 1697 3084 1428 2787 
Q 1159 2491 1159 1978 
L 1159 0 
L 581 0 
L 581 3500 
L 1159 3500 
L 1159 2956 
Q 1366 3272 1645 3428 
Q 1925 3584 2291 3584 
Q 2894 3584 3203 3211 
Q 3513 2838 3513 2113 
z
" transform="scale(0.015625)"/>
      </defs>
      <use xlink:href="#DejaVuSans-5b"/>
      <use xlink:href="#DejaVuSans-63" transform="translate(39.013672 0)"/>
      <use xlink:href="#DejaVuSans-6f" transform="translate(93.994141 0)"/>
      <use xlink:href="#DejaVuSans-75" transform="translate(155.175781 0)"/>
      <use xlink:href="#DejaVuSans-6e" transform="translate(218.554688 0)"/>
      <use xlink:href="#DejaVuSans-74" transform="translate(281.933594 0)"/>
      <use xlink:href="#DejaVuSans-73" transform="translate(321.142578 0)"/>
      <use xlink:href="#DejaVuSans-5d" transform="translate(373.242188 0)"/>
     </g>
    </g>
   </g>
   <g id="patch_3">
    <path d="M 46.965625 228.96 
L 46.965625 7.2 
" style="fill: none; stroke: #000000; stroke-width: 0.8; stroke-linejoin: miter; stroke-linecap: square"/>
   </g>
   <g id="patch_4">
    <path d="M 381.765625 228.96 
L 381.765625 7.2 
" style="fill: none; stroke: #000000; stroke-width: 0.8; stroke-linejoin: miter; stroke-linecap: square"/>
   </g>
   <g id="patch_5">
    <path d="M 46.965625 228.96 
L 381.765625 228.96 
" style="fill: none; stroke: #000000; stroke-width: 0.8; stroke-linejoin: miter; stroke-linecap: square"/>
   </g>
   <g id="patch_6">
    <path d="M 46.965625 7.2 
L 381.765625 7.2 
" style="fill: none; stroke: #000000; stroke-width: 0.8; stroke-linejoin: miter; stroke-linecap: square"/>
   </g>
   <g id="line2d_12">
    <path d="M 62.183807 218.781002 
L 65.227443 218.781002 
L 65.227443 218.555458 
L 68.27108 218.555458 
L 68.27108 218.070988 
L 71.314716 218.070988 
L 71.314716 216.785487 
L 74.358352 216.785487 
L 74.358352 214.772588 
L 77.401989 214.772588 
L 77.401989 211.767066 
L 80.445625 211.767066 
L 80.445625 207.823962 
L 83.489261 207.823962 
L 83.489261 201.167652 
L 86.532898 201.167652 
L 86.532898 192.96882 
L 89.576534 192.96882 
L 89.576534 184.389037 
L 92.62017 184.389037 
L 92.62017 169.756564 
L 95.663807 169.756564 
L 95.663807 153.111071 
L 98.707443 153.111071 
L 98.707443 138.962892 
L 101.75108 138.962892 
L 101.75108 122.666204 
L 104.794716 122.666204 
L 104.794716 105.807142 
L 107.838352 105.807142 
L 107.838352 88.951342 
L 110.881989 88.951342 
L 110.881989 76.957732 
L 113.925625 76.957732 
L 113.925625 62.962401 
L 116.969261 62.962401 
L 116.969261 48.525232 
L 120.012898 48.525232 
L 120.012898 41.248171 
L 123.056534 41.248171 
L 123.056534 37.524645 
L 126.10017 37.524645 
L 126.10017 28.314118 
L 132.187443 28.23264 
L 132.187443 25.462173 
L 135.23108 25.462173 
L 135.23108 18.939462 
L 138.274716 18.939462 
L 138.274716 21.575393 
L 141.318352 21.575393 
L 141.318352 20.820386 
L 144.361989 20.820386 
L 144.361989 23.773938 
L 147.405625 23.773938 
L 147.405625 26.756161 
L 150.449261 26.756161 
L 150.449261 29.853418 
L 153.492898 29.853418 
L 153.492898 34.559018 
L 156.536534 34.559018 
L 156.536534 44.216708 
L 159.58017 44.216708 
L 159.58017 54.133487 
L 162.623807 54.133487 
L 162.623807 63.913448 
L 165.667443 63.913448 
L 165.667443 81.472623 
L 168.71108 81.472623 
L 168.71108 97.710301 
L 171.754716 97.710301 
L 171.754716 112.94151 
L 174.798352 112.94151 
L 174.798352 131.249592 
L 177.841989 131.249592 
L 177.841989 144.045573 
L 180.885625 144.045573 
L 180.885625 159.482835 
L 183.929261 159.482835 
L 183.929261 170.774459 
L 186.972898 170.774459 
L 186.972898 181.990067 
L 190.016534 181.990067 
L 190.016534 187.97495 
L 193.06017 187.97495 
L 193.06017 193.274488 
L 196.103807 193.274488 
L 196.103807 197.199913 
L 199.147443 197.199913 
L 199.147443 197.633724 
L 202.19108 197.633724 
L 202.19108 198.650927 
L 205.234716 198.650927 
L 205.234716 198.979387 
L 208.278352 198.979387 
L 208.278352 197.700561 
L 211.321989 197.700561 
L 211.321989 197.547821 
L 214.365625 197.547821 
L 214.365625 197.05873 
L 217.409261 197.05873 
L 217.409261 196.205497 
L 220.452898 196.205497 
L 220.452898 197.322823 
L 223.496534 197.322823 
L 223.496534 197.087767 
L 226.54017 197.087767 
L 226.54017 198.200804 
L 229.583807 198.200804 
L 229.583807 197.435863 
L 235.67108 197.522395 
L 235.67108 196.783459 
L 241.758352 196.80852 
L 241.758352 197.594586 
L 244.801989 197.594586 
L 244.801989 198.10121 
L 247.845625 198.10121 
L 247.845625 197.817725 
L 250.889261 197.817725 
L 250.889261 199.278822 
L 253.932898 199.278822 
L 253.932898 200.810607 
L 256.976534 200.810607 
L 256.976534 202.808319 
L 260.02017 202.808319 
L 260.02017 204.519397 
L 263.063807 204.519397 
L 263.063807 205.827103 
L 266.107443 205.827103 
L 266.107443 208.678906 
L 269.15108 208.678906 
L 269.15108 210.689714 
L 272.194716 210.689714 
L 272.194716 212.735166 
L 275.238352 212.735166 
L 275.238352 214.355917 
L 278.281989 214.355917 
L 278.281989 215.855469 
L 281.325625 215.855469 
L 281.325625 216.799187 
L 284.369261 216.799187 
L 284.369261 217.544962 
L 287.412898 217.544962 
L 287.412898 218.014988 
L 290.456534 218.014988 
L 290.456534 218.320629 
L 293.50017 218.320629 
L 293.50017 218.537149 
L 302.63108 218.634121 
L 302.63108 218.723071 
L 311.761989 218.804363 
L 311.761989 218.854192 
L 366.547443 218.88 
L 366.547443 218.88 
" clip-path="url(#pb0756bb18e)" style="fill: none; stroke: #1f77b4; stroke-width: 1.5; stroke-linecap: square"/>
   </g>
   <g id="LineCollection_1">
    <path d="M 63.705625 218.818545 
L 63.705625 218.743459 
" clip-path="url(#pb0756bb18e)" style="fill: none; stroke: #1f77b4; stroke-width: 1.5"/>
    <path d="M 66.749261 218.62629 
L 66.749261 218.484626 
" clip-path="url(#pb0756bb18e)" style="fill: none; stroke: #1f77b4; stroke-width: 1.5"/>
    <path d="M 69.792898 218.179204 
L 69.792898 217.962773 
" clip-path="url(#pb0756bb18e)" style="fill: none; stroke: #1f77b4; stroke-width: 1.5"/>
    <path d="M 72.836534 216.960443 
L 72.836534 216.61053 
" clip-path="url(#pb0756bb18e)" style="fill: none; stroke: #1f77b4; stroke-width: 1.5"/>
    <path d="M 75.88017 215.017701 
L 75.88017 214.527476 
" clip-path="url(#pb0756bb18e)" style="fill: none; stroke: #1f77b4; stroke-width: 1.5"/>
    <path d="M 78.923807 212.089323 
L 78.923807 211.444809 
" clip-path="url(#pb0756bb18e)" style="fill: none; stroke: #1f77b4; stroke-width: 1.5"/>
    <path d="M 81.967443 208.229538 
L 81.967443 207.418386 
" clip-path="url(#pb0756bb18e)" style="fill: none; stroke: #1f77b4; stroke-width: 1.5"/>
    <path d="M 85.01108 201.681377 
L 85.01108 200.653927 
" clip-path="url(#pb0756bb18e)" style="fill: none; stroke: #1f77b4; stroke-width: 1.5"/>
    <path d="M 88.054716 193.587901 
L 88.054716 192.34974 
" clip-path="url(#pb0756bb18e)" style="fill: none; stroke: #1f77b4; stroke-width: 1.5"/>
    <path d="M 91.098352 185.102392 
L 91.098352 183.675683 
" clip-path="url(#pb0756bb18e)" style="fill: none; stroke: #1f77b4; stroke-width: 1.5"/>
    <path d="M 94.141989 170.607481 
L 94.141989 168.905647 
" clip-path="url(#pb0756bb18e)" style="fill: none; stroke: #1f77b4; stroke-width: 1.5"/>
    <path d="M 97.185625 154.095375 
L 97.185625 152.126767 
" clip-path="url(#pb0756bb18e)" style="fill: none; stroke: #1f77b4; stroke-width: 1.5"/>
    <path d="M 100.229261 140.044526 
L 100.229261 137.881258 
" clip-path="url(#pb0756bb18e)" style="fill: none; stroke: #1f77b4; stroke-width: 1.5"/>
    <path d="M 103.272898 123.85236 
L 103.272898 121.480047 
" clip-path="url(#pb0756bb18e)" style="fill: none; stroke: #1f77b4; stroke-width: 1.5"/>
    <path d="M 106.316534 107.088152 
L 106.316534 104.526132 
" clip-path="url(#pb0756bb18e)" style="fill: none; stroke: #1f77b4; stroke-width: 1.5"/>
    <path d="M 109.36017 90.31983 
L 109.36017 87.582854 
" clip-path="url(#pb0756bb18e)" style="fill: none; stroke: #1f77b4; stroke-width: 1.5"/>
    <path d="M 112.403807 78.384094 
L 112.403807 75.531369 
" clip-path="url(#pb0756bb18e)" style="fill: none; stroke: #1f77b4; stroke-width: 1.5"/>
    <path d="M 115.447443 64.451444 
L 115.447443 61.473358 
" clip-path="url(#pb0756bb18e)" style="fill: none; stroke: #1f77b4; stroke-width: 1.5"/>
    <path d="M 118.49108 50.078786 
L 118.49108 46.971678 
" clip-path="url(#pb0756bb18e)" style="fill: none; stroke: #1f77b4; stroke-width: 1.5"/>
    <path d="M 121.534716 42.831396 
L 121.534716 39.664946 
" clip-path="url(#pb0756bb18e)" style="fill: none; stroke: #1f77b4; stroke-width: 1.5"/>
    <path d="M 124.578352 39.113621 
L 124.578352 35.93567 
" clip-path="url(#pb0756bb18e)" style="fill: none; stroke: #1f77b4; stroke-width: 1.5"/>
    <path d="M 127.621989 29.941039 
L 127.621989 26.687197 
" clip-path="url(#pb0756bb18e)" style="fill: none; stroke: #1f77b4; stroke-width: 1.5"/>
    <path d="M 130.665625 29.854608 
L 130.665625 26.610673 
" clip-path="url(#pb0756bb18e)" style="fill: none; stroke: #1f77b4; stroke-width: 1.5"/>
    <path d="M 133.709261 27.093123 
L 133.709261 23.831223 
" clip-path="url(#pb0756bb18e)" style="fill: none; stroke: #1f77b4; stroke-width: 1.5"/>
    <path d="M 136.752898 20.598924 
L 136.752898 17.28 
" clip-path="url(#pb0756bb18e)" style="fill: none; stroke: #1f77b4; stroke-width: 1.5"/>
    <path d="M 139.796534 23.21949 
L 139.796534 19.931296 
" clip-path="url(#pb0756bb18e)" style="fill: none; stroke: #1f77b4; stroke-width: 1.5"/>
    <path d="M 142.84017 22.466268 
L 142.84017 19.174503 
" clip-path="url(#pb0756bb18e)" style="fill: none; stroke: #1f77b4; stroke-width: 1.5"/>
    <path d="M 145.883807 25.410052 
L 145.883807 22.137825 
" clip-path="url(#pb0756bb18e)" style="fill: none; stroke: #1f77b4; stroke-width: 1.5"/>
    <path d="M 148.927443 28.37586 
L 148.927443 25.136461 
" clip-path="url(#pb0756bb18e)" style="fill: none; stroke: #1f77b4; stroke-width: 1.5"/>
    <path d="M 151.97108 31.458077 
L 151.97108 28.248759 
" clip-path="url(#pb0756bb18e)" style="fill: none; stroke: #1f77b4; stroke-width: 1.5"/>
    <path d="M 155.014716 36.146097 
L 155.014716 32.971939 
" clip-path="url(#pb0756bb18e)" style="fill: none; stroke: #1f77b4; stroke-width: 1.5"/>
    <path d="M 158.058352 45.755028 
L 158.058352 42.678389 
" clip-path="url(#pb0756bb18e)" style="fill: none; stroke: #1f77b4; stroke-width: 1.5"/>
    <path d="M 161.101989 55.618533 
L 161.101989 52.648442 
" clip-path="url(#pb0756bb18e)" style="fill: none; stroke: #1f77b4; stroke-width: 1.5"/>
    <path d="M 164.145625 65.352974 
L 164.145625 62.473922 
" clip-path="url(#pb0756bb18e)" style="fill: none; stroke: #1f77b4; stroke-width: 1.5"/>
    <path d="M 167.189261 82.818904 
L 167.189261 80.126343 
" clip-path="url(#pb0756bb18e)" style="fill: none; stroke: #1f77b4; stroke-width: 1.5"/>
    <path d="M 170.232898 98.965366 
L 170.232898 96.455236 
" clip-path="url(#pb0756bb18e)" style="fill: none; stroke: #1f77b4; stroke-width: 1.5"/>
    <path d="M 173.276534 114.10289 
L 173.276534 111.780129 
" clip-path="url(#pb0756bb18e)" style="fill: none; stroke: #1f77b4; stroke-width: 1.5"/>
    <path d="M 176.32017 132.295526 
L 176.32017 130.203658 
" clip-path="url(#pb0756bb18e)" style="fill: none; stroke: #1f77b4; stroke-width: 1.5"/>
    <path d="M 179.363807 145.002915 
L 179.363807 143.088231 
" clip-path="url(#pb0756bb18e)" style="fill: none; stroke: #1f77b4; stroke-width: 1.5"/>
    <path d="M 182.407443 160.321711 
L 182.407443 158.643959 
" clip-path="url(#pb0756bb18e)" style="fill: none; stroke: #1f77b4; stroke-width: 1.5"/>
    <path d="M 185.45108 171.52145 
L 185.45108 170.027467 
" clip-path="url(#pb0756bb18e)" style="fill: none; stroke: #1f77b4; stroke-width: 1.5"/>
    <path d="M 188.494716 182.634837 
L 188.494716 181.345297 
" clip-path="url(#pb0756bb18e)" style="fill: none; stroke: #1f77b4; stroke-width: 1.5"/>
    <path d="M 191.538352 188.565107 
L 191.538352 187.384792 
" clip-path="url(#pb0756bb18e)" style="fill: none; stroke: #1f77b4; stroke-width: 1.5"/>
    <path d="M 194.581989 193.817408 
L 194.581989 192.731568 
" clip-path="url(#pb0756bb18e)" style="fill: none; stroke: #1f77b4; stroke-width: 1.5"/>
    <path d="M 197.625625 197.710359 
L 197.625625 196.689467 
" clip-path="url(#pb0756bb18e)" style="fill: none; stroke: #1f77b4; stroke-width: 1.5"/>
    <path d="M 200.669261 198.153941 
L 200.669261 197.113507 
" clip-path="url(#pb0756bb18e)" style="fill: none; stroke: #1f77b4; stroke-width: 1.5"/>
    <path d="M 203.712898 199.159858 
L 203.712898 198.141997 
" clip-path="url(#pb0756bb18e)" style="fill: none; stroke: #1f77b4; stroke-width: 1.5"/>
    <path d="M 206.756534 199.494567 
L 206.756534 198.464207 
" clip-path="url(#pb0756bb18e)" style="fill: none; stroke: #1f77b4; stroke-width: 1.5"/>
    <path d="M 209.80017 198.234846 
L 209.80017 197.166277 
" clip-path="url(#pb0756bb18e)" style="fill: none; stroke: #1f77b4; stroke-width: 1.5"/>
    <path d="M 212.843807 198.084744 
L 212.843807 197.010898 
" clip-path="url(#pb0756bb18e)" style="fill: none; stroke: #1f77b4; stroke-width: 1.5"/>
    <path d="M 215.887443 197.601402 
L 215.887443 196.516058 
" clip-path="url(#pb0756bb18e)" style="fill: none; stroke: #1f77b4; stroke-width: 1.5"/>
    <path d="M 218.93108 196.759594 
L 218.93108 195.651401 
" clip-path="url(#pb0756bb18e)" style="fill: none; stroke: #1f77b4; stroke-width: 1.5"/>
    <path d="M 221.974716 197.862538 
L 221.974716 196.783109 
" clip-path="url(#pb0756bb18e)" style="fill: none; stroke: #1f77b4; stroke-width: 1.5"/>
    <path d="M 225.018352 197.629836 
L 225.018352 196.545698 
" clip-path="url(#pb0756bb18e)" style="fill: none; stroke: #1f77b4; stroke-width: 1.5"/>
    <path d="M 228.061989 198.730979 
L 228.061989 197.670628 
" clip-path="url(#pb0756bb18e)" style="fill: none; stroke: #1f77b4; stroke-width: 1.5"/>
    <path d="M 231.105625 197.974996 
L 231.105625 196.896729 
" clip-path="url(#pb0756bb18e)" style="fill: none; stroke: #1f77b4; stroke-width: 1.5"/>
    <path d="M 234.149261 198.061785 
L 234.149261 196.983006 
" clip-path="url(#pb0756bb18e)" style="fill: none; stroke: #1f77b4; stroke-width: 1.5"/>
    <path d="M 237.192898 197.332179 
L 237.192898 196.234739 
" clip-path="url(#pb0756bb18e)" style="fill: none; stroke: #1f77b4; stroke-width: 1.5"/>
    <path d="M 240.236534 197.360517 
L 240.236534 196.256523 
" clip-path="url(#pb0756bb18e)" style="fill: none; stroke: #1f77b4; stroke-width: 1.5"/>
    <path d="M 243.28017 198.134838 
L 243.28017 197.054335 
" clip-path="url(#pb0756bb18e)" style="fill: none; stroke: #1f77b4; stroke-width: 1.5"/>
    <path d="M 246.323807 198.632078 
L 246.323807 197.570342 
" clip-path="url(#pb0756bb18e)" style="fill: none; stroke: #1f77b4; stroke-width: 1.5"/>
    <path d="M 249.367443 198.351484 
L 249.367443 197.283965 
" clip-path="url(#pb0756bb18e)" style="fill: none; stroke: #1f77b4; stroke-width: 1.5"/>
    <path d="M 252.41108 199.792664 
L 252.41108 198.764981 
" clip-path="url(#pb0756bb18e)" style="fill: none; stroke: #1f77b4; stroke-width: 1.5"/>
    <path d="M 255.454716 201.303833 
L 255.454716 200.31738 
" clip-path="url(#pb0756bb18e)" style="fill: none; stroke: #1f77b4; stroke-width: 1.5"/>
    <path d="M 258.498352 203.26666 
L 258.498352 202.349977 
" clip-path="url(#pb0756bb18e)" style="fill: none; stroke: #1f77b4; stroke-width: 1.5"/>
    <path d="M 261.541989 204.954238 
L 261.541989 204.084556 
" clip-path="url(#pb0756bb18e)" style="fill: none; stroke: #1f77b4; stroke-width: 1.5"/>
    <path d="M 264.585625 206.2328 
L 264.585625 205.421406 
" clip-path="url(#pb0756bb18e)" style="fill: none; stroke: #1f77b4; stroke-width: 1.5"/>
    <path d="M 267.629261 209.033156 
L 267.629261 208.324657 
" clip-path="url(#pb0756bb18e)" style="fill: none; stroke: #1f77b4; stroke-width: 1.5"/>
    <path d="M 270.672898 211.000514 
L 270.672898 210.378915 
" clip-path="url(#pb0756bb18e)" style="fill: none; stroke: #1f77b4; stroke-width: 1.5"/>
    <path d="M 273.716534 212.999255 
L 273.716534 212.471077 
" clip-path="url(#pb0756bb18e)" style="fill: none; stroke: #1f77b4; stroke-width: 1.5"/>
    <path d="M 276.76017 214.572634 
L 276.76017 214.1392 
" clip-path="url(#pb0756bb18e)" style="fill: none; stroke: #1f77b4; stroke-width: 1.5"/>
    <path d="M 279.803807 216.027608 
L 279.803807 215.683329 
" clip-path="url(#pb0756bb18e)" style="fill: none; stroke: #1f77b4; stroke-width: 1.5"/>
    <path d="M 282.847443 216.93746 
L 282.847443 216.660914 
" clip-path="url(#pb0756bb18e)" style="fill: none; stroke: #1f77b4; stroke-width: 1.5"/>
    <path d="M 285.89108 217.650782 
L 285.89108 217.439143 
" clip-path="url(#pb0756bb18e)" style="fill: none; stroke: #1f77b4; stroke-width: 1.5"/>
    <path d="M 288.934716 218.097058 
L 288.934716 217.932918 
" clip-path="url(#pb0756bb18e)" style="fill: none; stroke: #1f77b4; stroke-width: 1.5"/>
    <path d="M 291.978352 218.386556 
L 291.978352 218.254702 
" clip-path="url(#pb0756bb18e)" style="fill: none; stroke: #1f77b4; stroke-width: 1.5"/>
    <path d="M 295.021989 218.589306 
L 295.021989 218.484993 
" clip-path="url(#pb0756bb18e)" style="fill: none; stroke: #1f77b4; stroke-width: 1.5"/>
    <path d="M 298.065625 218.600738 
L 298.065625 218.502964 
" clip-path="url(#pb0756bb18e)" style="fill: none; stroke: #1f77b4; stroke-width: 1.5"/>
    <path d="M 301.109261 218.677122 
L 301.109261 218.59112 
" clip-path="url(#pb0756bb18e)" style="fill: none; stroke: #1f77b4; stroke-width: 1.5"/>
    <path d="M 304.152898 218.756869 
L 304.152898 218.689272 
" clip-path="url(#pb0756bb18e)" style="fill: none; stroke: #1f77b4; stroke-width: 1.5"/>
    <path d="M 307.196534 218.793061 
L 307.196534 218.739009 
" clip-path="url(#pb0756bb18e)" style="fill: none; stroke: #1f77b4; stroke-width: 1.5"/>
    <path d="M 310.24017 218.826927 
L 310.24017 218.781799 
" clip-path="url(#pb0756bb18e)" style="fill: none; stroke: #1f77b4; stroke-width: 1.5"/>
    <path d="M 313.283807 218.867614 
L 313.283807 218.840769 
" clip-path="url(#pb0756bb18e)" style="fill: none; stroke: #1f77b4; stroke-width: 1.5"/>
    <path d="M 316.327443 218.876016 
L 316.327443 218.856632 
" clip-path="url(#pb0756bb18e)" style="fill: none; stroke: #1f77b4; stroke-width: 1.5"/>
    <path d="M 319.37108 218.873271 
L 319.37108 218.854701 
" clip-path="url(#pb0756bb18e)" style="fill: none; stroke: #1f77b4; stroke-width: 1.5"/>
    <path d="M 322.414716 218.88 
L 322.414716 218.879999 
" clip-path="url(#pb0756bb18e)" style="fill: none; stroke: #1f77b4; stroke-width: 1.5"/>
    <path d="M 325.458352 218.88 
L 325.458352 218.88 
" clip-path="url(#pb0756bb18e)" style="fill: none; stroke: #1f77b4; stroke-width: 1.5"/>
    <path d="M 328.501989 218.88 
L 328.501989 218.88 
" clip-path="url(#pb0756bb18e)" style="fill: none; stroke: #1f77b4; stroke-width: 1.5"/>
    <path d="M 331.545625 218.88 
L 331.545625 218.88 
" clip-path="url(#pb0756bb18e)" style="fill: none; stroke: #1f77b4; stroke-width: 1.5"/>
    <path d="M 334.589261 218.88 
L 334.589261 218.88 
" clip-path="url(#pb0756bb18e)" style="fill: none; stroke: #1f77b4; stroke-width: 1.5"/>
    <path d="M 337.632898 218.88 
L 337.632898 218.88 
" clip-path="url(#pb0756bb18e)" style="fill: none; stroke: #1f77b4; stroke-width: 1.5"/>
    <path d="M 340.676534 218.88 
L 340.676534 218.88 
" clip-path="url(#pb0756bb18e)" style="fill: none; stroke: #1f77b4; stroke-width: 1.5"/>
    <path d="M 343.72017 218.88 
L 343.72017 218.88 
" clip-path="url(#pb0756bb18e)" style="fill: none; stroke: #1f77b4; stroke-width: 1.5"/>
    <path d="M 346.763807 218.88 
L 346.763807 218.88 
" clip-path="url(#pb0756bb18e)" style="fill: none; stroke: #1f77b4; stroke-width: 1.5"/>
    <path d="M 349.807443 218.88 
L 349.807443 218.88 
" clip-path="url(#pb0756bb18e)" style="fill: none; stroke: #1f77b4; stroke-width: 1.5"/>
    <path d="M 352.85108 218.88 
L 352.85108 218.88 
" clip-path="url(#pb0756bb18e)" style="fill: none; stroke: #1f77b4; stroke-width: 1.5"/>
    <path d="M 355.894716 218.88 
L 355.894716 218.88 
" clip-path="url(#pb0756bb18e)" style="fill: none; stroke: #1f77b4; stroke-width: 1.5"/>
    <path d="M 358.938352 218.88 
L 358.938352 218.88 
" clip-path="url(#pb0756bb18e)" style="fill: none; stroke: #1f77b4; stroke-width: 1.5"/>
    <path d="M 361.981989 218.88 
L 361.981989 218.88 
" clip-path="url(#pb0756bb18e)" style="fill: none; stroke: #1f77b4; stroke-width: 1.5"/>
    <path d="M 365.025625 218.88 
L 365.025625 218.88 
" clip-path="url(#pb0756bb18e)" style="fill: none; stroke: #1f77b4; stroke-width: 1.5"/>
   </g>
  </g>
 </g>
 <defs>
  <clipPath id="pb0756bb18e">
   <rect x="46.965625" y="7.2" width="334.8" height="221.76"/>
  </clipPath>
 </defs>
</svg>