<?xml version="1.0" encoding="UTF-8" standalone="no"?>
<!DOCTYPE svg PUBLIC "-//W3C//DTD SVG 1.1//EN"
 "http://www.w3.org/Graphics/SVG/1.1/DTD/svg11.dtd">
<!-- Generated by graphviz version 2.43.0 (0)
 -->
<!-- Title: %3 Pages: 1 -->
<svg width="420pt" height="361pt"
 viewBox="0.00 0.00 420.00 361.00" xmlns="http://www.w3.org/2000/svg" xmlns:xlink="http://www.w3.org/1999/xlink">
<g id="graph0" class="graph" transform="scale(1 1) rotate(0) translate(4 357)">
<title>%3</title>
<polygon fill="white" stroke="transparent" points="-4,4 -4,-357 416,-357 416,4 -4,4"/>
<!-- Compute (incident_beam) = straight_incident_beam(source_position, sample_position) -->
<g id="node1" class="node">
<title>Compute (incident_beam) = straight_incident_beam(source_position, sample_position)</title>
<polygon fill="lightgrey" stroke="transparent" points="192,-294 0,-294 0,-279 192,-279 192,-294"/>
<text text-anchor="middle" x="96" y="-282.8" font-family="Times,serif" font-size="14.00">straight_incident_beam(...)</text>
</g>
<!-- incident_beam -->
<g id="node2" class="node">
<title>incident_beam</title>
<polygon fill="none" stroke="black" points="174,-243 54,-243 54,-220 174,-220 174,-243"/>
<text text-anchor="middle" x="114" y="-227.8" font-family="Times,serif" font-size="14.00">incident_beam</text>
</g>
<!-- Compute (incident_beam) = straight_incident_beam(source_position, sample_position)&#45;&gt;incident_beam -->
<g id="edge1" class="edge">
<title>Compute (incident_beam) = straight_incident_beam(source_position, sample_position)&#45;&gt;incident_beam</title>
<path fill="none" stroke="black" d="M98.35,-278.57C100.57,-272.05 104,-261.95 107.08,-252.87"/>
<polygon fill="black" stroke="black" points="110.43,-253.88 110.34,-243.29 103.81,-251.63 110.43,-253.88"/>
</g>
<!-- Compute (L1) = L1(incident_beam) -->
<g id="node8" class="node">
<title>Compute (L1) = L1(incident_beam)</title>
<polygon fill="lightgrey" stroke="transparent" points="135.5,-184 92.5,-184 92.5,-169 135.5,-169 135.5,-184"/>
<text text-anchor="middle" x="114" y="-172.8" font-family="Times,serif" font-size="14.00">L1(...)</text>
</g>
<!-- incident_beam&#45;&gt;Compute (L1) = L1(incident_beam) -->
<g id="edge8" class="edge">
<title>incident_beam&#45;&gt;Compute (L1) = L1(incident_beam)</title>
<path fill="none" stroke="black" d="M114,-219.77C114,-212.45 114,-202.61 114,-194.26"/>
<polygon fill="black" stroke="black" points="117.5,-194.19 114,-184.19 110.5,-194.19 117.5,-194.19"/>
</g>
<!-- Compute (two_theta) = two_theta(incident_beam, scattered_beam) -->
<g id="node12" class="node">
<title>Compute (two_theta) = two_theta(incident_beam, scattered_beam)</title>
<polygon fill="lightgrey" stroke="transparent" points="250.5,-184 155.5,-184 155.5,-169 250.5,-169 250.5,-184"/>
<text text-anchor="middle" x="203" y="-172.8" font-family="Times,serif" font-size="14.00">two_theta(...)</text>
</g>
<!-- incident_beam&#45;&gt;Compute (two_theta) = two_theta(incident_beam, scattered_beam) -->
<g id="edge12" class="edge">
<title>incident_beam&#45;&gt;Compute (two_theta) = two_theta(incident_beam, scattered_beam)</title>
<path fill="none" stroke="black" d="M132.01,-219.77C146.82,-210.96 167.77,-198.48 183.08,-189.36"/>
<polygon fill="black" stroke="black" points="184.97,-192.31 191.77,-184.19 181.39,-186.3 184.97,-192.31"/>
</g>
<!-- source_position -->
<g id="node3" class="node">
<title>source_position</title>
<polygon fill="none" stroke="black" points="133,-353 5,-353 5,-330 133,-330 133,-353"/>
<text text-anchor="middle" x="69" y="-337.8" font-family="Times,serif" font-size="14.00">source_position</text>
</g>
<!-- source_position&#45;&gt;Compute (incident_beam) = straight_incident_beam(source_position, sample_position) -->
<g id="edge2" class="edge">
<title>source_position&#45;&gt;Compute (incident_beam) = straight_incident_beam(source_position, sample_position)</title>
<path fill="none" stroke="black" d="M74.46,-329.77C78.36,-322.12 83.67,-311.71 88.04,-303.13"/>
<polygon fill="black" stroke="black" points="91.17,-304.68 92.59,-294.19 84.94,-301.51 91.17,-304.68"/>
</g>
<!-- sample_position -->
<g id="node4" class="node">
<title>sample_position</title>
<polygon fill="none" stroke="black" points="282.5,-353 151.5,-353 151.5,-330 282.5,-330 282.5,-353"/>
<text text-anchor="middle" x="217" y="-337.8" font-family="Times,serif" font-size="14.00">sample_position</text>
</g>
<!-- sample_position&#45;&gt;Compute (incident_beam) = straight_incident_beam(source_position, sample_position) -->
<g id="edge3" class="edge">
<title>sample_position&#45;&gt;Compute (incident_beam) = straight_incident_beam(source_position, sample_position)</title>
<path fill="none" stroke="black" d="M192.8,-329.9C171.73,-320.67 141.32,-307.35 120.24,-298.12"/>
<polygon fill="black" stroke="black" points="121.56,-294.87 110.99,-294.07 118.75,-301.28 121.56,-294.87"/>
</g>
<!-- Compute (scattered_beam) = straight_scattered_beam(position, sample_position) -->
<g id="node5" class="node">
<title>Compute (scattered_beam) = straight_scattered_beam(position, sample_position)</title>
<polygon fill="lightgrey" stroke="transparent" points="412,-294 210,-294 210,-279 412,-279 412,-294"/>
<text text-anchor="middle" x="311" y="-282.8" font-family="Times,serif" font-size="14.00">straight_scattered_beam(...)</text>
</g>
<!-- sample_position&#45;&gt;Compute (scattered_beam) = straight_scattered_beam(position, sample_position) -->
<g id="edge6" class="edge">
<title>sample_position&#45;&gt;Compute (scattered_beam) = straight_scattered_beam(position, sample_position)</title>
<path fill="none" stroke="black" d="M236.02,-329.77C251.9,-320.82 274.47,-308.1 290.69,-298.95"/>
<polygon fill="black" stroke="black" points="292.42,-301.99 299.41,-294.03 288.98,-295.9 292.42,-301.99"/>
</g>
<!-- scattered_beam -->
<g id="node6" class="node">
<title>scattered_beam</title>
<polygon fill="none" stroke="black" points="357,-243 227,-243 227,-220 357,-220 357,-243"/>
<text text-anchor="middle" x="292" y="-227.8" font-family="Times,serif" font-size="14.00">scattered_beam</text>
</g>
<!-- Compute (scattered_beam) = straight_scattered_beam(position, sample_position)&#45;&gt;scattered_beam -->
<g id="edge4" class="edge">
<title>Compute (scattered_beam) = straight_scattered_beam(position, sample_position)&#45;&gt;scattered_beam</title>
<path fill="none" stroke="black" d="M308.52,-278.57C306.18,-272.05 302.56,-261.95 299.3,-252.87"/>
<polygon fill="black" stroke="black" points="302.54,-251.52 295.87,-243.29 295.95,-253.88 302.54,-251.52"/>
</g>
<!-- Compute (L2) = L2(scattered_beam) -->
<g id="node10" class="node">
<title>Compute (L2) = L2(scattered_beam)</title>
<polygon fill="lightgrey" stroke="transparent" points="313.5,-184 270.5,-184 270.5,-169 313.5,-169 313.5,-184"/>
<text text-anchor="middle" x="292" y="-172.8" font-family="Times,serif" font-size="14.00">L2(...)</text>
</g>
<!-- scattered_beam&#45;&gt;Compute (L2) = L2(scattered_beam) -->
<g id="edge10" class="edge">
<title>scattered_beam&#45;&gt;Compute (L2) = L2(scattered_beam)</title>
<path fill="none" stroke="black" d="M292,-219.77C292,-212.45 292,-202.61 292,-194.26"/>
<polygon fill="black" stroke="black" points="295.5,-194.19 292,-184.19 288.5,-194.19 295.5,-194.19"/>
</g>
<!-- scattered_beam&#45;&gt;Compute (two_theta) = two_theta(incident_beam, scattered_beam) -->
<g id="edge13" class="edge">
<title>scattered_beam&#45;&gt;Compute (two_theta) = two_theta(incident_beam, scattered_beam)</title>
<path fill="none" stroke="black" d="M273.99,-219.77C259.18,-210.96 238.23,-198.48 222.92,-189.36"/>
<polygon fill="black" stroke="black" points="224.61,-186.3 214.23,-184.19 221.03,-192.31 224.61,-186.3"/>
</g>
<!-- position -->
<g id="node7" class="node">
<title>position</title>
<polygon fill="none" stroke="black" points="375,-353 301,-353 301,-330 375,-330 375,-353"/>
<text text-anchor="middle" x="338" y="-337.8" font-family="Times,serif" font-size="14.00">position</text>
</g>
<!-- position&#45;&gt;Compute (scattered_beam) = straight_scattered_beam(position, sample_position) -->
<g id="edge5" class="edge">
<title>position&#45;&gt;Compute (scattered_beam) = straight_scattered_beam(position, sample_position)</title>
<path fill="none" stroke="black" d="M332.54,-329.77C328.64,-322.12 323.33,-311.71 318.96,-303.13"/>
<polygon fill="black" stroke="black" points="322.06,-301.51 314.41,-294.19 315.83,-304.68 322.06,-301.51"/>
</g>
<!-- L1 -->
<g id="node9" class="node">
<title>L1</title>
<polygon fill="none" stroke="black" points="141,-133 87,-133 87,-110 141,-110 141,-133"/>
<text text-anchor="middle" x="114" y="-117.8" font-family="Times,serif" font-size="14.00">L1</text>
</g>
<!-- Compute (L1) = L1(incident_beam)&#45;&gt;L1 -->
<g id="edge7" class="edge">
<title>Compute (L1) = L1(incident_beam)&#45;&gt;L1</title>
<path fill="none" stroke="black" d="M114,-168.57C114,-162.19 114,-152.38 114,-143.45"/>
<polygon fill="black" stroke="black" points="117.5,-143.29 114,-133.29 110.5,-143.29 117.5,-143.29"/>
</g>
<!-- Compute (Ltotal) = total_beam_length(L1, L2) -->
<g id="node14" class="node">
<title>Compute (Ltotal) = total_beam_length(L1, L2)</title>
<polygon fill="lightgrey" stroke="transparent" points="281,-74 125,-74 125,-59 281,-59 281,-74"/>
<text text-anchor="middle" x="203" y="-62.8" font-family="Times,serif" font-size="14.00">total_beam_length(...)</text>
</g>
<!-- L1&#45;&gt;Compute (Ltotal) = total_beam_length(L1, L2) -->
<g id="edge15" class="edge">
<title>L1&#45;&gt;Compute (Ltotal) = total_beam_length(L1, L2)</title>
<path fill="none" stroke="black" d="M132.01,-109.77C146.82,-100.96 167.77,-88.48 183.08,-79.36"/>
<polygon fill="black" stroke="black" points="184.97,-82.31 191.77,-74.19 181.39,-76.3 184.97,-82.31"/>
</g>
<!-- L2 -->
<g id="node11" class="node">
<title>L2</title>
<polygon fill="none" stroke="black" points="319,-133 265,-133 265,-110 319,-110 319,-133"/>
<text text-anchor="middle" x="292" y="-117.8" font-family="Times,serif" font-size="14.00">L2</text>
</g>
<!-- Compute (L2) = L2(scattered_beam)&#45;&gt;L2 -->
<g id="edge9" class="edge">
<title>Compute (L2) = L2(scattered_beam)&#45;&gt;L2</title>
<path fill="none" stroke="black" d="M292,-168.57C292,-162.19 292,-152.38 292,-143.45"/>
<polygon fill="black" stroke="black" points="295.5,-143.29 292,-133.29 288.5,-143.29 295.5,-143.29"/>
</g>
<!-- L2&#45;&gt;Compute (Ltotal) = total_beam_length(L1, L2) -->
<g id="edge16" class="edge">
<title>L2&#45;&gt;Compute (Ltotal) = total_beam_length(L1, L2)</title>
<path fill="none" stroke="black" d="M273.99,-109.77C259.18,-100.96 238.23,-88.48 222.92,-79.36"/>
<polygon fill="black" stroke="black" points="224.61,-76.3 214.23,-74.19 221.03,-82.31 224.61,-76.3"/>
</g>
<!-- two_theta -->
<g id="node13" class="node">
<title>two_theta</title>
<polygon fill="none" stroke="black" points="246.5,-133 159.5,-133 159.5,-110 246.5,-110 246.5,-133"/>
<text text-anchor="middle" x="203" y="-117.8" font-family="Times,serif" font-size="14.00">two_theta</text>
</g>
<!-- Compute (two_theta) = two_theta(incident_beam, scattered_beam)&#45;&gt;two_theta -->
<g id="edge11" class="edge">
<title>Compute (two_theta) = two_theta(incident_beam, scattered_beam)&#45;&gt;two_theta</title>
<path fill="none" stroke="black" d="M203,-168.57C203,-162.19 203,-152.38 203,-143.45"/>
<polygon fill="black" stroke="black" points="206.5,-143.29 203,-133.29 199.5,-143.29 206.5,-143.29"/>
</g>
<!-- Ltotal -->
<g id="node15" class="node">
<title>Ltotal</title>
<polygon fill="none" stroke="black" points="232.5,-23 173.5,-23 173.5,0 232.5,0 232.5,-23"/>
<text text-anchor="middle" x="203" y="-7.8" font-family="Times,serif" font-size="14.00">Ltotal</text>
</g>
<!-- Compute (Ltotal) = total_beam_length(L1, L2)&#45;&gt;Ltotal -->
<g id="edge14" class="edge">
<title>Compute (Ltotal) = total_beam_length(L1, L2)&#45;&gt;Ltotal</title>
<path fill="none" stroke="black" d="M203,-58.57C203,-52.19 203,-42.38 203,-33.45"/>
<polygon fill="black" stroke="black" points="206.5,-33.29 203,-23.29 199.5,-33.29 206.5,-33.29"/>
</g>
</g>
</svg>