<?xml version="1.0" encoding="utf-8" standalone="no"?>
<!DOCTYPE svg PUBLIC "-//W3C//DTD SVG 1.1//EN"
  "http://www.w3.org/Graphics/SVG/1.1/DTD/svg11.dtd">
<svg xmlns:xlink="http://www.w3.org/1999/xlink" width="388.965625pt" height="268.200625pt" viewBox="0 0 388.965625 268.200625" xmlns="http://www.w3.org/2000/svg" version="1.1">
 <metadata>
  <rdf:RDF xmlns:dc="http://purl.org/dc/elements/1.1/" xmlns:cc="http://creativecommons.org/ns#" xmlns:rdf="http://www.w3.org/1999/02/22-rdf-syntax-ns#">
   <cc:Work>
    <dc:type rdf:resource="http://purl.org/dc/dcmitype/StillImage"/>
    <dc:date>2025-07-11T14:03:06.044366</dc:date>
    <dc:format>image/svg+xml</dc:format>
    <dc:creator>
     <cc:Agent>
      <dc:title>Matplotlib v3.10.1, https://matplotlib.org/</dc:title>
     </cc:Agent>
    </dc:creator>
   </cc:Work>
  </rdf:RDF>
 </metadata>
 <defs>
  <style type="text/css">*{stroke-linejoin: round; stroke-linecap: butt}</style>
 </defs>
 <g id="figure_1">
  <g id="patch_1">
   <path d="M 0 268.200625 
L 388.965625 268.200625 
L 388.965625 0 
L 0 0 
z
" style="fill: #ffffff"/>
  </g>
  <g id="axes_1">
   <g id="patch_2">
    <path d="M 46.965625 228.96 
L 381.765625 228.96 
L 381.765625 7.2 
L 46.965625 7.2 
z
" style="fill: #ffffff"/>
   </g>
   <g id="matplotlib.axis_1">
    <g id="xtick_1">
     <g id="line2d_1">
      <defs>
       <path id="m8ff1befa16" d="M 0 0 
L 0 3.5 
" style="stroke: #000000; stroke-width: 0.8"/>
      </defs>
      <g>
       <use xlink:href="#m8ff1befa16" x="62.424404" y="228.96" style="stroke: #000000; stroke-width: 0.8"/>
      </g>
     </g>
     <g id="text_1">
      <!-- 5.25 -->
      <g transform="translate(51.291592 243.558437) scale(0.1 -0.1)">
       <defs>
        <path id="DejaVuSans-35" d="M 691 4666 
L 3169 4666 
L 3169 4134 
L 1269 4134 
L 1269 2991 
Q 1406 3038 1543 3061 
Q 1681 3084 1819 3084 
Q 2600 3084 3056 2656 
Q 3513 2228 3513 1497 
Q 3513 744 3044 326 
Q 2575 -91 1722 -91 
Q 1428 -91 1123 -41 
Q 819 9 494 109 
L 494 744 
Q 775 591 1075 516 
Q 1375 441 1709 441 
Q 2250 441 2565 725 
Q 2881 1009 2881 1497 
Q 2881 1984 2565 2268 
Q 2250 2553 1709 2553 
Q 1456 2553 1204 2497 
Q 953 2441 691 2322 
L 691 4666 
z
" transform="scale(0.015625)"/>
        <path id="DejaVuSans-2e" d="M 684 794 
L 1344 794 
L 1344 0 
L 684 0 
L 684 794 
z
" transform="scale(0.015625)"/>
        <path id="DejaVuSans-32" d="M 1228 531 
L 3431 531 
L 3431 0 
L 469 0 
L 469 531 
Q 828 903 1448 1529 
Q 2069 2156 2228 2338 
Q 2531 2678 2651 2914 
Q 2772 3150 2772 3378 
Q 2772 3750 2511 3984 
Q 2250 4219 1831 4219 
Q 1534 4219 1204 4116 
Q 875 4013 500 3803 
L 500 4441 
Q 881 4594 1212 4672 
Q 1544 4750 1819 4750 
Q 2544 4750 2975 4387 
Q 3406 4025 3406 3419 
Q 3406 3131 3298 2873 
Q 3191 2616 2906 2266 
Q 2828 2175 2409 1742 
Q 1991 1309 1228 531 
z
" transform="scale(0.015625)"/>
       </defs>
       <use xlink:href="#DejaVuSans-35"/>
       <use xlink:href="#DejaVuSans-2e" transform="translate(63.623047 0)"/>
       <use xlink:href="#DejaVuSans-32" transform="translate(95.410156 0)"/>
       <use xlink:href="#DejaVuSans-35" transform="translate(159.033203 0)"/>
      </g>
     </g>
    </g>
    <g id="xtick_2">
     <g id="line2d_2">
      <g>
       <use xlink:href="#m8ff1befa16" x="106.437616" y="228.96" style="stroke: #000000; stroke-width: 0.8"/>
      </g>
     </g>
     <g id="text_2">
      <!-- 5.50 -->
      <g transform="translate(95.304804 243.558437) scale(0.1 -0.1)">
       <defs>
        <path id="DejaVuSans-30" d="M 2034 4250 
Q 1547 4250 1301 3770 
Q 1056 3291 1056 2328 
Q 1056 1369 1301 889 
Q 1547 409 2034 409 
Q 2525 409 2770 889 
Q 3016 1369 3016 2328 
Q 3016 3291 2770 3770 
Q 2525 4250 2034 4250 
z
M 2034 4750 
Q 2819 4750 3233 4129 
Q 3647 3509 3647 2328 
Q 3647 1150 3233 529 
Q 2819 -91 2034 -91 
Q 1250 -91 836 529 
Q 422 1150 422 2328 
Q 422 3509 836 4129 
Q 1250 4750 2034 4750 
z
" transform="scale(0.015625)"/>
       </defs>
       <use xlink:href="#DejaVuSans-35"/>
       <use xlink:href="#DejaVuSans-2e" transform="translate(63.623047 0)"/>
       <use xlink:href="#DejaVuSans-35" transform="translate(95.410156 0)"/>
       <use xlink:href="#DejaVuSans-30" transform="translate(159.033203 0)"/>
      </g>
     </g>
    </g>
    <g id="xtick_3">
     <g id="line2d_3">
      <g>
       <use xlink:href="#m8ff1befa16" x="150.450828" y="228.96" style="stroke: #000000; stroke-width: 0.8"/>
      </g>
     </g>
     <g id="text_3">
      <!-- 5.75 -->
      <g transform="translate(139.318016 243.558437) scale(0.1 -0.1)">
       <defs>
        <path id="DejaVuSans-37" d="M 525 4666 
L 3525 4666 
L 3525 4397 
L 1831 0 
L 1172 0 
L 2766 4134 
L 525 4134 
L 525 4666 
z
" transform="scale(0.015625)"/>
       </defs>
       <use xlink:href="#DejaVuSans-35"/>
       <use xlink:href="#DejaVuSans-2e" transform="translate(63.623047 0)"/>
       <use xlink:href="#DejaVuSans-37" transform="translate(95.410156 0)"/>
       <use xlink:href="#DejaVuSans-35" transform="translate(159.033203 0)"/>
      </g>
     </g>
    </g>
    <g id="xtick_4">
     <g id="line2d_4">
      <g>
       <use xlink:href="#m8ff1befa16" x="194.46404" y="228.96" style="stroke: #000000; stroke-width: 0.8"/>
      </g>
     </g>
     <g id="text_4">
      <!-- 6.00 -->
      <g transform="translate(183.331228 243.558437) scale(0.1 -0.1)">
       <defs>
        <path id="DejaVuSans-36" d="M 2113 2584 
Q 1688 2584 1439 2293 
Q 1191 2003 1191 1497 
Q 1191 994 1439 701 
Q 1688 409 2113 409 
Q 2538 409 2786 701 
Q 3034 994 3034 1497 
Q 3034 2003 2786 2293 
Q 2538 2584 2113 2584 
z
M 3366 4563 
L 3366 3988 
Q 3128 4100 2886 4159 
Q 2644 4219 2406 4219 
Q 1781 4219 1451 3797 
Q 1122 3375 1075 2522 
Q 1259 2794 1537 2939 
Q 1816 3084 2150 3084 
Q 2853 3084 3261 2657 
Q 3669 2231 3669 1497 
Q 3669 778 3244 343 
Q 2819 -91 2113 -91 
Q 1303 -91 875 529 
Q 447 1150 447 2328 
Q 447 3434 972 4092 
Q 1497 4750 2381 4750 
Q 2619 4750 2861 4703 
Q 3103 4656 3366 4563 
z
" transform="scale(0.015625)"/>
       </defs>
       <use xlink:href="#DejaVuSans-36"/>
       <use xlink:href="#DejaVuSans-2e" transform="translate(63.623047 0)"/>
       <use xlink:href="#DejaVuSans-30" transform="translate(95.410156 0)"/>
       <use xlink:href="#DejaVuSans-30" transform="translate(159.033203 0)"/>
      </g>
     </g>
    </g>
    <g id="xtick_5">
     <g id="line2d_5">
      <g>
       <use xlink:href="#m8ff1befa16" x="238.477252" y="228.96" style="stroke: #000000; stroke-width: 0.8"/>
      </g>
     </g>
     <g id="text_5">
      <!-- 6.25 -->
      <g transform="translate(227.34444 243.558437) scale(0.1 -0.1)">
       <use xlink:href="#DejaVuSans-36"/>
       <use xlink:href="#DejaVuSans-2e" transform="translate(63.623047 0)"/>
       <use xlink:href="#DejaVuSans-32" transform="translate(95.410156 0)"/>
       <use xlink:href="#DejaVuSans-35" transform="translate(159.033203 0)"/>
      </g>
     </g>
    </g>
    <g id="xtick_6">
     <g id="line2d_6">
      <g>
       <use xlink:href="#m8ff1befa16" x="282.490464" y="228.96" style="stroke: #000000; stroke-width: 0.8"/>
      </g>
     </g>
     <g id="text_6">
      <!-- 6.50 -->
      <g transform="translate(271.357652 243.558437) scale(0.1 -0.1)">
       <use xlink:href="#DejaVuSans-36"/>
       <use xlink:href="#DejaVuSans-2e" transform="translate(63.623047 0)"/>
       <use xlink:href="#DejaVuSans-35" transform="translate(95.410156 0)"/>
       <use xlink:href="#DejaVuSans-30" transform="translate(159.033203 0)"/>
      </g>
     </g>
    </g>
    <g id="xtick_7">
     <g id="line2d_7">
      <g>
       <use xlink:href="#m8ff1befa16" x="326.503676" y="228.96" style="stroke: #000000; stroke-width: 0.8"/>
      </g>
     </g>
     <g id="text_7">
      <!-- 6.75 -->
      <g transform="translate(315.370864 243.558437) scale(0.1 -0.1)">
       <use xlink:href="#DejaVuSans-36"/>
       <use xlink:href="#DejaVuSans-2e" transform="translate(63.623047 0)"/>
       <use xlink:href="#DejaVuSans-37" transform="translate(95.410156 0)"/>
       <use xlink:href="#DejaVuSans-35" transform="translate(159.033203 0)"/>
      </g>
     </g>
    </g>
    <g id="xtick_8">
     <g id="line2d_8">
      <g>
       <use xlink:href="#m8ff1befa16" x="370.516888" y="228.96" style="stroke: #000000; stroke-width: 0.8"/>
      </g>
     </g>
     <g id="text_8">
      <!-- 7.00 -->
      <g transform="translate(359.384076 243.558437) scale(0.1 -0.1)">
       <use xlink:href="#DejaVuSans-37"/>
       <use xlink:href="#DejaVuSans-2e" transform="translate(63.623047 0)"/>
       <use xlink:href="#DejaVuSans-30" transform="translate(95.410156 0)"/>
       <use xlink:href="#DejaVuSans-30" transform="translate(159.033203 0)"/>
      </g>
     </g>
    </g>
    <g id="text_9">
     <!-- wavelength [Å] -->
     <g transform="translate(176.328125 258.920937) scale(0.1 -0.1)">
      <defs>
       <path id="DejaVuSans-77" d="M 269 3500 
L 844 3500 
L 1563 769 
L 2278 3500 
L 2956 3500 
L 3675 769 
L 4391 3500 
L 4966 3500 
L 4050 0 
L 3372 0 
L 2619 2869 
L 1863 0 
L 1184 0 
L 269 3500 
z
" transform="scale(0.015625)"/>
       <path id="DejaVuSans-61" d="M 2194 1759 
Q 1497 1759 1228 1600 
Q 959 1441 959 1056 
Q 959 750 1161 570 
Q 1363 391 1709 391 
Q 2188 391 2477 730 
Q 2766 1069 2766 1631 
L 2766 1759 
L 2194 1759 
z
M 3341 1997 
L 3341 0 
L 2766 0 
L 2766 531 
Q 2569 213 2275 61 
Q 1981 -91 1556 -91 
Q 1019 -91 701 211 
Q 384 513 384 1019 
Q 384 1609 779 1909 
Q 1175 2209 1959 2209 
L 2766 2209 
L 2766 2266 
Q 2766 2663 2505 2880 
Q 2244 3097 1772 3097 
Q 1472 3097 1187 3025 
Q 903 2953 641 2809 
L 641 3341 
Q 956 3463 1253 3523 
Q 1550 3584 1831 3584 
Q 2591 3584 2966 3190 
Q 3341 2797 3341 1997 
z
" transform="scale(0.015625)"/>
       <path id="DejaVuSans-76" d="M 191 3500 
L 800 3500 
L 1894 563 
L 2988 3500 
L 3597 3500 
L 2284 0 
L 1503 0 
L 191 3500 
z
" transform="scale(0.015625)"/>
       <path id="DejaVuSans-65" d="M 3597 1894 
L 3597 1613 
L 953 1613 
Q 991 1019 1311 708 
Q 1631 397 2203 397 
Q 2534 397 2845 478 
Q 3156 559 3463 722 
L 3463 178 
Q 3153 47 2828 -22 
Q 2503 -91 2169 -91 
Q 1331 -91 842 396 
Q 353 884 353 1716 
Q 353 2575 817 3079 
Q 1281 3584 2069 3584 
Q 2775 3584 3186 3129 
Q 3597 2675 3597 1894 
z
M 3022 2063 
Q 3016 2534 2758 2815 
Q 2500 3097 2075 3097 
Q 1594 3097 1305 2825 
Q 1016 2553 972 2059 
L 3022 2063 
z
" transform="scale(0.015625)"/>
       <path id="DejaVuSans-6c" d="M 603 4863 
L 1178 4863 
L 1178 0 
L 603 0 
L 603 4863 
z
" transform="scale(0.015625)"/>
       <path id="DejaVuSans-6e" d="M 3513 2113 
L 3513 0 
L 2938 0 
L 2938 2094 
Q 2938 2591 2744 2837 
Q 2550 3084 2163 3084 
Q 1697 3084 1428 2787 
Q 1159 2491 1159 1978 
L 1159 0 
L 581 0 
L 581 3500 
L 1159 3500 
L 1159 2956 
Q 1366 3272 1645 3428 
Q 1925 3584 2291 3584 
Q 2894 3584 3203 3211 
Q 3513 2838 3513 2113 
z
" transform="scale(0.015625)"/>
       <path id="DejaVuSans-67" d="M 2906 1791 
Q 2906 2416 2648 2759 
Q 2391 3103 1925 3103 
Q 1463 3103 1205 2759 
Q 947 2416 947 1791 
Q 947 1169 1205 825 
Q 1463 481 1925 481 
Q 2391 481 2648 825 
Q 2906 1169 2906 1791 
z
M 3481 434 
Q 3481 -459 3084 -895 
Q 2688 -1331 1869 -1331 
Q 1566 -1331 1297 -1286 
Q 1028 -1241 775 -1147 
L 775 -588 
Q 1028 -725 1275 -790 
Q 1522 -856 1778 -856 
Q 2344 -856 2625 -561 
Q 2906 -266 2906 331 
L 2906 616 
Q 2728 306 2450 153 
Q 2172 0 1784 0 
Q 1141 0 747 490 
Q 353 981 353 1791 
Q 353 2603 747 3093 
Q 1141 3584 1784 3584 
Q 2172 3584 2450 3431 
Q 2728 3278 2906 2969 
L 2906 3500 
L 3481 3500 
L 3481 434 
z
" transform="scale(0.015625)"/>
       <path id="DejaVuSans-74" d="M 1172 4494 
L 1172 3500 
L 2356 3500 
L 2356 3053 
L 1172 3053 
L 1172 1153 
Q 1172 725 1289 603 
Q 1406 481 1766 481 
L 2356 481 
L 2356 0 
L 1766 0 
Q 1100 0 847 248 
Q 594 497 594 1153 
L 594 3053 
L 172 3053 
L 172 3500 
L 594 3500 
L 594 4494 
L 1172 4494 
z
" transform="scale(0.015625)"/>
       <path id="DejaVuSans-68" d="M 3513 2113 
L 3513 0 
L 2938 0 
L 2938 2094 
Q 2938 2591 2744 2837 
Q 2550 3084 2163 3084 
Q 1697 3084 1428 2787 
Q 1159 2491 1159 1978 
L 1159 0 
L 581 0 
L 581 4863 
L 1159 4863 
L 1159 2956 
Q 1366 3272 1645 3428 
Q 1925 3584 2291 3584 
Q 2894 3584 3203 3211 
Q 3513 2838 3513 2113 
z
" transform="scale(0.015625)"/>
       <path id="DejaVuSans-20" transform="scale(0.015625)"/>
       <path id="DejaVuSans-5b" d="M 550 4863 
L 1875 4863 
L 1875 4416 
L 1125 4416 
L 1125 -397 
L 1875 -397 
L 1875 -844 
L 550 -844 
L 550 4863 
z
" transform="scale(0.015625)"/>
       <path id="DejaVuSans-c5" d="M 2663 5081 
Q 2663 5278 2523 5417 
Q 2384 5556 2188 5556 
Q 1988 5556 1852 5420 
Q 1716 5284 1716 5081 
Q 1716 4884 1853 4746 
Q 1991 4609 2188 4609 
Q 2384 4609 2523 4746 
Q 2663 4884 2663 5081 
z
M 2188 4044 
L 1338 1722 
L 3041 1722 
L 2188 4044 
z
M 1716 4366 
Q 1525 4494 1428 4673 
Q 1331 4853 1331 5081 
Q 1331 5441 1579 5691 
Q 1828 5941 2188 5941 
Q 2544 5941 2795 5689 
Q 3047 5438 3047 5081 
Q 3047 4863 2948 4678 
Q 2850 4494 2663 4366 
L 4325 0 
L 3669 0 
L 3244 1197 
L 1141 1197 
L 716 0 
L 50 0 
L 1716 4366 
z
" transform="scale(0.015625)"/>
       <path id="DejaVuSans-5d" d="M 1947 4863 
L 1947 -844 
L 622 -844 
L 622 -397 
L 1369 -397 
L 1369 4416 
L 622 4416 
L 622 4863 
L 1947 4863 
z
" transform="scale(0.015625)"/>
      </defs>
      <use xlink:href="#DejaVuSans-77"/>
      <use xlink:href="#DejaVuSans-61" transform="translate(81.787109 0)"/>
      <use xlink:href="#DejaVuSans-76" transform="translate(143.066406 0)"/>
      <use xlink:href="#DejaVuSans-65" transform="translate(202.246094 0)"/>
      <use xlink:href="#DejaVuSans-6c" transform="translate(263.769531 0)"/>
      <use xlink:href="#DejaVuSans-65" transform="translate(291.552734 0)"/>
      <use xlink:href="#DejaVuSans-6e" transform="translate(353.076172 0)"/>
      <use xlink:href="#DejaVuSans-67" transform="translate(416.455078 0)"/>
      <use xlink:href="#DejaVuSans-74" transform="translate(479.931641 0)"/>
      <use xlink:href="#DejaVuSans-68" transform="translate(519.140625 0)"/>
      <use xlink:href="#DejaVuSans-20" transform="translate(582.519531 0)"/>
      <use xlink:href="#DejaVuSans-5b" transform="translate(614.306641 0)"/>
      <use xlink:href="#DejaVuSans-c5" transform="translate(653.320312 0)"/>
      <use xlink:href="#DejaVuSans-5d" transform="translate(721.728516 0)"/>
     </g>
    </g>
   </g>
   <g id="matplotlib.axis_2">
    <g id="ytick_1">
     <g id="line2d_9">
      <defs>
       <path id="md5c3b4c802" d="M 0 0 
L -3.5 0 
" style="stroke: #000000; stroke-width: 0.8"/>
      </defs>
      <g>
       <use xlink:href="#md5c3b4c802" x="46.965625" y="218.88" style="stroke: #000000; stroke-width: 0.8"/>
      </g>
     </g>
     <g id="text_10">
      <!-- 0 -->
      <g transform="translate(33.603125 222.679219) scale(0.1 -0.1)">
       <use xlink:href="#DejaVuSans-30"/>
      </g>
     </g>
    </g>
    <g id="ytick_2">
     <g id="line2d_10">
      <g>
       <use xlink:href="#md5c3b4c802" x="46.965625" y="186.170613" style="stroke: #000000; stroke-width: 0.8"/>
      </g>
     </g>
     <g id="text_11">
      <!-- 100 -->
      <g transform="translate(20.878125 189.969832) scale(0.1 -0.1)">
       <defs>
        <path id="DejaVuSans-31" d="M 794 531 
L 1825 531 
L 1825 4091 
L 703 3866 
L 703 4441 
L 1819 4666 
L 2450 4666 
L 2450 531 
L 3481 531 
L 3481 0 
L 794 0 
L 794 531 
z
" transform="scale(0.015625)"/>
       </defs>
       <use xlink:href="#DejaVuSans-31"/>
       <use xlink:href="#DejaVuSans-30" transform="translate(63.623047 0)"/>
       <use xlink:href="#DejaVuSans-30" transform="translate(127.246094 0)"/>
      </g>
     </g>
    </g>
    <g id="ytick_3">
     <g id="line2d_11">
      <g>
       <use xlink:href="#md5c3b4c802" x="46.965625" y="153.461226" style="stroke: #000000; stroke-width: 0.8"/>
      </g>
     </g>
     <g id="text_12">
      <!-- 200 -->
      <g transform="translate(20.878125 157.260445) scale(0.1 -0.1)">
       <use xlink:href="#DejaVuSans-32"/>
       <use xlink:href="#DejaVuSans-30" transform="translate(63.623047 0)"/>
       <use xlink:href="#DejaVuSans-30" transform="translate(127.246094 0)"/>
      </g>
     </g>
    </g>
    <g id="ytick_4">
     <g id="line2d_12">
      <g>
       <use xlink:href="#md5c3b4c802" x="46.965625" y="120.751839" style="stroke: #000000; stroke-width: 0.8"/>
      </g>
     </g>
     <g id="text_13">
      <!-- 300 -->
      <g transform="translate(20.878125 124.551058) scale(0.1 -0.1)">
       <defs>
        <path id="DejaVuSans-33" d="M 2597 2516 
Q 3050 2419 3304 2112 
Q 3559 1806 3559 1356 
Q 3559 666 3084 287 
Q 2609 -91 1734 -91 
Q 1441 -91 1130 -33 
Q 819 25 488 141 
L 488 750 
Q 750 597 1062 519 
Q 1375 441 1716 441 
Q 2309 441 2620 675 
Q 2931 909 2931 1356 
Q 2931 1769 2642 2001 
Q 2353 2234 1838 2234 
L 1294 2234 
L 1294 2753 
L 1863 2753 
Q 2328 2753 2575 2939 
Q 2822 3125 2822 3475 
Q 2822 3834 2567 4026 
Q 2313 4219 1838 4219 
Q 1578 4219 1281 4162 
Q 984 4106 628 3988 
L 628 4550 
Q 988 4650 1302 4700 
Q 1616 4750 1894 4750 
Q 2613 4750 3031 4423 
Q 3450 4097 3450 3541 
Q 3450 3153 3228 2886 
Q 3006 2619 2597 2516 
z
" transform="scale(0.015625)"/>
       </defs>
       <use xlink:href="#DejaVuSans-33"/>
       <use xlink:href="#DejaVuSans-30" transform="translate(63.623047 0)"/>
       <use xlink:href="#DejaVuSans-30" transform="translate(127.246094 0)"/>
      </g>
     </g>
    </g>
    <g id="ytick_5">
     <g id="line2d_13">
      <g>
       <use xlink:href="#md5c3b4c802" x="46.965625" y="88.042452" style="stroke: #000000; stroke-width: 0.8"/>
      </g>
     </g>
     <g id="text_14">
      <!-- 400 -->
      <g transform="translate(20.878125 91.841671) scale(0.1 -0.1)">
       <defs>
        <path id="DejaVuSans-34" d="M 2419 4116 
L 825 1625 
L 2419 1625 
L 2419 4116 
z
M 2253 4666 
L 3047 4666 
L 3047 1625 
L 3713 1625 
L 3713 1100 
L 3047 1100 
L 3047 0 
L 2419 0 
L 2419 1100 
L 313 1100 
L 313 1709 
L 2253 4666 
z
" transform="scale(0.015625)"/>
       </defs>
       <use xlink:href="#DejaVuSans-34"/>
       <use xlink:href="#DejaVuSans-30" transform="translate(63.623047 0)"/>
       <use xlink:href="#DejaVuSans-30" transform="translate(127.246094 0)"/>
      </g>
     </g>
    </g>
    <g id="ytick_6">
     <g id="line2d_14">
      <g>
       <use xlink:href="#md5c3b4c802" x="46.965625" y="55.333065" style="stroke: #000000; stroke-width: 0.8"/>
      </g>
     </g>
     <g id="text_15">
      <!-- 500 -->
      <g transform="translate(20.878125 59.132284) scale(0.1 -0.1)">
       <use xlink:href="#DejaVuSans-35"/>
       <use xlink:href="#DejaVuSans-30" transform="translate(63.623047 0)"/>
       <use xlink:href="#DejaVuSans-30" transform="translate(127.246094 0)"/>
      </g>
     </g>
    </g>
    <g id="ytick_7">
     <g id="line2d_15">
      <g>
       <use xlink:href="#md5c3b4c802" x="46.965625" y="22.623679" style="stroke: #000000; stroke-width: 0.8"/>
      </g>
     </g>
     <g id="text_16">
      <!-- 600 -->
      <g transform="translate(20.878125 26.422897) scale(0.1 -0.1)">
       <use xlink:href="#DejaVuSans-36"/>
       <use xlink:href="#DejaVuSans-30" transform="translate(63.623047 0)"/>
       <use xlink:href="#DejaVuSans-30" transform="translate(127.246094 0)"/>
      </g>
     </g>
    </g>
    <g id="text_17">
     <!-- [counts] -->
     <g transform="translate(14.798438 138.6925) rotate(-90) scale(0.1 -0.1)">
      <defs>
       <path id="DejaVuSans-63" d="M 3122 3366 
L 3122 2828 
Q 2878 2963 2633 3030 
Q 2388 3097 2138 3097 
Q 1578 3097 1268 2742 
Q 959 2388 959 1747 
Q 959 1106 1268 751 
Q 1578 397 2138 397 
Q 2388 397 2633 464 
Q 2878 531 3122 666 
L 3122 134 
Q 2881 22 2623 -34 
Q 2366 -91 2075 -91 
Q 1284 -91 818 406 
Q 353 903 353 1747 
Q 353 2603 823 3093 
Q 1294 3584 2113 3584 
Q 2378 3584 2631 3529 
Q 2884 3475 3122 3366 
z
" transform="scale(0.015625)"/>
       <path id="DejaVuSans-6f" d="M 1959 3097 
Q 1497 3097 1228 2736 
Q 959 2375 959 1747 
Q 959 1119 1226 758 
Q 1494 397 1959 397 
Q 2419 397 2687 759 
Q 2956 1122 2956 1747 
Q 2956 2369 2687 2733 
Q 2419 3097 1959 3097 
z
M 1959 3584 
Q 2709 3584 3137 3096 
Q 3566 2609 3566 1747 
Q 3566 888 3137 398 
Q 2709 -91 1959 -91 
Q 1206 -91 779 398 
Q 353 888 353 1747 
Q 353 2609 779 3096 
Q 1206 3584 1959 3584 
z
" transform="scale(0.015625)"/>
       <path id="DejaVuSans-75" d="M 544 1381 
L 544 3500 
L 1119 3500 
L 1119 1403 
Q 1119 906 1312 657 
Q 1506 409 1894 409 
Q 2359 409 2629 706 
Q 2900 1003 2900 1516 
L 2900 3500 
L 3475 3500 
L 3475 0 
L 2900 0 
L 2900 538 
Q 2691 219 2414 64 
Q 2138 -91 1772 -91 
Q 1169 -91 856 284 
Q 544 659 544 1381 
z
M 1991 3584 
L 1991 3584 
z
" transform="scale(0.015625)"/>
       <path id="DejaVuSans-73" d="M 2834 3397 
L 2834 2853 
Q 2591 2978 2328 3040 
Q 2066 3103 1784 3103 
Q 1356 3103 1142 2972 
Q 928 2841 928 2578 
Q 928 2378 1081 2264 
Q 1234 2150 1697 2047 
L 1894 2003 
Q 2506 1872 2764 1633 
Q 3022 1394 3022 966 
Q 3022 478 2636 193 
Q 2250 -91 1575 -91 
Q 1294 -91 989 -36 
Q 684 19 347 128 
L 347 722 
Q 666 556 975 473 
Q 1284 391 1588 391 
Q 1994 391 2212 530 
Q 2431 669 2431 922 
Q 2431 1156 2273 1281 
Q 2116 1406 1581 1522 
L 1381 1569 
Q 847 1681 609 1914 
Q 372 2147 372 2553 
Q 372 3047 722 3315 
Q 1072 3584 1716 3584 
Q 2034 3584 2315 3537 
Q 2597 3491 2834 3397 
z
" transform="scale(0.015625)"/>
      </defs>
      <use xlink:href="#DejaVuSans-5b"/>
      <use xlink:href="#DejaVuSans-63" transform="translate(39.013672 0)"/>
      <use xlink:href="#DejaVuSans-6f" transform="translate(93.994141 0)"/>
      <use xlink:href="#DejaVuSans-75" transform="translate(155.175781 0)"/>
      <use xlink:href="#DejaVuSans-6e" transform="translate(218.554688 0)"/>
      <use xlink:href="#DejaVuSans-74" transform="translate(281.933594 0)"/>
      <use xlink:href="#DejaVuSans-73" transform="translate(321.142578 0)"/>
      <use xlink:href="#DejaVuSans-5d" transform="translate(373.242188 0)"/>
     </g>
    </g>
   </g>
   <g id="patch_3">
    <path d="M 46.965625 228.96 
L 46.965625 7.2 
" style="fill: none; stroke: #000000; stroke-width: 0.8; stroke-linejoin: miter; stroke-linecap: square"/>
   </g>
   <g id="patch_4">
    <path d="M 381.765625 228.96 
L 381.765625 7.2 
" style="fill: none; stroke: #000000; stroke-width: 0.8; stroke-linejoin: miter; stroke-linecap: square"/>
   </g>
   <g id="patch_5">
    <path d="M 46.965625 228.96 
L 381.765625 228.96 
" style="fill: none; stroke: #000000; stroke-width: 0.8; stroke-linejoin: miter; stroke-linecap: square"/>
   </g>
   <g id="patch_6">
    <path d="M 46.965625 7.2 
L 381.765625 7.2 
" style="fill: none; stroke: #000000; stroke-width: 0.8; stroke-linejoin: miter; stroke-linecap: square"/>
   </g>
   <g id="line2d_16">
    <path d="M 62.183807 215.013611 
L 63.705625 215.013611 
L 63.705625 202.889105 
L 65.227443 202.889105 
L 65.227443 184.199938 
L 66.749261 184.199938 
L 66.749261 165.534041 
L 68.27108 165.534041 
L 68.27108 147.518919 
L 69.792898 147.518919 
L 69.792898 124.729741 
L 71.314716 124.729741 
L 71.314716 114.120457 
L 72.836534 114.120457 
L 72.836534 90.718673 
L 74.358352 90.718673 
L 74.358352 74.459068 
L 75.88017 74.459068 
L 75.88017 47.494223 
L 77.401989 47.494223 
L 77.401989 51.268327 
L 78.923807 51.268327 
L 78.923807 27.021412 
L 80.445625 27.021412 
L 80.445625 59.821023 
L 81.967443 59.821023 
L 81.967443 37.464425 
L 83.489261 37.464425 
L 83.489261 53.735651 
L 85.01108 53.735651 
L 85.01108 42.551239 
L 86.532898 42.551239 
L 86.532898 65.385196 
L 88.054716 65.385196 
L 88.054716 40.877926 
L 89.576534 40.877926 
L 89.576534 41.759594 
L 91.098352 41.759594 
L 91.098352 45.128985 
L 92.62017 45.128985 
L 92.62017 42.330657 
L 94.141989 42.330657 
L 94.141989 54.254225 
L 95.663807 54.254225 
L 95.663807 54.867162 
L 97.185625 54.867162 
L 97.185625 48.30803 
L 98.707443 48.30803 
L 98.707443 62.721667 
L 100.229261 62.721667 
L 100.229261 53.367182 
L 101.75108 53.367182 
L 101.75108 60.962697 
L 103.272898 60.962697 
L 103.272898 59.964038 
L 104.794716 59.964038 
L 104.794716 67.643043 
L 106.316534 67.643043 
L 106.316534 62.551362 
L 107.838352 62.551362 
L 107.838352 52.359268 
L 109.36017 52.359268 
L 109.36017 66.394582 
L 110.881989 66.394582 
L 110.881989 70.180241 
L 112.403807 70.180241 
L 112.403807 69.776792 
L 113.925625 69.776792 
L 113.925625 63.857017 
L 115.447443 63.857017 
L 115.447443 53.859477 
L 116.969261 53.859477 
L 116.969261 53.225571 
L 118.49108 53.225571 
L 118.49108 61.274153 
L 120.012898 61.274153 
L 120.012898 59.262619 
L 121.534716 59.262619 
L 121.534716 61.206214 
L 123.056534 61.206214 
L 123.056534 59.230955 
L 124.578352 59.230955 
L 124.578352 65.480087 
L 126.10017 65.480087 
L 126.10017 68.689935 
L 127.621989 68.689935 
L 127.621989 78.728793 
L 129.143807 78.728793 
L 129.143807 64.337107 
L 130.665625 64.337107 
L 130.665625 69.941721 
L 132.187443 69.941721 
L 132.187443 57.244212 
L 133.709261 57.244212 
L 133.709261 66.146086 
L 135.23108 66.146086 
L 135.23108 76.045601 
L 136.752898 76.045601 
L 136.752898 70.85064 
L 138.274716 70.85064 
L 138.274716 72.414405 
L 139.796534 72.414405 
L 139.796534 66.691892 
L 141.318352 66.691892 
L 141.318352 59.883788 
L 142.84017 59.883788 
L 142.84017 61.557639 
L 144.361989 61.557639 
L 144.361989 67.813876 
L 145.883807 67.813876 
L 145.883807 70.241512 
L 147.405625 70.241512 
L 147.405625 68.427887 
L 150.449261 68.341824 
L 150.449261 77.908355 
L 151.97108 77.908355 
L 151.97108 79.13052 
L 153.492898 79.13052 
L 153.492898 79.713611 
L 155.014716 79.713611 
L 155.014716 80.107258 
L 156.536534 80.107258 
L 156.536534 70.807885 
L 158.058352 70.807885 
L 158.058352 85.726752 
L 159.58017 85.726752 
L 159.58017 62.757426 
L 161.101989 62.757426 
L 161.101989 74.280233 
L 162.623807 74.280233 
L 162.623807 75.459476 
L 164.145625 75.459476 
L 164.145625 79.996955 
L 165.667443 79.996955 
L 165.667443 74.764496 
L 167.189261 74.764496 
L 167.189261 76.999361 
L 168.71108 76.999361 
L 168.71108 77.148068 
L 170.232898 77.148068 
L 170.232898 73.120783 
L 173.276534 73.167922 
L 173.276534 78.214155 
L 174.798352 78.214155 
L 174.798352 77.894472 
L 176.32017 77.894472 
L 176.32017 85.596247 
L 177.841989 85.596247 
L 177.841989 75.767479 
L 179.363807 75.767479 
L 179.363807 85.828465 
L 180.885625 85.828465 
L 180.885625 82.416353 
L 182.407443 82.416353 
L 182.407443 78.591035 
L 183.929261 78.591035 
L 183.929261 71.896952 
L 185.45108 71.896952 
L 185.45108 89.772674 
L 186.972898 89.772674 
L 186.972898 91.129563 
L 188.494716 91.129563 
L 188.494716 83.637266 
L 190.016534 83.637266 
L 190.016534 98.679501 
L 191.538352 98.679501 
L 191.538352 96.205654 
L 193.06017 96.205654 
L 193.06017 76.346609 
L 194.581989 76.346609 
L 194.581989 98.876101 
L 196.103807 98.876101 
L 196.103807 87.765861 
L 197.625625 87.765861 
L 197.625625 75.977857 
L 199.147443 75.977857 
L 199.147443 89.53489 
L 200.669261 89.53489 
L 200.669261 82.715072 
L 202.19108 82.715072 
L 202.19108 80.900782 
L 203.712898 80.900782 
L 203.712898 88.828377 
L 205.234716 88.828377 
L 205.234716 100.48838 
L 206.756534 100.48838 
L 206.756534 95.827279 
L 208.278352 95.827279 
L 208.278352 96.850265 
L 209.80017 96.850265 
L 209.80017 82.317716 
L 211.321989 82.317716 
L 211.321989 91.884804 
L 212.843807 91.884804 
L 212.843807 83.861914 
L 214.365625 83.861914 
L 214.365625 88.356859 
L 215.887443 88.356859 
L 215.887443 95.755123 
L 217.409261 95.755123 
L 217.409261 89.855409 
L 218.93108 89.855409 
L 218.93108 92.346275 
L 220.452898 92.346275 
L 220.452898 91.783004 
L 221.974716 91.783004 
L 221.974716 100.62469 
L 223.496534 100.62469 
L 223.496534 88.121066 
L 225.018352 88.121066 
L 225.018352 99.686095 
L 226.54017 99.686095 
L 226.54017 110.411653 
L 228.061989 110.411653 
L 228.061989 89.473594 
L 229.583807 89.473594 
L 229.583807 94.370863 
L 231.105625 94.370863 
L 231.105625 95.905012 
L 232.627443 95.905012 
L 232.627443 103.563768 
L 234.149261 103.563768 
L 234.149261 95.451431 
L 235.67108 95.451431 
L 235.67108 91.188342 
L 237.192898 91.188342 
L 237.192898 101.232587 
L 238.714716 101.232587 
L 238.714716 99.468547 
L 240.236534 99.468547 
L 240.236534 96.549515 
L 241.758352 96.549515 
L 241.758352 98.945614 
L 243.28017 98.945614 
L 243.28017 104.499412 
L 244.801989 104.499412 
L 244.801989 91.760249 
L 246.323807 91.760249 
L 246.323807 103.504324 
L 247.845625 103.504324 
L 247.845625 112.401345 
L 249.367443 112.401345 
L 249.367443 104.901173 
L 250.889261 104.901173 
L 250.889261 105.728761 
L 252.41108 105.728761 
L 252.41108 103.971498 
L 253.932898 103.971498 
L 253.932898 115.498321 
L 255.454716 115.498321 
L 255.454716 110.809061 
L 256.976534 110.809061 
L 256.976534 100.787473 
L 258.498352 100.787473 
L 258.498352 106.178782 
L 260.02017 106.178782 
L 260.02017 115.103105 
L 261.541989 115.103105 
L 261.541989 99.960238 
L 263.063807 99.960238 
L 263.063807 111.315079 
L 264.585625 111.315079 
L 264.585625 107.010648 
L 266.107443 107.010648 
L 266.107443 107.396459 
L 267.629261 107.396459 
L 267.629261 99.068738 
L 269.15108 99.068738 
L 269.15108 117.257743 
L 270.672898 117.257743 
L 270.672898 107.592649 
L 272.194716 107.592649 
L 272.194716 107.994729 
L 273.716534 107.994729 
L 273.716534 107.492396 
L 275.238352 107.492396 
L 275.238352 118.116396 
L 276.76017 118.116396 
L 276.76017 105.470634 
L 278.281989 105.470634 
L 278.281989 116.241598 
L 281.325625 116.271393 
L 281.325625 114.214559 
L 282.847443 114.214559 
L 282.847443 120.211669 
L 284.369261 120.211669 
L 284.369261 116.904535 
L 285.89108 116.904535 
L 285.89108 112.874357 
L 287.412898 112.874357 
L 287.412898 113.142145 
L 288.934716 113.142145 
L 288.934716 116.556098 
L 290.456534 116.556098 
L 290.456534 106.303314 
L 291.978352 106.303314 
L 291.978352 112.970782 
L 293.50017 112.970782 
L 293.50017 117.167019 
L 295.021989 117.167019 
L 295.021989 116.148735 
L 296.543807 116.148735 
L 296.543807 122.49194 
L 298.065625 122.49194 
L 298.065625 121.051879 
L 299.587443 121.051879 
L 299.587443 114.707233 
L 301.109261 114.707233 
L 301.109261 120.550122 
L 302.63108 120.550122 
L 302.63108 111.836793 
L 304.152898 111.836793 
L 304.152898 115.680199 
L 305.674716 115.680199 
L 305.674716 119.815864 
L 307.196534 119.815864 
L 307.196534 116.836402 
L 308.718352 116.836402 
L 308.718352 119.306413 
L 310.24017 119.306413 
L 310.24017 120.778889 
L 311.761989 120.778889 
L 311.761989 115.11839 
L 313.283807 115.11839 
L 313.283807 120.592326 
L 314.805625 120.592326 
L 314.805625 122.081368 
L 316.327443 122.081368 
L 316.327443 120.418114 
L 317.849261 120.418114 
L 317.849261 123.197847 
L 319.37108 123.197847 
L 319.37108 131.786499 
L 320.892898 131.786499 
L 320.892898 122.494127 
L 322.414716 122.494127 
L 322.414716 118.791782 
L 323.936534 118.791782 
L 323.936534 123.301566 
L 325.458352 123.301566 
L 325.458352 116.097928 
L 326.98017 116.097928 
L 326.98017 124.402103 
L 328.501989 124.402103 
L 328.501989 133.77393 
L 330.023807 133.77393 
L 330.023807 147.318513 
L 331.545625 147.318513 
L 331.545625 156.953081 
L 333.067443 156.953081 
L 333.067443 168.099965 
L 334.589261 168.099965 
L 334.589261 175.940036 
L 336.11108 175.940036 
L 336.11108 183.750075 
L 337.632898 183.750075 
L 337.632898 203.983384 
L 339.154716 203.983384 
L 339.154716 210.505752 
L 340.676534 210.505752 
L 340.676534 215.954278 
L 342.198352 215.954278 
L 342.198352 217.743688 
L 343.72017 217.743688 
L 343.72017 218.317024 
L 345.241989 218.317024 
L 345.241989 218.685806 
L 348.285625 218.796667 
L 348.285625 218.851462 
L 366.547443 218.879999 
L 366.547443 218.879999 
" clip-path="url(#p3ac4a38799)" style="fill: none; stroke: #1f77b4; stroke-width: 1.5; stroke-linecap: square"/>
   </g>
   <g id="LineCollection_1">
    <path d="M 62.944716 215.84546 
L 62.944716 214.181763 
" clip-path="url(#p3ac4a38799)" style="fill: none; stroke: #1f77b4; stroke-width: 1.5"/>
    <path d="M 64.466534 205.182023 
L 64.466534 200.596188 
" clip-path="url(#p3ac4a38799)" style="fill: none; stroke: #1f77b4; stroke-width: 1.5"/>
    <path d="M 65.988352 187.95818 
L 65.988352 180.441695 
" clip-path="url(#p3ac4a38799)" style="fill: none; stroke: #1f77b4; stroke-width: 1.5"/>
    <path d="M 67.51017 170.217151 
L 67.51017 160.85093 
" clip-path="url(#p3ac4a38799)" style="fill: none; stroke: #1f77b4; stroke-width: 1.5"/>
    <path d="M 69.031989 153.312027 
L 69.031989 141.725811 
" clip-path="url(#p3ac4a38799)" style="fill: none; stroke: #1f77b4; stroke-width: 1.5"/>
    <path d="M 70.553807 131.434418 
L 70.553807 118.025064 
" clip-path="url(#p3ac4a38799)" style="fill: none; stroke: #1f77b4; stroke-width: 1.5"/>
    <path d="M 72.075625 121.244185 
L 72.075625 106.996728 
" clip-path="url(#p3ac4a38799)" style="fill: none; stroke: #1f77b4; stroke-width: 1.5"/>
    <path d="M 73.597443 98.45374 
L 73.597443 82.983607 
" clip-path="url(#p3ac4a38799)" style="fill: none; stroke: #1f77b4; stroke-width: 1.5"/>
    <path d="M 75.119261 82.734957 
L 75.119261 66.183179 
" clip-path="url(#p3ac4a38799)" style="fill: none; stroke: #1f77b4; stroke-width: 1.5"/>
    <path d="M 76.64108 56.567821 
L 76.64108 38.420626 
" clip-path="url(#p3ac4a38799)" style="fill: none; stroke: #1f77b4; stroke-width: 1.5"/>
    <path d="M 78.162898 60.195197 
L 78.162898 42.341458 
" clip-path="url(#p3ac4a38799)" style="fill: none; stroke: #1f77b4; stroke-width: 1.5"/>
    <path d="M 79.684716 36.762824 
L 79.684716 17.28 
" clip-path="url(#p3ac4a38799)" style="fill: none; stroke: #1f77b4; stroke-width: 1.5"/>
    <path d="M 81.206534 68.117737 
L 81.206534 51.52431 
" clip-path="url(#p3ac4a38799)" style="fill: none; stroke: #1f77b4; stroke-width: 1.5"/>
    <path d="M 82.728352 46.584827 
L 82.728352 28.344024 
" clip-path="url(#p3ac4a38799)" style="fill: none; stroke: #1f77b4; stroke-width: 1.5"/>
    <path d="M 84.25017 62.558458 
L 84.25017 44.912845 
" clip-path="url(#p3ac4a38799)" style="fill: none; stroke: #1f77b4; stroke-width: 1.5"/>
    <path d="M 85.771989 51.467902 
L 85.771989 33.634576 
" clip-path="url(#p3ac4a38799)" style="fill: none; stroke: #1f77b4; stroke-width: 1.5"/>
    <path d="M 87.293807 73.684679 
L 87.293807 57.085712 
" clip-path="url(#p3ac4a38799)" style="fill: none; stroke: #1f77b4; stroke-width: 1.5"/>
    <path d="M 88.815625 50.088089 
L 88.815625 31.667764 
" clip-path="url(#p3ac4a38799)" style="fill: none; stroke: #1f77b4; stroke-width: 1.5"/>
    <path d="M 90.337443 50.574995 
L 90.337443 32.944194 
" clip-path="url(#p3ac4a38799)" style="fill: none; stroke: #1f77b4; stroke-width: 1.5"/>
    <path d="M 91.859261 54.136345 
L 91.859261 36.121624 
" clip-path="url(#p3ac4a38799)" style="fill: none; stroke: #1f77b4; stroke-width: 1.5"/>
    <path d="M 93.38108 51.086516 
L 93.38108 33.574797 
" clip-path="url(#p3ac4a38799)" style="fill: none; stroke: #1f77b4; stroke-width: 1.5"/>
    <path d="M 94.902898 62.967768 
L 94.902898 45.540682 
" clip-path="url(#p3ac4a38799)" style="fill: none; stroke: #1f77b4; stroke-width: 1.5"/>
    <path d="M 96.424716 63.471756 
L 96.424716 46.262569 
" clip-path="url(#p3ac4a38799)" style="fill: none; stroke: #1f77b4; stroke-width: 1.5"/>
    <path d="M 97.946534 56.969658 
L 97.946534 39.646401 
" clip-path="url(#p3ac4a38799)" style="fill: none; stroke: #1f77b4; stroke-width: 1.5"/>
    <path d="M 99.468352 71.013033 
L 99.468352 54.4303 
" clip-path="url(#p3ac4a38799)" style="fill: none; stroke: #1f77b4; stroke-width: 1.5"/>
    <path d="M 100.99017 61.928117 
L 100.99017 44.806247 
" clip-path="url(#p3ac4a38799)" style="fill: none; stroke: #1f77b4; stroke-width: 1.5"/>
    <path d="M 102.511989 69.32918 
L 102.511989 52.596214 
" clip-path="url(#p3ac4a38799)" style="fill: none; stroke: #1f77b4; stroke-width: 1.5"/>
    <path d="M 104.033807 68.450061 
L 104.033807 51.478015 
" clip-path="url(#p3ac4a38799)" style="fill: none; stroke: #1f77b4; stroke-width: 1.5"/>
    <path d="M 105.555625 75.750003 
L 105.555625 59.536082 
" clip-path="url(#p3ac4a38799)" style="fill: none; stroke: #1f77b4; stroke-width: 1.5"/>
    <path d="M 107.077443 70.89753 
L 107.077443 54.205193 
" clip-path="url(#p3ac4a38799)" style="fill: none; stroke: #1f77b4; stroke-width: 1.5"/>
    <path d="M 108.599261 60.844331 
L 108.599261 43.874204 
" clip-path="url(#p3ac4a38799)" style="fill: none; stroke: #1f77b4; stroke-width: 1.5"/>
    <path d="M 110.12108 74.450963 
L 110.12108 58.338201 
" clip-path="url(#p3ac4a38799)" style="fill: none; stroke: #1f77b4; stroke-width: 1.5"/>
    <path d="M 111.642898 78.037393 
L 111.642898 62.323089 
" clip-path="url(#p3ac4a38799)" style="fill: none; stroke: #1f77b4; stroke-width: 1.5"/>
    <path d="M 113.164716 77.648979 
L 113.164716 61.904605 
" clip-path="url(#p3ac4a38799)" style="fill: none; stroke: #1f77b4; stroke-width: 1.5"/>
    <path d="M 114.686534 72.001179 
L 114.686534 55.712854 
" clip-path="url(#p3ac4a38799)" style="fill: none; stroke: #1f77b4; stroke-width: 1.5"/>
    <path d="M 116.208352 62.333671 
L 116.208352 45.385283 
" clip-path="url(#p3ac4a38799)" style="fill: none; stroke: #1f77b4; stroke-width: 1.5"/>
    <path d="M 117.73017 61.772078 
L 117.73017 44.679064 
" clip-path="url(#p3ac4a38799)" style="fill: none; stroke: #1f77b4; stroke-width: 1.5"/>
    <path d="M 119.251989 69.38474 
L 119.251989 53.163566 
" clip-path="url(#p3ac4a38799)" style="fill: none; stroke: #1f77b4; stroke-width: 1.5"/>
    <path d="M 120.773807 67.50035 
L 120.773807 51.024887 
" clip-path="url(#p3ac4a38799)" style="fill: none; stroke: #1f77b4; stroke-width: 1.5"/>
    <path d="M 122.295625 69.324032 
L 122.295625 53.088396 
" clip-path="url(#p3ac4a38799)" style="fill: none; stroke: #1f77b4; stroke-width: 1.5"/>
    <path d="M 123.817443 67.484755 
L 123.817443 50.977154 
" clip-path="url(#p3ac4a38799)" style="fill: none; stroke: #1f77b4; stroke-width: 1.5"/>
    <path d="M 125.339261 73.53891 
L 125.339261 57.421263 
" clip-path="url(#p3ac4a38799)" style="fill: none; stroke: #1f77b4; stroke-width: 1.5"/>
    <path d="M 126.86108 76.556305 
L 126.86108 60.823566 
" clip-path="url(#p3ac4a38799)" style="fill: none; stroke: #1f77b4; stroke-width: 1.5"/>
    <path d="M 128.382898 86.324804 
L 128.382898 71.132782 
" clip-path="url(#p3ac4a38799)" style="fill: none; stroke: #1f77b4; stroke-width: 1.5"/>
    <path d="M 129.904716 72.263098 
L 129.904716 56.411117 
" clip-path="url(#p3ac4a38799)" style="fill: none; stroke: #1f77b4; stroke-width: 1.5"/>
    <path d="M 131.426534 77.801626 
L 131.426534 62.081816 
" clip-path="url(#p3ac4a38799)" style="fill: none; stroke: #1f77b4; stroke-width: 1.5"/>
    <path d="M 132.948352 65.443888 
L 132.948352 49.044536 
" clip-path="url(#p3ac4a38799)" style="fill: none; stroke: #1f77b4; stroke-width: 1.5"/>
    <path d="M 134.47017 74.082466 
L 134.47017 58.209706 
" clip-path="url(#p3ac4a38799)" style="fill: none; stroke: #1f77b4; stroke-width: 1.5"/>
    <path d="M 135.991989 83.655136 
L 135.991989 68.436066 
" clip-path="url(#p3ac4a38799)" style="fill: none; stroke: #1f77b4; stroke-width: 1.5"/>
    <path d="M 137.513807 78.714745 
L 137.513807 62.986535 
" clip-path="url(#p3ac4a38799)" style="fill: none; stroke: #1f77b4; stroke-width: 1.5"/>
    <path d="M 139.035625 80.281129 
L 139.035625 64.54768 
" clip-path="url(#p3ac4a38799)" style="fill: none; stroke: #1f77b4; stroke-width: 1.5"/>
    <path d="M 140.557443 74.583417 
L 140.557443 58.800366 
" clip-path="url(#p3ac4a38799)" style="fill: none; stroke: #1f77b4; stroke-width: 1.5"/>
    <path d="M 142.079261 67.943747 
L 142.079261 51.82383 
" clip-path="url(#p3ac4a38799)" style="fill: none; stroke: #1f77b4; stroke-width: 1.5"/>
    <path d="M 143.60108 69.54804 
L 143.60108 53.567238 
" clip-path="url(#p3ac4a38799)" style="fill: none; stroke: #1f77b4; stroke-width: 1.5"/>
    <path d="M 145.122898 75.600938 
L 145.122898 60.026813 
" clip-path="url(#p3ac4a38799)" style="fill: none; stroke: #1f77b4; stroke-width: 1.5"/>
    <path d="M 146.644716 77.828393 
L 146.644716 62.654632 
" clip-path="url(#p3ac4a38799)" style="fill: none; stroke: #1f77b4; stroke-width: 1.5"/>
    <path d="M 148.166534 76.060185 
L 148.166534 60.795589 
" clip-path="url(#p3ac4a38799)" style="fill: none; stroke: #1f77b4; stroke-width: 1.5"/>
    <path d="M 149.688352 76.095188 
L 149.688352 60.58846 
" clip-path="url(#p3ac4a38799)" style="fill: none; stroke: #1f77b4; stroke-width: 1.5"/>
    <path d="M 151.21017 85.327201 
L 151.21017 70.48951 
" clip-path="url(#p3ac4a38799)" style="fill: none; stroke: #1f77b4; stroke-width: 1.5"/>
    <path d="M 152.731989 86.597408 
L 152.731989 71.663632 
" clip-path="url(#p3ac4a38799)" style="fill: none; stroke: #1f77b4; stroke-width: 1.5"/>
    <path d="M 154.253807 87.196003 
L 154.253807 72.231218 
" clip-path="url(#p3ac4a38799)" style="fill: none; stroke: #1f77b4; stroke-width: 1.5"/>
    <path d="M 155.775625 87.349344 
L 155.775625 72.865171 
" clip-path="url(#p3ac4a38799)" style="fill: none; stroke: #1f77b4; stroke-width: 1.5"/>
    <path d="M 157.297443 78.435757 
L 157.297443 63.180012 
" clip-path="url(#p3ac4a38799)" style="fill: none; stroke: #1f77b4; stroke-width: 1.5"/>
    <path d="M 158.819261 92.975639 
L 158.819261 78.477864 
" clip-path="url(#p3ac4a38799)" style="fill: none; stroke: #1f77b4; stroke-width: 1.5"/>
    <path d="M 160.34108 70.700444 
L 160.34108 54.814407 
" clip-path="url(#p3ac4a38799)" style="fill: none; stroke: #1f77b4; stroke-width: 1.5"/>
    <path d="M 161.862898 81.877697 
L 161.862898 66.68277 
" clip-path="url(#p3ac4a38799)" style="fill: none; stroke: #1f77b4; stroke-width: 1.5"/>
    <path d="M 163.384716 82.814869 
L 163.384716 68.104083 
" clip-path="url(#p3ac4a38799)" style="fill: none; stroke: #1f77b4; stroke-width: 1.5"/>
    <path d="M 164.906534 87.360468 
L 164.906534 72.633442 
" clip-path="url(#p3ac4a38799)" style="fill: none; stroke: #1f77b4; stroke-width: 1.5"/>
    <path d="M 166.428352 82.363041 
L 166.428352 67.165952 
" clip-path="url(#p3ac4a38799)" style="fill: none; stroke: #1f77b4; stroke-width: 1.5"/>
    <path d="M 167.95017 84.337517 
L 167.95017 69.661205 
" clip-path="url(#p3ac4a38799)" style="fill: none; stroke: #1f77b4; stroke-width: 1.5"/>
    <path d="M 169.471989 84.557725 
L 169.471989 69.738411 
" clip-path="url(#p3ac4a38799)" style="fill: none; stroke: #1f77b4; stroke-width: 1.5"/>
    <path d="M 170.993807 80.71858 
L 170.993807 65.522985 
" clip-path="url(#p3ac4a38799)" style="fill: none; stroke: #1f77b4; stroke-width: 1.5"/>
    <path d="M 172.515625 80.7361 
L 172.515625 65.599744 
" clip-path="url(#p3ac4a38799)" style="fill: none; stroke: #1f77b4; stroke-width: 1.5"/>
    <path d="M 174.037443 85.582535 
L 174.037443 70.845774 
" clip-path="url(#p3ac4a38799)" style="fill: none; stroke: #1f77b4; stroke-width: 1.5"/>
    <path d="M 175.559261 85.087596 
L 175.559261 70.701349 
" clip-path="url(#p3ac4a38799)" style="fill: none; stroke: #1f77b4; stroke-width: 1.5"/>
    <path d="M 177.08108 92.585777 
L 177.08108 78.606716 
" clip-path="url(#p3ac4a38799)" style="fill: none; stroke: #1f77b4; stroke-width: 1.5"/>
    <path d="M 178.602898 83.183394 
L 178.602898 68.351564 
" clip-path="url(#p3ac4a38799)" style="fill: none; stroke: #1f77b4; stroke-width: 1.5"/>
    <path d="M 180.124716 92.982239 
L 180.124716 78.674692 
" clip-path="url(#p3ac4a38799)" style="fill: none; stroke: #1f77b4; stroke-width: 1.5"/>
    <path d="M 181.646534 89.474283 
L 181.646534 75.358422 
" clip-path="url(#p3ac4a38799)" style="fill: none; stroke: #1f77b4; stroke-width: 1.5"/>
    <path d="M 183.168352 85.822117 
L 183.168352 71.359952 
" clip-path="url(#p3ac4a38799)" style="fill: none; stroke: #1f77b4; stroke-width: 1.5"/>
    <path d="M 184.69017 79.385463 
L 184.69017 64.408441 
" clip-path="url(#p3ac4a38799)" style="fill: none; stroke: #1f77b4; stroke-width: 1.5"/>
    <path d="M 186.211989 96.598835 
L 186.211989 82.946514 
" clip-path="url(#p3ac4a38799)" style="fill: none; stroke: #1f77b4; stroke-width: 1.5"/>
    <path d="M 187.733807 97.930046 
L 187.733807 84.32908 
" clip-path="url(#p3ac4a38799)" style="fill: none; stroke: #1f77b4; stroke-width: 1.5"/>
    <path d="M 189.255625 90.686106 
L 189.255625 76.588425 
" clip-path="url(#p3ac4a38799)" style="fill: none; stroke: #1f77b4; stroke-width: 1.5"/>
    <path d="M 190.777443 105.275137 
L 190.777443 92.083865 
" clip-path="url(#p3ac4a38799)" style="fill: none; stroke: #1f77b4; stroke-width: 1.5"/>
    <path d="M 192.299261 102.665154 
L 192.299261 89.746153 
" clip-path="url(#p3ac4a38799)" style="fill: none; stroke: #1f77b4; stroke-width: 1.5"/>
    <path d="M 193.82108 83.588199 
L 193.82108 69.105018 
" clip-path="url(#p3ac4a38799)" style="fill: none; stroke: #1f77b4; stroke-width: 1.5"/>
    <path d="M 195.342898 105.348842 
L 195.342898 92.40336 
" clip-path="url(#p3ac4a38799)" style="fill: none; stroke: #1f77b4; stroke-width: 1.5"/>
    <path d="M 196.864716 94.681728 
L 196.864716 80.849994 
" clip-path="url(#p3ac4a38799)" style="fill: none; stroke: #1f77b4; stroke-width: 1.5"/>
    <path d="M 198.386534 83.282015 
L 198.386534 68.673699 
" clip-path="url(#p3ac4a38799)" style="fill: none; stroke: #1f77b4; stroke-width: 1.5"/>
    <path d="M 199.908352 96.276007 
L 199.908352 82.793773 
" clip-path="url(#p3ac4a38799)" style="fill: none; stroke: #1f77b4; stroke-width: 1.5"/>
    <path d="M 201.43017 89.782794 
L 201.43017 75.64735 
" clip-path="url(#p3ac4a38799)" style="fill: none; stroke: #1f77b4; stroke-width: 1.5"/>
    <path d="M 202.951989 87.948277 
L 202.951989 73.853287 
" clip-path="url(#p3ac4a38799)" style="fill: none; stroke: #1f77b4; stroke-width: 1.5"/>
    <path d="M 204.473807 95.619557 
L 204.473807 82.037197 
" clip-path="url(#p3ac4a38799)" style="fill: none; stroke: #1f77b4; stroke-width: 1.5"/>
    <path d="M 205.995625 106.870184 
L 205.995625 94.106577 
" clip-path="url(#p3ac4a38799)" style="fill: none; stroke: #1f77b4; stroke-width: 1.5"/>
    <path d="M 207.517443 102.483196 
L 207.517443 89.171361 
" clip-path="url(#p3ac4a38799)" style="fill: none; stroke: #1f77b4; stroke-width: 1.5"/>
    <path d="M 209.039261 103.269656 
L 209.039261 90.430874 
" clip-path="url(#p3ac4a38799)" style="fill: none; stroke: #1f77b4; stroke-width: 1.5"/>
    <path d="M 210.56108 89.334775 
L 210.56108 75.300658 
" clip-path="url(#p3ac4a38799)" style="fill: none; stroke: #1f77b4; stroke-width: 1.5"/>
    <path d="M 212.082898 98.441108 
L 212.082898 85.3285 
" clip-path="url(#p3ac4a38799)" style="fill: none; stroke: #1f77b4; stroke-width: 1.5"/>
    <path d="M 213.604716 90.868034 
L 213.604716 76.855794 
" clip-path="url(#p3ac4a38799)" style="fill: none; stroke: #1f77b4; stroke-width: 1.5"/>
    <path d="M 215.126534 95.145514 
L 215.126534 81.568205 
" clip-path="url(#p3ac4a38799)" style="fill: none; stroke: #1f77b4; stroke-width: 1.5"/>
    <path d="M 216.648352 102.417126 
L 216.648352 89.09312 
" clip-path="url(#p3ac4a38799)" style="fill: none; stroke: #1f77b4; stroke-width: 1.5"/>
    <path d="M 218.17017 96.661165 
L 218.17017 83.049653 
" clip-path="url(#p3ac4a38799)" style="fill: none; stroke: #1f77b4; stroke-width: 1.5"/>
    <path d="M 219.691989 98.899973 
L 219.691989 85.792578 
" clip-path="url(#p3ac4a38799)" style="fill: none; stroke: #1f77b4; stroke-width: 1.5"/>
    <path d="M 221.213807 98.265583 
L 221.213807 85.300426 
" clip-path="url(#p3ac4a38799)" style="fill: none; stroke: #1f77b4; stroke-width: 1.5"/>
    <path d="M 222.735625 106.777442 
L 222.735625 94.471939 
" clip-path="url(#p3ac4a38799)" style="fill: none; stroke: #1f77b4; stroke-width: 1.5"/>
    <path d="M 224.257443 94.630621 
L 224.257443 81.611512 
" clip-path="url(#p3ac4a38799)" style="fill: none; stroke: #1f77b4; stroke-width: 1.5"/>
    <path d="M 225.779261 106.009718 
L 225.779261 93.362471 
" clip-path="url(#p3ac4a38799)" style="fill: none; stroke: #1f77b4; stroke-width: 1.5"/>
    <path d="M 227.30108 116.324023 
L 227.30108 104.499283 
" clip-path="url(#p3ac4a38799)" style="fill: none; stroke: #1f77b4; stroke-width: 1.5"/>
    <path d="M 228.822898 96.088309 
L 228.822898 82.858878 
" clip-path="url(#p3ac4a38799)" style="fill: none; stroke: #1f77b4; stroke-width: 1.5"/>
    <path d="M 230.344716 100.862022 
L 230.344716 87.879704 
" clip-path="url(#p3ac4a38799)" style="fill: none; stroke: #1f77b4; stroke-width: 1.5"/>
    <path d="M 231.866534 102.363849 
L 231.866534 89.446174 
" clip-path="url(#p3ac4a38799)" style="fill: none; stroke: #1f77b4; stroke-width: 1.5"/>
    <path d="M 233.388352 109.744726 
L 233.388352 97.38281 
" clip-path="url(#p3ac4a38799)" style="fill: none; stroke: #1f77b4; stroke-width: 1.5"/>
    <path d="M 234.91017 101.894702 
L 234.91017 89.008161 
" clip-path="url(#p3ac4a38799)" style="fill: none; stroke: #1f77b4; stroke-width: 1.5"/>
    <path d="M 236.431989 97.803423 
L 236.431989 84.573261 
" clip-path="url(#p3ac4a38799)" style="fill: none; stroke: #1f77b4; stroke-width: 1.5"/>
    <path d="M 237.953807 107.449355 
L 237.953807 95.015819 
" clip-path="url(#p3ac4a38799)" style="fill: none; stroke: #1f77b4; stroke-width: 1.5"/>
    <path d="M 239.475625 105.752797 
L 239.475625 93.184298 
" clip-path="url(#p3ac4a38799)" style="fill: none; stroke: #1f77b4; stroke-width: 1.5"/>
    <path d="M 240.997443 102.879743 
L 240.997443 90.219287 
" clip-path="url(#p3ac4a38799)" style="fill: none; stroke: #1f77b4; stroke-width: 1.5"/>
    <path d="M 242.519261 105.330294 
L 242.519261 92.560934 
" clip-path="url(#p3ac4a38799)" style="fill: none; stroke: #1f77b4; stroke-width: 1.5"/>
    <path d="M 244.04108 110.612515 
L 244.04108 98.38631 
" clip-path="url(#p3ac4a38799)" style="fill: none; stroke: #1f77b4; stroke-width: 1.5"/>
    <path d="M 245.562898 98.191199 
L 245.562898 85.329299 
" clip-path="url(#p3ac4a38799)" style="fill: none; stroke: #1f77b4; stroke-width: 1.5"/>
    <path d="M 247.084716 109.615882 
L 247.084716 97.392767 
" clip-path="url(#p3ac4a38799)" style="fill: none; stroke: #1f77b4; stroke-width: 1.5"/>
    <path d="M 248.606534 118.213362 
L 248.606534 106.589328 
" clip-path="url(#p3ac4a38799)" style="fill: none; stroke: #1f77b4; stroke-width: 1.5"/>
    <path d="M 250.128352 110.936736 
L 250.128352 98.86561 
" clip-path="url(#p3ac4a38799)" style="fill: none; stroke: #1f77b4; stroke-width: 1.5"/>
    <path d="M 251.65017 111.661761 
L 251.65017 99.79576 
" clip-path="url(#p3ac4a38799)" style="fill: none; stroke: #1f77b4; stroke-width: 1.5"/>
    <path d="M 253.171989 110.026126 
L 253.171989 97.916871 
" clip-path="url(#p3ac4a38799)" style="fill: none; stroke: #1f77b4; stroke-width: 1.5"/>
    <path d="M 254.693807 121.133062 
L 254.693807 109.86358 
" clip-path="url(#p3ac4a38799)" style="fill: none; stroke: #1f77b4; stroke-width: 1.5"/>
    <path d="M 256.215625 116.553942 
L 256.215625 105.06418 
" clip-path="url(#p3ac4a38799)" style="fill: none; stroke: #1f77b4; stroke-width: 1.5"/>
    <path d="M 257.737443 106.914812 
L 257.737443 94.660135 
" clip-path="url(#p3ac4a38799)" style="fill: none; stroke: #1f77b4; stroke-width: 1.5"/>
    <path d="M 259.259261 112.226616 
L 259.259261 100.130948 
" clip-path="url(#p3ac4a38799)" style="fill: none; stroke: #1f77b4; stroke-width: 1.5"/>
    <path d="M 260.78108 120.824388 
L 260.78108 109.381823 
" clip-path="url(#p3ac4a38799)" style="fill: none; stroke: #1f77b4; stroke-width: 1.5"/>
    <path d="M 262.302898 106.113901 
L 262.302898 93.806575 
" clip-path="url(#p3ac4a38799)" style="fill: none; stroke: #1f77b4; stroke-width: 1.5"/>
    <path d="M 263.824716 117.124719 
L 263.824716 105.50544 
" clip-path="url(#p3ac4a38799)" style="fill: none; stroke: #1f77b4; stroke-width: 1.5"/>
    <path d="M 265.346534 112.977955 
L 265.346534 101.043342 
" clip-path="url(#p3ac4a38799)" style="fill: none; stroke: #1f77b4; stroke-width: 1.5"/>
    <path d="M 266.868352 113.167231 
L 266.868352 101.625688 
" clip-path="url(#p3ac4a38799)" style="fill: none; stroke: #1f77b4; stroke-width: 1.5"/>
    <path d="M 268.39017 105.273729 
L 268.39017 92.863746 
" clip-path="url(#p3ac4a38799)" style="fill: none; stroke: #1f77b4; stroke-width: 1.5"/>
    <path d="M 269.911989 122.666612 
L 269.911989 111.848874 
" clip-path="url(#p3ac4a38799)" style="fill: none; stroke: #1f77b4; stroke-width: 1.5"/>
    <path d="M 271.433807 113.301499 
L 271.433807 101.883799 
" clip-path="url(#p3ac4a38799)" style="fill: none; stroke: #1f77b4; stroke-width: 1.5"/>
    <path d="M 272.955625 113.854416 
L 272.955625 102.135043 
" clip-path="url(#p3ac4a38799)" style="fill: none; stroke: #1f77b4; stroke-width: 1.5"/>
    <path d="M 274.477443 113.429257 
L 274.477443 101.555535 
" clip-path="url(#p3ac4a38799)" style="fill: none; stroke: #1f77b4; stroke-width: 1.5"/>
    <path d="M 275.999261 123.621537 
L 275.999261 112.611255 
" clip-path="url(#p3ac4a38799)" style="fill: none; stroke: #1f77b4; stroke-width: 1.5"/>
    <path d="M 277.52108 111.434802 
L 277.52108 99.506466 
" clip-path="url(#p3ac4a38799)" style="fill: none; stroke: #1f77b4; stroke-width: 1.5"/>
    <path d="M 279.042898 121.685692 
L 279.042898 110.797504 
" clip-path="url(#p3ac4a38799)" style="fill: none; stroke: #1f77b4; stroke-width: 1.5"/>
    <path d="M 280.564716 121.78846 
L 280.564716 110.754327 
" clip-path="url(#p3ac4a38799)" style="fill: none; stroke: #1f77b4; stroke-width: 1.5"/>
    <path d="M 282.086534 119.782903 
L 282.086534 108.646215 
" clip-path="url(#p3ac4a38799)" style="fill: none; stroke: #1f77b4; stroke-width: 1.5"/>
    <path d="M 283.608352 125.596421 
L 283.608352 114.826917 
" clip-path="url(#p3ac4a38799)" style="fill: none; stroke: #1f77b4; stroke-width: 1.5"/>
    <path d="M 285.13017 122.424416 
L 285.13017 111.384654 
" clip-path="url(#p3ac4a38799)" style="fill: none; stroke: #1f77b4; stroke-width: 1.5"/>
    <path d="M 286.651989 118.564718 
L 286.651989 107.183996 
" clip-path="url(#p3ac4a38799)" style="fill: none; stroke: #1f77b4; stroke-width: 1.5"/>
    <path d="M 288.173807 118.77123 
L 288.173807 107.513059 
" clip-path="url(#p3ac4a38799)" style="fill: none; stroke: #1f77b4; stroke-width: 1.5"/>
    <path d="M 289.695625 122.092691 
L 289.695625 111.019505 
" clip-path="url(#p3ac4a38799)" style="fill: none; stroke: #1f77b4; stroke-width: 1.5"/>
    <path d="M 291.217443 112.193346 
L 291.217443 100.413283 
" clip-path="url(#p3ac4a38799)" style="fill: none; stroke: #1f77b4; stroke-width: 1.5"/>
    <path d="M 292.739261 118.528068 
L 292.739261 107.413496 
" clip-path="url(#p3ac4a38799)" style="fill: none; stroke: #1f77b4; stroke-width: 1.5"/>
    <path d="M 294.26108 122.760161 
L 294.26108 111.573877 
" clip-path="url(#p3ac4a38799)" style="fill: none; stroke: #1f77b4; stroke-width: 1.5"/>
    <path d="M 295.782898 121.636477 
L 295.782898 110.660993 
" clip-path="url(#p3ac4a38799)" style="fill: none; stroke: #1f77b4; stroke-width: 1.5"/>
    <path d="M 297.304716 127.723752 
L 297.304716 117.260128 
" clip-path="url(#p3ac4a38799)" style="fill: none; stroke: #1f77b4; stroke-width: 1.5"/>
    <path d="M 298.826534 126.27882 
L 298.826534 115.824939 
" clip-path="url(#p3ac4a38799)" style="fill: none; stroke: #1f77b4; stroke-width: 1.5"/>
    <path d="M 300.348352 120.315063 
L 300.348352 109.099403 
" clip-path="url(#p3ac4a38799)" style="fill: none; stroke: #1f77b4; stroke-width: 1.5"/>
    <path d="M 301.87017 125.980468 
L 301.87017 115.119776 
" clip-path="url(#p3ac4a38799)" style="fill: none; stroke: #1f77b4; stroke-width: 1.5"/>
    <path d="M 303.391989 117.408794 
L 303.391989 106.264793 
" clip-path="url(#p3ac4a38799)" style="fill: none; stroke: #1f77b4; stroke-width: 1.5"/>
    <path d="M 304.913807 121.084628 
L 304.913807 110.27577 
" clip-path="url(#p3ac4a38799)" style="fill: none; stroke: #1f77b4; stroke-width: 1.5"/>
    <path d="M 306.435625 125.252502 
L 306.435625 114.379227 
" clip-path="url(#p3ac4a38799)" style="fill: none; stroke: #1f77b4; stroke-width: 1.5"/>
    <path d="M 307.957443 122.19379 
L 307.957443 111.479014 
" clip-path="url(#p3ac4a38799)" style="fill: none; stroke: #1f77b4; stroke-width: 1.5"/>
    <path d="M 309.479261 124.625033 
L 309.479261 113.987792 
" clip-path="url(#p3ac4a38799)" style="fill: none; stroke: #1f77b4; stroke-width: 1.5"/>
    <path d="M 311.00108 126.068843 
L 311.00108 115.488935 
" clip-path="url(#p3ac4a38799)" style="fill: none; stroke: #1f77b4; stroke-width: 1.5"/>
    <path d="M 312.522898 120.575919 
L 312.522898 109.660861 
" clip-path="url(#p3ac4a38799)" style="fill: none; stroke: #1f77b4; stroke-width: 1.5"/>
    <path d="M 314.044716 125.843363 
L 314.044716 115.341289 
" clip-path="url(#p3ac4a38799)" style="fill: none; stroke: #1f77b4; stroke-width: 1.5"/>
    <path d="M 315.566534 127.234932 
L 315.566534 116.927805 
" clip-path="url(#p3ac4a38799)" style="fill: none; stroke: #1f77b4; stroke-width: 1.5"/>
    <path d="M 317.088352 125.713429 
L 317.088352 115.122799 
" clip-path="url(#p3ac4a38799)" style="fill: none; stroke: #1f77b4; stroke-width: 1.5"/>
    <path d="M 318.61017 128.143227 
L 318.61017 118.252467 
" clip-path="url(#p3ac4a38799)" style="fill: none; stroke: #1f77b4; stroke-width: 1.5"/>
    <path d="M 320.131989 136.589059 
L 320.131989 126.98394 
" clip-path="url(#p3ac4a38799)" style="fill: none; stroke: #1f77b4; stroke-width: 1.5"/>
    <path d="M 321.653807 127.631647 
L 321.653807 117.356607 
" clip-path="url(#p3ac4a38799)" style="fill: none; stroke: #1f77b4; stroke-width: 1.5"/>
    <path d="M 323.175625 124.123997 
L 323.175625 113.459566 
" clip-path="url(#p3ac4a38799)" style="fill: none; stroke: #1f77b4; stroke-width: 1.5"/>
    <path d="M 324.697443 128.490402 
L 324.697443 118.112729 
" clip-path="url(#p3ac4a38799)" style="fill: none; stroke: #1f77b4; stroke-width: 1.5"/>
    <path d="M 326.219261 121.514361 
L 326.219261 110.681495 
" clip-path="url(#p3ac4a38799)" style="fill: none; stroke: #1f77b4; stroke-width: 1.5"/>
    <path d="M 327.74108 129.534945 
L 327.74108 119.269261 
" clip-path="url(#p3ac4a38799)" style="fill: none; stroke: #1f77b4; stroke-width: 1.5"/>
    <path d="M 329.262898 138.761937 
L 329.262898 128.785923 
" clip-path="url(#p3ac4a38799)" style="fill: none; stroke: #1f77b4; stroke-width: 1.5"/>
    <path d="M 330.784716 151.819732 
L 330.784716 142.817295 
" clip-path="url(#p3ac4a38799)" style="fill: none; stroke: #1f77b4; stroke-width: 1.5"/>
    <path d="M 332.306534 161.18643 
L 332.306534 152.719733 
" clip-path="url(#p3ac4a38799)" style="fill: none; stroke: #1f77b4; stroke-width: 1.5"/>
    <path d="M 333.828352 171.969704 
L 333.828352 164.230225 
" clip-path="url(#p3ac4a38799)" style="fill: none; stroke: #1f77b4; stroke-width: 1.5"/>
    <path d="M 335.35017 179.259853 
L 335.35017 172.620218 
" clip-path="url(#p3ac4a38799)" style="fill: none; stroke: #1f77b4; stroke-width: 1.5"/>
    <path d="M 336.871989 186.700911 
L 336.871989 180.799239 
" clip-path="url(#p3ac4a38799)" style="fill: none; stroke: #1f77b4; stroke-width: 1.5"/>
    <path d="M 338.393807 205.682011 
L 338.393807 202.284757 
" clip-path="url(#p3ac4a38799)" style="fill: none; stroke: #1f77b4; stroke-width: 1.5"/>
    <path d="M 339.915625 211.520424 
L 339.915625 209.49108 
" clip-path="url(#p3ac4a38799)" style="fill: none; stroke: #1f77b4; stroke-width: 1.5"/>
    <path d="M 341.437443 216.299039 
L 341.437443 215.609517 
" clip-path="url(#p3ac4a38799)" style="fill: none; stroke: #1f77b4; stroke-width: 1.5"/>
    <path d="M 342.959261 217.872046 
L 342.959261 217.61533 
" clip-path="url(#p3ac4a38799)" style="fill: none; stroke: #1f77b4; stroke-width: 1.5"/>
    <path d="M 344.48108 218.386225 
L 344.48108 218.247824 
" clip-path="url(#p3ac4a38799)" style="fill: none; stroke: #1f77b4; stroke-width: 1.5"/>
    <path d="M 346.002898 218.711458 
L 346.002898 218.660153 
" clip-path="url(#p3ac4a38799)" style="fill: none; stroke: #1f77b4; stroke-width: 1.5"/>
    <path d="M 347.524716 218.809709 
L 347.524716 218.783626 
" clip-path="url(#p3ac4a38799)" style="fill: none; stroke: #1f77b4; stroke-width: 1.5"/>
    <path d="M 349.046534 218.856506 
L 349.046534 218.846418 
" clip-path="url(#p3ac4a38799)" style="fill: none; stroke: #1f77b4; stroke-width: 1.5"/>
    <path d="M 350.568352 218.870704 
L 350.568352 218.86825 
" clip-path="url(#p3ac4a38799)" style="fill: none; stroke: #1f77b4; stroke-width: 1.5"/>
    <path d="M 352.09017 218.876784 
L 352.09017 218.875705 
" clip-path="url(#p3ac4a38799)" style="fill: none; stroke: #1f77b4; stroke-width: 1.5"/>
    <path d="M 353.611989 218.878778 
L 353.611989 218.878396 
" clip-path="url(#p3ac4a38799)" style="fill: none; stroke: #1f77b4; stroke-width: 1.5"/>
    <path d="M 355.133807 218.879226 
L 355.133807 218.878751 
" clip-path="url(#p3ac4a38799)" style="fill: none; stroke: #1f77b4; stroke-width: 1.5"/>
    <path d="M 356.655625 218.879585 
L 356.655625 218.879312 
" clip-path="url(#p3ac4a38799)" style="fill: none; stroke: #1f77b4; stroke-width: 1.5"/>
    <path d="M 358.177443 218.879864 
L 358.177443 218.879764 
" clip-path="url(#p3ac4a38799)" style="fill: none; stroke: #1f77b4; stroke-width: 1.5"/>
    <path d="M 359.699261 218.879949 
L 359.699261 218.879914 
" clip-path="url(#p3ac4a38799)" style="fill: none; stroke: #1f77b4; stroke-width: 1.5"/>
    <path d="M 361.22108 218.879987 
L 361.22108 218.879978 
" clip-path="url(#p3ac4a38799)" style="fill: none; stroke: #1f77b4; stroke-width: 1.5"/>
    <path d="M 362.742898 218.879991 
L 362.742898 218.879981 
" clip-path="url(#p3ac4a38799)" style="fill: none; stroke: #1f77b4; stroke-width: 1.5"/>
    <path d="M 364.264716 218.879999 
L 364.264716 218.879994 
" clip-path="url(#p3ac4a38799)" style="fill: none; stroke: #1f77b4; stroke-width: 1.5"/>
    <path d="M 365.786534 218.88 
L 365.786534 218.879998 
" clip-path="url(#p3ac4a38799)" style="fill: none; stroke: #1f77b4; stroke-width: 1.5"/>
   </g>
  </g>
 </g>
 <defs>
  <clipPath id="p3ac4a38799">
   <rect x="46.965625" y="7.2" width="334.8" height="221.76"/>
  </clipPath>
 </defs>
</svg>