<?xml version="1.0" encoding="UTF-8" standalone="no"?>
<!DOCTYPE svg PUBLIC "-//W3C//DTD SVG 1.1//EN"
 "http://www.w3.org/Graphics/SVG/1.1/DTD/svg11.dtd">
<!-- Generated by graphviz version 2.43.0 (0)
 -->
<!-- Title: %3 Pages: 1 -->
<svg width="378pt" height="267pt"
 viewBox="0.00 0.00 378.00 267.00" xmlns="http://www.w3.org/2000/svg" xmlns:xlink="http://www.w3.org/1999/xlink">
<g id="graph0" class="graph" transform="scale(1 1) rotate(0) translate(4 263)">
<title>%3</title>
<polygon fill="white" stroke="transparent" points="-4,4 -4,-263 374,-263 374,4 -4,4"/>
<!-- source_position -->
<g id="node1" class="node">
<title>source_position</title>
<polygon fill="none" stroke="black" points="370,-259 242,-259 242,-236 370,-236 370,-259"/>
<text text-anchor="middle" x="306" y="-243.8" font-family="Times,serif" font-size="14.00">source_position</text>
</g>
<!-- incident_beam -->
<g id="node2" class="node">
<title>incident_beam</title>
<polygon fill="none" stroke="black" points="309,-200 189,-200 189,-177 309,-177 309,-200"/>
<text text-anchor="middle" x="249" y="-184.8" font-family="Times,serif" font-size="14.00">incident_beam</text>
</g>
<!-- source_position&#45;&gt;incident_beam -->
<g id="edge1" class="edge">
<title>source_position&#45;&gt;incident_beam</title>
<path fill="none" stroke="black" d="M295.28,-235.78C287.32,-227.82 276.27,-216.77 266.97,-207.47"/>
<polygon fill="black" stroke="black" points="269.22,-204.77 259.67,-200.17 264.27,-209.72 269.22,-204.77"/>
</g>
<!-- L1 -->
<g id="node6" class="node">
<title>L1</title>
<polygon fill="none" stroke="black" points="285,-141 231,-141 231,-118 285,-118 285,-141"/>
<text text-anchor="middle" x="258" y="-125.8" font-family="Times,serif" font-size="14.00">L1</text>
</g>
<!-- incident_beam&#45;&gt;L1 -->
<g id="edge5" class="edge">
<title>incident_beam&#45;&gt;L1</title>
<path fill="none" stroke="black" d="M250.69,-176.78C251.82,-169.61 253.35,-159.95 254.71,-151.31"/>
<polygon fill="black" stroke="black" points="258.21,-151.6 256.31,-141.17 251.3,-150.5 258.21,-151.6"/>
</g>
<!-- two_theta -->
<g id="node8" class="node">
<title>two_theta</title>
<polygon fill="none" stroke="black" points="212.5,-141 125.5,-141 125.5,-118 212.5,-118 212.5,-141"/>
<text text-anchor="middle" x="169" y="-125.8" font-family="Times,serif" font-size="14.00">two_theta</text>
</g>
<!-- incident_beam&#45;&gt;two_theta -->
<g id="edge7" class="edge">
<title>incident_beam&#45;&gt;two_theta</title>
<path fill="none" stroke="black" d="M233.95,-176.78C222.22,-168.42 205.72,-156.66 192.28,-147.09"/>
<polygon fill="black" stroke="black" points="194.16,-144.13 183.98,-141.17 190.09,-149.83 194.16,-144.13"/>
</g>
<!-- sample_position -->
<g id="node3" class="node">
<title>sample_position</title>
<polygon fill="none" stroke="black" points="223.5,-259 92.5,-259 92.5,-236 223.5,-236 223.5,-259"/>
<text text-anchor="middle" x="158" y="-243.8" font-family="Times,serif" font-size="14.00">sample_position</text>
</g>
<!-- sample_position&#45;&gt;incident_beam -->
<g id="edge2" class="edge">
<title>sample_position&#45;&gt;incident_beam</title>
<path fill="none" stroke="black" d="M175.12,-235.78C188.72,-227.26 207.95,-215.21 223.38,-205.55"/>
<polygon fill="black" stroke="black" points="225.34,-208.45 231.96,-200.17 221.63,-202.52 225.34,-208.45"/>
</g>
<!-- scattered_beam -->
<g id="node5" class="node">
<title>scattered_beam</title>
<polygon fill="none" stroke="black" points="162,-200 32,-200 32,-177 162,-177 162,-200"/>
<text text-anchor="middle" x="97" y="-184.8" font-family="Times,serif" font-size="14.00">scattered_beam</text>
</g>
<!-- sample_position&#45;&gt;scattered_beam -->
<g id="edge4" class="edge">
<title>sample_position&#45;&gt;scattered_beam</title>
<path fill="none" stroke="black" d="M146.53,-235.78C137.92,-227.74 125.95,-216.55 115.93,-207.19"/>
<polygon fill="black" stroke="black" points="118.12,-204.44 108.42,-200.17 113.34,-209.56 118.12,-204.44"/>
</g>
<!-- position -->
<g id="node4" class="node">
<title>position</title>
<polygon fill="none" stroke="black" points="74,-259 0,-259 0,-236 74,-236 74,-259"/>
<text text-anchor="middle" x="37" y="-243.8" font-family="Times,serif" font-size="14.00">position</text>
</g>
<!-- position&#45;&gt;scattered_beam -->
<g id="edge3" class="edge">
<title>position&#45;&gt;scattered_beam</title>
<path fill="none" stroke="black" d="M48.29,-235.78C56.75,-227.74 68.52,-216.55 78.38,-207.19"/>
<polygon fill="black" stroke="black" points="80.93,-209.6 85.77,-200.17 76.1,-204.52 80.93,-209.6"/>
</g>
<!-- L2 -->
<g id="node7" class="node">
<title>L2</title>
<polygon fill="none" stroke="black" points="107,-141 53,-141 53,-118 107,-118 107,-141"/>
<text text-anchor="middle" x="80" y="-125.8" font-family="Times,serif" font-size="14.00">L2</text>
</g>
<!-- scattered_beam&#45;&gt;L2 -->
<g id="edge6" class="edge">
<title>scattered_beam&#45;&gt;L2</title>
<path fill="none" stroke="black" d="M93.8,-176.78C91.64,-169.53 88.72,-159.74 86.12,-151.02"/>
<polygon fill="black" stroke="black" points="89.4,-149.76 83.18,-141.17 82.69,-151.76 89.4,-149.76"/>
</g>
<!-- scattered_beam&#45;&gt;two_theta -->
<g id="edge8" class="edge">
<title>scattered_beam&#45;&gt;two_theta</title>
<path fill="none" stroke="black" d="M110.54,-176.78C120.9,-168.58 135.39,-157.11 147.35,-147.64"/>
<polygon fill="black" stroke="black" points="149.85,-150.12 155.52,-141.17 145.51,-144.64 149.85,-150.12"/>
</g>
<!-- Ltotal -->
<g id="node9" class="node">
<title>Ltotal</title>
<polygon fill="none" stroke="black" points="198.5,-82 139.5,-82 139.5,-59 198.5,-59 198.5,-82"/>
<text text-anchor="middle" x="169" y="-66.8" font-family="Times,serif" font-size="14.00">Ltotal</text>
</g>
<!-- L1&#45;&gt;Ltotal -->
<g id="edge9" class="edge">
<title>L1&#45;&gt;Ltotal</title>
<path fill="none" stroke="black" d="M241.26,-117.78C228.08,-109.34 209.5,-97.44 194.48,-87.82"/>
<polygon fill="black" stroke="black" points="195.97,-84.62 185.67,-82.17 192.2,-90.51 195.97,-84.62"/>
</g>
<!-- L2&#45;&gt;Ltotal -->
<g id="edge10" class="edge">
<title>L2&#45;&gt;Ltotal</title>
<path fill="none" stroke="black" d="M96.74,-117.78C109.92,-109.34 128.5,-97.44 143.52,-87.82"/>
<polygon fill="black" stroke="black" points="145.8,-90.51 152.33,-82.17 142.03,-84.62 145.8,-90.51"/>
</g>
<!-- wavelength -->
<g id="node11" class="node">
<title>wavelength</title>
<polygon fill="none" stroke="black" points="205.5,-23 106.5,-23 106.5,0 205.5,0 205.5,-23"/>
<text text-anchor="middle" x="156" y="-7.8" font-family="Times,serif" font-size="14.00">wavelength</text>
</g>
<!-- Ltotal&#45;&gt;wavelength -->
<g id="edge12" class="edge">
<title>Ltotal&#45;&gt;wavelength</title>
<path fill="none" stroke="black" d="M166.55,-58.78C164.9,-51.53 162.67,-41.74 160.68,-33.02"/>
<polygon fill="black" stroke="black" points="164.07,-32.14 158.43,-23.17 157.25,-33.7 164.07,-32.14"/>
</g>
<!-- energy -->
<g id="node12" class="node">
<title>energy</title>
<polygon fill="none" stroke="black" points="290,-23 224,-23 224,0 290,0 290,-23"/>
<text text-anchor="middle" x="257" y="-7.8" font-family="Times,serif" font-size="14.00">energy</text>
</g>
<!-- Ltotal&#45;&gt;energy -->
<g id="edge14" class="edge">
<title>Ltotal&#45;&gt;energy</title>
<path fill="none" stroke="black" d="M185.55,-58.78C198.58,-50.34 216.96,-38.44 231.81,-28.82"/>
<polygon fill="black" stroke="black" points="234.03,-31.55 240.52,-23.17 230.23,-25.67 234.03,-31.55"/>
</g>
<!-- tof -->
<g id="node10" class="node">
<title>tof</title>
<polygon fill="none" stroke="black" points="277,-82 223,-82 223,-59 277,-59 277,-82"/>
<text text-anchor="middle" x="250" y="-66.8" font-family="Times,serif" font-size="14.00">tof</text>
</g>
<!-- tof&#45;&gt;wavelength -->
<g id="edge11" class="edge">
<title>tof&#45;&gt;wavelength</title>
<path fill="none" stroke="black" d="M232.32,-58.78C218.27,-50.26 198.4,-38.21 182.46,-28.55"/>
<polygon fill="black" stroke="black" points="183.97,-25.37 173.6,-23.17 180.34,-31.35 183.97,-25.37"/>
</g>
<!-- tof&#45;&gt;energy -->
<g id="edge13" class="edge">
<title>tof&#45;&gt;energy</title>
<path fill="none" stroke="black" d="M251.32,-58.78C252.2,-51.61 253.38,-41.95 254.44,-33.31"/>
<polygon fill="black" stroke="black" points="257.94,-33.53 255.69,-23.17 251,-32.67 257.94,-33.53"/>
</g>
</g>
</svg>