<?xml version="1.0" encoding="utf-8" standalone="no"?>
<!DOCTYPE svg PUBLIC "-//W3C//DTD SVG 1.1//EN"
  "http://www.w3.org/Graphics/SVG/1.1/DTD/svg11.dtd">
<svg xmlns:xlink="http://www.w3.org/1999/xlink" width="401.021155pt" height="267.439687pt" viewBox="0 0 401.021155 267.439687" xmlns="http://www.w3.org/2000/svg" version="1.1">
 <metadata>
  <rdf:RDF xmlns:dc="http://purl.org/dc/elements/1.1/" xmlns:cc="http://creativecommons.org/ns#" xmlns:rdf="http://www.w3.org/1999/02/22-rdf-syntax-ns#">
   <cc:Work>
    <dc:type rdf:resource="http://purl.org/dc/dcmitype/StillImage"/>
    <dc:date>2025-06-23T14:42:16.204192</dc:date>
    <dc:format>image/svg+xml</dc:format>
    <dc:creator>
     <cc:Agent>
      <dc:title>Matplotlib v3.10.1, https://matplotlib.org/</dc:title>
     </cc:Agent>
    </dc:creator>
   </cc:Work>
  </rdf:RDF>
 </metadata>
 <defs>
  <style type="text/css">*{stroke-linejoin: round; stroke-linecap: butt}</style>
 </defs>
 <g id="figure_1">
  <g id="patch_1">
   <path d="M 0 267.439687 
L 401.021155 267.439687 
L 401.021155 0 
L 0 0 
z
" style="fill: #ffffff"/>
  </g>
  <g id="axes_1">
   <g id="patch_2">
    <path d="M 45.478125 228.96 
L 380.278125 228.96 
L 380.278125 7.2 
L 45.478125 7.2 
z
" style="fill: #ffffff"/>
   </g>
   <g id="matplotlib.axis_1">
    <g id="xtick_1">
     <g id="line2d_1">
      <defs>
       <path id="mbde74765b3" d="M 0 0 
L 0 3.5 
" style="stroke: #000000; stroke-width: 0.8"/>
      </defs>
      <g>
       <use xlink:href="#mbde74765b3" x="53.325698" y="228.96" style="stroke: #000000; stroke-width: 0.8"/>
      </g>
     </g>
     <g id="text_1">
      <!-- 0.000 -->
      <g transform="translate(39.011636 243.558437) scale(0.1 -0.1)">
       <defs>
        <path id="DejaVuSans-30" d="M 2034 4250 
Q 1547 4250 1301 3770 
Q 1056 3291 1056 2328 
Q 1056 1369 1301 889 
Q 1547 409 2034 409 
Q 2525 409 2770 889 
Q 3016 1369 3016 2328 
Q 3016 3291 2770 3770 
Q 2525 4250 2034 4250 
z
M 2034 4750 
Q 2819 4750 3233 4129 
Q 3647 3509 3647 2328 
Q 3647 1150 3233 529 
Q 2819 -91 2034 -91 
Q 1250 -91 836 529 
Q 422 1150 422 2328 
Q 422 3509 836 4129 
Q 1250 4750 2034 4750 
z
" transform="scale(0.015625)"/>
        <path id="DejaVuSans-2e" d="M 684 794 
L 1344 794 
L 1344 0 
L 684 0 
L 684 794 
z
" transform="scale(0.015625)"/>
       </defs>
       <use xlink:href="#DejaVuSans-30"/>
       <use xlink:href="#DejaVuSans-2e" transform="translate(63.623047 0)"/>
       <use xlink:href="#DejaVuSans-30" transform="translate(95.410156 0)"/>
       <use xlink:href="#DejaVuSans-30" transform="translate(159.033203 0)"/>
       <use xlink:href="#DejaVuSans-30" transform="translate(222.65625 0)"/>
      </g>
     </g>
    </g>
    <g id="xtick_2">
     <g id="line2d_2">
      <g>
       <use xlink:href="#mbde74765b3" x="94.098373" y="228.96" style="stroke: #000000; stroke-width: 0.8"/>
      </g>
     </g>
     <g id="text_2">
      <!-- 0.025 -->
      <g transform="translate(79.78431 243.558437) scale(0.1 -0.1)">
       <defs>
        <path id="DejaVuSans-32" d="M 1228 531 
L 3431 531 
L 3431 0 
L 469 0 
L 469 531 
Q 828 903 1448 1529 
Q 2069 2156 2228 2338 
Q 2531 2678 2651 2914 
Q 2772 3150 2772 3378 
Q 2772 3750 2511 3984 
Q 2250 4219 1831 4219 
Q 1534 4219 1204 4116 
Q 875 4013 500 3803 
L 500 4441 
Q 881 4594 1212 4672 
Q 1544 4750 1819 4750 
Q 2544 4750 2975 4387 
Q 3406 4025 3406 3419 
Q 3406 3131 3298 2873 
Q 3191 2616 2906 2266 
Q 2828 2175 2409 1742 
Q 1991 1309 1228 531 
z
" transform="scale(0.015625)"/>
        <path id="DejaVuSans-35" d="M 691 4666 
L 3169 4666 
L 3169 4134 
L 1269 4134 
L 1269 2991 
Q 1406 3038 1543 3061 
Q 1681 3084 1819 3084 
Q 2600 3084 3056 2656 
Q 3513 2228 3513 1497 
Q 3513 744 3044 326 
Q 2575 -91 1722 -91 
Q 1428 -91 1123 -41 
Q 819 9 494 109 
L 494 744 
Q 775 591 1075 516 
Q 1375 441 1709 441 
Q 2250 441 2565 725 
Q 2881 1009 2881 1497 
Q 2881 1984 2565 2268 
Q 2250 2553 1709 2553 
Q 1456 2553 1204 2497 
Q 953 2441 691 2322 
L 691 4666 
z
" transform="scale(0.015625)"/>
       </defs>
       <use xlink:href="#DejaVuSans-30"/>
       <use xlink:href="#DejaVuSans-2e" transform="translate(63.623047 0)"/>
       <use xlink:href="#DejaVuSans-30" transform="translate(95.410156 0)"/>
       <use xlink:href="#DejaVuSans-32" transform="translate(159.033203 0)"/>
       <use xlink:href="#DejaVuSans-35" transform="translate(222.65625 0)"/>
      </g>
     </g>
    </g>
    <g id="xtick_3">
     <g id="line2d_3">
      <g>
       <use xlink:href="#mbde74765b3" x="134.871047" y="228.96" style="stroke: #000000; stroke-width: 0.8"/>
      </g>
     </g>
     <g id="text_3">
      <!-- 0.050 -->
      <g transform="translate(120.556984 243.558437) scale(0.1 -0.1)">
       <use xlink:href="#DejaVuSans-30"/>
       <use xlink:href="#DejaVuSans-2e" transform="translate(63.623047 0)"/>
       <use xlink:href="#DejaVuSans-30" transform="translate(95.410156 0)"/>
       <use xlink:href="#DejaVuSans-35" transform="translate(159.033203 0)"/>
       <use xlink:href="#DejaVuSans-30" transform="translate(222.65625 0)"/>
      </g>
     </g>
    </g>
    <g id="xtick_4">
     <g id="line2d_4">
      <g>
       <use xlink:href="#mbde74765b3" x="175.643721" y="228.96" style="stroke: #000000; stroke-width: 0.8"/>
      </g>
     </g>
     <g id="text_4">
      <!-- 0.075 -->
      <g transform="translate(161.329659 243.558437) scale(0.1 -0.1)">
       <defs>
        <path id="DejaVuSans-37" d="M 525 4666 
L 3525 4666 
L 3525 4397 
L 1831 0 
L 1172 0 
L 2766 4134 
L 525 4134 
L 525 4666 
z
" transform="scale(0.015625)"/>
       </defs>
       <use xlink:href="#DejaVuSans-30"/>
       <use xlink:href="#DejaVuSans-2e" transform="translate(63.623047 0)"/>
       <use xlink:href="#DejaVuSans-30" transform="translate(95.410156 0)"/>
       <use xlink:href="#DejaVuSans-37" transform="translate(159.033203 0)"/>
       <use xlink:href="#DejaVuSans-35" transform="translate(222.65625 0)"/>
      </g>
     </g>
    </g>
    <g id="xtick_5">
     <g id="line2d_5">
      <g>
       <use xlink:href="#mbde74765b3" x="216.416395" y="228.96" style="stroke: #000000; stroke-width: 0.8"/>
      </g>
     </g>
     <g id="text_5">
      <!-- 0.100 -->
      <g transform="translate(202.102333 243.558437) scale(0.1 -0.1)">
       <defs>
        <path id="DejaVuSans-31" d="M 794 531 
L 1825 531 
L 1825 4091 
L 703 3866 
L 703 4441 
L 1819 4666 
L 2450 4666 
L 2450 531 
L 3481 531 
L 3481 0 
L 794 0 
L 794 531 
z
" transform="scale(0.015625)"/>
       </defs>
       <use xlink:href="#DejaVuSans-30"/>
       <use xlink:href="#DejaVuSans-2e" transform="translate(63.623047 0)"/>
       <use xlink:href="#DejaVuSans-31" transform="translate(95.410156 0)"/>
       <use xlink:href="#DejaVuSans-30" transform="translate(159.033203 0)"/>
       <use xlink:href="#DejaVuSans-30" transform="translate(222.65625 0)"/>
      </g>
     </g>
    </g>
    <g id="xtick_6">
     <g id="line2d_6">
      <g>
       <use xlink:href="#mbde74765b3" x="257.18907" y="228.96" style="stroke: #000000; stroke-width: 0.8"/>
      </g>
     </g>
     <g id="text_6">
      <!-- 0.125 -->
      <g transform="translate(242.875007 243.558437) scale(0.1 -0.1)">
       <use xlink:href="#DejaVuSans-30"/>
       <use xlink:href="#DejaVuSans-2e" transform="translate(63.623047 0)"/>
       <use xlink:href="#DejaVuSans-31" transform="translate(95.410156 0)"/>
       <use xlink:href="#DejaVuSans-32" transform="translate(159.033203 0)"/>
       <use xlink:href="#DejaVuSans-35" transform="translate(222.65625 0)"/>
      </g>
     </g>
    </g>
    <g id="xtick_7">
     <g id="line2d_7">
      <g>
       <use xlink:href="#mbde74765b3" x="297.961744" y="228.96" style="stroke: #000000; stroke-width: 0.8"/>
      </g>
     </g>
     <g id="text_7">
      <!-- 0.150 -->
      <g transform="translate(283.647682 243.558437) scale(0.1 -0.1)">
       <use xlink:href="#DejaVuSans-30"/>
       <use xlink:href="#DejaVuSans-2e" transform="translate(63.623047 0)"/>
       <use xlink:href="#DejaVuSans-31" transform="translate(95.410156 0)"/>
       <use xlink:href="#DejaVuSans-35" transform="translate(159.033203 0)"/>
       <use xlink:href="#DejaVuSans-30" transform="translate(222.65625 0)"/>
      </g>
     </g>
    </g>
    <g id="xtick_8">
     <g id="line2d_8">
      <g>
       <use xlink:href="#mbde74765b3" x="338.734418" y="228.96" style="stroke: #000000; stroke-width: 0.8"/>
      </g>
     </g>
     <g id="text_8">
      <!-- 0.175 -->
      <g transform="translate(324.420356 243.558437) scale(0.1 -0.1)">
       <use xlink:href="#DejaVuSans-30"/>
       <use xlink:href="#DejaVuSans-2e" transform="translate(63.623047 0)"/>
       <use xlink:href="#DejaVuSans-31" transform="translate(95.410156 0)"/>
       <use xlink:href="#DejaVuSans-37" transform="translate(159.033203 0)"/>
       <use xlink:href="#DejaVuSans-35" transform="translate(222.65625 0)"/>
      </g>
     </g>
    </g>
    <g id="xtick_9">
     <g id="line2d_9">
      <g>
       <use xlink:href="#mbde74765b3" x="379.507093" y="228.96" style="stroke: #000000; stroke-width: 0.8"/>
      </g>
     </g>
     <g id="text_9">
      <!-- 0.200 -->
      <g transform="translate(365.19303 243.558437) scale(0.1 -0.1)">
       <use xlink:href="#DejaVuSans-30"/>
       <use xlink:href="#DejaVuSans-2e" transform="translate(63.623047 0)"/>
       <use xlink:href="#DejaVuSans-32" transform="translate(95.410156 0)"/>
       <use xlink:href="#DejaVuSans-30" transform="translate(159.033203 0)"/>
       <use xlink:href="#DejaVuSans-30" transform="translate(222.65625 0)"/>
      </g>
     </g>
    </g>
    <g id="text_10">
     <!-- Q [1/Å] -->
     <g transform="translate(195.165625 258.16) scale(0.1 -0.1)">
      <defs>
       <path id="DejaVuSans-51" d="M 2522 4238 
Q 1834 4238 1429 3725 
Q 1025 3213 1025 2328 
Q 1025 1447 1429 934 
Q 1834 422 2522 422 
Q 3209 422 3611 934 
Q 4013 1447 4013 2328 
Q 4013 3213 3611 3725 
Q 3209 4238 2522 4238 
z
M 3406 84 
L 4238 -825 
L 3475 -825 
L 2784 -78 
Q 2681 -84 2626 -87 
Q 2572 -91 2522 -91 
Q 1538 -91 948 567 
Q 359 1225 359 2328 
Q 359 3434 948 4092 
Q 1538 4750 2522 4750 
Q 3503 4750 4090 4092 
Q 4678 3434 4678 2328 
Q 4678 1516 4351 937 
Q 4025 359 3406 84 
z
" transform="scale(0.015625)"/>
       <path id="DejaVuSans-20" transform="scale(0.015625)"/>
       <path id="DejaVuSans-5b" d="M 550 4863 
L 1875 4863 
L 1875 4416 
L 1125 4416 
L 1125 -397 
L 1875 -397 
L 1875 -844 
L 550 -844 
L 550 4863 
z
" transform="scale(0.015625)"/>
       <path id="DejaVuSans-2f" d="M 1625 4666 
L 2156 4666 
L 531 -594 
L 0 -594 
L 1625 4666 
z
" transform="scale(0.015625)"/>
       <path id="DejaVuSans-c5" d="M 2663 5081 
Q 2663 5278 2523 5417 
Q 2384 5556 2188 5556 
Q 1988 5556 1852 5420 
Q 1716 5284 1716 5081 
Q 1716 4884 1853 4746 
Q 1991 4609 2188 4609 
Q 2384 4609 2523 4746 
Q 2663 4884 2663 5081 
z
M 2188 4044 
L 1338 1722 
L 3041 1722 
L 2188 4044 
z
M 1716 4366 
Q 1525 4494 1428 4673 
Q 1331 4853 1331 5081 
Q 1331 5441 1579 5691 
Q 1828 5941 2188 5941 
Q 2544 5941 2795 5689 
Q 3047 5438 3047 5081 
Q 3047 4863 2948 4678 
Q 2850 4494 2663 4366 
L 4325 0 
L 3669 0 
L 3244 1197 
L 1141 1197 
L 716 0 
L 50 0 
L 1716 4366 
z
" transform="scale(0.015625)"/>
       <path id="DejaVuSans-5d" d="M 1947 4863 
L 1947 -844 
L 622 -844 
L 622 -397 
L 1369 -397 
L 1369 4416 
L 622 4416 
L 622 4863 
L 1947 4863 
z
" transform="scale(0.015625)"/>
      </defs>
      <use xlink:href="#DejaVuSans-51"/>
      <use xlink:href="#DejaVuSans-20" transform="translate(78.710938 0)"/>
      <use xlink:href="#DejaVuSans-5b" transform="translate(110.498047 0)"/>
      <use xlink:href="#DejaVuSans-31" transform="translate(149.511719 0)"/>
      <use xlink:href="#DejaVuSans-2f" transform="translate(213.134766 0)"/>
      <use xlink:href="#DejaVuSans-c5" transform="translate(246.826172 0)"/>
      <use xlink:href="#DejaVuSans-5d" transform="translate(315.234375 0)"/>
     </g>
    </g>
   </g>
   <g id="matplotlib.axis_2">
    <g id="ytick_1">
     <g id="line2d_10">
      <defs>
       <path id="m38d8018730" d="M 0 0 
L -3.5 0 
" style="stroke: #000000; stroke-width: 0.8"/>
      </defs>
      <g>
       <use xlink:href="#m38d8018730" x="45.478125" y="228.96" style="stroke: #000000; stroke-width: 0.8"/>
      </g>
     </g>
     <g id="text_11">
      <!-- $\mathdefault{10^{0}}$ -->
      <g transform="translate(20.878125 232.759219) scale(0.1 -0.1)">
       <use xlink:href="#DejaVuSans-31" transform="translate(0 0.765625)"/>
       <use xlink:href="#DejaVuSans-30" transform="translate(63.623047 0.765625)"/>
       <use xlink:href="#DejaVuSans-30" transform="translate(128.203125 39.046875) scale(0.7)"/>
      </g>
     </g>
    </g>
    <g id="ytick_2">
     <g id="line2d_11">
      <g>
       <use xlink:href="#m38d8018730" x="45.478125" y="171.682895" style="stroke: #000000; stroke-width: 0.8"/>
      </g>
     </g>
     <g id="text_12">
      <!-- $\mathdefault{10^{1}}$ -->
      <g transform="translate(20.878125 175.482114) scale(0.1 -0.1)">
       <use xlink:href="#DejaVuSans-31" transform="translate(0 0.684375)"/>
       <use xlink:href="#DejaVuSans-30" transform="translate(63.623047 0.684375)"/>
       <use xlink:href="#DejaVuSans-31" transform="translate(128.203125 38.965625) scale(0.7)"/>
      </g>
     </g>
    </g>
    <g id="ytick_3">
     <g id="line2d_12">
      <g>
       <use xlink:href="#m38d8018730" x="45.478125" y="114.40579" style="stroke: #000000; stroke-width: 0.8"/>
      </g>
     </g>
     <g id="text_13">
      <!-- $\mathdefault{10^{2}}$ -->
      <g transform="translate(20.878125 118.205009) scale(0.1 -0.1)">
       <use xlink:href="#DejaVuSans-31" transform="translate(0 0.765625)"/>
       <use xlink:href="#DejaVuSans-30" transform="translate(63.623047 0.765625)"/>
       <use xlink:href="#DejaVuSans-32" transform="translate(128.203125 39.046875) scale(0.7)"/>
      </g>
     </g>
    </g>
    <g id="ytick_4">
     <g id="line2d_13">
      <g>
       <use xlink:href="#m38d8018730" x="45.478125" y="57.128685" style="stroke: #000000; stroke-width: 0.8"/>
      </g>
     </g>
     <g id="text_14">
      <!-- $\mathdefault{10^{3}}$ -->
      <g transform="translate(20.878125 60.927904) scale(0.1 -0.1)">
       <defs>
        <path id="DejaVuSans-33" d="M 2597 2516 
Q 3050 2419 3304 2112 
Q 3559 1806 3559 1356 
Q 3559 666 3084 287 
Q 2609 -91 1734 -91 
Q 1441 -91 1130 -33 
Q 819 25 488 141 
L 488 750 
Q 750 597 1062 519 
Q 1375 441 1716 441 
Q 2309 441 2620 675 
Q 2931 909 2931 1356 
Q 2931 1769 2642 2001 
Q 2353 2234 1838 2234 
L 1294 2234 
L 1294 2753 
L 1863 2753 
Q 2328 2753 2575 2939 
Q 2822 3125 2822 3475 
Q 2822 3834 2567 4026 
Q 2313 4219 1838 4219 
Q 1578 4219 1281 4162 
Q 984 4106 628 3988 
L 628 4550 
Q 988 4650 1302 4700 
Q 1616 4750 1894 4750 
Q 2613 4750 3031 4423 
Q 3450 4097 3450 3541 
Q 3450 3153 3228 2886 
Q 3006 2619 2597 2516 
z
" transform="scale(0.015625)"/>
       </defs>
       <use xlink:href="#DejaVuSans-31" transform="translate(0 0.765625)"/>
       <use xlink:href="#DejaVuSans-30" transform="translate(63.623047 0.765625)"/>
       <use xlink:href="#DejaVuSans-33" transform="translate(128.203125 39.046875) scale(0.7)"/>
      </g>
     </g>
    </g>
    <g id="ytick_5">
     <g id="line2d_14">
      <defs>
       <path id="m81c8c4eca5" d="M 0 0 
L -2 0 
" style="stroke: #000000; stroke-width: 0.6"/>
      </defs>
      <g>
       <use xlink:href="#m81c8c4eca5" x="45.478125" y="211.717873" style="stroke: #000000; stroke-width: 0.6"/>
      </g>
     </g>
    </g>
    <g id="ytick_6">
     <g id="line2d_15">
      <g>
       <use xlink:href="#m81c8c4eca5" x="45.478125" y="201.631876" style="stroke: #000000; stroke-width: 0.6"/>
      </g>
     </g>
    </g>
    <g id="ytick_7">
     <g id="line2d_16">
      <g>
       <use xlink:href="#m81c8c4eca5" x="45.478125" y="194.475747" style="stroke: #000000; stroke-width: 0.6"/>
      </g>
     </g>
    </g>
    <g id="ytick_8">
     <g id="line2d_17">
      <g>
       <use xlink:href="#m81c8c4eca5" x="45.478125" y="188.925022" style="stroke: #000000; stroke-width: 0.6"/>
      </g>
     </g>
    </g>
    <g id="ytick_9">
     <g id="line2d_18">
      <g>
       <use xlink:href="#m81c8c4eca5" x="45.478125" y="184.389749" style="stroke: #000000; stroke-width: 0.6"/>
      </g>
     </g>
    </g>
    <g id="ytick_10">
     <g id="line2d_19">
      <g>
       <use xlink:href="#m81c8c4eca5" x="45.478125" y="180.555231" style="stroke: #000000; stroke-width: 0.6"/>
      </g>
     </g>
    </g>
    <g id="ytick_11">
     <g id="line2d_20">
      <g>
       <use xlink:href="#m81c8c4eca5" x="45.478125" y="177.23362" style="stroke: #000000; stroke-width: 0.6"/>
      </g>
     </g>
    </g>
    <g id="ytick_12">
     <g id="line2d_21">
      <g>
       <use xlink:href="#m81c8c4eca5" x="45.478125" y="174.303752" style="stroke: #000000; stroke-width: 0.6"/>
      </g>
     </g>
    </g>
    <g id="ytick_13">
     <g id="line2d_22">
      <g>
       <use xlink:href="#m81c8c4eca5" x="45.478125" y="154.440768" style="stroke: #000000; stroke-width: 0.6"/>
      </g>
     </g>
    </g>
    <g id="ytick_14">
     <g id="line2d_23">
      <g>
       <use xlink:href="#m81c8c4eca5" x="45.478125" y="144.354771" style="stroke: #000000; stroke-width: 0.6"/>
      </g>
     </g>
    </g>
    <g id="ytick_15">
     <g id="line2d_24">
      <g>
       <use xlink:href="#m81c8c4eca5" x="45.478125" y="137.198642" style="stroke: #000000; stroke-width: 0.6"/>
      </g>
     </g>
    </g>
    <g id="ytick_16">
     <g id="line2d_25">
      <g>
       <use xlink:href="#m81c8c4eca5" x="45.478125" y="131.647917" style="stroke: #000000; stroke-width: 0.6"/>
      </g>
     </g>
    </g>
    <g id="ytick_17">
     <g id="line2d_26">
      <g>
       <use xlink:href="#m81c8c4eca5" x="45.478125" y="127.112644" style="stroke: #000000; stroke-width: 0.6"/>
      </g>
     </g>
    </g>
    <g id="ytick_18">
     <g id="line2d_27">
      <g>
       <use xlink:href="#m81c8c4eca5" x="45.478125" y="123.278126" style="stroke: #000000; stroke-width: 0.6"/>
      </g>
     </g>
    </g>
    <g id="ytick_19">
     <g id="line2d_28">
      <g>
       <use xlink:href="#m81c8c4eca5" x="45.478125" y="119.956515" style="stroke: #000000; stroke-width: 0.6"/>
      </g>
     </g>
    </g>
    <g id="ytick_20">
     <g id="line2d_29">
      <g>
       <use xlink:href="#m81c8c4eca5" x="45.478125" y="117.026647" style="stroke: #000000; stroke-width: 0.6"/>
      </g>
     </g>
    </g>
    <g id="ytick_21">
     <g id="line2d_30">
      <g>
       <use xlink:href="#m81c8c4eca5" x="45.478125" y="97.163663" style="stroke: #000000; stroke-width: 0.6"/>
      </g>
     </g>
    </g>
    <g id="ytick_22">
     <g id="line2d_31">
      <g>
       <use xlink:href="#m81c8c4eca5" x="45.478125" y="87.077666" style="stroke: #000000; stroke-width: 0.6"/>
      </g>
     </g>
    </g>
    <g id="ytick_23">
     <g id="line2d_32">
      <g>
       <use xlink:href="#m81c8c4eca5" x="45.478125" y="79.921537" style="stroke: #000000; stroke-width: 0.6"/>
      </g>
     </g>
    </g>
    <g id="ytick_24">
     <g id="line2d_33">
      <g>
       <use xlink:href="#m81c8c4eca5" x="45.478125" y="74.370812" style="stroke: #000000; stroke-width: 0.6"/>
      </g>
     </g>
    </g>
    <g id="ytick_25">
     <g id="line2d_34">
      <g>
       <use xlink:href="#m81c8c4eca5" x="45.478125" y="69.835539" style="stroke: #000000; stroke-width: 0.6"/>
      </g>
     </g>
    </g>
    <g id="ytick_26">
     <g id="line2d_35">
      <g>
       <use xlink:href="#m81c8c4eca5" x="45.478125" y="66.001021" style="stroke: #000000; stroke-width: 0.6"/>
      </g>
     </g>
    </g>
    <g id="ytick_27">
     <g id="line2d_36">
      <g>
       <use xlink:href="#m81c8c4eca5" x="45.478125" y="62.67941" style="stroke: #000000; stroke-width: 0.6"/>
      </g>
     </g>
    </g>
    <g id="ytick_28">
     <g id="line2d_37">
      <g>
       <use xlink:href="#m81c8c4eca5" x="45.478125" y="59.749542" style="stroke: #000000; stroke-width: 0.6"/>
      </g>
     </g>
    </g>
    <g id="ytick_29">
     <g id="line2d_38">
      <g>
       <use xlink:href="#m81c8c4eca5" x="45.478125" y="39.886558" style="stroke: #000000; stroke-width: 0.6"/>
      </g>
     </g>
    </g>
    <g id="ytick_30">
     <g id="line2d_39">
      <g>
       <use xlink:href="#m81c8c4eca5" x="45.478125" y="29.800561" style="stroke: #000000; stroke-width: 0.6"/>
      </g>
     </g>
    </g>
    <g id="ytick_31">
     <g id="line2d_40">
      <g>
       <use xlink:href="#m81c8c4eca5" x="45.478125" y="22.644432" style="stroke: #000000; stroke-width: 0.6"/>
      </g>
     </g>
    </g>
    <g id="ytick_32">
     <g id="line2d_41">
      <g>
       <use xlink:href="#m81c8c4eca5" x="45.478125" y="17.093707" style="stroke: #000000; stroke-width: 0.6"/>
      </g>
     </g>
    </g>
    <g id="ytick_33">
     <g id="line2d_42">
      <g>
       <use xlink:href="#m81c8c4eca5" x="45.478125" y="12.558434" style="stroke: #000000; stroke-width: 0.6"/>
      </g>
     </g>
    </g>
    <g id="ytick_34">
     <g id="line2d_43">
      <g>
       <use xlink:href="#m81c8c4eca5" x="45.478125" y="8.723916" style="stroke: #000000; stroke-width: 0.6"/>
      </g>
     </g>
    </g>
    <g id="text_15">
     <!-- [counts] -->
     <g transform="translate(14.798438 138.6925) rotate(-90) scale(0.1 -0.1)">
      <defs>
       <path id="DejaVuSans-63" d="M 3122 3366 
L 3122 2828 
Q 2878 2963 2633 3030 
Q 2388 3097 2138 3097 
Q 1578 3097 1268 2742 
Q 959 2388 959 1747 
Q 959 1106 1268 751 
Q 1578 397 2138 397 
Q 2388 397 2633 464 
Q 2878 531 3122 666 
L 3122 134 
Q 2881 22 2623 -34 
Q 2366 -91 2075 -91 
Q 1284 -91 818 406 
Q 353 903 353 1747 
Q 353 2603 823 3093 
Q 1294 3584 2113 3584 
Q 2378 3584 2631 3529 
Q 2884 3475 3122 3366 
z
" transform="scale(0.015625)"/>
       <path id="DejaVuSans-6f" d="M 1959 3097 
Q 1497 3097 1228 2736 
Q 959 2375 959 1747 
Q 959 1119 1226 758 
Q 1494 397 1959 397 
Q 2419 397 2687 759 
Q 2956 1122 2956 1747 
Q 2956 2369 2687 2733 
Q 2419 3097 1959 3097 
z
M 1959 3584 
Q 2709 3584 3137 3096 
Q 3566 2609 3566 1747 
Q 3566 888 3137 398 
Q 2709 -91 1959 -91 
Q 1206 -91 779 398 
Q 353 888 353 1747 
Q 353 2609 779 3096 
Q 1206 3584 1959 3584 
z
" transform="scale(0.015625)"/>
       <path id="DejaVuSans-75" d="M 544 1381 
L 544 3500 
L 1119 3500 
L 1119 1403 
Q 1119 906 1312 657 
Q 1506 409 1894 409 
Q 2359 409 2629 706 
Q 2900 1003 2900 1516 
L 2900 3500 
L 3475 3500 
L 3475 0 
L 2900 0 
L 2900 538 
Q 2691 219 2414 64 
Q 2138 -91 1772 -91 
Q 1169 -91 856 284 
Q 544 659 544 1381 
z
M 1991 3584 
L 1991 3584 
z
" transform="scale(0.015625)"/>
       <path id="DejaVuSans-6e" d="M 3513 2113 
L 3513 0 
L 2938 0 
L 2938 2094 
Q 2938 2591 2744 2837 
Q 2550 3084 2163 3084 
Q 1697 3084 1428 2787 
Q 1159 2491 1159 1978 
L 1159 0 
L 581 0 
L 581 3500 
L 1159 3500 
L 1159 2956 
Q 1366 3272 1645 3428 
Q 1925 3584 2291 3584 
Q 2894 3584 3203 3211 
Q 3513 2838 3513 2113 
z
" transform="scale(0.015625)"/>
       <path id="DejaVuSans-74" d="M 1172 4494 
L 1172 3500 
L 2356 3500 
L 2356 3053 
L 1172 3053 
L 1172 1153 
Q 1172 725 1289 603 
Q 1406 481 1766 481 
L 2356 481 
L 2356 0 
L 1766 0 
Q 1100 0 847 248 
Q 594 497 594 1153 
L 594 3053 
L 172 3053 
L 172 3500 
L 594 3500 
L 594 4494 
L 1172 4494 
z
" transform="scale(0.015625)"/>
       <path id="DejaVuSans-73" d="M 2834 3397 
L 2834 2853 
Q 2591 2978 2328 3040 
Q 2066 3103 1784 3103 
Q 1356 3103 1142 2972 
Q 928 2841 928 2578 
Q 928 2378 1081 2264 
Q 1234 2150 1697 2047 
L 1894 2003 
Q 2506 1872 2764 1633 
Q 3022 1394 3022 966 
Q 3022 478 2636 193 
Q 2250 -91 1575 -91 
Q 1294 -91 989 -36 
Q 684 19 347 128 
L 347 722 
Q 666 556 975 473 
Q 1284 391 1588 391 
Q 1994 391 2212 530 
Q 2431 669 2431 922 
Q 2431 1156 2273 1281 
Q 2116 1406 1581 1522 
L 1381 1569 
Q 847 1681 609 1914 
Q 372 2147 372 2553 
Q 372 3047 722 3315 
Q 1072 3584 1716 3584 
Q 2034 3584 2315 3537 
Q 2597 3491 2834 3397 
z
" transform="scale(0.015625)"/>
      </defs>
      <use xlink:href="#DejaVuSans-5b"/>
      <use xlink:href="#DejaVuSans-63" transform="translate(39.013672 0)"/>
      <use xlink:href="#DejaVuSans-6f" transform="translate(93.994141 0)"/>
      <use xlink:href="#DejaVuSans-75" transform="translate(155.175781 0)"/>
      <use xlink:href="#DejaVuSans-6e" transform="translate(218.554688 0)"/>
      <use xlink:href="#DejaVuSans-74" transform="translate(281.933594 0)"/>
      <use xlink:href="#DejaVuSans-73" transform="translate(321.142578 0)"/>
      <use xlink:href="#DejaVuSans-5d" transform="translate(373.242188 0)"/>
     </g>
    </g>
   </g>
   <g id="patch_3">
    <path d="M 45.478125 228.96 
L 45.478125 7.2 
" style="fill: none; stroke: #000000; stroke-width: 0.8; stroke-linejoin: miter; stroke-linecap: square"/>
   </g>
   <g id="patch_4">
    <path d="M 380.278125 228.96 
L 380.278125 7.2 
" style="fill: none; stroke: #000000; stroke-width: 0.8; stroke-linejoin: miter; stroke-linecap: square"/>
   </g>
   <g id="patch_5">
    <path d="M 45.478125 228.96 
L 380.278125 228.96 
" style="fill: none; stroke: #000000; stroke-width: 0.8; stroke-linejoin: miter; stroke-linecap: square"/>
   </g>
   <g id="patch_6">
    <path d="M 45.478125 7.2 
L 380.278125 7.2 
" style="fill: none; stroke: #000000; stroke-width: 0.8; stroke-linejoin: miter; stroke-linecap: square"/>
   </g>
   <g id="line2d_44">
    <path d="M 60.696307 51.451858 
L 62.218125 51.451858 
L 62.218125 24.342496 
L 63.739943 24.342496 
L 63.739943 22.574128 
L 65.261761 22.574128 
L 65.261761 23.368817 
L 66.78358 23.368817 
L 66.78358 23.897063 
L 68.305398 23.897063 
L 68.305398 25.259315 
L 69.827216 25.259315 
L 69.827216 25.021206 
L 71.349034 25.021206 
L 71.349034 24.861353 
L 72.870852 24.861353 
L 72.870852 26.790689 
L 74.39267 26.790689 
L 74.39267 28.021753 
L 75.914489 28.021753 
L 75.914489 29.095678 
L 77.436307 29.095678 
L 77.436307 31.167924 
L 78.958125 31.167924 
L 78.958125 30.508886 
L 80.479943 30.508886 
L 80.479943 32.128405 
L 82.001761 32.128405 
L 82.001761 35.016097 
L 83.52358 35.016097 
L 83.52358 36.056434 
L 85.045398 36.056434 
L 85.045398 36.31463 
L 86.567216 36.31463 
L 86.567216 38.294236 
L 88.089034 38.294236 
L 88.089034 41.13596 
L 89.610852 41.13596 
L 89.610852 43.688278 
L 91.13267 43.688278 
L 91.13267 47.886648 
L 92.654489 47.886648 
L 92.654489 52.03345 
L 94.176307 52.03345 
L 94.176307 58.795234 
L 95.698125 58.795234 
L 95.698125 65.624897 
L 97.219943 65.624897 
L 97.219943 70.291452 
L 98.741761 70.291452 
L 98.741761 81.3841 
L 100.26358 81.3841 
L 100.26358 89.773416 
L 101.785398 89.773416 
L 101.785398 91.083745 
L 103.307216 91.083745 
L 103.307216 96.510994 
L 104.829034 96.510994 
L 104.829034 93.916681 
L 106.350852 93.916681 
L 106.350852 91.808098 
L 107.87267 91.808098 
L 107.87267 90.486006 
L 109.394489 90.486006 
L 109.394489 91.733793 
L 110.916307 91.733793 
L 110.916307 94.52598 
L 112.438125 94.52598 
L 112.438125 93.215937 
L 113.959943 93.215937 
L 113.959943 94.465971 
L 115.481761 94.465971 
L 115.481761 97.369316 
L 117.00358 97.369316 
L 117.00358 103.63697 
L 118.525398 103.63697 
L 118.525398 106.739525 
L 120.047216 106.739525 
L 120.047216 115.487261 
L 121.569034 115.487261 
L 121.569034 121.470971 
L 123.090852 121.470971 
L 123.090852 127.388662 
L 124.61267 127.388662 
L 124.61267 135.464825 
L 126.134489 135.464825 
L 126.134489 139.874858 
L 127.656307 139.874858 
L 127.656307 144.808904 
L 129.178125 144.808904 
L 129.178125 148.698815 
L 130.699943 148.698815 
L 130.699943 153.643375 
L 132.221761 153.643375 
L 132.221761 156.784165 
L 133.74358 156.784165 
L 133.74358 155.682178 
L 135.265398 155.682178 
L 135.265398 156.721498 
L 136.787216 156.721498 
L 136.787216 152.941045 
L 138.309034 152.941045 
L 138.309034 150.607058 
L 139.830852 150.607058 
L 139.830852 146.598694 
L 141.35267 146.598694 
L 141.35267 143.196061 
L 142.874489 143.196061 
L 142.874489 140.836819 
L 144.396307 140.836819 
L 144.396307 140.335064 
L 145.918125 140.335064 
L 145.918125 137.914485 
L 147.439943 137.914485 
L 147.439943 136.622299 
L 148.961761 136.622299 
L 148.961761 134.987394 
L 150.48358 134.987394 
L 150.48358 132.077668 
L 152.005398 132.077668 
L 152.005398 132.864239 
L 153.527216 132.864239 
L 153.527216 131.093437 
L 155.049034 131.093437 
L 155.049034 135.840647 
L 156.570852 135.840647 
L 156.570852 132.138425 
L 158.09267 132.138425 
L 158.09267 133.500033 
L 159.614489 133.500033 
L 159.614489 131.933383 
L 161.136307 131.933383 
L 161.136307 133.554579 
L 162.658125 133.554579 
L 162.658125 137.335717 
L 164.179943 137.335717 
L 164.179943 135.610031 
L 165.701761 135.610031 
L 165.701761 138.219969 
L 167.22358 138.219969 
L 167.22358 139.0724 
L 168.745398 139.0724 
L 168.745398 137.702083 
L 170.267216 137.702083 
L 170.267216 142.045311 
L 171.789034 142.045311 
L 171.789034 144.902519 
L 173.310852 144.902519 
L 173.310852 142.753523 
L 174.83267 142.753523 
L 174.83267 145.971272 
L 176.354489 145.971272 
L 176.354489 152.328749 
L 177.876307 152.328749 
L 177.876307 150.883461 
L 179.398125 150.883461 
L 179.398125 151.030332 
L 180.919943 151.030332 
L 180.919943 151.379593 
L 182.441761 151.379593 
L 182.441761 155.330928 
L 183.96358 155.330928 
L 183.96358 156.144603 
L 185.485398 156.144603 
L 185.485398 157.872763 
L 187.007216 157.872763 
L 187.007216 159.573401 
L 188.529034 159.573401 
L 188.529034 161.559125 
L 190.050852 161.559125 
L 190.050852 160.837947 
L 191.57267 160.837947 
L 191.57267 162.616099 
L 193.094489 162.616099 
L 193.094489 157.846411 
L 194.616307 157.846411 
L 194.616307 160.114412 
L 196.138125 160.114412 
L 196.138125 158.992181 
L 197.659943 158.992181 
L 197.659943 157.604152 
L 199.181761 157.604152 
L 199.181761 158.992911 
L 200.70358 158.992911 
L 200.70358 156.249437 
L 202.225398 156.249437 
L 202.225398 160.083924 
L 203.747216 160.083924 
L 203.747216 152.527093 
L 205.269034 152.527093 
L 205.269034 159.078289 
L 206.790852 159.078289 
L 206.790852 154.372166 
L 208.31267 154.372166 
L 208.31267 156.209345 
L 209.834489 156.209345 
L 209.834489 151.741863 
L 211.356307 151.741863 
L 211.356307 156.097856 
L 212.878125 156.097856 
L 212.878125 151.327875 
L 214.399943 151.327875 
L 214.399943 154.361036 
L 215.921761 154.361036 
L 215.921761 150.060944 
L 217.44358 150.060944 
L 217.44358 151.207467 
L 218.965398 151.207467 
L 218.965398 156.09998 
L 220.487216 156.09998 
L 220.487216 148.546974 
L 222.009034 148.546974 
L 222.009034 151.171775 
L 223.530852 151.171775 
L 223.530852 155.009834 
L 225.05267 155.009834 
L 225.05267 156.306876 
L 226.574489 156.306876 
L 226.574489 155.306307 
L 228.096307 155.306307 
L 228.096307 159.721481 
L 229.618125 159.721481 
L 229.618125 158.612547 
L 231.139943 158.612547 
L 231.139943 156.127444 
L 232.661761 156.127444 
L 232.661761 160.402454 
L 234.18358 160.402454 
L 234.18358 156.904163 
L 235.705398 156.904163 
L 235.705398 159.914098 
L 237.227216 159.914098 
L 237.227216 155.708645 
L 238.749034 155.708645 
L 238.749034 161.071108 
L 240.270852 161.071108 
L 240.270852 157.745328 
L 241.79267 157.745328 
L 241.79267 160.464092 
L 243.314489 160.464092 
L 243.314489 158.775863 
L 244.836307 158.775863 
L 244.836307 164.783704 
L 246.358125 164.783704 
L 246.358125 162.173444 
L 247.879943 162.173444 
L 247.879943 159.364191 
L 249.401761 159.364191 
L 249.401761 158.563261 
L 250.92358 158.563261 
L 250.92358 160.258104 
L 252.445398 160.258104 
L 252.445398 161.124322 
L 253.967216 161.124322 
L 253.967216 161.283493 
L 255.489034 161.283493 
L 255.489034 161.498554 
L 257.010852 161.498554 
L 257.010852 156.841955 
L 260.054489 156.914434 
L 260.054489 161.449049 
L 261.576307 161.449049 
L 261.576307 160.030705 
L 263.098125 160.030705 
L 263.098125 158.52193 
L 264.619943 158.52193 
L 264.619943 157.596466 
L 266.141761 157.596466 
L 266.141761 161.16958 
L 267.66358 161.16958 
L 267.66358 162.014363 
L 269.185398 162.014363 
L 269.185398 160.469913 
L 270.707216 160.469913 
L 270.707216 151.719609 
L 272.229034 151.719609 
L 272.229034 158.366281 
L 273.750852 158.366281 
L 273.750852 152.757842 
L 275.27267 152.757842 
L 275.27267 163.559723 
L 276.794489 163.559723 
L 276.794489 160.163788 
L 278.316307 160.163788 
L 278.316307 155.484848 
L 279.838125 155.484848 
L 279.838125 155.054185 
L 281.359943 155.054185 
L 281.359943 157.300412 
L 282.881761 157.300412 
L 282.881761 163.038138 
L 284.40358 163.038138 
L 284.40358 162.27127 
L 285.925398 162.27127 
L 285.925398 161.041446 
L 287.447216 161.041446 
L 287.447216 154.66527 
L 288.969034 154.66527 
L 288.969034 160.182204 
L 290.490852 160.182204 
L 290.490852 162.730004 
L 292.01267 162.730004 
L 292.01267 161.646291 
L 293.534489 161.646291 
L 293.534489 159.045865 
L 295.056307 159.045865 
L 295.056307 158.394698 
L 296.578125 158.394698 
L 296.578125 158.129139 
L 298.099943 158.129139 
L 298.099943 164.384061 
L 299.621761 164.384061 
L 299.621761 159.119765 
L 301.14358 159.119765 
L 301.14358 168.222432 
L 304.187216 168.304307 
L 304.187216 166.853954 
L 305.709034 166.853954 
L 305.709034 162.493073 
L 307.230852 162.493073 
L 307.230852 170.530632 
L 308.75267 170.530632 
L 308.75267 168.202387 
L 310.274489 168.202387 
L 310.274489 171.646397 
L 311.796307 171.646397 
L 311.796307 170.031654 
L 313.318125 170.031654 
L 313.318125 170.146968 
L 314.839943 170.146968 
L 314.839943 170.656226 
L 317.88358 170.674798 
L 317.88358 168.264037 
L 319.405398 168.264037 
L 319.405398 161.638566 
L 320.927216 161.638566 
L 320.927216 168.120818 
L 322.449034 168.120818 
L 322.449034 171.644645 
L 323.970852 171.644645 
L 323.970852 181.805121 
L 325.49267 181.805121 
L 325.49267 178.680264 
L 327.014489 178.680264 
L 327.014489 173.946904 
L 328.536307 173.946904 
L 328.536307 172.114505 
L 330.058125 172.114505 
L 330.058125 176.993379 
L 331.579943 176.993379 
L 331.579943 179.682949 
L 333.101761 179.682949 
L 333.101761 180.977458 
L 334.62358 180.977458 
L 334.62358 182.796992 
L 336.145398 182.796992 
L 336.145398 182.155647 
L 337.667216 182.155647 
L 337.667216 191.549265 
L 339.189034 191.549265 
L 339.189034 183.584083 
L 340.710852 183.584083 
L 340.710852 190.842651 
L 342.23267 190.842651 
L 342.23267 189.350521 
L 343.754489 189.350521 
L 343.754489 213.409811 
L 345.276307 213.409811 
L 345.276307 210.90721 
L 346.798125 210.90721 
L 346.798125 190.3329 
L 348.319943 190.3329 
L 348.319943 205.46158 
L 349.841761 205.46158 
L 349.841761 206.102576 
L 351.36358 206.102576 
L 351.36358 194.181286 
L 352.885398 194.181286 
L 352.885398 217.058177 
L 354.407216 217.058177 
L 354.407216 219.379109 
L 355.929034 219.379109 
L 355.929034 222.888478 
L 357.450852 222.888478 
L 357.450852 223.813713 
L 358.97267 223.813713 
L 358.97267 251.819587 
L 360.494489 251.819587 
L 360.494489 227.159705 
L 362.016307 227.159705 
L 362.016307 268.439687 
M 363.538125 268.439687 
L 363.538125 243.246818 
L 365.059943 243.246818 
L 365.059943 243.246818 
" clip-path="url(#pab2b1fe227)" style="fill: none; stroke: #1f77b4; stroke-width: 1.5; stroke-linecap: square"/>
   </g>
   <g id="LineCollection_1">
    <path d="M 61.457216 51.878848 
L 61.457216 51.032073 
" clip-path="url(#pab2b1fe227)" style="fill: none; stroke: #1f77b4; stroke-width: 1.5"/>
    <path d="M 62.979034 24.631307 
L 62.979034 24.056999 
" clip-path="url(#pab2b1fe227)" style="fill: none; stroke: #1f77b4; stroke-width: 1.5"/>
    <path d="M 64.500852 22.876759 
L 64.500852 22.275135 
" clip-path="url(#pab2b1fe227)" style="fill: none; stroke: #1f77b4; stroke-width: 1.5"/>
    <path d="M 66.02267 23.695792 
L 66.02267 23.046086 
" clip-path="url(#pab2b1fe227)" style="fill: none; stroke: #1f77b4; stroke-width: 1.5"/>
    <path d="M 67.544489 24.248694 
L 67.544489 23.550332 
" clip-path="url(#pab2b1fe227)" style="fill: none; stroke: #1f77b4; stroke-width: 1.5"/>
    <path d="M 69.066307 25.643139 
L 69.066307 24.881324 
" clip-path="url(#pab2b1fe227)" style="fill: none; stroke: #1f77b4; stroke-width: 1.5"/>
    <path d="M 70.588125 25.424436 
L 70.588125 24.624408 
" clip-path="url(#pab2b1fe227)" style="fill: none; stroke: #1f77b4; stroke-width: 1.5"/>
    <path d="M 72.109943 25.285824 
L 72.109943 24.444003 
" clip-path="url(#pab2b1fe227)" style="fill: none; stroke: #1f77b4; stroke-width: 1.5"/>
    <path d="M 73.631761 27.254223 
L 73.631761 26.335635 
" clip-path="url(#pab2b1fe227)" style="fill: none; stroke: #1f77b4; stroke-width: 1.5"/>
    <path d="M 75.15358 28.514549 
L 75.15358 27.538531 
" clip-path="url(#pab2b1fe227)" style="fill: none; stroke: #1f77b4; stroke-width: 1.5"/>
    <path d="M 76.675398 29.620387 
L 76.675398 28.581808 
" clip-path="url(#pab2b1fe227)" style="fill: none; stroke: #1f77b4; stroke-width: 1.5"/>
    <path d="M 78.197216 31.724986 
L 78.197216 30.623065 
" clip-path="url(#pab2b1fe227)" style="fill: none; stroke: #1f77b4; stroke-width: 1.5"/>
    <path d="M 79.719034 31.078182 
L 79.719034 29.952328 
" clip-path="url(#pab2b1fe227)" style="fill: none; stroke: #1f77b4; stroke-width: 1.5"/>
    <path d="M 81.240852 32.727963 
L 81.240852 31.542958 
" clip-path="url(#pab2b1fe227)" style="fill: none; stroke: #1f77b4; stroke-width: 1.5"/>
    <path d="M 82.76267 35.664652 
L 82.76267 34.384023 
" clip-path="url(#pab2b1fe227)" style="fill: none; stroke: #1f77b4; stroke-width: 1.5"/>
    <path d="M 84.284489 36.730503 
L 84.284489 35.400151 
" clip-path="url(#pab2b1fe227)" style="fill: none; stroke: #1f77b4; stroke-width: 1.5"/>
    <path d="M 85.806307 37.006389 
L 85.806307 35.64159 
" clip-path="url(#pab2b1fe227)" style="fill: none; stroke: #1f77b4; stroke-width: 1.5"/>
    <path d="M 87.328125 39.015321 
L 87.328125 37.593466 
" clip-path="url(#pab2b1fe227)" style="fill: none; stroke: #1f77b4; stroke-width: 1.5"/>
    <path d="M 88.849943 41.914364 
L 88.849943 40.381177 
" clip-path="url(#pab2b1fe227)" style="fill: none; stroke: #1f77b4; stroke-width: 1.5"/>
    <path d="M 90.371761 44.497679 
L 90.371761 42.904386 
" clip-path="url(#pab2b1fe227)" style="fill: none; stroke: #1f77b4; stroke-width: 1.5"/>
    <path d="M 91.89358 48.770719 
L 91.89358 47.032921 
" clip-path="url(#pab2b1fe227)" style="fill: none; stroke: #1f77b4; stroke-width: 1.5"/>
    <path d="M 93.415398 52.99268 
L 93.415398 51.10984 
" clip-path="url(#pab2b1fe227)" style="fill: none; stroke: #1f77b4; stroke-width: 1.5"/>
    <path d="M 94.937216 59.914063 
L 94.937216 57.72457 
" clip-path="url(#pab2b1fe227)" style="fill: none; stroke: #1f77b4; stroke-width: 1.5"/>
    <path d="M 96.459034 66.887547 
L 96.459034 64.423253 
" clip-path="url(#pab2b1fe227)" style="fill: none; stroke: #1f77b4; stroke-width: 1.5"/>
    <path d="M 97.980852 71.679506 
L 97.980852 68.976776 
" clip-path="url(#pab2b1fe227)" style="fill: none; stroke: #1f77b4; stroke-width: 1.5"/>
    <path d="M 99.50267 83.102676 
L 99.50267 79.776622 
" clip-path="url(#pab2b1fe227)" style="fill: none; stroke: #1f77b4; stroke-width: 1.5"/>
    <path d="M 101.024489 91.754563 
L 101.024489 87.938482 
" clip-path="url(#pab2b1fe227)" style="fill: none; stroke: #1f77b4; stroke-width: 1.5"/>
    <path d="M 102.546307 92.989583 
L 102.546307 89.313592 
" clip-path="url(#pab2b1fe227)" style="fill: none; stroke: #1f77b4; stroke-width: 1.5"/>
    <path d="M 104.068125 98.505513 
L 104.068125 94.664594 
" clip-path="url(#pab2b1fe227)" style="fill: none; stroke: #1f77b4; stroke-width: 1.5"/>
    <path d="M 105.589943 95.784203 
L 105.589943 92.179627 
" clip-path="url(#pab2b1fe227)" style="fill: none; stroke: #1f77b4; stroke-width: 1.5"/>
    <path d="M 107.111761 93.487109 
L 107.111761 90.235285 
" clip-path="url(#pab2b1fe227)" style="fill: none; stroke: #1f77b4; stroke-width: 1.5"/>
    <path d="M 108.63358 92.015927 
L 108.63358 89.044754 
" clip-path="url(#pab2b1fe227)" style="fill: none; stroke: #1f77b4; stroke-width: 1.5"/>
    <path d="M 110.155398 93.27452 
L 110.155398 90.282954 
" clip-path="url(#pab2b1fe227)" style="fill: none; stroke: #1f77b4; stroke-width: 1.5"/>
    <path d="M 111.677216 96.08475 
L 111.677216 93.059156 
" clip-path="url(#pab2b1fe227)" style="fill: none; stroke: #1f77b4; stroke-width: 1.5"/>
    <path d="M 113.199034 94.659208 
L 113.199034 91.851833 
" clip-path="url(#pab2b1fe227)" style="fill: none; stroke: #1f77b4; stroke-width: 1.5"/>
    <path d="M 114.720852 95.904182 
L 114.720852 93.106388 
" clip-path="url(#pab2b1fe227)" style="fill: none; stroke: #1f77b4; stroke-width: 1.5"/>
    <path d="M 116.24267 98.788627 
L 116.24267 96.026636 
" clip-path="url(#pab2b1fe227)" style="fill: none; stroke: #1f77b4; stroke-width: 1.5"/>
    <path d="M 117.764489 105.12567 
L 117.764489 102.232356 
" clip-path="url(#pab2b1fe227)" style="fill: none; stroke: #1f77b4; stroke-width: 1.5"/>
    <path d="M 119.286307 108.177417 
L 119.286307 105.380227 
" clip-path="url(#pab2b1fe227)" style="fill: none; stroke: #1f77b4; stroke-width: 1.5"/>
    <path d="M 120.808125 117.018072 
L 120.808125 114.045219 
" clip-path="url(#pab2b1fe227)" style="fill: none; stroke: #1f77b4; stroke-width: 1.5"/>
    <path d="M 122.329943 123.037378 
L 122.329943 119.997386 
" clip-path="url(#pab2b1fe227)" style="fill: none; stroke: #1f77b4; stroke-width: 1.5"/>
    <path d="M 123.851761 128.950354 
L 123.851761 125.91925 
" clip-path="url(#pab2b1fe227)" style="fill: none; stroke: #1f77b4; stroke-width: 1.5"/>
    <path d="M 125.37358 137.07986 
L 125.37358 133.948284 
" clip-path="url(#pab2b1fe227)" style="fill: none; stroke: #1f77b4; stroke-width: 1.5"/>
    <path d="M 126.895398 141.463907 
L 126.895398 138.381253 
" clip-path="url(#pab2b1fe227)" style="fill: none; stroke: #1f77b4; stroke-width: 1.5"/>
    <path d="M 128.417216 146.312098 
L 128.417216 143.391394 
" clip-path="url(#pab2b1fe227)" style="fill: none; stroke: #1f77b4; stroke-width: 1.5"/>
    <path d="M 129.939034 150.141894 
L 129.939034 147.334883 
" clip-path="url(#pab2b1fe227)" style="fill: none; stroke: #1f77b4; stroke-width: 1.5"/>
    <path d="M 131.460852 154.932155 
L 131.460852 152.418091 
" clip-path="url(#pab2b1fe227)" style="fill: none; stroke: #1f77b4; stroke-width: 1.5"/>
    <path d="M 132.98267 158.037788 
L 132.98267 155.5907 
" clip-path="url(#pab2b1fe227)" style="fill: none; stroke: #1f77b4; stroke-width: 1.5"/>
    <path d="M 134.504489 156.9722 
L 134.504489 154.455771 
" clip-path="url(#pab2b1fe227)" style="fill: none; stroke: #1f77b4; stroke-width: 1.5"/>
    <path d="M 136.026307 158.071972 
L 136.026307 155.440582 
" clip-path="url(#pab2b1fe227)" style="fill: none; stroke: #1f77b4; stroke-width: 1.5"/>
    <path d="M 137.548125 154.354923 
L 137.548125 151.603227 
" clip-path="url(#pab2b1fe227)" style="fill: none; stroke: #1f77b4; stroke-width: 1.5"/>
    <path d="M 139.069943 152.114193 
L 139.069943 149.186045 
" clip-path="url(#pab2b1fe227)" style="fill: none; stroke: #1f77b4; stroke-width: 1.5"/>
    <path d="M 140.591761 148.197544 
L 140.591761 145.096434 
" clip-path="url(#pab2b1fe227)" style="fill: none; stroke: #1f77b4; stroke-width: 1.5"/>
    <path d="M 142.11358 144.827215 
L 142.11358 141.665318 
" clip-path="url(#pab2b1fe227)" style="fill: none; stroke: #1f77b4; stroke-width: 1.5"/>
    <path d="M 143.635398 142.469993 
L 143.635398 139.304297 
" clip-path="url(#pab2b1fe227)" style="fill: none; stroke: #1f77b4; stroke-width: 1.5"/>
    <path d="M 145.157216 142.123773 
L 145.157216 138.666393 
" clip-path="url(#pab2b1fe227)" style="fill: none; stroke: #1f77b4; stroke-width: 1.5"/>
    <path d="M 146.679034 139.682448 
L 146.679034 136.263881 
" clip-path="url(#pab2b1fe227)" style="fill: none; stroke: #1f77b4; stroke-width: 1.5"/>
    <path d="M 148.200852 138.428719 
L 148.200852 134.938226 
" clip-path="url(#pab2b1fe227)" style="fill: none; stroke: #1f77b4; stroke-width: 1.5"/>
    <path d="M 149.72267 136.807264 
L 149.72267 133.291637 
" clip-path="url(#pab2b1fe227)" style="fill: none; stroke: #1f77b4; stroke-width: 1.5"/>
    <path d="M 151.244489 133.87723 
L 151.244489 130.399556 
" clip-path="url(#pab2b1fe227)" style="fill: none; stroke: #1f77b4; stroke-width: 1.5"/>
    <path d="M 152.766307 134.732852 
L 152.766307 131.126242 
" clip-path="url(#pab2b1fe227)" style="fill: none; stroke: #1f77b4; stroke-width: 1.5"/>
    <path d="M 154.288125 132.937552 
L 154.288125 129.37665 
" clip-path="url(#pab2b1fe227)" style="fill: none; stroke: #1f77b4; stroke-width: 1.5"/>
    <path d="M 155.809943 137.877221 
L 155.809943 133.958267 
" clip-path="url(#pab2b1fe227)" style="fill: none; stroke: #1f77b4; stroke-width: 1.5"/>
    <path d="M 157.331761 134.098768 
L 157.331761 130.32135 
" clip-path="url(#pab2b1fe227)" style="fill: none; stroke: #1f77b4; stroke-width: 1.5"/>
    <path d="M 158.85358 135.542871 
L 158.85358 131.612303 
" clip-path="url(#pab2b1fe227)" style="fill: none; stroke: #1f77b4; stroke-width: 1.5"/>
    <path d="M 160.375398 133.87423 
L 160.375398 130.133069 
" clip-path="url(#pab2b1fe227)" style="fill: none; stroke: #1f77b4; stroke-width: 1.5"/>
    <path d="M 161.897216 135.548397 
L 161.897216 131.708781 
" clip-path="url(#pab2b1fe227)" style="fill: none; stroke: #1f77b4; stroke-width: 1.5"/>
    <path d="M 163.419034 139.435216 
L 163.419034 135.399708 
" clip-path="url(#pab2b1fe227)" style="fill: none; stroke: #1f77b4; stroke-width: 1.5"/>
    <path d="M 164.940852 137.668925 
L 164.940852 133.708601 
" clip-path="url(#pab2b1fe227)" style="fill: none; stroke: #1f77b4; stroke-width: 1.5"/>
    <path d="M 166.46267 140.33844 
L 166.46267 136.267842 
" clip-path="url(#pab2b1fe227)" style="fill: none; stroke: #1f77b4; stroke-width: 1.5"/>
    <path d="M 167.984489 141.193337 
L 167.984489 137.11818 
" clip-path="url(#pab2b1fe227)" style="fill: none; stroke: #1f77b4; stroke-width: 1.5"/>
    <path d="M 169.506307 139.706408 
L 169.506307 135.847285 
" clip-path="url(#pab2b1fe227)" style="fill: none; stroke: #1f77b4; stroke-width: 1.5"/>
    <path d="M 171.028125 144.11257 
L 171.028125 140.136748 
" clip-path="url(#pab2b1fe227)" style="fill: none; stroke: #1f77b4; stroke-width: 1.5"/>
    <path d="M 172.549943 146.953466 
L 172.549943 143.007868 
" clip-path="url(#pab2b1fe227)" style="fill: none; stroke: #1f77b4; stroke-width: 1.5"/>
    <path d="M 174.071761 144.768498 
L 174.071761 140.889609 
" clip-path="url(#pab2b1fe227)" style="fill: none; stroke: #1f77b4; stroke-width: 1.5"/>
    <path d="M 175.59358 147.94498 
L 175.59358 144.14272 
" clip-path="url(#pab2b1fe227)" style="fill: none; stroke: #1f77b4; stroke-width: 1.5"/>
    <path d="M 177.115398 154.31952 
L 177.115398 150.485563 
" clip-path="url(#pab2b1fe227)" style="fill: none; stroke: #1f77b4; stroke-width: 1.5"/>
    <path d="M 178.637216 152.879126 
L 178.637216 149.03608 
" clip-path="url(#pab2b1fe227)" style="fill: none; stroke: #1f77b4; stroke-width: 1.5"/>
    <path d="M 180.159034 152.894457 
L 180.159034 149.296217 
" clip-path="url(#pab2b1fe227)" style="fill: none; stroke: #1f77b4; stroke-width: 1.5"/>
    <path d="M 181.680852 153.230705 
L 181.680852 149.656745 
" clip-path="url(#pab2b1fe227)" style="fill: none; stroke: #1f77b4; stroke-width: 1.5"/>
    <path d="M 183.20267 157.267489 
L 183.20267 153.534303 
" clip-path="url(#pab2b1fe227)" style="fill: none; stroke: #1f77b4; stroke-width: 1.5"/>
    <path d="M 184.724489 157.975816 
L 184.724489 154.439002 
" clip-path="url(#pab2b1fe227)" style="fill: none; stroke: #1f77b4; stroke-width: 1.5"/>
    <path d="M 186.246307 159.686159 
L 186.246307 156.182629 
" clip-path="url(#pab2b1fe227)" style="fill: none; stroke: #1f77b4; stroke-width: 1.5"/>
    <path d="M 187.768125 161.365361 
L 187.768125 157.901901 
" clip-path="url(#pab2b1fe227)" style="fill: none; stroke: #1f77b4; stroke-width: 1.5"/>
    <path d="M 189.289943 163.289178 
L 189.289943 159.941612 
" clip-path="url(#pab2b1fe227)" style="fill: none; stroke: #1f77b4; stroke-width: 1.5"/>
    <path d="M 190.811761 162.67141 
L 190.811761 159.130395 
" clip-path="url(#pab2b1fe227)" style="fill: none; stroke: #1f77b4; stroke-width: 1.5"/>
    <path d="M 192.33358 164.404653 
L 192.33358 160.947564 
" clip-path="url(#pab2b1fe227)" style="fill: none; stroke: #1f77b4; stroke-width: 1.5"/>
    <path d="M 193.855398 159.654806 
L 193.855398 156.160621 
" clip-path="url(#pab2b1fe227)" style="fill: none; stroke: #1f77b4; stroke-width: 1.5"/>
    <path d="M 195.377216 161.944069 
L 195.377216 158.410162 
" clip-path="url(#pab2b1fe227)" style="fill: none; stroke: #1f77b4; stroke-width: 1.5"/>
    <path d="M 196.899034 160.831407 
L 196.899034 157.279632 
" clip-path="url(#pab2b1fe227)" style="fill: none; stroke: #1f77b4; stroke-width: 1.5"/>
    <path d="M 198.420852 159.539853 
L 198.420852 155.808266 
" clip-path="url(#pab2b1fe227)" style="fill: none; stroke: #1f77b4; stroke-width: 1.5"/>
    <path d="M 199.94267 160.894905 
L 199.94267 157.226074 
" clip-path="url(#pab2b1fe227)" style="fill: none; stroke: #1f77b4; stroke-width: 1.5"/>
    <path d="M 201.464489 158.180138 
L 201.464489 154.457856 
" clip-path="url(#pab2b1fe227)" style="fill: none; stroke: #1f77b4; stroke-width: 1.5"/>
    <path d="M 202.986307 162.265139 
L 202.986307 158.078649 
" clip-path="url(#pab2b1fe227)" style="fill: none; stroke: #1f77b4; stroke-width: 1.5"/>
    <path d="M 204.508125 154.57273 
L 204.508125 150.636973 
" clip-path="url(#pab2b1fe227)" style="fill: none; stroke: #1f77b4; stroke-width: 1.5"/>
    <path d="M 206.029943 161.421228 
L 206.029943 156.937156 
" clip-path="url(#pab2b1fe227)" style="fill: none; stroke: #1f77b4; stroke-width: 1.5"/>
    <path d="M 207.551761 156.56518 
L 207.551761 152.356923 
" clip-path="url(#pab2b1fe227)" style="fill: none; stroke: #1f77b4; stroke-width: 1.5"/>
    <path d="M 209.07358 158.5438 
L 209.07358 154.075298 
" clip-path="url(#pab2b1fe227)" style="fill: none; stroke: #1f77b4; stroke-width: 1.5"/>
    <path d="M 210.595398 154.011032 
L 210.595398 149.662498 
" clip-path="url(#pab2b1fe227)" style="fill: none; stroke: #1f77b4; stroke-width: 1.5"/>
    <path d="M 212.117216 158.539766 
L 212.117216 153.874377 
" clip-path="url(#pab2b1fe227)" style="fill: none; stroke: #1f77b4; stroke-width: 1.5"/>
    <path d="M 213.639034 153.645839 
L 213.639034 149.207616 
" clip-path="url(#pab2b1fe227)" style="fill: none; stroke: #1f77b4; stroke-width: 1.5"/>
    <path d="M 215.160852 156.816297 
L 215.160852 152.126496 
" clip-path="url(#pab2b1fe227)" style="fill: none; stroke: #1f77b4; stroke-width: 1.5"/>
    <path d="M 216.68267 152.450689 
L 216.68267 147.880791 
" clip-path="url(#pab2b1fe227)" style="fill: none; stroke: #1f77b4; stroke-width: 1.5"/>
    <path d="M 218.204489 153.596312 
L 218.204489 149.028065 
" clip-path="url(#pab2b1fe227)" style="fill: none; stroke: #1f77b4; stroke-width: 1.5"/>
    <path d="M 219.726307 158.581021 
L 219.726307 153.84411 
" clip-path="url(#pab2b1fe227)" style="fill: none; stroke: #1f77b4; stroke-width: 1.5"/>
    <path d="M 221.248125 150.905877 
L 221.248125 146.392517 
" clip-path="url(#pab2b1fe227)" style="fill: none; stroke: #1f77b4; stroke-width: 1.5"/>
    <path d="M 222.769943 153.704791 
L 222.769943 148.873024 
" clip-path="url(#pab2b1fe227)" style="fill: none; stroke: #1f77b4; stroke-width: 1.5"/>
    <path d="M 224.291761 157.570639 
L 224.291761 152.688222 
" clip-path="url(#pab2b1fe227)" style="fill: none; stroke: #1f77b4; stroke-width: 1.5"/>
    <path d="M 225.81358 158.707397 
L 225.81358 154.11776 
" clip-path="url(#pab2b1fe227)" style="fill: none; stroke: #1f77b4; stroke-width: 1.5"/>
    <path d="M 227.335398 157.717714 
L 227.335398 153.108144 
" clip-path="url(#pab2b1fe227)" style="fill: none; stroke: #1f77b4; stroke-width: 1.5"/>
    <path d="M 228.857216 162.315073 
L 228.857216 157.372957 
" clip-path="url(#pab2b1fe227)" style="fill: none; stroke: #1f77b4; stroke-width: 1.5"/>
    <path d="M 230.379034 161.186281 
L 230.379034 156.280315 
" clip-path="url(#pab2b1fe227)" style="fill: none; stroke: #1f77b4; stroke-width: 1.5"/>
    <path d="M 231.900852 158.572528 
L 231.900852 153.901335 
" clip-path="url(#pab2b1fe227)" style="fill: none; stroke: #1f77b4; stroke-width: 1.5"/>
    <path d="M 233.42267 162.847886 
L 233.42267 158.176057 
" clip-path="url(#pab2b1fe227)" style="fill: none; stroke: #1f77b4; stroke-width: 1.5"/>
    <path d="M 234.944489 159.202744 
L 234.944489 154.800132 
" clip-path="url(#pab2b1fe227)" style="fill: none; stroke: #1f77b4; stroke-width: 1.5"/>
    <path d="M 236.466307 162.334355 
L 236.466307 157.708584 
" clip-path="url(#pab2b1fe227)" style="fill: none; stroke: #1f77b4; stroke-width: 1.5"/>
    <path d="M 237.988125 158.165696 
L 237.988125 153.472622 
" clip-path="url(#pab2b1fe227)" style="fill: none; stroke: #1f77b4; stroke-width: 1.5"/>
    <path d="M 239.509943 163.491285 
L 239.509943 158.865661 
" clip-path="url(#pab2b1fe227)" style="fill: none; stroke: #1f77b4; stroke-width: 1.5"/>
    <path d="M 241.031761 160.100004 
L 241.031761 155.594397 
" clip-path="url(#pab2b1fe227)" style="fill: none; stroke: #1f77b4; stroke-width: 1.5"/>
    <path d="M 242.55358 162.945744 
L 242.55358 158.207716 
" clip-path="url(#pab2b1fe227)" style="fill: none; stroke: #1f77b4; stroke-width: 1.5"/>
    <path d="M 244.075398 161.181236 
L 244.075398 156.582714 
" clip-path="url(#pab2b1fe227)" style="fill: none; stroke: #1f77b4; stroke-width: 1.5"/>
    <path d="M 245.597216 167.265422 
L 245.597216 162.527272 
" clip-path="url(#pab2b1fe227)" style="fill: none; stroke: #1f77b4; stroke-width: 1.5"/>
    <path d="M 247.119034 164.57957 
L 247.119034 159.979669 
" clip-path="url(#pab2b1fe227)" style="fill: none; stroke: #1f77b4; stroke-width: 1.5"/>
    <path d="M 248.640852 161.650454 
L 248.640852 157.270485 
" clip-path="url(#pab2b1fe227)" style="fill: none; stroke: #1f77b4; stroke-width: 1.5"/>
    <path d="M 250.16267 160.922438 
L 250.16267 156.408576 
" clip-path="url(#pab2b1fe227)" style="fill: none; stroke: #1f77b4; stroke-width: 1.5"/>
    <path d="M 251.684489 162.790989 
L 251.684489 157.95946 
" clip-path="url(#pab2b1fe227)" style="fill: none; stroke: #1f77b4; stroke-width: 1.5"/>
    <path d="M 253.206307 163.57746 
L 253.206307 158.891539 
" clip-path="url(#pab2b1fe227)" style="fill: none; stroke: #1f77b4; stroke-width: 1.5"/>
    <path d="M 254.728125 163.628776 
L 254.728125 159.140402 
" clip-path="url(#pab2b1fe227)" style="fill: none; stroke: #1f77b4; stroke-width: 1.5"/>
    <path d="M 256.249943 164.067832 
L 256.249943 159.169982 
" clip-path="url(#pab2b1fe227)" style="fill: none; stroke: #1f77b4; stroke-width: 1.5"/>
    <path d="M 257.771761 159.410476 
L 257.771761 154.514005 
" clip-path="url(#pab2b1fe227)" style="fill: none; stroke: #1f77b4; stroke-width: 1.5"/>
    <path d="M 259.29358 159.47871 
L 259.29358 154.58997 
" clip-path="url(#pab2b1fe227)" style="fill: none; stroke: #1f77b4; stroke-width: 1.5"/>
    <path d="M 260.815398 164.146648 
L 260.815398 159.015583 
" clip-path="url(#pab2b1fe227)" style="fill: none; stroke: #1f77b4; stroke-width: 1.5"/>
    <path d="M 262.337216 162.719225 
L 262.337216 157.604628 
" clip-path="url(#pab2b1fe227)" style="fill: none; stroke: #1f77b4; stroke-width: 1.5"/>
    <path d="M 263.859034 161.360993 
L 263.859034 155.973957 
" clip-path="url(#pab2b1fe227)" style="fill: none; stroke: #1f77b4; stroke-width: 1.5"/>
    <path d="M 265.380852 160.336499 
L 265.380852 155.128527 
" clip-path="url(#pab2b1fe227)" style="fill: none; stroke: #1f77b4; stroke-width: 1.5"/>
    <path d="M 266.90267 164.06215 
L 266.90267 158.578602 
" clip-path="url(#pab2b1fe227)" style="fill: none; stroke: #1f77b4; stroke-width: 1.5"/>
    <path d="M 268.424489 164.8603 
L 268.424489 159.460856 
" clip-path="url(#pab2b1fe227)" style="fill: none; stroke: #1f77b4; stroke-width: 1.5"/>
    <path d="M 269.946307 163.300756 
L 269.946307 157.928561 
" clip-path="url(#pab2b1fe227)" style="fill: none; stroke: #1f77b4; stroke-width: 1.5"/>
    <path d="M 271.468125 154.522876 
L 271.468125 149.2005 
" clip-path="url(#pab2b1fe227)" style="fill: none; stroke: #1f77b4; stroke-width: 1.5"/>
    <path d="M 272.989943 161.250564 
L 272.989943 155.781953 
" clip-path="url(#pab2b1fe227)" style="fill: none; stroke: #1f77b4; stroke-width: 1.5"/>
    <path d="M 274.511761 155.6588 
L 274.511761 150.160139 
" clip-path="url(#pab2b1fe227)" style="fill: none; stroke: #1f77b4; stroke-width: 1.5"/>
    <path d="M 276.03358 166.374365 
L 276.03358 161.031433 
" clip-path="url(#pab2b1fe227)" style="fill: none; stroke: #1f77b4; stroke-width: 1.5"/>
    <path d="M 277.555398 163.289731 
L 277.555398 157.387177 
" clip-path="url(#pab2b1fe227)" style="fill: none; stroke: #1f77b4; stroke-width: 1.5"/>
    <path d="M 279.077216 158.471268 
L 279.077216 152.818843 
" clip-path="url(#pab2b1fe227)" style="fill: none; stroke: #1f77b4; stroke-width: 1.5"/>
    <path d="M 280.599034 157.906502 
L 280.599034 152.495544 
" clip-path="url(#pab2b1fe227)" style="fill: none; stroke: #1f77b4; stroke-width: 1.5"/>
    <path d="M 282.120852 160.285208 
L 282.120852 154.635702 
" clip-path="url(#pab2b1fe227)" style="fill: none; stroke: #1f77b4; stroke-width: 1.5"/>
    <path d="M 283.64267 166.190845 
L 283.64267 160.240437 
" clip-path="url(#pab2b1fe227)" style="fill: none; stroke: #1f77b4; stroke-width: 1.5"/>
    <path d="M 285.164489 165.370832 
L 285.164489 159.515487 
" clip-path="url(#pab2b1fe227)" style="fill: none; stroke: #1f77b4; stroke-width: 1.5"/>
    <path d="M 286.686307 164.080655 
L 286.686307 158.333462 
" clip-path="url(#pab2b1fe227)" style="fill: none; stroke: #1f77b4; stroke-width: 1.5"/>
    <path d="M 288.208125 157.446971 
L 288.208125 152.163587 
" clip-path="url(#pab2b1fe227)" style="fill: none; stroke: #1f77b4; stroke-width: 1.5"/>
    <path d="M 289.729943 163.31402 
L 289.729943 157.40096 
" clip-path="url(#pab2b1fe227)" style="fill: none; stroke: #1f77b4; stroke-width: 1.5"/>
    <path d="M 291.251761 165.615253 
L 291.251761 160.144901 
" clip-path="url(#pab2b1fe227)" style="fill: none; stroke: #1f77b4; stroke-width: 1.5"/>
    <path d="M 292.77358 164.734699 
L 292.77358 158.899327 
" clip-path="url(#pab2b1fe227)" style="fill: none; stroke: #1f77b4; stroke-width: 1.5"/>
    <path d="M 294.295398 162.033305 
L 294.295398 156.379047 
" clip-path="url(#pab2b1fe227)" style="fill: none; stroke: #1f77b4; stroke-width: 1.5"/>
    <path d="M 295.817216 161.412414 
L 295.817216 155.703785 
" clip-path="url(#pab2b1fe227)" style="fill: none; stroke: #1f77b4; stroke-width: 1.5"/>
    <path d="M 297.339034 161.175781 
L 297.339034 155.415258 
" clip-path="url(#pab2b1fe227)" style="fill: none; stroke: #1f77b4; stroke-width: 1.5"/>
    <path d="M 298.860852 167.321202 
L 298.860852 161.757388 
" clip-path="url(#pab2b1fe227)" style="fill: none; stroke: #1f77b4; stroke-width: 1.5"/>
    <path d="M 300.38267 162.342563 
L 300.38267 156.267023 
" clip-path="url(#pab2b1fe227)" style="fill: none; stroke: #1f77b4; stroke-width: 1.5"/>
    <path d="M 301.904489 171.488648 
L 301.904489 165.335733 
" clip-path="url(#pab2b1fe227)" style="fill: none; stroke: #1f77b4; stroke-width: 1.5"/>
    <path d="M 303.426307 171.667485 
L 303.426307 165.342156 
" clip-path="url(#pab2b1fe227)" style="fill: none; stroke: #1f77b4; stroke-width: 1.5"/>
    <path d="M 304.948125 170.394068 
L 304.948125 163.755457 
" clip-path="url(#pab2b1fe227)" style="fill: none; stroke: #1f77b4; stroke-width: 1.5"/>
    <path d="M 306.469943 166.111508 
L 306.469943 159.334765 
" clip-path="url(#pab2b1fe227)" style="fill: none; stroke: #1f77b4; stroke-width: 1.5"/>
    <path d="M 307.991761 174.022171 
L 307.991761 167.469394 
" clip-path="url(#pab2b1fe227)" style="fill: none; stroke: #1f77b4; stroke-width: 1.5"/>
    <path d="M 309.51358 172.163089 
L 309.51358 164.786557 
" clip-path="url(#pab2b1fe227)" style="fill: none; stroke: #1f77b4; stroke-width: 1.5"/>
    <path d="M 311.035398 175.318581 
L 311.035398 168.447236 
" clip-path="url(#pab2b1fe227)" style="fill: none; stroke: #1f77b4; stroke-width: 1.5"/>
    <path d="M 312.557216 173.67766 
L 312.557216 166.852371 
" clip-path="url(#pab2b1fe227)" style="fill: none; stroke: #1f77b4; stroke-width: 1.5"/>
    <path d="M 314.079034 174.035946 
L 314.079034 166.78459 
" clip-path="url(#pab2b1fe227)" style="fill: none; stroke: #1f77b4; stroke-width: 1.5"/>
    <path d="M 315.600852 174.504317 
L 315.600852 167.32444 
" clip-path="url(#pab2b1fe227)" style="fill: none; stroke: #1f77b4; stroke-width: 1.5"/>
    <path d="M 317.12267 174.544346 
L 317.12267 167.326947 
" clip-path="url(#pab2b1fe227)" style="fill: none; stroke: #1f77b4; stroke-width: 1.5"/>
    <path d="M 318.644489 172.479885 
L 318.644489 164.660217 
" clip-path="url(#pab2b1fe227)" style="fill: none; stroke: #1f77b4; stroke-width: 1.5"/>
    <path d="M 320.166307 165.79405 
L 320.166307 158.07892 
" clip-path="url(#pab2b1fe227)" style="fill: none; stroke: #1f77b4; stroke-width: 1.5"/>
    <path d="M 321.688125 172.659268 
L 321.688125 164.28403 
" clip-path="url(#pab2b1fe227)" style="fill: none; stroke: #1f77b4; stroke-width: 1.5"/>
    <path d="M 323.209943 176.393288 
L 323.209943 167.658832 
" clip-path="url(#pab2b1fe227)" style="fill: none; stroke: #1f77b4; stroke-width: 1.5"/>
    <path d="M 324.731761 186.66526 
L 324.731761 177.741125 
" clip-path="url(#pab2b1fe227)" style="fill: none; stroke: #1f77b4; stroke-width: 1.5"/>
    <path d="M 326.25358 183.231426 
L 326.25358 174.834403 
" clip-path="url(#pab2b1fe227)" style="fill: none; stroke: #1f77b4; stroke-width: 1.5"/>
    <path d="M 327.775398 178.751282 
L 327.775398 169.921935 
" clip-path="url(#pab2b1fe227)" style="fill: none; stroke: #1f77b4; stroke-width: 1.5"/>
    <path d="M 329.297216 177.024396 
L 329.297216 168.015815 
" clip-path="url(#pab2b1fe227)" style="fill: none; stroke: #1f77b4; stroke-width: 1.5"/>
    <path d="M 330.819034 182.54782 
L 330.819034 172.455629 
" clip-path="url(#pab2b1fe227)" style="fill: none; stroke: #1f77b4; stroke-width: 1.5"/>
    <path d="M 332.340852 184.86232 
L 332.340852 175.398363 
" clip-path="url(#pab2b1fe227)" style="fill: none; stroke: #1f77b4; stroke-width: 1.5"/>
    <path d="M 333.86267 187.077655 
L 333.86267 176.082499 
" clip-path="url(#pab2b1fe227)" style="fill: none; stroke: #1f77b4; stroke-width: 1.5"/>
    <path d="M 335.384489 188.5989 
L 335.384489 178.095662 
" clip-path="url(#pab2b1fe227)" style="fill: none; stroke: #1f77b4; stroke-width: 1.5"/>
    <path d="M 336.906307 189.098922 
L 336.906307 176.733515 
" clip-path="url(#pab2b1fe227)" style="fill: none; stroke: #1f77b4; stroke-width: 1.5"/>
    <path d="M 338.428125 196.803209 
L 338.428125 187.213833 
" clip-path="url(#pab2b1fe227)" style="fill: none; stroke: #1f77b4; stroke-width: 1.5"/>
    <path d="M 339.949943 190.117286 
L 339.949943 178.414741 
" clip-path="url(#pab2b1fe227)" style="fill: none; stroke: #1f77b4; stroke-width: 1.5"/>
    <path d="M 341.471761 197.876851 
L 341.471761 185.365372 
" clip-path="url(#pab2b1fe227)" style="fill: none; stroke: #1f77b4; stroke-width: 1.5"/>
    <path d="M 342.99358 196.632185 
L 342.99358 183.724778 
" clip-path="url(#pab2b1fe227)" style="fill: none; stroke: #1f77b4; stroke-width: 1.5"/>
    <path d="M 344.515398 215.828499 
L 344.515398 211.2056 
" clip-path="url(#pab2b1fe227)" style="fill: none; stroke: #1f77b4; stroke-width: 1.5"/>
    <path d="M 346.037216 214.530382 
L 346.037216 207.745296 
" clip-path="url(#pab2b1fe227)" style="fill: none; stroke: #1f77b4; stroke-width: 1.5"/>
    <path d="M 347.559034 199.614258 
L 347.559034 183.589066 
" clip-path="url(#pab2b1fe227)" style="fill: none; stroke: #1f77b4; stroke-width: 1.5"/>
    <path d="M 349.080852 215.406214 
L 349.080852 198.376434 
" clip-path="url(#pab2b1fe227)" style="fill: none; stroke: #1f77b4; stroke-width: 1.5"/>
    <path d="M 350.60267 213.982502 
L 350.60267 200.127471 
" clip-path="url(#pab2b1fe227)" style="fill: none; stroke: #1f77b4; stroke-width: 1.5"/>
    <path d="M 352.124489 203.699357 
L 352.124489 187.314058 
" clip-path="url(#pab2b1fe227)" style="fill: none; stroke: #1f77b4; stroke-width: 1.5"/>
    <path d="M 353.646307 227.394777 
L 353.646307 209.777687 
" clip-path="url(#pab2b1fe227)" style="fill: none; stroke: #1f77b4; stroke-width: 1.5"/>
    <path d="M 355.168125 229.819609 
L 355.168125 212.047606 
" clip-path="url(#pab2b1fe227)" style="fill: none; stroke: #1f77b4; stroke-width: 1.5"/>
    <path d="M 356.689943 232.382294 
L 356.689943 216.033812 
" clip-path="url(#pab2b1fe227)" style="fill: none; stroke: #1f77b4; stroke-width: 1.5"/>
    <path d="M 358.211761 244.235075 
L 358.211761 212.752275 
" clip-path="url(#pab2b1fe227)" style="fill: none; stroke: #1f77b4; stroke-width: 1.5"/>
    <path d="M 359.73358 257.626473 
L 359.73358 247.114994 
" clip-path="url(#pab2b1fe227)" style="fill: none; stroke: #1f77b4; stroke-width: 1.5"/>
    <path d="M 361.255398 268.439687 
L 361.255398 212.02326 
" clip-path="url(#pab2b1fe227)" style="fill: none; stroke: #1f77b4; stroke-width: 1.5"/>
    <path clip-path="url(#pab2b1fe227)" style="fill: none; stroke: #1f77b4; stroke-width: 1.5"/>
    <path d="M 364.299034 268.439687 
L 364.299034 226.497915 
" clip-path="url(#pab2b1fe227)" style="fill: none; stroke: #1f77b4; stroke-width: 1.5"/>
   </g>
  </g>
 </g>
 <defs>
  <clipPath id="pab2b1fe227">
   <rect x="45.478125" y="7.2" width="334.8" height="221.76"/>
  </clipPath>
 </defs>
</svg>