<?xml version="1.0" encoding="utf-8" standalone="no"?>
<!DOCTYPE svg PUBLIC "-//W3C//DTD SVG 1.1//EN"
  "http://www.w3.org/Graphics/SVG/1.1/DTD/svg11.dtd">
<svg xmlns:xlink="http://www.w3.org/1999/xlink" width="423.916071pt" height="278.315406pt" viewBox="0 0 423.916071 278.315406" xmlns="http://www.w3.org/2000/svg" version="1.1">
 <metadata>
  <rdf:RDF xmlns:dc="http://purl.org/dc/elements/1.1/" xmlns:cc="http://creativecommons.org/ns#" xmlns:rdf="http://www.w3.org/1999/02/22-rdf-syntax-ns#">
   <cc:Work>
    <dc:type rdf:resource="http://purl.org/dc/dcmitype/StillImage"/>
    <dc:date>2024-06-05T11:39:40.620419</dc:date>
    <dc:format>image/svg+xml</dc:format>
    <dc:creator>
     <cc:Agent>
      <dc:title>Matplotlib v3.9.0, https://matplotlib.org/</dc:title>
     </cc:Agent>
    </dc:creator>
   </cc:Work>
  </rdf:RDF>
 </metadata>
 <defs>
  <style type="text/css">*{stroke-linejoin: round; stroke-linecap: butt}</style>
 </defs>
 <g id="figure_1">
  <g id="patch_1">
   <path d="M 0 278.315406 
L 423.916071 278.315406 
L 423.916071 0 
L 0 0 
z
" style="fill: #ffffff"/>
  </g>
  <g id="axes_1">
   <g id="patch_2">
    <path d="M 51.378125 239.835719 
L 416.716071 239.835719 
L 416.716071 10.999219 
L 51.378125 10.999219 
z
" style="fill: #ffffff"/>
   </g>
   <g id="matplotlib.axis_1">
    <g id="xtick_1">
     <g id="line2d_1">
      <defs>
       <path id="m57b9781f53" d="M 0 0 
L 0 3.5 
" style="stroke: #000000; stroke-width: 0.8"/>
      </defs>
      <g>
       <use xlink:href="#m57b9781f53" x="59.468359" y="239.835719" style="stroke: #000000; stroke-width: 0.8"/>
      </g>
     </g>
     <g id="text_1">
      <!-- 0.000 -->
      <g transform="translate(45.154297 254.434156) scale(0.1 -0.1)">
       <defs>
        <path id="DejaVuSans-30" d="M 2034 4250 
Q 1547 4250 1301 3770 
Q 1056 3291 1056 2328 
Q 1056 1369 1301 889 
Q 1547 409 2034 409 
Q 2525 409 2770 889 
Q 3016 1369 3016 2328 
Q 3016 3291 2770 3770 
Q 2525 4250 2034 4250 
z
M 2034 4750 
Q 2819 4750 3233 4129 
Q 3647 3509 3647 2328 
Q 3647 1150 3233 529 
Q 2819 -91 2034 -91 
Q 1250 -91 836 529 
Q 422 1150 422 2328 
Q 422 3509 836 4129 
Q 1250 4750 2034 4750 
z
" transform="scale(0.015625)"/>
        <path id="DejaVuSans-2e" d="M 684 794 
L 1344 794 
L 1344 0 
L 684 0 
L 684 794 
z
" transform="scale(0.015625)"/>
       </defs>
       <use xlink:href="#DejaVuSans-30"/>
       <use xlink:href="#DejaVuSans-2e" x="63.623047"/>
       <use xlink:href="#DejaVuSans-30" x="95.410156"/>
       <use xlink:href="#DejaVuSans-30" x="159.033203"/>
       <use xlink:href="#DejaVuSans-30" x="222.65625"/>
      </g>
     </g>
    </g>
    <g id="xtick_2">
     <g id="line2d_2">
      <g>
       <use xlink:href="#m57b9781f53" x="102.048539" y="239.835719" style="stroke: #000000; stroke-width: 0.8"/>
      </g>
     </g>
     <g id="text_2">
      <!-- 0.025 -->
      <g transform="translate(87.734477 254.434156) scale(0.1 -0.1)">
       <defs>
        <path id="DejaVuSans-32" d="M 1228 531 
L 3431 531 
L 3431 0 
L 469 0 
L 469 531 
Q 828 903 1448 1529 
Q 2069 2156 2228 2338 
Q 2531 2678 2651 2914 
Q 2772 3150 2772 3378 
Q 2772 3750 2511 3984 
Q 2250 4219 1831 4219 
Q 1534 4219 1204 4116 
Q 875 4013 500 3803 
L 500 4441 
Q 881 4594 1212 4672 
Q 1544 4750 1819 4750 
Q 2544 4750 2975 4387 
Q 3406 4025 3406 3419 
Q 3406 3131 3298 2873 
Q 3191 2616 2906 2266 
Q 2828 2175 2409 1742 
Q 1991 1309 1228 531 
z
" transform="scale(0.015625)"/>
        <path id="DejaVuSans-35" d="M 691 4666 
L 3169 4666 
L 3169 4134 
L 1269 4134 
L 1269 2991 
Q 1406 3038 1543 3061 
Q 1681 3084 1819 3084 
Q 2600 3084 3056 2656 
Q 3513 2228 3513 1497 
Q 3513 744 3044 326 
Q 2575 -91 1722 -91 
Q 1428 -91 1123 -41 
Q 819 9 494 109 
L 494 744 
Q 775 591 1075 516 
Q 1375 441 1709 441 
Q 2250 441 2565 725 
Q 2881 1009 2881 1497 
Q 2881 1984 2565 2268 
Q 2250 2553 1709 2553 
Q 1456 2553 1204 2497 
Q 953 2441 691 2322 
L 691 4666 
z
" transform="scale(0.015625)"/>
       </defs>
       <use xlink:href="#DejaVuSans-30"/>
       <use xlink:href="#DejaVuSans-2e" x="63.623047"/>
       <use xlink:href="#DejaVuSans-30" x="95.410156"/>
       <use xlink:href="#DejaVuSans-32" x="159.033203"/>
       <use xlink:href="#DejaVuSans-35" x="222.65625"/>
      </g>
     </g>
    </g>
    <g id="xtick_3">
     <g id="line2d_3">
      <g>
       <use xlink:href="#m57b9781f53" x="144.62872" y="239.835719" style="stroke: #000000; stroke-width: 0.8"/>
      </g>
     </g>
     <g id="text_3">
      <!-- 0.050 -->
      <g transform="translate(130.314657 254.434156) scale(0.1 -0.1)">
       <use xlink:href="#DejaVuSans-30"/>
       <use xlink:href="#DejaVuSans-2e" x="63.623047"/>
       <use xlink:href="#DejaVuSans-30" x="95.410156"/>
       <use xlink:href="#DejaVuSans-35" x="159.033203"/>
       <use xlink:href="#DejaVuSans-30" x="222.65625"/>
      </g>
     </g>
    </g>
    <g id="xtick_4">
     <g id="line2d_4">
      <g>
       <use xlink:href="#m57b9781f53" x="187.2089" y="239.835719" style="stroke: #000000; stroke-width: 0.8"/>
      </g>
     </g>
     <g id="text_4">
      <!-- 0.075 -->
      <g transform="translate(172.894837 254.434156) scale(0.1 -0.1)">
       <defs>
        <path id="DejaVuSans-37" d="M 525 4666 
L 3525 4666 
L 3525 4397 
L 1831 0 
L 1172 0 
L 2766 4134 
L 525 4134 
L 525 4666 
z
" transform="scale(0.015625)"/>
       </defs>
       <use xlink:href="#DejaVuSans-30"/>
       <use xlink:href="#DejaVuSans-2e" x="63.623047"/>
       <use xlink:href="#DejaVuSans-30" x="95.410156"/>
       <use xlink:href="#DejaVuSans-37" x="159.033203"/>
       <use xlink:href="#DejaVuSans-35" x="222.65625"/>
      </g>
     </g>
    </g>
    <g id="xtick_5">
     <g id="line2d_5">
      <g>
       <use xlink:href="#m57b9781f53" x="229.78908" y="239.835719" style="stroke: #000000; stroke-width: 0.8"/>
      </g>
     </g>
     <g id="text_5">
      <!-- 0.100 -->
      <g transform="translate(215.475018 254.434156) scale(0.1 -0.1)">
       <defs>
        <path id="DejaVuSans-31" d="M 794 531 
L 1825 531 
L 1825 4091 
L 703 3866 
L 703 4441 
L 1819 4666 
L 2450 4666 
L 2450 531 
L 3481 531 
L 3481 0 
L 794 0 
L 794 531 
z
" transform="scale(0.015625)"/>
       </defs>
       <use xlink:href="#DejaVuSans-30"/>
       <use xlink:href="#DejaVuSans-2e" x="63.623047"/>
       <use xlink:href="#DejaVuSans-31" x="95.410156"/>
       <use xlink:href="#DejaVuSans-30" x="159.033203"/>
       <use xlink:href="#DejaVuSans-30" x="222.65625"/>
      </g>
     </g>
    </g>
    <g id="xtick_6">
     <g id="line2d_6">
      <g>
       <use xlink:href="#m57b9781f53" x="272.36926" y="239.835719" style="stroke: #000000; stroke-width: 0.8"/>
      </g>
     </g>
     <g id="text_6">
      <!-- 0.125 -->
      <g transform="translate(258.055198 254.434156) scale(0.1 -0.1)">
       <use xlink:href="#DejaVuSans-30"/>
       <use xlink:href="#DejaVuSans-2e" x="63.623047"/>
       <use xlink:href="#DejaVuSans-31" x="95.410156"/>
       <use xlink:href="#DejaVuSans-32" x="159.033203"/>
       <use xlink:href="#DejaVuSans-35" x="222.65625"/>
      </g>
     </g>
    </g>
    <g id="xtick_7">
     <g id="line2d_7">
      <g>
       <use xlink:href="#m57b9781f53" x="314.94944" y="239.835719" style="stroke: #000000; stroke-width: 0.8"/>
      </g>
     </g>
     <g id="text_7">
      <!-- 0.150 -->
      <g transform="translate(300.635378 254.434156) scale(0.1 -0.1)">
       <use xlink:href="#DejaVuSans-30"/>
       <use xlink:href="#DejaVuSans-2e" x="63.623047"/>
       <use xlink:href="#DejaVuSans-31" x="95.410156"/>
       <use xlink:href="#DejaVuSans-35" x="159.033203"/>
       <use xlink:href="#DejaVuSans-30" x="222.65625"/>
      </g>
     </g>
    </g>
    <g id="xtick_8">
     <g id="line2d_8">
      <g>
       <use xlink:href="#m57b9781f53" x="357.529621" y="239.835719" style="stroke: #000000; stroke-width: 0.8"/>
      </g>
     </g>
     <g id="text_8">
      <!-- 0.175 -->
      <g transform="translate(343.215558 254.434156) scale(0.1 -0.1)">
       <use xlink:href="#DejaVuSans-30"/>
       <use xlink:href="#DejaVuSans-2e" x="63.623047"/>
       <use xlink:href="#DejaVuSans-31" x="95.410156"/>
       <use xlink:href="#DejaVuSans-37" x="159.033203"/>
       <use xlink:href="#DejaVuSans-35" x="222.65625"/>
      </g>
     </g>
    </g>
    <g id="xtick_9">
     <g id="line2d_9">
      <g>
       <use xlink:href="#m57b9781f53" x="400.109801" y="239.835719" style="stroke: #000000; stroke-width: 0.8"/>
      </g>
     </g>
     <g id="text_9">
      <!-- 0.200 -->
      <g transform="translate(385.795738 254.434156) scale(0.1 -0.1)">
       <use xlink:href="#DejaVuSans-30"/>
       <use xlink:href="#DejaVuSans-2e" x="63.623047"/>
       <use xlink:href="#DejaVuSans-32" x="95.410156"/>
       <use xlink:href="#DejaVuSans-30" x="159.033203"/>
       <use xlink:href="#DejaVuSans-30" x="222.65625"/>
      </g>
     </g>
    </g>
    <g id="text_10">
     <!-- Q [1/Å] -->
     <g transform="translate(216.334598 269.035719) scale(0.1 -0.1)">
      <defs>
       <path id="DejaVuSans-51" d="M 2522 4238 
Q 1834 4238 1429 3725 
Q 1025 3213 1025 2328 
Q 1025 1447 1429 934 
Q 1834 422 2522 422 
Q 3209 422 3611 934 
Q 4013 1447 4013 2328 
Q 4013 3213 3611 3725 
Q 3209 4238 2522 4238 
z
M 3406 84 
L 4238 -825 
L 3475 -825 
L 2784 -78 
Q 2681 -84 2626 -87 
Q 2572 -91 2522 -91 
Q 1538 -91 948 567 
Q 359 1225 359 2328 
Q 359 3434 948 4092 
Q 1538 4750 2522 4750 
Q 3503 4750 4090 4092 
Q 4678 3434 4678 2328 
Q 4678 1516 4351 937 
Q 4025 359 3406 84 
z
" transform="scale(0.015625)"/>
       <path id="DejaVuSans-20" transform="scale(0.015625)"/>
       <path id="DejaVuSans-5b" d="M 550 4863 
L 1875 4863 
L 1875 4416 
L 1125 4416 
L 1125 -397 
L 1875 -397 
L 1875 -844 
L 550 -844 
L 550 4863 
z
" transform="scale(0.015625)"/>
       <path id="DejaVuSans-2f" d="M 1625 4666 
L 2156 4666 
L 531 -594 
L 0 -594 
L 1625 4666 
z
" transform="scale(0.015625)"/>
       <path id="DejaVuSans-c5" d="M 2663 5081 
Q 2663 5278 2523 5417 
Q 2384 5556 2188 5556 
Q 1988 5556 1852 5420 
Q 1716 5284 1716 5081 
Q 1716 4884 1853 4746 
Q 1991 4609 2188 4609 
Q 2384 4609 2523 4746 
Q 2663 4884 2663 5081 
z
M 2188 4044 
L 1338 1722 
L 3041 1722 
L 2188 4044 
z
M 1716 4366 
Q 1525 4494 1428 4673 
Q 1331 4853 1331 5081 
Q 1331 5441 1579 5691 
Q 1828 5941 2188 5941 
Q 2544 5941 2795 5689 
Q 3047 5438 3047 5081 
Q 3047 4863 2948 4678 
Q 2850 4494 2663 4366 
L 4325 0 
L 3669 0 
L 3244 1197 
L 1141 1197 
L 716 0 
L 50 0 
L 1716 4366 
z
" transform="scale(0.015625)"/>
       <path id="DejaVuSans-5d" d="M 1947 4863 
L 1947 -844 
L 622 -844 
L 622 -397 
L 1369 -397 
L 1369 4416 
L 622 4416 
L 622 4863 
L 1947 4863 
z
" transform="scale(0.015625)"/>
      </defs>
      <use xlink:href="#DejaVuSans-51"/>
      <use xlink:href="#DejaVuSans-20" x="78.710938"/>
      <use xlink:href="#DejaVuSans-5b" x="110.498047"/>
      <use xlink:href="#DejaVuSans-31" x="149.511719"/>
      <use xlink:href="#DejaVuSans-2f" x="213.134766"/>
      <use xlink:href="#DejaVuSans-c5" x="246.826172"/>
      <use xlink:href="#DejaVuSans-5d" x="315.234375"/>
     </g>
    </g>
   </g>
   <g id="matplotlib.axis_2">
    <g id="ytick_1">
     <g id="line2d_10">
      <defs>
       <path id="m82f44befa2" d="M 0 0 
L -3.5 0 
" style="stroke: #000000; stroke-width: 0.8"/>
      </defs>
      <g>
       <use xlink:href="#m82f44befa2" x="51.378125" y="239.835719" style="stroke: #000000; stroke-width: 0.8"/>
      </g>
     </g>
     <g id="text_11">
      <!-- $\mathdefault{10^{-3}}$ -->
      <g transform="translate(20.878125 243.634937) scale(0.1 -0.1)">
       <defs>
        <path id="DejaVuSans-2212" d="M 678 2272 
L 4684 2272 
L 4684 1741 
L 678 1741 
L 678 2272 
z
" transform="scale(0.015625)"/>
        <path id="DejaVuSans-33" d="M 2597 2516 
Q 3050 2419 3304 2112 
Q 3559 1806 3559 1356 
Q 3559 666 3084 287 
Q 2609 -91 1734 -91 
Q 1441 -91 1130 -33 
Q 819 25 488 141 
L 488 750 
Q 750 597 1062 519 
Q 1375 441 1716 441 
Q 2309 441 2620 675 
Q 2931 909 2931 1356 
Q 2931 1769 2642 2001 
Q 2353 2234 1838 2234 
L 1294 2234 
L 1294 2753 
L 1863 2753 
Q 2328 2753 2575 2939 
Q 2822 3125 2822 3475 
Q 2822 3834 2567 4026 
Q 2313 4219 1838 4219 
Q 1578 4219 1281 4162 
Q 984 4106 628 3988 
L 628 4550 
Q 988 4650 1302 4700 
Q 1616 4750 1894 4750 
Q 2613 4750 3031 4423 
Q 3450 4097 3450 3541 
Q 3450 3153 3228 2886 
Q 3006 2619 2597 2516 
z
" transform="scale(0.015625)"/>
       </defs>
       <use xlink:href="#DejaVuSans-31" transform="translate(0 0.765625)"/>
       <use xlink:href="#DejaVuSans-30" transform="translate(63.623047 0.765625)"/>
       <use xlink:href="#DejaVuSans-2212" transform="translate(128.203125 39.046875) scale(0.7)"/>
       <use xlink:href="#DejaVuSans-33" transform="translate(186.855469 39.046875) scale(0.7)"/>
      </g>
     </g>
    </g>
    <g id="ytick_2">
     <g id="line2d_11">
      <g>
       <use xlink:href="#m82f44befa2" x="51.378125" y="182.626594" style="stroke: #000000; stroke-width: 0.8"/>
      </g>
     </g>
     <g id="text_12">
      <!-- $\mathdefault{10^{-2}}$ -->
      <g transform="translate(20.878125 186.425812) scale(0.1 -0.1)">
       <use xlink:href="#DejaVuSans-31" transform="translate(0 0.765625)"/>
       <use xlink:href="#DejaVuSans-30" transform="translate(63.623047 0.765625)"/>
       <use xlink:href="#DejaVuSans-2212" transform="translate(128.203125 39.046875) scale(0.7)"/>
       <use xlink:href="#DejaVuSans-32" transform="translate(186.855469 39.046875) scale(0.7)"/>
      </g>
     </g>
    </g>
    <g id="ytick_3">
     <g id="line2d_12">
      <g>
       <use xlink:href="#m82f44befa2" x="51.378125" y="125.417469" style="stroke: #000000; stroke-width: 0.8"/>
      </g>
     </g>
     <g id="text_13">
      <!-- $\mathdefault{10^{-1}}$ -->
      <g transform="translate(20.878125 129.216687) scale(0.1 -0.1)">
       <use xlink:href="#DejaVuSans-31" transform="translate(0 0.684375)"/>
       <use xlink:href="#DejaVuSans-30" transform="translate(63.623047 0.684375)"/>
       <use xlink:href="#DejaVuSans-2212" transform="translate(128.203125 38.965625) scale(0.7)"/>
       <use xlink:href="#DejaVuSans-31" transform="translate(186.855469 38.965625) scale(0.7)"/>
      </g>
     </g>
    </g>
    <g id="ytick_4">
     <g id="line2d_13">
      <g>
       <use xlink:href="#m82f44befa2" x="51.378125" y="68.208344" style="stroke: #000000; stroke-width: 0.8"/>
      </g>
     </g>
     <g id="text_14">
      <!-- $\mathdefault{10^{0}}$ -->
      <g transform="translate(26.778125 72.007562) scale(0.1 -0.1)">
       <use xlink:href="#DejaVuSans-31" transform="translate(0 0.765625)"/>
       <use xlink:href="#DejaVuSans-30" transform="translate(63.623047 0.765625)"/>
       <use xlink:href="#DejaVuSans-30" transform="translate(128.203125 39.046875) scale(0.7)"/>
      </g>
     </g>
    </g>
    <g id="ytick_5">
     <g id="line2d_14">
      <g>
       <use xlink:href="#m82f44befa2" x="51.378125" y="10.999219" style="stroke: #000000; stroke-width: 0.8"/>
      </g>
     </g>
     <g id="text_15">
      <!-- $\mathdefault{10^{1}}$ -->
      <g transform="translate(26.778125 14.798437) scale(0.1 -0.1)">
       <use xlink:href="#DejaVuSans-31" transform="translate(0 0.684375)"/>
       <use xlink:href="#DejaVuSans-30" transform="translate(63.623047 0.684375)"/>
       <use xlink:href="#DejaVuSans-31" transform="translate(128.203125 38.965625) scale(0.7)"/>
      </g>
     </g>
    </g>
    <g id="ytick_6">
     <g id="line2d_15">
      <defs>
       <path id="m314628b292" d="M 0 0 
L -2 0 
" style="stroke: #000000; stroke-width: 0.6"/>
      </defs>
      <g>
       <use xlink:href="#m314628b292" x="51.378125" y="222.614056" style="stroke: #000000; stroke-width: 0.6"/>
      </g>
     </g>
    </g>
    <g id="ytick_7">
     <g id="line2d_16">
      <g>
       <use xlink:href="#m314628b292" x="51.378125" y="212.540029" style="stroke: #000000; stroke-width: 0.6"/>
      </g>
     </g>
    </g>
    <g id="ytick_8">
     <g id="line2d_17">
      <g>
       <use xlink:href="#m314628b292" x="51.378125" y="205.392393" style="stroke: #000000; stroke-width: 0.6"/>
      </g>
     </g>
    </g>
    <g id="ytick_9">
     <g id="line2d_18">
      <g>
       <use xlink:href="#m314628b292" x="51.378125" y="199.848256" style="stroke: #000000; stroke-width: 0.6"/>
      </g>
     </g>
    </g>
    <g id="ytick_10">
     <g id="line2d_19">
      <g>
       <use xlink:href="#m314628b292" x="51.378125" y="195.318367" style="stroke: #000000; stroke-width: 0.6"/>
      </g>
     </g>
    </g>
    <g id="ytick_11">
     <g id="line2d_20">
      <g>
       <use xlink:href="#m314628b292" x="51.378125" y="191.488399" style="stroke: #000000; stroke-width: 0.6"/>
      </g>
     </g>
    </g>
    <g id="ytick_12">
     <g id="line2d_21">
      <g>
       <use xlink:href="#m314628b292" x="51.378125" y="188.170731" style="stroke: #000000; stroke-width: 0.6"/>
      </g>
     </g>
    </g>
    <g id="ytick_13">
     <g id="line2d_22">
      <g>
       <use xlink:href="#m314628b292" x="51.378125" y="185.24434" style="stroke: #000000; stroke-width: 0.6"/>
      </g>
     </g>
    </g>
    <g id="ytick_14">
     <g id="line2d_23">
      <g>
       <use xlink:href="#m314628b292" x="51.378125" y="165.404931" style="stroke: #000000; stroke-width: 0.6"/>
      </g>
     </g>
    </g>
    <g id="ytick_15">
     <g id="line2d_24">
      <g>
       <use xlink:href="#m314628b292" x="51.378125" y="155.330904" style="stroke: #000000; stroke-width: 0.6"/>
      </g>
     </g>
    </g>
    <g id="ytick_16">
     <g id="line2d_25">
      <g>
       <use xlink:href="#m314628b292" x="51.378125" y="148.183268" style="stroke: #000000; stroke-width: 0.6"/>
      </g>
     </g>
    </g>
    <g id="ytick_17">
     <g id="line2d_26">
      <g>
       <use xlink:href="#m314628b292" x="51.378125" y="142.639131" style="stroke: #000000; stroke-width: 0.6"/>
      </g>
     </g>
    </g>
    <g id="ytick_18">
     <g id="line2d_27">
      <g>
       <use xlink:href="#m314628b292" x="51.378125" y="138.109242" style="stroke: #000000; stroke-width: 0.6"/>
      </g>
     </g>
    </g>
    <g id="ytick_19">
     <g id="line2d_28">
      <g>
       <use xlink:href="#m314628b292" x="51.378125" y="134.279274" style="stroke: #000000; stroke-width: 0.6"/>
      </g>
     </g>
    </g>
    <g id="ytick_20">
     <g id="line2d_29">
      <g>
       <use xlink:href="#m314628b292" x="51.378125" y="130.961606" style="stroke: #000000; stroke-width: 0.6"/>
      </g>
     </g>
    </g>
    <g id="ytick_21">
     <g id="line2d_30">
      <g>
       <use xlink:href="#m314628b292" x="51.378125" y="128.035215" style="stroke: #000000; stroke-width: 0.6"/>
      </g>
     </g>
    </g>
    <g id="ytick_22">
     <g id="line2d_31">
      <g>
       <use xlink:href="#m314628b292" x="51.378125" y="108.195806" style="stroke: #000000; stroke-width: 0.6"/>
      </g>
     </g>
    </g>
    <g id="ytick_23">
     <g id="line2d_32">
      <g>
       <use xlink:href="#m314628b292" x="51.378125" y="98.121779" style="stroke: #000000; stroke-width: 0.6"/>
      </g>
     </g>
    </g>
    <g id="ytick_24">
     <g id="line2d_33">
      <g>
       <use xlink:href="#m314628b292" x="51.378125" y="90.974143" style="stroke: #000000; stroke-width: 0.6"/>
      </g>
     </g>
    </g>
    <g id="ytick_25">
     <g id="line2d_34">
      <g>
       <use xlink:href="#m314628b292" x="51.378125" y="85.430006" style="stroke: #000000; stroke-width: 0.6"/>
      </g>
     </g>
    </g>
    <g id="ytick_26">
     <g id="line2d_35">
      <g>
       <use xlink:href="#m314628b292" x="51.378125" y="80.900117" style="stroke: #000000; stroke-width: 0.6"/>
      </g>
     </g>
    </g>
    <g id="ytick_27">
     <g id="line2d_36">
      <g>
       <use xlink:href="#m314628b292" x="51.378125" y="77.070149" style="stroke: #000000; stroke-width: 0.6"/>
      </g>
     </g>
    </g>
    <g id="ytick_28">
     <g id="line2d_37">
      <g>
       <use xlink:href="#m314628b292" x="51.378125" y="73.752481" style="stroke: #000000; stroke-width: 0.6"/>
      </g>
     </g>
    </g>
    <g id="ytick_29">
     <g id="line2d_38">
      <g>
       <use xlink:href="#m314628b292" x="51.378125" y="70.82609" style="stroke: #000000; stroke-width: 0.6"/>
      </g>
     </g>
    </g>
    <g id="ytick_30">
     <g id="line2d_39">
      <g>
       <use xlink:href="#m314628b292" x="51.378125" y="50.986681" style="stroke: #000000; stroke-width: 0.6"/>
      </g>
     </g>
    </g>
    <g id="ytick_31">
     <g id="line2d_40">
      <g>
       <use xlink:href="#m314628b292" x="51.378125" y="40.912654" style="stroke: #000000; stroke-width: 0.6"/>
      </g>
     </g>
    </g>
    <g id="ytick_32">
     <g id="line2d_41">
      <g>
       <use xlink:href="#m314628b292" x="51.378125" y="33.765018" style="stroke: #000000; stroke-width: 0.6"/>
      </g>
     </g>
    </g>
    <g id="ytick_33">
     <g id="line2d_42">
      <g>
       <use xlink:href="#m314628b292" x="51.378125" y="28.220881" style="stroke: #000000; stroke-width: 0.6"/>
      </g>
     </g>
    </g>
    <g id="ytick_34">
     <g id="line2d_43">
      <g>
       <use xlink:href="#m314628b292" x="51.378125" y="23.690992" style="stroke: #000000; stroke-width: 0.6"/>
      </g>
     </g>
    </g>
    <g id="ytick_35">
     <g id="line2d_44">
      <g>
       <use xlink:href="#m314628b292" x="51.378125" y="19.861024" style="stroke: #000000; stroke-width: 0.6"/>
      </g>
     </g>
    </g>
    <g id="ytick_36">
     <g id="line2d_45">
      <g>
       <use xlink:href="#m314628b292" x="51.378125" y="16.543356" style="stroke: #000000; stroke-width: 0.6"/>
      </g>
     </g>
    </g>
    <g id="ytick_37">
     <g id="line2d_46">
      <g>
       <use xlink:href="#m314628b292" x="51.378125" y="13.616965" style="stroke: #000000; stroke-width: 0.6"/>
      </g>
     </g>
    </g>
    <g id="text_16">
     <!-- [dimensionless] -->
     <g transform="translate(14.798438 164.894812) rotate(-90) scale(0.1 -0.1)">
      <defs>
       <path id="DejaVuSans-64" d="M 2906 2969 
L 2906 4863 
L 3481 4863 
L 3481 0 
L 2906 0 
L 2906 525 
Q 2725 213 2448 61 
Q 2172 -91 1784 -91 
Q 1150 -91 751 415 
Q 353 922 353 1747 
Q 353 2572 751 3078 
Q 1150 3584 1784 3584 
Q 2172 3584 2448 3432 
Q 2725 3281 2906 2969 
z
M 947 1747 
Q 947 1113 1208 752 
Q 1469 391 1925 391 
Q 2381 391 2643 752 
Q 2906 1113 2906 1747 
Q 2906 2381 2643 2742 
Q 2381 3103 1925 3103 
Q 1469 3103 1208 2742 
Q 947 2381 947 1747 
z
" transform="scale(0.015625)"/>
       <path id="DejaVuSans-69" d="M 603 3500 
L 1178 3500 
L 1178 0 
L 603 0 
L 603 3500 
z
M 603 4863 
L 1178 4863 
L 1178 4134 
L 603 4134 
L 603 4863 
z
" transform="scale(0.015625)"/>
       <path id="DejaVuSans-6d" d="M 3328 2828 
Q 3544 3216 3844 3400 
Q 4144 3584 4550 3584 
Q 5097 3584 5394 3201 
Q 5691 2819 5691 2113 
L 5691 0 
L 5113 0 
L 5113 2094 
Q 5113 2597 4934 2840 
Q 4756 3084 4391 3084 
Q 3944 3084 3684 2787 
Q 3425 2491 3425 1978 
L 3425 0 
L 2847 0 
L 2847 2094 
Q 2847 2600 2669 2842 
Q 2491 3084 2119 3084 
Q 1678 3084 1418 2786 
Q 1159 2488 1159 1978 
L 1159 0 
L 581 0 
L 581 3500 
L 1159 3500 
L 1159 2956 
Q 1356 3278 1631 3431 
Q 1906 3584 2284 3584 
Q 2666 3584 2933 3390 
Q 3200 3197 3328 2828 
z
" transform="scale(0.015625)"/>
       <path id="DejaVuSans-65" d="M 3597 1894 
L 3597 1613 
L 953 1613 
Q 991 1019 1311 708 
Q 1631 397 2203 397 
Q 2534 397 2845 478 
Q 3156 559 3463 722 
L 3463 178 
Q 3153 47 2828 -22 
Q 2503 -91 2169 -91 
Q 1331 -91 842 396 
Q 353 884 353 1716 
Q 353 2575 817 3079 
Q 1281 3584 2069 3584 
Q 2775 3584 3186 3129 
Q 3597 2675 3597 1894 
z
M 3022 2063 
Q 3016 2534 2758 2815 
Q 2500 3097 2075 3097 
Q 1594 3097 1305 2825 
Q 1016 2553 972 2059 
L 3022 2063 
z
" transform="scale(0.015625)"/>
       <path id="DejaVuSans-6e" d="M 3513 2113 
L 3513 0 
L 2938 0 
L 2938 2094 
Q 2938 2591 2744 2837 
Q 2550 3084 2163 3084 
Q 1697 3084 1428 2787 
Q 1159 2491 1159 1978 
L 1159 0 
L 581 0 
L 581 3500 
L 1159 3500 
L 1159 2956 
Q 1366 3272 1645 3428 
Q 1925 3584 2291 3584 
Q 2894 3584 3203 3211 
Q 3513 2838 3513 2113 
z
" transform="scale(0.015625)"/>
       <path id="DejaVuSans-73" d="M 2834 3397 
L 2834 2853 
Q 2591 2978 2328 3040 
Q 2066 3103 1784 3103 
Q 1356 3103 1142 2972 
Q 928 2841 928 2578 
Q 928 2378 1081 2264 
Q 1234 2150 1697 2047 
L 1894 2003 
Q 2506 1872 2764 1633 
Q 3022 1394 3022 966 
Q 3022 478 2636 193 
Q 2250 -91 1575 -91 
Q 1294 -91 989 -36 
Q 684 19 347 128 
L 347 722 
Q 666 556 975 473 
Q 1284 391 1588 391 
Q 1994 391 2212 530 
Q 2431 669 2431 922 
Q 2431 1156 2273 1281 
Q 2116 1406 1581 1522 
L 1381 1569 
Q 847 1681 609 1914 
Q 372 2147 372 2553 
Q 372 3047 722 3315 
Q 1072 3584 1716 3584 
Q 2034 3584 2315 3537 
Q 2597 3491 2834 3397 
z
" transform="scale(0.015625)"/>
       <path id="DejaVuSans-6f" d="M 1959 3097 
Q 1497 3097 1228 2736 
Q 959 2375 959 1747 
Q 959 1119 1226 758 
Q 1494 397 1959 397 
Q 2419 397 2687 759 
Q 2956 1122 2956 1747 
Q 2956 2369 2687 2733 
Q 2419 3097 1959 3097 
z
M 1959 3584 
Q 2709 3584 3137 3096 
Q 3566 2609 3566 1747 
Q 3566 888 3137 398 
Q 2709 -91 1959 -91 
Q 1206 -91 779 398 
Q 353 888 353 1747 
Q 353 2609 779 3096 
Q 1206 3584 1959 3584 
z
" transform="scale(0.015625)"/>
       <path id="DejaVuSans-6c" d="M 603 4863 
L 1178 4863 
L 1178 0 
L 603 0 
L 603 4863 
z
" transform="scale(0.015625)"/>
      </defs>
      <use xlink:href="#DejaVuSans-5b"/>
      <use xlink:href="#DejaVuSans-64" x="39.013672"/>
      <use xlink:href="#DejaVuSans-69" x="102.490234"/>
      <use xlink:href="#DejaVuSans-6d" x="130.273438"/>
      <use xlink:href="#DejaVuSans-65" x="227.685547"/>
      <use xlink:href="#DejaVuSans-6e" x="289.208984"/>
      <use xlink:href="#DejaVuSans-73" x="352.587891"/>
      <use xlink:href="#DejaVuSans-69" x="404.6875"/>
      <use xlink:href="#DejaVuSans-6f" x="432.470703"/>
      <use xlink:href="#DejaVuSans-6e" x="493.652344"/>
      <use xlink:href="#DejaVuSans-6c" x="557.03125"/>
      <use xlink:href="#DejaVuSans-65" x="584.814453"/>
      <use xlink:href="#DejaVuSans-73" x="646.337891"/>
      <use xlink:href="#DejaVuSans-73" x="698.4375"/>
      <use xlink:href="#DejaVuSans-5d" x="750.537109"/>
     </g>
    </g>
   </g>
   <g id="patch_3">
    <path d="M 51.378125 239.835719 
L 51.378125 10.999219 
" style="fill: none; stroke: #000000; stroke-width: 0.8; stroke-linejoin: miter; stroke-linecap: square"/>
   </g>
   <g id="patch_4">
    <path d="M 416.716071 239.835719 
L 416.716071 10.999219 
" style="fill: none; stroke: #000000; stroke-width: 0.8; stroke-linejoin: miter; stroke-linecap: square"/>
   </g>
   <g id="patch_5">
    <path d="M 51.378125 239.835719 
L 416.716071 239.835719 
" style="fill: none; stroke: #000000; stroke-width: 0.8; stroke-linejoin: miter; stroke-linecap: square"/>
   </g>
   <g id="patch_6">
    <path d="M 51.378125 10.999219 
L 416.716071 10.999219 
" style="fill: none; stroke: #000000; stroke-width: 0.8; stroke-linejoin: miter; stroke-linecap: square"/>
   </g>
   <g id="line2d_47">
    <path d="M 67.984395 31.143087 
L 69.645022 31.143087 
L 69.645022 30.184406 
L 71.305649 30.184406 
L 71.305649 29.865992 
L 72.966276 29.865992 
L 72.966276 30.176512 
L 74.626903 30.176512 
L 74.626903 28.970154 
L 76.28753 28.970154 
L 76.28753 31.208462 
L 77.948157 31.208462 
L 77.948157 32.932076 
L 79.608784 32.932076 
L 79.608784 30.048182 
L 81.269411 30.048182 
L 81.269411 32.169553 
L 82.930039 32.169553 
L 82.930039 36.135446 
L 84.590666 36.135446 
L 84.590666 35.95554 
L 86.251293 35.95554 
L 86.251293 39.066318 
L 87.91192 39.066318 
L 87.91192 36.760847 
L 89.572547 36.760847 
L 89.572547 38.112851 
L 91.233174 38.112851 
L 91.233174 40.803535 
L 92.893801 40.803535 
L 92.893801 44.143341 
L 94.554428 44.143341 
L 94.554428 46.04113 
L 96.215055 46.04113 
L 96.215055 44.991004 
L 97.875682 44.991004 
L 97.875682 48.812628 
L 99.536309 48.812628 
L 99.536309 48.401873 
L 101.196936 48.401873 
L 101.196936 55.79534 
L 102.857563 55.79534 
L 102.857563 56.460108 
L 104.51819 56.460108 
L 104.51819 61.061863 
L 106.178817 61.061863 
L 106.178817 64.074371 
L 107.839444 64.074371 
L 107.839444 67.161789 
L 109.500071 67.161789 
L 109.500071 62.22629 
L 111.160698 62.22629 
L 111.160698 68.348207 
L 112.821325 68.348207 
L 112.821325 74.744599 
L 114.481952 74.744599 
L 114.481952 77.063049 
L 116.142579 77.063049 
L 116.142579 79.149981 
L 117.803206 79.149981 
L 117.803206 82.764416 
L 119.463833 82.764416 
L 119.463833 85.203644 
L 121.12446 85.203644 
L 121.12446 90.439402 
L 122.785087 90.439402 
L 122.785087 95.673776 
L 124.445714 95.673776 
L 124.445714 103.787481 
L 126.106341 103.787481 
L 126.106341 109.656993 
L 127.766968 109.656993 
L 127.766968 120.518331 
L 129.427595 120.518331 
L 129.427595 120.878898 
L 131.088222 120.878898 
L 131.088222 121.776825 
L 132.748849 121.776825 
L 132.748849 134.909445 
L 134.409476 134.909445 
L 134.409476 143.159096 
L 136.070103 143.159096 
L 136.070103 142.889068 
L 137.73073 142.889068 
L 137.73073 156.334146 
L 139.391357 156.334146 
L 139.391357 157.057213 
L 141.051984 157.057213 
L 141.051984 161.34039 
L 142.712612 161.34039 
L 142.712612 160.455525 
L 144.373239 160.455525 
L 144.373239 159.914402 
L 146.033866 159.914402 
L 146.033866 163.246402 
L 147.694493 163.246402 
L 147.694493 156.171884 
L 149.35512 156.171884 
L 149.35512 154.342687 
L 151.015747 154.342687 
L 151.015747 153.942757 
L 152.676374 153.942757 
L 152.676374 146.4672 
L 154.337001 146.4672 
L 154.337001 145.507329 
L 155.997628 145.507329 
L 155.997628 142.880941 
L 157.658255 142.880941 
L 157.658255 142.295214 
L 159.318882 142.295214 
L 159.318882 141.123426 
L 160.979509 141.123426 
L 160.979509 141.008136 
L 162.640136 141.008136 
L 162.640136 136.728181 
L 164.300763 136.728181 
L 164.300763 133.666573 
L 165.96139 133.666573 
L 165.96139 141.652589 
L 167.622017 141.652589 
L 167.622017 131.282014 
L 169.282644 131.282014 
L 169.282644 137.95065 
L 170.943271 137.95065 
L 170.943271 135.5098 
L 172.603898 135.5098 
L 172.603898 141.035156 
L 174.264525 141.035156 
L 174.264525 133.686846 
L 175.925152 133.686846 
L 175.925152 133.559185 
L 177.585779 133.559185 
L 177.585779 142.672311 
L 179.246406 142.672311 
L 179.246406 146.978459 
L 180.907033 146.978459 
L 180.907033 149.727538 
L 182.56766 149.727538 
L 182.56766 153.247887 
L 184.228287 153.247887 
L 184.228287 153.690554 
L 185.888914 153.690554 
L 185.888914 151.246305 
L 187.549541 151.246305 
L 187.549541 162.498714 
L 189.210168 162.498714 
L 189.210168 154.896475 
L 190.870795 154.896475 
L 190.870795 162.466907 
L 192.531422 162.466907 
L 192.531422 156.722433 
L 194.192049 156.722433 
L 194.192049 161.349359 
L 195.852676 161.349359 
L 195.852676 162.976594 
L 197.513303 162.976594 
L 197.513303 165.339005 
L 199.17393 165.339005 
L 199.17393 164.723681 
L 200.834557 164.723681 
L 200.834557 160.931406 
L 202.495185 160.931406 
L 202.495185 162.662119 
L 204.155812 162.662119 
L 204.155812 166.431725 
L 205.816439 166.431725 
L 205.816439 173.942667 
L 207.477066 173.942667 
L 207.477066 167.250029 
L 209.137693 167.250029 
L 209.137693 167.642065 
L 210.79832 167.642065 
L 210.79832 163.062253 
L 212.458947 163.062253 
L 212.458947 162.693874 
L 214.119574 162.693874 
L 214.119574 166.371125 
L 215.780201 166.371125 
L 215.780201 168.350344 
L 217.440828 168.350344 
L 217.440828 165.660876 
L 219.101455 165.660876 
L 219.101455 161.364451 
L 220.762082 161.364451 
L 220.762082 158.357309 
L 222.422709 158.357309 
L 222.422709 155.969431 
L 224.083336 155.969431 
L 224.083336 165.111412 
L 225.743963 165.111412 
L 225.743963 156.607028 
L 227.40459 156.607028 
L 227.40459 158.477637 
L 229.065217 158.477637 
L 229.065217 159.981772 
L 230.725844 159.981772 
L 230.725844 157.071366 
L 232.386471 157.071366 
L 232.386471 156.117135 
L 234.047098 156.117135 
L 234.047098 154.580926 
L 235.707725 154.580926 
L 235.707725 166.358128 
L 237.368352 166.358128 
L 237.368352 166.18939 
L 239.028979 166.18939 
L 239.028979 159.441042 
L 240.689606 159.441042 
L 240.689606 157.438284 
L 242.350233 157.438284 
L 242.350233 161.477991 
L 244.01086 161.477991 
L 244.01086 169.387734 
L 245.671487 169.387734 
L 245.671487 163.62035 
L 247.332114 163.62035 
L 247.332114 166.920154 
L 248.992741 166.920154 
L 248.992741 168.239024 
L 250.653368 168.239024 
L 250.653368 162.76403 
L 252.313995 162.76403 
L 252.313995 167.894539 
L 253.974622 167.894539 
L 253.974622 164.831113 
L 255.635249 164.831113 
L 255.635249 173.005942 
L 257.295876 173.005942 
L 257.295876 164.606622 
L 258.956503 164.606622 
L 258.956503 168.220735 
L 260.61713 168.220735 
L 260.61713 169.509522 
L 262.277758 169.509522 
L 262.277758 165.9811 
L 263.938385 165.9811 
L 263.938385 166.479175 
L 265.599012 166.479175 
L 265.599012 169.227349 
L 267.259639 169.227349 
L 267.259639 163.247111 
L 268.920266 163.247111 
L 268.920266 164.185644 
L 270.580893 164.185644 
L 270.580893 168.439878 
L 272.24152 168.439878 
L 272.24152 163.620567 
L 273.902147 163.620567 
L 273.902147 163.251339 
L 275.562774 163.251339 
L 275.562774 168.018123 
L 277.223401 168.018123 
L 277.223401 165.87952 
L 278.884028 165.87952 
L 278.884028 171.420106 
L 280.544655 171.420106 
L 280.544655 158.194277 
L 282.205282 158.194277 
L 282.205282 162.610303 
L 283.865909 162.610303 
L 283.865909 164.648767 
L 285.526536 164.648767 
L 285.526536 175.769696 
L 287.187163 175.769696 
L 287.187163 163.421462 
L 288.84779 163.421462 
L 288.84779 164.424956 
L 290.508417 164.424956 
L 290.508417 163.622808 
L 292.169044 163.622808 
L 292.169044 153.520567 
L 293.829671 153.520567 
L 293.829671 170.578464 
L 295.490298 170.578464 
L 295.490298 163.254116 
L 297.150925 163.254116 
L 297.150925 165.783712 
L 298.811552 165.783712 
L 298.811552 168.100507 
L 300.472179 168.100507 
L 300.472179 161.604778 
L 302.132806 161.604778 
L 302.132806 162.938463 
L 303.793433 162.938463 
L 303.793433 158.392629 
L 305.45406 158.392629 
L 305.45406 167.84435 
L 307.114687 167.84435 
L 307.114687 166.680931 
L 308.775314 166.680931 
L 308.775314 171.927733 
L 310.435941 171.927733 
L 310.435941 168.004519 
L 312.096568 168.004519 
L 312.096568 169.125546 
L 313.757195 169.125546 
L 313.757195 167.474432 
L 315.417822 167.474432 
L 315.417822 159.410528 
L 317.078449 159.410528 
L 317.078449 160.357718 
L 318.739076 160.357718 
L 318.739076 167.052574 
L 320.399703 167.052574 
L 320.399703 161.073846 
L 322.060331 161.073846 
L 322.060331 162.74284 
L 323.720958 162.74284 
L 323.720958 161.655915 
L 325.381585 161.655915 
L 325.381585 158.800822 
L 327.042212 158.800822 
L 327.042212 166.533985 
L 328.702839 166.533985 
L 328.702839 172.431324 
L 330.363466 172.431324 
L 330.363466 164.107937 
L 332.024093 164.107937 
L 332.024093 167.999907 
L 333.68472 167.999907 
L 333.68472 169.025977 
L 335.345347 169.025977 
L 335.345347 171.817461 
L 337.005974 171.817461 
L 337.005974 183.652142 
L 338.666601 183.652142 
L 338.666601 167.995434 
L 340.327228 167.995434 
L 340.327228 176.010123 
L 341.987855 176.010123 
L 341.987855 163.207246 
L 343.648482 163.207246 
L 343.648482 169.7905 
L 345.309109 169.7905 
L 345.309109 176.285056 
L 346.969736 176.285056 
L 346.969736 185.899633 
L 348.630363 185.899633 
L 348.630363 165.603578 
L 350.29099 165.603578 
L 350.29099 154.421548 
L 351.951617 154.421548 
L 351.951617 179.692828 
L 353.612244 179.692828 
L 353.612244 167.801123 
L 355.272871 167.801123 
L 355.272871 176.659894 
L 356.933498 176.659894 
L 356.933498 154.703763 
L 358.594125 154.703763 
L 358.594125 164.386817 
L 360.254752 164.386817 
L 360.254752 176.192635 
L 361.915379 176.192635 
L 361.915379 154.10804 
L 363.576006 154.10804 
L 363.576006 147.358519 
L 365.236633 147.358519 
L 365.236633 143.893062 
L 366.89726 143.893062 
L 366.89726 176.305006 
L 368.557887 176.305006 
L 368.557887 187.981345 
L 370.218514 187.981345 
L 370.218514 134.14933 
L 371.879141 134.14933 
L 371.879141 156.815804 
L 373.539768 156.815804 
L 373.539768 179.489928 
L 375.200395 179.489928 
L 375.200395 194.806049 
L 376.861022 194.806049 
L 376.861022 199.408527 
L 378.521649 199.408527 
L 378.521649 146.31926 
L 380.182276 146.31926 
L 380.182276 163.569216 
L 381.842904 163.569216 
L 381.842904 95.542847 
L 383.503531 95.542847 
L 383.503531 -1 
M 385.164158 -1 
L 385.164158 279.315406 
L 385.164158 279.315406 
" clip-path="url(#p318f2c9e29)" style="fill: none; stroke: #1f77b4; stroke-width: 1.5; stroke-linecap: square"/>
   </g>
   <g id="LineCollection_1">
    <path d="M 68.814709 32.252428 
L 68.814709 30.081167 
" clip-path="url(#p318f2c9e29)" style="fill: none; stroke: #1f77b4; stroke-width: 1.5"/>
    <path d="M 70.475336 31.11642 
L 70.475336 29.286093 
" clip-path="url(#p318f2c9e29)" style="fill: none; stroke: #1f77b4; stroke-width: 1.5"/>
    <path d="M 72.135963 30.809713 
L 72.135963 28.956808 
" clip-path="url(#p318f2c9e29)" style="fill: none; stroke: #1f77b4; stroke-width: 1.5"/>
    <path d="M 73.79659 31.128227 
L 73.79659 29.259911 
" clip-path="url(#p318f2c9e29)" style="fill: none; stroke: #1f77b4; stroke-width: 1.5"/>
    <path d="M 75.457217 29.939169 
L 75.457217 28.037519 
" clip-path="url(#p318f2c9e29)" style="fill: none; stroke: #1f77b4; stroke-width: 1.5"/>
    <path d="M 77.117844 32.162207 
L 77.117844 30.289978 
" clip-path="url(#p318f2c9e29)" style="fill: none; stroke: #1f77b4; stroke-width: 1.5"/>
    <path d="M 78.778471 33.913464 
L 78.778471 31.987985 
" clip-path="url(#p318f2c9e29)" style="fill: none; stroke: #1f77b4; stroke-width: 1.5"/>
    <path d="M 80.439098 31.044318 
L 80.439098 29.090449 
" clip-path="url(#p318f2c9e29)" style="fill: none; stroke: #1f77b4; stroke-width: 1.5"/>
    <path d="M 82.099725 33.167018 
L 82.099725 31.210592 
" clip-path="url(#p318f2c9e29)" style="fill: none; stroke: #1f77b4; stroke-width: 1.5"/>
    <path d="M 83.760352 37.11492 
L 83.760352 35.193125 
" clip-path="url(#p318f2c9e29)" style="fill: none; stroke: #1f77b4; stroke-width: 1.5"/>
    <path d="M 85.420979 36.957599 
L 85.420979 34.992333 
" clip-path="url(#p318f2c9e29)" style="fill: none; stroke: #1f77b4; stroke-width: 1.5"/>
    <path d="M 87.081606 40.053116 
L 87.081606 38.117221 
" clip-path="url(#p318f2c9e29)" style="fill: none; stroke: #1f77b4; stroke-width: 1.5"/>
    <path d="M 88.742233 37.757595 
L 88.742233 35.802548 
" clip-path="url(#p318f2c9e29)" style="fill: none; stroke: #1f77b4; stroke-width: 1.5"/>
    <path d="M 90.40286 39.123698 
L 90.40286 37.141528 
" clip-path="url(#p318f2c9e29)" style="fill: none; stroke: #1f77b4; stroke-width: 1.5"/>
    <path d="M 92.063487 41.809361 
L 92.063487 39.836849 
" clip-path="url(#p318f2c9e29)" style="fill: none; stroke: #1f77b4; stroke-width: 1.5"/>
    <path d="M 93.724114 45.161661 
L 93.724114 43.16512 
" clip-path="url(#p318f2c9e29)" style="fill: none; stroke: #1f77b4; stroke-width: 1.5"/>
    <path d="M 95.384741 47.074633 
L 95.384741 45.048906 
" clip-path="url(#p318f2c9e29)" style="fill: none; stroke: #1f77b4; stroke-width: 1.5"/>
    <path d="M 97.045368 46.071657 
L 97.045368 43.955402 
" clip-path="url(#p318f2c9e29)" style="fill: none; stroke: #1f77b4; stroke-width: 1.5"/>
    <path d="M 98.705995 49.907019 
L 98.705995 47.764416 
" clip-path="url(#p318f2c9e29)" style="fill: none; stroke: #1f77b4; stroke-width: 1.5"/>
    <path d="M 100.366622 49.544986 
L 100.366622 47.309048 
" clip-path="url(#p318f2c9e29)" style="fill: none; stroke: #1f77b4; stroke-width: 1.5"/>
    <path d="M 102.027249 56.977084 
L 102.027249 54.667261 
" clip-path="url(#p318f2c9e29)" style="fill: none; stroke: #1f77b4; stroke-width: 1.5"/>
    <path d="M 103.687876 57.84899 
L 103.687876 55.144771 
" clip-path="url(#p318f2c9e29)" style="fill: none; stroke: #1f77b4; stroke-width: 1.5"/>
    <path d="M 105.348503 62.677513 
L 105.348503 59.544891 
" clip-path="url(#p318f2c9e29)" style="fill: none; stroke: #1f77b4; stroke-width: 1.5"/>
    <path d="M 107.00913 65.897164 
L 107.00913 62.376216 
" clip-path="url(#p318f2c9e29)" style="fill: none; stroke: #1f77b4; stroke-width: 1.5"/>
    <path d="M 108.669757 69.131376 
L 108.669757 65.336935 
" clip-path="url(#p318f2c9e29)" style="fill: none; stroke: #1f77b4; stroke-width: 1.5"/>
    <path d="M 110.330384 64.590625 
L 110.330384 60.067527 
" clip-path="url(#p318f2c9e29)" style="fill: none; stroke: #1f77b4; stroke-width: 1.5"/>
    <path d="M 111.991012 70.735373 
L 111.991012 66.170429 
" clip-path="url(#p318f2c9e29)" style="fill: none; stroke: #1f77b4; stroke-width: 1.5"/>
    <path d="M 113.651639 77.081166 
L 113.651639 72.609005 
" clip-path="url(#p318f2c9e29)" style="fill: none; stroke: #1f77b4; stroke-width: 1.5"/>
    <path d="M 115.312266 79.292766 
L 115.312266 75.017059 
" clip-path="url(#p318f2c9e29)" style="fill: none; stroke: #1f77b4; stroke-width: 1.5"/>
    <path d="M 116.972893 81.094979 
L 116.972893 77.346252 
" clip-path="url(#p318f2c9e29)" style="fill: none; stroke: #1f77b4; stroke-width: 1.5"/>
    <path d="M 118.63352 84.693216 
L 118.63352 80.974626 
" clip-path="url(#p318f2c9e29)" style="fill: none; stroke: #1f77b4; stroke-width: 1.5"/>
    <path d="M 120.294147 87.083117 
L 120.294147 83.456402 
" clip-path="url(#p318f2c9e29)" style="fill: none; stroke: #1f77b4; stroke-width: 1.5"/>
    <path d="M 121.954774 92.399726 
L 121.954774 88.622501 
" clip-path="url(#p318f2c9e29)" style="fill: none; stroke: #1f77b4; stroke-width: 1.5"/>
    <path d="M 123.615401 97.622705 
L 123.615401 93.866668 
" clip-path="url(#p318f2c9e29)" style="fill: none; stroke: #1f77b4; stroke-width: 1.5"/>
    <path d="M 125.276028 106.009933 
L 125.276028 101.747609 
" clip-path="url(#p318f2c9e29)" style="fill: none; stroke: #1f77b4; stroke-width: 1.5"/>
    <path d="M 126.936655 111.939918 
L 126.936655 107.566294 
" clip-path="url(#p318f2c9e29)" style="fill: none; stroke: #1f77b4; stroke-width: 1.5"/>
    <path d="M 128.597282 123.181524 
L 128.597282 118.113168 
" clip-path="url(#p318f2c9e29)" style="fill: none; stroke: #1f77b4; stroke-width: 1.5"/>
    <path d="M 130.257909 123.76489 
L 130.257909 118.293518 
" clip-path="url(#p318f2c9e29)" style="fill: none; stroke: #1f77b4; stroke-width: 1.5"/>
    <path d="M 131.918536 124.604877 
L 131.918536 119.23803 
" clip-path="url(#p318f2c9e29)" style="fill: none; stroke: #1f77b4; stroke-width: 1.5"/>
    <path d="M 133.579163 138.59809 
L 133.579163 131.698299 
" clip-path="url(#p318f2c9e29)" style="fill: none; stroke: #1f77b4; stroke-width: 1.5"/>
    <path d="M 135.23979 147.51304 
L 135.23979 139.455572 
" clip-path="url(#p318f2c9e29)" style="fill: none; stroke: #1f77b4; stroke-width: 1.5"/>
    <path d="M 136.900417 147.206232 
L 136.900417 139.212172 
" clip-path="url(#p318f2c9e29)" style="fill: none; stroke: #1f77b4; stroke-width: 1.5"/>
    <path d="M 138.561044 162.166087 
L 138.561044 151.614223 
" clip-path="url(#p318f2c9e29)" style="fill: none; stroke: #1f77b4; stroke-width: 1.5"/>
    <path d="M 140.221671 162.906138 
L 140.221671 152.326188 
" clip-path="url(#p318f2c9e29)" style="fill: none; stroke: #1f77b4; stroke-width: 1.5"/>
    <path d="M 141.882298 167.715386 
L 141.882298 156.271639 
" clip-path="url(#p318f2c9e29)" style="fill: none; stroke: #1f77b4; stroke-width: 1.5"/>
    <path d="M 143.542925 166.808344 
L 143.542925 155.400776 
" clip-path="url(#p318f2c9e29)" style="fill: none; stroke: #1f77b4; stroke-width: 1.5"/>
    <path d="M 145.203552 166.352655 
L 145.203552 154.805824 
" clip-path="url(#p318f2c9e29)" style="fill: none; stroke: #1f77b4; stroke-width: 1.5"/>
    <path d="M 146.864179 170.034117 
L 146.864179 157.920747 
" clip-path="url(#p318f2c9e29)" style="fill: none; stroke: #1f77b4; stroke-width: 1.5"/>
    <path d="M 148.524806 161.805547 
L 148.524806 151.582489 
" clip-path="url(#p318f2c9e29)" style="fill: none; stroke: #1f77b4; stroke-width: 1.5"/>
    <path d="M 150.185433 159.610019 
L 150.185433 149.999061 
" clip-path="url(#p318f2c9e29)" style="fill: none; stroke: #1f77b4; stroke-width: 1.5"/>
    <path d="M 151.84606 159.505391 
L 151.84606 149.400543 
" clip-path="url(#p318f2c9e29)" style="fill: none; stroke: #1f77b4; stroke-width: 1.5"/>
    <path d="M 153.506687 151.158784 
L 153.506687 142.522377 
" clip-path="url(#p318f2c9e29)" style="fill: none; stroke: #1f77b4; stroke-width: 1.5"/>
    <path d="M 155.167314 149.90039 
L 155.167314 141.77556 
" clip-path="url(#p318f2c9e29)" style="fill: none; stroke: #1f77b4; stroke-width: 1.5"/>
    <path d="M 156.827941 147.324376 
L 156.827941 139.112913 
" clip-path="url(#p318f2c9e29)" style="fill: none; stroke: #1f77b4; stroke-width: 1.5"/>
    <path d="M 158.488568 146.756819 
L 158.488568 138.514137 
" clip-path="url(#p318f2c9e29)" style="fill: none; stroke: #1f77b4; stroke-width: 1.5"/>
    <path d="M 160.149195 145.303536 
L 160.149195 137.546351 
" clip-path="url(#p318f2c9e29)" style="fill: none; stroke: #1f77b4; stroke-width: 1.5"/>
    <path d="M 161.809822 145.159464 
L 161.809822 137.452146 
" clip-path="url(#p318f2c9e29)" style="fill: none; stroke: #1f77b4; stroke-width: 1.5"/>
    <path d="M 163.470449 140.468368 
L 163.470449 133.478061 
" clip-path="url(#p318f2c9e29)" style="fill: none; stroke: #1f77b4; stroke-width: 1.5"/>
    <path d="M 165.131076 137.46209 
L 165.131076 130.374773 
" clip-path="url(#p318f2c9e29)" style="fill: none; stroke: #1f77b4; stroke-width: 1.5"/>
    <path d="M 166.791703 145.864013 
L 166.791703 138.052622 
" clip-path="url(#p318f2c9e29)" style="fill: none; stroke: #1f77b4; stroke-width: 1.5"/>
    <path d="M 168.45233 134.76154 
L 168.45233 128.230459 
" clip-path="url(#p318f2c9e29)" style="fill: none; stroke: #1f77b4; stroke-width: 1.5"/>
    <path d="M 170.112957 141.849763 
L 170.112957 134.581249 
" clip-path="url(#p318f2c9e29)" style="fill: none; stroke: #1f77b4; stroke-width: 1.5"/>
    <path d="M 171.773585 139.413243 
L 171.773585 132.137167 
" clip-path="url(#p318f2c9e29)" style="fill: none; stroke: #1f77b4; stroke-width: 1.5"/>
    <path d="M 173.434212 145.248704 
L 173.434212 137.433638 
" clip-path="url(#p318f2c9e29)" style="fill: none; stroke: #1f77b4; stroke-width: 1.5"/>
    <path d="M 175.094839 137.335211 
L 175.094839 130.506255 
" clip-path="url(#p318f2c9e29)" style="fill: none; stroke: #1f77b4; stroke-width: 1.5"/>
    <path d="M 176.755466 137.332386 
L 176.755466 130.284176 
" clip-path="url(#p318f2c9e29)" style="fill: none; stroke: #1f77b4; stroke-width: 1.5"/>
    <path d="M 178.416093 147.037591 
L 178.416093 138.960593 
" clip-path="url(#p318f2c9e29)" style="fill: none; stroke: #1f77b4; stroke-width: 1.5"/>
    <path d="M 180.07672 151.720107 
L 180.07672 142.998334 
" clip-path="url(#p318f2c9e29)" style="fill: none; stroke: #1f77b4; stroke-width: 1.5"/>
    <path d="M 181.737347 154.870083 
L 181.737347 145.469028 
" clip-path="url(#p318f2c9e29)" style="fill: none; stroke: #1f77b4; stroke-width: 1.5"/>
    <path d="M 183.397974 158.431951 
L 183.397974 148.960978 
" clip-path="url(#p318f2c9e29)" style="fill: none; stroke: #1f77b4; stroke-width: 1.5"/>
    <path d="M 185.058601 159.178135 
L 185.058601 149.198441 
" clip-path="url(#p318f2c9e29)" style="fill: none; stroke: #1f77b4; stroke-width: 1.5"/>
    <path d="M 186.719228 156.404579 
L 186.719228 146.977026 
" clip-path="url(#p318f2c9e29)" style="fill: none; stroke: #1f77b4; stroke-width: 1.5"/>
    <path d="M 188.379855 169.188433 
L 188.379855 157.233435 
" clip-path="url(#p318f2c9e29)" style="fill: none; stroke: #1f77b4; stroke-width: 1.5"/>
    <path d="M 190.040482 160.69802 
L 190.040482 150.19645 
" clip-path="url(#p318f2c9e29)" style="fill: none; stroke: #1f77b4; stroke-width: 1.5"/>
    <path d="M 191.701109 169.059306 
L 191.701109 157.261968 
" clip-path="url(#p318f2c9e29)" style="fill: none; stroke: #1f77b4; stroke-width: 1.5"/>
    <path d="M 193.361736 162.511458 
L 193.361736 152.030616 
" clip-path="url(#p318f2c9e29)" style="fill: none; stroke: #1f77b4; stroke-width: 1.5"/>
    <path d="M 195.022363 167.595816 
L 195.022363 156.362048 
" clip-path="url(#p318f2c9e29)" style="fill: none; stroke: #1f77b4; stroke-width: 1.5"/>
    <path d="M 196.68299 169.639013 
L 196.68299 157.728202 
" clip-path="url(#p318f2c9e29)" style="fill: none; stroke: #1f77b4; stroke-width: 1.5"/>
    <path d="M 198.343617 172.357756 
L 198.343617 159.872521 
" clip-path="url(#p318f2c9e29)" style="fill: none; stroke: #1f77b4; stroke-width: 1.5"/>
    <path d="M 200.004244 171.600284 
L 200.004244 159.343595 
" clip-path="url(#p318f2c9e29)" style="fill: none; stroke: #1f77b4; stroke-width: 1.5"/>
    <path d="M 201.664871 167.41397 
L 201.664871 155.795029 
" clip-path="url(#p318f2c9e29)" style="fill: none; stroke: #1f77b4; stroke-width: 1.5"/>
    <path d="M 203.325498 169.592095 
L 203.325498 157.249499 
" clip-path="url(#p318f2c9e29)" style="fill: none; stroke: #1f77b4; stroke-width: 1.5"/>
    <path d="M 204.986125 173.734661 
L 204.986125 160.794873 
" clip-path="url(#p318f2c9e29)" style="fill: none; stroke: #1f77b4; stroke-width: 1.5"/>
    <path d="M 206.646752 182.676644 
L 206.646752 167.493171 
" clip-path="url(#p318f2c9e29)" style="fill: none; stroke: #1f77b4; stroke-width: 1.5"/>
    <path d="M 208.307379 174.840048 
L 208.307379 161.444194 
" clip-path="url(#p318f2c9e29)" style="fill: none; stroke: #1f77b4; stroke-width: 1.5"/>
    <path d="M 209.968006 174.991115 
L 209.968006 161.977858 
" clip-path="url(#p318f2c9e29)" style="fill: none; stroke: #1f77b4; stroke-width: 1.5"/>
    <path d="M 211.628633 169.679757 
L 211.628633 157.84171 
" clip-path="url(#p318f2c9e29)" style="fill: none; stroke: #1f77b4; stroke-width: 1.5"/>
    <path d="M 213.28926 169.405358 
L 213.28926 157.415151 
" clip-path="url(#p318f2c9e29)" style="fill: none; stroke: #1f77b4; stroke-width: 1.5"/>
    <path d="M 214.949887 173.922038 
L 214.949887 160.588126 
" clip-path="url(#p318f2c9e29)" style="fill: none; stroke: #1f77b4; stroke-width: 1.5"/>
    <path d="M 216.610514 176.085504 
L 216.610514 162.460247 
" clip-path="url(#p318f2c9e29)" style="fill: none; stroke: #1f77b4; stroke-width: 1.5"/>
    <path d="M 218.271141 172.493083 
L 218.271141 160.307937 
" clip-path="url(#p318f2c9e29)" style="fill: none; stroke: #1f77b4; stroke-width: 1.5"/>
    <path d="M 219.931768 167.705287 
L 219.931768 156.317276 
" clip-path="url(#p318f2c9e29)" style="fill: none; stroke: #1f77b4; stroke-width: 1.5"/>
    <path d="M 221.592395 164.178932 
L 221.592395 153.644136 
" clip-path="url(#p318f2c9e29)" style="fill: none; stroke: #1f77b4; stroke-width: 1.5"/>
    <path d="M 223.253022 161.696565 
L 223.253022 151.318288 
" clip-path="url(#p318f2c9e29)" style="fill: none; stroke: #1f77b4; stroke-width: 1.5"/>
    <path d="M 224.913649 172.463622 
L 224.913649 159.445334 
" clip-path="url(#p318f2c9e29)" style="fill: none; stroke: #1f77b4; stroke-width: 1.5"/>
    <path d="M 226.574276 162.562937 
L 226.574276 151.806367 
" clip-path="url(#p318f2c9e29)" style="fill: none; stroke: #1f77b4; stroke-width: 1.5"/>
    <path d="M 228.234903 164.401116 
L 228.234903 153.698032 
" clip-path="url(#p318f2c9e29)" style="fill: none; stroke: #1f77b4; stroke-width: 1.5"/>
    <path d="M 229.89553 166.186349 
L 229.89553 155.021144 
" clip-path="url(#p318f2c9e29)" style="fill: none; stroke: #1f77b4; stroke-width: 1.5"/>
    <path d="M 231.556158 162.892719 
L 231.556158 152.358368 
" clip-path="url(#p318f2c9e29)" style="fill: none; stroke: #1f77b4; stroke-width: 1.5"/>
    <path d="M 233.216785 161.689176 
L 233.216785 151.568659 
" clip-path="url(#p318f2c9e29)" style="fill: none; stroke: #1f77b4; stroke-width: 1.5"/>
    <path d="M 234.877412 160.345265 
L 234.877412 149.905312 
" clip-path="url(#p318f2c9e29)" style="fill: none; stroke: #1f77b4; stroke-width: 1.5"/>
    <path d="M 236.538039 173.759759 
L 236.538039 160.662831 
" clip-path="url(#p318f2c9e29)" style="fill: none; stroke: #1f77b4; stroke-width: 1.5"/>
    <path d="M 238.198666 173.257125 
L 238.198666 160.693318 
" clip-path="url(#p318f2c9e29)" style="fill: none; stroke: #1f77b4; stroke-width: 1.5"/>
    <path d="M 239.859293 165.506873 
L 239.859293 154.569343 
" clip-path="url(#p318f2c9e29)" style="fill: none; stroke: #1f77b4; stroke-width: 1.5"/>
    <path d="M 241.51992 163.135292 
L 241.51992 152.807001 
" clip-path="url(#p318f2c9e29)" style="fill: none; stroke: #1f77b4; stroke-width: 1.5"/>
    <path d="M 243.180547 168.07478 
L 243.180547 156.270321 
" clip-path="url(#p318f2c9e29)" style="fill: none; stroke: #1f77b4; stroke-width: 1.5"/>
    <path d="M 244.841174 176.914364 
L 244.841174 163.618944 
" clip-path="url(#p318f2c9e29)" style="fill: none; stroke: #1f77b4; stroke-width: 1.5"/>
    <path d="M 246.501801 170.725161 
L 246.501801 158.101943 
" clip-path="url(#p318f2c9e29)" style="fill: none; stroke: #1f77b4; stroke-width: 1.5"/>
    <path d="M 248.162428 174.10018 
L 248.162428 161.356603 
" clip-path="url(#p318f2c9e29)" style="fill: none; stroke: #1f77b4; stroke-width: 1.5"/>
    <path d="M 249.823055 175.853483 
L 249.823055 162.418946 
" clip-path="url(#p318f2c9e29)" style="fill: none; stroke: #1f77b4; stroke-width: 1.5"/>
    <path d="M 251.483682 169.510165 
L 251.483682 157.463945 
" clip-path="url(#p318f2c9e29)" style="fill: none; stroke: #1f77b4; stroke-width: 1.5"/>
    <path d="M 253.144309 175.640266 
L 253.144309 161.998338 
" clip-path="url(#p318f2c9e29)" style="fill: none; stroke: #1f77b4; stroke-width: 1.5"/>
    <path d="M 254.804936 171.880174 
L 254.804936 159.346309 
" clip-path="url(#p318f2c9e29)" style="fill: none; stroke: #1f77b4; stroke-width: 1.5"/>
    <path d="M 256.465563 181.446476 
L 256.465563 166.717175 
" clip-path="url(#p318f2c9e29)" style="fill: none; stroke: #1f77b4; stroke-width: 1.5"/>
    <path d="M 258.12619 171.364114 
L 258.12619 159.299546 
" clip-path="url(#p318f2c9e29)" style="fill: none; stroke: #1f77b4; stroke-width: 1.5"/>
    <path d="M 259.786817 175.676416 
L 259.786817 162.493587 
" clip-path="url(#p318f2c9e29)" style="fill: none; stroke: #1f77b4; stroke-width: 1.5"/>
    <path d="M 261.447444 177.431254 
L 261.447444 163.512246 
" clip-path="url(#p318f2c9e29)" style="fill: none; stroke: #1f77b4; stroke-width: 1.5"/>
    <path d="M 263.108071 173.393745 
L 263.108071 160.279304 
" clip-path="url(#p318f2c9e29)" style="fill: none; stroke: #1f77b4; stroke-width: 1.5"/>
    <path d="M 264.768698 173.946158 
L 264.768698 160.745381 
" clip-path="url(#p318f2c9e29)" style="fill: none; stroke: #1f77b4; stroke-width: 1.5"/>
    <path d="M 266.429325 177.005532 
L 266.429325 163.312425 
" clip-path="url(#p318f2c9e29)" style="fill: none; stroke: #1f77b4; stroke-width: 1.5"/>
    <path d="M 268.089952 169.81108 
L 268.089952 158.05987 
" clip-path="url(#p318f2c9e29)" style="fill: none; stroke: #1f77b4; stroke-width: 1.5"/>
    <path d="M 269.750579 171.037969 
L 269.750579 158.820393 
" clip-path="url(#p318f2c9e29)" style="fill: none; stroke: #1f77b4; stroke-width: 1.5"/>
    <path d="M 271.411206 176.056036 
L 271.411206 162.618811 
" clip-path="url(#p318f2c9e29)" style="fill: none; stroke: #1f77b4; stroke-width: 1.5"/>
    <path d="M 273.071833 170.542621 
L 273.071833 158.212768 
" clip-path="url(#p318f2c9e29)" style="fill: none; stroke: #1f77b4; stroke-width: 1.5"/>
    <path d="M 274.73246 170.256048 
L 274.73246 157.793354 
" clip-path="url(#p318f2c9e29)" style="fill: none; stroke: #1f77b4; stroke-width: 1.5"/>
    <path d="M 276.393087 175.399262 
L 276.393087 162.33493 
" clip-path="url(#p318f2c9e29)" style="fill: none; stroke: #1f77b4; stroke-width: 1.5"/>
    <path d="M 278.053714 173.054662 
L 278.053714 160.318893 
" clip-path="url(#p318f2c9e29)" style="fill: none; stroke: #1f77b4; stroke-width: 1.5"/>
    <path d="M 279.714341 179.709515 
L 279.714341 165.21527 
" clip-path="url(#p318f2c9e29)" style="fill: none; stroke: #1f77b4; stroke-width: 1.5"/>
    <path d="M 281.374968 164.240048 
L 281.374968 153.335505 
" clip-path="url(#p318f2c9e29)" style="fill: none; stroke: #1f77b4; stroke-width: 1.5"/>
    <path d="M 283.035595 169.078412 
L 283.035595 157.482985 
" clip-path="url(#p318f2c9e29)" style="fill: none; stroke: #1f77b4; stroke-width: 1.5"/>
    <path d="M 284.696222 171.535355 
L 284.696222 159.262584 
" clip-path="url(#p318f2c9e29)" style="fill: none; stroke: #1f77b4; stroke-width: 1.5"/>
    <path d="M 286.356849 184.963813 
L 286.356849 169.073984 
" clip-path="url(#p318f2c9e29)" style="fill: none; stroke: #1f77b4; stroke-width: 1.5"/>
    <path d="M 288.017476 170.513975 
L 288.017476 157.910457 
" clip-path="url(#p318f2c9e29)" style="fill: none; stroke: #1f77b4; stroke-width: 1.5"/>
    <path d="M 289.678103 171.573548 
L 289.678103 158.880245 
" clip-path="url(#p318f2c9e29)" style="fill: none; stroke: #1f77b4; stroke-width: 1.5"/>
    <path d="M 291.338731 170.792633 
L 291.338731 158.065367 
" clip-path="url(#p318f2c9e29)" style="fill: none; stroke: #1f77b4; stroke-width: 1.5"/>
    <path d="M 292.999358 159.09551 
L 292.999358 148.97016 
" clip-path="url(#p318f2c9e29)" style="fill: none; stroke: #1f77b4; stroke-width: 1.5"/>
    <path d="M 294.659985 178.786675 
L 294.659985 164.419053 
" clip-path="url(#p318f2c9e29)" style="fill: none; stroke: #1f77b4; stroke-width: 1.5"/>
    <path d="M 296.320612 170.084998 
L 296.320612 157.901988 
" clip-path="url(#p318f2c9e29)" style="fill: none; stroke: #1f77b4; stroke-width: 1.5"/>
    <path d="M 297.981239 173.363425 
L 297.981239 159.983889 
" clip-path="url(#p318f2c9e29)" style="fill: none; stroke: #1f77b4; stroke-width: 1.5"/>
    <path d="M 299.641866 175.459882 
L 299.641866 162.430187 
" clip-path="url(#p318f2c9e29)" style="fill: none; stroke: #1f77b4; stroke-width: 1.5"/>
    <path d="M 301.302493 168.027357 
L 301.302493 156.506053 
" clip-path="url(#p318f2c9e29)" style="fill: none; stroke: #1f77b4; stroke-width: 1.5"/>
    <path d="M 302.96312 169.534537 
L 302.96312 157.731238 
" clip-path="url(#p318f2c9e29)" style="fill: none; stroke: #1f77b4; stroke-width: 1.5"/>
    <path d="M 304.623747 164.546876 
L 304.623747 153.464167 
" clip-path="url(#p318f2c9e29)" style="fill: none; stroke: #1f77b4; stroke-width: 1.5"/>
    <path d="M 306.284374 175.328584 
L 306.284374 162.100422 
" clip-path="url(#p318f2c9e29)" style="fill: none; stroke: #1f77b4; stroke-width: 1.5"/>
    <path d="M 307.945001 174.059887 
L 307.945001 160.999028 
" clip-path="url(#p318f2c9e29)" style="fill: none; stroke: #1f77b4; stroke-width: 1.5"/>
    <path d="M 309.605628 179.96854 
L 309.605628 165.862711 
" clip-path="url(#p318f2c9e29)" style="fill: none; stroke: #1f77b4; stroke-width: 1.5"/>
    <path d="M 311.266255 175.708176 
L 311.266255 162.132645 
" clip-path="url(#p318f2c9e29)" style="fill: none; stroke: #1f77b4; stroke-width: 1.5"/>
    <path d="M 312.926882 177.08231 
L 312.926882 163.108285 
" clip-path="url(#p318f2c9e29)" style="fill: none; stroke: #1f77b4; stroke-width: 1.5"/>
    <path d="M 314.587509 174.865781 
L 314.587509 161.785206 
" clip-path="url(#p318f2c9e29)" style="fill: none; stroke: #1f77b4; stroke-width: 1.5"/>
    <path d="M 316.248136 165.673167 
L 316.248136 154.412927 
" clip-path="url(#p318f2c9e29)" style="fill: none; stroke: #1f77b4; stroke-width: 1.5"/>
    <path d="M 317.908763 167.113717 
L 317.908763 155.051562 
" clip-path="url(#p318f2c9e29)" style="fill: none; stroke: #1f77b4; stroke-width: 1.5"/>
    <path d="M 319.56939 174.903471 
L 319.56939 161.095841 
" clip-path="url(#p318f2c9e29)" style="fill: none; stroke: #1f77b4; stroke-width: 1.5"/>
    <path d="M 321.230017 167.962706 
L 321.230017 155.686278 
" clip-path="url(#p318f2c9e29)" style="fill: none; stroke: #1f77b4; stroke-width: 1.5"/>
    <path d="M 322.890644 170.012901 
L 322.890644 157.125536 
" clip-path="url(#p318f2c9e29)" style="fill: none; stroke: #1f77b4; stroke-width: 1.5"/>
    <path d="M 324.551271 169.338055 
L 324.551271 155.796509 
" clip-path="url(#p318f2c9e29)" style="fill: none; stroke: #1f77b4; stroke-width: 1.5"/>
    <path d="M 326.211898 165.606625 
L 326.211898 153.464064 
" clip-path="url(#p318f2c9e29)" style="fill: none; stroke: #1f77b4; stroke-width: 1.5"/>
    <path d="M 327.872525 174.868677 
L 327.872525 160.303918 
" clip-path="url(#p318f2c9e29)" style="fill: none; stroke: #1f77b4; stroke-width: 1.5"/>
    <path d="M 329.533152 182.216217 
L 329.533152 165.429527 
" clip-path="url(#p318f2c9e29)" style="fill: none; stroke: #1f77b4; stroke-width: 1.5"/>
    <path d="M 331.193779 171.966138 
L 331.193779 158.147015 
" clip-path="url(#p318f2c9e29)" style="fill: none; stroke: #1f77b4; stroke-width: 1.5"/>
    <path d="M 332.854406 176.939381 
L 332.854406 161.439586 
" clip-path="url(#p318f2c9e29)" style="fill: none; stroke: #1f77b4; stroke-width: 1.5"/>
    <path d="M 334.515033 179.045678 
L 334.515033 161.905548 
" clip-path="url(#p318f2c9e29)" style="fill: none; stroke: #1f77b4; stroke-width: 1.5"/>
    <path d="M 336.17566 182.143958 
L 336.17566 164.544546 
" clip-path="url(#p318f2c9e29)" style="fill: none; stroke: #1f77b4; stroke-width: 1.5"/>
    <path d="M 337.836287 197.924992 
L 337.836287 174.644314 
" clip-path="url(#p318f2c9e29)" style="fill: none; stroke: #1f77b4; stroke-width: 1.5"/>
    <path d="M 339.496914 178.174748 
L 339.496914 160.795321 
" clip-path="url(#p318f2c9e29)" style="fill: none; stroke: #1f77b4; stroke-width: 1.5"/>
    <path d="M 341.157541 187.865248 
L 341.157541 168.017637 
" clip-path="url(#p318f2c9e29)" style="fill: none; stroke: #1f77b4; stroke-width: 1.5"/>
    <path d="M 342.818168 172.162412 
L 342.818168 156.63852 
" clip-path="url(#p318f2c9e29)" style="fill: none; stroke: #1f77b4; stroke-width: 1.5"/>
    <path d="M 344.478795 181.511744 
L 344.478795 161.858478 
" clip-path="url(#p318f2c9e29)" style="fill: none; stroke: #1f77b4; stroke-width: 1.5"/>
    <path d="M 346.139422 190.439675 
L 346.139422 167.323704 
" clip-path="url(#p318f2c9e29)" style="fill: none; stroke: #1f77b4; stroke-width: 1.5"/>
    <path d="M 347.800049 203.670073 
L 347.800049 175.645342 
" clip-path="url(#p318f2c9e29)" style="fill: none; stroke: #1f77b4; stroke-width: 1.5"/>
    <path d="M 349.460676 175.924146 
L 349.460676 158.333584 
" clip-path="url(#p318f2c9e29)" style="fill: none; stroke: #1f77b4; stroke-width: 1.5"/>
    <path d="M 351.121303 163.600418 
L 351.121303 147.733882 
" clip-path="url(#p318f2c9e29)" style="fill: none; stroke: #1f77b4; stroke-width: 1.5"/>
    <path d="M 352.781931 196.966669 
L 352.781931 169.601432 
" clip-path="url(#p318f2c9e29)" style="fill: none; stroke: #1f77b4; stroke-width: 1.5"/>
    <path d="M 354.442558 181.732698 
L 354.442558 158.928294 
" clip-path="url(#p318f2c9e29)" style="fill: none; stroke: #1f77b4; stroke-width: 1.5"/>
    <path d="M 356.103185 194.064686 
L 356.103185 166.525123 
" clip-path="url(#p318f2c9e29)" style="fill: none; stroke: #1f77b4; stroke-width: 1.5"/>
    <path d="M 357.763812 165.007734 
L 357.763812 147.441949 
" clip-path="url(#p318f2c9e29)" style="fill: none; stroke: #1f77b4; stroke-width: 1.5"/>
    <path d="M 359.424439 177.195564 
L 359.424439 155.976996 
" clip-path="url(#p318f2c9e29)" style="fill: none; stroke: #1f77b4; stroke-width: 1.5"/>
    <path d="M 361.085066 193.406401 
L 361.085066 166.121241 
" clip-path="url(#p318f2c9e29)" style="fill: none; stroke: #1f77b4; stroke-width: 1.5"/>
    <path d="M 362.745693 164.735023 
L 362.745693 146.688474 
" clip-path="url(#p318f2c9e29)" style="fill: none; stroke: #1f77b4; stroke-width: 1.5"/>
    <path d="M 364.40632 157.739221 
L 364.40632 140.058954 
" clip-path="url(#p318f2c9e29)" style="fill: none; stroke: #1f77b4; stroke-width: 1.5"/>
    <path d="M 366.066947 153.174512 
L 366.066947 137.151401 
" clip-path="url(#p318f2c9e29)" style="fill: none; stroke: #1f77b4; stroke-width: 1.5"/>
    <path d="M 367.727574 201.455108 
L 367.727574 164.065517 
" clip-path="url(#p318f2c9e29)" style="fill: none; stroke: #1f77b4; stroke-width: 1.5"/>
    <path d="M 369.388201 240.684374 
L 369.388201 172.295496 
" clip-path="url(#p318f2c9e29)" style="fill: none; stroke: #1f77b4; stroke-width: 1.5"/>
    <path d="M 371.048828 144.300005 
L 371.048828 126.963459 
" clip-path="url(#p318f2c9e29)" style="fill: none; stroke: #1f77b4; stroke-width: 1.5"/>
    <path d="M 372.709455 175.523204 
L 372.709455 146.26564 
" clip-path="url(#p318f2c9e29)" style="fill: none; stroke: #1f77b4; stroke-width: 1.5"/>
    <path d="M 374.370082 279.315406 
L 374.370082 161.917464 
" clip-path="url(#p318f2c9e29)" style="fill: none; stroke: #1f77b4; stroke-width: 1.5"/>
    <path d="M 376.030709 279.315406 
L 376.030709 173.353458 
" clip-path="url(#p318f2c9e29)" style="fill: none; stroke: #1f77b4; stroke-width: 1.5"/>
    <path d="M 377.691336 279.315406 
L 377.691336 175.064731 
" clip-path="url(#p318f2c9e29)" style="fill: none; stroke: #1f77b4; stroke-width: 1.5"/>
    <path d="M 379.351963 171.134572 
L 379.351963 134.154724 
" clip-path="url(#p318f2c9e29)" style="fill: none; stroke: #1f77b4; stroke-width: 1.5"/>
    <path d="M 381.01259 279.315406 
L 381.01259 138.627258 
" clip-path="url(#p318f2c9e29)" style="fill: none; stroke: #1f77b4; stroke-width: 1.5"/>
    <path d="M 382.673217 127.789928 
L 382.673217 81.969072 
" clip-path="url(#p318f2c9e29)" style="fill: none; stroke: #1f77b4; stroke-width: 1.5"/>
    <path d="M 384.333844 279.315406 
L 384.333844 -1 
" clip-path="url(#p318f2c9e29)" style="fill: none; stroke: #1f77b4; stroke-width: 1.5"/>
    <path clip-path="url(#p318f2c9e29)" style="fill: none; stroke: #1f77b4; stroke-width: 1.5"/>
    <path clip-path="url(#p318f2c9e29)" style="fill: none; stroke: #1f77b4; stroke-width: 1.5"/>
    <path clip-path="url(#p318f2c9e29)" style="fill: none; stroke: #1f77b4; stroke-width: 1.5"/>
    <path clip-path="url(#p318f2c9e29)" style="fill: none; stroke: #1f77b4; stroke-width: 1.5"/>
    <path clip-path="url(#p318f2c9e29)" style="fill: none; stroke: #1f77b4; stroke-width: 1.5"/>
    <path clip-path="url(#p318f2c9e29)" style="fill: none; stroke: #1f77b4; stroke-width: 1.5"/>
    <path clip-path="url(#p318f2c9e29)" style="fill: none; stroke: #1f77b4; stroke-width: 1.5"/>
    <path clip-path="url(#p318f2c9e29)" style="fill: none; stroke: #1f77b4; stroke-width: 1.5"/>
    <path clip-path="url(#p318f2c9e29)" style="fill: none; stroke: #1f77b4; stroke-width: 1.5"/>
   </g>
  </g>
 </g>
 <defs>
  <clipPath id="p318f2c9e29">
   <rect x="51.378125" y="10.999219" width="365.337946" height="228.8365"/>
  </clipPath>
 </defs>
</svg>