<?xml version="1.0" encoding="utf-8" standalone="no"?>
<!DOCTYPE svg PUBLIC "-//W3C//DTD SVG 1.1//EN"
  "http://www.w3.org/Graphics/SVG/1.1/DTD/svg11.dtd">
<svg xmlns:xlink="http://www.w3.org/1999/xlink" width="385.78125pt" height="278.799062pt" viewBox="0 0 385.78125 278.799062" xmlns="http://www.w3.org/2000/svg" version="1.1">
 <metadata>
  <rdf:RDF xmlns:dc="http://purl.org/dc/elements/1.1/" xmlns:cc="http://creativecommons.org/ns#" xmlns:rdf="http://www.w3.org/1999/02/22-rdf-syntax-ns#">
   <cc:Work>
    <dc:type rdf:resource="http://purl.org/dc/dcmitype/StillImage"/>
    <dc:date>2025-06-18T14:01:34.030414</dc:date>
    <dc:format>image/svg+xml</dc:format>
    <dc:creator>
     <cc:Agent>
      <dc:title>Matplotlib v3.10.1, https://matplotlib.org/</dc:title>
     </cc:Agent>
    </dc:creator>
   </cc:Work>
  </rdf:RDF>
 </metadata>
 <defs>
  <style type="text/css">*{stroke-linejoin: round; stroke-linecap: butt}</style>
 </defs>
 <g id="figure_1">
  <g id="patch_1">
   <path d="M 0 278.799062 
L 385.78125 278.799062 
L 385.78125 0 
L 0 0 
z
" style="fill: #ffffff"/>
  </g>
  <g id="axes_1">
   <g id="patch_2">
    <path d="M 43.78125 239.558437 
L 378.58125 239.558437 
L 378.58125 17.798437 
L 43.78125 17.798437 
z
" style="fill: #ffffff"/>
   </g>
   <g id="matplotlib.axis_1">
    <g id="xtick_1">
     <g id="line2d_1">
      <defs>
       <path id="m3537ec4742" d="M 0 0 
L 0 3.5 
" style="stroke: #000000; stroke-width: 0.8"/>
      </defs>
      <g>
       <use xlink:href="#m3537ec4742" x="58.999432" y="239.558437" style="stroke: #000000; stroke-width: 0.8"/>
      </g>
     </g>
     <g id="text_1">
      <!-- 0.5 -->
      <g transform="translate(51.047869 254.156875) scale(0.1 -0.1)">
       <defs>
        <path id="DejaVuSans-30" d="M 2034 4250 
Q 1547 4250 1301 3770 
Q 1056 3291 1056 2328 
Q 1056 1369 1301 889 
Q 1547 409 2034 409 
Q 2525 409 2770 889 
Q 3016 1369 3016 2328 
Q 3016 3291 2770 3770 
Q 2525 4250 2034 4250 
z
M 2034 4750 
Q 2819 4750 3233 4129 
Q 3647 3509 3647 2328 
Q 3647 1150 3233 529 
Q 2819 -91 2034 -91 
Q 1250 -91 836 529 
Q 422 1150 422 2328 
Q 422 3509 836 4129 
Q 1250 4750 2034 4750 
z
" transform="scale(0.015625)"/>
        <path id="DejaVuSans-2e" d="M 684 794 
L 1344 794 
L 1344 0 
L 684 0 
L 684 794 
z
" transform="scale(0.015625)"/>
        <path id="DejaVuSans-35" d="M 691 4666 
L 3169 4666 
L 3169 4134 
L 1269 4134 
L 1269 2991 
Q 1406 3038 1543 3061 
Q 1681 3084 1819 3084 
Q 2600 3084 3056 2656 
Q 3513 2228 3513 1497 
Q 3513 744 3044 326 
Q 2575 -91 1722 -91 
Q 1428 -91 1123 -41 
Q 819 9 494 109 
L 494 744 
Q 775 591 1075 516 
Q 1375 441 1709 441 
Q 2250 441 2565 725 
Q 2881 1009 2881 1497 
Q 2881 1984 2565 2268 
Q 2250 2553 1709 2553 
Q 1456 2553 1204 2497 
Q 953 2441 691 2322 
L 691 4666 
z
" transform="scale(0.015625)"/>
       </defs>
       <use xlink:href="#DejaVuSans-30"/>
       <use xlink:href="#DejaVuSans-2e" transform="translate(63.623047 0)"/>
       <use xlink:href="#DejaVuSans-35" transform="translate(95.410156 0)"/>
      </g>
     </g>
    </g>
    <g id="xtick_2">
     <g id="line2d_2">
      <g>
       <use xlink:href="#m3537ec4742" x="119.872159" y="239.558437" style="stroke: #000000; stroke-width: 0.8"/>
      </g>
     </g>
     <g id="text_2">
      <!-- 1.0 -->
      <g transform="translate(111.920597 254.156875) scale(0.1 -0.1)">
       <defs>
        <path id="DejaVuSans-31" d="M 794 531 
L 1825 531 
L 1825 4091 
L 703 3866 
L 703 4441 
L 1819 4666 
L 2450 4666 
L 2450 531 
L 3481 531 
L 3481 0 
L 794 0 
L 794 531 
z
" transform="scale(0.015625)"/>
       </defs>
       <use xlink:href="#DejaVuSans-31"/>
       <use xlink:href="#DejaVuSans-2e" transform="translate(63.623047 0)"/>
       <use xlink:href="#DejaVuSans-30" transform="translate(95.410156 0)"/>
      </g>
     </g>
    </g>
    <g id="xtick_3">
     <g id="line2d_3">
      <g>
       <use xlink:href="#m3537ec4742" x="180.744886" y="239.558437" style="stroke: #000000; stroke-width: 0.8"/>
      </g>
     </g>
     <g id="text_3">
      <!-- 1.5 -->
      <g transform="translate(172.793324 254.156875) scale(0.1 -0.1)">
       <use xlink:href="#DejaVuSans-31"/>
       <use xlink:href="#DejaVuSans-2e" transform="translate(63.623047 0)"/>
       <use xlink:href="#DejaVuSans-35" transform="translate(95.410156 0)"/>
      </g>
     </g>
    </g>
    <g id="xtick_4">
     <g id="line2d_4">
      <g>
       <use xlink:href="#m3537ec4742" x="241.617614" y="239.558437" style="stroke: #000000; stroke-width: 0.8"/>
      </g>
     </g>
     <g id="text_4">
      <!-- 2.0 -->
      <g transform="translate(233.666051 254.156875) scale(0.1 -0.1)">
       <defs>
        <path id="DejaVuSans-32" d="M 1228 531 
L 3431 531 
L 3431 0 
L 469 0 
L 469 531 
Q 828 903 1448 1529 
Q 2069 2156 2228 2338 
Q 2531 2678 2651 2914 
Q 2772 3150 2772 3378 
Q 2772 3750 2511 3984 
Q 2250 4219 1831 4219 
Q 1534 4219 1204 4116 
Q 875 4013 500 3803 
L 500 4441 
Q 881 4594 1212 4672 
Q 1544 4750 1819 4750 
Q 2544 4750 2975 4387 
Q 3406 4025 3406 3419 
Q 3406 3131 3298 2873 
Q 3191 2616 2906 2266 
Q 2828 2175 2409 1742 
Q 1991 1309 1228 531 
z
" transform="scale(0.015625)"/>
       </defs>
       <use xlink:href="#DejaVuSans-32"/>
       <use xlink:href="#DejaVuSans-2e" transform="translate(63.623047 0)"/>
       <use xlink:href="#DejaVuSans-30" transform="translate(95.410156 0)"/>
      </g>
     </g>
    </g>
    <g id="xtick_5">
     <g id="line2d_5">
      <g>
       <use xlink:href="#m3537ec4742" x="302.490341" y="239.558437" style="stroke: #000000; stroke-width: 0.8"/>
      </g>
     </g>
     <g id="text_5">
      <!-- 2.5 -->
      <g transform="translate(294.538778 254.156875) scale(0.1 -0.1)">
       <use xlink:href="#DejaVuSans-32"/>
       <use xlink:href="#DejaVuSans-2e" transform="translate(63.623047 0)"/>
       <use xlink:href="#DejaVuSans-35" transform="translate(95.410156 0)"/>
      </g>
     </g>
    </g>
    <g id="xtick_6">
     <g id="line2d_6">
      <g>
       <use xlink:href="#m3537ec4742" x="363.363068" y="239.558437" style="stroke: #000000; stroke-width: 0.8"/>
      </g>
     </g>
     <g id="text_6">
      <!-- 3.0 -->
      <g transform="translate(355.411506 254.156875) scale(0.1 -0.1)">
       <defs>
        <path id="DejaVuSans-33" d="M 2597 2516 
Q 3050 2419 3304 2112 
Q 3559 1806 3559 1356 
Q 3559 666 3084 287 
Q 2609 -91 1734 -91 
Q 1441 -91 1130 -33 
Q 819 25 488 141 
L 488 750 
Q 750 597 1062 519 
Q 1375 441 1716 441 
Q 2309 441 2620 675 
Q 2931 909 2931 1356 
Q 2931 1769 2642 2001 
Q 2353 2234 1838 2234 
L 1294 2234 
L 1294 2753 
L 1863 2753 
Q 2328 2753 2575 2939 
Q 2822 3125 2822 3475 
Q 2822 3834 2567 4026 
Q 2313 4219 1838 4219 
Q 1578 4219 1281 4162 
Q 984 4106 628 3988 
L 628 4550 
Q 988 4650 1302 4700 
Q 1616 4750 1894 4750 
Q 2613 4750 3031 4423 
Q 3450 4097 3450 3541 
Q 3450 3153 3228 2886 
Q 3006 2619 2597 2516 
z
" transform="scale(0.015625)"/>
       </defs>
       <use xlink:href="#DejaVuSans-33"/>
       <use xlink:href="#DejaVuSans-2e" transform="translate(63.623047 0)"/>
       <use xlink:href="#DejaVuSans-30" transform="translate(95.410156 0)"/>
      </g>
     </g>
    </g>
    <g id="text_7">
     <!-- dspacing [Å] -->
     <g transform="translate(179.771875 269.519375) scale(0.1 -0.1)">
      <defs>
       <path id="DejaVuSans-64" d="M 2906 2969 
L 2906 4863 
L 3481 4863 
L 3481 0 
L 2906 0 
L 2906 525 
Q 2725 213 2448 61 
Q 2172 -91 1784 -91 
Q 1150 -91 751 415 
Q 353 922 353 1747 
Q 353 2572 751 3078 
Q 1150 3584 1784 3584 
Q 2172 3584 2448 3432 
Q 2725 3281 2906 2969 
z
M 947 1747 
Q 947 1113 1208 752 
Q 1469 391 1925 391 
Q 2381 391 2643 752 
Q 2906 1113 2906 1747 
Q 2906 2381 2643 2742 
Q 2381 3103 1925 3103 
Q 1469 3103 1208 2742 
Q 947 2381 947 1747 
z
" transform="scale(0.015625)"/>
       <path id="DejaVuSans-73" d="M 2834 3397 
L 2834 2853 
Q 2591 2978 2328 3040 
Q 2066 3103 1784 3103 
Q 1356 3103 1142 2972 
Q 928 2841 928 2578 
Q 928 2378 1081 2264 
Q 1234 2150 1697 2047 
L 1894 2003 
Q 2506 1872 2764 1633 
Q 3022 1394 3022 966 
Q 3022 478 2636 193 
Q 2250 -91 1575 -91 
Q 1294 -91 989 -36 
Q 684 19 347 128 
L 347 722 
Q 666 556 975 473 
Q 1284 391 1588 391 
Q 1994 391 2212 530 
Q 2431 669 2431 922 
Q 2431 1156 2273 1281 
Q 2116 1406 1581 1522 
L 1381 1569 
Q 847 1681 609 1914 
Q 372 2147 372 2553 
Q 372 3047 722 3315 
Q 1072 3584 1716 3584 
Q 2034 3584 2315 3537 
Q 2597 3491 2834 3397 
z
" transform="scale(0.015625)"/>
       <path id="DejaVuSans-70" d="M 1159 525 
L 1159 -1331 
L 581 -1331 
L 581 3500 
L 1159 3500 
L 1159 2969 
Q 1341 3281 1617 3432 
Q 1894 3584 2278 3584 
Q 2916 3584 3314 3078 
Q 3713 2572 3713 1747 
Q 3713 922 3314 415 
Q 2916 -91 2278 -91 
Q 1894 -91 1617 61 
Q 1341 213 1159 525 
z
M 3116 1747 
Q 3116 2381 2855 2742 
Q 2594 3103 2138 3103 
Q 1681 3103 1420 2742 
Q 1159 2381 1159 1747 
Q 1159 1113 1420 752 
Q 1681 391 2138 391 
Q 2594 391 2855 752 
Q 3116 1113 3116 1747 
z
" transform="scale(0.015625)"/>
       <path id="DejaVuSans-61" d="M 2194 1759 
Q 1497 1759 1228 1600 
Q 959 1441 959 1056 
Q 959 750 1161 570 
Q 1363 391 1709 391 
Q 2188 391 2477 730 
Q 2766 1069 2766 1631 
L 2766 1759 
L 2194 1759 
z
M 3341 1997 
L 3341 0 
L 2766 0 
L 2766 531 
Q 2569 213 2275 61 
Q 1981 -91 1556 -91 
Q 1019 -91 701 211 
Q 384 513 384 1019 
Q 384 1609 779 1909 
Q 1175 2209 1959 2209 
L 2766 2209 
L 2766 2266 
Q 2766 2663 2505 2880 
Q 2244 3097 1772 3097 
Q 1472 3097 1187 3025 
Q 903 2953 641 2809 
L 641 3341 
Q 956 3463 1253 3523 
Q 1550 3584 1831 3584 
Q 2591 3584 2966 3190 
Q 3341 2797 3341 1997 
z
" transform="scale(0.015625)"/>
       <path id="DejaVuSans-63" d="M 3122 3366 
L 3122 2828 
Q 2878 2963 2633 3030 
Q 2388 3097 2138 3097 
Q 1578 3097 1268 2742 
Q 959 2388 959 1747 
Q 959 1106 1268 751 
Q 1578 397 2138 397 
Q 2388 397 2633 464 
Q 2878 531 3122 666 
L 3122 134 
Q 2881 22 2623 -34 
Q 2366 -91 2075 -91 
Q 1284 -91 818 406 
Q 353 903 353 1747 
Q 353 2603 823 3093 
Q 1294 3584 2113 3584 
Q 2378 3584 2631 3529 
Q 2884 3475 3122 3366 
z
" transform="scale(0.015625)"/>
       <path id="DejaVuSans-69" d="M 603 3500 
L 1178 3500 
L 1178 0 
L 603 0 
L 603 3500 
z
M 603 4863 
L 1178 4863 
L 1178 4134 
L 603 4134 
L 603 4863 
z
" transform="scale(0.015625)"/>
       <path id="DejaVuSans-6e" d="M 3513 2113 
L 3513 0 
L 2938 0 
L 2938 2094 
Q 2938 2591 2744 2837 
Q 2550 3084 2163 3084 
Q 1697 3084 1428 2787 
Q 1159 2491 1159 1978 
L 1159 0 
L 581 0 
L 581 3500 
L 1159 3500 
L 1159 2956 
Q 1366 3272 1645 3428 
Q 1925 3584 2291 3584 
Q 2894 3584 3203 3211 
Q 3513 2838 3513 2113 
z
" transform="scale(0.015625)"/>
       <path id="DejaVuSans-67" d="M 2906 1791 
Q 2906 2416 2648 2759 
Q 2391 3103 1925 3103 
Q 1463 3103 1205 2759 
Q 947 2416 947 1791 
Q 947 1169 1205 825 
Q 1463 481 1925 481 
Q 2391 481 2648 825 
Q 2906 1169 2906 1791 
z
M 3481 434 
Q 3481 -459 3084 -895 
Q 2688 -1331 1869 -1331 
Q 1566 -1331 1297 -1286 
Q 1028 -1241 775 -1147 
L 775 -588 
Q 1028 -725 1275 -790 
Q 1522 -856 1778 -856 
Q 2344 -856 2625 -561 
Q 2906 -266 2906 331 
L 2906 616 
Q 2728 306 2450 153 
Q 2172 0 1784 0 
Q 1141 0 747 490 
Q 353 981 353 1791 
Q 353 2603 747 3093 
Q 1141 3584 1784 3584 
Q 2172 3584 2450 3431 
Q 2728 3278 2906 2969 
L 2906 3500 
L 3481 3500 
L 3481 434 
z
" transform="scale(0.015625)"/>
       <path id="DejaVuSans-20" transform="scale(0.015625)"/>
       <path id="DejaVuSans-5b" d="M 550 4863 
L 1875 4863 
L 1875 4416 
L 1125 4416 
L 1125 -397 
L 1875 -397 
L 1875 -844 
L 550 -844 
L 550 4863 
z
" transform="scale(0.015625)"/>
       <path id="DejaVuSans-c5" d="M 2663 5081 
Q 2663 5278 2523 5417 
Q 2384 5556 2188 5556 
Q 1988 5556 1852 5420 
Q 1716 5284 1716 5081 
Q 1716 4884 1853 4746 
Q 1991 4609 2188 4609 
Q 2384 4609 2523 4746 
Q 2663 4884 2663 5081 
z
M 2188 4044 
L 1338 1722 
L 3041 1722 
L 2188 4044 
z
M 1716 4366 
Q 1525 4494 1428 4673 
Q 1331 4853 1331 5081 
Q 1331 5441 1579 5691 
Q 1828 5941 2188 5941 
Q 2544 5941 2795 5689 
Q 3047 5438 3047 5081 
Q 3047 4863 2948 4678 
Q 2850 4494 2663 4366 
L 4325 0 
L 3669 0 
L 3244 1197 
L 1141 1197 
L 716 0 
L 50 0 
L 1716 4366 
z
" transform="scale(0.015625)"/>
       <path id="DejaVuSans-5d" d="M 1947 4863 
L 1947 -844 
L 622 -844 
L 622 -397 
L 1369 -397 
L 1369 4416 
L 622 4416 
L 622 4863 
L 1947 4863 
z
" transform="scale(0.015625)"/>
      </defs>
      <use xlink:href="#DejaVuSans-64"/>
      <use xlink:href="#DejaVuSans-73" transform="translate(63.476562 0)"/>
      <use xlink:href="#DejaVuSans-70" transform="translate(115.576172 0)"/>
      <use xlink:href="#DejaVuSans-61" transform="translate(179.052734 0)"/>
      <use xlink:href="#DejaVuSans-63" transform="translate(240.332031 0)"/>
      <use xlink:href="#DejaVuSans-69" transform="translate(295.3125 0)"/>
      <use xlink:href="#DejaVuSans-6e" transform="translate(323.095703 0)"/>
      <use xlink:href="#DejaVuSans-67" transform="translate(386.474609 0)"/>
      <use xlink:href="#DejaVuSans-20" transform="translate(449.951172 0)"/>
      <use xlink:href="#DejaVuSans-5b" transform="translate(481.738281 0)"/>
      <use xlink:href="#DejaVuSans-c5" transform="translate(520.751953 0)"/>
      <use xlink:href="#DejaVuSans-5d" transform="translate(589.160156 0)"/>
     </g>
    </g>
   </g>
   <g id="matplotlib.axis_2">
    <g id="ytick_1">
     <g id="line2d_7">
      <defs>
       <path id="me7423db7f5" d="M 0 0 
L -3.5 0 
" style="stroke: #000000; stroke-width: 0.8"/>
      </defs>
      <g>
       <use xlink:href="#me7423db7f5" x="43.78125" y="229.478438" style="stroke: #000000; stroke-width: 0.8"/>
      </g>
     </g>
     <g id="text_8">
      <!-- 0.0 -->
      <g transform="translate(20.878125 233.277656) scale(0.1 -0.1)">
       <use xlink:href="#DejaVuSans-30"/>
       <use xlink:href="#DejaVuSans-2e" transform="translate(63.623047 0)"/>
       <use xlink:href="#DejaVuSans-30" transform="translate(95.410156 0)"/>
      </g>
     </g>
    </g>
    <g id="ytick_2">
     <g id="line2d_8">
      <g>
       <use xlink:href="#me7423db7f5" x="43.78125" y="195.302993" style="stroke: #000000; stroke-width: 0.8"/>
      </g>
     </g>
     <g id="text_9">
      <!-- 0.2 -->
      <g transform="translate(20.878125 199.102212) scale(0.1 -0.1)">
       <use xlink:href="#DejaVuSans-30"/>
       <use xlink:href="#DejaVuSans-2e" transform="translate(63.623047 0)"/>
       <use xlink:href="#DejaVuSans-32" transform="translate(95.410156 0)"/>
      </g>
     </g>
    </g>
    <g id="ytick_3">
     <g id="line2d_9">
      <g>
       <use xlink:href="#me7423db7f5" x="43.78125" y="161.127549" style="stroke: #000000; stroke-width: 0.8"/>
      </g>
     </g>
     <g id="text_10">
      <!-- 0.4 -->
      <g transform="translate(20.878125 164.926767) scale(0.1 -0.1)">
       <defs>
        <path id="DejaVuSans-34" d="M 2419 4116 
L 825 1625 
L 2419 1625 
L 2419 4116 
z
M 2253 4666 
L 3047 4666 
L 3047 1625 
L 3713 1625 
L 3713 1100 
L 3047 1100 
L 3047 0 
L 2419 0 
L 2419 1100 
L 313 1100 
L 313 1709 
L 2253 4666 
z
" transform="scale(0.015625)"/>
       </defs>
       <use xlink:href="#DejaVuSans-30"/>
       <use xlink:href="#DejaVuSans-2e" transform="translate(63.623047 0)"/>
       <use xlink:href="#DejaVuSans-34" transform="translate(95.410156 0)"/>
      </g>
     </g>
    </g>
    <g id="ytick_4">
     <g id="line2d_10">
      <g>
       <use xlink:href="#me7423db7f5" x="43.78125" y="126.952104" style="stroke: #000000; stroke-width: 0.8"/>
      </g>
     </g>
     <g id="text_11">
      <!-- 0.6 -->
      <g transform="translate(20.878125 130.751323) scale(0.1 -0.1)">
       <defs>
        <path id="DejaVuSans-36" d="M 2113 2584 
Q 1688 2584 1439 2293 
Q 1191 2003 1191 1497 
Q 1191 994 1439 701 
Q 1688 409 2113 409 
Q 2538 409 2786 701 
Q 3034 994 3034 1497 
Q 3034 2003 2786 2293 
Q 2538 2584 2113 2584 
z
M 3366 4563 
L 3366 3988 
Q 3128 4100 2886 4159 
Q 2644 4219 2406 4219 
Q 1781 4219 1451 3797 
Q 1122 3375 1075 2522 
Q 1259 2794 1537 2939 
Q 1816 3084 2150 3084 
Q 2853 3084 3261 2657 
Q 3669 2231 3669 1497 
Q 3669 778 3244 343 
Q 2819 -91 2113 -91 
Q 1303 -91 875 529 
Q 447 1150 447 2328 
Q 447 3434 972 4092 
Q 1497 4750 2381 4750 
Q 2619 4750 2861 4703 
Q 3103 4656 3366 4563 
z
" transform="scale(0.015625)"/>
       </defs>
       <use xlink:href="#DejaVuSans-30"/>
       <use xlink:href="#DejaVuSans-2e" transform="translate(63.623047 0)"/>
       <use xlink:href="#DejaVuSans-36" transform="translate(95.410156 0)"/>
      </g>
     </g>
    </g>
    <g id="ytick_5">
     <g id="line2d_11">
      <g>
       <use xlink:href="#me7423db7f5" x="43.78125" y="92.77666" style="stroke: #000000; stroke-width: 0.8"/>
      </g>
     </g>
     <g id="text_12">
      <!-- 0.8 -->
      <g transform="translate(20.878125 96.575878) scale(0.1 -0.1)">
       <defs>
        <path id="DejaVuSans-38" d="M 2034 2216 
Q 1584 2216 1326 1975 
Q 1069 1734 1069 1313 
Q 1069 891 1326 650 
Q 1584 409 2034 409 
Q 2484 409 2743 651 
Q 3003 894 3003 1313 
Q 3003 1734 2745 1975 
Q 2488 2216 2034 2216 
z
M 1403 2484 
Q 997 2584 770 2862 
Q 544 3141 544 3541 
Q 544 4100 942 4425 
Q 1341 4750 2034 4750 
Q 2731 4750 3128 4425 
Q 3525 4100 3525 3541 
Q 3525 3141 3298 2862 
Q 3072 2584 2669 2484 
Q 3125 2378 3379 2068 
Q 3634 1759 3634 1313 
Q 3634 634 3220 271 
Q 2806 -91 2034 -91 
Q 1263 -91 848 271 
Q 434 634 434 1313 
Q 434 1759 690 2068 
Q 947 2378 1403 2484 
z
M 1172 3481 
Q 1172 3119 1398 2916 
Q 1625 2713 2034 2713 
Q 2441 2713 2670 2916 
Q 2900 3119 2900 3481 
Q 2900 3844 2670 4047 
Q 2441 4250 2034 4250 
Q 1625 4250 1398 4047 
Q 1172 3844 1172 3481 
z
" transform="scale(0.015625)"/>
       </defs>
       <use xlink:href="#DejaVuSans-30"/>
       <use xlink:href="#DejaVuSans-2e" transform="translate(63.623047 0)"/>
       <use xlink:href="#DejaVuSans-38" transform="translate(95.410156 0)"/>
      </g>
     </g>
    </g>
    <g id="ytick_6">
     <g id="line2d_12">
      <g>
       <use xlink:href="#me7423db7f5" x="43.78125" y="58.601215" style="stroke: #000000; stroke-width: 0.8"/>
      </g>
     </g>
     <g id="text_13">
      <!-- 1.0 -->
      <g transform="translate(20.878125 62.400434) scale(0.1 -0.1)">
       <use xlink:href="#DejaVuSans-31"/>
       <use xlink:href="#DejaVuSans-2e" transform="translate(63.623047 0)"/>
       <use xlink:href="#DejaVuSans-30" transform="translate(95.410156 0)"/>
      </g>
     </g>
    </g>
    <g id="ytick_7">
     <g id="line2d_13">
      <g>
       <use xlink:href="#me7423db7f5" x="43.78125" y="24.425771" style="stroke: #000000; stroke-width: 0.8"/>
      </g>
     </g>
     <g id="text_14">
      <!-- 1.2 -->
      <g transform="translate(20.878125 28.224989) scale(0.1 -0.1)">
       <use xlink:href="#DejaVuSans-31"/>
       <use xlink:href="#DejaVuSans-2e" transform="translate(63.623047 0)"/>
       <use xlink:href="#DejaVuSans-32" transform="translate(95.410156 0)"/>
      </g>
     </g>
    </g>
    <g id="text_15">
     <!-- [counts] -->
     <g transform="translate(14.798438 149.290937) rotate(-90) scale(0.1 -0.1)">
      <defs>
       <path id="DejaVuSans-6f" d="M 1959 3097 
Q 1497 3097 1228 2736 
Q 959 2375 959 1747 
Q 959 1119 1226 758 
Q 1494 397 1959 397 
Q 2419 397 2687 759 
Q 2956 1122 2956 1747 
Q 2956 2369 2687 2733 
Q 2419 3097 1959 3097 
z
M 1959 3584 
Q 2709 3584 3137 3096 
Q 3566 2609 3566 1747 
Q 3566 888 3137 398 
Q 2709 -91 1959 -91 
Q 1206 -91 779 398 
Q 353 888 353 1747 
Q 353 2609 779 3096 
Q 1206 3584 1959 3584 
z
" transform="scale(0.015625)"/>
       <path id="DejaVuSans-75" d="M 544 1381 
L 544 3500 
L 1119 3500 
L 1119 1403 
Q 1119 906 1312 657 
Q 1506 409 1894 409 
Q 2359 409 2629 706 
Q 2900 1003 2900 1516 
L 2900 3500 
L 3475 3500 
L 3475 0 
L 2900 0 
L 2900 538 
Q 2691 219 2414 64 
Q 2138 -91 1772 -91 
Q 1169 -91 856 284 
Q 544 659 544 1381 
z
M 1991 3584 
L 1991 3584 
z
" transform="scale(0.015625)"/>
       <path id="DejaVuSans-74" d="M 1172 4494 
L 1172 3500 
L 2356 3500 
L 2356 3053 
L 1172 3053 
L 1172 1153 
Q 1172 725 1289 603 
Q 1406 481 1766 481 
L 2356 481 
L 2356 0 
L 1766 0 
Q 1100 0 847 248 
Q 594 497 594 1153 
L 594 3053 
L 172 3053 
L 172 3500 
L 594 3500 
L 594 4494 
L 1172 4494 
z
" transform="scale(0.015625)"/>
      </defs>
      <use xlink:href="#DejaVuSans-5b"/>
      <use xlink:href="#DejaVuSans-63" transform="translate(39.013672 0)"/>
      <use xlink:href="#DejaVuSans-6f" transform="translate(93.994141 0)"/>
      <use xlink:href="#DejaVuSans-75" transform="translate(155.175781 0)"/>
      <use xlink:href="#DejaVuSans-6e" transform="translate(218.554688 0)"/>
      <use xlink:href="#DejaVuSans-74" transform="translate(281.933594 0)"/>
      <use xlink:href="#DejaVuSans-73" transform="translate(321.142578 0)"/>
      <use xlink:href="#DejaVuSans-5d" transform="translate(373.242188 0)"/>
     </g>
    </g>
    <g id="text_16">
     <!-- 1e7 -->
     <g transform="translate(43.78125 14.798437) scale(0.1 -0.1)">
      <defs>
       <path id="DejaVuSans-65" d="M 3597 1894 
L 3597 1613 
L 953 1613 
Q 991 1019 1311 708 
Q 1631 397 2203 397 
Q 2534 397 2845 478 
Q 3156 559 3463 722 
L 3463 178 
Q 3153 47 2828 -22 
Q 2503 -91 2169 -91 
Q 1331 -91 842 396 
Q 353 884 353 1716 
Q 353 2575 817 3079 
Q 1281 3584 2069 3584 
Q 2775 3584 3186 3129 
Q 3597 2675 3597 1894 
z
M 3022 2063 
Q 3016 2534 2758 2815 
Q 2500 3097 2075 3097 
Q 1594 3097 1305 2825 
Q 1016 2553 972 2059 
L 3022 2063 
z
" transform="scale(0.015625)"/>
       <path id="DejaVuSans-37" d="M 525 4666 
L 3525 4666 
L 3525 4397 
L 1831 0 
L 1172 0 
L 2766 4134 
L 525 4134 
L 525 4666 
z
" transform="scale(0.015625)"/>
      </defs>
      <use xlink:href="#DejaVuSans-31"/>
      <use xlink:href="#DejaVuSans-65" transform="translate(63.623047 0)"/>
      <use xlink:href="#DejaVuSans-37" transform="translate(125.146484 0)"/>
     </g>
    </g>
   </g>
   <g id="patch_3">
    <path d="M 43.78125 239.558437 
L 43.78125 17.798437 
" style="fill: none; stroke: #000000; stroke-width: 0.8; stroke-linejoin: miter; stroke-linecap: square"/>
   </g>
   <g id="patch_4">
    <path d="M 378.58125 239.558437 
L 378.58125 17.798437 
" style="fill: none; stroke: #000000; stroke-width: 0.8; stroke-linejoin: miter; stroke-linecap: square"/>
   </g>
   <g id="patch_5">
    <path d="M 43.78125 239.558437 
L 378.58125 239.558437 
" style="fill: none; stroke: #000000; stroke-width: 0.8; stroke-linejoin: miter; stroke-linecap: square"/>
   </g>
   <g id="patch_6">
    <path d="M 43.78125 17.798437 
L 378.58125 17.798437 
" style="fill: none; stroke: #000000; stroke-width: 0.8; stroke-linejoin: miter; stroke-linecap: square"/>
   </g>
   <g id="line2d_14">
    <path d="M 58.999432 229.47829 
L 81.826705 229.392239 
L 81.826705 229.349306 
L 84.870341 229.457082 
L 84.870341 228.998353 
L 87.913977 228.958146 
L 87.913977 229.363636 
L 89.435795 229.363636 
L 89.435795 229.182405 
L 92.479432 229.257932 
L 92.479432 229.334537 
L 94.00125 229.334537 
L 94.00125 228.517797 
L 95.523068 228.517797 
L 95.523068 226.267509 
L 97.044886 226.267509 
L 97.044886 228.588617 
L 98.566705 228.588617 
L 98.566705 228.114309 
L 100.088523 228.114309 
L 100.088523 229.008526 
L 103.132159 229.030121 
L 103.132159 227.764595 
L 104.653977 227.764595 
L 104.653977 228.703832 
L 106.175795 228.703832 
L 106.175795 228.12839 
L 107.697614 228.12839 
L 107.697614 228.969233 
L 110.74125 229.064164 
L 110.74125 228.3979 
L 112.263068 228.3979 
L 112.263068 220.802469 
L 113.784886 220.802469 
L 113.784886 224.614762 
L 115.306705 224.614762 
L 115.306705 227.069127 
L 116.828523 227.069127 
L 116.828523 227.203617 
L 118.350341 227.203617 
L 118.350341 228.392259 
L 119.872159 228.392259 
L 119.872159 227.989972 
L 121.393977 227.989972 
L 121.393977 227.807466 
L 124.437614 227.905652 
L 124.437614 223.813046 
L 125.959432 223.813046 
L 125.959432 221.028214 
L 127.48125 221.028214 
L 127.48125 224.749876 
L 129.003068 224.749876 
L 129.003068 226.224268 
L 130.524886 226.224268 
L 130.524886 227.569698 
L 132.046705 227.569698 
L 132.046705 226.889292 
L 133.568523 226.889292 
L 133.568523 226.740382 
L 136.612159 226.682959 
L 136.612159 226.425478 
L 138.133977 226.425478 
L 138.133977 227.263716 
L 139.655795 227.263716 
L 139.655795 226.078879 
L 142.699432 226.115473 
L 142.699432 185.233249 
L 144.22125 185.233249 
L 144.22125 161.83115 
L 145.743068 161.83115 
L 145.743068 213.816604 
L 147.264886 213.816604 
L 147.264886 220.654712 
L 148.786705 220.654712 
L 148.786705 222.591779 
L 150.308523 222.591779 
L 150.308523 224.324856 
L 151.830341 224.324856 
L 151.830341 225.206207 
L 153.352159 225.206207 
L 153.352159 220.864913 
L 154.873977 220.864913 
L 154.873977 221.752377 
L 156.395795 221.752377 
L 156.395795 223.122015 
L 157.917614 223.122015 
L 157.917614 220.339027 
L 159.439432 220.339027 
L 159.439432 218.541773 
L 160.96125 218.541773 
L 160.96125 217.675107 
L 162.483068 217.675107 
L 162.483068 216.819083 
L 164.004886 216.819083 
L 164.004886 217.151065 
L 165.526705 217.151065 
L 165.526705 215.461992 
L 167.048523 215.461992 
L 167.048523 216.775021 
L 168.570341 216.775021 
L 168.570341 216.219997 
L 170.092159 216.219997 
L 170.092159 213.900904 
L 171.613977 213.900904 
L 171.613977 214.833786 
L 173.135795 214.833786 
L 173.135795 203.789642 
L 174.657614 203.789642 
L 174.657614 65.812974 
L 176.179432 65.812974 
L 176.179432 181.413428 
L 177.70125 181.413428 
L 177.70125 205.594824 
L 179.223068 205.594824 
L 179.223068 211.572792 
L 180.744886 211.572792 
L 180.744886 210.765066 
L 182.266705 210.765066 
L 182.266705 215.573907 
L 183.788523 215.573907 
L 183.788523 214.351789 
L 185.310341 214.351789 
L 185.310341 215.90573 
L 186.832159 215.90573 
L 186.832159 213.92722 
L 188.353977 213.92722 
L 188.353977 216.028609 
L 189.875795 216.028609 
L 189.875795 218.180391 
L 191.397614 218.180391 
L 191.397614 214.650253 
L 192.919432 214.650253 
L 192.919432 216.608845 
L 194.44125 216.608845 
L 194.44125 214.20772 
L 195.963068 214.20772 
L 195.963068 217.601345 
L 197.484886 217.601345 
L 197.484886 218.92167 
L 199.006705 218.92167 
L 199.006705 218.782735 
L 200.528523 218.782735 
L 200.528523 220.419695 
L 202.050341 220.419695 
L 202.050341 218.564329 
L 203.572159 218.564329 
L 203.572159 219.034674 
L 205.093977 219.034674 
L 205.093977 219.781549 
L 206.615795 219.781549 
L 206.615795 218.47341 
L 208.137614 218.47341 
L 208.137614 221.588058 
L 209.659432 221.588058 
L 209.659432 222.129633 
L 211.18125 222.129633 
L 211.18125 221.1084 
L 212.703068 221.1084 
L 212.703068 220.891519 
L 214.224886 220.891519 
L 214.224886 222.083102 
L 215.746705 222.083102 
L 215.746705 220.697074 
L 217.268523 220.697074 
L 217.268523 223.221525 
L 218.790341 223.221525 
L 218.790341 222.613501 
L 220.312159 222.613501 
L 220.312159 220.914691 
L 221.833977 220.914691 
L 221.833977 224.333533 
L 223.355795 224.333533 
L 223.355795 220.748046 
L 224.877614 220.748046 
L 224.877614 223.303211 
L 226.399432 223.303211 
L 226.399432 222.762651 
L 227.92125 222.762651 
L 227.92125 223.964781 
L 229.443068 223.964781 
L 229.443068 220.836856 
L 230.964886 220.836856 
L 230.964886 223.373864 
L 232.486705 223.373864 
L 232.486705 224.989162 
L 234.008523 224.989162 
L 234.008523 225.906643 
L 235.530341 225.906643 
L 235.530341 224.392095 
L 240.095795 224.473186 
L 240.095795 223.32069 
L 241.617614 223.32069 
L 241.617614 225.011392 
L 243.139432 225.011392 
L 243.139432 222.036407 
L 244.66125 222.036407 
L 244.66125 144.487864 
L 246.183068 144.487864 
L 246.183068 43.572077 
L 247.704886 43.572077 
L 247.704886 33.496979 
L 249.226705 33.496979 
L 249.226705 93.013674 
L 250.748523 93.013674 
L 250.748523 156.381587 
L 252.270341 156.381587 
L 252.270341 196.404045 
L 253.792159 196.404045 
L 253.792159 210.518052 
L 255.313977 210.518052 
L 255.313977 218.91268 
L 256.835795 218.91268 
L 256.835795 220.422739 
L 258.357614 220.422739 
L 258.357614 222.07555 
L 259.879432 222.07555 
L 259.879432 223.011428 
L 261.40125 223.011428 
L 261.40125 223.208184 
L 262.923068 223.208184 
L 262.923068 223.011654 
L 264.444886 223.011654 
L 264.444886 225.436712 
L 265.966705 225.436712 
L 265.966705 225.07564 
L 269.010341 225.093423 
L 269.010341 225.974962 
L 275.097614 225.868185 
L 275.097614 226.660881 
L 276.619432 226.660881 
L 276.619432 227.339153 
L 278.14125 227.339153 
L 278.14125 226.358996 
L 279.663068 226.358996 
L 279.663068 226.797004 
L 281.184886 226.797004 
L 281.184886 224.993095 
L 282.706705 224.993095 
L 282.706705 225.60368 
L 285.750341 225.50276 
L 285.750341 227.314571 
L 287.272159 227.314571 
L 287.272159 227.725774 
L 288.793977 227.725774 
L 288.793977 226.174106 
L 291.837614 226.133832 
L 291.837614 226.380564 
L 293.359432 226.380564 
L 293.359432 226.046672 
L 294.88125 226.046672 
L 294.88125 225.773178 
L 296.403068 225.773178 
L 296.403068 226.116143 
L 297.924886 226.116143 
L 297.924886 226.327356 
L 299.446705 226.327356 
L 299.446705 225.844377 
L 300.968523 225.844377 
L 300.968523 223.848441 
L 302.490341 223.848441 
L 302.490341 226.033421 
L 304.012159 226.033421 
L 304.012159 226.521519 
L 305.533977 226.521519 
L 305.533977 226.689496 
L 307.055795 226.689496 
L 307.055795 225.621771 
L 308.577614 225.621771 
L 308.577614 226.359515 
L 310.099432 226.359515 
L 310.099432 227.092545 
L 311.62125 227.092545 
L 311.62125 228.139137 
L 313.143068 228.139137 
L 313.143068 226.55002 
L 314.664886 226.55002 
L 314.664886 228.120959 
L 316.186705 228.120959 
L 316.186705 226.869508 
L 317.708523 226.869508 
L 317.708523 227.7882 
L 319.230341 227.7882 
L 319.230341 227.334029 
L 320.752159 227.334029 
L 320.752159 226.92923 
L 322.273977 226.92923 
L 322.273977 227.450158 
L 323.795795 227.450158 
L 323.795795 227.979709 
L 325.317614 227.979709 
L 325.317614 226.59307 
L 326.839432 226.59307 
L 326.839432 227.301379 
L 331.404886 227.392372 
L 331.404886 227.102436 
L 332.926705 227.102436 
L 332.926705 227.796669 
L 334.448523 227.796669 
L 334.448523 228.034231 
L 335.970341 228.034231 
L 335.970341 227.372828 
L 337.492159 227.372828 
L 337.492159 227.676125 
L 339.013977 227.676125 
L 339.013977 228.238028 
L 340.535795 228.238028 
L 340.535795 227.171566 
L 342.057614 227.171566 
L 342.057614 226.908548 
L 343.579432 226.908548 
L 343.579432 227.620566 
L 345.10125 227.620566 
L 345.10125 227.437588 
L 346.623068 227.437588 
L 346.623068 227.13239 
L 348.144886 227.13239 
L 348.144886 227.587199 
L 349.666705 227.587199 
L 349.666705 227.953782 
L 351.188523 227.953782 
L 351.188523 228.210865 
L 352.710341 228.210865 
L 352.710341 228.741089 
L 354.232159 228.741089 
L 354.232159 228.290602 
L 355.753977 228.290602 
L 355.753977 227.283315 
L 357.275795 227.283315 
L 357.275795 227.02325 
L 358.797614 227.02325 
L 358.797614 227.828214 
L 361.84125 227.760021 
L 361.84125 228.010058 
L 363.363068 228.010058 
L 363.363068 228.010058 
" clip-path="url(#pe67a355089)" style="fill: none; stroke: #1f77b4; stroke-width: 1.5; stroke-linecap: square"/>
   </g>
   <g id="LineCollection_1">
    <path d="M 59.760341 229.478437 
L 59.760341 229.478143 
" clip-path="url(#pe67a355089)" style="fill: none; stroke: #1f77b4; stroke-width: 1.5"/>
    <path d="M 61.282159 229.478437 
L 61.282159 229.478374 
" clip-path="url(#pe67a355089)" style="fill: none; stroke: #1f77b4; stroke-width: 1.5"/>
    <path d="M 62.803977 229.478435 
L 62.803977 229.478393 
" clip-path="url(#pe67a355089)" style="fill: none; stroke: #1f77b4; stroke-width: 1.5"/>
    <path d="M 64.325795 229.478433 
L 64.325795 229.477712 
" clip-path="url(#pe67a355089)" style="fill: none; stroke: #1f77b4; stroke-width: 1.5"/>
    <path d="M 65.847614 229.478058 
L 65.847614 229.477461 
" clip-path="url(#pe67a355089)" style="fill: none; stroke: #1f77b4; stroke-width: 1.5"/>
    <path d="M 67.369432 229.478156 
L 67.369432 229.474887 
" clip-path="url(#pe67a355089)" style="fill: none; stroke: #1f77b4; stroke-width: 1.5"/>
    <path d="M 68.89125 229.47803 
L 68.89125 229.470148 
" clip-path="url(#pe67a355089)" style="fill: none; stroke: #1f77b4; stroke-width: 1.5"/>
    <path d="M 70.413068 229.478324 
L 70.413068 229.476792 
" clip-path="url(#pe67a355089)" style="fill: none; stroke: #1f77b4; stroke-width: 1.5"/>
    <path d="M 71.934886 229.462584 
L 71.934886 229.41792 
" clip-path="url(#pe67a355089)" style="fill: none; stroke: #1f77b4; stroke-width: 1.5"/>
    <path d="M 73.456705 229.467979 
L 73.456705 229.435246 
" clip-path="url(#pe67a355089)" style="fill: none; stroke: #1f77b4; stroke-width: 1.5"/>
    <path d="M 74.978523 229.471361 
L 74.978523 229.444995 
" clip-path="url(#pe67a355089)" style="fill: none; stroke: #1f77b4; stroke-width: 1.5"/>
    <path d="M 76.500341 229.472665 
L 76.500341 229.453237 
" clip-path="url(#pe67a355089)" style="fill: none; stroke: #1f77b4; stroke-width: 1.5"/>
    <path d="M 78.022159 229.42583 
L 78.022159 229.360759 
" clip-path="url(#pe67a355089)" style="fill: none; stroke: #1f77b4; stroke-width: 1.5"/>
    <path d="M 79.543977 229.452755 
L 79.543977 229.428619 
" clip-path="url(#pe67a355089)" style="fill: none; stroke: #1f77b4; stroke-width: 1.5"/>
    <path d="M 81.065795 229.42237 
L 81.065795 229.362108 
" clip-path="url(#pe67a355089)" style="fill: none; stroke: #1f77b4; stroke-width: 1.5"/>
    <path d="M 82.587614 229.390039 
L 82.587614 229.308573 
" clip-path="url(#pe67a355089)" style="fill: none; stroke: #1f77b4; stroke-width: 1.5"/>
    <path d="M 84.109432 229.468232 
L 84.109432 229.445931 
" clip-path="url(#pe67a355089)" style="fill: none; stroke: #1f77b4; stroke-width: 1.5"/>
    <path d="M 85.63125 229.098813 
L 85.63125 228.897892 
" clip-path="url(#pe67a355089)" style="fill: none; stroke: #1f77b4; stroke-width: 1.5"/>
    <path d="M 87.153068 229.256839 
L 87.153068 228.659453 
" clip-path="url(#pe67a355089)" style="fill: none; stroke: #1f77b4; stroke-width: 1.5"/>
    <path d="M 88.674886 229.420063 
L 88.674886 229.307209 
" clip-path="url(#pe67a355089)" style="fill: none; stroke: #1f77b4; stroke-width: 1.5"/>
    <path d="M 90.196705 229.290448 
L 90.196705 229.074362 
" clip-path="url(#pe67a355089)" style="fill: none; stroke: #1f77b4; stroke-width: 1.5"/>
    <path d="M 91.718523 229.33405 
L 91.718523 229.181813 
" clip-path="url(#pe67a355089)" style="fill: none; stroke: #1f77b4; stroke-width: 1.5"/>
    <path d="M 93.240341 229.39979 
L 93.240341 229.269284 
" clip-path="url(#pe67a355089)" style="fill: none; stroke: #1f77b4; stroke-width: 1.5"/>
    <path d="M 94.762159 228.987865 
L 94.762159 228.047729 
" clip-path="url(#pe67a355089)" style="fill: none; stroke: #1f77b4; stroke-width: 1.5"/>
    <path d="M 96.283977 226.815944 
L 96.283977 225.719074 
" clip-path="url(#pe67a355089)" style="fill: none; stroke: #1f77b4; stroke-width: 1.5"/>
    <path d="M 97.805795 228.799835 
L 97.805795 228.377399 
" clip-path="url(#pe67a355089)" style="fill: none; stroke: #1f77b4; stroke-width: 1.5"/>
    <path d="M 99.327614 228.611758 
L 99.327614 227.61686 
" clip-path="url(#pe67a355089)" style="fill: none; stroke: #1f77b4; stroke-width: 1.5"/>
    <path d="M 100.849432 229.256635 
L 100.849432 228.760418 
" clip-path="url(#pe67a355089)" style="fill: none; stroke: #1f77b4; stroke-width: 1.5"/>
    <path d="M 102.37125 229.22749 
L 102.37125 228.832752 
" clip-path="url(#pe67a355089)" style="fill: none; stroke: #1f77b4; stroke-width: 1.5"/>
    <path d="M 103.893068 228.013883 
L 103.893068 227.515307 
" clip-path="url(#pe67a355089)" style="fill: none; stroke: #1f77b4; stroke-width: 1.5"/>
    <path d="M 105.414886 228.910385 
L 105.414886 228.49728 
" clip-path="url(#pe67a355089)" style="fill: none; stroke: #1f77b4; stroke-width: 1.5"/>
    <path d="M 106.936705 228.556015 
L 106.936705 227.700766 
" clip-path="url(#pe67a355089)" style="fill: none; stroke: #1f77b4; stroke-width: 1.5"/>
    <path d="M 108.458523 229.153467 
L 108.458523 228.785 
" clip-path="url(#pe67a355089)" style="fill: none; stroke: #1f77b4; stroke-width: 1.5"/>
    <path d="M 109.980341 229.222184 
L 109.980341 228.906143 
" clip-path="url(#pe67a355089)" style="fill: none; stroke: #1f77b4; stroke-width: 1.5"/>
    <path d="M 111.502159 228.737886 
L 111.502159 228.057915 
" clip-path="url(#pe67a355089)" style="fill: none; stroke: #1f77b4; stroke-width: 1.5"/>
    <path d="M 113.023977 221.675035 
L 113.023977 219.929903 
" clip-path="url(#pe67a355089)" style="fill: none; stroke: #1f77b4; stroke-width: 1.5"/>
    <path d="M 114.545795 225.275236 
L 114.545795 223.954289 
" clip-path="url(#pe67a355089)" style="fill: none; stroke: #1f77b4; stroke-width: 1.5"/>
    <path d="M 116.067614 227.65129 
L 116.067614 226.486964 
" clip-path="url(#pe67a355089)" style="fill: none; stroke: #1f77b4; stroke-width: 1.5"/>
    <path d="M 117.589432 227.780613 
L 117.589432 226.626622 
" clip-path="url(#pe67a355089)" style="fill: none; stroke: #1f77b4; stroke-width: 1.5"/>
    <path d="M 119.11125 228.803169 
L 119.11125 227.981349 
" clip-path="url(#pe67a355089)" style="fill: none; stroke: #1f77b4; stroke-width: 1.5"/>
    <path d="M 120.633068 228.429222 
L 120.633068 227.550723 
" clip-path="url(#pe67a355089)" style="fill: none; stroke: #1f77b4; stroke-width: 1.5"/>
    <path d="M 122.154886 228.278468 
L 122.154886 227.336465 
" clip-path="url(#pe67a355089)" style="fill: none; stroke: #1f77b4; stroke-width: 1.5"/>
    <path d="M 123.676705 228.332046 
L 123.676705 227.479259 
" clip-path="url(#pe67a355089)" style="fill: none; stroke: #1f77b4; stroke-width: 1.5"/>
    <path d="M 125.198523 224.407467 
L 125.198523 223.218625 
" clip-path="url(#pe67a355089)" style="fill: none; stroke: #1f77b4; stroke-width: 1.5"/>
    <path d="M 126.720341 221.735553 
L 126.720341 220.320875 
" clip-path="url(#pe67a355089)" style="fill: none; stroke: #1f77b4; stroke-width: 1.5"/>
    <path d="M 128.242159 225.738064 
L 128.242159 223.761688 
" clip-path="url(#pe67a355089)" style="fill: none; stroke: #1f77b4; stroke-width: 1.5"/>
    <path d="M 129.763977 226.798855 
L 129.763977 225.649682 
" clip-path="url(#pe67a355089)" style="fill: none; stroke: #1f77b4; stroke-width: 1.5"/>
    <path d="M 131.285795 228.032792 
L 131.285795 227.106603 
" clip-path="url(#pe67a355089)" style="fill: none; stroke: #1f77b4; stroke-width: 1.5"/>
    <path d="M 132.807614 227.443088 
L 132.807614 226.335497 
" clip-path="url(#pe67a355089)" style="fill: none; stroke: #1f77b4; stroke-width: 1.5"/>
    <path d="M 134.329432 227.299997 
L 134.329432 226.180766 
" clip-path="url(#pe67a355089)" style="fill: none; stroke: #1f77b4; stroke-width: 1.5"/>
    <path d="M 135.85125 227.207723 
L 135.85125 226.158195 
" clip-path="url(#pe67a355089)" style="fill: none; stroke: #1f77b4; stroke-width: 1.5"/>
    <path d="M 137.373068 227.058336 
L 137.373068 225.79262 
" clip-path="url(#pe67a355089)" style="fill: none; stroke: #1f77b4; stroke-width: 1.5"/>
    <path d="M 138.894886 227.649287 
L 138.894886 226.878145 
" clip-path="url(#pe67a355089)" style="fill: none; stroke: #1f77b4; stroke-width: 1.5"/>
    <path d="M 140.416705 226.8325 
L 140.416705 225.325259 
" clip-path="url(#pe67a355089)" style="fill: none; stroke: #1f77b4; stroke-width: 1.5"/>
    <path d="M 141.938523 226.77431 
L 141.938523 225.456635 
" clip-path="url(#pe67a355089)" style="fill: none; stroke: #1f77b4; stroke-width: 1.5"/>
    <path d="M 143.460341 187.650786 
L 143.460341 182.815712 
" clip-path="url(#pe67a355089)" style="fill: none; stroke: #1f77b4; stroke-width: 1.5"/>
    <path d="M 144.982159 164.695005 
L 144.982159 158.967296 
" clip-path="url(#pe67a355089)" style="fill: none; stroke: #1f77b4; stroke-width: 1.5"/>
    <path d="M 146.503977 215.267414 
L 146.503977 212.365794 
" clip-path="url(#pe67a355089)" style="fill: none; stroke: #1f77b4; stroke-width: 1.5"/>
    <path d="M 148.025795 221.794108 
L 148.025795 219.515317 
" clip-path="url(#pe67a355089)" style="fill: none; stroke: #1f77b4; stroke-width: 1.5"/>
    <path d="M 149.547614 223.713118 
L 149.547614 221.47044 
" clip-path="url(#pe67a355089)" style="fill: none; stroke: #1f77b4; stroke-width: 1.5"/>
    <path d="M 151.069432 225.130869 
L 151.069432 223.518844 
" clip-path="url(#pe67a355089)" style="fill: none; stroke: #1f77b4; stroke-width: 1.5"/>
    <path d="M 152.59125 225.88415 
L 152.59125 224.528264 
" clip-path="url(#pe67a355089)" style="fill: none; stroke: #1f77b4; stroke-width: 1.5"/>
    <path d="M 154.113068 222.646631 
L 154.113068 219.083196 
" clip-path="url(#pe67a355089)" style="fill: none; stroke: #1f77b4; stroke-width: 1.5"/>
    <path d="M 155.634886 222.900309 
L 155.634886 220.604444 
" clip-path="url(#pe67a355089)" style="fill: none; stroke: #1f77b4; stroke-width: 1.5"/>
    <path d="M 157.156705 224.15027 
L 157.156705 222.093759 
" clip-path="url(#pe67a355089)" style="fill: none; stroke: #1f77b4; stroke-width: 1.5"/>
    <path d="M 158.678523 221.824155 
L 158.678523 218.853899 
" clip-path="url(#pe67a355089)" style="fill: none; stroke: #1f77b4; stroke-width: 1.5"/>
    <path d="M 160.200341 220.069155 
L 160.200341 217.014391 
" clip-path="url(#pe67a355089)" style="fill: none; stroke: #1f77b4; stroke-width: 1.5"/>
    <path d="M 161.722159 219.721715 
L 161.722159 215.6285 
" clip-path="url(#pe67a355089)" style="fill: none; stroke: #1f77b4; stroke-width: 1.5"/>
    <path d="M 163.243977 218.831311 
L 163.243977 214.806855 
" clip-path="url(#pe67a355089)" style="fill: none; stroke: #1f77b4; stroke-width: 1.5"/>
    <path d="M 164.765795 219.007497 
L 164.765795 215.294632 
" clip-path="url(#pe67a355089)" style="fill: none; stroke: #1f77b4; stroke-width: 1.5"/>
    <path d="M 166.287614 217.475121 
L 166.287614 213.448863 
" clip-path="url(#pe67a355089)" style="fill: none; stroke: #1f77b4; stroke-width: 1.5"/>
    <path d="M 167.809432 218.477877 
L 167.809432 215.072164 
" clip-path="url(#pe67a355089)" style="fill: none; stroke: #1f77b4; stroke-width: 1.5"/>
    <path d="M 169.33125 218.074973 
L 169.33125 214.365021 
" clip-path="url(#pe67a355089)" style="fill: none; stroke: #1f77b4; stroke-width: 1.5"/>
    <path d="M 170.853068 216.039503 
L 170.853068 211.762305 
" clip-path="url(#pe67a355089)" style="fill: none; stroke: #1f77b4; stroke-width: 1.5"/>
    <path d="M 172.374886 217.232181 
L 172.374886 212.435392 
" clip-path="url(#pe67a355089)" style="fill: none; stroke: #1f77b4; stroke-width: 1.5"/>
    <path d="M 173.896705 205.995426 
L 173.896705 201.583857 
" clip-path="url(#pe67a355089)" style="fill: none; stroke: #1f77b4; stroke-width: 1.5"/>
    <path d="M 175.418523 69.44878 
L 175.418523 62.177168 
" clip-path="url(#pe67a355089)" style="fill: none; stroke: #1f77b4; stroke-width: 1.5"/>
    <path d="M 176.940341 183.856246 
L 176.940341 178.970611 
" clip-path="url(#pe67a355089)" style="fill: none; stroke: #1f77b4; stroke-width: 1.5"/>
    <path d="M 178.462159 207.775748 
L 178.462159 203.413901 
" clip-path="url(#pe67a355089)" style="fill: none; stroke: #1f77b4; stroke-width: 1.5"/>
    <path d="M 179.983977 213.411538 
L 179.983977 209.734045 
" clip-path="url(#pe67a355089)" style="fill: none; stroke: #1f77b4; stroke-width: 1.5"/>
    <path d="M 181.505795 212.566772 
L 181.505795 208.963361 
" clip-path="url(#pe67a355089)" style="fill: none; stroke: #1f77b4; stroke-width: 1.5"/>
    <path d="M 183.027614 217.113209 
L 183.027614 214.034606 
" clip-path="url(#pe67a355089)" style="fill: none; stroke: #1f77b4; stroke-width: 1.5"/>
    <path d="M 184.549432 216.16241 
L 184.549432 212.541168 
" clip-path="url(#pe67a355089)" style="fill: none; stroke: #1f77b4; stroke-width: 1.5"/>
    <path d="M 186.07125 217.267839 
L 186.07125 214.543621 
" clip-path="url(#pe67a355089)" style="fill: none; stroke: #1f77b4; stroke-width: 1.5"/>
    <path d="M 187.593068 215.549798 
L 187.593068 212.304642 
" clip-path="url(#pe67a355089)" style="fill: none; stroke: #1f77b4; stroke-width: 1.5"/>
    <path d="M 189.114886 217.719858 
L 189.114886 214.337359 
" clip-path="url(#pe67a355089)" style="fill: none; stroke: #1f77b4; stroke-width: 1.5"/>
    <path d="M 190.636705 219.343108 
L 190.636705 217.017673 
" clip-path="url(#pe67a355089)" style="fill: none; stroke: #1f77b4; stroke-width: 1.5"/>
    <path d="M 192.158523 216.222714 
L 192.158523 213.077792 
" clip-path="url(#pe67a355089)" style="fill: none; stroke: #1f77b4; stroke-width: 1.5"/>
    <path d="M 193.680341 218.301818 
L 193.680341 214.915872 
" clip-path="url(#pe67a355089)" style="fill: none; stroke: #1f77b4; stroke-width: 1.5"/>
    <path d="M 195.202159 215.968293 
L 195.202159 212.447148 
" clip-path="url(#pe67a355089)" style="fill: none; stroke: #1f77b4; stroke-width: 1.5"/>
    <path d="M 196.723977 219.070176 
L 196.723977 216.132514 
" clip-path="url(#pe67a355089)" style="fill: none; stroke: #1f77b4; stroke-width: 1.5"/>
    <path d="M 198.245795 220.399382 
L 198.245795 217.443959 
" clip-path="url(#pe67a355089)" style="fill: none; stroke: #1f77b4; stroke-width: 1.5"/>
    <path d="M 199.767614 220.031039 
L 199.767614 217.534431 
" clip-path="url(#pe67a355089)" style="fill: none; stroke: #1f77b4; stroke-width: 1.5"/>
    <path d="M 201.289432 221.44915 
L 201.289432 219.390239 
" clip-path="url(#pe67a355089)" style="fill: none; stroke: #1f77b4; stroke-width: 1.5"/>
    <path d="M 202.81125 219.984192 
L 202.81125 217.144467 
" clip-path="url(#pe67a355089)" style="fill: none; stroke: #1f77b4; stroke-width: 1.5"/>
    <path d="M 204.333068 220.324621 
L 204.333068 217.744726 
" clip-path="url(#pe67a355089)" style="fill: none; stroke: #1f77b4; stroke-width: 1.5"/>
    <path d="M 205.854886 220.986271 
L 205.854886 218.576827 
" clip-path="url(#pe67a355089)" style="fill: none; stroke: #1f77b4; stroke-width: 1.5"/>
    <path d="M 207.376705 219.961116 
L 207.376705 216.985704 
" clip-path="url(#pe67a355089)" style="fill: none; stroke: #1f77b4; stroke-width: 1.5"/>
    <path d="M 208.898523 222.76625 
L 208.898523 220.409866 
" clip-path="url(#pe67a355089)" style="fill: none; stroke: #1f77b4; stroke-width: 1.5"/>
    <path d="M 210.420341 223.098928 
L 210.420341 221.160339 
" clip-path="url(#pe67a355089)" style="fill: none; stroke: #1f77b4; stroke-width: 1.5"/>
    <path d="M 211.942159 222.394773 
L 211.942159 219.822027 
" clip-path="url(#pe67a355089)" style="fill: none; stroke: #1f77b4; stroke-width: 1.5"/>
    <path d="M 213.463977 221.940469 
L 213.463977 219.842569 
" clip-path="url(#pe67a355089)" style="fill: none; stroke: #1f77b4; stroke-width: 1.5"/>
    <path d="M 214.985795 223.14515 
L 214.985795 221.021054 
" clip-path="url(#pe67a355089)" style="fill: none; stroke: #1f77b4; stroke-width: 1.5"/>
    <path d="M 216.507614 221.956558 
L 216.507614 219.437589 
" clip-path="url(#pe67a355089)" style="fill: none; stroke: #1f77b4; stroke-width: 1.5"/>
    <path d="M 218.029432 224.092855 
L 218.029432 222.350194 
" clip-path="url(#pe67a355089)" style="fill: none; stroke: #1f77b4; stroke-width: 1.5"/>
    <path d="M 219.55125 223.642354 
L 219.55125 221.584647 
" clip-path="url(#pe67a355089)" style="fill: none; stroke: #1f77b4; stroke-width: 1.5"/>
    <path d="M 221.073068 222.442545 
L 221.073068 219.386838 
" clip-path="url(#pe67a355089)" style="fill: none; stroke: #1f77b4; stroke-width: 1.5"/>
    <path d="M 222.594886 225.209544 
L 222.594886 223.457522 
" clip-path="url(#pe67a355089)" style="fill: none; stroke: #1f77b4; stroke-width: 1.5"/>
    <path d="M 224.116705 221.89434 
L 224.116705 219.601751 
" clip-path="url(#pe67a355089)" style="fill: none; stroke: #1f77b4; stroke-width: 1.5"/>
    <path d="M 225.638523 224.32848 
L 225.638523 222.277942 
" clip-path="url(#pe67a355089)" style="fill: none; stroke: #1f77b4; stroke-width: 1.5"/>
    <path d="M 227.160341 223.902212 
L 227.160341 221.623091 
" clip-path="url(#pe67a355089)" style="fill: none; stroke: #1f77b4; stroke-width: 1.5"/>
    <path d="M 228.682159 224.807309 
L 228.682159 223.122252 
" clip-path="url(#pe67a355089)" style="fill: none; stroke: #1f77b4; stroke-width: 1.5"/>
    <path d="M 230.203977 222.33623 
L 230.203977 219.337482 
" clip-path="url(#pe67a355089)" style="fill: none; stroke: #1f77b4; stroke-width: 1.5"/>
    <path d="M 231.725795 224.380243 
L 231.725795 222.367485 
" clip-path="url(#pe67a355089)" style="fill: none; stroke: #1f77b4; stroke-width: 1.5"/>
    <path d="M 233.247614 225.656418 
L 233.247614 224.321906 
" clip-path="url(#pe67a355089)" style="fill: none; stroke: #1f77b4; stroke-width: 1.5"/>
    <path d="M 234.769432 226.488715 
L 234.769432 225.32457 
" clip-path="url(#pe67a355089)" style="fill: none; stroke: #1f77b4; stroke-width: 1.5"/>
    <path d="M 236.29125 225.347703 
L 236.29125 223.436487 
" clip-path="url(#pe67a355089)" style="fill: none; stroke: #1f77b4; stroke-width: 1.5"/>
    <path d="M 237.813068 225.258891 
L 237.813068 223.59053 
" clip-path="url(#pe67a355089)" style="fill: none; stroke: #1f77b4; stroke-width: 1.5"/>
    <path d="M 239.334886 225.511456 
L 239.334886 223.434915 
" clip-path="url(#pe67a355089)" style="fill: none; stroke: #1f77b4; stroke-width: 1.5"/>
    <path d="M 240.856705 224.444776 
L 240.856705 222.196605 
" clip-path="url(#pe67a355089)" style="fill: none; stroke: #1f77b4; stroke-width: 1.5"/>
    <path d="M 242.378523 225.682952 
L 242.378523 224.339831 
" clip-path="url(#pe67a355089)" style="fill: none; stroke: #1f77b4; stroke-width: 1.5"/>
    <path d="M 243.900341 223.017377 
L 243.900341 221.055437 
" clip-path="url(#pe67a355089)" style="fill: none; stroke: #1f77b4; stroke-width: 1.5"/>
    <path d="M 245.422159 147.42679 
L 245.422159 141.548938 
" clip-path="url(#pe67a355089)" style="fill: none; stroke: #1f77b4; stroke-width: 1.5"/>
    <path d="M 246.943977 48.609987 
L 246.943977 38.534168 
" clip-path="url(#pe67a355089)" style="fill: none; stroke: #1f77b4; stroke-width: 1.5"/>
    <path d="M 248.465795 39.11552 
L 248.465795 27.878437 
" clip-path="url(#pe67a355089)" style="fill: none; stroke: #1f77b4; stroke-width: 1.5"/>
    <path d="M 249.987614 97.957125 
L 249.987614 88.070222 
" clip-path="url(#pe67a355089)" style="fill: none; stroke: #1f77b4; stroke-width: 1.5"/>
    <path d="M 251.509432 160.025201 
L 251.509432 152.737974 
" clip-path="url(#pe67a355089)" style="fill: none; stroke: #1f77b4; stroke-width: 1.5"/>
    <path d="M 253.03125 198.83964 
L 253.03125 193.96845 
" clip-path="url(#pe67a355089)" style="fill: none; stroke: #1f77b4; stroke-width: 1.5"/>
    <path d="M 254.553068 212.270889 
L 254.553068 208.765216 
" clip-path="url(#pe67a355089)" style="fill: none; stroke: #1f77b4; stroke-width: 1.5"/>
    <path d="M 256.074886 220.11148 
L 256.074886 217.71388 
" clip-path="url(#pe67a355089)" style="fill: none; stroke: #1f77b4; stroke-width: 1.5"/>
    <path d="M 257.596705 221.665758 
L 257.596705 219.17972 
" clip-path="url(#pe67a355089)" style="fill: none; stroke: #1f77b4; stroke-width: 1.5"/>
    <path d="M 259.118523 223.134231 
L 259.118523 221.016868 
" clip-path="url(#pe67a355089)" style="fill: none; stroke: #1f77b4; stroke-width: 1.5"/>
    <path d="M 260.640341 224.017875 
L 260.640341 222.004982 
" clip-path="url(#pe67a355089)" style="fill: none; stroke: #1f77b4; stroke-width: 1.5"/>
    <path d="M 262.162159 224.41226 
L 262.162159 222.004107 
" clip-path="url(#pe67a355089)" style="fill: none; stroke: #1f77b4; stroke-width: 1.5"/>
    <path d="M 263.683977 224.535821 
L 263.683977 221.487487 
" clip-path="url(#pe67a355089)" style="fill: none; stroke: #1f77b4; stroke-width: 1.5"/>
    <path d="M 265.205795 226.267608 
L 265.205795 224.605815 
" clip-path="url(#pe67a355089)" style="fill: none; stroke: #1f77b4; stroke-width: 1.5"/>
    <path d="M 266.727614 226.167726 
L 266.727614 223.983555 
" clip-path="url(#pe67a355089)" style="fill: none; stroke: #1f77b4; stroke-width: 1.5"/>
    <path d="M 268.249432 225.948128 
L 268.249432 224.238718 
" clip-path="url(#pe67a355089)" style="fill: none; stroke: #1f77b4; stroke-width: 1.5"/>
    <path d="M 269.77125 226.690006 
L 269.77125 225.259918 
" clip-path="url(#pe67a355089)" style="fill: none; stroke: #1f77b4; stroke-width: 1.5"/>
    <path d="M 271.293068 226.696854 
L 271.293068 225.148166 
" clip-path="url(#pe67a355089)" style="fill: none; stroke: #1f77b4; stroke-width: 1.5"/>
    <path d="M 272.814886 226.68066 
L 272.814886 225.459574 
" clip-path="url(#pe67a355089)" style="fill: none; stroke: #1f77b4; stroke-width: 1.5"/>
    <path d="M 274.336705 226.862808 
L 274.336705 224.873563 
" clip-path="url(#pe67a355089)" style="fill: none; stroke: #1f77b4; stroke-width: 1.5"/>
    <path d="M 275.858523 227.293657 
L 275.858523 226.028105 
" clip-path="url(#pe67a355089)" style="fill: none; stroke: #1f77b4; stroke-width: 1.5"/>
    <path d="M 277.380341 227.807463 
L 277.380341 226.870843 
" clip-path="url(#pe67a355089)" style="fill: none; stroke: #1f77b4; stroke-width: 1.5"/>
    <path d="M 278.902159 227.056229 
L 278.902159 225.661762 
" clip-path="url(#pe67a355089)" style="fill: none; stroke: #1f77b4; stroke-width: 1.5"/>
    <path d="M 280.423977 227.395532 
L 280.423977 226.198476 
" clip-path="url(#pe67a355089)" style="fill: none; stroke: #1f77b4; stroke-width: 1.5"/>
    <path d="M 281.945795 226.014957 
L 281.945795 223.971232 
" clip-path="url(#pe67a355089)" style="fill: none; stroke: #1f77b4; stroke-width: 1.5"/>
    <path d="M 283.467614 226.496444 
L 283.467614 224.710916 
" clip-path="url(#pe67a355089)" style="fill: none; stroke: #1f77b4; stroke-width: 1.5"/>
    <path d="M 284.989432 226.578182 
L 284.989432 224.427337 
" clip-path="url(#pe67a355089)" style="fill: none; stroke: #1f77b4; stroke-width: 1.5"/>
    <path d="M 286.51125 227.755274 
L 286.51125 226.873868 
" clip-path="url(#pe67a355089)" style="fill: none; stroke: #1f77b4; stroke-width: 1.5"/>
    <path d="M 288.033068 228.262253 
L 288.033068 227.189294 
" clip-path="url(#pe67a355089)" style="fill: none; stroke: #1f77b4; stroke-width: 1.5"/>
    <path d="M 289.554886 226.820534 
L 289.554886 225.527677 
" clip-path="url(#pe67a355089)" style="fill: none; stroke: #1f77b4; stroke-width: 1.5"/>
    <path d="M 291.076705 227.363083 
L 291.076705 224.90458 
" clip-path="url(#pe67a355089)" style="fill: none; stroke: #1f77b4; stroke-width: 1.5"/>
    <path d="M 292.598523 227.189389 
L 292.598523 225.571739 
" clip-path="url(#pe67a355089)" style="fill: none; stroke: #1f77b4; stroke-width: 1.5"/>
    <path d="M 294.120341 226.743329 
L 294.120341 225.350014 
" clip-path="url(#pe67a355089)" style="fill: none; stroke: #1f77b4; stroke-width: 1.5"/>
    <path d="M 295.642159 226.686471 
L 295.642159 224.859884 
" clip-path="url(#pe67a355089)" style="fill: none; stroke: #1f77b4; stroke-width: 1.5"/>
    <path d="M 297.163977 226.915962 
L 297.163977 225.316325 
" clip-path="url(#pe67a355089)" style="fill: none; stroke: #1f77b4; stroke-width: 1.5"/>
    <path d="M 298.685795 227.186456 
L 298.685795 225.468255 
" clip-path="url(#pe67a355089)" style="fill: none; stroke: #1f77b4; stroke-width: 1.5"/>
    <path d="M 300.207614 226.745586 
L 300.207614 224.943168 
" clip-path="url(#pe67a355089)" style="fill: none; stroke: #1f77b4; stroke-width: 1.5"/>
    <path d="M 301.729432 226.738857 
L 301.729432 220.958024 
" clip-path="url(#pe67a355089)" style="fill: none; stroke: #1f77b4; stroke-width: 1.5"/>
    <path d="M 303.25125 226.902644 
L 303.25125 225.164199 
" clip-path="url(#pe67a355089)" style="fill: none; stroke: #1f77b4; stroke-width: 1.5"/>
    <path d="M 304.773068 227.330599 
L 304.773068 225.712439 
" clip-path="url(#pe67a355089)" style="fill: none; stroke: #1f77b4; stroke-width: 1.5"/>
    <path d="M 306.294886 227.266432 
L 306.294886 226.11256 
" clip-path="url(#pe67a355089)" style="fill: none; stroke: #1f77b4; stroke-width: 1.5"/>
    <path d="M 307.816705 226.976042 
L 307.816705 224.267501 
" clip-path="url(#pe67a355089)" style="fill: none; stroke: #1f77b4; stroke-width: 1.5"/>
    <path d="M 309.338523 227.113836 
L 309.338523 225.605195 
" clip-path="url(#pe67a355089)" style="fill: none; stroke: #1f77b4; stroke-width: 1.5"/>
    <path d="M 310.860341 227.78551 
L 310.860341 226.39958 
" clip-path="url(#pe67a355089)" style="fill: none; stroke: #1f77b4; stroke-width: 1.5"/>
    <path d="M 312.382159 228.414686 
L 312.382159 227.863588 
" clip-path="url(#pe67a355089)" style="fill: none; stroke: #1f77b4; stroke-width: 1.5"/>
    <path d="M 313.903977 227.263297 
L 313.903977 225.836743 
" clip-path="url(#pe67a355089)" style="fill: none; stroke: #1f77b4; stroke-width: 1.5"/>
    <path d="M 315.425795 228.452856 
L 315.425795 227.789061 
" clip-path="url(#pe67a355089)" style="fill: none; stroke: #1f77b4; stroke-width: 1.5"/>
    <path d="M 316.947614 227.531943 
L 316.947614 226.207072 
" clip-path="url(#pe67a355089)" style="fill: none; stroke: #1f77b4; stroke-width: 1.5"/>
    <path d="M 318.469432 228.214632 
L 318.469432 227.361769 
" clip-path="url(#pe67a355089)" style="fill: none; stroke: #1f77b4; stroke-width: 1.5"/>
    <path d="M 319.99125 227.867036 
L 319.99125 226.801022 
" clip-path="url(#pe67a355089)" style="fill: none; stroke: #1f77b4; stroke-width: 1.5"/>
    <path d="M 321.513068 227.456693 
L 321.513068 226.401768 
" clip-path="url(#pe67a355089)" style="fill: none; stroke: #1f77b4; stroke-width: 1.5"/>
    <path d="M 323.034886 227.869224 
L 323.034886 227.031092 
" clip-path="url(#pe67a355089)" style="fill: none; stroke: #1f77b4; stroke-width: 1.5"/>
    <path d="M 324.556705 228.432826 
L 324.556705 227.526593 
" clip-path="url(#pe67a355089)" style="fill: none; stroke: #1f77b4; stroke-width: 1.5"/>
    <path d="M 326.078523 227.262216 
L 326.078523 225.923924 
" clip-path="url(#pe67a355089)" style="fill: none; stroke: #1f77b4; stroke-width: 1.5"/>
    <path d="M 327.600341 227.922168 
L 327.600341 226.680591 
" clip-path="url(#pe67a355089)" style="fill: none; stroke: #1f77b4; stroke-width: 1.5"/>
    <path d="M 329.122159 227.920477 
L 329.122159 226.48481 
" clip-path="url(#pe67a355089)" style="fill: none; stroke: #1f77b4; stroke-width: 1.5"/>
    <path d="M 330.643977 228.127481 
L 330.643977 226.657263 
" clip-path="url(#pe67a355089)" style="fill: none; stroke: #1f77b4; stroke-width: 1.5"/>
    <path d="M 332.165795 227.741982 
L 332.165795 226.462889 
" clip-path="url(#pe67a355089)" style="fill: none; stroke: #1f77b4; stroke-width: 1.5"/>
    <path d="M 333.687614 228.325301 
L 333.687614 227.268037 
" clip-path="url(#pe67a355089)" style="fill: none; stroke: #1f77b4; stroke-width: 1.5"/>
    <path d="M 335.209432 228.363015 
L 335.209432 227.705447 
" clip-path="url(#pe67a355089)" style="fill: none; stroke: #1f77b4; stroke-width: 1.5"/>
    <path d="M 336.73125 227.975285 
L 336.73125 226.770372 
" clip-path="url(#pe67a355089)" style="fill: none; stroke: #1f77b4; stroke-width: 1.5"/>
    <path d="M 338.253068 228.358404 
L 338.253068 226.993846 
" clip-path="url(#pe67a355089)" style="fill: none; stroke: #1f77b4; stroke-width: 1.5"/>
    <path d="M 339.774886 228.573935 
L 339.774886 227.902122 
" clip-path="url(#pe67a355089)" style="fill: none; stroke: #1f77b4; stroke-width: 1.5"/>
    <path d="M 341.296705 227.845495 
L 341.296705 226.497637 
" clip-path="url(#pe67a355089)" style="fill: none; stroke: #1f77b4; stroke-width: 1.5"/>
    <path d="M 342.818523 227.877422 
L 342.818523 225.939674 
" clip-path="url(#pe67a355089)" style="fill: none; stroke: #1f77b4; stroke-width: 1.5"/>
    <path d="M 344.340341 228.066387 
L 344.340341 227.174746 
" clip-path="url(#pe67a355089)" style="fill: none; stroke: #1f77b4; stroke-width: 1.5"/>
    <path d="M 345.862159 228.029872 
L 345.862159 226.845303 
" clip-path="url(#pe67a355089)" style="fill: none; stroke: #1f77b4; stroke-width: 1.5"/>
    <path d="M 347.383977 227.740314 
L 347.383977 226.524466 
" clip-path="url(#pe67a355089)" style="fill: none; stroke: #1f77b4; stroke-width: 1.5"/>
    <path d="M 348.905795 228.020081 
L 348.905795 227.154318 
" clip-path="url(#pe67a355089)" style="fill: none; stroke: #1f77b4; stroke-width: 1.5"/>
    <path d="M 350.427614 228.322565 
L 350.427614 227.585 
" clip-path="url(#pe67a355089)" style="fill: none; stroke: #1f77b4; stroke-width: 1.5"/>
    <path d="M 351.949432 228.725146 
L 351.949432 227.696585 
" clip-path="url(#pe67a355089)" style="fill: none; stroke: #1f77b4; stroke-width: 1.5"/>
    <path d="M 353.47125 228.974124 
L 353.47125 228.508053 
" clip-path="url(#pe67a355089)" style="fill: none; stroke: #1f77b4; stroke-width: 1.5"/>
    <path d="M 354.993068 228.647071 
L 354.993068 227.934133 
" clip-path="url(#pe67a355089)" style="fill: none; stroke: #1f77b4; stroke-width: 1.5"/>
    <path d="M 356.514886 228.078636 
L 356.514886 226.487994 
" clip-path="url(#pe67a355089)" style="fill: none; stroke: #1f77b4; stroke-width: 1.5"/>
    <path d="M 358.036705 227.680562 
L 358.036705 226.365938 
" clip-path="url(#pe67a355089)" style="fill: none; stroke: #1f77b4; stroke-width: 1.5"/>
    <path d="M 359.558523 228.332761 
L 359.558523 227.323667 
" clip-path="url(#pe67a355089)" style="fill: none; stroke: #1f77b4; stroke-width: 1.5"/>
    <path d="M 361.080341 228.253321 
L 361.080341 227.266722 
" clip-path="url(#pe67a355089)" style="fill: none; stroke: #1f77b4; stroke-width: 1.5"/>
    <path d="M 362.602159 228.480352 
L 362.602159 227.539764 
" clip-path="url(#pe67a355089)" style="fill: none; stroke: #1f77b4; stroke-width: 1.5"/>
   </g>
  </g>
 </g>
 <defs>
  <clipPath id="pe67a355089">
   <rect x="43.78125" y="17.798437" width="334.8" height="221.76"/>
  </clipPath>
 </defs>
</svg>