<?xml version="1.0" encoding="UTF-8" standalone="no"?>
<!DOCTYPE svg PUBLIC "-//W3C//DTD SVG 1.1//EN"
 "http://www.w3.org/Graphics/SVG/1.1/DTD/svg11.dtd">
<!-- Generated by graphviz version 14.1.2 (20260126.1125)
 -->
<!-- Pages: 1 -->
<svg width="479pt" height="340pt"
 viewBox="0.00 0.00 479.00 340.00" xmlns="http://www.w3.org/2000/svg" xmlns:xlink="http://www.w3.org/1999/xlink">
<g id="graph0" class="graph" transform="scale(1 1) rotate(0) translate(4 335.5)">
<polygon fill="white" stroke="none" points="-4,4 -4,-335.5 474.5,-335.5 474.5,4 -4,4"/>
<!-- source_position -->
<g id="node1" class="node">
<title>source_position</title>
<polygon fill="none" stroke="black" points="367,-331.5 240,-331.5 240,-306.25 367,-306.25 367,-331.5"/>
<text xml:space="preserve" text-anchor="middle" x="303.5" y="-314.2" font-family="Times,serif" font-size="14.00">source_position</text>
</g>
<!-- incident_beam -->
<g id="node2" class="node">
<title>incident_beam</title>
<polygon fill="none" stroke="black" points="306.25,-270.25 186.75,-270.25 186.75,-245 306.25,-245 306.25,-270.25"/>
<text xml:space="preserve" text-anchor="middle" x="246.5" y="-252.95" font-family="Times,serif" font-size="14.00">incident_beam</text>
</g>
<!-- source_position&#45;&gt;incident_beam -->
<g id="edge1" class="edge">
<title>source_position&#45;&gt;incident_beam</title>
<path fill="none" stroke="black" d="M291.97,-305.88C284.47,-298.09 274.52,-287.75 265.83,-278.72"/>
<polygon fill="black" stroke="black" points="268.52,-276.47 259.07,-271.69 263.48,-281.32 268.52,-276.47"/>
</g>
<!-- L1 -->
<g id="node6" class="node">
<title>L1</title>
<polygon fill="none" stroke="black" points="282.5,-209 228.5,-209 228.5,-183.75 282.5,-183.75 282.5,-209"/>
<text xml:space="preserve" text-anchor="middle" x="255.5" y="-191.7" font-family="Times,serif" font-size="14.00">L1</text>
</g>
<!-- incident_beam&#45;&gt;L1 -->
<g id="edge5" class="edge">
<title>incident_beam&#45;&gt;L1</title>
<path fill="none" stroke="black" d="M248.32,-244.63C249.37,-237.73 250.72,-228.81 251.97,-220.59"/>
<polygon fill="black" stroke="black" points="255.41,-221.26 253.45,-210.84 248.49,-220.2 255.41,-221.26"/>
</g>
<!-- two_theta -->
<g id="node8" class="node">
<title>two_theta</title>
<polygon fill="none" stroke="black" points="210.75,-209 124.25,-209 124.25,-183.75 210.75,-183.75 210.75,-209"/>
<text xml:space="preserve" text-anchor="middle" x="167.5" y="-191.7" font-family="Times,serif" font-size="14.00">two_theta</text>
</g>
<!-- incident_beam&#45;&gt;two_theta -->
<g id="edge7" class="edge">
<title>incident_beam&#45;&gt;two_theta</title>
<path fill="none" stroke="black" d="M230.51,-244.63C219.59,-236.44 204.9,-225.42 192.45,-216.09"/>
<polygon fill="black" stroke="black" points="194.77,-213.46 184.67,-210.26 190.57,-219.06 194.77,-213.46"/>
</g>
<!-- sample_position -->
<g id="node3" class="node">
<title>sample_position</title>
<polygon fill="none" stroke="black" points="221.88,-331.5 91.12,-331.5 91.12,-306.25 221.88,-306.25 221.88,-331.5"/>
<text xml:space="preserve" text-anchor="middle" x="156.5" y="-314.2" font-family="Times,serif" font-size="14.00">sample_position</text>
</g>
<!-- sample_position&#45;&gt;incident_beam -->
<g id="edge2" class="edge">
<title>sample_position&#45;&gt;incident_beam</title>
<path fill="none" stroke="black" d="M174.71,-305.88C187.4,-297.53 204.55,-286.24 218.91,-276.79"/>
<polygon fill="black" stroke="black" points="220.62,-279.85 227.05,-271.43 216.77,-274 220.62,-279.85"/>
</g>
<!-- scattered_beam -->
<g id="node5" class="node">
<title>scattered_beam</title>
<polygon fill="none" stroke="black" points="161.12,-270.25 31.88,-270.25 31.88,-245 161.12,-245 161.12,-270.25"/>
<text xml:space="preserve" text-anchor="middle" x="96.5" y="-252.95" font-family="Times,serif" font-size="14.00">scattered_beam</text>
</g>
<!-- sample_position&#45;&gt;scattered_beam -->
<g id="edge4" class="edge">
<title>sample_position&#45;&gt;scattered_beam</title>
<path fill="none" stroke="black" d="M144.36,-305.88C136.39,-298.01 125.77,-287.53 116.57,-278.44"/>
<polygon fill="black" stroke="black" points="119.28,-276.2 109.7,-271.66 114.36,-281.18 119.28,-276.2"/>
</g>
<!-- position -->
<g id="node4" class="node">
<title>position</title>
<polygon fill="none" stroke="black" points="73,-331.5 0,-331.5 0,-306.25 73,-306.25 73,-331.5"/>
<text xml:space="preserve" text-anchor="middle" x="36.5" y="-314.2" font-family="Times,serif" font-size="14.00">position</text>
</g>
<!-- position&#45;&gt;scattered_beam -->
<g id="edge3" class="edge">
<title>position&#45;&gt;scattered_beam</title>
<path fill="none" stroke="black" d="M48.64,-305.88C56.61,-298.01 67.23,-287.53 76.43,-278.44"/>
<polygon fill="black" stroke="black" points="78.64,-281.18 83.3,-271.66 73.72,-276.2 78.64,-281.18"/>
</g>
<!-- L2 -->
<g id="node7" class="node">
<title>L2</title>
<polygon fill="none" stroke="black" points="106.5,-209 52.5,-209 52.5,-183.75 106.5,-183.75 106.5,-209"/>
<text xml:space="preserve" text-anchor="middle" x="79.5" y="-191.7" font-family="Times,serif" font-size="14.00">L2</text>
</g>
<!-- scattered_beam&#45;&gt;L2 -->
<g id="edge6" class="edge">
<title>scattered_beam&#45;&gt;L2</title>
<path fill="none" stroke="black" d="M93.06,-244.63C91.06,-237.65 88.46,-228.6 86.08,-220.3"/>
<polygon fill="black" stroke="black" points="89.47,-219.45 83.35,-210.8 82.75,-221.38 89.47,-219.45"/>
</g>
<!-- scattered_beam&#45;&gt;two_theta -->
<g id="edge8" class="edge">
<title>scattered_beam&#45;&gt;two_theta</title>
<path fill="none" stroke="black" d="M110.87,-244.63C120.49,-236.6 133.37,-225.85 144.42,-216.64"/>
<polygon fill="black" stroke="black" points="146.56,-219.41 151.99,-210.32 142.07,-214.04 146.56,-219.41"/>
</g>
<!-- Ltotal -->
<g id="node9" class="node">
<title>Ltotal</title>
<polygon fill="none" stroke="black" points="281.5,-147.75 223.5,-147.75 223.5,-122.5 281.5,-122.5 281.5,-147.75"/>
<text xml:space="preserve" text-anchor="middle" x="252.5" y="-130.45" font-family="Times,serif" font-size="14.00">Ltotal</text>
</g>
<!-- L1&#45;&gt;Ltotal -->
<g id="edge9" class="edge">
<title>L1&#45;&gt;Ltotal</title>
<path fill="none" stroke="black" d="M254.89,-183.38C254.54,-176.48 254.09,-167.56 253.68,-159.34"/>
<polygon fill="black" stroke="black" points="257.18,-159.42 253.18,-149.61 250.19,-159.77 257.18,-159.42"/>
</g>
<!-- L2&#45;&gt;Ltotal -->
<g id="edge10" class="edge">
<title>L2&#45;&gt;Ltotal</title>
<path fill="none" stroke="black" d="M106.91,-185.99C135.29,-176.27 179.93,-160.98 212.3,-149.89"/>
<polygon fill="black" stroke="black" points="213.43,-153.2 221.76,-146.65 211.17,-146.58 213.43,-153.2"/>
</g>
<!-- dspacing -->
<g id="node15" class="node">
<title>dspacing</title>
<polygon fill="none" stroke="black" points="248.38,-25.25 168.62,-25.25 168.62,0 248.38,0 248.38,-25.25"/>
<text xml:space="preserve" text-anchor="middle" x="208.5" y="-7.95" font-family="Times,serif" font-size="14.00">dspacing</text>
</g>
<!-- two_theta&#45;&gt;dspacing -->
<g id="edge17" class="edge">
<title>two_theta&#45;&gt;dspacing</title>
<path fill="none" stroke="black" d="M168.97,-183.39C172,-159.76 179.7,-105.6 191.5,-61.25 193.71,-52.93 196.73,-43.99 199.6,-36.13"/>
<polygon fill="black" stroke="black" points="202.79,-37.59 203.07,-27 196.25,-35.11 202.79,-37.59"/>
</g>
<!-- wavelength -->
<g id="node11" class="node">
<title>wavelength</title>
<polygon fill="none" stroke="black" points="298.75,-86.5 200.25,-86.5 200.25,-61.25 298.75,-61.25 298.75,-86.5"/>
<text xml:space="preserve" text-anchor="middle" x="249.5" y="-69.2" font-family="Times,serif" font-size="14.00">wavelength</text>
</g>
<!-- Ltotal&#45;&gt;wavelength -->
<g id="edge12" class="edge">
<title>Ltotal&#45;&gt;wavelength</title>
<path fill="none" stroke="black" d="M251.89,-122.13C251.54,-115.23 251.09,-106.31 250.68,-98.09"/>
<polygon fill="black" stroke="black" points="254.18,-98.17 250.18,-88.36 247.19,-98.52 254.18,-98.17"/>
</g>
<!-- energy -->
<g id="node12" class="node">
<title>energy</title>
<polygon fill="none" stroke="black" points="382.25,-86.5 316.75,-86.5 316.75,-61.25 382.25,-61.25 382.25,-86.5"/>
<text xml:space="preserve" text-anchor="middle" x="349.5" y="-69.2" font-family="Times,serif" font-size="14.00">energy</text>
</g>
<!-- Ltotal&#45;&gt;energy -->
<g id="edge14" class="edge">
<title>Ltotal&#45;&gt;energy</title>
<path fill="none" stroke="black" d="M272.13,-122.13C285.93,-113.7 304.65,-102.27 320.21,-92.77"/>
<polygon fill="black" stroke="black" points="321.9,-95.84 328.61,-87.64 318.25,-89.86 321.9,-95.84"/>
</g>
<!-- tof -->
<g id="node10" class="node">
<title>tof</title>
<polygon fill="none" stroke="black" points="376.5,-147.75 322.5,-147.75 322.5,-122.5 376.5,-122.5 376.5,-147.75"/>
<text xml:space="preserve" text-anchor="middle" x="349.5" y="-130.45" font-family="Times,serif" font-size="14.00">tof</text>
</g>
<!-- tof&#45;&gt;wavelength -->
<g id="edge11" class="edge">
<title>tof&#45;&gt;wavelength</title>
<path fill="none" stroke="black" d="M329.26,-122.13C314.9,-113.62 295.37,-102.05 279.24,-92.49"/>
<polygon fill="black" stroke="black" points="281.4,-89.71 271.01,-87.62 277.83,-95.73 281.4,-89.71"/>
</g>
<!-- tof&#45;&gt;energy -->
<g id="edge13" class="edge">
<title>tof&#45;&gt;energy</title>
<path fill="none" stroke="black" d="M349.5,-122.13C349.5,-115.23 349.5,-106.31 349.5,-98.09"/>
<polygon fill="black" stroke="black" points="353,-98.36 349.5,-88.36 346,-98.36 353,-98.36"/>
</g>
<!-- wavelength&#45;&gt;dspacing -->
<g id="edge18" class="edge">
<title>wavelength&#45;&gt;dspacing</title>
<path fill="none" stroke="black" d="M241.2,-60.88C236.03,-53.42 229.24,-43.6 223.18,-34.84"/>
<polygon fill="black" stroke="black" points="226.21,-33.07 217.65,-26.84 220.46,-37.06 226.21,-33.07"/>
</g>
<!-- toa -->
<g id="node13" class="node">
<title>toa</title>
<polygon fill="none" stroke="black" points="470.5,-209 416.5,-209 416.5,-183.75 470.5,-183.75 470.5,-209"/>
<text xml:space="preserve" text-anchor="middle" x="443.5" y="-191.7" font-family="Times,serif" font-size="14.00">toa</text>
</g>
<!-- toa&#45;&gt;tof -->
<g id="edge15" class="edge">
<title>toa&#45;&gt;tof</title>
<path fill="none" stroke="black" d="M424.48,-183.38C411.1,-174.95 392.97,-163.52 377.88,-154.02"/>
<polygon fill="black" stroke="black" points="380.1,-151.28 369.77,-148.9 376.37,-157.2 380.1,-151.28"/>
</g>
<!-- time_origin -->
<g id="node14" class="node">
<title>time_origin</title>
<polygon fill="none" stroke="black" points="398,-209 301,-209 301,-183.75 398,-183.75 398,-209"/>
<text xml:space="preserve" text-anchor="middle" x="349.5" y="-191.7" font-family="Times,serif" font-size="14.00">time_origin</text>
</g>
<!-- time_origin&#45;&gt;tof -->
<g id="edge16" class="edge">
<title>time_origin&#45;&gt;tof</title>
<path fill="none" stroke="black" d="M349.5,-183.38C349.5,-176.48 349.5,-167.56 349.5,-159.34"/>
<polygon fill="black" stroke="black" points="353,-159.61 349.5,-149.61 346,-159.61 353,-159.61"/>
</g>
</g>
</svg>