<?xml version="1.0" encoding="utf-8" standalone="no"?>
<!DOCTYPE svg PUBLIC "-//W3C//DTD SVG 1.1//EN"
  "http://www.w3.org/Graphics/SVG/1.1/DTD/svg11.dtd">
<svg xmlns:xlink="http://www.w3.org/1999/xlink" width="389.088147pt" height="268.200625pt" viewBox="0 0 389.088147 268.200625" xmlns="http://www.w3.org/2000/svg" version="1.1">
 <metadata>
  <rdf:RDF xmlns:dc="http://purl.org/dc/elements/1.1/" xmlns:cc="http://creativecommons.org/ns#" xmlns:rdf="http://www.w3.org/1999/02/22-rdf-syntax-ns#">
   <cc:Work>
    <dc:type rdf:resource="http://purl.org/dc/dcmitype/StillImage"/>
    <dc:date>2025-06-23T14:42:15.335781</dc:date>
    <dc:format>image/svg+xml</dc:format>
    <dc:creator>
     <cc:Agent>
      <dc:title>Matplotlib v3.10.1, https://matplotlib.org/</dc:title>
     </cc:Agent>
    </dc:creator>
   </cc:Work>
  </rdf:RDF>
 </metadata>
 <defs>
  <style type="text/css">*{stroke-linejoin: round; stroke-linecap: butt}</style>
 </defs>
 <g id="figure_1">
  <g id="patch_1">
   <path d="M 0 268.200625 
L 389.088147 268.200625 
L 389.088147 0 
L 0 0 
z
" style="fill: #ffffff"/>
  </g>
  <g id="axes_1">
   <g id="patch_2">
    <path d="M 46.965625 228.96 
L 381.765625 228.96 
L 381.765625 7.2 
L 46.965625 7.2 
z
" style="fill: #ffffff"/>
   </g>
   <g id="matplotlib.axis_1">
    <g id="xtick_1">
     <g id="line2d_1">
      <defs>
       <path id="mff762b4951" d="M 0 0 
L 0 3.5 
" style="stroke: #000000; stroke-width: 0.8"/>
      </defs>
      <g>
       <use xlink:href="#mff762b4951" x="62.443058" y="228.96" style="stroke: #000000; stroke-width: 0.8"/>
      </g>
     </g>
     <g id="text_1">
      <!-- 5.25 -->
      <g transform="translate(51.310246 243.558437) scale(0.1 -0.1)">
       <defs>
        <path id="DejaVuSans-35" d="M 691 4666 
L 3169 4666 
L 3169 4134 
L 1269 4134 
L 1269 2991 
Q 1406 3038 1543 3061 
Q 1681 3084 1819 3084 
Q 2600 3084 3056 2656 
Q 3513 2228 3513 1497 
Q 3513 744 3044 326 
Q 2575 -91 1722 -91 
Q 1428 -91 1123 -41 
Q 819 9 494 109 
L 494 744 
Q 775 591 1075 516 
Q 1375 441 1709 441 
Q 2250 441 2565 725 
Q 2881 1009 2881 1497 
Q 2881 1984 2565 2268 
Q 2250 2553 1709 2553 
Q 1456 2553 1204 2497 
Q 953 2441 691 2322 
L 691 4666 
z
" transform="scale(0.015625)"/>
        <path id="DejaVuSans-2e" d="M 684 794 
L 1344 794 
L 1344 0 
L 684 0 
L 684 794 
z
" transform="scale(0.015625)"/>
        <path id="DejaVuSans-32" d="M 1228 531 
L 3431 531 
L 3431 0 
L 469 0 
L 469 531 
Q 828 903 1448 1529 
Q 2069 2156 2228 2338 
Q 2531 2678 2651 2914 
Q 2772 3150 2772 3378 
Q 2772 3750 2511 3984 
Q 2250 4219 1831 4219 
Q 1534 4219 1204 4116 
Q 875 4013 500 3803 
L 500 4441 
Q 881 4594 1212 4672 
Q 1544 4750 1819 4750 
Q 2544 4750 2975 4387 
Q 3406 4025 3406 3419 
Q 3406 3131 3298 2873 
Q 3191 2616 2906 2266 
Q 2828 2175 2409 1742 
Q 1991 1309 1228 531 
z
" transform="scale(0.015625)"/>
       </defs>
       <use xlink:href="#DejaVuSans-35"/>
       <use xlink:href="#DejaVuSans-2e" transform="translate(63.623047 0)"/>
       <use xlink:href="#DejaVuSans-32" transform="translate(95.410156 0)"/>
       <use xlink:href="#DejaVuSans-35" transform="translate(159.033203 0)"/>
      </g>
     </g>
    </g>
    <g id="xtick_2">
     <g id="line2d_2">
      <g>
       <use xlink:href="#mff762b4951" x="106.487669" y="228.96" style="stroke: #000000; stroke-width: 0.8"/>
      </g>
     </g>
     <g id="text_2">
      <!-- 5.50 -->
      <g transform="translate(95.354857 243.558437) scale(0.1 -0.1)">
       <defs>
        <path id="DejaVuSans-30" d="M 2034 4250 
Q 1547 4250 1301 3770 
Q 1056 3291 1056 2328 
Q 1056 1369 1301 889 
Q 1547 409 2034 409 
Q 2525 409 2770 889 
Q 3016 1369 3016 2328 
Q 3016 3291 2770 3770 
Q 2525 4250 2034 4250 
z
M 2034 4750 
Q 2819 4750 3233 4129 
Q 3647 3509 3647 2328 
Q 3647 1150 3233 529 
Q 2819 -91 2034 -91 
Q 1250 -91 836 529 
Q 422 1150 422 2328 
Q 422 3509 836 4129 
Q 1250 4750 2034 4750 
z
" transform="scale(0.015625)"/>
       </defs>
       <use xlink:href="#DejaVuSans-35"/>
       <use xlink:href="#DejaVuSans-2e" transform="translate(63.623047 0)"/>
       <use xlink:href="#DejaVuSans-35" transform="translate(95.410156 0)"/>
       <use xlink:href="#DejaVuSans-30" transform="translate(159.033203 0)"/>
      </g>
     </g>
    </g>
    <g id="xtick_3">
     <g id="line2d_3">
      <g>
       <use xlink:href="#mff762b4951" x="150.53228" y="228.96" style="stroke: #000000; stroke-width: 0.8"/>
      </g>
     </g>
     <g id="text_3">
      <!-- 5.75 -->
      <g transform="translate(139.399468 243.558437) scale(0.1 -0.1)">
       <defs>
        <path id="DejaVuSans-37" d="M 525 4666 
L 3525 4666 
L 3525 4397 
L 1831 0 
L 1172 0 
L 2766 4134 
L 525 4134 
L 525 4666 
z
" transform="scale(0.015625)"/>
       </defs>
       <use xlink:href="#DejaVuSans-35"/>
       <use xlink:href="#DejaVuSans-2e" transform="translate(63.623047 0)"/>
       <use xlink:href="#DejaVuSans-37" transform="translate(95.410156 0)"/>
       <use xlink:href="#DejaVuSans-35" transform="translate(159.033203 0)"/>
      </g>
     </g>
    </g>
    <g id="xtick_4">
     <g id="line2d_4">
      <g>
       <use xlink:href="#mff762b4951" x="194.576891" y="228.96" style="stroke: #000000; stroke-width: 0.8"/>
      </g>
     </g>
     <g id="text_4">
      <!-- 6.00 -->
      <g transform="translate(183.444078 243.558437) scale(0.1 -0.1)">
       <defs>
        <path id="DejaVuSans-36" d="M 2113 2584 
Q 1688 2584 1439 2293 
Q 1191 2003 1191 1497 
Q 1191 994 1439 701 
Q 1688 409 2113 409 
Q 2538 409 2786 701 
Q 3034 994 3034 1497 
Q 3034 2003 2786 2293 
Q 2538 2584 2113 2584 
z
M 3366 4563 
L 3366 3988 
Q 3128 4100 2886 4159 
Q 2644 4219 2406 4219 
Q 1781 4219 1451 3797 
Q 1122 3375 1075 2522 
Q 1259 2794 1537 2939 
Q 1816 3084 2150 3084 
Q 2853 3084 3261 2657 
Q 3669 2231 3669 1497 
Q 3669 778 3244 343 
Q 2819 -91 2113 -91 
Q 1303 -91 875 529 
Q 447 1150 447 2328 
Q 447 3434 972 4092 
Q 1497 4750 2381 4750 
Q 2619 4750 2861 4703 
Q 3103 4656 3366 4563 
z
" transform="scale(0.015625)"/>
       </defs>
       <use xlink:href="#DejaVuSans-36"/>
       <use xlink:href="#DejaVuSans-2e" transform="translate(63.623047 0)"/>
       <use xlink:href="#DejaVuSans-30" transform="translate(95.410156 0)"/>
       <use xlink:href="#DejaVuSans-30" transform="translate(159.033203 0)"/>
      </g>
     </g>
    </g>
    <g id="xtick_5">
     <g id="line2d_5">
      <g>
       <use xlink:href="#mff762b4951" x="238.621502" y="228.96" style="stroke: #000000; stroke-width: 0.8"/>
      </g>
     </g>
     <g id="text_5">
      <!-- 6.25 -->
      <g transform="translate(227.488689 243.558437) scale(0.1 -0.1)">
       <use xlink:href="#DejaVuSans-36"/>
       <use xlink:href="#DejaVuSans-2e" transform="translate(63.623047 0)"/>
       <use xlink:href="#DejaVuSans-32" transform="translate(95.410156 0)"/>
       <use xlink:href="#DejaVuSans-35" transform="translate(159.033203 0)"/>
      </g>
     </g>
    </g>
    <g id="xtick_6">
     <g id="line2d_6">
      <g>
       <use xlink:href="#mff762b4951" x="282.666113" y="228.96" style="stroke: #000000; stroke-width: 0.8"/>
      </g>
     </g>
     <g id="text_6">
      <!-- 6.50 -->
      <g transform="translate(271.5333 243.558437) scale(0.1 -0.1)">
       <use xlink:href="#DejaVuSans-36"/>
       <use xlink:href="#DejaVuSans-2e" transform="translate(63.623047 0)"/>
       <use xlink:href="#DejaVuSans-35" transform="translate(95.410156 0)"/>
       <use xlink:href="#DejaVuSans-30" transform="translate(159.033203 0)"/>
      </g>
     </g>
    </g>
    <g id="xtick_7">
     <g id="line2d_7">
      <g>
       <use xlink:href="#mff762b4951" x="326.710724" y="228.96" style="stroke: #000000; stroke-width: 0.8"/>
      </g>
     </g>
     <g id="text_7">
      <!-- 6.75 -->
      <g transform="translate(315.577911 243.558437) scale(0.1 -0.1)">
       <use xlink:href="#DejaVuSans-36"/>
       <use xlink:href="#DejaVuSans-2e" transform="translate(63.623047 0)"/>
       <use xlink:href="#DejaVuSans-37" transform="translate(95.410156 0)"/>
       <use xlink:href="#DejaVuSans-35" transform="translate(159.033203 0)"/>
      </g>
     </g>
    </g>
    <g id="xtick_8">
     <g id="line2d_8">
      <g>
       <use xlink:href="#mff762b4951" x="370.755335" y="228.96" style="stroke: #000000; stroke-width: 0.8"/>
      </g>
     </g>
     <g id="text_8">
      <!-- 7.00 -->
      <g transform="translate(359.622522 243.558437) scale(0.1 -0.1)">
       <use xlink:href="#DejaVuSans-37"/>
       <use xlink:href="#DejaVuSans-2e" transform="translate(63.623047 0)"/>
       <use xlink:href="#DejaVuSans-30" transform="translate(95.410156 0)"/>
       <use xlink:href="#DejaVuSans-30" transform="translate(159.033203 0)"/>
      </g>
     </g>
    </g>
    <g id="text_9">
     <!-- wavelength [Å] -->
     <g transform="translate(176.328125 258.920937) scale(0.1 -0.1)">
      <defs>
       <path id="DejaVuSans-77" d="M 269 3500 
L 844 3500 
L 1563 769 
L 2278 3500 
L 2956 3500 
L 3675 769 
L 4391 3500 
L 4966 3500 
L 4050 0 
L 3372 0 
L 2619 2869 
L 1863 0 
L 1184 0 
L 269 3500 
z
" transform="scale(0.015625)"/>
       <path id="DejaVuSans-61" d="M 2194 1759 
Q 1497 1759 1228 1600 
Q 959 1441 959 1056 
Q 959 750 1161 570 
Q 1363 391 1709 391 
Q 2188 391 2477 730 
Q 2766 1069 2766 1631 
L 2766 1759 
L 2194 1759 
z
M 3341 1997 
L 3341 0 
L 2766 0 
L 2766 531 
Q 2569 213 2275 61 
Q 1981 -91 1556 -91 
Q 1019 -91 701 211 
Q 384 513 384 1019 
Q 384 1609 779 1909 
Q 1175 2209 1959 2209 
L 2766 2209 
L 2766 2266 
Q 2766 2663 2505 2880 
Q 2244 3097 1772 3097 
Q 1472 3097 1187 3025 
Q 903 2953 641 2809 
L 641 3341 
Q 956 3463 1253 3523 
Q 1550 3584 1831 3584 
Q 2591 3584 2966 3190 
Q 3341 2797 3341 1997 
z
" transform="scale(0.015625)"/>
       <path id="DejaVuSans-76" d="M 191 3500 
L 800 3500 
L 1894 563 
L 2988 3500 
L 3597 3500 
L 2284 0 
L 1503 0 
L 191 3500 
z
" transform="scale(0.015625)"/>
       <path id="DejaVuSans-65" d="M 3597 1894 
L 3597 1613 
L 953 1613 
Q 991 1019 1311 708 
Q 1631 397 2203 397 
Q 2534 397 2845 478 
Q 3156 559 3463 722 
L 3463 178 
Q 3153 47 2828 -22 
Q 2503 -91 2169 -91 
Q 1331 -91 842 396 
Q 353 884 353 1716 
Q 353 2575 817 3079 
Q 1281 3584 2069 3584 
Q 2775 3584 3186 3129 
Q 3597 2675 3597 1894 
z
M 3022 2063 
Q 3016 2534 2758 2815 
Q 2500 3097 2075 3097 
Q 1594 3097 1305 2825 
Q 1016 2553 972 2059 
L 3022 2063 
z
" transform="scale(0.015625)"/>
       <path id="DejaVuSans-6c" d="M 603 4863 
L 1178 4863 
L 1178 0 
L 603 0 
L 603 4863 
z
" transform="scale(0.015625)"/>
       <path id="DejaVuSans-6e" d="M 3513 2113 
L 3513 0 
L 2938 0 
L 2938 2094 
Q 2938 2591 2744 2837 
Q 2550 3084 2163 3084 
Q 1697 3084 1428 2787 
Q 1159 2491 1159 1978 
L 1159 0 
L 581 0 
L 581 3500 
L 1159 3500 
L 1159 2956 
Q 1366 3272 1645 3428 
Q 1925 3584 2291 3584 
Q 2894 3584 3203 3211 
Q 3513 2838 3513 2113 
z
" transform="scale(0.015625)"/>
       <path id="DejaVuSans-67" d="M 2906 1791 
Q 2906 2416 2648 2759 
Q 2391 3103 1925 3103 
Q 1463 3103 1205 2759 
Q 947 2416 947 1791 
Q 947 1169 1205 825 
Q 1463 481 1925 481 
Q 2391 481 2648 825 
Q 2906 1169 2906 1791 
z
M 3481 434 
Q 3481 -459 3084 -895 
Q 2688 -1331 1869 -1331 
Q 1566 -1331 1297 -1286 
Q 1028 -1241 775 -1147 
L 775 -588 
Q 1028 -725 1275 -790 
Q 1522 -856 1778 -856 
Q 2344 -856 2625 -561 
Q 2906 -266 2906 331 
L 2906 616 
Q 2728 306 2450 153 
Q 2172 0 1784 0 
Q 1141 0 747 490 
Q 353 981 353 1791 
Q 353 2603 747 3093 
Q 1141 3584 1784 3584 
Q 2172 3584 2450 3431 
Q 2728 3278 2906 2969 
L 2906 3500 
L 3481 3500 
L 3481 434 
z
" transform="scale(0.015625)"/>
       <path id="DejaVuSans-74" d="M 1172 4494 
L 1172 3500 
L 2356 3500 
L 2356 3053 
L 1172 3053 
L 1172 1153 
Q 1172 725 1289 603 
Q 1406 481 1766 481 
L 2356 481 
L 2356 0 
L 1766 0 
Q 1100 0 847 248 
Q 594 497 594 1153 
L 594 3053 
L 172 3053 
L 172 3500 
L 594 3500 
L 594 4494 
L 1172 4494 
z
" transform="scale(0.015625)"/>
       <path id="DejaVuSans-68" d="M 3513 2113 
L 3513 0 
L 2938 0 
L 2938 2094 
Q 2938 2591 2744 2837 
Q 2550 3084 2163 3084 
Q 1697 3084 1428 2787 
Q 1159 2491 1159 1978 
L 1159 0 
L 581 0 
L 581 4863 
L 1159 4863 
L 1159 2956 
Q 1366 3272 1645 3428 
Q 1925 3584 2291 3584 
Q 2894 3584 3203 3211 
Q 3513 2838 3513 2113 
z
" transform="scale(0.015625)"/>
       <path id="DejaVuSans-20" transform="scale(0.015625)"/>
       <path id="DejaVuSans-5b" d="M 550 4863 
L 1875 4863 
L 1875 4416 
L 1125 4416 
L 1125 -397 
L 1875 -397 
L 1875 -844 
L 550 -844 
L 550 4863 
z
" transform="scale(0.015625)"/>
       <path id="DejaVuSans-c5" d="M 2663 5081 
Q 2663 5278 2523 5417 
Q 2384 5556 2188 5556 
Q 1988 5556 1852 5420 
Q 1716 5284 1716 5081 
Q 1716 4884 1853 4746 
Q 1991 4609 2188 4609 
Q 2384 4609 2523 4746 
Q 2663 4884 2663 5081 
z
M 2188 4044 
L 1338 1722 
L 3041 1722 
L 2188 4044 
z
M 1716 4366 
Q 1525 4494 1428 4673 
Q 1331 4853 1331 5081 
Q 1331 5441 1579 5691 
Q 1828 5941 2188 5941 
Q 2544 5941 2795 5689 
Q 3047 5438 3047 5081 
Q 3047 4863 2948 4678 
Q 2850 4494 2663 4366 
L 4325 0 
L 3669 0 
L 3244 1197 
L 1141 1197 
L 716 0 
L 50 0 
L 1716 4366 
z
" transform="scale(0.015625)"/>
       <path id="DejaVuSans-5d" d="M 1947 4863 
L 1947 -844 
L 622 -844 
L 622 -397 
L 1369 -397 
L 1369 4416 
L 622 4416 
L 622 4863 
L 1947 4863 
z
" transform="scale(0.015625)"/>
      </defs>
      <use xlink:href="#DejaVuSans-77"/>
      <use xlink:href="#DejaVuSans-61" transform="translate(81.787109 0)"/>
      <use xlink:href="#DejaVuSans-76" transform="translate(143.066406 0)"/>
      <use xlink:href="#DejaVuSans-65" transform="translate(202.246094 0)"/>
      <use xlink:href="#DejaVuSans-6c" transform="translate(263.769531 0)"/>
      <use xlink:href="#DejaVuSans-65" transform="translate(291.552734 0)"/>
      <use xlink:href="#DejaVuSans-6e" transform="translate(353.076172 0)"/>
      <use xlink:href="#DejaVuSans-67" transform="translate(416.455078 0)"/>
      <use xlink:href="#DejaVuSans-74" transform="translate(479.931641 0)"/>
      <use xlink:href="#DejaVuSans-68" transform="translate(519.140625 0)"/>
      <use xlink:href="#DejaVuSans-20" transform="translate(582.519531 0)"/>
      <use xlink:href="#DejaVuSans-5b" transform="translate(614.306641 0)"/>
      <use xlink:href="#DejaVuSans-c5" transform="translate(653.320312 0)"/>
      <use xlink:href="#DejaVuSans-5d" transform="translate(721.728516 0)"/>
     </g>
    </g>
   </g>
   <g id="matplotlib.axis_2">
    <g id="ytick_1">
     <g id="line2d_9">
      <defs>
       <path id="m079fb09b0a" d="M 0 0 
L -3.5 0 
" style="stroke: #000000; stroke-width: 0.8"/>
      </defs>
      <g>
       <use xlink:href="#m079fb09b0a" x="46.965625" y="218.88" style="stroke: #000000; stroke-width: 0.8"/>
      </g>
     </g>
     <g id="text_10">
      <!-- 0 -->
      <g transform="translate(33.603125 222.679219) scale(0.1 -0.1)">
       <use xlink:href="#DejaVuSans-30"/>
      </g>
     </g>
    </g>
    <g id="ytick_2">
     <g id="line2d_10">
      <g>
       <use xlink:href="#m079fb09b0a" x="46.965625" y="185.257156" style="stroke: #000000; stroke-width: 0.8"/>
      </g>
     </g>
     <g id="text_11">
      <!-- 100 -->
      <g transform="translate(20.878125 189.056375) scale(0.1 -0.1)">
       <defs>
        <path id="DejaVuSans-31" d="M 794 531 
L 1825 531 
L 1825 4091 
L 703 3866 
L 703 4441 
L 1819 4666 
L 2450 4666 
L 2450 531 
L 3481 531 
L 3481 0 
L 794 0 
L 794 531 
z
" transform="scale(0.015625)"/>
       </defs>
       <use xlink:href="#DejaVuSans-31"/>
       <use xlink:href="#DejaVuSans-30" transform="translate(63.623047 0)"/>
       <use xlink:href="#DejaVuSans-30" transform="translate(127.246094 0)"/>
      </g>
     </g>
    </g>
    <g id="ytick_3">
     <g id="line2d_11">
      <g>
       <use xlink:href="#m079fb09b0a" x="46.965625" y="151.634312" style="stroke: #000000; stroke-width: 0.8"/>
      </g>
     </g>
     <g id="text_12">
      <!-- 200 -->
      <g transform="translate(20.878125 155.433531) scale(0.1 -0.1)">
       <use xlink:href="#DejaVuSans-32"/>
       <use xlink:href="#DejaVuSans-30" transform="translate(63.623047 0)"/>
       <use xlink:href="#DejaVuSans-30" transform="translate(127.246094 0)"/>
      </g>
     </g>
    </g>
    <g id="ytick_4">
     <g id="line2d_12">
      <g>
       <use xlink:href="#m079fb09b0a" x="46.965625" y="118.011468" style="stroke: #000000; stroke-width: 0.8"/>
      </g>
     </g>
     <g id="text_13">
      <!-- 300 -->
      <g transform="translate(20.878125 121.810687) scale(0.1 -0.1)">
       <defs>
        <path id="DejaVuSans-33" d="M 2597 2516 
Q 3050 2419 3304 2112 
Q 3559 1806 3559 1356 
Q 3559 666 3084 287 
Q 2609 -91 1734 -91 
Q 1441 -91 1130 -33 
Q 819 25 488 141 
L 488 750 
Q 750 597 1062 519 
Q 1375 441 1716 441 
Q 2309 441 2620 675 
Q 2931 909 2931 1356 
Q 2931 1769 2642 2001 
Q 2353 2234 1838 2234 
L 1294 2234 
L 1294 2753 
L 1863 2753 
Q 2328 2753 2575 2939 
Q 2822 3125 2822 3475 
Q 2822 3834 2567 4026 
Q 2313 4219 1838 4219 
Q 1578 4219 1281 4162 
Q 984 4106 628 3988 
L 628 4550 
Q 988 4650 1302 4700 
Q 1616 4750 1894 4750 
Q 2613 4750 3031 4423 
Q 3450 4097 3450 3541 
Q 3450 3153 3228 2886 
Q 3006 2619 2597 2516 
z
" transform="scale(0.015625)"/>
       </defs>
       <use xlink:href="#DejaVuSans-33"/>
       <use xlink:href="#DejaVuSans-30" transform="translate(63.623047 0)"/>
       <use xlink:href="#DejaVuSans-30" transform="translate(127.246094 0)"/>
      </g>
     </g>
    </g>
    <g id="ytick_5">
     <g id="line2d_13">
      <g>
       <use xlink:href="#m079fb09b0a" x="46.965625" y="84.388624" style="stroke: #000000; stroke-width: 0.8"/>
      </g>
     </g>
     <g id="text_14">
      <!-- 400 -->
      <g transform="translate(20.878125 88.187843) scale(0.1 -0.1)">
       <defs>
        <path id="DejaVuSans-34" d="M 2419 4116 
L 825 1625 
L 2419 1625 
L 2419 4116 
z
M 2253 4666 
L 3047 4666 
L 3047 1625 
L 3713 1625 
L 3713 1100 
L 3047 1100 
L 3047 0 
L 2419 0 
L 2419 1100 
L 313 1100 
L 313 1709 
L 2253 4666 
z
" transform="scale(0.015625)"/>
       </defs>
       <use xlink:href="#DejaVuSans-34"/>
       <use xlink:href="#DejaVuSans-30" transform="translate(63.623047 0)"/>
       <use xlink:href="#DejaVuSans-30" transform="translate(127.246094 0)"/>
      </g>
     </g>
    </g>
    <g id="ytick_6">
     <g id="line2d_14">
      <g>
       <use xlink:href="#m079fb09b0a" x="46.965625" y="50.76578" style="stroke: #000000; stroke-width: 0.8"/>
      </g>
     </g>
     <g id="text_15">
      <!-- 500 -->
      <g transform="translate(20.878125 54.564999) scale(0.1 -0.1)">
       <use xlink:href="#DejaVuSans-35"/>
       <use xlink:href="#DejaVuSans-30" transform="translate(63.623047 0)"/>
       <use xlink:href="#DejaVuSans-30" transform="translate(127.246094 0)"/>
      </g>
     </g>
    </g>
    <g id="ytick_7">
     <g id="line2d_15">
      <g>
       <use xlink:href="#m079fb09b0a" x="46.965625" y="17.142936" style="stroke: #000000; stroke-width: 0.8"/>
      </g>
     </g>
     <g id="text_16">
      <!-- 600 -->
      <g transform="translate(20.878125 20.942155) scale(0.1 -0.1)">
       <use xlink:href="#DejaVuSans-36"/>
       <use xlink:href="#DejaVuSans-30" transform="translate(63.623047 0)"/>
       <use xlink:href="#DejaVuSans-30" transform="translate(127.246094 0)"/>
      </g>
     </g>
    </g>
    <g id="text_17">
     <!-- [counts] -->
     <g transform="translate(14.798438 138.6925) rotate(-90) scale(0.1 -0.1)">
      <defs>
       <path id="DejaVuSans-63" d="M 3122 3366 
L 3122 2828 
Q 2878 2963 2633 3030 
Q 2388 3097 2138 3097 
Q 1578 3097 1268 2742 
Q 959 2388 959 1747 
Q 959 1106 1268 751 
Q 1578 397 2138 397 
Q 2388 397 2633 464 
Q 2878 531 3122 666 
L 3122 134 
Q 2881 22 2623 -34 
Q 2366 -91 2075 -91 
Q 1284 -91 818 406 
Q 353 903 353 1747 
Q 353 2603 823 3093 
Q 1294 3584 2113 3584 
Q 2378 3584 2631 3529 
Q 2884 3475 3122 3366 
z
" transform="scale(0.015625)"/>
       <path id="DejaVuSans-6f" d="M 1959 3097 
Q 1497 3097 1228 2736 
Q 959 2375 959 1747 
Q 959 1119 1226 758 
Q 1494 397 1959 397 
Q 2419 397 2687 759 
Q 2956 1122 2956 1747 
Q 2956 2369 2687 2733 
Q 2419 3097 1959 3097 
z
M 1959 3584 
Q 2709 3584 3137 3096 
Q 3566 2609 3566 1747 
Q 3566 888 3137 398 
Q 2709 -91 1959 -91 
Q 1206 -91 779 398 
Q 353 888 353 1747 
Q 353 2609 779 3096 
Q 1206 3584 1959 3584 
z
" transform="scale(0.015625)"/>
       <path id="DejaVuSans-75" d="M 544 1381 
L 544 3500 
L 1119 3500 
L 1119 1403 
Q 1119 906 1312 657 
Q 1506 409 1894 409 
Q 2359 409 2629 706 
Q 2900 1003 2900 1516 
L 2900 3500 
L 3475 3500 
L 3475 0 
L 2900 0 
L 2900 538 
Q 2691 219 2414 64 
Q 2138 -91 1772 -91 
Q 1169 -91 856 284 
Q 544 659 544 1381 
z
M 1991 3584 
L 1991 3584 
z
" transform="scale(0.015625)"/>
       <path id="DejaVuSans-73" d="M 2834 3397 
L 2834 2853 
Q 2591 2978 2328 3040 
Q 2066 3103 1784 3103 
Q 1356 3103 1142 2972 
Q 928 2841 928 2578 
Q 928 2378 1081 2264 
Q 1234 2150 1697 2047 
L 1894 2003 
Q 2506 1872 2764 1633 
Q 3022 1394 3022 966 
Q 3022 478 2636 193 
Q 2250 -91 1575 -91 
Q 1294 -91 989 -36 
Q 684 19 347 128 
L 347 722 
Q 666 556 975 473 
Q 1284 391 1588 391 
Q 1994 391 2212 530 
Q 2431 669 2431 922 
Q 2431 1156 2273 1281 
Q 2116 1406 1581 1522 
L 1381 1569 
Q 847 1681 609 1914 
Q 372 2147 372 2553 
Q 372 3047 722 3315 
Q 1072 3584 1716 3584 
Q 2034 3584 2315 3537 
Q 2597 3491 2834 3397 
z
" transform="scale(0.015625)"/>
      </defs>
      <use xlink:href="#DejaVuSans-5b"/>
      <use xlink:href="#DejaVuSans-63" transform="translate(39.013672 0)"/>
      <use xlink:href="#DejaVuSans-6f" transform="translate(93.994141 0)"/>
      <use xlink:href="#DejaVuSans-75" transform="translate(155.175781 0)"/>
      <use xlink:href="#DejaVuSans-6e" transform="translate(218.554688 0)"/>
      <use xlink:href="#DejaVuSans-74" transform="translate(281.933594 0)"/>
      <use xlink:href="#DejaVuSans-73" transform="translate(321.142578 0)"/>
      <use xlink:href="#DejaVuSans-5d" transform="translate(373.242188 0)"/>
     </g>
    </g>
   </g>
   <g id="patch_3">
    <path d="M 46.965625 228.96 
L 46.965625 7.2 
" style="fill: none; stroke: #000000; stroke-width: 0.8; stroke-linejoin: miter; stroke-linecap: square"/>
   </g>
   <g id="patch_4">
    <path d="M 381.765625 228.96 
L 381.765625 7.2 
" style="fill: none; stroke: #000000; stroke-width: 0.8; stroke-linejoin: miter; stroke-linecap: square"/>
   </g>
   <g id="patch_5">
    <path d="M 46.965625 228.96 
L 381.765625 228.96 
" style="fill: none; stroke: #000000; stroke-width: 0.8; stroke-linejoin: miter; stroke-linecap: square"/>
   </g>
   <g id="patch_6">
    <path d="M 46.965625 7.2 
L 381.765625 7.2 
" style="fill: none; stroke: #000000; stroke-width: 0.8; stroke-linejoin: miter; stroke-linecap: square"/>
   </g>
   <g id="line2d_16">
    <path d="M 62.183807 216.992477 
L 63.705625 216.992477 
L 63.705625 203.821552 
L 65.227443 203.821552 
L 65.227443 185.27297 
L 66.749261 185.27297 
L 66.749261 167.423454 
L 68.27108 167.423454 
L 68.27108 146.395492 
L 69.792898 146.395492 
L 69.792898 134.194556 
L 71.314716 134.194556 
L 71.314716 110.519053 
L 72.836534 110.519053 
L 72.836534 76.521713 
L 74.358352 76.521713 
L 74.358352 58.895717 
L 75.88017 58.895717 
L 75.88017 45.897349 
L 77.401989 45.897349 
L 77.401989 30.934834 
L 78.923807 30.934834 
L 78.923807 51.359447 
L 80.445625 51.359447 
L 80.445625 54.25068 
L 81.967443 54.25068 
L 81.967443 52.819579 
L 83.489261 52.819579 
L 83.489261 40.281559 
L 85.01108 40.281559 
L 85.01108 26.812162 
L 86.532898 26.812162 
L 86.532898 30.449458 
L 88.054716 30.449458 
L 88.054716 32.797292 
L 89.576534 32.797292 
L 89.576534 41.426843 
L 91.098352 41.426843 
L 91.098352 50.637616 
L 92.62017 50.637616 
L 92.62017 49.928705 
L 94.141989 49.928705 
L 94.141989 35.924822 
L 95.663807 35.924822 
L 95.663807 47.218456 
L 97.185625 47.218456 
L 97.185625 51.244834 
L 98.707443 51.244834 
L 98.707443 54.994671 
L 100.229261 54.994671 
L 100.229261 68.577468 
L 101.75108 68.577468 
L 101.75108 50.70788 
L 103.272898 50.70788 
L 103.272898 54.635564 
L 104.794716 54.635564 
L 104.794716 46.61488 
L 106.316534 46.61488 
L 106.316534 40.534286 
L 107.838352 40.534286 
L 107.838352 27.712009 
L 109.36017 27.712009 
L 109.36017 69.27738 
L 110.881989 69.27738 
L 110.881989 64.185751 
L 112.403807 64.185751 
L 112.403807 52.169976 
L 113.925625 52.169976 
L 113.925625 52.514783 
L 115.447443 52.514783 
L 115.447443 58.362057 
L 116.969261 58.362057 
L 116.969261 49.955326 
L 118.49108 49.955326 
L 118.49108 61.477075 
L 120.012898 61.477075 
L 120.012898 43.353846 
L 121.534716 43.353846 
L 121.534716 46.305657 
L 123.056534 46.305657 
L 123.056534 47.366494 
L 124.578352 47.366494 
L 124.578352 57.27973 
L 126.10017 57.27973 
L 126.10017 68.11883 
L 127.621989 68.11883 
L 127.621989 63.457241 
L 129.143807 63.457241 
L 129.143807 50.514377 
L 130.665625 50.514377 
L 130.665625 67.112251 
L 132.187443 67.112251 
L 132.187443 69.019273 
L 133.709261 69.019273 
L 133.709261 66.14701 
L 135.23108 66.14701 
L 135.23108 61.500973 
L 136.752898 61.500973 
L 136.752898 70.412976 
L 138.274716 70.412976 
L 138.274716 61.783911 
L 139.796534 61.783911 
L 139.796534 66.590626 
L 141.318352 66.590626 
L 141.318352 61.120766 
L 142.84017 61.120766 
L 142.84017 60.336523 
L 144.361989 60.336523 
L 144.361989 75.245164 
L 145.883807 75.245164 
L 145.883807 82.573829 
L 147.405625 82.573829 
L 147.405625 69.590897 
L 148.927443 69.590897 
L 148.927443 70.462159 
L 150.449261 70.462159 
L 150.449261 69.679657 
L 151.97108 69.679657 
L 151.97108 72.196585 
L 153.492898 72.196585 
L 153.492898 88.940562 
L 155.014716 88.940562 
L 155.014716 52.164915 
L 156.536534 52.164915 
L 156.536534 61.436831 
L 158.058352 61.436831 
L 158.058352 65.839491 
L 159.58017 65.839491 
L 159.58017 74.725528 
L 161.101989 74.725528 
L 161.101989 83.188324 
L 162.623807 83.188324 
L 162.623807 72.764019 
L 164.145625 72.764019 
L 164.145625 82.55145 
L 165.667443 82.55145 
L 165.667443 77.880362 
L 167.189261 77.880362 
L 167.189261 78.894578 
L 168.71108 78.894578 
L 168.71108 74.260035 
L 170.232898 74.260035 
L 170.232898 78.032874 
L 171.754716 78.032874 
L 171.754716 89.732915 
L 173.276534 89.732915 
L 173.276534 83.050408 
L 174.798352 83.050408 
L 174.798352 79.215867 
L 176.32017 79.215867 
L 176.32017 68.996142 
L 177.841989 68.996142 
L 177.841989 76.904097 
L 179.363807 76.904097 
L 179.363807 83.285251 
L 180.885625 83.285251 
L 180.885625 78.425465 
L 182.407443 78.425465 
L 182.407443 78.158447 
L 183.929261 78.158447 
L 183.929261 84.156675 
L 185.45108 84.156675 
L 185.45108 86.348125 
L 186.972898 86.348125 
L 186.972898 79.922063 
L 188.494716 79.922063 
L 188.494716 81.581545 
L 190.016534 81.581545 
L 190.016534 83.945736 
L 191.538352 83.945736 
L 191.538352 90.025267 
L 193.06017 90.025267 
L 193.06017 83.701496 
L 194.581989 83.701496 
L 194.581989 86.608139 
L 196.103807 86.608139 
L 196.103807 95.837307 
L 197.625625 95.837307 
L 197.625625 82.618501 
L 199.147443 82.618501 
L 199.147443 92.677027 
L 200.669261 92.677027 
L 200.669261 86.521187 
L 202.19108 86.521187 
L 202.19108 85.797586 
L 203.712898 85.797586 
L 203.712898 86.54467 
L 205.234716 86.54467 
L 205.234716 92.612079 
L 206.756534 92.612079 
L 206.756534 81.540932 
L 208.278352 81.540932 
L 208.278352 79.255647 
L 209.80017 79.255647 
L 209.80017 96.614005 
L 211.321989 96.614005 
L 211.321989 85.725644 
L 212.843807 85.725644 
L 212.843807 86.780886 
L 214.365625 86.780886 
L 214.365625 82.889002 
L 215.887443 82.889002 
L 215.887443 93.613349 
L 217.409261 93.613349 
L 217.409261 87.225587 
L 218.93108 87.225587 
L 218.93108 84.830008 
L 220.452898 84.830008 
L 220.452898 72.912952 
L 221.974716 72.912952 
L 221.974716 96.391186 
L 223.496534 96.391186 
L 223.496534 95.326053 
L 225.018352 95.326053 
L 225.018352 88.248466 
L 226.54017 88.248466 
L 226.54017 89.256481 
L 228.061989 89.256481 
L 228.061989 96.881482 
L 229.583807 96.881482 
L 229.583807 92.754187 
L 231.105625 92.754187 
L 231.105625 93.641423 
L 232.627443 93.641423 
L 232.627443 89.21143 
L 234.149261 89.21143 
L 234.149261 82.706974 
L 235.67108 82.706974 
L 235.67108 109.986594 
L 237.192898 109.986594 
L 237.192898 103.706546 
L 238.714716 103.706546 
L 238.714716 92.265347 
L 240.236534 92.265347 
L 240.236534 104.528802 
L 241.758352 104.528802 
L 241.758352 101.66107 
L 243.28017 101.66107 
L 243.28017 92.930952 
L 244.801989 92.930952 
L 244.801989 102.365076 
L 246.323807 102.365076 
L 246.323807 99.570923 
L 247.845625 99.570923 
L 247.845625 93.815869 
L 249.367443 93.815869 
L 249.367443 98.09942 
L 250.889261 98.09942 
L 250.889261 102.49959 
L 252.41108 102.49959 
L 252.41108 103.796827 
L 253.932898 103.796827 
L 253.932898 103.046275 
L 255.454716 103.046275 
L 255.454716 103.368061 
L 256.976534 103.368061 
L 256.976534 100.339233 
L 258.498352 100.339233 
L 258.498352 98.410141 
L 260.02017 98.410141 
L 260.02017 101.386752 
L 261.541989 101.386752 
L 261.541989 90.78572 
L 263.063807 90.78572 
L 263.063807 95.881245 
L 264.585625 95.881245 
L 264.585625 106.154992 
L 266.107443 106.154992 
L 266.107443 107.632126 
L 267.629261 107.632126 
L 267.629261 104.717957 
L 269.15108 104.717957 
L 269.15108 109.313226 
L 270.672898 109.313226 
L 270.672898 96.115313 
L 272.194716 96.115313 
L 272.194716 103.226547 
L 273.716534 103.226547 
L 273.716534 100.803754 
L 275.238352 100.803754 
L 275.238352 110.536799 
L 276.76017 110.536799 
L 276.76017 107.672675 
L 278.281989 107.672675 
L 278.281989 98.612814 
L 279.803807 98.612814 
L 279.803807 107.929152 
L 281.325625 107.929152 
L 281.325625 99.542981 
L 282.847443 99.542981 
L 282.847443 103.101187 
L 284.369261 103.101187 
L 284.369261 115.006959 
L 285.89108 115.006959 
L 285.89108 111.944607 
L 287.412898 111.944607 
L 287.412898 109.951609 
L 288.934716 109.951609 
L 288.934716 114.141664 
L 290.456534 114.141664 
L 290.456534 120.300971 
L 291.978352 120.300971 
L 291.978352 106.235882 
L 293.50017 106.235882 
L 293.50017 105.382103 
L 295.021989 105.382103 
L 295.021989 107.972211 
L 298.065625 107.894237 
L 298.065625 121.043038 
L 299.587443 121.043038 
L 299.587443 106.67888 
L 301.109261 106.67888 
L 301.109261 104.326387 
L 302.63108 104.326387 
L 302.63108 103.134227 
L 304.152898 103.134227 
L 304.152898 113.012129 
L 305.674716 113.012129 
L 305.674716 118.823025 
L 307.196534 118.823025 
L 307.196534 116.805563 
L 308.718352 116.805563 
L 308.718352 119.615149 
L 310.24017 119.615149 
L 310.24017 119.000929 
L 311.761989 119.000929 
L 311.761989 112.847504 
L 313.283807 112.847504 
L 313.283807 115.997196 
L 314.805625 115.997196 
L 314.805625 111.555359 
L 316.327443 111.555359 
L 316.327443 121.316378 
L 317.849261 121.316378 
L 317.849261 122.232072 
L 319.37108 122.232072 
L 319.37108 111.635391 
L 320.892898 111.635391 
L 320.892898 118.333466 
L 322.414716 118.333466 
L 322.414716 125.604707 
L 323.936534 125.604707 
L 323.936534 115.082595 
L 325.458352 115.082595 
L 325.458352 121.480816 
L 326.98017 121.480816 
L 326.98017 126.832799 
L 328.501989 126.832799 
L 328.501989 124.846409 
L 330.023807 124.846409 
L 330.023807 147.152249 
L 331.545625 147.152249 
L 331.545625 159.834858 
L 333.067443 159.834858 
L 333.067443 164.174015 
L 334.589261 164.174015 
L 334.589261 179.602225 
L 336.11108 179.602225 
L 336.11108 182.5723 
L 337.632898 182.5723 
L 337.632898 200.178008 
L 339.154716 200.178008 
L 339.154716 210.241011 
L 340.676534 210.241011 
L 340.676534 215.970247 
L 342.198352 215.970247 
L 342.198352 217.474155 
L 343.72017 217.474155 
L 343.72017 218.318195 
L 345.241989 218.318195 
L 345.241989 218.63964 
L 346.763807 218.63964 
L 346.763807 218.810174 
L 366.547443 218.88 
L 366.547443 218.88 
" clip-path="url(#pb40c7d4515)" style="fill: none; stroke: #1f77b4; stroke-width: 1.5; stroke-linecap: square"/>
   </g>
   <g id="LineCollection_1">
    <path d="M 62.944716 217.482242 
L 62.944716 216.502711 
" clip-path="url(#pb40c7d4515)" style="fill: none; stroke: #1f77b4; stroke-width: 1.5"/>
    <path d="M 64.466534 206.049617 
L 64.466534 201.593488 
" clip-path="url(#pb40c7d4515)" style="fill: none; stroke: #1f77b4; stroke-width: 1.5"/>
    <path d="M 65.988352 188.934481 
L 65.988352 181.611458 
" clip-path="url(#pb40c7d4515)" style="fill: none; stroke: #1f77b4; stroke-width: 1.5"/>
    <path d="M 67.51017 172.125907 
L 67.51017 162.721 
" clip-path="url(#pb40c7d4515)" style="fill: none; stroke: #1f77b4; stroke-width: 1.5"/>
    <path d="M 69.031989 152.189798 
L 69.031989 140.601186 
" clip-path="url(#pb40c7d4515)" style="fill: none; stroke: #1f77b4; stroke-width: 1.5"/>
    <path d="M 70.553807 140.386281 
L 70.553807 128.002831 
" clip-path="url(#pb40c7d4515)" style="fill: none; stroke: #1f77b4; stroke-width: 1.5"/>
    <path d="M 72.075625 117.90355 
L 72.075625 103.134557 
" clip-path="url(#pb40c7d4515)" style="fill: none; stroke: #1f77b4; stroke-width: 1.5"/>
    <path d="M 73.597443 85.022206 
L 73.597443 68.02122 
" clip-path="url(#pb40c7d4515)" style="fill: none; stroke: #1f77b4; stroke-width: 1.5"/>
    <path d="M 75.119261 67.941392 
L 75.119261 49.850042 
" clip-path="url(#pb40c7d4515)" style="fill: none; stroke: #1f77b4; stroke-width: 1.5"/>
    <path d="M 76.64108 55.206893 
L 76.64108 36.587804 
" clip-path="url(#pb40c7d4515)" style="fill: none; stroke: #1f77b4; stroke-width: 1.5"/>
    <path d="M 78.162898 40.55901 
L 78.162898 21.310658 
" clip-path="url(#pb40c7d4515)" style="fill: none; stroke: #1f77b4; stroke-width: 1.5"/>
    <path d="M 79.684716 60.090717 
L 79.684716 42.628177 
" clip-path="url(#pb40c7d4515)" style="fill: none; stroke: #1f77b4; stroke-width: 1.5"/>
    <path d="M 81.206534 63.161842 
L 81.206534 45.339518 
" clip-path="url(#pb40c7d4515)" style="fill: none; stroke: #1f77b4; stroke-width: 1.5"/>
    <path d="M 82.728352 61.596172 
L 82.728352 44.042986 
" clip-path="url(#pb40c7d4515)" style="fill: none; stroke: #1f77b4; stroke-width: 1.5"/>
    <path d="M 84.25017 49.356199 
L 84.25017 31.206919 
" clip-path="url(#pb40c7d4515)" style="fill: none; stroke: #1f77b4; stroke-width: 1.5"/>
    <path d="M 85.771989 36.344324 
L 85.771989 17.28 
" clip-path="url(#pb40c7d4515)" style="fill: none; stroke: #1f77b4; stroke-width: 1.5"/>
    <path d="M 87.293807 39.788801 
L 87.293807 21.110114 
" clip-path="url(#pb40c7d4515)" style="fill: none; stroke: #1f77b4; stroke-width: 1.5"/>
    <path d="M 88.815625 42.280373 
L 88.815625 23.314211 
" clip-path="url(#pb40c7d4515)" style="fill: none; stroke: #1f77b4; stroke-width: 1.5"/>
    <path d="M 90.337443 50.4597 
L 90.337443 32.393986 
" clip-path="url(#pb40c7d4515)" style="fill: none; stroke: #1f77b4; stroke-width: 1.5"/>
    <path d="M 91.859261 59.439184 
L 91.859261 41.836048 
" clip-path="url(#pb40c7d4515)" style="fill: none; stroke: #1f77b4; stroke-width: 1.5"/>
    <path d="M 93.38108 58.727803 
L 93.38108 41.129606 
" clip-path="url(#pb40c7d4515)" style="fill: none; stroke: #1f77b4; stroke-width: 1.5"/>
    <path d="M 94.902898 45.228413 
L 94.902898 26.621232 
" clip-path="url(#pb40c7d4515)" style="fill: none; stroke: #1f77b4; stroke-width: 1.5"/>
    <path d="M 96.424716 56.165852 
L 96.424716 38.271059 
" clip-path="url(#pb40c7d4515)" style="fill: none; stroke: #1f77b4; stroke-width: 1.5"/>
    <path d="M 97.946534 59.984593 
L 97.946534 42.505076 
" clip-path="url(#pb40c7d4515)" style="fill: none; stroke: #1f77b4; stroke-width: 1.5"/>
    <path d="M 99.468352 63.609412 
L 99.468352 46.37993 
" clip-path="url(#pb40c7d4515)" style="fill: none; stroke: #1f77b4; stroke-width: 1.5"/>
    <path d="M 100.99017 76.541641 
L 100.99017 60.613294 
" clip-path="url(#pb40c7d4515)" style="fill: none; stroke: #1f77b4; stroke-width: 1.5"/>
    <path d="M 102.511989 59.47703 
L 102.511989 41.938731 
" clip-path="url(#pb40c7d4515)" style="fill: none; stroke: #1f77b4; stroke-width: 1.5"/>
    <path d="M 104.033807 63.465474 
L 104.033807 45.805654 
" clip-path="url(#pb40c7d4515)" style="fill: none; stroke: #1f77b4; stroke-width: 1.5"/>
    <path d="M 105.555625 55.460137 
L 105.555625 37.769623 
" clip-path="url(#pb40c7d4515)" style="fill: none; stroke: #1f77b4; stroke-width: 1.5"/>
    <path d="M 107.077443 49.749276 
L 107.077443 31.319295 
" clip-path="url(#pb40c7d4515)" style="fill: none; stroke: #1f77b4; stroke-width: 1.5"/>
    <path d="M 108.599261 37.22641 
L 108.599261 18.197607 
" clip-path="url(#pb40c7d4515)" style="fill: none; stroke: #1f77b4; stroke-width: 1.5"/>
    <path d="M 110.12108 77.087039 
L 110.12108 61.467721 
" clip-path="url(#pb40c7d4515)" style="fill: none; stroke: #1f77b4; stroke-width: 1.5"/>
    <path d="M 111.642898 72.309678 
L 111.642898 56.061824 
" clip-path="url(#pb40c7d4515)" style="fill: none; stroke: #1f77b4; stroke-width: 1.5"/>
    <path d="M 113.164716 60.79685 
L 113.164716 43.543102 
" clip-path="url(#pb40c7d4515)" style="fill: none; stroke: #1f77b4; stroke-width: 1.5"/>
    <path d="M 114.686534 61.243497 
L 114.686534 43.786069 
" clip-path="url(#pb40c7d4515)" style="fill: none; stroke: #1f77b4; stroke-width: 1.5"/>
    <path d="M 116.208352 66.709084 
L 116.208352 50.015031 
" clip-path="url(#pb40c7d4515)" style="fill: none; stroke: #1f77b4; stroke-width: 1.5"/>
    <path d="M 117.73017 58.694652 
L 117.73017 41.216 
" clip-path="url(#pb40c7d4515)" style="fill: none; stroke: #1f77b4; stroke-width: 1.5"/>
    <path d="M 119.251989 69.786029 
L 119.251989 53.16812 
" clip-path="url(#pb40c7d4515)" style="fill: none; stroke: #1f77b4; stroke-width: 1.5"/>
    <path d="M 120.773807 52.197562 
L 120.773807 34.510131 
" clip-path="url(#pb40c7d4515)" style="fill: none; stroke: #1f77b4; stroke-width: 1.5"/>
    <path d="M 122.295625 55.090998 
L 122.295625 37.520316 
" clip-path="url(#pb40c7d4515)" style="fill: none; stroke: #1f77b4; stroke-width: 1.5"/>
    <path d="M 123.817443 56.053204 
L 123.817443 38.679784 
" clip-path="url(#pb40c7d4515)" style="fill: none; stroke: #1f77b4; stroke-width: 1.5"/>
    <path d="M 125.339261 65.6525 
L 125.339261 48.90696 
" clip-path="url(#pb40c7d4515)" style="fill: none; stroke: #1f77b4; stroke-width: 1.5"/>
    <path d="M 126.86108 75.932799 
L 126.86108 60.304861 
" clip-path="url(#pb40c7d4515)" style="fill: none; stroke: #1f77b4; stroke-width: 1.5"/>
    <path d="M 128.382898 71.618323 
L 128.382898 55.29616 
" clip-path="url(#pb40c7d4515)" style="fill: none; stroke: #1f77b4; stroke-width: 1.5"/>
    <path d="M 129.904716 59.00713 
L 129.904716 42.021623 
" clip-path="url(#pb40c7d4515)" style="fill: none; stroke: #1f77b4; stroke-width: 1.5"/>
    <path d="M 131.426534 75.057097 
L 131.426534 59.167405 
" clip-path="url(#pb40c7d4515)" style="fill: none; stroke: #1f77b4; stroke-width: 1.5"/>
    <path d="M 132.948352 76.973335 
L 132.948352 61.065211 
" clip-path="url(#pb40c7d4515)" style="fill: none; stroke: #1f77b4; stroke-width: 1.5"/>
    <path d="M 134.47017 74.253098 
L 134.47017 58.040922 
" clip-path="url(#pb40c7d4515)" style="fill: none; stroke: #1f77b4; stroke-width: 1.5"/>
    <path d="M 135.991989 69.461685 
L 135.991989 53.540261 
" clip-path="url(#pb40c7d4515)" style="fill: none; stroke: #1f77b4; stroke-width: 1.5"/>
    <path d="M 137.513807 78.295401 
L 137.513807 62.530551 
" clip-path="url(#pb40c7d4515)" style="fill: none; stroke: #1f77b4; stroke-width: 1.5"/>
    <path d="M 139.035625 69.905121 
L 139.035625 53.662701 
" clip-path="url(#pb40c7d4515)" style="fill: none; stroke: #1f77b4; stroke-width: 1.5"/>
    <path d="M 140.557443 74.65234 
L 140.557443 58.528913 
" clip-path="url(#pb40c7d4515)" style="fill: none; stroke: #1f77b4; stroke-width: 1.5"/>
    <path d="M 142.079261 69.601646 
L 142.079261 52.639885 
" clip-path="url(#pb40c7d4515)" style="fill: none; stroke: #1f77b4; stroke-width: 1.5"/>
    <path d="M 143.60108 68.57894 
L 143.60108 52.094107 
" clip-path="url(#pb40c7d4515)" style="fill: none; stroke: #1f77b4; stroke-width: 1.5"/>
    <path d="M 145.122898 82.954688 
L 145.122898 67.53564 
" clip-path="url(#pb40c7d4515)" style="fill: none; stroke: #1f77b4; stroke-width: 1.5"/>
    <path d="M 146.644716 90.04954 
L 146.644716 75.098117 
" clip-path="url(#pb40c7d4515)" style="fill: none; stroke: #1f77b4; stroke-width: 1.5"/>
    <path d="M 148.166534 77.442119 
L 148.166534 61.739674 
" clip-path="url(#pb40c7d4515)" style="fill: none; stroke: #1f77b4; stroke-width: 1.5"/>
    <path d="M 149.688352 78.099901 
L 149.688352 62.824417 
" clip-path="url(#pb40c7d4515)" style="fill: none; stroke: #1f77b4; stroke-width: 1.5"/>
    <path d="M 151.21017 77.474283 
L 151.21017 61.88503 
" clip-path="url(#pb40c7d4515)" style="fill: none; stroke: #1f77b4; stroke-width: 1.5"/>
    <path d="M 152.731989 79.965779 
L 152.731989 64.427391 
" clip-path="url(#pb40c7d4515)" style="fill: none; stroke: #1f77b4; stroke-width: 1.5"/>
    <path d="M 154.253807 95.951271 
L 154.253807 81.929853 
" clip-path="url(#pb40c7d4515)" style="fill: none; stroke: #1f77b4; stroke-width: 1.5"/>
    <path d="M 155.775625 60.543179 
L 155.775625 43.786651 
" clip-path="url(#pb40c7d4515)" style="fill: none; stroke: #1f77b4; stroke-width: 1.5"/>
    <path d="M 157.297443 69.456433 
L 157.297443 53.417228 
" clip-path="url(#pb40c7d4515)" style="fill: none; stroke: #1f77b4; stroke-width: 1.5"/>
    <path d="M 158.819261 73.793538 
L 158.819261 57.885443 
" clip-path="url(#pb40c7d4515)" style="fill: none; stroke: #1f77b4; stroke-width: 1.5"/>
    <path d="M 160.34108 82.351258 
L 160.34108 67.099799 
" clip-path="url(#pb40c7d4515)" style="fill: none; stroke: #1f77b4; stroke-width: 1.5"/>
    <path d="M 161.862898 90.393674 
L 161.862898 75.982974 
" clip-path="url(#pb40c7d4515)" style="fill: none; stroke: #1f77b4; stroke-width: 1.5"/>
    <path d="M 163.384716 80.462381 
L 163.384716 65.065657 
" clip-path="url(#pb40c7d4515)" style="fill: none; stroke: #1f77b4; stroke-width: 1.5"/>
    <path d="M 164.906534 89.85262 
L 164.906534 75.250279 
" clip-path="url(#pb40c7d4515)" style="fill: none; stroke: #1f77b4; stroke-width: 1.5"/>
    <path d="M 166.428352 85.375836 
L 166.428352 70.384888 
" clip-path="url(#pb40c7d4515)" style="fill: none; stroke: #1f77b4; stroke-width: 1.5"/>
    <path d="M 167.95017 86.048048 
L 167.95017 71.741109 
" clip-path="url(#pb40c7d4515)" style="fill: none; stroke: #1f77b4; stroke-width: 1.5"/>
    <path d="M 169.471989 81.800406 
L 169.471989 66.719663 
" clip-path="url(#pb40c7d4515)" style="fill: none; stroke: #1f77b4; stroke-width: 1.5"/>
    <path d="M 170.993807 85.606147 
L 170.993807 70.4596 
" clip-path="url(#pb40c7d4515)" style="fill: none; stroke: #1f77b4; stroke-width: 1.5"/>
    <path d="M 172.515625 96.92222 
L 172.515625 82.54361 
" clip-path="url(#pb40c7d4515)" style="fill: none; stroke: #1f77b4; stroke-width: 1.5"/>
    <path d="M 174.037443 90.492867 
L 174.037443 75.60795 
" clip-path="url(#pb40c7d4515)" style="fill: none; stroke: #1f77b4; stroke-width: 1.5"/>
    <path d="M 175.559261 86.398235 
L 175.559261 72.033499 
" clip-path="url(#pb40c7d4515)" style="fill: none; stroke: #1f77b4; stroke-width: 1.5"/>
    <path d="M 177.08108 76.59268 
L 177.08108 61.399604 
" clip-path="url(#pb40c7d4515)" style="fill: none; stroke: #1f77b4; stroke-width: 1.5"/>
    <path d="M 178.602898 84.281524 
L 178.602898 69.526671 
" clip-path="url(#pb40c7d4515)" style="fill: none; stroke: #1f77b4; stroke-width: 1.5"/>
    <path d="M 180.124716 90.369596 
L 180.124716 76.200906 
" clip-path="url(#pb40c7d4515)" style="fill: none; stroke: #1f77b4; stroke-width: 1.5"/>
    <path d="M 181.646534 85.686326 
L 181.646534 71.164605 
" clip-path="url(#pb40c7d4515)" style="fill: none; stroke: #1f77b4; stroke-width: 1.5"/>
    <path d="M 183.168352 85.51993 
L 183.168352 70.796964 
" clip-path="url(#pb40c7d4515)" style="fill: none; stroke: #1f77b4; stroke-width: 1.5"/>
    <path d="M 184.69017 91.274784 
L 184.69017 77.038565 
" clip-path="url(#pb40c7d4515)" style="fill: none; stroke: #1f77b4; stroke-width: 1.5"/>
    <path d="M 186.211989 93.257923 
L 186.211989 79.438327 
" clip-path="url(#pb40c7d4515)" style="fill: none; stroke: #1f77b4; stroke-width: 1.5"/>
    <path d="M 187.733807 87.191546 
L 187.733807 72.652581 
" clip-path="url(#pb40c7d4515)" style="fill: none; stroke: #1f77b4; stroke-width: 1.5"/>
    <path d="M 189.255625 88.781773 
L 189.255625 74.381318 
" clip-path="url(#pb40c7d4515)" style="fill: none; stroke: #1f77b4; stroke-width: 1.5"/>
    <path d="M 190.777443 91.175775 
L 190.777443 76.715697 
" clip-path="url(#pb40c7d4515)" style="fill: none; stroke: #1f77b4; stroke-width: 1.5"/>
    <path d="M 192.299261 96.909423 
L 192.299261 83.141111 
" clip-path="url(#pb40c7d4515)" style="fill: none; stroke: #1f77b4; stroke-width: 1.5"/>
    <path d="M 193.82108 90.90368 
L 193.82108 76.499312 
" clip-path="url(#pb40c7d4515)" style="fill: none; stroke: #1f77b4; stroke-width: 1.5"/>
    <path d="M 195.342898 93.488377 
L 195.342898 79.7279 
" clip-path="url(#pb40c7d4515)" style="fill: none; stroke: #1f77b4; stroke-width: 1.5"/>
    <path d="M 196.864716 102.610692 
L 196.864716 89.063922 
" clip-path="url(#pb40c7d4515)" style="fill: none; stroke: #1f77b4; stroke-width: 1.5"/>
    <path d="M 198.386534 89.688176 
L 198.386534 75.548826 
" clip-path="url(#pb40c7d4515)" style="fill: none; stroke: #1f77b4; stroke-width: 1.5"/>
    <path d="M 199.908352 99.341988 
L 199.908352 86.012065 
" clip-path="url(#pb40c7d4515)" style="fill: none; stroke: #1f77b4; stroke-width: 1.5"/>
    <path d="M 201.43017 93.512577 
L 201.43017 79.529797 
" clip-path="url(#pb40c7d4515)" style="fill: none; stroke: #1f77b4; stroke-width: 1.5"/>
    <path d="M 202.951989 92.707346 
L 202.951989 78.887825 
" clip-path="url(#pb40c7d4515)" style="fill: none; stroke: #1f77b4; stroke-width: 1.5"/>
    <path d="M 204.473807 93.556194 
L 204.473807 79.533147 
" clip-path="url(#pb40c7d4515)" style="fill: none; stroke: #1f77b4; stroke-width: 1.5"/>
    <path d="M 205.995625 99.235799 
L 205.995625 85.98836 
" clip-path="url(#pb40c7d4515)" style="fill: none; stroke: #1f77b4; stroke-width: 1.5"/>
    <path d="M 207.517443 88.627861 
L 207.517443 74.454002 
" clip-path="url(#pb40c7d4515)" style="fill: none; stroke: #1f77b4; stroke-width: 1.5"/>
    <path d="M 209.039261 86.616505 
L 209.039261 71.894789 
" clip-path="url(#pb40c7d4515)" style="fill: none; stroke: #1f77b4; stroke-width: 1.5"/>
    <path d="M 210.56108 103.210491 
L 210.56108 90.017519 
" clip-path="url(#pb40c7d4515)" style="fill: none; stroke: #1f77b4; stroke-width: 1.5"/>
    <path d="M 212.082898 92.688474 
L 212.082898 78.762814 
" clip-path="url(#pb40c7d4515)" style="fill: none; stroke: #1f77b4; stroke-width: 1.5"/>
    <path d="M 213.604716 93.675639 
L 213.604716 79.886133 
" clip-path="url(#pb40c7d4515)" style="fill: none; stroke: #1f77b4; stroke-width: 1.5"/>
    <path d="M 215.126534 89.988254 
L 215.126534 75.789749 
" clip-path="url(#pb40c7d4515)" style="fill: none; stroke: #1f77b4; stroke-width: 1.5"/>
    <path d="M 216.648352 100.316189 
L 216.648352 86.910509 
" clip-path="url(#pb40c7d4515)" style="fill: none; stroke: #1f77b4; stroke-width: 1.5"/>
    <path d="M 218.17017 94.137752 
L 218.17017 80.313422 
" clip-path="url(#pb40c7d4515)" style="fill: none; stroke: #1f77b4; stroke-width: 1.5"/>
    <path d="M 219.691989 91.662329 
L 219.691989 77.997688 
" clip-path="url(#pb40c7d4515)" style="fill: none; stroke: #1f77b4; stroke-width: 1.5"/>
    <path d="M 221.213807 80.278174 
L 221.213807 65.547729 
" clip-path="url(#pb40c7d4515)" style="fill: none; stroke: #1f77b4; stroke-width: 1.5"/>
    <path d="M 222.735625 102.883284 
L 222.735625 89.899089 
" clip-path="url(#pb40c7d4515)" style="fill: none; stroke: #1f77b4; stroke-width: 1.5"/>
    <path d="M 224.257443 101.929402 
L 224.257443 88.722704 
" clip-path="url(#pb40c7d4515)" style="fill: none; stroke: #1f77b4; stroke-width: 1.5"/>
    <path d="M 225.779261 95.045211 
L 225.779261 81.451722 
" clip-path="url(#pb40c7d4515)" style="fill: none; stroke: #1f77b4; stroke-width: 1.5"/>
    <path d="M 227.30108 96.114022 
L 227.30108 82.398939 
" clip-path="url(#pb40c7d4515)" style="fill: none; stroke: #1f77b4; stroke-width: 1.5"/>
    <path d="M 228.822898 103.530413 
L 228.822898 90.23255 
" clip-path="url(#pb40c7d4515)" style="fill: none; stroke: #1f77b4; stroke-width: 1.5"/>
    <path d="M 230.344716 99.356719 
L 230.344716 86.151654 
" clip-path="url(#pb40c7d4515)" style="fill: none; stroke: #1f77b4; stroke-width: 1.5"/>
    <path d="M 231.866534 100.216227 
L 231.866534 87.066618 
" clip-path="url(#pb40c7d4515)" style="fill: none; stroke: #1f77b4; stroke-width: 1.5"/>
    <path d="M 233.388352 95.875564 
L 233.388352 82.547296 
" clip-path="url(#pb40c7d4515)" style="fill: none; stroke: #1f77b4; stroke-width: 1.5"/>
    <path d="M 234.91017 89.618424 
L 234.91017 75.795524 
" clip-path="url(#pb40c7d4515)" style="fill: none; stroke: #1f77b4; stroke-width: 1.5"/>
    <path d="M 236.431989 115.862553 
L 236.431989 104.110635 
" clip-path="url(#pb40c7d4515)" style="fill: none; stroke: #1f77b4; stroke-width: 1.5"/>
    <path d="M 237.953807 110.077051 
L 237.953807 97.336041 
" clip-path="url(#pb40c7d4515)" style="fill: none; stroke: #1f77b4; stroke-width: 1.5"/>
    <path d="M 239.475625 98.922144 
L 239.475625 85.608551 
" clip-path="url(#pb40c7d4515)" style="fill: none; stroke: #1f77b4; stroke-width: 1.5"/>
    <path d="M 240.997443 110.783856 
L 240.997443 98.273748 
" clip-path="url(#pb40c7d4515)" style="fill: none; stroke: #1f77b4; stroke-width: 1.5"/>
    <path d="M 242.519261 107.882115 
L 242.519261 95.440025 
" clip-path="url(#pb40c7d4515)" style="fill: none; stroke: #1f77b4; stroke-width: 1.5"/>
    <path d="M 244.04108 99.49434 
L 244.04108 86.367563 
" clip-path="url(#pb40c7d4515)" style="fill: none; stroke: #1f77b4; stroke-width: 1.5"/>
    <path d="M 245.562898 108.534129 
L 245.562898 96.196024 
" clip-path="url(#pb40c7d4515)" style="fill: none; stroke: #1f77b4; stroke-width: 1.5"/>
    <path d="M 247.084716 105.874346 
L 247.084716 93.267499 
" clip-path="url(#pb40c7d4515)" style="fill: none; stroke: #1f77b4; stroke-width: 1.5"/>
    <path d="M 248.606534 100.252412 
L 248.606534 87.379327 
" clip-path="url(#pb40c7d4515)" style="fill: none; stroke: #1f77b4; stroke-width: 1.5"/>
    <path d="M 250.128352 104.449001 
L 250.128352 91.74984 
" clip-path="url(#pb40c7d4515)" style="fill: none; stroke: #1f77b4; stroke-width: 1.5"/>
    <path d="M 251.65017 108.622671 
L 251.65017 96.376509 
" clip-path="url(#pb40c7d4515)" style="fill: none; stroke: #1f77b4; stroke-width: 1.5"/>
    <path d="M 253.171989 109.849875 
L 253.171989 97.743779 
" clip-path="url(#pb40c7d4515)" style="fill: none; stroke: #1f77b4; stroke-width: 1.5"/>
    <path d="M 254.693807 109.118418 
L 254.693807 96.974132 
" clip-path="url(#pb40c7d4515)" style="fill: none; stroke: #1f77b4; stroke-width: 1.5"/>
    <path d="M 256.215625 109.570144 
L 256.215625 97.165978 
" clip-path="url(#pb40c7d4515)" style="fill: none; stroke: #1f77b4; stroke-width: 1.5"/>
    <path d="M 257.737443 106.500483 
L 257.737443 94.177982 
" clip-path="url(#pb40c7d4515)" style="fill: none; stroke: #1f77b4; stroke-width: 1.5"/>
    <path d="M 259.259261 104.779293 
L 259.259261 92.040988 
" clip-path="url(#pb40c7d4515)" style="fill: none; stroke: #1f77b4; stroke-width: 1.5"/>
    <path d="M 260.78108 107.623434 
L 260.78108 95.150069 
" clip-path="url(#pb40c7d4515)" style="fill: none; stroke: #1f77b4; stroke-width: 1.5"/>
    <path d="M 262.302898 97.291382 
L 262.302898 84.280058 
" clip-path="url(#pb40c7d4515)" style="fill: none; stroke: #1f77b4; stroke-width: 1.5"/>
    <path d="M 263.824716 102.399495 
L 263.824716 89.362996 
" clip-path="url(#pb40c7d4515)" style="fill: none; stroke: #1f77b4; stroke-width: 1.5"/>
    <path d="M 265.346534 112.025875 
L 265.346534 100.284108 
" clip-path="url(#pb40c7d4515)" style="fill: none; stroke: #1f77b4; stroke-width: 1.5"/>
    <path d="M 266.868352 113.581784 
L 266.868352 101.682468 
" clip-path="url(#pb40c7d4515)" style="fill: none; stroke: #1f77b4; stroke-width: 1.5"/>
    <path d="M 268.39017 110.650904 
L 268.39017 98.785011 
" clip-path="url(#pb40c7d4515)" style="fill: none; stroke: #1f77b4; stroke-width: 1.5"/>
    <path d="M 269.911989 115.320516 
L 269.911989 103.305936 
" clip-path="url(#pb40c7d4515)" style="fill: none; stroke: #1f77b4; stroke-width: 1.5"/>
    <path d="M 271.433807 102.39947 
L 271.433807 89.831157 
" clip-path="url(#pb40c7d4515)" style="fill: none; stroke: #1f77b4; stroke-width: 1.5"/>
    <path d="M 272.955625 109.134847 
L 272.955625 97.318248 
" clip-path="url(#pb40c7d4515)" style="fill: none; stroke: #1f77b4; stroke-width: 1.5"/>
    <path d="M 274.477443 107.034456 
L 274.477443 94.573051 
" clip-path="url(#pb40c7d4515)" style="fill: none; stroke: #1f77b4; stroke-width: 1.5"/>
    <path d="M 275.999261 116.362866 
L 275.999261 104.710731 
" clip-path="url(#pb40c7d4515)" style="fill: none; stroke: #1f77b4; stroke-width: 1.5"/>
    <path d="M 277.52108 113.452511 
L 277.52108 101.892838 
" clip-path="url(#pb40c7d4515)" style="fill: none; stroke: #1f77b4; stroke-width: 1.5"/>
    <path d="M 279.042898 104.902341 
L 279.042898 92.323287 
" clip-path="url(#pb40c7d4515)" style="fill: none; stroke: #1f77b4; stroke-width: 1.5"/>
    <path d="M 280.564716 113.709735 
L 280.564716 102.148568 
" clip-path="url(#pb40c7d4515)" style="fill: none; stroke: #1f77b4; stroke-width: 1.5"/>
    <path d="M 282.086534 105.604083 
L 282.086534 93.481878 
" clip-path="url(#pb40c7d4515)" style="fill: none; stroke: #1f77b4; stroke-width: 1.5"/>
    <path d="M 283.608352 109.086081 
L 283.608352 97.116294 
" clip-path="url(#pb40c7d4515)" style="fill: none; stroke: #1f77b4; stroke-width: 1.5"/>
    <path d="M 285.13017 120.596713 
L 285.13017 109.417206 
" clip-path="url(#pb40c7d4515)" style="fill: none; stroke: #1f77b4; stroke-width: 1.5"/>
    <path d="M 286.651989 117.658987 
L 286.651989 106.230227 
" clip-path="url(#pb40c7d4515)" style="fill: none; stroke: #1f77b4; stroke-width: 1.5"/>
    <path d="M 288.173807 115.606437 
L 288.173807 104.296781 
" clip-path="url(#pb40c7d4515)" style="fill: none; stroke: #1f77b4; stroke-width: 1.5"/>
    <path d="M 289.695625 119.884361 
L 289.695625 108.398966 
" clip-path="url(#pb40c7d4515)" style="fill: none; stroke: #1f77b4; stroke-width: 1.5"/>
    <path d="M 291.217443 125.71553 
L 291.217443 114.886411 
" clip-path="url(#pb40c7d4515)" style="fill: none; stroke: #1f77b4; stroke-width: 1.5"/>
    <path d="M 292.739261 112.159417 
L 292.739261 100.312347 
" clip-path="url(#pb40c7d4515)" style="fill: none; stroke: #1f77b4; stroke-width: 1.5"/>
    <path d="M 294.26108 111.238639 
L 294.26108 99.525567 
" clip-path="url(#pb40c7d4515)" style="fill: none; stroke: #1f77b4; stroke-width: 1.5"/>
    <path d="M 295.782898 114.022757 
L 295.782898 101.921665 
" clip-path="url(#pb40c7d4515)" style="fill: none; stroke: #1f77b4; stroke-width: 1.5"/>
    <path d="M 297.304716 113.820992 
L 297.304716 101.967482 
" clip-path="url(#pb40c7d4515)" style="fill: none; stroke: #1f77b4; stroke-width: 1.5"/>
    <path d="M 298.826534 126.271797 
L 298.826534 115.814278 
" clip-path="url(#pb40c7d4515)" style="fill: none; stroke: #1f77b4; stroke-width: 1.5"/>
    <path d="M 300.348352 112.626953 
L 300.348352 100.730806 
" clip-path="url(#pb40c7d4515)" style="fill: none; stroke: #1f77b4; stroke-width: 1.5"/>
    <path d="M 301.87017 110.249774 
L 301.87017 98.402999 
" clip-path="url(#pb40c7d4515)" style="fill: none; stroke: #1f77b4; stroke-width: 1.5"/>
    <path d="M 303.391989 109.172159 
L 303.391989 97.096294 
" clip-path="url(#pb40c7d4515)" style="fill: none; stroke: #1f77b4; stroke-width: 1.5"/>
    <path d="M 304.913807 118.513519 
L 304.913807 107.51074 
" clip-path="url(#pb40c7d4515)" style="fill: none; stroke: #1f77b4; stroke-width: 1.5"/>
    <path d="M 306.435625 124.128557 
L 306.435625 113.517493 
" clip-path="url(#pb40c7d4515)" style="fill: none; stroke: #1f77b4; stroke-width: 1.5"/>
    <path d="M 307.957443 122.257485 
L 307.957443 111.353641 
" clip-path="url(#pb40c7d4515)" style="fill: none; stroke: #1f77b4; stroke-width: 1.5"/>
    <path d="M 309.479261 124.85498 
L 309.479261 114.375319 
" clip-path="url(#pb40c7d4515)" style="fill: none; stroke: #1f77b4; stroke-width: 1.5"/>
    <path d="M 311.00108 124.308073 
L 311.00108 113.693785 
" clip-path="url(#pb40c7d4515)" style="fill: none; stroke: #1f77b4; stroke-width: 1.5"/>
    <path d="M 312.522898 118.333131 
L 312.522898 107.361878 
" clip-path="url(#pb40c7d4515)" style="fill: none; stroke: #1f77b4; stroke-width: 1.5"/>
    <path d="M 314.044716 121.474425 
L 314.044716 110.519967 
" clip-path="url(#pb40c7d4515)" style="fill: none; stroke: #1f77b4; stroke-width: 1.5"/>
    <path d="M 315.566534 117.100645 
L 315.566534 106.010073 
" clip-path="url(#pb40c7d4515)" style="fill: none; stroke: #1f77b4; stroke-width: 1.5"/>
    <path d="M 317.088352 126.496705 
L 317.088352 116.136051 
" clip-path="url(#pb40c7d4515)" style="fill: none; stroke: #1f77b4; stroke-width: 1.5"/>
    <path d="M 318.61017 127.492348 
L 318.61017 116.971797 
" clip-path="url(#pb40c7d4515)" style="fill: none; stroke: #1f77b4; stroke-width: 1.5"/>
    <path d="M 320.131989 117.34419 
L 320.131989 105.926591 
" clip-path="url(#pb40c7d4515)" style="fill: none; stroke: #1f77b4; stroke-width: 1.5"/>
    <path d="M 321.653807 123.745006 
L 321.653807 112.921926 
" clip-path="url(#pb40c7d4515)" style="fill: none; stroke: #1f77b4; stroke-width: 1.5"/>
    <path d="M 323.175625 130.722018 
L 323.175625 120.487395 
" clip-path="url(#pb40c7d4515)" style="fill: none; stroke: #1f77b4; stroke-width: 1.5"/>
    <path d="M 324.697443 120.545136 
L 324.697443 109.620053 
" clip-path="url(#pb40c7d4515)" style="fill: none; stroke: #1f77b4; stroke-width: 1.5"/>
    <path d="M 326.219261 126.723021 
L 326.219261 116.238611 
" clip-path="url(#pb40c7d4515)" style="fill: none; stroke: #1f77b4; stroke-width: 1.5"/>
    <path d="M 327.74108 131.957761 
L 327.74108 121.707838 
" clip-path="url(#pb40c7d4515)" style="fill: none; stroke: #1f77b4; stroke-width: 1.5"/>
    <path d="M 329.262898 130.119944 
L 329.262898 119.572875 
" clip-path="url(#pb40c7d4515)" style="fill: none; stroke: #1f77b4; stroke-width: 1.5"/>
    <path d="M 330.784716 151.806026 
L 330.784716 142.498473 
" clip-path="url(#pb40c7d4515)" style="fill: none; stroke: #1f77b4; stroke-width: 1.5"/>
    <path d="M 332.306534 163.803964 
L 332.306534 155.865752 
" clip-path="url(#pb40c7d4515)" style="fill: none; stroke: #1f77b4; stroke-width: 1.5"/>
    <path d="M 333.828352 168.091951 
L 333.828352 160.25608 
" clip-path="url(#pb40c7d4515)" style="fill: none; stroke: #1f77b4; stroke-width: 1.5"/>
    <path d="M 335.35017 182.898536 
L 335.35017 176.305913 
" clip-path="url(#pb40c7d4515)" style="fill: none; stroke: #1f77b4; stroke-width: 1.5"/>
    <path d="M 336.871989 185.748483 
L 336.871989 179.396117 
" clip-path="url(#pb40c7d4515)" style="fill: none; stroke: #1f77b4; stroke-width: 1.5"/>
    <path d="M 338.393807 202.127232 
L 338.393807 198.228783 
" clip-path="url(#pb40c7d4515)" style="fill: none; stroke: #1f77b4; stroke-width: 1.5"/>
    <path d="M 339.915625 211.221118 
L 339.915625 209.260903 
" clip-path="url(#pb40c7d4515)" style="fill: none; stroke: #1f77b4; stroke-width: 1.5"/>
    <path d="M 341.437443 216.322643 
L 341.437443 215.617852 
" clip-path="url(#pb40c7d4515)" style="fill: none; stroke: #1f77b4; stroke-width: 1.5"/>
    <path d="M 342.959261 217.646923 
L 342.959261 217.301387 
" clip-path="url(#pb40c7d4515)" style="fill: none; stroke: #1f77b4; stroke-width: 1.5"/>
    <path d="M 344.48108 218.383132 
L 344.48108 218.253257 
" clip-path="url(#pb40c7d4515)" style="fill: none; stroke: #1f77b4; stroke-width: 1.5"/>
    <path d="M 346.002898 218.67088 
L 346.002898 218.6084 
" clip-path="url(#pb40c7d4515)" style="fill: none; stroke: #1f77b4; stroke-width: 1.5"/>
    <path d="M 347.524716 218.819294 
L 347.524716 218.801054 
" clip-path="url(#pb40c7d4515)" style="fill: none; stroke: #1f77b4; stroke-width: 1.5"/>
    <path d="M 349.046534 218.854464 
L 349.046534 218.847689 
" clip-path="url(#pb40c7d4515)" style="fill: none; stroke: #1f77b4; stroke-width: 1.5"/>
    <path d="M 350.568352 218.867387 
L 350.568352 218.862397 
" clip-path="url(#pb40c7d4515)" style="fill: none; stroke: #1f77b4; stroke-width: 1.5"/>
    <path d="M 352.09017 218.876412 
L 352.09017 218.874177 
" clip-path="url(#pb40c7d4515)" style="fill: none; stroke: #1f77b4; stroke-width: 1.5"/>
    <path d="M 353.611989 218.877683 
L 353.611989 218.876668 
" clip-path="url(#pb40c7d4515)" style="fill: none; stroke: #1f77b4; stroke-width: 1.5"/>
    <path d="M 355.133807 218.879376 
L 355.133807 218.878946 
" clip-path="url(#pb40c7d4515)" style="fill: none; stroke: #1f77b4; stroke-width: 1.5"/>
    <path d="M 356.655625 218.879589 
L 356.655625 218.879303 
" clip-path="url(#pb40c7d4515)" style="fill: none; stroke: #1f77b4; stroke-width: 1.5"/>
    <path d="M 358.177443 218.879831 
L 358.177443 218.879692 
" clip-path="url(#pb40c7d4515)" style="fill: none; stroke: #1f77b4; stroke-width: 1.5"/>
    <path d="M 359.699261 218.879969 
L 359.699261 218.87994 
" clip-path="url(#pb40c7d4515)" style="fill: none; stroke: #1f77b4; stroke-width: 1.5"/>
    <path d="M 361.22108 218.879971 
L 361.22108 218.879943 
" clip-path="url(#pb40c7d4515)" style="fill: none; stroke: #1f77b4; stroke-width: 1.5"/>
    <path d="M 362.742898 218.879987 
L 362.742898 218.879972 
" clip-path="url(#pb40c7d4515)" style="fill: none; stroke: #1f77b4; stroke-width: 1.5"/>
    <path d="M 364.264716 218.879999 
L 364.264716 218.879996 
" clip-path="url(#pb40c7d4515)" style="fill: none; stroke: #1f77b4; stroke-width: 1.5"/>
    <path d="M 365.786534 218.88 
L 365.786534 218.88 
" clip-path="url(#pb40c7d4515)" style="fill: none; stroke: #1f77b4; stroke-width: 1.5"/>
   </g>
  </g>
 </g>
 <defs>
  <clipPath id="pb40c7d4515">
   <rect x="46.965625" y="7.2" width="334.8" height="221.76"/>
  </clipPath>
 </defs>
</svg>