<?xml version="1.0" encoding="utf-8" standalone="no"?>
<!DOCTYPE svg PUBLIC "-//W3C//DTD SVG 1.1//EN"
  "http://www.w3.org/Graphics/SVG/1.1/DTD/svg11.dtd">
<svg xmlns:xlink="http://www.w3.org/1999/xlink" width="423.74044pt" height="280.132187pt" viewBox="0 0 423.74044 280.132187" xmlns="http://www.w3.org/2000/svg" version="1.1">
 <metadata>
  <rdf:RDF xmlns:dc="http://purl.org/dc/elements/1.1/" xmlns:cc="http://creativecommons.org/ns#" xmlns:rdf="http://www.w3.org/1999/02/22-rdf-syntax-ns#">
   <cc:Work>
    <dc:type rdf:resource="http://purl.org/dc/dcmitype/StillImage"/>
    <dc:date>2024-08-01T15:38:56.690901</dc:date>
    <dc:format>image/svg+xml</dc:format>
    <dc:creator>
     <cc:Agent>
      <dc:title>Matplotlib v3.9.1, https://matplotlib.org/</dc:title>
     </cc:Agent>
    </dc:creator>
   </cc:Work>
  </rdf:RDF>
 </metadata>
 <defs>
  <style type="text/css">*{stroke-linejoin: round; stroke-linecap: butt}</style>
 </defs>
 <g id="figure_1">
  <g id="patch_1">
   <path d="M 0 280.132187 
L 423.74044 280.132187 
L 423.74044 0 
L 0 0 
z
" style="fill: #ffffff"/>
  </g>
  <g id="axes_1">
   <g id="patch_2">
    <path d="M 45.478125 241.6525 
L 416.54044 241.6525 
L 416.54044 7.2 
L 45.478125 7.2 
z
" style="fill: #ffffff"/>
   </g>
   <g id="matplotlib.axis_1">
    <g id="xtick_1">
     <g id="line2d_1">
      <defs>
       <path id="mf1780cfc8c" d="M 0 0 
L 0 3.5 
" style="stroke: #000000; stroke-width: 0.8"/>
      </defs>
      <g>
       <use xlink:href="#mf1780cfc8c" x="53.695123" y="241.6525" style="stroke: #000000; stroke-width: 0.8"/>
      </g>
     </g>
     <g id="text_1">
      <!-- 0.000 -->
      <g transform="translate(39.38106 256.250937) scale(0.1 -0.1)">
       <defs>
        <path id="DejaVuSans-30" d="M 2034 4250 
Q 1547 4250 1301 3770 
Q 1056 3291 1056 2328 
Q 1056 1369 1301 889 
Q 1547 409 2034 409 
Q 2525 409 2770 889 
Q 3016 1369 3016 2328 
Q 3016 3291 2770 3770 
Q 2525 4250 2034 4250 
z
M 2034 4750 
Q 2819 4750 3233 4129 
Q 3647 3509 3647 2328 
Q 3647 1150 3233 529 
Q 2819 -91 2034 -91 
Q 1250 -91 836 529 
Q 422 1150 422 2328 
Q 422 3509 836 4129 
Q 1250 4750 2034 4750 
z
" transform="scale(0.015625)"/>
        <path id="DejaVuSans-2e" d="M 684 794 
L 1344 794 
L 1344 0 
L 684 0 
L 684 794 
z
" transform="scale(0.015625)"/>
       </defs>
       <use xlink:href="#DejaVuSans-30"/>
       <use xlink:href="#DejaVuSans-2e" x="63.623047"/>
       <use xlink:href="#DejaVuSans-30" x="95.410156"/>
       <use xlink:href="#DejaVuSans-30" x="159.033203"/>
       <use xlink:href="#DejaVuSans-30" x="222.65625"/>
      </g>
     </g>
    </g>
    <g id="xtick_2">
     <g id="line2d_2">
      <g>
       <use xlink:href="#mf1780cfc8c" x="96.942479" y="241.6525" style="stroke: #000000; stroke-width: 0.8"/>
      </g>
     </g>
     <g id="text_2">
      <!-- 0.025 -->
      <g transform="translate(82.628416 256.250937) scale(0.1 -0.1)">
       <defs>
        <path id="DejaVuSans-32" d="M 1228 531 
L 3431 531 
L 3431 0 
L 469 0 
L 469 531 
Q 828 903 1448 1529 
Q 2069 2156 2228 2338 
Q 2531 2678 2651 2914 
Q 2772 3150 2772 3378 
Q 2772 3750 2511 3984 
Q 2250 4219 1831 4219 
Q 1534 4219 1204 4116 
Q 875 4013 500 3803 
L 500 4441 
Q 881 4594 1212 4672 
Q 1544 4750 1819 4750 
Q 2544 4750 2975 4387 
Q 3406 4025 3406 3419 
Q 3406 3131 3298 2873 
Q 3191 2616 2906 2266 
Q 2828 2175 2409 1742 
Q 1991 1309 1228 531 
z
" transform="scale(0.015625)"/>
        <path id="DejaVuSans-35" d="M 691 4666 
L 3169 4666 
L 3169 4134 
L 1269 4134 
L 1269 2991 
Q 1406 3038 1543 3061 
Q 1681 3084 1819 3084 
Q 2600 3084 3056 2656 
Q 3513 2228 3513 1497 
Q 3513 744 3044 326 
Q 2575 -91 1722 -91 
Q 1428 -91 1123 -41 
Q 819 9 494 109 
L 494 744 
Q 775 591 1075 516 
Q 1375 441 1709 441 
Q 2250 441 2565 725 
Q 2881 1009 2881 1497 
Q 2881 1984 2565 2268 
Q 2250 2553 1709 2553 
Q 1456 2553 1204 2497 
Q 953 2441 691 2322 
L 691 4666 
z
" transform="scale(0.015625)"/>
       </defs>
       <use xlink:href="#DejaVuSans-30"/>
       <use xlink:href="#DejaVuSans-2e" x="63.623047"/>
       <use xlink:href="#DejaVuSans-30" x="95.410156"/>
       <use xlink:href="#DejaVuSans-32" x="159.033203"/>
       <use xlink:href="#DejaVuSans-35" x="222.65625"/>
      </g>
     </g>
    </g>
    <g id="xtick_3">
     <g id="line2d_3">
      <g>
       <use xlink:href="#mf1780cfc8c" x="140.189835" y="241.6525" style="stroke: #000000; stroke-width: 0.8"/>
      </g>
     </g>
     <g id="text_3">
      <!-- 0.050 -->
      <g transform="translate(125.875772 256.250937) scale(0.1 -0.1)">
       <use xlink:href="#DejaVuSans-30"/>
       <use xlink:href="#DejaVuSans-2e" x="63.623047"/>
       <use xlink:href="#DejaVuSans-30" x="95.410156"/>
       <use xlink:href="#DejaVuSans-35" x="159.033203"/>
       <use xlink:href="#DejaVuSans-30" x="222.65625"/>
      </g>
     </g>
    </g>
    <g id="xtick_4">
     <g id="line2d_4">
      <g>
       <use xlink:href="#mf1780cfc8c" x="183.437191" y="241.6525" style="stroke: #000000; stroke-width: 0.8"/>
      </g>
     </g>
     <g id="text_4">
      <!-- 0.075 -->
      <g transform="translate(169.123128 256.250937) scale(0.1 -0.1)">
       <defs>
        <path id="DejaVuSans-37" d="M 525 4666 
L 3525 4666 
L 3525 4397 
L 1831 0 
L 1172 0 
L 2766 4134 
L 525 4134 
L 525 4666 
z
" transform="scale(0.015625)"/>
       </defs>
       <use xlink:href="#DejaVuSans-30"/>
       <use xlink:href="#DejaVuSans-2e" x="63.623047"/>
       <use xlink:href="#DejaVuSans-30" x="95.410156"/>
       <use xlink:href="#DejaVuSans-37" x="159.033203"/>
       <use xlink:href="#DejaVuSans-35" x="222.65625"/>
      </g>
     </g>
    </g>
    <g id="xtick_5">
     <g id="line2d_5">
      <g>
       <use xlink:href="#mf1780cfc8c" x="226.684547" y="241.6525" style="stroke: #000000; stroke-width: 0.8"/>
      </g>
     </g>
     <g id="text_5">
      <!-- 0.100 -->
      <g transform="translate(212.370485 256.250937) scale(0.1 -0.1)">
       <defs>
        <path id="DejaVuSans-31" d="M 794 531 
L 1825 531 
L 1825 4091 
L 703 3866 
L 703 4441 
L 1819 4666 
L 2450 4666 
L 2450 531 
L 3481 531 
L 3481 0 
L 794 0 
L 794 531 
z
" transform="scale(0.015625)"/>
       </defs>
       <use xlink:href="#DejaVuSans-30"/>
       <use xlink:href="#DejaVuSans-2e" x="63.623047"/>
       <use xlink:href="#DejaVuSans-31" x="95.410156"/>
       <use xlink:href="#DejaVuSans-30" x="159.033203"/>
       <use xlink:href="#DejaVuSans-30" x="222.65625"/>
      </g>
     </g>
    </g>
    <g id="xtick_6">
     <g id="line2d_6">
      <g>
       <use xlink:href="#mf1780cfc8c" x="269.931903" y="241.6525" style="stroke: #000000; stroke-width: 0.8"/>
      </g>
     </g>
     <g id="text_6">
      <!-- 0.125 -->
      <g transform="translate(255.617841 256.250937) scale(0.1 -0.1)">
       <use xlink:href="#DejaVuSans-30"/>
       <use xlink:href="#DejaVuSans-2e" x="63.623047"/>
       <use xlink:href="#DejaVuSans-31" x="95.410156"/>
       <use xlink:href="#DejaVuSans-32" x="159.033203"/>
       <use xlink:href="#DejaVuSans-35" x="222.65625"/>
      </g>
     </g>
    </g>
    <g id="xtick_7">
     <g id="line2d_7">
      <g>
       <use xlink:href="#mf1780cfc8c" x="313.179259" y="241.6525" style="stroke: #000000; stroke-width: 0.8"/>
      </g>
     </g>
     <g id="text_7">
      <!-- 0.150 -->
      <g transform="translate(298.865197 256.250937) scale(0.1 -0.1)">
       <use xlink:href="#DejaVuSans-30"/>
       <use xlink:href="#DejaVuSans-2e" x="63.623047"/>
       <use xlink:href="#DejaVuSans-31" x="95.410156"/>
       <use xlink:href="#DejaVuSans-35" x="159.033203"/>
       <use xlink:href="#DejaVuSans-30" x="222.65625"/>
      </g>
     </g>
    </g>
    <g id="xtick_8">
     <g id="line2d_8">
      <g>
       <use xlink:href="#mf1780cfc8c" x="356.426615" y="241.6525" style="stroke: #000000; stroke-width: 0.8"/>
      </g>
     </g>
     <g id="text_8">
      <!-- 0.175 -->
      <g transform="translate(342.112553 256.250937) scale(0.1 -0.1)">
       <use xlink:href="#DejaVuSans-30"/>
       <use xlink:href="#DejaVuSans-2e" x="63.623047"/>
       <use xlink:href="#DejaVuSans-31" x="95.410156"/>
       <use xlink:href="#DejaVuSans-37" x="159.033203"/>
       <use xlink:href="#DejaVuSans-35" x="222.65625"/>
      </g>
     </g>
    </g>
    <g id="xtick_9">
     <g id="line2d_9">
      <g>
       <use xlink:href="#mf1780cfc8c" x="399.673971" y="241.6525" style="stroke: #000000; stroke-width: 0.8"/>
      </g>
     </g>
     <g id="text_9">
      <!-- 0.200 -->
      <g transform="translate(385.359909 256.250937) scale(0.1 -0.1)">
       <use xlink:href="#DejaVuSans-30"/>
       <use xlink:href="#DejaVuSans-2e" x="63.623047"/>
       <use xlink:href="#DejaVuSans-32" x="95.410156"/>
       <use xlink:href="#DejaVuSans-30" x="159.033203"/>
       <use xlink:href="#DejaVuSans-30" x="222.65625"/>
      </g>
     </g>
    </g>
    <g id="text_10">
     <!-- Q [1/Å] -->
     <g transform="translate(213.296783 270.8525) scale(0.1 -0.1)">
      <defs>
       <path id="DejaVuSans-51" d="M 2522 4238 
Q 1834 4238 1429 3725 
Q 1025 3213 1025 2328 
Q 1025 1447 1429 934 
Q 1834 422 2522 422 
Q 3209 422 3611 934 
Q 4013 1447 4013 2328 
Q 4013 3213 3611 3725 
Q 3209 4238 2522 4238 
z
M 3406 84 
L 4238 -825 
L 3475 -825 
L 2784 -78 
Q 2681 -84 2626 -87 
Q 2572 -91 2522 -91 
Q 1538 -91 948 567 
Q 359 1225 359 2328 
Q 359 3434 948 4092 
Q 1538 4750 2522 4750 
Q 3503 4750 4090 4092 
Q 4678 3434 4678 2328 
Q 4678 1516 4351 937 
Q 4025 359 3406 84 
z
" transform="scale(0.015625)"/>
       <path id="DejaVuSans-20" transform="scale(0.015625)"/>
       <path id="DejaVuSans-5b" d="M 550 4863 
L 1875 4863 
L 1875 4416 
L 1125 4416 
L 1125 -397 
L 1875 -397 
L 1875 -844 
L 550 -844 
L 550 4863 
z
" transform="scale(0.015625)"/>
       <path id="DejaVuSans-2f" d="M 1625 4666 
L 2156 4666 
L 531 -594 
L 0 -594 
L 1625 4666 
z
" transform="scale(0.015625)"/>
       <path id="DejaVuSans-c5" d="M 2663 5081 
Q 2663 5278 2523 5417 
Q 2384 5556 2188 5556 
Q 1988 5556 1852 5420 
Q 1716 5284 1716 5081 
Q 1716 4884 1853 4746 
Q 1991 4609 2188 4609 
Q 2384 4609 2523 4746 
Q 2663 4884 2663 5081 
z
M 2188 4044 
L 1338 1722 
L 3041 1722 
L 2188 4044 
z
M 1716 4366 
Q 1525 4494 1428 4673 
Q 1331 4853 1331 5081 
Q 1331 5441 1579 5691 
Q 1828 5941 2188 5941 
Q 2544 5941 2795 5689 
Q 3047 5438 3047 5081 
Q 3047 4863 2948 4678 
Q 2850 4494 2663 4366 
L 4325 0 
L 3669 0 
L 3244 1197 
L 1141 1197 
L 716 0 
L 50 0 
L 1716 4366 
z
" transform="scale(0.015625)"/>
       <path id="DejaVuSans-5d" d="M 1947 4863 
L 1947 -844 
L 622 -844 
L 622 -397 
L 1369 -397 
L 1369 4416 
L 622 4416 
L 622 4863 
L 1947 4863 
z
" transform="scale(0.015625)"/>
      </defs>
      <use xlink:href="#DejaVuSans-51"/>
      <use xlink:href="#DejaVuSans-20" x="78.710938"/>
      <use xlink:href="#DejaVuSans-5b" x="110.498047"/>
      <use xlink:href="#DejaVuSans-31" x="149.511719"/>
      <use xlink:href="#DejaVuSans-2f" x="213.134766"/>
      <use xlink:href="#DejaVuSans-c5" x="246.826172"/>
      <use xlink:href="#DejaVuSans-5d" x="315.234375"/>
     </g>
    </g>
   </g>
   <g id="matplotlib.axis_2">
    <g id="ytick_1">
     <g id="line2d_10">
      <defs>
       <path id="m23c618cece" d="M 0 0 
L -3.5 0 
" style="stroke: #000000; stroke-width: 0.8"/>
      </defs>
      <g>
       <use xlink:href="#m23c618cece" x="45.478125" y="241.6525" style="stroke: #000000; stroke-width: 0.8"/>
      </g>
     </g>
     <g id="text_11">
      <!-- $\mathdefault{10^{0}}$ -->
      <g transform="translate(20.878125 245.451719) scale(0.1 -0.1)">
       <use xlink:href="#DejaVuSans-31" transform="translate(0 0.765625)"/>
       <use xlink:href="#DejaVuSans-30" transform="translate(63.623047 0.765625)"/>
       <use xlink:href="#DejaVuSans-30" transform="translate(128.203125 39.046875) scale(0.7)"/>
      </g>
     </g>
    </g>
    <g id="ytick_2">
     <g id="line2d_11">
      <g>
       <use xlink:href="#m23c618cece" x="45.478125" y="190.477592" style="stroke: #000000; stroke-width: 0.8"/>
      </g>
     </g>
     <g id="text_12">
      <!-- $\mathdefault{10^{1}}$ -->
      <g transform="translate(20.878125 194.27681) scale(0.1 -0.1)">
       <use xlink:href="#DejaVuSans-31" transform="translate(0 0.684375)"/>
       <use xlink:href="#DejaVuSans-30" transform="translate(63.623047 0.684375)"/>
       <use xlink:href="#DejaVuSans-31" transform="translate(128.203125 38.965625) scale(0.7)"/>
      </g>
     </g>
    </g>
    <g id="ytick_3">
     <g id="line2d_12">
      <g>
       <use xlink:href="#m23c618cece" x="45.478125" y="139.302683" style="stroke: #000000; stroke-width: 0.8"/>
      </g>
     </g>
     <g id="text_13">
      <!-- $\mathdefault{10^{2}}$ -->
      <g transform="translate(20.878125 143.101902) scale(0.1 -0.1)">
       <use xlink:href="#DejaVuSans-31" transform="translate(0 0.765625)"/>
       <use xlink:href="#DejaVuSans-30" transform="translate(63.623047 0.765625)"/>
       <use xlink:href="#DejaVuSans-32" transform="translate(128.203125 39.046875) scale(0.7)"/>
      </g>
     </g>
    </g>
    <g id="ytick_4">
     <g id="line2d_13">
      <g>
       <use xlink:href="#m23c618cece" x="45.478125" y="88.127775" style="stroke: #000000; stroke-width: 0.8"/>
      </g>
     </g>
     <g id="text_14">
      <!-- $\mathdefault{10^{3}}$ -->
      <g transform="translate(20.878125 91.926994) scale(0.1 -0.1)">
       <defs>
        <path id="DejaVuSans-33" d="M 2597 2516 
Q 3050 2419 3304 2112 
Q 3559 1806 3559 1356 
Q 3559 666 3084 287 
Q 2609 -91 1734 -91 
Q 1441 -91 1130 -33 
Q 819 25 488 141 
L 488 750 
Q 750 597 1062 519 
Q 1375 441 1716 441 
Q 2309 441 2620 675 
Q 2931 909 2931 1356 
Q 2931 1769 2642 2001 
Q 2353 2234 1838 2234 
L 1294 2234 
L 1294 2753 
L 1863 2753 
Q 2328 2753 2575 2939 
Q 2822 3125 2822 3475 
Q 2822 3834 2567 4026 
Q 2313 4219 1838 4219 
Q 1578 4219 1281 4162 
Q 984 4106 628 3988 
L 628 4550 
Q 988 4650 1302 4700 
Q 1616 4750 1894 4750 
Q 2613 4750 3031 4423 
Q 3450 4097 3450 3541 
Q 3450 3153 3228 2886 
Q 3006 2619 2597 2516 
z
" transform="scale(0.015625)"/>
       </defs>
       <use xlink:href="#DejaVuSans-31" transform="translate(0 0.765625)"/>
       <use xlink:href="#DejaVuSans-30" transform="translate(63.623047 0.765625)"/>
       <use xlink:href="#DejaVuSans-33" transform="translate(128.203125 39.046875) scale(0.7)"/>
      </g>
     </g>
    </g>
    <g id="ytick_5">
     <g id="line2d_14">
      <g>
       <use xlink:href="#m23c618cece" x="45.478125" y="36.952867" style="stroke: #000000; stroke-width: 0.8"/>
      </g>
     </g>
     <g id="text_15">
      <!-- $\mathdefault{10^{4}}$ -->
      <g transform="translate(20.878125 40.752085) scale(0.1 -0.1)">
       <defs>
        <path id="DejaVuSans-34" d="M 2419 4116 
L 825 1625 
L 2419 1625 
L 2419 4116 
z
M 2253 4666 
L 3047 4666 
L 3047 1625 
L 3713 1625 
L 3713 1100 
L 3047 1100 
L 3047 0 
L 2419 0 
L 2419 1100 
L 313 1100 
L 313 1709 
L 2253 4666 
z
" transform="scale(0.015625)"/>
       </defs>
       <use xlink:href="#DejaVuSans-31" transform="translate(0 0.684375)"/>
       <use xlink:href="#DejaVuSans-30" transform="translate(63.623047 0.684375)"/>
       <use xlink:href="#DejaVuSans-34" transform="translate(128.203125 38.965625) scale(0.7)"/>
      </g>
     </g>
    </g>
    <g id="ytick_6">
     <g id="line2d_15">
      <defs>
       <path id="m348dab1f12" d="M 0 0 
L -2 0 
" style="stroke: #000000; stroke-width: 0.6"/>
      </defs>
      <g>
       <use xlink:href="#m348dab1f12" x="45.478125" y="226.247318" style="stroke: #000000; stroke-width: 0.6"/>
      </g>
     </g>
    </g>
    <g id="ytick_7">
     <g id="line2d_16">
      <g>
       <use xlink:href="#m348dab1f12" x="45.478125" y="217.235864" style="stroke: #000000; stroke-width: 0.6"/>
      </g>
     </g>
    </g>
    <g id="ytick_8">
     <g id="line2d_17">
      <g>
       <use xlink:href="#m348dab1f12" x="45.478125" y="210.842135" style="stroke: #000000; stroke-width: 0.6"/>
      </g>
     </g>
    </g>
    <g id="ytick_9">
     <g id="line2d_18">
      <g>
       <use xlink:href="#m348dab1f12" x="45.478125" y="205.882774" style="stroke: #000000; stroke-width: 0.6"/>
      </g>
     </g>
    </g>
    <g id="ytick_10">
     <g id="line2d_19">
      <g>
       <use xlink:href="#m348dab1f12" x="45.478125" y="201.830681" style="stroke: #000000; stroke-width: 0.6"/>
      </g>
     </g>
    </g>
    <g id="ytick_11">
     <g id="line2d_20">
      <g>
       <use xlink:href="#m348dab1f12" x="45.478125" y="198.404685" style="stroke: #000000; stroke-width: 0.6"/>
      </g>
     </g>
    </g>
    <g id="ytick_12">
     <g id="line2d_21">
      <g>
       <use xlink:href="#m348dab1f12" x="45.478125" y="195.436953" style="stroke: #000000; stroke-width: 0.6"/>
      </g>
     </g>
    </g>
    <g id="ytick_13">
     <g id="line2d_22">
      <g>
       <use xlink:href="#m348dab1f12" x="45.478125" y="192.819227" style="stroke: #000000; stroke-width: 0.6"/>
      </g>
     </g>
    </g>
    <g id="ytick_14">
     <g id="line2d_23">
      <g>
       <use xlink:href="#m348dab1f12" x="45.478125" y="175.072409" style="stroke: #000000; stroke-width: 0.6"/>
      </g>
     </g>
    </g>
    <g id="ytick_15">
     <g id="line2d_24">
      <g>
       <use xlink:href="#m348dab1f12" x="45.478125" y="166.060955" style="stroke: #000000; stroke-width: 0.6"/>
      </g>
     </g>
    </g>
    <g id="ytick_16">
     <g id="line2d_25">
      <g>
       <use xlink:href="#m348dab1f12" x="45.478125" y="159.667227" style="stroke: #000000; stroke-width: 0.6"/>
      </g>
     </g>
    </g>
    <g id="ytick_17">
     <g id="line2d_26">
      <g>
       <use xlink:href="#m348dab1f12" x="45.478125" y="154.707866" style="stroke: #000000; stroke-width: 0.6"/>
      </g>
     </g>
    </g>
    <g id="ytick_18">
     <g id="line2d_27">
      <g>
       <use xlink:href="#m348dab1f12" x="45.478125" y="150.655773" style="stroke: #000000; stroke-width: 0.6"/>
      </g>
     </g>
    </g>
    <g id="ytick_19">
     <g id="line2d_28">
      <g>
       <use xlink:href="#m348dab1f12" x="45.478125" y="147.229777" style="stroke: #000000; stroke-width: 0.6"/>
      </g>
     </g>
    </g>
    <g id="ytick_20">
     <g id="line2d_29">
      <g>
       <use xlink:href="#m348dab1f12" x="45.478125" y="144.262044" style="stroke: #000000; stroke-width: 0.6"/>
      </g>
     </g>
    </g>
    <g id="ytick_21">
     <g id="line2d_30">
      <g>
       <use xlink:href="#m348dab1f12" x="45.478125" y="141.644319" style="stroke: #000000; stroke-width: 0.6"/>
      </g>
     </g>
    </g>
    <g id="ytick_22">
     <g id="line2d_31">
      <g>
       <use xlink:href="#m348dab1f12" x="45.478125" y="123.897501" style="stroke: #000000; stroke-width: 0.6"/>
      </g>
     </g>
    </g>
    <g id="ytick_23">
     <g id="line2d_32">
      <g>
       <use xlink:href="#m348dab1f12" x="45.478125" y="114.886047" style="stroke: #000000; stroke-width: 0.6"/>
      </g>
     </g>
    </g>
    <g id="ytick_24">
     <g id="line2d_33">
      <g>
       <use xlink:href="#m348dab1f12" x="45.478125" y="108.492318" style="stroke: #000000; stroke-width: 0.6"/>
      </g>
     </g>
    </g>
    <g id="ytick_25">
     <g id="line2d_34">
      <g>
       <use xlink:href="#m348dab1f12" x="45.478125" y="103.532957" style="stroke: #000000; stroke-width: 0.6"/>
      </g>
     </g>
    </g>
    <g id="ytick_26">
     <g id="line2d_35">
      <g>
       <use xlink:href="#m348dab1f12" x="45.478125" y="99.480864" style="stroke: #000000; stroke-width: 0.6"/>
      </g>
     </g>
    </g>
    <g id="ytick_27">
     <g id="line2d_36">
      <g>
       <use xlink:href="#m348dab1f12" x="45.478125" y="96.054869" style="stroke: #000000; stroke-width: 0.6"/>
      </g>
     </g>
    </g>
    <g id="ytick_28">
     <g id="line2d_37">
      <g>
       <use xlink:href="#m348dab1f12" x="45.478125" y="93.087136" style="stroke: #000000; stroke-width: 0.6"/>
      </g>
     </g>
    </g>
    <g id="ytick_29">
     <g id="line2d_38">
      <g>
       <use xlink:href="#m348dab1f12" x="45.478125" y="90.46941" style="stroke: #000000; stroke-width: 0.6"/>
      </g>
     </g>
    </g>
    <g id="ytick_30">
     <g id="line2d_39">
      <g>
       <use xlink:href="#m348dab1f12" x="45.478125" y="72.722593" style="stroke: #000000; stroke-width: 0.6"/>
      </g>
     </g>
    </g>
    <g id="ytick_31">
     <g id="line2d_40">
      <g>
       <use xlink:href="#m348dab1f12" x="45.478125" y="63.711139" style="stroke: #000000; stroke-width: 0.6"/>
      </g>
     </g>
    </g>
    <g id="ytick_32">
     <g id="line2d_41">
      <g>
       <use xlink:href="#m348dab1f12" x="45.478125" y="57.31741" style="stroke: #000000; stroke-width: 0.6"/>
      </g>
     </g>
    </g>
    <g id="ytick_33">
     <g id="line2d_42">
      <g>
       <use xlink:href="#m348dab1f12" x="45.478125" y="52.358049" style="stroke: #000000; stroke-width: 0.6"/>
      </g>
     </g>
    </g>
    <g id="ytick_34">
     <g id="line2d_43">
      <g>
       <use xlink:href="#m348dab1f12" x="45.478125" y="48.305956" style="stroke: #000000; stroke-width: 0.6"/>
      </g>
     </g>
    </g>
    <g id="ytick_35">
     <g id="line2d_44">
      <g>
       <use xlink:href="#m348dab1f12" x="45.478125" y="44.87996" style="stroke: #000000; stroke-width: 0.6"/>
      </g>
     </g>
    </g>
    <g id="ytick_36">
     <g id="line2d_45">
      <g>
       <use xlink:href="#m348dab1f12" x="45.478125" y="41.912228" style="stroke: #000000; stroke-width: 0.6"/>
      </g>
     </g>
    </g>
    <g id="ytick_37">
     <g id="line2d_46">
      <g>
       <use xlink:href="#m348dab1f12" x="45.478125" y="39.294502" style="stroke: #000000; stroke-width: 0.6"/>
      </g>
     </g>
    </g>
    <g id="ytick_38">
     <g id="line2d_47">
      <g>
       <use xlink:href="#m348dab1f12" x="45.478125" y="21.547684" style="stroke: #000000; stroke-width: 0.6"/>
      </g>
     </g>
    </g>
    <g id="ytick_39">
     <g id="line2d_48">
      <g>
       <use xlink:href="#m348dab1f12" x="45.478125" y="12.53623" style="stroke: #000000; stroke-width: 0.6"/>
      </g>
     </g>
    </g>
    <g id="text_16">
     <!-- [counts] -->
     <g transform="translate(14.798438 145.03875) rotate(-90) scale(0.1 -0.1)">
      <defs>
       <path id="DejaVuSans-63" d="M 3122 3366 
L 3122 2828 
Q 2878 2963 2633 3030 
Q 2388 3097 2138 3097 
Q 1578 3097 1268 2742 
Q 959 2388 959 1747 
Q 959 1106 1268 751 
Q 1578 397 2138 397 
Q 2388 397 2633 464 
Q 2878 531 3122 666 
L 3122 134 
Q 2881 22 2623 -34 
Q 2366 -91 2075 -91 
Q 1284 -91 818 406 
Q 353 903 353 1747 
Q 353 2603 823 3093 
Q 1294 3584 2113 3584 
Q 2378 3584 2631 3529 
Q 2884 3475 3122 3366 
z
" transform="scale(0.015625)"/>
       <path id="DejaVuSans-6f" d="M 1959 3097 
Q 1497 3097 1228 2736 
Q 959 2375 959 1747 
Q 959 1119 1226 758 
Q 1494 397 1959 397 
Q 2419 397 2687 759 
Q 2956 1122 2956 1747 
Q 2956 2369 2687 2733 
Q 2419 3097 1959 3097 
z
M 1959 3584 
Q 2709 3584 3137 3096 
Q 3566 2609 3566 1747 
Q 3566 888 3137 398 
Q 2709 -91 1959 -91 
Q 1206 -91 779 398 
Q 353 888 353 1747 
Q 353 2609 779 3096 
Q 1206 3584 1959 3584 
z
" transform="scale(0.015625)"/>
       <path id="DejaVuSans-75" d="M 544 1381 
L 544 3500 
L 1119 3500 
L 1119 1403 
Q 1119 906 1312 657 
Q 1506 409 1894 409 
Q 2359 409 2629 706 
Q 2900 1003 2900 1516 
L 2900 3500 
L 3475 3500 
L 3475 0 
L 2900 0 
L 2900 538 
Q 2691 219 2414 64 
Q 2138 -91 1772 -91 
Q 1169 -91 856 284 
Q 544 659 544 1381 
z
M 1991 3584 
L 1991 3584 
z
" transform="scale(0.015625)"/>
       <path id="DejaVuSans-6e" d="M 3513 2113 
L 3513 0 
L 2938 0 
L 2938 2094 
Q 2938 2591 2744 2837 
Q 2550 3084 2163 3084 
Q 1697 3084 1428 2787 
Q 1159 2491 1159 1978 
L 1159 0 
L 581 0 
L 581 3500 
L 1159 3500 
L 1159 2956 
Q 1366 3272 1645 3428 
Q 1925 3584 2291 3584 
Q 2894 3584 3203 3211 
Q 3513 2838 3513 2113 
z
" transform="scale(0.015625)"/>
       <path id="DejaVuSans-74" d="M 1172 4494 
L 1172 3500 
L 2356 3500 
L 2356 3053 
L 1172 3053 
L 1172 1153 
Q 1172 725 1289 603 
Q 1406 481 1766 481 
L 2356 481 
L 2356 0 
L 1766 0 
Q 1100 0 847 248 
Q 594 497 594 1153 
L 594 3053 
L 172 3053 
L 172 3500 
L 594 3500 
L 594 4494 
L 1172 4494 
z
" transform="scale(0.015625)"/>
       <path id="DejaVuSans-73" d="M 2834 3397 
L 2834 2853 
Q 2591 2978 2328 3040 
Q 2066 3103 1784 3103 
Q 1356 3103 1142 2972 
Q 928 2841 928 2578 
Q 928 2378 1081 2264 
Q 1234 2150 1697 2047 
L 1894 2003 
Q 2506 1872 2764 1633 
Q 3022 1394 3022 966 
Q 3022 478 2636 193 
Q 2250 -91 1575 -91 
Q 1294 -91 989 -36 
Q 684 19 347 128 
L 347 722 
Q 666 556 975 473 
Q 1284 391 1588 391 
Q 1994 391 2212 530 
Q 2431 669 2431 922 
Q 2431 1156 2273 1281 
Q 2116 1406 1581 1522 
L 1381 1569 
Q 847 1681 609 1914 
Q 372 2147 372 2553 
Q 372 3047 722 3315 
Q 1072 3584 1716 3584 
Q 2034 3584 2315 3537 
Q 2597 3491 2834 3397 
z
" transform="scale(0.015625)"/>
      </defs>
      <use xlink:href="#DejaVuSans-5b"/>
      <use xlink:href="#DejaVuSans-63" x="39.013672"/>
      <use xlink:href="#DejaVuSans-6f" x="93.994141"/>
      <use xlink:href="#DejaVuSans-75" x="155.175781"/>
      <use xlink:href="#DejaVuSans-6e" x="218.554688"/>
      <use xlink:href="#DejaVuSans-74" x="281.933594"/>
      <use xlink:href="#DejaVuSans-73" x="321.142578"/>
      <use xlink:href="#DejaVuSans-5d" x="373.242188"/>
     </g>
    </g>
   </g>
   <g id="patch_3">
    <path d="M 45.478125 241.6525 
L 45.478125 7.2 
" style="fill: none; stroke: #000000; stroke-width: 0.8; stroke-linejoin: miter; stroke-linecap: square"/>
   </g>
   <g id="patch_4">
    <path d="M 416.54044 241.6525 
L 416.54044 7.2 
" style="fill: none; stroke: #000000; stroke-width: 0.8; stroke-linejoin: miter; stroke-linecap: square"/>
   </g>
   <g id="patch_5">
    <path d="M 45.478125 241.6525 
L 416.54044 241.6525 
" style="fill: none; stroke: #000000; stroke-width: 0.8; stroke-linejoin: miter; stroke-linecap: square"/>
   </g>
   <g id="patch_6">
    <path d="M 45.478125 7.2 
L 416.54044 7.2 
" style="fill: none; stroke: #000000; stroke-width: 0.8; stroke-linejoin: miter; stroke-linecap: square"/>
   </g>
   <g id="line2d_49">
    <path d="M 62.344594 40.330747 
L 64.031241 40.330747 
L 64.031241 31.706064 
L 65.717888 31.706064 
L 65.717888 32.309068 
L 67.404535 32.309068 
L 67.404535 32.833213 
L 69.091181 32.833213 
L 69.091181 33.587348 
L 70.777828 33.587348 
L 70.777828 33.962537 
L 72.464475 33.962537 
L 72.464475 34.841813 
L 74.151122 34.841813 
L 74.151122 36.022256 
L 75.837769 36.022256 
L 75.837769 36.911448 
L 77.524416 36.911448 
L 77.524416 37.489914 
L 79.211063 37.489914 
L 79.211063 39.190662 
L 80.89771 39.190662 
L 80.89771 40.055846 
L 82.584357 40.055846 
L 82.584357 40.629329 
L 84.271003 40.629329 
L 84.271003 43.523054 
L 87.644297 43.532451 
L 87.644297 45.269781 
L 89.330944 45.269781 
L 89.330944 46.718144 
L 91.017591 46.718144 
L 91.017591 49.177188 
L 92.704238 49.177188 
L 92.704238 51.393521 
L 94.390885 51.393521 
L 94.390885 56.199426 
L 96.077532 56.199426 
L 96.077532 60.472977 
L 97.764179 60.472977 
L 97.764179 66.823842 
L 99.450825 66.823842 
L 99.450825 72.484546 
L 101.137472 72.484546 
L 101.137472 79.054585 
L 102.824119 79.054585 
L 102.824119 87.761024 
L 104.510766 87.761024 
L 104.510766 92.155329 
L 106.197413 92.155329 
L 106.197413 94.348609 
L 107.88406 94.348609 
L 107.88406 95.676716 
L 109.570707 95.676716 
L 109.570707 93.413875 
L 111.257354 93.413875 
L 111.257354 92.526173 
L 112.944 92.526173 
L 112.944 92.308974 
L 114.630647 92.308974 
L 114.630647 93.076257 
L 116.317294 93.076257 
L 116.317294 95.184395 
L 118.003941 95.184395 
L 118.003941 102.054455 
L 119.690588 102.054455 
L 119.690588 101.381059 
L 121.377235 101.381059 
L 121.377235 103.466604 
L 123.063882 103.466604 
L 123.063882 107.145622 
L 124.750529 107.145622 
L 124.750529 113.55728 
L 126.437176 113.55728 
L 126.437176 120.755469 
L 128.123822 120.755469 
L 128.123822 125.346274 
L 129.810469 125.346274 
L 129.810469 130.545265 
L 131.497116 130.545265 
L 131.497116 136.061505 
L 133.183763 136.061505 
L 133.183763 141.664776 
L 134.87041 141.664776 
L 134.87041 146.404743 
L 136.557057 146.404743 
L 136.557057 148.709059 
L 138.243704 148.709059 
L 138.243704 153.208455 
L 139.930351 153.208455 
L 139.930351 149.256715 
L 141.616998 149.256715 
L 141.616998 150.889642 
L 143.303644 150.889642 
L 143.303644 147.332405 
L 144.990291 147.332405 
L 144.990291 143.692056 
L 146.676938 143.692056 
L 146.676938 140.321972 
L 148.363585 140.321972 
L 148.363585 139.27665 
L 150.050232 139.27665 
L 150.050232 137.975915 
L 151.736879 137.975915 
L 151.736879 138.112448 
L 153.423526 138.112448 
L 153.423526 134.748166 
L 155.110173 134.748166 
L 155.110173 130.370632 
L 156.79682 130.370632 
L 156.79682 130.684385 
L 158.483466 130.684385 
L 158.483466 129.865794 
L 160.170113 129.865794 
L 160.170113 133.380361 
L 161.85676 133.380361 
L 161.85676 132.567201 
L 163.543407 132.567201 
L 163.543407 131.858054 
L 165.230054 131.858054 
L 165.230054 133.821047 
L 166.916701 133.821047 
L 166.916701 128.616256 
L 168.603348 128.616256 
L 168.603348 130.578863 
L 171.976642 130.580677 
L 171.976642 132.715523 
L 173.663288 132.715523 
L 173.663288 135.349875 
L 175.349935 135.349875 
L 175.349935 134.706434 
L 177.036582 134.706434 
L 177.036582 137.9775 
L 178.723229 137.9775 
L 178.723229 139.786685 
L 180.409876 139.786685 
L 180.409876 141.904811 
L 182.096523 141.904811 
L 182.096523 141.00665 
L 183.78317 141.00665 
L 183.78317 143.559188 
L 185.469817 143.559188 
L 185.469817 145.677573 
L 187.156464 145.677573 
L 187.156464 147.642399 
L 188.84311 147.642399 
L 188.84311 148.055576 
L 190.529757 148.055576 
L 190.529757 151.811554 
L 192.216404 151.811554 
L 192.216404 151.234223 
L 195.589698 151.150916 
L 195.589698 154.889978 
L 197.276345 154.889978 
L 197.276345 155.199457 
L 198.962992 155.199457 
L 198.962992 154.794904 
L 200.649639 154.794904 
L 200.649639 153.158163 
L 202.336286 153.158163 
L 202.336286 156.518045 
L 204.022932 156.518045 
L 204.022932 154.334439 
L 205.709579 154.334439 
L 205.709579 153.064928 
L 207.396226 153.064928 
L 207.396226 154.418691 
L 209.082873 154.418691 
L 209.082873 155.234798 
L 210.76952 155.234798 
L 210.76952 153.191623 
L 212.456167 153.191623 
L 212.456167 150.463222 
L 214.142814 150.463222 
L 214.142814 151.705895 
L 215.829461 151.705895 
L 215.829461 150.873651 
L 217.516108 150.873651 
L 217.516108 149.995579 
L 219.202754 149.995579 
L 219.202754 148.990896 
L 220.889401 148.990896 
L 220.889401 147.103483 
L 222.576048 147.103483 
L 222.576048 150.189827 
L 224.262695 150.189827 
L 224.262695 146.258359 
L 225.949342 146.258359 
L 225.949342 149.340191 
L 227.635989 149.340191 
L 227.635989 147.880364 
L 229.322636 147.880364 
L 229.322636 146.152257 
L 231.009283 146.152257 
L 231.009283 146.529162 
L 232.69593 146.529162 
L 232.69593 149.085193 
L 234.382576 149.085193 
L 234.382576 149.390244 
L 236.069223 149.390244 
L 236.069223 154.055019 
L 237.75587 154.055019 
L 237.75587 151.784582 
L 239.442517 151.784582 
L 239.442517 153.243351 
L 241.129164 153.243351 
L 241.129164 152.196058 
L 242.815811 152.196058 
L 242.815811 153.318698 
L 244.502458 153.318698 
L 244.502458 154.762056 
L 246.189105 154.762056 
L 246.189105 150.369781 
L 247.875751 150.369781 
L 247.875751 153.791613 
L 249.562398 153.791613 
L 249.562398 149.616173 
L 251.249045 149.616173 
L 251.249045 157.124729 
L 252.935692 157.124729 
L 252.935692 155.170872 
L 254.622339 155.170872 
L 254.622339 158.852111 
L 256.308986 158.852111 
L 256.308986 157.480318 
L 257.995633 157.480318 
L 257.995633 154.039587 
L 259.68228 154.039587 
L 259.68228 155.884386 
L 261.368927 155.884386 
L 261.368927 152.151743 
L 263.055573 152.151743 
L 263.055573 158.669545 
L 264.74222 158.669545 
L 264.74222 151.140129 
L 266.428867 151.140129 
L 266.428867 154.861563 
L 268.115514 154.861563 
L 268.115514 156.034161 
L 269.802161 156.034161 
L 269.802161 151.926447 
L 271.488808 151.926447 
L 271.488808 152.249736 
L 273.175455 152.249736 
L 273.175455 151.729226 
L 274.862102 151.729226 
L 274.862102 151.869813 
L 276.548749 151.869813 
L 276.548749 152.905024 
L 278.235395 152.905024 
L 278.235395 153.341791 
L 279.922042 153.341791 
L 279.922042 152.312363 
L 281.608689 152.312363 
L 281.608689 155.961839 
L 283.295336 155.961839 
L 283.295336 153.24643 
L 284.981983 153.24643 
L 284.981983 151.113718 
L 288.355277 151.104287 
L 288.355277 157.06831 
L 290.041924 157.06831 
L 290.041924 151.894074 
L 291.728571 151.894074 
L 291.728571 155.471903 
L 293.415217 155.471903 
L 293.415217 153.054956 
L 295.101864 153.054956 
L 295.101864 159.930498 
L 296.788511 159.930498 
L 296.788511 154.089219 
L 298.475158 154.089219 
L 298.475158 151.332697 
L 300.161805 151.332697 
L 300.161805 156.041028 
L 303.535099 156.048871 
L 303.535099 153.867178 
L 305.221746 153.867178 
L 305.221746 156.68141 
L 306.908393 156.68141 
L 306.908393 156.953855 
L 308.595039 156.953855 
L 308.595039 153.634882 
L 310.281686 153.634882 
L 310.281686 156.750245 
L 311.968333 156.750245 
L 311.968333 156.370902 
L 313.65498 156.370902 
L 313.65498 158.133594 
L 315.341627 158.133594 
L 315.341627 158.908297 
L 317.028274 158.908297 
L 317.028274 159.633701 
L 318.714921 159.633701 
L 318.714921 159.848804 
L 320.401568 159.848804 
L 320.401568 157.934355 
L 322.088215 157.934355 
L 322.088215 160.956446 
L 323.774861 160.956446 
L 323.774861 161.194231 
L 325.461508 161.194231 
L 325.461508 160.110607 
L 327.148155 160.110607 
L 327.148155 160.607119 
L 328.834802 160.607119 
L 328.834802 159.226846 
L 330.521449 159.226846 
L 330.521449 163.046608 
L 332.208096 163.046608 
L 332.208096 160.201284 
L 333.894743 160.201284 
L 333.894743 165.286726 
L 335.58139 165.286726 
L 335.58139 160.47812 
L 337.268037 160.47812 
L 337.268037 167.490554 
L 338.954683 167.490554 
L 338.954683 163.628428 
L 340.64133 163.628428 
L 340.64133 180.54361 
L 342.327977 180.54361 
L 342.327977 170.579822 
L 344.014624 170.579822 
L 344.014624 168.792103 
L 345.701271 168.792103 
L 345.701271 174.063525 
L 347.387918 174.063525 
L 347.387918 168.778824 
L 349.074565 168.778824 
L 349.074565 167.754182 
L 350.761212 167.754182 
L 350.761212 171.589191 
L 352.447859 171.589191 
L 352.447859 167.615728 
L 354.134505 167.615728 
L 354.134505 178.730906 
L 355.821152 178.730906 
L 355.821152 188.907304 
L 357.507799 188.907304 
L 357.507799 175.758948 
L 359.194446 175.758948 
L 359.194446 175.054768 
L 360.881093 175.054768 
L 360.881093 180.278725 
L 362.56774 180.278725 
L 362.56774 184.160942 
L 364.254387 184.160942 
L 364.254387 181.602688 
L 365.941034 181.602688 
L 365.941034 195.101532 
L 367.62768 195.101532 
L 367.62768 193.229417 
L 369.314327 193.229417 
L 369.314327 196.979537 
L 371.000974 196.979537 
L 371.000974 194.584545 
L 372.687621 194.584545 
L 372.687621 217.791767 
L 374.374268 217.791767 
L 374.374268 206.852574 
L 376.060915 206.852574 
L 376.060915 205.279373 
L 377.747562 205.279373 
L 377.747562 242.512857 
L 379.434209 242.512857 
L 379.434209 253.32898 
L 381.120856 253.32898 
L 381.120856 281.132187 
L 381.120856 281.132187 
" clip-path="url(#p693f8e9546)" style="fill: none; stroke: #1f77b4; stroke-width: 1.5; stroke-linecap: square"/>
   </g>
   <g id="LineCollection_1">
    <path d="M 63.187917 40.571847 
L 63.187917 40.092234 
" clip-path="url(#p693f8e9546)" style="fill: none; stroke: #1f77b4; stroke-width: 1.5"/>
    <path d="M 64.874564 31.904452 
L 64.874564 31.509431 
" clip-path="url(#p693f8e9546)" style="fill: none; stroke: #1f77b4; stroke-width: 1.5"/>
    <path d="M 66.561211 32.510178 
L 66.561211 32.109762 
" clip-path="url(#p693f8e9546)" style="fill: none; stroke: #1f77b4; stroke-width: 1.5"/>
    <path d="M 68.247858 33.036719 
L 68.247858 32.631554 
" clip-path="url(#p693f8e9546)" style="fill: none; stroke: #1f77b4; stroke-width: 1.5"/>
    <path d="M 69.934505 33.794352 
L 69.934505 33.382254 
" clip-path="url(#p693f8e9546)" style="fill: none; stroke: #1f77b4; stroke-width: 1.5"/>
    <path d="M 71.621152 34.171305 
L 71.621152 33.755713 
" clip-path="url(#p693f8e9546)" style="fill: none; stroke: #1f77b4; stroke-width: 1.5"/>
    <path d="M 73.307799 35.054772 
L 73.307799 34.630876 
" clip-path="url(#p693f8e9546)" style="fill: none; stroke: #1f77b4; stroke-width: 1.5"/>
    <path d="M 74.994446 36.240974 
L 74.994446 35.80567 
" clip-path="url(#p693f8e9546)" style="fill: none; stroke: #1f77b4; stroke-width: 1.5"/>
    <path d="M 76.681092 37.134607 
L 76.681092 36.690507 
" clip-path="url(#p693f8e9546)" style="fill: none; stroke: #1f77b4; stroke-width: 1.5"/>
    <path d="M 78.367739 37.716012 
L 78.367739 37.266094 
" clip-path="url(#p693f8e9546)" style="fill: none; stroke: #1f77b4; stroke-width: 1.5"/>
    <path d="M 80.054386 39.425625 
L 80.054386 38.958158 
" clip-path="url(#p693f8e9546)" style="fill: none; stroke: #1f77b4; stroke-width: 1.5"/>
    <path d="M 81.741033 40.295452 
L 81.741033 39.818795 
" clip-path="url(#p693f8e9546)" style="fill: none; stroke: #1f77b4; stroke-width: 1.5"/>
    <path d="M 83.42768 40.872064 
L 83.42768 40.389217 
" clip-path="url(#p693f8e9546)" style="fill: none; stroke: #1f77b4; stroke-width: 1.5"/>
    <path d="M 85.114327 43.782212 
L 85.114327 43.266883 
" clip-path="url(#p693f8e9546)" style="fill: none; stroke: #1f77b4; stroke-width: 1.5"/>
    <path d="M 86.800974 43.791664 
L 86.800974 43.276226 
" clip-path="url(#p693f8e9546)" style="fill: none; stroke: #1f77b4; stroke-width: 1.5"/>
    <path d="M 88.487621 45.539389 
L 88.487621 45.003405 
" clip-path="url(#p693f8e9546)" style="fill: none; stroke: #1f77b4; stroke-width: 1.5"/>
    <path d="M 90.174268 46.996738 
L 90.174268 46.442999 
" clip-path="url(#p693f8e9546)" style="fill: none; stroke: #1f77b4; stroke-width: 1.5"/>
    <path d="M 91.860914 49.471733 
L 91.860914 48.886494 
" clip-path="url(#p693f8e9546)" style="fill: none; stroke: #1f77b4; stroke-width: 1.5"/>
    <path d="M 93.547561 51.703231 
L 93.547561 51.088068 
" clip-path="url(#p693f8e9546)" style="fill: none; stroke: #1f77b4; stroke-width: 1.5"/>
    <path d="M 95.234208 56.544775 
L 95.234208 55.859361 
" clip-path="url(#p693f8e9546)" style="fill: none; stroke: #1f77b4; stroke-width: 1.5"/>
    <path d="M 96.920855 60.853477 
L 96.920855 60.098882 
" clip-path="url(#p693f8e9546)" style="fill: none; stroke: #1f77b4; stroke-width: 1.5"/>
    <path d="M 98.607502 67.263364 
L 98.607502 66.392844 
" clip-path="url(#p693f8e9546)" style="fill: none; stroke: #1f77b4; stroke-width: 1.5"/>
    <path d="M 100.294149 72.984437 
L 100.294149 71.995652 
" clip-path="url(#p693f8e9546)" style="fill: none; stroke: #1f77b4; stroke-width: 1.5"/>
    <path d="M 101.980796 79.635152 
L 101.980796 78.488798 
" clip-path="url(#p693f8e9546)" style="fill: none; stroke: #1f77b4; stroke-width: 1.5"/>
    <path d="M 103.667443 88.46923 
L 103.667443 87.074691 
" clip-path="url(#p693f8e9546)" style="fill: none; stroke: #1f77b4; stroke-width: 1.5"/>
    <path d="M 105.35409 92.938436 
L 105.35409 91.398879 
" clip-path="url(#p693f8e9546)" style="fill: none; stroke: #1f77b4; stroke-width: 1.5"/>
    <path d="M 107.040736 95.172069 
L 107.040736 93.554573 
" clip-path="url(#p693f8e9546)" style="fill: none; stroke: #1f77b4; stroke-width: 1.5"/>
    <path d="M 108.727383 96.525634 
L 108.727383 94.859035 
" clip-path="url(#p693f8e9546)" style="fill: none; stroke: #1f77b4; stroke-width: 1.5"/>
    <path d="M 110.41403 94.219884 
L 110.41403 92.636076 
" clip-path="url(#p693f8e9546)" style="fill: none; stroke: #1f77b4; stroke-width: 1.5"/>
    <path d="M 112.100677 93.315959 
L 112.100677 91.763493 
" clip-path="url(#p693f8e9546)" style="fill: none; stroke: #1f77b4; stroke-width: 1.5"/>
    <path d="M 113.787324 93.094841 
L 113.787324 91.549949 
" clip-path="url(#p693f8e9546)" style="fill: none; stroke: #1f77b4; stroke-width: 1.5"/>
    <path d="M 115.473971 93.876056 
L 115.473971 92.304242 
" clip-path="url(#p693f8e9546)" style="fill: none; stroke: #1f77b4; stroke-width: 1.5"/>
    <path d="M 117.160618 96.023783 
L 117.160618 94.375558 
" clip-path="url(#p693f8e9546)" style="fill: none; stroke: #1f77b4; stroke-width: 1.5"/>
    <path d="M 118.847265 103.037284 
L 118.847265 101.113254 
" clip-path="url(#p693f8e9546)" style="fill: none; stroke: #1f77b4; stroke-width: 1.5"/>
    <path d="M 120.533911 102.348784 
L 120.533911 100.453718 
" clip-path="url(#p693f8e9546)" style="fill: none; stroke: #1f77b4; stroke-width: 1.5"/>
    <path d="M 122.220558 104.481894 
L 122.220558 102.495675 
" clip-path="url(#p693f8e9546)" style="fill: none; stroke: #1f77b4; stroke-width: 1.5"/>
    <path d="M 123.907205 108.250734 
L 123.907205 106.092867 
" clip-path="url(#p693f8e9546)" style="fill: none; stroke: #1f77b4; stroke-width: 1.5"/>
    <path d="M 125.593852 114.838902 
L 125.593852 112.345551 
" clip-path="url(#p693f8e9546)" style="fill: none; stroke: #1f77b4; stroke-width: 1.5"/>
    <path d="M 127.280499 122.270227 
L 127.280499 119.337396 
" clip-path="url(#p693f8e9546)" style="fill: none; stroke: #1f77b4; stroke-width: 1.5"/>
    <path d="M 128.967146 127.032245 
L 128.967146 123.779231 
" clip-path="url(#p693f8e9546)" style="fill: none; stroke: #1f77b4; stroke-width: 1.5"/>
    <path d="M 130.653793 132.449635 
L 130.653793 128.791272 
" clip-path="url(#p693f8e9546)" style="fill: none; stroke: #1f77b4; stroke-width: 1.5"/>
    <path d="M 132.34044 138.230158 
L 132.34044 134.085777 
" clip-path="url(#p693f8e9546)" style="fill: none; stroke: #1f77b4; stroke-width: 1.5"/>
    <path d="M 134.027087 144.141599 
L 134.027087 139.43651 
" clip-path="url(#p693f8e9546)" style="fill: none; stroke: #1f77b4; stroke-width: 1.5"/>
    <path d="M 135.713733 149.178377 
L 135.713733 143.939163 
" clip-path="url(#p693f8e9546)" style="fill: none; stroke: #1f77b4; stroke-width: 1.5"/>
    <path d="M 137.40038 151.640435 
L 137.40038 146.119652 
" clip-path="url(#p693f8e9546)" style="fill: none; stroke: #1f77b4; stroke-width: 1.5"/>
    <path d="M 139.087027 156.476155 
L 139.087027 150.360188 
" clip-path="url(#p693f8e9546)" style="fill: none; stroke: #1f77b4; stroke-width: 1.5"/>
    <path d="M 140.773674 152.22697 
L 140.773674 146.637027 
" clip-path="url(#p693f8e9546)" style="fill: none; stroke: #1f77b4; stroke-width: 1.5"/>
    <path d="M 142.460321 153.979131 
L 142.460321 148.177675 
" clip-path="url(#p693f8e9546)" style="fill: none; stroke: #1f77b4; stroke-width: 1.5"/>
    <path d="M 144.146968 150.168427 
L 144.146968 144.817663 
" clip-path="url(#p693f8e9546)" style="fill: none; stroke: #1f77b4; stroke-width: 1.5"/>
    <path d="M 145.833615 146.291481 
L 145.833615 141.365072 
" clip-path="url(#p693f8e9546)" style="fill: none; stroke: #1f77b4; stroke-width: 1.5"/>
    <path d="M 147.520262 142.720962 
L 147.520262 138.156888 
" clip-path="url(#p693f8e9546)" style="fill: none; stroke: #1f77b4; stroke-width: 1.5"/>
    <path d="M 149.206909 141.616839 
L 149.206909 137.159566 
" clip-path="url(#p693f8e9546)" style="fill: none; stroke: #1f77b4; stroke-width: 1.5"/>
    <path d="M 150.893555 140.245048 
L 150.893555 135.917144 
" clip-path="url(#p693f8e9546)" style="fill: none; stroke: #1f77b4; stroke-width: 1.5"/>
    <path d="M 152.580202 140.388933 
L 152.580202 136.047629 
" clip-path="url(#p693f8e9546)" style="fill: none; stroke: #1f77b4; stroke-width: 1.5"/>
    <path d="M 154.266849 136.850596 
L 154.266849 132.827546 
" clip-path="url(#p693f8e9546)" style="fill: none; stroke: #1f77b4; stroke-width: 1.5"/>
    <path d="M 155.953496 132.267208 
L 155.953496 128.623253 
" clip-path="url(#p693f8e9546)" style="fill: none; stroke: #1f77b4; stroke-width: 1.5"/>
    <path d="M 157.640143 132.594989 
L 157.640143 128.925105 
" clip-path="url(#p693f8e9546)" style="fill: none; stroke: #1f77b4; stroke-width: 1.5"/>
    <path d="M 159.32679 131.740022 
L 159.32679 128.137401 
" clip-path="url(#p693f8e9546)" style="fill: none; stroke: #1f77b4; stroke-width: 1.5"/>
    <path d="M 161.013437 135.416071 
L 161.013437 131.515568 
" clip-path="url(#p693f8e9546)" style="fill: none; stroke: #1f77b4; stroke-width: 1.5"/>
    <path d="M 162.700084 134.564299 
L 162.700084 130.734857 
" clip-path="url(#p693f8e9546)" style="fill: none; stroke: #1f77b4; stroke-width: 1.5"/>
    <path d="M 164.386731 133.822104 
L 164.386731 130.053565 
" clip-path="url(#p693f8e9546)" style="fill: none; stroke: #1f77b4; stroke-width: 1.5"/>
    <path d="M 166.073377 135.878007 
L 166.073377 131.938439 
" clip-path="url(#p693f8e9546)" style="fill: none; stroke: #1f77b4; stroke-width: 1.5"/>
    <path d="M 167.760024 130.436344 
L 167.760024 126.934006 
" clip-path="url(#p693f8e9546)" style="fill: none; stroke: #1f77b4; stroke-width: 1.5"/>
    <path d="M 169.446671 132.484737 
L 169.446671 128.823595 
" clip-path="url(#p693f8e9546)" style="fill: none; stroke: #1f77b4; stroke-width: 1.5"/>
    <path d="M 171.133318 132.486632 
L 171.133318 128.82534 
" clip-path="url(#p693f8e9546)" style="fill: none; stroke: #1f77b4; stroke-width: 1.5"/>
    <path d="M 172.819965 134.719606 
L 172.819965 130.8773 
" clip-path="url(#p693f8e9546)" style="fill: none; stroke: #1f77b4; stroke-width: 1.5"/>
    <path d="M 174.506612 137.482378 
L 174.506612 133.404193 
" clip-path="url(#p693f8e9546)" style="fill: none; stroke: #1f77b4; stroke-width: 1.5"/>
    <path d="M 176.193259 136.806795 
L 176.193259 132.787541 
" clip-path="url(#p693f8e9546)" style="fill: none; stroke: #1f77b4; stroke-width: 1.5"/>
    <path d="M 177.879906 140.246719 
L 177.879906 135.918659 
" clip-path="url(#p693f8e9546)" style="fill: none; stroke: #1f77b4; stroke-width: 1.5"/>
    <path d="M 179.566553 142.155373 
L 179.566553 137.646309 
" clip-path="url(#p693f8e9546)" style="fill: none; stroke: #1f77b4; stroke-width: 1.5"/>
    <path d="M 181.253199 144.395825 
L 181.253199 139.665067 
" clip-path="url(#p693f8e9546)" style="fill: none; stroke: #1f77b4; stroke-width: 1.5"/>
    <path d="M 182.939846 143.444998 
L 182.939846 138.809567 
" clip-path="url(#p693f8e9546)" style="fill: none; stroke: #1f77b4; stroke-width: 1.5"/>
    <path d="M 184.626493 146.150385 
L 184.626493 141.238799 
" clip-path="url(#p693f8e9546)" style="fill: none; stroke: #1f77b4; stroke-width: 1.5"/>
    <path d="M 186.31314 148.403324 
L 186.31314 143.249893 
" clip-path="url(#p693f8e9546)" style="fill: none; stroke: #1f77b4; stroke-width: 1.5"/>
    <path d="M 187.999787 150.499601 
L 187.999787 145.111024 
" clip-path="url(#p693f8e9546)" style="fill: none; stroke: #1f77b4; stroke-width: 1.5"/>
    <path d="M 189.686434 150.94127 
L 189.686434 145.501869 
" clip-path="url(#p693f8e9546)" style="fill: none; stroke: #1f77b4; stroke-width: 1.5"/>
    <path d="M 191.373081 154.970615 
L 191.373081 149.046148 
" clip-path="url(#p693f8e9546)" style="fill: none; stroke: #1f77b4; stroke-width: 1.5"/>
    <path d="M 193.059728 154.349522 
L 193.059728 148.502397 
" clip-path="url(#p693f8e9546)" style="fill: none; stroke: #1f77b4; stroke-width: 1.5"/>
    <path d="M 194.746375 154.259955 
L 194.746375 148.423904 
" clip-path="url(#p693f8e9546)" style="fill: none; stroke: #1f77b4; stroke-width: 1.5"/>
    <path d="M 196.433021 158.293811 
L 196.433021 151.938883 
" clip-path="url(#p693f8e9546)" style="fill: none; stroke: #1f77b4; stroke-width: 1.5"/>
    <path d="M 198.119668 158.629004 
L 198.119668 152.229062 
" clip-path="url(#p693f8e9546)" style="fill: none; stroke: #1f77b4; stroke-width: 1.5"/>
    <path d="M 199.806315 158.190879 
L 199.806315 151.849714 
" clip-path="url(#p693f8e9546)" style="fill: none; stroke: #1f77b4; stroke-width: 1.5"/>
    <path d="M 201.492962 156.421883 
L 201.492962 150.312919 
" clip-path="url(#p693f8e9546)" style="fill: none; stroke: #1f77b4; stroke-width: 1.5"/>
    <path d="M 203.179609 160.059526 
L 203.179609 153.46409 
" clip-path="url(#p693f8e9546)" style="fill: none; stroke: #1f77b4; stroke-width: 1.5"/>
    <path d="M 204.866256 157.692632 
L 204.866256 151.417694 
" clip-path="url(#p693f8e9546)" style="fill: none; stroke: #1f77b4; stroke-width: 1.5"/>
    <path d="M 206.552903 156.321283 
L 206.552903 150.225281 
" clip-path="url(#p693f8e9546)" style="fill: none; stroke: #1f77b4; stroke-width: 1.5"/>
    <path d="M 208.23955 157.783763 
L 208.23955 151.496761 
" clip-path="url(#p693f8e9546)" style="fill: none; stroke: #1f77b4; stroke-width: 1.5"/>
    <path d="M 209.926197 158.667294 
L 209.926197 152.262191 
" clip-path="url(#p693f8e9546)" style="fill: none; stroke: #1f77b4; stroke-width: 1.5"/>
    <path d="M 211.612843 156.45799 
L 211.612843 150.344368 
" clip-path="url(#p693f8e9546)" style="fill: none; stroke: #1f77b4; stroke-width: 1.5"/>
    <path d="M 213.29949 153.521089 
L 213.29949 147.775644 
" clip-path="url(#p693f8e9546)" style="fill: none; stroke: #1f77b4; stroke-width: 1.5"/>
    <path d="M 214.986137 154.856898 
L 214.986137 148.946663 
" clip-path="url(#p693f8e9546)" style="fill: none; stroke: #1f77b4; stroke-width: 1.5"/>
    <path d="M 216.672784 153.961948 
L 216.672784 148.162603 
" clip-path="url(#p693f8e9546)" style="fill: none; stroke: #1f77b4; stroke-width: 1.5"/>
    <path d="M 218.359431 153.019164 
L 218.359431 147.33451 
" clip-path="url(#p693f8e9546)" style="fill: none; stroke: #1f77b4; stroke-width: 1.5"/>
    <path d="M 220.046078 151.942212 
L 220.046078 146.385947 
" clip-path="url(#p693f8e9546)" style="fill: none; stroke: #1f77b4; stroke-width: 1.5"/>
    <path d="M 221.732725 149.923972 
L 221.732725 144.600959 
" clip-path="url(#p693f8e9546)" style="fill: none; stroke: #1f77b4; stroke-width: 1.5"/>
    <path d="M 223.419372 153.227602 
L 223.419372 147.517777 
" clip-path="url(#p693f8e9546)" style="fill: none; stroke: #1f77b4; stroke-width: 1.5"/>
    <path d="M 225.106019 149.022283 
L 225.106019 143.800453 
" clip-path="url(#p693f8e9546)" style="fill: none; stroke: #1f77b4; stroke-width: 1.5"/>
    <path d="M 226.792665 152.316421 
L 226.792665 146.715858 
" clip-path="url(#p693f8e9546)" style="fill: none; stroke: #1f77b4; stroke-width: 1.5"/>
    <path d="M 228.479312 150.753938 
L 228.479312 145.336149 
" clip-path="url(#p693f8e9546)" style="fill: none; stroke: #1f77b4; stroke-width: 1.5"/>
    <path d="M 230.165959 148.909165 
L 230.165959 143.6999 
" clip-path="url(#p693f8e9546)" style="fill: none; stroke: #1f77b4; stroke-width: 1.5"/>
    <path d="M 231.852606 149.311078 
L 231.852606 144.057042 
" clip-path="url(#p693f8e9546)" style="fill: none; stroke: #1f77b4; stroke-width: 1.5"/>
    <path d="M 233.539253 152.043213 
L 233.539253 146.475024 
" clip-path="url(#p693f8e9546)" style="fill: none; stroke: #1f77b4; stroke-width: 1.5"/>
    <path d="M 235.2259 152.370063 
L 235.2259 146.763123 
" clip-path="url(#p693f8e9546)" style="fill: none; stroke: #1f77b4; stroke-width: 1.5"/>
    <path d="M 236.912547 157.390507 
L 236.912547 151.155409 
" clip-path="url(#p693f8e9546)" style="fill: none; stroke: #1f77b4; stroke-width: 1.5"/>
    <path d="M 238.599194 154.941584 
L 238.599194 149.020753 
" clip-path="url(#p693f8e9546)" style="fill: none; stroke: #1f77b4; stroke-width: 1.5"/>
    <path d="M 240.28584 156.513816 
L 240.28584 150.392985 
" clip-path="url(#p693f8e9546)" style="fill: none; stroke: #1f77b4; stroke-width: 1.5"/>
    <path d="M 241.972487 155.38463 
L 241.972487 149.408072 
" clip-path="url(#p693f8e9546)" style="fill: none; stroke: #1f77b4; stroke-width: 1.5"/>
    <path d="M 243.659134 156.595141 
L 243.659134 150.463794 
" clip-path="url(#p693f8e9546)" style="fill: none; stroke: #1f77b4; stroke-width: 1.5"/>
    <path d="M 245.345781 158.155321 
L 245.345781 151.818904 
" clip-path="url(#p693f8e9546)" style="fill: none; stroke: #1f77b4; stroke-width: 1.5"/>
    <path d="M 247.032428 153.420764 
L 247.032428 147.687519 
" clip-path="url(#p693f8e9546)" style="fill: none; stroke: #1f77b4; stroke-width: 1.5"/>
    <path d="M 248.719075 157.105848 
L 248.719075 150.908071 
" clip-path="url(#p693f8e9546)" style="fill: none; stroke: #1f77b4; stroke-width: 1.5"/>
    <path d="M 250.405722 152.612246 
L 250.405722 146.976429 
" clip-path="url(#p693f8e9546)" style="fill: none; stroke: #1f77b4; stroke-width: 1.5"/>
    <path d="M 252.092369 160.719033 
L 252.092369 154.031596 
" clip-path="url(#p693f8e9546)" style="fill: none; stroke: #1f77b4; stroke-width: 1.5"/>
    <path d="M 253.779016 158.598035 
L 253.779016 152.202264 
" clip-path="url(#p693f8e9546)" style="fill: none; stroke: #1f77b4; stroke-width: 1.5"/>
    <path d="M 255.465662 162.601548 
L 255.465662 155.64485 
" clip-path="url(#p693f8e9546)" style="fill: none; stroke: #1f77b4; stroke-width: 1.5"/>
    <path d="M 257.152309 161.105978 
L 257.152309 154.364005 
" clip-path="url(#p693f8e9546)" style="fill: none; stroke: #1f77b4; stroke-width: 1.5"/>
    <path d="M 258.838956 157.373826 
L 258.838956 151.140922 
" clip-path="url(#p693f8e9546)" style="fill: none; stroke: #1f77b4; stroke-width: 1.5"/>
    <path d="M 260.525603 159.371591 
L 260.525603 152.870856 
" clip-path="url(#p693f8e9546)" style="fill: none; stroke: #1f77b4; stroke-width: 1.5"/>
    <path d="M 262.21225 155.336899 
L 262.21225 149.366369 
" clip-path="url(#p693f8e9546)" style="fill: none; stroke: #1f77b4; stroke-width: 1.5"/>
    <path d="M 263.898897 162.402247 
L 263.898897 155.474529 
" clip-path="url(#p693f8e9546)" style="fill: none; stroke: #1f77b4; stroke-width: 1.5"/>
    <path d="M 265.585544 154.248357 
L 265.585544 148.413739 
" clip-path="url(#p693f8e9546)" style="fill: none; stroke: #1f77b4; stroke-width: 1.5"/>
    <path d="M 267.272191 158.263045 
L 267.272191 151.912233 
" clip-path="url(#p693f8e9546)" style="fill: none; stroke: #1f77b4; stroke-width: 1.5"/>
    <path d="M 268.958838 159.534114 
L 268.958838 153.011122 
" clip-path="url(#p693f8e9546)" style="fill: none; stroke: #1f77b4; stroke-width: 1.5"/>
    <path d="M 270.645484 155.094295 
L 270.645484 149.154312 
" clip-path="url(#p693f8e9546)" style="fill: none; stroke: #1f77b4; stroke-width: 1.5"/>
    <path d="M 272.332131 155.442452 
L 272.332131 149.458585 
" clip-path="url(#p693f8e9546)" style="fill: none; stroke: #1f77b4; stroke-width: 1.5"/>
    <path d="M 274.018778 154.882006 
L 274.018778 148.968632 
" clip-path="url(#p693f8e9546)" style="fill: none; stroke: #1f77b4; stroke-width: 1.5"/>
    <path d="M 275.705425 155.033327 
L 275.705425 149.100997 
" clip-path="url(#p693f8e9546)" style="fill: none; stroke: #1f77b4; stroke-width: 1.5"/>
    <path d="M 277.392072 156.148789 
L 277.392072 150.074951 
" clip-path="url(#p693f8e9546)" style="fill: none; stroke: #1f77b4; stroke-width: 1.5"/>
    <path d="M 279.078719 156.620068 
L 279.078719 150.485495 
" clip-path="url(#p693f8e9546)" style="fill: none; stroke: #1f77b4; stroke-width: 1.5"/>
    <path d="M 280.765366 155.50992 
L 280.765366 149.517514 
" clip-path="url(#p693f8e9546)" style="fill: none; stroke: #1f77b4; stroke-width: 1.5"/>
    <path d="M 282.452013 159.45563 
L 282.452013 152.943396 
" clip-path="url(#p693f8e9546)" style="fill: none; stroke: #1f77b4; stroke-width: 1.5"/>
    <path d="M 284.13866 156.517138 
L 284.13866 150.395878 
" clip-path="url(#p693f8e9546)" style="fill: none; stroke: #1f77b4; stroke-width: 1.5"/>
    <path d="M 285.825306 154.219965 
L 285.825306 148.388853 
" clip-path="url(#p693f8e9546)" style="fill: none; stroke: #1f77b4; stroke-width: 1.5"/>
    <path d="M 287.511953 154.209826 
L 287.511953 148.379966 
" clip-path="url(#p693f8e9546)" style="fill: none; stroke: #1f77b4; stroke-width: 1.5"/>
    <path d="M 289.1986 160.657666 
L 289.1986 153.978841 
" clip-path="url(#p693f8e9546)" style="fill: none; stroke: #1f77b4; stroke-width: 1.5"/>
    <path d="M 290.885247 155.059444 
L 290.885247 149.123836 
" clip-path="url(#p693f8e9546)" style="fill: none; stroke: #1f77b4; stroke-width: 1.5"/>
    <path d="M 292.571894 158.924261 
L 292.571894 152.48442 
" clip-path="url(#p693f8e9546)" style="fill: none; stroke: #1f77b4; stroke-width: 1.5"/>
    <path d="M 294.258541 156.310525 
L 294.258541 150.215908 
" clip-path="url(#p693f8e9546)" style="fill: none; stroke: #1f77b4; stroke-width: 1.5"/>
    <path d="M 295.945188 163.780461 
L 295.945188 156.650015 
" clip-path="url(#p693f8e9546)" style="fill: none; stroke: #1f77b4; stroke-width: 1.5"/>
    <path d="M 297.631835 157.427477 
L 297.631835 151.187518 
" clip-path="url(#p693f8e9546)" style="fill: none; stroke: #1f77b4; stroke-width: 1.5"/>
    <path d="M 299.318482 154.455415 
L 299.318482 148.595171 
" clip-path="url(#p693f8e9546)" style="fill: none; stroke: #1f77b4; stroke-width: 1.5"/>
    <path d="M 301.005128 159.541567 
L 301.005128 153.017553 
" clip-path="url(#p693f8e9546)" style="fill: none; stroke: #1f77b4; stroke-width: 1.5"/>
    <path d="M 302.691775 159.550079 
L 302.691775 153.024897 
" clip-path="url(#p693f8e9546)" style="fill: none; stroke: #1f77b4; stroke-width: 1.5"/>
    <path d="M 304.378422 157.187495 
L 304.378422 150.979035 
" clip-path="url(#p693f8e9546)" style="fill: none; stroke: #1f77b4; stroke-width: 1.5"/>
    <path d="M 306.065069 160.237032 
L 306.065069 153.616952 
" clip-path="url(#p693f8e9546)" style="fill: none; stroke: #1f77b4; stroke-width: 1.5"/>
    <path d="M 307.751716 160.533195 
L 307.751716 153.871804 
" clip-path="url(#p693f8e9546)" style="fill: none; stroke: #1f77b4; stroke-width: 1.5"/>
    <path d="M 309.438363 156.936541 
L 309.438363 150.760861 
" clip-path="url(#p693f8e9546)" style="fill: none; stroke: #1f77b4; stroke-width: 1.5"/>
    <path d="M 311.12501 160.311843 
L 311.12501 153.68135 
" clip-path="url(#p693f8e9546)" style="fill: none; stroke: #1f77b4; stroke-width: 1.5"/>
    <path d="M 312.811657 159.899699 
L 312.811657 153.326379 
" clip-path="url(#p693f8e9546)" style="fill: none; stroke: #1f77b4; stroke-width: 1.5"/>
    <path d="M 314.498304 161.817637 
L 314.498304 154.974274 
" clip-path="url(#p693f8e9546)" style="fill: none; stroke: #1f77b4; stroke-width: 1.5"/>
    <path d="M 316.18495 162.6629 
L 316.18495 155.697258 
" clip-path="url(#p693f8e9546)" style="fill: none; stroke: #1f77b4; stroke-width: 1.5"/>
    <path d="M 317.871597 163.455708 
L 317.871597 156.373524 
" clip-path="url(#p693f8e9546)" style="fill: none; stroke: #1f77b4; stroke-width: 1.5"/>
    <path d="M 319.558244 163.69105 
L 319.558244 156.573922 
" clip-path="url(#p693f8e9546)" style="fill: none; stroke: #1f77b4; stroke-width: 1.5"/>
    <path d="M 321.244891 161.600485 
L 321.244891 154.78821 
" clip-path="url(#p693f8e9546)" style="fill: none; stroke: #1f77b4; stroke-width: 1.5"/>
    <path d="M 322.931538 164.904776 
L 322.931538 157.604864 
" clip-path="url(#p693f8e9546)" style="fill: none; stroke: #1f77b4; stroke-width: 1.5"/>
    <path d="M 324.618185 165.165749 
L 324.618185 157.825968 
" clip-path="url(#p693f8e9546)" style="fill: none; stroke: #1f77b4; stroke-width: 1.5"/>
    <path d="M 326.304832 163.977643 
L 326.304832 156.817744 
" clip-path="url(#p693f8e9546)" style="fill: none; stroke: #1f77b4; stroke-width: 1.5"/>
    <path d="M 327.991479 164.521652 
L 327.991479 157.279905 
" clip-path="url(#p693f8e9546)" style="fill: none; stroke: #1f77b4; stroke-width: 1.5"/>
    <path d="M 329.678126 163.010887 
L 329.678126 155.994314 
" clip-path="url(#p693f8e9546)" style="fill: none; stroke: #1f77b4; stroke-width: 1.5"/>
    <path d="M 331.364772 167.203945 
L 331.364772 159.545742 
" clip-path="url(#p693f8e9546)" style="fill: none; stroke: #1f77b4; stroke-width: 1.5"/>
    <path d="M 333.051419 164.076948 
L 333.051419 156.902173 
" clip-path="url(#p693f8e9546)" style="fill: none; stroke: #1f77b4; stroke-width: 1.5"/>
    <path d="M 334.738066 169.681625 
L 334.738066 161.619067 
" clip-path="url(#p693f8e9546)" style="fill: none; stroke: #1f77b4; stroke-width: 1.5"/>
    <path d="M 336.424713 164.380252 
L 336.424713 157.159863 
" clip-path="url(#p693f8e9546)" style="fill: none; stroke: #1f77b4; stroke-width: 1.5"/>
    <path d="M 338.11136 172.133845 
L 338.11136 163.6517 
" clip-path="url(#p693f8e9546)" style="fill: none; stroke: #1f77b4; stroke-width: 1.5"/>
    <path d="M 339.798007 167.846079 
L 339.798007 160.084926 
" clip-path="url(#p693f8e9546)" style="fill: none; stroke: #1f77b4; stroke-width: 1.5"/>
    <path d="M 341.484654 187.023304 
L 341.484654 175.532829 
" clip-path="url(#p693f8e9546)" style="fill: none; stroke: #1f77b4; stroke-width: 1.5"/>
    <path d="M 343.171301 175.597915 
L 343.171301 166.488661 
" clip-path="url(#p693f8e9546)" style="fill: none; stroke: #1f77b4; stroke-width: 1.5"/>
    <path d="M 344.857948 173.589368 
L 344.857948 164.848735 
" clip-path="url(#p693f8e9546)" style="fill: none; stroke: #1f77b4; stroke-width: 1.5"/>
    <path d="M 346.544594 179.545398 
L 346.544594 169.669793 
" clip-path="url(#p693f8e9546)" style="fill: none; stroke: #1f77b4; stroke-width: 1.5"/>
    <path d="M 348.231241 173.57449 
L 348.231241 164.836535 
" clip-path="url(#p693f8e9546)" style="fill: none; stroke: #1f77b4; stroke-width: 1.5"/>
    <path d="M 349.917888 172.428211 
L 349.917888 163.894365 
" clip-path="url(#p693f8e9546)" style="fill: none; stroke: #1f77b4; stroke-width: 1.5"/>
    <path d="M 351.604535 176.736964 
L 351.604535 167.412371 
" clip-path="url(#p693f8e9546)" style="fill: none; stroke: #1f77b4; stroke-width: 1.5"/>
    <path d="M 353.291182 172.273586 
L 353.291182 163.766934 
" clip-path="url(#p693f8e9546)" style="fill: none; stroke: #1f77b4; stroke-width: 1.5"/>
    <path d="M 354.977829 184.911986 
L 354.977829 173.900118 
" clip-path="url(#p693f8e9546)" style="fill: none; stroke: #1f77b4; stroke-width: 1.5"/>
    <path d="M 356.664476 197.001758 
L 356.664476 182.986666 
" clip-path="url(#p693f8e9546)" style="fill: none; stroke: #1f77b4; stroke-width: 1.5"/>
    <path d="M 358.351123 181.483861 
L 358.351123 171.210755 
" clip-path="url(#p693f8e9546)" style="fill: none; stroke: #1f77b4; stroke-width: 1.5"/>
    <path d="M 360.03777 180.677286 
L 360.03777 170.571314 
" clip-path="url(#p693f8e9546)" style="fill: none; stroke: #1f77b4; stroke-width: 1.5"/>
    <path d="M 361.724416 186.713766 
L 361.724416 175.294614 
" clip-path="url(#p693f8e9546)" style="fill: none; stroke: #1f77b4; stroke-width: 1.5"/>
    <path d="M 363.411063 191.287804 
L 363.411063 178.773036 
" clip-path="url(#p693f8e9546)" style="fill: none; stroke: #1f77b4; stroke-width: 1.5"/>
    <path d="M 365.09771 188.264528 
L 365.09771 176.483999 
" clip-path="url(#p693f8e9546)" style="fill: none; stroke: #1f77b4; stroke-width: 1.5"/>
    <path d="M 366.784357 204.706314 
L 366.784357 188.416976 
" clip-path="url(#p693f8e9546)" style="fill: none; stroke: #1f77b4; stroke-width: 1.5"/>
    <path d="M 368.471004 202.344133 
L 368.471004 186.784237 
" clip-path="url(#p693f8e9546)" style="fill: none; stroke: #1f77b4; stroke-width: 1.5"/>
    <path d="M 370.157651 207.108949 
L 370.157651 190.047235 
" clip-path="url(#p693f8e9546)" style="fill: none; stroke: #1f77b4; stroke-width: 1.5"/>
    <path d="M 371.844298 204.050831 
L 371.844298 187.966843 
" clip-path="url(#p693f8e9546)" style="fill: none; stroke: #1f77b4; stroke-width: 1.5"/>
    <path d="M 373.530945 237.317571 
L 373.530945 207.560671 
" clip-path="url(#p693f8e9546)" style="fill: none; stroke: #1f77b4; stroke-width: 1.5"/>
    <path d="M 375.217591 220.427363 
L 375.217591 198.486357 
" clip-path="url(#p693f8e9546)" style="fill: none; stroke: #1f77b4; stroke-width: 1.5"/>
    <path d="M 376.904238 218.212858 
L 376.904238 197.156924 
" clip-path="url(#p693f8e9546)" style="fill: none; stroke: #1f77b4; stroke-width: 1.5"/>
    <path d="M 378.590885 281.132187 
L 378.590885 226.891544 
" clip-path="url(#p693f8e9546)" style="fill: none; stroke: #1f77b4; stroke-width: 1.5"/>
    <path d="M 380.277532 281.132187 
L 380.277532 234.813522 
" clip-path="url(#p693f8e9546)" style="fill: none; stroke: #1f77b4; stroke-width: 1.5"/>
    <path d="M 381.964179 281.132187 
L 381.964179 265.301797 
" clip-path="url(#p693f8e9546)" style="fill: none; stroke: #1f77b4; stroke-width: 1.5"/>
    <path d="M 383.650826 281.132187 
L 383.650826 276.4474 
" clip-path="url(#p693f8e9546)" style="fill: none; stroke: #1f77b4; stroke-width: 1.5"/>
    <path clip-path="url(#p693f8e9546)" style="fill: none; stroke: #1f77b4; stroke-width: 1.5"/>
    <path clip-path="url(#p693f8e9546)" style="fill: none; stroke: #1f77b4; stroke-width: 1.5"/>
    <path clip-path="url(#p693f8e9546)" style="fill: none; stroke: #1f77b4; stroke-width: 1.5"/>
    <path clip-path="url(#p693f8e9546)" style="fill: none; stroke: #1f77b4; stroke-width: 1.5"/>
    <path clip-path="url(#p693f8e9546)" style="fill: none; stroke: #1f77b4; stroke-width: 1.5"/>
    <path clip-path="url(#p693f8e9546)" style="fill: none; stroke: #1f77b4; stroke-width: 1.5"/>
    <path clip-path="url(#p693f8e9546)" style="fill: none; stroke: #1f77b4; stroke-width: 1.5"/>
    <path clip-path="url(#p693f8e9546)" style="fill: none; stroke: #1f77b4; stroke-width: 1.5"/>
    <path clip-path="url(#p693f8e9546)" style="fill: none; stroke: #1f77b4; stroke-width: 1.5"/>
   </g>
  </g>
 </g>
 <defs>
  <clipPath id="p693f8e9546">
   <rect x="45.478125" y="7.2" width="371.062315" height="234.4525"/>
  </clipPath>
 </defs>
</svg>