<?xml version="1.0" encoding="utf-8" standalone="no"?>
<!DOCTYPE svg PUBLIC "-//W3C//DTD SVG 1.1//EN"
  "http://www.w3.org/Graphics/SVG/1.1/DTD/svg11.dtd">
<svg xmlns:xlink="http://www.w3.org/1999/xlink" width="423.916071pt" height="278.315406pt" viewBox="0 0 423.916071 278.315406" xmlns="http://www.w3.org/2000/svg" version="1.1">
 <metadata>
  <rdf:RDF xmlns:dc="http://purl.org/dc/elements/1.1/" xmlns:cc="http://creativecommons.org/ns#" xmlns:rdf="http://www.w3.org/1999/02/22-rdf-syntax-ns#">
   <cc:Work>
    <dc:type rdf:resource="http://purl.org/dc/dcmitype/StillImage"/>
    <dc:date>2024-08-01T15:38:53.463302</dc:date>
    <dc:format>image/svg+xml</dc:format>
    <dc:creator>
     <cc:Agent>
      <dc:title>Matplotlib v3.9.1, https://matplotlib.org/</dc:title>
     </cc:Agent>
    </dc:creator>
   </cc:Work>
  </rdf:RDF>
 </metadata>
 <defs>
  <style type="text/css">*{stroke-linejoin: round; stroke-linecap: butt}</style>
 </defs>
 <g id="figure_1">
  <g id="patch_1">
   <path d="M 0 278.315406 
L 423.916071 278.315406 
L 423.916071 0 
L 0 0 
z
" style="fill: #ffffff"/>
  </g>
  <g id="axes_1">
   <g id="patch_2">
    <path d="M 51.378125 239.835719 
L 416.716071 239.835719 
L 416.716071 10.999219 
L 51.378125 10.999219 
z
" style="fill: #ffffff"/>
   </g>
   <g id="matplotlib.axis_1">
    <g id="xtick_1">
     <g id="line2d_1">
      <defs>
       <path id="md95816698c" d="M 0 0 
L 0 3.5 
" style="stroke: #000000; stroke-width: 0.8"/>
      </defs>
      <g>
       <use xlink:href="#md95816698c" x="59.468359" y="239.835719" style="stroke: #000000; stroke-width: 0.8"/>
      </g>
     </g>
     <g id="text_1">
      <!-- 0.000 -->
      <g transform="translate(45.154297 254.434156) scale(0.1 -0.1)">
       <defs>
        <path id="DejaVuSans-30" d="M 2034 4250 
Q 1547 4250 1301 3770 
Q 1056 3291 1056 2328 
Q 1056 1369 1301 889 
Q 1547 409 2034 409 
Q 2525 409 2770 889 
Q 3016 1369 3016 2328 
Q 3016 3291 2770 3770 
Q 2525 4250 2034 4250 
z
M 2034 4750 
Q 2819 4750 3233 4129 
Q 3647 3509 3647 2328 
Q 3647 1150 3233 529 
Q 2819 -91 2034 -91 
Q 1250 -91 836 529 
Q 422 1150 422 2328 
Q 422 3509 836 4129 
Q 1250 4750 2034 4750 
z
" transform="scale(0.015625)"/>
        <path id="DejaVuSans-2e" d="M 684 794 
L 1344 794 
L 1344 0 
L 684 0 
L 684 794 
z
" transform="scale(0.015625)"/>
       </defs>
       <use xlink:href="#DejaVuSans-30"/>
       <use xlink:href="#DejaVuSans-2e" x="63.623047"/>
       <use xlink:href="#DejaVuSans-30" x="95.410156"/>
       <use xlink:href="#DejaVuSans-30" x="159.033203"/>
       <use xlink:href="#DejaVuSans-30" x="222.65625"/>
      </g>
     </g>
    </g>
    <g id="xtick_2">
     <g id="line2d_2">
      <g>
       <use xlink:href="#md95816698c" x="102.048539" y="239.835719" style="stroke: #000000; stroke-width: 0.8"/>
      </g>
     </g>
     <g id="text_2">
      <!-- 0.025 -->
      <g transform="translate(87.734477 254.434156) scale(0.1 -0.1)">
       <defs>
        <path id="DejaVuSans-32" d="M 1228 531 
L 3431 531 
L 3431 0 
L 469 0 
L 469 531 
Q 828 903 1448 1529 
Q 2069 2156 2228 2338 
Q 2531 2678 2651 2914 
Q 2772 3150 2772 3378 
Q 2772 3750 2511 3984 
Q 2250 4219 1831 4219 
Q 1534 4219 1204 4116 
Q 875 4013 500 3803 
L 500 4441 
Q 881 4594 1212 4672 
Q 1544 4750 1819 4750 
Q 2544 4750 2975 4387 
Q 3406 4025 3406 3419 
Q 3406 3131 3298 2873 
Q 3191 2616 2906 2266 
Q 2828 2175 2409 1742 
Q 1991 1309 1228 531 
z
" transform="scale(0.015625)"/>
        <path id="DejaVuSans-35" d="M 691 4666 
L 3169 4666 
L 3169 4134 
L 1269 4134 
L 1269 2991 
Q 1406 3038 1543 3061 
Q 1681 3084 1819 3084 
Q 2600 3084 3056 2656 
Q 3513 2228 3513 1497 
Q 3513 744 3044 326 
Q 2575 -91 1722 -91 
Q 1428 -91 1123 -41 
Q 819 9 494 109 
L 494 744 
Q 775 591 1075 516 
Q 1375 441 1709 441 
Q 2250 441 2565 725 
Q 2881 1009 2881 1497 
Q 2881 1984 2565 2268 
Q 2250 2553 1709 2553 
Q 1456 2553 1204 2497 
Q 953 2441 691 2322 
L 691 4666 
z
" transform="scale(0.015625)"/>
       </defs>
       <use xlink:href="#DejaVuSans-30"/>
       <use xlink:href="#DejaVuSans-2e" x="63.623047"/>
       <use xlink:href="#DejaVuSans-30" x="95.410156"/>
       <use xlink:href="#DejaVuSans-32" x="159.033203"/>
       <use xlink:href="#DejaVuSans-35" x="222.65625"/>
      </g>
     </g>
    </g>
    <g id="xtick_3">
     <g id="line2d_3">
      <g>
       <use xlink:href="#md95816698c" x="144.62872" y="239.835719" style="stroke: #000000; stroke-width: 0.8"/>
      </g>
     </g>
     <g id="text_3">
      <!-- 0.050 -->
      <g transform="translate(130.314657 254.434156) scale(0.1 -0.1)">
       <use xlink:href="#DejaVuSans-30"/>
       <use xlink:href="#DejaVuSans-2e" x="63.623047"/>
       <use xlink:href="#DejaVuSans-30" x="95.410156"/>
       <use xlink:href="#DejaVuSans-35" x="159.033203"/>
       <use xlink:href="#DejaVuSans-30" x="222.65625"/>
      </g>
     </g>
    </g>
    <g id="xtick_4">
     <g id="line2d_4">
      <g>
       <use xlink:href="#md95816698c" x="187.2089" y="239.835719" style="stroke: #000000; stroke-width: 0.8"/>
      </g>
     </g>
     <g id="text_4">
      <!-- 0.075 -->
      <g transform="translate(172.894837 254.434156) scale(0.1 -0.1)">
       <defs>
        <path id="DejaVuSans-37" d="M 525 4666 
L 3525 4666 
L 3525 4397 
L 1831 0 
L 1172 0 
L 2766 4134 
L 525 4134 
L 525 4666 
z
" transform="scale(0.015625)"/>
       </defs>
       <use xlink:href="#DejaVuSans-30"/>
       <use xlink:href="#DejaVuSans-2e" x="63.623047"/>
       <use xlink:href="#DejaVuSans-30" x="95.410156"/>
       <use xlink:href="#DejaVuSans-37" x="159.033203"/>
       <use xlink:href="#DejaVuSans-35" x="222.65625"/>
      </g>
     </g>
    </g>
    <g id="xtick_5">
     <g id="line2d_5">
      <g>
       <use xlink:href="#md95816698c" x="229.78908" y="239.835719" style="stroke: #000000; stroke-width: 0.8"/>
      </g>
     </g>
     <g id="text_5">
      <!-- 0.100 -->
      <g transform="translate(215.475018 254.434156) scale(0.1 -0.1)">
       <defs>
        <path id="DejaVuSans-31" d="M 794 531 
L 1825 531 
L 1825 4091 
L 703 3866 
L 703 4441 
L 1819 4666 
L 2450 4666 
L 2450 531 
L 3481 531 
L 3481 0 
L 794 0 
L 794 531 
z
" transform="scale(0.015625)"/>
       </defs>
       <use xlink:href="#DejaVuSans-30"/>
       <use xlink:href="#DejaVuSans-2e" x="63.623047"/>
       <use xlink:href="#DejaVuSans-31" x="95.410156"/>
       <use xlink:href="#DejaVuSans-30" x="159.033203"/>
       <use xlink:href="#DejaVuSans-30" x="222.65625"/>
      </g>
     </g>
    </g>
    <g id="xtick_6">
     <g id="line2d_6">
      <g>
       <use xlink:href="#md95816698c" x="272.36926" y="239.835719" style="stroke: #000000; stroke-width: 0.8"/>
      </g>
     </g>
     <g id="text_6">
      <!-- 0.125 -->
      <g transform="translate(258.055198 254.434156) scale(0.1 -0.1)">
       <use xlink:href="#DejaVuSans-30"/>
       <use xlink:href="#DejaVuSans-2e" x="63.623047"/>
       <use xlink:href="#DejaVuSans-31" x="95.410156"/>
       <use xlink:href="#DejaVuSans-32" x="159.033203"/>
       <use xlink:href="#DejaVuSans-35" x="222.65625"/>
      </g>
     </g>
    </g>
    <g id="xtick_7">
     <g id="line2d_7">
      <g>
       <use xlink:href="#md95816698c" x="314.94944" y="239.835719" style="stroke: #000000; stroke-width: 0.8"/>
      </g>
     </g>
     <g id="text_7">
      <!-- 0.150 -->
      <g transform="translate(300.635378 254.434156) scale(0.1 -0.1)">
       <use xlink:href="#DejaVuSans-30"/>
       <use xlink:href="#DejaVuSans-2e" x="63.623047"/>
       <use xlink:href="#DejaVuSans-31" x="95.410156"/>
       <use xlink:href="#DejaVuSans-35" x="159.033203"/>
       <use xlink:href="#DejaVuSans-30" x="222.65625"/>
      </g>
     </g>
    </g>
    <g id="xtick_8">
     <g id="line2d_8">
      <g>
       <use xlink:href="#md95816698c" x="357.529621" y="239.835719" style="stroke: #000000; stroke-width: 0.8"/>
      </g>
     </g>
     <g id="text_8">
      <!-- 0.175 -->
      <g transform="translate(343.215558 254.434156) scale(0.1 -0.1)">
       <use xlink:href="#DejaVuSans-30"/>
       <use xlink:href="#DejaVuSans-2e" x="63.623047"/>
       <use xlink:href="#DejaVuSans-31" x="95.410156"/>
       <use xlink:href="#DejaVuSans-37" x="159.033203"/>
       <use xlink:href="#DejaVuSans-35" x="222.65625"/>
      </g>
     </g>
    </g>
    <g id="xtick_9">
     <g id="line2d_9">
      <g>
       <use xlink:href="#md95816698c" x="400.109801" y="239.835719" style="stroke: #000000; stroke-width: 0.8"/>
      </g>
     </g>
     <g id="text_9">
      <!-- 0.200 -->
      <g transform="translate(385.795738 254.434156) scale(0.1 -0.1)">
       <use xlink:href="#DejaVuSans-30"/>
       <use xlink:href="#DejaVuSans-2e" x="63.623047"/>
       <use xlink:href="#DejaVuSans-32" x="95.410156"/>
       <use xlink:href="#DejaVuSans-30" x="159.033203"/>
       <use xlink:href="#DejaVuSans-30" x="222.65625"/>
      </g>
     </g>
    </g>
    <g id="text_10">
     <!-- Q [1/Å] -->
     <g transform="translate(216.334598 269.035719) scale(0.1 -0.1)">
      <defs>
       <path id="DejaVuSans-51" d="M 2522 4238 
Q 1834 4238 1429 3725 
Q 1025 3213 1025 2328 
Q 1025 1447 1429 934 
Q 1834 422 2522 422 
Q 3209 422 3611 934 
Q 4013 1447 4013 2328 
Q 4013 3213 3611 3725 
Q 3209 4238 2522 4238 
z
M 3406 84 
L 4238 -825 
L 3475 -825 
L 2784 -78 
Q 2681 -84 2626 -87 
Q 2572 -91 2522 -91 
Q 1538 -91 948 567 
Q 359 1225 359 2328 
Q 359 3434 948 4092 
Q 1538 4750 2522 4750 
Q 3503 4750 4090 4092 
Q 4678 3434 4678 2328 
Q 4678 1516 4351 937 
Q 4025 359 3406 84 
z
" transform="scale(0.015625)"/>
       <path id="DejaVuSans-20" transform="scale(0.015625)"/>
       <path id="DejaVuSans-5b" d="M 550 4863 
L 1875 4863 
L 1875 4416 
L 1125 4416 
L 1125 -397 
L 1875 -397 
L 1875 -844 
L 550 -844 
L 550 4863 
z
" transform="scale(0.015625)"/>
       <path id="DejaVuSans-2f" d="M 1625 4666 
L 2156 4666 
L 531 -594 
L 0 -594 
L 1625 4666 
z
" transform="scale(0.015625)"/>
       <path id="DejaVuSans-c5" d="M 2663 5081 
Q 2663 5278 2523 5417 
Q 2384 5556 2188 5556 
Q 1988 5556 1852 5420 
Q 1716 5284 1716 5081 
Q 1716 4884 1853 4746 
Q 1991 4609 2188 4609 
Q 2384 4609 2523 4746 
Q 2663 4884 2663 5081 
z
M 2188 4044 
L 1338 1722 
L 3041 1722 
L 2188 4044 
z
M 1716 4366 
Q 1525 4494 1428 4673 
Q 1331 4853 1331 5081 
Q 1331 5441 1579 5691 
Q 1828 5941 2188 5941 
Q 2544 5941 2795 5689 
Q 3047 5438 3047 5081 
Q 3047 4863 2948 4678 
Q 2850 4494 2663 4366 
L 4325 0 
L 3669 0 
L 3244 1197 
L 1141 1197 
L 716 0 
L 50 0 
L 1716 4366 
z
" transform="scale(0.015625)"/>
       <path id="DejaVuSans-5d" d="M 1947 4863 
L 1947 -844 
L 622 -844 
L 622 -397 
L 1369 -397 
L 1369 4416 
L 622 4416 
L 622 4863 
L 1947 4863 
z
" transform="scale(0.015625)"/>
      </defs>
      <use xlink:href="#DejaVuSans-51"/>
      <use xlink:href="#DejaVuSans-20" x="78.710938"/>
      <use xlink:href="#DejaVuSans-5b" x="110.498047"/>
      <use xlink:href="#DejaVuSans-31" x="149.511719"/>
      <use xlink:href="#DejaVuSans-2f" x="213.134766"/>
      <use xlink:href="#DejaVuSans-c5" x="246.826172"/>
      <use xlink:href="#DejaVuSans-5d" x="315.234375"/>
     </g>
    </g>
   </g>
   <g id="matplotlib.axis_2">
    <g id="ytick_1">
     <g id="line2d_10">
      <defs>
       <path id="mc640c755ca" d="M 0 0 
L -3.5 0 
" style="stroke: #000000; stroke-width: 0.8"/>
      </defs>
      <g>
       <use xlink:href="#mc640c755ca" x="51.378125" y="239.835719" style="stroke: #000000; stroke-width: 0.8"/>
      </g>
     </g>
     <g id="text_11">
      <!-- $\mathdefault{10^{-3}}$ -->
      <g transform="translate(20.878125 243.634937) scale(0.1 -0.1)">
       <defs>
        <path id="DejaVuSans-2212" d="M 678 2272 
L 4684 2272 
L 4684 1741 
L 678 1741 
L 678 2272 
z
" transform="scale(0.015625)"/>
        <path id="DejaVuSans-33" d="M 2597 2516 
Q 3050 2419 3304 2112 
Q 3559 1806 3559 1356 
Q 3559 666 3084 287 
Q 2609 -91 1734 -91 
Q 1441 -91 1130 -33 
Q 819 25 488 141 
L 488 750 
Q 750 597 1062 519 
Q 1375 441 1716 441 
Q 2309 441 2620 675 
Q 2931 909 2931 1356 
Q 2931 1769 2642 2001 
Q 2353 2234 1838 2234 
L 1294 2234 
L 1294 2753 
L 1863 2753 
Q 2328 2753 2575 2939 
Q 2822 3125 2822 3475 
Q 2822 3834 2567 4026 
Q 2313 4219 1838 4219 
Q 1578 4219 1281 4162 
Q 984 4106 628 3988 
L 628 4550 
Q 988 4650 1302 4700 
Q 1616 4750 1894 4750 
Q 2613 4750 3031 4423 
Q 3450 4097 3450 3541 
Q 3450 3153 3228 2886 
Q 3006 2619 2597 2516 
z
" transform="scale(0.015625)"/>
       </defs>
       <use xlink:href="#DejaVuSans-31" transform="translate(0 0.765625)"/>
       <use xlink:href="#DejaVuSans-30" transform="translate(63.623047 0.765625)"/>
       <use xlink:href="#DejaVuSans-2212" transform="translate(128.203125 39.046875) scale(0.7)"/>
       <use xlink:href="#DejaVuSans-33" transform="translate(186.855469 39.046875) scale(0.7)"/>
      </g>
     </g>
    </g>
    <g id="ytick_2">
     <g id="line2d_11">
      <g>
       <use xlink:href="#mc640c755ca" x="51.378125" y="182.626594" style="stroke: #000000; stroke-width: 0.8"/>
      </g>
     </g>
     <g id="text_12">
      <!-- $\mathdefault{10^{-2}}$ -->
      <g transform="translate(20.878125 186.425812) scale(0.1 -0.1)">
       <use xlink:href="#DejaVuSans-31" transform="translate(0 0.765625)"/>
       <use xlink:href="#DejaVuSans-30" transform="translate(63.623047 0.765625)"/>
       <use xlink:href="#DejaVuSans-2212" transform="translate(128.203125 39.046875) scale(0.7)"/>
       <use xlink:href="#DejaVuSans-32" transform="translate(186.855469 39.046875) scale(0.7)"/>
      </g>
     </g>
    </g>
    <g id="ytick_3">
     <g id="line2d_12">
      <g>
       <use xlink:href="#mc640c755ca" x="51.378125" y="125.417469" style="stroke: #000000; stroke-width: 0.8"/>
      </g>
     </g>
     <g id="text_13">
      <!-- $\mathdefault{10^{-1}}$ -->
      <g transform="translate(20.878125 129.216687) scale(0.1 -0.1)">
       <use xlink:href="#DejaVuSans-31" transform="translate(0 0.684375)"/>
       <use xlink:href="#DejaVuSans-30" transform="translate(63.623047 0.684375)"/>
       <use xlink:href="#DejaVuSans-2212" transform="translate(128.203125 38.965625) scale(0.7)"/>
       <use xlink:href="#DejaVuSans-31" transform="translate(186.855469 38.965625) scale(0.7)"/>
      </g>
     </g>
    </g>
    <g id="ytick_4">
     <g id="line2d_13">
      <g>
       <use xlink:href="#mc640c755ca" x="51.378125" y="68.208344" style="stroke: #000000; stroke-width: 0.8"/>
      </g>
     </g>
     <g id="text_14">
      <!-- $\mathdefault{10^{0}}$ -->
      <g transform="translate(26.778125 72.007562) scale(0.1 -0.1)">
       <use xlink:href="#DejaVuSans-31" transform="translate(0 0.765625)"/>
       <use xlink:href="#DejaVuSans-30" transform="translate(63.623047 0.765625)"/>
       <use xlink:href="#DejaVuSans-30" transform="translate(128.203125 39.046875) scale(0.7)"/>
      </g>
     </g>
    </g>
    <g id="ytick_5">
     <g id="line2d_14">
      <g>
       <use xlink:href="#mc640c755ca" x="51.378125" y="10.999219" style="stroke: #000000; stroke-width: 0.8"/>
      </g>
     </g>
     <g id="text_15">
      <!-- $\mathdefault{10^{1}}$ -->
      <g transform="translate(26.778125 14.798437) scale(0.1 -0.1)">
       <use xlink:href="#DejaVuSans-31" transform="translate(0 0.684375)"/>
       <use xlink:href="#DejaVuSans-30" transform="translate(63.623047 0.684375)"/>
       <use xlink:href="#DejaVuSans-31" transform="translate(128.203125 38.965625) scale(0.7)"/>
      </g>
     </g>
    </g>
    <g id="ytick_6">
     <g id="line2d_15">
      <defs>
       <path id="m4a6e97c535" d="M 0 0 
L -2 0 
" style="stroke: #000000; stroke-width: 0.6"/>
      </defs>
      <g>
       <use xlink:href="#m4a6e97c535" x="51.378125" y="222.614056" style="stroke: #000000; stroke-width: 0.6"/>
      </g>
     </g>
    </g>
    <g id="ytick_7">
     <g id="line2d_16">
      <g>
       <use xlink:href="#m4a6e97c535" x="51.378125" y="212.540029" style="stroke: #000000; stroke-width: 0.6"/>
      </g>
     </g>
    </g>
    <g id="ytick_8">
     <g id="line2d_17">
      <g>
       <use xlink:href="#m4a6e97c535" x="51.378125" y="205.392393" style="stroke: #000000; stroke-width: 0.6"/>
      </g>
     </g>
    </g>
    <g id="ytick_9">
     <g id="line2d_18">
      <g>
       <use xlink:href="#m4a6e97c535" x="51.378125" y="199.848256" style="stroke: #000000; stroke-width: 0.6"/>
      </g>
     </g>
    </g>
    <g id="ytick_10">
     <g id="line2d_19">
      <g>
       <use xlink:href="#m4a6e97c535" x="51.378125" y="195.318367" style="stroke: #000000; stroke-width: 0.6"/>
      </g>
     </g>
    </g>
    <g id="ytick_11">
     <g id="line2d_20">
      <g>
       <use xlink:href="#m4a6e97c535" x="51.378125" y="191.488399" style="stroke: #000000; stroke-width: 0.6"/>
      </g>
     </g>
    </g>
    <g id="ytick_12">
     <g id="line2d_21">
      <g>
       <use xlink:href="#m4a6e97c535" x="51.378125" y="188.170731" style="stroke: #000000; stroke-width: 0.6"/>
      </g>
     </g>
    </g>
    <g id="ytick_13">
     <g id="line2d_22">
      <g>
       <use xlink:href="#m4a6e97c535" x="51.378125" y="185.24434" style="stroke: #000000; stroke-width: 0.6"/>
      </g>
     </g>
    </g>
    <g id="ytick_14">
     <g id="line2d_23">
      <g>
       <use xlink:href="#m4a6e97c535" x="51.378125" y="165.404931" style="stroke: #000000; stroke-width: 0.6"/>
      </g>
     </g>
    </g>
    <g id="ytick_15">
     <g id="line2d_24">
      <g>
       <use xlink:href="#m4a6e97c535" x="51.378125" y="155.330904" style="stroke: #000000; stroke-width: 0.6"/>
      </g>
     </g>
    </g>
    <g id="ytick_16">
     <g id="line2d_25">
      <g>
       <use xlink:href="#m4a6e97c535" x="51.378125" y="148.183268" style="stroke: #000000; stroke-width: 0.6"/>
      </g>
     </g>
    </g>
    <g id="ytick_17">
     <g id="line2d_26">
      <g>
       <use xlink:href="#m4a6e97c535" x="51.378125" y="142.639131" style="stroke: #000000; stroke-width: 0.6"/>
      </g>
     </g>
    </g>
    <g id="ytick_18">
     <g id="line2d_27">
      <g>
       <use xlink:href="#m4a6e97c535" x="51.378125" y="138.109242" style="stroke: #000000; stroke-width: 0.6"/>
      </g>
     </g>
    </g>
    <g id="ytick_19">
     <g id="line2d_28">
      <g>
       <use xlink:href="#m4a6e97c535" x="51.378125" y="134.279274" style="stroke: #000000; stroke-width: 0.6"/>
      </g>
     </g>
    </g>
    <g id="ytick_20">
     <g id="line2d_29">
      <g>
       <use xlink:href="#m4a6e97c535" x="51.378125" y="130.961606" style="stroke: #000000; stroke-width: 0.6"/>
      </g>
     </g>
    </g>
    <g id="ytick_21">
     <g id="line2d_30">
      <g>
       <use xlink:href="#m4a6e97c535" x="51.378125" y="128.035215" style="stroke: #000000; stroke-width: 0.6"/>
      </g>
     </g>
    </g>
    <g id="ytick_22">
     <g id="line2d_31">
      <g>
       <use xlink:href="#m4a6e97c535" x="51.378125" y="108.195806" style="stroke: #000000; stroke-width: 0.6"/>
      </g>
     </g>
    </g>
    <g id="ytick_23">
     <g id="line2d_32">
      <g>
       <use xlink:href="#m4a6e97c535" x="51.378125" y="98.121779" style="stroke: #000000; stroke-width: 0.6"/>
      </g>
     </g>
    </g>
    <g id="ytick_24">
     <g id="line2d_33">
      <g>
       <use xlink:href="#m4a6e97c535" x="51.378125" y="90.974143" style="stroke: #000000; stroke-width: 0.6"/>
      </g>
     </g>
    </g>
    <g id="ytick_25">
     <g id="line2d_34">
      <g>
       <use xlink:href="#m4a6e97c535" x="51.378125" y="85.430006" style="stroke: #000000; stroke-width: 0.6"/>
      </g>
     </g>
    </g>
    <g id="ytick_26">
     <g id="line2d_35">
      <g>
       <use xlink:href="#m4a6e97c535" x="51.378125" y="80.900117" style="stroke: #000000; stroke-width: 0.6"/>
      </g>
     </g>
    </g>
    <g id="ytick_27">
     <g id="line2d_36">
      <g>
       <use xlink:href="#m4a6e97c535" x="51.378125" y="77.070149" style="stroke: #000000; stroke-width: 0.6"/>
      </g>
     </g>
    </g>
    <g id="ytick_28">
     <g id="line2d_37">
      <g>
       <use xlink:href="#m4a6e97c535" x="51.378125" y="73.752481" style="stroke: #000000; stroke-width: 0.6"/>
      </g>
     </g>
    </g>
    <g id="ytick_29">
     <g id="line2d_38">
      <g>
       <use xlink:href="#m4a6e97c535" x="51.378125" y="70.82609" style="stroke: #000000; stroke-width: 0.6"/>
      </g>
     </g>
    </g>
    <g id="ytick_30">
     <g id="line2d_39">
      <g>
       <use xlink:href="#m4a6e97c535" x="51.378125" y="50.986681" style="stroke: #000000; stroke-width: 0.6"/>
      </g>
     </g>
    </g>
    <g id="ytick_31">
     <g id="line2d_40">
      <g>
       <use xlink:href="#m4a6e97c535" x="51.378125" y="40.912654" style="stroke: #000000; stroke-width: 0.6"/>
      </g>
     </g>
    </g>
    <g id="ytick_32">
     <g id="line2d_41">
      <g>
       <use xlink:href="#m4a6e97c535" x="51.378125" y="33.765018" style="stroke: #000000; stroke-width: 0.6"/>
      </g>
     </g>
    </g>
    <g id="ytick_33">
     <g id="line2d_42">
      <g>
       <use xlink:href="#m4a6e97c535" x="51.378125" y="28.220881" style="stroke: #000000; stroke-width: 0.6"/>
      </g>
     </g>
    </g>
    <g id="ytick_34">
     <g id="line2d_43">
      <g>
       <use xlink:href="#m4a6e97c535" x="51.378125" y="23.690992" style="stroke: #000000; stroke-width: 0.6"/>
      </g>
     </g>
    </g>
    <g id="ytick_35">
     <g id="line2d_44">
      <g>
       <use xlink:href="#m4a6e97c535" x="51.378125" y="19.861024" style="stroke: #000000; stroke-width: 0.6"/>
      </g>
     </g>
    </g>
    <g id="ytick_36">
     <g id="line2d_45">
      <g>
       <use xlink:href="#m4a6e97c535" x="51.378125" y="16.543356" style="stroke: #000000; stroke-width: 0.6"/>
      </g>
     </g>
    </g>
    <g id="ytick_37">
     <g id="line2d_46">
      <g>
       <use xlink:href="#m4a6e97c535" x="51.378125" y="13.616965" style="stroke: #000000; stroke-width: 0.6"/>
      </g>
     </g>
    </g>
    <g id="text_16">
     <!-- [dimensionless] -->
     <g transform="translate(14.798438 164.894812) rotate(-90) scale(0.1 -0.1)">
      <defs>
       <path id="DejaVuSans-64" d="M 2906 2969 
L 2906 4863 
L 3481 4863 
L 3481 0 
L 2906 0 
L 2906 525 
Q 2725 213 2448 61 
Q 2172 -91 1784 -91 
Q 1150 -91 751 415 
Q 353 922 353 1747 
Q 353 2572 751 3078 
Q 1150 3584 1784 3584 
Q 2172 3584 2448 3432 
Q 2725 3281 2906 2969 
z
M 947 1747 
Q 947 1113 1208 752 
Q 1469 391 1925 391 
Q 2381 391 2643 752 
Q 2906 1113 2906 1747 
Q 2906 2381 2643 2742 
Q 2381 3103 1925 3103 
Q 1469 3103 1208 2742 
Q 947 2381 947 1747 
z
" transform="scale(0.015625)"/>
       <path id="DejaVuSans-69" d="M 603 3500 
L 1178 3500 
L 1178 0 
L 603 0 
L 603 3500 
z
M 603 4863 
L 1178 4863 
L 1178 4134 
L 603 4134 
L 603 4863 
z
" transform="scale(0.015625)"/>
       <path id="DejaVuSans-6d" d="M 3328 2828 
Q 3544 3216 3844 3400 
Q 4144 3584 4550 3584 
Q 5097 3584 5394 3201 
Q 5691 2819 5691 2113 
L 5691 0 
L 5113 0 
L 5113 2094 
Q 5113 2597 4934 2840 
Q 4756 3084 4391 3084 
Q 3944 3084 3684 2787 
Q 3425 2491 3425 1978 
L 3425 0 
L 2847 0 
L 2847 2094 
Q 2847 2600 2669 2842 
Q 2491 3084 2119 3084 
Q 1678 3084 1418 2786 
Q 1159 2488 1159 1978 
L 1159 0 
L 581 0 
L 581 3500 
L 1159 3500 
L 1159 2956 
Q 1356 3278 1631 3431 
Q 1906 3584 2284 3584 
Q 2666 3584 2933 3390 
Q 3200 3197 3328 2828 
z
" transform="scale(0.015625)"/>
       <path id="DejaVuSans-65" d="M 3597 1894 
L 3597 1613 
L 953 1613 
Q 991 1019 1311 708 
Q 1631 397 2203 397 
Q 2534 397 2845 478 
Q 3156 559 3463 722 
L 3463 178 
Q 3153 47 2828 -22 
Q 2503 -91 2169 -91 
Q 1331 -91 842 396 
Q 353 884 353 1716 
Q 353 2575 817 3079 
Q 1281 3584 2069 3584 
Q 2775 3584 3186 3129 
Q 3597 2675 3597 1894 
z
M 3022 2063 
Q 3016 2534 2758 2815 
Q 2500 3097 2075 3097 
Q 1594 3097 1305 2825 
Q 1016 2553 972 2059 
L 3022 2063 
z
" transform="scale(0.015625)"/>
       <path id="DejaVuSans-6e" d="M 3513 2113 
L 3513 0 
L 2938 0 
L 2938 2094 
Q 2938 2591 2744 2837 
Q 2550 3084 2163 3084 
Q 1697 3084 1428 2787 
Q 1159 2491 1159 1978 
L 1159 0 
L 581 0 
L 581 3500 
L 1159 3500 
L 1159 2956 
Q 1366 3272 1645 3428 
Q 1925 3584 2291 3584 
Q 2894 3584 3203 3211 
Q 3513 2838 3513 2113 
z
" transform="scale(0.015625)"/>
       <path id="DejaVuSans-73" d="M 2834 3397 
L 2834 2853 
Q 2591 2978 2328 3040 
Q 2066 3103 1784 3103 
Q 1356 3103 1142 2972 
Q 928 2841 928 2578 
Q 928 2378 1081 2264 
Q 1234 2150 1697 2047 
L 1894 2003 
Q 2506 1872 2764 1633 
Q 3022 1394 3022 966 
Q 3022 478 2636 193 
Q 2250 -91 1575 -91 
Q 1294 -91 989 -36 
Q 684 19 347 128 
L 347 722 
Q 666 556 975 473 
Q 1284 391 1588 391 
Q 1994 391 2212 530 
Q 2431 669 2431 922 
Q 2431 1156 2273 1281 
Q 2116 1406 1581 1522 
L 1381 1569 
Q 847 1681 609 1914 
Q 372 2147 372 2553 
Q 372 3047 722 3315 
Q 1072 3584 1716 3584 
Q 2034 3584 2315 3537 
Q 2597 3491 2834 3397 
z
" transform="scale(0.015625)"/>
       <path id="DejaVuSans-6f" d="M 1959 3097 
Q 1497 3097 1228 2736 
Q 959 2375 959 1747 
Q 959 1119 1226 758 
Q 1494 397 1959 397 
Q 2419 397 2687 759 
Q 2956 1122 2956 1747 
Q 2956 2369 2687 2733 
Q 2419 3097 1959 3097 
z
M 1959 3584 
Q 2709 3584 3137 3096 
Q 3566 2609 3566 1747 
Q 3566 888 3137 398 
Q 2709 -91 1959 -91 
Q 1206 -91 779 398 
Q 353 888 353 1747 
Q 353 2609 779 3096 
Q 1206 3584 1959 3584 
z
" transform="scale(0.015625)"/>
       <path id="DejaVuSans-6c" d="M 603 4863 
L 1178 4863 
L 1178 0 
L 603 0 
L 603 4863 
z
" transform="scale(0.015625)"/>
      </defs>
      <use xlink:href="#DejaVuSans-5b"/>
      <use xlink:href="#DejaVuSans-64" x="39.013672"/>
      <use xlink:href="#DejaVuSans-69" x="102.490234"/>
      <use xlink:href="#DejaVuSans-6d" x="130.273438"/>
      <use xlink:href="#DejaVuSans-65" x="227.685547"/>
      <use xlink:href="#DejaVuSans-6e" x="289.208984"/>
      <use xlink:href="#DejaVuSans-73" x="352.587891"/>
      <use xlink:href="#DejaVuSans-69" x="404.6875"/>
      <use xlink:href="#DejaVuSans-6f" x="432.470703"/>
      <use xlink:href="#DejaVuSans-6e" x="493.652344"/>
      <use xlink:href="#DejaVuSans-6c" x="557.03125"/>
      <use xlink:href="#DejaVuSans-65" x="584.814453"/>
      <use xlink:href="#DejaVuSans-73" x="646.337891"/>
      <use xlink:href="#DejaVuSans-73" x="698.4375"/>
      <use xlink:href="#DejaVuSans-5d" x="750.537109"/>
     </g>
    </g>
   </g>
   <g id="patch_3">
    <path d="M 51.378125 239.835719 
L 51.378125 10.999219 
" style="fill: none; stroke: #000000; stroke-width: 0.8; stroke-linejoin: miter; stroke-linecap: square"/>
   </g>
   <g id="patch_4">
    <path d="M 416.716071 239.835719 
L 416.716071 10.999219 
" style="fill: none; stroke: #000000; stroke-width: 0.8; stroke-linejoin: miter; stroke-linecap: square"/>
   </g>
   <g id="patch_5">
    <path d="M 51.378125 239.835719 
L 416.716071 239.835719 
" style="fill: none; stroke: #000000; stroke-width: 0.8; stroke-linejoin: miter; stroke-linecap: square"/>
   </g>
   <g id="patch_6">
    <path d="M 51.378125 10.999219 
L 416.716071 10.999219 
" style="fill: none; stroke: #000000; stroke-width: 0.8; stroke-linejoin: miter; stroke-linecap: square"/>
   </g>
   <g id="line2d_47">
    <path d="M 67.984395 25.214327 
L 69.645022 25.214327 
L 69.645022 27.915119 
L 71.305649 27.915119 
L 71.305649 31.206636 
L 72.966276 31.206636 
L 72.966276 30.162531 
L 74.626903 30.162531 
L 74.626903 30.47752 
L 76.28753 30.47752 
L 76.28753 29.215514 
L 77.948157 29.215514 
L 77.948157 31.535453 
L 81.269411 31.532496 
L 81.269411 34.928478 
L 82.930039 34.928478 
L 82.930039 34.546781 
L 84.590666 34.546781 
L 84.590666 37.616003 
L 86.251293 37.616003 
L 86.251293 35.892749 
L 87.91192 35.892749 
L 87.91192 37.125085 
L 89.572547 37.125085 
L 89.572547 35.083809 
L 91.233174 35.083809 
L 91.233174 42.286946 
L 92.893801 42.286946 
L 92.893801 43.248347 
L 94.554428 43.248347 
L 94.554428 46.328947 
L 96.215055 46.328947 
L 96.215055 45.783053 
L 97.875682 45.783053 
L 97.875682 47.022142 
L 99.536309 47.022142 
L 99.536309 51.876784 
L 101.196936 51.876784 
L 101.196936 52.571407 
L 102.857563 52.571407 
L 102.857563 58.405675 
L 104.51819 58.405675 
L 104.51819 61.463114 
L 106.178817 61.463114 
L 106.178817 63.565947 
L 107.839444 63.565947 
L 107.839444 65.271508 
L 109.500071 65.271508 
L 109.500071 62.549671 
L 111.160698 62.549671 
L 111.160698 69.122689 
L 112.821325 69.122689 
L 112.821325 74.7659 
L 114.481952 74.7659 
L 114.481952 84.316856 
L 116.142579 84.316856 
L 116.142579 78.003852 
L 117.803206 78.003852 
L 117.803206 86.193178 
L 119.463833 86.193178 
L 119.463833 88.411302 
L 121.12446 88.411302 
L 121.12446 91.941359 
L 122.785087 91.941359 
L 122.785087 101.397452 
L 124.445714 101.397452 
L 124.445714 105.088217 
L 126.106341 105.088217 
L 126.106341 110.451448 
L 127.766968 110.451448 
L 127.766968 113.465042 
L 129.427595 113.465042 
L 129.427595 121.43975 
L 131.088222 121.43975 
L 131.088222 125.602637 
L 132.748849 125.602637 
L 132.748849 133.168177 
L 134.409476 133.168177 
L 134.409476 139.518165 
L 136.070103 139.518165 
L 136.070103 146.712136 
L 137.73073 146.712136 
L 137.73073 150.959216 
L 139.391357 150.959216 
L 139.391357 151.292448 
L 141.051984 151.292448 
L 141.051984 162.213105 
L 142.712612 162.213105 
L 142.712612 160.93812 
L 144.373239 160.93812 
L 144.373239 158.518841 
L 146.033866 158.518841 
L 146.033866 159.457382 
L 147.694493 159.457382 
L 147.694493 155.964617 
L 149.35512 155.964617 
L 149.35512 156.4082 
L 151.015747 156.4082 
L 151.015747 154.383994 
L 152.676374 154.383994 
L 152.676374 147.847766 
L 154.337001 147.847766 
L 154.337001 144.483075 
L 155.997628 144.483075 
L 155.997628 141.279186 
L 157.658255 141.279186 
L 157.658255 145.224087 
L 159.318882 145.224087 
L 159.318882 136.402446 
L 160.979509 136.402446 
L 160.979509 137.258932 
L 162.640136 137.258932 
L 162.640136 139.538709 
L 164.300763 139.538709 
L 164.300763 132.332477 
L 165.96139 132.332477 
L 165.96139 135.727543 
L 169.282644 135.64609 
L 169.282644 142.915067 
L 170.943271 142.915067 
L 170.943271 136.773642 
L 172.603898 136.773642 
L 172.603898 135.887751 
L 174.264525 135.887751 
L 174.264525 140.6355 
L 175.925152 140.6355 
L 175.925152 145.113709 
L 177.585779 145.113709 
L 177.585779 141.925938 
L 179.246406 141.925938 
L 179.246406 143.67287 
L 180.907033 143.67287 
L 180.907033 144.104323 
L 182.56766 144.104323 
L 182.56766 155.479671 
L 184.228287 155.479671 
L 184.228287 142.420169 
L 185.888914 142.420169 
L 185.888914 149.496153 
L 187.549541 149.496153 
L 187.549541 153.909525 
L 189.210168 153.909525 
L 189.210168 156.836133 
L 190.870795 156.836133 
L 190.870795 158.152047 
L 192.531422 158.152047 
L 192.531422 159.141304 
L 194.192049 159.141304 
L 194.192049 154.755258 
L 195.852676 154.755258 
L 195.852676 167.210693 
L 197.513303 167.210693 
L 197.513303 165.546396 
L 199.17393 165.546396 
L 199.17393 168.760078 
L 200.834557 168.760078 
L 200.834557 164.422428 
L 202.495185 164.422428 
L 202.495185 167.720914 
L 204.155812 167.720914 
L 204.155812 167.878069 
L 205.816439 167.878069 
L 205.816439 161.369956 
L 207.477066 161.369956 
L 207.477066 164.86566 
L 209.137693 164.86566 
L 209.137693 164.078298 
L 210.79832 164.078298 
L 210.79832 165.729943 
L 212.458947 165.729943 
L 212.458947 154.082607 
L 214.119574 154.082607 
L 214.119574 164.493566 
L 215.780201 164.493566 
L 215.780201 159.720181 
L 217.440828 159.720181 
L 217.440828 158.984304 
L 219.101455 158.984304 
L 219.101455 161.461584 
L 220.762082 161.461584 
L 220.762082 158.15169 
L 222.422709 158.15169 
L 222.422709 162.563115 
L 224.083336 162.563115 
L 224.083336 151.229912 
L 225.743963 151.229912 
L 225.743963 156.111593 
L 227.40459 156.111593 
L 227.40459 159.094619 
L 229.065217 159.094619 
L 229.065217 161.649102 
L 230.725844 161.649102 
L 230.725844 153.668641 
L 232.386471 153.668641 
L 232.386471 168.683177 
L 234.047098 168.683177 
L 234.047098 157.168629 
L 235.707725 157.168629 
L 235.707725 155.746612 
L 237.368352 155.746612 
L 237.368352 151.823304 
L 239.028979 151.823304 
L 239.028979 162.764456 
L 240.689606 162.764456 
L 240.689606 155.495545 
L 242.350233 155.495545 
L 242.350233 155.274382 
L 244.01086 155.274382 
L 244.01086 156.000679 
L 245.671487 156.000679 
L 245.671487 164.559941 
L 247.332114 164.559941 
L 247.332114 160.891682 
L 248.992741 160.891682 
L 248.992741 167.540059 
L 250.653368 167.540059 
L 250.653368 149.531076 
L 252.313995 149.531076 
L 252.313995 164.068042 
L 253.974622 164.068042 
L 253.974622 168.947624 
L 255.635249 168.947624 
L 255.635249 162.308056 
L 257.295876 162.308056 
L 257.295876 164.072213 
L 258.956503 164.072213 
L 258.956503 165.639214 
L 260.61713 165.639214 
L 260.61713 166.970158 
L 262.277758 166.970158 
L 262.277758 165.13476 
L 263.938385 165.13476 
L 263.938385 171.816617 
L 265.599012 171.816617 
L 265.599012 164.493089 
L 267.259639 164.493089 
L 267.259639 158.516982 
L 268.920266 158.516982 
L 268.920266 171.211676 
L 270.580893 171.211676 
L 270.580893 163.213418 
L 272.24152 163.213418 
L 272.24152 168.184601 
L 273.902147 168.184601 
L 273.902147 159.675098 
L 275.562774 159.675098 
L 275.562774 166.0997 
L 277.223401 166.0997 
L 277.223401 167.806847 
L 278.884028 167.806847 
L 278.884028 157.276162 
L 280.544655 157.276162 
L 280.544655 166.611695 
L 282.205282 166.611695 
L 282.205282 162.981524 
L 283.865909 162.981524 
L 283.865909 161.578528 
L 285.526536 161.578528 
L 285.526536 159.253219 
L 287.187163 159.253219 
L 287.187163 164.248764 
L 288.84779 164.248764 
L 288.84779 157.476026 
L 290.508417 157.476026 
L 290.508417 166.38247 
L 292.169044 166.38247 
L 292.169044 161.554816 
L 293.829671 161.554816 
L 293.829671 170.492943 
L 295.490298 170.492943 
L 295.490298 162.025244 
L 297.150925 162.025244 
L 297.150925 175.089852 
L 298.811552 175.089852 
L 298.811552 159.402952 
L 300.472179 159.402952 
L 300.472179 158.40625 
L 302.132806 158.40625 
L 302.132806 161.772526 
L 303.793433 161.772526 
L 303.793433 166.418418 
L 305.45406 166.418418 
L 305.45406 161.523735 
L 307.114687 161.523735 
L 307.114687 171.166084 
L 308.775314 171.166084 
L 308.775314 166.411289 
L 310.435941 166.411289 
L 310.435941 167.029537 
L 312.096568 167.029537 
L 312.096568 163.661556 
L 313.757195 163.661556 
L 313.757195 162.942856 
L 315.417822 162.942856 
L 315.417822 163.179069 
L 317.078449 163.179069 
L 317.078449 172.798915 
L 318.739076 172.798915 
L 318.739076 169.696378 
L 320.399703 169.696378 
L 320.399703 156.057542 
L 322.060331 156.057542 
L 322.060331 161.057182 
L 323.720958 161.057182 
L 323.720958 162.500191 
L 325.381585 162.500191 
L 325.381585 164.795053 
L 327.042212 164.795053 
L 327.042212 165.349509 
L 328.702839 165.349509 
L 328.702839 177.86917 
L 330.363466 177.86917 
L 330.363466 174.088043 
L 332.024093 174.088043 
L 332.024093 167.978776 
L 333.68472 167.978776 
L 333.68472 157.628432 
L 335.345347 157.628432 
L 335.345347 164.905603 
L 337.005974 164.905603 
L 337.005974 160.476535 
L 338.666601 160.476535 
L 338.666601 179.428786 
L 340.327228 179.428786 
L 340.327228 168.956801 
L 341.987855 168.956801 
L 341.987855 167.891768 
L 343.648482 167.891768 
L 343.648482 180.098846 
L 345.309109 180.098846 
L 345.309109 160.093943 
L 346.969736 160.093943 
L 346.969736 158.395458 
L 348.630363 158.395458 
L 348.630363 173.245153 
L 350.29099 173.245153 
L 350.29099 165.51781 
L 351.951617 165.51781 
L 351.951617 156.897071 
L 353.612244 156.897071 
L 353.612244 152.331104 
L 355.272871 152.331104 
L 355.272871 148.790381 
L 356.933498 148.790381 
L 356.933498 171.725239 
L 358.594125 171.725239 
L 358.594125 163.558379 
L 360.254752 163.558379 
L 360.254752 156.136201 
L 361.915379 156.136201 
L 361.915379 185.833406 
L 363.576006 185.833406 
L 363.576006 186.003107 
L 365.236633 186.003107 
L 365.236633 180.321002 
L 366.89726 180.321002 
L 366.89726 177.991337 
L 368.557887 177.991337 
L 368.557887 181.137529 
L 370.218514 181.137529 
L 370.218514 179.457559 
L 371.879141 179.457559 
L 371.879141 182.002293 
L 373.539768 182.002293 
L 373.539768 185.243305 
L 375.200395 185.243305 
L 375.200395 165.22599 
L 376.861022 165.22599 
L 376.861022 151.478387 
L 378.521649 151.478387 
L 378.521649 192.416842 
L 380.182276 192.416842 
L 380.182276 189.159323 
L 381.842904 189.159323 
L 381.842904 168.7673 
L 383.503531 168.7673 
L 383.503531 173.255325 
L 385.164158 173.255325 
L 385.164158 173.255325 
" clip-path="url(#pd9fdf1267c)" style="fill: none; stroke: #1f77b4; stroke-width: 1.5; stroke-linecap: square"/>
   </g>
   <g id="LineCollection_1">
    <path d="M 68.814709 26.435021 
L 68.814709 24.050809 
" clip-path="url(#pd9fdf1267c)" style="fill: none; stroke: #1f77b4; stroke-width: 1.5"/>
    <path d="M 70.475336 28.868969 
L 70.475336 26.996539 
" clip-path="url(#pd9fdf1267c)" style="fill: none; stroke: #1f77b4; stroke-width: 1.5"/>
    <path d="M 72.135963 32.131274 
L 72.135963 30.315178 
" clip-path="url(#pd9fdf1267c)" style="fill: none; stroke: #1f77b4; stroke-width: 1.5"/>
    <path d="M 73.79659 31.11446 
L 73.79659 29.245731 
" clip-path="url(#pd9fdf1267c)" style="fill: none; stroke: #1f77b4; stroke-width: 1.5"/>
    <path d="M 75.457217 31.435178 
L 75.457217 29.555409 
" clip-path="url(#pd9fdf1267c)" style="fill: none; stroke: #1f77b4; stroke-width: 1.5"/>
    <path d="M 77.117844 30.198232 
L 77.117844 28.270191 
" clip-path="url(#pd9fdf1267c)" style="fill: none; stroke: #1f77b4; stroke-width: 1.5"/>
    <path d="M 78.778471 32.488952 
L 78.778471 30.617198 
" clip-path="url(#pd9fdf1267c)" style="fill: none; stroke: #1f77b4; stroke-width: 1.5"/>
    <path d="M 80.439098 32.518077 
L 80.439098 30.584524 
" clip-path="url(#pd9fdf1267c)" style="fill: none; stroke: #1f77b4; stroke-width: 1.5"/>
    <path d="M 82.099725 35.888405 
L 82.099725 34.004263 
" clip-path="url(#pd9fdf1267c)" style="fill: none; stroke: #1f77b4; stroke-width: 1.5"/>
    <path d="M 83.760352 35.547966 
L 83.760352 33.584382 
" clip-path="url(#pd9fdf1267c)" style="fill: none; stroke: #1f77b4; stroke-width: 1.5"/>
    <path d="M 85.420979 38.588655 
L 85.420979 36.679998 
" clip-path="url(#pd9fdf1267c)" style="fill: none; stroke: #1f77b4; stroke-width: 1.5"/>
    <path d="M 87.081606 36.901193 
L 87.081606 34.923645 
" clip-path="url(#pd9fdf1267c)" style="fill: none; stroke: #1f77b4; stroke-width: 1.5"/>
    <path d="M 88.742233 38.137599 
L 88.742233 36.152222 
" clip-path="url(#pd9fdf1267c)" style="fill: none; stroke: #1f77b4; stroke-width: 1.5"/>
    <path d="M 90.40286 36.153654 
L 90.40286 34.058135 
" clip-path="url(#pd9fdf1267c)" style="fill: none; stroke: #1f77b4; stroke-width: 1.5"/>
    <path d="M 92.063487 43.300073 
L 92.063487 41.313518 
" clip-path="url(#pd9fdf1267c)" style="fill: none; stroke: #1f77b4; stroke-width: 1.5"/>
    <path d="M 93.724114 44.265689 
L 93.724114 42.271028 
" clip-path="url(#pd9fdf1267c)" style="fill: none; stroke: #1f77b4; stroke-width: 1.5"/>
    <path d="M 95.384741 47.396578 
L 95.384741 45.305308 
" clip-path="url(#pd9fdf1267c)" style="fill: none; stroke: #1f77b4; stroke-width: 1.5"/>
    <path d="M 97.045368 46.85395 
L 97.045368 44.756413 
" clip-path="url(#pd9fdf1267c)" style="fill: none; stroke: #1f77b4; stroke-width: 1.5"/>
    <path d="M 98.705995 48.104533 
L 98.705995 45.984943 
" clip-path="url(#pd9fdf1267c)" style="fill: none; stroke: #1f77b4; stroke-width: 1.5"/>
    <path d="M 100.366622 53.043789 
L 100.366622 50.762143 
" clip-path="url(#pd9fdf1267c)" style="fill: none; stroke: #1f77b4; stroke-width: 1.5"/>
    <path d="M 102.027249 53.846218 
L 102.027249 51.358825 
" clip-path="url(#pd9fdf1267c)" style="fill: none; stroke: #1f77b4; stroke-width: 1.5"/>
    <path d="M 103.687876 59.767391 
L 103.687876 57.114729 
" clip-path="url(#pd9fdf1267c)" style="fill: none; stroke: #1f77b4; stroke-width: 1.5"/>
    <path d="M 105.348503 63.049513 
L 105.348503 59.971956 
" clip-path="url(#pd9fdf1267c)" style="fill: none; stroke: #1f77b4; stroke-width: 1.5"/>
    <path d="M 107.00913 65.418765 
L 107.00913 61.841761 
" clip-path="url(#pd9fdf1267c)" style="fill: none; stroke: #1f77b4; stroke-width: 1.5"/>
    <path d="M 108.669757 67.336416 
L 108.669757 63.365124 
" clip-path="url(#pd9fdf1267c)" style="fill: none; stroke: #1f77b4; stroke-width: 1.5"/>
    <path d="M 110.330384 64.74039 
L 110.330384 60.53656 
" clip-path="url(#pd9fdf1267c)" style="fill: none; stroke: #1f77b4; stroke-width: 1.5"/>
    <path d="M 111.991012 71.572043 
L 111.991012 66.89328 
" clip-path="url(#pd9fdf1267c)" style="fill: none; stroke: #1f77b4; stroke-width: 1.5"/>
    <path d="M 113.651639 76.986342 
L 113.651639 72.727722 
" clip-path="url(#pd9fdf1267c)" style="fill: none; stroke: #1f77b4; stroke-width: 1.5"/>
    <path d="M 115.312266 86.539921 
L 115.312266 82.276468 
" clip-path="url(#pd9fdf1267c)" style="fill: none; stroke: #1f77b4; stroke-width: 1.5"/>
    <path d="M 116.972893 80.017104 
L 116.972893 76.141577 
" clip-path="url(#pd9fdf1267c)" style="fill: none; stroke: #1f77b4; stroke-width: 1.5"/>
    <path d="M 118.63352 88.108152 
L 118.63352 84.415297 
" clip-path="url(#pd9fdf1267c)" style="fill: none; stroke: #1f77b4; stroke-width: 1.5"/>
    <path d="M 120.294147 90.337944 
L 120.294147 86.623369 
" clip-path="url(#pd9fdf1267c)" style="fill: none; stroke: #1f77b4; stroke-width: 1.5"/>
    <path d="M 121.954774 93.844263 
L 121.954774 90.173886 
" clip-path="url(#pd9fdf1267c)" style="fill: none; stroke: #1f77b4; stroke-width: 1.5"/>
    <path d="M 123.615401 103.492019 
L 123.615401 99.465817 
" clip-path="url(#pd9fdf1267c)" style="fill: none; stroke: #1f77b4; stroke-width: 1.5"/>
    <path d="M 125.276028 107.247059 
L 125.276028 103.102054 
" clip-path="url(#pd9fdf1267c)" style="fill: none; stroke: #1f77b4; stroke-width: 1.5"/>
    <path d="M 126.936655 112.799874 
L 126.936655 108.305954 
" clip-path="url(#pd9fdf1267c)" style="fill: none; stroke: #1f77b4; stroke-width: 1.5"/>
    <path d="M 128.597282 115.870913 
L 128.597282 111.271709 
" clip-path="url(#pd9fdf1267c)" style="fill: none; stroke: #1f77b4; stroke-width: 1.5"/>
    <path d="M 130.257909 124.276761 
L 130.257909 118.893739 
" clip-path="url(#pd9fdf1267c)" style="fill: none; stroke: #1f77b4; stroke-width: 1.5"/>
    <path d="M 131.918536 128.585907 
L 131.918536 122.939481 
" clip-path="url(#pd9fdf1267c)" style="fill: none; stroke: #1f77b4; stroke-width: 1.5"/>
    <path d="M 133.579163 136.654319 
L 133.579163 130.111536 
" clip-path="url(#pd9fdf1267c)" style="fill: none; stroke: #1f77b4; stroke-width: 1.5"/>
    <path d="M 135.23979 143.572264 
L 135.23979 136.033714 
" clip-path="url(#pd9fdf1267c)" style="fill: none; stroke: #1f77b4; stroke-width: 1.5"/>
    <path d="M 136.900417 151.3289 
L 136.900417 142.820302 
" clip-path="url(#pd9fdf1267c)" style="fill: none; stroke: #1f77b4; stroke-width: 1.5"/>
    <path d="M 138.561044 156.23525 
L 138.561044 146.609682 
" clip-path="url(#pd9fdf1267c)" style="fill: none; stroke: #1f77b4; stroke-width: 1.5"/>
    <path d="M 140.221671 156.820899 
L 140.221671 146.773021 
" clip-path="url(#pd9fdf1267c)" style="fill: none; stroke: #1f77b4; stroke-width: 1.5"/>
    <path d="M 141.882298 168.807105 
L 141.882298 157.00717 
" clip-path="url(#pd9fdf1267c)" style="fill: none; stroke: #1f77b4; stroke-width: 1.5"/>
    <path d="M 143.542925 167.461383 
L 143.542925 155.77628 
" clip-path="url(#pd9fdf1267c)" style="fill: none; stroke: #1f77b4; stroke-width: 1.5"/>
    <path d="M 145.203552 164.916694 
L 145.203552 153.435681 
" clip-path="url(#pd9fdf1267c)" style="fill: none; stroke: #1f77b4; stroke-width: 1.5"/>
    <path d="M 146.864179 165.829624 
L 146.864179 154.390369 
" clip-path="url(#pd9fdf1267c)" style="fill: none; stroke: #1f77b4; stroke-width: 1.5"/>
    <path d="M 148.524806 161.53224 
L 148.524806 151.419082 
" clip-path="url(#pd9fdf1267c)" style="fill: none; stroke: #1f77b4; stroke-width: 1.5"/>
    <path d="M 150.185433 162.186933 
L 150.185433 151.723134 
" clip-path="url(#pd9fdf1267c)" style="fill: none; stroke: #1f77b4; stroke-width: 1.5"/>
    <path d="M 151.84606 159.792658 
L 151.84606 149.944832 
" clip-path="url(#pd9fdf1267c)" style="fill: none; stroke: #1f77b4; stroke-width: 1.5"/>
    <path d="M 153.506687 152.834231 
L 153.506687 143.696736 
" clip-path="url(#pd9fdf1267c)" style="fill: none; stroke: #1f77b4; stroke-width: 1.5"/>
    <path d="M 155.167314 148.889093 
L 155.167314 140.741968 
" clip-path="url(#pd9fdf1267c)" style="fill: none; stroke: #1f77b4; stroke-width: 1.5"/>
    <path d="M 156.827941 145.441672 
L 156.827941 137.715017 
" clip-path="url(#pd9fdf1267c)" style="fill: none; stroke: #1f77b4; stroke-width: 1.5"/>
    <path d="M 158.488568 149.704637 
L 158.488568 141.429423 
" clip-path="url(#pd9fdf1267c)" style="fill: none; stroke: #1f77b4; stroke-width: 1.5"/>
    <path d="M 160.149195 140.2812 
L 160.149195 133.048249 
" clip-path="url(#pd9fdf1267c)" style="fill: none; stroke: #1f77b4; stroke-width: 1.5"/>
    <path d="M 161.809822 141.076856 
L 161.809822 133.9503 
" clip-path="url(#pd9fdf1267c)" style="fill: none; stroke: #1f77b4; stroke-width: 1.5"/>
    <path d="M 163.470449 143.465159 
L 163.470449 136.148923 
" clip-path="url(#pd9fdf1267c)" style="fill: none; stroke: #1f77b4; stroke-width: 1.5"/>
    <path d="M 165.131076 135.854076 
L 165.131076 129.248623 
" clip-path="url(#pd9fdf1267c)" style="fill: none; stroke: #1f77b4; stroke-width: 1.5"/>
    <path d="M 166.791703 139.49116 
L 166.791703 132.459754 
" clip-path="url(#pd9fdf1267c)" style="fill: none; stroke: #1f77b4; stroke-width: 1.5"/>
    <path d="M 168.45233 139.295832 
L 168.45233 132.464454 
" clip-path="url(#pd9fdf1267c)" style="fill: none; stroke: #1f77b4; stroke-width: 1.5"/>
    <path d="M 170.112957 147.065606 
L 170.112957 139.359656 
" clip-path="url(#pd9fdf1267c)" style="fill: none; stroke: #1f77b4; stroke-width: 1.5"/>
    <path d="M 171.773585 140.652154 
L 171.773585 133.419627 
" clip-path="url(#pd9fdf1267c)" style="fill: none; stroke: #1f77b4; stroke-width: 1.5"/>
    <path d="M 173.434212 139.598807 
L 173.434212 132.659642 
" clip-path="url(#pd9fdf1267c)" style="fill: none; stroke: #1f77b4; stroke-width: 1.5"/>
    <path d="M 175.094839 144.732369 
L 175.094839 137.119519 
" clip-path="url(#pd9fdf1267c)" style="fill: none; stroke: #1f77b4; stroke-width: 1.5"/>
    <path d="M 176.755466 149.646307 
L 176.755466 141.281808 
" clip-path="url(#pd9fdf1267c)" style="fill: none; stroke: #1f77b4; stroke-width: 1.5"/>
    <path d="M 178.416093 146.403697 
L 178.416093 138.133274 
" clip-path="url(#pd9fdf1267c)" style="fill: none; stroke: #1f77b4; stroke-width: 1.5"/>
    <path d="M 180.07672 148.113161 
L 180.07672 139.9071 
" clip-path="url(#pd9fdf1267c)" style="fill: none; stroke: #1f77b4; stroke-width: 1.5"/>
    <path d="M 181.737347 148.3933 
L 181.737347 140.447878 
" clip-path="url(#pd9fdf1267c)" style="fill: none; stroke: #1f77b4; stroke-width: 1.5"/>
    <path d="M 183.397974 161.236739 
L 183.397974 150.808834 
" clip-path="url(#pd9fdf1267c)" style="fill: none; stroke: #1f77b4; stroke-width: 1.5"/>
    <path d="M 185.058601 146.685533 
L 185.058601 138.780888 
" clip-path="url(#pd9fdf1267c)" style="fill: none; stroke: #1f77b4; stroke-width: 1.5"/>
    <path d="M 186.719228 154.366045 
L 186.719228 145.426145 
" clip-path="url(#pd9fdf1267c)" style="fill: none; stroke: #1f77b4; stroke-width: 1.5"/>
    <path d="M 188.379855 159.410153 
L 188.379855 149.408683 
" clip-path="url(#pd9fdf1267c)" style="fill: none; stroke: #1f77b4; stroke-width: 1.5"/>
    <path d="M 190.040482 162.907597 
L 190.040482 151.960809 
" clip-path="url(#pd9fdf1267c)" style="fill: none; stroke: #1f77b4; stroke-width: 1.5"/>
    <path d="M 191.701109 164.060558 
L 191.701109 153.382176 
" clip-path="url(#pd9fdf1267c)" style="fill: none; stroke: #1f77b4; stroke-width: 1.5"/>
    <path d="M 193.361736 165.236568 
L 193.361736 154.250673 
" clip-path="url(#pd9fdf1267c)" style="fill: none; stroke: #1f77b4; stroke-width: 1.5"/>
    <path d="M 195.022363 160.473596 
L 195.022363 150.109909 
" clip-path="url(#pd9fdf1267c)" style="fill: none; stroke: #1f77b4; stroke-width: 1.5"/>
    <path d="M 196.68299 174.496216 
L 196.68299 161.584189 
" clip-path="url(#pd9fdf1267c)" style="fill: none; stroke: #1f77b4; stroke-width: 1.5"/>
    <path d="M 198.343617 172.433728 
L 198.343617 160.159761 
" clip-path="url(#pd9fdf1267c)" style="fill: none; stroke: #1f77b4; stroke-width: 1.5"/>
    <path d="M 200.004244 176.394461 
L 200.004244 162.928405 
" clip-path="url(#pd9fdf1267c)" style="fill: none; stroke: #1f77b4; stroke-width: 1.5"/>
    <path d="M 201.664871 171.259482 
L 201.664871 159.066521 
" clip-path="url(#pd9fdf1267c)" style="fill: none; stroke: #1f77b4; stroke-width: 1.5"/>
    <path d="M 203.325498 174.938568 
L 203.325498 162.134861 
" clip-path="url(#pd9fdf1267c)" style="fill: none; stroke: #1f77b4; stroke-width: 1.5"/>
    <path d="M 204.986125 175.281212 
L 204.986125 162.181879 
" clip-path="url(#pd9fdf1267c)" style="fill: none; stroke: #1f77b4; stroke-width: 1.5"/>
    <path d="M 206.646752 167.886745 
L 206.646752 156.212162 
" clip-path="url(#pd9fdf1267c)" style="fill: none; stroke: #1f77b4; stroke-width: 1.5"/>
    <path d="M 208.307379 171.877494 
L 208.307379 159.403361 
" clip-path="url(#pd9fdf1267c)" style="fill: none; stroke: #1f77b4; stroke-width: 1.5"/>
    <path d="M 209.968006 170.819853 
L 209.968006 158.781034 
" clip-path="url(#pd9fdf1267c)" style="fill: none; stroke: #1f77b4; stroke-width: 1.5"/>
    <path d="M 211.628633 172.933408 
L 211.628633 160.152369 
" clip-path="url(#pd9fdf1267c)" style="fill: none; stroke: #1f77b4; stroke-width: 1.5"/>
    <path d="M 213.28926 159.543804 
L 213.28926 149.608165 
" clip-path="url(#pd9fdf1267c)" style="fill: none; stroke: #1f77b4; stroke-width: 1.5"/>
    <path d="M 214.949887 171.811653 
L 214.949887 158.847716 
" clip-path="url(#pd9fdf1267c)" style="fill: none; stroke: #1f77b4; stroke-width: 1.5"/>
    <path d="M 216.610514 165.805189 
L 216.610514 154.836143 
" clip-path="url(#pd9fdf1267c)" style="fill: none; stroke: #1f77b4; stroke-width: 1.5"/>
    <path d="M 218.271141 165.344451 
L 218.271141 153.924926 
" clip-path="url(#pd9fdf1267c)" style="fill: none; stroke: #1f77b4; stroke-width: 1.5"/>
    <path d="M 219.931768 167.888813 
L 219.931768 156.359936 
" clip-path="url(#pd9fdf1267c)" style="fill: none; stroke: #1f77b4; stroke-width: 1.5"/>
    <path d="M 221.592395 164.454693 
L 221.592395 153.128468 
" clip-path="url(#pd9fdf1267c)" style="fill: none; stroke: #1f77b4; stroke-width: 1.5"/>
    <path d="M 223.253022 169.584033 
L 223.253022 157.09532 
" clip-path="url(#pd9fdf1267c)" style="fill: none; stroke: #1f77b4; stroke-width: 1.5"/>
    <path d="M 224.913649 156.73747 
L 224.913649 146.724438 
" clip-path="url(#pd9fdf1267c)" style="fill: none; stroke: #1f77b4; stroke-width: 1.5"/>
    <path d="M 226.574276 162.150765 
L 226.574276 151.257076 
" clip-path="url(#pd9fdf1267c)" style="fill: none; stroke: #1f77b4; stroke-width: 1.5"/>
    <path d="M 228.234903 165.500983 
L 228.234903 154.006098 
" clip-path="url(#pd9fdf1267c)" style="fill: none; stroke: #1f77b4; stroke-width: 1.5"/>
    <path d="M 229.89553 167.687888 
L 229.89553 156.794835 
" clip-path="url(#pd9fdf1267c)" style="fill: none; stroke: #1f77b4; stroke-width: 1.5"/>
    <path d="M 231.556158 159.356679 
L 231.556158 149.043279 
" clip-path="url(#pd9fdf1267c)" style="fill: none; stroke: #1f77b4; stroke-width: 1.5"/>
    <path d="M 233.216785 176.311736 
L 233.216785 162.854892 
" clip-path="url(#pd9fdf1267c)" style="fill: none; stroke: #1f77b4; stroke-width: 1.5"/>
    <path d="M 234.877412 163.045332 
L 234.877412 152.419476 
" clip-path="url(#pd9fdf1267c)" style="fill: none; stroke: #1f77b4; stroke-width: 1.5"/>
    <path d="M 236.538039 161.647887 
L 236.538039 150.981451 
" clip-path="url(#pd9fdf1267c)" style="fill: none; stroke: #1f77b4; stroke-width: 1.5"/>
    <path d="M 238.198666 157.096504 
L 238.198666 147.475695 
" clip-path="url(#pd9fdf1267c)" style="fill: none; stroke: #1f77b4; stroke-width: 1.5"/>
    <path d="M 239.859293 169.624958 
L 239.859293 157.394205 
" clip-path="url(#pd9fdf1267c)" style="fill: none; stroke: #1f77b4; stroke-width: 1.5"/>
    <path d="M 241.51992 161.033476 
L 241.51992 150.969794 
" clip-path="url(#pd9fdf1267c)" style="fill: none; stroke: #1f77b4; stroke-width: 1.5"/>
    <path d="M 243.180547 161.147838 
L 243.180547 150.527346 
" clip-path="url(#pd9fdf1267c)" style="fill: none; stroke: #1f77b4; stroke-width: 1.5"/>
    <path d="M 244.841174 161.661236 
L 244.841174 151.393478 
" clip-path="url(#pd9fdf1267c)" style="fill: none; stroke: #1f77b4; stroke-width: 1.5"/>
    <path d="M 246.501801 171.792119 
L 246.501801 158.965216 
" clip-path="url(#pd9fdf1267c)" style="fill: none; stroke: #1f77b4; stroke-width: 1.5"/>
    <path d="M 248.162428 167.283787 
L 248.162428 155.812143 
" clip-path="url(#pd9fdf1267c)" style="fill: none; stroke: #1f77b4; stroke-width: 1.5"/>
    <path d="M 249.823055 175.072914 
L 249.823055 161.767624 
" clip-path="url(#pd9fdf1267c)" style="fill: none; stroke: #1f77b4; stroke-width: 1.5"/>
    <path d="M 251.483682 154.615725 
L 251.483682 145.312301 
" clip-path="url(#pd9fdf1267c)" style="fill: none; stroke: #1f77b4; stroke-width: 1.5"/>
    <path d="M 253.144309 170.835873 
L 253.144309 158.754606 
" clip-path="url(#pd9fdf1267c)" style="fill: none; stroke: #1f77b4; stroke-width: 1.5"/>
    <path d="M 254.804936 176.583292 
L 254.804936 163.115204 
" clip-path="url(#pd9fdf1267c)" style="fill: none; stroke: #1f77b4; stroke-width: 1.5"/>
    <path d="M 256.465563 168.76805 
L 256.465563 157.185828 
" clip-path="url(#pd9fdf1267c)" style="fill: none; stroke: #1f77b4; stroke-width: 1.5"/>
    <path d="M 258.12619 170.956551 
L 258.12619 158.687404 
" clip-path="url(#pd9fdf1267c)" style="fill: none; stroke: #1f77b4; stroke-width: 1.5"/>
    <path d="M 259.786817 172.716606 
L 259.786817 160.137318 
" clip-path="url(#pd9fdf1267c)" style="fill: none; stroke: #1f77b4; stroke-width: 1.5"/>
    <path d="M 261.447444 174.185591 
L 261.447444 161.38543 
" clip-path="url(#pd9fdf1267c)" style="fill: none; stroke: #1f77b4; stroke-width: 1.5"/>
    <path d="M 263.108071 172.292331 
L 263.108071 159.584664 
" clip-path="url(#pd9fdf1267c)" style="fill: none; stroke: #1f77b4; stroke-width: 1.5"/>
    <path d="M 264.768698 180.265334 
L 264.768698 165.523327 
" clip-path="url(#pd9fdf1267c)" style="fill: none; stroke: #1f77b4; stroke-width: 1.5"/>
    <path d="M 266.429325 171.504964 
L 266.429325 159.030766 
" clip-path="url(#pd9fdf1267c)" style="fill: none; stroke: #1f77b4; stroke-width: 1.5"/>
    <path d="M 268.089952 164.707299 
L 268.089952 153.565457 
" clip-path="url(#pd9fdf1267c)" style="fill: none; stroke: #1f77b4; stroke-width: 1.5"/>
    <path d="M 269.750579 179.32441 
L 269.750579 165.105977 
" clip-path="url(#pd9fdf1267c)" style="fill: none; stroke: #1f77b4; stroke-width: 1.5"/>
    <path d="M 271.411206 169.955996 
L 271.411206 157.915525 
" clip-path="url(#pd9fdf1267c)" style="fill: none; stroke: #1f77b4; stroke-width: 1.5"/>
    <path d="M 273.071833 175.996587 
L 273.071833 162.250217 
" clip-path="url(#pd9fdf1267c)" style="fill: none; stroke: #1f77b4; stroke-width: 1.5"/>
    <path d="M 274.73246 165.892142 
L 274.73246 154.706521 
" clip-path="url(#pd9fdf1267c)" style="fill: none; stroke: #1f77b4; stroke-width: 1.5"/>
    <path d="M 276.393087 173.174469 
L 276.393087 160.599385 
" clip-path="url(#pd9fdf1267c)" style="fill: none; stroke: #1f77b4; stroke-width: 1.5"/>
    <path d="M 278.053714 175.60572 
L 278.053714 161.880006 
" clip-path="url(#pd9fdf1267c)" style="fill: none; stroke: #1f77b4; stroke-width: 1.5"/>
    <path d="M 279.714341 163.074746 
L 279.714341 152.578077 
" clip-path="url(#pd9fdf1267c)" style="fill: none; stroke: #1f77b4; stroke-width: 1.5"/>
    <path d="M 281.374968 174.093535 
L 281.374968 160.869172 
" clip-path="url(#pd9fdf1267c)" style="fill: none; stroke: #1f77b4; stroke-width: 1.5"/>
    <path d="M 283.035595 169.894565 
L 283.035595 157.579215 
" clip-path="url(#pd9fdf1267c)" style="fill: none; stroke: #1f77b4; stroke-width: 1.5"/>
    <path d="M 284.696222 167.820754 
L 284.696222 156.59391 
" clip-path="url(#pd9fdf1267c)" style="fill: none; stroke: #1f77b4; stroke-width: 1.5"/>
    <path d="M 286.356849 165.108965 
L 286.356849 154.51774 
" clip-path="url(#pd9fdf1267c)" style="fill: none; stroke: #1f77b4; stroke-width: 1.5"/>
    <path d="M 288.017476 171.131403 
L 288.017476 158.864992 
" clip-path="url(#pd9fdf1267c)" style="fill: none; stroke: #1f77b4; stroke-width: 1.5"/>
    <path d="M 289.678103 163.527196 
L 289.678103 152.613773 
" clip-path="url(#pd9fdf1267c)" style="fill: none; stroke: #1f77b4; stroke-width: 1.5"/>
    <path d="M 291.338731 173.483935 
L 291.338731 160.866076 
" clip-path="url(#pd9fdf1267c)" style="fill: none; stroke: #1f77b4; stroke-width: 1.5"/>
    <path d="M 292.999358 167.988007 
L 292.999358 156.449419 
" clip-path="url(#pd9fdf1267c)" style="fill: none; stroke: #1f77b4; stroke-width: 1.5"/>
    <path d="M 294.659985 178.439509 
L 294.659985 164.481495 
" clip-path="url(#pd9fdf1267c)" style="fill: none; stroke: #1f77b4; stroke-width: 1.5"/>
    <path d="M 296.320612 168.496123 
L 296.320612 156.896189 
" clip-path="url(#pd9fdf1267c)" style="fill: none; stroke: #1f77b4; stroke-width: 1.5"/>
    <path d="M 297.981239 184.221283 
L 297.981239 168.427273 
" clip-path="url(#pd9fdf1267c)" style="fill: none; stroke: #1f77b4; stroke-width: 1.5"/>
    <path d="M 299.641866 165.752118 
L 299.641866 154.350511 
" clip-path="url(#pd9fdf1267c)" style="fill: none; stroke: #1f77b4; stroke-width: 1.5"/>
    <path d="M 301.302493 164.302957 
L 301.302493 153.644062 
" clip-path="url(#pd9fdf1267c)" style="fill: none; stroke: #1f77b4; stroke-width: 1.5"/>
    <path d="M 302.96312 168.401883 
L 302.96312 156.544626 
" clip-path="url(#pd9fdf1267c)" style="fill: none; stroke: #1f77b4; stroke-width: 1.5"/>
    <path d="M 304.623747 173.516993 
L 304.623747 160.903764 
" clip-path="url(#pd9fdf1267c)" style="fill: none; stroke: #1f77b4; stroke-width: 1.5"/>
    <path d="M 306.284374 168.139203 
L 306.284374 156.304457 
" clip-path="url(#pd9fdf1267c)" style="fill: none; stroke: #1f77b4; stroke-width: 1.5"/>
    <path d="M 307.945001 179.31177 
L 307.945001 165.041811 
" clip-path="url(#pd9fdf1267c)" style="fill: none; stroke: #1f77b4; stroke-width: 1.5"/>
    <path d="M 309.605628 173.652093 
L 309.605628 160.811418 
" clip-path="url(#pd9fdf1267c)" style="fill: none; stroke: #1f77b4; stroke-width: 1.5"/>
    <path d="M 311.266255 174.408574 
L 311.266255 161.347586 
" clip-path="url(#pd9fdf1267c)" style="fill: none; stroke: #1f77b4; stroke-width: 1.5"/>
    <path d="M 312.926882 170.729643 
L 312.926882 158.165271 
" clip-path="url(#pd9fdf1267c)" style="fill: none; stroke: #1f77b4; stroke-width: 1.5"/>
    <path d="M 314.587509 169.709746 
L 314.587509 157.629998 
" clip-path="url(#pd9fdf1267c)" style="fill: none; stroke: #1f77b4; stroke-width: 1.5"/>
    <path d="M 316.248136 170.058063 
L 316.248136 157.797522 
" clip-path="url(#pd9fdf1267c)" style="fill: none; stroke: #1f77b4; stroke-width: 1.5"/>
    <path d="M 317.908763 181.597561 
L 317.908763 166.314392 
" clip-path="url(#pd9fdf1267c)" style="fill: none; stroke: #1f77b4; stroke-width: 1.5"/>
    <path d="M 319.56939 177.974031 
L 319.56939 163.498105 
" clip-path="url(#pd9fdf1267c)" style="fill: none; stroke: #1f77b4; stroke-width: 1.5"/>
    <path d="M 321.230017 162.752095 
L 321.230017 150.789274 
" clip-path="url(#pd9fdf1267c)" style="fill: none; stroke: #1f77b4; stroke-width: 1.5"/>
    <path d="M 322.890644 168.111026 
L 322.890644 155.569491 
" clip-path="url(#pd9fdf1267c)" style="fill: none; stroke: #1f77b4; stroke-width: 1.5"/>
    <path d="M 324.551271 170.188223 
L 324.551271 156.637369 
" clip-path="url(#pd9fdf1267c)" style="fill: none; stroke: #1f77b4; stroke-width: 1.5"/>
    <path d="M 326.211898 172.855356 
L 326.211898 158.718986 
" clip-path="url(#pd9fdf1267c)" style="fill: none; stroke: #1f77b4; stroke-width: 1.5"/>
    <path d="M 327.872525 173.373668 
L 327.872525 159.293926 
" clip-path="url(#pd9fdf1267c)" style="fill: none; stroke: #1f77b4; stroke-width: 1.5"/>
    <path d="M 329.533152 188.883462 
L 329.533152 170.264417 
" clip-path="url(#pd9fdf1267c)" style="fill: none; stroke: #1f77b4; stroke-width: 1.5"/>
    <path d="M 331.193779 183.939213 
L 331.193779 167.052591 
" clip-path="url(#pd9fdf1267c)" style="fill: none; stroke: #1f77b4; stroke-width: 1.5"/>
    <path d="M 332.854406 177.169313 
L 332.854406 161.284953 
" clip-path="url(#pd9fdf1267c)" style="fill: none; stroke: #1f77b4; stroke-width: 1.5"/>
    <path d="M 334.515033 165.297017 
L 334.515033 151.77689 
" clip-path="url(#pd9fdf1267c)" style="fill: none; stroke: #1f77b4; stroke-width: 1.5"/>
    <path d="M 336.17566 173.938617 
L 336.17566 158.295301 
" clip-path="url(#pd9fdf1267c)" style="fill: none; stroke: #1f77b4; stroke-width: 1.5"/>
    <path d="M 337.836287 168.438916 
L 337.836287 154.456074 
" clip-path="url(#pd9fdf1267c)" style="fill: none; stroke: #1f77b4; stroke-width: 1.5"/>
    <path d="M 339.496914 193.499684 
L 339.496914 170.500531 
" clip-path="url(#pd9fdf1267c)" style="fill: none; stroke: #1f77b4; stroke-width: 1.5"/>
    <path d="M 341.157541 179.477684 
L 341.157541 161.588715 
" clip-path="url(#pd9fdf1267c)" style="fill: none; stroke: #1f77b4; stroke-width: 1.5"/>
    <path d="M 342.818168 178.593078 
L 342.818168 160.436331 
" clip-path="url(#pd9fdf1267c)" style="fill: none; stroke: #1f77b4; stroke-width: 1.5"/>
    <path d="M 344.478795 195.082686 
L 344.478795 170.817909 
" clip-path="url(#pd9fdf1267c)" style="fill: none; stroke: #1f77b4; stroke-width: 1.5"/>
    <path d="M 346.139422 169.221833 
L 346.139422 153.433239 
" clip-path="url(#pd9fdf1267c)" style="fill: none; stroke: #1f77b4; stroke-width: 1.5"/>
    <path d="M 347.800049 167.563064 
L 347.800049 151.713742 
" clip-path="url(#pd9fdf1267c)" style="fill: none; stroke: #1f77b4; stroke-width: 1.5"/>
    <path d="M 349.460676 187.652233 
L 349.460676 164.184932 
" clip-path="url(#pd9fdf1267c)" style="fill: none; stroke: #1f77b4; stroke-width: 1.5"/>
    <path d="M 351.121303 177.292702 
L 351.121303 157.561502 
" clip-path="url(#pd9fdf1267c)" style="fill: none; stroke: #1f77b4; stroke-width: 1.5"/>
    <path d="M 352.781931 166.560914 
L 352.781931 149.957095 
" clip-path="url(#pd9fdf1267c)" style="fill: none; stroke: #1f77b4; stroke-width: 1.5"/>
    <path d="M 354.442558 161.207619 
L 354.442558 145.804588 
" clip-path="url(#pd9fdf1267c)" style="fill: none; stroke: #1f77b4; stroke-width: 1.5"/>
    <path d="M 356.103185 157.167182 
L 356.103185 142.536914 
" clip-path="url(#pd9fdf1267c)" style="fill: none; stroke: #1f77b4; stroke-width: 1.5"/>
    <path d="M 357.763812 186.763665 
L 357.763812 162.423777 
" clip-path="url(#pd9fdf1267c)" style="fill: none; stroke: #1f77b4; stroke-width: 1.5"/>
    <path d="M 359.424439 176.397869 
L 359.424439 155.135483 
" clip-path="url(#pd9fdf1267c)" style="fill: none; stroke: #1f77b4; stroke-width: 1.5"/>
    <path d="M 361.085066 167.951479 
L 361.085066 148.161662 
" clip-path="url(#pd9fdf1267c)" style="fill: none; stroke: #1f77b4; stroke-width: 1.5"/>
    <path d="M 362.745693 213.589226 
L 362.745693 173.050621 
" clip-path="url(#pd9fdf1267c)" style="fill: none; stroke: #1f77b4; stroke-width: 1.5"/>
    <path d="M 364.40632 221.353154 
L 364.40632 171.97224 
" clip-path="url(#pd9fdf1267c)" style="fill: none; stroke: #1f77b4; stroke-width: 1.5"/>
    <path d="M 366.066947 205.989865 
L 366.066947 167.967779 
" clip-path="url(#pd9fdf1267c)" style="fill: none; stroke: #1f77b4; stroke-width: 1.5"/>
    <path d="M 367.727574 205.225248 
L 367.727574 165.311938 
" clip-path="url(#pd9fdf1267c)" style="fill: none; stroke: #1f77b4; stroke-width: 1.5"/>
    <path d="M 369.388201 221.799075 
L 369.388201 166.459831 
" clip-path="url(#pd9fdf1267c)" style="fill: none; stroke: #1f77b4; stroke-width: 1.5"/>
    <path d="M 371.048828 216.743489 
L 371.048828 165.17278 
" clip-path="url(#pd9fdf1267c)" style="fill: none; stroke: #1f77b4; stroke-width: 1.5"/>
    <path d="M 372.709455 229.162343 
L 372.709455 166.71561 
" clip-path="url(#pd9fdf1267c)" style="fill: none; stroke: #1f77b4; stroke-width: 1.5"/>
    <path d="M 374.370082 256.006393 
L 374.370082 168.752225 
" clip-path="url(#pd9fdf1267c)" style="fill: none; stroke: #1f77b4; stroke-width: 1.5"/>
    <path d="M 376.030709 196.642653 
L 376.030709 151.786123 
" clip-path="url(#pd9fdf1267c)" style="fill: none; stroke: #1f77b4; stroke-width: 1.5"/>
    <path d="M 377.691336 180.115825 
L 377.691336 138.526745 
" clip-path="url(#pd9fdf1267c)" style="fill: none; stroke: #1f77b4; stroke-width: 1.5"/>
    <path d="M 379.351963 279.315406 
L 379.351963 166.451895 
" clip-path="url(#pd9fdf1267c)" style="fill: none; stroke: #1f77b4; stroke-width: 1.5"/>
    <path d="M 381.01259 279.315406 
L 381.01259 165.741255 
" clip-path="url(#pd9fdf1267c)" style="fill: none; stroke: #1f77b4; stroke-width: 1.5"/>
    <path d="M 382.673217 279.315406 
L 382.673217 130.621205 
" clip-path="url(#pd9fdf1267c)" style="fill: none; stroke: #1f77b4; stroke-width: 1.5"/>
    <path d="M 384.333844 279.315406 
L 384.333844 130.253985 
" clip-path="url(#pd9fdf1267c)" style="fill: none; stroke: #1f77b4; stroke-width: 1.5"/>
    <path clip-path="url(#pd9fdf1267c)" style="fill: none; stroke: #1f77b4; stroke-width: 1.5"/>
    <path clip-path="url(#pd9fdf1267c)" style="fill: none; stroke: #1f77b4; stroke-width: 1.5"/>
    <path clip-path="url(#pd9fdf1267c)" style="fill: none; stroke: #1f77b4; stroke-width: 1.5"/>
    <path clip-path="url(#pd9fdf1267c)" style="fill: none; stroke: #1f77b4; stroke-width: 1.5"/>
    <path clip-path="url(#pd9fdf1267c)" style="fill: none; stroke: #1f77b4; stroke-width: 1.5"/>
    <path clip-path="url(#pd9fdf1267c)" style="fill: none; stroke: #1f77b4; stroke-width: 1.5"/>
    <path clip-path="url(#pd9fdf1267c)" style="fill: none; stroke: #1f77b4; stroke-width: 1.5"/>
    <path clip-path="url(#pd9fdf1267c)" style="fill: none; stroke: #1f77b4; stroke-width: 1.5"/>
    <path clip-path="url(#pd9fdf1267c)" style="fill: none; stroke: #1f77b4; stroke-width: 1.5"/>
   </g>
  </g>
 </g>
 <defs>
  <clipPath id="pd9fdf1267c">
   <rect x="51.378125" y="10.999219" width="365.337946" height="228.8365"/>
  </clipPath>
 </defs>
</svg>