<?xml version="1.0" encoding="utf-8" standalone="no"?>
<!DOCTYPE svg PUBLIC "-//W3C//DTD SVG 1.1//EN"
  "http://www.w3.org/Graphics/SVG/1.1/DTD/svg11.dtd">
<svg xmlns:xlink="http://www.w3.org/1999/xlink" width="389.925239pt" height="266.51625pt" viewBox="0 0 389.925239 266.51625" xmlns="http://www.w3.org/2000/svg" version="1.1">
 <metadata>
  <rdf:RDF xmlns:dc="http://purl.org/dc/elements/1.1/" xmlns:cc="http://creativecommons.org/ns#" xmlns:rdf="http://www.w3.org/1999/02/22-rdf-syntax-ns#">
   <cc:Work>
    <dc:type rdf:resource="http://purl.org/dc/dcmitype/StillImage"/>
    <dc:date>2025-06-12T13:12:00.923502</dc:date>
    <dc:format>image/svg+xml</dc:format>
    <dc:creator>
     <cc:Agent>
      <dc:title>Matplotlib v3.10.1, https://matplotlib.org/</dc:title>
     </cc:Agent>
    </dc:creator>
   </cc:Work>
  </rdf:RDF>
 </metadata>
 <defs>
  <style type="text/css">*{stroke-linejoin: round; stroke-linecap: butt}</style>
 </defs>
 <g id="figure_1">
  <g id="patch_1">
   <path d="M 0 266.51625 
L 389.925239 266.51625 
L 389.925239 0 
L 0 0 
z
" style="fill: #ffffff"/>
  </g>
  <g id="axes_1">
   <g id="patch_2">
    <path d="M 45.478125 228.96 
L 380.278125 228.96 
L 380.278125 7.2 
L 45.478125 7.2 
z
" style="fill: #ffffff"/>
   </g>
   <g id="matplotlib.axis_1">
    <g id="xtick_1">
     <g id="line2d_1">
      <defs>
       <path id="m32adc622c5" d="M 0 0 
L 0 3.5 
" style="stroke: #000000; stroke-width: 0.8"/>
      </defs>
      <g>
       <use xlink:href="#m32adc622c5" x="50.982574" y="228.96" style="stroke: #000000; stroke-width: 0.8"/>
      </g>
     </g>
     <g id="text_1">
      <!-- 0.0 -->
      <g transform="translate(43.031011 243.558437) scale(0.1 -0.1)">
       <defs>
        <path id="DejaVuSans-30" d="M 2034 4250 
Q 1547 4250 1301 3770 
Q 1056 3291 1056 2328 
Q 1056 1369 1301 889 
Q 1547 409 2034 409 
Q 2525 409 2770 889 
Q 3016 1369 3016 2328 
Q 3016 3291 2770 3770 
Q 2525 4250 2034 4250 
z
M 2034 4750 
Q 2819 4750 3233 4129 
Q 3647 3509 3647 2328 
Q 3647 1150 3233 529 
Q 2819 -91 2034 -91 
Q 1250 -91 836 529 
Q 422 1150 422 2328 
Q 422 3509 836 4129 
Q 1250 4750 2034 4750 
z
" transform="scale(0.015625)"/>
        <path id="DejaVuSans-2e" d="M 684 794 
L 1344 794 
L 1344 0 
L 684 0 
L 684 794 
z
" transform="scale(0.015625)"/>
       </defs>
       <use xlink:href="#DejaVuSans-30"/>
       <use xlink:href="#DejaVuSans-2e" transform="translate(63.623047 0)"/>
       <use xlink:href="#DejaVuSans-30" transform="translate(95.410156 0)"/>
      </g>
     </g>
    </g>
    <g id="xtick_2">
     <g id="line2d_2">
      <g>
       <use xlink:href="#m32adc622c5" x="115.740794" y="228.96" style="stroke: #000000; stroke-width: 0.8"/>
      </g>
     </g>
     <g id="text_2">
      <!-- 0.1 -->
      <g transform="translate(107.789232 243.558437) scale(0.1 -0.1)">
       <defs>
        <path id="DejaVuSans-31" d="M 794 531 
L 1825 531 
L 1825 4091 
L 703 3866 
L 703 4441 
L 1819 4666 
L 2450 4666 
L 2450 531 
L 3481 531 
L 3481 0 
L 794 0 
L 794 531 
z
" transform="scale(0.015625)"/>
       </defs>
       <use xlink:href="#DejaVuSans-30"/>
       <use xlink:href="#DejaVuSans-2e" transform="translate(63.623047 0)"/>
       <use xlink:href="#DejaVuSans-31" transform="translate(95.410156 0)"/>
      </g>
     </g>
    </g>
    <g id="xtick_3">
     <g id="line2d_3">
      <g>
       <use xlink:href="#m32adc622c5" x="180.499015" y="228.96" style="stroke: #000000; stroke-width: 0.8"/>
      </g>
     </g>
     <g id="text_3">
      <!-- 0.2 -->
      <g transform="translate(172.547452 243.558437) scale(0.1 -0.1)">
       <defs>
        <path id="DejaVuSans-32" d="M 1228 531 
L 3431 531 
L 3431 0 
L 469 0 
L 469 531 
Q 828 903 1448 1529 
Q 2069 2156 2228 2338 
Q 2531 2678 2651 2914 
Q 2772 3150 2772 3378 
Q 2772 3750 2511 3984 
Q 2250 4219 1831 4219 
Q 1534 4219 1204 4116 
Q 875 4013 500 3803 
L 500 4441 
Q 881 4594 1212 4672 
Q 1544 4750 1819 4750 
Q 2544 4750 2975 4387 
Q 3406 4025 3406 3419 
Q 3406 3131 3298 2873 
Q 3191 2616 2906 2266 
Q 2828 2175 2409 1742 
Q 1991 1309 1228 531 
z
" transform="scale(0.015625)"/>
       </defs>
       <use xlink:href="#DejaVuSans-30"/>
       <use xlink:href="#DejaVuSans-2e" transform="translate(63.623047 0)"/>
       <use xlink:href="#DejaVuSans-32" transform="translate(95.410156 0)"/>
      </g>
     </g>
    </g>
    <g id="xtick_4">
     <g id="line2d_4">
      <g>
       <use xlink:href="#m32adc622c5" x="245.257235" y="228.96" style="stroke: #000000; stroke-width: 0.8"/>
      </g>
     </g>
     <g id="text_4">
      <!-- 0.3 -->
      <g transform="translate(237.305673 243.558437) scale(0.1 -0.1)">
       <defs>
        <path id="DejaVuSans-33" d="M 2597 2516 
Q 3050 2419 3304 2112 
Q 3559 1806 3559 1356 
Q 3559 666 3084 287 
Q 2609 -91 1734 -91 
Q 1441 -91 1130 -33 
Q 819 25 488 141 
L 488 750 
Q 750 597 1062 519 
Q 1375 441 1716 441 
Q 2309 441 2620 675 
Q 2931 909 2931 1356 
Q 2931 1769 2642 2001 
Q 2353 2234 1838 2234 
L 1294 2234 
L 1294 2753 
L 1863 2753 
Q 2328 2753 2575 2939 
Q 2822 3125 2822 3475 
Q 2822 3834 2567 4026 
Q 2313 4219 1838 4219 
Q 1578 4219 1281 4162 
Q 984 4106 628 3988 
L 628 4550 
Q 988 4650 1302 4700 
Q 1616 4750 1894 4750 
Q 2613 4750 3031 4423 
Q 3450 4097 3450 3541 
Q 3450 3153 3228 2886 
Q 3006 2619 2597 2516 
z
" transform="scale(0.015625)"/>
       </defs>
       <use xlink:href="#DejaVuSans-30"/>
       <use xlink:href="#DejaVuSans-2e" transform="translate(63.623047 0)"/>
       <use xlink:href="#DejaVuSans-33" transform="translate(95.410156 0)"/>
      </g>
     </g>
    </g>
    <g id="xtick_5">
     <g id="line2d_5">
      <g>
       <use xlink:href="#m32adc622c5" x="310.015456" y="228.96" style="stroke: #000000; stroke-width: 0.8"/>
      </g>
     </g>
     <g id="text_5">
      <!-- 0.4 -->
      <g transform="translate(302.063893 243.558437) scale(0.1 -0.1)">
       <defs>
        <path id="DejaVuSans-34" d="M 2419 4116 
L 825 1625 
L 2419 1625 
L 2419 4116 
z
M 2253 4666 
L 3047 4666 
L 3047 1625 
L 3713 1625 
L 3713 1100 
L 3047 1100 
L 3047 0 
L 2419 0 
L 2419 1100 
L 313 1100 
L 313 1709 
L 2253 4666 
z
" transform="scale(0.015625)"/>
       </defs>
       <use xlink:href="#DejaVuSans-30"/>
       <use xlink:href="#DejaVuSans-2e" transform="translate(63.623047 0)"/>
       <use xlink:href="#DejaVuSans-34" transform="translate(95.410156 0)"/>
      </g>
     </g>
    </g>
    <g id="xtick_6">
     <g id="line2d_6">
      <g>
       <use xlink:href="#m32adc622c5" x="374.773676" y="228.96" style="stroke: #000000; stroke-width: 0.8"/>
      </g>
     </g>
     <g id="text_6">
      <!-- 0.5 -->
      <g transform="translate(366.822114 243.558437) scale(0.1 -0.1)">
       <defs>
        <path id="DejaVuSans-35" d="M 691 4666 
L 3169 4666 
L 3169 4134 
L 1269 4134 
L 1269 2991 
Q 1406 3038 1543 3061 
Q 1681 3084 1819 3084 
Q 2600 3084 3056 2656 
Q 3513 2228 3513 1497 
Q 3513 744 3044 326 
Q 2575 -91 1722 -91 
Q 1428 -91 1123 -41 
Q 819 9 494 109 
L 494 744 
Q 775 591 1075 516 
Q 1375 441 1709 441 
Q 2250 441 2565 725 
Q 2881 1009 2881 1497 
Q 2881 1984 2565 2268 
Q 2250 2553 1709 2553 
Q 1456 2553 1204 2497 
Q 953 2441 691 2322 
L 691 4666 
z
" transform="scale(0.015625)"/>
       </defs>
       <use xlink:href="#DejaVuSans-30"/>
       <use xlink:href="#DejaVuSans-2e" transform="translate(63.623047 0)"/>
       <use xlink:href="#DejaVuSans-35" transform="translate(95.410156 0)"/>
      </g>
     </g>
    </g>
    <g id="text_7">
     <!-- y [m] -->
     <g transform="translate(199.557813 257.236562) scale(0.1 -0.1)">
      <defs>
       <path id="DejaVuSans-79" d="M 2059 -325 
Q 1816 -950 1584 -1140 
Q 1353 -1331 966 -1331 
L 506 -1331 
L 506 -850 
L 844 -850 
Q 1081 -850 1212 -737 
Q 1344 -625 1503 -206 
L 1606 56 
L 191 3500 
L 800 3500 
L 1894 763 
L 2988 3500 
L 3597 3500 
L 2059 -325 
z
" transform="scale(0.015625)"/>
       <path id="DejaVuSans-20" transform="scale(0.015625)"/>
       <path id="DejaVuSans-5b" d="M 550 4863 
L 1875 4863 
L 1875 4416 
L 1125 4416 
L 1125 -397 
L 1875 -397 
L 1875 -844 
L 550 -844 
L 550 4863 
z
" transform="scale(0.015625)"/>
       <path id="DejaVuSans-6d" d="M 3328 2828 
Q 3544 3216 3844 3400 
Q 4144 3584 4550 3584 
Q 5097 3584 5394 3201 
Q 5691 2819 5691 2113 
L 5691 0 
L 5113 0 
L 5113 2094 
Q 5113 2597 4934 2840 
Q 4756 3084 4391 3084 
Q 3944 3084 3684 2787 
Q 3425 2491 3425 1978 
L 3425 0 
L 2847 0 
L 2847 2094 
Q 2847 2600 2669 2842 
Q 2491 3084 2119 3084 
Q 1678 3084 1418 2786 
Q 1159 2488 1159 1978 
L 1159 0 
L 581 0 
L 581 3500 
L 1159 3500 
L 1159 2956 
Q 1356 3278 1631 3431 
Q 1906 3584 2284 3584 
Q 2666 3584 2933 3390 
Q 3200 3197 3328 2828 
z
" transform="scale(0.015625)"/>
       <path id="DejaVuSans-5d" d="M 1947 4863 
L 1947 -844 
L 622 -844 
L 622 -397 
L 1369 -397 
L 1369 4416 
L 622 4416 
L 622 4863 
L 1947 4863 
z
" transform="scale(0.015625)"/>
      </defs>
      <use xlink:href="#DejaVuSans-79"/>
      <use xlink:href="#DejaVuSans-20" transform="translate(59.179688 0)"/>
      <use xlink:href="#DejaVuSans-5b" transform="translate(90.966797 0)"/>
      <use xlink:href="#DejaVuSans-6d" transform="translate(129.980469 0)"/>
      <use xlink:href="#DejaVuSans-5d" transform="translate(227.392578 0)"/>
     </g>
    </g>
   </g>
   <g id="matplotlib.axis_2">
    <g id="ytick_1">
     <g id="line2d_7">
      <defs>
       <path id="me1521812e6" d="M 0 0 
L -3.5 0 
" style="stroke: #000000; stroke-width: 0.8"/>
      </defs>
      <g>
       <use xlink:href="#me1521812e6" x="45.478125" y="211.553432" style="stroke: #000000; stroke-width: 0.8"/>
      </g>
     </g>
     <g id="text_8">
      <!-- $\mathdefault{10^{1}}$ -->
      <g transform="translate(20.878125 215.352651) scale(0.1 -0.1)">
       <use xlink:href="#DejaVuSans-31" transform="translate(0 0.684375)"/>
       <use xlink:href="#DejaVuSans-30" transform="translate(63.623047 0.684375)"/>
       <use xlink:href="#DejaVuSans-31" transform="translate(128.203125 38.965625) scale(0.7)"/>
      </g>
     </g>
    </g>
    <g id="ytick_2">
     <g id="line2d_8">
      <g>
       <use xlink:href="#me1521812e6" x="45.478125" y="136.221549" style="stroke: #000000; stroke-width: 0.8"/>
      </g>
     </g>
     <g id="text_9">
      <!-- $\mathdefault{10^{2}}$ -->
      <g transform="translate(20.878125 140.020768) scale(0.1 -0.1)">
       <use xlink:href="#DejaVuSans-31" transform="translate(0 0.765625)"/>
       <use xlink:href="#DejaVuSans-30" transform="translate(63.623047 0.765625)"/>
       <use xlink:href="#DejaVuSans-32" transform="translate(128.203125 39.046875) scale(0.7)"/>
      </g>
     </g>
    </g>
    <g id="ytick_3">
     <g id="line2d_9">
      <g>
       <use xlink:href="#me1521812e6" x="45.478125" y="60.889666" style="stroke: #000000; stroke-width: 0.8"/>
      </g>
     </g>
     <g id="text_10">
      <!-- $\mathdefault{10^{3}}$ -->
      <g transform="translate(20.878125 64.688885) scale(0.1 -0.1)">
       <use xlink:href="#DejaVuSans-31" transform="translate(0 0.765625)"/>
       <use xlink:href="#DejaVuSans-30" transform="translate(63.623047 0.765625)"/>
       <use xlink:href="#DejaVuSans-33" transform="translate(128.203125 39.046875) scale(0.7)"/>
      </g>
     </g>
    </g>
    <g id="ytick_4">
     <g id="line2d_10">
      <defs>
       <path id="m1b61582445" d="M 0 0 
L -2 0 
" style="stroke: #000000; stroke-width: 0.6"/>
      </defs>
      <g>
       <use xlink:href="#m1b61582445" x="45.478125" y="228.265716" style="stroke: #000000; stroke-width: 0.6"/>
      </g>
     </g>
    </g>
    <g id="ytick_5">
     <g id="line2d_11">
      <g>
       <use xlink:href="#m1b61582445" x="45.478125" y="223.222488" style="stroke: #000000; stroke-width: 0.6"/>
      </g>
     </g>
    </g>
    <g id="ytick_6">
     <g id="line2d_12">
      <g>
       <use xlink:href="#m1b61582445" x="45.478125" y="218.853846" style="stroke: #000000; stroke-width: 0.6"/>
      </g>
     </g>
    </g>
    <g id="ytick_7">
     <g id="line2d_13">
      <g>
       <use xlink:href="#m1b61582445" x="45.478125" y="215.00043" style="stroke: #000000; stroke-width: 0.6"/>
      </g>
     </g>
    </g>
    <g id="ytick_8">
     <g id="line2d_14">
      <g>
       <use xlink:href="#m1b61582445" x="45.478125" y="188.876276" style="stroke: #000000; stroke-width: 0.6"/>
      </g>
     </g>
    </g>
    <g id="ytick_9">
     <g id="line2d_15">
      <g>
       <use xlink:href="#m1b61582445" x="45.478125" y="175.61099" style="stroke: #000000; stroke-width: 0.6"/>
      </g>
     </g>
    </g>
    <g id="ytick_10">
     <g id="line2d_16">
      <g>
       <use xlink:href="#m1b61582445" x="45.478125" y="166.199119" style="stroke: #000000; stroke-width: 0.6"/>
      </g>
     </g>
    </g>
    <g id="ytick_11">
     <g id="line2d_17">
      <g>
       <use xlink:href="#m1b61582445" x="45.478125" y="158.898706" style="stroke: #000000; stroke-width: 0.6"/>
      </g>
     </g>
    </g>
    <g id="ytick_12">
     <g id="line2d_18">
      <g>
       <use xlink:href="#m1b61582445" x="45.478125" y="152.933833" style="stroke: #000000; stroke-width: 0.6"/>
      </g>
     </g>
    </g>
    <g id="ytick_13">
     <g id="line2d_19">
      <g>
       <use xlink:href="#m1b61582445" x="45.478125" y="147.890605" style="stroke: #000000; stroke-width: 0.6"/>
      </g>
     </g>
    </g>
    <g id="ytick_14">
     <g id="line2d_20">
      <g>
       <use xlink:href="#m1b61582445" x="45.478125" y="143.521963" style="stroke: #000000; stroke-width: 0.6"/>
      </g>
     </g>
    </g>
    <g id="ytick_15">
     <g id="line2d_21">
      <g>
       <use xlink:href="#m1b61582445" x="45.478125" y="139.668547" style="stroke: #000000; stroke-width: 0.6"/>
      </g>
     </g>
    </g>
    <g id="ytick_16">
     <g id="line2d_22">
      <g>
       <use xlink:href="#m1b61582445" x="45.478125" y="113.544393" style="stroke: #000000; stroke-width: 0.6"/>
      </g>
     </g>
    </g>
    <g id="ytick_17">
     <g id="line2d_23">
      <g>
       <use xlink:href="#m1b61582445" x="45.478125" y="100.279107" style="stroke: #000000; stroke-width: 0.6"/>
      </g>
     </g>
    </g>
    <g id="ytick_18">
     <g id="line2d_24">
      <g>
       <use xlink:href="#m1b61582445" x="45.478125" y="90.867236" style="stroke: #000000; stroke-width: 0.6"/>
      </g>
     </g>
    </g>
    <g id="ytick_19">
     <g id="line2d_25">
      <g>
       <use xlink:href="#m1b61582445" x="45.478125" y="83.566823" style="stroke: #000000; stroke-width: 0.6"/>
      </g>
     </g>
    </g>
    <g id="ytick_20">
     <g id="line2d_26">
      <g>
       <use xlink:href="#m1b61582445" x="45.478125" y="77.60195" style="stroke: #000000; stroke-width: 0.6"/>
      </g>
     </g>
    </g>
    <g id="ytick_21">
     <g id="line2d_27">
      <g>
       <use xlink:href="#m1b61582445" x="45.478125" y="72.558723" style="stroke: #000000; stroke-width: 0.6"/>
      </g>
     </g>
    </g>
    <g id="ytick_22">
     <g id="line2d_28">
      <g>
       <use xlink:href="#m1b61582445" x="45.478125" y="68.19008" style="stroke: #000000; stroke-width: 0.6"/>
      </g>
     </g>
    </g>
    <g id="ytick_23">
     <g id="line2d_29">
      <g>
       <use xlink:href="#m1b61582445" x="45.478125" y="64.336664" style="stroke: #000000; stroke-width: 0.6"/>
      </g>
     </g>
    </g>
    <g id="ytick_24">
     <g id="line2d_30">
      <g>
       <use xlink:href="#m1b61582445" x="45.478125" y="38.21251" style="stroke: #000000; stroke-width: 0.6"/>
      </g>
     </g>
    </g>
    <g id="ytick_25">
     <g id="line2d_31">
      <g>
       <use xlink:href="#m1b61582445" x="45.478125" y="24.947224" style="stroke: #000000; stroke-width: 0.6"/>
      </g>
     </g>
    </g>
    <g id="ytick_26">
     <g id="line2d_32">
      <g>
       <use xlink:href="#m1b61582445" x="45.478125" y="15.535354" style="stroke: #000000; stroke-width: 0.6"/>
      </g>
     </g>
    </g>
    <g id="ytick_27">
     <g id="line2d_33">
      <g>
       <use xlink:href="#m1b61582445" x="45.478125" y="8.23494" style="stroke: #000000; stroke-width: 0.6"/>
      </g>
     </g>
    </g>
    <g id="text_11">
     <!-- [counts] -->
     <g transform="translate(14.798438 138.6925) rotate(-90) scale(0.1 -0.1)">
      <defs>
       <path id="DejaVuSans-63" d="M 3122 3366 
L 3122 2828 
Q 2878 2963 2633 3030 
Q 2388 3097 2138 3097 
Q 1578 3097 1268 2742 
Q 959 2388 959 1747 
Q 959 1106 1268 751 
Q 1578 397 2138 397 
Q 2388 397 2633 464 
Q 2878 531 3122 666 
L 3122 134 
Q 2881 22 2623 -34 
Q 2366 -91 2075 -91 
Q 1284 -91 818 406 
Q 353 903 353 1747 
Q 353 2603 823 3093 
Q 1294 3584 2113 3584 
Q 2378 3584 2631 3529 
Q 2884 3475 3122 3366 
z
" transform="scale(0.015625)"/>
       <path id="DejaVuSans-6f" d="M 1959 3097 
Q 1497 3097 1228 2736 
Q 959 2375 959 1747 
Q 959 1119 1226 758 
Q 1494 397 1959 397 
Q 2419 397 2687 759 
Q 2956 1122 2956 1747 
Q 2956 2369 2687 2733 
Q 2419 3097 1959 3097 
z
M 1959 3584 
Q 2709 3584 3137 3096 
Q 3566 2609 3566 1747 
Q 3566 888 3137 398 
Q 2709 -91 1959 -91 
Q 1206 -91 779 398 
Q 353 888 353 1747 
Q 353 2609 779 3096 
Q 1206 3584 1959 3584 
z
" transform="scale(0.015625)"/>
       <path id="DejaVuSans-75" d="M 544 1381 
L 544 3500 
L 1119 3500 
L 1119 1403 
Q 1119 906 1312 657 
Q 1506 409 1894 409 
Q 2359 409 2629 706 
Q 2900 1003 2900 1516 
L 2900 3500 
L 3475 3500 
L 3475 0 
L 2900 0 
L 2900 538 
Q 2691 219 2414 64 
Q 2138 -91 1772 -91 
Q 1169 -91 856 284 
Q 544 659 544 1381 
z
M 1991 3584 
L 1991 3584 
z
" transform="scale(0.015625)"/>
       <path id="DejaVuSans-6e" d="M 3513 2113 
L 3513 0 
L 2938 0 
L 2938 2094 
Q 2938 2591 2744 2837 
Q 2550 3084 2163 3084 
Q 1697 3084 1428 2787 
Q 1159 2491 1159 1978 
L 1159 0 
L 581 0 
L 581 3500 
L 1159 3500 
L 1159 2956 
Q 1366 3272 1645 3428 
Q 1925 3584 2291 3584 
Q 2894 3584 3203 3211 
Q 3513 2838 3513 2113 
z
" transform="scale(0.015625)"/>
       <path id="DejaVuSans-74" d="M 1172 4494 
L 1172 3500 
L 2356 3500 
L 2356 3053 
L 1172 3053 
L 1172 1153 
Q 1172 725 1289 603 
Q 1406 481 1766 481 
L 2356 481 
L 2356 0 
L 1766 0 
Q 1100 0 847 248 
Q 594 497 594 1153 
L 594 3053 
L 172 3053 
L 172 3500 
L 594 3500 
L 594 4494 
L 1172 4494 
z
" transform="scale(0.015625)"/>
       <path id="DejaVuSans-73" d="M 2834 3397 
L 2834 2853 
Q 2591 2978 2328 3040 
Q 2066 3103 1784 3103 
Q 1356 3103 1142 2972 
Q 928 2841 928 2578 
Q 928 2378 1081 2264 
Q 1234 2150 1697 2047 
L 1894 2003 
Q 2506 1872 2764 1633 
Q 3022 1394 3022 966 
Q 3022 478 2636 193 
Q 2250 -91 1575 -91 
Q 1294 -91 989 -36 
Q 684 19 347 128 
L 347 722 
Q 666 556 975 473 
Q 1284 391 1588 391 
Q 1994 391 2212 530 
Q 2431 669 2431 922 
Q 2431 1156 2273 1281 
Q 2116 1406 1581 1522 
L 1381 1569 
Q 847 1681 609 1914 
Q 372 2147 372 2553 
Q 372 3047 722 3315 
Q 1072 3584 1716 3584 
Q 2034 3584 2315 3537 
Q 2597 3491 2834 3397 
z
" transform="scale(0.015625)"/>
      </defs>
      <use xlink:href="#DejaVuSans-5b"/>
      <use xlink:href="#DejaVuSans-63" transform="translate(39.013672 0)"/>
      <use xlink:href="#DejaVuSans-6f" transform="translate(93.994141 0)"/>
      <use xlink:href="#DejaVuSans-75" transform="translate(155.175781 0)"/>
      <use xlink:href="#DejaVuSans-6e" transform="translate(218.554688 0)"/>
      <use xlink:href="#DejaVuSans-74" transform="translate(281.933594 0)"/>
      <use xlink:href="#DejaVuSans-73" transform="translate(321.142578 0)"/>
      <use xlink:href="#DejaVuSans-5d" transform="translate(373.242188 0)"/>
     </g>
    </g>
   </g>
   <g id="patch_3">
    <path d="M 45.478125 228.96 
L 45.478125 7.2 
" style="fill: none; stroke: #000000; stroke-width: 0.8; stroke-linejoin: miter; stroke-linecap: square"/>
   </g>
   <g id="patch_4">
    <path d="M 380.278125 228.96 
L 380.278125 7.2 
" style="fill: none; stroke: #000000; stroke-width: 0.8; stroke-linejoin: miter; stroke-linecap: square"/>
   </g>
   <g id="patch_5">
    <path d="M 45.478125 228.96 
L 380.278125 228.96 
" style="fill: none; stroke: #000000; stroke-width: 0.8; stroke-linejoin: miter; stroke-linecap: square"/>
   </g>
   <g id="patch_6">
    <path d="M 45.478125 7.2 
L 380.278125 7.2 
" style="fill: none; stroke: #000000; stroke-width: 0.8; stroke-linejoin: miter; stroke-linecap: square"/>
   </g>
   <g id="line2d_34">
    <path d="M 60.696307 17.28 
L 62.218125 17.28 
L 62.218125 19.074661 
L 65.261761 19.116335 
L 65.261761 20.809753 
L 66.78358 20.809753 
L 66.78358 22.250613 
L 68.305398 22.250613 
L 68.305398 22.686264 
L 69.827216 22.686264 
L 69.827216 25.24597 
L 71.349034 25.24597 
L 71.349034 23.423456 
L 72.870852 23.423456 
L 72.870852 24.773018 
L 74.39267 24.773018 
L 74.39267 26.572136 
L 75.914489 26.572136 
L 75.914489 28.256625 
L 77.436307 28.256625 
L 77.436307 30.021517 
L 80.479943 29.997093 
L 80.479943 30.892449 
L 82.001761 30.892449 
L 82.001761 36.053796 
L 83.52358 36.053796 
L 83.52358 40.718706 
L 85.045398 40.718706 
L 85.045398 35.434268 
L 86.567216 35.434268 
L 86.567216 40.092102 
L 88.089034 40.092102 
L 88.089034 41.463885 
L 89.610852 41.463885 
L 89.610852 41.922268 
L 91.13267 41.922268 
L 91.13267 47.259701 
L 92.654489 47.259701 
L 92.654489 46.175154 
L 94.176307 46.175154 
L 94.176307 51.440323 
L 95.698125 51.440323 
L 95.698125 54.07477 
L 97.219943 54.07477 
L 97.219943 62.416259 
L 98.741761 62.416259 
L 98.741761 72.919478 
L 100.26358 72.919478 
L 100.26358 79.458334 
L 101.785398 79.458334 
L 101.785398 94.759431 
L 103.307216 94.759431 
L 103.307216 115.060763 
L 104.829034 115.060763 
L 104.829034 129.184335 
L 106.350852 129.184335 
L 106.350852 158.064598 
L 107.87267 158.064598 
L 107.87267 139.392492 
L 109.394489 139.392492 
L 109.394489 136.049407 
L 110.916307 136.049407 
L 110.916307 113.823979 
L 112.438125 113.823979 
L 112.438125 103.552717 
L 113.959943 103.552717 
L 113.959943 107.558442 
L 115.481761 107.558442 
L 115.481761 103.532129 
L 117.00358 103.532129 
L 117.00358 105.080204 
L 118.525398 105.080204 
L 118.525398 113.407721 
L 120.047216 113.407721 
L 120.047216 121.948085 
L 121.569034 121.948085 
L 121.569034 115.318499 
L 123.090852 115.318499 
L 123.090852 122.979924 
L 124.61267 122.979924 
L 124.61267 124.505506 
L 126.134489 124.505506 
L 126.134489 132.346671 
L 127.656307 132.346671 
L 127.656307 130.809331 
L 129.178125 130.809331 
L 129.178125 148.101053 
L 130.699943 148.101053 
L 130.699943 152.132779 
L 132.221761 152.132779 
L 132.221761 161.139246 
L 133.74358 161.139246 
L 133.74358 169.004779 
L 135.265398 169.004779 
L 135.265398 168.23399 
L 136.787216 168.23399 
L 136.787216 179.271031 
L 138.309034 179.271031 
L 138.309034 170.569152 
L 139.830852 170.569152 
L 139.830852 181.633832 
L 141.35267 181.633832 
L 141.35267 181.74985 
L 142.874489 181.74985 
L 142.874489 184.542919 
L 144.396307 184.542919 
L 144.396307 178.967257 
L 145.918125 178.967257 
L 145.918125 184.765694 
L 147.439943 184.765694 
L 147.439943 188.059804 
L 148.961761 188.059804 
L 148.961761 180.38463 
L 150.48358 180.38463 
L 150.48358 176.036101 
L 152.005398 176.036101 
L 152.005398 173.429657 
L 153.527216 173.429657 
L 153.527216 166.882422 
L 155.049034 166.882422 
L 155.049034 175.827944 
L 156.570852 175.827944 
L 156.570852 172.128084 
L 158.09267 172.128084 
L 158.09267 173.709654 
L 159.614489 173.709654 
L 159.614489 168.609213 
L 162.658125 168.71508 
L 162.658125 164.078412 
L 164.179943 164.078412 
L 164.179943 168.742558 
L 165.701761 168.742558 
L 165.701761 176.014018 
L 167.22358 176.014018 
L 167.22358 163.870305 
L 168.745398 163.870305 
L 168.745398 171.837928 
L 170.267216 171.837928 
L 170.267216 172.302219 
L 171.789034 172.302219 
L 171.789034 166.996854 
L 173.310852 166.996854 
L 173.310852 164.508544 
L 174.83267 164.508544 
L 174.83267 182.222748 
L 176.354489 182.222748 
L 176.354489 167.158009 
L 177.876307 167.158009 
L 177.876307 181.494427 
L 179.398125 181.494427 
L 179.398125 169.767021 
L 180.919943 169.767021 
L 180.919943 175.049124 
L 182.441761 175.049124 
L 182.441761 175.276189 
L 183.96358 175.276189 
L 183.96358 167.39101 
L 185.485398 167.39101 
L 185.485398 183.550174 
L 187.007216 183.550174 
L 187.007216 187.75705 
L 188.529034 187.75705 
L 188.529034 180.855934 
L 190.050852 180.855934 
L 190.050852 187.606418 
L 191.57267 187.606418 
L 191.57267 185.881387 
L 193.094489 185.881387 
L 193.094489 193.88477 
L 194.616307 193.88477 
L 194.616307 183.226913 
L 196.138125 183.226913 
L 196.138125 194.233122 
L 197.659943 194.233122 
L 197.659943 204.53632 
L 199.181761 204.53632 
L 199.181761 193.260453 
L 200.70358 193.260453 
L 200.70358 190.297554 
L 202.225398 190.297554 
L 202.225398 196.771808 
L 203.747216 196.771808 
L 203.747216 192.328953 
L 205.269034 192.328953 
L 205.269034 192.656144 
L 206.790852 192.656144 
L 206.790852 191.509568 
L 208.31267 191.509568 
L 208.31267 198.829601 
L 209.834489 198.829601 
L 209.834489 190.836934 
L 211.356307 190.836934 
L 211.356307 191.346749 
L 212.878125 191.346749 
L 212.878125 198.400293 
L 214.399943 198.400293 
L 214.399943 192.030171 
L 215.921761 192.030171 
L 215.921761 195.76368 
L 217.44358 195.76368 
L 217.44358 202.381352 
L 218.965398 202.381352 
L 218.965398 188.239628 
L 220.487216 188.239628 
L 220.487216 208.767757 
L 222.009034 208.767757 
L 222.009034 195.191447 
L 223.530852 195.191447 
L 223.530852 190.645223 
L 225.05267 190.645223 
L 225.05267 187.266096 
L 226.574489 187.266096 
L 226.574489 188.943133 
L 228.096307 188.943133 
L 228.096307 186.748824 
L 229.618125 186.748824 
L 229.618125 197.677086 
L 231.139943 197.677086 
L 231.139943 203.410391 
L 232.661761 203.410391 
L 232.661761 184.492073 
L 234.18358 184.492073 
L 234.18358 196.417417 
L 235.705398 196.417417 
L 235.705398 196.940323 
L 237.227216 196.940323 
L 237.227216 197.926565 
L 238.749034 197.926565 
L 238.749034 200.640982 
L 240.270852 200.640982 
L 240.270852 189.218549 
L 241.79267 189.218549 
L 241.79267 195.550979 
L 243.314489 195.550979 
L 243.314489 188.475114 
L 244.836307 188.475114 
L 244.836307 209.543216 
L 246.358125 209.543216 
L 246.358125 193.713051 
L 247.879943 193.713051 
L 247.879943 199.65163 
L 249.401761 199.65163 
L 249.401761 195.530942 
L 250.92358 195.530942 
L 250.92358 191.071659 
L 252.445398 191.071659 
L 252.445398 195.408963 
L 253.967216 195.408963 
L 253.967216 195.746811 
L 255.489034 195.746811 
L 255.489034 198.21649 
L 257.010852 198.21649 
L 257.010852 203.072418 
L 258.53267 203.072418 
L 258.53267 194.595243 
L 260.054489 194.595243 
L 260.054489 190.168027 
L 261.576307 190.168027 
L 261.576307 197.455552 
L 263.098125 197.455552 
L 263.098125 194.641829 
L 264.619943 194.641829 
L 264.619943 183.277579 
L 266.141761 183.277579 
L 266.141761 203.580701 
L 267.66358 203.580701 
L 267.66358 203.89929 
L 269.185398 203.89929 
L 269.185398 193.727181 
L 270.707216 193.727181 
L 270.707216 199.290432 
L 272.229034 199.290432 
L 272.229034 198.450333 
L 273.750852 198.450333 
L 273.750852 216.169214 
L 275.27267 216.169214 
L 275.27267 198.181432 
L 276.794489 198.181432 
L 276.794489 199.89228 
L 278.316307 199.89228 
L 278.316307 190.384884 
L 279.838125 190.384884 
L 279.838125 200.352433 
L 281.359943 200.352433 
L 281.359943 194.242239 
L 282.881761 194.242239 
L 282.881761 206.137744 
L 284.40358 206.137744 
L 284.40358 201.290366 
L 285.925398 201.290366 
L 285.925398 206.310126 
L 287.447216 206.310126 
L 287.447216 192.516219 
L 288.969034 192.516219 
L 288.969034 210.164355 
L 290.490852 210.164355 
L 290.490852 205.239668 
L 292.01267 205.239668 
L 292.01267 197.364378 
L 293.534489 197.364378 
L 293.534489 197.573219 
L 295.056307 197.573219 
L 295.056307 200.543684 
L 296.578125 200.543684 
L 296.578125 198.883837 
L 298.099943 198.883837 
L 298.099943 205.080001 
L 299.621761 205.080001 
L 299.621761 206.682557 
L 301.14358 206.682557 
L 301.14358 200.329787 
L 302.665398 200.329787 
L 302.665398 194.071865 
L 304.187216 194.071865 
L 304.187216 196.304662 
L 305.709034 196.304662 
L 305.709034 196.000571 
L 307.230852 196.000571 
L 307.230852 201.14885 
L 308.75267 201.14885 
L 308.75267 195.583474 
L 310.274489 195.583474 
L 310.274489 205.989653 
L 311.796307 205.989653 
L 311.796307 202.275174 
L 313.318125 202.275174 
L 313.318125 206.272498 
L 314.839943 206.272498 
L 314.839943 209.096406 
L 316.361761 209.096406 
L 316.361761 210.321376 
L 317.88358 210.321376 
L 317.88358 199.105171 
L 319.405398 199.105171 
L 319.405398 198.206574 
L 320.927216 198.206574 
L 320.927216 193.04853 
L 322.449034 193.04853 
L 322.449034 202.497766 
L 323.970852 202.497766 
L 323.970852 195.906597 
L 325.49267 195.906597 
L 325.49267 213.785468 
L 327.014489 213.785468 
L 327.014489 210.861761 
L 328.536307 210.861761 
L 328.536307 203.219297 
L 330.058125 203.219297 
L 330.058125 204.720482 
L 331.579943 204.720482 
L 331.579943 189.083282 
L 333.101761 189.083282 
L 333.101761 202.821626 
L 334.62358 202.821626 
L 334.62358 216.436251 
L 336.145398 216.436251 
L 336.145398 193.442352 
L 337.667216 193.442352 
L 337.667216 202.468777 
L 339.189034 202.468777 
L 339.189034 201.089959 
L 340.710852 201.089959 
L 340.710852 196.938512 
L 342.23267 196.938512 
L 342.23267 203.87972 
L 343.754489 203.87972 
L 343.754489 203.026914 
L 345.276307 203.026914 
L 345.276307 203.559714 
L 346.798125 203.559714 
L 346.798125 205.352711 
L 348.319943 205.352711 
L 348.319943 196.036481 
L 349.841761 196.036481 
L 349.841761 195.272392 
L 351.36358 195.272392 
L 351.36358 197.949632 
L 352.885398 197.949632 
L 352.885398 211.112533 
L 354.407216 211.112533 
L 354.407216 197.099679 
L 355.929034 197.099679 
L 355.929034 189.329613 
L 357.450852 189.329613 
L 357.450852 218.88 
L 358.97267 218.88 
L 358.97267 193.533583 
L 360.494489 193.533583 
L 360.494489 217.789659 
L 362.016307 217.789659 
L 362.016307 204.928894 
L 363.538125 204.928894 
L 363.538125 196.010111 
L 365.059943 196.010111 
L 365.059943 196.010111 
" clip-path="url(#p8881cb4de0)" style="fill: none; stroke: #1f77b4; stroke-width: 1.5; stroke-linecap: square"/>
   </g>
  </g>
 </g>
 <defs>
  <clipPath id="p8881cb4de0">
   <rect x="45.478125" y="7.2" width="334.8" height="221.76"/>
  </clipPath>
 </defs>
</svg>