<?xml version="1.0" encoding="utf-8" standalone="no"?>
<!DOCTYPE svg PUBLIC "-//W3C//DTD SVG 1.1//EN"
  "http://www.w3.org/Graphics/SVG/1.1/DTD/svg11.dtd">
<svg xmlns:xlink="http://www.w3.org/1999/xlink" width="388.965625pt" height="266.794375pt" viewBox="0 0 388.965625 266.794375" xmlns="http://www.w3.org/2000/svg" version="1.1">
 <metadata>
  <rdf:RDF xmlns:dc="http://purl.org/dc/elements/1.1/" xmlns:cc="http://creativecommons.org/ns#" xmlns:rdf="http://www.w3.org/1999/02/22-rdf-syntax-ns#">
   <cc:Work>
    <dc:type rdf:resource="http://purl.org/dc/dcmitype/StillImage"/>
    <dc:date>2025-08-22T20:09:27.617814</dc:date>
    <dc:format>image/svg+xml</dc:format>
    <dc:creator>
     <cc:Agent>
      <dc:title>Matplotlib v3.10.5, https://matplotlib.org/</dc:title>
     </cc:Agent>
    </dc:creator>
   </cc:Work>
  </rdf:RDF>
 </metadata>
 <defs>
  <style type="text/css">*{stroke-linejoin: round; stroke-linecap: butt}</style>
 </defs>
 <g id="figure_1">
  <g id="patch_1">
   <path d="M 0 266.794375 
L 388.965625 266.794375 
L 388.965625 0 
L 0 0 
z
" style="fill: #ffffff"/>
  </g>
  <g id="axes_1">
   <g id="patch_2">
    <path d="M 46.965625 228.96 
L 381.765625 228.96 
L 381.765625 7.2 
L 46.965625 7.2 
z
" style="fill: #ffffff"/>
   </g>
   <g id="matplotlib.axis_1">
    <g id="xtick_1">
     <g id="line2d_1">
      <defs>
       <path id="m4851af73cf" d="M 0 0 
L 0 3.5 
" style="stroke: #000000; stroke-width: 0.8"/>
      </defs>
      <g>
       <use xlink:href="#m4851af73cf" x="47.298998" y="228.96" style="stroke: #000000; stroke-width: 0.8"/>
      </g>
     </g>
     <g id="text_1">
      <!-- −0.0125 -->
      <g transform="translate(25.613841 243.558437) scale(0.1 -0.1)">
       <defs>
        <path id="DejaVuSans-2212" d="M 678 2272 
L 4684 2272 
L 4684 1741 
L 678 1741 
L 678 2272 
z
" transform="scale(0.015625)"/>
        <path id="DejaVuSans-30" d="M 2034 4250 
Q 1547 4250 1301 3770 
Q 1056 3291 1056 2328 
Q 1056 1369 1301 889 
Q 1547 409 2034 409 
Q 2525 409 2770 889 
Q 3016 1369 3016 2328 
Q 3016 3291 2770 3770 
Q 2525 4250 2034 4250 
z
M 2034 4750 
Q 2819 4750 3233 4129 
Q 3647 3509 3647 2328 
Q 3647 1150 3233 529 
Q 2819 -91 2034 -91 
Q 1250 -91 836 529 
Q 422 1150 422 2328 
Q 422 3509 836 4129 
Q 1250 4750 2034 4750 
z
" transform="scale(0.015625)"/>
        <path id="DejaVuSans-2e" d="M 684 794 
L 1344 794 
L 1344 0 
L 684 0 
L 684 794 
z
" transform="scale(0.015625)"/>
        <path id="DejaVuSans-31" d="M 794 531 
L 1825 531 
L 1825 4091 
L 703 3866 
L 703 4441 
L 1819 4666 
L 2450 4666 
L 2450 531 
L 3481 531 
L 3481 0 
L 794 0 
L 794 531 
z
" transform="scale(0.015625)"/>
        <path id="DejaVuSans-32" d="M 1228 531 
L 3431 531 
L 3431 0 
L 469 0 
L 469 531 
Q 828 903 1448 1529 
Q 2069 2156 2228 2338 
Q 2531 2678 2651 2914 
Q 2772 3150 2772 3378 
Q 2772 3750 2511 3984 
Q 2250 4219 1831 4219 
Q 1534 4219 1204 4116 
Q 875 4013 500 3803 
L 500 4441 
Q 881 4594 1212 4672 
Q 1544 4750 1819 4750 
Q 2544 4750 2975 4387 
Q 3406 4025 3406 3419 
Q 3406 3131 3298 2873 
Q 3191 2616 2906 2266 
Q 2828 2175 2409 1742 
Q 1991 1309 1228 531 
z
" transform="scale(0.015625)"/>
        <path id="DejaVuSans-35" d="M 691 4666 
L 3169 4666 
L 3169 4134 
L 1269 4134 
L 1269 2991 
Q 1406 3038 1543 3061 
Q 1681 3084 1819 3084 
Q 2600 3084 3056 2656 
Q 3513 2228 3513 1497 
Q 3513 744 3044 326 
Q 2575 -91 1722 -91 
Q 1428 -91 1123 -41 
Q 819 9 494 109 
L 494 744 
Q 775 591 1075 516 
Q 1375 441 1709 441 
Q 2250 441 2565 725 
Q 2881 1009 2881 1497 
Q 2881 1984 2565 2268 
Q 2250 2553 1709 2553 
Q 1456 2553 1204 2497 
Q 953 2441 691 2322 
L 691 4666 
z
" transform="scale(0.015625)"/>
       </defs>
       <use xlink:href="#DejaVuSans-2212"/>
       <use xlink:href="#DejaVuSans-30" transform="translate(83.789062 0)"/>
       <use xlink:href="#DejaVuSans-2e" transform="translate(147.412109 0)"/>
       <use xlink:href="#DejaVuSans-30" transform="translate(179.199219 0)"/>
       <use xlink:href="#DejaVuSans-31" transform="translate(242.822266 0)"/>
       <use xlink:href="#DejaVuSans-32" transform="translate(306.445312 0)"/>
       <use xlink:href="#DejaVuSans-35" transform="translate(370.068359 0)"/>
      </g>
     </g>
    </g>
    <g id="xtick_2">
     <g id="line2d_2">
      <g>
       <use xlink:href="#m4851af73cf" x="89.374323" y="228.96" style="stroke: #000000; stroke-width: 0.8"/>
      </g>
     </g>
     <g id="text_2">
      <!-- −0.0100 -->
      <g transform="translate(67.689167 243.558437) scale(0.1 -0.1)">
       <use xlink:href="#DejaVuSans-2212"/>
       <use xlink:href="#DejaVuSans-30" transform="translate(83.789062 0)"/>
       <use xlink:href="#DejaVuSans-2e" transform="translate(147.412109 0)"/>
       <use xlink:href="#DejaVuSans-30" transform="translate(179.199219 0)"/>
       <use xlink:href="#DejaVuSans-31" transform="translate(242.822266 0)"/>
       <use xlink:href="#DejaVuSans-30" transform="translate(306.445312 0)"/>
       <use xlink:href="#DejaVuSans-30" transform="translate(370.068359 0)"/>
      </g>
     </g>
    </g>
    <g id="xtick_3">
     <g id="line2d_3">
      <g>
       <use xlink:href="#m4851af73cf" x="131.449649" y="228.96" style="stroke: #000000; stroke-width: 0.8"/>
      </g>
     </g>
     <g id="text_3">
      <!-- −0.0075 -->
      <g transform="translate(109.764493 243.558437) scale(0.1 -0.1)">
       <defs>
        <path id="DejaVuSans-37" d="M 525 4666 
L 3525 4666 
L 3525 4397 
L 1831 0 
L 1172 0 
L 2766 4134 
L 525 4134 
L 525 4666 
z
" transform="scale(0.015625)"/>
       </defs>
       <use xlink:href="#DejaVuSans-2212"/>
       <use xlink:href="#DejaVuSans-30" transform="translate(83.789062 0)"/>
       <use xlink:href="#DejaVuSans-2e" transform="translate(147.412109 0)"/>
       <use xlink:href="#DejaVuSans-30" transform="translate(179.199219 0)"/>
       <use xlink:href="#DejaVuSans-30" transform="translate(242.822266 0)"/>
       <use xlink:href="#DejaVuSans-37" transform="translate(306.445312 0)"/>
       <use xlink:href="#DejaVuSans-35" transform="translate(370.068359 0)"/>
      </g>
     </g>
    </g>
    <g id="xtick_4">
     <g id="line2d_4">
      <g>
       <use xlink:href="#m4851af73cf" x="173.524975" y="228.96" style="stroke: #000000; stroke-width: 0.8"/>
      </g>
     </g>
     <g id="text_4">
      <!-- −0.0050 -->
      <g transform="translate(151.839819 243.558437) scale(0.1 -0.1)">
       <use xlink:href="#DejaVuSans-2212"/>
       <use xlink:href="#DejaVuSans-30" transform="translate(83.789062 0)"/>
       <use xlink:href="#DejaVuSans-2e" transform="translate(147.412109 0)"/>
       <use xlink:href="#DejaVuSans-30" transform="translate(179.199219 0)"/>
       <use xlink:href="#DejaVuSans-30" transform="translate(242.822266 0)"/>
       <use xlink:href="#DejaVuSans-35" transform="translate(306.445312 0)"/>
       <use xlink:href="#DejaVuSans-30" transform="translate(370.068359 0)"/>
      </g>
     </g>
    </g>
    <g id="xtick_5">
     <g id="line2d_5">
      <g>
       <use xlink:href="#m4851af73cf" x="215.600301" y="228.96" style="stroke: #000000; stroke-width: 0.8"/>
      </g>
     </g>
     <g id="text_5">
      <!-- −0.0025 -->
      <g transform="translate(193.915145 243.558437) scale(0.1 -0.1)">
       <use xlink:href="#DejaVuSans-2212"/>
       <use xlink:href="#DejaVuSans-30" transform="translate(83.789062 0)"/>
       <use xlink:href="#DejaVuSans-2e" transform="translate(147.412109 0)"/>
       <use xlink:href="#DejaVuSans-30" transform="translate(179.199219 0)"/>
       <use xlink:href="#DejaVuSans-30" transform="translate(242.822266 0)"/>
       <use xlink:href="#DejaVuSans-32" transform="translate(306.445312 0)"/>
       <use xlink:href="#DejaVuSans-35" transform="translate(370.068359 0)"/>
      </g>
     </g>
    </g>
    <g id="xtick_6">
     <g id="line2d_6">
      <g>
       <use xlink:href="#m4851af73cf" x="257.675627" y="228.96" style="stroke: #000000; stroke-width: 0.8"/>
      </g>
     </g>
     <g id="text_6">
      <!-- 0.0000 -->
      <g transform="translate(240.180315 243.558437) scale(0.1 -0.1)">
       <use xlink:href="#DejaVuSans-30"/>
       <use xlink:href="#DejaVuSans-2e" transform="translate(63.623047 0)"/>
       <use xlink:href="#DejaVuSans-30" transform="translate(95.410156 0)"/>
       <use xlink:href="#DejaVuSans-30" transform="translate(159.033203 0)"/>
       <use xlink:href="#DejaVuSans-30" transform="translate(222.65625 0)"/>
       <use xlink:href="#DejaVuSans-30" transform="translate(286.279297 0)"/>
      </g>
     </g>
    </g>
    <g id="xtick_7">
     <g id="line2d_7">
      <g>
       <use xlink:href="#m4851af73cf" x="299.750953" y="228.96" style="stroke: #000000; stroke-width: 0.8"/>
      </g>
     </g>
     <g id="text_7">
      <!-- 0.0025 -->
      <g transform="translate(282.255641 243.558437) scale(0.1 -0.1)">
       <use xlink:href="#DejaVuSans-30"/>
       <use xlink:href="#DejaVuSans-2e" transform="translate(63.623047 0)"/>
       <use xlink:href="#DejaVuSans-30" transform="translate(95.410156 0)"/>
       <use xlink:href="#DejaVuSans-30" transform="translate(159.033203 0)"/>
       <use xlink:href="#DejaVuSans-32" transform="translate(222.65625 0)"/>
       <use xlink:href="#DejaVuSans-35" transform="translate(286.279297 0)"/>
      </g>
     </g>
    </g>
    <g id="xtick_8">
     <g id="line2d_8">
      <g>
       <use xlink:href="#m4851af73cf" x="341.826279" y="228.96" style="stroke: #000000; stroke-width: 0.8"/>
      </g>
     </g>
     <g id="text_8">
      <!-- 0.0050 -->
      <g transform="translate(324.330967 243.558437) scale(0.1 -0.1)">
       <use xlink:href="#DejaVuSans-30"/>
       <use xlink:href="#DejaVuSans-2e" transform="translate(63.623047 0)"/>
       <use xlink:href="#DejaVuSans-30" transform="translate(95.410156 0)"/>
       <use xlink:href="#DejaVuSans-30" transform="translate(159.033203 0)"/>
       <use xlink:href="#DejaVuSans-35" transform="translate(222.65625 0)"/>
       <use xlink:href="#DejaVuSans-30" transform="translate(286.279297 0)"/>
      </g>
     </g>
    </g>
    <g id="text_9">
     <!-- energy_transfer [meV] -->
     <g transform="translate(157.839063 257.236562) scale(0.1 -0.1)">
      <defs>
       <path id="DejaVuSans-65" d="M 3597 1894 
L 3597 1613 
L 953 1613 
Q 991 1019 1311 708 
Q 1631 397 2203 397 
Q 2534 397 2845 478 
Q 3156 559 3463 722 
L 3463 178 
Q 3153 47 2828 -22 
Q 2503 -91 2169 -91 
Q 1331 -91 842 396 
Q 353 884 353 1716 
Q 353 2575 817 3079 
Q 1281 3584 2069 3584 
Q 2775 3584 3186 3129 
Q 3597 2675 3597 1894 
z
M 3022 2063 
Q 3016 2534 2758 2815 
Q 2500 3097 2075 3097 
Q 1594 3097 1305 2825 
Q 1016 2553 972 2059 
L 3022 2063 
z
" transform="scale(0.015625)"/>
       <path id="DejaVuSans-6e" d="M 3513 2113 
L 3513 0 
L 2938 0 
L 2938 2094 
Q 2938 2591 2744 2837 
Q 2550 3084 2163 3084 
Q 1697 3084 1428 2787 
Q 1159 2491 1159 1978 
L 1159 0 
L 581 0 
L 581 3500 
L 1159 3500 
L 1159 2956 
Q 1366 3272 1645 3428 
Q 1925 3584 2291 3584 
Q 2894 3584 3203 3211 
Q 3513 2838 3513 2113 
z
" transform="scale(0.015625)"/>
       <path id="DejaVuSans-72" d="M 2631 2963 
Q 2534 3019 2420 3045 
Q 2306 3072 2169 3072 
Q 1681 3072 1420 2755 
Q 1159 2438 1159 1844 
L 1159 0 
L 581 0 
L 581 3500 
L 1159 3500 
L 1159 2956 
Q 1341 3275 1631 3429 
Q 1922 3584 2338 3584 
Q 2397 3584 2469 3576 
Q 2541 3569 2628 3553 
L 2631 2963 
z
" transform="scale(0.015625)"/>
       <path id="DejaVuSans-67" d="M 2906 1791 
Q 2906 2416 2648 2759 
Q 2391 3103 1925 3103 
Q 1463 3103 1205 2759 
Q 947 2416 947 1791 
Q 947 1169 1205 825 
Q 1463 481 1925 481 
Q 2391 481 2648 825 
Q 2906 1169 2906 1791 
z
M 3481 434 
Q 3481 -459 3084 -895 
Q 2688 -1331 1869 -1331 
Q 1566 -1331 1297 -1286 
Q 1028 -1241 775 -1147 
L 775 -588 
Q 1028 -725 1275 -790 
Q 1522 -856 1778 -856 
Q 2344 -856 2625 -561 
Q 2906 -266 2906 331 
L 2906 616 
Q 2728 306 2450 153 
Q 2172 0 1784 0 
Q 1141 0 747 490 
Q 353 981 353 1791 
Q 353 2603 747 3093 
Q 1141 3584 1784 3584 
Q 2172 3584 2450 3431 
Q 2728 3278 2906 2969 
L 2906 3500 
L 3481 3500 
L 3481 434 
z
" transform="scale(0.015625)"/>
       <path id="DejaVuSans-79" d="M 2059 -325 
Q 1816 -950 1584 -1140 
Q 1353 -1331 966 -1331 
L 506 -1331 
L 506 -850 
L 844 -850 
Q 1081 -850 1212 -737 
Q 1344 -625 1503 -206 
L 1606 56 
L 191 3500 
L 800 3500 
L 1894 763 
L 2988 3500 
L 3597 3500 
L 2059 -325 
z
" transform="scale(0.015625)"/>
       <path id="DejaVuSans-5f" d="M 3263 -1063 
L 3263 -1509 
L -63 -1509 
L -63 -1063 
L 3263 -1063 
z
" transform="scale(0.015625)"/>
       <path id="DejaVuSans-74" d="M 1172 4494 
L 1172 3500 
L 2356 3500 
L 2356 3053 
L 1172 3053 
L 1172 1153 
Q 1172 725 1289 603 
Q 1406 481 1766 481 
L 2356 481 
L 2356 0 
L 1766 0 
Q 1100 0 847 248 
Q 594 497 594 1153 
L 594 3053 
L 172 3053 
L 172 3500 
L 594 3500 
L 594 4494 
L 1172 4494 
z
" transform="scale(0.015625)"/>
       <path id="DejaVuSans-61" d="M 2194 1759 
Q 1497 1759 1228 1600 
Q 959 1441 959 1056 
Q 959 750 1161 570 
Q 1363 391 1709 391 
Q 2188 391 2477 730 
Q 2766 1069 2766 1631 
L 2766 1759 
L 2194 1759 
z
M 3341 1997 
L 3341 0 
L 2766 0 
L 2766 531 
Q 2569 213 2275 61 
Q 1981 -91 1556 -91 
Q 1019 -91 701 211 
Q 384 513 384 1019 
Q 384 1609 779 1909 
Q 1175 2209 1959 2209 
L 2766 2209 
L 2766 2266 
Q 2766 2663 2505 2880 
Q 2244 3097 1772 3097 
Q 1472 3097 1187 3025 
Q 903 2953 641 2809 
L 641 3341 
Q 956 3463 1253 3523 
Q 1550 3584 1831 3584 
Q 2591 3584 2966 3190 
Q 3341 2797 3341 1997 
z
" transform="scale(0.015625)"/>
       <path id="DejaVuSans-73" d="M 2834 3397 
L 2834 2853 
Q 2591 2978 2328 3040 
Q 2066 3103 1784 3103 
Q 1356 3103 1142 2972 
Q 928 2841 928 2578 
Q 928 2378 1081 2264 
Q 1234 2150 1697 2047 
L 1894 2003 
Q 2506 1872 2764 1633 
Q 3022 1394 3022 966 
Q 3022 478 2636 193 
Q 2250 -91 1575 -91 
Q 1294 -91 989 -36 
Q 684 19 347 128 
L 347 722 
Q 666 556 975 473 
Q 1284 391 1588 391 
Q 1994 391 2212 530 
Q 2431 669 2431 922 
Q 2431 1156 2273 1281 
Q 2116 1406 1581 1522 
L 1381 1569 
Q 847 1681 609 1914 
Q 372 2147 372 2553 
Q 372 3047 722 3315 
Q 1072 3584 1716 3584 
Q 2034 3584 2315 3537 
Q 2597 3491 2834 3397 
z
" transform="scale(0.015625)"/>
       <path id="DejaVuSans-66" d="M 2375 4863 
L 2375 4384 
L 1825 4384 
Q 1516 4384 1395 4259 
Q 1275 4134 1275 3809 
L 1275 3500 
L 2222 3500 
L 2222 3053 
L 1275 3053 
L 1275 0 
L 697 0 
L 697 3053 
L 147 3053 
L 147 3500 
L 697 3500 
L 697 3744 
Q 697 4328 969 4595 
Q 1241 4863 1831 4863 
L 2375 4863 
z
" transform="scale(0.015625)"/>
       <path id="DejaVuSans-20" transform="scale(0.015625)"/>
       <path id="DejaVuSans-5b" d="M 550 4863 
L 1875 4863 
L 1875 4416 
L 1125 4416 
L 1125 -397 
L 1875 -397 
L 1875 -844 
L 550 -844 
L 550 4863 
z
" transform="scale(0.015625)"/>
       <path id="DejaVuSans-6d" d="M 3328 2828 
Q 3544 3216 3844 3400 
Q 4144 3584 4550 3584 
Q 5097 3584 5394 3201 
Q 5691 2819 5691 2113 
L 5691 0 
L 5113 0 
L 5113 2094 
Q 5113 2597 4934 2840 
Q 4756 3084 4391 3084 
Q 3944 3084 3684 2787 
Q 3425 2491 3425 1978 
L 3425 0 
L 2847 0 
L 2847 2094 
Q 2847 2600 2669 2842 
Q 2491 3084 2119 3084 
Q 1678 3084 1418 2786 
Q 1159 2488 1159 1978 
L 1159 0 
L 581 0 
L 581 3500 
L 1159 3500 
L 1159 2956 
Q 1356 3278 1631 3431 
Q 1906 3584 2284 3584 
Q 2666 3584 2933 3390 
Q 3200 3197 3328 2828 
z
" transform="scale(0.015625)"/>
       <path id="DejaVuSans-56" d="M 1831 0 
L 50 4666 
L 709 4666 
L 2188 738 
L 3669 4666 
L 4325 4666 
L 2547 0 
L 1831 0 
z
" transform="scale(0.015625)"/>
       <path id="DejaVuSans-5d" d="M 1947 4863 
L 1947 -844 
L 622 -844 
L 622 -397 
L 1369 -397 
L 1369 4416 
L 622 4416 
L 622 4863 
L 1947 4863 
z
" transform="scale(0.015625)"/>
      </defs>
      <use xlink:href="#DejaVuSans-65"/>
      <use xlink:href="#DejaVuSans-6e" transform="translate(61.523438 0)"/>
      <use xlink:href="#DejaVuSans-65" transform="translate(124.902344 0)"/>
      <use xlink:href="#DejaVuSans-72" transform="translate(186.425781 0)"/>
      <use xlink:href="#DejaVuSans-67" transform="translate(225.789062 0)"/>
      <use xlink:href="#DejaVuSans-79" transform="translate(289.265625 0)"/>
      <use xlink:href="#DejaVuSans-5f" transform="translate(348.445312 0)"/>
      <use xlink:href="#DejaVuSans-74" transform="translate(398.445312 0)"/>
      <use xlink:href="#DejaVuSans-72" transform="translate(437.654297 0)"/>
      <use xlink:href="#DejaVuSans-61" transform="translate(478.767578 0)"/>
      <use xlink:href="#DejaVuSans-6e" transform="translate(540.046875 0)"/>
      <use xlink:href="#DejaVuSans-73" transform="translate(603.425781 0)"/>
      <use xlink:href="#DejaVuSans-66" transform="translate(655.525391 0)"/>
      <use xlink:href="#DejaVuSans-65" transform="translate(690.730469 0)"/>
      <use xlink:href="#DejaVuSans-72" transform="translate(752.253906 0)"/>
      <use xlink:href="#DejaVuSans-20" transform="translate(793.367188 0)"/>
      <use xlink:href="#DejaVuSans-5b" transform="translate(825.154297 0)"/>
      <use xlink:href="#DejaVuSans-6d" transform="translate(864.167969 0)"/>
      <use xlink:href="#DejaVuSans-65" transform="translate(961.580078 0)"/>
      <use xlink:href="#DejaVuSans-56" transform="translate(1023.103516 0)"/>
      <use xlink:href="#DejaVuSans-5d" transform="translate(1091.511719 0)"/>
     </g>
    </g>
   </g>
   <g id="matplotlib.axis_2">
    <g id="ytick_1">
     <g id="line2d_9">
      <defs>
       <path id="m80b37f832b" d="M 0 0 
L -3.5 0 
" style="stroke: #000000; stroke-width: 0.8"/>
      </defs>
      <g>
       <use xlink:href="#m80b37f832b" x="46.965625" y="218.88" style="stroke: #000000; stroke-width: 0.8"/>
      </g>
     </g>
     <g id="text_10">
      <!-- 0 -->
      <g transform="translate(33.603125 222.679219) scale(0.1 -0.1)">
       <use xlink:href="#DejaVuSans-30"/>
      </g>
     </g>
    </g>
    <g id="ytick_2">
     <g id="line2d_10">
      <g>
       <use xlink:href="#m80b37f832b" x="46.965625" y="177.631703" style="stroke: #000000; stroke-width: 0.8"/>
      </g>
     </g>
     <g id="text_11">
      <!-- 50 -->
      <g transform="translate(27.240625 181.430922) scale(0.1 -0.1)">
       <use xlink:href="#DejaVuSans-35"/>
       <use xlink:href="#DejaVuSans-30" transform="translate(63.623047 0)"/>
      </g>
     </g>
    </g>
    <g id="ytick_3">
     <g id="line2d_11">
      <g>
       <use xlink:href="#m80b37f832b" x="46.965625" y="136.383406" style="stroke: #000000; stroke-width: 0.8"/>
      </g>
     </g>
     <g id="text_12">
      <!-- 100 -->
      <g transform="translate(20.878125 140.182624) scale(0.1 -0.1)">
       <use xlink:href="#DejaVuSans-31"/>
       <use xlink:href="#DejaVuSans-30" transform="translate(63.623047 0)"/>
       <use xlink:href="#DejaVuSans-30" transform="translate(127.246094 0)"/>
      </g>
     </g>
    </g>
    <g id="ytick_4">
     <g id="line2d_12">
      <g>
       <use xlink:href="#m80b37f832b" x="46.965625" y="95.135109" style="stroke: #000000; stroke-width: 0.8"/>
      </g>
     </g>
     <g id="text_13">
      <!-- 150 -->
      <g transform="translate(20.878125 98.934327) scale(0.1 -0.1)">
       <use xlink:href="#DejaVuSans-31"/>
       <use xlink:href="#DejaVuSans-35" transform="translate(63.623047 0)"/>
       <use xlink:href="#DejaVuSans-30" transform="translate(127.246094 0)"/>
      </g>
     </g>
    </g>
    <g id="ytick_5">
     <g id="line2d_13">
      <g>
       <use xlink:href="#m80b37f832b" x="46.965625" y="53.886811" style="stroke: #000000; stroke-width: 0.8"/>
      </g>
     </g>
     <g id="text_14">
      <!-- 200 -->
      <g transform="translate(20.878125 57.68603) scale(0.1 -0.1)">
       <use xlink:href="#DejaVuSans-32"/>
       <use xlink:href="#DejaVuSans-30" transform="translate(63.623047 0)"/>
       <use xlink:href="#DejaVuSans-30" transform="translate(127.246094 0)"/>
      </g>
     </g>
    </g>
    <g id="ytick_6">
     <g id="line2d_14">
      <g>
       <use xlink:href="#m80b37f832b" x="46.965625" y="12.638514" style="stroke: #000000; stroke-width: 0.8"/>
      </g>
     </g>
     <g id="text_15">
      <!-- 250 -->
      <g transform="translate(20.878125 16.437733) scale(0.1 -0.1)">
       <use xlink:href="#DejaVuSans-32"/>
       <use xlink:href="#DejaVuSans-35" transform="translate(63.623047 0)"/>
       <use xlink:href="#DejaVuSans-30" transform="translate(127.246094 0)"/>
      </g>
     </g>
    </g>
    <g id="text_16">
     <!-- [counts] -->
     <g transform="translate(14.798438 138.6925) rotate(-90) scale(0.1 -0.1)">
      <defs>
       <path id="DejaVuSans-63" d="M 3122 3366 
L 3122 2828 
Q 2878 2963 2633 3030 
Q 2388 3097 2138 3097 
Q 1578 3097 1268 2742 
Q 959 2388 959 1747 
Q 959 1106 1268 751 
Q 1578 397 2138 397 
Q 2388 397 2633 464 
Q 2878 531 3122 666 
L 3122 134 
Q 2881 22 2623 -34 
Q 2366 -91 2075 -91 
Q 1284 -91 818 406 
Q 353 903 353 1747 
Q 353 2603 823 3093 
Q 1294 3584 2113 3584 
Q 2378 3584 2631 3529 
Q 2884 3475 3122 3366 
z
" transform="scale(0.015625)"/>
       <path id="DejaVuSans-6f" d="M 1959 3097 
Q 1497 3097 1228 2736 
Q 959 2375 959 1747 
Q 959 1119 1226 758 
Q 1494 397 1959 397 
Q 2419 397 2687 759 
Q 2956 1122 2956 1747 
Q 2956 2369 2687 2733 
Q 2419 3097 1959 3097 
z
M 1959 3584 
Q 2709 3584 3137 3096 
Q 3566 2609 3566 1747 
Q 3566 888 3137 398 
Q 2709 -91 1959 -91 
Q 1206 -91 779 398 
Q 353 888 353 1747 
Q 353 2609 779 3096 
Q 1206 3584 1959 3584 
z
" transform="scale(0.015625)"/>
       <path id="DejaVuSans-75" d="M 544 1381 
L 544 3500 
L 1119 3500 
L 1119 1403 
Q 1119 906 1312 657 
Q 1506 409 1894 409 
Q 2359 409 2629 706 
Q 2900 1003 2900 1516 
L 2900 3500 
L 3475 3500 
L 3475 0 
L 2900 0 
L 2900 538 
Q 2691 219 2414 64 
Q 2138 -91 1772 -91 
Q 1169 -91 856 284 
Q 544 659 544 1381 
z
M 1991 3584 
L 1991 3584 
z
" transform="scale(0.015625)"/>
      </defs>
      <use xlink:href="#DejaVuSans-5b"/>
      <use xlink:href="#DejaVuSans-63" transform="translate(39.013672 0)"/>
      <use xlink:href="#DejaVuSans-6f" transform="translate(93.994141 0)"/>
      <use xlink:href="#DejaVuSans-75" transform="translate(155.175781 0)"/>
      <use xlink:href="#DejaVuSans-6e" transform="translate(218.554688 0)"/>
      <use xlink:href="#DejaVuSans-74" transform="translate(281.933594 0)"/>
      <use xlink:href="#DejaVuSans-73" transform="translate(321.142578 0)"/>
      <use xlink:href="#DejaVuSans-5d" transform="translate(373.242188 0)"/>
     </g>
    </g>
   </g>
   <g id="line2d_15">
    <path d="M 62.183807 218.88 
L 123.056534 218.791857 
L 123.056534 218.703027 
L 126.10017 218.703027 
L 126.10017 218.584886 
L 132.187443 218.499539 
L 132.187443 218.43735 
L 135.23108 218.43735 
L 135.23108 218.223833 
L 138.274716 218.223833 
L 138.274716 217.84657 
L 141.318352 217.84657 
L 141.318352 217.220709 
L 144.361989 217.220709 
L 144.361989 216.370476 
L 147.405625 216.370476 
L 147.405625 215.045088 
L 150.449261 215.045088 
L 150.449261 213.538462 
L 153.492898 213.538462 
L 153.492898 211.427727 
L 156.536534 211.427727 
L 156.536534 208.969086 
L 159.58017 208.969086 
L 159.58017 207.622846 
L 162.623807 207.622846 
L 162.623807 205.042723 
L 165.667443 205.042723 
L 165.667443 203.276409 
L 168.71108 203.276409 
L 168.71108 200.7092 
L 171.754716 200.7092 
L 171.754716 199.785186 
L 174.798352 199.785186 
L 174.798352 198.281161 
L 177.841989 198.281161 
L 177.841989 197.363054 
L 180.885625 197.363054 
L 180.885625 197.117444 
L 183.929261 197.117444 
L 183.929261 197.264585 
L 186.972898 197.264585 
L 186.972898 196.12541 
L 190.016534 196.12541 
L 190.016534 198.170315 
L 193.06017 198.170315 
L 193.06017 196.638675 
L 196.103807 196.638675 
L 196.103807 196.238369 
L 199.147443 196.238369 
L 199.147443 196.591888 
L 202.19108 196.591888 
L 202.19108 197.496724 
L 205.234716 197.496724 
L 205.234716 197.104501 
L 208.278352 197.104501 
L 208.278352 196.148198 
L 211.321989 196.148198 
L 211.321989 197.445958 
L 214.365625 197.445958 
L 214.365625 197.004959 
L 217.409261 197.004959 
L 217.409261 197.665737 
L 223.496534 197.687987 
L 223.496534 198.269089 
L 226.54017 198.269089 
L 226.54017 195.938855 
L 229.583807 195.938855 
L 229.583807 193.07385 
L 232.627443 193.07385 
L 232.627443 188.389337 
L 235.67108 188.389337 
L 235.67108 180.925574 
L 238.714716 180.925574 
L 238.714716 171.852681 
L 241.758352 171.852681 
L 241.758352 160.93493 
L 244.801989 160.93493 
L 244.801989 147.583574 
L 247.845625 147.583574 
L 247.845625 131.752845 
L 250.889261 131.752845 
L 250.889261 117.156427 
L 253.932898 117.156427 
L 253.932898 101.387632 
L 256.976534 101.387632 
L 256.976534 85.440352 
L 260.02017 85.440352 
L 260.02017 68.83927 
L 263.063807 68.83927 
L 263.063807 56.634494 
L 266.107443 56.634494 
L 266.107443 44.984257 
L 269.15108 44.984257 
L 269.15108 34.011079 
L 272.194716 34.011079 
L 272.194716 29.86748 
L 275.238352 29.86748 
L 275.238352 24.743415 
L 278.281989 24.743415 
L 278.281989 21.554395 
L 281.325625 21.554395 
L 281.325625 21.850902 
L 284.369261 21.850902 
L 284.369261 20.736189 
L 287.412898 20.736189 
L 287.412898 18.946493 
L 290.456534 18.946493 
L 290.456534 19.98034 
L 293.50017 19.98034 
L 293.50017 24.392337 
L 296.543807 24.392337 
L 296.543807 27.35921 
L 299.587443 27.35921 
L 299.587443 32.24522 
L 302.63108 32.24522 
L 302.63108 34.893297 
L 305.674716 34.893297 
L 305.674716 47.625994 
L 308.718352 47.625994 
L 308.718352 61.024953 
L 311.761989 61.024953 
L 311.761989 70.497839 
L 314.805625 70.497839 
L 314.805625 82.743122 
L 317.849261 82.743122 
L 317.849261 99.630267 
L 320.892898 99.630267 
L 320.892898 116.372739 
L 323.936534 116.372739 
L 323.936534 133.57543 
L 326.98017 133.57543 
L 326.98017 148.709115 
L 330.023807 148.709115 
L 330.023807 164.104486 
L 333.067443 164.104486 
L 333.067443 175.747992 
L 336.11108 175.747992 
L 336.11108 187.74666 
L 339.154716 187.74666 
L 339.154716 196.342578 
L 342.198352 196.342578 
L 342.198352 203.378758 
L 345.241989 203.378758 
L 345.241989 207.860881 
L 348.285625 207.860881 
L 348.285625 212.618446 
L 351.329261 212.618446 
L 351.329261 215.630704 
L 354.372898 215.630704 
L 354.372898 217.062315 
L 357.416534 217.062315 
L 357.416534 218.22658 
L 360.46017 218.22658 
L 360.46017 218.686512 
L 363.503807 218.686512 
L 363.503807 218.829515 
L 366.547443 218.829515 
L 366.547443 218.829515 
" clip-path="url(#p5aac9ecb17)" style="fill: none; stroke: #1f77b4; stroke-width: 1.5; stroke-linecap: square"/>
   </g>
   <g id="LineCollection_1">
    <path d="M 63.705625 218.88 
L 63.705625 218.88 
" clip-path="url(#p5aac9ecb17)" style="fill: none; stroke: #1f77b4; stroke-width: 1.5"/>
    <path d="M 66.749261 218.88 
L 66.749261 218.88 
" clip-path="url(#p5aac9ecb17)" style="fill: none; stroke: #1f77b4; stroke-width: 1.5"/>
    <path d="M 69.792898 218.88 
L 69.792898 218.88 
" clip-path="url(#p5aac9ecb17)" style="fill: none; stroke: #1f77b4; stroke-width: 1.5"/>
    <path d="M 72.836534 218.88 
L 72.836534 218.88 
" clip-path="url(#p5aac9ecb17)" style="fill: none; stroke: #1f77b4; stroke-width: 1.5"/>
    <path d="M 75.88017 218.88 
L 75.88017 218.88 
" clip-path="url(#p5aac9ecb17)" style="fill: none; stroke: #1f77b4; stroke-width: 1.5"/>
    <path d="M 78.923807 218.88 
L 78.923807 218.88 
" clip-path="url(#p5aac9ecb17)" style="fill: none; stroke: #1f77b4; stroke-width: 1.5"/>
    <path d="M 81.967443 218.88 
L 81.967443 218.88 
" clip-path="url(#p5aac9ecb17)" style="fill: none; stroke: #1f77b4; stroke-width: 1.5"/>
    <path d="M 85.01108 218.88 
L 85.01108 218.88 
" clip-path="url(#p5aac9ecb17)" style="fill: none; stroke: #1f77b4; stroke-width: 1.5"/>
    <path d="M 88.054716 218.88 
L 88.054716 218.88 
" clip-path="url(#p5aac9ecb17)" style="fill: none; stroke: #1f77b4; stroke-width: 1.5"/>
    <path d="M 91.098352 218.88 
L 91.098352 218.88 
" clip-path="url(#p5aac9ecb17)" style="fill: none; stroke: #1f77b4; stroke-width: 1.5"/>
    <path d="M 94.141989 218.88 
L 94.141989 218.88 
" clip-path="url(#p5aac9ecb17)" style="fill: none; stroke: #1f77b4; stroke-width: 1.5"/>
    <path d="M 97.185625 218.88 
L 97.185625 218.88 
" clip-path="url(#p5aac9ecb17)" style="fill: none; stroke: #1f77b4; stroke-width: 1.5"/>
    <path d="M 100.229261 218.88 
L 100.229261 218.88 
" clip-path="url(#p5aac9ecb17)" style="fill: none; stroke: #1f77b4; stroke-width: 1.5"/>
    <path d="M 103.272898 218.88 
L 103.272898 218.88 
" clip-path="url(#p5aac9ecb17)" style="fill: none; stroke: #1f77b4; stroke-width: 1.5"/>
    <path d="M 106.316534 218.88 
L 106.316534 218.879982 
" clip-path="url(#p5aac9ecb17)" style="fill: none; stroke: #1f77b4; stroke-width: 1.5"/>
    <path d="M 109.36017 218.879998 
L 109.36017 218.871804 
" clip-path="url(#p5aac9ecb17)" style="fill: none; stroke: #1f77b4; stroke-width: 1.5"/>
    <path d="M 112.403807 218.88 
L 112.403807 218.879996 
" clip-path="url(#p5aac9ecb17)" style="fill: none; stroke: #1f77b4; stroke-width: 1.5"/>
    <path d="M 115.447443 218.842301 
L 115.447443 218.799983 
" clip-path="url(#p5aac9ecb17)" style="fill: none; stroke: #1f77b4; stroke-width: 1.5"/>
    <path d="M 118.49108 218.845147 
L 118.49108 218.805706 
" clip-path="url(#p5aac9ecb17)" style="fill: none; stroke: #1f77b4; stroke-width: 1.5"/>
    <path d="M 121.534716 218.817009 
L 121.534716 218.766705 
" clip-path="url(#p5aac9ecb17)" style="fill: none; stroke: #1f77b4; stroke-width: 1.5"/>
    <path d="M 124.578352 218.738098 
L 124.578352 218.667955 
" clip-path="url(#p5aac9ecb17)" style="fill: none; stroke: #1f77b4; stroke-width: 1.5"/>
    <path d="M 127.621989 218.631026 
L 127.621989 218.538745 
" clip-path="url(#p5aac9ecb17)" style="fill: none; stroke: #1f77b4; stroke-width: 1.5"/>
    <path d="M 130.665625 218.55428 
L 130.665625 218.444798 
" clip-path="url(#p5aac9ecb17)" style="fill: none; stroke: #1f77b4; stroke-width: 1.5"/>
    <path d="M 133.709261 218.494388 
L 133.709261 218.380312 
" clip-path="url(#p5aac9ecb17)" style="fill: none; stroke: #1f77b4; stroke-width: 1.5"/>
    <path d="M 136.752898 218.295094 
L 136.752898 218.152571 
" clip-path="url(#p5aac9ecb17)" style="fill: none; stroke: #1f77b4; stroke-width: 1.5"/>
    <path d="M 139.796534 217.9348 
L 139.796534 217.758341 
" clip-path="url(#p5aac9ecb17)" style="fill: none; stroke: #1f77b4; stroke-width: 1.5"/>
    <path d="M 142.84017 217.339683 
L 142.84017 217.101736 
" clip-path="url(#p5aac9ecb17)" style="fill: none; stroke: #1f77b4; stroke-width: 1.5"/>
    <path d="M 145.883807 216.523166 
L 145.883807 216.217785 
" clip-path="url(#p5aac9ecb17)" style="fill: none; stroke: #1f77b4; stroke-width: 1.5"/>
    <path d="M 148.927443 215.242664 
L 148.927443 214.847511 
" clip-path="url(#p5aac9ecb17)" style="fill: none; stroke: #1f77b4; stroke-width: 1.5"/>
    <path d="M 151.97108 213.777811 
L 151.97108 213.299114 
" clip-path="url(#p5aac9ecb17)" style="fill: none; stroke: #1f77b4; stroke-width: 1.5"/>
    <path d="M 155.014716 211.723505 
L 155.014716 211.131949 
" clip-path="url(#p5aac9ecb17)" style="fill: none; stroke: #1f77b4; stroke-width: 1.5"/>
    <path d="M 158.058352 209.318152 
L 158.058352 208.62002 
" clip-path="url(#p5aac9ecb17)" style="fill: none; stroke: #1f77b4; stroke-width: 1.5"/>
    <path d="M 161.101989 208.000005 
L 161.101989 207.245688 
" clip-path="url(#p5aac9ecb17)" style="fill: none; stroke: #1f77b4; stroke-width: 1.5"/>
    <path d="M 164.145625 205.466694 
L 164.145625 204.618752 
" clip-path="url(#p5aac9ecb17)" style="fill: none; stroke: #1f77b4; stroke-width: 1.5"/>
    <path d="M 167.189261 203.731622 
L 167.189261 202.821196 
" clip-path="url(#p5aac9ecb17)" style="fill: none; stroke: #1f77b4; stroke-width: 1.5"/>
    <path d="M 170.232898 201.202225 
L 170.232898 200.216175 
" clip-path="url(#p5aac9ecb17)" style="fill: none; stroke: #1f77b4; stroke-width: 1.5"/>
    <path d="M 173.276534 200.295633 
L 173.276534 199.27474 
" clip-path="url(#p5aac9ecb17)" style="fill: none; stroke: #1f77b4; stroke-width: 1.5"/>
    <path d="M 176.32017 198.810045 
L 176.32017 197.752277 
" clip-path="url(#p5aac9ecb17)" style="fill: none; stroke: #1f77b4; stroke-width: 1.5"/>
    <path d="M 179.363807 197.906944 
L 179.363807 196.819164 
" clip-path="url(#p5aac9ecb17)" style="fill: none; stroke: #1f77b4; stroke-width: 1.5"/>
    <path d="M 182.407443 197.664208 
L 182.407443 196.570679 
" clip-path="url(#p5aac9ecb17)" style="fill: none; stroke: #1f77b4; stroke-width: 1.5"/>
    <path d="M 185.45108 197.809755 
L 185.45108 196.719415 
" clip-path="url(#p5aac9ecb17)" style="fill: none; stroke: #1f77b4; stroke-width: 1.5"/>
    <path d="M 188.494716 196.685515 
L 188.494716 195.565304 
" clip-path="url(#p5aac9ecb17)" style="fill: none; stroke: #1f77b4; stroke-width: 1.5"/>
    <path d="M 191.538352 198.705474 
L 191.538352 197.635157 
" clip-path="url(#p5aac9ecb17)" style="fill: none; stroke: #1f77b4; stroke-width: 1.5"/>
    <path d="M 194.581989 197.192269 
L 194.581989 196.08508 
" clip-path="url(#p5aac9ecb17)" style="fill: none; stroke: #1f77b4; stroke-width: 1.5"/>
    <path d="M 197.625625 196.795564 
L 197.625625 195.681173 
" clip-path="url(#p5aac9ecb17)" style="fill: none; stroke: #1f77b4; stroke-width: 1.5"/>
    <path d="M 200.669261 197.148183 
L 200.669261 196.035593 
" clip-path="url(#p5aac9ecb17)" style="fill: none; stroke: #1f77b4; stroke-width: 1.5"/>
    <path d="M 203.712898 198.034707 
L 203.712898 196.958741 
" clip-path="url(#p5aac9ecb17)" style="fill: none; stroke: #1f77b4; stroke-width: 1.5"/>
    <path d="M 206.756534 197.65049 
L 206.756534 196.558511 
" clip-path="url(#p5aac9ecb17)" style="fill: none; stroke: #1f77b4; stroke-width: 1.5"/>
    <path d="M 209.80017 196.708287 
L 209.80017 195.588108 
" clip-path="url(#p5aac9ecb17)" style="fill: none; stroke: #1f77b4; stroke-width: 1.5"/>
    <path d="M 212.843807 197.985991 
L 212.843807 196.905926 
" clip-path="url(#p5aac9ecb17)" style="fill: none; stroke: #1f77b4; stroke-width: 1.5"/>
    <path d="M 215.887443 197.549187 
L 215.887443 196.46073 
" clip-path="url(#p5aac9ecb17)" style="fill: none; stroke: #1f77b4; stroke-width: 1.5"/>
    <path d="M 218.93108 198.201678 
L 218.93108 197.129795 
" clip-path="url(#p5aac9ecb17)" style="fill: none; stroke: #1f77b4; stroke-width: 1.5"/>
    <path d="M 221.974716 198.218515 
L 221.974716 197.157458 
" clip-path="url(#p5aac9ecb17)" style="fill: none; stroke: #1f77b4; stroke-width: 1.5"/>
    <path d="M 225.018352 198.781707 
L 225.018352 197.75647 
" clip-path="url(#p5aac9ecb17)" style="fill: none; stroke: #1f77b4; stroke-width: 1.5"/>
    <path d="M 228.061989 196.469965 
L 228.061989 195.407744 
" clip-path="url(#p5aac9ecb17)" style="fill: none; stroke: #1f77b4; stroke-width: 1.5"/>
    <path d="M 231.105625 193.632306 
L 231.105625 192.515395 
" clip-path="url(#p5aac9ecb17)" style="fill: none; stroke: #1f77b4; stroke-width: 1.5"/>
    <path d="M 234.149261 188.98355 
L 234.149261 187.795123 
" clip-path="url(#p5aac9ecb17)" style="fill: none; stroke: #1f77b4; stroke-width: 1.5"/>
    <path d="M 237.192898 181.593767 
L 237.192898 180.25738 
" clip-path="url(#p5aac9ecb17)" style="fill: none; stroke: #1f77b4; stroke-width: 1.5"/>
    <path d="M 240.236534 172.598049 
L 240.236534 171.107313 
" clip-path="url(#p5aac9ecb17)" style="fill: none; stroke: #1f77b4; stroke-width: 1.5"/>
    <path d="M 243.28017 161.770969 
L 243.28017 160.09889 
" clip-path="url(#p5aac9ecb17)" style="fill: none; stroke: #1f77b4; stroke-width: 1.5"/>
    <path d="M 246.323807 148.520799 
L 246.323807 146.646349 
" clip-path="url(#p5aac9ecb17)" style="fill: none; stroke: #1f77b4; stroke-width: 1.5"/>
    <path d="M 249.367443 132.802373 
L 249.367443 130.703318 
" clip-path="url(#p5aac9ecb17)" style="fill: none; stroke: #1f77b4; stroke-width: 1.5"/>
    <path d="M 252.41108 118.301012 
L 252.41108 116.011843 
" clip-path="url(#p5aac9ecb17)" style="fill: none; stroke: #1f77b4; stroke-width: 1.5"/>
    <path d="M 255.454716 102.630671 
L 255.454716 100.144592 
" clip-path="url(#p5aac9ecb17)" style="fill: none; stroke: #1f77b4; stroke-width: 1.5"/>
    <path d="M 258.498352 86.770717 
L 258.498352 84.109987 
" clip-path="url(#p5aac9ecb17)" style="fill: none; stroke: #1f77b4; stroke-width: 1.5"/>
    <path d="M 261.541989 70.259318 
L 261.541989 67.419222 
" clip-path="url(#p5aac9ecb17)" style="fill: none; stroke: #1f77b4; stroke-width: 1.5"/>
    <path d="M 264.585625 58.115077 
L 264.585625 55.153911 
" clip-path="url(#p5aac9ecb17)" style="fill: none; stroke: #1f77b4; stroke-width: 1.5"/>
    <path d="M 267.629261 46.52381 
L 267.629261 43.444704 
" clip-path="url(#p5aac9ecb17)" style="fill: none; stroke: #1f77b4; stroke-width: 1.5"/>
    <path d="M 270.672898 35.604631 
L 270.672898 32.417527 
" clip-path="url(#p5aac9ecb17)" style="fill: none; stroke: #1f77b4; stroke-width: 1.5"/>
    <path d="M 273.716534 31.477666 
L 273.716534 28.257294 
" clip-path="url(#p5aac9ecb17)" style="fill: none; stroke: #1f77b4; stroke-width: 1.5"/>
    <path d="M 276.76017 26.379602 
L 276.76017 23.107227 
" clip-path="url(#p5aac9ecb17)" style="fill: none; stroke: #1f77b4; stroke-width: 1.5"/>
    <path d="M 279.803807 23.206524 
L 279.803807 19.902265 
" clip-path="url(#p5aac9ecb17)" style="fill: none; stroke: #1f77b4; stroke-width: 1.5"/>
    <path d="M 282.847443 23.50587 
L 282.847443 20.195933 
" clip-path="url(#p5aac9ecb17)" style="fill: none; stroke: #1f77b4; stroke-width: 1.5"/>
    <path d="M 285.89108 22.394744 
L 285.89108 19.077633 
" clip-path="url(#p5aac9ecb17)" style="fill: none; stroke: #1f77b4; stroke-width: 1.5"/>
    <path d="M 288.934716 20.612986 
L 288.934716 17.28 
" clip-path="url(#p5aac9ecb17)" style="fill: none; stroke: #1f77b4; stroke-width: 1.5"/>
    <path d="M 291.978352 21.645885 
L 291.978352 18.314795 
" clip-path="url(#p5aac9ecb17)" style="fill: none; stroke: #1f77b4; stroke-width: 1.5"/>
    <path d="M 295.021989 26.041598 
L 295.021989 22.743076 
" clip-path="url(#p5aac9ecb17)" style="fill: none; stroke: #1f77b4; stroke-width: 1.5"/>
    <path d="M 298.065625 29.001121 
L 298.065625 25.717298 
" clip-path="url(#p5aac9ecb17)" style="fill: none; stroke: #1f77b4; stroke-width: 1.5"/>
    <path d="M 301.109261 33.865787 
L 301.109261 30.624654 
" clip-path="url(#p5aac9ecb17)" style="fill: none; stroke: #1f77b4; stroke-width: 1.5"/>
    <path d="M 304.152898 36.510468 
L 304.152898 33.276127 
" clip-path="url(#p5aac9ecb17)" style="fill: none; stroke: #1f77b4; stroke-width: 1.5"/>
    <path d="M 307.196534 49.188619 
L 307.196534 46.063369 
" clip-path="url(#p5aac9ecb17)" style="fill: none; stroke: #1f77b4; stroke-width: 1.5"/>
    <path d="M 310.24017 62.530752 
L 310.24017 59.519154 
" clip-path="url(#p5aac9ecb17)" style="fill: none; stroke: #1f77b4; stroke-width: 1.5"/>
    <path d="M 313.283807 71.961956 
L 313.283807 69.033722 
" clip-path="url(#p5aac9ecb17)" style="fill: none; stroke: #1f77b4; stroke-width: 1.5"/>
    <path d="M 316.327443 84.153136 
L 316.327443 81.333108 
" clip-path="url(#p5aac9ecb17)" style="fill: none; stroke: #1f77b4; stroke-width: 1.5"/>
    <path d="M 319.37108 100.953984 
L 319.37108 98.306549 
" clip-path="url(#p5aac9ecb17)" style="fill: none; stroke: #1f77b4; stroke-width: 1.5"/>
    <path d="M 322.414716 117.600969 
L 322.414716 115.144508 
" clip-path="url(#p5aac9ecb17)" style="fill: none; stroke: #1f77b4; stroke-width: 1.5"/>
    <path d="M 325.458352 134.695387 
L 325.458352 132.455474 
" clip-path="url(#p5aac9ecb17)" style="fill: none; stroke: #1f77b4; stroke-width: 1.5"/>
    <path d="M 328.501989 149.726787 
L 328.501989 147.691442 
" clip-path="url(#p5aac9ecb17)" style="fill: none; stroke: #1f77b4; stroke-width: 1.5"/>
    <path d="M 331.545625 165.006901 
L 331.545625 163.202072 
" clip-path="url(#p5aac9ecb17)" style="fill: none; stroke: #1f77b4; stroke-width: 1.5"/>
    <path d="M 334.589261 176.549911 
L 334.589261 174.946073 
" clip-path="url(#p5aac9ecb17)" style="fill: none; stroke: #1f77b4; stroke-width: 1.5"/>
    <path d="M 337.632898 188.427252 
L 337.632898 187.066068 
" clip-path="url(#p5aac9ecb17)" style="fill: none; stroke: #1f77b4; stroke-width: 1.5"/>
    <path d="M 340.676534 196.921921 
L 340.676534 195.763234 
" clip-path="url(#p5aac9ecb17)" style="fill: none; stroke: #1f77b4; stroke-width: 1.5"/>
    <path d="M 343.72017 203.859534 
L 343.72017 202.897981 
" clip-path="url(#p5aac9ecb17)" style="fill: none; stroke: #1f77b4; stroke-width: 1.5"/>
    <path d="M 346.763807 208.265161 
L 346.763807 207.456601 
" clip-path="url(#p5aac9ecb17)" style="fill: none; stroke: #1f77b4; stroke-width: 1.5"/>
    <path d="M 349.807443 212.92561 
L 349.807443 212.311282 
" clip-path="url(#p5aac9ecb17)" style="fill: none; stroke: #1f77b4; stroke-width: 1.5"/>
    <path d="M 352.85108 215.850896 
L 352.85108 215.410512 
" clip-path="url(#p5aac9ecb17)" style="fill: none; stroke: #1f77b4; stroke-width: 1.5"/>
    <path d="M 355.894716 217.22406 
L 355.894716 216.900571 
" clip-path="url(#p5aac9ecb17)" style="fill: none; stroke: #1f77b4; stroke-width: 1.5"/>
    <path d="M 358.938352 218.322952 
L 358.938352 218.130207 
" clip-path="url(#p5aac9ecb17)" style="fill: none; stroke: #1f77b4; stroke-width: 1.5"/>
    <path d="M 361.981989 218.740404 
L 361.981989 218.632619 
" clip-path="url(#p5aac9ecb17)" style="fill: none; stroke: #1f77b4; stroke-width: 1.5"/>
    <path d="M 365.025625 218.856189 
L 365.025625 218.802841 
" clip-path="url(#p5aac9ecb17)" style="fill: none; stroke: #1f77b4; stroke-width: 1.5"/>
   </g>
   <g id="line2d_16">
    <path d="M 62.183807 218.88 
L 196.103807 218.778242 
L 196.103807 218.704585 
L 202.19108 218.598263 
L 202.19108 218.37343 
L 205.234716 218.37343 
L 205.234716 218.233201 
L 208.278352 218.233201 
L 208.278352 217.720965 
L 211.321989 217.720965 
L 211.321989 217.39939 
L 214.365625 217.39939 
L 214.365625 216.559673 
L 217.409261 216.559673 
L 217.409261 216.053285 
L 220.452898 216.053285 
L 220.452898 214.474126 
L 223.496534 214.474126 
L 223.496534 212.254026 
L 226.54017 212.254026 
L 226.54017 208.576188 
L 229.583807 208.576188 
L 229.583807 204.08805 
L 232.627443 204.08805 
L 232.627443 196.712642 
L 235.67108 196.712642 
L 235.67108 187.863404 
L 238.714716 187.863404 
L 238.714716 176.892927 
L 241.758352 176.892927 
L 241.758352 164.69112 
L 244.801989 164.69112 
L 244.801989 150.79072 
L 247.845625 150.79072 
L 247.845625 134.798629 
L 250.889261 134.798629 
L 250.889261 121.076878 
L 253.932898 121.076878 
L 253.932898 106.209572 
L 256.976534 106.209572 
L 256.976534 91.755246 
L 260.02017 91.755246 
L 260.02017 76.366216 
L 263.063807 76.366216 
L 263.063807 65.702511 
L 266.107443 65.702511 
L 266.107443 55.484671 
L 269.15108 55.484671 
L 269.15108 44.945108 
L 272.194716 44.945108 
L 272.194716 41.625733 
L 275.238352 41.625733 
L 275.238352 37.353817 
L 278.281989 37.353817 
L 278.281989 34.444444 
L 281.325625 34.444444 
L 281.325625 34.867261 
L 284.369261 34.867261 
L 284.369261 33.964298 
L 287.412898 33.964298 
L 287.412898 32.172894 
L 290.456534 32.172894 
L 290.456534 33.285131 
L 293.50017 33.285131 
L 293.50017 37.187686 
L 296.543807 37.187686 
L 296.543807 40.241267 
L 299.587443 40.241267 
L 299.587443 44.821559 
L 302.63108 44.821559 
L 302.63108 48.451699 
L 305.674716 48.451699 
L 305.674716 59.83056 
L 308.718352 59.83056 
L 308.718352 73.230499 
L 311.761989 73.230499 
L 311.761989 82.557448 
L 314.805625 82.557448 
L 314.805625 94.271848 
L 317.849261 94.271848 
L 317.849261 110.846647 
L 320.892898 110.846647 
L 320.892898 125.987334 
L 323.936534 125.987334 
L 323.936534 142.49213 
L 326.98017 142.49213 
L 326.98017 155.292415 
L 330.023807 155.292415 
L 330.023807 169.975961 
L 333.067443 169.975961 
L 333.067443 180.121945 
L 336.11108 180.121945 
L 336.11108 191.304391 
L 339.154716 191.304391 
L 339.154716 198.847507 
L 342.198352 198.847507 
L 342.198352 204.880553 
L 345.241989 204.880553 
L 345.241989 208.608046 
L 348.285625 208.608046 
L 348.285625 212.892461 
L 351.329261 212.892461 
L 351.329261 215.70951 
L 354.372898 215.70951 
L 354.372898 217.062315 
L 357.416534 217.062315 
L 357.416534 218.22658 
L 360.46017 218.22658 
L 360.46017 218.686512 
L 363.503807 218.686512 
L 363.503807 218.829515 
L 366.547443 218.829515 
L 366.547443 218.829515 
" clip-path="url(#p5aac9ecb17)" style="fill: none; stroke: #ff7f0e; stroke-width: 1.5; stroke-linecap: square"/>
   </g>
   <g id="LineCollection_2">
    <path d="M 63.705625 218.88 
L 63.705625 218.88 
" clip-path="url(#p5aac9ecb17)" style="fill: none; stroke: #ff7f0e; stroke-width: 1.5"/>
    <path d="M 66.749261 218.88 
L 66.749261 218.88 
" clip-path="url(#p5aac9ecb17)" style="fill: none; stroke: #ff7f0e; stroke-width: 1.5"/>
    <path d="M 69.792898 218.88 
L 69.792898 218.88 
" clip-path="url(#p5aac9ecb17)" style="fill: none; stroke: #ff7f0e; stroke-width: 1.5"/>
    <path d="M 72.836534 218.88 
L 72.836534 218.88 
" clip-path="url(#p5aac9ecb17)" style="fill: none; stroke: #ff7f0e; stroke-width: 1.5"/>
    <path d="M 75.88017 218.88 
L 75.88017 218.88 
" clip-path="url(#p5aac9ecb17)" style="fill: none; stroke: #ff7f0e; stroke-width: 1.5"/>
    <path d="M 78.923807 218.88 
L 78.923807 218.88 
" clip-path="url(#p5aac9ecb17)" style="fill: none; stroke: #ff7f0e; stroke-width: 1.5"/>
    <path d="M 81.967443 218.88 
L 81.967443 218.88 
" clip-path="url(#p5aac9ecb17)" style="fill: none; stroke: #ff7f0e; stroke-width: 1.5"/>
    <path d="M 85.01108 218.88 
L 85.01108 218.88 
" clip-path="url(#p5aac9ecb17)" style="fill: none; stroke: #ff7f0e; stroke-width: 1.5"/>
    <path d="M 88.054716 218.88 
L 88.054716 218.88 
" clip-path="url(#p5aac9ecb17)" style="fill: none; stroke: #ff7f0e; stroke-width: 1.5"/>
    <path d="M 91.098352 218.88 
L 91.098352 218.88 
" clip-path="url(#p5aac9ecb17)" style="fill: none; stroke: #ff7f0e; stroke-width: 1.5"/>
    <path d="M 94.141989 218.88 
L 94.141989 218.88 
" clip-path="url(#p5aac9ecb17)" style="fill: none; stroke: #ff7f0e; stroke-width: 1.5"/>
    <path d="M 97.185625 218.88 
L 97.185625 218.88 
" clip-path="url(#p5aac9ecb17)" style="fill: none; stroke: #ff7f0e; stroke-width: 1.5"/>
    <path d="M 100.229261 218.88 
L 100.229261 218.88 
" clip-path="url(#p5aac9ecb17)" style="fill: none; stroke: #ff7f0e; stroke-width: 1.5"/>
    <path d="M 103.272898 218.88 
L 103.272898 218.88 
" clip-path="url(#p5aac9ecb17)" style="fill: none; stroke: #ff7f0e; stroke-width: 1.5"/>
    <path d="M 106.316534 218.88 
L 106.316534 218.88 
" clip-path="url(#p5aac9ecb17)" style="fill: none; stroke: #ff7f0e; stroke-width: 1.5"/>
    <path d="M 109.36017 218.88 
L 109.36017 218.879996 
" clip-path="url(#p5aac9ecb17)" style="fill: none; stroke: #ff7f0e; stroke-width: 1.5"/>
    <path d="M 112.403807 218.88 
L 112.403807 218.879996 
" clip-path="url(#p5aac9ecb17)" style="fill: none; stroke: #ff7f0e; stroke-width: 1.5"/>
    <path d="M 115.447443 218.879993 
L 115.447443 218.87998 
" clip-path="url(#p5aac9ecb17)" style="fill: none; stroke: #ff7f0e; stroke-width: 1.5"/>
    <path d="M 118.49108 218.879996 
L 118.49108 218.879967 
" clip-path="url(#p5aac9ecb17)" style="fill: none; stroke: #ff7f0e; stroke-width: 1.5"/>
    <path d="M 121.534716 218.879997 
L 121.534716 218.879981 
" clip-path="url(#p5aac9ecb17)" style="fill: none; stroke: #ff7f0e; stroke-width: 1.5"/>
    <path d="M 124.578352 218.88 
L 124.578352 218.879995 
" clip-path="url(#p5aac9ecb17)" style="fill: none; stroke: #ff7f0e; stroke-width: 1.5"/>
    <path d="M 127.621989 218.879976 
L 127.621989 218.879938 
" clip-path="url(#p5aac9ecb17)" style="fill: none; stroke: #ff7f0e; stroke-width: 1.5"/>
    <path d="M 130.665625 218.879977 
L 130.665625 218.87994 
" clip-path="url(#p5aac9ecb17)" style="fill: none; stroke: #ff7f0e; stroke-width: 1.5"/>
    <path d="M 133.709261 218.879915 
L 133.709261 218.879783 
" clip-path="url(#p5aac9ecb17)" style="fill: none; stroke: #ff7f0e; stroke-width: 1.5"/>
    <path d="M 136.752898 218.879898 
L 136.752898 218.879751 
" clip-path="url(#p5aac9ecb17)" style="fill: none; stroke: #ff7f0e; stroke-width: 1.5"/>
    <path d="M 139.796534 218.879854 
L 139.796534 218.869121 
" clip-path="url(#p5aac9ecb17)" style="fill: none; stroke: #ff7f0e; stroke-width: 1.5"/>
    <path d="M 142.84017 218.879796 
L 142.84017 218.879622 
" clip-path="url(#p5aac9ecb17)" style="fill: none; stroke: #ff7f0e; stroke-width: 1.5"/>
    <path d="M 145.883807 218.87955 
L 145.883807 218.879268 
" clip-path="url(#p5aac9ecb17)" style="fill: none; stroke: #ff7f0e; stroke-width: 1.5"/>
    <path d="M 148.927443 218.879498 
L 148.927443 218.872785 
" clip-path="url(#p5aac9ecb17)" style="fill: none; stroke: #ff7f0e; stroke-width: 1.5"/>
    <path d="M 151.97108 218.879584 
L 151.97108 218.879423 
" clip-path="url(#p5aac9ecb17)" style="fill: none; stroke: #ff7f0e; stroke-width: 1.5"/>
    <path d="M 155.014716 218.879262 
L 155.014716 218.878977 
" clip-path="url(#p5aac9ecb17)" style="fill: none; stroke: #ff7f0e; stroke-width: 1.5"/>
    <path d="M 158.058352 218.874202 
L 158.058352 218.846926 
" clip-path="url(#p5aac9ecb17)" style="fill: none; stroke: #ff7f0e; stroke-width: 1.5"/>
    <path d="M 161.101989 218.874781 
L 161.101989 218.853657 
" clip-path="url(#p5aac9ecb17)" style="fill: none; stroke: #ff7f0e; stroke-width: 1.5"/>
    <path d="M 164.145625 218.878687 
L 164.145625 218.872344 
" clip-path="url(#p5aac9ecb17)" style="fill: none; stroke: #ff7f0e; stroke-width: 1.5"/>
    <path d="M 167.189261 218.878371 
L 167.189261 218.852854 
" clip-path="url(#p5aac9ecb17)" style="fill: none; stroke: #ff7f0e; stroke-width: 1.5"/>
    <path d="M 170.232898 218.87852 
L 170.232898 218.878152 
" clip-path="url(#p5aac9ecb17)" style="fill: none; stroke: #ff7f0e; stroke-width: 1.5"/>
    <path d="M 173.276534 218.878762 
L 173.276534 218.878472 
" clip-path="url(#p5aac9ecb17)" style="fill: none; stroke: #ff7f0e; stroke-width: 1.5"/>
    <path d="M 176.32017 218.878247 
L 176.32017 218.848619 
" clip-path="url(#p5aac9ecb17)" style="fill: none; stroke: #ff7f0e; stroke-width: 1.5"/>
    <path d="M 179.363807 218.871012 
L 179.363807 218.849275 
" clip-path="url(#p5aac9ecb17)" style="fill: none; stroke: #ff7f0e; stroke-width: 1.5"/>
    <path d="M 182.407443 218.870849 
L 182.407443 218.832853 
" clip-path="url(#p5aac9ecb17)" style="fill: none; stroke: #ff7f0e; stroke-width: 1.5"/>
    <path d="M 185.45108 218.865623 
L 185.45108 218.83357 
" clip-path="url(#p5aac9ecb17)" style="fill: none; stroke: #ff7f0e; stroke-width: 1.5"/>
    <path d="M 188.494716 218.825432 
L 188.494716 218.765296 
" clip-path="url(#p5aac9ecb17)" style="fill: none; stroke: #ff7f0e; stroke-width: 1.5"/>
    <path d="M 191.538352 218.847948 
L 191.538352 218.798737 
" clip-path="url(#p5aac9ecb17)" style="fill: none; stroke: #ff7f0e; stroke-width: 1.5"/>
    <path d="M 194.581989 218.80744 
L 194.581989 218.749045 
" clip-path="url(#p5aac9ecb17)" style="fill: none; stroke: #ff7f0e; stroke-width: 1.5"/>
    <path d="M 197.625625 218.74435 
L 197.625625 218.664819 
" clip-path="url(#p5aac9ecb17)" style="fill: none; stroke: #ff7f0e; stroke-width: 1.5"/>
    <path d="M 200.669261 218.643208 
L 200.669261 218.553319 
" clip-path="url(#p5aac9ecb17)" style="fill: none; stroke: #ff7f0e; stroke-width: 1.5"/>
    <path d="M 203.712898 218.434799 
L 203.712898 218.312062 
" clip-path="url(#p5aac9ecb17)" style="fill: none; stroke: #ff7f0e; stroke-width: 1.5"/>
    <path d="M 206.756534 218.300699 
L 206.756534 218.165704 
" clip-path="url(#p5aac9ecb17)" style="fill: none; stroke: #ff7f0e; stroke-width: 1.5"/>
    <path d="M 209.80017 217.8136 
L 209.80017 217.628331 
" clip-path="url(#p5aac9ecb17)" style="fill: none; stroke: #ff7f0e; stroke-width: 1.5"/>
    <path d="M 212.843807 217.502988 
L 212.843807 217.295793 
" clip-path="url(#p5aac9ecb17)" style="fill: none; stroke: #ff7f0e; stroke-width: 1.5"/>
    <path d="M 215.887443 216.692947 
L 215.887443 216.426398 
" clip-path="url(#p5aac9ecb17)" style="fill: none; stroke: #ff7f0e; stroke-width: 1.5"/>
    <path d="M 218.93108 216.198825 
L 218.93108 215.907745 
" clip-path="url(#p5aac9ecb17)" style="fill: none; stroke: #ff7f0e; stroke-width: 1.5"/>
    <path d="M 221.974716 214.664898 
L 221.974716 214.283353 
" clip-path="url(#p5aac9ecb17)" style="fill: none; stroke: #ff7f0e; stroke-width: 1.5"/>
    <path d="M 225.018352 212.493504 
L 225.018352 212.014547 
" clip-path="url(#p5aac9ecb17)" style="fill: none; stroke: #ff7f0e; stroke-width: 1.5"/>
    <path d="M 228.061989 208.885653 
L 228.061989 208.266724 
" clip-path="url(#p5aac9ecb17)" style="fill: none; stroke: #ff7f0e; stroke-width: 1.5"/>
    <path d="M 231.105625 204.472251 
L 231.105625 203.703849 
" clip-path="url(#p5aac9ecb17)" style="fill: none; stroke: #ff7f0e; stroke-width: 1.5"/>
    <path d="M 234.149261 197.19326 
L 234.149261 196.232024 
" clip-path="url(#p5aac9ecb17)" style="fill: none; stroke: #ff7f0e; stroke-width: 1.5"/>
    <path d="M 237.192898 188.449639 
L 237.192898 187.277168 
" clip-path="url(#p5aac9ecb17)" style="fill: none; stroke: #ff7f0e; stroke-width: 1.5"/>
    <path d="M 240.236534 177.58854 
L 240.236534 176.197315 
" clip-path="url(#p5aac9ecb17)" style="fill: none; stroke: #ff7f0e; stroke-width: 1.5"/>
    <path d="M 243.28017 165.496871 
L 243.28017 163.885369 
" clip-path="url(#p5aac9ecb17)" style="fill: none; stroke: #ff7f0e; stroke-width: 1.5"/>
    <path d="M 246.323807 151.706569 
L 246.323807 149.874871 
" clip-path="url(#p5aac9ecb17)" style="fill: none; stroke: #ff7f0e; stroke-width: 1.5"/>
    <path d="M 249.367443 135.831298 
L 249.367443 133.765961 
" clip-path="url(#p5aac9ecb17)" style="fill: none; stroke: #ff7f0e; stroke-width: 1.5"/>
    <path d="M 252.41108 122.20139 
L 252.41108 119.952366 
" clip-path="url(#p5aac9ecb17)" style="fill: none; stroke: #ff7f0e; stroke-width: 1.5"/>
    <path d="M 255.454716 107.429283 
L 255.454716 104.989861 
" clip-path="url(#p5aac9ecb17)" style="fill: none; stroke: #ff7f0e; stroke-width: 1.5"/>
    <path d="M 258.498352 93.055078 
L 258.498352 90.455413 
" clip-path="url(#p5aac9ecb17)" style="fill: none; stroke: #ff7f0e; stroke-width: 1.5"/>
    <path d="M 261.541989 77.752328 
L 261.541989 74.980104 
" clip-path="url(#p5aac9ecb17)" style="fill: none; stroke: #ff7f0e; stroke-width: 1.5"/>
    <path d="M 264.585625 67.142486 
L 264.585625 64.262536 
" clip-path="url(#p5aac9ecb17)" style="fill: none; stroke: #ff7f0e; stroke-width: 1.5"/>
    <path d="M 267.629261 56.977654 
L 267.629261 53.991688 
" clip-path="url(#p5aac9ecb17)" style="fill: none; stroke: #ff7f0e; stroke-width: 1.5"/>
    <path d="M 270.672898 46.492058 
L 270.672898 43.398158 
" clip-path="url(#p5aac9ecb17)" style="fill: none; stroke: #ff7f0e; stroke-width: 1.5"/>
    <path d="M 273.716534 43.185069 
L 273.716534 40.066398 
" clip-path="url(#p5aac9ecb17)" style="fill: none; stroke: #ff7f0e; stroke-width: 1.5"/>
    <path d="M 276.76017 38.937161 
L 276.76017 35.770474 
" clip-path="url(#p5aac9ecb17)" style="fill: none; stroke: #ff7f0e; stroke-width: 1.5"/>
    <path d="M 279.803807 36.041854 
L 279.803807 32.847034 
" clip-path="url(#p5aac9ecb17)" style="fill: none; stroke: #ff7f0e; stroke-width: 1.5"/>
    <path d="M 282.847443 36.467184 
L 282.847443 33.267338 
" clip-path="url(#p5aac9ecb17)" style="fill: none; stroke: #ff7f0e; stroke-width: 1.5"/>
    <path d="M 285.89108 35.566539 
L 285.89108 32.362057 
" clip-path="url(#p5aac9ecb17)" style="fill: none; stroke: #ff7f0e; stroke-width: 1.5"/>
    <path d="M 288.934716 33.783936 
L 288.934716 30.561852 
" clip-path="url(#p5aac9ecb17)" style="fill: none; stroke: #ff7f0e; stroke-width: 1.5"/>
    <path d="M 291.978352 34.895147 
L 291.978352 31.675116 
" clip-path="url(#p5aac9ecb17)" style="fill: none; stroke: #ff7f0e; stroke-width: 1.5"/>
    <path d="M 295.021989 38.782426 
L 295.021989 35.592946 
" clip-path="url(#p5aac9ecb17)" style="fill: none; stroke: #ff7f0e; stroke-width: 1.5"/>
    <path d="M 298.065625 41.828149 
L 298.065625 38.654386 
" clip-path="url(#p5aac9ecb17)" style="fill: none; stroke: #ff7f0e; stroke-width: 1.5"/>
    <path d="M 301.109261 46.3877 
L 301.109261 43.255419 
" clip-path="url(#p5aac9ecb17)" style="fill: none; stroke: #ff7f0e; stroke-width: 1.5"/>
    <path d="M 304.152898 50.00942 
L 304.152898 46.893978 
" clip-path="url(#p5aac9ecb17)" style="fill: none; stroke: #ff7f0e; stroke-width: 1.5"/>
    <path d="M 307.196534 61.338017 
L 307.196534 58.323103 
" clip-path="url(#p5aac9ecb17)" style="fill: none; stroke: #ff7f0e; stroke-width: 1.5"/>
    <path d="M 310.24017 74.678147 
L 310.24017 71.782852 
" clip-path="url(#p5aac9ecb17)" style="fill: none; stroke: #ff7f0e; stroke-width: 1.5"/>
    <path d="M 313.283807 83.962564 
L 313.283807 81.152331 
" clip-path="url(#p5aac9ecb17)" style="fill: none; stroke: #ff7f0e; stroke-width: 1.5"/>
    <path d="M 316.327443 95.622337 
L 316.327443 92.921358 
" clip-path="url(#p5aac9ecb17)" style="fill: none; stroke: #ff7f0e; stroke-width: 1.5"/>
    <path d="M 319.37108 112.107372 
L 319.37108 109.585922 
" clip-path="url(#p5aac9ecb17)" style="fill: none; stroke: #ff7f0e; stroke-width: 1.5"/>
    <path d="M 322.414716 127.156223 
L 322.414716 124.818444 
" clip-path="url(#p5aac9ecb17)" style="fill: none; stroke: #ff7f0e; stroke-width: 1.5"/>
    <path d="M 325.458352 143.552466 
L 325.458352 141.431793 
" clip-path="url(#p5aac9ecb17)" style="fill: none; stroke: #ff7f0e; stroke-width: 1.5"/>
    <path d="M 328.501989 156.260691 
L 328.501989 154.32414 
" clip-path="url(#p5aac9ecb17)" style="fill: none; stroke: #ff7f0e; stroke-width: 1.5"/>
    <path d="M 331.545625 170.827971 
L 331.545625 169.123951 
" clip-path="url(#p5aac9ecb17)" style="fill: none; stroke: #ff7f0e; stroke-width: 1.5"/>
    <path d="M 334.589261 180.881311 
L 334.589261 179.36258 
" clip-path="url(#p5aac9ecb17)" style="fill: none; stroke: #ff7f0e; stroke-width: 1.5"/>
    <path d="M 337.632898 191.944127 
L 337.632898 190.664654 
" clip-path="url(#p5aac9ecb17)" style="fill: none; stroke: #ff7f0e; stroke-width: 1.5"/>
    <path d="M 340.676534 199.392971 
L 340.676534 198.302042 
" clip-path="url(#p5aac9ecb17)" style="fill: none; stroke: #ff7f0e; stroke-width: 1.5"/>
    <path d="M 343.72017 205.336784 
L 343.72017 204.424322 
" clip-path="url(#p5aac9ecb17)" style="fill: none; stroke: #ff7f0e; stroke-width: 1.5"/>
    <path d="M 346.763807 208.998048 
L 346.763807 208.218044 
" clip-path="url(#p5aac9ecb17)" style="fill: none; stroke: #ff7f0e; stroke-width: 1.5"/>
    <path d="M 349.807443 213.192948 
L 349.807443 212.591974 
" clip-path="url(#p5aac9ecb17)" style="fill: none; stroke: #ff7f0e; stroke-width: 1.5"/>
    <path d="M 352.85108 215.926805 
L 352.85108 215.492215 
" clip-path="url(#p5aac9ecb17)" style="fill: none; stroke: #ff7f0e; stroke-width: 1.5"/>
    <path d="M 355.894716 217.22406 
L 355.894716 216.900571 
" clip-path="url(#p5aac9ecb17)" style="fill: none; stroke: #ff7f0e; stroke-width: 1.5"/>
    <path d="M 358.938352 218.322952 
L 358.938352 218.130207 
" clip-path="url(#p5aac9ecb17)" style="fill: none; stroke: #ff7f0e; stroke-width: 1.5"/>
    <path d="M 361.981989 218.740404 
L 361.981989 218.632619 
" clip-path="url(#p5aac9ecb17)" style="fill: none; stroke: #ff7f0e; stroke-width: 1.5"/>
    <path d="M 365.025625 218.856189 
L 365.025625 218.802841 
" clip-path="url(#p5aac9ecb17)" style="fill: none; stroke: #ff7f0e; stroke-width: 1.5"/>
   </g>
   <g id="patch_3">
    <path d="M 46.965625 228.96 
L 46.965625 7.2 
" style="fill: none; stroke: #000000; stroke-width: 0.8; stroke-linejoin: miter; stroke-linecap: square"/>
   </g>
   <g id="patch_4">
    <path d="M 381.765625 228.96 
L 381.765625 7.2 
" style="fill: none; stroke: #000000; stroke-width: 0.8; stroke-linejoin: miter; stroke-linecap: square"/>
   </g>
   <g id="patch_5">
    <path d="M 46.965625 228.96 
L 381.765625 228.96 
" style="fill: none; stroke: #000000; stroke-width: 0.8; stroke-linejoin: miter; stroke-linecap: square"/>
   </g>
   <g id="patch_6">
    <path d="M 46.965625 7.2 
L 381.765625 7.2 
" style="fill: none; stroke: #000000; stroke-width: 0.8; stroke-linejoin: miter; stroke-linecap: square"/>
   </g>
   <g id="legend_1">
    <g id="patch_7">
     <path d="M 53.965625 44.55625 
L 137.648438 44.55625 
Q 139.648438 44.55625 139.648438 42.55625 
L 139.648438 14.2 
Q 139.648438 12.2 137.648438 12.2 
L 53.965625 12.2 
Q 51.965625 12.2 51.965625 14.2 
L 51.965625 42.55625 
Q 51.965625 44.55625 53.965625 44.55625 
z
" style="fill: #ffffff; opacity: 0.8; stroke: #cccccc; stroke-linejoin: miter"/>
    </g>
    <g id="line2d_17">
     <path d="M 55.965625 20.298438 
L 55.965625 20.298438 
L 65.965625 20.298438 
L 65.965625 20.298438 
L 75.965625 20.298438 
" style="fill: none; stroke: #1f77b4; stroke-width: 1.5; stroke-linecap: square"/>
    </g>
    <g id="text_17">
     <!-- unmasked -->
     <g transform="translate(83.965625 23.798438) scale(0.1 -0.1)">
      <defs>
       <path id="DejaVuSans-6b" d="M 581 4863 
L 1159 4863 
L 1159 1991 
L 2875 3500 
L 3609 3500 
L 1753 1863 
L 3688 0 
L 2938 0 
L 1159 1709 
L 1159 0 
L 581 0 
L 581 4863 
z
" transform="scale(0.015625)"/>
       <path id="DejaVuSans-64" d="M 2906 2969 
L 2906 4863 
L 3481 4863 
L 3481 0 
L 2906 0 
L 2906 525 
Q 2725 213 2448 61 
Q 2172 -91 1784 -91 
Q 1150 -91 751 415 
Q 353 922 353 1747 
Q 353 2572 751 3078 
Q 1150 3584 1784 3584 
Q 2172 3584 2448 3432 
Q 2725 3281 2906 2969 
z
M 947 1747 
Q 947 1113 1208 752 
Q 1469 391 1925 391 
Q 2381 391 2643 752 
Q 2906 1113 2906 1747 
Q 2906 2381 2643 2742 
Q 2381 3103 1925 3103 
Q 1469 3103 1208 2742 
Q 947 2381 947 1747 
z
" transform="scale(0.015625)"/>
      </defs>
      <use xlink:href="#DejaVuSans-75"/>
      <use xlink:href="#DejaVuSans-6e" transform="translate(63.378906 0)"/>
      <use xlink:href="#DejaVuSans-6d" transform="translate(126.757812 0)"/>
      <use xlink:href="#DejaVuSans-61" transform="translate(224.169922 0)"/>
      <use xlink:href="#DejaVuSans-73" transform="translate(285.449219 0)"/>
      <use xlink:href="#DejaVuSans-6b" transform="translate(337.548828 0)"/>
      <use xlink:href="#DejaVuSans-65" transform="translate(391.833984 0)"/>
      <use xlink:href="#DejaVuSans-64" transform="translate(453.357422 0)"/>
     </g>
    </g>
    <g id="line2d_18">
     <path d="M 55.965625 34.976562 
L 55.965625 34.976562 
L 65.965625 34.976562 
L 65.965625 34.976562 
L 75.965625 34.976562 
" style="fill: none; stroke: #ff7f0e; stroke-width: 1.5; stroke-linecap: square"/>
    </g>
    <g id="text_18">
     <!-- masked -->
     <g transform="translate(83.965625 38.476562) scale(0.1 -0.1)">
      <use xlink:href="#DejaVuSans-6d"/>
      <use xlink:href="#DejaVuSans-61" transform="translate(97.412109 0)"/>
      <use xlink:href="#DejaVuSans-73" transform="translate(158.691406 0)"/>
      <use xlink:href="#DejaVuSans-6b" transform="translate(210.791016 0)"/>
      <use xlink:href="#DejaVuSans-65" transform="translate(265.076172 0)"/>
      <use xlink:href="#DejaVuSans-64" transform="translate(326.599609 0)"/>
     </g>
    </g>
   </g>
  </g>
 </g>
 <defs>
  <clipPath id="p5aac9ecb17">
   <rect x="46.965625" y="7.2" width="334.8" height="221.76"/>
  </clipPath>
 </defs>
</svg>