<?xml version="1.0" encoding="utf-8" standalone="no"?>
<!DOCTYPE svg PUBLIC "-//W3C//DTD SVG 1.1//EN"
  "http://www.w3.org/Graphics/SVG/1.1/DTD/svg11.dtd">
<svg xmlns:xlink="http://www.w3.org/1999/xlink" width="382.603125pt" height="268.200625pt" viewBox="0 0 382.603125 268.200625" xmlns="http://www.w3.org/2000/svg" version="1.1">
 <metadata>
  <rdf:RDF xmlns:dc="http://purl.org/dc/elements/1.1/" xmlns:cc="http://creativecommons.org/ns#" xmlns:rdf="http://www.w3.org/1999/02/22-rdf-syntax-ns#">
   <cc:Work>
    <dc:type rdf:resource="http://purl.org/dc/dcmitype/StillImage"/>
    <dc:date>2025-06-23T14:42:05.879785</dc:date>
    <dc:format>image/svg+xml</dc:format>
    <dc:creator>
     <cc:Agent>
      <dc:title>Matplotlib v3.10.1, https://matplotlib.org/</dc:title>
     </cc:Agent>
    </dc:creator>
   </cc:Work>
  </rdf:RDF>
 </metadata>
 <defs>
  <style type="text/css">*{stroke-linejoin: round; stroke-linecap: butt}</style>
 </defs>
 <g id="figure_1">
  <g id="patch_1">
   <path d="M 0 268.200625 
L 382.603125 268.200625 
L 382.603125 0 
L 0 0 
z
" style="fill: #ffffff"/>
  </g>
  <g id="axes_1">
   <g id="patch_2">
    <path d="M 40.603125 228.96 
L 375.403125 228.96 
L 375.403125 7.2 
L 40.603125 7.2 
z
" style="fill: #ffffff"/>
   </g>
   <g id="matplotlib.axis_1">
    <g id="xtick_1">
     <g id="line2d_1">
      <defs>
       <path id="mafc11700f9" d="M 0 0 
L 0 3.5 
" style="stroke: #000000; stroke-width: 0.8"/>
      </defs>
      <g>
       <use xlink:href="#mafc11700f9" x="76.112216" y="228.96" style="stroke: #000000; stroke-width: 0.8"/>
      </g>
     </g>
     <g id="text_1">
      <!-- 0.6 -->
      <g transform="translate(68.160653 243.558437) scale(0.1 -0.1)">
       <defs>
        <path id="DejaVuSans-30" d="M 2034 4250 
Q 1547 4250 1301 3770 
Q 1056 3291 1056 2328 
Q 1056 1369 1301 889 
Q 1547 409 2034 409 
Q 2525 409 2770 889 
Q 3016 1369 3016 2328 
Q 3016 3291 2770 3770 
Q 2525 4250 2034 4250 
z
M 2034 4750 
Q 2819 4750 3233 4129 
Q 3647 3509 3647 2328 
Q 3647 1150 3233 529 
Q 2819 -91 2034 -91 
Q 1250 -91 836 529 
Q 422 1150 422 2328 
Q 422 3509 836 4129 
Q 1250 4750 2034 4750 
z
" transform="scale(0.015625)"/>
        <path id="DejaVuSans-2e" d="M 684 794 
L 1344 794 
L 1344 0 
L 684 0 
L 684 794 
z
" transform="scale(0.015625)"/>
        <path id="DejaVuSans-36" d="M 2113 2584 
Q 1688 2584 1439 2293 
Q 1191 2003 1191 1497 
Q 1191 994 1439 701 
Q 1688 409 2113 409 
Q 2538 409 2786 701 
Q 3034 994 3034 1497 
Q 3034 2003 2786 2293 
Q 2538 2584 2113 2584 
z
M 3366 4563 
L 3366 3988 
Q 3128 4100 2886 4159 
Q 2644 4219 2406 4219 
Q 1781 4219 1451 3797 
Q 1122 3375 1075 2522 
Q 1259 2794 1537 2939 
Q 1816 3084 2150 3084 
Q 2853 3084 3261 2657 
Q 3669 2231 3669 1497 
Q 3669 778 3244 343 
Q 2819 -91 2113 -91 
Q 1303 -91 875 529 
Q 447 1150 447 2328 
Q 447 3434 972 4092 
Q 1497 4750 2381 4750 
Q 2619 4750 2861 4703 
Q 3103 4656 3366 4563 
z
" transform="scale(0.015625)"/>
       </defs>
       <use xlink:href="#DejaVuSans-30"/>
       <use xlink:href="#DejaVuSans-2e" transform="translate(63.623047 0)"/>
       <use xlink:href="#DejaVuSans-36" transform="translate(95.410156 0)"/>
      </g>
     </g>
    </g>
    <g id="xtick_2">
     <g id="line2d_2">
      <g>
       <use xlink:href="#mafc11700f9" x="116.694034" y="228.96" style="stroke: #000000; stroke-width: 0.8"/>
      </g>
     </g>
     <g id="text_2">
      <!-- 0.8 -->
      <g transform="translate(108.742472 243.558437) scale(0.1 -0.1)">
       <defs>
        <path id="DejaVuSans-38" d="M 2034 2216 
Q 1584 2216 1326 1975 
Q 1069 1734 1069 1313 
Q 1069 891 1326 650 
Q 1584 409 2034 409 
Q 2484 409 2743 651 
Q 3003 894 3003 1313 
Q 3003 1734 2745 1975 
Q 2488 2216 2034 2216 
z
M 1403 2484 
Q 997 2584 770 2862 
Q 544 3141 544 3541 
Q 544 4100 942 4425 
Q 1341 4750 2034 4750 
Q 2731 4750 3128 4425 
Q 3525 4100 3525 3541 
Q 3525 3141 3298 2862 
Q 3072 2584 2669 2484 
Q 3125 2378 3379 2068 
Q 3634 1759 3634 1313 
Q 3634 634 3220 271 
Q 2806 -91 2034 -91 
Q 1263 -91 848 271 
Q 434 634 434 1313 
Q 434 1759 690 2068 
Q 947 2378 1403 2484 
z
M 1172 3481 
Q 1172 3119 1398 2916 
Q 1625 2713 2034 2713 
Q 2441 2713 2670 2916 
Q 2900 3119 2900 3481 
Q 2900 3844 2670 4047 
Q 2441 4250 2034 4250 
Q 1625 4250 1398 4047 
Q 1172 3844 1172 3481 
z
" transform="scale(0.015625)"/>
       </defs>
       <use xlink:href="#DejaVuSans-30"/>
       <use xlink:href="#DejaVuSans-2e" transform="translate(63.623047 0)"/>
       <use xlink:href="#DejaVuSans-38" transform="translate(95.410156 0)"/>
      </g>
     </g>
    </g>
    <g id="xtick_3">
     <g id="line2d_3">
      <g>
       <use xlink:href="#mafc11700f9" x="157.275852" y="228.96" style="stroke: #000000; stroke-width: 0.8"/>
      </g>
     </g>
     <g id="text_3">
      <!-- 1.0 -->
      <g transform="translate(149.32429 243.558437) scale(0.1 -0.1)">
       <defs>
        <path id="DejaVuSans-31" d="M 794 531 
L 1825 531 
L 1825 4091 
L 703 3866 
L 703 4441 
L 1819 4666 
L 2450 4666 
L 2450 531 
L 3481 531 
L 3481 0 
L 794 0 
L 794 531 
z
" transform="scale(0.015625)"/>
       </defs>
       <use xlink:href="#DejaVuSans-31"/>
       <use xlink:href="#DejaVuSans-2e" transform="translate(63.623047 0)"/>
       <use xlink:href="#DejaVuSans-30" transform="translate(95.410156 0)"/>
      </g>
     </g>
    </g>
    <g id="xtick_4">
     <g id="line2d_4">
      <g>
       <use xlink:href="#mafc11700f9" x="197.85767" y="228.96" style="stroke: #000000; stroke-width: 0.8"/>
      </g>
     </g>
     <g id="text_4">
      <!-- 1.2 -->
      <g transform="translate(189.906108 243.558437) scale(0.1 -0.1)">
       <defs>
        <path id="DejaVuSans-32" d="M 1228 531 
L 3431 531 
L 3431 0 
L 469 0 
L 469 531 
Q 828 903 1448 1529 
Q 2069 2156 2228 2338 
Q 2531 2678 2651 2914 
Q 2772 3150 2772 3378 
Q 2772 3750 2511 3984 
Q 2250 4219 1831 4219 
Q 1534 4219 1204 4116 
Q 875 4013 500 3803 
L 500 4441 
Q 881 4594 1212 4672 
Q 1544 4750 1819 4750 
Q 2544 4750 2975 4387 
Q 3406 4025 3406 3419 
Q 3406 3131 3298 2873 
Q 3191 2616 2906 2266 
Q 2828 2175 2409 1742 
Q 1991 1309 1228 531 
z
" transform="scale(0.015625)"/>
       </defs>
       <use xlink:href="#DejaVuSans-31"/>
       <use xlink:href="#DejaVuSans-2e" transform="translate(63.623047 0)"/>
       <use xlink:href="#DejaVuSans-32" transform="translate(95.410156 0)"/>
      </g>
     </g>
    </g>
    <g id="xtick_5">
     <g id="line2d_5">
      <g>
       <use xlink:href="#mafc11700f9" x="238.439489" y="228.96" style="stroke: #000000; stroke-width: 0.8"/>
      </g>
     </g>
     <g id="text_5">
      <!-- 1.4 -->
      <g transform="translate(230.487926 243.558437) scale(0.1 -0.1)">
       <defs>
        <path id="DejaVuSans-34" d="M 2419 4116 
L 825 1625 
L 2419 1625 
L 2419 4116 
z
M 2253 4666 
L 3047 4666 
L 3047 1625 
L 3713 1625 
L 3713 1100 
L 3047 1100 
L 3047 0 
L 2419 0 
L 2419 1100 
L 313 1100 
L 313 1709 
L 2253 4666 
z
" transform="scale(0.015625)"/>
       </defs>
       <use xlink:href="#DejaVuSans-31"/>
       <use xlink:href="#DejaVuSans-2e" transform="translate(63.623047 0)"/>
       <use xlink:href="#DejaVuSans-34" transform="translate(95.410156 0)"/>
      </g>
     </g>
    </g>
    <g id="xtick_6">
     <g id="line2d_6">
      <g>
       <use xlink:href="#mafc11700f9" x="279.021307" y="228.96" style="stroke: #000000; stroke-width: 0.8"/>
      </g>
     </g>
     <g id="text_6">
      <!-- 1.6 -->
      <g transform="translate(271.069744 243.558437) scale(0.1 -0.1)">
       <use xlink:href="#DejaVuSans-31"/>
       <use xlink:href="#DejaVuSans-2e" transform="translate(63.623047 0)"/>
       <use xlink:href="#DejaVuSans-36" transform="translate(95.410156 0)"/>
      </g>
     </g>
    </g>
    <g id="xtick_7">
     <g id="line2d_7">
      <g>
       <use xlink:href="#mafc11700f9" x="319.603125" y="228.96" style="stroke: #000000; stroke-width: 0.8"/>
      </g>
     </g>
     <g id="text_7">
      <!-- 1.8 -->
      <g transform="translate(311.651562 243.558437) scale(0.1 -0.1)">
       <use xlink:href="#DejaVuSans-31"/>
       <use xlink:href="#DejaVuSans-2e" transform="translate(63.623047 0)"/>
       <use xlink:href="#DejaVuSans-38" transform="translate(95.410156 0)"/>
      </g>
     </g>
    </g>
    <g id="xtick_8">
     <g id="line2d_8">
      <g>
       <use xlink:href="#mafc11700f9" x="360.184943" y="228.96" style="stroke: #000000; stroke-width: 0.8"/>
      </g>
     </g>
     <g id="text_8">
      <!-- 2.0 -->
      <g transform="translate(352.233381 243.558437) scale(0.1 -0.1)">
       <use xlink:href="#DejaVuSans-32"/>
       <use xlink:href="#DejaVuSans-2e" transform="translate(63.623047 0)"/>
       <use xlink:href="#DejaVuSans-30" transform="translate(95.410156 0)"/>
      </g>
     </g>
    </g>
    <g id="text_9">
     <!-- dspacing [Å] -->
     <g transform="translate(176.59375 258.920937) scale(0.1 -0.1)">
      <defs>
       <path id="DejaVuSans-64" d="M 2906 2969 
L 2906 4863 
L 3481 4863 
L 3481 0 
L 2906 0 
L 2906 525 
Q 2725 213 2448 61 
Q 2172 -91 1784 -91 
Q 1150 -91 751 415 
Q 353 922 353 1747 
Q 353 2572 751 3078 
Q 1150 3584 1784 3584 
Q 2172 3584 2448 3432 
Q 2725 3281 2906 2969 
z
M 947 1747 
Q 947 1113 1208 752 
Q 1469 391 1925 391 
Q 2381 391 2643 752 
Q 2906 1113 2906 1747 
Q 2906 2381 2643 2742 
Q 2381 3103 1925 3103 
Q 1469 3103 1208 2742 
Q 947 2381 947 1747 
z
" transform="scale(0.015625)"/>
       <path id="DejaVuSans-73" d="M 2834 3397 
L 2834 2853 
Q 2591 2978 2328 3040 
Q 2066 3103 1784 3103 
Q 1356 3103 1142 2972 
Q 928 2841 928 2578 
Q 928 2378 1081 2264 
Q 1234 2150 1697 2047 
L 1894 2003 
Q 2506 1872 2764 1633 
Q 3022 1394 3022 966 
Q 3022 478 2636 193 
Q 2250 -91 1575 -91 
Q 1294 -91 989 -36 
Q 684 19 347 128 
L 347 722 
Q 666 556 975 473 
Q 1284 391 1588 391 
Q 1994 391 2212 530 
Q 2431 669 2431 922 
Q 2431 1156 2273 1281 
Q 2116 1406 1581 1522 
L 1381 1569 
Q 847 1681 609 1914 
Q 372 2147 372 2553 
Q 372 3047 722 3315 
Q 1072 3584 1716 3584 
Q 2034 3584 2315 3537 
Q 2597 3491 2834 3397 
z
" transform="scale(0.015625)"/>
       <path id="DejaVuSans-70" d="M 1159 525 
L 1159 -1331 
L 581 -1331 
L 581 3500 
L 1159 3500 
L 1159 2969 
Q 1341 3281 1617 3432 
Q 1894 3584 2278 3584 
Q 2916 3584 3314 3078 
Q 3713 2572 3713 1747 
Q 3713 922 3314 415 
Q 2916 -91 2278 -91 
Q 1894 -91 1617 61 
Q 1341 213 1159 525 
z
M 3116 1747 
Q 3116 2381 2855 2742 
Q 2594 3103 2138 3103 
Q 1681 3103 1420 2742 
Q 1159 2381 1159 1747 
Q 1159 1113 1420 752 
Q 1681 391 2138 391 
Q 2594 391 2855 752 
Q 3116 1113 3116 1747 
z
" transform="scale(0.015625)"/>
       <path id="DejaVuSans-61" d="M 2194 1759 
Q 1497 1759 1228 1600 
Q 959 1441 959 1056 
Q 959 750 1161 570 
Q 1363 391 1709 391 
Q 2188 391 2477 730 
Q 2766 1069 2766 1631 
L 2766 1759 
L 2194 1759 
z
M 3341 1997 
L 3341 0 
L 2766 0 
L 2766 531 
Q 2569 213 2275 61 
Q 1981 -91 1556 -91 
Q 1019 -91 701 211 
Q 384 513 384 1019 
Q 384 1609 779 1909 
Q 1175 2209 1959 2209 
L 2766 2209 
L 2766 2266 
Q 2766 2663 2505 2880 
Q 2244 3097 1772 3097 
Q 1472 3097 1187 3025 
Q 903 2953 641 2809 
L 641 3341 
Q 956 3463 1253 3523 
Q 1550 3584 1831 3584 
Q 2591 3584 2966 3190 
Q 3341 2797 3341 1997 
z
" transform="scale(0.015625)"/>
       <path id="DejaVuSans-63" d="M 3122 3366 
L 3122 2828 
Q 2878 2963 2633 3030 
Q 2388 3097 2138 3097 
Q 1578 3097 1268 2742 
Q 959 2388 959 1747 
Q 959 1106 1268 751 
Q 1578 397 2138 397 
Q 2388 397 2633 464 
Q 2878 531 3122 666 
L 3122 134 
Q 2881 22 2623 -34 
Q 2366 -91 2075 -91 
Q 1284 -91 818 406 
Q 353 903 353 1747 
Q 353 2603 823 3093 
Q 1294 3584 2113 3584 
Q 2378 3584 2631 3529 
Q 2884 3475 3122 3366 
z
" transform="scale(0.015625)"/>
       <path id="DejaVuSans-69" d="M 603 3500 
L 1178 3500 
L 1178 0 
L 603 0 
L 603 3500 
z
M 603 4863 
L 1178 4863 
L 1178 4134 
L 603 4134 
L 603 4863 
z
" transform="scale(0.015625)"/>
       <path id="DejaVuSans-6e" d="M 3513 2113 
L 3513 0 
L 2938 0 
L 2938 2094 
Q 2938 2591 2744 2837 
Q 2550 3084 2163 3084 
Q 1697 3084 1428 2787 
Q 1159 2491 1159 1978 
L 1159 0 
L 581 0 
L 581 3500 
L 1159 3500 
L 1159 2956 
Q 1366 3272 1645 3428 
Q 1925 3584 2291 3584 
Q 2894 3584 3203 3211 
Q 3513 2838 3513 2113 
z
" transform="scale(0.015625)"/>
       <path id="DejaVuSans-67" d="M 2906 1791 
Q 2906 2416 2648 2759 
Q 2391 3103 1925 3103 
Q 1463 3103 1205 2759 
Q 947 2416 947 1791 
Q 947 1169 1205 825 
Q 1463 481 1925 481 
Q 2391 481 2648 825 
Q 2906 1169 2906 1791 
z
M 3481 434 
Q 3481 -459 3084 -895 
Q 2688 -1331 1869 -1331 
Q 1566 -1331 1297 -1286 
Q 1028 -1241 775 -1147 
L 775 -588 
Q 1028 -725 1275 -790 
Q 1522 -856 1778 -856 
Q 2344 -856 2625 -561 
Q 2906 -266 2906 331 
L 2906 616 
Q 2728 306 2450 153 
Q 2172 0 1784 0 
Q 1141 0 747 490 
Q 353 981 353 1791 
Q 353 2603 747 3093 
Q 1141 3584 1784 3584 
Q 2172 3584 2450 3431 
Q 2728 3278 2906 2969 
L 2906 3500 
L 3481 3500 
L 3481 434 
z
" transform="scale(0.015625)"/>
       <path id="DejaVuSans-20" transform="scale(0.015625)"/>
       <path id="DejaVuSans-5b" d="M 550 4863 
L 1875 4863 
L 1875 4416 
L 1125 4416 
L 1125 -397 
L 1875 -397 
L 1875 -844 
L 550 -844 
L 550 4863 
z
" transform="scale(0.015625)"/>
       <path id="DejaVuSans-c5" d="M 2663 5081 
Q 2663 5278 2523 5417 
Q 2384 5556 2188 5556 
Q 1988 5556 1852 5420 
Q 1716 5284 1716 5081 
Q 1716 4884 1853 4746 
Q 1991 4609 2188 4609 
Q 2384 4609 2523 4746 
Q 2663 4884 2663 5081 
z
M 2188 4044 
L 1338 1722 
L 3041 1722 
L 2188 4044 
z
M 1716 4366 
Q 1525 4494 1428 4673 
Q 1331 4853 1331 5081 
Q 1331 5441 1579 5691 
Q 1828 5941 2188 5941 
Q 2544 5941 2795 5689 
Q 3047 5438 3047 5081 
Q 3047 4863 2948 4678 
Q 2850 4494 2663 4366 
L 4325 0 
L 3669 0 
L 3244 1197 
L 1141 1197 
L 716 0 
L 50 0 
L 1716 4366 
z
" transform="scale(0.015625)"/>
       <path id="DejaVuSans-5d" d="M 1947 4863 
L 1947 -844 
L 622 -844 
L 622 -397 
L 1369 -397 
L 1369 4416 
L 622 4416 
L 622 4863 
L 1947 4863 
z
" transform="scale(0.015625)"/>
      </defs>
      <use xlink:href="#DejaVuSans-64"/>
      <use xlink:href="#DejaVuSans-73" transform="translate(63.476562 0)"/>
      <use xlink:href="#DejaVuSans-70" transform="translate(115.576172 0)"/>
      <use xlink:href="#DejaVuSans-61" transform="translate(179.052734 0)"/>
      <use xlink:href="#DejaVuSans-63" transform="translate(240.332031 0)"/>
      <use xlink:href="#DejaVuSans-69" transform="translate(295.3125 0)"/>
      <use xlink:href="#DejaVuSans-6e" transform="translate(323.095703 0)"/>
      <use xlink:href="#DejaVuSans-67" transform="translate(386.474609 0)"/>
      <use xlink:href="#DejaVuSans-20" transform="translate(449.951172 0)"/>
      <use xlink:href="#DejaVuSans-5b" transform="translate(481.738281 0)"/>
      <use xlink:href="#DejaVuSans-c5" transform="translate(520.751953 0)"/>
      <use xlink:href="#DejaVuSans-5d" transform="translate(589.160156 0)"/>
     </g>
    </g>
   </g>
   <g id="matplotlib.axis_2">
    <g id="ytick_1">
     <g id="line2d_9">
      <defs>
       <path id="m40d209aa30" d="M 0 0 
L -3.5 0 
" style="stroke: #000000; stroke-width: 0.8"/>
      </defs>
      <g>
       <use xlink:href="#m40d209aa30" x="40.603125" y="216.377517" style="stroke: #000000; stroke-width: 0.8"/>
      </g>
     </g>
     <g id="text_10">
      <!-- 0 -->
      <g transform="translate(27.240625 220.176736) scale(0.1 -0.1)">
       <use xlink:href="#DejaVuSans-30"/>
      </g>
     </g>
    </g>
    <g id="ytick_2">
     <g id="line2d_10">
      <g>
       <use xlink:href="#m40d209aa30" x="40.603125" y="170.144593" style="stroke: #000000; stroke-width: 0.8"/>
      </g>
     </g>
     <g id="text_11">
      <!-- 5 -->
      <g transform="translate(27.240625 173.943812) scale(0.1 -0.1)">
       <defs>
        <path id="DejaVuSans-35" d="M 691 4666 
L 3169 4666 
L 3169 4134 
L 1269 4134 
L 1269 2991 
Q 1406 3038 1543 3061 
Q 1681 3084 1819 3084 
Q 2600 3084 3056 2656 
Q 3513 2228 3513 1497 
Q 3513 744 3044 326 
Q 2575 -91 1722 -91 
Q 1428 -91 1123 -41 
Q 819 9 494 109 
L 494 744 
Q 775 591 1075 516 
Q 1375 441 1709 441 
Q 2250 441 2565 725 
Q 2881 1009 2881 1497 
Q 2881 1984 2565 2268 
Q 2250 2553 1709 2553 
Q 1456 2553 1204 2497 
Q 953 2441 691 2322 
L 691 4666 
z
" transform="scale(0.015625)"/>
       </defs>
       <use xlink:href="#DejaVuSans-35"/>
      </g>
     </g>
    </g>
    <g id="ytick_3">
     <g id="line2d_11">
      <g>
       <use xlink:href="#m40d209aa30" x="40.603125" y="123.911669" style="stroke: #000000; stroke-width: 0.8"/>
      </g>
     </g>
     <g id="text_12">
      <!-- 10 -->
      <g transform="translate(20.878125 127.710888) scale(0.1 -0.1)">
       <use xlink:href="#DejaVuSans-31"/>
       <use xlink:href="#DejaVuSans-30" transform="translate(63.623047 0)"/>
      </g>
     </g>
    </g>
    <g id="ytick_4">
     <g id="line2d_12">
      <g>
       <use xlink:href="#m40d209aa30" x="40.603125" y="77.678746" style="stroke: #000000; stroke-width: 0.8"/>
      </g>
     </g>
     <g id="text_13">
      <!-- 15 -->
      <g transform="translate(20.878125 81.477964) scale(0.1 -0.1)">
       <use xlink:href="#DejaVuSans-31"/>
       <use xlink:href="#DejaVuSans-35" transform="translate(63.623047 0)"/>
      </g>
     </g>
    </g>
    <g id="ytick_5">
     <g id="line2d_13">
      <g>
       <use xlink:href="#m40d209aa30" x="40.603125" y="31.445822" style="stroke: #000000; stroke-width: 0.8"/>
      </g>
     </g>
     <g id="text_14">
      <!-- 20 -->
      <g transform="translate(20.878125 35.24504) scale(0.1 -0.1)">
       <use xlink:href="#DejaVuSans-32"/>
       <use xlink:href="#DejaVuSans-30" transform="translate(63.623047 0)"/>
      </g>
     </g>
    </g>
    <g id="text_15">
     <!-- [dimensionless] -->
     <g transform="translate(14.798438 157.557344) rotate(-90) scale(0.1 -0.1)">
      <defs>
       <path id="DejaVuSans-6d" d="M 3328 2828 
Q 3544 3216 3844 3400 
Q 4144 3584 4550 3584 
Q 5097 3584 5394 3201 
Q 5691 2819 5691 2113 
L 5691 0 
L 5113 0 
L 5113 2094 
Q 5113 2597 4934 2840 
Q 4756 3084 4391 3084 
Q 3944 3084 3684 2787 
Q 3425 2491 3425 1978 
L 3425 0 
L 2847 0 
L 2847 2094 
Q 2847 2600 2669 2842 
Q 2491 3084 2119 3084 
Q 1678 3084 1418 2786 
Q 1159 2488 1159 1978 
L 1159 0 
L 581 0 
L 581 3500 
L 1159 3500 
L 1159 2956 
Q 1356 3278 1631 3431 
Q 1906 3584 2284 3584 
Q 2666 3584 2933 3390 
Q 3200 3197 3328 2828 
z
" transform="scale(0.015625)"/>
       <path id="DejaVuSans-65" d="M 3597 1894 
L 3597 1613 
L 953 1613 
Q 991 1019 1311 708 
Q 1631 397 2203 397 
Q 2534 397 2845 478 
Q 3156 559 3463 722 
L 3463 178 
Q 3153 47 2828 -22 
Q 2503 -91 2169 -91 
Q 1331 -91 842 396 
Q 353 884 353 1716 
Q 353 2575 817 3079 
Q 1281 3584 2069 3584 
Q 2775 3584 3186 3129 
Q 3597 2675 3597 1894 
z
M 3022 2063 
Q 3016 2534 2758 2815 
Q 2500 3097 2075 3097 
Q 1594 3097 1305 2825 
Q 1016 2553 972 2059 
L 3022 2063 
z
" transform="scale(0.015625)"/>
       <path id="DejaVuSans-6f" d="M 1959 3097 
Q 1497 3097 1228 2736 
Q 959 2375 959 1747 
Q 959 1119 1226 758 
Q 1494 397 1959 397 
Q 2419 397 2687 759 
Q 2956 1122 2956 1747 
Q 2956 2369 2687 2733 
Q 2419 3097 1959 3097 
z
M 1959 3584 
Q 2709 3584 3137 3096 
Q 3566 2609 3566 1747 
Q 3566 888 3137 398 
Q 2709 -91 1959 -91 
Q 1206 -91 779 398 
Q 353 888 353 1747 
Q 353 2609 779 3096 
Q 1206 3584 1959 3584 
z
" transform="scale(0.015625)"/>
       <path id="DejaVuSans-6c" d="M 603 4863 
L 1178 4863 
L 1178 0 
L 603 0 
L 603 4863 
z
" transform="scale(0.015625)"/>
      </defs>
      <use xlink:href="#DejaVuSans-5b"/>
      <use xlink:href="#DejaVuSans-64" transform="translate(39.013672 0)"/>
      <use xlink:href="#DejaVuSans-69" transform="translate(102.490234 0)"/>
      <use xlink:href="#DejaVuSans-6d" transform="translate(130.273438 0)"/>
      <use xlink:href="#DejaVuSans-65" transform="translate(227.685547 0)"/>
      <use xlink:href="#DejaVuSans-6e" transform="translate(289.208984 0)"/>
      <use xlink:href="#DejaVuSans-73" transform="translate(352.587891 0)"/>
      <use xlink:href="#DejaVuSans-69" transform="translate(404.6875 0)"/>
      <use xlink:href="#DejaVuSans-6f" transform="translate(432.470703 0)"/>
      <use xlink:href="#DejaVuSans-6e" transform="translate(493.652344 0)"/>
      <use xlink:href="#DejaVuSans-6c" transform="translate(557.03125 0)"/>
      <use xlink:href="#DejaVuSans-65" transform="translate(584.814453 0)"/>
      <use xlink:href="#DejaVuSans-73" transform="translate(646.337891 0)"/>
      <use xlink:href="#DejaVuSans-73" transform="translate(698.4375 0)"/>
      <use xlink:href="#DejaVuSans-5d" transform="translate(750.537109 0)"/>
     </g>
    </g>
   </g>
   <g id="patch_3">
    <path d="M 40.603125 228.96 
L 40.603125 7.2 
" style="fill: none; stroke: #000000; stroke-width: 0.8; stroke-linejoin: miter; stroke-linecap: square"/>
   </g>
   <g id="patch_4">
    <path d="M 375.403125 228.96 
L 375.403125 7.2 
" style="fill: none; stroke: #000000; stroke-width: 0.8; stroke-linejoin: miter; stroke-linecap: square"/>
   </g>
   <g id="patch_5">
    <path d="M 40.603125 228.96 
L 375.403125 228.96 
" style="fill: none; stroke: #000000; stroke-width: 0.8; stroke-linejoin: miter; stroke-linecap: square"/>
   </g>
   <g id="patch_6">
    <path d="M 40.603125 7.2 
L 375.403125 7.2 
" style="fill: none; stroke: #000000; stroke-width: 0.8; stroke-linejoin: miter; stroke-linecap: square"/>
   </g>
   <g id="line2d_14">
    <path d="M 55.821307 214.853535 
L 57.343125 214.853535 
L 57.343125 215.755256 
L 58.864943 215.755256 
L 58.864943 215.492371 
L 60.386761 215.492371 
L 60.386761 216.289505 
L 61.90858 216.289505 
L 61.90858 214.497934 
L 63.430398 214.497934 
L 63.430398 216.344214 
L 64.952216 216.344214 
L 64.952216 203.9898 
L 66.474034 203.9898 
L 66.474034 204.258285 
L 67.995852 204.258285 
L 67.995852 214.458839 
L 69.51767 214.458839 
L 69.51767 189.041302 
L 71.039489 189.041302 
L 71.039489 116.217484 
L 72.561307 116.217484 
L 72.561307 209.318727 
L 74.083125 209.318727 
L 74.083125 177.091749 
L 75.604943 177.091749 
L 75.604943 214.229692 
L 77.126761 214.229692 
L 77.126761 204.747975 
L 78.64858 204.747975 
L 78.64858 204.022653 
L 80.170398 204.022653 
L 80.170398 205.463283 
L 81.692216 205.463283 
L 81.692216 215.037858 
L 83.214034 215.037858 
L 83.214034 211.564075 
L 84.735852 211.564075 
L 84.735852 207.66423 
L 86.25767 207.66423 
L 86.25767 209.184906 
L 87.779489 209.184906 
L 87.779489 215.017348 
L 89.301307 215.017348 
L 89.301307 212.492765 
L 90.823125 212.492765 
L 90.823125 129.02795 
L 92.344943 129.02795 
L 92.344943 196.795345 
L 93.866761 196.795345 
L 93.866761 212.184101 
L 95.38858 212.184101 
L 95.38858 214.791284 
L 96.910398 214.791284 
L 96.910398 212.005543 
L 98.432216 212.005543 
L 98.432216 209.828443 
L 99.954034 209.828443 
L 99.954034 209.444424 
L 101.475852 209.444424 
L 101.475852 207.584192 
L 102.99767 207.584192 
L 102.99767 194.474344 
L 104.519489 194.474344 
L 104.519489 215.267541 
L 106.041307 215.267541 
L 106.041307 215.473489 
L 107.563125 215.473489 
L 107.563125 210.453436 
L 109.084943 210.453436 
L 109.084943 212.661638 
L 110.606761 212.661638 
L 110.606761 213.843535 
L 112.12858 213.843535 
L 112.12858 207.267205 
L 113.650398 207.267205 
L 113.650398 214.675867 
L 115.172216 214.675867 
L 115.172216 214.88077 
L 118.215852 214.860117 
L 118.215852 208.261481 
L 119.73767 208.261481 
L 119.73767 206.712647 
L 122.781307 206.636942 
L 122.781307 209.556364 
L 124.303125 209.556364 
L 124.303125 207.548695 
L 125.824943 207.548695 
L 125.824943 207.300084 
L 127.346761 207.300084 
L 127.346761 210.586133 
L 128.86858 210.586133 
L 128.86858 208.6532 
L 130.390398 208.6532 
L 130.390398 212.419002 
L 131.912216 212.419002 
L 131.912216 210.664488 
L 133.434034 210.664488 
L 133.434034 213.42453 
L 134.955852 213.42453 
L 134.955852 212.723833 
L 136.47767 212.723833 
L 136.47767 215.618324 
L 137.999489 215.618324 
L 137.999489 211.620741 
L 139.521307 211.620741 
L 139.521307 194.096408 
L 141.043125 194.096408 
L 141.043125 211.855414 
L 142.564943 211.855414 
L 142.564943 207.806942 
L 144.086761 207.806942 
L 144.086761 212.355292 
L 145.60858 212.355292 
L 145.60858 210.754443 
L 147.130398 210.754443 
L 147.130398 205.483441 
L 148.652216 205.483441 
L 148.652216 188.229755 
L 150.174034 188.229755 
L 150.174034 214.421106 
L 151.695852 214.421106 
L 151.695852 213.989892 
L 153.21767 213.989892 
L 153.21767 206.952059 
L 154.739489 206.952059 
L 154.739489 203.949692 
L 156.261307 203.949692 
L 156.261307 211.721902 
L 157.783125 211.721902 
L 157.783125 212.469875 
L 159.304943 212.469875 
L 159.304943 212.211613 
L 160.826761 212.211613 
L 160.826761 202.535876 
L 162.34858 202.535876 
L 162.34858 212.489105 
L 163.870398 212.489105 
L 163.870398 207.414918 
L 165.392216 207.414918 
L 165.392216 201.505415 
L 166.914034 201.505415 
L 166.914034 203.773751 
L 168.435852 203.773751 
L 168.435852 193.792895 
L 169.95767 193.792895 
L 169.95767 204.484536 
L 171.479489 204.484536 
L 171.479489 214.639392 
L 173.001307 214.639392 
L 173.001307 209.695111 
L 174.523125 209.695111 
L 174.523125 214.490695 
L 176.044943 214.490695 
L 176.044943 211.93215 
L 177.566761 211.93215 
L 177.566761 159.012116 
L 179.08858 159.012116 
L 179.08858 200.567002 
L 180.610398 200.567002 
L 180.610398 208.954409 
L 182.132216 208.954409 
L 182.132216 208.202431 
L 183.654034 208.202431 
L 183.654034 204.833701 
L 185.175852 204.833701 
L 185.175852 210.457742 
L 186.69767 210.457742 
L 186.69767 213.629314 
L 188.219489 213.629314 
L 188.219489 213.001381 
L 189.741307 213.001381 
L 189.741307 212.853577 
L 191.263125 212.853577 
L 191.263125 213.149142 
L 192.784943 213.149142 
L 192.784943 213.267605 
L 194.306761 213.267605 
L 194.306761 211.327109 
L 195.82858 211.327109 
L 195.82858 204.335638 
L 197.350398 204.335638 
L 197.350398 208.386301 
L 198.872216 208.386301 
L 198.872216 209.119499 
L 200.394034 209.119499 
L 200.394034 215.60952 
L 201.915852 215.60952 
L 201.915852 187.011443 
L 203.43767 187.011443 
L 203.43767 209.975327 
L 204.959489 209.975327 
L 204.959489 204.975914 
L 206.481307 204.975914 
L 206.481307 187.355968 
L 208.003125 187.355968 
L 208.003125 210.288976 
L 209.524943 210.288976 
L 209.524943 211.109688 
L 211.046761 211.109688 
L 211.046761 212.818739 
L 212.56858 212.818739 
L 212.56858 212.632675 
L 214.090398 212.632675 
L 214.090398 212.373322 
L 215.612216 212.373322 
L 215.612216 213.632206 
L 217.134034 213.632206 
L 217.134034 181.118153 
L 218.655852 181.118153 
L 218.655852 181.426276 
L 220.17767 181.426276 
L 220.17767 214.177549 
L 221.699489 214.177549 
L 221.699489 214.440775 
L 223.221307 214.440775 
L 223.221307 212.936533 
L 224.743125 212.936533 
L 224.743125 209.07442 
L 226.264943 209.07442 
L 226.264943 212.782672 
L 227.786761 212.782672 
L 227.786761 203.702618 
L 229.30858 203.702618 
L 229.30858 191.840349 
L 230.830398 191.840349 
L 230.830398 206.025451 
L 232.352216 206.025451 
L 232.352216 202.876137 
L 233.874034 202.876137 
L 233.874034 213.171714 
L 235.395852 213.171714 
L 235.395852 205.237099 
L 236.91767 205.237099 
L 236.91767 181.617199 
L 238.439489 181.617199 
L 238.439489 205.827459 
L 239.961307 205.827459 
L 239.961307 212.02661 
L 241.483125 212.02661 
L 241.483125 200.436997 
L 243.004943 200.436997 
L 243.004943 203.262102 
L 244.526761 203.262102 
L 244.526761 213.332761 
L 246.04858 213.332761 
L 246.04858 211.42555 
L 247.570398 211.42555 
L 247.570398 192.290314 
L 249.092216 192.290314 
L 249.092216 206.807235 
L 250.614034 206.807235 
L 250.614034 213.512745 
L 252.135852 213.512745 
L 252.135852 212.308765 
L 253.65767 212.308765 
L 253.65767 205.815142 
L 255.179489 205.815142 
L 255.179489 210.54349 
L 256.701307 210.54349 
L 256.701307 214.430635 
L 258.223125 214.430635 
L 258.223125 212.672029 
L 259.744943 212.672029 
L 259.744943 196.540648 
L 261.266761 196.540648 
L 261.266761 200.469955 
L 262.78858 200.469955 
L 262.78858 212.592143 
L 264.310398 212.592143 
L 264.310398 214.288714 
L 265.832216 214.288714 
L 265.832216 210.761875 
L 267.354034 210.761875 
L 267.354034 196.456019 
L 268.875852 196.456019 
L 268.875852 204.563449 
L 270.39767 204.563449 
L 270.39767 190.746531 
L 271.919489 190.746531 
L 271.919489 153.240594 
L 273.441307 153.240594 
L 273.441307 196.18057 
L 274.963125 196.18057 
L 274.963125 196.601547 
L 276.484943 196.601547 
L 276.484943 212.509095 
L 278.006761 212.509095 
L 278.006761 212.797619 
L 279.52858 212.797619 
L 279.52858 213.995932 
L 281.050398 213.995932 
L 281.050398 211.986395 
L 282.572216 211.986395 
L 282.572216 204.263053 
L 284.094034 204.263053 
L 284.094034 195.796453 
L 285.615852 195.796453 
L 285.615852 167.288378 
L 287.13767 167.288378 
L 287.13767 189.638471 
L 288.659489 189.638471 
L 288.659489 203.462342 
L 290.181307 203.462342 
L 290.181307 170.740032 
L 291.703125 170.740032 
L 291.703125 141.064851 
L 293.224943 141.064851 
L 293.224943 200.106636 
L 294.746761 200.106636 
L 294.746761 212.279023 
L 296.26858 212.279023 
L 296.26858 212.965598 
L 297.790398 212.965598 
L 297.790398 203.906174 
L 299.312216 203.906174 
L 299.312216 206.036262 
L 300.834034 206.036262 
L 300.834034 199.958888 
L 302.355852 199.958888 
L 302.355852 207.528034 
L 303.87767 207.528034 
L 303.87767 214.251725 
L 305.399489 214.251725 
L 305.399489 204.440115 
L 306.921307 204.440115 
L 306.921307 214.66108 
L 308.443125 214.66108 
L 308.443125 211.493887 
L 309.964943 211.493887 
L 309.964943 205.955904 
L 311.486761 205.955904 
L 311.486761 210.111605 
L 313.00858 210.111605 
L 313.00858 212.599177 
L 314.530398 212.599177 
L 314.530398 215.214634 
L 316.052216 215.214634 
L 316.052216 213.201182 
L 317.574034 213.201182 
L 317.574034 204.682874 
L 319.095852 204.682874 
L 319.095852 196.362175 
L 320.61767 196.362175 
L 320.61767 174.479228 
L 322.139489 174.479228 
L 322.139489 166.414307 
L 323.661307 166.414307 
L 323.661307 195.379702 
L 325.183125 195.379702 
L 325.183125 204.644671 
L 326.704943 204.644671 
L 326.704943 214.256254 
L 328.226761 214.256254 
L 328.226761 200.624323 
L 329.74858 200.624323 
L 329.74858 201.986146 
L 331.270398 201.986146 
L 331.270398 171.290123 
L 332.792216 171.290123 
L 332.792216 169.014712 
L 334.314034 169.014712 
L 334.314034 158.741367 
L 335.835852 158.741367 
L 335.835852 171.472352 
L 337.35767 171.472352 
L 337.35767 199.037226 
L 338.879489 199.037226 
L 338.879489 213.82916 
L 341.923125 213.811797 
L 341.923125 212.758793 
L 343.444943 212.758793 
L 343.444943 212.175855 
L 344.966761 212.175855 
L 344.966761 214.520607 
L 346.48858 214.520607 
L 346.48858 216.208627 
L 348.010398 216.208627 
L 348.010398 214.675165 
L 349.532216 214.675165 
L 349.532216 215.226723 
L 351.054034 215.226723 
L 351.054034 212.189482 
L 352.575852 212.189482 
L 352.575852 214.003451 
L 355.619489 213.89298 
L 355.619489 213.878747 
L 357.141307 213.878747 
L 357.141307 189.358329 
L 358.663125 189.358329 
L 358.663125 196.155325 
L 360.184943 196.155325 
L 360.184943 196.155325 
" clip-path="url(#pfe6124dbf4)" style="fill: none; stroke: #1f77b4; stroke-width: 1.5; stroke-linecap: square"/>
   </g>
   <g id="LineCollection_1">
    <path d="M 56.582216 216.273673 
L 56.582216 213.433398 
" clip-path="url(#pfe6124dbf4)" style="fill: none; stroke: #1f77b4; stroke-width: 1.5"/>
    <path d="M 58.104034 216.339622 
L 58.104034 215.17089 
" clip-path="url(#pfe6124dbf4)" style="fill: none; stroke: #1f77b4; stroke-width: 1.5"/>
    <path d="M 59.625852 216.3787 
L 59.625852 214.606041 
" clip-path="url(#pfe6124dbf4)" style="fill: none; stroke: #1f77b4; stroke-width: 1.5"/>
    <path d="M 61.14767 216.372234 
L 61.14767 216.206775 
" clip-path="url(#pfe6124dbf4)" style="fill: none; stroke: #1f77b4; stroke-width: 1.5"/>
    <path d="M 62.669489 216.581844 
L 62.669489 212.414025 
" clip-path="url(#pfe6124dbf4)" style="fill: none; stroke: #1f77b4; stroke-width: 1.5"/>
    <path d="M 64.191307 216.374669 
L 64.191307 216.313759 
" clip-path="url(#pfe6124dbf4)" style="fill: none; stroke: #1f77b4; stroke-width: 1.5"/>
    <path d="M 65.713125 217.022324 
L 65.713125 190.957276 
" clip-path="url(#pfe6124dbf4)" style="fill: none; stroke: #1f77b4; stroke-width: 1.5"/>
    <path d="M 67.234943 218.132988 
L 67.234943 190.383582 
" clip-path="url(#pfe6124dbf4)" style="fill: none; stroke: #1f77b4; stroke-width: 1.5"/>
    <path d="M 68.756761 216.580592 
L 68.756761 212.337085 
" clip-path="url(#pfe6124dbf4)" style="fill: none; stroke: #1f77b4; stroke-width: 1.5"/>
    <path d="M 70.27858 218.88 
L 70.27858 159.202604 
" clip-path="url(#pfe6124dbf4)" style="fill: none; stroke: #1f77b4; stroke-width: 1.5"/>
    <path d="M 71.800398 215.154968 
L 71.800398 17.28 
" clip-path="url(#pfe6124dbf4)" style="fill: none; stroke: #1f77b4; stroke-width: 1.5"/>
    <path d="M 73.322216 217.46672 
L 73.322216 201.170735 
" clip-path="url(#pfe6124dbf4)" style="fill: none; stroke: #1f77b4; stroke-width: 1.5"/>
    <path d="M 74.844034 204.644697 
L 74.844034 149.538801 
" clip-path="url(#pfe6124dbf4)" style="fill: none; stroke: #1f77b4; stroke-width: 1.5"/>
    <path d="M 76.365852 215.7677 
L 76.365852 212.691684 
" clip-path="url(#pfe6124dbf4)" style="fill: none; stroke: #1f77b4; stroke-width: 1.5"/>
    <path d="M 77.88767 216.393948 
L 77.88767 193.102002 
" clip-path="url(#pfe6124dbf4)" style="fill: none; stroke: #1f77b4; stroke-width: 1.5"/>
    <path d="M 79.409489 212.173016 
L 79.409489 195.87229 
" clip-path="url(#pfe6124dbf4)" style="fill: none; stroke: #1f77b4; stroke-width: 1.5"/>
    <path d="M 80.931307 213.052861 
L 80.931307 197.873704 
" clip-path="url(#pfe6124dbf4)" style="fill: none; stroke: #1f77b4; stroke-width: 1.5"/>
    <path d="M 82.453125 215.792351 
L 82.453125 214.283366 
" clip-path="url(#pfe6124dbf4)" style="fill: none; stroke: #1f77b4; stroke-width: 1.5"/>
    <path d="M 83.974943 216.131515 
L 83.974943 206.996635 
" clip-path="url(#pfe6124dbf4)" style="fill: none; stroke: #1f77b4; stroke-width: 1.5"/>
    <path d="M 85.496761 214.911504 
L 85.496761 200.416956 
" clip-path="url(#pfe6124dbf4)" style="fill: none; stroke: #1f77b4; stroke-width: 1.5"/>
    <path d="M 87.01858 214.538359 
L 87.01858 203.831453 
" clip-path="url(#pfe6124dbf4)" style="fill: none; stroke: #1f77b4; stroke-width: 1.5"/>
    <path d="M 88.540398 215.906619 
L 88.540398 214.128077 
" clip-path="url(#pfe6124dbf4)" style="fill: none; stroke: #1f77b4; stroke-width: 1.5"/>
    <path d="M 90.062216 214.679272 
L 90.062216 210.306259 
" clip-path="url(#pfe6124dbf4)" style="fill: none; stroke: #1f77b4; stroke-width: 1.5"/>
    <path d="M 91.584034 216.778584 
L 91.584034 41.277317 
" clip-path="url(#pfe6124dbf4)" style="fill: none; stroke: #1f77b4; stroke-width: 1.5"/>
    <path d="M 93.105852 214.504839 
L 93.105852 179.085851 
" clip-path="url(#pfe6124dbf4)" style="fill: none; stroke: #1f77b4; stroke-width: 1.5"/>
    <path d="M 94.62767 215.472228 
L 94.62767 208.895973 
" clip-path="url(#pfe6124dbf4)" style="fill: none; stroke: #1f77b4; stroke-width: 1.5"/>
    <path d="M 96.149489 215.84649 
L 96.149489 213.736079 
" clip-path="url(#pfe6124dbf4)" style="fill: none; stroke: #1f77b4; stroke-width: 1.5"/>
    <path d="M 97.671307 214.518084 
L 97.671307 209.493001 
" clip-path="url(#pfe6124dbf4)" style="fill: none; stroke: #1f77b4; stroke-width: 1.5"/>
    <path d="M 99.193125 214.535236 
L 99.193125 205.12165 
" clip-path="url(#pfe6124dbf4)" style="fill: none; stroke: #1f77b4; stroke-width: 1.5"/>
    <path d="M 100.714943 213.385298 
L 100.714943 205.50355 
" clip-path="url(#pfe6124dbf4)" style="fill: none; stroke: #1f77b4; stroke-width: 1.5"/>
    <path d="M 102.236761 213.431284 
L 102.236761 201.737101 
" clip-path="url(#pfe6124dbf4)" style="fill: none; stroke: #1f77b4; stroke-width: 1.5"/>
    <path d="M 103.75858 207.65328 
L 103.75858 181.295408 
" clip-path="url(#pfe6124dbf4)" style="fill: none; stroke: #1f77b4; stroke-width: 1.5"/>
    <path d="M 105.280398 215.954751 
L 105.280398 214.580331 
" clip-path="url(#pfe6124dbf4)" style="fill: none; stroke: #1f77b4; stroke-width: 1.5"/>
    <path d="M 106.802216 216.042758 
L 106.802216 214.904219 
" clip-path="url(#pfe6124dbf4)" style="fill: none; stroke: #1f77b4; stroke-width: 1.5"/>
    <path d="M 108.324034 213.456202 
L 108.324034 207.450671 
" clip-path="url(#pfe6124dbf4)" style="fill: none; stroke: #1f77b4; stroke-width: 1.5"/>
    <path d="M 109.845852 214.562105 
L 109.845852 210.761172 
" clip-path="url(#pfe6124dbf4)" style="fill: none; stroke: #1f77b4; stroke-width: 1.5"/>
    <path d="M 111.36767 215.101019 
L 111.36767 212.586051 
" clip-path="url(#pfe6124dbf4)" style="fill: none; stroke: #1f77b4; stroke-width: 1.5"/>
    <path d="M 112.889489 211.530356 
L 112.889489 203.004053 
" clip-path="url(#pfe6124dbf4)" style="fill: none; stroke: #1f77b4; stroke-width: 1.5"/>
    <path d="M 114.411307 215.717748 
L 114.411307 213.633986 
" clip-path="url(#pfe6124dbf4)" style="fill: none; stroke: #1f77b4; stroke-width: 1.5"/>
    <path d="M 115.933125 215.70916 
L 115.933125 214.05238 
" clip-path="url(#pfe6124dbf4)" style="fill: none; stroke: #1f77b4; stroke-width: 1.5"/>
    <path d="M 117.454943 215.684638 
L 117.454943 214.035596 
" clip-path="url(#pfe6124dbf4)" style="fill: none; stroke: #1f77b4; stroke-width: 1.5"/>
    <path d="M 118.976761 212.642615 
L 118.976761 203.880347 
" clip-path="url(#pfe6124dbf4)" style="fill: none; stroke: #1f77b4; stroke-width: 1.5"/>
    <path d="M 120.49858 211.011127 
L 120.49858 202.414166 
" clip-path="url(#pfe6124dbf4)" style="fill: none; stroke: #1f77b4; stroke-width: 1.5"/>
    <path d="M 122.020398 211.112307 
L 122.020398 202.161577 
" clip-path="url(#pfe6124dbf4)" style="fill: none; stroke: #1f77b4; stroke-width: 1.5"/>
    <path d="M 123.542216 212.75781 
L 123.542216 206.354917 
" clip-path="url(#pfe6124dbf4)" style="fill: none; stroke: #1f77b4; stroke-width: 1.5"/>
    <path d="M 125.064034 211.597542 
L 125.064034 203.499848 
" clip-path="url(#pfe6124dbf4)" style="fill: none; stroke: #1f77b4; stroke-width: 1.5"/>
    <path d="M 126.585852 210.824049 
L 126.585852 203.776119 
" clip-path="url(#pfe6124dbf4)" style="fill: none; stroke: #1f77b4; stroke-width: 1.5"/>
    <path d="M 128.10767 214.249105 
L 128.10767 206.923162 
" clip-path="url(#pfe6124dbf4)" style="fill: none; stroke: #1f77b4; stroke-width: 1.5"/>
    <path d="M 129.629489 212.122683 
L 129.629489 205.183717 
" clip-path="url(#pfe6124dbf4)" style="fill: none; stroke: #1f77b4; stroke-width: 1.5"/>
    <path d="M 131.151307 214.016707 
L 131.151307 210.821296 
" clip-path="url(#pfe6124dbf4)" style="fill: none; stroke: #1f77b4; stroke-width: 1.5"/>
    <path d="M 132.673125 213.735901 
L 132.673125 207.593074 
" clip-path="url(#pfe6124dbf4)" style="fill: none; stroke: #1f77b4; stroke-width: 1.5"/>
    <path d="M 134.194943 214.652974 
L 134.194943 212.196086 
" clip-path="url(#pfe6124dbf4)" style="fill: none; stroke: #1f77b4; stroke-width: 1.5"/>
    <path d="M 135.716761 215.374519 
L 135.716761 210.073148 
" clip-path="url(#pfe6124dbf4)" style="fill: none; stroke: #1f77b4; stroke-width: 1.5"/>
    <path d="M 137.23858 215.946844 
L 137.23858 215.289804 
" clip-path="url(#pfe6124dbf4)" style="fill: none; stroke: #1f77b4; stroke-width: 1.5"/>
    <path d="M 138.760398 213.582374 
L 138.760398 209.659109 
" clip-path="url(#pfe6124dbf4)" style="fill: none; stroke: #1f77b4; stroke-width: 1.5"/>
    <path d="M 140.282216 201.32171 
L 140.282216 186.871107 
" clip-path="url(#pfe6124dbf4)" style="fill: none; stroke: #1f77b4; stroke-width: 1.5"/>
    <path d="M 141.804034 213.773243 
L 141.804034 209.937586 
" clip-path="url(#pfe6124dbf4)" style="fill: none; stroke: #1f77b4; stroke-width: 1.5"/>
    <path d="M 143.325852 210.689568 
L 143.325852 204.924316 
" clip-path="url(#pfe6124dbf4)" style="fill: none; stroke: #1f77b4; stroke-width: 1.5"/>
    <path d="M 144.84767 214.713233 
L 144.84767 209.997351 
" clip-path="url(#pfe6124dbf4)" style="fill: none; stroke: #1f77b4; stroke-width: 1.5"/>
    <path d="M 146.369489 212.866053 
L 146.369489 208.642834 
" clip-path="url(#pfe6124dbf4)" style="fill: none; stroke: #1f77b4; stroke-width: 1.5"/>
    <path d="M 147.891307 208.80197 
L 147.891307 202.164912 
" clip-path="url(#pfe6124dbf4)" style="fill: none; stroke: #1f77b4; stroke-width: 1.5"/>
    <path d="M 149.413125 195.438259 
L 149.413125 181.021251 
" clip-path="url(#pfe6124dbf4)" style="fill: none; stroke: #1f77b4; stroke-width: 1.5"/>
    <path d="M 150.934943 215.517423 
L 150.934943 213.324789 
" clip-path="url(#pfe6124dbf4)" style="fill: none; stroke: #1f77b4; stroke-width: 1.5"/>
    <path d="M 152.456761 215.158507 
L 152.456761 212.821277 
" clip-path="url(#pfe6124dbf4)" style="fill: none; stroke: #1f77b4; stroke-width: 1.5"/>
    <path d="M 153.97858 213.529576 
L 153.97858 200.374542 
" clip-path="url(#pfe6124dbf4)" style="fill: none; stroke: #1f77b4; stroke-width: 1.5"/>
    <path d="M 155.500398 208.22673 
L 155.500398 199.672653 
" clip-path="url(#pfe6124dbf4)" style="fill: none; stroke: #1f77b4; stroke-width: 1.5"/>
    <path d="M 157.022216 213.120648 
L 157.022216 210.323156 
" clip-path="url(#pfe6124dbf4)" style="fill: none; stroke: #1f77b4; stroke-width: 1.5"/>
    <path d="M 158.544034 214.217077 
L 158.544034 210.722674 
" clip-path="url(#pfe6124dbf4)" style="fill: none; stroke: #1f77b4; stroke-width: 1.5"/>
    <path d="M 160.065852 214.127005 
L 160.065852 210.296222 
" clip-path="url(#pfe6124dbf4)" style="fill: none; stroke: #1f77b4; stroke-width: 1.5"/>
    <path d="M 161.58767 210.920686 
L 161.58767 194.151067 
" clip-path="url(#pfe6124dbf4)" style="fill: none; stroke: #1f77b4; stroke-width: 1.5"/>
    <path d="M 163.109489 214.683148 
L 163.109489 210.295063 
" clip-path="url(#pfe6124dbf4)" style="fill: none; stroke: #1f77b4; stroke-width: 1.5"/>
    <path d="M 164.631307 210.322817 
L 164.631307 204.507018 
" clip-path="url(#pfe6124dbf4)" style="fill: none; stroke: #1f77b4; stroke-width: 1.5"/>
    <path d="M 166.153125 204.777579 
L 166.153125 198.233251 
" clip-path="url(#pfe6124dbf4)" style="fill: none; stroke: #1f77b4; stroke-width: 1.5"/>
    <path d="M 167.674943 207.99835 
L 167.674943 199.549151 
" clip-path="url(#pfe6124dbf4)" style="fill: none; stroke: #1f77b4; stroke-width: 1.5"/>
    <path d="M 169.196761 200.552805 
L 169.196761 187.032985 
" clip-path="url(#pfe6124dbf4)" style="fill: none; stroke: #1f77b4; stroke-width: 1.5"/>
    <path d="M 170.71858 210.467437 
L 170.71858 198.501635 
" clip-path="url(#pfe6124dbf4)" style="fill: none; stroke: #1f77b4; stroke-width: 1.5"/>
    <path d="M 172.240398 215.372895 
L 172.240398 213.905889 
" clip-path="url(#pfe6124dbf4)" style="fill: none; stroke: #1f77b4; stroke-width: 1.5"/>
    <path d="M 173.762216 211.217935 
L 173.762216 208.172286 
" clip-path="url(#pfe6124dbf4)" style="fill: none; stroke: #1f77b4; stroke-width: 1.5"/>
    <path d="M 175.284034 215.235108 
L 175.284034 213.746283 
" clip-path="url(#pfe6124dbf4)" style="fill: none; stroke: #1f77b4; stroke-width: 1.5"/>
    <path d="M 176.805852 213.734043 
L 176.805852 210.130258 
" clip-path="url(#pfe6124dbf4)" style="fill: none; stroke: #1f77b4; stroke-width: 1.5"/>
    <path d="M 178.32767 170.877963 
L 178.32767 147.146268 
" clip-path="url(#pfe6124dbf4)" style="fill: none; stroke: #1f77b4; stroke-width: 1.5"/>
    <path d="M 179.849489 204.726349 
L 179.849489 196.407655 
" clip-path="url(#pfe6124dbf4)" style="fill: none; stroke: #1f77b4; stroke-width: 1.5"/>
    <path d="M 181.371307 210.728701 
L 181.371307 207.180117 
" clip-path="url(#pfe6124dbf4)" style="fill: none; stroke: #1f77b4; stroke-width: 1.5"/>
    <path d="M 182.893125 210.36992 
L 182.893125 206.034943 
" clip-path="url(#pfe6124dbf4)" style="fill: none; stroke: #1f77b4; stroke-width: 1.5"/>
    <path d="M 184.414943 207.735348 
L 184.414943 201.932053 
" clip-path="url(#pfe6124dbf4)" style="fill: none; stroke: #1f77b4; stroke-width: 1.5"/>
    <path d="M 185.936761 211.997403 
L 185.936761 208.918082 
" clip-path="url(#pfe6124dbf4)" style="fill: none; stroke: #1f77b4; stroke-width: 1.5"/>
    <path d="M 187.45858 214.305953 
L 187.45858 212.952676 
" clip-path="url(#pfe6124dbf4)" style="fill: none; stroke: #1f77b4; stroke-width: 1.5"/>
    <path d="M 188.980398 213.857757 
L 188.980398 212.145006 
" clip-path="url(#pfe6124dbf4)" style="fill: none; stroke: #1f77b4; stroke-width: 1.5"/>
    <path d="M 190.502216 213.62558 
L 190.502216 212.081573 
" clip-path="url(#pfe6124dbf4)" style="fill: none; stroke: #1f77b4; stroke-width: 1.5"/>
    <path d="M 192.024034 214.778341 
L 192.024034 211.519942 
" clip-path="url(#pfe6124dbf4)" style="fill: none; stroke: #1f77b4; stroke-width: 1.5"/>
    <path d="M 193.545852 214.184305 
L 193.545852 212.350905 
" clip-path="url(#pfe6124dbf4)" style="fill: none; stroke: #1f77b4; stroke-width: 1.5"/>
    <path d="M 195.06767 212.94993 
L 195.06767 209.704289 
" clip-path="url(#pfe6124dbf4)" style="fill: none; stroke: #1f77b4; stroke-width: 1.5"/>
    <path d="M 196.589489 206.985893 
L 196.589489 201.685382 
" clip-path="url(#pfe6124dbf4)" style="fill: none; stroke: #1f77b4; stroke-width: 1.5"/>
    <path d="M 198.111307 211.21447 
L 198.111307 205.558132 
" clip-path="url(#pfe6124dbf4)" style="fill: none; stroke: #1f77b4; stroke-width: 1.5"/>
    <path d="M 199.633125 210.733394 
L 199.633125 207.505603 
" clip-path="url(#pfe6124dbf4)" style="fill: none; stroke: #1f77b4; stroke-width: 1.5"/>
    <path d="M 201.154943 215.847244 
L 201.154943 215.371796 
" clip-path="url(#pfe6124dbf4)" style="fill: none; stroke: #1f77b4; stroke-width: 1.5"/>
    <path d="M 202.676761 195.198326 
L 202.676761 178.82456 
" clip-path="url(#pfe6124dbf4)" style="fill: none; stroke: #1f77b4; stroke-width: 1.5"/>
    <path d="M 204.19858 211.522643 
L 204.19858 208.42801 
" clip-path="url(#pfe6124dbf4)" style="fill: none; stroke: #1f77b4; stroke-width: 1.5"/>
    <path d="M 205.720398 207.159813 
L 205.720398 202.792015 
" clip-path="url(#pfe6124dbf4)" style="fill: none; stroke: #1f77b4; stroke-width: 1.5"/>
    <path d="M 207.242216 191.693032 
L 207.242216 183.018904 
" clip-path="url(#pfe6124dbf4)" style="fill: none; stroke: #1f77b4; stroke-width: 1.5"/>
    <path d="M 208.764034 211.810288 
L 208.764034 208.767665 
" clip-path="url(#pfe6124dbf4)" style="fill: none; stroke: #1f77b4; stroke-width: 1.5"/>
    <path d="M 210.285852 212.909468 
L 210.285852 209.309908 
" clip-path="url(#pfe6124dbf4)" style="fill: none; stroke: #1f77b4; stroke-width: 1.5"/>
    <path d="M 211.80767 214.646798 
L 211.80767 210.990681 
" clip-path="url(#pfe6124dbf4)" style="fill: none; stroke: #1f77b4; stroke-width: 1.5"/>
    <path d="M 213.329489 214.038295 
L 213.329489 211.227056 
" clip-path="url(#pfe6124dbf4)" style="fill: none; stroke: #1f77b4; stroke-width: 1.5"/>
    <path d="M 214.851307 213.339409 
L 214.851307 211.407236 
" clip-path="url(#pfe6124dbf4)" style="fill: none; stroke: #1f77b4; stroke-width: 1.5"/>
    <path d="M 216.373125 214.302711 
L 216.373125 212.961701 
" clip-path="url(#pfe6124dbf4)" style="fill: none; stroke: #1f77b4; stroke-width: 1.5"/>
    <path d="M 217.894943 186.271899 
L 217.894943 175.964407 
" clip-path="url(#pfe6124dbf4)" style="fill: none; stroke: #1f77b4; stroke-width: 1.5"/>
    <path d="M 219.416761 186.792221 
L 219.416761 176.060332 
" clip-path="url(#pfe6124dbf4)" style="fill: none; stroke: #1f77b4; stroke-width: 1.5"/>
    <path d="M 220.93858 214.902353 
L 220.93858 213.452744 
" clip-path="url(#pfe6124dbf4)" style="fill: none; stroke: #1f77b4; stroke-width: 1.5"/>
    <path d="M 222.460398 215.459736 
L 222.460398 213.421813 
" clip-path="url(#pfe6124dbf4)" style="fill: none; stroke: #1f77b4; stroke-width: 1.5"/>
    <path d="M 223.982216 214.549878 
L 223.982216 211.323187 
" clip-path="url(#pfe6124dbf4)" style="fill: none; stroke: #1f77b4; stroke-width: 1.5"/>
    <path d="M 225.504034 212.977368 
L 225.504034 205.171473 
" clip-path="url(#pfe6124dbf4)" style="fill: none; stroke: #1f77b4; stroke-width: 1.5"/>
    <path d="M 227.025852 213.827758 
L 227.025852 211.737586 
" clip-path="url(#pfe6124dbf4)" style="fill: none; stroke: #1f77b4; stroke-width: 1.5"/>
    <path d="M 228.54767 206.187985 
L 228.54767 201.217252 
" clip-path="url(#pfe6124dbf4)" style="fill: none; stroke: #1f77b4; stroke-width: 1.5"/>
    <path d="M 230.069489 195.093366 
L 230.069489 188.587333 
" clip-path="url(#pfe6124dbf4)" style="fill: none; stroke: #1f77b4; stroke-width: 1.5"/>
    <path d="M 231.591307 207.721044 
L 231.591307 204.329859 
" clip-path="url(#pfe6124dbf4)" style="fill: none; stroke: #1f77b4; stroke-width: 1.5"/>
    <path d="M 233.113125 205.253956 
L 233.113125 200.498318 
" clip-path="url(#pfe6124dbf4)" style="fill: none; stroke: #1f77b4; stroke-width: 1.5"/>
    <path d="M 234.634943 213.921437 
L 234.634943 212.42199 
" clip-path="url(#pfe6124dbf4)" style="fill: none; stroke: #1f77b4; stroke-width: 1.5"/>
    <path d="M 236.156761 207.297838 
L 236.156761 203.176359 
" clip-path="url(#pfe6124dbf4)" style="fill: none; stroke: #1f77b4; stroke-width: 1.5"/>
    <path d="M 237.67858 186.050521 
L 237.67858 177.183876 
" clip-path="url(#pfe6124dbf4)" style="fill: none; stroke: #1f77b4; stroke-width: 1.5"/>
    <path d="M 239.200398 208.89011 
L 239.200398 202.764808 
" clip-path="url(#pfe6124dbf4)" style="fill: none; stroke: #1f77b4; stroke-width: 1.5"/>
    <path d="M 240.722216 213.341828 
L 240.722216 210.711392 
" clip-path="url(#pfe6124dbf4)" style="fill: none; stroke: #1f77b4; stroke-width: 1.5"/>
    <path d="M 242.244034 203.050954 
L 242.244034 197.823039 
" clip-path="url(#pfe6124dbf4)" style="fill: none; stroke: #1f77b4; stroke-width: 1.5"/>
    <path d="M 243.765852 205.257492 
L 243.765852 201.266712 
" clip-path="url(#pfe6124dbf4)" style="fill: none; stroke: #1f77b4; stroke-width: 1.5"/>
    <path d="M 245.28767 214.556758 
L 245.28767 212.108764 
" clip-path="url(#pfe6124dbf4)" style="fill: none; stroke: #1f77b4; stroke-width: 1.5"/>
    <path d="M 246.809489 212.656941 
L 246.809489 210.19416 
" clip-path="url(#pfe6124dbf4)" style="fill: none; stroke: #1f77b4; stroke-width: 1.5"/>
    <path d="M 248.331307 195.591654 
L 248.331307 188.988975 
" clip-path="url(#pfe6124dbf4)" style="fill: none; stroke: #1f77b4; stroke-width: 1.5"/>
    <path d="M 249.853125 208.800176 
L 249.853125 204.814294 
" clip-path="url(#pfe6124dbf4)" style="fill: none; stroke: #1f77b4; stroke-width: 1.5"/>
    <path d="M 251.374943 214.341827 
L 251.374943 212.683662 
" clip-path="url(#pfe6124dbf4)" style="fill: none; stroke: #1f77b4; stroke-width: 1.5"/>
    <path d="M 252.896761 213.277401 
L 252.896761 211.34013 
" clip-path="url(#pfe6124dbf4)" style="fill: none; stroke: #1f77b4; stroke-width: 1.5"/>
    <path d="M 254.41858 207.481876 
L 254.41858 204.148407 
" clip-path="url(#pfe6124dbf4)" style="fill: none; stroke: #1f77b4; stroke-width: 1.5"/>
    <path d="M 255.940398 212.257015 
L 255.940398 208.829965 
" clip-path="url(#pfe6124dbf4)" style="fill: none; stroke: #1f77b4; stroke-width: 1.5"/>
    <path d="M 257.462216 215.014144 
L 257.462216 213.847125 
" clip-path="url(#pfe6124dbf4)" style="fill: none; stroke: #1f77b4; stroke-width: 1.5"/>
    <path d="M 258.984034 213.741813 
L 258.984034 211.602246 
" clip-path="url(#pfe6124dbf4)" style="fill: none; stroke: #1f77b4; stroke-width: 1.5"/>
    <path d="M 260.505852 198.981885 
L 260.505852 194.099412 
" clip-path="url(#pfe6124dbf4)" style="fill: none; stroke: #1f77b4; stroke-width: 1.5"/>
    <path d="M 262.02767 202.683549 
L 262.02767 198.256361 
" clip-path="url(#pfe6124dbf4)" style="fill: none; stroke: #1f77b4; stroke-width: 1.5"/>
    <path d="M 263.549489 213.963505 
L 263.549489 211.220781 
" clip-path="url(#pfe6124dbf4)" style="fill: none; stroke: #1f77b4; stroke-width: 1.5"/>
    <path d="M 265.071307 214.862179 
L 265.071307 213.71525 
" clip-path="url(#pfe6124dbf4)" style="fill: none; stroke: #1f77b4; stroke-width: 1.5"/>
    <path d="M 266.593125 211.845063 
L 266.593125 209.678686 
" clip-path="url(#pfe6124dbf4)" style="fill: none; stroke: #1f77b4; stroke-width: 1.5"/>
    <path d="M 268.114943 199.433483 
L 268.114943 193.478555 
" clip-path="url(#pfe6124dbf4)" style="fill: none; stroke: #1f77b4; stroke-width: 1.5"/>
    <path d="M 269.636761 206.822677 
L 269.636761 202.304222 
" clip-path="url(#pfe6124dbf4)" style="fill: none; stroke: #1f77b4; stroke-width: 1.5"/>
    <path d="M 271.15858 194.451948 
L 271.15858 187.041114 
" clip-path="url(#pfe6124dbf4)" style="fill: none; stroke: #1f77b4; stroke-width: 1.5"/>
    <path d="M 272.680398 159.718746 
L 272.680398 146.762442 
" clip-path="url(#pfe6124dbf4)" style="fill: none; stroke: #1f77b4; stroke-width: 1.5"/>
    <path d="M 274.202216 199.09125 
L 274.202216 193.269889 
" clip-path="url(#pfe6124dbf4)" style="fill: none; stroke: #1f77b4; stroke-width: 1.5"/>
    <path d="M 275.724034 199.048546 
L 275.724034 194.154548 
" clip-path="url(#pfe6124dbf4)" style="fill: none; stroke: #1f77b4; stroke-width: 1.5"/>
    <path d="M 277.245852 213.228778 
L 277.245852 211.789412 
" clip-path="url(#pfe6124dbf4)" style="fill: none; stroke: #1f77b4; stroke-width: 1.5"/>
    <path d="M 278.76767 214.183853 
L 278.76767 211.411385 
" clip-path="url(#pfe6124dbf4)" style="fill: none; stroke: #1f77b4; stroke-width: 1.5"/>
    <path d="M 280.289489 214.643755 
L 280.289489 213.348108 
" clip-path="url(#pfe6124dbf4)" style="fill: none; stroke: #1f77b4; stroke-width: 1.5"/>
    <path d="M 281.811307 213.010457 
L 281.811307 210.962333 
" clip-path="url(#pfe6124dbf4)" style="fill: none; stroke: #1f77b4; stroke-width: 1.5"/>
    <path d="M 283.333125 207.455238 
L 283.333125 201.070867 
" clip-path="url(#pfe6124dbf4)" style="fill: none; stroke: #1f77b4; stroke-width: 1.5"/>
    <path d="M 284.854943 198.883825 
L 284.854943 192.709081 
" clip-path="url(#pfe6124dbf4)" style="fill: none; stroke: #1f77b4; stroke-width: 1.5"/>
    <path d="M 286.376761 172.531898 
L 286.376761 162.044858 
" clip-path="url(#pfe6124dbf4)" style="fill: none; stroke: #1f77b4; stroke-width: 1.5"/>
    <path d="M 287.89858 193.390634 
L 287.89858 185.886309 
" clip-path="url(#pfe6124dbf4)" style="fill: none; stroke: #1f77b4; stroke-width: 1.5"/>
    <path d="M 289.420398 205.968269 
L 289.420398 200.956415 
" clip-path="url(#pfe6124dbf4)" style="fill: none; stroke: #1f77b4; stroke-width: 1.5"/>
    <path d="M 290.942216 176.813571 
L 290.942216 164.666493 
" clip-path="url(#pfe6124dbf4)" style="fill: none; stroke: #1f77b4; stroke-width: 1.5"/>
    <path d="M 292.464034 150.007582 
L 292.464034 132.12212 
" clip-path="url(#pfe6124dbf4)" style="fill: none; stroke: #1f77b4; stroke-width: 1.5"/>
    <path d="M 293.985852 202.973454 
L 293.985852 197.239819 
" clip-path="url(#pfe6124dbf4)" style="fill: none; stroke: #1f77b4; stroke-width: 1.5"/>
    <path d="M 295.50767 213.535041 
L 295.50767 211.023006 
" clip-path="url(#pfe6124dbf4)" style="fill: none; stroke: #1f77b4; stroke-width: 1.5"/>
    <path d="M 297.029489 214.641968 
L 297.029489 211.289228 
" clip-path="url(#pfe6124dbf4)" style="fill: none; stroke: #1f77b4; stroke-width: 1.5"/>
    <path d="M 298.551307 213.100253 
L 298.551307 194.712094 
" clip-path="url(#pfe6124dbf4)" style="fill: none; stroke: #1f77b4; stroke-width: 1.5"/>
    <path d="M 300.073125 207.800168 
L 300.073125 204.272355 
" clip-path="url(#pfe6124dbf4)" style="fill: none; stroke: #1f77b4; stroke-width: 1.5"/>
    <path d="M 301.594943 202.411158 
L 301.594943 197.506617 
" clip-path="url(#pfe6124dbf4)" style="fill: none; stroke: #1f77b4; stroke-width: 1.5"/>
    <path d="M 303.116761 209.284532 
L 303.116761 205.771535 
" clip-path="url(#pfe6124dbf4)" style="fill: none; stroke: #1f77b4; stroke-width: 1.5"/>
    <path d="M 304.63858 214.922962 
L 304.63858 213.580488 
" clip-path="url(#pfe6124dbf4)" style="fill: none; stroke: #1f77b4; stroke-width: 1.5"/>
    <path d="M 306.160398 213.321966 
L 306.160398 195.558264 
" clip-path="url(#pfe6124dbf4)" style="fill: none; stroke: #1f77b4; stroke-width: 1.5"/>
    <path d="M 307.682216 215.472459 
L 307.682216 213.8497 
" clip-path="url(#pfe6124dbf4)" style="fill: none; stroke: #1f77b4; stroke-width: 1.5"/>
    <path d="M 309.204034 212.587268 
L 309.204034 210.400506 
" clip-path="url(#pfe6124dbf4)" style="fill: none; stroke: #1f77b4; stroke-width: 1.5"/>
    <path d="M 310.725852 208.485696 
L 310.725852 203.426112 
" clip-path="url(#pfe6124dbf4)" style="fill: none; stroke: #1f77b4; stroke-width: 1.5"/>
    <path d="M 312.24767 211.176552 
L 312.24767 209.046658 
" clip-path="url(#pfe6124dbf4)" style="fill: none; stroke: #1f77b4; stroke-width: 1.5"/>
    <path d="M 313.769489 213.540096 
L 313.769489 211.658258 
" clip-path="url(#pfe6124dbf4)" style="fill: none; stroke: #1f77b4; stroke-width: 1.5"/>
    <path d="M 315.291307 215.673419 
L 315.291307 214.755848 
" clip-path="url(#pfe6124dbf4)" style="fill: none; stroke: #1f77b4; stroke-width: 1.5"/>
    <path d="M 316.813125 214.469584 
L 316.813125 211.932781 
" clip-path="url(#pfe6124dbf4)" style="fill: none; stroke: #1f77b4; stroke-width: 1.5"/>
    <path d="M 318.334943 208.870132 
L 318.334943 200.495617 
" clip-path="url(#pfe6124dbf4)" style="fill: none; stroke: #1f77b4; stroke-width: 1.5"/>
    <path d="M 319.856761 202.178643 
L 319.856761 190.545707 
" clip-path="url(#pfe6124dbf4)" style="fill: none; stroke: #1f77b4; stroke-width: 1.5"/>
    <path d="M 321.37858 183.449831 
L 321.37858 165.508625 
" clip-path="url(#pfe6124dbf4)" style="fill: none; stroke: #1f77b4; stroke-width: 1.5"/>
    <path d="M 322.900398 176.958463 
L 322.900398 155.870151 
" clip-path="url(#pfe6124dbf4)" style="fill: none; stroke: #1f77b4; stroke-width: 1.5"/>
    <path d="M 324.422216 200.738959 
L 324.422216 190.020445 
" clip-path="url(#pfe6124dbf4)" style="fill: none; stroke: #1f77b4; stroke-width: 1.5"/>
    <path d="M 325.944034 209.560468 
L 325.944034 199.728875 
" clip-path="url(#pfe6124dbf4)" style="fill: none; stroke: #1f77b4; stroke-width: 1.5"/>
    <path d="M 327.465852 215.204634 
L 327.465852 213.307874 
" clip-path="url(#pfe6124dbf4)" style="fill: none; stroke: #1f77b4; stroke-width: 1.5"/>
    <path d="M 328.98767 208.536024 
L 328.98767 192.712623 
" clip-path="url(#pfe6124dbf4)" style="fill: none; stroke: #1f77b4; stroke-width: 1.5"/>
    <path d="M 330.509489 206.698531 
L 330.509489 197.273762 
" clip-path="url(#pfe6124dbf4)" style="fill: none; stroke: #1f77b4; stroke-width: 1.5"/>
    <path d="M 332.031307 182.052132 
L 332.031307 160.528114 
" clip-path="url(#pfe6124dbf4)" style="fill: none; stroke: #1f77b4; stroke-width: 1.5"/>
    <path d="M 333.553125 178.18583 
L 333.553125 159.843593 
" clip-path="url(#pfe6124dbf4)" style="fill: none; stroke: #1f77b4; stroke-width: 1.5"/>
    <path d="M 335.074943 169.787224 
L 335.074943 147.695509 
" clip-path="url(#pfe6124dbf4)" style="fill: none; stroke: #1f77b4; stroke-width: 1.5"/>
    <path d="M 336.596761 181.692822 
L 336.596761 161.251882 
" clip-path="url(#pfe6124dbf4)" style="fill: none; stroke: #1f77b4; stroke-width: 1.5"/>
    <path d="M 338.11858 205.115357 
L 338.11858 192.959095 
" clip-path="url(#pfe6124dbf4)" style="fill: none; stroke: #1f77b4; stroke-width: 1.5"/>
    <path d="M 339.640398 214.8625 
L 339.640398 212.79582 
" clip-path="url(#pfe6124dbf4)" style="fill: none; stroke: #1f77b4; stroke-width: 1.5"/>
    <path d="M 341.162216 215.08926 
L 341.162216 212.534335 
" clip-path="url(#pfe6124dbf4)" style="fill: none; stroke: #1f77b4; stroke-width: 1.5"/>
    <path d="M 342.684034 214.774571 
L 342.684034 210.743014 
" clip-path="url(#pfe6124dbf4)" style="fill: none; stroke: #1f77b4; stroke-width: 1.5"/>
    <path d="M 344.205852 213.755618 
L 344.205852 210.596092 
" clip-path="url(#pfe6124dbf4)" style="fill: none; stroke: #1f77b4; stroke-width: 1.5"/>
    <path d="M 345.72767 215.678333 
L 345.72767 213.362882 
" clip-path="url(#pfe6124dbf4)" style="fill: none; stroke: #1f77b4; stroke-width: 1.5"/>
    <path d="M 347.249489 216.319458 
L 347.249489 216.097797 
" clip-path="url(#pfe6124dbf4)" style="fill: none; stroke: #1f77b4; stroke-width: 1.5"/>
    <path d="M 348.771307 215.472524 
L 348.771307 213.877807 
" clip-path="url(#pfe6124dbf4)" style="fill: none; stroke: #1f77b4; stroke-width: 1.5"/>
    <path d="M 350.293125 215.874704 
L 350.293125 214.578741 
" clip-path="url(#pfe6124dbf4)" style="fill: none; stroke: #1f77b4; stroke-width: 1.5"/>
    <path d="M 351.814943 214.280504 
L 351.814943 210.098461 
" clip-path="url(#pfe6124dbf4)" style="fill: none; stroke: #1f77b4; stroke-width: 1.5"/>
    <path d="M 353.336761 215.098978 
L 353.336761 212.907924 
" clip-path="url(#pfe6124dbf4)" style="fill: none; stroke: #1f77b4; stroke-width: 1.5"/>
    <path d="M 354.85858 215.28743 
L 354.85858 212.498529 
" clip-path="url(#pfe6124dbf4)" style="fill: none; stroke: #1f77b4; stroke-width: 1.5"/>
    <path d="M 356.380398 214.844666 
L 356.380398 212.912829 
" clip-path="url(#pfe6124dbf4)" style="fill: none; stroke: #1f77b4; stroke-width: 1.5"/>
    <path d="M 357.902216 198.594816 
L 357.902216 180.121841 
" clip-path="url(#pfe6124dbf4)" style="fill: none; stroke: #1f77b4; stroke-width: 1.5"/>
    <path d="M 359.424034 201.740987 
L 359.424034 190.569662 
" clip-path="url(#pfe6124dbf4)" style="fill: none; stroke: #1f77b4; stroke-width: 1.5"/>
   </g>
  </g>
 </g>
 <defs>
  <clipPath id="pfe6124dbf4">
   <rect x="40.603125" y="7.2" width="334.8" height="221.76"/>
  </clipPath>
 </defs>
</svg>