<?xml version="1.0" encoding="utf-8" standalone="no"?>
<!DOCTYPE svg PUBLIC "-//W3C//DTD SVG 1.1//EN"
  "http://www.w3.org/Graphics/SVG/1.1/DTD/svg11.dtd">
<svg xmlns:xlink="http://www.w3.org/1999/xlink" width="393.378125pt" height="271.238906pt" viewBox="0 0 393.378125 271.238906" xmlns="http://www.w3.org/2000/svg" version="1.1">
 <metadata>
  <rdf:RDF xmlns:dc="http://purl.org/dc/elements/1.1/" xmlns:cc="http://creativecommons.org/ns#" xmlns:rdf="http://www.w3.org/1999/02/22-rdf-syntax-ns#">
   <cc:Work>
    <dc:type rdf:resource="http://purl.org/dc/dcmitype/StillImage"/>
    <dc:date>2025-08-03T21:00:07.937775</dc:date>
    <dc:format>image/svg+xml</dc:format>
    <dc:creator>
     <cc:Agent>
      <dc:title>Matplotlib v3.10.1, https://matplotlib.org/</dc:title>
     </cc:Agent>
    </dc:creator>
   </cc:Work>
  </rdf:RDF>
 </metadata>
 <defs>
  <style type="text/css">*{stroke-linejoin: round; stroke-linecap: butt}</style>
 </defs>
 <g id="figure_1">
  <g id="patch_1">
   <path d="M 0 271.238906 
L 393.378125 271.238906 
L 393.378125 0 
L 0 0 
z
" style="fill: #ffffff"/>
  </g>
  <g id="axes_1">
   <g id="patch_2">
    <path d="M 51.378125 232.759219 
L 386.178125 232.759219 
L 386.178125 10.999219 
L 51.378125 10.999219 
z
" style="fill: #ffffff"/>
   </g>
   <g id="matplotlib.axis_1">
    <g id="xtick_1">
     <g id="line2d_1">
      <defs>
       <path id="mf7a0dc3001" d="M 0 0 
L 0 3.5 
" style="stroke: #000000; stroke-width: 0.8"/>
      </defs>
      <g>
       <use xlink:href="#mf7a0dc3001" x="58.370263" y="232.759219" style="stroke: #000000; stroke-width: 0.8"/>
      </g>
     </g>
     <g id="text_1">
      <!-- 0.000 -->
      <g transform="translate(44.0562 247.357656) scale(0.1 -0.1)">
       <defs>
        <path id="DejaVuSans-30" d="M 2034 4250 
Q 1547 4250 1301 3770 
Q 1056 3291 1056 2328 
Q 1056 1369 1301 889 
Q 1547 409 2034 409 
Q 2525 409 2770 889 
Q 3016 1369 3016 2328 
Q 3016 3291 2770 3770 
Q 2525 4250 2034 4250 
z
M 2034 4750 
Q 2819 4750 3233 4129 
Q 3647 3509 3647 2328 
Q 3647 1150 3233 529 
Q 2819 -91 2034 -91 
Q 1250 -91 836 529 
Q 422 1150 422 2328 
Q 422 3509 836 4129 
Q 1250 4750 2034 4750 
z
" transform="scale(0.015625)"/>
        <path id="DejaVuSans-2e" d="M 684 794 
L 1344 794 
L 1344 0 
L 684 0 
L 684 794 
z
" transform="scale(0.015625)"/>
       </defs>
       <use xlink:href="#DejaVuSans-30"/>
       <use xlink:href="#DejaVuSans-2e" transform="translate(63.623047 0)"/>
       <use xlink:href="#DejaVuSans-30" transform="translate(95.410156 0)"/>
       <use xlink:href="#DejaVuSans-30" transform="translate(159.033203 0)"/>
       <use xlink:href="#DejaVuSans-30" transform="translate(222.65625 0)"/>
      </g>
     </g>
    </g>
    <g id="xtick_2">
     <g id="line2d_2">
      <g>
       <use xlink:href="#mf7a0dc3001" x="99.500484" y="232.759219" style="stroke: #000000; stroke-width: 0.8"/>
      </g>
     </g>
     <g id="text_2">
      <!-- 0.025 -->
      <g transform="translate(85.186421 247.357656) scale(0.1 -0.1)">
       <defs>
        <path id="DejaVuSans-32" d="M 1228 531 
L 3431 531 
L 3431 0 
L 469 0 
L 469 531 
Q 828 903 1448 1529 
Q 2069 2156 2228 2338 
Q 2531 2678 2651 2914 
Q 2772 3150 2772 3378 
Q 2772 3750 2511 3984 
Q 2250 4219 1831 4219 
Q 1534 4219 1204 4116 
Q 875 4013 500 3803 
L 500 4441 
Q 881 4594 1212 4672 
Q 1544 4750 1819 4750 
Q 2544 4750 2975 4387 
Q 3406 4025 3406 3419 
Q 3406 3131 3298 2873 
Q 3191 2616 2906 2266 
Q 2828 2175 2409 1742 
Q 1991 1309 1228 531 
z
" transform="scale(0.015625)"/>
        <path id="DejaVuSans-35" d="M 691 4666 
L 3169 4666 
L 3169 4134 
L 1269 4134 
L 1269 2991 
Q 1406 3038 1543 3061 
Q 1681 3084 1819 3084 
Q 2600 3084 3056 2656 
Q 3513 2228 3513 1497 
Q 3513 744 3044 326 
Q 2575 -91 1722 -91 
Q 1428 -91 1123 -41 
Q 819 9 494 109 
L 494 744 
Q 775 591 1075 516 
Q 1375 441 1709 441 
Q 2250 441 2565 725 
Q 2881 1009 2881 1497 
Q 2881 1984 2565 2268 
Q 2250 2553 1709 2553 
Q 1456 2553 1204 2497 
Q 953 2441 691 2322 
L 691 4666 
z
" transform="scale(0.015625)"/>
       </defs>
       <use xlink:href="#DejaVuSans-30"/>
       <use xlink:href="#DejaVuSans-2e" transform="translate(63.623047 0)"/>
       <use xlink:href="#DejaVuSans-30" transform="translate(95.410156 0)"/>
       <use xlink:href="#DejaVuSans-32" transform="translate(159.033203 0)"/>
       <use xlink:href="#DejaVuSans-35" transform="translate(222.65625 0)"/>
      </g>
     </g>
    </g>
    <g id="xtick_3">
     <g id="line2d_3">
      <g>
       <use xlink:href="#mf7a0dc3001" x="140.630705" y="232.759219" style="stroke: #000000; stroke-width: 0.8"/>
      </g>
     </g>
     <g id="text_3">
      <!-- 0.050 -->
      <g transform="translate(126.316642 247.357656) scale(0.1 -0.1)">
       <use xlink:href="#DejaVuSans-30"/>
       <use xlink:href="#DejaVuSans-2e" transform="translate(63.623047 0)"/>
       <use xlink:href="#DejaVuSans-30" transform="translate(95.410156 0)"/>
       <use xlink:href="#DejaVuSans-35" transform="translate(159.033203 0)"/>
       <use xlink:href="#DejaVuSans-30" transform="translate(222.65625 0)"/>
      </g>
     </g>
    </g>
    <g id="xtick_4">
     <g id="line2d_4">
      <g>
       <use xlink:href="#mf7a0dc3001" x="181.760926" y="232.759219" style="stroke: #000000; stroke-width: 0.8"/>
      </g>
     </g>
     <g id="text_4">
      <!-- 0.075 -->
      <g transform="translate(167.446863 247.357656) scale(0.1 -0.1)">
       <defs>
        <path id="DejaVuSans-37" d="M 525 4666 
L 3525 4666 
L 3525 4397 
L 1831 0 
L 1172 0 
L 2766 4134 
L 525 4134 
L 525 4666 
z
" transform="scale(0.015625)"/>
       </defs>
       <use xlink:href="#DejaVuSans-30"/>
       <use xlink:href="#DejaVuSans-2e" transform="translate(63.623047 0)"/>
       <use xlink:href="#DejaVuSans-30" transform="translate(95.410156 0)"/>
       <use xlink:href="#DejaVuSans-37" transform="translate(159.033203 0)"/>
       <use xlink:href="#DejaVuSans-35" transform="translate(222.65625 0)"/>
      </g>
     </g>
    </g>
    <g id="xtick_5">
     <g id="line2d_5">
      <g>
       <use xlink:href="#mf7a0dc3001" x="222.891147" y="232.759219" style="stroke: #000000; stroke-width: 0.8"/>
      </g>
     </g>
     <g id="text_5">
      <!-- 0.100 -->
      <g transform="translate(208.577085 247.357656) scale(0.1 -0.1)">
       <defs>
        <path id="DejaVuSans-31" d="M 794 531 
L 1825 531 
L 1825 4091 
L 703 3866 
L 703 4441 
L 1819 4666 
L 2450 4666 
L 2450 531 
L 3481 531 
L 3481 0 
L 794 0 
L 794 531 
z
" transform="scale(0.015625)"/>
       </defs>
       <use xlink:href="#DejaVuSans-30"/>
       <use xlink:href="#DejaVuSans-2e" transform="translate(63.623047 0)"/>
       <use xlink:href="#DejaVuSans-31" transform="translate(95.410156 0)"/>
       <use xlink:href="#DejaVuSans-30" transform="translate(159.033203 0)"/>
       <use xlink:href="#DejaVuSans-30" transform="translate(222.65625 0)"/>
      </g>
     </g>
    </g>
    <g id="xtick_6">
     <g id="line2d_6">
      <g>
       <use xlink:href="#mf7a0dc3001" x="264.021368" y="232.759219" style="stroke: #000000; stroke-width: 0.8"/>
      </g>
     </g>
     <g id="text_6">
      <!-- 0.125 -->
      <g transform="translate(249.707306 247.357656) scale(0.1 -0.1)">
       <use xlink:href="#DejaVuSans-30"/>
       <use xlink:href="#DejaVuSans-2e" transform="translate(63.623047 0)"/>
       <use xlink:href="#DejaVuSans-31" transform="translate(95.410156 0)"/>
       <use xlink:href="#DejaVuSans-32" transform="translate(159.033203 0)"/>
       <use xlink:href="#DejaVuSans-35" transform="translate(222.65625 0)"/>
      </g>
     </g>
    </g>
    <g id="xtick_7">
     <g id="line2d_7">
      <g>
       <use xlink:href="#mf7a0dc3001" x="305.151589" y="232.759219" style="stroke: #000000; stroke-width: 0.8"/>
      </g>
     </g>
     <g id="text_7">
      <!-- 0.150 -->
      <g transform="translate(290.837527 247.357656) scale(0.1 -0.1)">
       <use xlink:href="#DejaVuSans-30"/>
       <use xlink:href="#DejaVuSans-2e" transform="translate(63.623047 0)"/>
       <use xlink:href="#DejaVuSans-31" transform="translate(95.410156 0)"/>
       <use xlink:href="#DejaVuSans-35" transform="translate(159.033203 0)"/>
       <use xlink:href="#DejaVuSans-30" transform="translate(222.65625 0)"/>
      </g>
     </g>
    </g>
    <g id="xtick_8">
     <g id="line2d_8">
      <g>
       <use xlink:href="#mf7a0dc3001" x="346.281811" y="232.759219" style="stroke: #000000; stroke-width: 0.8"/>
      </g>
     </g>
     <g id="text_8">
      <!-- 0.175 -->
      <g transform="translate(331.967748 247.357656) scale(0.1 -0.1)">
       <use xlink:href="#DejaVuSans-30"/>
       <use xlink:href="#DejaVuSans-2e" transform="translate(63.623047 0)"/>
       <use xlink:href="#DejaVuSans-31" transform="translate(95.410156 0)"/>
       <use xlink:href="#DejaVuSans-37" transform="translate(159.033203 0)"/>
       <use xlink:href="#DejaVuSans-35" transform="translate(222.65625 0)"/>
      </g>
     </g>
    </g>
    <g id="text_9">
     <!-- Q [1/Å] -->
     <g transform="translate(201.065625 261.959219) scale(0.1 -0.1)">
      <defs>
       <path id="DejaVuSans-51" d="M 2522 4238 
Q 1834 4238 1429 3725 
Q 1025 3213 1025 2328 
Q 1025 1447 1429 934 
Q 1834 422 2522 422 
Q 3209 422 3611 934 
Q 4013 1447 4013 2328 
Q 4013 3213 3611 3725 
Q 3209 4238 2522 4238 
z
M 3406 84 
L 4238 -825 
L 3475 -825 
L 2784 -78 
Q 2681 -84 2626 -87 
Q 2572 -91 2522 -91 
Q 1538 -91 948 567 
Q 359 1225 359 2328 
Q 359 3434 948 4092 
Q 1538 4750 2522 4750 
Q 3503 4750 4090 4092 
Q 4678 3434 4678 2328 
Q 4678 1516 4351 937 
Q 4025 359 3406 84 
z
" transform="scale(0.015625)"/>
       <path id="DejaVuSans-20" transform="scale(0.015625)"/>
       <path id="DejaVuSans-5b" d="M 550 4863 
L 1875 4863 
L 1875 4416 
L 1125 4416 
L 1125 -397 
L 1875 -397 
L 1875 -844 
L 550 -844 
L 550 4863 
z
" transform="scale(0.015625)"/>
       <path id="DejaVuSans-2f" d="M 1625 4666 
L 2156 4666 
L 531 -594 
L 0 -594 
L 1625 4666 
z
" transform="scale(0.015625)"/>
       <path id="DejaVuSans-c5" d="M 2663 5081 
Q 2663 5278 2523 5417 
Q 2384 5556 2188 5556 
Q 1988 5556 1852 5420 
Q 1716 5284 1716 5081 
Q 1716 4884 1853 4746 
Q 1991 4609 2188 4609 
Q 2384 4609 2523 4746 
Q 2663 4884 2663 5081 
z
M 2188 4044 
L 1338 1722 
L 3041 1722 
L 2188 4044 
z
M 1716 4366 
Q 1525 4494 1428 4673 
Q 1331 4853 1331 5081 
Q 1331 5441 1579 5691 
Q 1828 5941 2188 5941 
Q 2544 5941 2795 5689 
Q 3047 5438 3047 5081 
Q 3047 4863 2948 4678 
Q 2850 4494 2663 4366 
L 4325 0 
L 3669 0 
L 3244 1197 
L 1141 1197 
L 716 0 
L 50 0 
L 1716 4366 
z
" transform="scale(0.015625)"/>
       <path id="DejaVuSans-5d" d="M 1947 4863 
L 1947 -844 
L 622 -844 
L 622 -397 
L 1369 -397 
L 1369 4416 
L 622 4416 
L 622 4863 
L 1947 4863 
z
" transform="scale(0.015625)"/>
      </defs>
      <use xlink:href="#DejaVuSans-51"/>
      <use xlink:href="#DejaVuSans-20" transform="translate(78.710938 0)"/>
      <use xlink:href="#DejaVuSans-5b" transform="translate(110.498047 0)"/>
      <use xlink:href="#DejaVuSans-31" transform="translate(149.511719 0)"/>
      <use xlink:href="#DejaVuSans-2f" transform="translate(213.134766 0)"/>
      <use xlink:href="#DejaVuSans-c5" transform="translate(246.826172 0)"/>
      <use xlink:href="#DejaVuSans-5d" transform="translate(315.234375 0)"/>
     </g>
    </g>
   </g>
   <g id="matplotlib.axis_2">
    <g id="ytick_1">
     <g id="line2d_9">
      <defs>
       <path id="m859ae93e26" d="M 0 0 
L -3.5 0 
" style="stroke: #000000; stroke-width: 0.8"/>
      </defs>
      <g>
       <use xlink:href="#m859ae93e26" x="51.378125" y="232.759219" style="stroke: #000000; stroke-width: 0.8"/>
      </g>
     </g>
     <g id="text_10">
      <!-- $\mathdefault{10^{-3}}$ -->
      <g transform="translate(20.878125 236.558437) scale(0.1 -0.1)">
       <defs>
        <path id="DejaVuSans-2212" d="M 678 2272 
L 4684 2272 
L 4684 1741 
L 678 1741 
L 678 2272 
z
" transform="scale(0.015625)"/>
        <path id="DejaVuSans-33" d="M 2597 2516 
Q 3050 2419 3304 2112 
Q 3559 1806 3559 1356 
Q 3559 666 3084 287 
Q 2609 -91 1734 -91 
Q 1441 -91 1130 -33 
Q 819 25 488 141 
L 488 750 
Q 750 597 1062 519 
Q 1375 441 1716 441 
Q 2309 441 2620 675 
Q 2931 909 2931 1356 
Q 2931 1769 2642 2001 
Q 2353 2234 1838 2234 
L 1294 2234 
L 1294 2753 
L 1863 2753 
Q 2328 2753 2575 2939 
Q 2822 3125 2822 3475 
Q 2822 3834 2567 4026 
Q 2313 4219 1838 4219 
Q 1578 4219 1281 4162 
Q 984 4106 628 3988 
L 628 4550 
Q 988 4650 1302 4700 
Q 1616 4750 1894 4750 
Q 2613 4750 3031 4423 
Q 3450 4097 3450 3541 
Q 3450 3153 3228 2886 
Q 3006 2619 2597 2516 
z
" transform="scale(0.015625)"/>
       </defs>
       <use xlink:href="#DejaVuSans-31" transform="translate(0 0.765625)"/>
       <use xlink:href="#DejaVuSans-30" transform="translate(63.623047 0.765625)"/>
       <use xlink:href="#DejaVuSans-2212" transform="translate(128.203125 39.046875) scale(0.7)"/>
       <use xlink:href="#DejaVuSans-33" transform="translate(186.855469 39.046875) scale(0.7)"/>
      </g>
     </g>
    </g>
    <g id="ytick_2">
     <g id="line2d_10">
      <g>
       <use xlink:href="#m859ae93e26" x="51.378125" y="177.319219" style="stroke: #000000; stroke-width: 0.8"/>
      </g>
     </g>
     <g id="text_11">
      <!-- $\mathdefault{10^{-2}}$ -->
      <g transform="translate(20.878125 181.118437) scale(0.1 -0.1)">
       <use xlink:href="#DejaVuSans-31" transform="translate(0 0.765625)"/>
       <use xlink:href="#DejaVuSans-30" transform="translate(63.623047 0.765625)"/>
       <use xlink:href="#DejaVuSans-2212" transform="translate(128.203125 39.046875) scale(0.7)"/>
       <use xlink:href="#DejaVuSans-32" transform="translate(186.855469 39.046875) scale(0.7)"/>
      </g>
     </g>
    </g>
    <g id="ytick_3">
     <g id="line2d_11">
      <g>
       <use xlink:href="#m859ae93e26" x="51.378125" y="121.879219" style="stroke: #000000; stroke-width: 0.8"/>
      </g>
     </g>
     <g id="text_12">
      <!-- $\mathdefault{10^{-1}}$ -->
      <g transform="translate(20.878125 125.678438) scale(0.1 -0.1)">
       <use xlink:href="#DejaVuSans-31" transform="translate(0 0.684375)"/>
       <use xlink:href="#DejaVuSans-30" transform="translate(63.623047 0.684375)"/>
       <use xlink:href="#DejaVuSans-2212" transform="translate(128.203125 38.965625) scale(0.7)"/>
       <use xlink:href="#DejaVuSans-31" transform="translate(186.855469 38.965625) scale(0.7)"/>
      </g>
     </g>
    </g>
    <g id="ytick_4">
     <g id="line2d_12">
      <g>
       <use xlink:href="#m859ae93e26" x="51.378125" y="66.439219" style="stroke: #000000; stroke-width: 0.8"/>
      </g>
     </g>
     <g id="text_13">
      <!-- $\mathdefault{10^{0}}$ -->
      <g transform="translate(26.778125 70.238438) scale(0.1 -0.1)">
       <use xlink:href="#DejaVuSans-31" transform="translate(0 0.765625)"/>
       <use xlink:href="#DejaVuSans-30" transform="translate(63.623047 0.765625)"/>
       <use xlink:href="#DejaVuSans-30" transform="translate(128.203125 39.046875) scale(0.7)"/>
      </g>
     </g>
    </g>
    <g id="ytick_5">
     <g id="line2d_13">
      <g>
       <use xlink:href="#m859ae93e26" x="51.378125" y="10.999219" style="stroke: #000000; stroke-width: 0.8"/>
      </g>
     </g>
     <g id="text_14">
      <!-- $\mathdefault{10^{1}}$ -->
      <g transform="translate(26.778125 14.798438) scale(0.1 -0.1)">
       <use xlink:href="#DejaVuSans-31" transform="translate(0 0.684375)"/>
       <use xlink:href="#DejaVuSans-30" transform="translate(63.623047 0.684375)"/>
       <use xlink:href="#DejaVuSans-31" transform="translate(128.203125 38.965625) scale(0.7)"/>
      </g>
     </g>
    </g>
    <g id="ytick_6">
     <g id="line2d_14">
      <defs>
       <path id="m7f2e000b5d" d="M 0 0 
L -2 0 
" style="stroke: #000000; stroke-width: 0.6"/>
      </defs>
      <g>
       <use xlink:href="#m7f2e000b5d" x="51.378125" y="216.070116" style="stroke: #000000; stroke-width: 0.6"/>
      </g>
     </g>
    </g>
    <g id="ytick_7">
     <g id="line2d_15">
      <g>
       <use xlink:href="#m7f2e000b5d" x="51.378125" y="206.307616" style="stroke: #000000; stroke-width: 0.6"/>
      </g>
     </g>
    </g>
    <g id="ytick_8">
     <g id="line2d_16">
      <g>
       <use xlink:href="#m7f2e000b5d" x="51.378125" y="199.381013" style="stroke: #000000; stroke-width: 0.6"/>
      </g>
     </g>
    </g>
    <g id="ytick_9">
     <g id="line2d_17">
      <g>
       <use xlink:href="#m7f2e000b5d" x="51.378125" y="194.008322" style="stroke: #000000; stroke-width: 0.6"/>
      </g>
     </g>
    </g>
    <g id="ytick_10">
     <g id="line2d_18">
      <g>
       <use xlink:href="#m7f2e000b5d" x="51.378125" y="189.618513" style="stroke: #000000; stroke-width: 0.6"/>
      </g>
     </g>
    </g>
    <g id="ytick_11">
     <g id="line2d_19">
      <g>
       <use xlink:href="#m7f2e000b5d" x="51.378125" y="185.906983" style="stroke: #000000; stroke-width: 0.6"/>
      </g>
     </g>
    </g>
    <g id="ytick_12">
     <g id="line2d_20">
      <g>
       <use xlink:href="#m7f2e000b5d" x="51.378125" y="182.69191" style="stroke: #000000; stroke-width: 0.6"/>
      </g>
     </g>
    </g>
    <g id="ytick_13">
     <g id="line2d_21">
      <g>
       <use xlink:href="#m7f2e000b5d" x="51.378125" y="179.856014" style="stroke: #000000; stroke-width: 0.6"/>
      </g>
     </g>
    </g>
    <g id="ytick_14">
     <g id="line2d_22">
      <g>
       <use xlink:href="#m7f2e000b5d" x="51.378125" y="160.630116" style="stroke: #000000; stroke-width: 0.6"/>
      </g>
     </g>
    </g>
    <g id="ytick_15">
     <g id="line2d_23">
      <g>
       <use xlink:href="#m7f2e000b5d" x="51.378125" y="150.867616" style="stroke: #000000; stroke-width: 0.6"/>
      </g>
     </g>
    </g>
    <g id="ytick_16">
     <g id="line2d_24">
      <g>
       <use xlink:href="#m7f2e000b5d" x="51.378125" y="143.941013" style="stroke: #000000; stroke-width: 0.6"/>
      </g>
     </g>
    </g>
    <g id="ytick_17">
     <g id="line2d_25">
      <g>
       <use xlink:href="#m7f2e000b5d" x="51.378125" y="138.568322" style="stroke: #000000; stroke-width: 0.6"/>
      </g>
     </g>
    </g>
    <g id="ytick_18">
     <g id="line2d_26">
      <g>
       <use xlink:href="#m7f2e000b5d" x="51.378125" y="134.178513" style="stroke: #000000; stroke-width: 0.6"/>
      </g>
     </g>
    </g>
    <g id="ytick_19">
     <g id="line2d_27">
      <g>
       <use xlink:href="#m7f2e000b5d" x="51.378125" y="130.466983" style="stroke: #000000; stroke-width: 0.6"/>
      </g>
     </g>
    </g>
    <g id="ytick_20">
     <g id="line2d_28">
      <g>
       <use xlink:href="#m7f2e000b5d" x="51.378125" y="127.25191" style="stroke: #000000; stroke-width: 0.6"/>
      </g>
     </g>
    </g>
    <g id="ytick_21">
     <g id="line2d_29">
      <g>
       <use xlink:href="#m7f2e000b5d" x="51.378125" y="124.416014" style="stroke: #000000; stroke-width: 0.6"/>
      </g>
     </g>
    </g>
    <g id="ytick_22">
     <g id="line2d_30">
      <g>
       <use xlink:href="#m7f2e000b5d" x="51.378125" y="105.190116" style="stroke: #000000; stroke-width: 0.6"/>
      </g>
     </g>
    </g>
    <g id="ytick_23">
     <g id="line2d_31">
      <g>
       <use xlink:href="#m7f2e000b5d" x="51.378125" y="95.427616" style="stroke: #000000; stroke-width: 0.6"/>
      </g>
     </g>
    </g>
    <g id="ytick_24">
     <g id="line2d_32">
      <g>
       <use xlink:href="#m7f2e000b5d" x="51.378125" y="88.501013" style="stroke: #000000; stroke-width: 0.6"/>
      </g>
     </g>
    </g>
    <g id="ytick_25">
     <g id="line2d_33">
      <g>
       <use xlink:href="#m7f2e000b5d" x="51.378125" y="83.128322" style="stroke: #000000; stroke-width: 0.6"/>
      </g>
     </g>
    </g>
    <g id="ytick_26">
     <g id="line2d_34">
      <g>
       <use xlink:href="#m7f2e000b5d" x="51.378125" y="78.738513" style="stroke: #000000; stroke-width: 0.6"/>
      </g>
     </g>
    </g>
    <g id="ytick_27">
     <g id="line2d_35">
      <g>
       <use xlink:href="#m7f2e000b5d" x="51.378125" y="75.026983" style="stroke: #000000; stroke-width: 0.6"/>
      </g>
     </g>
    </g>
    <g id="ytick_28">
     <g id="line2d_36">
      <g>
       <use xlink:href="#m7f2e000b5d" x="51.378125" y="71.81191" style="stroke: #000000; stroke-width: 0.6"/>
      </g>
     </g>
    </g>
    <g id="ytick_29">
     <g id="line2d_37">
      <g>
       <use xlink:href="#m7f2e000b5d" x="51.378125" y="68.976014" style="stroke: #000000; stroke-width: 0.6"/>
      </g>
     </g>
    </g>
    <g id="ytick_30">
     <g id="line2d_38">
      <g>
       <use xlink:href="#m7f2e000b5d" x="51.378125" y="49.750116" style="stroke: #000000; stroke-width: 0.6"/>
      </g>
     </g>
    </g>
    <g id="ytick_31">
     <g id="line2d_39">
      <g>
       <use xlink:href="#m7f2e000b5d" x="51.378125" y="39.987616" style="stroke: #000000; stroke-width: 0.6"/>
      </g>
     </g>
    </g>
    <g id="ytick_32">
     <g id="line2d_40">
      <g>
       <use xlink:href="#m7f2e000b5d" x="51.378125" y="33.061013" style="stroke: #000000; stroke-width: 0.6"/>
      </g>
     </g>
    </g>
    <g id="ytick_33">
     <g id="line2d_41">
      <g>
       <use xlink:href="#m7f2e000b5d" x="51.378125" y="27.688322" style="stroke: #000000; stroke-width: 0.6"/>
      </g>
     </g>
    </g>
    <g id="ytick_34">
     <g id="line2d_42">
      <g>
       <use xlink:href="#m7f2e000b5d" x="51.378125" y="23.298513" style="stroke: #000000; stroke-width: 0.6"/>
      </g>
     </g>
    </g>
    <g id="ytick_35">
     <g id="line2d_43">
      <g>
       <use xlink:href="#m7f2e000b5d" x="51.378125" y="19.586983" style="stroke: #000000; stroke-width: 0.6"/>
      </g>
     </g>
    </g>
    <g id="ytick_36">
     <g id="line2d_44">
      <g>
       <use xlink:href="#m7f2e000b5d" x="51.378125" y="16.37191" style="stroke: #000000; stroke-width: 0.6"/>
      </g>
     </g>
    </g>
    <g id="ytick_37">
     <g id="line2d_45">
      <g>
       <use xlink:href="#m7f2e000b5d" x="51.378125" y="13.536014" style="stroke: #000000; stroke-width: 0.6"/>
      </g>
     </g>
    </g>
    <g id="text_15">
     <!-- [dimensionless] -->
     <g transform="translate(14.798438 161.356562) rotate(-90) scale(0.1 -0.1)">
      <defs>
       <path id="DejaVuSans-64" d="M 2906 2969 
L 2906 4863 
L 3481 4863 
L 3481 0 
L 2906 0 
L 2906 525 
Q 2725 213 2448 61 
Q 2172 -91 1784 -91 
Q 1150 -91 751 415 
Q 353 922 353 1747 
Q 353 2572 751 3078 
Q 1150 3584 1784 3584 
Q 2172 3584 2448 3432 
Q 2725 3281 2906 2969 
z
M 947 1747 
Q 947 1113 1208 752 
Q 1469 391 1925 391 
Q 2381 391 2643 752 
Q 2906 1113 2906 1747 
Q 2906 2381 2643 2742 
Q 2381 3103 1925 3103 
Q 1469 3103 1208 2742 
Q 947 2381 947 1747 
z
" transform="scale(0.015625)"/>
       <path id="DejaVuSans-69" d="M 603 3500 
L 1178 3500 
L 1178 0 
L 603 0 
L 603 3500 
z
M 603 4863 
L 1178 4863 
L 1178 4134 
L 603 4134 
L 603 4863 
z
" transform="scale(0.015625)"/>
       <path id="DejaVuSans-6d" d="M 3328 2828 
Q 3544 3216 3844 3400 
Q 4144 3584 4550 3584 
Q 5097 3584 5394 3201 
Q 5691 2819 5691 2113 
L 5691 0 
L 5113 0 
L 5113 2094 
Q 5113 2597 4934 2840 
Q 4756 3084 4391 3084 
Q 3944 3084 3684 2787 
Q 3425 2491 3425 1978 
L 3425 0 
L 2847 0 
L 2847 2094 
Q 2847 2600 2669 2842 
Q 2491 3084 2119 3084 
Q 1678 3084 1418 2786 
Q 1159 2488 1159 1978 
L 1159 0 
L 581 0 
L 581 3500 
L 1159 3500 
L 1159 2956 
Q 1356 3278 1631 3431 
Q 1906 3584 2284 3584 
Q 2666 3584 2933 3390 
Q 3200 3197 3328 2828 
z
" transform="scale(0.015625)"/>
       <path id="DejaVuSans-65" d="M 3597 1894 
L 3597 1613 
L 953 1613 
Q 991 1019 1311 708 
Q 1631 397 2203 397 
Q 2534 397 2845 478 
Q 3156 559 3463 722 
L 3463 178 
Q 3153 47 2828 -22 
Q 2503 -91 2169 -91 
Q 1331 -91 842 396 
Q 353 884 353 1716 
Q 353 2575 817 3079 
Q 1281 3584 2069 3584 
Q 2775 3584 3186 3129 
Q 3597 2675 3597 1894 
z
M 3022 2063 
Q 3016 2534 2758 2815 
Q 2500 3097 2075 3097 
Q 1594 3097 1305 2825 
Q 1016 2553 972 2059 
L 3022 2063 
z
" transform="scale(0.015625)"/>
       <path id="DejaVuSans-6e" d="M 3513 2113 
L 3513 0 
L 2938 0 
L 2938 2094 
Q 2938 2591 2744 2837 
Q 2550 3084 2163 3084 
Q 1697 3084 1428 2787 
Q 1159 2491 1159 1978 
L 1159 0 
L 581 0 
L 581 3500 
L 1159 3500 
L 1159 2956 
Q 1366 3272 1645 3428 
Q 1925 3584 2291 3584 
Q 2894 3584 3203 3211 
Q 3513 2838 3513 2113 
z
" transform="scale(0.015625)"/>
       <path id="DejaVuSans-73" d="M 2834 3397 
L 2834 2853 
Q 2591 2978 2328 3040 
Q 2066 3103 1784 3103 
Q 1356 3103 1142 2972 
Q 928 2841 928 2578 
Q 928 2378 1081 2264 
Q 1234 2150 1697 2047 
L 1894 2003 
Q 2506 1872 2764 1633 
Q 3022 1394 3022 966 
Q 3022 478 2636 193 
Q 2250 -91 1575 -91 
Q 1294 -91 989 -36 
Q 684 19 347 128 
L 347 722 
Q 666 556 975 473 
Q 1284 391 1588 391 
Q 1994 391 2212 530 
Q 2431 669 2431 922 
Q 2431 1156 2273 1281 
Q 2116 1406 1581 1522 
L 1381 1569 
Q 847 1681 609 1914 
Q 372 2147 372 2553 
Q 372 3047 722 3315 
Q 1072 3584 1716 3584 
Q 2034 3584 2315 3537 
Q 2597 3491 2834 3397 
z
" transform="scale(0.015625)"/>
       <path id="DejaVuSans-6f" d="M 1959 3097 
Q 1497 3097 1228 2736 
Q 959 2375 959 1747 
Q 959 1119 1226 758 
Q 1494 397 1959 397 
Q 2419 397 2687 759 
Q 2956 1122 2956 1747 
Q 2956 2369 2687 2733 
Q 2419 3097 1959 3097 
z
M 1959 3584 
Q 2709 3584 3137 3096 
Q 3566 2609 3566 1747 
Q 3566 888 3137 398 
Q 2709 -91 1959 -91 
Q 1206 -91 779 398 
Q 353 888 353 1747 
Q 353 2609 779 3096 
Q 1206 3584 1959 3584 
z
" transform="scale(0.015625)"/>
       <path id="DejaVuSans-6c" d="M 603 4863 
L 1178 4863 
L 1178 0 
L 603 0 
L 603 4863 
z
" transform="scale(0.015625)"/>
      </defs>
      <use xlink:href="#DejaVuSans-5b"/>
      <use xlink:href="#DejaVuSans-64" transform="translate(39.013672 0)"/>
      <use xlink:href="#DejaVuSans-69" transform="translate(102.490234 0)"/>
      <use xlink:href="#DejaVuSans-6d" transform="translate(130.273438 0)"/>
      <use xlink:href="#DejaVuSans-65" transform="translate(227.685547 0)"/>
      <use xlink:href="#DejaVuSans-6e" transform="translate(289.208984 0)"/>
      <use xlink:href="#DejaVuSans-73" transform="translate(352.587891 0)"/>
      <use xlink:href="#DejaVuSans-69" transform="translate(404.6875 0)"/>
      <use xlink:href="#DejaVuSans-6f" transform="translate(432.470703 0)"/>
      <use xlink:href="#DejaVuSans-6e" transform="translate(493.652344 0)"/>
      <use xlink:href="#DejaVuSans-6c" transform="translate(557.03125 0)"/>
      <use xlink:href="#DejaVuSans-65" transform="translate(584.814453 0)"/>
      <use xlink:href="#DejaVuSans-73" transform="translate(646.337891 0)"/>
      <use xlink:href="#DejaVuSans-73" transform="translate(698.4375 0)"/>
      <use xlink:href="#DejaVuSans-5d" transform="translate(750.537109 0)"/>
     </g>
    </g>
   </g>
   <g id="patch_3">
    <path d="M 51.378125 232.759219 
L 51.378125 10.999219 
" style="fill: none; stroke: #000000; stroke-width: 0.8; stroke-linejoin: miter; stroke-linecap: square"/>
   </g>
   <g id="patch_4">
    <path d="M 386.178125 232.759219 
L 386.178125 10.999219 
" style="fill: none; stroke: #000000; stroke-width: 0.8; stroke-linejoin: miter; stroke-linecap: square"/>
   </g>
   <g id="patch_5">
    <path d="M 51.378125 232.759219 
L 386.178125 232.759219 
" style="fill: none; stroke: #000000; stroke-width: 0.8; stroke-linejoin: miter; stroke-linecap: square"/>
   </g>
   <g id="patch_6">
    <path d="M 51.378125 10.999219 
L 386.178125 10.999219 
" style="fill: none; stroke: #000000; stroke-width: 0.8; stroke-linejoin: miter; stroke-linecap: square"/>
   </g>
   <g id="line2d_46">
    <path d="M 66.596307 28.571023 
L 68.118125 28.571023 
L 68.118125 30.713787 
L 69.639943 30.713787 
L 69.639943 27.742642 
L 71.161761 27.742642 
L 71.161761 28.32434 
L 72.68358 28.32434 
L 72.68358 28.998781 
L 74.205398 28.998781 
L 74.205398 30.549028 
L 75.727216 30.549028 
L 75.727216 30.85756 
L 77.249034 30.85756 
L 77.249034 30.5154 
L 78.770852 30.5154 
L 78.770852 32.748043 
L 80.29267 32.748043 
L 80.29267 32.978336 
L 81.814489 32.978336 
L 81.814489 35.312093 
L 83.336307 35.312093 
L 83.336307 35.921267 
L 84.858125 35.921267 
L 84.858125 36.819174 
L 86.379943 36.819174 
L 86.379943 37.325356 
L 87.901761 37.325356 
L 87.901761 37.773832 
L 89.42358 37.773832 
L 89.42358 41.650597 
L 90.945398 41.650597 
L 90.945398 40.694367 
L 92.467216 40.694367 
L 92.467216 43.873097 
L 93.989034 43.873097 
L 93.989034 46.474561 
L 95.510852 46.474561 
L 95.510852 49.081116 
L 97.03267 49.081116 
L 97.03267 51.128104 
L 98.554489 51.128104 
L 98.554489 53.274596 
L 100.076307 53.274596 
L 100.076307 54.543962 
L 103.119943 54.593162 
L 103.119943 61.494843 
L 104.641761 61.494843 
L 104.641761 60.116092 
L 106.16358 60.116092 
L 106.16358 64.163962 
L 107.685398 64.163962 
L 107.685398 68.807813 
L 109.207216 68.807813 
L 109.207216 69.416822 
L 110.729034 69.416822 
L 110.729034 71.583365 
L 112.250852 71.583365 
L 112.250852 77.242309 
L 113.77267 77.242309 
L 113.77267 81.662871 
L 115.294489 81.662871 
L 115.294489 83.276721 
L 116.816307 83.276721 
L 116.816307 85.50361 
L 118.338125 85.50361 
L 118.338125 94.273951 
L 119.859943 94.273951 
L 119.859943 95.306762 
L 121.381761 95.306762 
L 121.381761 100.188394 
L 122.90358 100.188394 
L 122.90358 105.231213 
L 124.425398 105.231213 
L 124.425398 111.842436 
L 125.947216 111.842436 
L 125.947216 117.261826 
L 127.469034 117.261826 
L 127.469034 124.056596 
L 128.990852 124.056596 
L 128.990852 129.253757 
L 130.51267 129.253757 
L 130.51267 135.001635 
L 132.034489 135.001635 
L 132.034489 139.859411 
L 133.556307 139.859411 
L 133.556307 143.739911 
L 135.078125 143.739911 
L 135.078125 152.707307 
L 136.599943 152.707307 
L 136.599943 153.917577 
L 138.121761 153.917577 
L 138.121761 157.664059 
L 141.165398 157.7601 
L 141.165398 153.861887 
L 142.687216 153.861887 
L 142.687216 154.064904 
L 144.209034 154.064904 
L 144.209034 150.272364 
L 145.730852 150.272364 
L 145.730852 147.290933 
L 147.25267 147.290933 
L 147.25267 144.609162 
L 148.774489 144.609162 
L 148.774489 142.308431 
L 150.296307 142.308431 
L 150.296307 143.030032 
L 151.818125 143.030032 
L 151.818125 136.818125 
L 153.339943 136.818125 
L 153.339943 138.472408 
L 154.861761 138.472408 
L 154.861761 133.886002 
L 156.38358 133.886002 
L 156.38358 135.439436 
L 157.905398 135.439436 
L 157.905398 131.15068 
L 159.427216 131.15068 
L 159.427216 134.072557 
L 160.949034 134.072557 
L 160.949034 133.27272 
L 162.470852 133.27272 
L 162.470852 134.29236 
L 163.99267 134.29236 
L 163.99267 135.537358 
L 165.514489 135.537358 
L 165.514489 132.703032 
L 167.036307 132.703032 
L 167.036307 133.720013 
L 168.558125 133.720013 
L 168.558125 134.557363 
L 170.079943 134.557363 
L 170.079943 136.05799 
L 171.601761 136.05799 
L 171.601761 137.886398 
L 173.12358 137.886398 
L 173.12358 140.86179 
L 174.645398 140.86179 
L 174.645398 144.59873 
L 176.167216 144.59873 
L 176.167216 139.560143 
L 177.689034 139.560143 
L 177.689034 145.631662 
L 179.210852 145.631662 
L 179.210852 143.098663 
L 180.73267 143.098663 
L 180.73267 150.698984 
L 182.254489 150.698984 
L 182.254489 148.116569 
L 183.776307 148.116569 
L 183.776307 154.079516 
L 185.298125 154.079516 
L 185.298125 152.423038 
L 186.819943 152.423038 
L 186.819943 155.104891 
L 188.341761 155.104891 
L 188.341761 158.875561 
L 189.86358 158.875561 
L 189.86358 157.637755 
L 191.385398 157.637755 
L 191.385398 157.365876 
L 192.907216 157.365876 
L 192.907216 162.833645 
L 194.429034 162.833645 
L 194.429034 160.505713 
L 195.950852 160.505713 
L 195.950852 161.948176 
L 197.47267 161.948176 
L 197.47267 164.217685 
L 198.994489 164.217685 
L 198.994489 158.694497 
L 200.516307 158.694497 
L 200.516307 159.54392 
L 202.038125 159.54392 
L 202.038125 156.957167 
L 205.081761 156.961299 
L 205.081761 162.485764 
L 206.60358 162.485764 
L 206.60358 158.316649 
L 208.125398 158.316649 
L 208.125398 152.858774 
L 209.647216 152.858774 
L 209.647216 161.972789 
L 211.169034 161.972789 
L 211.169034 157.040072 
L 212.690852 157.040072 
L 212.690852 159.776353 
L 214.21267 159.776353 
L 214.21267 155.675201 
L 215.734489 155.675201 
L 215.734489 153.166604 
L 217.256307 153.166604 
L 217.256307 153.415803 
L 218.778125 153.415803 
L 218.778125 153.152258 
L 220.299943 153.152258 
L 220.299943 149.940001 
L 221.821761 149.940001 
L 221.821761 154.230039 
L 223.34358 154.230039 
L 223.34358 152.765988 
L 224.865398 152.765988 
L 224.865398 157.982215 
L 226.387216 157.982215 
L 226.387216 152.160851 
L 227.909034 152.160851 
L 227.909034 149.95329 
L 229.430852 149.95329 
L 229.430852 157.236922 
L 230.95267 157.236922 
L 230.95267 155.412151 
L 232.474489 155.412151 
L 232.474489 154.532842 
L 233.996307 154.532842 
L 233.996307 157.174591 
L 235.518125 157.174591 
L 235.518125 156.993672 
L 237.039943 156.993672 
L 237.039943 158.123742 
L 238.561761 158.123742 
L 238.561761 163.526561 
L 240.08358 163.526561 
L 240.08358 155.916072 
L 241.605398 155.916072 
L 241.605398 157.189057 
L 243.127216 157.189057 
L 243.127216 157.640065 
L 244.649034 157.640065 
L 244.649034 157.058439 
L 246.170852 157.058439 
L 246.170852 161.850812 
L 247.69267 161.850812 
L 247.69267 154.725825 
L 249.214489 154.725825 
L 249.214489 160.947985 
L 250.736307 160.947985 
L 250.736307 163.857173 
L 252.258125 163.857173 
L 252.258125 159.631048 
L 253.779943 159.631048 
L 253.779943 159.905903 
L 255.301761 159.905903 
L 255.301761 161.39327 
L 256.82358 161.39327 
L 256.82358 159.453374 
L 258.345398 159.453374 
L 258.345398 160.535989 
L 259.867216 160.535989 
L 259.867216 164.558897 
L 261.389034 164.558897 
L 261.389034 160.863726 
L 262.910852 160.863726 
L 262.910852 160.467145 
L 264.43267 160.467145 
L 264.43267 163.087751 
L 265.954489 163.087751 
L 265.954489 156.302986 
L 267.476307 156.302986 
L 267.476307 159.797319 
L 268.998125 159.797319 
L 268.998125 155.747002 
L 270.519943 155.747002 
L 270.519943 154.369896 
L 272.041761 154.369896 
L 272.041761 162.137342 
L 273.56358 162.137342 
L 273.56358 157.274476 
L 275.085398 157.274476 
L 275.085398 163.466598 
L 276.607216 163.466598 
L 276.607216 154.829525 
L 278.129034 154.829525 
L 278.129034 159.229807 
L 279.650852 159.229807 
L 279.650852 160.987053 
L 281.17267 160.987053 
L 281.17267 155.76498 
L 282.694489 155.76498 
L 282.694489 152.915702 
L 284.216307 152.915702 
L 284.216307 165.143128 
L 285.738125 165.143128 
L 285.738125 160.832367 
L 287.259943 160.832367 
L 287.259943 159.528436 
L 288.781761 159.528436 
L 288.781761 156.532548 
L 290.30358 156.532548 
L 290.30358 161.862366 
L 291.825398 161.862366 
L 291.825398 158.096778 
L 293.347216 158.096778 
L 293.347216 157.470422 
L 294.869034 157.470422 
L 294.869034 160.038591 
L 296.390852 160.038591 
L 296.390852 159.518777 
L 297.91267 159.518777 
L 297.91267 160.369856 
L 299.434489 160.369856 
L 299.434489 162.262504 
L 300.956307 162.262504 
L 300.956307 157.949198 
L 302.478125 157.949198 
L 302.478125 161.702031 
L 303.999943 161.702031 
L 303.999943 164.404688 
L 305.521761 164.404688 
L 305.521761 168.407233 
L 307.04358 168.407233 
L 307.04358 159.626788 
L 308.565398 159.626788 
L 308.565398 162.359979 
L 310.087216 162.359979 
L 310.087216 158.118125 
L 311.609034 158.118125 
L 311.609034 164.54027 
L 313.130852 164.54027 
L 313.130852 157.50964 
L 314.65267 157.50964 
L 314.65267 165.296617 
L 316.174489 165.296617 
L 316.174489 158.098237 
L 317.696307 158.098237 
L 317.696307 157.922827 
L 319.218125 157.922827 
L 319.218125 162.469929 
L 320.739943 162.469929 
L 320.739943 157.802044 
L 322.261761 157.802044 
L 322.261761 153.87973 
L 323.78358 153.87973 
L 323.78358 158.685734 
L 325.305398 158.685734 
L 325.305398 163.174696 
L 326.827216 163.174696 
L 326.827216 161.183634 
L 328.349034 161.183634 
L 328.349034 157.667154 
L 329.870852 157.667154 
L 329.870852 164.057022 
L 331.39267 164.057022 
L 331.39267 152.157417 
L 332.914489 152.157417 
L 332.914489 160.653123 
L 334.436307 160.653123 
L 334.436307 157.653191 
L 335.958125 157.653191 
L 335.958125 160.522008 
L 337.479943 160.522008 
L 337.479943 157.333727 
L 339.001761 157.333727 
L 339.001761 160.08462 
L 340.52358 160.08462 
L 340.52358 159.378107 
L 342.045398 159.378107 
L 342.045398 167.287096 
L 343.567216 167.287096 
L 343.567216 154.087743 
L 345.089034 154.087743 
L 345.089034 167.649945 
L 346.610852 167.649945 
L 346.610852 149.1831 
L 348.13267 149.1831 
L 348.13267 156.681756 
L 349.654489 156.681756 
L 349.654489 149.08025 
L 351.176307 149.08025 
L 351.176307 157.730075 
L 352.698125 157.730075 
L 352.698125 166.800089 
L 354.219943 166.800089 
L 354.219943 166.499522 
L 355.741761 166.499522 
L 355.741761 151.499207 
L 357.26358 151.499207 
L 357.26358 159.822926 
L 358.785398 159.822926 
L 358.785398 180.238366 
L 360.307216 180.238366 
L 360.307216 141.327767 
L 361.829034 141.327767 
L 361.829034 166.342055 
L 363.350852 166.342055 
L 363.350852 183.11285 
L 364.87267 183.11285 
L 364.87267 162.391635 
L 366.394489 162.391635 
L 366.394489 156.189988 
L 367.916307 156.189988 
L 367.916307 152.054561 
L 369.438125 152.054561 
L 369.438125 172.969899 
L 370.959943 172.969899 
L 370.959943 172.969899 
" clip-path="url(#p6e07999f5f)" style="fill: none; stroke: #1f77b4; stroke-width: 1.5; stroke-linecap: square"/>
   </g>
   <g id="LineCollection_1">
    <path d="M 67.357216 29.8761 
L 67.357216 27.333063 
" clip-path="url(#p6e07999f5f)" style="fill: none; stroke: #1f77b4; stroke-width: 1.5"/>
    <path d="M 68.879034 32.128019 
L 68.879034 29.378035 
" clip-path="url(#p6e07999f5f)" style="fill: none; stroke: #1f77b4; stroke-width: 1.5"/>
    <path d="M 70.400852 28.474626 
L 70.400852 27.032257 
" clip-path="url(#p6e07999f5f)" style="fill: none; stroke: #1f77b4; stroke-width: 1.5"/>
    <path d="M 71.92267 29.095736 
L 71.92267 27.576894 
" clip-path="url(#p6e07999f5f)" style="fill: none; stroke: #1f77b4; stroke-width: 1.5"/>
    <path d="M 73.444489 29.758454 
L 73.444489 28.262346 
" clip-path="url(#p6e07999f5f)" style="fill: none; stroke: #1f77b4; stroke-width: 1.5"/>
    <path d="M 74.966307 31.307982 
L 74.966307 29.813269 
" clip-path="url(#p6e07999f5f)" style="fill: none; stroke: #1f77b4; stroke-width: 1.5"/>
    <path d="M 76.488125 31.841155 
L 76.488125 29.912575 
" clip-path="url(#p6e07999f5f)" style="fill: none; stroke: #1f77b4; stroke-width: 1.5"/>
    <path d="M 78.009943 31.31037 
L 78.009943 29.745841 
" clip-path="url(#p6e07999f5f)" style="fill: none; stroke: #1f77b4; stroke-width: 1.5"/>
    <path d="M 79.531761 33.557591 
L 79.531761 31.96483 
" clip-path="url(#p6e07999f5f)" style="fill: none; stroke: #1f77b4; stroke-width: 1.5"/>
    <path d="M 81.05358 33.800441 
L 81.05358 32.183377 
" clip-path="url(#p6e07999f5f)" style="fill: none; stroke: #1f77b4; stroke-width: 1.5"/>
    <path d="M 82.575398 36.144104 
L 82.575398 34.507876 
" clip-path="url(#p6e07999f5f)" style="fill: none; stroke: #1f77b4; stroke-width: 1.5"/>
    <path d="M 84.097216 36.782758 
L 84.097216 35.089539 
" clip-path="url(#p6e07999f5f)" style="fill: none; stroke: #1f77b4; stroke-width: 1.5"/>
    <path d="M 85.619034 37.703482 
L 85.619034 35.966198 
" clip-path="url(#p6e07999f5f)" style="fill: none; stroke: #1f77b4; stroke-width: 1.5"/>
    <path d="M 87.140852 38.220246 
L 87.140852 36.462538 
" clip-path="url(#p6e07999f5f)" style="fill: none; stroke: #1f77b4; stroke-width: 1.5"/>
    <path d="M 88.66267 38.685449 
L 88.66267 36.895475 
" clip-path="url(#p6e07999f5f)" style="fill: none; stroke: #1f77b4; stroke-width: 1.5"/>
    <path d="M 90.184489 42.601392 
L 90.184489 40.735926 
" clip-path="url(#p6e07999f5f)" style="fill: none; stroke: #1f77b4; stroke-width: 1.5"/>
    <path d="M 91.706307 41.656012 
L 91.706307 39.769659 
" clip-path="url(#p6e07999f5f)" style="fill: none; stroke: #1f77b4; stroke-width: 1.5"/>
    <path d="M 93.228125 44.862675 
L 93.228125 42.922591 
" clip-path="url(#p6e07999f5f)" style="fill: none; stroke: #1f77b4; stroke-width: 1.5"/>
    <path d="M 94.749943 47.525705 
L 94.749943 45.467393 
" clip-path="url(#p6e07999f5f)" style="fill: none; stroke: #1f77b4; stroke-width: 1.5"/>
    <path d="M 96.271761 50.163606 
L 96.271761 48.045207 
" clip-path="url(#p6e07999f5f)" style="fill: none; stroke: #1f77b4; stroke-width: 1.5"/>
    <path d="M 97.79358 52.283236 
L 97.79358 50.025863 
" clip-path="url(#p6e07999f5f)" style="fill: none; stroke: #1f77b4; stroke-width: 1.5"/>
    <path d="M 99.315398 54.527619 
L 99.315398 52.083569 
" clip-path="url(#p6e07999f5f)" style="fill: none; stroke: #1f77b4; stroke-width: 1.5"/>
    <path d="M 100.837216 55.947259 
L 100.837216 53.217969 
" clip-path="url(#p6e07999f5f)" style="fill: none; stroke: #1f77b4; stroke-width: 1.5"/>
    <path d="M 102.359034 56.119504 
L 102.359034 53.157838 
" clip-path="url(#p6e07999f5f)" style="fill: none; stroke: #1f77b4; stroke-width: 1.5"/>
    <path d="M 103.880852 63.331902 
L 103.880852 59.788067 
" clip-path="url(#p6e07999f5f)" style="fill: none; stroke: #1f77b4; stroke-width: 1.5"/>
    <path d="M 105.40267 62.168859 
L 105.40267 58.224673 
" clip-path="url(#p6e07999f5f)" style="fill: none; stroke: #1f77b4; stroke-width: 1.5"/>
    <path d="M 106.924489 66.381137 
L 106.924489 62.133852 
" clip-path="url(#p6e07999f5f)" style="fill: none; stroke: #1f77b4; stroke-width: 1.5"/>
    <path d="M 108.446307 71.203382 
L 108.446307 66.629171 
" clip-path="url(#p6e07999f5f)" style="fill: none; stroke: #1f77b4; stroke-width: 1.5"/>
    <path d="M 109.968125 71.567637 
L 109.968125 67.442483 
" clip-path="url(#p6e07999f5f)" style="fill: none; stroke: #1f77b4; stroke-width: 1.5"/>
    <path d="M 111.489943 73.612201 
L 111.489943 69.712279 
" clip-path="url(#p6e07999f5f)" style="fill: none; stroke: #1f77b4; stroke-width: 1.5"/>
    <path d="M 113.011761 79.093109 
L 113.011761 75.523679 
" clip-path="url(#p6e07999f5f)" style="fill: none; stroke: #1f77b4; stroke-width: 1.5"/>
    <path d="M 114.53358 83.463898 
L 114.53358 79.987238 
" clip-path="url(#p6e07999f5f)" style="fill: none; stroke: #1f77b4; stroke-width: 1.5"/>
    <path d="M 116.055398 84.902564 
L 116.055398 81.753755 
" clip-path="url(#p6e07999f5f)" style="fill: none; stroke: #1f77b4; stroke-width: 1.5"/>
    <path d="M 117.577216 87.099974 
L 117.577216 84.006539 
" clip-path="url(#p6e07999f5f)" style="fill: none; stroke: #1f77b4; stroke-width: 1.5"/>
    <path d="M 119.099034 95.877496 
L 119.099034 92.770565 
" clip-path="url(#p6e07999f5f)" style="fill: none; stroke: #1f77b4; stroke-width: 1.5"/>
    <path d="M 120.620852 96.883628 
L 120.620852 93.826851 
" clip-path="url(#p6e07999f5f)" style="fill: none; stroke: #1f77b4; stroke-width: 1.5"/>
    <path d="M 122.14267 101.772062 
L 122.14267 98.702493 
" clip-path="url(#p6e07999f5f)" style="fill: none; stroke: #1f77b4; stroke-width: 1.5"/>
    <path d="M 123.664489 106.869861 
L 123.664489 103.697018 
" clip-path="url(#p6e07999f5f)" style="fill: none; stroke: #1f77b4; stroke-width: 1.5"/>
    <path d="M 125.186307 113.496392 
L 125.186307 110.294831 
" clip-path="url(#p6e07999f5f)" style="fill: none; stroke: #1f77b4; stroke-width: 1.5"/>
    <path d="M 126.708125 118.883405 
L 126.708125 115.7426 
" clip-path="url(#p6e07999f5f)" style="fill: none; stroke: #1f77b4; stroke-width: 1.5"/>
    <path d="M 128.229943 125.785859 
L 128.229943 122.443252 
" clip-path="url(#p6e07999f5f)" style="fill: none; stroke: #1f77b4; stroke-width: 1.5"/>
    <path d="M 129.751761 130.944439 
L 129.751761 127.674044 
" clip-path="url(#p6e07999f5f)" style="fill: none; stroke: #1f77b4; stroke-width: 1.5"/>
    <path d="M 131.27358 136.760417 
L 131.27358 133.362629 
" clip-path="url(#p6e07999f5f)" style="fill: none; stroke: #1f77b4; stroke-width: 1.5"/>
    <path d="M 132.795398 141.483685 
L 132.795398 138.337821 
" clip-path="url(#p6e07999f5f)" style="fill: none; stroke: #1f77b4; stroke-width: 1.5"/>
    <path d="M 134.317216 145.311267 
L 134.317216 142.264854 
" clip-path="url(#p6e07999f5f)" style="fill: none; stroke: #1f77b4; stroke-width: 1.5"/>
    <path d="M 135.839034 154.271101 
L 135.839034 151.238915 
" clip-path="url(#p6e07999f5f)" style="fill: none; stroke: #1f77b4; stroke-width: 1.5"/>
    <path d="M 137.360852 155.352192 
L 137.360852 152.563656 
" clip-path="url(#p6e07999f5f)" style="fill: none; stroke: #1f77b4; stroke-width: 1.5"/>
    <path d="M 138.88267 159.039678 
L 138.88267 156.362804 
" clip-path="url(#p6e07999f5f)" style="fill: none; stroke: #1f77b4; stroke-width: 1.5"/>
    <path d="M 140.404489 159.183412 
L 140.404489 156.416251 
" clip-path="url(#p6e07999f5f)" style="fill: none; stroke: #1f77b4; stroke-width: 1.5"/>
    <path d="M 141.926307 155.318979 
L 141.926307 152.487966 
" clip-path="url(#p6e07999f5f)" style="fill: none; stroke: #1f77b4; stroke-width: 1.5"/>
    <path d="M 143.448125 155.640975 
L 143.448125 152.585693 
" clip-path="url(#p6e07999f5f)" style="fill: none; stroke: #1f77b4; stroke-width: 1.5"/>
    <path d="M 144.969943 151.88332 
L 144.969943 148.762466 
" clip-path="url(#p6e07999f5f)" style="fill: none; stroke: #1f77b4; stroke-width: 1.5"/>
    <path d="M 146.491761 148.962266 
L 146.491761 145.728123 
" clip-path="url(#p6e07999f5f)" style="fill: none; stroke: #1f77b4; stroke-width: 1.5"/>
    <path d="M 148.01358 146.299945 
L 148.01358 143.02936 
" clip-path="url(#p6e07999f5f)" style="fill: none; stroke: #1f77b4; stroke-width: 1.5"/>
    <path d="M 149.535398 144.025826 
L 149.535398 140.70542 
" clip-path="url(#p6e07999f5f)" style="fill: none; stroke: #1f77b4; stroke-width: 1.5"/>
    <path d="M 151.057216 144.894748 
L 151.057216 141.299409 
" clip-path="url(#p6e07999f5f)" style="fill: none; stroke: #1f77b4; stroke-width: 1.5"/>
    <path d="M 152.579034 138.625262 
L 152.579034 135.137206 
" clip-path="url(#p6e07999f5f)" style="fill: none; stroke: #1f77b4; stroke-width: 1.5"/>
    <path d="M 154.100852 140.378525 
L 154.100852 136.706184 
" clip-path="url(#p6e07999f5f)" style="fill: none; stroke: #1f77b4; stroke-width: 1.5"/>
    <path d="M 155.62267 135.772133 
L 155.62267 132.136951 
" clip-path="url(#p6e07999f5f)" style="fill: none; stroke: #1f77b4; stroke-width: 1.5"/>
    <path d="M 157.144489 137.318444 
L 157.144489 133.696512 
" clip-path="url(#p6e07999f5f)" style="fill: none; stroke: #1f77b4; stroke-width: 1.5"/>
    <path d="M 158.666307 133.07516 
L 158.666307 129.368703 
" clip-path="url(#p6e07999f5f)" style="fill: none; stroke: #1f77b4; stroke-width: 1.5"/>
    <path d="M 160.188125 136.065554 
L 160.188125 132.231993 
" clip-path="url(#p6e07999f5f)" style="fill: none; stroke: #1f77b4; stroke-width: 1.5"/>
    <path d="M 161.709943 135.270991 
L 161.709943 131.427659 
" clip-path="url(#p6e07999f5f)" style="fill: none; stroke: #1f77b4; stroke-width: 1.5"/>
    <path d="M 163.231761 136.363408 
L 163.231761 132.385433 
" clip-path="url(#p6e07999f5f)" style="fill: none; stroke: #1f77b4; stroke-width: 1.5"/>
    <path d="M 164.75358 137.571623 
L 164.75358 133.661657 
" clip-path="url(#p6e07999f5f)" style="fill: none; stroke: #1f77b4; stroke-width: 1.5"/>
    <path d="M 166.275398 134.782122 
L 166.275398 130.78929 
" clip-path="url(#p6e07999f5f)" style="fill: none; stroke: #1f77b4; stroke-width: 1.5"/>
    <path d="M 167.797216 135.778482 
L 167.797216 131.823753 
" clip-path="url(#p6e07999f5f)" style="fill: none; stroke: #1f77b4; stroke-width: 1.5"/>
    <path d="M 169.319034 136.613211 
L 169.319034 132.66333 
" clip-path="url(#p6e07999f5f)" style="fill: none; stroke: #1f77b4; stroke-width: 1.5"/>
    <path d="M 170.840852 138.163524 
L 170.840852 134.121867 
" clip-path="url(#p6e07999f5f)" style="fill: none; stroke: #1f77b4; stroke-width: 1.5"/>
    <path d="M 172.36267 139.989346 
L 172.36267 135.952462 
" clip-path="url(#p6e07999f5f)" style="fill: none; stroke: #1f77b4; stroke-width: 1.5"/>
    <path d="M 173.884489 142.99226 
L 173.884489 138.904605 
" clip-path="url(#p6e07999f5f)" style="fill: none; stroke: #1f77b4; stroke-width: 1.5"/>
    <path d="M 175.406307 146.752325 
L 175.406307 142.622048 
" clip-path="url(#p6e07999f5f)" style="fill: none; stroke: #1f77b4; stroke-width: 1.5"/>
    <path d="M 176.928125 141.599681 
L 176.928125 137.679959 
" clip-path="url(#p6e07999f5f)" style="fill: none; stroke: #1f77b4; stroke-width: 1.5"/>
    <path d="M 178.449943 147.806102 
L 178.449943 143.637434 
" clip-path="url(#p6e07999f5f)" style="fill: none; stroke: #1f77b4; stroke-width: 1.5"/>
    <path d="M 179.971761 145.148517 
L 179.971761 141.209715 
" clip-path="url(#p6e07999f5f)" style="fill: none; stroke: #1f77b4; stroke-width: 1.5"/>
    <path d="M 181.49358 152.836284 
L 181.49358 148.736037 
" clip-path="url(#p6e07999f5f)" style="fill: none; stroke: #1f77b4; stroke-width: 1.5"/>
    <path d="M 183.015398 150.185104 
L 183.015398 146.211772 
" clip-path="url(#p6e07999f5f)" style="fill: none; stroke: #1f77b4; stroke-width: 1.5"/>
    <path d="M 184.537216 156.157303 
L 184.537216 152.166877 
" clip-path="url(#p6e07999f5f)" style="fill: none; stroke: #1f77b4; stroke-width: 1.5"/>
    <path d="M 186.059034 154.417065 
L 186.059034 150.581595 
" clip-path="url(#p6e07999f5f)" style="fill: none; stroke: #1f77b4; stroke-width: 1.5"/>
    <path d="M 187.580852 157.093069 
L 187.580852 153.268437 
" clip-path="url(#p6e07999f5f)" style="fill: none; stroke: #1f77b4; stroke-width: 1.5"/>
    <path d="M 189.10267 160.830014 
L 189.10267 157.067916 
" clip-path="url(#p6e07999f5f)" style="fill: none; stroke: #1f77b4; stroke-width: 1.5"/>
    <path d="M 190.624489 159.616926 
L 190.624489 155.808989 
" clip-path="url(#p6e07999f5f)" style="fill: none; stroke: #1f77b4; stroke-width: 1.5"/>
    <path d="M 192.146307 159.166736 
L 192.146307 155.690388 
" clip-path="url(#p6e07999f5f)" style="fill: none; stroke: #1f77b4; stroke-width: 1.5"/>
    <path d="M 193.668125 164.725638 
L 193.668125 161.079555 
" clip-path="url(#p6e07999f5f)" style="fill: none; stroke: #1f77b4; stroke-width: 1.5"/>
    <path d="M 195.189943 162.399369 
L 195.189943 158.750193 
" clip-path="url(#p6e07999f5f)" style="fill: none; stroke: #1f77b4; stroke-width: 1.5"/>
    <path d="M 196.711761 163.728244 
L 196.711761 160.290699 
" clip-path="url(#p6e07999f5f)" style="fill: none; stroke: #1f77b4; stroke-width: 1.5"/>
    <path d="M 198.23358 166.120148 
L 198.23358 162.454599 
" clip-path="url(#p6e07999f5f)" style="fill: none; stroke: #1f77b4; stroke-width: 1.5"/>
    <path d="M 199.755398 160.569938 
L 199.755398 156.954642 
" clip-path="url(#p6e07999f5f)" style="fill: none; stroke: #1f77b4; stroke-width: 1.5"/>
    <path d="M 201.277216 161.47011 
L 201.277216 157.760476 
" clip-path="url(#p6e07999f5f)" style="fill: none; stroke: #1f77b4; stroke-width: 1.5"/>
    <path d="M 202.799034 158.902316 
L 202.799034 155.157484 
" clip-path="url(#p6e07999f5f)" style="fill: none; stroke: #1f77b4; stroke-width: 1.5"/>
    <path d="M 204.320852 158.948421 
L 204.320852 155.125746 
" clip-path="url(#p6e07999f5f)" style="fill: none; stroke: #1f77b4; stroke-width: 1.5"/>
    <path d="M 205.84267 164.617339 
L 205.84267 160.527647 
" clip-path="url(#p6e07999f5f)" style="fill: none; stroke: #1f77b4; stroke-width: 1.5"/>
    <path d="M 207.364489 160.400106 
L 207.364489 156.399207 
" clip-path="url(#p6e07999f5f)" style="fill: none; stroke: #1f77b4; stroke-width: 1.5"/>
    <path d="M 208.886307 154.888598 
L 208.886307 150.986848 
" clip-path="url(#p6e07999f5f)" style="fill: none; stroke: #1f77b4; stroke-width: 1.5"/>
    <path d="M 210.408125 164.253793 
L 210.408125 159.889302 
" clip-path="url(#p6e07999f5f)" style="fill: none; stroke: #1f77b4; stroke-width: 1.5"/>
    <path d="M 211.929943 159.310271 
L 211.929943 154.965603 
" clip-path="url(#p6e07999f5f)" style="fill: none; stroke: #1f77b4; stroke-width: 1.5"/>
    <path d="M 213.451761 162.146325 
L 213.451761 157.618899 
" clip-path="url(#p6e07999f5f)" style="fill: none; stroke: #1f77b4; stroke-width: 1.5"/>
    <path d="M 214.97358 157.884997 
L 214.97358 153.651279 
" clip-path="url(#p6e07999f5f)" style="fill: none; stroke: #1f77b4; stroke-width: 1.5"/>
    <path d="M 216.495398 155.504854 
L 216.495398 151.035467 
" clip-path="url(#p6e07999f5f)" style="fill: none; stroke: #1f77b4; stroke-width: 1.5"/>
    <path d="M 218.017216 155.678525 
L 218.017216 151.347579 
" clip-path="url(#p6e07999f5f)" style="fill: none; stroke: #1f77b4; stroke-width: 1.5"/>
    <path d="M 219.539034 155.640835 
L 219.539034 150.89697 
" clip-path="url(#p6e07999f5f)" style="fill: none; stroke: #1f77b4; stroke-width: 1.5"/>
    <path d="M 221.060852 152.351637 
L 221.060852 147.74808 
" clip-path="url(#p6e07999f5f)" style="fill: none; stroke: #1f77b4; stroke-width: 1.5"/>
    <path d="M 222.58267 156.73309 
L 222.58267 151.962874 
" clip-path="url(#p6e07999f5f)" style="fill: none; stroke: #1f77b4; stroke-width: 1.5"/>
    <path d="M 224.104489 155.131124 
L 224.104489 150.612542 
" clip-path="url(#p6e07999f5f)" style="fill: none; stroke: #1f77b4; stroke-width: 1.5"/>
    <path d="M 225.626307 160.480821 
L 225.626307 155.718696 
" clip-path="url(#p6e07999f5f)" style="fill: none; stroke: #1f77b4; stroke-width: 1.5"/>
    <path d="M 227.148125 154.743113 
L 227.148125 149.828904 
" clip-path="url(#p6e07999f5f)" style="fill: none; stroke: #1f77b4; stroke-width: 1.5"/>
    <path d="M 228.669943 152.406165 
L 228.669943 147.727359 
" clip-path="url(#p6e07999f5f)" style="fill: none; stroke: #1f77b4; stroke-width: 1.5"/>
    <path d="M 230.191761 159.892485 
L 230.191761 154.845372 
" clip-path="url(#p6e07999f5f)" style="fill: none; stroke: #1f77b4; stroke-width: 1.5"/>
    <path d="M 231.71358 157.843774 
L 231.71358 153.203734 
" clip-path="url(#p6e07999f5f)" style="fill: none; stroke: #1f77b4; stroke-width: 1.5"/>
    <path d="M 233.235398 156.95471 
L 233.235398 152.332473 
" clip-path="url(#p6e07999f5f)" style="fill: none; stroke: #1f77b4; stroke-width: 1.5"/>
    <path d="M 234.757216 159.795236 
L 234.757216 154.811393 
" clip-path="url(#p6e07999f5f)" style="fill: none; stroke: #1f77b4; stroke-width: 1.5"/>
    <path d="M 236.279034 159.515781 
L 236.279034 154.710884 
" clip-path="url(#p6e07999f5f)" style="fill: none; stroke: #1f77b4; stroke-width: 1.5"/>
    <path d="M 237.800852 160.609175 
L 237.800852 155.871037 
" clip-path="url(#p6e07999f5f)" style="fill: none; stroke: #1f77b4; stroke-width: 1.5"/>
    <path d="M 239.32267 166.093905 
L 239.32267 161.206785 
" clip-path="url(#p6e07999f5f)" style="fill: none; stroke: #1f77b4; stroke-width: 1.5"/>
    <path d="M 240.844489 158.332979 
L 240.844489 153.719798 
" clip-path="url(#p6e07999f5f)" style="fill: none; stroke: #1f77b4; stroke-width: 1.5"/>
    <path d="M 242.366307 159.569096 
L 242.366307 155.023266 
" clip-path="url(#p6e07999f5f)" style="fill: none; stroke: #1f77b4; stroke-width: 1.5"/>
    <path d="M 243.888125 159.964776 
L 243.888125 155.520179 
" clip-path="url(#p6e07999f5f)" style="fill: none; stroke: #1f77b4; stroke-width: 1.5"/>
    <path d="M 245.409943 159.478354 
L 245.409943 154.859682 
" clip-path="url(#p6e07999f5f)" style="fill: none; stroke: #1f77b4; stroke-width: 1.5"/>
    <path d="M 246.931761 164.197715 
L 246.931761 159.71249 
" clip-path="url(#p6e07999f5f)" style="fill: none; stroke: #1f77b4; stroke-width: 1.5"/>
    <path d="M 248.45358 157.063221 
L 248.45358 152.595397 
" clip-path="url(#p6e07999f5f)" style="fill: none; stroke: #1f77b4; stroke-width: 1.5"/>
    <path d="M 249.975398 163.393808 
L 249.975398 158.727862 
" clip-path="url(#p6e07999f5f)" style="fill: none; stroke: #1f77b4; stroke-width: 1.5"/>
    <path d="M 251.497216 166.349332 
L 251.497216 161.598944 
" clip-path="url(#p6e07999f5f)" style="fill: none; stroke: #1f77b4; stroke-width: 1.5"/>
    <path d="M 253.019034 161.92959 
L 253.019034 157.53294 
" clip-path="url(#p6e07999f5f)" style="fill: none; stroke: #1f77b4; stroke-width: 1.5"/>
    <path d="M 254.540852 162.179033 
L 254.540852 157.828987 
" clip-path="url(#p6e07999f5f)" style="fill: none; stroke: #1f77b4; stroke-width: 1.5"/>
    <path d="M 256.06267 163.906769 
L 256.06267 159.117538 
" clip-path="url(#p6e07999f5f)" style="fill: none; stroke: #1f77b4; stroke-width: 1.5"/>
    <path d="M 257.584489 161.929405 
L 257.584489 157.208393 
" clip-path="url(#p6e07999f5f)" style="fill: none; stroke: #1f77b4; stroke-width: 1.5"/>
    <path d="M 259.106307 163.075094 
L 259.106307 158.239289 
" clip-path="url(#p6e07999f5f)" style="fill: none; stroke: #1f77b4; stroke-width: 1.5"/>
    <path d="M 260.628125 167.124633 
L 260.628125 162.240434 
" clip-path="url(#p6e07999f5f)" style="fill: none; stroke: #1f77b4; stroke-width: 1.5"/>
    <path d="M 262.149943 163.385035 
L 262.149943 158.581594 
" clip-path="url(#p6e07999f5f)" style="fill: none; stroke: #1f77b4; stroke-width: 1.5"/>
    <path d="M 263.671761 163.05777 
L 263.671761 158.128381 
" clip-path="url(#p6e07999f5f)" style="fill: none; stroke: #1f77b4; stroke-width: 1.5"/>
    <path d="M 265.19358 165.818547 
L 265.19358 160.635367 
" clip-path="url(#p6e07999f5f)" style="fill: none; stroke: #1f77b4; stroke-width: 1.5"/>
    <path d="M 266.715398 158.985018 
L 266.715398 153.889993 
" clip-path="url(#p6e07999f5f)" style="fill: none; stroke: #1f77b4; stroke-width: 1.5"/>
    <path d="M 268.237216 162.453221 
L 268.237216 157.405495 
" clip-path="url(#p6e07999f5f)" style="fill: none; stroke: #1f77b4; stroke-width: 1.5"/>
    <path d="M 269.759034 158.422404 
L 269.759034 153.339376 
" clip-path="url(#p6e07999f5f)" style="fill: none; stroke: #1f77b4; stroke-width: 1.5"/>
    <path d="M 271.280852 157.003266 
L 271.280852 151.996357 
" clip-path="url(#p6e07999f5f)" style="fill: none; stroke: #1f77b4; stroke-width: 1.5"/>
    <path d="M 272.80267 164.919414 
L 272.80267 159.643693 
" clip-path="url(#p6e07999f5f)" style="fill: none; stroke: #1f77b4; stroke-width: 1.5"/>
    <path d="M 274.324489 160.148942 
L 274.324489 154.706869 
" clip-path="url(#p6e07999f5f)" style="fill: none; stroke: #1f77b4; stroke-width: 1.5"/>
    <path d="M 275.846307 166.256598 
L 275.846307 160.966583 
" clip-path="url(#p6e07999f5f)" style="fill: none; stroke: #1f77b4; stroke-width: 1.5"/>
    <path d="M 277.368125 157.714692 
L 277.368125 152.253384 
" clip-path="url(#p6e07999f5f)" style="fill: none; stroke: #1f77b4; stroke-width: 1.5"/>
    <path d="M 278.889943 162.322965 
L 278.889943 156.489164 
" clip-path="url(#p6e07999f5f)" style="fill: none; stroke: #1f77b4; stroke-width: 1.5"/>
    <path d="M 280.411761 164.020098 
L 280.411761 158.293691 
" clip-path="url(#p6e07999f5f)" style="fill: none; stroke: #1f77b4; stroke-width: 1.5"/>
    <path d="M 281.93358 158.589835 
L 281.93358 153.23702 
" clip-path="url(#p6e07999f5f)" style="fill: none; stroke: #1f77b4; stroke-width: 1.5"/>
    <path d="M 283.455398 155.84392 
L 283.455398 150.305303 
" clip-path="url(#p6e07999f5f)" style="fill: none; stroke: #1f77b4; stroke-width: 1.5"/>
    <path d="M 284.977216 168.195135 
L 284.977216 162.43483 
" clip-path="url(#p6e07999f5f)" style="fill: none; stroke: #1f77b4; stroke-width: 1.5"/>
    <path d="M 286.499034 163.787153 
L 286.499034 158.200879 
" clip-path="url(#p6e07999f5f)" style="fill: none; stroke: #1f77b4; stroke-width: 1.5"/>
    <path d="M 288.020852 162.639402 
L 288.020852 156.773826 
" clip-path="url(#p6e07999f5f)" style="fill: none; stroke: #1f77b4; stroke-width: 1.5"/>
    <path d="M 289.54267 159.412528 
L 289.54267 153.960544 
" clip-path="url(#p6e07999f5f)" style="fill: none; stroke: #1f77b4; stroke-width: 1.5"/>
    <path d="M 291.064489 164.629717 
L 291.064489 159.380547 
" clip-path="url(#p6e07999f5f)" style="fill: none; stroke: #1f77b4; stroke-width: 1.5"/>
    <path d="M 292.586307 161.060728 
L 292.586307 155.458027 
" clip-path="url(#p6e07999f5f)" style="fill: none; stroke: #1f77b4; stroke-width: 1.5"/>
    <path d="M 294.108125 160.396563 
L 294.108125 154.861673 
" clip-path="url(#p6e07999f5f)" style="fill: none; stroke: #1f77b4; stroke-width: 1.5"/>
    <path d="M 295.629943 162.942147 
L 295.629943 157.447804 
" clip-path="url(#p6e07999f5f)" style="fill: none; stroke: #1f77b4; stroke-width: 1.5"/>
    <path d="M 297.151761 162.606914 
L 297.151761 156.782073 
" clip-path="url(#p6e07999f5f)" style="fill: none; stroke: #1f77b4; stroke-width: 1.5"/>
    <path d="M 298.67358 163.361936 
L 298.67358 157.708838 
" clip-path="url(#p6e07999f5f)" style="fill: none; stroke: #1f77b4; stroke-width: 1.5"/>
    <path d="M 300.195398 165.223614 
L 300.195398 159.626004 
" clip-path="url(#p6e07999f5f)" style="fill: none; stroke: #1f77b4; stroke-width: 1.5"/>
    <path d="M 301.717216 160.957559 
L 301.717216 155.275315 
" clip-path="url(#p6e07999f5f)" style="fill: none; stroke: #1f77b4; stroke-width: 1.5"/>
    <path d="M 303.239034 164.730567 
L 303.239034 159.012226 
" clip-path="url(#p6e07999f5f)" style="fill: none; stroke: #1f77b4; stroke-width: 1.5"/>
    <path d="M 304.760852 167.342025 
L 304.760852 161.787046 
" clip-path="url(#p6e07999f5f)" style="fill: none; stroke: #1f77b4; stroke-width: 1.5"/>
    <path d="M 306.28267 171.731597 
L 306.28267 165.486675 
" clip-path="url(#p6e07999f5f)" style="fill: none; stroke: #1f77b4; stroke-width: 1.5"/>
    <path d="M 307.804489 162.809222 
L 307.804489 156.816309 
" clip-path="url(#p6e07999f5f)" style="fill: none; stroke: #1f77b4; stroke-width: 1.5"/>
    <path d="M 309.326307 165.611377 
L 309.326307 159.495869 
" clip-path="url(#p6e07999f5f)" style="fill: none; stroke: #1f77b4; stroke-width: 1.5"/>
    <path d="M 310.848125 161.448933 
L 310.848125 155.192596 
" clip-path="url(#p6e07999f5f)" style="fill: none; stroke: #1f77b4; stroke-width: 1.5"/>
    <path d="M 312.369943 167.919994 
L 312.369943 161.577086 
" clip-path="url(#p6e07999f5f)" style="fill: none; stroke: #1f77b4; stroke-width: 1.5"/>
    <path d="M 313.891761 160.923566 
L 313.891761 154.520209 
" clip-path="url(#p6e07999f5f)" style="fill: none; stroke: #1f77b4; stroke-width: 1.5"/>
    <path d="M 315.41358 168.802354 
L 315.41358 162.23705 
" clip-path="url(#p6e07999f5f)" style="fill: none; stroke: #1f77b4; stroke-width: 1.5"/>
    <path d="M 316.935398 161.741457 
L 316.935398 154.934523 
" clip-path="url(#p6e07999f5f)" style="fill: none; stroke: #1f77b4; stroke-width: 1.5"/>
    <path d="M 318.457216 161.717061 
L 318.457216 154.645911 
" clip-path="url(#p6e07999f5f)" style="fill: none; stroke: #1f77b4; stroke-width: 1.5"/>
    <path d="M 319.979034 166.389833 
L 319.979034 159.09975 
" clip-path="url(#p6e07999f5f)" style="fill: none; stroke: #1f77b4; stroke-width: 1.5"/>
    <path d="M 321.500852 161.851277 
L 321.500852 154.336766 
" clip-path="url(#p6e07999f5f)" style="fill: none; stroke: #1f77b4; stroke-width: 1.5"/>
    <path d="M 323.02267 157.955934 
L 323.02267 150.39473 
" clip-path="url(#p6e07999f5f)" style="fill: none; stroke: #1f77b4; stroke-width: 1.5"/>
    <path d="M 324.544489 162.763509 
L 324.544489 155.199587 
" clip-path="url(#p6e07999f5f)" style="fill: none; stroke: #1f77b4; stroke-width: 1.5"/>
    <path d="M 326.066307 167.726825 
L 326.066307 159.347889 
" clip-path="url(#p6e07999f5f)" style="fill: none; stroke: #1f77b4; stroke-width: 1.5"/>
    <path d="M 327.588125 165.869351 
L 327.588125 157.262945 
" clip-path="url(#p6e07999f5f)" style="fill: none; stroke: #1f77b4; stroke-width: 1.5"/>
    <path d="M 329.109943 162.122437 
L 329.109943 153.908965 
" clip-path="url(#p6e07999f5f)" style="fill: none; stroke: #1f77b4; stroke-width: 1.5"/>
    <path d="M 330.631761 168.67249 
L 330.631761 160.185592 
" clip-path="url(#p6e07999f5f)" style="fill: none; stroke: #1f77b4; stroke-width: 1.5"/>
    <path d="M 332.15358 156.801221 
L 332.15358 148.266088 
" clip-path="url(#p6e07999f5f)" style="fill: none; stroke: #1f77b4; stroke-width: 1.5"/>
    <path d="M 333.675398 165.926652 
L 333.675398 156.329651 
" clip-path="url(#p6e07999f5f)" style="fill: none; stroke: #1f77b4; stroke-width: 1.5"/>
    <path d="M 335.197216 162.636373 
L 335.197216 153.526602 
" clip-path="url(#p6e07999f5f)" style="fill: none; stroke: #1f77b4; stroke-width: 1.5"/>
    <path d="M 336.719034 165.912714 
L 336.719034 156.120197 
" clip-path="url(#p6e07999f5f)" style="fill: none; stroke: #1f77b4; stroke-width: 1.5"/>
    <path d="M 338.240852 163.00564 
L 338.240852 152.746484 
" clip-path="url(#p6e07999f5f)" style="fill: none; stroke: #1f77b4; stroke-width: 1.5"/>
    <path d="M 339.76267 165.799773 
L 339.76267 155.469181 
" clip-path="url(#p6e07999f5f)" style="fill: none; stroke: #1f77b4; stroke-width: 1.5"/>
    <path d="M 341.284489 165.243254 
L 341.284489 154.665502 
" clip-path="url(#p6e07999f5f)" style="fill: none; stroke: #1f77b4; stroke-width: 1.5"/>
    <path d="M 342.806307 173.256598 
L 342.806307 162.507477 
" clip-path="url(#p6e07999f5f)" style="fill: none; stroke: #1f77b4; stroke-width: 1.5"/>
    <path d="M 344.328125 160.53255 
L 344.328125 149.008826 
" clip-path="url(#p6e07999f5f)" style="fill: none; stroke: #1f77b4; stroke-width: 1.5"/>
    <path d="M 345.849943 173.749757 
L 345.849943 162.787309 
" clip-path="url(#p6e07999f5f)" style="fill: none; stroke: #1f77b4; stroke-width: 1.5"/>
    <path d="M 347.371761 155.387803 
L 347.371761 144.254172 
" clip-path="url(#p6e07999f5f)" style="fill: none; stroke: #1f77b4; stroke-width: 1.5"/>
    <path d="M 348.89358 163.695609 
L 348.89358 151.256867 
" clip-path="url(#p6e07999f5f)" style="fill: none; stroke: #1f77b4; stroke-width: 1.5"/>
    <path d="M 350.415398 156.318357 
L 350.415398 143.522574 
" clip-path="url(#p6e07999f5f)" style="fill: none; stroke: #1f77b4; stroke-width: 1.5"/>
    <path d="M 351.937216 165.410713 
L 351.937216 151.916043 
" clip-path="url(#p6e07999f5f)" style="fill: none; stroke: #1f77b4; stroke-width: 1.5"/>
    <path d="M 353.459034 172.819558 
L 353.459034 161.988551 
" clip-path="url(#p6e07999f5f)" style="fill: none; stroke: #1f77b4; stroke-width: 1.5"/>
    <path d="M 354.980852 173.521787 
L 354.980852 161.069615 
" clip-path="url(#p6e07999f5f)" style="fill: none; stroke: #1f77b4; stroke-width: 1.5"/>
    <path d="M 356.50267 160.014963 
L 356.50267 145.221051 
" clip-path="url(#p6e07999f5f)" style="fill: none; stroke: #1f77b4; stroke-width: 1.5"/>
    <path d="M 358.024489 169.201555 
L 358.024489 153.090578 
" clip-path="url(#p6e07999f5f)" style="fill: none; stroke: #1f77b4; stroke-width: 1.5"/>
    <path d="M 359.546307 183.792885 
L 359.546307 177.141726 
" clip-path="url(#p6e07999f5f)" style="fill: none; stroke: #1f77b4; stroke-width: 1.5"/>
    <path d="M 361.068125 151.177068 
L 361.068125 134.357879 
" clip-path="url(#p6e07999f5f)" style="fill: none; stroke: #1f77b4; stroke-width: 1.5"/>
    <path d="M 362.589943 179.343397 
L 362.589943 157.945995 
" clip-path="url(#p6e07999f5f)" style="fill: none; stroke: #1f77b4; stroke-width: 1.5"/>
    <path d="M 364.111761 188.152035 
L 364.111761 178.947974 
" clip-path="url(#p6e07999f5f)" style="fill: none; stroke: #1f77b4; stroke-width: 1.5"/>
    <path d="M 365.63358 182.717709 
L 365.63358 151.529434 
" clip-path="url(#p6e07999f5f)" style="fill: none; stroke: #1f77b4; stroke-width: 1.5"/>
    <path d="M 367.155398 180.347843 
L 367.155398 144.376881 
" clip-path="url(#p6e07999f5f)" style="fill: none; stroke: #1f77b4; stroke-width: 1.5"/>
    <path d="M 368.677216 179.968422 
L 368.677216 139.473178 
" clip-path="url(#p6e07999f5f)" style="fill: none; stroke: #1f77b4; stroke-width: 1.5"/>
    <path d="M 370.199034 188.350725 
L 370.199034 163.659781 
" clip-path="url(#p6e07999f5f)" style="fill: none; stroke: #1f77b4; stroke-width: 1.5"/>
   </g>
  </g>
 </g>
 <defs>
  <clipPath id="p6e07999f5f">
   <rect x="51.378125" y="10.999219" width="334.8" height="221.76"/>
  </clipPath>
 </defs>
</svg>