<?xml version="1.0" encoding="utf-8" standalone="no"?>
<!DOCTYPE svg PUBLIC "-//W3C//DTD SVG 1.1//EN"
  "http://www.w3.org/Graphics/SVG/1.1/DTD/svg11.dtd">
<svg xmlns:xlink="http://www.w3.org/1999/xlink" width="423.885903pt" height="280.132187pt" viewBox="0 0 423.885903 280.132187" xmlns="http://www.w3.org/2000/svg" version="1.1">
 <metadata>
  <rdf:RDF xmlns:dc="http://purl.org/dc/elements/1.1/" xmlns:cc="http://creativecommons.org/ns#" xmlns:rdf="http://www.w3.org/1999/02/22-rdf-syntax-ns#">
   <cc:Work>
    <dc:type rdf:resource="http://purl.org/dc/dcmitype/StillImage"/>
    <dc:date>2024-06-05T11:39:39.213023</dc:date>
    <dc:format>image/svg+xml</dc:format>
    <dc:creator>
     <cc:Agent>
      <dc:title>Matplotlib v3.9.0, https://matplotlib.org/</dc:title>
     </cc:Agent>
    </dc:creator>
   </cc:Work>
  </rdf:RDF>
 </metadata>
 <defs>
  <style type="text/css">*{stroke-linejoin: round; stroke-linecap: butt}</style>
 </defs>
 <g id="figure_1">
  <g id="patch_1">
   <path d="M 0 280.132187 
L 423.885903 280.132187 
L 423.885903 0 
L 0 0 
z
" style="fill: #ffffff"/>
  </g>
  <g id="axes_1">
   <g id="patch_2">
    <path d="M 45.478125 241.6525 
L 402.979701 241.6525 
L 402.979701 7.2 
L 45.478125 7.2 
z
" style="fill: #ffffff"/>
   </g>
   <g id="matplotlib.axis_1">
    <g id="xtick_1">
     <g id="line2d_1">
      <defs>
       <path id="m52c83c7b89" d="M 0 0 
L 0 3.5 
" style="stroke: #000000; stroke-width: 0.8"/>
      </defs>
      <g>
       <use xlink:href="#m52c83c7b89" x="53.846053" y="241.6525" style="stroke: #000000; stroke-width: 0.8"/>
      </g>
     </g>
     <g id="text_1">
      <!-- 0.000 -->
      <g transform="translate(39.531991 256.250937) scale(0.1 -0.1)">
       <defs>
        <path id="DejaVuSans-30" d="M 2034 4250 
Q 1547 4250 1301 3770 
Q 1056 3291 1056 2328 
Q 1056 1369 1301 889 
Q 1547 409 2034 409 
Q 2525 409 2770 889 
Q 3016 1369 3016 2328 
Q 3016 3291 2770 3770 
Q 2525 4250 2034 4250 
z
M 2034 4750 
Q 2819 4750 3233 4129 
Q 3647 3509 3647 2328 
Q 3647 1150 3233 529 
Q 2819 -91 2034 -91 
Q 1250 -91 836 529 
Q 422 1150 422 2328 
Q 422 3509 836 4129 
Q 1250 4750 2034 4750 
z
" transform="scale(0.015625)"/>
        <path id="DejaVuSans-2e" d="M 684 794 
L 1344 794 
L 1344 0 
L 684 0 
L 684 794 
z
" transform="scale(0.015625)"/>
       </defs>
       <use xlink:href="#DejaVuSans-30"/>
       <use xlink:href="#DejaVuSans-2e" x="63.623047"/>
       <use xlink:href="#DejaVuSans-30" x="95.410156"/>
       <use xlink:href="#DejaVuSans-30" x="159.033203"/>
       <use xlink:href="#DejaVuSans-30" x="222.65625"/>
      </g>
     </g>
    </g>
    <g id="xtick_2">
     <g id="line2d_2">
      <g>
       <use xlink:href="#m52c83c7b89" x="97.411777" y="241.6525" style="stroke: #000000; stroke-width: 0.8"/>
      </g>
     </g>
     <g id="text_2">
      <!-- 0.025 -->
      <g transform="translate(83.097714 256.250937) scale(0.1 -0.1)">
       <defs>
        <path id="DejaVuSans-32" d="M 1228 531 
L 3431 531 
L 3431 0 
L 469 0 
L 469 531 
Q 828 903 1448 1529 
Q 2069 2156 2228 2338 
Q 2531 2678 2651 2914 
Q 2772 3150 2772 3378 
Q 2772 3750 2511 3984 
Q 2250 4219 1831 4219 
Q 1534 4219 1204 4116 
Q 875 4013 500 3803 
L 500 4441 
Q 881 4594 1212 4672 
Q 1544 4750 1819 4750 
Q 2544 4750 2975 4387 
Q 3406 4025 3406 3419 
Q 3406 3131 3298 2873 
Q 3191 2616 2906 2266 
Q 2828 2175 2409 1742 
Q 1991 1309 1228 531 
z
" transform="scale(0.015625)"/>
        <path id="DejaVuSans-35" d="M 691 4666 
L 3169 4666 
L 3169 4134 
L 1269 4134 
L 1269 2991 
Q 1406 3038 1543 3061 
Q 1681 3084 1819 3084 
Q 2600 3084 3056 2656 
Q 3513 2228 3513 1497 
Q 3513 744 3044 326 
Q 2575 -91 1722 -91 
Q 1428 -91 1123 -41 
Q 819 9 494 109 
L 494 744 
Q 775 591 1075 516 
Q 1375 441 1709 441 
Q 2250 441 2565 725 
Q 2881 1009 2881 1497 
Q 2881 1984 2565 2268 
Q 2250 2553 1709 2553 
Q 1456 2553 1204 2497 
Q 953 2441 691 2322 
L 691 4666 
z
" transform="scale(0.015625)"/>
       </defs>
       <use xlink:href="#DejaVuSans-30"/>
       <use xlink:href="#DejaVuSans-2e" x="63.623047"/>
       <use xlink:href="#DejaVuSans-30" x="95.410156"/>
       <use xlink:href="#DejaVuSans-32" x="159.033203"/>
       <use xlink:href="#DejaVuSans-35" x="222.65625"/>
      </g>
     </g>
    </g>
    <g id="xtick_3">
     <g id="line2d_3">
      <g>
       <use xlink:href="#m52c83c7b89" x="140.9775" y="241.6525" style="stroke: #000000; stroke-width: 0.8"/>
      </g>
     </g>
     <g id="text_3">
      <!-- 0.050 -->
      <g transform="translate(126.663438 256.250937) scale(0.1 -0.1)">
       <use xlink:href="#DejaVuSans-30"/>
       <use xlink:href="#DejaVuSans-2e" x="63.623047"/>
       <use xlink:href="#DejaVuSans-30" x="95.410156"/>
       <use xlink:href="#DejaVuSans-35" x="159.033203"/>
       <use xlink:href="#DejaVuSans-30" x="222.65625"/>
      </g>
     </g>
    </g>
    <g id="xtick_4">
     <g id="line2d_4">
      <g>
       <use xlink:href="#m52c83c7b89" x="184.543224" y="241.6525" style="stroke: #000000; stroke-width: 0.8"/>
      </g>
     </g>
     <g id="text_4">
      <!-- 0.075 -->
      <g transform="translate(170.229161 256.250937) scale(0.1 -0.1)">
       <defs>
        <path id="DejaVuSans-37" d="M 525 4666 
L 3525 4666 
L 3525 4397 
L 1831 0 
L 1172 0 
L 2766 4134 
L 525 4134 
L 525 4666 
z
" transform="scale(0.015625)"/>
       </defs>
       <use xlink:href="#DejaVuSans-30"/>
       <use xlink:href="#DejaVuSans-2e" x="63.623047"/>
       <use xlink:href="#DejaVuSans-30" x="95.410156"/>
       <use xlink:href="#DejaVuSans-37" x="159.033203"/>
       <use xlink:href="#DejaVuSans-35" x="222.65625"/>
      </g>
     </g>
    </g>
    <g id="xtick_5">
     <g id="line2d_5">
      <g>
       <use xlink:href="#m52c83c7b89" x="228.108947" y="241.6525" style="stroke: #000000; stroke-width: 0.8"/>
      </g>
     </g>
     <g id="text_5">
      <!-- 0.100 -->
      <g transform="translate(213.794885 256.250937) scale(0.1 -0.1)">
       <defs>
        <path id="DejaVuSans-31" d="M 794 531 
L 1825 531 
L 1825 4091 
L 703 3866 
L 703 4441 
L 1819 4666 
L 2450 4666 
L 2450 531 
L 3481 531 
L 3481 0 
L 794 0 
L 794 531 
z
" transform="scale(0.015625)"/>
       </defs>
       <use xlink:href="#DejaVuSans-30"/>
       <use xlink:href="#DejaVuSans-2e" x="63.623047"/>
       <use xlink:href="#DejaVuSans-31" x="95.410156"/>
       <use xlink:href="#DejaVuSans-30" x="159.033203"/>
       <use xlink:href="#DejaVuSans-30" x="222.65625"/>
      </g>
     </g>
    </g>
    <g id="xtick_6">
     <g id="line2d_6">
      <g>
       <use xlink:href="#m52c83c7b89" x="271.67467" y="241.6525" style="stroke: #000000; stroke-width: 0.8"/>
      </g>
     </g>
     <g id="text_6">
      <!-- 0.125 -->
      <g transform="translate(257.360608 256.250937) scale(0.1 -0.1)">
       <use xlink:href="#DejaVuSans-30"/>
       <use xlink:href="#DejaVuSans-2e" x="63.623047"/>
       <use xlink:href="#DejaVuSans-31" x="95.410156"/>
       <use xlink:href="#DejaVuSans-32" x="159.033203"/>
       <use xlink:href="#DejaVuSans-35" x="222.65625"/>
      </g>
     </g>
    </g>
    <g id="xtick_7">
     <g id="line2d_7">
      <g>
       <use xlink:href="#m52c83c7b89" x="315.240394" y="241.6525" style="stroke: #000000; stroke-width: 0.8"/>
      </g>
     </g>
     <g id="text_7">
      <!-- 0.150 -->
      <g transform="translate(300.926331 256.250937) scale(0.1 -0.1)">
       <use xlink:href="#DejaVuSans-30"/>
       <use xlink:href="#DejaVuSans-2e" x="63.623047"/>
       <use xlink:href="#DejaVuSans-31" x="95.410156"/>
       <use xlink:href="#DejaVuSans-35" x="159.033203"/>
       <use xlink:href="#DejaVuSans-30" x="222.65625"/>
      </g>
     </g>
    </g>
    <g id="xtick_8">
     <g id="line2d_8">
      <g>
       <use xlink:href="#m52c83c7b89" x="358.806117" y="241.6525" style="stroke: #000000; stroke-width: 0.8"/>
      </g>
     </g>
     <g id="text_8">
      <!-- 0.175 -->
      <g transform="translate(344.492055 256.250937) scale(0.1 -0.1)">
       <use xlink:href="#DejaVuSans-30"/>
       <use xlink:href="#DejaVuSans-2e" x="63.623047"/>
       <use xlink:href="#DejaVuSans-31" x="95.410156"/>
       <use xlink:href="#DejaVuSans-37" x="159.033203"/>
       <use xlink:href="#DejaVuSans-35" x="222.65625"/>
      </g>
     </g>
    </g>
    <g id="xtick_9">
     <g id="line2d_9">
      <g>
       <use xlink:href="#m52c83c7b89" x="402.371841" y="241.6525" style="stroke: #000000; stroke-width: 0.8"/>
      </g>
     </g>
     <g id="text_9">
      <!-- 0.200 -->
      <g transform="translate(388.057778 256.250937) scale(0.1 -0.1)">
       <use xlink:href="#DejaVuSans-30"/>
       <use xlink:href="#DejaVuSans-2e" x="63.623047"/>
       <use xlink:href="#DejaVuSans-32" x="95.410156"/>
       <use xlink:href="#DejaVuSans-30" x="159.033203"/>
       <use xlink:href="#DejaVuSans-30" x="222.65625"/>
      </g>
     </g>
    </g>
    <g id="text_10">
     <!-- Q [1/Å] -->
     <g transform="translate(206.516413 270.8525) scale(0.1 -0.1)">
      <defs>
       <path id="DejaVuSans-51" d="M 2522 4238 
Q 1834 4238 1429 3725 
Q 1025 3213 1025 2328 
Q 1025 1447 1429 934 
Q 1834 422 2522 422 
Q 3209 422 3611 934 
Q 4013 1447 4013 2328 
Q 4013 3213 3611 3725 
Q 3209 4238 2522 4238 
z
M 3406 84 
L 4238 -825 
L 3475 -825 
L 2784 -78 
Q 2681 -84 2626 -87 
Q 2572 -91 2522 -91 
Q 1538 -91 948 567 
Q 359 1225 359 2328 
Q 359 3434 948 4092 
Q 1538 4750 2522 4750 
Q 3503 4750 4090 4092 
Q 4678 3434 4678 2328 
Q 4678 1516 4351 937 
Q 4025 359 3406 84 
z
" transform="scale(0.015625)"/>
       <path id="DejaVuSans-20" transform="scale(0.015625)"/>
       <path id="DejaVuSans-5b" d="M 550 4863 
L 1875 4863 
L 1875 4416 
L 1125 4416 
L 1125 -397 
L 1875 -397 
L 1875 -844 
L 550 -844 
L 550 4863 
z
" transform="scale(0.015625)"/>
       <path id="DejaVuSans-2f" d="M 1625 4666 
L 2156 4666 
L 531 -594 
L 0 -594 
L 1625 4666 
z
" transform="scale(0.015625)"/>
       <path id="DejaVuSans-c5" d="M 2663 5081 
Q 2663 5278 2523 5417 
Q 2384 5556 2188 5556 
Q 1988 5556 1852 5420 
Q 1716 5284 1716 5081 
Q 1716 4884 1853 4746 
Q 1991 4609 2188 4609 
Q 2384 4609 2523 4746 
Q 2663 4884 2663 5081 
z
M 2188 4044 
L 1338 1722 
L 3041 1722 
L 2188 4044 
z
M 1716 4366 
Q 1525 4494 1428 4673 
Q 1331 4853 1331 5081 
Q 1331 5441 1579 5691 
Q 1828 5941 2188 5941 
Q 2544 5941 2795 5689 
Q 3047 5438 3047 5081 
Q 3047 4863 2948 4678 
Q 2850 4494 2663 4366 
L 4325 0 
L 3669 0 
L 3244 1197 
L 1141 1197 
L 716 0 
L 50 0 
L 1716 4366 
z
" transform="scale(0.015625)"/>
       <path id="DejaVuSans-5d" d="M 1947 4863 
L 1947 -844 
L 622 -844 
L 622 -397 
L 1369 -397 
L 1369 4416 
L 622 4416 
L 622 4863 
L 1947 4863 
z
" transform="scale(0.015625)"/>
      </defs>
      <use xlink:href="#DejaVuSans-51"/>
      <use xlink:href="#DejaVuSans-20" x="78.710938"/>
      <use xlink:href="#DejaVuSans-5b" x="110.498047"/>
      <use xlink:href="#DejaVuSans-31" x="149.511719"/>
      <use xlink:href="#DejaVuSans-2f" x="213.134766"/>
      <use xlink:href="#DejaVuSans-c5" x="246.826172"/>
      <use xlink:href="#DejaVuSans-5d" x="315.234375"/>
     </g>
    </g>
   </g>
   <g id="matplotlib.axis_2">
    <g id="ytick_1">
     <g id="line2d_10">
      <defs>
       <path id="m47b25cb09f" d="M 0 0 
L -3.5 0 
" style="stroke: #000000; stroke-width: 0.8"/>
      </defs>
      <g>
       <use xlink:href="#m47b25cb09f" x="45.478125" y="241.6525" style="stroke: #000000; stroke-width: 0.8"/>
      </g>
     </g>
     <g id="text_11">
      <!-- $\mathdefault{10^{0}}$ -->
      <g transform="translate(20.878125 245.451719) scale(0.1 -0.1)">
       <use xlink:href="#DejaVuSans-31" transform="translate(0 0.765625)"/>
       <use xlink:href="#DejaVuSans-30" transform="translate(63.623047 0.765625)"/>
       <use xlink:href="#DejaVuSans-30" transform="translate(128.203125 39.046875) scale(0.7)"/>
      </g>
     </g>
    </g>
    <g id="ytick_2">
     <g id="line2d_11">
      <g>
       <use xlink:href="#m47b25cb09f" x="45.478125" y="181.156759" style="stroke: #000000; stroke-width: 0.8"/>
      </g>
     </g>
     <g id="text_12">
      <!-- $\mathdefault{10^{1}}$ -->
      <g transform="translate(20.878125 184.955977) scale(0.1 -0.1)">
       <use xlink:href="#DejaVuSans-31" transform="translate(0 0.684375)"/>
       <use xlink:href="#DejaVuSans-30" transform="translate(63.623047 0.684375)"/>
       <use xlink:href="#DejaVuSans-31" transform="translate(128.203125 38.965625) scale(0.7)"/>
      </g>
     </g>
    </g>
    <g id="ytick_3">
     <g id="line2d_12">
      <g>
       <use xlink:href="#m47b25cb09f" x="45.478125" y="120.661017" style="stroke: #000000; stroke-width: 0.8"/>
      </g>
     </g>
     <g id="text_13">
      <!-- $\mathdefault{10^{2}}$ -->
      <g transform="translate(20.878125 124.460236) scale(0.1 -0.1)">
       <use xlink:href="#DejaVuSans-31" transform="translate(0 0.765625)"/>
       <use xlink:href="#DejaVuSans-30" transform="translate(63.623047 0.765625)"/>
       <use xlink:href="#DejaVuSans-32" transform="translate(128.203125 39.046875) scale(0.7)"/>
      </g>
     </g>
    </g>
    <g id="ytick_4">
     <g id="line2d_13">
      <g>
       <use xlink:href="#m47b25cb09f" x="45.478125" y="60.165276" style="stroke: #000000; stroke-width: 0.8"/>
      </g>
     </g>
     <g id="text_14">
      <!-- $\mathdefault{10^{3}}$ -->
      <g transform="translate(20.878125 63.964495) scale(0.1 -0.1)">
       <defs>
        <path id="DejaVuSans-33" d="M 2597 2516 
Q 3050 2419 3304 2112 
Q 3559 1806 3559 1356 
Q 3559 666 3084 287 
Q 2609 -91 1734 -91 
Q 1441 -91 1130 -33 
Q 819 25 488 141 
L 488 750 
Q 750 597 1062 519 
Q 1375 441 1716 441 
Q 2309 441 2620 675 
Q 2931 909 2931 1356 
Q 2931 1769 2642 2001 
Q 2353 2234 1838 2234 
L 1294 2234 
L 1294 2753 
L 1863 2753 
Q 2328 2753 2575 2939 
Q 2822 3125 2822 3475 
Q 2822 3834 2567 4026 
Q 2313 4219 1838 4219 
Q 1578 4219 1281 4162 
Q 984 4106 628 3988 
L 628 4550 
Q 988 4650 1302 4700 
Q 1616 4750 1894 4750 
Q 2613 4750 3031 4423 
Q 3450 4097 3450 3541 
Q 3450 3153 3228 2886 
Q 3006 2619 2597 2516 
z
" transform="scale(0.015625)"/>
       </defs>
       <use xlink:href="#DejaVuSans-31" transform="translate(0 0.765625)"/>
       <use xlink:href="#DejaVuSans-30" transform="translate(63.623047 0.765625)"/>
       <use xlink:href="#DejaVuSans-33" transform="translate(128.203125 39.046875) scale(0.7)"/>
      </g>
     </g>
    </g>
    <g id="ytick_5">
     <g id="line2d_14">
      <defs>
       <path id="m60ccb8e764" d="M 0 0 
L -2 0 
" style="stroke: #000000; stroke-width: 0.6"/>
      </defs>
      <g>
       <use xlink:href="#m60ccb8e764" x="45.478125" y="223.441467" style="stroke: #000000; stroke-width: 0.6"/>
      </g>
     </g>
    </g>
    <g id="ytick_6">
     <g id="line2d_15">
      <g>
       <use xlink:href="#m60ccb8e764" x="45.478125" y="212.788696" style="stroke: #000000; stroke-width: 0.6"/>
      </g>
     </g>
    </g>
    <g id="ytick_7">
     <g id="line2d_16">
      <g>
       <use xlink:href="#m60ccb8e764" x="45.478125" y="205.230434" style="stroke: #000000; stroke-width: 0.6"/>
      </g>
     </g>
    </g>
    <g id="ytick_8">
     <g id="line2d_17">
      <g>
       <use xlink:href="#m60ccb8e764" x="45.478125" y="199.367791" style="stroke: #000000; stroke-width: 0.6"/>
      </g>
     </g>
    </g>
    <g id="ytick_9">
     <g id="line2d_18">
      <g>
       <use xlink:href="#m60ccb8e764" x="45.478125" y="194.577663" style="stroke: #000000; stroke-width: 0.6"/>
      </g>
     </g>
    </g>
    <g id="ytick_10">
     <g id="line2d_19">
      <g>
       <use xlink:href="#m60ccb8e764" x="45.478125" y="190.527668" style="stroke: #000000; stroke-width: 0.6"/>
      </g>
     </g>
    </g>
    <g id="ytick_11">
     <g id="line2d_20">
      <g>
       <use xlink:href="#m60ccb8e764" x="45.478125" y="187.019402" style="stroke: #000000; stroke-width: 0.6"/>
      </g>
     </g>
    </g>
    <g id="ytick_12">
     <g id="line2d_21">
      <g>
       <use xlink:href="#m60ccb8e764" x="45.478125" y="183.924892" style="stroke: #000000; stroke-width: 0.6"/>
      </g>
     </g>
    </g>
    <g id="ytick_13">
     <g id="line2d_22">
      <g>
       <use xlink:href="#m60ccb8e764" x="45.478125" y="162.945726" style="stroke: #000000; stroke-width: 0.6"/>
      </g>
     </g>
    </g>
    <g id="ytick_14">
     <g id="line2d_23">
      <g>
       <use xlink:href="#m60ccb8e764" x="45.478125" y="152.292955" style="stroke: #000000; stroke-width: 0.6"/>
      </g>
     </g>
    </g>
    <g id="ytick_15">
     <g id="line2d_24">
      <g>
       <use xlink:href="#m60ccb8e764" x="45.478125" y="144.734693" style="stroke: #000000; stroke-width: 0.6"/>
      </g>
     </g>
    </g>
    <g id="ytick_16">
     <g id="line2d_25">
      <g>
       <use xlink:href="#m60ccb8e764" x="45.478125" y="138.87205" style="stroke: #000000; stroke-width: 0.6"/>
      </g>
     </g>
    </g>
    <g id="ytick_17">
     <g id="line2d_26">
      <g>
       <use xlink:href="#m60ccb8e764" x="45.478125" y="134.081922" style="stroke: #000000; stroke-width: 0.6"/>
      </g>
     </g>
    </g>
    <g id="ytick_18">
     <g id="line2d_27">
      <g>
       <use xlink:href="#m60ccb8e764" x="45.478125" y="130.031926" style="stroke: #000000; stroke-width: 0.6"/>
      </g>
     </g>
    </g>
    <g id="ytick_19">
     <g id="line2d_28">
      <g>
       <use xlink:href="#m60ccb8e764" x="45.478125" y="126.52366" style="stroke: #000000; stroke-width: 0.6"/>
      </g>
     </g>
    </g>
    <g id="ytick_20">
     <g id="line2d_29">
      <g>
       <use xlink:href="#m60ccb8e764" x="45.478125" y="123.429151" style="stroke: #000000; stroke-width: 0.6"/>
      </g>
     </g>
    </g>
    <g id="ytick_21">
     <g id="line2d_30">
      <g>
       <use xlink:href="#m60ccb8e764" x="45.478125" y="102.449984" style="stroke: #000000; stroke-width: 0.6"/>
      </g>
     </g>
    </g>
    <g id="ytick_22">
     <g id="line2d_31">
      <g>
       <use xlink:href="#m60ccb8e764" x="45.478125" y="91.797213" style="stroke: #000000; stroke-width: 0.6"/>
      </g>
     </g>
    </g>
    <g id="ytick_23">
     <g id="line2d_32">
      <g>
       <use xlink:href="#m60ccb8e764" x="45.478125" y="84.238952" style="stroke: #000000; stroke-width: 0.6"/>
      </g>
     </g>
    </g>
    <g id="ytick_24">
     <g id="line2d_33">
      <g>
       <use xlink:href="#m60ccb8e764" x="45.478125" y="78.376309" style="stroke: #000000; stroke-width: 0.6"/>
      </g>
     </g>
    </g>
    <g id="ytick_25">
     <g id="line2d_34">
      <g>
       <use xlink:href="#m60ccb8e764" x="45.478125" y="73.58618" style="stroke: #000000; stroke-width: 0.6"/>
      </g>
     </g>
    </g>
    <g id="ytick_26">
     <g id="line2d_35">
      <g>
       <use xlink:href="#m60ccb8e764" x="45.478125" y="69.536185" style="stroke: #000000; stroke-width: 0.6"/>
      </g>
     </g>
    </g>
    <g id="ytick_27">
     <g id="line2d_36">
      <g>
       <use xlink:href="#m60ccb8e764" x="45.478125" y="66.027919" style="stroke: #000000; stroke-width: 0.6"/>
      </g>
     </g>
    </g>
    <g id="ytick_28">
     <g id="line2d_37">
      <g>
       <use xlink:href="#m60ccb8e764" x="45.478125" y="62.933409" style="stroke: #000000; stroke-width: 0.6"/>
      </g>
     </g>
    </g>
    <g id="ytick_29">
     <g id="line2d_38">
      <g>
       <use xlink:href="#m60ccb8e764" x="45.478125" y="41.954243" style="stroke: #000000; stroke-width: 0.6"/>
      </g>
     </g>
    </g>
    <g id="ytick_30">
     <g id="line2d_39">
      <g>
       <use xlink:href="#m60ccb8e764" x="45.478125" y="31.301472" style="stroke: #000000; stroke-width: 0.6"/>
      </g>
     </g>
    </g>
    <g id="ytick_31">
     <g id="line2d_40">
      <g>
       <use xlink:href="#m60ccb8e764" x="45.478125" y="23.74321" style="stroke: #000000; stroke-width: 0.6"/>
      </g>
     </g>
    </g>
    <g id="ytick_32">
     <g id="line2d_41">
      <g>
       <use xlink:href="#m60ccb8e764" x="45.478125" y="17.880567" style="stroke: #000000; stroke-width: 0.6"/>
      </g>
     </g>
    </g>
    <g id="ytick_33">
     <g id="line2d_42">
      <g>
       <use xlink:href="#m60ccb8e764" x="45.478125" y="13.090439" style="stroke: #000000; stroke-width: 0.6"/>
      </g>
     </g>
    </g>
    <g id="ytick_34">
     <g id="line2d_43">
      <g>
       <use xlink:href="#m60ccb8e764" x="45.478125" y="9.040443" style="stroke: #000000; stroke-width: 0.6"/>
      </g>
     </g>
    </g>
    <g id="text_15">
     <!-- [counts] -->
     <g transform="translate(14.798438 145.03875) rotate(-90) scale(0.1 -0.1)">
      <defs>
       <path id="DejaVuSans-63" d="M 3122 3366 
L 3122 2828 
Q 2878 2963 2633 3030 
Q 2388 3097 2138 3097 
Q 1578 3097 1268 2742 
Q 959 2388 959 1747 
Q 959 1106 1268 751 
Q 1578 397 2138 397 
Q 2388 397 2633 464 
Q 2878 531 3122 666 
L 3122 134 
Q 2881 22 2623 -34 
Q 2366 -91 2075 -91 
Q 1284 -91 818 406 
Q 353 903 353 1747 
Q 353 2603 823 3093 
Q 1294 3584 2113 3584 
Q 2378 3584 2631 3529 
Q 2884 3475 3122 3366 
z
" transform="scale(0.015625)"/>
       <path id="DejaVuSans-6f" d="M 1959 3097 
Q 1497 3097 1228 2736 
Q 959 2375 959 1747 
Q 959 1119 1226 758 
Q 1494 397 1959 397 
Q 2419 397 2687 759 
Q 2956 1122 2956 1747 
Q 2956 2369 2687 2733 
Q 2419 3097 1959 3097 
z
M 1959 3584 
Q 2709 3584 3137 3096 
Q 3566 2609 3566 1747 
Q 3566 888 3137 398 
Q 2709 -91 1959 -91 
Q 1206 -91 779 398 
Q 353 888 353 1747 
Q 353 2609 779 3096 
Q 1206 3584 1959 3584 
z
" transform="scale(0.015625)"/>
       <path id="DejaVuSans-75" d="M 544 1381 
L 544 3500 
L 1119 3500 
L 1119 1403 
Q 1119 906 1312 657 
Q 1506 409 1894 409 
Q 2359 409 2629 706 
Q 2900 1003 2900 1516 
L 2900 3500 
L 3475 3500 
L 3475 0 
L 2900 0 
L 2900 538 
Q 2691 219 2414 64 
Q 2138 -91 1772 -91 
Q 1169 -91 856 284 
Q 544 659 544 1381 
z
M 1991 3584 
L 1991 3584 
z
" transform="scale(0.015625)"/>
       <path id="DejaVuSans-6e" d="M 3513 2113 
L 3513 0 
L 2938 0 
L 2938 2094 
Q 2938 2591 2744 2837 
Q 2550 3084 2163 3084 
Q 1697 3084 1428 2787 
Q 1159 2491 1159 1978 
L 1159 0 
L 581 0 
L 581 3500 
L 1159 3500 
L 1159 2956 
Q 1366 3272 1645 3428 
Q 1925 3584 2291 3584 
Q 2894 3584 3203 3211 
Q 3513 2838 3513 2113 
z
" transform="scale(0.015625)"/>
       <path id="DejaVuSans-74" d="M 1172 4494 
L 1172 3500 
L 2356 3500 
L 2356 3053 
L 1172 3053 
L 1172 1153 
Q 1172 725 1289 603 
Q 1406 481 1766 481 
L 2356 481 
L 2356 0 
L 1766 0 
Q 1100 0 847 248 
Q 594 497 594 1153 
L 594 3053 
L 172 3053 
L 172 3500 
L 594 3500 
L 594 4494 
L 1172 4494 
z
" transform="scale(0.015625)"/>
       <path id="DejaVuSans-73" d="M 2834 3397 
L 2834 2853 
Q 2591 2978 2328 3040 
Q 2066 3103 1784 3103 
Q 1356 3103 1142 2972 
Q 928 2841 928 2578 
Q 928 2378 1081 2264 
Q 1234 2150 1697 2047 
L 1894 2003 
Q 2506 1872 2764 1633 
Q 3022 1394 3022 966 
Q 3022 478 2636 193 
Q 2250 -91 1575 -91 
Q 1294 -91 989 -36 
Q 684 19 347 128 
L 347 722 
Q 666 556 975 473 
Q 1284 391 1588 391 
Q 1994 391 2212 530 
Q 2431 669 2431 922 
Q 2431 1156 2273 1281 
Q 2116 1406 1581 1522 
L 1381 1569 
Q 847 1681 609 1914 
Q 372 2147 372 2553 
Q 372 3047 722 3315 
Q 1072 3584 1716 3584 
Q 2034 3584 2315 3537 
Q 2597 3491 2834 3397 
z
" transform="scale(0.015625)"/>
      </defs>
      <use xlink:href="#DejaVuSans-5b"/>
      <use xlink:href="#DejaVuSans-63" x="39.013672"/>
      <use xlink:href="#DejaVuSans-6f" x="93.994141"/>
      <use xlink:href="#DejaVuSans-75" x="155.175781"/>
      <use xlink:href="#DejaVuSans-6e" x="218.554688"/>
      <use xlink:href="#DejaVuSans-74" x="281.933594"/>
      <use xlink:href="#DejaVuSans-73" x="321.142578"/>
      <use xlink:href="#DejaVuSans-5d" x="373.242188"/>
     </g>
    </g>
   </g>
   <g id="patch_3">
    <path d="M 45.478125 241.6525 
L 45.478125 7.2 
" style="fill: none; stroke: #000000; stroke-width: 0.8; stroke-linejoin: miter; stroke-linecap: square"/>
   </g>
   <g id="patch_4">
    <path d="M 402.979701 241.6525 
L 402.979701 7.2 
" style="fill: none; stroke: #000000; stroke-width: 0.8; stroke-linejoin: miter; stroke-linecap: square"/>
   </g>
   <g id="patch_5">
    <path d="M 45.478125 241.6525 
L 402.979701 241.6525 
" style="fill: none; stroke: #000000; stroke-width: 0.8; stroke-linejoin: miter; stroke-linecap: square"/>
   </g>
   <g id="patch_6">
    <path d="M 45.478125 7.2 
L 402.979701 7.2 
" style="fill: none; stroke: #000000; stroke-width: 0.8; stroke-linejoin: miter; stroke-linecap: square"/>
   </g>
   <g id="line2d_44">
    <path d="M 61.728197 54.42294 
L 63.353204 54.42294 
L 63.353204 26.280694 
L 64.978211 26.280694 
L 64.978211 23.300444 
L 66.603218 23.300444 
L 66.603218 25.408671 
L 68.228225 25.408671 
L 68.228225 25.050914 
L 69.853232 25.050914 
L 69.853232 25.250381 
L 71.47824 25.250381 
L 71.47824 26.332619 
L 73.103247 26.332619 
L 73.103247 28.699015 
L 74.728254 28.699015 
L 74.728254 27.605257 
L 76.353261 27.605257 
L 76.353261 29.069755 
L 77.978268 29.069755 
L 77.978268 31.869337 
L 79.603275 31.869337 
L 79.603275 32.918869 
L 81.228283 32.918869 
L 81.228283 34.064735 
L 82.85329 34.064735 
L 82.85329 32.398769 
L 84.478297 32.398769 
L 84.478297 35.932997 
L 87.728311 35.925936 
L 87.728311 40.192186 
L 89.353318 40.192186 
L 89.353318 40.077576 
L 90.978326 40.077576 
L 90.978326 42.843206 
L 92.603333 42.843206 
L 92.603333 45.352596 
L 94.22834 45.352596 
L 94.22834 49.121298 
L 95.853347 49.121298 
L 95.853347 54.237428 
L 97.478354 54.237428 
L 97.478354 59.89047 
L 99.103361 59.89047 
L 99.103361 68.955427 
L 100.728369 68.955427 
L 100.728369 78.859526 
L 102.353376 78.859526 
L 102.353376 88.047983 
L 103.978383 88.047983 
L 103.978383 88.801856 
L 105.60339 88.801856 
L 105.60339 98.49159 
L 107.228397 98.49159 
L 107.228397 96.405597 
L 108.853404 96.405597 
L 108.853404 102.778061 
L 110.478412 102.778061 
L 110.478412 100.217851 
L 112.103419 100.217851 
L 112.103419 93.517792 
L 113.728426 93.517792 
L 113.728426 94.888828 
L 115.353433 94.888828 
L 115.353433 93.595204 
L 116.97844 93.595204 
L 116.97844 98.57025 
L 118.603447 98.57025 
L 118.603447 100.510044 
L 120.228455 100.510044 
L 120.228455 105.355061 
L 121.853462 105.355061 
L 121.853462 109.519922 
L 123.478469 109.519922 
L 123.478469 121.111828 
L 125.103476 121.111828 
L 125.103476 119.830172 
L 126.728483 119.830172 
L 126.728483 124.770538 
L 128.35349 124.770538 
L 128.35349 133.673302 
L 129.978498 133.673302 
L 129.978498 140.590418 
L 131.603505 140.590418 
L 131.603505 147.434007 
L 133.228512 147.434007 
L 133.228512 152.623166 
L 134.853519 152.623166 
L 134.853519 157.827613 
L 136.478526 157.827613 
L 136.478526 166.15894 
L 138.103533 166.15894 
L 138.103533 161.829898 
L 139.728541 161.829898 
L 139.728541 163.870659 
L 141.353548 163.870659 
L 141.353548 164.104558 
L 142.978555 164.104558 
L 142.978555 167.336498 
L 144.603562 167.336498 
L 144.603562 156.338909 
L 146.228569 156.338909 
L 146.228569 156.913294 
L 147.853576 156.913294 
L 147.853576 156.220811 
L 149.478584 156.220811 
L 149.478584 147.64002 
L 151.103591 147.64002 
L 151.103591 146.817849 
L 152.728598 146.817849 
L 152.728598 145.130933 
L 154.353605 145.130933 
L 154.353605 147.747312 
L 155.978612 147.747312 
L 155.978612 143.641252 
L 157.603619 143.641252 
L 157.603619 141.911413 
L 159.228626 141.911413 
L 159.228626 138.933217 
L 162.478641 138.853725 
L 162.478641 141.29702 
L 164.103648 141.29702 
L 164.103648 139.262609 
L 165.728655 139.262609 
L 165.728655 133.93962 
L 167.353662 133.93962 
L 167.353662 140.972661 
L 170.603677 141.027659 
L 170.603677 140.200094 
L 172.228684 140.200094 
L 172.228684 135.901426 
L 173.853691 135.901426 
L 173.853691 141.16066 
L 175.478698 141.16066 
L 175.478698 152.869573 
L 177.103705 152.869573 
L 177.103705 150.974196 
L 178.728712 150.974196 
L 178.728712 152.610788 
L 180.35372 152.610788 
L 180.35372 152.242901 
L 181.978727 152.242901 
L 181.978727 157.134206 
L 183.603734 157.134206 
L 183.603734 159.552806 
L 185.228741 159.552806 
L 185.228741 159.698392 
L 186.853748 159.698392 
L 186.853748 162.504154 
L 188.478755 162.504154 
L 188.478755 165.841011 
L 190.103763 165.841011 
L 190.103763 160.973907 
L 191.72877 160.973907 
L 191.72877 162.243378 
L 193.353777 162.243378 
L 193.353777 167.543 
L 194.978784 167.543 
L 194.978784 167.690914 
L 196.603791 167.690914 
L 196.603791 166.84431 
L 198.228798 166.84431 
L 198.228798 165.574351 
L 199.853806 165.574351 
L 199.853806 166.989984 
L 201.478813 166.989984 
L 201.478813 169.65174 
L 203.10382 169.65174 
L 203.10382 176.652039 
L 204.728827 176.652039 
L 204.728827 177.161463 
L 206.353834 177.161463 
L 206.353834 169.93238 
L 207.978841 169.93238 
L 207.978841 166.173163 
L 209.603849 166.173163 
L 209.603849 170.990803 
L 211.228856 170.990803 
L 211.228856 167.709364 
L 212.853863 167.709364 
L 212.853863 168.860299 
L 214.47887 168.860299 
L 214.47887 173.660349 
L 216.103877 173.660349 
L 216.103877 161.025126 
L 217.728884 161.025126 
L 217.728884 165.543921 
L 219.353892 165.543921 
L 219.353892 161.811523 
L 220.978899 161.811523 
L 220.978899 159.470482 
L 222.603906 159.470482 
L 222.603906 167.98492 
L 224.228913 167.98492 
L 224.228913 163.206293 
L 225.85392 163.206293 
L 225.85392 159.07055 
L 227.478927 159.07055 
L 227.478927 164.018165 
L 229.103935 164.018165 
L 229.103935 158.795224 
L 230.728942 158.795224 
L 230.728942 156.963671 
L 232.353949 156.963671 
L 232.353949 160.211281 
L 233.978956 160.211281 
L 233.978956 172.892052 
L 235.603963 172.892052 
L 235.603963 165.192509 
L 237.22897 165.192509 
L 237.22897 164.012084 
L 238.853978 164.012084 
L 238.853978 158.247434 
L 240.478985 158.247434 
L 240.478985 165.387069 
L 242.103992 165.387069 
L 242.103992 170.985062 
L 243.728999 170.985062 
L 243.728999 168.392647 
L 245.354006 168.392647 
L 245.354006 170.717493 
L 246.979013 170.717493 
L 246.979013 170.261974 
L 250.229028 170.31128 
L 250.229028 168.833083 
L 251.854035 168.833083 
L 251.854035 166.992108 
L 253.479042 166.992108 
L 253.479042 178.385324 
L 255.104049 178.385324 
L 255.104049 174.456138 
L 256.729056 174.456138 
L 256.729056 164.94947 
L 258.354064 164.94947 
L 258.354064 172.393795 
L 259.979071 172.393795 
L 259.979071 177.140377 
L 261.604078 177.140377 
L 261.604078 169.567085 
L 263.229085 169.567085 
L 263.229085 171.149056 
L 264.854092 171.149056 
L 264.854092 173.314598 
L 266.479099 173.314598 
L 266.479099 164.932311 
L 268.104106 164.932311 
L 268.104106 166.637409 
L 269.729114 166.637409 
L 269.729114 172.110849 
L 271.354121 172.110849 
L 271.354121 168.319724 
L 272.979128 168.319724 
L 272.979128 168.716921 
L 274.604135 168.716921 
L 274.604135 171.312969 
L 276.229142 171.312969 
L 276.229142 170.392391 
L 277.854149 170.392391 
L 277.854149 171.468436 
L 279.479157 171.468436 
L 279.479157 168.240443 
L 281.104164 168.240443 
L 281.104164 165.583219 
L 282.729171 165.583219 
L 282.729171 162.219458 
L 284.354178 162.219458 
L 284.354178 172.222042 
L 285.979185 172.222042 
L 285.979185 178.364592 
L 287.604192 178.364592 
L 287.604192 171.725081 
L 289.2292 171.725081 
L 289.2292 170.011835 
L 290.854207 170.011835 
L 290.854207 167.291758 
L 292.479214 167.291758 
L 292.479214 159.311402 
L 294.104221 159.311402 
L 294.104221 173.343764 
L 295.729228 173.343764 
L 295.729228 169.407003 
L 297.354235 169.407003 
L 297.354235 170.626723 
L 298.979243 170.626723 
L 298.979243 169.211815 
L 300.60425 169.211815 
L 300.60425 165.05923 
L 302.229257 165.05923 
L 302.229257 162.726474 
L 303.854264 162.726474 
L 303.854264 164.074529 
L 305.479271 164.074529 
L 305.479271 170.878263 
L 307.104278 170.878263 
L 307.104278 170.221614 
L 308.729286 170.221614 
L 308.729286 179.598026 
L 310.354293 179.598026 
L 310.354293 169.987827 
L 311.9793 169.987827 
L 311.9793 173.457766 
L 313.604307 173.457766 
L 313.604307 169.061037 
L 315.229314 169.061037 
L 315.229314 169.600687 
L 316.854321 169.600687 
L 316.854321 168.014432 
L 318.479329 168.014432 
L 318.479329 172.20449 
L 320.104336 172.20449 
L 320.104336 161.166745 
L 321.729343 161.166745 
L 321.729343 186.451646 
L 323.35435 186.451646 
L 323.35435 164.611302 
L 324.979357 164.611302 
L 324.979357 170.58195 
L 326.604364 170.58195 
L 326.604364 170.824023 
L 328.229372 170.824023 
L 328.229372 178.840563 
L 329.854379 178.840563 
L 329.854379 179.763178 
L 331.479386 179.763178 
L 331.479386 174.344755 
L 333.104393 174.344755 
L 333.104393 177.334475 
L 334.7294 177.334475 
L 334.7294 188.345142 
L 336.354407 188.345142 
L 336.354407 185.459783 
L 337.979415 185.459783 
L 337.979415 199.237349 
L 339.604422 199.237349 
L 339.604422 184.510987 
L 341.229429 184.510987 
L 341.229429 191.032691 
L 342.854436 191.032691 
L 342.854436 179.022151 
L 344.479443 179.022151 
L 344.479443 196.121949 
L 346.10445 196.121949 
L 346.10445 191.87397 
L 347.729458 191.87397 
L 347.729458 205.762531 
L 349.354465 205.762531 
L 349.354465 184.969043 
L 350.979472 184.969043 
L 350.979472 193.574818 
L 352.604479 193.574818 
L 352.604479 185.928227 
L 354.229486 185.928227 
L 354.229486 207.669662 
L 355.854493 207.669662 
L 355.854493 199.333757 
L 357.479501 199.333757 
L 357.479501 189.124862 
L 359.104508 189.124862 
L 359.104508 187.106756 
L 360.729515 187.106756 
L 360.729515 216.005057 
L 362.354522 216.005057 
L 362.354522 201.664091 
L 363.979529 201.664091 
L 363.979529 188.371325 
L 365.604536 188.371325 
L 365.604536 172.826028 
L 367.229544 172.826028 
L 367.229544 193.659289 
L 368.854551 193.659289 
L 368.854551 221.759749 
L 370.479558 221.759749 
L 370.479558 207.837998 
L 372.104565 207.837998 
L 372.104565 189.690745 
L 373.729572 189.690745 
L 373.729572 209.780648 
L 375.354579 209.780648 
L 375.354579 243.131367 
L 376.979587 243.131367 
L 376.979587 259.577397 
L 378.604594 259.577397 
L 378.604594 268.766842 
L 380.229601 268.766842 
L 380.229601 216.337889 
L 381.854608 216.337889 
L 381.854608 270.212998 
L 383.479615 270.212998 
L 383.479615 217.398731 
L 385.104622 217.398731 
L 385.104622 281.132187 
L 385.104622 281.132187 
" clip-path="url(#p1c27f6d001)" style="fill: none; stroke: #1f77b4; stroke-width: 1.5; stroke-linecap: square"/>
   </g>
  </g>
 </g>
 <defs>
  <clipPath id="p1c27f6d001">
   <rect x="45.478125" y="7.2" width="357.501576" height="234.4525"/>
  </clipPath>
 </defs>
</svg>