<?xml version="1.0" encoding="utf-8" standalone="no"?>
<!DOCTYPE svg PUBLIC "-//W3C//DTD SVG 1.1//EN"
  "http://www.w3.org/Graphics/SVG/1.1/DTD/svg11.dtd">
<svg xmlns:xlink="http://www.w3.org/1999/xlink" width="393.378125pt" height="271.238906pt" viewBox="0 0 393.378125 271.238906" xmlns="http://www.w3.org/2000/svg" version="1.1">
 <metadata>
  <rdf:RDF xmlns:dc="http://purl.org/dc/elements/1.1/" xmlns:cc="http://creativecommons.org/ns#" xmlns:rdf="http://www.w3.org/1999/02/22-rdf-syntax-ns#">
   <cc:Work>
    <dc:type rdf:resource="http://purl.org/dc/dcmitype/StillImage"/>
    <dc:date>2025-06-12T13:12:06.523615</dc:date>
    <dc:format>image/svg+xml</dc:format>
    <dc:creator>
     <cc:Agent>
      <dc:title>Matplotlib v3.10.1, https://matplotlib.org/</dc:title>
     </cc:Agent>
    </dc:creator>
   </cc:Work>
  </rdf:RDF>
 </metadata>
 <defs>
  <style type="text/css">*{stroke-linejoin: round; stroke-linecap: butt}</style>
 </defs>
 <g id="figure_1">
  <g id="patch_1">
   <path d="M 0 271.238906 
L 393.378125 271.238906 
L 393.378125 0 
L 0 0 
z
" style="fill: #ffffff"/>
  </g>
  <g id="axes_1">
   <g id="patch_2">
    <path d="M 51.378125 232.759219 
L 386.178125 232.759219 
L 386.178125 10.999219 
L 51.378125 10.999219 
z
" style="fill: #ffffff"/>
   </g>
   <g id="matplotlib.axis_1">
    <g id="xtick_1">
     <g id="line2d_1">
      <defs>
       <path id="m5e722d7a9c" d="M 0 0 
L 0 3.5 
" style="stroke: #000000; stroke-width: 0.8"/>
      </defs>
      <g>
       <use xlink:href="#m5e722d7a9c" x="58.792111" y="232.759219" style="stroke: #000000; stroke-width: 0.8"/>
      </g>
     </g>
     <g id="text_1">
      <!-- 0.000 -->
      <g transform="translate(44.478049 247.357656) scale(0.1 -0.1)">
       <defs>
        <path id="DejaVuSans-30" d="M 2034 4250 
Q 1547 4250 1301 3770 
Q 1056 3291 1056 2328 
Q 1056 1369 1301 889 
Q 1547 409 2034 409 
Q 2525 409 2770 889 
Q 3016 1369 3016 2328 
Q 3016 3291 2770 3770 
Q 2525 4250 2034 4250 
z
M 2034 4750 
Q 2819 4750 3233 4129 
Q 3647 3509 3647 2328 
Q 3647 1150 3233 529 
Q 2819 -91 2034 -91 
Q 1250 -91 836 529 
Q 422 1150 422 2328 
Q 422 3509 836 4129 
Q 1250 4750 2034 4750 
z
" transform="scale(0.015625)"/>
        <path id="DejaVuSans-2e" d="M 684 794 
L 1344 794 
L 1344 0 
L 684 0 
L 684 794 
z
" transform="scale(0.015625)"/>
       </defs>
       <use xlink:href="#DejaVuSans-30"/>
       <use xlink:href="#DejaVuSans-2e" transform="translate(63.623047 0)"/>
       <use xlink:href="#DejaVuSans-30" transform="translate(95.410156 0)"/>
       <use xlink:href="#DejaVuSans-30" transform="translate(159.033203 0)"/>
       <use xlink:href="#DejaVuSans-30" transform="translate(222.65625 0)"/>
      </g>
     </g>
    </g>
    <g id="xtick_2">
     <g id="line2d_2">
      <g>
       <use xlink:href="#m5e722d7a9c" x="97.81309" y="232.759219" style="stroke: #000000; stroke-width: 0.8"/>
      </g>
     </g>
     <g id="text_2">
      <!-- 0.025 -->
      <g transform="translate(83.499028 247.357656) scale(0.1 -0.1)">
       <defs>
        <path id="DejaVuSans-32" d="M 1228 531 
L 3431 531 
L 3431 0 
L 469 0 
L 469 531 
Q 828 903 1448 1529 
Q 2069 2156 2228 2338 
Q 2531 2678 2651 2914 
Q 2772 3150 2772 3378 
Q 2772 3750 2511 3984 
Q 2250 4219 1831 4219 
Q 1534 4219 1204 4116 
Q 875 4013 500 3803 
L 500 4441 
Q 881 4594 1212 4672 
Q 1544 4750 1819 4750 
Q 2544 4750 2975 4387 
Q 3406 4025 3406 3419 
Q 3406 3131 3298 2873 
Q 3191 2616 2906 2266 
Q 2828 2175 2409 1742 
Q 1991 1309 1228 531 
z
" transform="scale(0.015625)"/>
        <path id="DejaVuSans-35" d="M 691 4666 
L 3169 4666 
L 3169 4134 
L 1269 4134 
L 1269 2991 
Q 1406 3038 1543 3061 
Q 1681 3084 1819 3084 
Q 2600 3084 3056 2656 
Q 3513 2228 3513 1497 
Q 3513 744 3044 326 
Q 2575 -91 1722 -91 
Q 1428 -91 1123 -41 
Q 819 9 494 109 
L 494 744 
Q 775 591 1075 516 
Q 1375 441 1709 441 
Q 2250 441 2565 725 
Q 2881 1009 2881 1497 
Q 2881 1984 2565 2268 
Q 2250 2553 1709 2553 
Q 1456 2553 1204 2497 
Q 953 2441 691 2322 
L 691 4666 
z
" transform="scale(0.015625)"/>
       </defs>
       <use xlink:href="#DejaVuSans-30"/>
       <use xlink:href="#DejaVuSans-2e" transform="translate(63.623047 0)"/>
       <use xlink:href="#DejaVuSans-30" transform="translate(95.410156 0)"/>
       <use xlink:href="#DejaVuSans-32" transform="translate(159.033203 0)"/>
       <use xlink:href="#DejaVuSans-35" transform="translate(222.65625 0)"/>
      </g>
     </g>
    </g>
    <g id="xtick_3">
     <g id="line2d_3">
      <g>
       <use xlink:href="#m5e722d7a9c" x="136.834069" y="232.759219" style="stroke: #000000; stroke-width: 0.8"/>
      </g>
     </g>
     <g id="text_3">
      <!-- 0.050 -->
      <g transform="translate(122.520007 247.357656) scale(0.1 -0.1)">
       <use xlink:href="#DejaVuSans-30"/>
       <use xlink:href="#DejaVuSans-2e" transform="translate(63.623047 0)"/>
       <use xlink:href="#DejaVuSans-30" transform="translate(95.410156 0)"/>
       <use xlink:href="#DejaVuSans-35" transform="translate(159.033203 0)"/>
       <use xlink:href="#DejaVuSans-30" transform="translate(222.65625 0)"/>
      </g>
     </g>
    </g>
    <g id="xtick_4">
     <g id="line2d_4">
      <g>
       <use xlink:href="#m5e722d7a9c" x="175.855048" y="232.759219" style="stroke: #000000; stroke-width: 0.8"/>
      </g>
     </g>
     <g id="text_4">
      <!-- 0.075 -->
      <g transform="translate(161.540986 247.357656) scale(0.1 -0.1)">
       <defs>
        <path id="DejaVuSans-37" d="M 525 4666 
L 3525 4666 
L 3525 4397 
L 1831 0 
L 1172 0 
L 2766 4134 
L 525 4134 
L 525 4666 
z
" transform="scale(0.015625)"/>
       </defs>
       <use xlink:href="#DejaVuSans-30"/>
       <use xlink:href="#DejaVuSans-2e" transform="translate(63.623047 0)"/>
       <use xlink:href="#DejaVuSans-30" transform="translate(95.410156 0)"/>
       <use xlink:href="#DejaVuSans-37" transform="translate(159.033203 0)"/>
       <use xlink:href="#DejaVuSans-35" transform="translate(222.65625 0)"/>
      </g>
     </g>
    </g>
    <g id="xtick_5">
     <g id="line2d_5">
      <g>
       <use xlink:href="#m5e722d7a9c" x="214.876027" y="232.759219" style="stroke: #000000; stroke-width: 0.8"/>
      </g>
     </g>
     <g id="text_5">
      <!-- 0.100 -->
      <g transform="translate(200.561965 247.357656) scale(0.1 -0.1)">
       <defs>
        <path id="DejaVuSans-31" d="M 794 531 
L 1825 531 
L 1825 4091 
L 703 3866 
L 703 4441 
L 1819 4666 
L 2450 4666 
L 2450 531 
L 3481 531 
L 3481 0 
L 794 0 
L 794 531 
z
" transform="scale(0.015625)"/>
       </defs>
       <use xlink:href="#DejaVuSans-30"/>
       <use xlink:href="#DejaVuSans-2e" transform="translate(63.623047 0)"/>
       <use xlink:href="#DejaVuSans-31" transform="translate(95.410156 0)"/>
       <use xlink:href="#DejaVuSans-30" transform="translate(159.033203 0)"/>
       <use xlink:href="#DejaVuSans-30" transform="translate(222.65625 0)"/>
      </g>
     </g>
    </g>
    <g id="xtick_6">
     <g id="line2d_6">
      <g>
       <use xlink:href="#m5e722d7a9c" x="253.897006" y="232.759219" style="stroke: #000000; stroke-width: 0.8"/>
      </g>
     </g>
     <g id="text_6">
      <!-- 0.125 -->
      <g transform="translate(239.582944 247.357656) scale(0.1 -0.1)">
       <use xlink:href="#DejaVuSans-30"/>
       <use xlink:href="#DejaVuSans-2e" transform="translate(63.623047 0)"/>
       <use xlink:href="#DejaVuSans-31" transform="translate(95.410156 0)"/>
       <use xlink:href="#DejaVuSans-32" transform="translate(159.033203 0)"/>
       <use xlink:href="#DejaVuSans-35" transform="translate(222.65625 0)"/>
      </g>
     </g>
    </g>
    <g id="xtick_7">
     <g id="line2d_7">
      <g>
       <use xlink:href="#m5e722d7a9c" x="292.917985" y="232.759219" style="stroke: #000000; stroke-width: 0.8"/>
      </g>
     </g>
     <g id="text_7">
      <!-- 0.150 -->
      <g transform="translate(278.603923 247.357656) scale(0.1 -0.1)">
       <use xlink:href="#DejaVuSans-30"/>
       <use xlink:href="#DejaVuSans-2e" transform="translate(63.623047 0)"/>
       <use xlink:href="#DejaVuSans-31" transform="translate(95.410156 0)"/>
       <use xlink:href="#DejaVuSans-35" transform="translate(159.033203 0)"/>
       <use xlink:href="#DejaVuSans-30" transform="translate(222.65625 0)"/>
      </g>
     </g>
    </g>
    <g id="xtick_8">
     <g id="line2d_8">
      <g>
       <use xlink:href="#m5e722d7a9c" x="331.938964" y="232.759219" style="stroke: #000000; stroke-width: 0.8"/>
      </g>
     </g>
     <g id="text_8">
      <!-- 0.175 -->
      <g transform="translate(317.624902 247.357656) scale(0.1 -0.1)">
       <use xlink:href="#DejaVuSans-30"/>
       <use xlink:href="#DejaVuSans-2e" transform="translate(63.623047 0)"/>
       <use xlink:href="#DejaVuSans-31" transform="translate(95.410156 0)"/>
       <use xlink:href="#DejaVuSans-37" transform="translate(159.033203 0)"/>
       <use xlink:href="#DejaVuSans-35" transform="translate(222.65625 0)"/>
      </g>
     </g>
    </g>
    <g id="xtick_9">
     <g id="line2d_9">
      <g>
       <use xlink:href="#m5e722d7a9c" x="370.959943" y="232.759219" style="stroke: #000000; stroke-width: 0.8"/>
      </g>
     </g>
     <g id="text_9">
      <!-- 0.200 -->
      <g transform="translate(356.645881 247.357656) scale(0.1 -0.1)">
       <use xlink:href="#DejaVuSans-30"/>
       <use xlink:href="#DejaVuSans-2e" transform="translate(63.623047 0)"/>
       <use xlink:href="#DejaVuSans-32" transform="translate(95.410156 0)"/>
       <use xlink:href="#DejaVuSans-30" transform="translate(159.033203 0)"/>
       <use xlink:href="#DejaVuSans-30" transform="translate(222.65625 0)"/>
      </g>
     </g>
    </g>
    <g id="text_10">
     <!-- Q [1/Å] -->
     <g transform="translate(201.065625 261.959219) scale(0.1 -0.1)">
      <defs>
       <path id="DejaVuSans-51" d="M 2522 4238 
Q 1834 4238 1429 3725 
Q 1025 3213 1025 2328 
Q 1025 1447 1429 934 
Q 1834 422 2522 422 
Q 3209 422 3611 934 
Q 4013 1447 4013 2328 
Q 4013 3213 3611 3725 
Q 3209 4238 2522 4238 
z
M 3406 84 
L 4238 -825 
L 3475 -825 
L 2784 -78 
Q 2681 -84 2626 -87 
Q 2572 -91 2522 -91 
Q 1538 -91 948 567 
Q 359 1225 359 2328 
Q 359 3434 948 4092 
Q 1538 4750 2522 4750 
Q 3503 4750 4090 4092 
Q 4678 3434 4678 2328 
Q 4678 1516 4351 937 
Q 4025 359 3406 84 
z
" transform="scale(0.015625)"/>
       <path id="DejaVuSans-20" transform="scale(0.015625)"/>
       <path id="DejaVuSans-5b" d="M 550 4863 
L 1875 4863 
L 1875 4416 
L 1125 4416 
L 1125 -397 
L 1875 -397 
L 1875 -844 
L 550 -844 
L 550 4863 
z
" transform="scale(0.015625)"/>
       <path id="DejaVuSans-2f" d="M 1625 4666 
L 2156 4666 
L 531 -594 
L 0 -594 
L 1625 4666 
z
" transform="scale(0.015625)"/>
       <path id="DejaVuSans-c5" d="M 2663 5081 
Q 2663 5278 2523 5417 
Q 2384 5556 2188 5556 
Q 1988 5556 1852 5420 
Q 1716 5284 1716 5081 
Q 1716 4884 1853 4746 
Q 1991 4609 2188 4609 
Q 2384 4609 2523 4746 
Q 2663 4884 2663 5081 
z
M 2188 4044 
L 1338 1722 
L 3041 1722 
L 2188 4044 
z
M 1716 4366 
Q 1525 4494 1428 4673 
Q 1331 4853 1331 5081 
Q 1331 5441 1579 5691 
Q 1828 5941 2188 5941 
Q 2544 5941 2795 5689 
Q 3047 5438 3047 5081 
Q 3047 4863 2948 4678 
Q 2850 4494 2663 4366 
L 4325 0 
L 3669 0 
L 3244 1197 
L 1141 1197 
L 716 0 
L 50 0 
L 1716 4366 
z
" transform="scale(0.015625)"/>
       <path id="DejaVuSans-5d" d="M 1947 4863 
L 1947 -844 
L 622 -844 
L 622 -397 
L 1369 -397 
L 1369 4416 
L 622 4416 
L 622 4863 
L 1947 4863 
z
" transform="scale(0.015625)"/>
      </defs>
      <use xlink:href="#DejaVuSans-51"/>
      <use xlink:href="#DejaVuSans-20" transform="translate(78.710938 0)"/>
      <use xlink:href="#DejaVuSans-5b" transform="translate(110.498047 0)"/>
      <use xlink:href="#DejaVuSans-31" transform="translate(149.511719 0)"/>
      <use xlink:href="#DejaVuSans-2f" transform="translate(213.134766 0)"/>
      <use xlink:href="#DejaVuSans-c5" transform="translate(246.826172 0)"/>
      <use xlink:href="#DejaVuSans-5d" transform="translate(315.234375 0)"/>
     </g>
    </g>
   </g>
   <g id="matplotlib.axis_2">
    <g id="ytick_1">
     <g id="line2d_10">
      <defs>
       <path id="m8c6d3d0981" d="M 0 0 
L -3.5 0 
" style="stroke: #000000; stroke-width: 0.8"/>
      </defs>
      <g>
       <use xlink:href="#m8c6d3d0981" x="51.378125" y="232.759219" style="stroke: #000000; stroke-width: 0.8"/>
      </g>
     </g>
     <g id="text_11">
      <!-- $\mathdefault{10^{-3}}$ -->
      <g transform="translate(20.878125 236.558437) scale(0.1 -0.1)">
       <defs>
        <path id="DejaVuSans-2212" d="M 678 2272 
L 4684 2272 
L 4684 1741 
L 678 1741 
L 678 2272 
z
" transform="scale(0.015625)"/>
        <path id="DejaVuSans-33" d="M 2597 2516 
Q 3050 2419 3304 2112 
Q 3559 1806 3559 1356 
Q 3559 666 3084 287 
Q 2609 -91 1734 -91 
Q 1441 -91 1130 -33 
Q 819 25 488 141 
L 488 750 
Q 750 597 1062 519 
Q 1375 441 1716 441 
Q 2309 441 2620 675 
Q 2931 909 2931 1356 
Q 2931 1769 2642 2001 
Q 2353 2234 1838 2234 
L 1294 2234 
L 1294 2753 
L 1863 2753 
Q 2328 2753 2575 2939 
Q 2822 3125 2822 3475 
Q 2822 3834 2567 4026 
Q 2313 4219 1838 4219 
Q 1578 4219 1281 4162 
Q 984 4106 628 3988 
L 628 4550 
Q 988 4650 1302 4700 
Q 1616 4750 1894 4750 
Q 2613 4750 3031 4423 
Q 3450 4097 3450 3541 
Q 3450 3153 3228 2886 
Q 3006 2619 2597 2516 
z
" transform="scale(0.015625)"/>
       </defs>
       <use xlink:href="#DejaVuSans-31" transform="translate(0 0.765625)"/>
       <use xlink:href="#DejaVuSans-30" transform="translate(63.623047 0.765625)"/>
       <use xlink:href="#DejaVuSans-2212" transform="translate(128.203125 39.046875) scale(0.7)"/>
       <use xlink:href="#DejaVuSans-33" transform="translate(186.855469 39.046875) scale(0.7)"/>
      </g>
     </g>
    </g>
    <g id="ytick_2">
     <g id="line2d_11">
      <g>
       <use xlink:href="#m8c6d3d0981" x="51.378125" y="177.319219" style="stroke: #000000; stroke-width: 0.8"/>
      </g>
     </g>
     <g id="text_12">
      <!-- $\mathdefault{10^{-2}}$ -->
      <g transform="translate(20.878125 181.118437) scale(0.1 -0.1)">
       <use xlink:href="#DejaVuSans-31" transform="translate(0 0.765625)"/>
       <use xlink:href="#DejaVuSans-30" transform="translate(63.623047 0.765625)"/>
       <use xlink:href="#DejaVuSans-2212" transform="translate(128.203125 39.046875) scale(0.7)"/>
       <use xlink:href="#DejaVuSans-32" transform="translate(186.855469 39.046875) scale(0.7)"/>
      </g>
     </g>
    </g>
    <g id="ytick_3">
     <g id="line2d_12">
      <g>
       <use xlink:href="#m8c6d3d0981" x="51.378125" y="121.879219" style="stroke: #000000; stroke-width: 0.8"/>
      </g>
     </g>
     <g id="text_13">
      <!-- $\mathdefault{10^{-1}}$ -->
      <g transform="translate(20.878125 125.678438) scale(0.1 -0.1)">
       <use xlink:href="#DejaVuSans-31" transform="translate(0 0.684375)"/>
       <use xlink:href="#DejaVuSans-30" transform="translate(63.623047 0.684375)"/>
       <use xlink:href="#DejaVuSans-2212" transform="translate(128.203125 38.965625) scale(0.7)"/>
       <use xlink:href="#DejaVuSans-31" transform="translate(186.855469 38.965625) scale(0.7)"/>
      </g>
     </g>
    </g>
    <g id="ytick_4">
     <g id="line2d_13">
      <g>
       <use xlink:href="#m8c6d3d0981" x="51.378125" y="66.439219" style="stroke: #000000; stroke-width: 0.8"/>
      </g>
     </g>
     <g id="text_14">
      <!-- $\mathdefault{10^{0}}$ -->
      <g transform="translate(26.778125 70.238438) scale(0.1 -0.1)">
       <use xlink:href="#DejaVuSans-31" transform="translate(0 0.765625)"/>
       <use xlink:href="#DejaVuSans-30" transform="translate(63.623047 0.765625)"/>
       <use xlink:href="#DejaVuSans-30" transform="translate(128.203125 39.046875) scale(0.7)"/>
      </g>
     </g>
    </g>
    <g id="ytick_5">
     <g id="line2d_14">
      <g>
       <use xlink:href="#m8c6d3d0981" x="51.378125" y="10.999219" style="stroke: #000000; stroke-width: 0.8"/>
      </g>
     </g>
     <g id="text_15">
      <!-- $\mathdefault{10^{1}}$ -->
      <g transform="translate(26.778125 14.798438) scale(0.1 -0.1)">
       <use xlink:href="#DejaVuSans-31" transform="translate(0 0.684375)"/>
       <use xlink:href="#DejaVuSans-30" transform="translate(63.623047 0.684375)"/>
       <use xlink:href="#DejaVuSans-31" transform="translate(128.203125 38.965625) scale(0.7)"/>
      </g>
     </g>
    </g>
    <g id="ytick_6">
     <g id="line2d_15">
      <defs>
       <path id="m6f4030c255" d="M 0 0 
L -2 0 
" style="stroke: #000000; stroke-width: 0.6"/>
      </defs>
      <g>
       <use xlink:href="#m6f4030c255" x="51.378125" y="216.070116" style="stroke: #000000; stroke-width: 0.6"/>
      </g>
     </g>
    </g>
    <g id="ytick_7">
     <g id="line2d_16">
      <g>
       <use xlink:href="#m6f4030c255" x="51.378125" y="206.307616" style="stroke: #000000; stroke-width: 0.6"/>
      </g>
     </g>
    </g>
    <g id="ytick_8">
     <g id="line2d_17">
      <g>
       <use xlink:href="#m6f4030c255" x="51.378125" y="199.381013" style="stroke: #000000; stroke-width: 0.6"/>
      </g>
     </g>
    </g>
    <g id="ytick_9">
     <g id="line2d_18">
      <g>
       <use xlink:href="#m6f4030c255" x="51.378125" y="194.008322" style="stroke: #000000; stroke-width: 0.6"/>
      </g>
     </g>
    </g>
    <g id="ytick_10">
     <g id="line2d_19">
      <g>
       <use xlink:href="#m6f4030c255" x="51.378125" y="189.618513" style="stroke: #000000; stroke-width: 0.6"/>
      </g>
     </g>
    </g>
    <g id="ytick_11">
     <g id="line2d_20">
      <g>
       <use xlink:href="#m6f4030c255" x="51.378125" y="185.906983" style="stroke: #000000; stroke-width: 0.6"/>
      </g>
     </g>
    </g>
    <g id="ytick_12">
     <g id="line2d_21">
      <g>
       <use xlink:href="#m6f4030c255" x="51.378125" y="182.69191" style="stroke: #000000; stroke-width: 0.6"/>
      </g>
     </g>
    </g>
    <g id="ytick_13">
     <g id="line2d_22">
      <g>
       <use xlink:href="#m6f4030c255" x="51.378125" y="179.856014" style="stroke: #000000; stroke-width: 0.6"/>
      </g>
     </g>
    </g>
    <g id="ytick_14">
     <g id="line2d_23">
      <g>
       <use xlink:href="#m6f4030c255" x="51.378125" y="160.630116" style="stroke: #000000; stroke-width: 0.6"/>
      </g>
     </g>
    </g>
    <g id="ytick_15">
     <g id="line2d_24">
      <g>
       <use xlink:href="#m6f4030c255" x="51.378125" y="150.867616" style="stroke: #000000; stroke-width: 0.6"/>
      </g>
     </g>
    </g>
    <g id="ytick_16">
     <g id="line2d_25">
      <g>
       <use xlink:href="#m6f4030c255" x="51.378125" y="143.941013" style="stroke: #000000; stroke-width: 0.6"/>
      </g>
     </g>
    </g>
    <g id="ytick_17">
     <g id="line2d_26">
      <g>
       <use xlink:href="#m6f4030c255" x="51.378125" y="138.568322" style="stroke: #000000; stroke-width: 0.6"/>
      </g>
     </g>
    </g>
    <g id="ytick_18">
     <g id="line2d_27">
      <g>
       <use xlink:href="#m6f4030c255" x="51.378125" y="134.178513" style="stroke: #000000; stroke-width: 0.6"/>
      </g>
     </g>
    </g>
    <g id="ytick_19">
     <g id="line2d_28">
      <g>
       <use xlink:href="#m6f4030c255" x="51.378125" y="130.466983" style="stroke: #000000; stroke-width: 0.6"/>
      </g>
     </g>
    </g>
    <g id="ytick_20">
     <g id="line2d_29">
      <g>
       <use xlink:href="#m6f4030c255" x="51.378125" y="127.25191" style="stroke: #000000; stroke-width: 0.6"/>
      </g>
     </g>
    </g>
    <g id="ytick_21">
     <g id="line2d_30">
      <g>
       <use xlink:href="#m6f4030c255" x="51.378125" y="124.416014" style="stroke: #000000; stroke-width: 0.6"/>
      </g>
     </g>
    </g>
    <g id="ytick_22">
     <g id="line2d_31">
      <g>
       <use xlink:href="#m6f4030c255" x="51.378125" y="105.190116" style="stroke: #000000; stroke-width: 0.6"/>
      </g>
     </g>
    </g>
    <g id="ytick_23">
     <g id="line2d_32">
      <g>
       <use xlink:href="#m6f4030c255" x="51.378125" y="95.427616" style="stroke: #000000; stroke-width: 0.6"/>
      </g>
     </g>
    </g>
    <g id="ytick_24">
     <g id="line2d_33">
      <g>
       <use xlink:href="#m6f4030c255" x="51.378125" y="88.501013" style="stroke: #000000; stroke-width: 0.6"/>
      </g>
     </g>
    </g>
    <g id="ytick_25">
     <g id="line2d_34">
      <g>
       <use xlink:href="#m6f4030c255" x="51.378125" y="83.128322" style="stroke: #000000; stroke-width: 0.6"/>
      </g>
     </g>
    </g>
    <g id="ytick_26">
     <g id="line2d_35">
      <g>
       <use xlink:href="#m6f4030c255" x="51.378125" y="78.738513" style="stroke: #000000; stroke-width: 0.6"/>
      </g>
     </g>
    </g>
    <g id="ytick_27">
     <g id="line2d_36">
      <g>
       <use xlink:href="#m6f4030c255" x="51.378125" y="75.026983" style="stroke: #000000; stroke-width: 0.6"/>
      </g>
     </g>
    </g>
    <g id="ytick_28">
     <g id="line2d_37">
      <g>
       <use xlink:href="#m6f4030c255" x="51.378125" y="71.81191" style="stroke: #000000; stroke-width: 0.6"/>
      </g>
     </g>
    </g>
    <g id="ytick_29">
     <g id="line2d_38">
      <g>
       <use xlink:href="#m6f4030c255" x="51.378125" y="68.976014" style="stroke: #000000; stroke-width: 0.6"/>
      </g>
     </g>
    </g>
    <g id="ytick_30">
     <g id="line2d_39">
      <g>
       <use xlink:href="#m6f4030c255" x="51.378125" y="49.750116" style="stroke: #000000; stroke-width: 0.6"/>
      </g>
     </g>
    </g>
    <g id="ytick_31">
     <g id="line2d_40">
      <g>
       <use xlink:href="#m6f4030c255" x="51.378125" y="39.987616" style="stroke: #000000; stroke-width: 0.6"/>
      </g>
     </g>
    </g>
    <g id="ytick_32">
     <g id="line2d_41">
      <g>
       <use xlink:href="#m6f4030c255" x="51.378125" y="33.061013" style="stroke: #000000; stroke-width: 0.6"/>
      </g>
     </g>
    </g>
    <g id="ytick_33">
     <g id="line2d_42">
      <g>
       <use xlink:href="#m6f4030c255" x="51.378125" y="27.688322" style="stroke: #000000; stroke-width: 0.6"/>
      </g>
     </g>
    </g>
    <g id="ytick_34">
     <g id="line2d_43">
      <g>
       <use xlink:href="#m6f4030c255" x="51.378125" y="23.298513" style="stroke: #000000; stroke-width: 0.6"/>
      </g>
     </g>
    </g>
    <g id="ytick_35">
     <g id="line2d_44">
      <g>
       <use xlink:href="#m6f4030c255" x="51.378125" y="19.586983" style="stroke: #000000; stroke-width: 0.6"/>
      </g>
     </g>
    </g>
    <g id="ytick_36">
     <g id="line2d_45">
      <g>
       <use xlink:href="#m6f4030c255" x="51.378125" y="16.37191" style="stroke: #000000; stroke-width: 0.6"/>
      </g>
     </g>
    </g>
    <g id="ytick_37">
     <g id="line2d_46">
      <g>
       <use xlink:href="#m6f4030c255" x="51.378125" y="13.536014" style="stroke: #000000; stroke-width: 0.6"/>
      </g>
     </g>
    </g>
    <g id="text_16">
     <!-- [dimensionless] -->
     <g transform="translate(14.798438 161.356562) rotate(-90) scale(0.1 -0.1)">
      <defs>
       <path id="DejaVuSans-64" d="M 2906 2969 
L 2906 4863 
L 3481 4863 
L 3481 0 
L 2906 0 
L 2906 525 
Q 2725 213 2448 61 
Q 2172 -91 1784 -91 
Q 1150 -91 751 415 
Q 353 922 353 1747 
Q 353 2572 751 3078 
Q 1150 3584 1784 3584 
Q 2172 3584 2448 3432 
Q 2725 3281 2906 2969 
z
M 947 1747 
Q 947 1113 1208 752 
Q 1469 391 1925 391 
Q 2381 391 2643 752 
Q 2906 1113 2906 1747 
Q 2906 2381 2643 2742 
Q 2381 3103 1925 3103 
Q 1469 3103 1208 2742 
Q 947 2381 947 1747 
z
" transform="scale(0.015625)"/>
       <path id="DejaVuSans-69" d="M 603 3500 
L 1178 3500 
L 1178 0 
L 603 0 
L 603 3500 
z
M 603 4863 
L 1178 4863 
L 1178 4134 
L 603 4134 
L 603 4863 
z
" transform="scale(0.015625)"/>
       <path id="DejaVuSans-6d" d="M 3328 2828 
Q 3544 3216 3844 3400 
Q 4144 3584 4550 3584 
Q 5097 3584 5394 3201 
Q 5691 2819 5691 2113 
L 5691 0 
L 5113 0 
L 5113 2094 
Q 5113 2597 4934 2840 
Q 4756 3084 4391 3084 
Q 3944 3084 3684 2787 
Q 3425 2491 3425 1978 
L 3425 0 
L 2847 0 
L 2847 2094 
Q 2847 2600 2669 2842 
Q 2491 3084 2119 3084 
Q 1678 3084 1418 2786 
Q 1159 2488 1159 1978 
L 1159 0 
L 581 0 
L 581 3500 
L 1159 3500 
L 1159 2956 
Q 1356 3278 1631 3431 
Q 1906 3584 2284 3584 
Q 2666 3584 2933 3390 
Q 3200 3197 3328 2828 
z
" transform="scale(0.015625)"/>
       <path id="DejaVuSans-65" d="M 3597 1894 
L 3597 1613 
L 953 1613 
Q 991 1019 1311 708 
Q 1631 397 2203 397 
Q 2534 397 2845 478 
Q 3156 559 3463 722 
L 3463 178 
Q 3153 47 2828 -22 
Q 2503 -91 2169 -91 
Q 1331 -91 842 396 
Q 353 884 353 1716 
Q 353 2575 817 3079 
Q 1281 3584 2069 3584 
Q 2775 3584 3186 3129 
Q 3597 2675 3597 1894 
z
M 3022 2063 
Q 3016 2534 2758 2815 
Q 2500 3097 2075 3097 
Q 1594 3097 1305 2825 
Q 1016 2553 972 2059 
L 3022 2063 
z
" transform="scale(0.015625)"/>
       <path id="DejaVuSans-6e" d="M 3513 2113 
L 3513 0 
L 2938 0 
L 2938 2094 
Q 2938 2591 2744 2837 
Q 2550 3084 2163 3084 
Q 1697 3084 1428 2787 
Q 1159 2491 1159 1978 
L 1159 0 
L 581 0 
L 581 3500 
L 1159 3500 
L 1159 2956 
Q 1366 3272 1645 3428 
Q 1925 3584 2291 3584 
Q 2894 3584 3203 3211 
Q 3513 2838 3513 2113 
z
" transform="scale(0.015625)"/>
       <path id="DejaVuSans-73" d="M 2834 3397 
L 2834 2853 
Q 2591 2978 2328 3040 
Q 2066 3103 1784 3103 
Q 1356 3103 1142 2972 
Q 928 2841 928 2578 
Q 928 2378 1081 2264 
Q 1234 2150 1697 2047 
L 1894 2003 
Q 2506 1872 2764 1633 
Q 3022 1394 3022 966 
Q 3022 478 2636 193 
Q 2250 -91 1575 -91 
Q 1294 -91 989 -36 
Q 684 19 347 128 
L 347 722 
Q 666 556 975 473 
Q 1284 391 1588 391 
Q 1994 391 2212 530 
Q 2431 669 2431 922 
Q 2431 1156 2273 1281 
Q 2116 1406 1581 1522 
L 1381 1569 
Q 847 1681 609 1914 
Q 372 2147 372 2553 
Q 372 3047 722 3315 
Q 1072 3584 1716 3584 
Q 2034 3584 2315 3537 
Q 2597 3491 2834 3397 
z
" transform="scale(0.015625)"/>
       <path id="DejaVuSans-6f" d="M 1959 3097 
Q 1497 3097 1228 2736 
Q 959 2375 959 1747 
Q 959 1119 1226 758 
Q 1494 397 1959 397 
Q 2419 397 2687 759 
Q 2956 1122 2956 1747 
Q 2956 2369 2687 2733 
Q 2419 3097 1959 3097 
z
M 1959 3584 
Q 2709 3584 3137 3096 
Q 3566 2609 3566 1747 
Q 3566 888 3137 398 
Q 2709 -91 1959 -91 
Q 1206 -91 779 398 
Q 353 888 353 1747 
Q 353 2609 779 3096 
Q 1206 3584 1959 3584 
z
" transform="scale(0.015625)"/>
       <path id="DejaVuSans-6c" d="M 603 4863 
L 1178 4863 
L 1178 0 
L 603 0 
L 603 4863 
z
" transform="scale(0.015625)"/>
      </defs>
      <use xlink:href="#DejaVuSans-5b"/>
      <use xlink:href="#DejaVuSans-64" transform="translate(39.013672 0)"/>
      <use xlink:href="#DejaVuSans-69" transform="translate(102.490234 0)"/>
      <use xlink:href="#DejaVuSans-6d" transform="translate(130.273438 0)"/>
      <use xlink:href="#DejaVuSans-65" transform="translate(227.685547 0)"/>
      <use xlink:href="#DejaVuSans-6e" transform="translate(289.208984 0)"/>
      <use xlink:href="#DejaVuSans-73" transform="translate(352.587891 0)"/>
      <use xlink:href="#DejaVuSans-69" transform="translate(404.6875 0)"/>
      <use xlink:href="#DejaVuSans-6f" transform="translate(432.470703 0)"/>
      <use xlink:href="#DejaVuSans-6e" transform="translate(493.652344 0)"/>
      <use xlink:href="#DejaVuSans-6c" transform="translate(557.03125 0)"/>
      <use xlink:href="#DejaVuSans-65" transform="translate(584.814453 0)"/>
      <use xlink:href="#DejaVuSans-73" transform="translate(646.337891 0)"/>
      <use xlink:href="#DejaVuSans-73" transform="translate(698.4375 0)"/>
      <use xlink:href="#DejaVuSans-5d" transform="translate(750.537109 0)"/>
     </g>
    </g>
   </g>
   <g id="patch_3">
    <path d="M 51.378125 232.759219 
L 51.378125 10.999219 
" style="fill: none; stroke: #000000; stroke-width: 0.8; stroke-linejoin: miter; stroke-linecap: square"/>
   </g>
   <g id="patch_4">
    <path d="M 386.178125 232.759219 
L 386.178125 10.999219 
" style="fill: none; stroke: #000000; stroke-width: 0.8; stroke-linejoin: miter; stroke-linecap: square"/>
   </g>
   <g id="patch_5">
    <path d="M 51.378125 232.759219 
L 386.178125 232.759219 
" style="fill: none; stroke: #000000; stroke-width: 0.8; stroke-linejoin: miter; stroke-linecap: square"/>
   </g>
   <g id="patch_6">
    <path d="M 51.378125 10.999219 
L 386.178125 10.999219 
" style="fill: none; stroke: #000000; stroke-width: 0.8; stroke-linejoin: miter; stroke-linecap: square"/>
   </g>
   <g id="line2d_47">
    <path d="M 66.596307 27.906494 
L 68.118125 27.906494 
L 68.118125 28.609381 
L 69.639943 28.609381 
L 69.639943 27.927618 
L 71.161761 27.927618 
L 71.161761 29.69728 
L 72.68358 29.69728 
L 72.68358 29.178776 
L 74.205398 29.178776 
L 74.205398 28.949727 
L 75.727216 28.949727 
L 75.727216 30.160452 
L 77.249034 30.160452 
L 77.249034 31.221835 
L 78.770852 31.221835 
L 78.770852 32.365821 
L 80.29267 32.365821 
L 80.29267 33.742201 
L 81.814489 33.742201 
L 81.814489 35.539127 
L 83.336307 35.539127 
L 83.336307 37.093242 
L 84.858125 37.093242 
L 84.858125 36.518187 
L 86.379943 36.518187 
L 86.379943 39.042511 
L 87.901761 39.042511 
L 87.901761 40.361868 
L 89.42358 40.361868 
L 89.42358 43.427357 
L 90.945398 43.427357 
L 90.945398 43.143189 
L 92.467216 43.143189 
L 92.467216 44.420118 
L 93.989034 44.420118 
L 93.989034 46.375271 
L 95.510852 46.375271 
L 95.510852 50.745421 
L 97.03267 50.745421 
L 97.03267 52.135961 
L 98.554489 52.135961 
L 98.554489 54.229855 
L 100.076307 54.229855 
L 100.076307 57.756926 
L 101.598125 57.756926 
L 101.598125 62.392468 
L 103.119943 62.392468 
L 103.119943 60.643347 
L 104.641761 60.643347 
L 104.641761 64.264831 
L 106.16358 64.264831 
L 106.16358 70.206435 
L 107.685398 70.206435 
L 107.685398 69.765927 
L 109.207216 69.765927 
L 109.207216 75.28826 
L 110.729034 75.28826 
L 110.729034 78.430602 
L 112.250852 78.430602 
L 112.250852 82.379274 
L 113.77267 82.379274 
L 113.77267 88.828402 
L 115.294489 88.828402 
L 115.294489 91.20758 
L 116.816307 91.20758 
L 116.816307 93.483513 
L 118.338125 93.483513 
L 118.338125 100.757069 
L 119.859943 100.757069 
L 119.859943 105.873022 
L 121.381761 105.873022 
L 121.381761 110.824142 
L 122.90358 110.824142 
L 122.90358 114.649097 
L 124.425398 114.649097 
L 124.425398 123.407103 
L 125.947216 123.407103 
L 125.947216 127.235085 
L 127.469034 127.235085 
L 127.469034 133.452634 
L 128.990852 133.452634 
L 128.990852 142.329068 
L 130.51267 142.329068 
L 130.51267 143.973196 
L 132.034489 143.973196 
L 132.034489 153.853509 
L 133.556307 153.853509 
L 133.556307 156.928696 
L 136.599943 157.000142 
L 136.599943 157.684551 
L 138.121761 157.684551 
L 138.121761 154.56688 
L 139.64358 154.56688 
L 139.64358 152.240372 
L 141.165398 152.240372 
L 141.165398 150.998851 
L 142.687216 150.998851 
L 142.687216 144.750402 
L 144.209034 144.750402 
L 144.209034 139.863134 
L 145.730852 139.863134 
L 145.730852 139.442931 
L 147.25267 139.442931 
L 147.25267 139.315938 
L 150.296307 139.325919 
L 150.296307 135.143495 
L 151.818125 135.143495 
L 151.818125 137.911775 
L 153.339943 137.911775 
L 153.339943 131.932803 
L 154.861761 131.932803 
L 154.861761 134.461904 
L 156.38358 134.461904 
L 156.38358 134.806212 
L 157.905398 134.806212 
L 157.905398 133.545656 
L 159.427216 133.545656 
L 159.427216 135.941102 
L 160.949034 135.941102 
L 160.949034 133.314014 
L 162.470852 133.314014 
L 162.470852 134.475752 
L 163.99267 134.475752 
L 163.99267 136.797346 
L 165.514489 136.797346 
L 165.514489 134.416941 
L 167.036307 134.416941 
L 167.036307 141.452558 
L 168.558125 141.452558 
L 168.558125 139.475886 
L 170.079943 139.475886 
L 170.079943 138.483263 
L 171.601761 138.483263 
L 171.601761 143.789056 
L 173.12358 143.789056 
L 173.12358 146.727106 
L 174.645398 146.727106 
L 174.645398 146.590846 
L 176.167216 146.590846 
L 176.167216 151.836984 
L 177.689034 151.836984 
L 177.689034 155.393518 
L 179.210852 155.393518 
L 179.210852 151.715861 
L 180.73267 151.715861 
L 180.73267 154.107651 
L 182.254489 154.107651 
L 182.254489 158.316408 
L 183.776307 158.316408 
L 183.776307 156.116884 
L 185.298125 156.116884 
L 185.298125 159.497437 
L 188.341761 159.574545 
L 188.341761 158.816235 
L 189.86358 158.816235 
L 189.86358 159.509671 
L 191.385398 159.509671 
L 191.385398 162.9958 
L 192.907216 162.9958 
L 192.907216 157.984731 
L 194.429034 157.984731 
L 194.429034 158.912561 
L 195.950852 158.912561 
L 195.950852 156.87327 
L 197.47267 156.87327 
L 197.47267 158.010459 
L 198.994489 158.010459 
L 198.994489 158.128761 
L 200.516307 158.128761 
L 200.516307 158.484751 
L 202.038125 158.484751 
L 202.038125 156.362852 
L 203.559943 156.362852 
L 203.559943 158.044384 
L 205.081761 158.044384 
L 205.081761 156.566604 
L 206.60358 156.566604 
L 206.60358 158.761811 
L 208.125398 158.761811 
L 208.125398 155.017453 
L 209.647216 155.017453 
L 209.647216 149.635895 
L 211.169034 149.635895 
L 211.169034 154.964568 
L 212.690852 154.964568 
L 212.690852 155.193938 
L 214.21267 155.193938 
L 214.21267 152.624977 
L 215.734489 152.624977 
L 215.734489 150.937778 
L 217.256307 150.937778 
L 217.256307 155.893553 
L 218.778125 155.893553 
L 218.778125 155.632933 
L 220.299943 155.632933 
L 220.299943 153.507995 
L 221.821761 153.507995 
L 221.821761 151.130978 
L 223.34358 151.130978 
L 223.34358 157.82307 
L 224.865398 157.82307 
L 224.865398 158.649172 
L 226.387216 158.649172 
L 226.387216 154.635448 
L 227.909034 154.635448 
L 227.909034 156.710335 
L 229.430852 156.710335 
L 229.430852 157.344774 
L 230.95267 157.344774 
L 230.95267 159.556854 
L 232.474489 159.556854 
L 232.474489 161.298193 
L 233.996307 161.298193 
L 233.996307 160.492985 
L 235.518125 160.492985 
L 235.518125 157.20765 
L 237.039943 157.20765 
L 237.039943 158.36664 
L 238.561761 158.36664 
L 238.561761 158.798335 
L 240.08358 158.798335 
L 240.08358 159.239403 
L 241.605398 159.239403 
L 241.605398 158.073801 
L 243.127216 158.073801 
L 243.127216 163.106225 
L 244.649034 163.106225 
L 244.649034 162.393591 
L 246.170852 162.393591 
L 246.170852 160.587385 
L 247.69267 160.587385 
L 247.69267 157.614158 
L 250.736307 157.513835 
L 250.736307 164.373584 
L 252.258125 164.373584 
L 252.258125 160.165314 
L 255.301761 160.098059 
L 255.301761 157.134533 
L 256.82358 157.134533 
L 256.82358 160.076966 
L 258.345398 160.076966 
L 258.345398 159.2614 
L 259.867216 159.2614 
L 259.867216 157.716966 
L 261.389034 157.716966 
L 261.389034 163.64455 
L 262.910852 163.64455 
L 262.910852 156.980149 
L 264.43267 156.980149 
L 264.43267 157.961268 
L 265.954489 157.961268 
L 265.954489 157.20324 
L 267.476307 157.20324 
L 267.476307 157.343337 
L 268.998125 157.343337 
L 268.998125 153.985708 
L 270.519943 153.985708 
L 270.519943 159.12491 
L 272.041761 159.12491 
L 272.041761 161.747104 
L 273.56358 161.747104 
L 273.56358 161.115397 
L 275.085398 161.115397 
L 275.085398 160.63616 
L 276.607216 160.63616 
L 276.607216 155.79915 
L 278.129034 155.79915 
L 278.129034 160.722403 
L 279.650852 160.722403 
L 279.650852 157.81615 
L 281.17267 157.81615 
L 281.17267 157.294141 
L 282.694489 157.294141 
L 282.694489 160.610991 
L 284.216307 160.610991 
L 284.216307 164.036623 
L 285.738125 164.036623 
L 285.738125 159.704631 
L 287.259943 159.704631 
L 287.259943 157.942782 
L 288.781761 157.942782 
L 288.781761 160.004654 
L 290.30358 160.004654 
L 290.30358 162.215955 
L 291.825398 162.215955 
L 291.825398 161.09388 
L 293.347216 161.09388 
L 293.347216 160.329933 
L 294.869034 160.329933 
L 294.869034 164.256804 
L 296.390852 164.256804 
L 296.390852 164.473965 
L 297.91267 164.473965 
L 297.91267 165.036716 
L 299.434489 165.036716 
L 299.434489 159.940314 
L 302.478125 159.941164 
L 302.478125 165.712648 
L 303.999943 165.712648 
L 303.999943 154.291226 
L 305.521761 154.291226 
L 305.521761 154.720695 
L 307.04358 154.720695 
L 307.04358 162.165613 
L 308.565398 162.165613 
L 308.565398 163.644799 
L 310.087216 163.644799 
L 310.087216 156.925424 
L 311.609034 156.925424 
L 311.609034 158.09013 
L 313.130852 158.09013 
L 313.130852 155.77469 
L 314.65267 155.77469 
L 314.65267 158.476249 
L 316.174489 158.476249 
L 316.174489 164.433896 
L 317.696307 164.433896 
L 317.696307 160.420648 
L 319.218125 160.420648 
L 319.218125 161.615446 
L 320.739943 161.615446 
L 320.739943 167.943728 
L 322.261761 167.943728 
L 322.261761 164.559334 
L 323.78358 164.559334 
L 323.78358 150.064592 
L 325.305398 150.064592 
L 325.305398 149.574797 
L 326.827216 149.574797 
L 326.827216 164.084369 
L 328.349034 164.084369 
L 328.349034 161.374647 
L 329.870852 161.374647 
L 329.870852 151.639292 
L 331.39267 151.639292 
L 331.39267 149.977558 
L 332.914489 149.977558 
L 332.914489 163.021825 
L 334.436307 163.021825 
L 334.436307 181.038567 
L 335.958125 181.038567 
L 335.958125 153.791561 
L 337.479943 153.791561 
L 337.479943 173.835242 
L 339.001761 173.835242 
L 339.001761 157.480347 
L 340.52358 157.480347 
L 340.52358 161.354323 
L 342.045398 161.354323 
L 342.045398 158.279135 
L 343.567216 158.279135 
L 343.567216 153.826046 
L 345.089034 153.826046 
L 345.089034 163.46289 
L 346.610852 163.46289 
L 346.610852 140.884753 
L 348.13267 140.884753 
L 348.13267 172.421128 
L 349.654489 172.421128 
L 349.654489 149.856114 
L 351.176307 149.856114 
L 351.176307 176.574422 
L 352.698125 176.574422 
L 352.698125 187.396671 
L 354.219943 187.396671 
L 354.219943 200.409904 
L 355.741761 200.409904 
L 355.741761 170.625399 
L 357.26358 170.625399 
L 357.26358 201.798354 
L 358.785398 201.798354 
L 358.785398 200.977764 
L 360.307216 200.977764 
L 360.307216 182.2167 
L 361.829034 182.2167 
L 361.829034 119.659493 
L 363.350852 119.659493 
L 363.350852 61.505986 
L 364.87267 61.505986 
L 364.87267 172.779296 
L 366.394489 172.779296 
L 366.394489 172.340908 
L 367.916307 172.340908 
L 367.916307 163.138888 
L 369.438125 163.138888 
L 369.438125 173.049235 
L 370.959943 173.049235 
L 370.959943 173.049235 
" clip-path="url(#pea12a1dee1)" style="fill: none; stroke: #1f77b4; stroke-width: 1.5; stroke-linecap: square"/>
   </g>
   <g id="LineCollection_1">
    <path d="M 67.357216 28.543286 
L 67.357216 27.286111 
" clip-path="url(#pea12a1dee1)" style="fill: none; stroke: #1f77b4; stroke-width: 1.5"/>
    <path d="M 68.879034 29.133181 
L 68.879034 28.096735 
" clip-path="url(#pea12a1dee1)" style="fill: none; stroke: #1f77b4; stroke-width: 1.5"/>
    <path d="M 70.400852 28.460304 
L 70.400852 27.406462 
" clip-path="url(#pea12a1dee1)" style="fill: none; stroke: #1f77b4; stroke-width: 1.5"/>
    <path d="M 71.92267 30.218918 
L 71.92267 29.186705 
" clip-path="url(#pea12a1dee1)" style="fill: none; stroke: #1f77b4; stroke-width: 1.5"/>
    <path d="M 73.444489 29.718608 
L 73.444489 28.650783 
" clip-path="url(#pea12a1dee1)" style="fill: none; stroke: #1f77b4; stroke-width: 1.5"/>
    <path d="M 74.966307 29.489604 
L 74.966307 28.421691 
" clip-path="url(#pea12a1dee1)" style="fill: none; stroke: #1f77b4; stroke-width: 1.5"/>
    <path d="M 76.488125 30.709685 
L 76.488125 29.623468 
" clip-path="url(#pea12a1dee1)" style="fill: none; stroke: #1f77b4; stroke-width: 1.5"/>
    <path d="M 78.009943 31.762512 
L 78.009943 30.693033 
" clip-path="url(#pea12a1dee1)" style="fill: none; stroke: #1f77b4; stroke-width: 1.5"/>
    <path d="M 79.531761 32.909649 
L 79.531761 31.834005 
" clip-path="url(#pea12a1dee1)" style="fill: none; stroke: #1f77b4; stroke-width: 1.5"/>
    <path d="M 81.05358 34.299587 
L 81.05358 33.197426 
" clip-path="url(#pea12a1dee1)" style="fill: none; stroke: #1f77b4; stroke-width: 1.5"/>
    <path d="M 82.575398 36.088407 
L 82.575398 35.0021 
" clip-path="url(#pea12a1dee1)" style="fill: none; stroke: #1f77b4; stroke-width: 1.5"/>
    <path d="M 84.097216 37.648449 
L 84.097216 36.55055 
" clip-path="url(#pea12a1dee1)" style="fill: none; stroke: #1f77b4; stroke-width: 1.5"/>
    <path d="M 85.619034 37.07459 
L 85.619034 35.974352 
" clip-path="url(#pea12a1dee1)" style="fill: none; stroke: #1f77b4; stroke-width: 1.5"/>
    <path d="M 87.140852 39.613186 
L 87.140852 38.485049 
" clip-path="url(#pea12a1dee1)" style="fill: none; stroke: #1f77b4; stroke-width: 1.5"/>
    <path d="M 88.66267 40.937062 
L 88.66267 39.800095 
" clip-path="url(#pea12a1dee1)" style="fill: none; stroke: #1f77b4; stroke-width: 1.5"/>
    <path d="M 90.184489 43.996717 
L 90.184489 42.87115 
" clip-path="url(#pea12a1dee1)" style="fill: none; stroke: #1f77b4; stroke-width: 1.5"/>
    <path d="M 91.706307 43.719157 
L 91.706307 42.580678 
" clip-path="url(#pea12a1dee1)" style="fill: none; stroke: #1f77b4; stroke-width: 1.5"/>
    <path d="M 93.228125 45.006585 
L 93.228125 43.847598 
" clip-path="url(#pea12a1dee1)" style="fill: none; stroke: #1f77b4; stroke-width: 1.5"/>
    <path d="M 94.749943 46.986883 
L 94.749943 45.77881 
" clip-path="url(#pea12a1dee1)" style="fill: none; stroke: #1f77b4; stroke-width: 1.5"/>
    <path d="M 96.271761 51.392897 
L 96.271761 50.114902 
" clip-path="url(#pea12a1dee1)" style="fill: none; stroke: #1f77b4; stroke-width: 1.5"/>
    <path d="M 97.79358 52.837721 
L 97.79358 51.454075 
" clip-path="url(#pea12a1dee1)" style="fill: none; stroke: #1f77b4; stroke-width: 1.5"/>
    <path d="M 99.315398 54.995906 
L 99.315398 53.487428 
" clip-path="url(#pea12a1dee1)" style="fill: none; stroke: #1f77b4; stroke-width: 1.5"/>
    <path d="M 100.837216 58.628875 
L 100.837216 56.915454 
" clip-path="url(#pea12a1dee1)" style="fill: none; stroke: #1f77b4; stroke-width: 1.5"/>
    <path d="M 102.359034 63.374209 
L 102.359034 61.449195 
" clip-path="url(#pea12a1dee1)" style="fill: none; stroke: #1f77b4; stroke-width: 1.5"/>
    <path d="M 103.880852 61.747247 
L 103.880852 59.587848 
" clip-path="url(#pea12a1dee1)" style="fill: none; stroke: #1f77b4; stroke-width: 1.5"/>
    <path d="M 105.40267 65.545944 
L 105.40267 63.048454 
" clip-path="url(#pea12a1dee1)" style="fill: none; stroke: #1f77b4; stroke-width: 1.5"/>
    <path d="M 106.924489 71.547434 
L 106.924489 68.936199 
" clip-path="url(#pea12a1dee1)" style="fill: none; stroke: #1f77b4; stroke-width: 1.5"/>
    <path d="M 108.446307 71.034658 
L 108.446307 68.560717 
" clip-path="url(#pea12a1dee1)" style="fill: none; stroke: #1f77b4; stroke-width: 1.5"/>
    <path d="M 109.968125 76.472404 
L 109.968125 74.159633 
" clip-path="url(#pea12a1dee1)" style="fill: none; stroke: #1f77b4; stroke-width: 1.5"/>
    <path d="M 111.489943 79.543081 
L 111.489943 77.367263 
" clip-path="url(#pea12a1dee1)" style="fill: none; stroke: #1f77b4; stroke-width: 1.5"/>
    <path d="M 113.011761 83.46983 
L 113.011761 81.335981 
" clip-path="url(#pea12a1dee1)" style="fill: none; stroke: #1f77b4; stroke-width: 1.5"/>
    <path d="M 114.53358 89.924627 
L 114.53358 87.779921 
" clip-path="url(#pea12a1dee1)" style="fill: none; stroke: #1f77b4; stroke-width: 1.5"/>
    <path d="M 116.055398 92.281646 
L 116.055398 90.179387 
" clip-path="url(#pea12a1dee1)" style="fill: none; stroke: #1f77b4; stroke-width: 1.5"/>
    <path d="M 117.577216 94.559547 
L 117.577216 92.453518 
" clip-path="url(#pea12a1dee1)" style="fill: none; stroke: #1f77b4; stroke-width: 1.5"/>
    <path d="M 119.099034 101.907804 
L 119.099034 99.658831 
" clip-path="url(#pea12a1dee1)" style="fill: none; stroke: #1f77b4; stroke-width: 1.5"/>
    <path d="M 120.620852 107.158282 
L 120.620852 104.652907 
" clip-path="url(#pea12a1dee1)" style="fill: none; stroke: #1f77b4; stroke-width: 1.5"/>
    <path d="M 122.14267 112.161052 
L 122.14267 109.557576 
" clip-path="url(#pea12a1dee1)" style="fill: none; stroke: #1f77b4; stroke-width: 1.5"/>
    <path d="M 123.664489 116.104983 
L 123.664489 113.276248 
" clip-path="url(#pea12a1dee1)" style="fill: none; stroke: #1f77b4; stroke-width: 1.5"/>
    <path d="M 125.186307 125.102791 
L 125.186307 121.82302 
" clip-path="url(#pea12a1dee1)" style="fill: none; stroke: #1f77b4; stroke-width: 1.5"/>
    <path d="M 126.708125 129.094276 
L 126.708125 125.509224 
" clip-path="url(#pea12a1dee1)" style="fill: none; stroke: #1f77b4; stroke-width: 1.5"/>
    <path d="M 128.229943 135.529939 
L 128.229943 131.540404 
" clip-path="url(#pea12a1dee1)" style="fill: none; stroke: #1f77b4; stroke-width: 1.5"/>
    <path d="M 129.751761 144.907385 
L 129.751761 140.000338 
" clip-path="url(#pea12a1dee1)" style="fill: none; stroke: #1f77b4; stroke-width: 1.5"/>
    <path d="M 131.27358 146.600268 
L 131.27358 141.604774 
" clip-path="url(#pea12a1dee1)" style="fill: none; stroke: #1f77b4; stroke-width: 1.5"/>
    <path d="M 132.795398 157.064256 
L 132.795398 151.020979 
" clip-path="url(#pea12a1dee1)" style="fill: none; stroke: #1f77b4; stroke-width: 1.5"/>
    <path d="M 134.317216 160.342848 
L 134.317216 153.939092 
" clip-path="url(#pea12a1dee1)" style="fill: none; stroke: #1f77b4; stroke-width: 1.5"/>
    <path d="M 135.839034 160.505557 
L 135.839034 153.94082 
" clip-path="url(#pea12a1dee1)" style="fill: none; stroke: #1f77b4; stroke-width: 1.5"/>
    <path d="M 137.360852 161.167802 
L 137.360852 154.642119 
" clip-path="url(#pea12a1dee1)" style="fill: none; stroke: #1f77b4; stroke-width: 1.5"/>
    <path d="M 138.88267 157.796582 
L 138.88267 151.719612 
" clip-path="url(#pea12a1dee1)" style="fill: none; stroke: #1f77b4; stroke-width: 1.5"/>
    <path d="M 140.404489 155.327573 
L 140.404489 149.504404 
" clip-path="url(#pea12a1dee1)" style="fill: none; stroke: #1f77b4; stroke-width: 1.5"/>
    <path d="M 141.926307 154.006346 
L 141.926307 148.325651 
" clip-path="url(#pea12a1dee1)" style="fill: none; stroke: #1f77b4; stroke-width: 1.5"/>
    <path d="M 143.448125 147.441231 
L 143.448125 142.330292 
" clip-path="url(#pea12a1dee1)" style="fill: none; stroke: #1f77b4; stroke-width: 1.5"/>
    <path d="M 144.969943 142.373306 
L 144.969943 137.590128 
" clip-path="url(#pea12a1dee1)" style="fill: none; stroke: #1f77b4; stroke-width: 1.5"/>
    <path d="M 146.491761 141.782234 
L 146.491761 137.310919 
" clip-path="url(#pea12a1dee1)" style="fill: none; stroke: #1f77b4; stroke-width: 1.5"/>
    <path d="M 148.01358 141.702074 
L 148.01358 137.145099 
" clip-path="url(#pea12a1dee1)" style="fill: none; stroke: #1f77b4; stroke-width: 1.5"/>
    <path d="M 149.535398 141.617887 
L 149.535398 137.233291 
" clip-path="url(#pea12a1dee1)" style="fill: none; stroke: #1f77b4; stroke-width: 1.5"/>
    <path d="M 151.057216 137.334361 
L 151.057216 133.135462 
" clip-path="url(#pea12a1dee1)" style="fill: none; stroke: #1f77b4; stroke-width: 1.5"/>
    <path d="M 152.579034 140.178532 
L 152.579034 135.84018 
" clip-path="url(#pea12a1dee1)" style="fill: none; stroke: #1f77b4; stroke-width: 1.5"/>
    <path d="M 154.100852 133.970296 
L 154.100852 130.054357 
" clip-path="url(#pea12a1dee1)" style="fill: none; stroke: #1f77b4; stroke-width: 1.5"/>
    <path d="M 155.62267 136.61559 
L 155.62267 132.485144 
" clip-path="url(#pea12a1dee1)" style="fill: none; stroke: #1f77b4; stroke-width: 1.5"/>
    <path d="M 157.144489 136.984828 
L 157.144489 132.808474 
" clip-path="url(#pea12a1dee1)" style="fill: none; stroke: #1f77b4; stroke-width: 1.5"/>
    <path d="M 158.666307 135.669434 
L 158.666307 131.594119 
" clip-path="url(#pea12a1dee1)" style="fill: none; stroke: #1f77b4; stroke-width: 1.5"/>
    <path d="M 160.188125 138.176695 
L 160.188125 133.895563 
" clip-path="url(#pea12a1dee1)" style="fill: none; stroke: #1f77b4; stroke-width: 1.5"/>
    <path d="M 161.709943 135.44632 
L 161.709943 131.355279 
" clip-path="url(#pea12a1dee1)" style="fill: none; stroke: #1f77b4; stroke-width: 1.5"/>
    <path d="M 163.231761 136.598099 
L 163.231761 132.525423 
" clip-path="url(#pea12a1dee1)" style="fill: none; stroke: #1f77b4; stroke-width: 1.5"/>
    <path d="M 164.75358 139.0328 
L 164.75358 134.751923 
" clip-path="url(#pea12a1dee1)" style="fill: none; stroke: #1f77b4; stroke-width: 1.5"/>
    <path d="M 166.275398 136.576636 
L 166.275398 132.435121 
" clip-path="url(#pea12a1dee1)" style="fill: none; stroke: #1f77b4; stroke-width: 1.5"/>
    <path d="M 167.797216 143.894328 
L 167.797216 139.235776 
" clip-path="url(#pea12a1dee1)" style="fill: none; stroke: #1f77b4; stroke-width: 1.5"/>
    <path d="M 169.319034 141.843415 
L 169.319034 137.320456 
" clip-path="url(#pea12a1dee1)" style="fill: none; stroke: #1f77b4; stroke-width: 1.5"/>
    <path d="M 170.840852 140.841378 
L 170.840852 136.335639 
" clip-path="url(#pea12a1dee1)" style="fill: none; stroke: #1f77b4; stroke-width: 1.5"/>
    <path d="M 172.36267 146.381434 
L 172.36267 141.448863 
" clip-path="url(#pea12a1dee1)" style="fill: none; stroke: #1f77b4; stroke-width: 1.5"/>
    <path d="M 173.884489 149.472225 
L 173.884489 144.263179 
" clip-path="url(#pea12a1dee1)" style="fill: none; stroke: #1f77b4; stroke-width: 1.5"/>
    <path d="M 175.406307 149.37651 
L 175.406307 144.094311 
" clip-path="url(#pea12a1dee1)" style="fill: none; stroke: #1f77b4; stroke-width: 1.5"/>
    <path d="M 176.928125 154.870961 
L 176.928125 149.142889 
" clip-path="url(#pea12a1dee1)" style="fill: none; stroke: #1f77b4; stroke-width: 1.5"/>
    <path d="M 178.449943 158.762018 
L 178.449943 152.438964 
" clip-path="url(#pea12a1dee1)" style="fill: none; stroke: #1f77b4; stroke-width: 1.5"/>
    <path d="M 179.971761 154.81582 
L 179.971761 148.969881 
" clip-path="url(#pea12a1dee1)" style="fill: none; stroke: #1f77b4; stroke-width: 1.5"/>
    <path d="M 181.49358 157.35554 
L 181.49358 151.246263 
" clip-path="url(#pea12a1dee1)" style="fill: none; stroke: #1f77b4; stroke-width: 1.5"/>
    <path d="M 183.015398 161.912621 
L 183.015398 155.188186 
" clip-path="url(#pea12a1dee1)" style="fill: none; stroke: #1f77b4; stroke-width: 1.5"/>
    <path d="M 184.537216 159.478819 
L 184.537216 153.167379 
" clip-path="url(#pea12a1dee1)" style="fill: none; stroke: #1f77b4; stroke-width: 1.5"/>
    <path d="M 186.059034 163.182631 
L 186.059034 156.302134 
" clip-path="url(#pea12a1dee1)" style="fill: none; stroke: #1f77b4; stroke-width: 1.5"/>
    <path d="M 187.580852 163.209467 
L 187.580852 156.417088 
" clip-path="url(#pea12a1dee1)" style="fill: none; stroke: #1f77b4; stroke-width: 1.5"/>
    <path d="M 189.10267 162.400544 
L 189.10267 155.697021 
" clip-path="url(#pea12a1dee1)" style="fill: none; stroke: #1f77b4; stroke-width: 1.5"/>
    <path d="M 190.624489 163.14029 
L 190.624489 156.355459 
" clip-path="url(#pea12a1dee1)" style="fill: none; stroke: #1f77b4; stroke-width: 1.5"/>
    <path d="M 192.146307 166.960493 
L 192.146307 159.592586 
" clip-path="url(#pea12a1dee1)" style="fill: none; stroke: #1f77b4; stroke-width: 1.5"/>
    <path d="M 193.668125 161.559336 
L 193.668125 154.872865 
" clip-path="url(#pea12a1dee1)" style="fill: none; stroke: #1f77b4; stroke-width: 1.5"/>
    <path d="M 195.189943 162.525425 
L 195.189943 155.771754 
" clip-path="url(#pea12a1dee1)" style="fill: none; stroke: #1f77b4; stroke-width: 1.5"/>
    <path d="M 196.711761 160.338466 
L 196.711761 153.844615 
" clip-path="url(#pea12a1dee1)" style="fill: none; stroke: #1f77b4; stroke-width: 1.5"/>
    <path d="M 198.23358 161.521908 
L 198.23358 154.946545 
" clip-path="url(#pea12a1dee1)" style="fill: none; stroke: #1f77b4; stroke-width: 1.5"/>
    <path d="M 199.755398 161.664576 
L 199.755398 155.04632 
" clip-path="url(#pea12a1dee1)" style="fill: none; stroke: #1f77b4; stroke-width: 1.5"/>
    <path d="M 201.277216 162.054622 
L 201.277216 155.376471 
" clip-path="url(#pea12a1dee1)" style="fill: none; stroke: #1f77b4; stroke-width: 1.5"/>
    <path d="M 202.799034 159.811062 
L 202.799034 153.347177 
" clip-path="url(#pea12a1dee1)" style="fill: none; stroke: #1f77b4; stroke-width: 1.5"/>
    <path d="M 204.320852 161.545541 
L 204.320852 154.988304 
" clip-path="url(#pea12a1dee1)" style="fill: none; stroke: #1f77b4; stroke-width: 1.5"/>
    <path d="M 205.84267 160.036522 
L 205.84267 153.534344 
" clip-path="url(#pea12a1dee1)" style="fill: none; stroke: #1f77b4; stroke-width: 1.5"/>
    <path d="M 207.364489 162.326031 
L 207.364489 155.657814 
" clip-path="url(#pea12a1dee1)" style="fill: none; stroke: #1f77b4; stroke-width: 1.5"/>
    <path d="M 208.886307 158.303714 
L 208.886307 152.126334 
" clip-path="url(#pea12a1dee1)" style="fill: none; stroke: #1f77b4; stroke-width: 1.5"/>
    <path d="M 210.408125 152.616865 
L 210.408125 146.983667 
" clip-path="url(#pea12a1dee1)" style="fill: none; stroke: #1f77b4; stroke-width: 1.5"/>
    <path d="M 211.929943 158.229001 
L 211.929943 152.090352 
" clip-path="url(#pea12a1dee1)" style="fill: none; stroke: #1f77b4; stroke-width: 1.5"/>
    <path d="M 213.451761 158.530103 
L 213.451761 152.26428 
" clip-path="url(#pea12a1dee1)" style="fill: none; stroke: #1f77b4; stroke-width: 1.5"/>
    <path d="M 214.97358 155.727383 
L 214.97358 149.877077 
" clip-path="url(#pea12a1dee1)" style="fill: none; stroke: #1f77b4; stroke-width: 1.5"/>
    <path d="M 216.495398 154.06482 
L 216.495398 148.170574 
" clip-path="url(#pea12a1dee1)" style="fill: none; stroke: #1f77b4; stroke-width: 1.5"/>
    <path d="M 218.017216 159.17557 
L 218.017216 153.005719 
" clip-path="url(#pea12a1dee1)" style="fill: none; stroke: #1f77b4; stroke-width: 1.5"/>
    <path d="M 219.539034 158.988055 
L 219.539034 152.688671 
" clip-path="url(#pea12a1dee1)" style="fill: none; stroke: #1f77b4; stroke-width: 1.5"/>
    <path d="M 221.060852 156.693004 
L 221.060852 150.695508 
" clip-path="url(#pea12a1dee1)" style="fill: none; stroke: #1f77b4; stroke-width: 1.5"/>
    <path d="M 222.58267 154.205823 
L 222.58267 148.404715 
" clip-path="url(#pea12a1dee1)" style="fill: none; stroke: #1f77b4; stroke-width: 1.5"/>
    <path d="M 224.104489 161.32907 
L 224.104489 154.763304 
" clip-path="url(#pea12a1dee1)" style="fill: none; stroke: #1f77b4; stroke-width: 1.5"/>
    <path d="M 225.626307 162.160938 
L 225.626307 155.585016 
" clip-path="url(#pea12a1dee1)" style="fill: none; stroke: #1f77b4; stroke-width: 1.5"/>
    <path d="M 227.148125 157.908767 
L 227.148125 151.754347 
" clip-path="url(#pea12a1dee1)" style="fill: none; stroke: #1f77b4; stroke-width: 1.5"/>
    <path d="M 228.669943 160.130802 
L 228.669943 153.71589 
" clip-path="url(#pea12a1dee1)" style="fill: none; stroke: #1f77b4; stroke-width: 1.5"/>
    <path d="M 230.191761 160.820082 
L 230.191761 154.3084 
" clip-path="url(#pea12a1dee1)" style="fill: none; stroke: #1f77b4; stroke-width: 1.5"/>
    <path d="M 231.71358 163.2263 
L 231.71358 156.373392 
" clip-path="url(#pea12a1dee1)" style="fill: none; stroke: #1f77b4; stroke-width: 1.5"/>
    <path d="M 233.235398 165.174561 
L 233.235398 157.960227 
" clip-path="url(#pea12a1dee1)" style="fill: none; stroke: #1f77b4; stroke-width: 1.5"/>
    <path d="M 234.757216 164.217687 
L 234.757216 157.268038 
" clip-path="url(#pea12a1dee1)" style="fill: none; stroke: #1f77b4; stroke-width: 1.5"/>
    <path d="M 236.279034 160.668221 
L 236.279034 154.182528 
" clip-path="url(#pea12a1dee1)" style="fill: none; stroke: #1f77b4; stroke-width: 1.5"/>
    <path d="M 237.800852 161.944548 
L 237.800852 155.252272 
" clip-path="url(#pea12a1dee1)" style="fill: none; stroke: #1f77b4; stroke-width: 1.5"/>
    <path d="M 239.32267 162.454544 
L 239.32267 155.624836 
" clip-path="url(#pea12a1dee1)" style="fill: none; stroke: #1f77b4; stroke-width: 1.5"/>
    <path d="M 240.844489 162.907347 
L 240.844489 156.05707 
" clip-path="url(#pea12a1dee1)" style="fill: none; stroke: #1f77b4; stroke-width: 1.5"/>
    <path d="M 242.366307 161.605025 
L 242.366307 154.994848 
" clip-path="url(#pea12a1dee1)" style="fill: none; stroke: #1f77b4; stroke-width: 1.5"/>
    <path d="M 243.888125 167.05339 
L 243.888125 159.715927 
" clip-path="url(#pea12a1dee1)" style="fill: none; stroke: #1f77b4; stroke-width: 1.5"/>
    <path d="M 245.409943 166.208341 
L 245.409943 159.101392 
" clip-path="url(#pea12a1dee1)" style="fill: none; stroke: #1f77b4; stroke-width: 1.5"/>
    <path d="M 246.931761 164.312761 
L 246.931761 157.361932 
" clip-path="url(#pea12a1dee1)" style="fill: none; stroke: #1f77b4; stroke-width: 1.5"/>
    <path d="M 248.45358 161.149984 
L 248.45358 154.531709 
" clip-path="url(#pea12a1dee1)" style="fill: none; stroke: #1f77b4; stroke-width: 1.5"/>
    <path d="M 249.975398 161.0244 
L 249.975398 154.450594 
" clip-path="url(#pea12a1dee1)" style="fill: none; stroke: #1f77b4; stroke-width: 1.5"/>
    <path d="M 251.497216 168.375283 
L 251.497216 160.943157 
" clip-path="url(#pea12a1dee1)" style="fill: none; stroke: #1f77b4; stroke-width: 1.5"/>
    <path d="M 253.019034 163.846141 
L 253.019034 156.973293 
" clip-path="url(#pea12a1dee1)" style="fill: none; stroke: #1f77b4; stroke-width: 1.5"/>
    <path d="M 254.540852 163.837787 
L 254.540852 156.861857 
" clip-path="url(#pea12a1dee1)" style="fill: none; stroke: #1f77b4; stroke-width: 1.5"/>
    <path d="M 256.06267 160.593919 
L 256.06267 154.110315 
" clip-path="url(#pea12a1dee1)" style="fill: none; stroke: #1f77b4; stroke-width: 1.5"/>
    <path d="M 257.584489 163.849619 
L 257.584489 156.816151 
" clip-path="url(#pea12a1dee1)" style="fill: none; stroke: #1f77b4; stroke-width: 1.5"/>
    <path d="M 259.106307 162.942371 
L 259.106307 156.069272 
" clip-path="url(#pea12a1dee1)" style="fill: none; stroke: #1f77b4; stroke-width: 1.5"/>
    <path d="M 260.628125 161.229625 
L 260.628125 154.65213 
" clip-path="url(#pea12a1dee1)" style="fill: none; stroke: #1f77b4; stroke-width: 1.5"/>
    <path d="M 262.149943 167.593269 
L 262.149943 160.253107 
" clip-path="url(#pea12a1dee1)" style="fill: none; stroke: #1f77b4; stroke-width: 1.5"/>
    <path d="M 263.671761 160.444664 
L 263.671761 153.952014 
" clip-path="url(#pea12a1dee1)" style="fill: none; stroke: #1f77b4; stroke-width: 1.5"/>
    <path d="M 265.19358 161.517539 
L 265.19358 154.863298 
" clip-path="url(#pea12a1dee1)" style="fill: none; stroke: #1f77b4; stroke-width: 1.5"/>
    <path d="M 266.715398 160.682685 
L 266.715398 154.16371 
" clip-path="url(#pea12a1dee1)" style="fill: none; stroke: #1f77b4; stroke-width: 1.5"/>
    <path d="M 268.237216 160.864139 
L 268.237216 154.272307 
" clip-path="url(#pea12a1dee1)" style="fill: none; stroke: #1f77b4; stroke-width: 1.5"/>
    <path d="M 269.759034 157.166774 
L 269.759034 151.176295 
" clip-path="url(#pea12a1dee1)" style="fill: none; stroke: #1f77b4; stroke-width: 1.5"/>
    <path d="M 271.280852 162.705607 
L 271.280852 156.00843 
" clip-path="url(#pea12a1dee1)" style="fill: none; stroke: #1f77b4; stroke-width: 1.5"/>
    <path d="M 272.80267 165.655934 
L 272.80267 158.385109 
" clip-path="url(#pea12a1dee1)" style="fill: none; stroke: #1f77b4; stroke-width: 1.5"/>
    <path d="M 274.324489 164.870255 
L 274.324489 157.867878 
" clip-path="url(#pea12a1dee1)" style="fill: none; stroke: #1f77b4; stroke-width: 1.5"/>
    <path d="M 275.846307 164.431736 
L 275.846307 157.358245 
" clip-path="url(#pea12a1dee1)" style="fill: none; stroke: #1f77b4; stroke-width: 1.5"/>
    <path d="M 277.368125 159.138509 
L 277.368125 152.867029 
" clip-path="url(#pea12a1dee1)" style="fill: none; stroke: #1f77b4; stroke-width: 1.5"/>
    <path d="M 278.889943 164.483926 
L 278.889943 157.469903 
" clip-path="url(#pea12a1dee1)" style="fill: none; stroke: #1f77b4; stroke-width: 1.5"/>
    <path d="M 280.411761 161.341804 
L 280.411761 154.741431 
" clip-path="url(#pea12a1dee1)" style="fill: none; stroke: #1f77b4; stroke-width: 1.5"/>
    <path d="M 281.93358 160.785546 
L 281.93358 154.245491 
" clip-path="url(#pea12a1dee1)" style="fill: none; stroke: #1f77b4; stroke-width: 1.5"/>
    <path d="M 283.455398 164.425527 
L 283.455398 157.318952 
" clip-path="url(#pea12a1dee1)" style="fill: none; stroke: #1f77b4; stroke-width: 1.5"/>
    <path d="M 284.977216 168.086606 
L 284.977216 160.570796 
" clip-path="url(#pea12a1dee1)" style="fill: none; stroke: #1f77b4; stroke-width: 1.5"/>
    <path d="M 286.499034 163.360393 
L 286.499034 156.531469 
" clip-path="url(#pea12a1dee1)" style="fill: none; stroke: #1f77b4; stroke-width: 1.5"/>
    <path d="M 288.020852 161.551413 
L 288.020852 154.805173 
" clip-path="url(#pea12a1dee1)" style="fill: none; stroke: #1f77b4; stroke-width: 1.5"/>
    <path d="M 289.54267 163.746685 
L 289.54267 156.76673 
" clip-path="url(#pea12a1dee1)" style="fill: none; stroke: #1f77b4; stroke-width: 1.5"/>
    <path d="M 291.064489 166.139446 
L 291.064489 158.843127 
" clip-path="url(#pea12a1dee1)" style="fill: none; stroke: #1f77b4; stroke-width: 1.5"/>
    <path d="M 292.586307 164.971369 
L 292.586307 157.755083 
" clip-path="url(#pea12a1dee1)" style="fill: none; stroke: #1f77b4; stroke-width: 1.5"/>
    <path d="M 294.108125 164.186081 
L 294.108125 157.006963 
" clip-path="url(#pea12a1dee1)" style="fill: none; stroke: #1f77b4; stroke-width: 1.5"/>
    <path d="M 295.629943 168.387841 
L 295.629943 160.731829 
" clip-path="url(#pea12a1dee1)" style="fill: none; stroke: #1f77b4; stroke-width: 1.5"/>
    <path d="M 297.151761 168.77322 
L 297.151761 160.827326 
" clip-path="url(#pea12a1dee1)" style="fill: none; stroke: #1f77b4; stroke-width: 1.5"/>
    <path d="M 298.67358 169.402486 
L 298.67358 161.342372 
" clip-path="url(#pea12a1dee1)" style="fill: none; stroke: #1f77b4; stroke-width: 1.5"/>
    <path d="M 300.195398 163.999427 
L 300.195398 156.467808 
" clip-path="url(#pea12a1dee1)" style="fill: none; stroke: #1f77b4; stroke-width: 1.5"/>
    <path d="M 301.717216 164.134261 
L 301.717216 156.371132 
" clip-path="url(#pea12a1dee1)" style="fill: none; stroke: #1f77b4; stroke-width: 1.5"/>
    <path d="M 303.239034 170.345031 
L 303.239034 161.829335 
" clip-path="url(#pea12a1dee1)" style="fill: none; stroke: #1f77b4; stroke-width: 1.5"/>
    <path d="M 304.760852 158.025855 
L 304.760852 151.058842 
" clip-path="url(#pea12a1dee1)" style="fill: none; stroke: #1f77b4; stroke-width: 1.5"/>
    <path d="M 306.28267 158.59222 
L 306.28267 151.386319 
" clip-path="url(#pea12a1dee1)" style="fill: none; stroke: #1f77b4; stroke-width: 1.5"/>
    <path d="M 307.804489 166.680262 
L 307.804489 158.365306 
" clip-path="url(#pea12a1dee1)" style="fill: none; stroke: #1f77b4; stroke-width: 1.5"/>
    <path d="M 309.326307 168.477648 
L 309.326307 159.621729 
" clip-path="url(#pea12a1dee1)" style="fill: none; stroke: #1f77b4; stroke-width: 1.5"/>
    <path d="M 310.848125 161.142438 
L 310.848125 153.338083 
" clip-path="url(#pea12a1dee1)" style="fill: none; stroke: #1f77b4; stroke-width: 1.5"/>
    <path d="M 312.369943 162.522534 
L 312.369943 154.348221 
" clip-path="url(#pea12a1dee1)" style="fill: none; stroke: #1f77b4; stroke-width: 1.5"/>
    <path d="M 313.891761 159.960361 
L 313.891761 152.210039 
" clip-path="url(#pea12a1dee1)" style="fill: none; stroke: #1f77b4; stroke-width: 1.5"/>
    <path d="M 315.41358 163.009364 
L 315.41358 154.662878 
" clip-path="url(#pea12a1dee1)" style="fill: none; stroke: #1f77b4; stroke-width: 1.5"/>
    <path d="M 316.935398 169.704071 
L 316.935398 160.112676 
" clip-path="url(#pea12a1dee1)" style="fill: none; stroke: #1f77b4; stroke-width: 1.5"/>
    <path d="M 318.457216 165.60551 
L 318.457216 156.156878 
" clip-path="url(#pea12a1dee1)" style="fill: none; stroke: #1f77b4; stroke-width: 1.5"/>
    <path d="M 319.979034 166.60157 
L 319.979034 157.486841 
" clip-path="url(#pea12a1dee1)" style="fill: none; stroke: #1f77b4; stroke-width: 1.5"/>
    <path d="M 321.500852 174.00055 
L 321.500852 163.108399 
" clip-path="url(#pea12a1dee1)" style="fill: none; stroke: #1f77b4; stroke-width: 1.5"/>
    <path d="M 323.02267 170.608584 
L 323.02267 159.728823 
" clip-path="url(#pea12a1dee1)" style="fill: none; stroke: #1f77b4; stroke-width: 1.5"/>
    <path d="M 324.544489 154.48756 
L 324.544489 146.329404 
" clip-path="url(#pea12a1dee1)" style="fill: none; stroke: #1f77b4; stroke-width: 1.5"/>
    <path d="M 326.066307 153.85934 
L 326.066307 145.93874 
" clip-path="url(#pea12a1dee1)" style="fill: none; stroke: #1f77b4; stroke-width: 1.5"/>
    <path d="M 327.588125 170.544861 
L 327.588125 158.995739 
" clip-path="url(#pea12a1dee1)" style="fill: none; stroke: #1f77b4; stroke-width: 1.5"/>
    <path d="M 329.109943 167.099931 
L 329.109943 156.752612 
" clip-path="url(#pea12a1dee1)" style="fill: none; stroke: #1f77b4; stroke-width: 1.5"/>
    <path d="M 330.631761 157.021694 
L 330.631761 147.243012 
" clip-path="url(#pea12a1dee1)" style="fill: none; stroke: #1f77b4; stroke-width: 1.5"/>
    <path d="M 332.15358 155.360413 
L 332.15358 145.580975 
" clip-path="url(#pea12a1dee1)" style="fill: none; stroke: #1f77b4; stroke-width: 1.5"/>
    <path d="M 333.675398 170.299107 
L 333.675398 157.441152 
" clip-path="url(#pea12a1dee1)" style="fill: none; stroke: #1f77b4; stroke-width: 1.5"/>
    <path d="M 335.197216 192.577269 
L 335.197216 173.270698 
" clip-path="url(#pea12a1dee1)" style="fill: none; stroke: #1f77b4; stroke-width: 1.5"/>
    <path d="M 336.719034 160.112835 
L 336.719034 148.78951 
" clip-path="url(#pea12a1dee1)" style="fill: none; stroke: #1f77b4; stroke-width: 1.5"/>
    <path d="M 338.240852 184.852472 
L 338.240852 166.304971 
" clip-path="url(#pea12a1dee1)" style="fill: none; stroke: #1f77b4; stroke-width: 1.5"/>
    <path d="M 339.76267 164.916329 
L 339.76267 151.807122 
" clip-path="url(#pea12a1dee1)" style="fill: none; stroke: #1f77b4; stroke-width: 1.5"/>
    <path d="M 341.284489 170.316254 
L 341.284489 154.838211 
" clip-path="url(#pea12a1dee1)" style="fill: none; stroke: #1f77b4; stroke-width: 1.5"/>
    <path d="M 342.806307 167.196295 
L 342.806307 151.786597 
" clip-path="url(#pea12a1dee1)" style="fill: none; stroke: #1f77b4; stroke-width: 1.5"/>
    <path d="M 344.328125 161.898528 
L 344.328125 147.791124 
" clip-path="url(#pea12a1dee1)" style="fill: none; stroke: #1f77b4; stroke-width: 1.5"/>
    <path d="M 345.849943 175.573096 
L 345.849943 155.443046 
" clip-path="url(#pea12a1dee1)" style="fill: none; stroke: #1f77b4; stroke-width: 1.5"/>
    <path d="M 347.371761 148.836183 
L 347.371761 134.917471 
" clip-path="url(#pea12a1dee1)" style="fill: none; stroke: #1f77b4; stroke-width: 1.5"/>
    <path d="M 348.89358 194.217221 
L 348.89358 161.171603 
" clip-path="url(#pea12a1dee1)" style="fill: none; stroke: #1f77b4; stroke-width: 1.5"/>
    <path d="M 350.415398 162.098281 
L 350.415398 141.779301 
" clip-path="url(#pea12a1dee1)" style="fill: none; stroke: #1f77b4; stroke-width: 1.5"/>
    <path d="M 351.937216 242.040444 
L 351.937216 160.692541 
" clip-path="url(#pea12a1dee1)" style="fill: none; stroke: #1f77b4; stroke-width: 1.5"/>
    <path d="M 353.459034 272.238906 
L 353.459034 166.21002 
" clip-path="url(#pea12a1dee1)" style="fill: none; stroke: #1f77b4; stroke-width: 1.5"/>
    <path d="M 354.980852 272.238906 
L 354.980852 169.740363 
" clip-path="url(#pea12a1dee1)" style="fill: none; stroke: #1f77b4; stroke-width: 1.5"/>
    <path d="M 356.50267 272.238906 
L 356.50267 126.961958 
" clip-path="url(#pea12a1dee1)" style="fill: none; stroke: #1f77b4; stroke-width: 1.5"/>
    <path d="M 358.024489 272.238906 
L 358.024489 60.121925 
" clip-path="url(#pea12a1dee1)" style="fill: none; stroke: #1f77b4; stroke-width: 1.5"/>
    <path d="M 359.546307 272.238906 
L 359.546307 63.787306 
" clip-path="url(#pea12a1dee1)" style="fill: none; stroke: #1f77b4; stroke-width: 1.5"/>
    <path d="M 361.068125 272.238906 
L 361.068125 46.948575 
" clip-path="url(#pea12a1dee1)" style="fill: none; stroke: #1f77b4; stroke-width: 1.5"/>
    <path d="M 362.589943 272.238906 
L 362.589943 3.714085 
" clip-path="url(#pea12a1dee1)" style="fill: none; stroke: #1f77b4; stroke-width: 1.5"/>
    <path d="M 364.111761 272.238906 
L 364.111761 -1 
" clip-path="url(#pea12a1dee1)" style="fill: none; stroke: #1f77b4; stroke-width: 1.5"/>
    <path d="M 365.63358 272.238906 
L 365.63358 41.322644 
" clip-path="url(#pea12a1dee1)" style="fill: none; stroke: #1f77b4; stroke-width: 1.5"/>
    <path d="M 367.155398 272.238906 
L 367.155398 53.337536 
" clip-path="url(#pea12a1dee1)" style="fill: none; stroke: #1f77b4; stroke-width: 1.5"/>
    <path d="M 368.677216 272.238906 
L 368.677216 38.643439 
" clip-path="url(#pea12a1dee1)" style="fill: none; stroke: #1f77b4; stroke-width: 1.5"/>
    <path d="M 370.199034 272.238906 
L 370.199034 32.390671 
" clip-path="url(#pea12a1dee1)" style="fill: none; stroke: #1f77b4; stroke-width: 1.5"/>
   </g>
  </g>
 </g>
 <defs>
  <clipPath id="pea12a1dee1">
   <rect x="51.378125" y="10.999219" width="334.8" height="221.76"/>
  </clipPath>
 </defs>
</svg>