<?xml version="1.0" encoding="UTF-8" standalone="no"?>
<!-- Created with Inkscape (http://www.inkscape.org/) -->

<svg
   width="600"
   height="380"
   viewBox="0 0 158.75 100.54166"
   version="1.1"
   id="svg5"
   inkscape:version="1.3 (0e150ed6c4, 2023-07-21)"
   sodipodi:docname="qens-beamline.svg"
   xml:space="preserve"
   xmlns:inkscape="http://www.inkscape.org/namespaces/inkscape"
   xmlns:sodipodi="http://sodipodi.sourceforge.net/DTD/sodipodi-0.dtd"
   xmlns="http://www.w3.org/2000/svg"
   xmlns:svg="http://www.w3.org/2000/svg"><sodipodi:namedview
     id="namedview7"
     pagecolor="#ffffff"
     bordercolor="#000000"
     borderopacity="0.25"
     inkscape:showpageshadow="2"
     inkscape:pageopacity="0.0"
     inkscape:pagecheckerboard="0"
     inkscape:deskcolor="#d1d1d1"
     inkscape:document-units="mm"
     showgrid="false"
     inkscape:zoom="1.3700598"
     inkscape:cx="204.37064"
     inkscape:cy="172.25525"
     inkscape:window-width="2560"
     inkscape:window-height="1406"
     inkscape:window-x="0"
     inkscape:window-y="0"
     inkscape:window-maximized="1"
     inkscape:current-layer="layer1" /><defs
     id="defs2" /><g
     inkscape:label="Layer 1"
     inkscape:groupmode="layer"
     id="layer1"
     transform="translate(-9.2157616,-22.055187)"><g
       id="g11"
       transform="translate(0,5.475274)"><circle
         style="fill:#333333;stroke:none;stroke-width:0.793999;stroke-dasharray:2.382, 2.382;stroke-dashoffset:0"
         id="circle1498"
         cx="85.333519"
         cy="60.585396"
         r="2.0307271"
         transform="rotate(-20.155039)" /><circle
         style="fill:#333333;stroke:none;stroke-width:0.793999;stroke-dasharray:2.382, 2.382;stroke-dashoffset:0"
         id="path1442"
         cx="-3.2140205"
         cy="65.896118"
         r="2.0307271"
         transform="rotate(-20.155039)" /><rect
         style="fill:#333333;stroke:none;stroke-width:0.793999"
         id="rect508"
         width="3.3908753"
         height="3.3908753"
         x="101.03288"
         y="83.081177"
         transform="rotate(1.1062097)" /><g
         id="path732"
         transform="matrix(0.94797184,-0.34794137,0.34794137,0.94797184,-6.5028255,57.785945)"
         style="stroke-width:0.990286"><path
           style="color:#000000;fill:#006ab5;stroke-width:0.990286;-inkscape-stroke:none"
           d="m 25.783203,15.669922 -0.470703,0.638672 59.953125,44.1875 0.470703,-0.638672 z"
           id="path5497" /><g
           id="g5487"
           style="stroke-width:0.990286"><g
             id="path5489"
             style="stroke-width:0.990286"><path
               style="color:#000000;fill:#006ab5;fill-rule:evenodd;stroke-width:0.319349pt;-inkscape-stroke:none"
               d="m 86.998517,61.280244 -3.202113,-0.356986 1.913245,-2.595943 z"
               id="path5493" /><path
               style="color:#000000;fill:#006ab5;fill-rule:evenodd;stroke-width:0.990286;-inkscape-stroke:none"
               d="m 85.757812,57.900391 -2.355468,3.195312 3.941406,0.439453 -0.148438,-0.341797 z m -0.09766,0.855468 0.992188,2.269532 L 84.189453,60.75 Z"
               id="path5495" /></g></g></g><g
         id="path736"
         transform="matrix(1.0263055,-0.07985438,0.07985438,1.0263055,3.1507576,28.435301)"
         style="stroke-width:0.971432"
         inkscape:transform-center-x="-26.781801"
         inkscape:transform-center-y="-13.686313"><path
           style="color:#000000;fill:#006ab5;stroke-width:0.971432;-inkscape-stroke:none"
           d="M 145.14258,40.808594 93.615234,62.283203 93.921875,63.015625 145.44727,41.542969 Z"
           id="path5479" /><g
           id="g5469"
           style="stroke-width:0.971432"><g
             id="path5471"
             style="stroke-width:0.971432"><path
               style="color:#000000;fill:#006ab5;fill-rule:evenodd;stroke-width:0.313269pt;-inkscape-stroke:none"
               d="m 147.01282,40.460167 -1.95456,2.56138 -1.24052,-2.976667 z"
               id="path5475" /><path
               style="color:#000000;fill:#006ab5;fill-rule:evenodd;stroke-width:0.971432;-inkscape-stroke:none"
               d="m 143.47656,39.783203 1.52735,3.664063 2.40625,-3.152344 -0.36914,-0.04883 z m 0.68164,0.523438 2.45703,0.318359 -1.50195,1.970703 z"
               id="path5477" /></g></g></g><path
         style="fill:none;stroke:#006ab5;stroke-width:0.793995;stroke-dasharray:2.382, 2.382;stroke-dashoffset:0;stroke-opacity:1"
         d="m 104.45327,87.769022 35.34592,10.255674"
         id="path738" /><text
         xml:space="preserve"
         style="font-size:6.35px;font-family:Arial;-inkscape-font-specification:Arial;fill:#000000;stroke:none;stroke-width:0.793999;stroke-dasharray:none;stroke-dashoffset:0;stroke-opacity:1"
         x="55.837879"
         y="51.959393"
         id="text1537"
         transform="rotate(16.490358)"><tspan
           sodipodi:role="line"
           id="tspan1535"
           style="font-size:6.35px;fill:#000000;stroke:none;stroke-width:0.794"
           x="55.837879"
           y="51.959393">incident_beam</tspan></text><text
         xml:space="preserve"
         style="font-size:8.46667px;font-family:Arial;-inkscape-font-specification:Arial;fill:none;stroke:#000000;stroke-width:0.79375;stroke-dasharray:none;stroke-dashoffset:0;stroke-opacity:1"
         x="124.95748"
         y="86.605324"
         id="text3585"
         transform="rotate(0.11101274)"><tspan
           sodipodi:role="line"
           id="tspan3583"
           style="font-size:8.46667px;fill:#000000;stroke:none;stroke-width:0.79375"
           x="124.95748"
           y="86.605324">2θ</tspan></text><text
         xml:space="preserve"
         style="font-size:6.35px;font-family:Arial;-inkscape-font-specification:Arial;fill:none;stroke:#ff0000;stroke-width:1;stroke-dasharray:none;stroke-opacity:1"
         x="14.661996"
         y="94.866074"
         id="text3699"><tspan
           sodipodi:role="line"
           id="tspan3697"
           style="fill:#000000;stroke:none;stroke-width:1"
           x="14.661996"
           y="94.866074">source_position</tspan></text><text
         xml:space="preserve"
         style="font-size:6.35px;font-family:Arial;-inkscape-font-specification:Arial;fill:none;stroke:#ff0000;stroke-width:1;stroke-dasharray:none;stroke-opacity:1"
         x="68.033348"
         y="106.94176"
         id="text3855"><tspan
           sodipodi:role="line"
           id="tspan3853"
           style="fill:#000000;stroke:none;stroke-width:1"
           x="68.033348"
           y="106.94176">sample_position</tspan></text><text
         xml:space="preserve"
         style="font-size:6.35px;font-family:Arial;-inkscape-font-specification:Arial;fill:none;stroke:#ff0000;stroke-width:1;stroke-dasharray:none;stroke-opacity:1"
         x="59.416759"
         y="35.752499"
         id="text3859"><tspan
           sodipodi:role="line"
           id="tspan3857"
           style="fill:#000000;stroke:none;stroke-width:1"
           x="59.416759"
           y="35.752499">position</tspan></text><g
         id="path3915"
         transform="matrix(0.67848195,0.73461707,0.73461707,-0.67848195,-30.80982,-58.097396)"><path
           style="color:#000000;fill:#000000;-inkscape-stroke:none"
           d="m 145.18164,21.599609 -0.64258,0.277344 5.92383,13.675781 0.64258,-0.277343 z"
           id="path5096" /><g
           id="g5088"><path
             style="color:#000000;fill:#000000;stroke-linecap:round;-inkscape-stroke:none"
             d="m 151.70703,33.324219 a 0.25,0.25 0 0 0 -0.32422,0.140625 l -0.68945,1.738281 -1.74024,-0.6875 a 0.25,0.25 0 0 0 -0.32421,0.140625 0.25,0.25 0 0 0 0.14062,0.324219 l 2.20508,0.873047 0.87305,-2.205079 a 0.25,0.25 0 0 0 -0.14063,-0.324218 z"
             id="path5090" /></g></g><text
         xml:space="preserve"
         style="font-style:italic;font-variant:normal;font-weight:normal;font-stretch:normal;font-size:6.35px;font-family:Arial;-inkscape-font-specification:'Arial Italic';fill:#666666;stroke:#000000;stroke-width:0.7;stroke-dasharray:none;stroke-opacity:1"
         x="31.112881"
         y="35.752499"
         id="text4669"><tspan
           sodipodi:role="line"
           id="tspan4667"
           style="font-style:italic;font-variant:normal;font-weight:normal;font-stretch:normal;font-family:Arial;-inkscape-font-specification:'Arial Italic';fill:#666666;stroke:none;stroke-width:0.7"
           x="31.112881"
           y="35.752499">(detector)</tspan></text><g
         id="path4894"
         transform="rotate(-20.155039,159.63053,46.412502)"><path
           style="color:#000000;fill:#000000;-inkscape-stroke:none"
           d="m 87.195312,65.859375 -10.951171,7.060547 0.378906,0.58789 10.951172,-7.060546 z"
           id="path5120" /><g
           id="g5112"><path
             style="color:#000000;fill:#000000;stroke-linecap:round;-inkscape-stroke:none"
             d="m 85.46875,65.394531 a 0.25,0.25 0 0 0 -0.296875,0.191406 0.25,0.25 0 0 0 0.191406,0.296875 l 1.830078,0.394532 -0.396484,1.830078 a 0.25,0.25 0 0 0 0.191406,0.296875 0.25,0.25 0 0 0 0.298828,-0.191406 l 0.5,-2.31836 z"
             id="path5114" /></g></g><g
         id="path4896"
         transform="rotate(-20.155039,159.63053,46.412502)"><path
           style="color:#000000;fill:#000000;-inkscape-stroke:none"
           d="m 23.478516,17.382812 -0.6875,0.13086 4.83789,25.445312 0.6875,-0.130859 z"
           id="path5108" /><g
           id="g5100"><path
             style="color:#000000;fill:#000000;stroke-linecap:round;-inkscape-stroke:none"
             d="m 23.044922,16.978516 -1.333985,1.960937 a 0.25,0.25 0 0 0 0.06641,0.347656 0.25,0.25 0 0 0 0.347656,-0.06641 l 1.052734,-1.546875 1.546875,1.052734 a 0.25,0.25 0 0 0 0.347657,-0.06641 0.25,0.25 0 0 0 -0.06641,-0.347656 z"
             id="path5102" /></g></g><g
         id="g2"
         transform="translate(5.6229675,24.728059)"><path
           style="color:#000000;fill:#000000;stroke-width:1;stroke-dasharray:none"
           d="m 114.70473,52.114439 -1.23002,3.559097 0.74914,0.259984 0.97003,-2.809948 2.81008,0.971978 0.25984,-0.751102 z"
           id="path3505" /><path
           style="color:#000000;fill:#000000;stroke-width:1;stroke-dasharray:none"
           d="m 116.53032,67.049601 -1.46712,-2.585488 -0.69462,0.39174 1.86613,3.279248 3.26889,-1.85871 -0.38881,-0.68669 z"
           id="path3499"
           sodipodi:nodetypes="ccccccc" /><path
           style="color:#000000;fill:#000000;fill-opacity:1;-inkscape-stroke:none"
           d="m 115.35742,52.648437 -0.62695,0.3125 c 1.37969,2.782057 2.09766,5.850962 2.09766,8.962891 -1e-5,1.900821 -0.26879,3.790879 -0.79688,5.615234 l 0.67188,0.195313 c 0.54642,-1.887679 0.82421,-3.843906 0.82421,-5.810547 1e-5,-3.219669 -0.74217,-6.396424 -2.16992,-9.275391 z"
           id="path1" /></g><g
         id="g7"
         transform="matrix(-1.0263055,-0.07985438,-0.07985438,1.0263055,258.4669,-1.330331)"
         style="stroke-width:0.971432"
         inkscape:transform-center-x="26.781798"
         inkscape:transform-center-y="-13.686313"><path
           style="color:#000000;fill:#006ab5;stroke-width:0.971432;-inkscape-stroke:none"
           d="M 145.14258,40.808594 93.615234,62.283203 93.921875,63.015625 145.44727,41.542969 Z"
           id="path3" /><g
           id="g6"
           style="stroke-width:0.971432"><g
             id="g5"
             style="stroke-width:0.971432"><path
               style="color:#000000;fill:#006ab5;fill-rule:evenodd;stroke-width:0.313269pt;-inkscape-stroke:none"
               d="m 147.01282,40.460167 -1.95456,2.56138 -1.24052,-2.976667 z"
               id="path4" /><path
               style="color:#000000;fill:#006ab5;fill-rule:evenodd;stroke-width:0.971432;-inkscape-stroke:none"
               d="m 143.47656,39.783203 1.52735,3.664063 2.40625,-3.152344 -0.36914,-0.04883 z m 0.68164,0.523438 2.45703,0.318359 -1.50195,1.970703 z"
               id="path5" /></g></g></g><path
         id="path7"
         style="fill:#333333;stroke:none;stroke-width:0.185208"
         inkscape:transform-center-x="1.86866e-06"
         inkscape:transform-center-y="0.54656361"
         d="m 159.43437,59.149169 -1.89335,-3.27938 h 3.78671 z" /><g
         id="g10"
         transform="rotate(32.836497,135.37091,169.0157)"><path
           style="color:#000000;fill:#000000;-inkscape-stroke:none"
           d="m 87.195312,65.859375 -10.951171,7.060547 0.378906,0.58789 10.951172,-7.060546 z"
           id="path8" /><g
           id="g9"><path
             style="color:#000000;fill:#000000;stroke-linecap:round;-inkscape-stroke:none"
             d="m 85.46875,65.394531 a 0.25,0.25 0 0 0 -0.296875,0.191406 0.25,0.25 0 0 0 0.191406,0.296875 l 1.830078,0.394532 -0.396484,1.830078 a 0.25,0.25 0 0 0 0.191406,0.296875 0.25,0.25 0 0 0 0.298828,-0.191406 l 0.5,-2.31836 z"
             id="path9" /></g></g><text
         xml:space="preserve"
         style="font-size:6.35px;font-family:Arial;-inkscape-font-specification:Arial;fill:none;stroke:#ff0000;stroke-width:1;stroke-dasharray:none;stroke-opacity:1"
         x="85.946899"
         y="58.113663"
         id="text10"><tspan
           sodipodi:role="line"
           id="tspan10"
           style="fill:#000000;stroke:none;stroke-width:1"
           x="85.946899"
           y="58.113663">analyzer_position</tspan></text></g></g></svg>
